<?xml version="1.0" encoding="UTF-8" standalone="no"?>
<!DOCTYPE svg PUBLIC "-//W3C//DTD SVG 1.1//EN"
 "http://www.w3.org/Graphics/SVG/1.1/DTD/svg11.dtd">
<!-- Generated by graphviz version 2.40.1 (20161225.0304)
 -->
<!-- Title: traffic_mngr.h Pages: 1 -->
<svg width="655pt" height="364pt"
 viewBox="0.00 0.00 655.00 364.00" xmlns="http://www.w3.org/2000/svg" xmlns:xlink="http://www.w3.org/1999/xlink">
<g id="graph0" class="graph" transform="scale(1 1) rotate(0) translate(4 360)">
<title>traffic_mngr.h</title>
<polygon fill="#ffffff" stroke="transparent" points="-4,4 -4,-360 651,-360 651,4 -4,4"/>
<!-- Node10 -->
<g id="node1" class="node">
<title>Node10</title>
<polygon fill="#bfbfbf" stroke="#000000" points="285,-336.5 285,-355.5 362,-355.5 362,-336.5 285,-336.5"/>
<text text-anchor="middle" x="323.5" y="-343.5" font-family="Helvetica,sans-Serif" font-size="10.00" fill="#000000">traffic_mngr.h</text>
</g>
<!-- Node11 -->
<g id="node2" class="node">
<title>Node11</title>
<g id="a_node2"><a xlink:href="arch_2arm32-linux_2odp_2api_2abi_2traffic__mngr_8h_source.html" target="_top" xlink:title="traffic_mngr.h">
<polygon fill="#ffffff" stroke="#000000" points="0,-280.5 0,-299.5 77,-299.5 77,-280.5 0,-280.5"/>
<text text-anchor="middle" x="38.5" y="-287.5" font-family="Helvetica,sans-Serif" font-size="10.00" fill="#000000">traffic_mngr.h</text>
</a>
</g>
</g>
<!-- Node10&#45;&gt;Node11 -->
<g id="edge1" class="edge">
<title>Node10&#45;&gt;Node11</title>
<path fill="none" stroke="#191970" d="M274.7842,-336.7465C226.8445,-327.5928 151.5782,-313.094 86.5,-300 83.4123,-299.3788 80.2145,-298.7282 77.0029,-298.0698"/>
<polygon fill="#191970" stroke="#191970" points="274.402,-340.2366 284.8807,-338.6724 275.7137,-333.3606 274.402,-340.2366"/>
</g>
<!-- Node12 -->
<g id="node3" class="node">
<title>Node12</title>
<g id="a_node3"><a xlink:href="arch_2arm64-linux_2odp_2api_2abi_2traffic__mngr_8h_source.html" target="_top" xlink:title="traffic_mngr.h">
<polygon fill="#ffffff" stroke="#000000" points="95,-280.5 95,-299.5 172,-299.5 172,-280.5 95,-280.5"/>
<text text-anchor="middle" x="133.5" y="-287.5" font-family="Helvetica,sans-Serif" font-size="10.00" fill="#000000">traffic_mngr.h</text>
</a>
</g>
</g>
<!-- Node10&#45;&gt;Node12 -->
<g id="edge2" class="edge">
<title>Node10&#45;&gt;Node12</title>
<path fill="none" stroke="#191970" d="M280.9403,-333.4561C246.0631,-323.1765 197.4532,-308.8494 165.736,-299.5011"/>
<polygon fill="#191970" stroke="#191970" points="280.2563,-336.9033 290.8378,-336.3733 282.2353,-330.1888 280.2563,-336.9033"/>
</g>
<!-- Node13 -->
<g id="node4" class="node">
<title>Node13</title>
<g id="a_node4"><a xlink:href="arch_2default-linux_2odp_2api_2abi_2traffic__mngr_8h_source.html" target="_top" xlink:title="traffic_mngr.h">
<polygon fill="#ffffff" stroke="#000000" points="190,-280.5 190,-299.5 267,-299.5 267,-280.5 190,-280.5"/>
<text text-anchor="middle" x="228.5" y="-287.5" font-family="Helvetica,sans-Serif" font-size="10.00" fill="#000000">traffic_mngr.h</text>
</a>
</g>
</g>
<!-- Node10&#45;&gt;Node13 -->
<g id="edge3" class="edge">
<title>Node10&#45;&gt;Node13</title>
<path fill="none" stroke="#191970" d="M298.1324,-331.0465C281.229,-321.0824 259.5096,-308.2794 244.8581,-299.6427"/>
<polygon fill="#191970" stroke="#191970" points="296.5602,-334.1825 306.9523,-336.2455 300.1149,-328.1522 296.5602,-334.1825"/>
</g>
<!-- Node14 -->
<g id="node5" class="node">
<title>Node14</title>
<g id="a_node5"><a xlink:href="arch_2mips64-linux_2odp_2api_2abi_2traffic__mngr_8h_source.html" target="_top" xlink:title="traffic_mngr.h">
<polygon fill="#ffffff" stroke="#000000" points="285,-280.5 285,-299.5 362,-299.5 362,-280.5 285,-280.5"/>
<text text-anchor="middle" x="323.5" y="-287.5" font-family="Helvetica,sans-Serif" font-size="10.00" fill="#000000">traffic_mngr.h</text>
</a>
</g>
</g>
<!-- Node10&#45;&gt;Node14 -->
<g id="edge4" class="edge">
<title>Node10&#45;&gt;Node14</title>
<path fill="none" stroke="#191970" d="M323.5,-326.1575C323.5,-317.155 323.5,-306.9199 323.5,-299.6427"/>
<polygon fill="#191970" stroke="#191970" points="320.0001,-326.2455 323.5,-336.2455 327.0001,-326.2456 320.0001,-326.2455"/>
</g>
<!-- Node15 -->
<g id="node6" class="node">
<title>Node15</title>
<g id="a_node6"><a xlink:href="arch_2power64-linux_2odp_2api_2abi_2traffic__mngr_8h_source.html" target="_top" xlink:title="traffic_mngr.h">
<polygon fill="#ffffff" stroke="#000000" points="380,-280.5 380,-299.5 457,-299.5 457,-280.5 380,-280.5"/>
<text text-anchor="middle" x="418.5" y="-287.5" font-family="Helvetica,sans-Serif" font-size="10.00" fill="#000000">traffic_mngr.h</text>
</a>
</g>
</g>
<!-- Node10&#45;&gt;Node15 -->
<g id="edge5" class="edge">
<title>Node10&#45;&gt;Node15</title>
<path fill="none" stroke="#191970" d="M348.8676,-331.0465C365.771,-321.0824 387.4904,-308.2794 402.1419,-299.6427"/>
<polygon fill="#191970" stroke="#191970" points="346.8851,-328.1522 340.0477,-336.2455 350.4398,-334.1825 346.8851,-328.1522"/>
</g>
<!-- Node16 -->
<g id="node7" class="node">
<title>Node16</title>
<g id="a_node7"><a xlink:href="arch_2x86__32-linux_2odp_2api_2abi_2traffic__mngr_8h_source.html" target="_top" xlink:title="traffic_mngr.h">
<polygon fill="#ffffff" stroke="#000000" points="475,-280.5 475,-299.5 552,-299.5 552,-280.5 475,-280.5"/>
<text text-anchor="middle" x="513.5" y="-287.5" font-family="Helvetica,sans-Serif" font-size="10.00" fill="#000000">traffic_mngr.h</text>
</a>
</g>
</g>
<!-- Node10&#45;&gt;Node16 -->
<g id="edge6" class="edge">
<title>Node10&#45;&gt;Node16</title>
<path fill="none" stroke="#191970" d="M366.0597,-333.4561C400.9369,-323.1765 449.5468,-308.8494 481.264,-299.5011"/>
<polygon fill="#191970" stroke="#191970" points="364.7647,-330.1888 356.1622,-336.3733 366.7437,-336.9033 364.7647,-330.1888"/>
</g>
<!-- Node17 -->
<g id="node8" class="node">
<title>Node17</title>
<g id="a_node8"><a xlink:href="arch_2x86__64-linux_2odp_2api_2abi_2traffic__mngr_8h_source.html" target="_top" xlink:title="traffic_mngr.h">
<polygon fill="#ffffff" stroke="#000000" points="570,-280.5 570,-299.5 647,-299.5 647,-280.5 570,-280.5"/>
<text text-anchor="middle" x="608.5" y="-287.5" font-family="Helvetica,sans-Serif" font-size="10.00" fill="#000000">traffic_mngr.h</text>
</a>
</g>
</g>
<!-- Node10&#45;&gt;Node17 -->
<g id="edge7" class="edge">
<title>Node10&#45;&gt;Node17</title>
<path fill="none" stroke="#191970" d="M372.1332,-336.8761C420.2713,-327.7802 496.043,-313.288 561.5,-300 564.198,-299.4523 566.9813,-298.8796 569.7833,-298.2976"/>
<polygon fill="#191970" stroke="#191970" points="371.4716,-333.4391 362.2941,-338.7328 372.7697,-340.3177 371.4716,-333.4391"/>
</g>
<!-- Node18 -->
<g id="node9" class="node">
<title>Node18</title>
<g id="a_node9"><a xlink:href="api_2traffic__mngr_8h.html" target="_top" xlink:title="ODP Traffic manager. ">
<polygon fill="#ffffff" stroke="#000000" points="570,-224.5 570,-243.5 647,-243.5 647,-224.5 570,-224.5"/>
<text text-anchor="middle" x="608.5" y="-231.5" font-family="Helvetica,sans-Serif" font-size="10.00" fill="#000000">traffic_mngr.h</text>
</a>
</g>
</g>
<!-- Node17&#45;&gt;Node18 -->
<g id="edge8" class="edge">
<title>Node17&#45;&gt;Node18</title>
<path fill="none" stroke="#191970" d="M608.5,-270.1575C608.5,-261.155 608.5,-250.9199 608.5,-243.6427"/>
<polygon fill="#191970" stroke="#191970" points="605.0001,-270.2455 608.5,-280.2455 612.0001,-270.2456 605.0001,-270.2455"/>
</g>
<!-- Node19 -->
<g id="node10" class="node">
<title>Node19</title>
<g id="a_node10"><a xlink:href="api_2spec_2ipsec_8h.html" target="_top" xlink:title="ODP IPSEC API. ">
<polygon fill="#ffffff" stroke="#000000" points="558.5,-168.5 558.5,-187.5 606.5,-187.5 606.5,-168.5 558.5,-168.5"/>
<text text-anchor="middle" x="582.5" y="-175.5" font-family="Helvetica,sans-Serif" font-size="10.00" fill="#000000">ipsec.h</text>
</a>
</g>
</g>
<!-- Node18&#45;&gt;Node19 -->
<g id="edge9" class="edge">
<title>Node18&#45;&gt;Node19</title>
<path fill="none" stroke="#191970" d="M599.6989,-215.0437C595.4225,-205.8331 590.467,-195.1598 586.977,-187.6427"/>
<polygon fill="#191970" stroke="#191970" points="596.5854,-216.6494 603.9711,-224.2455 602.9345,-213.7015 596.5854,-216.6494"/>
</g>
<!-- Node21 -->
<g id="node12" class="node">
<title>Node21</title>
<g id="a_node12"><a xlink:href="odp__api_8h.html" target="_top" xlink:title="The OpenDataPlane API. ">
<polygon fill="#ffffff" stroke="#000000" points="579,-56.5 579,-75.5 638,-75.5 638,-56.5 579,-56.5"/>
<text text-anchor="middle" x="608.5" y="-63.5" font-family="Helvetica,sans-Serif" font-size="10.00" fill="#000000">odp_api.h</text>
</a>
</g>
</g>
<!-- Node18&#45;&gt;Node21 -->
<g id="edge13" class="edge">
<title>Node18&#45;&gt;Node21</title>
<path fill="none" stroke="#191970" d="M612.1817,-214.2065C613.5119,-206.1132 614.8464,-196.639 615.5,-188 618.0481,-154.3185 618.0481,-145.6815 615.5,-112 614.5494,-99.4342 612.158,-85.1014 610.4347,-75.8213"/>
<polygon fill="#191970" stroke="#191970" points="608.7128,-213.7247 610.4347,-224.1787 615.6078,-214.9326 608.7128,-213.7247"/>
</g>
<!-- Node20 -->
<g id="node11" class="node">
<title>Node20</title>
<g id="a_node11"><a xlink:href="api_2ipsec_8h.html" target="_top" xlink:title="ODP IPSEC API &#45; platform specific header. ">
<polygon fill="#ffffff" stroke="#000000" points="558.5,-112.5 558.5,-131.5 606.5,-131.5 606.5,-112.5 558.5,-112.5"/>
<text text-anchor="middle" x="582.5" y="-119.5" font-family="Helvetica,sans-Serif" font-size="10.00" fill="#000000">ipsec.h</text>
</a>
</g>
</g>
<!-- Node19&#45;&gt;Node20 -->
<g id="edge10" class="edge">
<title>Node19&#45;&gt;Node20</title>
<path fill="none" stroke="#191970" d="M582.5,-158.1575C582.5,-149.155 582.5,-138.9199 582.5,-131.6427"/>
<polygon fill="#191970" stroke="#191970" points="579.0001,-158.2455 582.5,-168.2455 586.0001,-158.2456 579.0001,-158.2455"/>
</g>
<!-- Node20&#45;&gt;Node21 -->
<g id="edge11" class="edge">
<title>Node20&#45;&gt;Node21</title>
<path fill="none" stroke="#191970" d="M591.3011,-103.0437C595.5775,-93.8331 600.533,-83.1598 604.023,-75.6427"/>
<polygon fill="#191970" stroke="#191970" points="588.0655,-101.7015 587.0289,-112.2455 594.4146,-104.6494 588.0655,-101.7015"/>
</g>
<!-- Node22 -->
<g id="node13" class="node">
<title>Node22</title>
<g id="a_node13"><a xlink:href="odp_8h.html" target="_top" xlink:title="WARNING: THIS FILE IS DEPRECATED AND WILL BE REMOVED!!! ODP APPLICATIONS SHOULD NOW INCLUDE odp_api...">
<polygon fill="#ffffff" stroke="#000000" points="588,-.5 588,-19.5 629,-19.5 629,-.5 588,-.5"/>
<text text-anchor="middle" x="608.5" y="-7.5" font-family="Helvetica,sans-Serif" font-size="10.00" fill="#000000">odp.h</text>
</a>
</g>
</g>
<!-- Node21&#45;&gt;Node22 -->
<g id="edge12" class="edge">
<title>Node21&#45;&gt;Node22</title>
<path fill="none" stroke="#191970" d="M608.5,-46.1575C608.5,-37.155 608.5,-26.9199 608.5,-19.6427"/>
<polygon fill="#191970" stroke="#191970" points="605.0001,-46.2455 608.5,-56.2455 612.0001,-46.2456 605.0001,-46.2455"/>
</g>
</g>
</svg>
