<?xml version="1.0" encoding="UTF-8" standalone="no"?>
<!DOCTYPE svg PUBLIC "-//W3C//DTD SVG 1.1//EN"
 "http://www.w3.org/Graphics/SVG/1.1/DTD/svg11.dtd">
<!-- Generated by graphviz version 2.40.1 (20161225.0304)
 -->
<!-- Title: thrmask.h Pages: 1 -->
<svg width="399pt" height="364pt"
 viewBox="0.00 0.00 399.00 364.00" xmlns="http://www.w3.org/2000/svg" xmlns:xlink="http://www.w3.org/1999/xlink">
<g id="graph0" class="graph" transform="scale(1 1) rotate(0) translate(4 360)">
<title>thrmask.h</title>
<polygon fill="#ffffff" stroke="transparent" points="-4,4 -4,-360 395,-360 395,4 -4,4"/>
<!-- Node0 -->
<g id="node1" class="node">
<title>Node0</title>
<polygon fill="#bfbfbf" stroke="#000000" points="91,-336.5 91,-355.5 151,-355.5 151,-336.5 91,-336.5"/>
<text text-anchor="middle" x="121" y="-343.5" font-family="Helvetica,sans-Serif" font-size="10.00" fill="#000000">thrmask.h</text>
</g>
<!-- Node1 -->
<g id="node2" class="node">
<title>Node1</title>
<polygon fill="#ffffff" stroke="#bfbfbf" points="0,-280.5 0,-299.5 110,-299.5 110,-280.5 0,-280.5"/>
<text text-anchor="middle" x="55" y="-287.5" font-family="Helvetica,sans-Serif" font-size="10.00" fill="#000000">odp/api/abi/thrmask.h</text>
</g>
<!-- Node0&#45;&gt;Node1 -->
<g id="edge1" class="edge">
<title>Node0&#45;&gt;Node1</title>
<path fill="none" stroke="#191970" d="M109.5037,-336.2455C99.7558,-327.9746 85.5741,-315.9416 74.1202,-306.2232"/>
<polygon fill="#191970" stroke="#191970" points="76.2541,-303.4437 66.3646,-299.6427 71.7253,-308.7813 76.2541,-303.4437"/>
</g>
<!-- Node2 -->
<g id="node3" class="node">
<title>Node2</title>
<g id="a_node3"><a xlink:href="api_2spec_2thrmask_8h.html" target="_top" xlink:title="ODP thread masks. ">
<polygon fill="#ffffff" stroke="#000000" points="128.5,-280.5 128.5,-299.5 247.5,-299.5 247.5,-280.5 128.5,-280.5"/>
<text text-anchor="middle" x="188" y="-287.5" font-family="Helvetica,sans-Serif" font-size="10.00" fill="#000000">odp/api/spec/thrmask.h</text>
</a>
</g>
</g>
<!-- Node0&#45;&gt;Node2 -->
<g id="edge2" class="edge">
<title>Node0&#45;&gt;Node2</title>
<path fill="none" stroke="#191970" d="M132.6705,-336.2455C142.5661,-327.9746 156.9627,-315.9416 168.5901,-306.2232"/>
<polygon fill="#191970" stroke="#191970" points="171.035,-308.7413 176.4632,-299.6427 166.5458,-303.3703 171.035,-308.7413"/>
</g>
<!-- Node3 -->
<g id="node4" class="node">
<title>Node3</title>
<g id="a_node4"><a xlink:href="visibility__begin_8h_source.html" target="_top" xlink:title="odp/visibility_begin.h">
<polygon fill="#ffffff" stroke="#000000" points="13.5,-.5 13.5,-19.5 120.5,-19.5 120.5,-.5 13.5,-.5"/>
<text text-anchor="middle" x="67" y="-7.5" font-family="Helvetica,sans-Serif" font-size="10.00" fill="#000000">odp/visibility_begin.h</text>
</a>
</g>
</g>
<!-- Node2&#45;&gt;Node3 -->
<g id="edge3" class="edge">
<title>Node2&#45;&gt;Node3</title>
<path fill="none" stroke="#191970" d="M147.8776,-280.4961C100.7751,-266.6709 29,-236.0758 29,-178 29,-178 29,-178 29,-122 29,-87.6118 45.2634,-50.2832 56.511,-28.5791"/>
<polygon fill="#191970" stroke="#191970" points="59.7317,-29.9804 61.393,-19.5166 53.569,-26.6605 59.7317,-29.9804"/>
</g>
<!-- Node4 -->
<g id="node5" class="node">
<title>Node4</title>
<g id="a_node5"><a xlink:href="api_2std__types_8h.html" target="_top" xlink:title="Standard C language types and definitions for ODP. ">
<polygon fill="#ffffff" stroke="#000000" points="137,-224.5 137,-243.5 239,-243.5 239,-224.5 137,-224.5"/>
<text text-anchor="middle" x="188" y="-231.5" font-family="Helvetica,sans-Serif" font-size="10.00" fill="#000000">odp/api/std_types.h</text>
</a>
</g>
</g>
<!-- Node2&#45;&gt;Node4 -->
<g id="edge4" class="edge">
<title>Node2&#45;&gt;Node4</title>
<path fill="none" stroke="#191970" d="M188,-280.2455C188,-272.9382 188,-262.6944 188,-253.7046"/>
<polygon fill="#191970" stroke="#191970" points="191.5001,-253.6426 188,-243.6427 184.5001,-253.6427 191.5001,-253.6426"/>
</g>
<!-- Node11 -->
<g id="node12" class="node">
<title>Node11</title>
<g id="a_node12"><a xlink:href="visibility__end_8h_source.html" target="_top" xlink:title="odp/visibility_end.h">
<polygon fill="#ffffff" stroke="#000000" points="291,-.5 291,-19.5 391,-19.5 391,-.5 291,-.5"/>
<text text-anchor="middle" x="341" y="-7.5" font-family="Helvetica,sans-Serif" font-size="10.00" fill="#000000">odp/visibility_end.h</text>
</a>
</g>
</g>
<!-- Node2&#45;&gt;Node11 -->
<g id="edge15" class="edge">
<title>Node2&#45;&gt;Node11</title>
<path fill="none" stroke="#191970" d="M247.6479,-280.6863C303.6895,-268.1436 379,-239.7927 379,-178 379,-178 379,-178 379,-122 379,-87.6118 362.7366,-50.2832 351.489,-28.5791"/>
<polygon fill="#191970" stroke="#191970" points="354.431,-26.6605 346.607,-19.5166 348.2683,-29.9804 354.431,-26.6605"/>
</g>
<!-- Node5 -->
<g id="node6" class="node">
<title>Node5</title>
<polygon fill="#ffffff" stroke="#bfbfbf" points="59,-168.5 59,-187.5 177,-187.5 177,-168.5 59,-168.5"/>
<text text-anchor="middle" x="118" y="-175.5" font-family="Helvetica,sans-Serif" font-size="10.00" fill="#000000">odp/api/abi/std_types.h</text>
</g>
<!-- Node4&#45;&gt;Node5 -->
<g id="edge5" class="edge">
<title>Node4&#45;&gt;Node5</title>
<path fill="none" stroke="#191970" d="M175.8069,-224.2455C165.3679,-215.8943 150.1345,-203.7076 137.926,-193.9408"/>
<polygon fill="#191970" stroke="#191970" points="140.0485,-191.1566 130.0533,-187.6427 135.6756,-196.6227 140.0485,-191.1566"/>
</g>
<!-- Node6 -->
<g id="node7" class="node">
<title>Node6</title>
<g id="a_node7"><a xlink:href="api_2spec_2std__types_8h.html" target="_top" xlink:title="Standard C language types and definitions for ODP. ">
<polygon fill="#ffffff" stroke="#000000" points="195,-168.5 195,-187.5 321,-187.5 321,-168.5 195,-168.5"/>
<text text-anchor="middle" x="258" y="-175.5" font-family="Helvetica,sans-Serif" font-size="10.00" fill="#000000">odp/api/spec/std_types.h</text>
</a>
</g>
</g>
<!-- Node4&#45;&gt;Node6 -->
<g id="edge6" class="edge">
<title>Node4&#45;&gt;Node6</title>
<path fill="none" stroke="#191970" d="M200.1931,-224.2455C210.6321,-215.8943 225.8655,-203.7076 238.074,-193.9408"/>
<polygon fill="#191970" stroke="#191970" points="240.3244,-196.6227 245.9467,-187.6427 235.9515,-191.1566 240.3244,-196.6227"/>
</g>
<!-- Node6&#45;&gt;Node3 -->
<g id="edge7" class="edge">
<title>Node6&#45;&gt;Node3</title>
<path fill="none" stroke="#191970" d="M223.7446,-168.4862C199.6621,-160.8545 167.3459,-148.6589 142,-132 112.5863,-112.6675 103.8803,-106.3184 86,-76 77.5768,-61.7174 72.6983,-43.4765 69.9989,-29.7922"/>
<polygon fill="#191970" stroke="#191970" points="73.3799,-28.8061 68.214,-19.556 66.4839,-30.0086 73.3799,-28.8061"/>
</g>
<!-- Node7 -->
<g id="node8" class="node">
<title>Node7</title>
<polygon fill="#ffffff" stroke="#bfbfbf" points="151.5,-112.5 151.5,-131.5 200.5,-131.5 200.5,-112.5 151.5,-112.5"/>
<text text-anchor="middle" x="176" y="-119.5" font-family="Helvetica,sans-Serif" font-size="10.00" fill="#000000">stdint.h</text>
</g>
<!-- Node6&#45;&gt;Node7 -->
<g id="edge8" class="edge">
<title>Node6&#45;&gt;Node7</title>
<path fill="none" stroke="#191970" d="M243.7167,-168.2455C231.253,-159.7337 212.9549,-147.2375 198.5208,-137.3801"/>
<polygon fill="#191970" stroke="#191970" points="200.3515,-134.392 190.1196,-131.6427 196.4038,-140.1726 200.3515,-134.392"/>
</g>
<!-- Node8 -->
<g id="node9" class="node">
<title>Node8</title>
<g id="a_node9"><a xlink:href="api_2align_8h.html" target="_top" xlink:title="ODP alignments. ">
<polygon fill="#ffffff" stroke="#000000" points="219,-112.5 219,-131.5 299,-131.5 299,-112.5 219,-112.5"/>
<text text-anchor="middle" x="259" y="-119.5" font-family="Helvetica,sans-Serif" font-size="10.00" fill="#000000">odp/api/align.h</text>
</a>
</g>
</g>
<!-- Node6&#45;&gt;Node8 -->
<g id="edge9" class="edge">
<title>Node6&#45;&gt;Node8</title>
<path fill="none" stroke="#191970" d="M258.1742,-168.2455C258.3047,-160.9382 258.4876,-150.6944 258.6481,-141.7046"/>
<polygon fill="#191970" stroke="#191970" points="262.1486,-141.7036 258.8278,-131.6427 255.1497,-141.5786 262.1486,-141.7036"/>
</g>
<!-- Node6&#45;&gt;Node11 -->
<g id="edge14" class="edge">
<title>Node6&#45;&gt;Node11</title>
<path fill="none" stroke="#191970" d="M272.3513,-168.3144C283.6449,-159.9654 298.9409,-146.9226 308,-132 327.7482,-99.4699 335.8847,-55.0203 339.0789,-29.733"/>
<polygon fill="#191970" stroke="#191970" points="342.5818,-29.9034 340.2227,-19.5745 335.6257,-29.1201 342.5818,-29.9034"/>
</g>
<!-- Node9 -->
<g id="node10" class="node">
<title>Node9</title>
<polygon fill="#ffffff" stroke="#bfbfbf" points="95.5,-56.5 95.5,-75.5 190.5,-75.5 190.5,-56.5 95.5,-56.5"/>
<text text-anchor="middle" x="143" y="-63.5" font-family="Helvetica,sans-Serif" font-size="10.00" fill="#000000">odp/api/abi/align.h</text>
</g>
<!-- Node8&#45;&gt;Node9 -->
<g id="edge10" class="edge">
<title>Node8&#45;&gt;Node9</title>
<path fill="none" stroke="#191970" d="M239.0589,-112.3733C220.5214,-103.4241 192.6972,-89.9917 171.7587,-79.8835"/>
<polygon fill="#191970" stroke="#191970" points="173.2081,-76.6967 162.6809,-75.5011 170.1648,-83.0006 173.2081,-76.6967"/>
</g>
<!-- Node10 -->
<g id="node11" class="node">
<title>Node10</title>
<g id="a_node11"><a xlink:href="api_2spec_2align_8h.html" target="_top" xlink:title="ODP alignments. ">
<polygon fill="#ffffff" stroke="#000000" points="209,-56.5 209,-75.5 313,-75.5 313,-56.5 209,-56.5"/>
<text text-anchor="middle" x="261" y="-63.5" font-family="Helvetica,sans-Serif" font-size="10.00" fill="#000000">odp/api/spec/align.h</text>
</a>
</g>
</g>
<!-- Node8&#45;&gt;Node10 -->
<g id="edge11" class="edge">
<title>Node8&#45;&gt;Node10</title>
<path fill="none" stroke="#191970" d="M259.3484,-112.2455C259.6093,-104.9382 259.9752,-94.6944 260.2963,-85.7046"/>
<polygon fill="#191970" stroke="#191970" points="263.7964,-85.7613 260.6556,-75.6427 256.8008,-85.5113 263.7964,-85.7613"/>
</g>
<!-- Node10&#45;&gt;Node3 -->
<g id="edge12" class="edge">
<title>Node10&#45;&gt;Node3</title>
<path fill="none" stroke="#191970" d="M227.6502,-56.3733C194.972,-46.9404 145.0382,-32.5265 109.523,-22.2747"/>
<polygon fill="#191970" stroke="#191970" points="110.493,-18.9119 99.9146,-19.5011 108.5516,-25.6373 110.493,-18.9119"/>
</g>
<!-- Node10&#45;&gt;Node11 -->
<g id="edge13" class="edge">
<title>Node10&#45;&gt;Node11</title>
<path fill="none" stroke="#191970" d="M274.9349,-56.2455C287.0947,-47.7337 304.9464,-35.2375 319.0285,-25.3801"/>
<polygon fill="#191970" stroke="#191970" points="321.0395,-28.2447 327.2248,-19.6427 317.0253,-22.51 321.0395,-28.2447"/>
</g>
</g>
</svg>
