<?xml version="1.0" encoding="UTF-8" standalone="no"?>
<!DOCTYPE svg PUBLIC "-//W3C//DTD SVG 1.1//EN"
 "http://www.w3.org/Graphics/SVG/1.1/DTD/svg11.dtd">
<!-- Generated by graphviz version 2.40.1 (20161225.0304)
 -->
<!-- Title: spinlock_recursive.h Pages: 1 -->
<svg width="858pt" height="252pt"
 viewBox="0.00 0.00 858.00 252.00" xmlns="http://www.w3.org/2000/svg" xmlns:xlink="http://www.w3.org/1999/xlink">
<g id="graph0" class="graph" transform="scale(1 1) rotate(0) translate(4 248)">
<title>spinlock_recursive.h</title>
<polygon fill="#ffffff" stroke="transparent" points="-4,4 -4,-248 854,-248 854,4 -4,4"/>
<!-- Node13 -->
<g id="node1" class="node">
<title>Node13</title>
<polygon fill="#bfbfbf" stroke="#000000" points="372,-224.5 372,-243.5 478,-243.5 478,-224.5 372,-224.5"/>
<text text-anchor="middle" x="425" y="-231.5" font-family="Helvetica,sans-Serif" font-size="10.00" fill="#000000">spinlock_recursive.h</text>
</g>
<!-- Node14 -->
<g id="node2" class="node">
<title>Node14</title>
<g id="a_node2"><a xlink:href="arch_2arm32-linux_2odp_2api_2abi_2spinlock__recursive_8h_source.html" target="_top" xlink:title="spinlock_recursive.h">
<polygon fill="#ffffff" stroke="#000000" points="0,-168.5 0,-187.5 106,-187.5 106,-168.5 0,-168.5"/>
<text text-anchor="middle" x="53" y="-175.5" font-family="Helvetica,sans-Serif" font-size="10.00" fill="#000000">spinlock_recursive.h</text>
</a>
</g>
</g>
<!-- Node13&#45;&gt;Node14 -->
<g id="edge1" class="edge">
<title>Node13&#45;&gt;Node14</title>
<path fill="none" stroke="#191970" d="M361.6354,-224.836C298.957,-215.715 200.3122,-201.2091 115,-188 112.0909,-187.5496 109.1057,-187.0829 106.0929,-186.6085"/>
<polygon fill="#191970" stroke="#191970" points="361.3609,-228.3328 371.7604,-226.3081 362.3681,-221.4056 361.3609,-228.3328"/>
</g>
<!-- Node15 -->
<g id="node3" class="node">
<title>Node15</title>
<g id="a_node3"><a xlink:href="arch_2arm64-linux_2odp_2api_2abi_2spinlock__recursive_8h_source.html" target="_top" xlink:title="spinlock_recursive.h">
<polygon fill="#ffffff" stroke="#000000" points="124,-168.5 124,-187.5 230,-187.5 230,-168.5 124,-168.5"/>
<text text-anchor="middle" x="177" y="-175.5" font-family="Helvetica,sans-Serif" font-size="10.00" fill="#000000">spinlock_recursive.h</text>
</a>
</g>
</g>
<!-- Node13&#45;&gt;Node15 -->
<g id="edge2" class="edge">
<title>Node13&#45;&gt;Node15</title>
<path fill="none" stroke="#191970" d="M372.6433,-222.1775C326.9696,-211.8641 261.5564,-197.0934 219.1763,-187.5237"/>
<polygon fill="#191970" stroke="#191970" points="372.1237,-225.6482 382.6491,-224.4369 373.6656,-218.8202 372.1237,-225.6482"/>
</g>
<!-- Node16 -->
<g id="node4" class="node">
<title>Node16</title>
<g id="a_node4"><a xlink:href="arch_2default-linux_2odp_2api_2abi_2spinlock__recursive_8h_source.html" target="_top" xlink:title="spinlock_recursive.h">
<polygon fill="#ffffff" stroke="#000000" points="248,-168.5 248,-187.5 354,-187.5 354,-168.5 248,-168.5"/>
<text text-anchor="middle" x="301" y="-175.5" font-family="Helvetica,sans-Serif" font-size="10.00" fill="#000000">spinlock_recursive.h</text>
</a>
</g>
</g>
<!-- Node13&#45;&gt;Node16 -->
<g id="edge3" class="edge">
<title>Node13&#45;&gt;Node16</title>
<path fill="none" stroke="#191970" d="M394.5476,-220.2473C372.0278,-210.0771 341.9383,-196.4883 322.0382,-187.5011"/>
<polygon fill="#191970" stroke="#191970" points="393.1294,-223.4471 403.6836,-224.3733 396.0105,-217.0675 393.1294,-223.4471"/>
</g>
<!-- Node17 -->
<g id="node5" class="node">
<title>Node17</title>
<g id="a_node5"><a xlink:href="arch_2mips64-linux_2odp_2api_2abi_2spinlock__recursive_8h_source.html" target="_top" xlink:title="spinlock_recursive.h">
<polygon fill="#ffffff" stroke="#000000" points="372,-168.5 372,-187.5 478,-187.5 478,-168.5 372,-168.5"/>
<text text-anchor="middle" x="425" y="-175.5" font-family="Helvetica,sans-Serif" font-size="10.00" fill="#000000">spinlock_recursive.h</text>
</a>
</g>
</g>
<!-- Node13&#45;&gt;Node17 -->
<g id="edge4" class="edge">
<title>Node13&#45;&gt;Node17</title>
<path fill="none" stroke="#191970" d="M425,-214.1575C425,-205.155 425,-194.9199 425,-187.6427"/>
<polygon fill="#191970" stroke="#191970" points="421.5001,-214.2455 425,-224.2455 428.5001,-214.2456 421.5001,-214.2455"/>
</g>
<!-- Node18 -->
<g id="node6" class="node">
<title>Node18</title>
<g id="a_node6"><a xlink:href="arch_2power64-linux_2odp_2api_2abi_2spinlock__recursive_8h_source.html" target="_top" xlink:title="spinlock_recursive.h">
<polygon fill="#ffffff" stroke="#000000" points="496,-168.5 496,-187.5 602,-187.5 602,-168.5 496,-168.5"/>
<text text-anchor="middle" x="549" y="-175.5" font-family="Helvetica,sans-Serif" font-size="10.00" fill="#000000">spinlock_recursive.h</text>
</a>
</g>
</g>
<!-- Node13&#45;&gt;Node18 -->
<g id="edge5" class="edge">
<title>Node13&#45;&gt;Node18</title>
<path fill="none" stroke="#191970" d="M455.4524,-220.2473C477.9722,-210.0771 508.0617,-196.4883 527.9618,-187.5011"/>
<polygon fill="#191970" stroke="#191970" points="453.9895,-217.0675 446.3164,-224.3733 456.8706,-223.4471 453.9895,-217.0675"/>
</g>
<!-- Node19 -->
<g id="node7" class="node">
<title>Node19</title>
<g id="a_node7"><a xlink:href="arch_2x86__32-linux_2odp_2api_2abi_2spinlock__recursive_8h_source.html" target="_top" xlink:title="spinlock_recursive.h">
<polygon fill="#ffffff" stroke="#000000" points="620,-168.5 620,-187.5 726,-187.5 726,-168.5 620,-168.5"/>
<text text-anchor="middle" x="673" y="-175.5" font-family="Helvetica,sans-Serif" font-size="10.00" fill="#000000">spinlock_recursive.h</text>
</a>
</g>
</g>
<!-- Node13&#45;&gt;Node19 -->
<g id="edge6" class="edge">
<title>Node13&#45;&gt;Node19</title>
<path fill="none" stroke="#191970" d="M477.3567,-222.1775C523.0304,-211.8641 588.4436,-197.0934 630.8237,-187.5237"/>
<polygon fill="#191970" stroke="#191970" points="476.3344,-218.8202 467.3509,-224.4369 477.8763,-225.6482 476.3344,-218.8202"/>
</g>
<!-- Node20 -->
<g id="node8" class="node">
<title>Node20</title>
<g id="a_node8"><a xlink:href="arch_2x86__64-linux_2odp_2api_2abi_2spinlock__recursive_8h_source.html" target="_top" xlink:title="spinlock_recursive.h">
<polygon fill="#ffffff" stroke="#000000" points="744,-168.5 744,-187.5 850,-187.5 850,-168.5 744,-168.5"/>
<text text-anchor="middle" x="797" y="-175.5" font-family="Helvetica,sans-Serif" font-size="10.00" fill="#000000">spinlock_recursive.h</text>
</a>
</g>
</g>
<!-- Node13&#45;&gt;Node20 -->
<g id="edge7" class="edge">
<title>Node13&#45;&gt;Node20</title>
<path fill="none" stroke="#191970" d="M488.3646,-224.836C551.043,-215.715 649.6878,-201.2091 735,-188 737.9091,-187.5496 740.8943,-187.0829 743.9071,-186.6085"/>
<polygon fill="#191970" stroke="#191970" points="487.6319,-221.4056 478.2396,-226.3081 488.6391,-228.3328 487.6319,-221.4056"/>
</g>
<!-- Node21 -->
<g id="node9" class="node">
<title>Node21</title>
<g id="a_node9"><a xlink:href="api_2spinlock__recursive_8h.html" target="_top" xlink:title="ODP resursive spinlock. ">
<polygon fill="#ffffff" stroke="#000000" points="744,-112.5 744,-131.5 850,-131.5 850,-112.5 744,-112.5"/>
<text text-anchor="middle" x="797" y="-119.5" font-family="Helvetica,sans-Serif" font-size="10.00" fill="#000000">spinlock_recursive.h</text>
</a>
</g>
</g>
<!-- Node20&#45;&gt;Node21 -->
<g id="edge8" class="edge">
<title>Node20&#45;&gt;Node21</title>
<path fill="none" stroke="#191970" d="M797,-158.1575C797,-149.155 797,-138.9199 797,-131.6427"/>
<polygon fill="#191970" stroke="#191970" points="793.5001,-158.2455 797,-168.2455 800.5001,-158.2456 793.5001,-158.2455"/>
</g>
<!-- Node22 -->
<g id="node10" class="node">
<title>Node22</title>
<g id="a_node10"><a xlink:href="odp__api_8h.html" target="_top" xlink:title="The OpenDataPlane API. ">
<polygon fill="#ffffff" stroke="#000000" points="767.5,-56.5 767.5,-75.5 826.5,-75.5 826.5,-56.5 767.5,-56.5"/>
<text text-anchor="middle" x="797" y="-63.5" font-family="Helvetica,sans-Serif" font-size="10.00" fill="#000000">odp_api.h</text>
</a>
</g>
</g>
<!-- Node21&#45;&gt;Node22 -->
<g id="edge9" class="edge">
<title>Node21&#45;&gt;Node22</title>
<path fill="none" stroke="#191970" d="M797,-102.1575C797,-93.155 797,-82.9199 797,-75.6427"/>
<polygon fill="#191970" stroke="#191970" points="793.5001,-102.2455 797,-112.2455 800.5001,-102.2456 793.5001,-102.2455"/>
</g>
<!-- Node23 -->
<g id="node11" class="node">
<title>Node23</title>
<g id="a_node11"><a xlink:href="odp_8h.html" target="_top" xlink:title="WARNING: THIS FILE IS DEPRECATED AND WILL BE REMOVED!!! ODP APPLICATIONS SHOULD NOW INCLUDE odp_api...">
<polygon fill="#ffffff" stroke="#000000" points="776.5,-.5 776.5,-19.5 817.5,-19.5 817.5,-.5 776.5,-.5"/>
<text text-anchor="middle" x="797" y="-7.5" font-family="Helvetica,sans-Serif" font-size="10.00" fill="#000000">odp.h</text>
</a>
</g>
</g>
<!-- Node22&#45;&gt;Node23 -->
<g id="edge10" class="edge">
<title>Node22&#45;&gt;Node23</title>
<path fill="none" stroke="#191970" d="M797,-46.1575C797,-37.155 797,-26.9199 797,-19.6427"/>
<polygon fill="#191970" stroke="#191970" points="793.5001,-46.2455 797,-56.2455 800.5001,-46.2456 793.5001,-46.2455"/>
</g>
</g>
</svg>
