<?xml version="1.0" encoding="UTF-8" standalone="no"?>
<!DOCTYPE svg PUBLIC "-//W3C//DTD SVG 1.1//EN"
 "http://www.w3.org/Graphics/SVG/1.1/DTD/svg11.dtd">
<!-- Generated by graphviz version 2.40.1 (20161225.0304)
 -->
<!-- Title: std_types.h Pages: 1 -->
<svg width="275pt" height="196pt"
 viewBox="0.00 0.00 275.44 196.00" xmlns="http://www.w3.org/2000/svg" xmlns:xlink="http://www.w3.org/1999/xlink">
<g id="graph0" class="graph" transform="scale(1 1) rotate(0) translate(4 192)">
<title>std_types.h</title>
<polygon fill="#ffffff" stroke="transparent" points="-4,4 -4,-192 271.4426,-192 271.4426,4 -4,4"/>
<!-- Node0 -->
<g id="node1" class="node">
<title>Node0</title>
<polygon fill="#bfbfbf" stroke="#000000" points="72.4426,-168.5 72.4426,-187.5 140.4426,-187.5 140.4426,-168.5 72.4426,-168.5"/>
<text text-anchor="middle" x="106.4426" y="-175.5" font-family="Helvetica,sans-Serif" font-size="10.00" fill="#000000">std_types.h</text>
</g>
<!-- Node1 -->
<g id="node2" class="node">
<title>Node1</title>
<g id="a_node2"><a xlink:href="visibility__begin_8h_source.html" target="_top" xlink:title="odp/visibility_begin.h">
<polygon fill="#ffffff" stroke="#000000" points="5.9426,-.5 5.9426,-19.5 112.9426,-19.5 112.9426,-.5 5.9426,-.5"/>
<text text-anchor="middle" x="59.4426" y="-7.5" font-family="Helvetica,sans-Serif" font-size="10.00" fill="#000000">odp/visibility_begin.h</text>
</a>
</g>
</g>
<!-- Node0&#45;&gt;Node1 -->
<g id="edge1" class="edge">
<title>Node0&#45;&gt;Node1</title>
<path fill="none" stroke="#191970" d="M84.2,-168.3731C67.978,-160.4727 46.3194,-147.9937 31.4426,-132 12.3533,-111.4774 9.0755,-103.2321 2.4426,-76 .3391,-67.3636 -1.3909,-64.0198 2.4426,-56 8.5874,-43.1449 20.2726,-32.7306 31.4711,-25.0832"/>
<polygon fill="#191970" stroke="#191970" points="33.6467,-27.8488 40.2326,-19.5495 29.9087,-21.9304 33.6467,-27.8488"/>
</g>
<!-- Node2 -->
<g id="node3" class="node">
<title>Node2</title>
<polygon fill="#ffffff" stroke="#bfbfbf" points="40.9426,-112.5 40.9426,-131.5 89.9426,-131.5 89.9426,-112.5 40.9426,-112.5"/>
<text text-anchor="middle" x="65.4426" y="-119.5" font-family="Helvetica,sans-Serif" font-size="10.00" fill="#000000">stdint.h</text>
</g>
<!-- Node0&#45;&gt;Node2 -->
<g id="edge2" class="edge">
<title>Node0&#45;&gt;Node2</title>
<path fill="none" stroke="#191970" d="M99.301,-168.2455C93.5982,-160.4564 85.4526,-149.3308 78.5802,-139.9439"/>
<polygon fill="#191970" stroke="#191970" points="81.2339,-137.6437 72.5024,-131.6427 75.5858,-141.7789 81.2339,-137.6437"/>
</g>
<!-- Node3 -->
<g id="node4" class="node">
<title>Node3</title>
<g id="a_node4"><a xlink:href="api_2align_8h.html" target="_top" xlink:title="ODP alignments. ">
<polygon fill="#ffffff" stroke="#000000" points="108.4426,-112.5 108.4426,-131.5 188.4426,-131.5 188.4426,-112.5 108.4426,-112.5"/>
<text text-anchor="middle" x="148.4426" y="-119.5" font-family="Helvetica,sans-Serif" font-size="10.00" fill="#000000">odp/api/align.h</text>
</a>
</g>
</g>
<!-- Node0&#45;&gt;Node3 -->
<g id="edge3" class="edge">
<title>Node0&#45;&gt;Node3</title>
<path fill="none" stroke="#191970" d="M113.7585,-168.2455C119.6605,-160.3761 128.1169,-149.101 135.202,-139.6542"/>
<polygon fill="#191970" stroke="#191970" points="138.0106,-141.7427 141.2106,-131.6427 132.4106,-137.5427 138.0106,-141.7427"/>
</g>
<!-- Node6 -->
<g id="node7" class="node">
<title>Node6</title>
<g id="a_node7"><a xlink:href="visibility__end_8h_source.html" target="_top" xlink:title="odp/visibility_end.h">
<polygon fill="#ffffff" stroke="#000000" points="167.4426,-.5 167.4426,-19.5 267.4426,-19.5 267.4426,-.5 167.4426,-.5"/>
<text text-anchor="middle" x="217.4426" y="-7.5" font-family="Helvetica,sans-Serif" font-size="10.00" fill="#000000">odp/visibility_end.h</text>
</a>
</g>
</g>
<!-- Node0&#45;&gt;Node6 -->
<g id="edge8" class="edge">
<title>Node0&#45;&gt;Node6</title>
<path fill="none" stroke="#191970" d="M133.1028,-168.4315C152.3702,-160.6345 178.2721,-148.2597 197.4426,-132 220.9671,-112.0474 228.8569,-105.3193 238.4426,-76 243.6745,-59.9976 236.9014,-41.7566 229.6903,-28.5127"/>
<polygon fill="#191970" stroke="#191970" points="232.6555,-26.6515 224.5274,-19.8557 226.6435,-30.237 232.6555,-26.6515"/>
</g>
<!-- Node4 -->
<g id="node5" class="node">
<title>Node4</title>
<polygon fill="#ffffff" stroke="#bfbfbf" points="11.9426,-56.5 11.9426,-75.5 106.9426,-75.5 106.9426,-56.5 11.9426,-56.5"/>
<text text-anchor="middle" x="59.4426" y="-63.5" font-family="Helvetica,sans-Serif" font-size="10.00" fill="#000000">odp/api/abi/align.h</text>
</g>
<!-- Node3&#45;&gt;Node4 -->
<g id="edge4" class="edge">
<title>Node3&#45;&gt;Node4</title>
<path fill="none" stroke="#191970" d="M132.94,-112.2455C119.2847,-103.6534 99.1769,-91.0014 83.4437,-81.1018"/>
<polygon fill="#191970" stroke="#191970" points="85.0955,-78.006 74.7676,-75.6427 81.3675,-83.9307 85.0955,-78.006"/>
</g>
<!-- Node5 -->
<g id="node6" class="node">
<title>Node5</title>
<g id="a_node6"><a xlink:href="api_2spec_2align_8h.html" target="_top" xlink:title="ODP alignments. ">
<polygon fill="#ffffff" stroke="#000000" points="125.4426,-56.5 125.4426,-75.5 229.4426,-75.5 229.4426,-56.5 125.4426,-56.5"/>
<text text-anchor="middle" x="177.4426" y="-63.5" font-family="Helvetica,sans-Serif" font-size="10.00" fill="#000000">odp/api/spec/align.h</text>
</a>
</g>
</g>
<!-- Node3&#45;&gt;Node5 -->
<g id="edge5" class="edge">
<title>Node3&#45;&gt;Node5</title>
<path fill="none" stroke="#191970" d="M153.494,-112.2455C157.4445,-104.617 163.0523,-93.7881 167.8484,-84.5267"/>
<polygon fill="#191970" stroke="#191970" points="170.9585,-86.1321 172.4491,-75.6427 164.7425,-82.9131 170.9585,-86.1321"/>
</g>
<!-- Node5&#45;&gt;Node1 -->
<g id="edge6" class="edge">
<title>Node5&#45;&gt;Node1</title>
<path fill="none" stroke="#191970" d="M157.1577,-56.3733C138.3006,-47.4241 109.9967,-33.9917 88.6971,-23.8835"/>
<polygon fill="#191970" stroke="#191970" points="89.9977,-20.6266 79.4628,-19.5011 86.9965,-26.9506 89.9977,-20.6266"/>
</g>
<!-- Node5&#45;&gt;Node6 -->
<g id="edge7" class="edge">
<title>Node5&#45;&gt;Node6</title>
<path fill="none" stroke="#191970" d="M184.4101,-56.2455C189.9737,-48.4564 197.9207,-37.3308 204.6255,-27.9439"/>
<polygon fill="#191970" stroke="#191970" points="207.5907,-29.8144 210.555,-19.6427 201.8945,-25.7457 207.5907,-29.8144"/>
</g>
</g>
</svg>
