<?xml version="1.0" encoding="UTF-8" standalone="no"?>
<!DOCTYPE svg PUBLIC "-//W3C//DTD SVG 1.1//EN"
 "http://www.w3.org/Graphics/SVG/1.1/DTD/svg11.dtd">
<!-- Generated by graphviz version 2.40.1 (20161225.0304)
 -->
<!-- Title: packet.h Pages: 1 -->
<svg width="478pt" height="364pt"
 viewBox="0.00 0.00 478.32 364.00" xmlns="http://www.w3.org/2000/svg" xmlns:xlink="http://www.w3.org/1999/xlink">
<g id="graph0" class="graph" transform="scale(1 1) rotate(0) translate(4 360)">
<title>packet.h</title>
<polygon fill="#ffffff" stroke="transparent" points="-4,4 -4,-360 474.3155,-360 474.3155,4 -4,4"/>
<!-- Node0 -->
<g id="node1" class="node">
<title>Node0</title>
<polygon fill="#bfbfbf" stroke="#000000" points="184.3155,-336.5 184.3155,-355.5 238.3155,-355.5 238.3155,-336.5 184.3155,-336.5"/>
<text text-anchor="middle" x="211.3155" y="-343.5" font-family="Helvetica,sans-Serif" font-size="10.00" fill="#000000">packet.h</text>
</g>
<!-- Node1 -->
<g id="node2" class="node">
<title>Node1</title>
<g id="a_node2"><a xlink:href="visibility__begin_8h_source.html" target="_top" xlink:title="odp/visibility_begin.h">
<polygon fill="#ffffff" stroke="#000000" points="74.8155,-.5 74.8155,-19.5 181.8155,-19.5 181.8155,-.5 74.8155,-.5"/>
<text text-anchor="middle" x="128.3155" y="-7.5" font-family="Helvetica,sans-Serif" font-size="10.00" fill="#000000">odp/visibility_begin.h</text>
</a>
</g>
</g>
<!-- Node0&#45;&gt;Node1 -->
<g id="edge1" class="edge">
<title>Node0&#45;&gt;Node1</title>
<path fill="none" stroke="#191970" d="M184.1629,-344.0467C127.1752,-338.319 .3155,-316.3233 .3155,-234 .3155,-234 .3155,-234 .3155,-122 .3155,-91.4754 -.9465,-78.8299 19.3155,-56 33.3118,-40.2299 53.6104,-29.7106 72.9062,-22.7667"/>
<polygon fill="#191970" stroke="#191970" points="74.1863,-26.0294 82.5652,-19.5454 71.9716,-19.389 74.1863,-26.0294"/>
</g>
<!-- Node2 -->
<g id="node3" class="node">
<title>Node2</title>
<g id="a_node3"><a xlink:href="api_2time_8h.html" target="_top" xlink:title="ODP time. ">
<polygon fill="#ffffff" stroke="#000000" points="172.3155,-280.5 172.3155,-299.5 250.3155,-299.5 250.3155,-280.5 172.3155,-280.5"/>
<text text-anchor="middle" x="211.3155" y="-287.5" font-family="Helvetica,sans-Serif" font-size="10.00" fill="#000000">odp/api/time.h</text>
</a>
</g>
</g>
<!-- Node0&#45;&gt;Node2 -->
<g id="edge2" class="edge">
<title>Node0&#45;&gt;Node2</title>
<path fill="none" stroke="#191970" d="M211.3155,-336.2455C211.3155,-328.9382 211.3155,-318.6944 211.3155,-309.7046"/>
<polygon fill="#191970" stroke="#191970" points="214.8156,-309.6426 211.3155,-299.6427 207.8156,-309.6427 214.8156,-309.6426"/>
</g>
<!-- Node10 -->
<g id="node11" class="node">
<title>Node10</title>
<g id="a_node11"><a xlink:href="visibility__end_8h_source.html" target="_top" xlink:title="odp/visibility_end.h">
<polygon fill="#ffffff" stroke="#000000" points="218.3155,-.5 218.3155,-19.5 318.3155,-19.5 318.3155,-.5 218.3155,-.5"/>
<text text-anchor="middle" x="268.3155" y="-7.5" font-family="Helvetica,sans-Serif" font-size="10.00" fill="#000000">odp/visibility_end.h</text>
</a>
</g>
</g>
<!-- Node0&#45;&gt;Node10 -->
<g id="edge18" class="edge">
<title>Node0&#45;&gt;Node10</title>
<path fill="none" stroke="#191970" d="M238.5435,-340.3074C305.0408,-325.6242 470.3155,-284.0917 470.3155,-234 470.3155,-234 470.3155,-234 470.3155,-122 470.3155,-56.5168 388.118,-29.0024 328.5909,-17.6624"/>
<polygon fill="#191970" stroke="#191970" points="328.9687,-14.1744 318.5076,-15.8525 327.7319,-21.0643 328.9687,-14.1744"/>
</g>
<!-- Node3 -->
<g id="node4" class="node">
<title>Node3</title>
<g id="a_node4"><a xlink:href="api_2std__types_8h.html" target="_top" xlink:title="Standard C language types and definitions for ODP. ">
<polygon fill="#ffffff" stroke="#000000" points="160.3155,-224.5 160.3155,-243.5 262.3155,-243.5 262.3155,-224.5 160.3155,-224.5"/>
<text text-anchor="middle" x="211.3155" y="-231.5" font-family="Helvetica,sans-Serif" font-size="10.00" fill="#000000">odp/api/std_types.h</text>
</a>
</g>
</g>
<!-- Node2&#45;&gt;Node3 -->
<g id="edge3" class="edge">
<title>Node2&#45;&gt;Node3</title>
<path fill="none" stroke="#191970" d="M211.3155,-280.2455C211.3155,-272.9382 211.3155,-262.6944 211.3155,-253.7046"/>
<polygon fill="#191970" stroke="#191970" points="214.8156,-253.6426 211.3155,-243.6427 207.8156,-253.6427 214.8156,-253.6426"/>
</g>
<!-- Node11 -->
<g id="node12" class="node">
<title>Node11</title>
<polygon fill="#ffffff" stroke="#bfbfbf" points="280.3155,-224.5 280.3155,-243.5 374.3155,-243.5 374.3155,-224.5 280.3155,-224.5"/>
<text text-anchor="middle" x="327.3155" y="-231.5" font-family="Helvetica,sans-Serif" font-size="10.00" fill="#000000">odp/api/abi/time.h</text>
</g>
<!-- Node2&#45;&gt;Node11 -->
<g id="edge14" class="edge">
<title>Node2&#45;&gt;Node11</title>
<path fill="none" stroke="#191970" d="M231.2566,-280.3733C249.7941,-271.4241 277.6183,-257.9917 298.5568,-247.8835"/>
<polygon fill="#191970" stroke="#191970" points="300.1507,-251.0006 307.6346,-243.5011 297.1074,-244.6967 300.1507,-251.0006"/>
</g>
<!-- Node12 -->
<g id="node13" class="node">
<title>Node12</title>
<g id="a_node13"><a xlink:href="api_2spec_2time_8h.html" target="_top" xlink:title="ODP time. ">
<polygon fill="#ffffff" stroke="#000000" points="28.3155,-56.5 28.3155,-75.5 130.3155,-75.5 130.3155,-56.5 28.3155,-56.5"/>
<text text-anchor="middle" x="79.3155" y="-63.5" font-family="Helvetica,sans-Serif" font-size="10.00" fill="#000000">odp/api/spec/time.h</text>
</a>
</g>
</g>
<!-- Node2&#45;&gt;Node12 -->
<g id="edge15" class="edge">
<title>Node2&#45;&gt;Node12</title>
<path fill="none" stroke="#191970" d="M194.3014,-280.434C181.0499,-272.2423 163.0008,-259.3539 151.3155,-244 113.06,-193.7342 91.9893,-120.3558 83.6232,-85.6215"/>
<polygon fill="#191970" stroke="#191970" points="87.0106,-84.7348 81.3476,-75.7804 80.1905,-86.3118 87.0106,-84.7348"/>
</g>
<!-- Node4 -->
<g id="node5" class="node">
<title>Node4</title>
<polygon fill="#ffffff" stroke="#bfbfbf" points="292.3155,-168.5 292.3155,-187.5 410.3155,-187.5 410.3155,-168.5 292.3155,-168.5"/>
<text text-anchor="middle" x="351.3155" y="-175.5" font-family="Helvetica,sans-Serif" font-size="10.00" fill="#000000">odp/api/abi/std_types.h</text>
</g>
<!-- Node3&#45;&gt;Node4 -->
<g id="edge4" class="edge">
<title>Node3&#45;&gt;Node4</title>
<path fill="none" stroke="#191970" d="M235.3824,-224.3733C258.1583,-215.2629 292.5499,-201.5062 317.9645,-191.3404"/>
<polygon fill="#191970" stroke="#191970" points="319.5778,-194.4648 327.5627,-187.5011 316.978,-187.9654 319.5778,-194.4648"/>
</g>
<!-- Node5 -->
<g id="node6" class="node">
<title>Node5</title>
<g id="a_node6"><a xlink:href="api_2spec_2std__types_8h.html" target="_top" xlink:title="Standard C language types and definitions for ODP. ">
<polygon fill="#ffffff" stroke="#000000" points="148.3155,-168.5 148.3155,-187.5 274.3155,-187.5 274.3155,-168.5 148.3155,-168.5"/>
<text text-anchor="middle" x="211.3155" y="-175.5" font-family="Helvetica,sans-Serif" font-size="10.00" fill="#000000">odp/api/spec/std_types.h</text>
</a>
</g>
</g>
<!-- Node3&#45;&gt;Node5 -->
<g id="edge5" class="edge">
<title>Node3&#45;&gt;Node5</title>
<path fill="none" stroke="#191970" d="M211.3155,-224.2455C211.3155,-216.9382 211.3155,-206.6944 211.3155,-197.7046"/>
<polygon fill="#191970" stroke="#191970" points="214.8156,-197.6426 211.3155,-187.6427 207.8156,-197.6427 214.8156,-197.6426"/>
</g>
<!-- Node5&#45;&gt;Node1 -->
<g id="edge6" class="edge">
<title>Node5&#45;&gt;Node1</title>
<path fill="none" stroke="#191970" d="M202.9746,-168.271C195.5604,-159.2871 184.7709,-145.3531 177.3155,-132 158.0271,-97.4532 142.3932,-53.7532 134.3087,-29.1364"/>
<polygon fill="#191970" stroke="#191970" points="137.6205,-28.0021 131.2281,-19.553 130.9563,-30.1443 137.6205,-28.0021"/>
</g>
<!-- Node6 -->
<g id="node7" class="node">
<title>Node6</title>
<polygon fill="#ffffff" stroke="#bfbfbf" points="186.8155,-112.5 186.8155,-131.5 235.8155,-131.5 235.8155,-112.5 186.8155,-112.5"/>
<text text-anchor="middle" x="211.3155" y="-119.5" font-family="Helvetica,sans-Serif" font-size="10.00" fill="#000000">stdint.h</text>
</g>
<!-- Node5&#45;&gt;Node6 -->
<g id="edge7" class="edge">
<title>Node5&#45;&gt;Node6</title>
<path fill="none" stroke="#191970" d="M211.3155,-168.2455C211.3155,-160.9382 211.3155,-150.6944 211.3155,-141.7046"/>
<polygon fill="#191970" stroke="#191970" points="214.8156,-141.6426 211.3155,-131.6427 207.8156,-141.6427 214.8156,-141.6426"/>
</g>
<!-- Node7 -->
<g id="node8" class="node">
<title>Node7</title>
<g id="a_node8"><a xlink:href="api_2align_8h.html" target="_top" xlink:title="ODP alignments. ">
<polygon fill="#ffffff" stroke="#000000" points="254.3155,-112.5 254.3155,-131.5 334.3155,-131.5 334.3155,-112.5 254.3155,-112.5"/>
<text text-anchor="middle" x="294.3155" y="-119.5" font-family="Helvetica,sans-Serif" font-size="10.00" fill="#000000">odp/api/align.h</text>
</a>
</g>
</g>
<!-- Node5&#45;&gt;Node7 -->
<g id="edge8" class="edge">
<title>Node5&#45;&gt;Node7</title>
<path fill="none" stroke="#191970" d="M225.773,-168.2455C238.3887,-159.7337 256.9099,-147.2375 271.52,-137.3801"/>
<polygon fill="#191970" stroke="#191970" points="273.6916,-140.1371 280.0237,-131.6427 269.7764,-134.3343 273.6916,-140.1371"/>
</g>
<!-- Node5&#45;&gt;Node10 -->
<g id="edge13" class="edge">
<title>Node5&#45;&gt;Node10</title>
<path fill="none" stroke="#191970" d="M268.9983,-168.4116C318.8907,-156.5328 387.0218,-130.7074 413.3155,-76 431.6602,-37.8315 376.1945,-21.7105 328.646,-14.9174"/>
<polygon fill="#191970" stroke="#191970" points="329.0198,-11.4366 318.6493,-13.6049 328.1085,-18.377 329.0198,-11.4366"/>
</g>
<!-- Node8 -->
<g id="node9" class="node">
<title>Node8</title>
<polygon fill="#ffffff" stroke="#bfbfbf" points="308.8155,-56.5 308.8155,-75.5 403.8155,-75.5 403.8155,-56.5 308.8155,-56.5"/>
<text text-anchor="middle" x="356.3155" y="-63.5" font-family="Helvetica,sans-Serif" font-size="10.00" fill="#000000">odp/api/abi/align.h</text>
</g>
<!-- Node7&#45;&gt;Node8 -->
<g id="edge9" class="edge">
<title>Node7&#45;&gt;Node8</title>
<path fill="none" stroke="#191970" d="M305.1151,-112.2455C314.1833,-104.0549 327.3361,-92.1749 338.04,-82.5069"/>
<polygon fill="#191970" stroke="#191970" points="340.5646,-84.9429 345.6397,-75.6427 335.8726,-79.7482 340.5646,-84.9429"/>
</g>
<!-- Node9 -->
<g id="node10" class="node">
<title>Node9</title>
<g id="a_node10"><a xlink:href="api_2spec_2align_8h.html" target="_top" xlink:title="ODP alignments. ">
<polygon fill="#ffffff" stroke="#000000" points="186.3155,-56.5 186.3155,-75.5 290.3155,-75.5 290.3155,-56.5 186.3155,-56.5"/>
<text text-anchor="middle" x="238.3155" y="-63.5" font-family="Helvetica,sans-Serif" font-size="10.00" fill="#000000">odp/api/spec/align.h</text>
</a>
</g>
</g>
<!-- Node7&#45;&gt;Node9 -->
<g id="edge10" class="edge">
<title>Node7&#45;&gt;Node9</title>
<path fill="none" stroke="#191970" d="M284.561,-112.2455C276.4507,-104.1352 264.723,-92.4075 255.1074,-82.7919"/>
<polygon fill="#191970" stroke="#191970" points="257.5042,-80.2389 247.9582,-75.6427 252.5544,-85.1887 257.5042,-80.2389"/>
</g>
<!-- Node9&#45;&gt;Node1 -->
<g id="edge11" class="edge">
<title>Node9&#45;&gt;Node1</title>
<path fill="none" stroke="#191970" d="M219.155,-56.2455C201.8044,-47.4125 176.0254,-34.2887 156.3572,-24.2758"/>
<polygon fill="#191970" stroke="#191970" points="157.756,-21.0605 147.2565,-19.6427 154.5802,-27.2986 157.756,-21.0605"/>
</g>
<!-- Node9&#45;&gt;Node10 -->
<g id="edge12" class="edge">
<title>Node9&#45;&gt;Node10</title>
<path fill="none" stroke="#191970" d="M243.5411,-56.2455C247.6278,-48.617 253.429,-37.7881 258.3905,-28.5267"/>
<polygon fill="#191970" stroke="#191970" points="261.5127,-30.1103 263.1498,-19.6427 255.3423,-26.8047 261.5127,-30.1103"/>
</g>
<!-- Node12&#45;&gt;Node1 -->
<g id="edge16" class="edge">
<title>Node12&#45;&gt;Node1</title>
<path fill="none" stroke="#191970" d="M87.8506,-56.2455C94.8067,-48.2958 104.8038,-36.8706 113.1206,-27.3656"/>
<polygon fill="#191970" stroke="#191970" points="115.9271,-29.4732 119.8782,-19.6427 110.6591,-24.8637 115.9271,-29.4732"/>
</g>
<!-- Node12&#45;&gt;Node10 -->
<g id="edge17" class="edge">
<title>Node12&#45;&gt;Node10</title>
<path fill="none" stroke="#191970" d="M111.8058,-56.3733C143.5057,-46.9807 191.8731,-32.6496 226.4441,-22.4064"/>
<polygon fill="#191970" stroke="#191970" points="227.6556,-25.6979 236.2492,-19.5011 225.6669,-18.9863 227.6556,-25.6979"/>
</g>
</g>
</svg>
