<?xml version="1.0" encoding="UTF-8" standalone="no"?>
<!DOCTYPE svg PUBLIC "-//W3C//DTD SVG 1.1//EN"
 "http://www.w3.org/Graphics/SVG/1.1/DTD/svg11.dtd">
<!-- Generated by graphviz version 2.40.1 (20161225.0304)
 -->
<!-- Title: crypto.h Pages: 1 -->
<svg width="88pt" height="252pt"
 viewBox="0.00 0.00 87.50 252.00" xmlns="http://www.w3.org/2000/svg" xmlns:xlink="http://www.w3.org/1999/xlink">
<g id="graph0" class="graph" transform="scale(1 1) rotate(0) translate(4 248)">
<title>crypto.h</title>
<polygon fill="#ffffff" stroke="transparent" points="-4,4 -4,-248 83.5,-248 83.5,4 -4,4"/>
<!-- Node35 -->
<g id="node1" class="node">
<title>Node35</title>
<polygon fill="#bfbfbf" stroke="#000000" points="24,-224.5 24,-243.5 76,-243.5 76,-224.5 24,-224.5"/>
<text text-anchor="middle" x="50" y="-231.5" font-family="Helvetica,sans-Serif" font-size="10.00" fill="#000000">crypto.h</text>
</g>
<!-- Node36 -->
<g id="node2" class="node">
<title>Node36</title>
<g id="a_node2"><a xlink:href="api_2spec_2ipsec_8h.html" target="_top" xlink:title="ODP IPSEC API. ">
<polygon fill="#ffffff" stroke="#000000" points="0,-168.5 0,-187.5 48,-187.5 48,-168.5 0,-168.5"/>
<text text-anchor="middle" x="24" y="-175.5" font-family="Helvetica,sans-Serif" font-size="10.00" fill="#000000">ipsec.h</text>
</a>
</g>
</g>
<!-- Node35&#45;&gt;Node36 -->
<g id="edge1" class="edge">
<title>Node35&#45;&gt;Node36</title>
<path fill="none" stroke="#191970" d="M41.1989,-215.0437C36.9225,-205.8331 31.967,-195.1598 28.477,-187.6427"/>
<polygon fill="#191970" stroke="#191970" points="38.0854,-216.6494 45.4711,-224.2455 44.4345,-213.7015 38.0854,-216.6494"/>
</g>
<!-- Node38 -->
<g id="node4" class="node">
<title>Node38</title>
<g id="a_node4"><a xlink:href="odp__api_8h.html" target="_top" xlink:title="The OpenDataPlane API. ">
<polygon fill="#ffffff" stroke="#000000" points="20.5,-56.5 20.5,-75.5 79.5,-75.5 79.5,-56.5 20.5,-56.5"/>
<text text-anchor="middle" x="50" y="-63.5" font-family="Helvetica,sans-Serif" font-size="10.00" fill="#000000">odp_api.h</text>
</a>
</g>
</g>
<!-- Node35&#45;&gt;Node38 -->
<g id="edge5" class="edge">
<title>Node35&#45;&gt;Node38</title>
<path fill="none" stroke="#191970" d="M53.6817,-214.2065C55.0119,-206.1132 56.3464,-196.639 57,-188 59.5481,-154.3185 59.5481,-145.6815 57,-112 56.0494,-99.4342 53.658,-85.1014 51.9347,-75.8213"/>
<polygon fill="#191970" stroke="#191970" points="50.2128,-213.7247 51.9347,-224.1787 57.1078,-214.9326 50.2128,-213.7247"/>
</g>
<!-- Node37 -->
<g id="node3" class="node">
<title>Node37</title>
<g id="a_node3"><a xlink:href="api_2ipsec_8h.html" target="_top" xlink:title="ODP IPSEC API &#45; platform specific header. ">
<polygon fill="#ffffff" stroke="#000000" points="0,-112.5 0,-131.5 48,-131.5 48,-112.5 0,-112.5"/>
<text text-anchor="middle" x="24" y="-119.5" font-family="Helvetica,sans-Serif" font-size="10.00" fill="#000000">ipsec.h</text>
</a>
</g>
</g>
<!-- Node36&#45;&gt;Node37 -->
<g id="edge2" class="edge">
<title>Node36&#45;&gt;Node37</title>
<path fill="none" stroke="#191970" d="M24,-158.1575C24,-149.155 24,-138.9199 24,-131.6427"/>
<polygon fill="#191970" stroke="#191970" points="20.5001,-158.2455 24,-168.2455 27.5001,-158.2456 20.5001,-158.2455"/>
</g>
<!-- Node37&#45;&gt;Node38 -->
<g id="edge3" class="edge">
<title>Node37&#45;&gt;Node38</title>
<path fill="none" stroke="#191970" d="M32.8011,-103.0437C37.0775,-93.8331 42.033,-83.1598 45.523,-75.6427"/>
<polygon fill="#191970" stroke="#191970" points="29.5655,-101.7015 28.5289,-112.2455 35.9146,-104.6494 29.5655,-101.7015"/>
</g>
<!-- Node39 -->
<g id="node5" class="node">
<title>Node39</title>
<g id="a_node5"><a xlink:href="odp_8h.html" target="_top" xlink:title="WARNING: THIS FILE IS DEPRECATED AND WILL BE REMOVED!!! ODP APPLICATIONS SHOULD NOW INCLUDE odp_api...">
<polygon fill="#ffffff" stroke="#000000" points="29.5,-.5 29.5,-19.5 70.5,-19.5 70.5,-.5 29.5,-.5"/>
<text text-anchor="middle" x="50" y="-7.5" font-family="Helvetica,sans-Serif" font-size="10.00" fill="#000000">odp.h</text>
</a>
</g>
</g>
<!-- Node38&#45;&gt;Node39 -->
<g id="edge4" class="edge">
<title>Node38&#45;&gt;Node39</title>
<path fill="none" stroke="#191970" d="M50,-46.1575C50,-37.155 50,-26.9199 50,-19.6427"/>
<polygon fill="#191970" stroke="#191970" points="46.5001,-46.2455 50,-56.2455 53.5001,-46.2456 46.5001,-46.2455"/>
</g>
</g>
</svg>
