<?xml version="1.0" encoding="UTF-8" standalone="no"?>
<!DOCTYPE svg PUBLIC "-//W3C//DTD SVG 1.1//EN"
 "http://www.w3.org/Graphics/SVG/1.1/DTD/svg11.dtd">
<!-- Generated by graphviz version 2.40.1 (20161225.0304)
 -->
<!-- Title: thrmask.h Pages: 1 -->
<svg width="536pt" height="364pt"
 viewBox="0.00 0.00 536.00 364.00" xmlns="http://www.w3.org/2000/svg" xmlns:xlink="http://www.w3.org/1999/xlink">
<g id="graph0" class="graph" transform="scale(1 1) rotate(0) translate(4 360)">
<title>thrmask.h</title>
<polygon fill="#ffffff" stroke="transparent" points="-4,4 -4,-360 532,-360 532,4 -4,4"/>
<!-- Node6 -->
<g id="node1" class="node">
<title>Node6</title>
<polygon fill="#bfbfbf" stroke="#000000" points="234,-336.5 234,-355.5 294,-355.5 294,-336.5 234,-336.5"/>
<text text-anchor="middle" x="264" y="-343.5" font-family="Helvetica,sans-Serif" font-size="10.00" fill="#000000">thrmask.h</text>
</g>
<!-- Node7 -->
<g id="node2" class="node">
<title>Node7</title>
<g id="a_node2"><a xlink:href="arch_2arm32-linux_2odp_2api_2abi_2thrmask_8h_source.html" target="_top" xlink:title="thrmask.h">
<polygon fill="#ffffff" stroke="#000000" points="0,-280.5 0,-299.5 60,-299.5 60,-280.5 0,-280.5"/>
<text text-anchor="middle" x="30" y="-287.5" font-family="Helvetica,sans-Serif" font-size="10.00" fill="#000000">thrmask.h</text>
</a>
</g>
</g>
<!-- Node6&#45;&gt;Node7 -->
<g id="edge1" class="edge">
<title>Node6&#45;&gt;Node7</title>
<path fill="none" stroke="#191970" d="M224.1242,-336.8311C184.6741,-327.7041 122.5969,-313.1918 69,-300 66.1493,-299.2984 63.1843,-298.5578 60.2191,-297.8099"/>
<polygon fill="#191970" stroke="#191970" points="223.3603,-340.2468 233.8916,-339.0878 224.9362,-333.4264 223.3603,-340.2468"/>
</g>
<!-- Node8 -->
<g id="node3" class="node">
<title>Node8</title>
<g id="a_node3"><a xlink:href="arch_2arm64-linux_2odp_2api_2abi_2thrmask_8h_source.html" target="_top" xlink:title="thrmask.h">
<polygon fill="#ffffff" stroke="#000000" points="78,-280.5 78,-299.5 138,-299.5 138,-280.5 78,-280.5"/>
<text text-anchor="middle" x="108" y="-287.5" font-family="Helvetica,sans-Serif" font-size="10.00" fill="#000000">thrmask.h</text>
</a>
</g>
</g>
<!-- Node6&#45;&gt;Node8 -->
<g id="edge2" class="edge">
<title>Node6&#45;&gt;Node8</title>
<path fill="none" stroke="#191970" d="M227.5716,-332.9231C199.0539,-322.686 160.0619,-308.6889 134.4674,-299.5011"/>
<polygon fill="#191970" stroke="#191970" points="226.5881,-336.2887 237.1826,-336.3733 228.9532,-329.7004 226.5881,-336.2887"/>
</g>
<!-- Node9 -->
<g id="node4" class="node">
<title>Node9</title>
<g id="a_node4"><a xlink:href="arch_2default-linux_2odp_2api_2abi_2thrmask_8h_source.html" target="_top" xlink:title="thrmask.h">
<polygon fill="#ffffff" stroke="#000000" points="156,-280.5 156,-299.5 216,-299.5 216,-280.5 156,-280.5"/>
<text text-anchor="middle" x="186" y="-287.5" font-family="Helvetica,sans-Serif" font-size="10.00" fill="#000000">thrmask.h</text>
</a>
</g>
</g>
<!-- Node6&#45;&gt;Node9 -->
<g id="edge3" class="edge">
<title>Node6&#45;&gt;Node9</title>
<path fill="none" stroke="#191970" d="M242.0064,-330.2097C228.3071,-320.3743 211.1264,-308.0394 199.4309,-299.6427"/>
<polygon fill="#191970" stroke="#191970" points="240.2489,-333.2566 250.4134,-336.2455 244.3314,-327.5703 240.2489,-333.2566"/>
</g>
<!-- Node10 -->
<g id="node5" class="node">
<title>Node10</title>
<g id="a_node5"><a xlink:href="arch_2mips64-linux_2odp_2api_2abi_2thrmask_8h_source.html" target="_top" xlink:title="thrmask.h">
<polygon fill="#ffffff" stroke="#000000" points="234,-280.5 234,-299.5 294,-299.5 294,-280.5 234,-280.5"/>
<text text-anchor="middle" x="264" y="-287.5" font-family="Helvetica,sans-Serif" font-size="10.00" fill="#000000">thrmask.h</text>
</a>
</g>
</g>
<!-- Node6&#45;&gt;Node10 -->
<g id="edge4" class="edge">
<title>Node6&#45;&gt;Node10</title>
<path fill="none" stroke="#191970" d="M264,-326.1575C264,-317.155 264,-306.9199 264,-299.6427"/>
<polygon fill="#191970" stroke="#191970" points="260.5001,-326.2455 264,-336.2455 267.5001,-326.2456 260.5001,-326.2455"/>
</g>
<!-- Node11 -->
<g id="node6" class="node">
<title>Node11</title>
<g id="a_node6"><a xlink:href="arch_2power64-linux_2odp_2api_2abi_2thrmask_8h_source.html" target="_top" xlink:title="thrmask.h">
<polygon fill="#ffffff" stroke="#000000" points="312,-280.5 312,-299.5 372,-299.5 372,-280.5 312,-280.5"/>
<text text-anchor="middle" x="342" y="-287.5" font-family="Helvetica,sans-Serif" font-size="10.00" fill="#000000">thrmask.h</text>
</a>
</g>
</g>
<!-- Node6&#45;&gt;Node11 -->
<g id="edge5" class="edge">
<title>Node6&#45;&gt;Node11</title>
<path fill="none" stroke="#191970" d="M285.9936,-330.2097C299.6929,-320.3743 316.8736,-308.0394 328.5691,-299.6427"/>
<polygon fill="#191970" stroke="#191970" points="283.6686,-327.5703 277.5866,-336.2455 287.7511,-333.2566 283.6686,-327.5703"/>
</g>
<!-- Node12 -->
<g id="node7" class="node">
<title>Node12</title>
<g id="a_node7"><a xlink:href="arch_2x86__32-linux_2odp_2api_2abi_2thrmask_8h_source.html" target="_top" xlink:title="thrmask.h">
<polygon fill="#ffffff" stroke="#000000" points="390,-280.5 390,-299.5 450,-299.5 450,-280.5 390,-280.5"/>
<text text-anchor="middle" x="420" y="-287.5" font-family="Helvetica,sans-Serif" font-size="10.00" fill="#000000">thrmask.h</text>
</a>
</g>
</g>
<!-- Node6&#45;&gt;Node12 -->
<g id="edge6" class="edge">
<title>Node6&#45;&gt;Node12</title>
<path fill="none" stroke="#191970" d="M300.4284,-332.9231C328.9461,-322.686 367.9381,-308.6889 393.5326,-299.5011"/>
<polygon fill="#191970" stroke="#191970" points="299.0468,-329.7004 290.8174,-336.3733 301.4119,-336.2887 299.0468,-329.7004"/>
</g>
<!-- Node13 -->
<g id="node8" class="node">
<title>Node13</title>
<g id="a_node8"><a xlink:href="arch_2x86__64-linux_2odp_2api_2abi_2thrmask_8h_source.html" target="_top" xlink:title="thrmask.h">
<polygon fill="#ffffff" stroke="#000000" points="468,-280.5 468,-299.5 528,-299.5 528,-280.5 468,-280.5"/>
<text text-anchor="middle" x="498" y="-287.5" font-family="Helvetica,sans-Serif" font-size="10.00" fill="#000000">thrmask.h</text>
</a>
</g>
</g>
<!-- Node6&#45;&gt;Node13 -->
<g id="edge7" class="edge">
<title>Node6&#45;&gt;Node13</title>
<path fill="none" stroke="#191970" d="M303.8758,-336.8311C343.3259,-327.7041 405.4031,-313.1918 459,-300 461.8507,-299.2984 464.8157,-298.5578 467.7809,-297.8099"/>
<polygon fill="#191970" stroke="#191970" points="303.0638,-333.4264 294.1084,-339.0878 304.6397,-340.2468 303.0638,-333.4264"/>
</g>
<!-- Node14 -->
<g id="node9" class="node">
<title>Node14</title>
<g id="a_node9"><a xlink:href="api_2thrmask_8h.html" target="_top" xlink:title="ODP thread masks. ">
<polygon fill="#ffffff" stroke="#000000" points="468,-224.5 468,-243.5 528,-243.5 528,-224.5 468,-224.5"/>
<text text-anchor="middle" x="498" y="-231.5" font-family="Helvetica,sans-Serif" font-size="10.00" fill="#000000">thrmask.h</text>
</a>
</g>
</g>
<!-- Node13&#45;&gt;Node14 -->
<g id="edge8" class="edge">
<title>Node13&#45;&gt;Node14</title>
<path fill="none" stroke="#191970" d="M498,-270.1575C498,-261.155 498,-250.9199 498,-243.6427"/>
<polygon fill="#191970" stroke="#191970" points="494.5001,-270.2455 498,-280.2455 501.5001,-270.2456 494.5001,-270.2455"/>
</g>
<!-- Node15 -->
<g id="node10" class="node">
<title>Node15</title>
<g id="a_node10"><a xlink:href="api_2spec_2schedule_8h.html" target="_top" xlink:title="ODP schedule. ">
<polygon fill="#ffffff" stroke="#000000" points="436,-168.5 436,-187.5 500,-187.5 500,-168.5 436,-168.5"/>
<text text-anchor="middle" x="468" y="-175.5" font-family="Helvetica,sans-Serif" font-size="10.00" fill="#000000">schedule.h</text>
</a>
</g>
</g>
<!-- Node14&#45;&gt;Node15 -->
<g id="edge9" class="edge">
<title>Node14&#45;&gt;Node15</title>
<path fill="none" stroke="#191970" d="M488.002,-215.3372C483.0324,-206.0605 477.2356,-195.2398 473.1657,-187.6427"/>
<polygon fill="#191970" stroke="#191970" points="484.9669,-217.0835 492.7744,-224.2455 491.1373,-213.7779 484.9669,-217.0835"/>
</g>
<!-- Node17 -->
<g id="node12" class="node">
<title>Node17</title>
<g id="a_node12"><a xlink:href="odp__api_8h.html" target="_top" xlink:title="The OpenDataPlane API. ">
<polygon fill="#ffffff" stroke="#000000" points="468.5,-56.5 468.5,-75.5 527.5,-75.5 527.5,-56.5 468.5,-56.5"/>
<text text-anchor="middle" x="498" y="-63.5" font-family="Helvetica,sans-Serif" font-size="10.00" fill="#000000">odp_api.h</text>
</a>
</g>
</g>
<!-- Node14&#45;&gt;Node17 -->
<g id="edge13" class="edge">
<title>Node14&#45;&gt;Node17</title>
<path fill="none" stroke="#191970" d="M503.71,-214.5896C505.8232,-206.4533 507.9571,-196.8454 509,-188 512.9551,-154.4546 512.9551,-145.5454 509,-112 507.5001,-99.2785 503.7435,-84.9798 501.0375,-75.7501"/>
<polygon fill="#191970" stroke="#191970" points="500.3306,-213.6787 501.0375,-224.2499 507.0772,-215.5452 500.3306,-213.6787"/>
</g>
<!-- Node16 -->
<g id="node11" class="node">
<title>Node16</title>
<g id="a_node11"><a xlink:href="api_2schedule_8h.html" target="_top" xlink:title="ODP schedule. ">
<polygon fill="#ffffff" stroke="#000000" points="436,-112.5 436,-131.5 500,-131.5 500,-112.5 436,-112.5"/>
<text text-anchor="middle" x="468" y="-119.5" font-family="Helvetica,sans-Serif" font-size="10.00" fill="#000000">schedule.h</text>
</a>
</g>
</g>
<!-- Node15&#45;&gt;Node16 -->
<g id="edge10" class="edge">
<title>Node15&#45;&gt;Node16</title>
<path fill="none" stroke="#191970" d="M468,-158.1575C468,-149.155 468,-138.9199 468,-131.6427"/>
<polygon fill="#191970" stroke="#191970" points="464.5001,-158.2455 468,-168.2455 471.5001,-158.2456 464.5001,-158.2455"/>
</g>
<!-- Node16&#45;&gt;Node17 -->
<g id="edge11" class="edge">
<title>Node16&#45;&gt;Node17</title>
<path fill="none" stroke="#191970" d="M477.998,-103.3372C482.9676,-94.0605 488.7644,-83.2398 492.8343,-75.6427"/>
<polygon fill="#191970" stroke="#191970" points="474.8627,-101.7779 473.2256,-112.2455 481.0331,-105.0835 474.8627,-101.7779"/>
</g>
<!-- Node18 -->
<g id="node13" class="node">
<title>Node18</title>
<g id="a_node13"><a xlink:href="odp_8h.html" target="_top" xlink:title="WARNING: THIS FILE IS DEPRECATED AND WILL BE REMOVED!!! ODP APPLICATIONS SHOULD NOW INCLUDE odp_api...">
<polygon fill="#ffffff" stroke="#000000" points="477.5,-.5 477.5,-19.5 518.5,-19.5 518.5,-.5 477.5,-.5"/>
<text text-anchor="middle" x="498" y="-7.5" font-family="Helvetica,sans-Serif" font-size="10.00" fill="#000000">odp.h</text>
</a>
</g>
</g>
<!-- Node17&#45;&gt;Node18 -->
<g id="edge12" class="edge">
<title>Node17&#45;&gt;Node18</title>
<path fill="none" stroke="#191970" d="M498,-46.1575C498,-37.155 498,-26.9199 498,-19.6427"/>
<polygon fill="#191970" stroke="#191970" points="494.5001,-46.2455 498,-56.2455 501.5001,-46.2456 494.5001,-46.2455"/>
</g>
</g>
</svg>
