<?xml version="1.0" encoding="UTF-8" standalone="no"?>
<!DOCTYPE svg PUBLIC "-//W3C//DTD SVG 1.1//EN"
 "http://www.w3.org/Graphics/SVG/1.1/DTD/svg11.dtd">
<!-- Generated by graphviz version 2.40.1 (20161225.0304)
 -->
<!-- Title: timer.h Pages: 1 -->
<svg width="825pt" height="308pt"
 viewBox="0.00 0.00 824.77 308.00" xmlns="http://www.w3.org/2000/svg" xmlns:xlink="http://www.w3.org/1999/xlink">
<g id="graph0" class="graph" transform="scale(1 1) rotate(0) translate(4 304)">
<title>timer.h</title>
<polygon fill="#ffffff" stroke="transparent" points="-4,4 -4,-304 820.7691,-304 820.7691,4 -4,4"/>
<!-- Node0 -->
<g id="node1" class="node">
<title>Node0</title>
<polygon fill="#bfbfbf" stroke="#000000" points="455.7691,-280.5 455.7691,-299.5 502.7691,-299.5 502.7691,-280.5 455.7691,-280.5"/>
<text text-anchor="middle" x="479.2691" y="-287.5" font-family="Helvetica,sans-Serif" font-size="10.00" fill="#000000">timer.h</text>
</g>
<!-- Node1 -->
<g id="node2" class="node">
<title>Node1</title>
<g id="a_node2"><a xlink:href="api_2std__types_8h.html" target="_top" xlink:title="Standard C language types and definitions for ODP. ">
<polygon fill="#ffffff" stroke="#000000" points="206.2691,-224.5 206.2691,-243.5 308.2691,-243.5 308.2691,-224.5 206.2691,-224.5"/>
<text text-anchor="middle" x="257.2691" y="-231.5" font-family="Helvetica,sans-Serif" font-size="10.00" fill="#000000">odp/api/std_types.h</text>
</a>
</g>
</g>
<!-- Node0&#45;&gt;Node1 -->
<g id="edge1" class="edge">
<title>Node0&#45;&gt;Node1</title>
<path fill="none" stroke="#191970" d="M455.5112,-284.007C419.7675,-274.9906 351.419,-257.7495 305.0881,-246.0624"/>
<polygon fill="#191970" stroke="#191970" points="305.819,-242.6373 295.2667,-243.585 304.1068,-249.4246 305.819,-242.6373"/>
</g>
<!-- Node10 -->
<g id="node11" class="node">
<title>Node10</title>
<polygon fill="#ffffff" stroke="#bfbfbf" points="372.7691,-224.5 372.7691,-243.5 471.7691,-243.5 471.7691,-224.5 372.7691,-224.5"/>
<text text-anchor="middle" x="422.2691" y="-231.5" font-family="Helvetica,sans-Serif" font-size="10.00" fill="#000000">odp/api/abi/event.h</text>
</g>
<!-- Node0&#45;&gt;Node10 -->
<g id="edge12" class="edge">
<title>Node0&#45;&gt;Node10</title>
<path fill="none" stroke="#191970" d="M469.3405,-280.2455C461.0853,-272.1352 449.1482,-260.4075 439.3609,-250.7919"/>
<polygon fill="#191970" stroke="#191970" points="441.6702,-248.1542 432.084,-243.6427 436.7645,-253.1476 441.6702,-248.1542"/>
</g>
<!-- Node11 -->
<g id="node12" class="node">
<title>Node11</title>
<polygon fill="#ffffff" stroke="#bfbfbf" points="489.7691,-224.5 489.7691,-243.5 582.7691,-243.5 582.7691,-224.5 489.7691,-224.5"/>
<text text-anchor="middle" x="536.2691" y="-231.5" font-family="Helvetica,sans-Serif" font-size="10.00" fill="#000000">odp/api/abi/pool.h</text>
</g>
<!-- Node0&#45;&gt;Node11 -->
<g id="edge13" class="edge">
<title>Node0&#45;&gt;Node11</title>
<path fill="none" stroke="#191970" d="M489.1977,-280.2455C497.4529,-272.1352 509.39,-260.4075 519.1773,-250.7919"/>
<polygon fill="#191970" stroke="#191970" points="521.7737,-253.1476 526.4542,-243.6427 516.868,-248.1542 521.7737,-253.1476"/>
</g>
<!-- Node12 -->
<g id="node13" class="node">
<title>Node12</title>
<polygon fill="#ffffff" stroke="#bfbfbf" points="600.7691,-224.5 600.7691,-243.5 701.7691,-243.5 701.7691,-224.5 600.7691,-224.5"/>
<text text-anchor="middle" x="651.2691" y="-231.5" font-family="Helvetica,sans-Serif" font-size="10.00" fill="#000000">odp/api/abi/queue.h</text>
</g>
<!-- Node0&#45;&gt;Node12 -->
<g id="edge14" class="edge">
<title>Node0&#45;&gt;Node12</title>
<path fill="none" stroke="#191970" d="M502.8243,-282.3309C531.0443,-273.143 578.7271,-257.6183 612.426,-246.6466"/>
<polygon fill="#191970" stroke="#191970" points="613.5394,-249.965 621.9645,-243.541 611.3722,-243.3089 613.5394,-249.965"/>
</g>
<!-- Node13 -->
<g id="node14" class="node">
<title>Node13</title>
<polygon fill="#ffffff" stroke="#bfbfbf" points="719.7691,-224.5 719.7691,-243.5 816.7691,-243.5 816.7691,-224.5 719.7691,-224.5"/>
<text text-anchor="middle" x="768.2691" y="-231.5" font-family="Helvetica,sans-Serif" font-size="10.00" fill="#000000">odp/api/abi/timer.h</text>
</g>
<!-- Node0&#45;&gt;Node13 -->
<g id="edge15" class="edge">
<title>Node0&#45;&gt;Node13</title>
<path fill="none" stroke="#191970" d="M502.9192,-285.4173C547.7059,-276.7389 646.0946,-257.674 709.6654,-245.3557"/>
<polygon fill="#191970" stroke="#191970" points="710.4041,-248.7778 719.5557,-243.4393 709.0724,-241.9056 710.4041,-248.7778"/>
</g>
<!-- Node14 -->
<g id="node15" class="node">
<title>Node14</title>
<g id="a_node15"><a xlink:href="api_2spec_2timer_8h.html" target="_top" xlink:title="ODP timer service. ">
<polygon fill="#ffffff" stroke="#000000" points="291.7691,-56.5 291.7691,-75.5 396.7691,-75.5 396.7691,-56.5 291.7691,-56.5"/>
<text text-anchor="middle" x="344.2691" y="-63.5" font-family="Helvetica,sans-Serif" font-size="10.00" fill="#000000">odp/api/spec/timer.h</text>
</a>
</g>
</g>
<!-- Node0&#45;&gt;Node14 -->
<g id="edge16" class="edge">
<title>Node0&#45;&gt;Node14</title>
<path fill="none" stroke="#191970" d="M455.6061,-287.6167C428.8476,-283.5659 386.1631,-272.7351 364.2691,-244 328.3862,-196.905 334.8149,-121.4043 340.4665,-85.7999"/>
<polygon fill="#191970" stroke="#191970" points="343.9528,-86.1805 342.2196,-75.7285 337.0565,-84.9801 343.9528,-86.1805"/>
</g>
<!-- Node2 -->
<g id="node3" class="node">
<title>Node2</title>
<polygon fill="#ffffff" stroke="#bfbfbf" points="198.2691,-168.5 198.2691,-187.5 316.2691,-187.5 316.2691,-168.5 198.2691,-168.5"/>
<text text-anchor="middle" x="257.2691" y="-175.5" font-family="Helvetica,sans-Serif" font-size="10.00" fill="#000000">odp/api/abi/std_types.h</text>
</g>
<!-- Node1&#45;&gt;Node2 -->
<g id="edge2" class="edge">
<title>Node1&#45;&gt;Node2</title>
<path fill="none" stroke="#191970" d="M257.2691,-224.2455C257.2691,-216.9382 257.2691,-206.6944 257.2691,-197.7046"/>
<polygon fill="#191970" stroke="#191970" points="260.7692,-197.6426 257.2691,-187.6427 253.7692,-197.6427 260.7692,-197.6426"/>
</g>
<!-- Node3 -->
<g id="node4" class="node">
<title>Node3</title>
<g id="a_node4"><a xlink:href="api_2spec_2std__types_8h.html" target="_top" xlink:title="Standard C language types and definitions for ODP. ">
<polygon fill="#ffffff" stroke="#000000" points="54.2691,-168.5 54.2691,-187.5 180.2691,-187.5 180.2691,-168.5 54.2691,-168.5"/>
<text text-anchor="middle" x="117.2691" y="-175.5" font-family="Helvetica,sans-Serif" font-size="10.00" fill="#000000">odp/api/spec/std_types.h</text>
</a>
</g>
</g>
<!-- Node1&#45;&gt;Node3 -->
<g id="edge3" class="edge">
<title>Node1&#45;&gt;Node3</title>
<path fill="none" stroke="#191970" d="M233.2022,-224.3733C210.4263,-215.2629 176.0347,-201.5062 150.6201,-191.3404"/>
<polygon fill="#191970" stroke="#191970" points="151.6066,-187.9654 141.0219,-187.5011 149.0068,-194.4648 151.6066,-187.9654"/>
</g>
<!-- Node4 -->
<g id="node5" class="node">
<title>Node4</title>
<g id="a_node5"><a xlink:href="visibility__begin_8h_source.html" target="_top" xlink:title="odp/visibility_begin.h">
<polygon fill="#ffffff" stroke="#000000" points="108.7691,-.5 108.7691,-19.5 215.7691,-19.5 215.7691,-.5 108.7691,-.5"/>
<text text-anchor="middle" x="162.2691" y="-7.5" font-family="Helvetica,sans-Serif" font-size="10.00" fill="#000000">odp/visibility_begin.h</text>
</a>
</g>
</g>
<!-- Node3&#45;&gt;Node4 -->
<g id="edge4" class="edge">
<title>Node3&#45;&gt;Node4</title>
<path fill="none" stroke="#191970" d="M96.6325,-168.3934C56.5735,-148.4408 -24.9883,-100.6434 8.2691,-56 19.478,-40.9536 61.4087,-29.0213 98.6902,-21.0836"/>
<polygon fill="#191970" stroke="#191970" points="99.4606,-24.4984 108.5482,-19.0519 98.0476,-17.6425 99.4606,-24.4984"/>
</g>
<!-- Node5 -->
<g id="node6" class="node">
<title>Node5</title>
<polygon fill="#ffffff" stroke="#bfbfbf" points="149.7691,-112.5 149.7691,-131.5 198.7691,-131.5 198.7691,-112.5 149.7691,-112.5"/>
<text text-anchor="middle" x="174.2691" y="-119.5" font-family="Helvetica,sans-Serif" font-size="10.00" fill="#000000">stdint.h</text>
</g>
<!-- Node3&#45;&gt;Node5 -->
<g id="edge5" class="edge">
<title>Node3&#45;&gt;Node5</title>
<path fill="none" stroke="#191970" d="M127.1977,-168.2455C135.4529,-160.1352 147.39,-148.4075 157.1773,-138.7919"/>
<polygon fill="#191970" stroke="#191970" points="159.7737,-141.1476 164.4542,-131.6427 154.868,-136.1542 159.7737,-141.1476"/>
</g>
<!-- Node6 -->
<g id="node7" class="node">
<title>Node6</title>
<g id="a_node7"><a xlink:href="api_2align_8h.html" target="_top" xlink:title="ODP alignments. ">
<polygon fill="#ffffff" stroke="#000000" points="51.2691,-112.5 51.2691,-131.5 131.2691,-131.5 131.2691,-112.5 51.2691,-112.5"/>
<text text-anchor="middle" x="91.2691" y="-119.5" font-family="Helvetica,sans-Serif" font-size="10.00" fill="#000000">odp/api/align.h</text>
</a>
</g>
</g>
<!-- Node3&#45;&gt;Node6 -->
<g id="edge6" class="edge">
<title>Node3&#45;&gt;Node6</title>
<path fill="none" stroke="#191970" d="M112.7402,-168.2455C109.2357,-160.6973 104.2764,-150.0158 100.0068,-140.8197"/>
<polygon fill="#191970" stroke="#191970" points="103.1318,-139.2389 95.746,-131.6427 96.7827,-142.1867 103.1318,-139.2389"/>
</g>
<!-- Node9 -->
<g id="node10" class="node">
<title>Node9</title>
<g id="a_node10"><a xlink:href="visibility__end_8h_source.html" target="_top" xlink:title="odp/visibility_end.h">
<polygon fill="#ffffff" stroke="#000000" points="234.2691,-.5 234.2691,-19.5 334.2691,-19.5 334.2691,-.5 234.2691,-.5"/>
<text text-anchor="middle" x="284.2691" y="-7.5" font-family="Helvetica,sans-Serif" font-size="10.00" fill="#000000">odp/visibility_end.h</text>
</a>
</g>
</g>
<!-- Node3&#45;&gt;Node9 -->
<g id="edge11" class="edge">
<title>Node3&#45;&gt;Node9</title>
<path fill="none" stroke="#191970" d="M145.052,-168.4477C164.3732,-160.7977 189.8632,-148.5963 208.2691,-132 241.1545,-102.3476 264.9654,-55.1871 276.4819,-29.0363"/>
<polygon fill="#191970" stroke="#191970" points="279.7077,-30.3945 280.4107,-19.823 273.2686,-27.6487 279.7077,-30.3945"/>
</g>
<!-- Node7 -->
<g id="node8" class="node">
<title>Node7</title>
<polygon fill="#ffffff" stroke="#bfbfbf" points="17.7691,-56.5 17.7691,-75.5 112.7691,-75.5 112.7691,-56.5 17.7691,-56.5"/>
<text text-anchor="middle" x="65.2691" y="-63.5" font-family="Helvetica,sans-Serif" font-size="10.00" fill="#000000">odp/api/abi/align.h</text>
</g>
<!-- Node6&#45;&gt;Node7 -->
<g id="edge7" class="edge">
<title>Node6&#45;&gt;Node7</title>
<path fill="none" stroke="#191970" d="M86.7402,-112.2455C83.2357,-104.6973 78.2764,-94.0158 74.0068,-84.8197"/>
<polygon fill="#191970" stroke="#191970" points="77.1318,-83.2389 69.746,-75.6427 70.7827,-86.1867 77.1318,-83.2389"/>
</g>
<!-- Node8 -->
<g id="node9" class="node">
<title>Node8</title>
<g id="a_node9"><a xlink:href="api_2spec_2align_8h.html" target="_top" xlink:title="ODP alignments. ">
<polygon fill="#ffffff" stroke="#000000" points="131.2691,-56.5 131.2691,-75.5 235.2691,-75.5 235.2691,-56.5 131.2691,-56.5"/>
<text text-anchor="middle" x="183.2691" y="-63.5" font-family="Helvetica,sans-Serif" font-size="10.00" fill="#000000">odp/api/spec/align.h</text>
</a>
</g>
</g>
<!-- Node6&#45;&gt;Node8 -->
<g id="edge8" class="edge">
<title>Node6&#45;&gt;Node8</title>
<path fill="none" stroke="#191970" d="M107.2943,-112.2455C121.4099,-103.6534 142.1954,-91.0014 158.459,-81.1018"/>
<polygon fill="#191970" stroke="#191970" points="160.7054,-83.8319 167.4276,-75.6427 157.0657,-77.8525 160.7054,-83.8319"/>
</g>
<!-- Node8&#45;&gt;Node4 -->
<g id="edge9" class="edge">
<title>Node8&#45;&gt;Node4</title>
<path fill="none" stroke="#191970" d="M179.6112,-56.2455C176.8107,-48.7776 172.8601,-38.2427 169.4367,-29.1137"/>
<polygon fill="#191970" stroke="#191970" points="172.6735,-27.777 165.8851,-19.6427 166.1192,-30.2349 172.6735,-27.777"/>
</g>
<!-- Node8&#45;&gt;Node9 -->
<g id="edge10" class="edge">
<title>Node8&#45;&gt;Node9</title>
<path fill="none" stroke="#191970" d="M200.862,-56.2455C216.6481,-47.4928 240.033,-34.527 258.0278,-24.5496"/>
<polygon fill="#191970" stroke="#191970" points="259.8294,-27.5528 266.8778,-19.6427 256.435,-21.4308 259.8294,-27.5528"/>
</g>
<!-- Node14&#45;&gt;Node4 -->
<g id="edge17" class="edge">
<title>Node14&#45;&gt;Node4</title>
<path fill="none" stroke="#191970" d="M312.9822,-56.3733C282.5873,-47.021 236.2798,-32.7725 203.0191,-22.5385"/>
<polygon fill="#191970" stroke="#191970" points="203.7349,-19.0968 193.1477,-19.5011 201.6762,-25.7873 203.7349,-19.0968"/>
</g>
<!-- Node14&#45;&gt;Node9 -->
<g id="edge18" class="edge">
<title>Node14&#45;&gt;Node9</title>
<path fill="none" stroke="#191970" d="M333.8179,-56.2455C325.0422,-48.0549 312.3137,-36.1749 301.9551,-26.5069"/>
<polygon fill="#191970" stroke="#191970" points="304.2992,-23.9072 294.6005,-19.6427 299.523,-29.0246 304.2992,-23.9072"/>
</g>
</g>
</svg>
