<?xml version="1.0" encoding="UTF-8" standalone="no"?>
<!DOCTYPE svg PUBLIC "-//W3C//DTD SVG 1.1//EN"
 "http://www.w3.org/Graphics/SVG/1.1/DTD/svg11.dtd">
<!-- Generated by graphviz version 2.40.1 (20161225.0304)
 -->
<!-- Title: schedule_types.h Pages: 1 -->
<svg width="246pt" height="196pt"
 viewBox="0.00 0.00 245.50 196.00" xmlns="http://www.w3.org/2000/svg" xmlns:xlink="http://www.w3.org/1999/xlink">
<g id="graph0" class="graph" transform="scale(1 1) rotate(0) translate(4 192)">
<title>schedule_types.h</title>
<polygon fill="#ffffff" stroke="transparent" points="-4,4 -4,-192 241.5,-192 241.5,4 -4,4"/>
<!-- Node0 -->
<g id="node1" class="node">
<title>Node0</title>
<polygon fill="#bfbfbf" stroke="#000000" points="68,-168.5 68,-187.5 161,-187.5 161,-168.5 68,-168.5"/>
<text text-anchor="middle" x="114.5" y="-175.5" font-family="Helvetica,sans-Serif" font-size="10.00" fill="#000000">schedule_types.h</text>
</g>
<!-- Node1 -->
<g id="node2" class="node">
<title>Node1</title>
<g id="a_node2"><a xlink:href="visibility__begin_8h_source.html" target="_top" xlink:title="odp/visibility_begin.h">
<polygon fill="#ffffff" stroke="#000000" points="0,-.5 0,-19.5 107,-19.5 107,-.5 0,-.5"/>
<text text-anchor="middle" x="53.5" y="-7.5" font-family="Helvetica,sans-Serif" font-size="10.00" fill="#000000">odp/visibility_begin.h</text>
</a>
</g>
</g>
<!-- Node0&#45;&gt;Node1 -->
<g id="edge1" class="edge">
<title>Node0&#45;&gt;Node1</title>
<path fill="none" stroke="#191970" d="M97.9613,-168.4398C85.455,-160.3362 68.8858,-147.563 59.5,-132 40.4202,-100.3629 44.5308,-55.2838 49.1043,-29.7107"/>
<polygon fill="#191970" stroke="#191970" points="52.5681,-30.2373 51.0914,-19.7459 45.7033,-28.8683 52.5681,-30.2373"/>
</g>
<!-- Node2 -->
<g id="node3" class="node">
<title>Node2</title>
<g id="a_node3"><a xlink:href="support_8h.html" target="_top" xlink:title="ODP support API &#45; platform specific header. ">
<polygon fill="#ffffff" stroke="#000000" points="68.5,-112.5 68.5,-131.5 160.5,-131.5 160.5,-112.5 68.5,-112.5"/>
<text text-anchor="middle" x="114.5" y="-119.5" font-family="Helvetica,sans-Serif" font-size="10.00" fill="#000000">odp/api/support.h</text>
</a>
</g>
</g>
<!-- Node0&#45;&gt;Node2 -->
<g id="edge2" class="edge">
<title>Node0&#45;&gt;Node2</title>
<path fill="none" stroke="#191970" d="M114.5,-168.2455C114.5,-160.9382 114.5,-150.6944 114.5,-141.7046"/>
<polygon fill="#191970" stroke="#191970" points="118.0001,-141.6426 114.5,-131.6427 111.0001,-141.6427 118.0001,-141.6426"/>
</g>
<!-- Node4 -->
<g id="node5" class="node">
<title>Node4</title>
<g id="a_node5"><a xlink:href="visibility__end_8h_source.html" target="_top" xlink:title="odp/visibility_end.h">
<polygon fill="#ffffff" stroke="#000000" points="137.5,-.5 137.5,-19.5 237.5,-19.5 237.5,-.5 137.5,-.5"/>
<text text-anchor="middle" x="187.5" y="-7.5" font-family="Helvetica,sans-Serif" font-size="10.00" fill="#000000">odp/visibility_end.h</text>
</a>
</g>
</g>
<!-- Node0&#45;&gt;Node4 -->
<g id="edge6" class="edge">
<title>Node0&#45;&gt;Node4</title>
<path fill="none" stroke="#191970" d="M131.0387,-168.4398C143.545,-160.3362 160.1142,-147.563 169.5,-132 188.6766,-100.2023 190.1312,-55.4927 189.0748,-29.9615"/>
<polygon fill="#191970" stroke="#191970" points="192.552,-29.4716 188.4674,-19.6958 185.5642,-29.8851 192.552,-29.4716"/>
</g>
<!-- Node3 -->
<g id="node4" class="node">
<title>Node3</title>
<g id="a_node4"><a xlink:href="spec_2support_8h.html" target="_top" xlink:title="ODP support API. ">
<polygon fill="#ffffff" stroke="#000000" points="56.5,-56.5 56.5,-75.5 172.5,-75.5 172.5,-56.5 56.5,-56.5"/>
<text text-anchor="middle" x="114.5" y="-63.5" font-family="Helvetica,sans-Serif" font-size="10.00" fill="#000000">odp/api/spec/support.h</text>
</a>
</g>
</g>
<!-- Node2&#45;&gt;Node3 -->
<g id="edge3" class="edge">
<title>Node2&#45;&gt;Node3</title>
<path fill="none" stroke="#191970" d="M114.5,-112.2455C114.5,-104.9382 114.5,-94.6944 114.5,-85.7046"/>
<polygon fill="#191970" stroke="#191970" points="118.0001,-85.6426 114.5,-75.6427 111.0001,-85.6427 118.0001,-85.6426"/>
</g>
<!-- Node3&#45;&gt;Node1 -->
<g id="edge4" class="edge">
<title>Node3&#45;&gt;Node1</title>
<path fill="none" stroke="#191970" d="M103.8746,-56.2455C94.9527,-48.0549 82.012,-36.1749 71.4808,-26.5069"/>
<polygon fill="#191970" stroke="#191970" points="73.7371,-23.8271 64.0036,-19.6427 69.0032,-28.9837 73.7371,-23.8271"/>
</g>
<!-- Node3&#45;&gt;Node4 -->
<g id="edge5" class="edge">
<title>Node3&#45;&gt;Node4</title>
<path fill="none" stroke="#191970" d="M127.2156,-56.2455C138.102,-47.8943 153.9883,-35.7076 166.72,-25.9408"/>
<polygon fill="#191970" stroke="#191970" points="169.1261,-28.5063 174.9301,-19.6427 164.8654,-22.9523 169.1261,-28.5063"/>
</g>
</g>
</svg>
