<?xml version="1.0" encoding="UTF-8" standalone="no"?>
<!DOCTYPE svg PUBLIC "-//W3C//DTD SVG 1.1//EN"
 "http://www.w3.org/Graphics/SVG/1.1/DTD/svg11.dtd">
<!-- Generated by graphviz version 2.40.1 (20161225.0304)
 -->
<!-- Title: atomic.h Pages: 1 -->
<svg width="1607pt" height="476pt"
 viewBox="0.00 0.00 1606.50 476.00" xmlns="http://www.w3.org/2000/svg" xmlns:xlink="http://www.w3.org/1999/xlink">
<g id="graph0" class="graph" transform="scale(1 1) rotate(0) translate(4 472)">
<title>atomic.h</title>
<polygon fill="#ffffff" stroke="transparent" points="-4,4 -4,-472 1602.5,-472 1602.5,4 -4,4"/>
<!-- Node5 -->
<g id="node1" class="node">
<title>Node5</title>
<polygon fill="#bfbfbf" stroke="#000000" points="511,-448.5 511,-467.5 565,-467.5 565,-448.5 511,-448.5"/>
<text text-anchor="middle" x="538" y="-455.5" font-family="Helvetica,sans-Serif" font-size="10.00" fill="#000000">atomic.h</text>
</g>
<!-- Node6 -->
<g id="node2" class="node">
<title>Node6</title>
<g id="a_node2"><a xlink:href="api_2abi-default_2barrier_8h.html" target="_top" xlink:title="ODP barrier. ">
<polygon fill="#ffffff" stroke="#000000" points="245,-392.5 245,-411.5 297,-411.5 297,-392.5 245,-392.5"/>
<text text-anchor="middle" x="271" y="-399.5" font-family="Helvetica,sans-Serif" font-size="10.00" fill="#000000">barrier.h</text>
</a>
</g>
</g>
<!-- Node5&#45;&gt;Node6 -->
<g id="edge1" class="edge">
<title>Node5&#45;&gt;Node6</title>
<path fill="none" stroke="#191970" d="M500.9545,-450.2302C446.2377,-438.754 345.1463,-417.5513 297.3508,-407.5268"/>
<polygon fill="#191970" stroke="#191970" points="500.4237,-453.6949 510.9293,-452.3222 501.8607,-446.844 500.4237,-453.6949"/>
</g>
<!-- Node14 -->
<g id="node10" class="node">
<title>Node14</title>
<g id="a_node10"><a xlink:href="api_2barrier_8h.html" target="_top" xlink:title="ODP execution barriers. ">
<polygon fill="#ffffff" stroke="#000000" points="458,-280.5 458,-299.5 510,-299.5 510,-280.5 458,-280.5"/>
<text text-anchor="middle" x="484" y="-287.5" font-family="Helvetica,sans-Serif" font-size="10.00" fill="#000000">barrier.h</text>
</a>
</g>
</g>
<!-- Node5&#45;&gt;Node14 -->
<g id="edge42" class="edge">
<title>Node5&#45;&gt;Node14</title>
<path fill="none" stroke="#191970" d="M531.805,-438.7267C520.2638,-402.8207 495.855,-326.8822 487.159,-299.8279"/>
<polygon fill="#191970" stroke="#191970" points="528.5497,-440.037 534.942,-448.4862 535.2139,-437.8949 528.5497,-440.037"/>
</g>
<!-- Node15 -->
<g id="node11" class="node">
<title>Node15</title>
<g id="a_node11"><a xlink:href="odp__api_8h.html" target="_top" xlink:title="The OpenDataPlane API. ">
<polygon fill="#ffffff" stroke="#000000" points="555.5,-56.5 555.5,-75.5 614.5,-75.5 614.5,-56.5 555.5,-56.5"/>
<text text-anchor="middle" x="585" y="-63.5" font-family="Helvetica,sans-Serif" font-size="10.00" fill="#000000">odp_api.h</text>
</a>
</g>
</g>
<!-- Node5&#45;&gt;Node15 -->
<g id="edge43" class="edge">
<title>Node5&#45;&gt;Node15</title>
<path fill="none" stroke="#191970" d="M538,-438.1952C538,-415.8128 538,-378.2884 538,-346 538,-346 538,-346 538,-178 538,-137.3018 564.7136,-94.3109 577.8617,-75.6161"/>
<polygon fill="#191970" stroke="#191970" points="534.5001,-438.4116 538,-448.4116 541.5001,-438.4117 534.5001,-438.4116"/>
</g>
<!-- Node17 -->
<g id="node13" class="node">
<title>Node17</title>
<g id="a_node13"><a xlink:href="api_2abi-default_2rwlock_8h.html" target="_top" xlink:title="ODP rwlock. ">
<polygon fill="#ffffff" stroke="#000000" points="743.5,-392.5 743.5,-411.5 796.5,-411.5 796.5,-392.5 743.5,-392.5"/>
<text text-anchor="middle" x="770" y="-399.5" font-family="Helvetica,sans-Serif" font-size="10.00" fill="#000000">rwlock.h</text>
</a>
</g>
</g>
<!-- Node5&#45;&gt;Node17 -->
<g id="edge12" class="edge">
<title>Node5&#45;&gt;Node17</title>
<path fill="none" stroke="#191970" d="M574.852,-449.1047C621.8638,-437.757 702.0295,-418.4067 743.4617,-408.4058"/>
<polygon fill="#191970" stroke="#191970" points="573.967,-445.7177 565.0674,-451.4665 575.6095,-452.5223 573.967,-445.7177"/>
</g>
<!-- Node35 -->
<g id="node31" class="node">
<title>Node35</title>
<g id="a_node31"><a xlink:href="api_2abi-default_2ticketlock_8h.html" target="_top" xlink:title="ODP ticketlock. ">
<polygon fill="#ffffff" stroke="#000000" points="1275.5,-392.5 1275.5,-411.5 1342.5,-411.5 1342.5,-392.5 1275.5,-392.5"/>
<text text-anchor="middle" x="1309" y="-399.5" font-family="Helvetica,sans-Serif" font-size="10.00" fill="#000000">ticketlock.h</text>
</a>
</g>
</g>
<!-- Node5&#45;&gt;Node35 -->
<g id="edge32" class="edge">
<title>Node5&#45;&gt;Node35</title>
<path fill="none" stroke="#191970" d="M575.462,-455.279C707.3594,-445.6989 1149.0796,-413.6155 1275.1457,-404.4589"/>
<polygon fill="#191970" stroke="#191970" points="575.1604,-451.7916 565.4403,-456.0069 575.6676,-458.7732 575.1604,-451.7916"/>
</g>
<!-- Node7 -->
<g id="node3" class="node">
<title>Node7</title>
<g id="a_node3"><a xlink:href="arch_2arm32-linux_2odp_2api_2abi_2barrier_8h_source.html" target="_top" xlink:title="barrier.h">
<polygon fill="#ffffff" stroke="#000000" points="0,-336.5 0,-355.5 52,-355.5 52,-336.5 0,-336.5"/>
<text text-anchor="middle" x="26" y="-343.5" font-family="Helvetica,sans-Serif" font-size="10.00" fill="#000000">barrier.h</text>
</a>
</g>
</g>
<!-- Node6&#45;&gt;Node7 -->
<g id="edge2" class="edge">
<title>Node6&#45;&gt;Node7</title>
<path fill="none" stroke="#191970" d="M234.6592,-394.7605C192.6614,-386.2275 121.5537,-371.2667 61,-356 58.1812,-355.2893 55.2454,-354.5112 52.3255,-353.7128"/>
<polygon fill="#191970" stroke="#191970" points="234.19,-398.2364 244.6853,-396.7877 235.5773,-391.3752 234.19,-398.2364"/>
</g>
<!-- Node8 -->
<g id="node4" class="node">
<title>Node8</title>
<g id="a_node4"><a xlink:href="arch_2arm64-linux_2odp_2api_2abi_2barrier_8h_source.html" target="_top" xlink:title="barrier.h">
<polygon fill="#ffffff" stroke="#000000" points="70,-336.5 70,-355.5 122,-355.5 122,-336.5 70,-336.5"/>
<text text-anchor="middle" x="96" y="-343.5" font-family="Helvetica,sans-Serif" font-size="10.00" fill="#000000">barrier.h</text>
</a>
</g>
</g>
<!-- Node6&#45;&gt;Node8 -->
<g id="edge3" class="edge">
<title>Node6&#45;&gt;Node8</title>
<path fill="none" stroke="#191970" d="M234.9143,-390.4526C201.3113,-379.6996 152.0307,-363.9298 122.0922,-354.3495"/>
<polygon fill="#191970" stroke="#191970" points="234.2097,-393.9019 244.8007,-393.6162 236.3432,-387.2349 234.2097,-393.9019"/>
</g>
<!-- Node9 -->
<g id="node5" class="node">
<title>Node9</title>
<g id="a_node5"><a xlink:href="arch_2default-linux_2odp_2api_2abi_2barrier_8h_source.html" target="_top" xlink:title="barrier.h">
<polygon fill="#ffffff" stroke="#000000" points="140,-336.5 140,-355.5 192,-355.5 192,-336.5 140,-336.5"/>
<text text-anchor="middle" x="166" y="-343.5" font-family="Helvetica,sans-Serif" font-size="10.00" fill="#000000">barrier.h</text>
</a>
</g>
</g>
<!-- Node6&#45;&gt;Node9 -->
<g id="edge4" class="edge">
<title>Node6&#45;&gt;Node9</title>
<path fill="none" stroke="#191970" d="M243.7375,-387.46C224.9478,-377.4388 200.4987,-364.3993 184.08,-355.6427"/>
<polygon fill="#191970" stroke="#191970" points="242.2398,-390.6278 252.7104,-392.2455 245.5339,-384.4514 242.2398,-390.6278"/>
</g>
<!-- Node10 -->
<g id="node6" class="node">
<title>Node10</title>
<g id="a_node6"><a xlink:href="arch_2mips64-linux_2odp_2api_2abi_2barrier_8h_source.html" target="_top" xlink:title="barrier.h">
<polygon fill="#ffffff" stroke="#000000" points="210,-336.5 210,-355.5 262,-355.5 262,-336.5 210,-336.5"/>
<text text-anchor="middle" x="236" y="-343.5" font-family="Helvetica,sans-Serif" font-size="10.00" fill="#000000">barrier.h</text>
</a>
</g>
</g>
<!-- Node6&#45;&gt;Node10 -->
<g id="edge5" class="edge">
<title>Node6&#45;&gt;Node10</title>
<path fill="none" stroke="#191970" d="M259.5185,-383.6296C253.6804,-374.2887 246.8248,-363.3197 242.0267,-355.6427"/>
<polygon fill="#191970" stroke="#191970" points="256.6354,-385.6206 264.9035,-392.2455 262.5714,-381.9105 256.6354,-385.6206"/>
</g>
<!-- Node11 -->
<g id="node7" class="node">
<title>Node11</title>
<g id="a_node7"><a xlink:href="arch_2power64-linux_2odp_2api_2abi_2barrier_8h_source.html" target="_top" xlink:title="barrier.h">
<polygon fill="#ffffff" stroke="#000000" points="280,-336.5 280,-355.5 332,-355.5 332,-336.5 280,-336.5"/>
<text text-anchor="middle" x="306" y="-343.5" font-family="Helvetica,sans-Serif" font-size="10.00" fill="#000000">barrier.h</text>
</a>
</g>
</g>
<!-- Node6&#45;&gt;Node11 -->
<g id="edge6" class="edge">
<title>Node6&#45;&gt;Node11</title>
<path fill="none" stroke="#191970" d="M282.4815,-383.6296C288.3196,-374.2887 295.1752,-363.3197 299.9733,-355.6427"/>
<polygon fill="#191970" stroke="#191970" points="279.4286,-381.9105 277.0965,-392.2455 285.3646,-385.6206 279.4286,-381.9105"/>
</g>
<!-- Node12 -->
<g id="node8" class="node">
<title>Node12</title>
<g id="a_node8"><a xlink:href="arch_2x86__32-linux_2odp_2api_2abi_2barrier_8h_source.html" target="_top" xlink:title="barrier.h">
<polygon fill="#ffffff" stroke="#000000" points="350,-336.5 350,-355.5 402,-355.5 402,-336.5 350,-336.5"/>
<text text-anchor="middle" x="376" y="-343.5" font-family="Helvetica,sans-Serif" font-size="10.00" fill="#000000">barrier.h</text>
</a>
</g>
</g>
<!-- Node6&#45;&gt;Node12 -->
<g id="edge7" class="edge">
<title>Node6&#45;&gt;Node12</title>
<path fill="none" stroke="#191970" d="M298.2625,-387.46C317.0522,-377.4388 341.5013,-364.3993 357.92,-355.6427"/>
<polygon fill="#191970" stroke="#191970" points="296.4661,-384.4514 289.2896,-392.2455 299.7602,-390.6278 296.4661,-384.4514"/>
</g>
<!-- Node13 -->
<g id="node9" class="node">
<title>Node13</title>
<g id="a_node9"><a xlink:href="arch_2x86__64-linux_2odp_2api_2abi_2barrier_8h_source.html" target="_top" xlink:title="barrier.h">
<polygon fill="#ffffff" stroke="#000000" points="420,-336.5 420,-355.5 472,-355.5 472,-336.5 420,-336.5"/>
<text text-anchor="middle" x="446" y="-343.5" font-family="Helvetica,sans-Serif" font-size="10.00" fill="#000000">barrier.h</text>
</a>
</g>
</g>
<!-- Node6&#45;&gt;Node13 -->
<g id="edge8" class="edge">
<title>Node6&#45;&gt;Node13</title>
<path fill="none" stroke="#191970" d="M307.0857,-390.4526C340.6887,-379.6996 389.9693,-363.9298 419.9078,-354.3495"/>
<polygon fill="#191970" stroke="#191970" points="305.6568,-387.2349 297.1993,-393.6162 307.7903,-393.9019 305.6568,-387.2349"/>
</g>
<!-- Node13&#45;&gt;Node14 -->
<g id="edge9" class="edge">
<title>Node13&#45;&gt;Node14</title>
<path fill="none" stroke="#191970" d="M458.2679,-327.9209C464.6488,-318.5176 472.1931,-307.3997 477.4568,-299.6427"/>
<polygon fill="#191970" stroke="#191970" points="455.338,-326.0055 452.6191,-336.2455 461.1303,-329.936 455.338,-326.0055"/>
</g>
<!-- Node14&#45;&gt;Node15 -->
<g id="edge10" class="edge">
<title>Node14&#45;&gt;Node15</title>
<path fill="none" stroke="#191970" d="M484.1235,-269.9605C485.2352,-235.099 491.6083,-162.2186 524,-112 534.2811,-96.0607 552.1099,-83.5753 565.8463,-75.6587"/>
<polygon fill="#191970" stroke="#191970" points="480.6187,-270.1701 483.9181,-280.238 487.6173,-270.3099 480.6187,-270.1701"/>
</g>
<!-- Node16 -->
<g id="node12" class="node">
<title>Node16</title>
<g id="a_node12"><a xlink:href="odp_8h.html" target="_top" xlink:title="WARNING: THIS FILE IS DEPRECATED AND WILL BE REMOVED!!! ODP APPLICATIONS SHOULD NOW INCLUDE odp_api...">
<polygon fill="#ffffff" stroke="#000000" points="564.5,-.5 564.5,-19.5 605.5,-19.5 605.5,-.5 564.5,-.5"/>
<text text-anchor="middle" x="585" y="-7.5" font-family="Helvetica,sans-Serif" font-size="10.00" fill="#000000">odp.h</text>
</a>
</g>
</g>
<!-- Node15&#45;&gt;Node16 -->
<g id="edge11" class="edge">
<title>Node15&#45;&gt;Node16</title>
<path fill="none" stroke="#191970" d="M585,-46.1575C585,-37.155 585,-26.9199 585,-19.6427"/>
<polygon fill="#191970" stroke="#191970" points="581.5001,-46.2455 585,-56.2455 588.5001,-46.2456 581.5001,-46.2455"/>
</g>
<!-- Node18 -->
<g id="node14" class="node">
<title>Node18</title>
<g id="a_node14"><a xlink:href="arch_2arm32-linux_2odp_2api_2abi_2rwlock_8h_source.html" target="_top" xlink:title="rwlock.h">
<polygon fill="#ffffff" stroke="#000000" points="566.5,-336.5 566.5,-355.5 619.5,-355.5 619.5,-336.5 566.5,-336.5"/>
<text text-anchor="middle" x="593" y="-343.5" font-family="Helvetica,sans-Serif" font-size="10.00" fill="#000000">rwlock.h</text>
</a>
</g>
</g>
<!-- Node17&#45;&gt;Node18 -->
<g id="edge13" class="edge">
<title>Node17&#45;&gt;Node18</title>
<path fill="none" stroke="#191970" d="M733.5676,-390.4734C699.6408,-379.7395 649.8716,-363.9933 619.5555,-354.4017"/>
<polygon fill="#191970" stroke="#191970" points="732.5275,-393.8152 743.1175,-393.4948 734.6391,-387.1413 732.5275,-393.8152"/>
</g>
<!-- Node19 -->
<g id="node15" class="node">
<title>Node19</title>
<g id="a_node15"><a xlink:href="arch_2arm64-linux_2odp_2api_2abi_2rwlock_8h_source.html" target="_top" xlink:title="rwlock.h">
<polygon fill="#ffffff" stroke="#000000" points="637.5,-336.5 637.5,-355.5 690.5,-355.5 690.5,-336.5 637.5,-336.5"/>
<text text-anchor="middle" x="664" y="-343.5" font-family="Helvetica,sans-Serif" font-size="10.00" fill="#000000">rwlock.h</text>
</a>
</g>
</g>
<!-- Node17&#45;&gt;Node19 -->
<g id="edge14" class="edge">
<title>Node17&#45;&gt;Node19</title>
<path fill="none" stroke="#191970" d="M742.4778,-387.46C723.5092,-377.4388 698.8273,-364.3993 682.2522,-355.6427"/>
<polygon fill="#191970" stroke="#191970" points="741.0593,-390.669 751.5362,-392.2455 744.3292,-384.4796 741.0593,-390.669"/>
</g>
<!-- Node20 -->
<g id="node16" class="node">
<title>Node20</title>
<g id="a_node16"><a xlink:href="arch_2default-linux_2odp_2api_2abi_2rwlock_8h_source.html" target="_top" xlink:title="rwlock.h">
<polygon fill="#ffffff" stroke="#000000" points="708.5,-336.5 708.5,-355.5 761.5,-355.5 761.5,-336.5 708.5,-336.5"/>
<text text-anchor="middle" x="735" y="-343.5" font-family="Helvetica,sans-Serif" font-size="10.00" fill="#000000">rwlock.h</text>
</a>
</g>
</g>
<!-- Node17&#45;&gt;Node20 -->
<g id="edge15" class="edge">
<title>Node17&#45;&gt;Node20</title>
<path fill="none" stroke="#191970" d="M758.5185,-383.6296C752.6804,-374.2887 745.8248,-363.3197 741.0267,-355.6427"/>
<polygon fill="#191970" stroke="#191970" points="755.6354,-385.6206 763.9035,-392.2455 761.5714,-381.9105 755.6354,-385.6206"/>
</g>
<!-- Node21 -->
<g id="node17" class="node">
<title>Node21</title>
<g id="a_node17"><a xlink:href="arch_2mips64-linux_2odp_2api_2abi_2rwlock_8h_source.html" target="_top" xlink:title="rwlock.h">
<polygon fill="#ffffff" stroke="#000000" points="779.5,-336.5 779.5,-355.5 832.5,-355.5 832.5,-336.5 779.5,-336.5"/>
<text text-anchor="middle" x="806" y="-343.5" font-family="Helvetica,sans-Serif" font-size="10.00" fill="#000000">rwlock.h</text>
</a>
</g>
</g>
<!-- Node17&#45;&gt;Node21 -->
<g id="edge16" class="edge">
<title>Node17&#45;&gt;Node21</title>
<path fill="none" stroke="#191970" d="M781.8096,-383.6296C787.8144,-374.2887 794.8659,-363.3197 799.8011,-355.6427"/>
<polygon fill="#191970" stroke="#191970" points="778.7342,-381.9411 776.2707,-392.2455 784.6225,-385.7264 778.7342,-381.9411"/>
</g>
<!-- Node22 -->
<g id="node18" class="node">
<title>Node22</title>
<g id="a_node18"><a xlink:href="arch_2power64-linux_2odp_2api_2abi_2rwlock_8h_source.html" target="_top" xlink:title="rwlock.h">
<polygon fill="#ffffff" stroke="#000000" points="850.5,-336.5 850.5,-355.5 903.5,-355.5 903.5,-336.5 850.5,-336.5"/>
<text text-anchor="middle" x="877" y="-343.5" font-family="Helvetica,sans-Serif" font-size="10.00" fill="#000000">rwlock.h</text>
</a>
</g>
</g>
<!-- Node17&#45;&gt;Node22 -->
<g id="edge17" class="edge">
<title>Node17&#45;&gt;Node22</title>
<path fill="none" stroke="#191970" d="M797.5199,-387.5971C816.7017,-377.558 841.7678,-364.4393 858.5756,-355.6427"/>
<polygon fill="#191970" stroke="#191970" points="795.875,-384.5075 788.638,-392.2455 799.1209,-390.7095 795.875,-384.5075"/>
</g>
<!-- Node23 -->
<g id="node19" class="node">
<title>Node23</title>
<g id="a_node19"><a xlink:href="arch_2x86__32-linux_2odp_2api_2abi_2rwlock_8h_source.html" target="_top" xlink:title="rwlock.h">
<polygon fill="#ffffff" stroke="#000000" points="921.5,-336.5 921.5,-355.5 974.5,-355.5 974.5,-336.5 921.5,-336.5"/>
<text text-anchor="middle" x="948" y="-343.5" font-family="Helvetica,sans-Serif" font-size="10.00" fill="#000000">rwlock.h</text>
</a>
</g>
</g>
<!-- Node17&#45;&gt;Node23 -->
<g id="edge18" class="edge">
<title>Node17&#45;&gt;Node23</title>
<path fill="none" stroke="#191970" d="M806.2632,-390.5913C840.4508,-379.8357 890.8775,-363.9711 921.4605,-354.3495"/>
<polygon fill="#191970" stroke="#191970" points="805.1371,-387.2764 796.6484,-393.6162 807.2379,-393.9538 805.1371,-387.2764"/>
</g>
<!-- Node24 -->
<g id="node20" class="node">
<title>Node24</title>
<g id="a_node20"><a xlink:href="arch_2x86__64-linux_2odp_2api_2abi_2rwlock_8h_source.html" target="_top" xlink:title="rwlock.h">
<polygon fill="#ffffff" stroke="#000000" points="992.5,-336.5 992.5,-355.5 1045.5,-355.5 1045.5,-336.5 992.5,-336.5"/>
<text text-anchor="middle" x="1019" y="-343.5" font-family="Helvetica,sans-Serif" font-size="10.00" fill="#000000">rwlock.h</text>
</a>
</g>
</g>
<!-- Node17&#45;&gt;Node24 -->
<g id="edge19" class="edge">
<title>Node17&#45;&gt;Node24</title>
<path fill="none" stroke="#191970" d="M806.7693,-394.8709C849.539,-386.3994 922.1843,-371.4564 984,-356 986.6976,-355.3255 989.5018,-354.5875 992.2963,-353.8276"/>
<polygon fill="#191970" stroke="#191970" points="805.9566,-391.4636 796.822,-396.831 807.31,-398.3315 805.9566,-391.4636"/>
</g>
<!-- Node25 -->
<g id="node21" class="node">
<title>Node25</title>
<g id="a_node21"><a xlink:href="api_2rwlock_8h.html" target="_top" xlink:title="ODP RW Locks. ">
<polygon fill="#ffffff" stroke="#000000" points="983.5,-280.5 983.5,-299.5 1036.5,-299.5 1036.5,-280.5 983.5,-280.5"/>
<text text-anchor="middle" x="1010" y="-287.5" font-family="Helvetica,sans-Serif" font-size="10.00" fill="#000000">rwlock.h</text>
</a>
</g>
</g>
<!-- Node24&#45;&gt;Node25 -->
<g id="edge20" class="edge">
<title>Node24&#45;&gt;Node25</title>
<path fill="none" stroke="#191970" d="M1015.811,-326.1575C1014.3642,-317.155 1012.7193,-306.9199 1011.5497,-299.6427"/>
<polygon fill="#191970" stroke="#191970" points="1012.3898,-326.9276 1017.4323,-336.2455 1019.3011,-325.8168 1012.3898,-326.9276"/>
</g>
<!-- Node25&#45;&gt;Node15 -->
<g id="edge31" class="edge">
<title>Node25&#45;&gt;Node15</title>
<path fill="none" stroke="#191970" d="M973.2756,-285.9274C883.0215,-275.1473 654.0615,-242.873 604,-188 574.8165,-156.0116 579.8584,-98.5453 583.284,-75.725"/>
<polygon fill="#191970" stroke="#191970" points="972.9842,-289.4172 983.324,-287.1069 973.8003,-282.4649 972.9842,-289.4172"/>
</g>
<!-- Node26 -->
<g id="node22" class="node">
<title>Node26</title>
<g id="a_node22"><a xlink:href="api_2abi-default_2rwlock__recursive_8h.html" target="_top" xlink:title="ODP recursive read/write lock. ">
<polygon fill="#ffffff" stroke="#000000" points="961,-224.5 961,-243.5 1059,-243.5 1059,-224.5 961,-224.5"/>
<text text-anchor="middle" x="1010" y="-231.5" font-family="Helvetica,sans-Serif" font-size="10.00" fill="#000000">rwlock_recursive.h</text>
</a>
</g>
</g>
<!-- Node25&#45;&gt;Node26 -->
<g id="edge21" class="edge">
<title>Node25&#45;&gt;Node26</title>
<path fill="none" stroke="#191970" d="M1010,-270.1575C1010,-261.155 1010,-250.9199 1010,-243.6427"/>
<polygon fill="#191970" stroke="#191970" points="1006.5001,-270.2455 1010,-280.2455 1013.5001,-270.2456 1006.5001,-270.2455"/>
</g>
<!-- Node27 -->
<g id="node23" class="node">
<title>Node27</title>
<g id="a_node23"><a xlink:href="arch_2arm32-linux_2odp_2api_2abi_2rwlock__recursive_8h_source.html" target="_top" xlink:title="rwlock_recursive.h">
<polygon fill="#ffffff" stroke="#000000" points="613,-168.5 613,-187.5 711,-187.5 711,-168.5 613,-168.5"/>
<text text-anchor="middle" x="662" y="-175.5" font-family="Helvetica,sans-Serif" font-size="10.00" fill="#000000">rwlock_recursive.h</text>
</a>
</g>
</g>
<!-- Node26&#45;&gt;Node27 -->
<g id="edge22" class="edge">
<title>Node26&#45;&gt;Node27</title>
<path fill="none" stroke="#191970" d="M950.7779,-224.8444C892.1427,-215.7233 799.8243,-201.2117 720,-188 717.0765,-187.5161 714.0711,-187.0136 711.0399,-186.5028"/>
<polygon fill="#191970" stroke="#191970" points="950.5463,-228.3503 960.9652,-226.4275 951.6213,-221.4333 950.5463,-228.3503"/>
</g>
<!-- Node28 -->
<g id="node24" class="node">
<title>Node28</title>
<g id="a_node24"><a xlink:href="arch_2arm64-linux_2odp_2api_2abi_2rwlock__recursive_8h_source.html" target="_top" xlink:title="rwlock_recursive.h">
<polygon fill="#ffffff" stroke="#000000" points="729,-168.5 729,-187.5 827,-187.5 827,-168.5 729,-168.5"/>
<text text-anchor="middle" x="778" y="-175.5" font-family="Helvetica,sans-Serif" font-size="10.00" fill="#000000">rwlock_recursive.h</text>
</a>
</g>
</g>
<!-- Node26&#45;&gt;Node28 -->
<g id="edge23" class="edge">
<title>Node26&#45;&gt;Node28</title>
<path fill="none" stroke="#191970" d="M960.4816,-222.0473C917.7803,-211.7401 856.9345,-197.0532 817.4552,-187.5237"/>
<polygon fill="#191970" stroke="#191970" points="959.8393,-225.4927 970.3814,-224.4369 961.4818,-218.6881 959.8393,-225.4927"/>
</g>
<!-- Node29 -->
<g id="node25" class="node">
<title>Node29</title>
<g id="a_node25"><a xlink:href="arch_2default-linux_2odp_2api_2abi_2rwlock__recursive_8h_source.html" target="_top" xlink:title="rwlock_recursive.h">
<polygon fill="#ffffff" stroke="#000000" points="845,-168.5 845,-187.5 943,-187.5 943,-168.5 845,-168.5"/>
<text text-anchor="middle" x="894" y="-175.5" font-family="Helvetica,sans-Serif" font-size="10.00" fill="#000000">rwlock_recursive.h</text>
</a>
</g>
</g>
<!-- Node26&#45;&gt;Node29 -->
<g id="edge24" class="edge">
<title>Node26&#45;&gt;Node29</title>
<path fill="none" stroke="#191970" d="M980.9463,-219.9741C959.9435,-209.8348 932.1309,-196.408 913.6809,-187.5011"/>
<polygon fill="#191970" stroke="#191970" points="979.5317,-223.1776 990.0589,-224.3733 982.575,-216.8738 979.5317,-223.1776"/>
</g>
<!-- Node30 -->
<g id="node26" class="node">
<title>Node30</title>
<g id="a_node26"><a xlink:href="arch_2mips64-linux_2odp_2api_2abi_2rwlock__recursive_8h_source.html" target="_top" xlink:title="rwlock_recursive.h">
<polygon fill="#ffffff" stroke="#000000" points="961,-168.5 961,-187.5 1059,-187.5 1059,-168.5 961,-168.5"/>
<text text-anchor="middle" x="1010" y="-175.5" font-family="Helvetica,sans-Serif" font-size="10.00" fill="#000000">rwlock_recursive.h</text>
</a>
</g>
</g>
<!-- Node26&#45;&gt;Node30 -->
<g id="edge25" class="edge">
<title>Node26&#45;&gt;Node30</title>
<path fill="none" stroke="#191970" d="M1010,-214.1575C1010,-205.155 1010,-194.9199 1010,-187.6427"/>
<polygon fill="#191970" stroke="#191970" points="1006.5001,-214.2455 1010,-224.2455 1013.5001,-214.2456 1006.5001,-214.2455"/>
</g>
<!-- Node31 -->
<g id="node27" class="node">
<title>Node31</title>
<g id="a_node27"><a xlink:href="arch_2power64-linux_2odp_2api_2abi_2rwlock__recursive_8h_source.html" target="_top" xlink:title="rwlock_recursive.h">
<polygon fill="#ffffff" stroke="#000000" points="1077,-168.5 1077,-187.5 1175,-187.5 1175,-168.5 1077,-168.5"/>
<text text-anchor="middle" x="1126" y="-175.5" font-family="Helvetica,sans-Serif" font-size="10.00" fill="#000000">rwlock_recursive.h</text>
</a>
</g>
</g>
<!-- Node26&#45;&gt;Node31 -->
<g id="edge26" class="edge">
<title>Node26&#45;&gt;Node31</title>
<path fill="none" stroke="#191970" d="M1039.0537,-219.9741C1060.0565,-209.8348 1087.8691,-196.408 1106.3191,-187.5011"/>
<polygon fill="#191970" stroke="#191970" points="1037.425,-216.8738 1029.9411,-224.3733 1040.4683,-223.1776 1037.425,-216.8738"/>
</g>
<!-- Node32 -->
<g id="node28" class="node">
<title>Node32</title>
<g id="a_node28"><a xlink:href="arch_2x86__32-linux_2odp_2api_2abi_2rwlock__recursive_8h_source.html" target="_top" xlink:title="rwlock_recursive.h">
<polygon fill="#ffffff" stroke="#000000" points="1193,-168.5 1193,-187.5 1291,-187.5 1291,-168.5 1193,-168.5"/>
<text text-anchor="middle" x="1242" y="-175.5" font-family="Helvetica,sans-Serif" font-size="10.00" fill="#000000">rwlock_recursive.h</text>
</a>
</g>
</g>
<!-- Node26&#45;&gt;Node32 -->
<g id="edge27" class="edge">
<title>Node26&#45;&gt;Node32</title>
<path fill="none" stroke="#191970" d="M1059.5184,-222.0473C1102.2197,-211.7401 1163.0655,-197.0532 1202.5448,-187.5237"/>
<polygon fill="#191970" stroke="#191970" points="1058.5182,-218.6881 1049.6186,-224.4369 1060.1607,-225.4927 1058.5182,-218.6881"/>
</g>
<!-- Node33 -->
<g id="node29" class="node">
<title>Node33</title>
<g id="a_node29"><a xlink:href="arch_2x86__64-linux_2odp_2api_2abi_2rwlock__recursive_8h_source.html" target="_top" xlink:title="rwlock_recursive.h">
<polygon fill="#ffffff" stroke="#000000" points="1309,-168.5 1309,-187.5 1407,-187.5 1407,-168.5 1309,-168.5"/>
<text text-anchor="middle" x="1358" y="-175.5" font-family="Helvetica,sans-Serif" font-size="10.00" fill="#000000">rwlock_recursive.h</text>
</a>
</g>
</g>
<!-- Node26&#45;&gt;Node33 -->
<g id="edge28" class="edge">
<title>Node26&#45;&gt;Node33</title>
<path fill="none" stroke="#191970" d="M1069.2221,-224.8444C1127.8573,-215.7233 1220.1757,-201.2117 1300,-188 1302.9235,-187.5161 1305.9289,-187.0136 1308.9601,-186.5028"/>
<polygon fill="#191970" stroke="#191970" points="1068.3787,-221.4333 1059.0348,-226.4275 1069.4537,-228.3503 1068.3787,-221.4333"/>
</g>
<!-- Node34 -->
<g id="node30" class="node">
<title>Node34</title>
<g id="a_node30"><a xlink:href="api_2rwlock__recursive_8h.html" target="_top" xlink:title="ODP resursive read/write lock. ">
<polygon fill="#ffffff" stroke="#000000" points="1035,-112.5 1035,-131.5 1133,-131.5 1133,-112.5 1035,-112.5"/>
<text text-anchor="middle" x="1084" y="-119.5" font-family="Helvetica,sans-Serif" font-size="10.00" fill="#000000">rwlock_recursive.h</text>
</a>
</g>
</g>
<!-- Node33&#45;&gt;Node34 -->
<g id="edge29" class="edge">
<title>Node33&#45;&gt;Node34</title>
<path fill="none" stroke="#191970" d="M1301.1058,-166.372C1250.6042,-156.0505 1177.7163,-141.1537 1130.598,-131.5237"/>
<polygon fill="#191970" stroke="#191970" points="1300.7107,-169.8635 1311.209,-168.4369 1302.1124,-163.0053 1300.7107,-169.8635"/>
</g>
<!-- Node34&#45;&gt;Node15 -->
<g id="edge30" class="edge">
<title>Node34&#45;&gt;Node15</title>
<path fill="none" stroke="#191970" d="M1024.7749,-115.3535C917.4872,-103.3132 694.6717,-78.3078 614.5229,-69.3132"/>
<polygon fill="#191970" stroke="#191970" points="1024.4603,-118.8401 1034.7883,-116.4772 1025.2411,-111.8837 1024.4603,-118.8401"/>
</g>
<!-- Node36 -->
<g id="node32" class="node">
<title>Node36</title>
<g id="a_node32"><a xlink:href="arch_2arm32-linux_2odp_2api_2abi_2ticketlock_8h_source.html" target="_top" xlink:title="ticketlock.h">
<polygon fill="#ffffff" stroke="#000000" points="1063.5,-336.5 1063.5,-355.5 1130.5,-355.5 1130.5,-336.5 1063.5,-336.5"/>
<text text-anchor="middle" x="1097" y="-343.5" font-family="Helvetica,sans-Serif" font-size="10.00" fill="#000000">ticketlock.h</text>
</a>
</g>
</g>
<!-- Node35&#45;&gt;Node36 -->
<g id="edge33" class="edge">
<title>Node35&#45;&gt;Node36</title>
<path fill="none" stroke="#191970" d="M1265.6836,-390.5579C1225.7696,-380.0146 1167.35,-364.583 1130.7852,-354.9244"/>
<polygon fill="#191970" stroke="#191970" points="1264.8457,-393.9566 1275.408,-393.1266 1266.6335,-387.1887 1264.8457,-393.9566"/>
</g>
<!-- Node37 -->
<g id="node33" class="node">
<title>Node37</title>
<g id="a_node33"><a xlink:href="arch_2arm64-linux_2odp_2api_2abi_2ticketlock_8h_source.html" target="_top" xlink:title="ticketlock.h">
<polygon fill="#ffffff" stroke="#000000" points="1148.5,-336.5 1148.5,-355.5 1215.5,-355.5 1215.5,-336.5 1148.5,-336.5"/>
<text text-anchor="middle" x="1182" y="-343.5" font-family="Helvetica,sans-Serif" font-size="10.00" fill="#000000">ticketlock.h</text>
</a>
</g>
</g>
<!-- Node35&#45;&gt;Node37 -->
<g id="edge34" class="edge">
<title>Node35&#45;&gt;Node37</title>
<path fill="none" stroke="#191970" d="M1277.8108,-388.2473C1254.7463,-378.0771 1223.9288,-364.4883 1203.5472,-355.5011"/>
<polygon fill="#191970" stroke="#191970" points="1276.6058,-391.5411 1287.1679,-392.3733 1279.4301,-385.1361 1276.6058,-391.5411"/>
</g>
<!-- Node38 -->
<g id="node34" class="node">
<title>Node38</title>
<g id="a_node34"><a xlink:href="arch_2default-linux_2odp_2api_2abi_2ticketlock_8h_source.html" target="_top" xlink:title="ticketlock.h">
<polygon fill="#ffffff" stroke="#000000" points="1233.5,-336.5 1233.5,-355.5 1300.5,-355.5 1300.5,-336.5 1233.5,-336.5"/>
<text text-anchor="middle" x="1267" y="-343.5" font-family="Helvetica,sans-Serif" font-size="10.00" fill="#000000">ticketlock.h</text>
</a>
</g>
</g>
<!-- Node35&#45;&gt;Node38 -->
<g id="edge35" class="edge">
<title>Node35&#45;&gt;Node38</title>
<path fill="none" stroke="#191970" d="M1295.6584,-384.2112C1288.5604,-374.7472 1280.1097,-363.4797 1274.232,-355.6427"/>
<polygon fill="#191970" stroke="#191970" points="1292.8841,-386.3455 1301.6842,-392.2455 1298.4841,-382.1455 1292.8841,-386.3455"/>
</g>
<!-- Node39 -->
<g id="node35" class="node">
<title>Node39</title>
<g id="a_node35"><a xlink:href="arch_2mips64-linux_2odp_2api_2abi_2ticketlock_8h_source.html" target="_top" xlink:title="ticketlock.h">
<polygon fill="#ffffff" stroke="#000000" points="1318.5,-336.5 1318.5,-355.5 1385.5,-355.5 1385.5,-336.5 1318.5,-336.5"/>
<text text-anchor="middle" x="1352" y="-343.5" font-family="Helvetica,sans-Serif" font-size="10.00" fill="#000000">ticketlock.h</text>
</a>
</g>
</g>
<!-- Node35&#45;&gt;Node39 -->
<g id="edge36" class="edge">
<title>Node35&#45;&gt;Node39</title>
<path fill="none" stroke="#191970" d="M1322.6592,-384.2112C1329.9263,-374.7472 1338.5781,-363.4797 1344.5958,-355.6427"/>
<polygon fill="#191970" stroke="#191970" points="1319.8043,-382.1824 1316.49,-392.2455 1325.3564,-386.4456 1319.8043,-382.1824"/>
</g>
<!-- Node40 -->
<g id="node36" class="node">
<title>Node40</title>
<g id="a_node36"><a xlink:href="arch_2power64-linux_2odp_2api_2abi_2ticketlock_8h_source.html" target="_top" xlink:title="ticketlock.h">
<polygon fill="#ffffff" stroke="#000000" points="1403.5,-336.5 1403.5,-355.5 1470.5,-355.5 1470.5,-336.5 1403.5,-336.5"/>
<text text-anchor="middle" x="1437" y="-343.5" font-family="Helvetica,sans-Serif" font-size="10.00" fill="#000000">ticketlock.h</text>
</a>
</g>
</g>
<!-- Node35&#45;&gt;Node40 -->
<g id="edge37" class="edge">
<title>Node35&#45;&gt;Node40</title>
<path fill="none" stroke="#191970" d="M1340.4348,-388.2473C1363.6809,-378.0771 1394.7411,-364.4883 1415.2831,-355.5011"/>
<polygon fill="#191970" stroke="#191970" points="1338.7627,-385.1585 1331.004,-392.3733 1341.5685,-391.5716 1338.7627,-385.1585"/>
</g>
<!-- Node41 -->
<g id="node37" class="node">
<title>Node41</title>
<g id="a_node37"><a xlink:href="arch_2x86__32-linux_2odp_2api_2abi_2ticketlock_8h_source.html" target="_top" xlink:title="ticketlock.h">
<polygon fill="#ffffff" stroke="#000000" points="1488.5,-336.5 1488.5,-355.5 1555.5,-355.5 1555.5,-336.5 1488.5,-336.5"/>
<text text-anchor="middle" x="1522" y="-343.5" font-family="Helvetica,sans-Serif" font-size="10.00" fill="#000000">ticketlock.h</text>
</a>
</g>
</g>
<!-- Node35&#45;&gt;Node41 -->
<g id="edge38" class="edge">
<title>Node35&#45;&gt;Node41</title>
<path fill="none" stroke="#191970" d="M1352.5508,-390.55C1392.7807,-379.9732 1451.7032,-364.4818 1488.4074,-354.8319"/>
<polygon fill="#191970" stroke="#191970" points="1351.5318,-387.1989 1342.7505,-393.1266 1353.3118,-393.9688 1351.5318,-387.1989"/>
</g>
<!-- Node42 -->
<g id="node38" class="node">
<title>Node42</title>
<g id="a_node38"><a xlink:href="arch_2x86__64-linux_2odp_2api_2abi_2ticketlock_8h_source.html" target="_top" xlink:title="ticketlock.h">
<polygon fill="#ffffff" stroke="#000000" points="1531.5,-280.5 1531.5,-299.5 1598.5,-299.5 1598.5,-280.5 1531.5,-280.5"/>
<text text-anchor="middle" x="1565" y="-287.5" font-family="Helvetica,sans-Serif" font-size="10.00" fill="#000000">ticketlock.h</text>
</a>
</g>
</g>
<!-- Node35&#45;&gt;Node42 -->
<g id="edge39" class="edge">
<title>Node35&#45;&gt;Node42</title>
<path fill="none" stroke="#191970" d="M1352.896,-400.6535C1418.8061,-397.6034 1538.4641,-387.7291 1565,-356 1578.2317,-340.1788 1572.8563,-313.9767 1568.4985,-299.8137"/>
<polygon fill="#191970" stroke="#191970" points="1352.6424,-397.1611 1342.8017,-401.0867 1352.9427,-404.1546 1352.6424,-397.1611"/>
</g>
<!-- Node43 -->
<g id="node39" class="node">
<title>Node43</title>
<g id="a_node39"><a xlink:href="api_2ticketlock_8h.html" target="_top" xlink:title="ODP ticketlock. ">
<polygon fill="#ffffff" stroke="#000000" points="1512.5,-224.5 1512.5,-243.5 1579.5,-243.5 1579.5,-224.5 1512.5,-224.5"/>
<text text-anchor="middle" x="1546" y="-231.5" font-family="Helvetica,sans-Serif" font-size="10.00" fill="#000000">ticketlock.h</text>
</a>
</g>
</g>
<!-- Node42&#45;&gt;Node43 -->
<g id="edge40" class="edge">
<title>Node42&#45;&gt;Node43</title>
<path fill="none" stroke="#191970" d="M1558.4685,-270.7493C1555.3664,-261.6064 1551.7949,-251.0798 1549.2716,-243.6427"/>
<polygon fill="#191970" stroke="#191970" points="1555.163,-271.9003 1561.6905,-280.2455 1561.7918,-269.6512 1555.163,-271.9003"/>
</g>
<!-- Node43&#45;&gt;Node15 -->
<g id="edge41" class="edge">
<title>Node43&#45;&gt;Node15</title>
<path fill="none" stroke="#191970" d="M1521.9933,-219.3288C1496.539,-204.3761 1454.7383,-181.5157 1416,-168 1298.6427,-127.0543 1265.0441,-129.5907 1142,-112 941.7275,-83.3685 698.2031,-70.8617 614.7277,-67.2062"/>
<polygon fill="#191970" stroke="#191970" points="1520.2123,-222.3418 1530.5957,-224.448 1523.792,-216.3263 1520.2123,-222.3418"/>
</g>
</g>
</svg>
