<?xml version="1.0" encoding="UTF-8" standalone="no"?>
<!DOCTYPE svg PUBLIC "-//W3C//DTD SVG 1.1//EN"
 "http://www.w3.org/Graphics/SVG/1.1/DTD/svg11.dtd">
<!-- Generated by graphviz version 2.40.1 (20161225.0304)
 -->
<!-- Title: byteorder.h Pages: 1 -->
<svg width="571pt" height="252pt"
 viewBox="0.00 0.00 571.00 252.00" xmlns="http://www.w3.org/2000/svg" xmlns:xlink="http://www.w3.org/1999/xlink">
<g id="graph0" class="graph" transform="scale(1 1) rotate(0) translate(4 248)">
<title>byteorder.h</title>
<polygon fill="#ffffff" stroke="transparent" points="-4,4 -4,-248 567,-248 567,4 -4,4"/>
<!-- Node10 -->
<g id="node1" class="node">
<title>Node10</title>
<polygon fill="#bfbfbf" stroke="#000000" points="249,-224.5 249,-243.5 314,-243.5 314,-224.5 249,-224.5"/>
<text text-anchor="middle" x="281.5" y="-231.5" font-family="Helvetica,sans-Serif" font-size="10.00" fill="#000000">byteorder.h</text>
</g>
<!-- Node11 -->
<g id="node2" class="node">
<title>Node11</title>
<g id="a_node2"><a xlink:href="arch_2arm32-linux_2odp_2api_2abi_2byteorder_8h_source.html" target="_top" xlink:title="byteorder.h">
<polygon fill="#ffffff" stroke="#000000" points="0,-168.5 0,-187.5 65,-187.5 65,-168.5 0,-168.5"/>
<text text-anchor="middle" x="32.5" y="-175.5" font-family="Helvetica,sans-Serif" font-size="10.00" fill="#000000">byteorder.h</text>
</a>
</g>
</g>
<!-- Node10&#45;&gt;Node11 -->
<g id="edge1" class="edge">
<title>Node10&#45;&gt;Node11</title>
<path fill="none" stroke="#191970" d="M238.9877,-224.749C197.112,-215.5904 131.3411,-201.0817 74.5,-188 71.4321,-187.2939 68.2403,-186.5504 65.048,-185.8007"/>
<polygon fill="#191970" stroke="#191970" points="238.3236,-228.1864 248.8402,-226.9016 239.8177,-221.3478 238.3236,-228.1864"/>
</g>
<!-- Node12 -->
<g id="node3" class="node">
<title>Node12</title>
<g id="a_node3"><a xlink:href="arch_2arm64-linux_2odp_2api_2abi_2byteorder_8h_source.html" target="_top" xlink:title="byteorder.h">
<polygon fill="#ffffff" stroke="#000000" points="83,-168.5 83,-187.5 148,-187.5 148,-168.5 83,-168.5"/>
<text text-anchor="middle" x="115.5" y="-175.5" font-family="Helvetica,sans-Serif" font-size="10.00" fill="#000000">byteorder.h</text>
</a>
</g>
</g>
<!-- Node10&#45;&gt;Node12 -->
<g id="edge2" class="edge">
<title>Node10&#45;&gt;Node12</title>
<path fill="none" stroke="#191970" d="M243.1333,-221.057C212.7534,-210.8084 171.0181,-196.729 143.664,-187.5011"/>
<polygon fill="#191970" stroke="#191970" points="242.3694,-224.4931 252.9636,-224.3733 244.607,-217.8603 242.3694,-224.4931"/>
</g>
<!-- Node13 -->
<g id="node4" class="node">
<title>Node13</title>
<g id="a_node4"><a xlink:href="arch_2default-linux_2odp_2api_2abi_2byteorder_8h_source.html" target="_top" xlink:title="byteorder.h">
<polygon fill="#ffffff" stroke="#000000" points="166,-168.5 166,-187.5 231,-187.5 231,-168.5 166,-168.5"/>
<text text-anchor="middle" x="198.5" y="-175.5" font-family="Helvetica,sans-Serif" font-size="10.00" fill="#000000">byteorder.h</text>
</a>
</g>
</g>
<!-- Node10&#45;&gt;Node13 -->
<g id="edge3" class="edge">
<title>Node10&#45;&gt;Node13</title>
<path fill="none" stroke="#191970" d="M258.512,-218.49C243.8678,-208.6096 225.3556,-196.1194 212.7918,-187.6427"/>
<polygon fill="#191970" stroke="#191970" points="256.7953,-221.5539 267.0425,-224.2455 260.7104,-215.7511 256.7953,-221.5539"/>
</g>
<!-- Node14 -->
<g id="node5" class="node">
<title>Node14</title>
<g id="a_node5"><a xlink:href="arch_2mips64-linux_2odp_2api_2abi_2byteorder_8h_source.html" target="_top" xlink:title="byteorder.h">
<polygon fill="#ffffff" stroke="#000000" points="249,-168.5 249,-187.5 314,-187.5 314,-168.5 249,-168.5"/>
<text text-anchor="middle" x="281.5" y="-175.5" font-family="Helvetica,sans-Serif" font-size="10.00" fill="#000000">byteorder.h</text>
</a>
</g>
</g>
<!-- Node10&#45;&gt;Node14 -->
<g id="edge4" class="edge">
<title>Node10&#45;&gt;Node14</title>
<path fill="none" stroke="#191970" d="M281.5,-214.1575C281.5,-205.155 281.5,-194.9199 281.5,-187.6427"/>
<polygon fill="#191970" stroke="#191970" points="278.0001,-214.2455 281.5,-224.2455 285.0001,-214.2456 278.0001,-214.2455"/>
</g>
<!-- Node15 -->
<g id="node6" class="node">
<title>Node15</title>
<g id="a_node6"><a xlink:href="arch_2power64-linux_2odp_2api_2abi_2byteorder_8h_source.html" target="_top" xlink:title="byteorder.h">
<polygon fill="#ffffff" stroke="#000000" points="332,-168.5 332,-187.5 397,-187.5 397,-168.5 332,-168.5"/>
<text text-anchor="middle" x="364.5" y="-175.5" font-family="Helvetica,sans-Serif" font-size="10.00" fill="#000000">byteorder.h</text>
</a>
</g>
</g>
<!-- Node10&#45;&gt;Node15 -->
<g id="edge5" class="edge">
<title>Node10&#45;&gt;Node15</title>
<path fill="none" stroke="#191970" d="M304.488,-218.49C319.1322,-208.6096 337.6444,-196.1194 350.2082,-187.6427"/>
<polygon fill="#191970" stroke="#191970" points="302.2896,-215.7511 295.9575,-224.2455 306.2047,-221.5539 302.2896,-215.7511"/>
</g>
<!-- Node16 -->
<g id="node7" class="node">
<title>Node16</title>
<g id="a_node7"><a xlink:href="arch_2x86__32-linux_2odp_2api_2abi_2byteorder_8h_source.html" target="_top" xlink:title="byteorder.h">
<polygon fill="#ffffff" stroke="#000000" points="415,-168.5 415,-187.5 480,-187.5 480,-168.5 415,-168.5"/>
<text text-anchor="middle" x="447.5" y="-175.5" font-family="Helvetica,sans-Serif" font-size="10.00" fill="#000000">byteorder.h</text>
</a>
</g>
</g>
<!-- Node10&#45;&gt;Node16 -->
<g id="edge6" class="edge">
<title>Node10&#45;&gt;Node16</title>
<path fill="none" stroke="#191970" d="M319.8667,-221.057C350.2466,-210.8084 391.9819,-196.729 419.336,-187.5011"/>
<polygon fill="#191970" stroke="#191970" points="318.393,-217.8603 310.0364,-224.3733 320.6306,-224.4931 318.393,-217.8603"/>
</g>
<!-- Node17 -->
<g id="node8" class="node">
<title>Node17</title>
<g id="a_node8"><a xlink:href="arch_2x86__64-linux_2odp_2api_2abi_2byteorder_8h_source.html" target="_top" xlink:title="byteorder.h">
<polygon fill="#ffffff" stroke="#000000" points="498,-168.5 498,-187.5 563,-187.5 563,-168.5 498,-168.5"/>
<text text-anchor="middle" x="530.5" y="-175.5" font-family="Helvetica,sans-Serif" font-size="10.00" fill="#000000">byteorder.h</text>
</a>
</g>
</g>
<!-- Node10&#45;&gt;Node17 -->
<g id="edge7" class="edge">
<title>Node10&#45;&gt;Node17</title>
<path fill="none" stroke="#191970" d="M324.2361,-224.8309C366.328,-215.7335 432.4267,-201.2695 489.5,-188 492.2118,-187.3695 495.022,-186.7058 497.8415,-186.0328"/>
<polygon fill="#191970" stroke="#191970" points="323.3692,-221.4373 314.3326,-226.9681 324.8459,-228.2798 323.3692,-221.4373"/>
</g>
<!-- Node18 -->
<g id="node9" class="node">
<title>Node18</title>
<g id="a_node9"><a xlink:href="api_2byteorder_8h.html" target="_top" xlink:title="ODP byteorder. ">
<polygon fill="#ffffff" stroke="#000000" points="498,-112.5 498,-131.5 563,-131.5 563,-112.5 498,-112.5"/>
<text text-anchor="middle" x="530.5" y="-119.5" font-family="Helvetica,sans-Serif" font-size="10.00" fill="#000000">byteorder.h</text>
</a>
</g>
</g>
<!-- Node17&#45;&gt;Node18 -->
<g id="edge8" class="edge">
<title>Node17&#45;&gt;Node18</title>
<path fill="none" stroke="#191970" d="M530.5,-158.1575C530.5,-149.155 530.5,-138.9199 530.5,-131.6427"/>
<polygon fill="#191970" stroke="#191970" points="527.0001,-158.2455 530.5,-168.2455 534.0001,-158.2456 527.0001,-158.2455"/>
</g>
<!-- Node19 -->
<g id="node10" class="node">
<title>Node19</title>
<g id="a_node10"><a xlink:href="odp__api_8h.html" target="_top" xlink:title="The OpenDataPlane API. ">
<polygon fill="#ffffff" stroke="#000000" points="501,-56.5 501,-75.5 560,-75.5 560,-56.5 501,-56.5"/>
<text text-anchor="middle" x="530.5" y="-63.5" font-family="Helvetica,sans-Serif" font-size="10.00" fill="#000000">odp_api.h</text>
</a>
</g>
</g>
<!-- Node18&#45;&gt;Node19 -->
<g id="edge9" class="edge">
<title>Node18&#45;&gt;Node19</title>
<path fill="none" stroke="#191970" d="M530.5,-102.1575C530.5,-93.155 530.5,-82.9199 530.5,-75.6427"/>
<polygon fill="#191970" stroke="#191970" points="527.0001,-102.2455 530.5,-112.2455 534.0001,-102.2456 527.0001,-102.2455"/>
</g>
<!-- Node20 -->
<g id="node11" class="node">
<title>Node20</title>
<g id="a_node11"><a xlink:href="odp_8h.html" target="_top" xlink:title="WARNING: THIS FILE IS DEPRECATED AND WILL BE REMOVED!!! ODP APPLICATIONS SHOULD NOW INCLUDE odp_api...">
<polygon fill="#ffffff" stroke="#000000" points="510,-.5 510,-19.5 551,-19.5 551,-.5 510,-.5"/>
<text text-anchor="middle" x="530.5" y="-7.5" font-family="Helvetica,sans-Serif" font-size="10.00" fill="#000000">odp.h</text>
</a>
</g>
</g>
<!-- Node19&#45;&gt;Node20 -->
<g id="edge10" class="edge">
<title>Node19&#45;&gt;Node20</title>
<path fill="none" stroke="#191970" d="M530.5,-46.1575C530.5,-37.155 530.5,-26.9199 530.5,-19.6427"/>
<polygon fill="#191970" stroke="#191970" points="527.0001,-46.2455 530.5,-56.2455 534.0001,-46.2456 527.0001,-46.2455"/>
</g>
</g>
</svg>
