<?xml version="1.0" encoding="UTF-8" standalone="no"?>
<!DOCTYPE svg PUBLIC "-//W3C//DTD SVG 1.1//EN"
 "http://www.w3.org/Graphics/SVG/1.1/DTD/svg11.dtd">
<!-- Generated by graphviz version 2.40.1 (20161225.0304)
 -->
<!-- Title: barrier.h Pages: 1 -->
<svg width="624pt" height="308pt"
 viewBox="0.00 0.00 623.50 308.00" xmlns="http://www.w3.org/2000/svg" xmlns:xlink="http://www.w3.org/1999/xlink">
<g id="graph0" class="graph" transform="scale(1 1) rotate(0) translate(4 304)">
<title>barrier.h</title>
<polygon fill="#ffffff" stroke="transparent" points="-4,4 -4,-304 619.5,-304 619.5,4 -4,4"/>
<!-- Node0 -->
<g id="node1" class="node">
<title>Node0</title>
<polygon fill="#bfbfbf" stroke="#000000" points="345.5,-280.5 345.5,-299.5 397.5,-299.5 397.5,-280.5 345.5,-280.5"/>
<text text-anchor="middle" x="371.5" y="-287.5" font-family="Helvetica,sans-Serif" font-size="10.00" fill="#000000">barrier.h</text>
</g>
<!-- Node1 -->
<g id="node2" class="node">
<title>Node1</title>
<g id="a_node2"><a xlink:href="api_2std__types_8h.html" target="_top" xlink:title="Standard C language types and definitions for ODP. ">
<polygon fill="#ffffff" stroke="#000000" points="277.5,-224.5 277.5,-243.5 379.5,-243.5 379.5,-224.5 277.5,-224.5"/>
<text text-anchor="middle" x="328.5" y="-231.5" font-family="Helvetica,sans-Serif" font-size="10.00" fill="#000000">odp/api/std_types.h</text>
</a>
</g>
</g>
<!-- Node0&#45;&gt;Node1 -->
<g id="edge1" class="edge">
<title>Node0&#45;&gt;Node1</title>
<path fill="none" stroke="#191970" d="M364.01,-280.2455C357.9674,-272.3761 349.3097,-261.101 342.0559,-251.6542"/>
<polygon fill="#191970" stroke="#191970" points="344.7705,-249.4426 335.9042,-243.6427 339.2185,-253.7058 344.7705,-249.4426"/>
</g>
<!-- Node10 -->
<g id="node11" class="node">
<title>Node10</title>
<g id="a_node11"><a xlink:href="api_2atomic_8h.html" target="_top" xlink:title="ODP atomic operations. ">
<polygon fill="#ffffff" stroke="#000000" points="392,-112.5 392,-131.5 481,-131.5 481,-112.5 392,-112.5"/>
<text text-anchor="middle" x="436.5" y="-119.5" font-family="Helvetica,sans-Serif" font-size="10.00" fill="#000000">odp/api/atomic.h</text>
</a>
</g>
</g>
<!-- Node0&#45;&gt;Node10 -->
<g id="edge12" class="edge">
<title>Node0&#45;&gt;Node10</title>
<path fill="none" stroke="#191970" d="M375.1809,-280.4862C385.5449,-253.6994 415.121,-177.2565 429.0602,-141.2289"/>
<polygon fill="#191970" stroke="#191970" points="432.3533,-142.4171 432.6975,-131.8279 425.8249,-139.8912 432.3533,-142.4171"/>
</g>
<!-- Node2 -->
<g id="node3" class="node">
<title>Node2</title>
<polygon fill="#ffffff" stroke="#bfbfbf" points="269.5,-168.5 269.5,-187.5 387.5,-187.5 387.5,-168.5 269.5,-168.5"/>
<text text-anchor="middle" x="328.5" y="-175.5" font-family="Helvetica,sans-Serif" font-size="10.00" fill="#000000">odp/api/abi/std_types.h</text>
</g>
<!-- Node1&#45;&gt;Node2 -->
<g id="edge2" class="edge">
<title>Node1&#45;&gt;Node2</title>
<path fill="none" stroke="#191970" d="M328.5,-224.2455C328.5,-216.9382 328.5,-206.6944 328.5,-197.7046"/>
<polygon fill="#191970" stroke="#191970" points="332.0001,-197.6426 328.5,-187.6427 325.0001,-197.6427 332.0001,-197.6426"/>
</g>
<!-- Node3 -->
<g id="node4" class="node">
<title>Node3</title>
<g id="a_node4"><a xlink:href="api_2spec_2std__types_8h.html" target="_top" xlink:title="Standard C language types and definitions for ODP. ">
<polygon fill="#ffffff" stroke="#000000" points="97.5,-168.5 97.5,-187.5 223.5,-187.5 223.5,-168.5 97.5,-168.5"/>
<text text-anchor="middle" x="160.5" y="-175.5" font-family="Helvetica,sans-Serif" font-size="10.00" fill="#000000">odp/api/spec/std_types.h</text>
</a>
</g>
</g>
<!-- Node1&#45;&gt;Node3 -->
<g id="edge3" class="edge">
<title>Node1&#45;&gt;Node3</title>
<path fill="none" stroke="#191970" d="M299.6198,-224.3733C271.6839,-215.0613 229.1858,-200.8953 198.5131,-190.671"/>
<polygon fill="#191970" stroke="#191970" points="199.597,-187.3431 189.0034,-187.5011 197.3834,-193.9839 199.597,-187.3431"/>
</g>
<!-- Node4 -->
<g id="node5" class="node">
<title>Node4</title>
<g id="a_node5"><a xlink:href="visibility__begin_8h_source.html" target="_top" xlink:title="odp/visibility_begin.h">
<polygon fill="#ffffff" stroke="#000000" points="319,-.5 319,-19.5 426,-19.5 426,-.5 319,-.5"/>
<text text-anchor="middle" x="372.5" y="-7.5" font-family="Helvetica,sans-Serif" font-size="10.00" fill="#000000">odp/visibility_begin.h</text>
</a>
</g>
</g>
<!-- Node3&#45;&gt;Node4 -->
<g id="edge4" class="edge">
<title>Node3&#45;&gt;Node4</title>
<path fill="none" stroke="#191970" d="M184.3474,-168.3785C219.9858,-153.0794 287.7311,-120.3416 332.5,-76 346.2883,-62.3433 357.2789,-43.0121 364.2236,-28.7996"/>
<polygon fill="#191970" stroke="#191970" points="367.5009,-30.0526 368.5476,-19.5096 361.1547,-27.0987 367.5009,-30.0526"/>
</g>
<!-- Node5 -->
<g id="node6" class="node">
<title>Node5</title>
<polygon fill="#ffffff" stroke="#bfbfbf" points="0,-112.5 0,-131.5 49,-131.5 49,-112.5 0,-112.5"/>
<text text-anchor="middle" x="24.5" y="-119.5" font-family="Helvetica,sans-Serif" font-size="10.00" fill="#000000">stdint.h</text>
</g>
<!-- Node3&#45;&gt;Node5 -->
<g id="edge5" class="edge">
<title>Node3&#45;&gt;Node5</title>
<path fill="none" stroke="#191970" d="M137.1208,-168.3733C114.9955,-159.2629 81.5866,-145.5062 56.8981,-135.3404"/>
<polygon fill="#191970" stroke="#191970" points="58.1536,-132.0723 47.5742,-131.5011 55.4883,-138.5451 58.1536,-132.0723"/>
</g>
<!-- Node6 -->
<g id="node7" class="node">
<title>Node6</title>
<g id="a_node7"><a xlink:href="api_2align_8h.html" target="_top" xlink:title="ODP alignments. ">
<polygon fill="#ffffff" stroke="#000000" points="120.5,-112.5 120.5,-131.5 200.5,-131.5 200.5,-112.5 120.5,-112.5"/>
<text text-anchor="middle" x="160.5" y="-119.5" font-family="Helvetica,sans-Serif" font-size="10.00" fill="#000000">odp/api/align.h</text>
</a>
</g>
</g>
<!-- Node3&#45;&gt;Node6 -->
<g id="edge6" class="edge">
<title>Node3&#45;&gt;Node6</title>
<path fill="none" stroke="#191970" d="M160.5,-168.2455C160.5,-160.9382 160.5,-150.6944 160.5,-141.7046"/>
<polygon fill="#191970" stroke="#191970" points="164.0001,-141.6426 160.5,-131.6427 157.0001,-141.6427 164.0001,-141.6426"/>
</g>
<!-- Node9 -->
<g id="node10" class="node">
<title>Node9</title>
<g id="a_node10"><a xlink:href="visibility__end_8h_source.html" target="_top" xlink:title="odp/visibility_end.h">
<polygon fill="#ffffff" stroke="#000000" points="200.5,-.5 200.5,-19.5 300.5,-19.5 300.5,-.5 200.5,-.5"/>
<text text-anchor="middle" x="250.5" y="-7.5" font-family="Helvetica,sans-Serif" font-size="10.00" fill="#000000">odp/visibility_end.h</text>
</a>
</g>
</g>
<!-- Node3&#45;&gt;Node9 -->
<g id="edge11" class="edge">
<title>Node3&#45;&gt;Node9</title>
<path fill="none" stroke="#191970" d="M146.4308,-168.2584C135.3602,-159.8768 120.3688,-146.8175 111.5,-132 93.8181,-102.4579 75.9316,-83.6102 96.5,-56 108.0532,-40.4914 152.2445,-28.2912 190.3424,-20.3634"/>
<polygon fill="#191970" stroke="#191970" points="191.2703,-23.7469 200.3823,-18.3411 189.8881,-16.8847 191.2703,-23.7469"/>
</g>
<!-- Node7 -->
<g id="node8" class="node">
<title>Node7</title>
<polygon fill="#ffffff" stroke="#bfbfbf" points="106,-56.5 106,-75.5 201,-75.5 201,-56.5 106,-56.5"/>
<text text-anchor="middle" x="153.5" y="-63.5" font-family="Helvetica,sans-Serif" font-size="10.00" fill="#000000">odp/api/abi/align.h</text>
</g>
<!-- Node6&#45;&gt;Node7 -->
<g id="edge7" class="edge">
<title>Node6&#45;&gt;Node7</title>
<path fill="none" stroke="#191970" d="M159.2807,-112.2455C158.3673,-104.9382 157.0868,-94.6944 155.9631,-85.7046"/>
<polygon fill="#191970" stroke="#191970" points="159.4187,-85.1313 154.7053,-75.6427 152.4728,-85.9996 159.4187,-85.1313"/>
</g>
<!-- Node8 -->
<g id="node9" class="node">
<title>Node8</title>
<g id="a_node9"><a xlink:href="api_2spec_2align_8h.html" target="_top" xlink:title="ODP alignments. ">
<polygon fill="#ffffff" stroke="#000000" points="219.5,-56.5 219.5,-75.5 323.5,-75.5 323.5,-56.5 219.5,-56.5"/>
<text text-anchor="middle" x="271.5" y="-63.5" font-family="Helvetica,sans-Serif" font-size="10.00" fill="#000000">odp/api/spec/align.h</text>
</a>
</g>
</g>
<!-- Node6&#45;&gt;Node8 -->
<g id="edge8" class="edge">
<title>Node6&#45;&gt;Node8</title>
<path fill="none" stroke="#191970" d="M179.5816,-112.3733C197.2402,-103.4644 223.7053,-90.1127 243.7098,-80.0203"/>
<polygon fill="#191970" stroke="#191970" points="245.3158,-83.1303 252.6674,-75.5011 242.1628,-76.8806 245.3158,-83.1303"/>
</g>
<!-- Node8&#45;&gt;Node4 -->
<g id="edge9" class="edge">
<title>Node8&#45;&gt;Node4</title>
<path fill="none" stroke="#191970" d="M289.0929,-56.2455C304.879,-47.4928 328.2639,-34.527 346.2587,-24.5496"/>
<polygon fill="#191970" stroke="#191970" points="348.0603,-27.5528 355.1087,-19.6427 344.6659,-21.4308 348.0603,-27.5528"/>
</g>
<!-- Node8&#45;&gt;Node9 -->
<g id="edge10" class="edge">
<title>Node8&#45;&gt;Node9</title>
<path fill="none" stroke="#191970" d="M267.8421,-56.2455C265.0416,-48.7776 261.091,-38.2427 257.6676,-29.1137"/>
<polygon fill="#191970" stroke="#191970" points="260.9045,-27.777 254.116,-19.6427 254.3501,-30.2349 260.9045,-27.777"/>
</g>
<!-- Node11 -->
<g id="node12" class="node">
<title>Node11</title>
<polygon fill="#ffffff" stroke="#bfbfbf" points="511.5,-56.5 511.5,-75.5 615.5,-75.5 615.5,-56.5 511.5,-56.5"/>
<text text-anchor="middle" x="563.5" y="-63.5" font-family="Helvetica,sans-Serif" font-size="10.00" fill="#000000">odp/api/abi/atomic.h</text>
</g>
<!-- Node10&#45;&gt;Node11 -->
<g id="edge13" class="edge">
<title>Node10&#45;&gt;Node11</title>
<path fill="none" stroke="#191970" d="M458.3321,-112.3733C478.8103,-103.3435 509.6399,-89.7494 532.6319,-79.6111"/>
<polygon fill="#191970" stroke="#191970" points="534.215,-82.7383 541.9528,-75.5011 531.3907,-76.3333 534.215,-82.7383"/>
</g>
<!-- Node12 -->
<g id="node13" class="node">
<title>Node12</title>
<g id="a_node13"><a xlink:href="api_2spec_2atomic_8h.html" target="_top" xlink:title="ODP atomic operations. ">
<polygon fill="#ffffff" stroke="#000000" points="380,-56.5 380,-75.5 493,-75.5 493,-56.5 380,-56.5"/>
<text text-anchor="middle" x="436.5" y="-63.5" font-family="Helvetica,sans-Serif" font-size="10.00" fill="#000000">odp/api/spec/atomic.h</text>
</a>
</g>
</g>
<!-- Node10&#45;&gt;Node12 -->
<g id="edge14" class="edge">
<title>Node10&#45;&gt;Node12</title>
<path fill="none" stroke="#191970" d="M436.5,-112.2455C436.5,-104.9382 436.5,-94.6944 436.5,-85.7046"/>
<polygon fill="#191970" stroke="#191970" points="440.0001,-85.6426 436.5,-75.6427 433.0001,-85.6427 440.0001,-85.6426"/>
</g>
<!-- Node12&#45;&gt;Node4 -->
<g id="edge15" class="edge">
<title>Node12&#45;&gt;Node4</title>
<path fill="none" stroke="#191970" d="M425.3521,-56.2455C415.9913,-48.0549 402.4142,-36.1749 391.3651,-26.5069"/>
<polygon fill="#191970" stroke="#191970" points="393.3508,-23.5937 383.5202,-19.6427 388.7412,-28.8618 393.3508,-23.5937"/>
</g>
<!-- Node12&#45;&gt;Node9 -->
<g id="edge16" class="edge">
<title>Node12&#45;&gt;Node9</title>
<path fill="none" stroke="#191970" d="M404.5255,-56.3733C373.3287,-46.9807 325.729,-32.6496 291.7068,-22.4064"/>
<polygon fill="#191970" stroke="#191970" points="292.6418,-19.0327 282.0573,-19.5011 290.6237,-25.7355 292.6418,-19.0327"/>
</g>
</g>
</svg>
