<?xml version="1.0" encoding="UTF-8" standalone="no"?>
<!DOCTYPE svg PUBLIC "-//W3C//DTD SVG 1.1//EN"
 "http://www.w3.org/Graphics/SVG/1.1/DTD/svg11.dtd">
<!-- Generated by graphviz version 2.40.1 (20161225.0304)
 -->
<!-- Title: schedule_types.h Pages: 1 -->
<svg width="837pt" height="756pt"
 viewBox="0.00 0.00 836.50 756.00" xmlns="http://www.w3.org/2000/svg" xmlns:xlink="http://www.w3.org/1999/xlink">
<g id="graph0" class="graph" transform="scale(1 1) rotate(0) translate(4 752)">
<title>schedule_types.h</title>
<polygon fill="#ffffff" stroke="transparent" points="-4,4 -4,-752 832.5,-752 832.5,4 -4,4"/>
<!-- Node1 -->
<g id="node1" class="node">
<title>Node1</title>
<polygon fill="#bfbfbf" stroke="#000000" points="333,-728.5 333,-747.5 426,-747.5 426,-728.5 333,-728.5"/>
<text text-anchor="middle" x="379.5" y="-735.5" font-family="Helvetica,sans-Serif" font-size="10.00" fill="#000000">schedule_types.h</text>
</g>
<!-- Node2 -->
<g id="node2" class="node">
<title>Node2</title>
<g id="a_node2"><a xlink:href="arch_2arm32-linux_2odp_2api_2abi_2schedule__types_8h_source.html" target="_top" xlink:title="schedule_types.h">
<polygon fill="#ffffff" stroke="#000000" points="0,-672.5 0,-691.5 93,-691.5 93,-672.5 0,-672.5"/>
<text text-anchor="middle" x="46.5" y="-679.5" font-family="Helvetica,sans-Serif" font-size="10.00" fill="#000000">schedule_types.h</text>
</a>
</g>
</g>
<!-- Node1&#45;&gt;Node2 -->
<g id="edge1" class="edge">
<title>Node1&#45;&gt;Node2</title>
<path fill="none" stroke="#191970" d="M322.6208,-728.8592C266.4005,-719.7605 177.9566,-705.2753 101.5,-692 98.727,-691.5185 95.8765,-691.0178 93.0015,-690.5084"/>
<polygon fill="#191970" stroke="#191970" points="322.3027,-732.3532 332.7332,-730.494 323.4199,-725.4429 322.3027,-732.3532"/>
</g>
<!-- Node3 -->
<g id="node3" class="node">
<title>Node3</title>
<g id="a_node3"><a xlink:href="arch_2arm64-linux_2odp_2api_2abi_2schedule__types_8h_source.html" target="_top" xlink:title="schedule_types.h">
<polygon fill="#ffffff" stroke="#000000" points="111,-672.5 111,-691.5 204,-691.5 204,-672.5 111,-672.5"/>
<text text-anchor="middle" x="157.5" y="-679.5" font-family="Helvetica,sans-Serif" font-size="10.00" fill="#000000">schedule_types.h</text>
</a>
</g>
</g>
<!-- Node1&#45;&gt;Node3 -->
<g id="edge2" class="edge">
<title>Node1&#45;&gt;Node3</title>
<path fill="none" stroke="#191970" d="M331.8572,-725.982C291.0097,-715.6781 232.9525,-701.0331 195.2546,-691.5237"/>
<polygon fill="#191970" stroke="#191970" points="331.0367,-729.3846 341.5891,-728.4369 332.7489,-722.5972 331.0367,-729.3846"/>
</g>
<!-- Node4 -->
<g id="node4" class="node">
<title>Node4</title>
<g id="a_node4"><a xlink:href="arch_2default-linux_2odp_2api_2abi_2schedule__types_8h_source.html" target="_top" xlink:title="schedule_types.h">
<polygon fill="#ffffff" stroke="#000000" points="222,-672.5 222,-691.5 315,-691.5 315,-672.5 222,-672.5"/>
<text text-anchor="middle" x="268.5" y="-679.5" font-family="Helvetica,sans-Serif" font-size="10.00" fill="#000000">schedule_types.h</text>
</a>
</g>
</g>
<!-- Node1&#45;&gt;Node4 -->
<g id="edge3" class="edge">
<title>Node1&#45;&gt;Node4</title>
<path fill="none" stroke="#191970" d="M351.4266,-723.8368C331.3615,-713.7139 304.9078,-700.3679 287.3326,-691.5011"/>
<polygon fill="#191970" stroke="#191970" points="349.9138,-726.9938 360.4184,-728.3733 353.0668,-720.7441 349.9138,-726.9938"/>
</g>
<!-- Node5 -->
<g id="node5" class="node">
<title>Node5</title>
<g id="a_node5"><a xlink:href="arch_2mips64-linux_2odp_2api_2abi_2schedule__types_8h_source.html" target="_top" xlink:title="schedule_types.h">
<polygon fill="#ffffff" stroke="#000000" points="333,-672.5 333,-691.5 426,-691.5 426,-672.5 333,-672.5"/>
<text text-anchor="middle" x="379.5" y="-679.5" font-family="Helvetica,sans-Serif" font-size="10.00" fill="#000000">schedule_types.h</text>
</a>
</g>
</g>
<!-- Node1&#45;&gt;Node5 -->
<g id="edge4" class="edge">
<title>Node1&#45;&gt;Node5</title>
<path fill="none" stroke="#191970" d="M379.5,-718.1575C379.5,-709.155 379.5,-698.9199 379.5,-691.6427"/>
<polygon fill="#191970" stroke="#191970" points="376.0001,-718.2455 379.5,-728.2455 383.0001,-718.2456 376.0001,-718.2455"/>
</g>
<!-- Node6 -->
<g id="node6" class="node">
<title>Node6</title>
<g id="a_node6"><a xlink:href="arch_2power64-linux_2odp_2api_2abi_2schedule__types_8h_source.html" target="_top" xlink:title="schedule_types.h">
<polygon fill="#ffffff" stroke="#000000" points="444,-672.5 444,-691.5 537,-691.5 537,-672.5 444,-672.5"/>
<text text-anchor="middle" x="490.5" y="-679.5" font-family="Helvetica,sans-Serif" font-size="10.00" fill="#000000">schedule_types.h</text>
</a>
</g>
</g>
<!-- Node1&#45;&gt;Node6 -->
<g id="edge5" class="edge">
<title>Node1&#45;&gt;Node6</title>
<path fill="none" stroke="#191970" d="M407.5734,-723.8368C427.6385,-713.7139 454.0922,-700.3679 471.6674,-691.5011"/>
<polygon fill="#191970" stroke="#191970" points="405.9332,-720.7441 398.5816,-728.3733 409.0862,-726.9938 405.9332,-720.7441"/>
</g>
<!-- Node7 -->
<g id="node7" class="node">
<title>Node7</title>
<g id="a_node7"><a xlink:href="arch_2x86__32-linux_2odp_2api_2abi_2schedule__types_8h_source.html" target="_top" xlink:title="schedule_types.h">
<polygon fill="#ffffff" stroke="#000000" points="555,-672.5 555,-691.5 648,-691.5 648,-672.5 555,-672.5"/>
<text text-anchor="middle" x="601.5" y="-679.5" font-family="Helvetica,sans-Serif" font-size="10.00" fill="#000000">schedule_types.h</text>
</a>
</g>
</g>
<!-- Node1&#45;&gt;Node7 -->
<g id="edge6" class="edge">
<title>Node1&#45;&gt;Node7</title>
<path fill="none" stroke="#191970" d="M427.1428,-725.982C467.9903,-715.6781 526.0475,-701.0331 563.7454,-691.5237"/>
<polygon fill="#191970" stroke="#191970" points="426.2511,-722.5972 417.4109,-728.4369 427.9633,-729.3846 426.2511,-722.5972"/>
</g>
<!-- Node8 -->
<g id="node8" class="node">
<title>Node8</title>
<g id="a_node8"><a xlink:href="arch_2x86__64-linux_2odp_2api_2abi_2schedule__types_8h_source.html" target="_top" xlink:title="schedule_types.h">
<polygon fill="#ffffff" stroke="#000000" points="666,-672.5 666,-691.5 759,-691.5 759,-672.5 666,-672.5"/>
<text text-anchor="middle" x="712.5" y="-679.5" font-family="Helvetica,sans-Serif" font-size="10.00" fill="#000000">schedule_types.h</text>
</a>
</g>
</g>
<!-- Node1&#45;&gt;Node8 -->
<g id="edge7" class="edge">
<title>Node1&#45;&gt;Node8</title>
<path fill="none" stroke="#191970" d="M436.1641,-728.7967C492.1742,-719.6509 580.2942,-705.1311 656.5,-692 659.5171,-691.4801 662.6247,-690.9395 665.7565,-690.3908"/>
<polygon fill="#191970" stroke="#191970" points="435.3955,-725.3757 426.0896,-730.4403 436.5227,-732.2844 435.3955,-725.3757"/>
</g>
<!-- Node9 -->
<g id="node9" class="node">
<title>Node9</title>
<g id="a_node9"><a xlink:href="api_2schedule_8h.html" target="_top" xlink:title="ODP schedule. ">
<polygon fill="#ffffff" stroke="#000000" points="717.5,-336.5 717.5,-355.5 781.5,-355.5 781.5,-336.5 717.5,-336.5"/>
<text text-anchor="middle" x="749.5" y="-343.5" font-family="Helvetica,sans-Serif" font-size="10.00" fill="#000000">schedule.h</text>
</a>
</g>
</g>
<!-- Node8&#45;&gt;Node9 -->
<g id="edge8" class="edge">
<title>Node8&#45;&gt;Node9</title>
<path fill="none" stroke="#191970" d="M722.713,-663.3878C733.6646,-641.6529 749.5,-604.2959 749.5,-570 749.5,-570 749.5,-570 749.5,-458 749.5,-420.0833 749.5,-374.9462 749.5,-355.5884"/>
<polygon fill="#191970" stroke="#191970" points="719.4982,-661.9821 717.9595,-672.4646 725.6994,-665.2296 719.4982,-661.9821"/>
</g>
<!-- Node12 -->
<g id="node12" class="node">
<title>Node12</title>
<g id="a_node12"><a xlink:href="api_2schedule__types_8h.html" target="_top" xlink:title="ODP schedule. ">
<polygon fill="#ffffff" stroke="#000000" points="628,-616.5 628,-635.5 721,-635.5 721,-616.5 628,-616.5"/>
<text text-anchor="middle" x="674.5" y="-623.5" font-family="Helvetica,sans-Serif" font-size="10.00" fill="#000000">schedule_types.h</text>
</a>
</g>
</g>
<!-- Node8&#45;&gt;Node12 -->
<g id="edge11" class="edge">
<title>Node8&#45;&gt;Node12</title>
<path fill="none" stroke="#191970" d="M700.2321,-663.9209C693.8512,-654.5176 686.3069,-643.3997 681.0432,-635.6427"/>
<polygon fill="#191970" stroke="#191970" points="697.3697,-665.936 705.8809,-672.2455 703.162,-662.0055 697.3697,-665.936"/>
</g>
<!-- Node10 -->
<g id="node10" class="node">
<title>Node10</title>
<g id="a_node10"><a xlink:href="odp__api_8h.html" target="_top" xlink:title="The OpenDataPlane API. ">
<polygon fill="#ffffff" stroke="#000000" points="609,-56.5 609,-75.5 668,-75.5 668,-56.5 609,-56.5"/>
<text text-anchor="middle" x="638.5" y="-63.5" font-family="Helvetica,sans-Serif" font-size="10.00" fill="#000000">odp_api.h</text>
</a>
</g>
</g>
<!-- Node9&#45;&gt;Node10 -->
<g id="edge9" class="edge">
<title>Node9&#45;&gt;Node10</title>
<path fill="none" stroke="#191970" d="M770.9502,-329.6826C794.3445,-309.857 828.5,-274.0534 828.5,-234 828.5,-234 828.5,-234 828.5,-178 828.5,-104.4821 721.625,-78.241 668.1875,-69.7154"/>
<polygon fill="#191970" stroke="#191970" points="768.442,-327.2115 762.9013,-336.2421 772.8642,-332.6378 768.442,-327.2115"/>
</g>
<!-- Node11 -->
<g id="node11" class="node">
<title>Node11</title>
<g id="a_node11"><a xlink:href="odp_8h.html" target="_top" xlink:title="WARNING: THIS FILE IS DEPRECATED AND WILL BE REMOVED!!! ODP APPLICATIONS SHOULD NOW INCLUDE odp_api...">
<polygon fill="#ffffff" stroke="#000000" points="618,-.5 618,-19.5 659,-19.5 659,-.5 618,-.5"/>
<text text-anchor="middle" x="638.5" y="-7.5" font-family="Helvetica,sans-Serif" font-size="10.00" fill="#000000">odp.h</text>
</a>
</g>
</g>
<!-- Node10&#45;&gt;Node11 -->
<g id="edge10" class="edge">
<title>Node10&#45;&gt;Node11</title>
<path fill="none" stroke="#191970" d="M638.5,-46.1575C638.5,-37.155 638.5,-26.9199 638.5,-19.6427"/>
<polygon fill="#191970" stroke="#191970" points="635.0001,-46.2455 638.5,-56.2455 642.0001,-46.2456 635.0001,-46.2455"/>
</g>
<!-- Node13 -->
<g id="node13" class="node">
<title>Node13</title>
<g id="a_node13"><a xlink:href="queue__types_8h.html" target="_top" xlink:title="ODP queue types. ">
<polygon fill="#ffffff" stroke="#000000" points="568.5,-560.5 568.5,-579.5 648.5,-579.5 648.5,-560.5 568.5,-560.5"/>
<text text-anchor="middle" x="608.5" y="-567.5" font-family="Helvetica,sans-Serif" font-size="10.00" fill="#000000">queue_types.h</text>
</a>
</g>
</g>
<!-- Node12&#45;&gt;Node13 -->
<g id="edge12" class="edge">
<title>Node12&#45;&gt;Node13</title>
<path fill="none" stroke="#191970" d="M655.2245,-609.645C643.7462,-599.9058 629.5723,-587.8795 619.8646,-579.6427"/>
<polygon fill="#191970" stroke="#191970" points="653.1141,-612.4445 663.0037,-616.2455 657.643,-607.1069 653.1141,-612.4445"/>
</g>
<!-- Node25 -->
<g id="node25" class="node">
<title>Node25</title>
<g id="a_node25"><a xlink:href="api_2spec_2schedule_8h.html" target="_top" xlink:title="ODP schedule. ">
<polygon fill="#ffffff" stroke="#000000" points="653.5,-392.5 653.5,-411.5 717.5,-411.5 717.5,-392.5 653.5,-392.5"/>
<text text-anchor="middle" x="685.5" y="-399.5" font-family="Helvetica,sans-Serif" font-size="10.00" fill="#000000">schedule.h</text>
</a>
</g>
</g>
<!-- Node12&#45;&gt;Node25 -->
<g id="edge35" class="edge">
<title>Node12&#45;&gt;Node25</title>
<path fill="none" stroke="#191970" d="M675.4764,-606.1177C677.7572,-559.6713 683.3677,-445.4223 685.0291,-411.5891"/>
<polygon fill="#191970" stroke="#191970" points="671.9674,-606.2153 674.9727,-616.375 678.959,-606.5587 671.9674,-606.2153"/>
</g>
<!-- Node14 -->
<g id="node14" class="node">
<title>Node14</title>
<g id="a_node14"><a xlink:href="api_2spec_2queue_8h.html" target="_top" xlink:title="ODP queue. ">
<polygon fill="#ffffff" stroke="#000000" points="579,-504.5 579,-523.5 630,-523.5 630,-504.5 579,-504.5"/>
<text text-anchor="middle" x="604.5" y="-511.5" font-family="Helvetica,sans-Serif" font-size="10.00" fill="#000000">queue.h</text>
</a>
</g>
</g>
<!-- Node13&#45;&gt;Node14 -->
<g id="edge13" class="edge">
<title>Node13&#45;&gt;Node14</title>
<path fill="none" stroke="#191970" d="M607.0827,-550.1575C606.4396,-541.155 605.7086,-530.9199 605.1888,-523.6427"/>
<polygon fill="#191970" stroke="#191970" points="603.5996,-550.5204 607.8033,-560.2455 610.5818,-550.0216 603.5996,-550.5204"/>
</g>
<!-- Node15 -->
<g id="node15" class="node">
<title>Node15</title>
<g id="a_node15"><a xlink:href="api_2queue_8h.html" target="_top" xlink:title="ODP queue. ">
<polygon fill="#ffffff" stroke="#000000" points="576,-448.5 576,-467.5 627,-467.5 627,-448.5 576,-448.5"/>
<text text-anchor="middle" x="601.5" y="-455.5" font-family="Helvetica,sans-Serif" font-size="10.00" fill="#000000">queue.h</text>
</a>
</g>
</g>
<!-- Node14&#45;&gt;Node15 -->
<g id="edge14" class="edge">
<title>Node14&#45;&gt;Node15</title>
<path fill="none" stroke="#191970" d="M603.437,-494.1575C602.9547,-485.155 602.4064,-474.9199 602.0166,-467.6427"/>
<polygon fill="#191970" stroke="#191970" points="599.9474,-494.4471 603.9774,-504.2455 606.9374,-494.0726 599.9474,-494.4471"/>
</g>
<!-- Node15&#45;&gt;Node10 -->
<g id="edge34" class="edge">
<title>Node15&#45;&gt;Node10</title>
<path fill="none" stroke="#191970" d="M566.1495,-449.0387C520.9609,-435.2106 448.5,-403.9951 448.5,-346 448.5,-346 448.5,-346 448.5,-178 448.5,-104.4821 555.375,-78.241 608.8125,-69.7154"/>
<polygon fill="#191970" stroke="#191970" points="565.3111,-452.4399 575.8912,-451.8818 567.2723,-445.7203 565.3111,-452.4399"/>
</g>
<!-- Node16 -->
<g id="node16" class="node">
<title>Node16</title>
<g id="a_node16"><a xlink:href="api_2crypto_8h.html" target="_top" xlink:title="ODP crypto. ">
<polygon fill="#ffffff" stroke="#000000" points="476.5,-224.5 476.5,-243.5 528.5,-243.5 528.5,-224.5 476.5,-224.5"/>
<text text-anchor="middle" x="502.5" y="-231.5" font-family="Helvetica,sans-Serif" font-size="10.00" fill="#000000">crypto.h</text>
</a>
</g>
</g>
<!-- Node15&#45;&gt;Node16 -->
<g id="edge15" class="edge">
<title>Node15&#45;&gt;Node16</title>
<path fill="none" stroke="#191970" d="M582.8015,-441.6811C574.3807,-433.4919 564.9123,-422.9879 558.5,-412 524.3736,-353.5216 508.6441,-271.887 504.0188,-243.883"/>
<polygon fill="#191970" stroke="#191970" points="580.4192,-444.2452 590.1227,-448.4987 585.1896,-439.1224 580.4192,-444.2452"/>
</g>
<!-- Node19 -->
<g id="node19" class="node">
<title>Node19</title>
<g id="a_node19"><a xlink:href="api_2spec_2packet__io_8h.html" target="_top" xlink:title="ODP Packet IO. ">
<polygon fill="#ffffff" stroke="#000000" points="568,-392.5 568,-411.5 635,-411.5 635,-392.5 568,-392.5"/>
<text text-anchor="middle" x="601.5" y="-399.5" font-family="Helvetica,sans-Serif" font-size="10.00" fill="#000000">packet_io.h</text>
</a>
</g>
</g>
<!-- Node15&#45;&gt;Node19 -->
<g id="edge20" class="edge">
<title>Node15&#45;&gt;Node19</title>
<path fill="none" stroke="#191970" d="M601.5,-438.1575C601.5,-429.155 601.5,-418.9199 601.5,-411.6427"/>
<polygon fill="#191970" stroke="#191970" points="598.0001,-438.2455 601.5,-448.2455 605.0001,-438.2456 598.0001,-438.2455"/>
</g>
<!-- Node15&#45;&gt;Node25 -->
<g id="edge32" class="edge">
<title>Node15&#45;&gt;Node25</title>
<path fill="none" stroke="#191970" d="M624.7649,-442.49C639.5856,-432.6096 658.3209,-420.1194 671.036,-411.6427"/>
<polygon fill="#191970" stroke="#191970" points="622.5107,-439.7863 616.1317,-448.2455 626.3937,-445.6107 622.5107,-439.7863"/>
</g>
<!-- Node16&#45;&gt;Node10 -->
<g id="edge19" class="edge">
<title>Node16&#45;&gt;Node10</title>
<path fill="none" stroke="#191970" d="M506.4007,-214.4268C512.4738,-188.3252 526.4143,-141.942 553.5,-112 568.9213,-94.9525 592.1803,-82.9771 610.4717,-75.5274"/>
<polygon fill="#191970" stroke="#191970" points="502.9663,-213.7494 504.2642,-224.2644 509.8068,-215.235 502.9663,-213.7494"/>
</g>
<!-- Node17 -->
<g id="node17" class="node">
<title>Node17</title>
<g id="a_node17"><a xlink:href="api_2spec_2ipsec_8h.html" target="_top" xlink:title="ODP IPSEC API. ">
<polygon fill="#ffffff" stroke="#000000" points="562.5,-168.5 562.5,-187.5 610.5,-187.5 610.5,-168.5 562.5,-168.5"/>
<text text-anchor="middle" x="586.5" y="-175.5" font-family="Helvetica,sans-Serif" font-size="10.00" fill="#000000">ipsec.h</text>
</a>
</g>
</g>
<!-- Node16&#45;&gt;Node17 -->
<g id="edge16" class="edge">
<title>Node16&#45;&gt;Node17</title>
<path fill="none" stroke="#191970" d="M525.7649,-218.49C540.5856,-208.6096 559.3209,-196.1194 572.036,-187.6427"/>
<polygon fill="#191970" stroke="#191970" points="523.5107,-215.7863 517.1317,-224.2455 527.3937,-221.6107 523.5107,-215.7863"/>
</g>
<!-- Node18 -->
<g id="node18" class="node">
<title>Node18</title>
<g id="a_node18"><a xlink:href="api_2ipsec_8h.html" target="_top" xlink:title="ODP IPSEC API &#45; platform specific header. ">
<polygon fill="#ffffff" stroke="#000000" points="562.5,-112.5 562.5,-131.5 610.5,-131.5 610.5,-112.5 562.5,-112.5"/>
<text text-anchor="middle" x="586.5" y="-119.5" font-family="Helvetica,sans-Serif" font-size="10.00" fill="#000000">ipsec.h</text>
</a>
</g>
</g>
<!-- Node17&#45;&gt;Node18 -->
<g id="edge17" class="edge">
<title>Node17&#45;&gt;Node18</title>
<path fill="none" stroke="#191970" d="M586.5,-158.1575C586.5,-149.155 586.5,-138.9199 586.5,-131.6427"/>
<polygon fill="#191970" stroke="#191970" points="583.0001,-158.2455 586.5,-168.2455 590.0001,-158.2456 583.0001,-158.2455"/>
</g>
<!-- Node18&#45;&gt;Node10 -->
<g id="edge18" class="edge">
<title>Node18&#45;&gt;Node10</title>
<path fill="none" stroke="#191970" d="M602.4822,-104.7884C611.3778,-95.2085 622.1204,-83.6396 629.5461,-75.6427"/>
<polygon fill="#191970" stroke="#191970" points="599.7975,-102.536 595.5577,-112.2455 604.927,-107.2992 599.7975,-102.536"/>
</g>
<!-- Node20 -->
<g id="node20" class="node">
<title>Node20</title>
<g id="a_node20"><a xlink:href="api_2packet__io_8h.html" target="_top" xlink:title="ODP Packet IO. ">
<polygon fill="#ffffff" stroke="#000000" points="590,-336.5 590,-355.5 657,-355.5 657,-336.5 590,-336.5"/>
<text text-anchor="middle" x="623.5" y="-343.5" font-family="Helvetica,sans-Serif" font-size="10.00" fill="#000000">packet_io.h</text>
</a>
</g>
</g>
<!-- Node19&#45;&gt;Node20 -->
<g id="edge21" class="edge">
<title>Node19&#45;&gt;Node20</title>
<path fill="none" stroke="#191970" d="M609.0628,-382.7493C612.6546,-373.6064 616.7901,-363.0798 619.7118,-355.6427"/>
<polygon fill="#191970" stroke="#191970" points="605.7311,-381.6582 605.3321,-392.2455 612.2463,-384.2178 605.7311,-381.6582"/>
</g>
<!-- Node20&#45;&gt;Node10 -->
<g id="edge31" class="edge">
<title>Node20&#45;&gt;Node10</title>
<path fill="none" stroke="#191970" d="M667.1817,-337.2248C705.3386,-328.7254 756.8547,-314.9568 771.5,-300 792.8559,-278.1899 790.5,-264.5246 790.5,-234 790.5,-234 790.5,-234 790.5,-178 790.5,-117.8506 712.4027,-86.3857 668.168,-73.3879"/>
<polygon fill="#191970" stroke="#191970" points="666.3349,-333.8271 657.3083,-339.3743 667.824,-340.6669 666.3349,-333.8271"/>
</g>
<!-- Node20&#45;&gt;Node17 -->
<g id="edge26" class="edge">
<title>Node20&#45;&gt;Node17</title>
<path fill="none" stroke="#191970" d="M600.0727,-330.1886C590.5575,-322.3502 580.6156,-311.9878 575.5,-300 558.8898,-261.0756 574.7502,-208.9464 582.6364,-187.6623"/>
<polygon fill="#191970" stroke="#191970" points="598.1246,-333.1051 608.1926,-336.4046 602.3797,-327.5468 598.1246,-333.1051"/>
</g>
<!-- Node21 -->
<g id="node21" class="node">
<title>Node21</title>
<g id="a_node21"><a xlink:href="api_2spec_2classification_8h.html" target="_top" xlink:title="ODP classification descriptor. ">
<polygon fill="#ffffff" stroke="#000000" points="680.5,-280.5 680.5,-299.5 762.5,-299.5 762.5,-280.5 680.5,-280.5"/>
<text text-anchor="middle" x="721.5" y="-287.5" font-family="Helvetica,sans-Serif" font-size="10.00" fill="#000000">classification.h</text>
</a>
</g>
</g>
<!-- Node20&#45;&gt;Node21 -->
<g id="edge22" class="edge">
<title>Node20&#45;&gt;Node21</title>
<path fill="none" stroke="#191970" d="M649.6686,-331.0465C667.1058,-321.0824 689.5111,-308.2794 704.6253,-299.6427"/>
<polygon fill="#191970" stroke="#191970" points="647.5162,-328.2453 640.5703,-336.2455 650.9892,-334.323 647.5162,-328.2453"/>
</g>
<!-- Node23 -->
<g id="node23" class="node">
<title>Node23</title>
<g id="a_node23"><a xlink:href="api_2spec_2traffic__mngr_8h.html" target="_top" xlink:title="Copyright (c) 2015&#45;2018, Linaro Limited All rights reserved. ">
<polygon fill="#ffffff" stroke="#000000" points="585,-280.5 585,-299.5 662,-299.5 662,-280.5 585,-280.5"/>
<text text-anchor="middle" x="623.5" y="-287.5" font-family="Helvetica,sans-Serif" font-size="10.00" fill="#000000">traffic_mngr.h</text>
</a>
</g>
</g>
<!-- Node20&#45;&gt;Node23 -->
<g id="edge27" class="edge">
<title>Node20&#45;&gt;Node23</title>
<path fill="none" stroke="#191970" d="M623.5,-326.1575C623.5,-317.155 623.5,-306.9199 623.5,-299.6427"/>
<polygon fill="#191970" stroke="#191970" points="620.0001,-326.2455 623.5,-336.2455 627.0001,-326.2456 620.0001,-326.2455"/>
</g>
<!-- Node22 -->
<g id="node22" class="node">
<title>Node22</title>
<g id="a_node22"><a xlink:href="api_2classification_8h.html" target="_top" xlink:title="ODP classification descriptor. ">
<polygon fill="#ffffff" stroke="#000000" points="680.5,-224.5 680.5,-243.5 762.5,-243.5 762.5,-224.5 680.5,-224.5"/>
<text text-anchor="middle" x="721.5" y="-231.5" font-family="Helvetica,sans-Serif" font-size="10.00" fill="#000000">classification.h</text>
</a>
</g>
</g>
<!-- Node21&#45;&gt;Node22 -->
<g id="edge23" class="edge">
<title>Node21&#45;&gt;Node22</title>
<path fill="none" stroke="#191970" d="M721.5,-270.1575C721.5,-261.155 721.5,-250.9199 721.5,-243.6427"/>
<polygon fill="#191970" stroke="#191970" points="718.0001,-270.2455 721.5,-280.2455 725.0001,-270.2456 718.0001,-270.2455"/>
</g>
<!-- Node22&#45;&gt;Node10 -->
<g id="edge25" class="edge">
<title>Node22&#45;&gt;Node10</title>
<path fill="none" stroke="#191970" d="M712.2063,-215.1887C694.5627,-179.4762 656.7792,-102.9988 643.3554,-75.8279"/>
<polygon fill="#191970" stroke="#191970" points="709.2324,-217.071 716.7997,-224.4862 715.5082,-213.9704 709.2324,-217.071"/>
</g>
<!-- Node22&#45;&gt;Node17 -->
<g id="edge24" class="edge">
<title>Node22&#45;&gt;Node17</title>
<path fill="none" stroke="#191970" d="M689.0009,-220.5189C664.4146,-210.3201 631.2634,-196.5685 609.4045,-187.5011"/>
<polygon fill="#191970" stroke="#191970" points="687.7148,-223.7745 698.2927,-224.3733 690.3969,-217.3087 687.7148,-223.7745"/>
</g>
<!-- Node24 -->
<g id="node24" class="node">
<title>Node24</title>
<g id="a_node24"><a xlink:href="api_2traffic__mngr_8h.html" target="_top" xlink:title="ODP Traffic manager. ">
<polygon fill="#ffffff" stroke="#000000" points="585,-224.5 585,-243.5 662,-243.5 662,-224.5 585,-224.5"/>
<text text-anchor="middle" x="623.5" y="-231.5" font-family="Helvetica,sans-Serif" font-size="10.00" fill="#000000">traffic_mngr.h</text>
</a>
</g>
</g>
<!-- Node23&#45;&gt;Node24 -->
<g id="edge28" class="edge">
<title>Node23&#45;&gt;Node24</title>
<path fill="none" stroke="#191970" d="M623.5,-270.1575C623.5,-261.155 623.5,-250.9199 623.5,-243.6427"/>
<polygon fill="#191970" stroke="#191970" points="620.0001,-270.2455 623.5,-280.2455 627.0001,-270.2456 620.0001,-270.2455"/>
</g>
<!-- Node24&#45;&gt;Node10 -->
<g id="edge30" class="edge">
<title>Node24&#45;&gt;Node10</title>
<path fill="none" stroke="#191970" d="M625.2625,-214.2601C628.4851,-178.1669 635.2174,-102.7656 637.6225,-75.8279"/>
<polygon fill="#191970" stroke="#191970" points="621.7527,-214.2146 624.3494,-224.4862 628.725,-214.8372 621.7527,-214.2146"/>
</g>
<!-- Node24&#45;&gt;Node17 -->
<g id="edge29" class="edge">
<title>Node24&#45;&gt;Node17</title>
<path fill="none" stroke="#191970" d="M611.3624,-215.6296C605.1907,-206.2887 597.9434,-195.3197 592.8711,-187.6427"/>
<polygon fill="#191970" stroke="#191970" points="608.6223,-217.8316 617.0551,-224.2455 614.4627,-213.9728 608.6223,-217.8316"/>
</g>
<!-- Node25&#45;&gt;Node9 -->
<g id="edge33" class="edge">
<title>Node25&#45;&gt;Node9</title>
<path fill="none" stroke="#191970" d="M704.1914,-385.645C715.3219,-375.9058 729.0663,-363.8795 738.4798,-355.6427"/>
<polygon fill="#191970" stroke="#191970" points="701.869,-383.0264 696.6479,-392.2455 706.4785,-388.2945 701.869,-383.0264"/>
</g>
</g>
</svg>
