<?xml version="1.0" encoding="UTF-8" standalone="no"?>
<!DOCTYPE svg PUBLIC "-//W3C//DTD SVG 1.1//EN"
 "http://www.w3.org/Graphics/SVG/1.1/DTD/svg11.dtd">
<!-- Generated by graphviz version 2.40.1 (20161225.0304)
 -->
<!-- Title: debug.h Pages: 1 -->
<svg width="294pt" height="140pt"
 viewBox="0.00 0.00 293.50 140.00" xmlns="http://www.w3.org/2000/svg" xmlns:xlink="http://www.w3.org/1999/xlink">
<g id="graph0" class="graph" transform="scale(1 1) rotate(0) translate(4 136)">
<title>debug.h</title>
<polygon fill="#ffffff" stroke="transparent" points="-4,4 -4,-136 289.5,-136 289.5,4 -4,4"/>
<!-- Node0 -->
<g id="node1" class="node">
<title>Node0</title>
<polygon fill="#bfbfbf" stroke="#000000" points="87,-112.5 87,-131.5 138,-131.5 138,-112.5 87,-112.5"/>
<text text-anchor="middle" x="112.5" y="-119.5" font-family="Helvetica,sans-Serif" font-size="10.00" fill="#000000">debug.h</text>
</g>
<!-- Node1 -->
<g id="node2" class="node">
<title>Node1</title>
<polygon fill="#ffffff" stroke="#bfbfbf" points="0,-56.5 0,-75.5 101,-75.5 101,-56.5 0,-56.5"/>
<text text-anchor="middle" x="50.5" y="-63.5" font-family="Helvetica,sans-Serif" font-size="10.00" fill="#000000">odp/api/abi/debug.h</text>
</g>
<!-- Node0&#45;&gt;Node1 -->
<g id="edge1" class="edge">
<title>Node0&#45;&gt;Node1</title>
<path fill="none" stroke="#191970" d="M101.7004,-112.2455C92.6322,-104.0549 79.4794,-92.1749 68.7755,-82.5069"/>
<polygon fill="#191970" stroke="#191970" points="70.9429,-79.7482 61.1758,-75.6427 66.2509,-84.9429 70.9429,-79.7482"/>
</g>
<!-- Node2 -->
<g id="node3" class="node">
<title>Node2</title>
<g id="a_node3"><a xlink:href="api_2spec_2debug_8h.html" target="_top" xlink:title="ODP debug. ">
<polygon fill="#ffffff" stroke="#000000" points="119.5,-56.5 119.5,-75.5 229.5,-75.5 229.5,-56.5 119.5,-56.5"/>
<text text-anchor="middle" x="174.5" y="-63.5" font-family="Helvetica,sans-Serif" font-size="10.00" fill="#000000">odp/api/spec/debug.h</text>
</a>
</g>
</g>
<!-- Node0&#45;&gt;Node2 -->
<g id="edge2" class="edge">
<title>Node0&#45;&gt;Node2</title>
<path fill="none" stroke="#191970" d="M123.2996,-112.2455C132.3678,-104.0549 145.5206,-92.1749 156.2245,-82.5069"/>
<polygon fill="#191970" stroke="#191970" points="158.7491,-84.9429 163.8242,-75.6427 154.0571,-79.7482 158.7491,-84.9429"/>
</g>
<!-- Node3 -->
<g id="node4" class="node">
<title>Node3</title>
<g id="a_node4"><a xlink:href="visibility__begin_8h_source.html" target="_top" xlink:title="odp/visibility_begin.h">
<polygon fill="#ffffff" stroke="#000000" points="60,-.5 60,-19.5 167,-19.5 167,-.5 60,-.5"/>
<text text-anchor="middle" x="113.5" y="-7.5" font-family="Helvetica,sans-Serif" font-size="10.00" fill="#000000">odp/visibility_begin.h</text>
</a>
</g>
</g>
<!-- Node2&#45;&gt;Node3 -->
<g id="edge3" class="edge">
<title>Node2&#45;&gt;Node3</title>
<path fill="none" stroke="#191970" d="M163.8746,-56.2455C154.9527,-48.0549 142.012,-36.1749 131.4808,-26.5069"/>
<polygon fill="#191970" stroke="#191970" points="133.7371,-23.8271 124.0036,-19.6427 129.0032,-28.9837 133.7371,-23.8271"/>
</g>
<!-- Node4 -->
<g id="node5" class="node">
<title>Node4</title>
<g id="a_node5"><a xlink:href="visibility__end_8h_source.html" target="_top" xlink:title="odp/visibility_end.h">
<polygon fill="#ffffff" stroke="#000000" points="185.5,-.5 185.5,-19.5 285.5,-19.5 285.5,-.5 185.5,-.5"/>
<text text-anchor="middle" x="235.5" y="-7.5" font-family="Helvetica,sans-Serif" font-size="10.00" fill="#000000">odp/visibility_end.h</text>
</a>
</g>
</g>
<!-- Node2&#45;&gt;Node4 -->
<g id="edge4" class="edge">
<title>Node2&#45;&gt;Node4</title>
<path fill="none" stroke="#191970" d="M185.1254,-56.2455C194.0473,-48.0549 206.988,-36.1749 217.5192,-26.5069"/>
<polygon fill="#191970" stroke="#191970" points="219.9968,-28.9837 224.9964,-19.6427 215.2629,-23.8271 219.9968,-28.9837"/>
</g>
</g>
</svg>
