<?xml version="1.0" encoding="UTF-8" standalone="no"?>
<!DOCTYPE svg PUBLIC "-//W3C//DTD SVG 1.1//EN"
 "http://www.w3.org/Graphics/SVG/1.1/DTD/svg11.dtd">
<!-- Generated by graphviz version 2.40.1 (20161225.0304)
 -->
<!-- Title: init.h Pages: 1 -->
<svg width="1202pt" height="487pt"
 viewBox="0.00 0.00 1201.98 487.00" xmlns="http://www.w3.org/2000/svg" xmlns:xlink="http://www.w3.org/1999/xlink">
<g id="graph0" class="graph" transform="scale(1 1) rotate(0) translate(4 483)">
<title>init.h</title>
<polygon fill="#ffffff" stroke="transparent" points="-4,4 -4,-483 1197.9809,-483 1197.9809,4 -4,4"/>
<!-- Node0 -->
<g id="node1" class="node">
<title>Node0</title>
<polygon fill="#bfbfbf" stroke="#000000" points="403,-459.5 403,-478.5 441,-478.5 441,-459.5 403,-459.5"/>
<text text-anchor="middle" x="422" y="-466.5" font-family="Helvetica,sans-Serif" font-size="10.00" fill="#000000">init.h</text>
</g>
<!-- Node1 -->
<g id="node2" class="node">
<title>Node1</title>
<polygon fill="#ffffff" stroke="#bfbfbf" points="323,-403.5 323,-422.5 411,-422.5 411,-403.5 323,-403.5"/>
<text text-anchor="middle" x="367" y="-410.5" font-family="Helvetica,sans-Serif" font-size="10.00" fill="#000000">odp/api/abi/init.h</text>
</g>
<!-- Node0&#45;&gt;Node1 -->
<g id="edge1" class="edge">
<title>Node0&#45;&gt;Node1</title>
<path fill="none" stroke="#191970" d="M412.4197,-459.2455C404.4542,-451.1352 392.9359,-439.4075 383.4921,-429.7919"/>
<polygon fill="#191970" stroke="#191970" points="385.9747,-427.3247 376.4705,-422.6427 380.9805,-432.2297 385.9747,-427.3247"/>
</g>
<!-- Node2 -->
<g id="node3" class="node">
<title>Node2</title>
<g id="a_node3"><a xlink:href="api_2spec_2init_8h.html" target="_top" xlink:title="odp/api/spec/init.h">
<polygon fill="#ffffff" stroke="#000000" points="429,-403.5 429,-422.5 525,-422.5 525,-403.5 429,-403.5"/>
<text text-anchor="middle" x="477" y="-410.5" font-family="Helvetica,sans-Serif" font-size="10.00" fill="#000000">odp/api/spec/init.h</text>
</a>
</g>
</g>
<!-- Node0&#45;&gt;Node2 -->
<g id="edge2" class="edge">
<title>Node0&#45;&gt;Node2</title>
<path fill="none" stroke="#191970" d="M431.5803,-459.2455C439.5458,-451.1352 451.0641,-439.4075 460.5079,-429.7919"/>
<polygon fill="#191970" stroke="#191970" points="463.0195,-432.2297 467.5295,-422.6427 458.0253,-427.3247 463.0195,-432.2297"/>
</g>
<!-- Node3 -->
<g id="node4" class="node">
<title>Node3</title>
<g id="a_node4"><a xlink:href="visibility__begin_8h_source.html" target="_top" xlink:title="odp/visibility_begin.h">
<polygon fill="#ffffff" stroke="#000000" points="102.5,-.5 102.5,-19.5 209.5,-19.5 209.5,-.5 102.5,-.5"/>
<text text-anchor="middle" x="156" y="-7.5" font-family="Helvetica,sans-Serif" font-size="10.00" fill="#000000">odp/visibility_begin.h</text>
</a>
</g>
</g>
<!-- Node2&#45;&gt;Node3 -->
<g id="edge3" class="edge">
<title>Node2&#45;&gt;Node3</title>
<path fill="none" stroke="#191970" d="M428.8207,-404.4057C425.8379,-403.9176 422.8794,-403.4451 420,-403 325.0809,-388.3285 0,-397.0463 0,-301 0,-301 0,-301 0,-133 0,-74.8809 67.5951,-39.9803 113.7954,-22.9138"/>
<polygon fill="#191970" stroke="#191970" points="115.0443,-26.1845 123.2973,-19.5407 112.7026,-19.5878 115.0443,-26.1845"/>
</g>
<!-- Node4 -->
<g id="node5" class="node">
<title>Node4</title>
<g id="a_node5"><a xlink:href="api_2std__types_8h.html" target="_top" xlink:title="Standard C language types and definitions for ODP. ">
<polygon fill="#ffffff" stroke="#000000" points="341,-235.5 341,-254.5 443,-254.5 443,-235.5 341,-235.5"/>
<text text-anchor="middle" x="392" y="-242.5" font-family="Helvetica,sans-Serif" font-size="10.00" fill="#000000">odp/api/std_types.h</text>
</a>
</g>
</g>
<!-- Node2&#45;&gt;Node4 -->
<g id="edge4" class="edge">
<title>Node2&#45;&gt;Node4</title>
<path fill="none" stroke="#191970" d="M460.9229,-403.2733C448.7328,-395.0779 432.5057,-382.2623 423,-367 402.9622,-334.8274 395.8465,-290.2509 393.3408,-264.8445"/>
<polygon fill="#191970" stroke="#191970" points="396.808,-264.3061 392.4841,-254.6337 389.8326,-264.8914 396.808,-264.3061"/>
</g>
<!-- Node11 -->
<g id="node12" class="node">
<title>Node11</title>
<g id="a_node12"><a xlink:href="visibility__end_8h_source.html" target="_top" xlink:title="odp/visibility_end.h">
<polygon fill="#ffffff" stroke="#000000" points="505,-.5 505,-19.5 605,-19.5 605,-.5 505,-.5"/>
<text text-anchor="middle" x="555" y="-7.5" font-family="Helvetica,sans-Serif" font-size="10.00" fill="#000000">odp/visibility_end.h</text>
</a>
</g>
</g>
<!-- Node2&#45;&gt;Node11 -->
<g id="edge35" class="edge">
<title>Node2&#45;&gt;Node11</title>
<path fill="none" stroke="#191970" d="M525.0234,-410.5601C685.3353,-401.7837 1192,-368.6916 1192,-301 1192,-301 1192,-301 1192,-133 1192,-97.7513 1199.9236,-78.7506 1173,-56 1131.0181,-20.5252 762.291,-12.3746 615.2007,-10.5298"/>
<polygon fill="#191970" stroke="#191970" points="615.042,-7.0277 605.0008,-10.4075 614.9581,-14.0272 615.042,-7.0277"/>
</g>
<!-- Node12 -->
<g id="node13" class="node">
<title>Node12</title>
<g id="a_node13"><a xlink:href="hints_8h.html" target="_top" xlink:title="ODP compiler hints. ">
<polygon fill="#ffffff" stroke="#000000" points="160,-347.5 160,-366.5 240,-366.5 240,-347.5 160,-347.5"/>
<text text-anchor="middle" x="200" y="-354.5" font-family="Helvetica,sans-Serif" font-size="10.00" fill="#000000">odp/api/hints.h</text>
</a>
</g>
</g>
<!-- Node2&#45;&gt;Node12 -->
<g id="edge15" class="edge">
<title>Node2&#45;&gt;Node12</title>
<path fill="none" stroke="#191970" d="M429.6967,-403.4369C379.719,-393.3331 301.2212,-377.4635 250.1806,-367.1448"/>
<polygon fill="#191970" stroke="#191970" points="250.8504,-363.7095 240.3552,-365.1584 249.4633,-370.5707 250.8504,-363.7095"/>
</g>
<!-- Node14 -->
<g id="node15" class="node">
<title>Node14</title>
<g id="a_node15"><a xlink:href="feature_8h.html" target="_top" xlink:title="ODP features. ">
<polygon fill="#ffffff" stroke="#000000" points="432.5,-347.5 432.5,-366.5 521.5,-366.5 521.5,-347.5 432.5,-347.5"/>
<text text-anchor="middle" x="477" y="-354.5" font-family="Helvetica,sans-Serif" font-size="10.00" fill="#000000">odp/api/feature.h</text>
</a>
</g>
</g>
<!-- Node2&#45;&gt;Node14 -->
<g id="edge19" class="edge">
<title>Node2&#45;&gt;Node14</title>
<path fill="none" stroke="#191970" d="M477,-403.2455C477,-395.9382 477,-385.6944 477,-376.7046"/>
<polygon fill="#191970" stroke="#191970" points="480.5001,-376.6426 477,-366.6427 473.5001,-376.6427 480.5001,-376.6426"/>
</g>
<!-- Node16 -->
<g id="node17" class="node">
<title>Node16</title>
<g id="a_node17"><a xlink:href="api_2thread_8h.html" target="_top" xlink:title="ODP thread API. ">
<polygon fill="#ffffff" stroke="#000000" points="721,-123.5 721,-142.5 807,-142.5 807,-123.5 721,-123.5"/>
<text text-anchor="middle" x="764" y="-130.5" font-family="Helvetica,sans-Serif" font-size="10.00" fill="#000000">odp/api/thread.h</text>
</a>
</g>
</g>
<!-- Node2&#45;&gt;Node16 -->
<g id="edge24" class="edge">
<title>Node2&#45;&gt;Node16</title>
<path fill="none" stroke="#191970" d="M525.2615,-411.0933C640.8459,-405.2167 924,-382.5031 924,-301 924,-301 924,-301 924,-245 924,-190.7109 861.413,-160.5195 814.5272,-145.5189"/>
<polygon fill="#191970" stroke="#191970" points="815.375,-142.1183 804.7887,-142.5453 813.3307,-148.8132 815.375,-142.1183"/>
</g>
<!-- Node20 -->
<g id="node21" class="node">
<title>Node20</title>
<g id="a_node21"><a xlink:href="api_2cpumask_8h.html" target="_top" xlink:title="ODP CPU masks and enumeration. ">
<polygon fill="#ffffff" stroke="#000000" points="914.5,-123.5 914.5,-142.5 1013.5,-142.5 1013.5,-123.5 914.5,-123.5"/>
<text text-anchor="middle" x="964" y="-130.5" font-family="Helvetica,sans-Serif" font-size="10.00" fill="#000000">odp/api/cpumask.h</text>
</a>
</g>
</g>
<!-- Node2&#45;&gt;Node20 -->
<g id="edge30" class="edge">
<title>Node2&#45;&gt;Node20</title>
<path fill="none" stroke="#191970" d="M525.2671,-410.916C618.2567,-406.3481 818.6527,-393.6636 882,-367 924.8006,-348.9847 963,-347.4375 963,-301 963,-301 963,-301 963,-245 963,-212.7103 963.4207,-175.1863 963.7164,-152.8043"/>
<polygon fill="#191970" stroke="#191970" points="967.219,-152.6353 963.8567,-142.5881 960.2196,-152.5391 967.219,-152.6353"/>
</g>
<!-- Node5 -->
<g id="node6" class="node">
<title>Node5</title>
<polygon fill="#ffffff" stroke="#bfbfbf" points="193,-179.5 193,-198.5 311,-198.5 311,-179.5 193,-179.5"/>
<text text-anchor="middle" x="252" y="-186.5" font-family="Helvetica,sans-Serif" font-size="10.00" fill="#000000">odp/api/abi/std_types.h</text>
</g>
<!-- Node4&#45;&gt;Node5 -->
<g id="edge5" class="edge">
<title>Node4&#45;&gt;Node5</title>
<path fill="none" stroke="#191970" d="M367.9331,-235.3733C345.1572,-226.2629 310.7656,-212.5062 285.351,-202.3404"/>
<polygon fill="#191970" stroke="#191970" points="286.3375,-198.9654 275.7528,-198.5011 283.7377,-205.4648 286.3375,-198.9654"/>
</g>
<!-- Node6 -->
<g id="node7" class="node">
<title>Node6</title>
<g id="a_node7"><a xlink:href="api_2spec_2std__types_8h.html" target="_top" xlink:title="Standard C language types and definitions for ODP. ">
<polygon fill="#ffffff" stroke="#000000" points="329,-179.5 329,-198.5 455,-198.5 455,-179.5 329,-179.5"/>
<text text-anchor="middle" x="392" y="-186.5" font-family="Helvetica,sans-Serif" font-size="10.00" fill="#000000">odp/api/spec/std_types.h</text>
</a>
</g>
</g>
<!-- Node4&#45;&gt;Node6 -->
<g id="edge6" class="edge">
<title>Node4&#45;&gt;Node6</title>
<path fill="none" stroke="#191970" d="M392,-235.2455C392,-227.9382 392,-217.6944 392,-208.7046"/>
<polygon fill="#191970" stroke="#191970" points="395.5001,-208.6426 392,-198.6427 388.5001,-208.6427 395.5001,-208.6426"/>
</g>
<!-- Node6&#45;&gt;Node3 -->
<g id="edge7" class="edge">
<title>Node6&#45;&gt;Node3</title>
<path fill="none" stroke="#191970" d="M343.8257,-179.4825C267.5095,-163.3178 124.4199,-128.2103 95,-87 86.9947,-75.7865 88.8545,-68.3313 95,-56 101.6003,-42.756 114.0327,-32.3192 125.9605,-24.7581"/>
<polygon fill="#191970" stroke="#191970" points="128.0165,-27.6102 134.8784,-19.5378 124.4801,-21.5691 128.0165,-27.6102"/>
</g>
<!-- Node7 -->
<g id="node8" class="node">
<title>Node7</title>
<polygon fill="#ffffff" stroke="#bfbfbf" points="284.5,-123.5 284.5,-142.5 333.5,-142.5 333.5,-123.5 284.5,-123.5"/>
<text text-anchor="middle" x="309" y="-130.5" font-family="Helvetica,sans-Serif" font-size="10.00" fill="#000000">stdint.h</text>
</g>
<!-- Node6&#45;&gt;Node7 -->
<g id="edge8" class="edge">
<title>Node6&#45;&gt;Node7</title>
<path fill="none" stroke="#191970" d="M377.5425,-179.2455C364.9268,-170.7337 346.4056,-158.2375 331.7955,-148.3801"/>
<polygon fill="#191970" stroke="#191970" points="333.5391,-145.3343 323.2918,-142.6427 329.6239,-151.1371 333.5391,-145.3343"/>
</g>
<!-- Node8 -->
<g id="node9" class="node">
<title>Node8</title>
<g id="a_node9"><a xlink:href="api_2align_8h.html" target="_top" xlink:title="ODP alignments. ">
<polygon fill="#ffffff" stroke="#000000" points="352,-123.5 352,-142.5 432,-142.5 432,-123.5 352,-123.5"/>
<text text-anchor="middle" x="392" y="-130.5" font-family="Helvetica,sans-Serif" font-size="10.00" fill="#000000">odp/api/align.h</text>
</a>
</g>
</g>
<!-- Node6&#45;&gt;Node8 -->
<g id="edge9" class="edge">
<title>Node6&#45;&gt;Node8</title>
<path fill="none" stroke="#191970" d="M392,-179.2455C392,-171.9382 392,-161.6944 392,-152.7046"/>
<polygon fill="#191970" stroke="#191970" points="395.5001,-152.6426 392,-142.6427 388.5001,-152.6427 395.5001,-152.6426"/>
</g>
<!-- Node6&#45;&gt;Node11 -->
<g id="edge14" class="edge">
<title>Node6&#45;&gt;Node11</title>
<path fill="none" stroke="#191970" d="M404.242,-179.2797C414.7851,-170.5181 429.9963,-156.9093 441,-143 468.6697,-108.0239 461.1065,-89.0955 491,-56 501.9232,-43.9068 516.5341,-33.11 529.0376,-25.0207"/>
<polygon fill="#191970" stroke="#191970" points="531.0521,-27.8893 537.6868,-19.629 527.3491,-21.9489 531.0521,-27.8893"/>
</g>
<!-- Node9 -->
<g id="node10" class="node">
<title>Node9</title>
<polygon fill="#ffffff" stroke="#bfbfbf" points="226.5,-62 226.5,-81 321.5,-81 321.5,-62 226.5,-62"/>
<text text-anchor="middle" x="274" y="-69" font-family="Helvetica,sans-Serif" font-size="10.00" fill="#000000">odp/api/abi/align.h</text>
</g>
<!-- Node8&#45;&gt;Node9 -->
<g id="edge10" class="edge">
<title>Node8&#45;&gt;Node9</title>
<path fill="none" stroke="#191970" d="M373.5625,-123.3906C354.1653,-113.2811 323.431,-97.2628 301.2383,-85.6962"/>
<polygon fill="#191970" stroke="#191970" points="302.7936,-82.56 292.308,-81.0419 299.5582,-88.7675 302.7936,-82.56"/>
</g>
<!-- Node10 -->
<g id="node11" class="node">
<title>Node10</title>
<g id="a_node11"><a xlink:href="api_2spec_2align_8h.html" target="_top" xlink:title="ODP alignments. ">
<polygon fill="#ffffff" stroke="#000000" points="340,-62 340,-81 444,-81 444,-62 340,-62"/>
<text text-anchor="middle" x="392" y="-69" font-family="Helvetica,sans-Serif" font-size="10.00" fill="#000000">odp/api/spec/align.h</text>
</a>
</g>
</g>
<!-- Node8&#45;&gt;Node10 -->
<g id="edge11" class="edge">
<title>Node8&#45;&gt;Node10</title>
<path fill="none" stroke="#191970" d="M392,-123.3906C392,-114.8657 392,-102.1392 392,-91.4235"/>
<polygon fill="#191970" stroke="#191970" points="395.5001,-91.2448 392,-81.2449 388.5001,-91.2449 395.5001,-91.2448"/>
</g>
<!-- Node10&#45;&gt;Node3 -->
<g id="edge12" class="edge">
<title>Node10&#45;&gt;Node3</title>
<path fill="none" stroke="#191970" d="M355.3839,-61.9581C314.2189,-51.2308 247.2899,-33.7895 202.4709,-22.11"/>
<polygon fill="#191970" stroke="#191970" points="203.2614,-18.6992 192.702,-19.5643 201.4962,-25.473 203.2614,-18.6992"/>
</g>
<!-- Node10&#45;&gt;Node11 -->
<g id="edge13" class="edge">
<title>Node10&#45;&gt;Node11</title>
<path fill="none" stroke="#191970" d="M417.4688,-61.8906C445.1005,-51.4652 489.3869,-34.7559 520.2128,-23.1252"/>
<polygon fill="#191970" stroke="#191970" points="521.5894,-26.3467 529.7101,-19.5419 519.1183,-19.7974 521.5894,-26.3467"/>
</g>
<!-- Node13 -->
<g id="node14" class="node">
<title>Node13</title>
<g id="a_node14"><a xlink:href="spec_2hints_8h.html" target="_top" xlink:title="ODP compiler hints. ">
<polygon fill="#ffffff" stroke="#000000" points="104,-62 104,-81 208,-81 208,-62 104,-62"/>
<text text-anchor="middle" x="156" y="-69" font-family="Helvetica,sans-Serif" font-size="10.00" fill="#000000">odp/api/spec/hints.h</text>
</a>
</g>
</g>
<!-- Node12&#45;&gt;Node13 -->
<g id="edge16" class="edge">
<title>Node12&#45;&gt;Node13</title>
<path fill="none" stroke="#191970" d="M174.6075,-347.4421C138.3297,-331.9427 76,-297.6516 76,-245 76,-245 76,-245 76,-189 76,-146.8353 111.6343,-108.6145 135.3379,-87.8547"/>
<polygon fill="#191970" stroke="#191970" points="137.7635,-90.3874 143.1466,-81.262 133.2478,-85.0387 137.7635,-90.3874"/>
</g>
<!-- Node13&#45;&gt;Node3 -->
<g id="edge17" class="edge">
<title>Node13&#45;&gt;Node3</title>
<path fill="none" stroke="#191970" d="M156,-61.8906C156,-53.3657 156,-40.6392 156,-29.9235"/>
<polygon fill="#191970" stroke="#191970" points="159.5001,-29.7448 156,-19.7449 152.5001,-29.7449 159.5001,-29.7448"/>
</g>
<!-- Node13&#45;&gt;Node11 -->
<g id="edge18" class="edge">
<title>Node13&#45;&gt;Node11</title>
<path fill="none" stroke="#191970" d="M190.6848,-61.9608C199.2444,-59.8078 208.4193,-57.6685 217,-56 313.4884,-37.2384 426.943,-23.4683 494.8029,-16.104"/>
<polygon fill="#191970" stroke="#191970" points="495.3159,-19.5691 504.8847,-15.0207 494.568,-12.6092 495.3159,-19.5691"/>
</g>
<!-- Node15 -->
<g id="node16" class="node">
<title>Node15</title>
<g id="a_node16"><a xlink:href="spec_2feature_8h.html" target="_top" xlink:title="ODP features. ">
<polygon fill="#ffffff" stroke="#000000" points="420.5,-291.5 420.5,-310.5 533.5,-310.5 533.5,-291.5 420.5,-291.5"/>
<text text-anchor="middle" x="477" y="-298.5" font-family="Helvetica,sans-Serif" font-size="10.00" fill="#000000">odp/api/spec/feature.h</text>
</a>
</g>
</g>
<!-- Node14&#45;&gt;Node15 -->
<g id="edge20" class="edge">
<title>Node14&#45;&gt;Node15</title>
<path fill="none" stroke="#191970" d="M477,-347.2455C477,-339.9382 477,-329.6944 477,-320.7046"/>
<polygon fill="#191970" stroke="#191970" points="480.5001,-320.6426 477,-310.6427 473.5001,-320.6427 480.5001,-320.6426"/>
</g>
<!-- Node15&#45;&gt;Node3 -->
<g id="edge21" class="edge">
<title>Node15&#45;&gt;Node3</title>
<path fill="none" stroke="#191970" d="M420.0585,-298.376C301.2758,-291.3454 38,-266.9683 38,-189 38,-189 38,-189 38,-133 38,-81.795 91.9114,-43.6158 126.8539,-24.2478"/>
<polygon fill="#191970" stroke="#191970" points="128.5465,-27.3118 135.7151,-19.5103 125.2461,-21.1387 128.5465,-27.3118"/>
</g>
<!-- Node15&#45;&gt;Node4 -->
<g id="edge22" class="edge">
<title>Node15&#45;&gt;Node4</title>
<path fill="none" stroke="#191970" d="M462.1941,-291.2455C449.2744,-282.7337 430.3069,-270.2375 415.3448,-260.3801"/>
<polygon fill="#191970" stroke="#191970" points="416.9124,-257.2216 406.6362,-254.6427 413.0613,-263.067 416.9124,-257.2216"/>
</g>
<!-- Node15&#45;&gt;Node11 -->
<g id="edge23" class="edge">
<title>Node15&#45;&gt;Node11</title>
<path fill="none" stroke="#191970" d="M499.1654,-291.4561C562.2958,-264.3441 748.5839,-184.8314 905,-123 947.3772,-106.2483 975.0447,-124.4535 1001,-87 1008.8478,-75.6757 1010.2291,-66.2299 1001,-56 975.6294,-27.8781 731.0509,-15.9284 615.2374,-11.815"/>
<polygon fill="#191970" stroke="#191970" points="615.2281,-8.3127 605.1127,-11.4637 614.9853,-15.3085 615.2281,-8.3127"/>
</g>
<!-- Node17 -->
<g id="node18" class="node">
<title>Node17</title>
<g id="a_node18"><a xlink:href="thread__types_8h.html" target="_top" xlink:title="ODP thread API types. ">
<polygon fill="#ffffff" stroke="#000000" points="748,-56.5 748,-86.5 850,-86.5 850,-56.5 748,-56.5"/>
<text text-anchor="start" x="756" y="-74.5" font-family="Helvetica,sans-Serif" font-size="10.00" fill="#000000">odp/api/spec/thread</text>
<text text-anchor="middle" x="799" y="-63.5" font-family="Helvetica,sans-Serif" font-size="10.00" fill="#000000">_types.h</text>
</a>
</g>
</g>
<!-- Node16&#45;&gt;Node17 -->
<g id="edge25" class="edge">
<title>Node16&#45;&gt;Node17</title>
<path fill="none" stroke="#191970" d="M769.4688,-123.3906C773.7231,-115.9151 779.8162,-105.2087 785.3639,-95.4605"/>
<polygon fill="#191970" stroke="#191970" points="788.5337,-96.9669 790.438,-86.5446 782.4499,-93.5045 788.5337,-96.9669"/>
</g>
<!-- Node18 -->
<g id="node19" class="node">
<title>Node18</title>
<polygon fill="#ffffff" stroke="#bfbfbf" points="628,-62 628,-81 730,-81 730,-62 628,-62"/>
<text text-anchor="middle" x="679" y="-69" font-family="Helvetica,sans-Serif" font-size="10.00" fill="#000000">odp/api/abi/thread.h</text>
</g>
<!-- Node16&#45;&gt;Node18 -->
<g id="edge26" class="edge">
<title>Node16&#45;&gt;Node18</title>
<path fill="none" stroke="#191970" d="M750.7188,-123.3906C737.2452,-113.6421 716.178,-98.3994 700.3565,-86.9521"/>
<polygon fill="#191970" stroke="#191970" points="702.3414,-84.0682 692.188,-81.0419 698.2381,-89.7394 702.3414,-84.0682"/>
</g>
<!-- Node19 -->
<g id="node20" class="node">
<title>Node19</title>
<g id="a_node20"><a xlink:href="api_2spec_2thread_8h.html" target="_top" xlink:title="ODP thread API. ">
<polygon fill="#ffffff" stroke="#000000" points="500,-62 500,-81 610,-81 610,-62 500,-62"/>
<text text-anchor="middle" x="555" y="-69" font-family="Helvetica,sans-Serif" font-size="10.00" fill="#000000">odp/api/spec/thread.h</text>
</a>
</g>
</g>
<!-- Node16&#45;&gt;Node19 -->
<g id="edge27" class="edge">
<title>Node16&#45;&gt;Node19</title>
<path fill="none" stroke="#191970" d="M731.3438,-123.3906C695.1472,-112.7395 636.6614,-95.5296 597.0625,-83.8772"/>
<polygon fill="#191970" stroke="#191970" points="598.0083,-80.5072 587.4269,-81.0419 596.0322,-87.2225 598.0083,-80.5072"/>
</g>
<!-- Node19&#45;&gt;Node3 -->
<g id="edge28" class="edge">
<title>Node19&#45;&gt;Node3</title>
<path fill="none" stroke="#191970" d="M499.9397,-63.0133C426.5921,-51.7078 297.1016,-31.7487 219.6483,-19.8105"/>
<polygon fill="#191970" stroke="#191970" points="219.9568,-16.3167 209.5403,-18.2525 218.8904,-23.235 219.9568,-16.3167"/>
</g>
<!-- Node19&#45;&gt;Node11 -->
<g id="edge29" class="edge">
<title>Node19&#45;&gt;Node11</title>
<path fill="none" stroke="#191970" d="M555,-61.8906C555,-53.3657 555,-40.6392 555,-29.9235"/>
<polygon fill="#191970" stroke="#191970" points="558.5001,-29.7448 555,-19.7449 551.5001,-29.7449 558.5001,-29.7448"/>
</g>
<!-- Node21 -->
<g id="node22" class="node">
<title>Node21</title>
<polygon fill="#ffffff" stroke="#bfbfbf" points="1048.5,-62 1048.5,-81 1163.5,-81 1163.5,-62 1048.5,-62"/>
<text text-anchor="middle" x="1106" y="-69" font-family="Helvetica,sans-Serif" font-size="10.00" fill="#000000">odp/api/abi/cpumask.h</text>
</g>
<!-- Node20&#45;&gt;Node21 -->
<g id="edge31" class="edge">
<title>Node20&#45;&gt;Node21</title>
<path fill="none" stroke="#191970" d="M986.1875,-123.3906C1009.9467,-113.1005 1047.8405,-96.6888 1074.6425,-85.0809"/>
<polygon fill="#191970" stroke="#191970" points="1076.183,-88.2279 1083.9683,-81.0419 1073.4009,-81.8045 1076.183,-88.2279"/>
</g>
<!-- Node22 -->
<g id="node23" class="node">
<title>Node22</title>
<g id="a_node23"><a xlink:href="api_2spec_2cpumask_8h.html" target="_top" xlink:title="ODP CPU masks and enumeration. ">
<polygon fill="#ffffff" stroke="#000000" points="868.5,-62 868.5,-81 991.5,-81 991.5,-62 868.5,-62"/>
<text text-anchor="middle" x="930" y="-69" font-family="Helvetica,sans-Serif" font-size="10.00" fill="#000000">odp/api/spec/cpumask.h</text>
</a>
</g>
</g>
<!-- Node20&#45;&gt;Node22 -->
<g id="edge32" class="edge">
<title>Node20&#45;&gt;Node22</title>
<path fill="none" stroke="#191970" d="M958.6875,-123.3906C953.7761,-114.5068 946.3421,-101.0601 940.2725,-90.0811"/>
<polygon fill="#191970" stroke="#191970" points="943.2888,-88.3031 935.3874,-81.2449 937.1627,-91.6899 943.2888,-88.3031"/>
</g>
<!-- Node22&#45;&gt;Node3 -->
<g id="edge33" class="edge">
<title>Node22&#45;&gt;Node3</title>
<path fill="none" stroke="#191970" d="M891.4984,-61.9967C881.0138,-59.71 869.6191,-57.498 859,-56 624.8746,-22.9734 343.4689,-13.5953 219.6954,-10.9829"/>
<polygon fill="#191970" stroke="#191970" points="219.7042,-7.4824 209.635,-10.7782 219.5617,-14.481 219.7042,-7.4824"/>
</g>
<!-- Node22&#45;&gt;Node11 -->
<g id="edge34" class="edge">
<title>Node22&#45;&gt;Node11</title>
<path fill="none" stroke="#191970" d="M888.4181,-61.9501C878.7832,-59.8687 868.5534,-57.7637 859,-56 774.7187,-40.4406 676.5738,-26.3036 615.1095,-17.9254"/>
<polygon fill="#191970" stroke="#191970" points="615.5738,-14.4564 605.1941,-16.5805 614.6328,-21.3929 615.5738,-14.4564"/>
</g>
</g>
</svg>
