<?xml version="1.0" encoding="UTF-8" standalone="no"?>
<!DOCTYPE svg PUBLIC "-//W3C//DTD SVG 1.1//EN"
 "http://www.w3.org/Graphics/SVG/1.1/DTD/svg11.dtd">
<!-- Generated by graphviz version 2.40.1 (20161225.0304)
 -->
<!-- Title: packet_io.h Pages: 1 -->
<svg width="368pt" height="308pt"
 viewBox="0.00 0.00 368.00 308.00" xmlns="http://www.w3.org/2000/svg" xmlns:xlink="http://www.w3.org/1999/xlink">
<g id="graph0" class="graph" transform="scale(1 1) rotate(0) translate(4 304)">
<title>packet_io.h</title>
<polygon fill="#ffffff" stroke="transparent" points="-4,4 -4,-304 364,-304 364,4 -4,4"/>
<!-- Node0 -->
<g id="node1" class="node">
<title>Node0</title>
<polygon fill="#bfbfbf" stroke="#000000" points="95.5,-280.5 95.5,-299.5 162.5,-299.5 162.5,-280.5 95.5,-280.5"/>
<text text-anchor="middle" x="129" y="-287.5" font-family="Helvetica,sans-Serif" font-size="10.00" fill="#000000">packet_io.h</text>
</g>
<!-- Node1 -->
<g id="node2" class="node">
<title>Node1</title>
<g id="a_node2"><a xlink:href="api_2std__types_8h.html" target="_top" xlink:title="Standard C language types and definitions for ODP. ">
<polygon fill="#ffffff" stroke="#000000" points="78,-224.5 78,-243.5 180,-243.5 180,-224.5 78,-224.5"/>
<text text-anchor="middle" x="129" y="-231.5" font-family="Helvetica,sans-Serif" font-size="10.00" fill="#000000">odp/api/std_types.h</text>
</a>
</g>
</g>
<!-- Node0&#45;&gt;Node1 -->
<g id="edge1" class="edge">
<title>Node0&#45;&gt;Node1</title>
<path fill="none" stroke="#191970" d="M129,-280.2455C129,-272.9382 129,-262.6944 129,-253.7046"/>
<polygon fill="#191970" stroke="#191970" points="132.5001,-253.6426 129,-243.6427 125.5001,-253.6427 132.5001,-253.6426"/>
</g>
<!-- Node2 -->
<g id="node3" class="node">
<title>Node2</title>
<polygon fill="#ffffff" stroke="#bfbfbf" points="0,-168.5 0,-187.5 118,-187.5 118,-168.5 0,-168.5"/>
<text text-anchor="middle" x="59" y="-175.5" font-family="Helvetica,sans-Serif" font-size="10.00" fill="#000000">odp/api/abi/std_types.h</text>
</g>
<!-- Node1&#45;&gt;Node2 -->
<g id="edge2" class="edge">
<title>Node1&#45;&gt;Node2</title>
<path fill="none" stroke="#191970" d="M116.8069,-224.2455C106.3679,-215.8943 91.1345,-203.7076 78.926,-193.9408"/>
<polygon fill="#191970" stroke="#191970" points="81.0485,-191.1566 71.0533,-187.6427 76.6756,-196.6227 81.0485,-191.1566"/>
</g>
<!-- Node3 -->
<g id="node4" class="node">
<title>Node3</title>
<g id="a_node4"><a xlink:href="api_2spec_2std__types_8h.html" target="_top" xlink:title="Standard C language types and definitions for ODP. ">
<polygon fill="#ffffff" stroke="#000000" points="136,-168.5 136,-187.5 262,-187.5 262,-168.5 136,-168.5"/>
<text text-anchor="middle" x="199" y="-175.5" font-family="Helvetica,sans-Serif" font-size="10.00" fill="#000000">odp/api/spec/std_types.h</text>
</a>
</g>
</g>
<!-- Node1&#45;&gt;Node3 -->
<g id="edge3" class="edge">
<title>Node1&#45;&gt;Node3</title>
<path fill="none" stroke="#191970" d="M141.1931,-224.2455C151.6321,-215.8943 166.8655,-203.7076 179.074,-193.9408"/>
<polygon fill="#191970" stroke="#191970" points="181.3244,-196.6227 186.9467,-187.6427 176.9515,-191.1566 181.3244,-196.6227"/>
</g>
<!-- Node4 -->
<g id="node5" class="node">
<title>Node4</title>
<g id="a_node5"><a xlink:href="visibility__begin_8h_source.html" target="_top" xlink:title="odp/visibility_begin.h">
<polygon fill="#ffffff" stroke="#000000" points="98.5,-.5 98.5,-19.5 205.5,-19.5 205.5,-.5 98.5,-.5"/>
<text text-anchor="middle" x="152" y="-7.5" font-family="Helvetica,sans-Serif" font-size="10.00" fill="#000000">odp/visibility_begin.h</text>
</a>
</g>
</g>
<!-- Node3&#45;&gt;Node4 -->
<g id="edge4" class="edge">
<title>Node3&#45;&gt;Node4</title>
<path fill="none" stroke="#191970" d="M176.7573,-168.3731C160.5354,-160.4727 138.8767,-147.9937 124,-132 104.9107,-111.4774 101.6328,-103.2321 95,-76 92.8965,-67.3636 91.1665,-64.0198 95,-56 101.1448,-43.1449 112.8299,-32.7306 124.0285,-25.0832"/>
<polygon fill="#191970" stroke="#191970" points="126.2041,-27.8488 132.79,-19.5495 122.4661,-21.9304 126.2041,-27.8488"/>
</g>
<!-- Node5 -->
<g id="node6" class="node">
<title>Node5</title>
<polygon fill="#ffffff" stroke="#bfbfbf" points="133.5,-112.5 133.5,-131.5 182.5,-131.5 182.5,-112.5 133.5,-112.5"/>
<text text-anchor="middle" x="158" y="-119.5" font-family="Helvetica,sans-Serif" font-size="10.00" fill="#000000">stdint.h</text>
</g>
<!-- Node3&#45;&gt;Node5 -->
<g id="edge5" class="edge">
<title>Node3&#45;&gt;Node5</title>
<path fill="none" stroke="#191970" d="M191.8583,-168.2455C186.1556,-160.4564 178.01,-149.3308 171.1375,-139.9439"/>
<polygon fill="#191970" stroke="#191970" points="173.7913,-137.6437 165.0598,-131.6427 168.1432,-141.7789 173.7913,-137.6437"/>
</g>
<!-- Node6 -->
<g id="node7" class="node">
<title>Node6</title>
<g id="a_node7"><a xlink:href="api_2align_8h.html" target="_top" xlink:title="ODP alignments. ">
<polygon fill="#ffffff" stroke="#000000" points="201,-112.5 201,-131.5 281,-131.5 281,-112.5 201,-112.5"/>
<text text-anchor="middle" x="241" y="-119.5" font-family="Helvetica,sans-Serif" font-size="10.00" fill="#000000">odp/api/align.h</text>
</a>
</g>
</g>
<!-- Node3&#45;&gt;Node6 -->
<g id="edge6" class="edge">
<title>Node3&#45;&gt;Node6</title>
<path fill="none" stroke="#191970" d="M206.3158,-168.2455C212.2179,-160.3761 220.6742,-149.101 227.7594,-139.6542"/>
<polygon fill="#191970" stroke="#191970" points="230.568,-141.7427 233.768,-131.6427 224.9679,-137.5427 230.568,-141.7427"/>
</g>
<!-- Node9 -->
<g id="node10" class="node">
<title>Node9</title>
<g id="a_node10"><a xlink:href="visibility__end_8h_source.html" target="_top" xlink:title="odp/visibility_end.h">
<polygon fill="#ffffff" stroke="#000000" points="260,-.5 260,-19.5 360,-19.5 360,-.5 260,-.5"/>
<text text-anchor="middle" x="310" y="-7.5" font-family="Helvetica,sans-Serif" font-size="10.00" fill="#000000">odp/visibility_end.h</text>
</a>
</g>
</g>
<!-- Node3&#45;&gt;Node9 -->
<g id="edge11" class="edge">
<title>Node3&#45;&gt;Node9</title>
<path fill="none" stroke="#191970" d="M225.6602,-168.4315C244.9276,-160.6345 270.8295,-148.2597 290,-132 313.5244,-112.0474 321.4143,-105.3193 331,-76 336.2319,-59.9976 329.4588,-41.7566 322.2476,-28.5127"/>
<polygon fill="#191970" stroke="#191970" points="325.2129,-26.6515 317.0848,-19.8557 319.2009,-30.237 325.2129,-26.6515"/>
</g>
<!-- Node7 -->
<g id="node8" class="node">
<title>Node7</title>
<polygon fill="#ffffff" stroke="#bfbfbf" points="104.5,-56.5 104.5,-75.5 199.5,-75.5 199.5,-56.5 104.5,-56.5"/>
<text text-anchor="middle" x="152" y="-63.5" font-family="Helvetica,sans-Serif" font-size="10.00" fill="#000000">odp/api/abi/align.h</text>
</g>
<!-- Node6&#45;&gt;Node7 -->
<g id="edge7" class="edge">
<title>Node6&#45;&gt;Node7</title>
<path fill="none" stroke="#191970" d="M225.4974,-112.2455C211.842,-103.6534 191.7343,-91.0014 176.0011,-81.1018"/>
<polygon fill="#191970" stroke="#191970" points="177.6529,-78.006 167.325,-75.6427 173.9249,-83.9307 177.6529,-78.006"/>
</g>
<!-- Node8 -->
<g id="node9" class="node">
<title>Node8</title>
<g id="a_node9"><a xlink:href="api_2spec_2align_8h.html" target="_top" xlink:title="ODP alignments. ">
<polygon fill="#ffffff" stroke="#000000" points="218,-56.5 218,-75.5 322,-75.5 322,-56.5 218,-56.5"/>
<text text-anchor="middle" x="270" y="-63.5" font-family="Helvetica,sans-Serif" font-size="10.00" fill="#000000">odp/api/spec/align.h</text>
</a>
</g>
</g>
<!-- Node6&#45;&gt;Node8 -->
<g id="edge8" class="edge">
<title>Node6&#45;&gt;Node8</title>
<path fill="none" stroke="#191970" d="M246.0514,-112.2455C250.0019,-104.617 255.6097,-93.7881 260.4058,-84.5267"/>
<polygon fill="#191970" stroke="#191970" points="263.5159,-86.1321 265.0065,-75.6427 257.2999,-82.9131 263.5159,-86.1321"/>
</g>
<!-- Node8&#45;&gt;Node4 -->
<g id="edge9" class="edge">
<title>Node8&#45;&gt;Node4</title>
<path fill="none" stroke="#191970" d="M249.7151,-56.3733C230.8579,-47.4241 202.554,-33.9917 181.2545,-23.8835"/>
<polygon fill="#191970" stroke="#191970" points="182.5551,-20.6266 172.0202,-19.5011 179.5539,-26.9506 182.5551,-20.6266"/>
</g>
<!-- Node8&#45;&gt;Node9 -->
<g id="edge10" class="edge">
<title>Node8&#45;&gt;Node9</title>
<path fill="none" stroke="#191970" d="M276.9675,-56.2455C282.5311,-48.4564 290.478,-37.3308 297.1829,-27.9439"/>
<polygon fill="#191970" stroke="#191970" points="300.148,-29.8144 303.1124,-19.6427 294.4519,-25.7457 300.148,-29.8144"/>
</g>
</g>
</svg>
