<?xml version="1.0" encoding="UTF-8" standalone="no"?>
<!DOCTYPE svg PUBLIC "-//W3C//DTD SVG 1.1//EN"
 "http://www.w3.org/Graphics/SVG/1.1/DTD/svg11.dtd">
<!-- Generated by graphviz version 2.40.1 (20161225.0304)
 -->
<!-- Title: timer.h Pages: 1 -->
<svg width="451pt" height="252pt"
 viewBox="0.00 0.00 451.00 252.00" xmlns="http://www.w3.org/2000/svg" xmlns:xlink="http://www.w3.org/1999/xlink">
<g id="graph0" class="graph" transform="scale(1 1) rotate(0) translate(4 248)">
<title>timer.h</title>
<polygon fill="#ffffff" stroke="transparent" points="-4,4 -4,-248 447,-248 447,4 -4,4"/>
<!-- Node1 -->
<g id="node1" class="node">
<title>Node1</title>
<polygon fill="#bfbfbf" stroke="#000000" points="195,-224.5 195,-243.5 242,-243.5 242,-224.5 195,-224.5"/>
<text text-anchor="middle" x="218.5" y="-231.5" font-family="Helvetica,sans-Serif" font-size="10.00" fill="#000000">timer.h</text>
</g>
<!-- Node2 -->
<g id="node2" class="node">
<title>Node2</title>
<g id="a_node2"><a xlink:href="arch_2arm32-linux_2odp_2api_2abi_2timer_8h_source.html" target="_top" xlink:title="timer.h">
<polygon fill="#ffffff" stroke="#000000" points="0,-168.5 0,-187.5 47,-187.5 47,-168.5 0,-168.5"/>
<text text-anchor="middle" x="23.5" y="-175.5" font-family="Helvetica,sans-Serif" font-size="10.00" fill="#000000">timer.h</text>
</a>
</g>
</g>
<!-- Node1&#45;&gt;Node2 -->
<g id="edge1" class="edge">
<title>Node1&#45;&gt;Node2</title>
<path fill="none" stroke="#191970" d="M184.886,-224.641C152.087,-215.465 100.7998,-201.0005 56.5,-188 53.513,-187.1234 50.3779,-186.1904 47.2781,-185.2599"/>
<polygon fill="#191970" stroke="#191970" points="184.2801,-228.1056 194.8531,-227.4258 186.1638,-221.3638 184.2801,-228.1056"/>
</g>
<!-- Node3 -->
<g id="node3" class="node">
<title>Node3</title>
<g id="a_node3"><a xlink:href="arch_2arm64-linux_2odp_2api_2abi_2timer_8h_source.html" target="_top" xlink:title="timer.h">
<polygon fill="#ffffff" stroke="#000000" points="65,-168.5 65,-187.5 112,-187.5 112,-168.5 65,-168.5"/>
<text text-anchor="middle" x="88.5" y="-175.5" font-family="Helvetica,sans-Serif" font-size="10.00" fill="#000000">timer.h</text>
</a>
</g>
</g>
<!-- Node1&#45;&gt;Node3 -->
<g id="edge2" class="edge">
<title>Node1&#45;&gt;Node3</title>
<path fill="none" stroke="#191970" d="M186.8898,-220.3833C163.2465,-210.1985 131.5124,-196.5284 110.5562,-187.5011"/>
<polygon fill="#191970" stroke="#191970" points="185.5834,-223.6314 196.1522,-224.3733 188.3528,-217.2025 185.5834,-223.6314"/>
</g>
<!-- Node4 -->
<g id="node4" class="node">
<title>Node4</title>
<g id="a_node4"><a xlink:href="arch_2default-linux_2odp_2api_2abi_2timer_8h_source.html" target="_top" xlink:title="timer.h">
<polygon fill="#ffffff" stroke="#000000" points="130,-168.5 130,-187.5 177,-187.5 177,-168.5 130,-168.5"/>
<text text-anchor="middle" x="153.5" y="-175.5" font-family="Helvetica,sans-Serif" font-size="10.00" fill="#000000">timer.h</text>
</a>
</g>
</g>
<!-- Node1&#45;&gt;Node4 -->
<g id="edge3" class="edge">
<title>Node1&#45;&gt;Node4</title>
<path fill="none" stroke="#191970" d="M199.5165,-217.645C188.2121,-207.9058 174.253,-195.8795 164.6924,-187.6427"/>
<polygon fill="#191970" stroke="#191970" points="197.3173,-220.3701 207.1779,-224.2455 201.8862,-215.0668 197.3173,-220.3701"/>
</g>
<!-- Node5 -->
<g id="node5" class="node">
<title>Node5</title>
<g id="a_node5"><a xlink:href="arch_2mips64-linux_2odp_2api_2abi_2timer_8h_source.html" target="_top" xlink:title="timer.h">
<polygon fill="#ffffff" stroke="#000000" points="195,-168.5 195,-187.5 242,-187.5 242,-168.5 195,-168.5"/>
<text text-anchor="middle" x="218.5" y="-175.5" font-family="Helvetica,sans-Serif" font-size="10.00" fill="#000000">timer.h</text>
</a>
</g>
</g>
<!-- Node1&#45;&gt;Node5 -->
<g id="edge4" class="edge">
<title>Node1&#45;&gt;Node5</title>
<path fill="none" stroke="#191970" d="M218.5,-214.1575C218.5,-205.155 218.5,-194.9199 218.5,-187.6427"/>
<polygon fill="#191970" stroke="#191970" points="215.0001,-214.2455 218.5,-224.2455 222.0001,-214.2456 215.0001,-214.2455"/>
</g>
<!-- Node6 -->
<g id="node6" class="node">
<title>Node6</title>
<g id="a_node6"><a xlink:href="arch_2power64-linux_2odp_2api_2abi_2timer_8h_source.html" target="_top" xlink:title="timer.h">
<polygon fill="#ffffff" stroke="#000000" points="260,-168.5 260,-187.5 307,-187.5 307,-168.5 260,-168.5"/>
<text text-anchor="middle" x="283.5" y="-175.5" font-family="Helvetica,sans-Serif" font-size="10.00" fill="#000000">timer.h</text>
</a>
</g>
</g>
<!-- Node1&#45;&gt;Node6 -->
<g id="edge5" class="edge">
<title>Node1&#45;&gt;Node6</title>
<path fill="none" stroke="#191970" d="M237.4835,-217.645C248.7879,-207.9058 262.747,-195.8795 272.3076,-187.6427"/>
<polygon fill="#191970" stroke="#191970" points="235.1138,-215.0668 229.8221,-224.2455 239.6827,-220.3701 235.1138,-215.0668"/>
</g>
<!-- Node7 -->
<g id="node7" class="node">
<title>Node7</title>
<g id="a_node7"><a xlink:href="arch_2x86__32-linux_2odp_2api_2abi_2timer_8h_source.html" target="_top" xlink:title="timer.h">
<polygon fill="#ffffff" stroke="#000000" points="325,-168.5 325,-187.5 372,-187.5 372,-168.5 325,-168.5"/>
<text text-anchor="middle" x="348.5" y="-175.5" font-family="Helvetica,sans-Serif" font-size="10.00" fill="#000000">timer.h</text>
</a>
</g>
</g>
<!-- Node1&#45;&gt;Node7 -->
<g id="edge6" class="edge">
<title>Node1&#45;&gt;Node7</title>
<path fill="none" stroke="#191970" d="M250.1102,-220.3833C273.7535,-210.1985 305.4876,-196.5284 326.4438,-187.5011"/>
<polygon fill="#191970" stroke="#191970" points="248.6472,-217.2025 240.8478,-224.3733 251.4166,-223.6314 248.6472,-217.2025"/>
</g>
<!-- Node8 -->
<g id="node8" class="node">
<title>Node8</title>
<g id="a_node8"><a xlink:href="arch_2x86__64-linux_2odp_2api_2abi_2timer_8h_source.html" target="_top" xlink:title="timer.h">
<polygon fill="#ffffff" stroke="#000000" points="390,-168.5 390,-187.5 437,-187.5 437,-168.5 390,-168.5"/>
<text text-anchor="middle" x="413.5" y="-175.5" font-family="Helvetica,sans-Serif" font-size="10.00" fill="#000000">timer.h</text>
</a>
</g>
</g>
<!-- Node1&#45;&gt;Node8 -->
<g id="edge7" class="edge">
<title>Node1&#45;&gt;Node8</title>
<path fill="none" stroke="#191970" d="M252.0682,-224.8206C285.0789,-215.7244 336.8663,-201.2692 381.5,-188 384.178,-187.2039 386.9768,-186.3547 389.7568,-185.5004"/>
<polygon fill="#191970" stroke="#191970" points="250.7572,-221.5511 242.0431,-227.5773 252.6132,-228.3005 250.7572,-221.5511"/>
</g>
<!-- Node9 -->
<g id="node9" class="node">
<title>Node9</title>
<g id="a_node9"><a xlink:href="api_2timer_8h.html" target="_top" xlink:title="ODP timer service. ">
<polygon fill="#ffffff" stroke="#000000" points="390,-112.5 390,-131.5 437,-131.5 437,-112.5 390,-112.5"/>
<text text-anchor="middle" x="413.5" y="-119.5" font-family="Helvetica,sans-Serif" font-size="10.00" fill="#000000">timer.h</text>
</a>
</g>
</g>
<!-- Node8&#45;&gt;Node9 -->
<g id="edge8" class="edge">
<title>Node8&#45;&gt;Node9</title>
<path fill="none" stroke="#191970" d="M413.5,-158.1575C413.5,-149.155 413.5,-138.9199 413.5,-131.6427"/>
<polygon fill="#191970" stroke="#191970" points="410.0001,-158.2455 413.5,-168.2455 417.0001,-158.2456 410.0001,-158.2455"/>
</g>
<!-- Node10 -->
<g id="node10" class="node">
<title>Node10</title>
<g id="a_node10"><a xlink:href="odp__api_8h.html" target="_top" xlink:title="The OpenDataPlane API. ">
<polygon fill="#ffffff" stroke="#000000" points="384,-56.5 384,-75.5 443,-75.5 443,-56.5 384,-56.5"/>
<text text-anchor="middle" x="413.5" y="-63.5" font-family="Helvetica,sans-Serif" font-size="10.00" fill="#000000">odp_api.h</text>
</a>
</g>
</g>
<!-- Node9&#45;&gt;Node10 -->
<g id="edge9" class="edge">
<title>Node9&#45;&gt;Node10</title>
<path fill="none" stroke="#191970" d="M413.5,-102.1575C413.5,-93.155 413.5,-82.9199 413.5,-75.6427"/>
<polygon fill="#191970" stroke="#191970" points="410.0001,-102.2455 413.5,-112.2455 417.0001,-102.2456 410.0001,-102.2455"/>
</g>
<!-- Node11 -->
<g id="node11" class="node">
<title>Node11</title>
<g id="a_node11"><a xlink:href="odp_8h.html" target="_top" xlink:title="WARNING: THIS FILE IS DEPRECATED AND WILL BE REMOVED!!! ODP APPLICATIONS SHOULD NOW INCLUDE odp_api...">
<polygon fill="#ffffff" stroke="#000000" points="393,-.5 393,-19.5 434,-19.5 434,-.5 393,-.5"/>
<text text-anchor="middle" x="413.5" y="-7.5" font-family="Helvetica,sans-Serif" font-size="10.00" fill="#000000">odp.h</text>
</a>
</g>
</g>
<!-- Node10&#45;&gt;Node11 -->
<g id="edge10" class="edge">
<title>Node10&#45;&gt;Node11</title>
<path fill="none" stroke="#191970" d="M413.5,-46.1575C413.5,-37.155 413.5,-26.9199 413.5,-19.6427"/>
<polygon fill="#191970" stroke="#191970" points="410.0001,-46.2455 413.5,-56.2455 417.0001,-46.2456 410.0001,-46.2455"/>
</g>
</g>
</svg>
