<?xml version="1.0" encoding="UTF-8" standalone="no"?>
<!DOCTYPE svg PUBLIC "-//W3C//DTD SVG 1.1//EN"
 "http://www.w3.org/Graphics/SVG/1.1/DTD/svg11.dtd">
<!-- Generated by graphviz version 2.40.1 (20161225.0304)
 -->
<!-- Title: align.h Pages: 1 -->
<svg width="2683pt" height="476pt"
 viewBox="0.00 0.00 2683.00 476.00" xmlns="http://www.w3.org/2000/svg" xmlns:xlink="http://www.w3.org/1999/xlink">
<g id="graph0" class="graph" transform="scale(1 1) rotate(0) translate(4 472)">
<title>align.h</title>
<polygon fill="#ffffff" stroke="transparent" points="-4,4 -4,-472 2679,-472 2679,4 -4,4"/>
<!-- Node5 -->
<g id="node1" class="node">
<title>Node5</title>
<polygon fill="#bfbfbf" stroke="#000000" points="1589.5,-448.5 1589.5,-467.5 1634.5,-467.5 1634.5,-448.5 1589.5,-448.5"/>
<text text-anchor="middle" x="1612" y="-455.5" font-family="Helvetica,sans-Serif" font-size="10.00" fill="#000000">align.h</text>
</g>
<!-- Node6 -->
<g id="node2" class="node">
<title>Node6</title>
<g id="a_node2"><a xlink:href="api_2abi-default_2atomic_8h.html" target="_top" xlink:title="ODP atomic operations. ">
<polygon fill="#ffffff" stroke="#000000" points="216,-280.5 216,-299.5 270,-299.5 270,-280.5 216,-280.5"/>
<text text-anchor="middle" x="243" y="-287.5" font-family="Helvetica,sans-Serif" font-size="10.00" fill="#000000">atomic.h</text>
</a>
</g>
</g>
<!-- Node5&#45;&gt;Node6 -->
<g id="edge1" class="edge">
<title>Node5&#45;&gt;Node6</title>
<path fill="none" stroke="#191970" d="M1578.9992,-455.0586C1429.6414,-441.5347 802.141,-382.4433 292,-300 284.886,-298.8503 277.2342,-297.3949 270.1412,-295.953"/>
<polygon fill="#191970" stroke="#191970" points="1579.0307,-458.5756 1589.3046,-455.988 1579.6594,-451.6039 1579.0307,-458.5756"/>
</g>
<!-- Node24 -->
<g id="node13" class="node">
<title>Node24</title>
<g id="a_node13"><a xlink:href="odp__api_8h.html" target="_top" xlink:title="The OpenDataPlane API. ">
<polygon fill="#ffffff" stroke="#000000" points="1864.5,-56.5 1864.5,-75.5 1923.5,-75.5 1923.5,-56.5 1864.5,-56.5"/>
<text text-anchor="middle" x="1894" y="-63.5" font-family="Helvetica,sans-Serif" font-size="10.00" fill="#000000">odp_api.h</text>
</a>
</g>
</g>
<!-- Node5&#45;&gt;Node24 -->
<g id="edge67" class="edge">
<title>Node5&#45;&gt;Node24</title>
<path fill="none" stroke="#191970" d="M1644.8138,-456.3066C1823.8788,-446.8551 2675,-399.1358 2675,-346 2675,-346 2675,-346 2675,-178 2675,-100.6078 2066.3215,-72.5731 1923.6624,-67.0653"/>
<polygon fill="#191970" stroke="#191970" points="1644.4969,-452.8183 1634.694,-456.8377 1644.8638,-459.8087 1644.4969,-452.8183"/>
</g>
<!-- Node53 -->
<g id="node15" class="node">
<title>Node53</title>
<g id="a_node15"><a xlink:href="api_2abi-default_2cpumask_8h.html" target="_top" xlink:title="ODP CPU masks and enumeration. ">
<polygon fill="#ffffff" stroke="#000000" points="2249.5,-280.5 2249.5,-299.5 2314.5,-299.5 2314.5,-280.5 2249.5,-280.5"/>
<text text-anchor="middle" x="2282" y="-287.5" font-family="Helvetica,sans-Serif" font-size="10.00" fill="#000000">cpumask.h</text>
</a>
</g>
</g>
<!-- Node5&#45;&gt;Node53 -->
<g id="edge15" class="edge">
<title>Node5&#45;&gt;Node53</title>
<path fill="none" stroke="#191970" d="M1644.5108,-449.848C1757.9357,-421.4072 2135.3996,-326.7595 2249.2283,-298.2174"/>
<polygon fill="#191970" stroke="#191970" points="1643.5245,-446.4869 1634.676,-452.3141 1645.227,-453.2767 1643.5245,-446.4869"/>
</g>
<!-- Node77 -->
<g id="node25" class="node">
<title>Node77</title>
<g id="a_node25"><a xlink:href="api_2spec_2std__types_8h.html" target="_top" xlink:title="Standard C language types and definitions for ODP. ">
<polygon fill="#ffffff" stroke="#000000" points="1547,-392.5 1547,-411.5 1615,-411.5 1615,-392.5 1547,-392.5"/>
<text text-anchor="middle" x="1581" y="-399.5" font-family="Helvetica,sans-Serif" font-size="10.00" fill="#000000">std_types.h</text>
</a>
</g>
</g>
<!-- Node5&#45;&gt;Node77 -->
<g id="edge26" class="edge">
<title>Node5&#45;&gt;Node77</title>
<path fill="none" stroke="#191970" d="M1601.6688,-439.3372C1596.5335,-430.0605 1590.5434,-419.2398 1586.3379,-411.6427"/>
<polygon fill="#191970" stroke="#191970" points="1598.6949,-441.1917 1606.6002,-448.2455 1604.8191,-437.8015 1598.6949,-441.1917"/>
</g>
<!-- Node7 -->
<g id="node3" class="node">
<title>Node7</title>
<g id="a_node3"><a xlink:href="arch_2arm32-linux_2odp_2api_2abi_2atomic_8h_source.html" target="_top" xlink:title="atomic.h">
<polygon fill="#ffffff" stroke="#000000" points="360,-224.5 360,-243.5 414,-243.5 414,-224.5 360,-224.5"/>
<text text-anchor="middle" x="387" y="-231.5" font-family="Helvetica,sans-Serif" font-size="10.00" fill="#000000">atomic.h</text>
</a>
</g>
</g>
<!-- Node6&#45;&gt;Node7 -->
<g id="edge2" class="edge">
<title>Node6&#45;&gt;Node7</title>
<path fill="none" stroke="#191970" d="M277.3182,-276.6541C303.578,-266.4419 339.1492,-252.6086 362.5685,-243.5011"/>
<polygon fill="#191970" stroke="#191970" points="275.806,-273.4867 267.7545,-280.3733 278.3431,-280.0108 275.806,-273.4867"/>
</g>
<!-- Node8 -->
<g id="node4" class="node">
<title>Node8</title>
<g id="a_node4"><a xlink:href="arch_2arm64-linux_2odp_2api_2abi_2atomic_8h_source.html" target="_top" xlink:title="atomic.h">
<polygon fill="#ffffff" stroke="#000000" points="0,-224.5 0,-243.5 54,-243.5 54,-224.5 0,-224.5"/>
<text text-anchor="middle" x="27" y="-231.5" font-family="Helvetica,sans-Serif" font-size="10.00" fill="#000000">atomic.h</text>
</a>
</g>
</g>
<!-- Node6&#45;&gt;Node8 -->
<g id="edge3" class="edge">
<title>Node6&#45;&gt;Node8</title>
<path fill="none" stroke="#191970" d="M205.6488,-280.6949C169.2027,-271.5586 112.2141,-257.1222 63,-244 60.1169,-243.2313 57.1075,-242.4159 54.1104,-241.5955"/>
<polygon fill="#191970" stroke="#191970" points="205.2634,-284.2063 215.814,-283.2391 206.9631,-277.4158 205.2634,-284.2063"/>
</g>
<!-- Node9 -->
<g id="node5" class="node">
<title>Node9</title>
<g id="a_node5"><a xlink:href="arch_2default-linux_2odp_2api_2abi_2atomic_8h_source.html" target="_top" xlink:title="atomic.h">
<polygon fill="#ffffff" stroke="#000000" points="72,-224.5 72,-243.5 126,-243.5 126,-224.5 72,-224.5"/>
<text text-anchor="middle" x="99" y="-231.5" font-family="Helvetica,sans-Serif" font-size="10.00" fill="#000000">atomic.h</text>
</a>
</g>
</g>
<!-- Node6&#45;&gt;Node9 -->
<g id="edge4" class="edge">
<title>Node6&#45;&gt;Node9</title>
<path fill="none" stroke="#191970" d="M208.6818,-276.6541C182.422,-266.4419 146.8508,-252.6086 123.4315,-243.5011"/>
<polygon fill="#191970" stroke="#191970" points="207.6569,-280.0108 218.2455,-280.3733 210.194,-273.4867 207.6569,-280.0108"/>
</g>
<!-- Node10 -->
<g id="node6" class="node">
<title>Node10</title>
<g id="a_node6"><a xlink:href="arch_2mips64-linux_2odp_2api_2abi_2atomic_8h_source.html" target="_top" xlink:title="atomic.h">
<polygon fill="#ffffff" stroke="#000000" points="144,-224.5 144,-243.5 198,-243.5 198,-224.5 144,-224.5"/>
<text text-anchor="middle" x="171" y="-231.5" font-family="Helvetica,sans-Serif" font-size="10.00" fill="#000000">atomic.h</text>
</a>
</g>
</g>
<!-- Node6&#45;&gt;Node10 -->
<g id="edge5" class="edge">
<title>Node6&#45;&gt;Node10</title>
<path fill="none" stroke="#191970" d="M222.336,-273.928C209.7511,-264.1397 194.0908,-251.9595 183.3977,-243.6427"/>
<polygon fill="#191970" stroke="#191970" points="220.4162,-276.8688 230.4586,-280.2455 224.7138,-271.3434 220.4162,-276.8688"/>
</g>
<!-- Node11 -->
<g id="node7" class="node">
<title>Node11</title>
<g id="a_node7"><a xlink:href="arch_2power64-linux_2odp_2api_2abi_2atomic_8h_source.html" target="_top" xlink:title="atomic.h">
<polygon fill="#ffffff" stroke="#000000" points="216,-224.5 216,-243.5 270,-243.5 270,-224.5 216,-224.5"/>
<text text-anchor="middle" x="243" y="-231.5" font-family="Helvetica,sans-Serif" font-size="10.00" fill="#000000">atomic.h</text>
</a>
</g>
</g>
<!-- Node6&#45;&gt;Node11 -->
<g id="edge6" class="edge">
<title>Node6&#45;&gt;Node11</title>
<path fill="none" stroke="#191970" d="M243,-270.1575C243,-261.155 243,-250.9199 243,-243.6427"/>
<polygon fill="#191970" stroke="#191970" points="239.5001,-270.2455 243,-280.2455 246.5001,-270.2456 239.5001,-270.2455"/>
</g>
<!-- Node12 -->
<g id="node8" class="node">
<title>Node12</title>
<g id="a_node8"><a xlink:href="arch_2x86__32-linux_2odp_2api_2abi_2atomic_8h_source.html" target="_top" xlink:title="atomic.h">
<polygon fill="#ffffff" stroke="#000000" points="288,-224.5 288,-243.5 342,-243.5 342,-224.5 288,-224.5"/>
<text text-anchor="middle" x="315" y="-231.5" font-family="Helvetica,sans-Serif" font-size="10.00" fill="#000000">atomic.h</text>
</a>
</g>
</g>
<!-- Node6&#45;&gt;Node12 -->
<g id="edge7" class="edge">
<title>Node6&#45;&gt;Node12</title>
<path fill="none" stroke="#191970" d="M263.664,-273.928C276.2489,-264.1397 291.9092,-251.9595 302.6023,-243.6427"/>
<polygon fill="#191970" stroke="#191970" points="261.2862,-271.3434 255.5414,-280.2455 265.5838,-276.8688 261.2862,-271.3434"/>
</g>
<!-- Node13 -->
<g id="node9" class="node">
<title>Node13</title>
<g id="a_node9"><a xlink:href="arch_2x86__64-linux_2odp_2api_2abi_2atomic_8h_source.html" target="_top" xlink:title="atomic.h">
<polygon fill="#ffffff" stroke="#000000" points="432,-224.5 432,-243.5 486,-243.5 486,-224.5 432,-224.5"/>
<text text-anchor="middle" x="459" y="-231.5" font-family="Helvetica,sans-Serif" font-size="10.00" fill="#000000">atomic.h</text>
</a>
</g>
</g>
<!-- Node6&#45;&gt;Node13 -->
<g id="edge8" class="edge">
<title>Node6&#45;&gt;Node13</title>
<path fill="none" stroke="#191970" d="M280.3512,-280.6949C316.7973,-271.5586 373.7859,-257.1222 423,-244 425.8831,-243.2313 428.8925,-242.4159 431.8896,-241.5955"/>
<polygon fill="#191970" stroke="#191970" points="279.0369,-277.4158 270.186,-283.2391 280.7366,-284.2063 279.0369,-277.4158"/>
</g>
<!-- Node14 -->
<g id="node10" class="node">
<title>Node14</title>
<g id="a_node10"><a xlink:href="api_2atomic_8h.html" target="_top" xlink:title="ODP atomic operations. ">
<polygon fill="#ffffff" stroke="#ff0000" points="544,-168.5 544,-187.5 598,-187.5 598,-168.5 544,-168.5"/>
<text text-anchor="middle" x="571" y="-175.5" font-family="Helvetica,sans-Serif" font-size="10.00" fill="#000000">atomic.h</text>
</a>
</g>
</g>
<!-- Node13&#45;&gt;Node14 -->
<g id="edge9" class="edge">
<title>Node13&#45;&gt;Node14</title>
<path fill="none" stroke="#191970" d="M487.3263,-219.8368C507.5721,-209.7139 534.2642,-196.3679 551.9978,-187.5011"/>
<polygon fill="#191970" stroke="#191970" points="485.6325,-216.7706 478.2535,-224.3733 488.763,-223.0316 485.6325,-216.7706"/>
</g>
<!-- Node15 -->
<g id="node11" class="node">
<title>Node15</title>
<g id="a_node11"><a xlink:href="api_2abi-default_2barrier_8h.html" target="_top" xlink:title="ODP barrier. ">
<polygon fill="#ffffff" stroke="#ff0000" points="1668,-112.5 1668,-131.5 1720,-131.5 1720,-112.5 1668,-112.5"/>
<text text-anchor="middle" x="1694" y="-119.5" font-family="Helvetica,sans-Serif" font-size="10.00" fill="#000000">barrier.h</text>
</a>
</g>
</g>
<!-- Node14&#45;&gt;Node15 -->
<g id="edge10" class="edge">
<title>Node14&#45;&gt;Node15</title>
<path fill="none" stroke="#191970" d="M608.4511,-176.1324C783.5,-167.4034 1518.7907,-130.7371 1667.652,-123.3139"/>
<polygon fill="#191970" stroke="#191970" points="608.0165,-172.6497 598.2033,-176.6435 608.3652,-179.641 608.0165,-172.6497"/>
</g>
<!-- Node23 -->
<g id="node12" class="node">
<title>Node23</title>
<g id="a_node12"><a xlink:href="api_2barrier_8h.html" target="_top" xlink:title="ODP execution barriers. ">
<polygon fill="#ffffff" stroke="#000000" points="600,-112.5 600,-131.5 652,-131.5 652,-112.5 600,-112.5"/>
<text text-anchor="middle" x="626" y="-119.5" font-family="Helvetica,sans-Serif" font-size="10.00" fill="#000000">barrier.h</text>
</a>
</g>
</g>
<!-- Node14&#45;&gt;Node23 -->
<g id="edge11" class="edge">
<title>Node14&#45;&gt;Node23</title>
<path fill="none" stroke="#191970" d="M587.6226,-161.0751C597.0855,-151.4402 608.5969,-139.7196 616.5295,-131.6427"/>
<polygon fill="#191970" stroke="#191970" points="585.0903,-158.6585 580.5803,-168.2455 590.0845,-163.5635 585.0903,-158.6585"/>
</g>
<!-- Node14&#45;&gt;Node24 -->
<g id="edge14" class="edge">
<title>Node14&#45;&gt;Node24</title>
<path fill="none" stroke="#191970" d="M571.1758,-158.4611C572.4631,-143.1949 576.9514,-122.8118 591,-112 643.1334,-71.8784 1675.3287,-66.6916 1864.3939,-66.0774"/>
<polygon fill="#191970" stroke="#191970" points="567.679,-158.3119 570.7132,-168.463 574.6716,-158.6354 567.679,-158.3119"/>
</g>
<!-- Node23&#45;&gt;Node24 -->
<g id="edge12" class="edge">
<title>Node23&#45;&gt;Node24</title>
<path fill="none" stroke="#191970" d="M662.2818,-120.3977C848.4972,-112.1736 1694.7339,-74.8004 1864.3485,-67.3095"/>
<polygon fill="#191970" stroke="#191970" points="662.0287,-116.9053 652.1929,-120.8432 662.3376,-123.8985 662.0287,-116.9053"/>
</g>
<!-- Node25 -->
<g id="node14" class="node">
<title>Node25</title>
<g id="a_node14"><a xlink:href="odp_8h.html" target="_top" xlink:title="WARNING: THIS FILE IS DEPRECATED AND WILL BE REMOVED!!! ODP APPLICATIONS SHOULD NOW INCLUDE odp_api...">
<polygon fill="#ffffff" stroke="#000000" points="1873.5,-.5 1873.5,-19.5 1914.5,-19.5 1914.5,-.5 1873.5,-.5"/>
<text text-anchor="middle" x="1894" y="-7.5" font-family="Helvetica,sans-Serif" font-size="10.00" fill="#000000">odp.h</text>
</a>
</g>
</g>
<!-- Node24&#45;&gt;Node25 -->
<g id="edge13" class="edge">
<title>Node24&#45;&gt;Node25</title>
<path fill="none" stroke="#191970" d="M1894,-46.1575C1894,-37.155 1894,-26.9199 1894,-19.6427"/>
<polygon fill="#191970" stroke="#191970" points="1890.5001,-46.2455 1894,-56.2455 1897.5001,-46.2456 1890.5001,-46.2455"/>
</g>
<!-- Node54 -->
<g id="node16" class="node">
<title>Node54</title>
<g id="a_node16"><a xlink:href="arch_2arm32-linux_2odp_2api_2abi_2cpumask_8h_source.html" target="_top" xlink:title="cpumask.h">
<polygon fill="#ffffff" stroke="#000000" points="2415.5,-224.5 2415.5,-243.5 2480.5,-243.5 2480.5,-224.5 2415.5,-224.5"/>
<text text-anchor="middle" x="2448" y="-231.5" font-family="Helvetica,sans-Serif" font-size="10.00" fill="#000000">cpumask.h</text>
</a>
</g>
</g>
<!-- Node53&#45;&gt;Node54 -->
<g id="edge16" class="edge">
<title>Node53&#45;&gt;Node54</title>
<path fill="none" stroke="#191970" d="M2320.3667,-277.057C2350.7466,-266.8084 2392.4819,-252.729 2419.836,-243.5011"/>
<polygon fill="#191970" stroke="#191970" points="2318.893,-273.8603 2310.5364,-280.3733 2321.1306,-280.4931 2318.893,-273.8603"/>
</g>
<!-- Node55 -->
<g id="node17" class="node">
<title>Node55</title>
<g id="a_node17"><a xlink:href="arch_2arm64-linux_2odp_2api_2abi_2cpumask_8h_source.html" target="_top" xlink:title="cpumask.h">
<polygon fill="#ffffff" stroke="#000000" points="2498.5,-224.5 2498.5,-243.5 2563.5,-243.5 2563.5,-224.5 2498.5,-224.5"/>
<text text-anchor="middle" x="2531" y="-231.5" font-family="Helvetica,sans-Serif" font-size="10.00" fill="#000000">cpumask.h</text>
</a>
</g>
</g>
<!-- Node53&#45;&gt;Node55 -->
<g id="edge17" class="edge">
<title>Node53&#45;&gt;Node55</title>
<path fill="none" stroke="#191970" d="M2324.7361,-280.8309C2366.828,-271.7335 2432.9267,-257.2695 2490,-244 2492.7118,-243.3695 2495.522,-242.7058 2498.3415,-242.0328"/>
<polygon fill="#191970" stroke="#191970" points="2323.8692,-277.4373 2314.8326,-282.9681 2325.3459,-284.2798 2323.8692,-277.4373"/>
</g>
<!-- Node56 -->
<g id="node18" class="node">
<title>Node56</title>
<g id="a_node18"><a xlink:href="arch_2default-linux_2odp_2api_2abi_2cpumask_8h_source.html" target="_top" xlink:title="cpumask.h">
<polygon fill="#ffffff" stroke="#000000" points="2083.5,-224.5 2083.5,-243.5 2148.5,-243.5 2148.5,-224.5 2083.5,-224.5"/>
<text text-anchor="middle" x="2116" y="-231.5" font-family="Helvetica,sans-Serif" font-size="10.00" fill="#000000">cpumask.h</text>
</a>
</g>
</g>
<!-- Node53&#45;&gt;Node56 -->
<g id="edge18" class="edge">
<title>Node53&#45;&gt;Node56</title>
<path fill="none" stroke="#191970" d="M2243.6333,-277.057C2213.2534,-266.8084 2171.5181,-252.729 2144.164,-243.5011"/>
<polygon fill="#191970" stroke="#191970" points="2242.8694,-280.4931 2253.4636,-280.3733 2245.107,-273.8603 2242.8694,-280.4931"/>
</g>
<!-- Node57 -->
<g id="node19" class="node">
<title>Node57</title>
<g id="a_node19"><a xlink:href="arch_2mips64-linux_2odp_2api_2abi_2cpumask_8h_source.html" target="_top" xlink:title="cpumask.h">
<polygon fill="#ffffff" stroke="#000000" points="2166.5,-224.5 2166.5,-243.5 2231.5,-243.5 2231.5,-224.5 2166.5,-224.5"/>
<text text-anchor="middle" x="2199" y="-231.5" font-family="Helvetica,sans-Serif" font-size="10.00" fill="#000000">cpumask.h</text>
</a>
</g>
</g>
<!-- Node53&#45;&gt;Node57 -->
<g id="edge19" class="edge">
<title>Node53&#45;&gt;Node57</title>
<path fill="none" stroke="#191970" d="M2259.012,-274.49C2244.3678,-264.6096 2225.8556,-252.1194 2213.2918,-243.6427"/>
<polygon fill="#191970" stroke="#191970" points="2257.2953,-277.5539 2267.5425,-280.2455 2261.2104,-271.7511 2257.2953,-277.5539"/>
</g>
<!-- Node58 -->
<g id="node20" class="node">
<title>Node58</title>
<g id="a_node20"><a xlink:href="arch_2power64-linux_2odp_2api_2abi_2cpumask_8h_source.html" target="_top" xlink:title="cpumask.h">
<polygon fill="#ffffff" stroke="#000000" points="2249.5,-224.5 2249.5,-243.5 2314.5,-243.5 2314.5,-224.5 2249.5,-224.5"/>
<text text-anchor="middle" x="2282" y="-231.5" font-family="Helvetica,sans-Serif" font-size="10.00" fill="#000000">cpumask.h</text>
</a>
</g>
</g>
<!-- Node53&#45;&gt;Node58 -->
<g id="edge20" class="edge">
<title>Node53&#45;&gt;Node58</title>
<path fill="none" stroke="#191970" d="M2282,-270.1575C2282,-261.155 2282,-250.9199 2282,-243.6427"/>
<polygon fill="#191970" stroke="#191970" points="2278.5001,-270.2455 2282,-280.2455 2285.5001,-270.2456 2278.5001,-270.2455"/>
</g>
<!-- Node59 -->
<g id="node21" class="node">
<title>Node59</title>
<g id="a_node21"><a xlink:href="arch_2x86__32-linux_2odp_2api_2abi_2cpumask_8h_source.html" target="_top" xlink:title="cpumask.h">
<polygon fill="#ffffff" stroke="#000000" points="2332.5,-224.5 2332.5,-243.5 2397.5,-243.5 2397.5,-224.5 2332.5,-224.5"/>
<text text-anchor="middle" x="2365" y="-231.5" font-family="Helvetica,sans-Serif" font-size="10.00" fill="#000000">cpumask.h</text>
</a>
</g>
</g>
<!-- Node53&#45;&gt;Node59 -->
<g id="edge21" class="edge">
<title>Node53&#45;&gt;Node59</title>
<path fill="none" stroke="#191970" d="M2304.988,-274.49C2319.6322,-264.6096 2338.1444,-252.1194 2350.7082,-243.6427"/>
<polygon fill="#191970" stroke="#191970" points="2302.7896,-271.7511 2296.4575,-280.2455 2306.7047,-277.5539 2302.7896,-271.7511"/>
</g>
<!-- Node60 -->
<g id="node22" class="node">
<title>Node60</title>
<g id="a_node22"><a xlink:href="arch_2x86__64-linux_2odp_2api_2abi_2cpumask_8h_source.html" target="_top" xlink:title="cpumask.h">
<polygon fill="#ffffff" stroke="#000000" points="2581.5,-224.5 2581.5,-243.5 2646.5,-243.5 2646.5,-224.5 2581.5,-224.5"/>
<text text-anchor="middle" x="2614" y="-231.5" font-family="Helvetica,sans-Serif" font-size="10.00" fill="#000000">cpumask.h</text>
</a>
</g>
</g>
<!-- Node53&#45;&gt;Node60 -->
<g id="edge22" class="edge">
<title>Node53&#45;&gt;Node60</title>
<path fill="none" stroke="#191970" d="M2324.9656,-284.3378C2381.9174,-276.5748 2485.4248,-261.5706 2573,-244 2575.7298,-243.4523 2578.5525,-242.8469 2581.3805,-242.2129"/>
<polygon fill="#191970" stroke="#191970" points="2324.3277,-280.8921 2314.8876,-285.702 2325.2668,-287.8289 2324.3277,-280.8921"/>
</g>
<!-- Node61 -->
<g id="node23" class="node">
<title>Node61</title>
<g id="a_node23"><a xlink:href="api_2cpumask_8h.html" target="_top" xlink:title="ODP CPU masks and enumeration. ">
<polygon fill="#ffffff" stroke="#ff0000" points="2175.5,-168.5 2175.5,-187.5 2240.5,-187.5 2240.5,-168.5 2175.5,-168.5"/>
<text text-anchor="middle" x="2208" y="-175.5" font-family="Helvetica,sans-Serif" font-size="10.00" fill="#000000">cpumask.h</text>
</a>
</g>
</g>
<!-- Node60&#45;&gt;Node61 -->
<g id="edge23" class="edge">
<title>Node60&#45;&gt;Node61</title>
<path fill="none" stroke="#191970" d="M2571.4707,-223.8759C2444.0825,-200.8482 2303.4913,-186.6293 2240.9113,-180.8803"/>
<polygon fill="#191970" stroke="#191970" points="2570.9316,-227.3353 2581.3984,-225.6937 2572.1923,-220.4498 2570.9316,-227.3353"/>
</g>
<!-- Node61&#45;&gt;Node24 -->
<g id="edge25" class="edge">
<title>Node61&#45;&gt;Node24</title>
<path fill="none" stroke="#191970" d="M2204.268,-158.2341C2200.3546,-143.1775 2192.648,-123.1904 2178,-112 2138.4082,-81.7536 1988.0497,-70.7131 1923.609,-67.313"/>
<polygon fill="#191970" stroke="#191970" points="2200.8844,-159.1408 2206.4921,-168.1299 2207.714,-157.6057 2200.8844,-159.1408"/>
</g>
<!-- Node73 -->
<g id="node24" class="node">
<title>Node73</title>
<g id="a_node24"><a xlink:href="api_2spec_2init_8h.html" target="_top" xlink:title="init.h">
<polygon fill="#ffffff" stroke="#ff0000" points="2131,-112.5 2131,-131.5 2169,-131.5 2169,-112.5 2131,-112.5"/>
<text text-anchor="middle" x="2150" y="-119.5" font-family="Helvetica,sans-Serif" font-size="10.00" fill="#000000">init.h</text>
</a>
</g>
</g>
<!-- Node61&#45;&gt;Node73 -->
<g id="edge24" class="edge">
<title>Node61&#45;&gt;Node73</title>
<path fill="none" stroke="#191970" d="M2190.4707,-161.0751C2180.4917,-151.4402 2168.3524,-139.7196 2159.9871,-131.6427"/>
<polygon fill="#191970" stroke="#191970" points="2188.272,-163.8175 2197.8972,-168.2455 2193.1342,-158.7817 2188.272,-163.8175"/>
</g>
<!-- Node78 -->
<g id="node26" class="node">
<title>Node78</title>
<g id="a_node26"><a xlink:href="api_2std__types_8h.html" target="_top" xlink:title="Standard C language types and definitions for ODP. ">
<polygon fill="#ffffff" stroke="#ff0000" points="1335,-336.5 1335,-355.5 1403,-355.5 1403,-336.5 1335,-336.5"/>
<text text-anchor="middle" x="1369" y="-343.5" font-family="Helvetica,sans-Serif" font-size="10.00" fill="#000000">std_types.h</text>
</a>
</g>
</g>
<!-- Node77&#45;&gt;Node78 -->
<g id="edge27" class="edge">
<title>Node77&#45;&gt;Node78</title>
<path fill="none" stroke="#191970" d="M1537.2569,-390.4452C1497.552,-379.9571 1439.7956,-364.7007 1403.3284,-355.0679"/>
<polygon fill="#191970" stroke="#191970" points="1536.3763,-393.8326 1546.9385,-393.0026 1538.164,-387.0647 1536.3763,-393.8326"/>
</g>
<!-- Node78&#45;&gt;Node6 -->
<g id="edge28" class="edge">
<title>Node78&#45;&gt;Node6</title>
<path fill="none" stroke="#191970" d="M1324.6473,-345.2844C1147.4579,-342.2455 490.0299,-329.2025 284,-300 279.5024,-299.3625 274.7785,-298.4473 270.2016,-297.4262"/>
<polygon fill="#191970" stroke="#191970" points="1324.8393,-348.7881 1334.8972,-345.4582 1324.958,-341.7891 1324.8393,-348.7881"/>
</g>
<!-- Node78&#45;&gt;Node15 -->
<g id="edge29" class="edge">
<title>Node78&#45;&gt;Node15</title>
<path fill="none" stroke="#191970" d="M1413.1178,-343.3172C1501.7018,-337.4794 1694.4492,-322.3306 1714,-300 1757.4272,-250.3982 1715.2123,-160.8786 1699.418,-131.5715"/>
<polygon fill="#191970" stroke="#191970" points="1412.8552,-339.8268 1403.1027,-343.9667 1413.3083,-346.8121 1412.8552,-339.8268"/>
</g>
<!-- Node78&#45;&gt;Node23 -->
<g id="edge39" class="edge">
<title>Node78&#45;&gt;Node23</title>
<path fill="none" stroke="#191970" d="M1324.5735,-345.675C1133.4006,-344.0632 388.9435,-335.5182 355,-300 348.8587,-293.5738 349.2702,-286.7957 355,-280 416.0409,-207.6045 484.198,-293.3776 565,-244 606.4231,-218.6866 620.6208,-155.6816 624.6337,-131.5827"/>
<polygon fill="#191970" stroke="#191970" points="1324.7859,-349.1768 1334.8144,-345.7591 1324.8435,-342.177 1324.7859,-349.1768"/>
</g>
<!-- Node78&#45;&gt;Node24 -->
<g id="edge66" class="edge">
<title>Node78&#45;&gt;Node24</title>
<path fill="none" stroke="#191970" d="M1413.2354,-344.9145C1534.6096,-341.5618 1866.4108,-329.7453 1905,-300 1972.071,-248.3005 1966.622,-190.9535 1936,-112 1930.2125,-97.078 1917.0792,-84.0351 1907.028,-75.6859"/>
<polygon fill="#191970" stroke="#191970" points="1413.0734,-341.4175 1403.1716,-345.1863 1413.2624,-348.415 1413.0734,-341.4175"/>
</g>
<!-- Node78&#45;&gt;Node53 -->
<g id="edge31" class="edge">
<title>Node78&#45;&gt;Node53</title>
<path fill="none" stroke="#191970" d="M1413.4724,-343.2722C1572.439,-333.5218 2110.4296,-300.5235 2249.1502,-292.0149"/>
<polygon fill="#191970" stroke="#191970" points="1412.8913,-339.8012 1403.1244,-343.9069 1413.3199,-346.7881 1412.8913,-339.8012"/>
</g>
<!-- Node78&#45;&gt;Node73 -->
<g id="edge59" class="edge">
<title>Node78&#45;&gt;Node73</title>
<path fill="none" stroke="#191970" d="M1413.4328,-344.6032C1548.4901,-340.1033 1948.1618,-324.8167 2001,-300 2043.3927,-280.0893 2038.0807,-254.0564 2074,-224 2096.1214,-205.4894 2110.4916,-210.9228 2128,-188 2141.0498,-170.9145 2146.5883,-145.6802 2148.7519,-131.8892"/>
<polygon fill="#191970" stroke="#191970" points="1412.9339,-341.1177 1403.0546,-344.9451 1413.1644,-348.1139 1412.9339,-341.1177"/>
</g>
<!-- Node79 -->
<g id="node27" class="node">
<title>Node79</title>
<g id="a_node27"><a xlink:href="api_2abi-default_2byteorder_8h.html" target="_top" xlink:title="ODP byteorder. ">
<polygon fill="#ffffff" stroke="#ff0000" points="364.5,-280.5 364.5,-299.5 429.5,-299.5 429.5,-280.5 364.5,-280.5"/>
<text text-anchor="middle" x="397" y="-287.5" font-family="Helvetica,sans-Serif" font-size="10.00" fill="#000000">byteorder.h</text>
</a>
</g>
</g>
<!-- Node78&#45;&gt;Node79 -->
<g id="edge30" class="edge">
<title>Node78&#45;&gt;Node79</title>
<path fill="none" stroke="#191970" d="M1324.5213,-344.8877C1163.7669,-340.698 613.2173,-324.8323 439,-300 436.0318,-299.5769 432.9658,-299.0419 429.905,-298.4403"/>
<polygon fill="#191970" stroke="#191970" points="1324.4509,-348.3869 1334.538,-345.1467 1324.6319,-341.3893 1324.4509,-348.3869"/>
</g>
<!-- Node88 -->
<g id="node28" class="node">
<title>Node88</title>
<g id="a_node28"><a xlink:href="api_2abi-default_2init_8h.html" target="_top" xlink:title="ODP initialization. ">
<polygon fill="#ffffff" stroke="#ff0000" points="448,-280.5 448,-299.5 486,-299.5 486,-280.5 448,-280.5"/>
<text text-anchor="middle" x="467" y="-287.5" font-family="Helvetica,sans-Serif" font-size="10.00" fill="#000000">init.h</text>
</a>
</g>
</g>
<!-- Node78&#45;&gt;Node88 -->
<g id="edge32" class="edge">
<title>Node78&#45;&gt;Node88</title>
<path fill="none" stroke="#191970" d="M1324.5698,-345.362C1169.9833,-342.877 656.2929,-332.327 495,-300 492.0645,-299.4117 489.0219,-298.5766 486.0714,-297.6368"/>
<polygon fill="#191970" stroke="#191970" points="1324.5943,-348.8627 1334.6482,-345.5207 1324.7046,-341.8636 1324.5943,-348.8627"/>
</g>
<!-- Node96 -->
<g id="node29" class="node">
<title>Node96</title>
<g id="a_node29"><a xlink:href="api_2abi-default_2ipsec_8h.html" target="_top" xlink:title="ODP IPSEC API &#45; platform specific types. ">
<polygon fill="#ffffff" stroke="#ff0000" points="504,-280.5 504,-299.5 552,-299.5 552,-280.5 504,-280.5"/>
<text text-anchor="middle" x="528" y="-287.5" font-family="Helvetica,sans-Serif" font-size="10.00" fill="#000000">ipsec.h</text>
</a>
</g>
</g>
<!-- Node78&#45;&gt;Node96 -->
<g id="edge33" class="edge">
<title>Node78&#45;&gt;Node96</title>
<path fill="none" stroke="#191970" d="M1324.5874,-344.8595C1177.8687,-340.8742 709.6132,-326.3607 561,-300 558.1707,-299.4981 555.2422,-298.8329 552.3512,-298.0832"/>
<polygon fill="#191970" stroke="#191970" points="1324.4962,-348.3582 1334.5867,-345.1283 1324.6843,-341.3607 1324.4962,-348.3582"/>
</g>
<!-- Node105 -->
<g id="node30" class="node">
<title>Node105</title>
<g id="a_node30"><a xlink:href="api_2abi-default_2packet__io_8h.html" target="_top" xlink:title="ODP Packet IO. ">
<polygon fill="#ffffff" stroke="#ff0000" points="570.5,-280.5 570.5,-299.5 637.5,-299.5 637.5,-280.5 570.5,-280.5"/>
<text text-anchor="middle" x="604" y="-287.5" font-family="Helvetica,sans-Serif" font-size="10.00" fill="#000000">packet_io.h</text>
</a>
</g>
</g>
<!-- Node78&#45;&gt;Node105 -->
<g id="edge34" class="edge">
<title>Node78&#45;&gt;Node105</title>
<path fill="none" stroke="#191970" d="M1324.9139,-344.1463C1189.2134,-338.2899 779.0086,-319.4196 647,-300 643.9668,-299.5538 640.8318,-299.0029 637.7006,-298.3909"/>
<polygon fill="#191970" stroke="#191970" points="1324.8101,-347.645 1334.951,-344.5773 1325.1104,-340.6515 1324.8101,-347.645"/>
</g>
<!-- Node35 -->
<g id="node31" class="node">
<title>Node35</title>
<g id="a_node31"><a xlink:href="api_2abi-default_2rwlock__recursive_8h.html" target="_top" xlink:title="ODP recursive read/write lock. ">
<polygon fill="#ffffff" stroke="#ff0000" points="656,-280.5 656,-299.5 754,-299.5 754,-280.5 656,-280.5"/>
<text text-anchor="middle" x="705" y="-287.5" font-family="Helvetica,sans-Serif" font-size="10.00" fill="#000000">rwlock_recursive.h</text>
</a>
</g>
</g>
<!-- Node78&#45;&gt;Node35 -->
<g id="edge35" class="edge">
<title>Node78&#45;&gt;Node35</title>
<path fill="none" stroke="#191970" d="M1324.6428,-344.0784C1224.3053,-339.4158 972.3426,-325.9327 763,-300 760.1607,-299.6483 757.2486,-299.2539 754.3136,-298.8303"/>
<polygon fill="#191970" stroke="#191970" points="1324.5672,-347.5785 1334.7171,-344.5404 1324.888,-340.5859 1324.5672,-347.5785"/>
</g>
<!-- Node131 -->
<g id="node32" class="node">
<title>Node131</title>
<g id="a_node32"><a xlink:href="api_2abi-default_2schedule_8h.html" target="_top" xlink:title="ODP schedule. ">
<polygon fill="#ffffff" stroke="#ff0000" points="772,-280.5 772,-299.5 836,-299.5 836,-280.5 772,-280.5"/>
<text text-anchor="middle" x="804" y="-287.5" font-family="Helvetica,sans-Serif" font-size="10.00" fill="#000000">schedule.h</text>
</a>
</g>
</g>
<!-- Node78&#45;&gt;Node131 -->
<g id="edge36" class="edge">
<title>Node78&#45;&gt;Node131</title>
<path fill="none" stroke="#191970" d="M1324.5631,-344.3735C1233.8752,-340.5551 1021.1648,-329.0437 845,-300 842.1083,-299.5233 839.1194,-298.9514 836.1341,-298.3257"/>
<polygon fill="#191970" stroke="#191970" points="1324.6164,-347.8786 1334.7515,-344.7915 1324.9034,-340.8845 1324.6164,-347.8786"/>
</g>
<!-- Node139 -->
<g id="node33" class="node">
<title>Node139</title>
<g id="a_node33"><a xlink:href="api_2abi-default_2spinlock__recursive_8h.html" target="_top" xlink:title="ODP recursive spinlock. ">
<polygon fill="#ffffff" stroke="#ff0000" points="854,-280.5 854,-299.5 960,-299.5 960,-280.5 854,-280.5"/>
<text text-anchor="middle" x="907" y="-287.5" font-family="Helvetica,sans-Serif" font-size="10.00" fill="#000000">spinlock_recursive.h</text>
</a>
</g>
</g>
<!-- Node78&#45;&gt;Node139 -->
<g id="edge37" class="edge">
<title>Node78&#45;&gt;Node139</title>
<path fill="none" stroke="#191970" d="M1324.6397,-341.5636C1250.753,-334.0253 1097.8637,-317.7925 969,-300 966.0839,-299.5974 963.0932,-299.1684 960.0761,-298.7232"/>
<polygon fill="#191970" stroke="#191970" points="1324.6529,-345.0829 1334.9555,-342.6119 1325.3606,-338.1188 1324.6529,-345.0829"/>
</g>
<!-- Node148 -->
<g id="node34" class="node">
<title>Node148</title>
<g id="a_node34"><a xlink:href="api_2abi-default_2traffic__mngr_8h.html" target="_top" xlink:title="ODP traffic mngr. ">
<polygon fill="#ffffff" stroke="#ff0000" points="978.5,-280.5 978.5,-299.5 1055.5,-299.5 1055.5,-280.5 978.5,-280.5"/>
<text text-anchor="middle" x="1017" y="-287.5" font-family="Helvetica,sans-Serif" font-size="10.00" fill="#000000">traffic_mngr.h</text>
</a>
</g>
</g>
<!-- Node78&#45;&gt;Node148 -->
<g id="edge38" class="edge">
<title>Node78&#45;&gt;Node148</title>
<path fill="none" stroke="#191970" d="M1324.4049,-340.1273C1264.8663,-332.0921 1156.2009,-316.7459 1064,-300 1061.2913,-299.508 1058.5,-298.9767 1055.6923,-298.4244"/>
<polygon fill="#191970" stroke="#191970" points="1324.2068,-343.6321 1334.5837,-341.4943 1325.1386,-336.6944 1324.2068,-343.6321"/>
</g>
<!-- Node156 -->
<g id="node35" class="node">
<title>Node156</title>
<g id="a_node35"><a xlink:href="api_2buffer_8h.html" target="_top" xlink:title="ODP buffer descriptor. ">
<polygon fill="#ffffff" stroke="#000000" points="1969,-168.5 1969,-187.5 2019,-187.5 2019,-168.5 1969,-168.5"/>
<text text-anchor="middle" x="1994" y="-175.5" font-family="Helvetica,sans-Serif" font-size="10.00" fill="#000000">buffer.h</text>
</a>
</g>
</g>
<!-- Node78&#45;&gt;Node156 -->
<g id="edge40" class="edge">
<title>Node78&#45;&gt;Node156</title>
<path fill="none" stroke="#191970" d="M1413.368,-345.3279C1542.6943,-342.9835 1912.837,-333.3945 1955,-300 1990.5598,-271.8354 1994.2116,-211.087 1994.2279,-187.5699"/>
<polygon fill="#191970" stroke="#191970" points="1412.9816,-341.8341 1403.0445,-345.5088 1413.1043,-348.833 1412.9816,-341.8341"/>
</g>
<!-- Node113 -->
<g id="node36" class="node">
<title>Node113</title>
<g id="a_node36"><a xlink:href="api_2classification_8h.html" target="_top" xlink:title="ODP classification descriptor. ">
<polygon fill="#ffffff" stroke="#ff0000" points="2037,-168.5 2037,-187.5 2119,-187.5 2119,-168.5 2037,-168.5"/>
<text text-anchor="middle" x="2078" y="-175.5" font-family="Helvetica,sans-Serif" font-size="10.00" fill="#000000">classification.h</text>
</a>
</g>
</g>
<!-- Node78&#45;&gt;Node113 -->
<g id="edge42" class="edge">
<title>Node78&#45;&gt;Node113</title>
<path fill="none" stroke="#191970" d="M1413.2587,-344.6605C1544.952,-340.3974 1928.2612,-325.8808 1978,-300 1981.2038,-298.3329 2047.06,-216.5349 2070.1136,-187.8292"/>
<polygon fill="#191970" stroke="#191970" points="1413.0077,-341.1667 1403.1247,-344.9843 1413.2314,-348.1631 1413.0077,-341.1667"/>
</g>
<!-- Node119 -->
<g id="node37" class="node">
<title>Node119</title>
<g id="a_node37"><a xlink:href="api_2crypto_8h.html" target="_top" xlink:title="ODP crypto. ">
<polygon fill="#ffffff" stroke="#ff0000" points="504,-224.5 504,-243.5 556,-243.5 556,-224.5 504,-224.5"/>
<text text-anchor="middle" x="530" y="-231.5" font-family="Helvetica,sans-Serif" font-size="10.00" fill="#000000">crypto.h</text>
</a>
</g>
</g>
<!-- Node78&#45;&gt;Node119 -->
<g id="edge44" class="edge">
<title>Node78&#45;&gt;Node119</title>
<path fill="none" stroke="#191970" d="M1324.5227,-344.878C1127.1739,-339.7967 339.6027,-318.393 322,-300 280.8662,-257.0193 251.2555,-304.096 495,-244 497.8225,-243.3041 500.7607,-242.5354 503.6819,-241.7426"/>
<polygon fill="#191970" stroke="#191970" points="1324.7213,-348.3841 1334.8078,-345.1417 1324.9008,-341.3864 1324.7213,-348.3841"/>
</g>
<!-- Node115 -->
<g id="node38" class="node">
<title>Node115</title>
<g id="a_node38"><a xlink:href="api_2packet_8h.html" target="_top" xlink:title="ODP packet descriptor. ">
<polygon fill="#ffffff" stroke="#ff0000" points="1821,-280.5 1821,-299.5 1875,-299.5 1875,-280.5 1821,-280.5"/>
<text text-anchor="middle" x="1848" y="-287.5" font-family="Helvetica,sans-Serif" font-size="10.00" fill="#000000">packet.h</text>
</a>
</g>
</g>
<!-- Node78&#45;&gt;Node115 -->
<g id="edge46" class="edge">
<title>Node78&#45;&gt;Node115</title>
<path fill="none" stroke="#191970" d="M1413.1222,-343.338C1492.4148,-338.1169 1664.0705,-324.8197 1807,-300 1811.4756,-299.2228 1816.1882,-298.2355 1820.7604,-297.1855"/>
<polygon fill="#191970" stroke="#191970" points="1412.7644,-339.8538 1403.0115,-343.9927 1413.2168,-346.8391 1412.7644,-339.8538"/>
</g>
<!-- Node129 -->
<g id="node39" class="node">
<title>Node129</title>
<g id="a_node39"><a xlink:href="api_2spec_2packet__flags_8h.html" target="_top" xlink:title="ODP packet flags. ">
<polygon fill="#ffffff" stroke="#ff0000" points="1755,-224.5 1755,-243.5 1835,-243.5 1835,-224.5 1755,-224.5"/>
<text text-anchor="middle" x="1795" y="-231.5" font-family="Helvetica,sans-Serif" font-size="10.00" fill="#000000">packet_flags.h</text>
</a>
</g>
</g>
<!-- Node78&#45;&gt;Node129 -->
<g id="edge60" class="edge">
<title>Node78&#45;&gt;Node129</title>
<path fill="none" stroke="#191970" d="M1413.4103,-343.4561C1511.7119,-337.4628 1741.2205,-321.3386 1769,-300 1786.7752,-286.3461 1792.4175,-258.7478 1794.1943,-243.9334"/>
<polygon fill="#191970" stroke="#191970" points="1412.975,-339.9759 1403.2035,-344.0707 1413.3958,-346.9632 1412.975,-339.9759"/>
</g>
<!-- Node125 -->
<g id="node40" class="node">
<title>Node125</title>
<g id="a_node40"><a xlink:href="api_2packet__io_8h.html" target="_top" xlink:title="ODP Packet IO. ">
<polygon fill="#ffffff" stroke="#ff0000" points="1860.5,-112.5 1860.5,-131.5 1927.5,-131.5 1927.5,-112.5 1860.5,-112.5"/>
<text text-anchor="middle" x="1894" y="-119.5" font-family="Helvetica,sans-Serif" font-size="10.00" fill="#000000">packet_io.h</text>
</a>
</g>
</g>
<!-- Node78&#45;&gt;Node125 -->
<g id="edge49" class="edge">
<title>Node78&#45;&gt;Node125</title>
<path fill="none" stroke="#191970" d="M1413.5662,-345.2838C1532.6758,-342.9225 1851.5841,-333.5025 1884,-300 1929.6274,-252.8433 1906.5423,-161.7191 1897.259,-131.7882"/>
<polygon fill="#191970" stroke="#191970" points="1413.2724,-341.7886 1403.341,-345.4787 1413.4059,-348.7874 1413.2724,-341.7886"/>
</g>
<!-- Node123 -->
<g id="node41" class="node">
<title>Node123</title>
<g id="a_node41"><a xlink:href="api_2queue_8h.html" target="_top" xlink:title="ODP queue. ">
<polygon fill="#ffffff" stroke="#ff0000" points="1637.5,-280.5 1637.5,-299.5 1688.5,-299.5 1688.5,-280.5 1637.5,-280.5"/>
<text text-anchor="middle" x="1663" y="-287.5" font-family="Helvetica,sans-Serif" font-size="10.00" fill="#000000">queue.h</text>
</a>
</g>
</g>
<!-- Node78&#45;&gt;Node123 -->
<g id="edge51" class="edge">
<title>Node78&#45;&gt;Node123</title>
<path fill="none" stroke="#191970" d="M1413.337,-339.5426C1465.1368,-331.6717 1553.2759,-317.2627 1628,-300 1631.0787,-299.2888 1634.2899,-298.4739 1637.4644,-297.623"/>
<polygon fill="#191970" stroke="#191970" points="1412.5317,-336.1243 1403.1647,-341.075 1413.5745,-343.0462 1412.5317,-336.1243"/>
</g>
<!-- Node71 -->
<g id="node42" class="node">
<title>Node71</title>
<g id="a_node42"><a xlink:href="api_2spec_2schedule_8h.html" target="_top" xlink:title="ODP schedule. ">
<polygon fill="#ffffff" stroke="#ff0000" points="1635,-224.5 1635,-243.5 1699,-243.5 1699,-224.5 1635,-224.5"/>
<text text-anchor="middle" x="1667" y="-231.5" font-family="Helvetica,sans-Serif" font-size="10.00" fill="#000000">schedule.h</text>
</a>
</g>
</g>
<!-- Node78&#45;&gt;Node71 -->
<g id="edge62" class="edge">
<title>Node78&#45;&gt;Node71</title>
<path fill="none" stroke="#191970" d="M1413.3438,-342.977C1498.6048,-336.7119 1678.6409,-321.1135 1697,-300 1711.7008,-283.0936 1691.4545,-257.7894 1677.7522,-243.9391"/>
<polygon fill="#191970" stroke="#191970" points="1412.9098,-339.4992 1403.1886,-343.712 1413.4152,-346.4809 1412.9098,-339.4992"/>
</g>
<!-- Node157 -->
<g id="node43" class="node">
<title>Node157</title>
<g id="a_node43"><a xlink:href="spec_2chksum_8h.html" target="_top" xlink:title="ODP checksum functions. ">
<polygon fill="#ffffff" stroke="#ff0000" points="1073.5,-280.5 1073.5,-299.5 1132.5,-299.5 1132.5,-280.5 1073.5,-280.5"/>
<text text-anchor="middle" x="1103" y="-287.5" font-family="Helvetica,sans-Serif" font-size="10.00" fill="#000000">chksum.h</text>
</a>
</g>
</g>
<!-- Node78&#45;&gt;Node157 -->
<g id="edge55" class="edge">
<title>Node78&#45;&gt;Node157</title>
<path fill="none" stroke="#191970" d="M1324.9276,-337.8969C1278.883,-329.247 1204.6289,-314.7777 1141,-300 1138.342,-299.3827 1135.5869,-298.7141 1132.8299,-298.0254"/>
<polygon fill="#191970" stroke="#191970" points="1324.4007,-341.359 1334.8738,-339.7573 1325.6878,-334.4783 1324.4007,-341.359"/>
</g>
<!-- Node159 -->
<g id="node44" class="node">
<title>Node159</title>
<g id="a_node44"><a xlink:href="api_2spec_2cpu_8h.html" target="_top" xlink:title="ODP CPU API. ">
<polygon fill="#ffffff" stroke="#ff0000" points="1150.5,-280.5 1150.5,-299.5 1191.5,-299.5 1191.5,-280.5 1150.5,-280.5"/>
<text text-anchor="middle" x="1171" y="-287.5" font-family="Helvetica,sans-Serif" font-size="10.00" fill="#000000">cpu.h</text>
</a>
</g>
</g>
<!-- Node78&#45;&gt;Node159 -->
<g id="edge56" class="edge">
<title>Node78&#45;&gt;Node159</title>
<path fill="none" stroke="#191970" d="M1325.1206,-334.9092C1290.8718,-326.0474 1242.1856,-312.9989 1200,-300 1197.2517,-299.1531 1194.3724,-298.2186 1191.5398,-297.2711"/>
<polygon fill="#191970" stroke="#191970" points="1324.2638,-338.3027 1334.8207,-337.407 1326.0095,-331.5238 1324.2638,-338.3027"/>
</g>
<!-- Node161 -->
<g id="node45" class="node">
<title>Node161</title>
<g id="a_node45"><a xlink:href="spec_2feature_8h.html" target="_top" xlink:title="ODP features. ">
<polygon fill="#ffffff" stroke="#ff0000" points="1209.5,-280.5 1209.5,-299.5 1264.5,-299.5 1264.5,-280.5 1209.5,-280.5"/>
<text text-anchor="middle" x="1237" y="-287.5" font-family="Helvetica,sans-Serif" font-size="10.00" fill="#000000">feature.h</text>
</a>
</g>
</g>
<!-- Node78&#45;&gt;Node161 -->
<g id="edge57" class="edge">
<title>Node78&#45;&gt;Node161</title>
<path fill="none" stroke="#191970" d="M1336.9035,-332.3833C1312.8965,-322.1985 1280.6741,-308.5284 1259.3955,-299.5011"/>
<polygon fill="#191970" stroke="#191970" points="1335.7356,-335.6897 1346.3084,-336.3733 1338.4695,-329.2457 1335.7356,-335.6897"/>
</g>
<!-- Node163 -->
<g id="node46" class="node">
<title>Node163</title>
<g id="a_node46"><a xlink:href="api_2spec_2hash_8h.html" target="_top" xlink:title="ODP Hash functions. ">
<polygon fill="#ffffff" stroke="#ff0000" points="1283,-280.5 1283,-299.5 1329,-299.5 1329,-280.5 1283,-280.5"/>
<text text-anchor="middle" x="1306" y="-287.5" font-family="Helvetica,sans-Serif" font-size="10.00" fill="#000000">hash.h</text>
</a>
</g>
</g>
<!-- Node78&#45;&gt;Node163 -->
<g id="edge58" class="edge">
<title>Node78&#45;&gt;Node163</title>
<path fill="none" stroke="#191970" d="M1350.2808,-329.3607C1339.3818,-319.6727 1326.0245,-307.7995 1316.848,-299.6427"/>
<polygon fill="#191970" stroke="#191970" points="1348.2268,-332.2178 1358.0262,-336.2455 1352.8774,-326.9859 1348.2268,-332.2178"/>
</g>
<!-- Node165 -->
<g id="node47" class="node">
<title>Node165</title>
<g id="a_node47"><a xlink:href="api_2spec_2pool_8h.html" target="_top" xlink:title="ODP pool. ">
<polygon fill="#ffffff" stroke="#ff0000" points="1347.5,-280.5 1347.5,-299.5 1390.5,-299.5 1390.5,-280.5 1347.5,-280.5"/>
<text text-anchor="middle" x="1369" y="-287.5" font-family="Helvetica,sans-Serif" font-size="10.00" fill="#000000">pool.h</text>
</a>
</g>
</g>
<!-- Node78&#45;&gt;Node165 -->
<g id="edge61" class="edge">
<title>Node78&#45;&gt;Node165</title>
<path fill="none" stroke="#191970" d="M1369,-326.1575C1369,-317.155 1369,-306.9199 1369,-299.6427"/>
<polygon fill="#191970" stroke="#191970" points="1365.5001,-326.2455 1369,-336.2455 1372.5001,-326.2456 1365.5001,-326.2455"/>
</g>
<!-- Node167 -->
<g id="node48" class="node">
<title>Node167</title>
<g id="a_node48"><a xlink:href="api_2spec_2stash_8h.html" target="_top" xlink:title="ODP stash. ">
<polygon fill="#ffffff" stroke="#ff0000" points="1408.5,-280.5 1408.5,-299.5 1457.5,-299.5 1457.5,-280.5 1408.5,-280.5"/>
<text text-anchor="middle" x="1433" y="-287.5" font-family="Helvetica,sans-Serif" font-size="10.00" fill="#000000">stash.h</text>
</a>
</g>
</g>
<!-- Node78&#45;&gt;Node167 -->
<g id="edge63" class="edge">
<title>Node78&#45;&gt;Node167</title>
<path fill="none" stroke="#191970" d="M1387.6914,-329.645C1398.8219,-319.9058 1412.5663,-307.8795 1421.9798,-299.6427"/>
<polygon fill="#191970" stroke="#191970" points="1385.369,-327.0264 1380.1479,-336.2455 1389.9785,-332.2945 1385.369,-327.0264"/>
</g>
<!-- Node169 -->
<g id="node49" class="node">
<title>Node169</title>
<g id="a_node49"><a xlink:href="spec_2threshold_8h.html" target="_top" xlink:title="ODP threshold descriptor. ">
<polygon fill="#ffffff" stroke="#ff0000" points="1475.5,-280.5 1475.5,-299.5 1540.5,-299.5 1540.5,-280.5 1475.5,-280.5"/>
<text text-anchor="middle" x="1508" y="-287.5" font-family="Helvetica,sans-Serif" font-size="10.00" fill="#000000">threshold.h</text>
</a>
</g>
</g>
<!-- Node78&#45;&gt;Node169 -->
<g id="edge64" class="edge">
<title>Node78&#45;&gt;Node169</title>
<path fill="none" stroke="#191970" d="M1402.4621,-332.5189C1427.7769,-322.3201 1461.9103,-308.5685 1484.4169,-299.5011"/>
<polygon fill="#191970" stroke="#191970" points="1400.8626,-329.3899 1392.895,-336.3733 1403.4784,-335.8827 1400.8626,-329.3899"/>
</g>
<!-- Node171 -->
<g id="node50" class="node">
<title>Node171</title>
<g id="a_node50"><a xlink:href="api_2spec_2thrmask_8h.html" target="_top" xlink:title="ODP thread masks. ">
<polygon fill="#ffffff" stroke="#ff0000" points="1559,-280.5 1559,-299.5 1619,-299.5 1619,-280.5 1559,-280.5"/>
<text text-anchor="middle" x="1589" y="-287.5" font-family="Helvetica,sans-Serif" font-size="10.00" fill="#000000">thrmask.h</text>
</a>
</g>
</g>
<!-- Node78&#45;&gt;Node171 -->
<g id="edge65" class="edge">
<title>Node78&#45;&gt;Node171</title>
<path fill="none" stroke="#191970" d="M1413.3347,-334.7148C1456.56,-323.712 1521.1238,-307.2776 1558.7562,-297.6984"/>
<polygon fill="#191970" stroke="#191970" points="1412.2026,-331.3913 1403.375,-337.25 1413.9294,-338.175 1412.2026,-331.3913"/>
</g>
<!-- Node156&#45;&gt;Node24 -->
<g id="edge41" class="edge">
<title>Node156&#45;&gt;Node24</title>
<path fill="none" stroke="#191970" d="M1990.5006,-158.3609C1987.1741,-144.2304 1980.9914,-125.3816 1970,-112 1956.3929,-95.4339 1935.1563,-83.296 1918.5869,-75.6616"/>
<polygon fill="#191970" stroke="#191970" points="1987.1418,-159.4024 1992.5933,-168.4871 1993.9969,-157.9857 1987.1418,-159.4024"/>
</g>
<!-- Node113&#45;&gt;Node24 -->
<g id="edge43" class="edge">
<title>Node113&#45;&gt;Node24</title>
<path fill="none" stroke="#191970" d="M2058.6655,-161.745C2041.3387,-147.6136 2014.89,-127.0953 1990,-112 1966.1387,-97.5286 1937.0264,-84.1248 1917.1593,-75.564"/>
<polygon fill="#191970" stroke="#191970" points="2056.8978,-164.8242 2066.8382,-168.4901 2061.3535,-159.4254 2056.8978,-164.8242"/>
</g>
<!-- Node119&#45;&gt;Node24 -->
<g id="edge45" class="edge">
<title>Node119&#45;&gt;Node24</title>
<path fill="none" stroke="#191970" d="M528.8163,-214.2355C528.6523,-200.8208 529.7015,-182.8855 535,-168 545.1709,-139.4263 547.3635,-126.505 574,-112 632.5583,-80.1118 1674.6442,-68.1935 1864.4588,-66.2829"/>
<polygon fill="#191970" stroke="#191970" points="525.32,-214.405 529.1727,-224.2744 532.3156,-214.1565 525.32,-214.405"/>
</g>
<!-- Node115&#45;&gt;Node24 -->
<g id="edge48" class="edge">
<title>Node115&#45;&gt;Node24</title>
<path fill="none" stroke="#191970" d="M1846.55,-269.9412C1843.9233,-229.5973 1839.639,-140.0949 1851,-112 1857.0655,-97.0006 1870.4896,-83.9698 1880.7366,-75.6445"/>
<polygon fill="#191970" stroke="#191970" points="1843.073,-270.3979 1847.2477,-280.1356 1850.0567,-269.9199 1843.073,-270.3979"/>
</g>
<!-- Node115&#45;&gt;Node129 -->
<g id="edge47" class="edge">
<title>Node115&#45;&gt;Node129</title>
<path fill="none" stroke="#191970" d="M1831.7104,-272.7884C1822.6438,-263.2085 1811.6946,-251.6396 1804.1261,-243.6427"/>
<polygon fill="#191970" stroke="#191970" points="1829.3522,-275.3884 1838.7681,-280.2455 1834.4363,-270.5767 1829.3522,-275.3884"/>
</g>
<!-- Node125&#45;&gt;Node24 -->
<g id="edge50" class="edge">
<title>Node125&#45;&gt;Node24</title>
<path fill="none" stroke="#191970" d="M1894,-102.1575C1894,-93.155 1894,-82.9199 1894,-75.6427"/>
<polygon fill="#191970" stroke="#191970" points="1890.5001,-102.2455 1894,-112.2455 1897.5001,-102.2456 1890.5001,-102.2455"/>
</g>
<!-- Node123&#45;&gt;Node24 -->
<g id="edge54" class="edge">
<title>Node123&#45;&gt;Node24</title>
<path fill="none" stroke="#191970" d="M1644.7672,-273.0939C1637.4402,-265.0754 1629.8309,-254.875 1626,-244 1610.3245,-199.501 1613.9981,-152.9903 1659,-112 1688.7355,-84.9152 1807.7803,-72.4941 1864.1353,-68.0435"/>
<polygon fill="#191970" stroke="#191970" points="1642.3534,-275.6314 1651.8498,-280.3293 1647.3557,-270.7348 1642.3534,-275.6314"/>
</g>
<!-- Node123&#45;&gt;Node119 -->
<g id="edge52" class="edge">
<title>Node123&#45;&gt;Node119</title>
<path fill="none" stroke="#191970" d="M1626.9616,-280.2835C1391.4284,-244.8683 700.2184,-235.8028 556.3885,-234.2599"/>
<polygon fill="#191970" stroke="#191970" points="1626.7396,-283.7913 1637.1607,-281.8805 1627.8225,-276.8755 1626.7396,-283.7913"/>
</g>
<!-- Node123&#45;&gt;Node71 -->
<g id="edge53" class="edge">
<title>Node123&#45;&gt;Node71</title>
<path fill="none" stroke="#191970" d="M1664.4173,-270.1575C1665.0604,-261.155 1665.7914,-250.9199 1666.3112,-243.6427"/>
<polygon fill="#191970" stroke="#191970" points="1660.9182,-270.0216 1663.6967,-280.2455 1667.9004,-270.5204 1660.9182,-270.0216"/>
</g>
</g>
</svg>
