<?xml version="1.0" encoding="UTF-8" standalone="no"?>
<!DOCTYPE svg PUBLIC "-//W3C//DTD SVG 1.1//EN"
 "http://www.w3.org/Graphics/SVG/1.1/DTD/svg11.dtd">
<!-- Generated by graphviz version 2.40.1 (20161225.0304)
 -->
<!-- Title: traffic_mngr.h Pages: 1 -->
<svg width="1514pt" height="845pt"
 viewBox="0.00 0.00 1514.00 845.00" xmlns="http://www.w3.org/2000/svg" xmlns:xlink="http://www.w3.org/1999/xlink">
<g id="graph0" class="graph" transform="scale(1 1) rotate(0) translate(4 841)">
<title>traffic_mngr.h</title>
<polygon fill="#ffffff" stroke="transparent" points="-4,4 -4,-841 1510,-841 1510,4 -4,4"/>
<!-- Node0 -->
<g id="node1" class="node">
<title>Node0</title>
<polygon fill="#bfbfbf" stroke="#000000" points="96.5,-817.5 96.5,-836.5 173.5,-836.5 173.5,-817.5 96.5,-817.5"/>
<text text-anchor="middle" x="135" y="-824.5" font-family="Helvetica,sans-Serif" font-size="10.00" fill="#000000">traffic_mngr.h</text>
</g>
<!-- Node1 -->
<g id="node2" class="node">
<title>Node1</title>
<g id="a_node2"><a xlink:href="visibility__begin_8h_source.html" target="_top" xlink:title="odp/visibility_begin.h">
<polygon fill="#ffffff" stroke="#000000" points="504.5,-.5 504.5,-19.5 611.5,-19.5 611.5,-.5 504.5,-.5"/>
<text text-anchor="middle" x="558" y="-7.5" font-family="Helvetica,sans-Serif" font-size="10.00" fill="#000000">odp/visibility_begin.h</text>
</a>
</g>
</g>
<!-- Node0&#45;&gt;Node1 -->
<g id="edge1" class="edge">
<title>Node0&#45;&gt;Node1</title>
<path fill="none" stroke="#191970" d="M105.707,-817.4925C66.0024,-802.5496 0,-769.5114 0,-715 0,-715 0,-715 0,-133 0,-86.75 28.6293,-76.6768 70,-56 107.0656,-37.4748 370.2198,-20.5108 493.9729,-13.456"/>
<polygon fill="#191970" stroke="#191970" points="494.285,-16.9441 504.0713,-12.8847 493.8895,-9.9552 494.285,-16.9441"/>
</g>
<!-- Node2 -->
<g id="node3" class="node">
<title>Node2</title>
<g id="a_node3"><a xlink:href="api_2std__types_8h.html" target="_top" xlink:title="Standard C language types and definitions for ODP. ">
<polygon fill="#ffffff" stroke="#000000" points="344,-246.5 344,-265.5 446,-265.5 446,-246.5 344,-246.5"/>
<text text-anchor="middle" x="395" y="-253.5" font-family="Helvetica,sans-Serif" font-size="10.00" fill="#000000">odp/api/std_types.h</text>
</a>
</g>
</g>
<!-- Node0&#45;&gt;Node2 -->
<g id="edge2" class="edge">
<title>Node0&#45;&gt;Node2</title>
<path fill="none" stroke="#191970" d="M117.6583,-817.4601C89.7577,-800.6916 38,-763.1023 38,-715 38,-715 38,-715 38,-435 38,-304.2884 231.6101,-269.0198 333.6708,-259.5087"/>
<polygon fill="#191970" stroke="#191970" points="334.1942,-262.9763 343.8506,-258.6171 333.5833,-256.003 334.1942,-262.9763"/>
</g>
<!-- Node9 -->
<g id="node10" class="node">
<title>Node9</title>
<g id="a_node10"><a xlink:href="visibility__end_8h_source.html" target="_top" xlink:title="odp/visibility_end.h">
<polygon fill="#ffffff" stroke="#000000" points="1228,-.5 1228,-19.5 1328,-19.5 1328,-.5 1228,-.5"/>
<text text-anchor="middle" x="1278" y="-7.5" font-family="Helvetica,sans-Serif" font-size="10.00" fill="#000000">odp/visibility_end.h</text>
</a>
</g>
</g>
<!-- Node0&#45;&gt;Node9 -->
<g id="edge76" class="edge">
<title>Node0&#45;&gt;Node9</title>
<path fill="none" stroke="#191970" d="M173.8229,-825.9147C396.9355,-819.4292 1506,-783.7336 1506,-715 1506,-715 1506,-715 1506,-133 1506,-56.6379 1405.7119,-27.4627 1338.1618,-16.4724"/>
<polygon fill="#191970" stroke="#191970" points="1338.4505,-12.9759 1328.0356,-14.9197 1337.3895,-19.895 1338.4505,-12.9759"/>
</g>
<!-- Node10 -->
<g id="node11" class="node">
<title>Node10</title>
<g id="a_node11"><a xlink:href="api_2packet__io_8h.html" target="_top" xlink:title="ODP Packet IO. ">
<polygon fill="#ffffff" stroke="#000000" points="227.5,-761.5 227.5,-780.5 328.5,-780.5 328.5,-761.5 227.5,-761.5"/>
<text text-anchor="middle" x="278" y="-768.5" font-family="Helvetica,sans-Serif" font-size="10.00" fill="#000000">odp/api/packet_io.h</text>
</a>
</g>
</g>
<!-- Node0&#45;&gt;Node10 -->
<g id="edge13" class="edge">
<title>Node0&#45;&gt;Node10</title>
<path fill="none" stroke="#191970" d="M159.5826,-817.3733C182.9496,-808.2226 218.2862,-794.3844 244.2784,-784.2057"/>
<polygon fill="#191970" stroke="#191970" points="245.703,-787.4066 253.7382,-780.5011 243.1505,-780.8886 245.703,-787.4066"/>
</g>
<!-- Node3 -->
<g id="node4" class="node">
<title>Node3</title>
<polygon fill="#ffffff" stroke="#bfbfbf" points="158,-185 158,-204 276,-204 276,-185 158,-185"/>
<text text-anchor="middle" x="217" y="-192" font-family="Helvetica,sans-Serif" font-size="10.00" fill="#000000">odp/api/abi/std_types.h</text>
</g>
<!-- Node2&#45;&gt;Node3 -->
<g id="edge3" class="edge">
<title>Node2&#45;&gt;Node3</title>
<path fill="none" stroke="#191970" d="M367.1875,-246.3906C336.7517,-235.8749 287.8123,-218.966 254.1174,-207.3243"/>
<polygon fill="#191970" stroke="#191970" points="255.212,-203.9995 244.6172,-204.0419 252.926,-210.6157 255.212,-203.9995"/>
</g>
<!-- Node4 -->
<g id="node5" class="node">
<title>Node4</title>
<g id="a_node5"><a xlink:href="api_2spec_2std__types_8h.html" target="_top" xlink:title="Standard C language types and definitions for ODP. ">
<polygon fill="#ffffff" stroke="#000000" points="332,-185 332,-204 458,-204 458,-185 332,-185"/>
<text text-anchor="middle" x="395" y="-192" font-family="Helvetica,sans-Serif" font-size="10.00" fill="#000000">odp/api/spec/std_types.h</text>
</a>
</g>
</g>
<!-- Node2&#45;&gt;Node4 -->
<g id="edge4" class="edge">
<title>Node2&#45;&gt;Node4</title>
<path fill="none" stroke="#191970" d="M395,-246.3906C395,-237.8657 395,-225.1392 395,-214.4235"/>
<polygon fill="#191970" stroke="#191970" points="398.5001,-214.2448 395,-204.2449 391.5001,-214.2449 398.5001,-214.2448"/>
</g>
<!-- Node4&#45;&gt;Node1 -->
<g id="edge5" class="edge">
<title>Node4&#45;&gt;Node1</title>
<path fill="none" stroke="#191970" d="M381.126,-184.7784C349.1381,-161.2165 275.6473,-99.7804 312,-56 334.7568,-28.5934 429.2913,-17.4234 494.3141,-12.9344"/>
<polygon fill="#191970" stroke="#191970" points="494.7305,-16.4147 504.4809,-12.2698 494.2739,-9.4296 494.7305,-16.4147"/>
</g>
<!-- Node5 -->
<g id="node6" class="node">
<title>Node5</title>
<polygon fill="#ffffff" stroke="#bfbfbf" points="343.5,-123.5 343.5,-142.5 392.5,-142.5 392.5,-123.5 343.5,-123.5"/>
<text text-anchor="middle" x="368" y="-130.5" font-family="Helvetica,sans-Serif" font-size="10.00" fill="#000000">stdint.h</text>
</g>
<!-- Node4&#45;&gt;Node5 -->
<g id="edge6" class="edge">
<title>Node4&#45;&gt;Node5</title>
<path fill="none" stroke="#191970" d="M390.7813,-184.8906C386.9204,-176.0965 381.0966,-162.8312 376.3039,-151.9145"/>
<polygon fill="#191970" stroke="#191970" points="379.5029,-150.4943 372.2782,-142.7449 373.0934,-153.3083 379.5029,-150.4943"/>
</g>
<!-- Node6 -->
<g id="node7" class="node">
<title>Node6</title>
<g id="a_node7"><a xlink:href="api_2align_8h.html" target="_top" xlink:title="ODP alignments. ">
<polygon fill="#ffffff" stroke="#000000" points="449,-123.5 449,-142.5 529,-142.5 529,-123.5 449,-123.5"/>
<text text-anchor="middle" x="489" y="-130.5" font-family="Helvetica,sans-Serif" font-size="10.00" fill="#000000">odp/api/align.h</text>
</a>
</g>
</g>
<!-- Node4&#45;&gt;Node6 -->
<g id="edge7" class="edge">
<title>Node4&#45;&gt;Node6</title>
<path fill="none" stroke="#191970" d="M409.6875,-184.8906C424.7256,-175.0519 448.3176,-159.6167 465.8667,-148.1351"/>
<polygon fill="#191970" stroke="#191970" points="467.9637,-150.9457 474.4156,-142.5419 464.1313,-145.088 467.9637,-150.9457"/>
</g>
<!-- Node4&#45;&gt;Node9 -->
<g id="edge12" class="edge">
<title>Node4&#45;&gt;Node9</title>
<path fill="none" stroke="#191970" d="M458.0285,-188.9678C606.5611,-175.253 974.4898,-137.1367 1087,-87 1106.9087,-78.1283 1105.7501,-66.2226 1125,-56 1154.4922,-40.3383 1190.0829,-29.2339 1219.5136,-21.8641"/>
<polygon fill="#191970" stroke="#191970" points="1220.3463,-25.2637 1229.2406,-19.5068 1218.6975,-18.4607 1220.3463,-25.2637"/>
</g>
<!-- Node7 -->
<g id="node8" class="node">
<title>Node7</title>
<polygon fill="#ffffff" stroke="#bfbfbf" points="354.5,-62 354.5,-81 449.5,-81 449.5,-62 354.5,-62"/>
<text text-anchor="middle" x="402" y="-69" font-family="Helvetica,sans-Serif" font-size="10.00" fill="#000000">odp/api/abi/align.h</text>
</g>
<!-- Node6&#45;&gt;Node7 -->
<g id="edge8" class="edge">
<title>Node6&#45;&gt;Node7</title>
<path fill="none" stroke="#191970" d="M475.4063,-123.3906C461.6157,-113.6421 440.0528,-98.3994 423.859,-86.9521"/>
<polygon fill="#191970" stroke="#191970" points="425.6844,-83.9563 415.4983,-81.0419 421.6437,-89.6723 425.6844,-83.9563"/>
</g>
<!-- Node8 -->
<g id="node9" class="node">
<title>Node8</title>
<g id="a_node9"><a xlink:href="api_2spec_2align_8h.html" target="_top" xlink:title="ODP alignments. ">
<polygon fill="#ffffff" stroke="#000000" points="506,-62 506,-81 610,-81 610,-62 506,-62"/>
<text text-anchor="middle" x="558" y="-69" font-family="Helvetica,sans-Serif" font-size="10.00" fill="#000000">odp/api/spec/align.h</text>
</a>
</g>
</g>
<!-- Node6&#45;&gt;Node8 -->
<g id="edge9" class="edge">
<title>Node6&#45;&gt;Node8</title>
<path fill="none" stroke="#191970" d="M499.7813,-123.3906C510.3526,-113.9683 526.6825,-99.4134 539.3603,-88.1137"/>
<polygon fill="#191970" stroke="#191970" points="541.9304,-90.5114 547.0667,-81.2449 537.2728,-85.2858 541.9304,-90.5114"/>
</g>
<!-- Node8&#45;&gt;Node1 -->
<g id="edge10" class="edge">
<title>Node8&#45;&gt;Node1</title>
<path fill="none" stroke="#191970" d="M558,-61.8906C558,-53.3657 558,-40.6392 558,-29.9235"/>
<polygon fill="#191970" stroke="#191970" points="561.5001,-29.7448 558,-19.7449 554.5001,-29.7449 561.5001,-29.7448"/>
</g>
<!-- Node8&#45;&gt;Node9 -->
<g id="edge11" class="edge">
<title>Node8&#45;&gt;Node9</title>
<path fill="none" stroke="#191970" d="M591.0162,-61.9632C600.0242,-59.6765 609.8297,-57.4729 619,-56 733.3387,-37.6348 1077.3728,-19.6192 1217.5589,-12.8301"/>
<polygon fill="#191970" stroke="#191970" points="1217.8738,-16.3191 1227.6936,-12.3417 1217.5367,-9.3272 1217.8738,-16.3191"/>
</g>
<!-- Node10&#45;&gt;Node2 -->
<g id="edge14" class="edge">
<title>Node10&#45;&gt;Node2</title>
<path fill="none" stroke="#191970" d="M234.9109,-761.4175C186.3206,-747.7703 114,-717.6131 114,-659 114,-659 114,-659 114,-379 114,-329.9095 259.7411,-287.7323 341.3052,-267.9717"/>
<polygon fill="#191970" stroke="#191970" points="342.4886,-271.2876 351.4021,-265.5605 340.8626,-264.4791 342.4886,-271.2876"/>
</g>
<!-- Node11 -->
<g id="node12" class="node">
<title>Node11</title>
<polygon fill="#ffffff" stroke="#bfbfbf" points="1232.5,-369.5 1232.5,-388.5 1325.5,-388.5 1325.5,-369.5 1232.5,-369.5"/>
<text text-anchor="middle" x="1279" y="-376.5" font-family="Helvetica,sans-Serif" font-size="10.00" fill="#000000">odp/api/abi/pool.h</text>
</g>
<!-- Node10&#45;&gt;Node11 -->
<g id="edge15" class="edge">
<title>Node10&#45;&gt;Node11</title>
<path fill="none" stroke="#191970" d="M328.613,-768.7743C550.9507,-758.6702 1430,-715.1698 1430,-659 1430,-659 1430,-659 1430,-603 1430,-511.0508 1341.4372,-428.5601 1299.9612,-394.9696"/>
<polygon fill="#191970" stroke="#191970" points="1301.8847,-392.0281 1291.8742,-388.5581 1297.5359,-397.5134 1301.8847,-392.0281"/>
</g>
<!-- Node12 -->
<g id="node13" class="node">
<title>Node12</title>
<polygon fill="#ffffff" stroke="#bfbfbf" points="259,-705.5 259,-724.5 391,-724.5 391,-705.5 259,-705.5"/>
<text text-anchor="middle" x="325" y="-712.5" font-family="Helvetica,sans-Serif" font-size="10.00" fill="#000000">odp/api/abi/classification.h</text>
</g>
<!-- Node10&#45;&gt;Node12 -->
<g id="edge16" class="edge">
<title>Node10&#45;&gt;Node12</title>
<path fill="none" stroke="#191970" d="M286.1868,-761.2455C292.8589,-753.2958 302.4479,-741.8706 310.4253,-732.3656"/>
<polygon fill="#191970" stroke="#191970" points="313.1592,-734.5525 316.907,-724.6427 307.7974,-730.0524 313.1592,-734.5525"/>
</g>
<!-- Node13 -->
<g id="node14" class="node">
<title>Node13</title>
<polygon fill="#ffffff" stroke="#bfbfbf" points="142,-369.5 142,-388.5 246,-388.5 246,-369.5 142,-369.5"/>
<text text-anchor="middle" x="194" y="-376.5" font-family="Helvetica,sans-Serif" font-size="10.00" fill="#000000">odp/api/abi/packet.h</text>
</g>
<!-- Node10&#45;&gt;Node13 -->
<g id="edge17" class="edge">
<title>Node10&#45;&gt;Node13</title>
<path fill="none" stroke="#191970" d="M263.5809,-761.481C239.33,-744.1955 193,-705.1351 193,-659 193,-659 193,-659 193,-491 193,-458.7103 193.4207,-421.1863 193.7164,-398.8043"/>
<polygon fill="#191970" stroke="#191970" points="197.219,-398.6353 193.8567,-388.5881 190.2196,-398.5391 197.219,-398.6353"/>
</g>
<!-- Node14 -->
<g id="node15" class="node">
<title>Node14</title>
<polygon fill="#ffffff" stroke="#bfbfbf" points="264.5,-369.5 264.5,-388.5 381.5,-388.5 381.5,-369.5 264.5,-369.5"/>
<text text-anchor="middle" x="323" y="-376.5" font-family="Helvetica,sans-Serif" font-size="10.00" fill="#000000">odp/api/abi/packet_io.h</text>
</g>
<!-- Node10&#45;&gt;Node14 -->
<g id="edge18" class="edge">
<title>Node10&#45;&gt;Node14</title>
<path fill="none" stroke="#191970" d="M270.8617,-761.3839C257.7136,-742.6891 231,-699.6982 231,-659 231,-659 231,-659 231,-491 231,-448.5397 270.9701,-413.3942 298.219,-394.3678"/>
<polygon fill="#191970" stroke="#191970" points="300.2043,-397.2506 306.5522,-388.768 296.3,-391.4405 300.2043,-397.2506"/>
</g>
<!-- Node15 -->
<g id="node16" class="node">
<title>Node15</title>
<polygon fill="#ffffff" stroke="#bfbfbf" points="375.5,-593.5 375.5,-612.5 476.5,-612.5 476.5,-593.5 375.5,-593.5"/>
<text text-anchor="middle" x="426" y="-600.5" font-family="Helvetica,sans-Serif" font-size="10.00" fill="#000000">odp/api/abi/queue.h</text>
</g>
<!-- Node10&#45;&gt;Node15 -->
<g id="edge19" class="edge">
<title>Node10&#45;&gt;Node15</title>
<path fill="none" stroke="#191970" d="M328.795,-763.52C353.6791,-757.2761 382.0706,-745.8553 400,-725 424.842,-696.104 427.8175,-649.2927 427.2497,-622.846"/>
<polygon fill="#191970" stroke="#191970" points="430.7349,-622.4137 426.8242,-612.567 423.7408,-622.7032 430.7349,-622.4137"/>
</g>
<!-- Node16 -->
<g id="node17" class="node">
<title>Node16</title>
<g id="a_node17"><a xlink:href="api_2spec_2packet__io_8h.html" target="_top" xlink:title="ODP Packet IO. ">
<polygon fill="#ffffff" stroke="#000000" points="562.5,-705.5 562.5,-724.5 687.5,-724.5 687.5,-705.5 562.5,-705.5"/>
<text text-anchor="middle" x="625" y="-712.5" font-family="Helvetica,sans-Serif" font-size="10.00" fill="#000000">odp/api/spec/packet_io.h</text>
</a>
</g>
</g>
<!-- Node10&#45;&gt;Node16 -->
<g id="edge20" class="edge">
<title>Node10&#45;&gt;Node16</title>
<path fill="none" stroke="#191970" d="M328.8284,-762.7971C388.812,-753.1168 488.8467,-736.9729 555.8484,-726.1599"/>
<polygon fill="#191970" stroke="#191970" points="556.5812,-729.587 565.8958,-724.5384 555.4659,-722.6764 556.5812,-729.587"/>
</g>
<!-- Node16&#45;&gt;Node1 -->
<g id="edge21" class="edge">
<title>Node16&#45;&gt;Node1</title>
<path fill="none" stroke="#191970" d="M586.9376,-705.4719C456.8615,-670.4025 38,-535.755 38,-256 38,-256 38,-256 38,-133 38,-40.2333 355.3673,-17.3415 494.2276,-11.7652"/>
<polygon fill="#191970" stroke="#191970" points="494.451,-15.2593 504.3094,-11.3783 494.1825,-8.2645 494.451,-15.2593"/>
</g>
<!-- Node16&#45;&gt;Node9 -->
<g id="edge75" class="edge">
<title>Node16&#45;&gt;Node9</title>
<path fill="none" stroke="#191970" d="M687.6394,-712.8497C821.5227,-707.8336 1131.6746,-693.8575 1234,-669 1295.9268,-653.9564 1323.7907,-660.7453 1366,-613 1475.2961,-489.3691 1468,-421.0158 1468,-256 1468,-256 1468,-256 1468,-133 1468,-69.7971 1392.9973,-37.4596 1337.2391,-22.1519"/>
<polygon fill="#191970" stroke="#191970" points="1337.9852,-18.7293 1327.4243,-19.5758 1336.2081,-25.4999 1337.9852,-18.7293"/>
</g>
<!-- Node17 -->
<g id="node18" class="node">
<title>Node17</title>
<g id="a_node18"><a xlink:href="deprecated_8h.html" target="_top" xlink:title="Control deprecated API definitions. ">
<polygon fill="#ffffff" stroke="#000000" points="958.5,-246.5 958.5,-265.5 1065.5,-265.5 1065.5,-246.5 958.5,-246.5"/>
<text text-anchor="middle" x="1012" y="-253.5" font-family="Helvetica,sans-Serif" font-size="10.00" fill="#000000">odp/api/deprecated.h</text>
</a>
</g>
</g>
<!-- Node16&#45;&gt;Node17 -->
<g id="edge22" class="edge">
<title>Node16&#45;&gt;Node17</title>
<path fill="none" stroke="#191970" d="M687.7851,-711.9287C864.614,-702.4482 1354,-670.1449 1354,-603 1354,-603 1354,-603 1354,-379 1354,-348.1034 1153.8055,-292.4844 1059.7504,-268.0586"/>
<polygon fill="#191970" stroke="#191970" points="1060.4643,-264.6281 1049.9067,-265.5155 1058.7133,-271.4056 1060.4643,-264.6281"/>
</g>
<!-- Node19 -->
<g id="node20" class="node">
<title>Node19</title>
<g id="a_node20"><a xlink:href="packet__io__stats_8h.html" target="_top" xlink:title="ODP packet IO stats. ">
<polygon fill="#ffffff" stroke="#000000" points="748,-649.5 748,-668.5 876,-668.5 876,-649.5 748,-649.5"/>
<text text-anchor="middle" x="812" y="-656.5" font-family="Helvetica,sans-Serif" font-size="10.00" fill="#000000">odp/api/packet_io_stats.h</text>
</a>
</g>
</g>
<!-- Node16&#45;&gt;Node19 -->
<g id="edge26" class="edge">
<title>Node16&#45;&gt;Node19</title>
<path fill="none" stroke="#191970" d="M657.1464,-705.3733C688.5109,-695.9807 736.3665,-681.6496 770.5716,-671.4064"/>
<polygon fill="#191970" stroke="#191970" points="771.6975,-674.7229 780.273,-668.5011 769.6893,-668.0171 771.6975,-674.7229"/>
</g>
<!-- Node21 -->
<g id="node22" class="node">
<title>Node21</title>
<g id="a_node22"><a xlink:href="api_2queue_8h.html" target="_top" xlink:title="ODP queue. ">
<polygon fill="#ffffff" stroke="#000000" points="644,-649.5 644,-668.5 730,-668.5 730,-649.5 644,-649.5"/>
<text text-anchor="middle" x="687" y="-656.5" font-family="Helvetica,sans-Serif" font-size="10.00" fill="#000000">odp/api/queue.h</text>
</a>
</g>
</g>
<!-- Node16&#45;&gt;Node21 -->
<g id="edge30" class="edge">
<title>Node16&#45;&gt;Node21</title>
<path fill="none" stroke="#191970" d="M635.7996,-705.2455C644.8678,-697.0549 658.0206,-685.1749 668.7245,-675.5069"/>
<polygon fill="#191970" stroke="#191970" points="671.2491,-677.9429 676.3242,-668.6427 666.5571,-672.7482 671.2491,-677.9429"/>
</g>
<!-- Node27 -->
<g id="node28" class="node">
<title>Node27</title>
<g id="a_node28"><a xlink:href="api_2packet_8h.html" target="_top" xlink:title="ODP packet descriptor. ">
<polygon fill="#ffffff" stroke="#000000" points="583.5,-425.5 583.5,-444.5 672.5,-444.5 672.5,-425.5 583.5,-425.5"/>
<text text-anchor="middle" x="628" y="-432.5" font-family="Helvetica,sans-Serif" font-size="10.00" fill="#000000">odp/api/packet.h</text>
</a>
</g>
</g>
<!-- Node16&#45;&gt;Node27 -->
<g id="edge74" class="edge">
<title>Node16&#45;&gt;Node27</title>
<path fill="none" stroke="#191970" d="M625.1033,-705.3618C625.5342,-665.1418 627.1941,-510.2159 627.7875,-454.8288"/>
<polygon fill="#191970" stroke="#191970" points="631.2897,-454.6347 627.8972,-444.5977 624.2901,-454.5596 631.2897,-454.6347"/>
</g>
<!-- Node29 -->
<g id="node30" class="node">
<title>Node29</title>
<g id="a_node30"><a xlink:href="api_2time_8h.html" target="_top" xlink:title="ODP time. ">
<polygon fill="#ffffff" stroke="#000000" points="563,-308 563,-327 641,-327 641,-308 563,-308"/>
<text text-anchor="middle" x="602" y="-315" font-family="Helvetica,sans-Serif" font-size="10.00" fill="#000000">odp/api/time.h</text>
</a>
</g>
</g>
<!-- Node16&#45;&gt;Node29 -->
<g id="edge73" class="edge">
<title>Node16&#45;&gt;Node29</title>
<path fill="none" stroke="#191970" d="M604.686,-705.4652C573.4011,-689.209 517,-652.9722 517,-603 517,-603 517,-603 517,-491 517,-435.5601 514.8982,-416.7898 543,-369 551.485,-354.5704 565.4548,-342.1085 577.6714,-333.0591"/>
<polygon fill="#191970" stroke="#191970" points="579.9874,-335.7092 586.1535,-327.0935 575.9604,-329.9834 579.9874,-335.7092"/>
</g>
<!-- Node18 -->
<g id="node19" class="node">
<title>Node18</title>
<g id="a_node19"><a xlink:href="spec_2deprecated_8h.html" target="_top" xlink:title="Macro for deprecated API definitions. ">
<polygon fill="#ffffff" stroke="#000000" points="946.5,-62 946.5,-81 1077.5,-81 1077.5,-62 946.5,-62"/>
<text text-anchor="middle" x="1012" y="-69" font-family="Helvetica,sans-Serif" font-size="10.00" fill="#000000">odp/api/spec/deprecated.h</text>
</a>
</g>
</g>
<!-- Node17&#45;&gt;Node18 -->
<g id="edge23" class="edge">
<title>Node17&#45;&gt;Node18</title>
<path fill="none" stroke="#191970" d="M1012,-246.3402C1012,-217.3223 1012,-130.5088 1012,-91.2113"/>
<polygon fill="#191970" stroke="#191970" points="1015.5001,-91.0641 1012,-81.0641 1008.5001,-91.0642 1015.5001,-91.0641"/>
</g>
<!-- Node18&#45;&gt;Node1 -->
<g id="edge24" class="edge">
<title>Node18&#45;&gt;Node1</title>
<path fill="none" stroke="#191970" d="M965.5627,-61.9405C954.5836,-59.8364 942.8993,-57.724 932,-56 823.5381,-38.8436 696.5191,-24.4092 621.9083,-16.5031"/>
<polygon fill="#191970" stroke="#191970" points="622.0473,-12.9985 611.7356,-15.4313 621.3137,-19.9599 622.0473,-12.9985"/>
</g>
<!-- Node18&#45;&gt;Node9 -->
<g id="edge25" class="edge">
<title>Node18&#45;&gt;Node9</title>
<path fill="none" stroke="#191970" d="M1053.2706,-61.9581C1099.9609,-51.1632 1176.0575,-33.5694 1226.574,-21.8899"/>
<polygon fill="#191970" stroke="#191970" points="1227.678,-25.227 1236.6325,-19.5643 1226.1011,-18.4069 1227.678,-25.227"/>
</g>
<!-- Node20 -->
<g id="node21" class="node">
<title>Node20</title>
<g id="a_node21"><a xlink:href="spec_2packet__io__stats_8h.html" target="_top" xlink:title="ODP Packet IO. ">
<polygon fill="#ffffff" stroke="#000000" points="748,-56.5 748,-86.5 852,-86.5 852,-56.5 748,-56.5"/>
<text text-anchor="start" x="756" y="-74.5" font-family="Helvetica,sans-Serif" font-size="10.00" fill="#000000">odp/api/spec/packet</text>
<text text-anchor="middle" x="800" y="-63.5" font-family="Helvetica,sans-Serif" font-size="10.00" fill="#000000">_io_stats.h</text>
</a>
</g>
</g>
<!-- Node19&#45;&gt;Node20 -->
<g id="edge27" class="edge">
<title>Node19&#45;&gt;Node20</title>
<path fill="none" stroke="#191970" d="M812,-649.4116C812,-630.0538 812,-584.9167 812,-547 812,-547 812,-547 812,-435 812,-355.3836 805,-335.6164 805,-256 805,-256 805,-256 805,-194.5 805,-160.6173 803.0824,-121.5278 801.6223,-96.6754"/>
<polygon fill="#191970" stroke="#191970" points="805.1127,-96.4096 801.0118,-86.6406 798.1256,-96.8347 805.1127,-96.4096"/>
</g>
<!-- Node20&#45;&gt;Node1 -->
<g id="edge28" class="edge">
<title>Node20&#45;&gt;Node1</title>
<path fill="none" stroke="#191970" d="M747.7875,-58.2311C705.4274,-47.4661 646.2247,-32.4207 605.2553,-22.0091"/>
<polygon fill="#191970" stroke="#191970" points="606.0668,-18.6041 595.5128,-19.5332 604.3426,-25.3885 606.0668,-18.6041"/>
</g>
<!-- Node20&#45;&gt;Node9 -->
<g id="edge29" class="edge">
<title>Node20&#45;&gt;Node9</title>
<path fill="none" stroke="#191970" d="M852.0643,-64.8013C941.3629,-53.3121 1123.2273,-29.9132 1217.8174,-17.7432"/>
<polygon fill="#191970" stroke="#191970" points="1218.3293,-21.2062 1227.8009,-16.4587 1217.436,-14.2635 1218.3293,-21.2062"/>
</g>
<!-- Node21&#45;&gt;Node2 -->
<g id="edge31" class="edge">
<title>Node21&#45;&gt;Node2</title>
<path fill="none" stroke="#191970" d="M678.7128,-649.2439C646.0712,-610.5999 523.9676,-463.9889 438,-333 425.4575,-313.889 412.9195,-290.8801 404.6467,-275.0196"/>
<polygon fill="#191970" stroke="#191970" points="407.559,-273.0301 399.8689,-265.7421 401.3357,-276.235 407.559,-273.0301"/>
</g>
<!-- Node21&#45;&gt;Node11 -->
<g id="edge35" class="edge">
<title>Node21&#45;&gt;Node11</title>
<path fill="none" stroke="#191970" d="M730.0767,-650.3866C733.0912,-649.8853 736.0878,-649.4166 739,-649 907.3732,-624.9121 955.9558,-657.9363 1120,-613 1186.3457,-594.826 1260,-615.7899 1260,-547 1260,-547 1260,-547 1260,-491 1260,-458.2688 1267.9852,-420.9052 1273.6022,-398.6716"/>
<polygon fill="#191970" stroke="#191970" points="1277.0415,-399.3545 1276.1965,-388.7934 1270.2711,-397.5763 1277.0415,-399.3545"/>
</g>
<!-- Node21&#45;&gt;Node15 -->
<g id="edge33" class="edge">
<title>Node21&#45;&gt;Node15</title>
<path fill="none" stroke="#191970" d="M643.9012,-649.7527C599.1589,-640.1529 529.049,-625.1101 480.4914,-614.6916"/>
<polygon fill="#191970" stroke="#191970" points="480.9855,-611.2181 470.4738,-612.5423 479.517,-618.0623 480.9855,-611.2181"/>
</g>
<!-- Node22 -->
<g id="node23" class="node">
<title>Node22</title>
<polygon fill="#ffffff" stroke="#bfbfbf" points="1076.5,-369.5 1076.5,-388.5 1175.5,-388.5 1175.5,-369.5 1076.5,-369.5"/>
<text text-anchor="middle" x="1126" y="-376.5" font-family="Helvetica,sans-Serif" font-size="10.00" fill="#000000">odp/api/abi/event.h</text>
</g>
<!-- Node21&#45;&gt;Node22 -->
<g id="edge32" class="edge">
<title>Node21&#45;&gt;Node22</title>
<path fill="none" stroke="#191970" d="M730.1131,-650.6134C733.1189,-650.0581 736.1037,-649.5154 739,-649 835.0499,-631.9092 1166,-644.5586 1166,-547 1166,-547 1166,-547 1166,-491 1166,-456.4432 1148.903,-419.1996 1137.0642,-397.5529"/>
<polygon fill="#191970" stroke="#191970" points="1140.0578,-395.7365 1132.0751,-388.7703 1133.9713,-399.1941 1140.0578,-395.7365"/>
</g>
<!-- Node23 -->
<g id="node24" class="node">
<title>Node23</title>
<polygon fill="#ffffff" stroke="#bfbfbf" points="684,-369.5 684,-388.5 784,-388.5 784,-369.5 684,-369.5"/>
<text text-anchor="middle" x="734" y="-376.5" font-family="Helvetica,sans-Serif" font-size="10.00" fill="#000000">odp/api/abi/buffer.h</text>
</g>
<!-- Node21&#45;&gt;Node23 -->
<g id="edge34" class="edge">
<title>Node21&#45;&gt;Node23</title>
<path fill="none" stroke="#191970" d="M692.0168,-649.4109C701.4745,-630.4144 721,-586.4221 721,-547 721,-547 721,-547 721,-491 721,-458.3457 726.52,-420.6911 730.3661,-398.4184"/>
<polygon fill="#191970" stroke="#191970" points="733.8165,-399.0059 732.1374,-388.545 726.9265,-397.7698 733.8165,-399.0059"/>
</g>
<!-- Node24 -->
<g id="node25" class="node">
<title>Node24</title>
<g id="a_node25"><a xlink:href="api_2spec_2queue_8h.html" target="_top" xlink:title="ODP queue. ">
<polygon fill="#ffffff" stroke="#000000" points="840,-593.5 840,-612.5 950,-612.5 950,-593.5 840,-593.5"/>
<text text-anchor="middle" x="895" y="-600.5" font-family="Helvetica,sans-Serif" font-size="10.00" fill="#000000">odp/api/spec/queue.h</text>
</a>
</g>
</g>
<!-- Node21&#45;&gt;Node24 -->
<g id="edge36" class="edge">
<title>Node21&#45;&gt;Node24</title>
<path fill="none" stroke="#191970" d="M722.7565,-649.3733C757.9426,-639.9001 811.7881,-625.4032 849.8956,-615.1435"/>
<polygon fill="#191970" stroke="#191970" points="850.9639,-618.4806 859.7101,-612.5011 849.144,-611.7213 850.9639,-618.4806"/>
</g>
<!-- Node24&#45;&gt;Node1 -->
<g id="edge37" class="edge">
<title>Node24&#45;&gt;Node1</title>
<path fill="none" stroke="#191970" d="M863.213,-593.3881C801.8227,-573.6139 664.9883,-523.5303 574,-445 521.8758,-400.0127 486,-386.3534 486,-317.5 486,-317.5 486,-317.5 486,-256 486,-220.7513 485.5606,-208.9662 467,-179 446.7434,-146.2957 431.9141,-145.8958 401,-123 377.223,-105.3901 359.1783,-112.9699 345,-87 338.3979,-74.9071 336.3468,-66.7214 345,-56 363.5096,-33.0663 438.3842,-21.0093 494.1599,-15.0844"/>
<polygon fill="#191970" stroke="#191970" points="494.7404,-18.5435 504.3343,-14.0483 494.0311,-11.5795 494.7404,-18.5435"/>
</g>
<!-- Node24&#45;&gt;Node9 -->
<g id="edge72" class="edge">
<title>Node24&#45;&gt;Node9</title>
<path fill="none" stroke="#191970" d="M932.8724,-593.4528C958.8569,-585.9027 993.4793,-573.8182 1021,-557 1125.9279,-492.8774 1115.575,-427.0137 1224,-369 1284.4506,-336.6554 1316.9841,-371.074 1374,-333 1409.1907,-309.5004 1430,-298.3157 1430,-256 1430,-256 1430,-256 1430,-133 1430,-75.5987 1363.6847,-40.3636 1318.6591,-23.0557"/>
<polygon fill="#191970" stroke="#191970" points="1319.7195,-19.7163 1309.1263,-19.5336 1317.2935,-26.2825 1319.7195,-19.7163"/>
</g>
<!-- Node25 -->
<g id="node26" class="node">
<title>Node25</title>
<g id="a_node26"><a xlink:href="api_2event_8h.html" target="_top" xlink:title="ODP event. ">
<polygon fill="#ffffff" stroke="#000000" points="928.5,-537.5 928.5,-556.5 1011.5,-556.5 1011.5,-537.5 928.5,-537.5"/>
<text text-anchor="middle" x="970" y="-544.5" font-family="Helvetica,sans-Serif" font-size="10.00" fill="#000000">odp/api/event.h</text>
</a>
</g>
</g>
<!-- Node24&#45;&gt;Node25 -->
<g id="edge38" class="edge">
<title>Node24&#45;&gt;Node25</title>
<path fill="none" stroke="#191970" d="M908.064,-593.2455C919.3562,-584.814 935.8845,-572.4729 949.0271,-562.6598"/>
<polygon fill="#191970" stroke="#191970" points="951.1669,-565.4301 957.0857,-556.6427 946.9789,-559.8211 951.1669,-565.4301"/>
</g>
<!-- Node32 -->
<g id="node33" class="node">
<title>Node32</title>
<g id="a_node33"><a xlink:href="queue__types_8h.html" target="_top" xlink:title="ODP queue types. ">
<polygon fill="#ffffff" stroke="#000000" points="961.5,-302.5 961.5,-332.5 1062.5,-332.5 1062.5,-302.5 961.5,-302.5"/>
<text text-anchor="start" x="969.5" y="-320.5" font-family="Helvetica,sans-Serif" font-size="10.00" fill="#000000">odp/api/spec/queue</text>
<text text-anchor="middle" x="1012" y="-309.5" font-family="Helvetica,sans-Serif" font-size="10.00" fill="#000000">_types.h</text>
</a>
</g>
</g>
<!-- Node24&#45;&gt;Node32 -->
<g id="edge59" class="edge">
<title>Node24&#45;&gt;Node32</title>
<path fill="none" stroke="#191970" d="M893.9971,-593.4242C892.0615,-574.0891 888,-528.9907 888,-491 888,-491 888,-491 888,-435 888,-389.8068 931.9353,-356.7835 967.5014,-337.4546"/>
<polygon fill="#191970" stroke="#191970" points="969.5528,-340.332 976.7983,-332.6019 966.3137,-334.1264 969.5528,-340.332"/>
</g>
<!-- Node25&#45;&gt;Node22 -->
<g id="edge39" class="edge">
<title>Node25&#45;&gt;Node22</title>
<path fill="none" stroke="#191970" d="M985.7284,-537.3546C999.0978,-528.7428 1018.3915,-515.31 1033,-501 1066.7407,-467.9487 1098.3645,-422.142 1114.6122,-397.1138"/>
<polygon fill="#191970" stroke="#191970" points="1117.6133,-398.9175 1120.0588,-388.6088 1111.7184,-395.1425 1117.6133,-398.9175"/>
</g>
<!-- Node26 -->
<g id="node27" class="node">
<title>Node26</title>
<g id="a_node27"><a xlink:href="api_2spec_2event_8h.html" target="_top" xlink:title="ODP event. ">
<polygon fill="#ffffff" stroke="#000000" points="916.5,-481.5 916.5,-500.5 1023.5,-500.5 1023.5,-481.5 916.5,-481.5"/>
<text text-anchor="middle" x="970" y="-488.5" font-family="Helvetica,sans-Serif" font-size="10.00" fill="#000000">odp/api/spec/event.h</text>
</a>
</g>
</g>
<!-- Node25&#45;&gt;Node26 -->
<g id="edge40" class="edge">
<title>Node25&#45;&gt;Node26</title>
<path fill="none" stroke="#191970" d="M970,-537.2455C970,-529.9382 970,-519.6944 970,-510.7046"/>
<polygon fill="#191970" stroke="#191970" points="973.5001,-510.6426 970,-500.6427 966.5001,-510.6427 973.5001,-510.6426"/>
</g>
<!-- Node26&#45;&gt;Node1 -->
<g id="edge41" class="edge">
<title>Node26&#45;&gt;Node1</title>
<path fill="none" stroke="#191970" d="M958.351,-481.1072C885.777,-419.4674 498.6389,-90.5552 497,-87 491.232,-74.4877 490.8545,-68.3313 497,-56 503.6003,-42.756 516.0327,-32.3192 527.9605,-24.7581"/>
<polygon fill="#191970" stroke="#191970" points="530.0165,-27.6102 536.8784,-19.5378 526.4801,-21.5691 530.0165,-27.6102"/>
</g>
<!-- Node26&#45;&gt;Node9 -->
<g id="edge58" class="edge">
<title>Node26&#45;&gt;Node9</title>
<path fill="none" stroke="#191970" d="M975.2578,-481.2304C988.0709,-458.3139 1023.1706,-400.6547 1068,-369 1192.5795,-281.0328 1392,-408.5066 1392,-256 1392,-256 1392,-256 1392,-133 1392,-82.7008 1340.0841,-44.2744 1306.3217,-24.6028"/>
<polygon fill="#191970" stroke="#191970" points="1307.7714,-21.4029 1297.3385,-19.5575 1304.3435,-27.5062 1307.7714,-21.4029"/>
</g>
<!-- Node26&#45;&gt;Node27 -->
<g id="edge42" class="edge">
<title>Node26&#45;&gt;Node27</title>
<path fill="none" stroke="#191970" d="M916.1863,-482.1884C852.3522,-471.736 746.5392,-454.4099 682.4344,-443.9132"/>
<polygon fill="#191970" stroke="#191970" points="682.9511,-440.4513 672.5169,-442.2893 681.8199,-447.3593 682.9511,-440.4513"/>
</g>
<!-- Node27&#45;&gt;Node2 -->
<g id="edge43" class="edge">
<title>Node27&#45;&gt;Node2</title>
<path fill="none" stroke="#191970" d="M606.9297,-425.3303C589.2178,-416.8023 563.571,-403.502 543,-389 491.0576,-352.382 437.3387,-299.7088 411.2209,-272.9663"/>
<polygon fill="#191970" stroke="#191970" points="413.5054,-270.2941 404.0341,-265.5458 408.4771,-275.1641 413.5054,-270.2941"/>
</g>
<!-- Node27&#45;&gt;Node11 -->
<g id="edge48" class="edge">
<title>Node27&#45;&gt;Node11</title>
<path fill="none" stroke="#191970" d="M672.7952,-431.661C767.4389,-424.527 994.697,-406.9781 1185,-389 1196.9988,-387.8665 1209.8489,-386.5604 1222.0746,-385.274"/>
<polygon fill="#191970" stroke="#191970" points="1222.5904,-388.7389 1232.1648,-384.2023 1221.8511,-381.7781 1222.5904,-388.7389"/>
</g>
<!-- Node27&#45;&gt;Node13 -->
<g id="edge46" class="edge">
<title>Node27&#45;&gt;Node13</title>
<path fill="none" stroke="#191970" d="M583.426,-430.0835C515.2381,-422.4351 380.6887,-406.8424 256.304,-389.1437"/>
<polygon fill="#191970" stroke="#191970" points="256.6173,-385.6529 246.2224,-387.7012 255.6258,-392.5824 256.6173,-385.6529"/>
</g>
<!-- Node27&#45;&gt;Node14 -->
<g id="edge45" class="edge">
<title>Node27&#45;&gt;Node14</title>
<path fill="none" stroke="#191970" d="M583.3237,-426.7971C530.9252,-417.1764 443.7556,-401.1715 384.8733,-390.3604"/>
<polygon fill="#191970" stroke="#191970" points="385.418,-386.9019 374.9503,-388.5384 384.1538,-393.7868 385.418,-386.9019"/>
</g>
<!-- Node27&#45;&gt;Node22 -->
<g id="edge44" class="edge">
<title>Node27&#45;&gt;Node22</title>
<path fill="none" stroke="#191970" d="M672.6324,-429.9811C762.4185,-419.8847 964.9152,-397.114 1066.098,-385.736"/>
<polygon fill="#191970" stroke="#191970" points="1066.6095,-389.2006 1076.1557,-384.605 1065.8272,-382.2444 1066.6095,-389.2006"/>
</g>
<!-- Node27&#45;&gt;Node23 -->
<g id="edge47" class="edge">
<title>Node27&#45;&gt;Node23</title>
<path fill="none" stroke="#191970" d="M646.4638,-425.2455C663.1074,-416.4527 687.7993,-403.4079 706.7192,-393.4125"/>
<polygon fill="#191970" stroke="#191970" points="708.5408,-396.4086 715.7478,-388.6427 705.2709,-390.2193 708.5408,-396.4086"/>
</g>
<!-- Node28 -->
<g id="node29" class="node">
<title>Node28</title>
<g id="a_node29"><a xlink:href="api_2spec_2packet_8h.html" target="_top" xlink:title="ODP packet descriptor. ">
<polygon fill="#ffffff" stroke="#000000" points="552.5,-369.5 552.5,-388.5 665.5,-388.5 665.5,-369.5 552.5,-369.5"/>
<text text-anchor="middle" x="609" y="-376.5" font-family="Helvetica,sans-Serif" font-size="10.00" fill="#000000">odp/api/spec/packet.h</text>
</a>
</g>
</g>
<!-- Node27&#45;&gt;Node28 -->
<g id="edge49" class="edge">
<title>Node27&#45;&gt;Node28</title>
<path fill="none" stroke="#191970" d="M624.6905,-425.2455C622.1567,-417.7776 618.5823,-407.2427 615.485,-398.1137"/>
<polygon fill="#191970" stroke="#191970" points="618.7991,-396.9879 612.2716,-388.6427 612.1702,-399.237 618.7991,-396.9879"/>
</g>
<!-- Node28&#45;&gt;Node1 -->
<g id="edge50" class="edge">
<title>Node28&#45;&gt;Node1</title>
<path fill="none" stroke="#191970" d="M597.1281,-369.2124C585.9411,-359.9561 568.7424,-345.6395 554,-333 509.5307,-294.8741 506.5834,-273.7537 455,-246 401.4496,-217.1879 364.3887,-254.5506 323,-210 285.0905,-169.1944 304.3582,-142.4393 299,-87 297.6746,-73.2861 290.1504,-66.5599 299,-56 323.4138,-26.8682 425.5791,-16.1724 494.0638,-12.2542"/>
<polygon fill="#191970" stroke="#191970" points="494.5316,-15.7342 504.3294,-11.7028 494.156,-8.7443 494.5316,-15.7342"/>
</g>
<!-- Node28&#45;&gt;Node9 -->
<g id="edge57" class="edge">
<title>Node28&#45;&gt;Node9</title>
<path fill="none" stroke="#191970" d="M665.8522,-370.1649C668.9441,-369.7535 672.0086,-369.3619 675,-369 937.9571,-337.1855 1029.5305,-392.951 1262,-266 1307.4499,-241.1799 1354,-246.2854 1354,-194.5 1354,-194.5 1354,-194.5 1354,-133 1354,-89.4388 1319.0757,-48.4145 1296.5765,-26.5053"/>
<polygon fill="#191970" stroke="#191970" points="1298.8962,-23.8822 1289.2141,-19.5801 1294.1001,-28.981 1298.8962,-23.8822"/>
</g>
<!-- Node28&#45;&gt;Node29 -->
<g id="edge51" class="edge">
<title>Node28&#45;&gt;Node29</title>
<path fill="none" stroke="#191970" d="M607.9063,-369.3906C606.9359,-360.8657 605.4874,-348.1392 604.2677,-337.4235"/>
<polygon fill="#191970" stroke="#191970" points="607.7177,-336.7849 603.1092,-327.2449 600.7626,-337.5766 607.7177,-336.7849"/>
</g>
<!-- Node29&#45;&gt;Node2 -->
<g id="edge52" class="edge">
<title>Node29&#45;&gt;Node2</title>
<path fill="none" stroke="#191970" d="M569.6563,-307.8906C533.882,-297.2621 476.1253,-280.1025 436.9095,-268.4514"/>
<polygon fill="#191970" stroke="#191970" points="437.6993,-265.0349 427.1166,-265.5419 435.7057,-271.745 437.6993,-265.0349"/>
</g>
<!-- Node30 -->
<g id="node31" class="node">
<title>Node30</title>
<polygon fill="#ffffff" stroke="#bfbfbf" points="555,-246.5 555,-265.5 649,-265.5 649,-246.5 555,-246.5"/>
<text text-anchor="middle" x="602" y="-253.5" font-family="Helvetica,sans-Serif" font-size="10.00" fill="#000000">odp/api/abi/time.h</text>
</g>
<!-- Node29&#45;&gt;Node30 -->
<g id="edge53" class="edge">
<title>Node29&#45;&gt;Node30</title>
<path fill="none" stroke="#191970" d="M602,-307.8906C602,-299.3657 602,-286.6392 602,-275.9235"/>
<polygon fill="#191970" stroke="#191970" points="605.5001,-275.7448 602,-265.7449 598.5001,-275.7449 605.5001,-275.7448"/>
</g>
<!-- Node31 -->
<g id="node32" class="node">
<title>Node31</title>
<g id="a_node32"><a xlink:href="api_2spec_2time_8h.html" target="_top" xlink:title="ODP time. ">
<polygon fill="#ffffff" stroke="#000000" points="628,-62 628,-81 730,-81 730,-62 628,-62"/>
<text text-anchor="middle" x="679" y="-69" font-family="Helvetica,sans-Serif" font-size="10.00" fill="#000000">odp/api/spec/time.h</text>
</a>
</g>
</g>
<!-- Node29&#45;&gt;Node31 -->
<g id="edge54" class="edge">
<title>Node29&#45;&gt;Node31</title>
<path fill="none" stroke="#191970" d="M617.4793,-307.9597C630.6702,-298.9131 648.8947,-284.0414 658,-266 687.2735,-207.9971 684.5237,-128.0735 681.2637,-91.378"/>
<polygon fill="#191970" stroke="#191970" points="684.7098,-90.6652 680.2272,-81.0654 677.7449,-91.3653 684.7098,-90.6652"/>
</g>
<!-- Node31&#45;&gt;Node1 -->
<g id="edge55" class="edge">
<title>Node31&#45;&gt;Node1</title>
<path fill="none" stroke="#191970" d="M660.0938,-61.8906C640.2034,-51.7811 608.6877,-35.7628 585.9308,-24.1962"/>
<polygon fill="#191970" stroke="#191970" points="587.274,-20.9528 576.7735,-19.5419 584.1022,-27.193 587.274,-20.9528"/>
</g>
<!-- Node31&#45;&gt;Node9 -->
<g id="edge56" class="edge">
<title>Node31&#45;&gt;Node9</title>
<path fill="none" stroke="#191970" d="M711.7951,-61.9695C720.5692,-59.711 730.0915,-57.5198 739,-56 911.1233,-26.6361 1117.5279,-15.661 1217.6351,-11.8527"/>
<polygon fill="#191970" stroke="#191970" points="1217.9938,-15.3419 1227.8576,-11.4748 1217.7351,-8.3467 1217.9938,-15.3419"/>
</g>
<!-- Node32&#45;&gt;Node1 -->
<g id="edge60" class="edge">
<title>Node32&#45;&gt;Node1</title>
<path fill="none" stroke="#191970" d="M988.7131,-302.3125C975.9437,-293.048 960.6021,-280.262 950,-266 889.5233,-184.6469 941.0624,-118.1753 861,-56 824.7036,-27.8128 699.4264,-16.7208 621.7805,-12.4875"/>
<polygon fill="#191970" stroke="#191970" points="621.7912,-8.9833 611.6224,-11.9578 621.4266,-15.9739 621.7912,-8.9833"/>
</g>
<!-- Node32&#45;&gt;Node9 -->
<g id="edge71" class="edge">
<title>Node32&#45;&gt;Node9</title>
<path fill="none" stroke="#191970" d="M1062.8505,-310.7025C1106.3721,-303.5634 1169.9055,-289.9491 1221,-266 1268.8491,-243.5721 1316,-247.3445 1316,-194.5 1316,-194.5 1316,-194.5 1316,-133 1316,-94.6461 1298.9248,-52.4423 1287.6666,-28.7843"/>
<polygon fill="#191970" stroke="#191970" points="1290.6861,-26.9938 1283.1248,-19.5723 1284.4077,-30.0892 1290.6861,-26.9938"/>
</g>
<!-- Node32&#45;&gt;Node17 -->
<g id="edge70" class="edge">
<title>Node32&#45;&gt;Node17</title>
<path fill="none" stroke="#191970" d="M1012,-302.2977C1012,-294.3834 1012,-284.6043 1012,-276.0759"/>
<polygon fill="#191970" stroke="#191970" points="1015.5001,-275.8469 1012,-265.8469 1008.5001,-275.847 1015.5001,-275.8469"/>
</g>
<!-- Node33 -->
<g id="node34" class="node">
<title>Node33</title>
<g id="a_node34"><a xlink:href="api_2schedule__types_8h.html" target="_top" xlink:title="ODP schedule. ">
<polygon fill="#ffffff" stroke="#000000" points="1084,-246.5 1084,-265.5 1212,-265.5 1212,-246.5 1084,-246.5"/>
<text text-anchor="middle" x="1148" y="-253.5" font-family="Helvetica,sans-Serif" font-size="10.00" fill="#000000">odp/api/schedule_types.h</text>
</a>
</g>
</g>
<!-- Node32&#45;&gt;Node33 -->
<g id="edge61" class="edge">
<title>Node32&#45;&gt;Node33</title>
<path fill="none" stroke="#191970" d="M1045.2693,-302.4554C1067.3641,-292.464 1096.146,-279.4487 1117.6219,-269.7372"/>
<polygon fill="#191970" stroke="#191970" points="1119.2553,-272.8398 1126.9248,-265.5303 1116.371,-266.4616 1119.2553,-272.8398"/>
</g>
<!-- Node34 -->
<g id="node35" class="node">
<title>Node34</title>
<polygon fill="#ffffff" stroke="#bfbfbf" points="1182,-179.5 1182,-209.5 1288,-209.5 1288,-179.5 1182,-179.5"/>
<text text-anchor="start" x="1190" y="-197.5" font-family="Helvetica,sans-Serif" font-size="10.00" fill="#000000">odp/api/abi/schedule</text>
<text text-anchor="middle" x="1235" y="-186.5" font-family="Helvetica,sans-Serif" font-size="10.00" fill="#000000">_types.h</text>
</g>
<!-- Node33&#45;&gt;Node34 -->
<g id="edge62" class="edge">
<title>Node33&#45;&gt;Node34</title>
<path fill="none" stroke="#191970" d="M1161.5938,-246.3906C1173.2591,-238.1444 1190.4859,-225.9669 1205.32,-215.4807"/>
<polygon fill="#191970" stroke="#191970" points="1207.572,-218.175 1213.7174,-209.5446 1203.5313,-212.459 1207.572,-218.175"/>
</g>
<!-- Node35 -->
<g id="node36" class="node">
<title>Node35</title>
<g id="a_node36"><a xlink:href="api_2spec_2schedule__types_8h.html" target="_top" xlink:title="ODP schedule types. ">
<polygon fill="#ffffff" stroke="#000000" points="1050,-179.5 1050,-209.5 1164,-209.5 1164,-179.5 1050,-179.5"/>
<text text-anchor="start" x="1058" y="-197.5" font-family="Helvetica,sans-Serif" font-size="10.00" fill="#000000">odp/api/spec/schedule</text>
<text text-anchor="middle" x="1107" y="-186.5" font-family="Helvetica,sans-Serif" font-size="10.00" fill="#000000">_types.h</text>
</a>
</g>
</g>
<!-- Node33&#45;&gt;Node35 -->
<g id="edge63" class="edge">
<title>Node33&#45;&gt;Node35</title>
<path fill="none" stroke="#191970" d="M1141.5938,-246.3906C1136.5587,-238.838 1129.3251,-227.9876 1122.7729,-218.1593"/>
<polygon fill="#191970" stroke="#191970" points="1125.489,-215.9236 1117.0297,-209.5446 1119.6646,-219.8066 1125.489,-215.9236"/>
</g>
<!-- Node35&#45;&gt;Node1 -->
<g id="edge64" class="edge">
<title>Node35&#45;&gt;Node1</title>
<path fill="none" stroke="#191970" d="M1082.4181,-179.3702C1049.314,-158.8804 988.7044,-120.9607 938,-87 918.1245,-73.6878 916.2601,-64.76 894,-56 845.8106,-37.0361 705.1936,-22.414 621.9284,-15.1212"/>
<polygon fill="#191970" stroke="#191970" points="622.0843,-11.6217 611.8199,-14.2471 621.4812,-18.5957 622.0843,-11.6217"/>
</g>
<!-- Node35&#45;&gt;Node9 -->
<g id="edge69" class="edge">
<title>Node35&#45;&gt;Node9</title>
<path fill="none" stroke="#191970" d="M1144.8878,-179.4282C1181.2064,-162.7529 1234.0777,-132.1286 1259,-87 1268.9513,-68.9805 1273.7595,-45.7473 1276.0378,-29.5352"/>
<polygon fill="#191970" stroke="#191970" points="1279.5153,-29.9318 1277.243,-19.5835 1272.566,-29.0901 1279.5153,-29.9318"/>
</g>
<!-- Node36 -->
<g id="node37" class="node">
<title>Node36</title>
<g id="a_node37"><a xlink:href="support_8h.html" target="_top" xlink:title="ODP support API &#45; platform specific header. ">
<polygon fill="#ffffff" stroke="#000000" points="1104,-123.5 1104,-142.5 1196,-142.5 1196,-123.5 1104,-123.5"/>
<text text-anchor="middle" x="1150" y="-130.5" font-family="Helvetica,sans-Serif" font-size="10.00" fill="#000000">odp/api/support.h</text>
</a>
</g>
</g>
<!-- Node35&#45;&gt;Node36 -->
<g id="edge65" class="edge">
<title>Node35&#45;&gt;Node36</title>
<path fill="none" stroke="#191970" d="M1117.6292,-179.2977C1123.5981,-170.7609 1131.0838,-160.0545 1137.3529,-151.0883"/>
<polygon fill="#191970" stroke="#191970" points="1140.2534,-153.048 1143.1152,-142.8469 1134.5165,-149.0368 1140.2534,-153.048"/>
</g>
<!-- Node37 -->
<g id="node38" class="node">
<title>Node37</title>
<g id="a_node38"><a xlink:href="spec_2support_8h.html" target="_top" xlink:title="ODP support API. ">
<polygon fill="#ffffff" stroke="#000000" points="1134,-62 1134,-81 1250,-81 1250,-62 1134,-62"/>
<text text-anchor="middle" x="1192" y="-69" font-family="Helvetica,sans-Serif" font-size="10.00" fill="#000000">odp/api/spec/support.h</text>
</a>
</g>
</g>
<!-- Node36&#45;&gt;Node37 -->
<g id="edge66" class="edge">
<title>Node36&#45;&gt;Node37</title>
<path fill="none" stroke="#191970" d="M1156.5625,-123.3906C1162.6908,-114.417 1171.9985,-100.7879 1179.5372,-89.7491"/>
<polygon fill="#191970" stroke="#191970" points="1182.5956,-91.4768 1185.345,-81.2449 1176.815,-87.529 1182.5956,-91.4768"/>
</g>
<!-- Node37&#45;&gt;Node1 -->
<g id="edge67" class="edge">
<title>Node37&#45;&gt;Node1</title>
<path fill="none" stroke="#191970" d="M1133.7663,-62.2702C1118.5679,-60.0351 1102.1902,-57.78 1087,-56 919.6446,-36.3891 721.5947,-21.3322 621.9963,-14.3236"/>
<polygon fill="#191970" stroke="#191970" points="622.0177,-10.8166 611.7978,-13.6099 621.529,-17.7995 622.0177,-10.8166"/>
</g>
<!-- Node37&#45;&gt;Node9 -->
<g id="edge68" class="edge">
<title>Node37&#45;&gt;Node9</title>
<path fill="none" stroke="#191970" d="M1205.4375,-61.8906C1219.0695,-52.1421 1240.3846,-36.8994 1256.3922,-25.4521"/>
<polygon fill="#191970" stroke="#191970" points="1258.5586,-28.2057 1264.6569,-19.5419 1254.4868,-22.5118 1258.5586,-28.2057"/>
</g>
</g>
</svg>
