<?xml version="1.0" encoding="UTF-8" standalone="no"?>
<!DOCTYPE svg PUBLIC "-//W3C//DTD SVG 1.1//EN"
 "http://www.w3.org/Graphics/SVG/1.1/DTD/svg11.dtd">
<!-- Generated by graphviz version 2.40.1 (20161225.0304)
 -->
<!-- Title: traffic_mngr.h Pages: 1 -->
<svg width="1517pt" height="912pt"
 viewBox="0.00 0.00 1517.00 912.00" xmlns="http://www.w3.org/2000/svg" xmlns:xlink="http://www.w3.org/1999/xlink">
<g id="graph0" class="graph" transform="scale(1 1) rotate(0) translate(4 908)">
<title>traffic_mngr.h</title>
<polygon fill="#ffffff" stroke="transparent" points="-4,4 -4,-908 1513,-908 1513,4 -4,4"/>
<!-- Node0 -->
<g id="node1" class="node">
<title>Node0</title>
<polygon fill="#bfbfbf" stroke="#000000" points="64.5,-884.5 64.5,-903.5 141.5,-903.5 141.5,-884.5 64.5,-884.5"/>
<text text-anchor="middle" x="103" y="-891.5" font-family="Helvetica,sans-Serif" font-size="10.00" fill="#000000">traffic_mngr.h</text>
</g>
<!-- Node1 -->
<g id="node2" class="node">
<title>Node1</title>
<polygon fill="#ffffff" stroke="#bfbfbf" points="0,-817.5 0,-847.5 92,-847.5 92,-817.5 0,-817.5"/>
<text text-anchor="start" x="8" y="-835.5" font-family="Helvetica,sans-Serif" font-size="10.00" fill="#000000">odp/api/abi/traffic</text>
<text text-anchor="middle" x="46" y="-824.5" font-family="Helvetica,sans-Serif" font-size="10.00" fill="#000000">_mngr.h</text>
</g>
<!-- Node0&#45;&gt;Node1 -->
<g id="edge1" class="edge">
<title>Node0&#45;&gt;Node1</title>
<path fill="none" stroke="#191970" d="M94.0938,-884.3906C86.8081,-876.5298 76.2113,-865.0964 66.8177,-854.9612"/>
<polygon fill="#191970" stroke="#191970" points="69.3085,-852.4997 59.9438,-847.5446 64.1744,-857.2581 69.3085,-852.4997"/>
</g>
<!-- Node2 -->
<g id="node3" class="node">
<title>Node2</title>
<g id="a_node3"><a xlink:href="api_2spec_2traffic__mngr_8h.html" target="_top" xlink:title="Copyright (c) 2015&#45;2018, Linaro Limited All rights reserved. ">
<polygon fill="#ffffff" stroke="#000000" points="110,-817.5 110,-847.5 210,-847.5 210,-817.5 110,-817.5"/>
<text text-anchor="start" x="118" y="-835.5" font-family="Helvetica,sans-Serif" font-size="10.00" fill="#000000">odp/api/spec/traffic</text>
<text text-anchor="middle" x="160" y="-824.5" font-family="Helvetica,sans-Serif" font-size="10.00" fill="#000000">_mngr.h</text>
</a>
</g>
</g>
<!-- Node0&#45;&gt;Node2 -->
<g id="edge2" class="edge">
<title>Node0&#45;&gt;Node2</title>
<path fill="none" stroke="#191970" d="M111.9063,-884.3906C119.1919,-876.5298 129.7887,-865.0964 139.1823,-854.9612"/>
<polygon fill="#191970" stroke="#191970" points="141.8256,-857.2581 146.0562,-847.5446 136.6915,-852.4997 141.8256,-857.2581"/>
</g>
<!-- Node3 -->
<g id="node4" class="node">
<title>Node3</title>
<g id="a_node4"><a xlink:href="visibility__begin_8h_source.html" target="_top" xlink:title="odp/visibility_begin.h">
<polygon fill="#ffffff" stroke="#000000" points="507.5,-.5 507.5,-19.5 614.5,-19.5 614.5,-.5 507.5,-.5"/>
<text text-anchor="middle" x="561" y="-7.5" font-family="Helvetica,sans-Serif" font-size="10.00" fill="#000000">odp/visibility_begin.h</text>
</a>
</g>
</g>
<!-- Node2&#45;&gt;Node3 -->
<g id="edge3" class="edge">
<title>Node2&#45;&gt;Node3</title>
<path fill="none" stroke="#191970" d="M109.5734,-818.2417C63.3336,-801.718 2,-769.524 2,-715 2,-715 2,-715 2,-133 2,-86.75 30.6274,-76.6729 72,-56 109.189,-37.4176 373.4943,-20.4521 497.3057,-13.4238"/>
<polygon fill="#191970" stroke="#191970" points="497.6191,-16.9118 507.4063,-12.8548 497.2253,-9.9229 497.6191,-16.9118"/>
</g>
<!-- Node4 -->
<g id="node5" class="node">
<title>Node4</title>
<g id="a_node5"><a xlink:href="api_2std__types_8h.html" target="_top" xlink:title="Standard C language types and definitions for ODP. ">
<polygon fill="#ffffff" stroke="#000000" points="346,-246.5 346,-265.5 448,-265.5 448,-246.5 346,-246.5"/>
<text text-anchor="middle" x="397" y="-253.5" font-family="Helvetica,sans-Serif" font-size="10.00" fill="#000000">odp/api/std_types.h</text>
</a>
</g>
</g>
<!-- Node2&#45;&gt;Node4 -->
<g id="edge4" class="edge">
<title>Node2&#45;&gt;Node4</title>
<path fill="none" stroke="#191970" d="M126.5733,-817.4255C91.0663,-798.8593 40,-763.693 40,-715 40,-715 40,-715 40,-435 40,-304.2884 233.6101,-269.0198 335.6708,-259.5087"/>
<polygon fill="#191970" stroke="#191970" points="336.1942,-262.9763 345.8506,-258.6171 335.5833,-256.003 336.1942,-262.9763"/>
</g>
<!-- Node11 -->
<g id="node12" class="node">
<title>Node11</title>
<g id="a_node12"><a xlink:href="visibility__end_8h_source.html" target="_top" xlink:title="odp/visibility_end.h">
<polygon fill="#ffffff" stroke="#000000" points="1231,-.5 1231,-19.5 1331,-19.5 1331,-.5 1231,-.5"/>
<text text-anchor="middle" x="1281" y="-7.5" font-family="Helvetica,sans-Serif" font-size="10.00" fill="#000000">odp/visibility_end.h</text>
</a>
</g>
</g>
<!-- Node2&#45;&gt;Node11 -->
<g id="edge78" class="edge">
<title>Node2&#45;&gt;Node11</title>
<path fill="none" stroke="#191970" d="M210.0152,-830.8162C454.1543,-822.275 1509,-781.5226 1509,-715 1509,-715 1509,-715 1509,-133 1509,-56.6379 1408.7119,-27.4627 1341.1618,-16.4724"/>
<polygon fill="#191970" stroke="#191970" points="1341.4505,-12.9759 1331.0356,-14.9197 1340.3895,-19.895 1341.4505,-12.9759"/>
</g>
<!-- Node12 -->
<g id="node13" class="node">
<title>Node12</title>
<g id="a_node13"><a xlink:href="api_2packet__io_8h.html" target="_top" xlink:title="ODP Packet IO. ">
<polygon fill="#ffffff" stroke="#000000" points="228.5,-761.5 228.5,-780.5 329.5,-780.5 329.5,-761.5 228.5,-761.5"/>
<text text-anchor="middle" x="279" y="-768.5" font-family="Helvetica,sans-Serif" font-size="10.00" fill="#000000">odp/api/packet_io.h</text>
</a>
</g>
</g>
<!-- Node2&#45;&gt;Node12 -->
<g id="edge15" class="edge">
<title>Node2&#45;&gt;Node12</title>
<path fill="none" stroke="#191970" d="M189.1107,-817.4554C208.1824,-807.599 232.9482,-794.7999 251.6539,-785.1327"/>
<polygon fill="#191970" stroke="#191970" points="253.2824,-788.2309 260.5592,-780.5303 250.0685,-782.0122 253.2824,-788.2309"/>
</g>
<!-- Node5 -->
<g id="node6" class="node">
<title>Node5</title>
<polygon fill="#ffffff" stroke="#bfbfbf" points="160,-185 160,-204 278,-204 278,-185 160,-185"/>
<text text-anchor="middle" x="219" y="-192" font-family="Helvetica,sans-Serif" font-size="10.00" fill="#000000">odp/api/abi/std_types.h</text>
</g>
<!-- Node4&#45;&gt;Node5 -->
<g id="edge5" class="edge">
<title>Node4&#45;&gt;Node5</title>
<path fill="none" stroke="#191970" d="M369.1875,-246.3906C338.7517,-235.8749 289.8123,-218.966 256.1174,-207.3243"/>
<polygon fill="#191970" stroke="#191970" points="257.212,-203.9995 246.6172,-204.0419 254.926,-210.6157 257.212,-203.9995"/>
</g>
<!-- Node6 -->
<g id="node7" class="node">
<title>Node6</title>
<g id="a_node7"><a xlink:href="api_2spec_2std__types_8h.html" target="_top" xlink:title="Standard C language types and definitions for ODP. ">
<polygon fill="#ffffff" stroke="#000000" points="334,-185 334,-204 460,-204 460,-185 334,-185"/>
<text text-anchor="middle" x="397" y="-192" font-family="Helvetica,sans-Serif" font-size="10.00" fill="#000000">odp/api/spec/std_types.h</text>
</a>
</g>
</g>
<!-- Node4&#45;&gt;Node6 -->
<g id="edge6" class="edge">
<title>Node4&#45;&gt;Node6</title>
<path fill="none" stroke="#191970" d="M397,-246.3906C397,-237.8657 397,-225.1392 397,-214.4235"/>
<polygon fill="#191970" stroke="#191970" points="400.5001,-214.2448 397,-204.2449 393.5001,-214.2449 400.5001,-214.2448"/>
</g>
<!-- Node6&#45;&gt;Node3 -->
<g id="edge7" class="edge">
<title>Node6&#45;&gt;Node3</title>
<path fill="none" stroke="#191970" d="M381.7886,-184.9748C368.1313,-175.7326 348.3807,-160.5564 336,-143 313.076,-110.4929 289.5894,-86.6026 315,-56 337.7568,-28.5934 432.2913,-17.4234 497.3141,-12.9344"/>
<polygon fill="#191970" stroke="#191970" points="497.7305,-16.4147 507.4809,-12.2698 497.2739,-9.4296 497.7305,-16.4147"/>
</g>
<!-- Node7 -->
<g id="node8" class="node">
<title>Node7</title>
<polygon fill="#ffffff" stroke="#bfbfbf" points="345.5,-123.5 345.5,-142.5 394.5,-142.5 394.5,-123.5 345.5,-123.5"/>
<text text-anchor="middle" x="370" y="-130.5" font-family="Helvetica,sans-Serif" font-size="10.00" fill="#000000">stdint.h</text>
</g>
<!-- Node6&#45;&gt;Node7 -->
<g id="edge8" class="edge">
<title>Node6&#45;&gt;Node7</title>
<path fill="none" stroke="#191970" d="M392.7813,-184.8906C388.9204,-176.0965 383.0966,-162.8312 378.3039,-151.9145"/>
<polygon fill="#191970" stroke="#191970" points="381.5029,-150.4943 374.2782,-142.7449 375.0934,-153.3083 381.5029,-150.4943"/>
</g>
<!-- Node8 -->
<g id="node9" class="node">
<title>Node8</title>
<g id="a_node9"><a xlink:href="api_2align_8h.html" target="_top" xlink:title="ODP alignments. ">
<polygon fill="#ffffff" stroke="#000000" points="451,-123.5 451,-142.5 531,-142.5 531,-123.5 451,-123.5"/>
<text text-anchor="middle" x="491" y="-130.5" font-family="Helvetica,sans-Serif" font-size="10.00" fill="#000000">odp/api/align.h</text>
</a>
</g>
</g>
<!-- Node6&#45;&gt;Node8 -->
<g id="edge9" class="edge">
<title>Node6&#45;&gt;Node8</title>
<path fill="none" stroke="#191970" d="M411.6875,-184.8906C426.7256,-175.0519 450.3176,-159.6167 467.8667,-148.1351"/>
<polygon fill="#191970" stroke="#191970" points="469.9637,-150.9457 476.4156,-142.5419 466.1313,-145.088 469.9637,-150.9457"/>
</g>
<!-- Node6&#45;&gt;Node11 -->
<g id="edge14" class="edge">
<title>Node6&#45;&gt;Node11</title>
<path fill="none" stroke="#191970" d="M460.1194,-188.9754C608.8661,-175.2774 977.3256,-137.1951 1090,-87 1109.9096,-78.1305 1108.7501,-66.2226 1128,-56 1157.4922,-40.3383 1193.0829,-29.2339 1222.5136,-21.8641"/>
<polygon fill="#191970" stroke="#191970" points="1223.3463,-25.2637 1232.2406,-19.5068 1221.6975,-18.4607 1223.3463,-25.2637"/>
</g>
<!-- Node9 -->
<g id="node10" class="node">
<title>Node9</title>
<polygon fill="#ffffff" stroke="#bfbfbf" points="357.5,-62 357.5,-81 452.5,-81 452.5,-62 357.5,-62"/>
<text text-anchor="middle" x="405" y="-69" font-family="Helvetica,sans-Serif" font-size="10.00" fill="#000000">odp/api/abi/align.h</text>
</g>
<!-- Node8&#45;&gt;Node9 -->
<g id="edge10" class="edge">
<title>Node8&#45;&gt;Node9</title>
<path fill="none" stroke="#191970" d="M477.5625,-123.3906C463.9305,-113.6421 442.6154,-98.3994 426.6078,-86.9521"/>
<polygon fill="#191970" stroke="#191970" points="428.5132,-84.0118 418.3431,-81.0419 424.4414,-89.7057 428.5132,-84.0118"/>
</g>
<!-- Node10 -->
<g id="node11" class="node">
<title>Node10</title>
<g id="a_node11"><a xlink:href="api_2spec_2align_8h.html" target="_top" xlink:title="ODP alignments. ">
<polygon fill="#ffffff" stroke="#000000" points="509,-62 509,-81 613,-81 613,-62 509,-62"/>
<text text-anchor="middle" x="561" y="-69" font-family="Helvetica,sans-Serif" font-size="10.00" fill="#000000">odp/api/spec/align.h</text>
</a>
</g>
</g>
<!-- Node8&#45;&gt;Node10 -->
<g id="edge11" class="edge">
<title>Node8&#45;&gt;Node10</title>
<path fill="none" stroke="#191970" d="M501.9375,-123.3906C512.662,-113.9683 529.2287,-99.4134 542.0901,-88.1137"/>
<polygon fill="#191970" stroke="#191970" points="544.7059,-90.4745 549.9083,-81.2449 540.0857,-85.2158 544.7059,-90.4745"/>
</g>
<!-- Node10&#45;&gt;Node3 -->
<g id="edge12" class="edge">
<title>Node10&#45;&gt;Node3</title>
<path fill="none" stroke="#191970" d="M561,-61.8906C561,-53.3657 561,-40.6392 561,-29.9235"/>
<polygon fill="#191970" stroke="#191970" points="564.5001,-29.7448 561,-19.7449 557.5001,-29.7449 564.5001,-29.7448"/>
</g>
<!-- Node10&#45;&gt;Node11 -->
<g id="edge13" class="edge">
<title>Node10&#45;&gt;Node11</title>
<path fill="none" stroke="#191970" d="M594.0162,-61.9632C603.0242,-59.6765 612.8297,-57.4729 622,-56 736.3387,-37.6348 1080.3728,-19.6192 1220.5589,-12.8301"/>
<polygon fill="#191970" stroke="#191970" points="1220.8738,-16.3191 1230.6936,-12.3417 1220.5367,-9.3272 1220.8738,-16.3191"/>
</g>
<!-- Node12&#45;&gt;Node4 -->
<g id="edge16" class="edge">
<title>Node12&#45;&gt;Node4</title>
<path fill="none" stroke="#191970" d="M236.5992,-761.4558C188.303,-747.7844 116,-717.5413 116,-659 116,-659 116,-659 116,-379 116,-329.9095 261.7411,-287.7323 343.3052,-267.9717"/>
<polygon fill="#191970" stroke="#191970" points="344.4886,-271.2876 353.4021,-265.5605 342.8626,-264.4791 344.4886,-271.2876"/>
</g>
<!-- Node13 -->
<g id="node14" class="node">
<title>Node13</title>
<polygon fill="#ffffff" stroke="#bfbfbf" points="1235.5,-369.5 1235.5,-388.5 1328.5,-388.5 1328.5,-369.5 1235.5,-369.5"/>
<text text-anchor="middle" x="1282" y="-376.5" font-family="Helvetica,sans-Serif" font-size="10.00" fill="#000000">odp/api/abi/pool.h</text>
</g>
<!-- Node12&#45;&gt;Node13 -->
<g id="edge17" class="edge">
<title>Node12&#45;&gt;Node13</title>
<path fill="none" stroke="#191970" d="M329.7008,-768.779C552.4245,-758.6946 1433,-715.2665 1433,-659 1433,-659 1433,-659 1433,-603 1433,-511.0508 1344.4372,-428.5601 1302.9612,-394.9696"/>
<polygon fill="#191970" stroke="#191970" points="1304.8847,-392.0281 1294.8742,-388.5581 1300.5359,-397.5134 1304.8847,-392.0281"/>
</g>
<!-- Node14 -->
<g id="node15" class="node">
<title>Node14</title>
<polygon fill="#ffffff" stroke="#bfbfbf" points="260,-705.5 260,-724.5 392,-724.5 392,-705.5 260,-705.5"/>
<text text-anchor="middle" x="326" y="-712.5" font-family="Helvetica,sans-Serif" font-size="10.00" fill="#000000">odp/api/abi/classification.h</text>
</g>
<!-- Node12&#45;&gt;Node14 -->
<g id="edge18" class="edge">
<title>Node12&#45;&gt;Node14</title>
<path fill="none" stroke="#191970" d="M287.1868,-761.2455C293.8589,-753.2958 303.4479,-741.8706 311.4253,-732.3656"/>
<polygon fill="#191970" stroke="#191970" points="314.1592,-734.5525 317.907,-724.6427 308.7974,-730.0524 314.1592,-734.5525"/>
</g>
<!-- Node15 -->
<g id="node16" class="node">
<title>Node15</title>
<polygon fill="#ffffff" stroke="#bfbfbf" points="144,-369.5 144,-388.5 248,-388.5 248,-369.5 144,-369.5"/>
<text text-anchor="middle" x="196" y="-376.5" font-family="Helvetica,sans-Serif" font-size="10.00" fill="#000000">odp/api/abi/packet.h</text>
</g>
<!-- Node12&#45;&gt;Node15 -->
<g id="edge19" class="edge">
<title>Node12&#45;&gt;Node15</title>
<path fill="none" stroke="#191970" d="M264.5809,-761.481C240.33,-744.1955 194,-705.1351 194,-659 194,-659 194,-659 194,-491 194,-458.7064 194.8415,-421.1836 195.4328,-398.8029"/>
<polygon fill="#191970" stroke="#191970" points="198.9374,-398.6797 195.7134,-388.5873 191.9401,-398.4874 198.9374,-398.6797"/>
</g>
<!-- Node16 -->
<g id="node17" class="node">
<title>Node16</title>
<polygon fill="#ffffff" stroke="#bfbfbf" points="266.5,-369.5 266.5,-388.5 383.5,-388.5 383.5,-369.5 266.5,-369.5"/>
<text text-anchor="middle" x="325" y="-376.5" font-family="Helvetica,sans-Serif" font-size="10.00" fill="#000000">odp/api/abi/packet_io.h</text>
</g>
<!-- Node12&#45;&gt;Node16 -->
<g id="edge20" class="edge">
<title>Node12&#45;&gt;Node16</title>
<path fill="none" stroke="#191970" d="M271.8617,-761.3839C258.7136,-742.6891 232,-699.6982 232,-659 232,-659 232,-659 232,-491 232,-448.3531 272.4045,-413.267 299.9496,-394.3028"/>
<polygon fill="#191970" stroke="#191970" points="301.9693,-397.1632 308.3735,-388.7229 298.1037,-391.3273 301.9693,-397.1632"/>
</g>
<!-- Node17 -->
<g id="node18" class="node">
<title>Node17</title>
<polygon fill="#ffffff" stroke="#bfbfbf" points="382.5,-593.5 382.5,-612.5 483.5,-612.5 483.5,-593.5 382.5,-593.5"/>
<text text-anchor="middle" x="433" y="-600.5" font-family="Helvetica,sans-Serif" font-size="10.00" fill="#000000">odp/api/abi/queue.h</text>
</g>
<!-- Node12&#45;&gt;Node17 -->
<g id="edge21" class="edge">
<title>Node12&#45;&gt;Node17</title>
<path fill="none" stroke="#191970" d="M329.7032,-763.0913C354.408,-756.7378 382.6659,-745.3484 401,-725 426.7914,-696.3751 432.2458,-649.4622 433.1353,-622.9255"/>
<polygon fill="#191970" stroke="#191970" points="436.6393,-622.6571 433.2814,-612.6086 429.64,-622.558 436.6393,-622.6571"/>
</g>
<!-- Node18 -->
<g id="node19" class="node">
<title>Node18</title>
<g id="a_node19"><a xlink:href="api_2spec_2packet__io_8h.html" target="_top" xlink:title="ODP Packet IO. ">
<polygon fill="#ffffff" stroke="#000000" points="564.5,-705.5 564.5,-724.5 689.5,-724.5 689.5,-705.5 564.5,-705.5"/>
<text text-anchor="middle" x="627" y="-712.5" font-family="Helvetica,sans-Serif" font-size="10.00" fill="#000000">odp/api/spec/packet_io.h</text>
</a>
</g>
</g>
<!-- Node12&#45;&gt;Node18 -->
<g id="edge22" class="edge">
<title>Node12&#45;&gt;Node18</title>
<path fill="none" stroke="#191970" d="M329.6022,-762.8571C389.7591,-753.1767 490.4587,-736.9722 557.7928,-726.1368"/>
<polygon fill="#191970" stroke="#191970" points="558.5719,-729.5565 567.8888,-724.5121 557.4597,-722.6454 558.5719,-729.5565"/>
</g>
<!-- Node18&#45;&gt;Node3 -->
<g id="edge23" class="edge">
<title>Node18&#45;&gt;Node3</title>
<path fill="none" stroke="#191970" d="M588.9376,-705.4719C458.8615,-670.4025 40,-535.755 40,-256 40,-256 40,-256 40,-133 40,-40.0644 357.9776,-17.2675 497.105,-11.7409"/>
<polygon fill="#191970" stroke="#191970" points="497.3461,-15.2344 507.2062,-11.3577 497.0806,-8.2394 497.3461,-15.2344"/>
</g>
<!-- Node18&#45;&gt;Node11 -->
<g id="edge77" class="edge">
<title>Node18&#45;&gt;Node11</title>
<path fill="none" stroke="#191970" d="M689.7421,-712.8549C823.8451,-707.849 1134.506,-693.8918 1237,-669 1298.9277,-653.9602 1325.5154,-659.5868 1369,-613 1463.8036,-511.4331 1471,-456.4372 1471,-317.5 1471,-317.5 1471,-317.5 1471,-133 1471,-69.7971 1395.9973,-37.4596 1340.2391,-22.1519"/>
<polygon fill="#191970" stroke="#191970" points="1340.9852,-18.7293 1330.4243,-19.5758 1339.2081,-25.4999 1340.9852,-18.7293"/>
</g>
<!-- Node19 -->
<g id="node20" class="node">
<title>Node19</title>
<g id="a_node20"><a xlink:href="deprecated_8h.html" target="_top" xlink:title="Control deprecated API definitions. ">
<polygon fill="#ffffff" stroke="#000000" points="961.5,-246.5 961.5,-265.5 1068.5,-265.5 1068.5,-246.5 961.5,-246.5"/>
<text text-anchor="middle" x="1015" y="-253.5" font-family="Helvetica,sans-Serif" font-size="10.00" fill="#000000">odp/api/deprecated.h</text>
</a>
</g>
</g>
<!-- Node18&#45;&gt;Node19 -->
<g id="edge24" class="edge">
<title>Node18&#45;&gt;Node19</title>
<path fill="none" stroke="#191970" d="M689.555,-711.9544C866.3584,-702.5191 1357,-670.2749 1357,-603 1357,-603 1357,-603 1357,-379 1357,-348.1034 1156.8055,-292.4844 1062.7504,-268.0586"/>
<polygon fill="#191970" stroke="#191970" points="1063.4643,-264.6281 1052.9067,-265.5155 1061.7133,-271.4056 1063.4643,-264.6281"/>
</g>
<!-- Node21 -->
<g id="node22" class="node">
<title>Node21</title>
<g id="a_node22"><a xlink:href="packet__io__stats_8h.html" target="_top" xlink:title="ODP packet IO stats. ">
<polygon fill="#ffffff" stroke="#000000" points="750,-649.5 750,-668.5 878,-668.5 878,-649.5 750,-649.5"/>
<text text-anchor="middle" x="814" y="-656.5" font-family="Helvetica,sans-Serif" font-size="10.00" fill="#000000">odp/api/packet_io_stats.h</text>
</a>
</g>
</g>
<!-- Node18&#45;&gt;Node21 -->
<g id="edge28" class="edge">
<title>Node18&#45;&gt;Node21</title>
<path fill="none" stroke="#191970" d="M659.1464,-705.3733C690.5109,-695.9807 738.3665,-681.6496 772.5716,-671.4064"/>
<polygon fill="#191970" stroke="#191970" points="773.6975,-674.7229 782.273,-668.5011 771.6893,-668.0171 773.6975,-674.7229"/>
</g>
<!-- Node23 -->
<g id="node24" class="node">
<title>Node23</title>
<g id="a_node24"><a xlink:href="api_2queue_8h.html" target="_top" xlink:title="ODP queue. ">
<polygon fill="#ffffff" stroke="#000000" points="646,-649.5 646,-668.5 732,-668.5 732,-649.5 646,-649.5"/>
<text text-anchor="middle" x="689" y="-656.5" font-family="Helvetica,sans-Serif" font-size="10.00" fill="#000000">odp/api/queue.h</text>
</a>
</g>
</g>
<!-- Node18&#45;&gt;Node23 -->
<g id="edge32" class="edge">
<title>Node18&#45;&gt;Node23</title>
<path fill="none" stroke="#191970" d="M637.7996,-705.2455C646.8678,-697.0549 660.0206,-685.1749 670.7245,-675.5069"/>
<polygon fill="#191970" stroke="#191970" points="673.2491,-677.9429 678.3242,-668.6427 668.5571,-672.7482 673.2491,-677.9429"/>
</g>
<!-- Node29 -->
<g id="node30" class="node">
<title>Node29</title>
<g id="a_node30"><a xlink:href="api_2packet_8h.html" target="_top" xlink:title="ODP packet descriptor. ">
<polygon fill="#ffffff" stroke="#000000" points="585.5,-425.5 585.5,-444.5 674.5,-444.5 674.5,-425.5 585.5,-425.5"/>
<text text-anchor="middle" x="630" y="-432.5" font-family="Helvetica,sans-Serif" font-size="10.00" fill="#000000">odp/api/packet.h</text>
</a>
</g>
</g>
<!-- Node18&#45;&gt;Node29 -->
<g id="edge76" class="edge">
<title>Node18&#45;&gt;Node29</title>
<path fill="none" stroke="#191970" d="M627.1033,-705.3618C627.5342,-665.1418 629.1941,-510.2159 629.7875,-454.8288"/>
<polygon fill="#191970" stroke="#191970" points="633.2897,-454.6347 629.8972,-444.5977 626.2901,-454.5596 633.2897,-454.6347"/>
</g>
<!-- Node31 -->
<g id="node32" class="node">
<title>Node31</title>
<g id="a_node32"><a xlink:href="api_2time_8h.html" target="_top" xlink:title="ODP time. ">
<polygon fill="#ffffff" stroke="#000000" points="565,-308 565,-327 643,-327 643,-308 565,-308"/>
<text text-anchor="middle" x="604" y="-315" font-family="Helvetica,sans-Serif" font-size="10.00" fill="#000000">odp/api/time.h</text>
</a>
</g>
</g>
<!-- Node18&#45;&gt;Node31 -->
<g id="edge75" class="edge">
<title>Node18&#45;&gt;Node31</title>
<path fill="none" stroke="#191970" d="M606.686,-705.4652C575.4011,-689.209 519,-652.9722 519,-603 519,-603 519,-603 519,-491 519,-435.5601 516.8982,-416.7898 545,-369 553.485,-354.5704 567.4548,-342.1085 579.6714,-333.0591"/>
<polygon fill="#191970" stroke="#191970" points="581.9874,-335.7092 588.1535,-327.0935 577.9604,-329.9834 581.9874,-335.7092"/>
</g>
<!-- Node20 -->
<g id="node21" class="node">
<title>Node20</title>
<g id="a_node21"><a xlink:href="spec_2deprecated_8h.html" target="_top" xlink:title="Macro for deprecated API definitions. ">
<polygon fill="#ffffff" stroke="#000000" points="949.5,-62 949.5,-81 1080.5,-81 1080.5,-62 949.5,-62"/>
<text text-anchor="middle" x="1015" y="-69" font-family="Helvetica,sans-Serif" font-size="10.00" fill="#000000">odp/api/spec/deprecated.h</text>
</a>
</g>
</g>
<!-- Node19&#45;&gt;Node20 -->
<g id="edge25" class="edge">
<title>Node19&#45;&gt;Node20</title>
<path fill="none" stroke="#191970" d="M1015,-246.3402C1015,-217.3223 1015,-130.5088 1015,-91.2113"/>
<polygon fill="#191970" stroke="#191970" points="1018.5001,-91.0641 1015,-81.0641 1011.5001,-91.0642 1018.5001,-91.0641"/>
</g>
<!-- Node20&#45;&gt;Node3 -->
<g id="edge26" class="edge">
<title>Node20&#45;&gt;Node3</title>
<path fill="none" stroke="#191970" d="M968.5627,-61.9405C957.5836,-59.8364 945.8993,-57.724 935,-56 826.5381,-38.8436 699.5191,-24.4092 624.9083,-16.5031"/>
<polygon fill="#191970" stroke="#191970" points="625.0473,-12.9985 614.7356,-15.4313 624.3137,-19.9599 625.0473,-12.9985"/>
</g>
<!-- Node20&#45;&gt;Node11 -->
<g id="edge27" class="edge">
<title>Node20&#45;&gt;Node11</title>
<path fill="none" stroke="#191970" d="M1056.2706,-61.9581C1102.9609,-51.1632 1179.0575,-33.5694 1229.574,-21.8899"/>
<polygon fill="#191970" stroke="#191970" points="1230.678,-25.227 1239.6325,-19.5643 1229.1011,-18.4069 1230.678,-25.227"/>
</g>
<!-- Node22 -->
<g id="node23" class="node">
<title>Node22</title>
<g id="a_node23"><a xlink:href="spec_2packet__io__stats_8h.html" target="_top" xlink:title="ODP Packet IO. ">
<polygon fill="#ffffff" stroke="#000000" points="751,-56.5 751,-86.5 855,-86.5 855,-56.5 751,-56.5"/>
<text text-anchor="start" x="759" y="-74.5" font-family="Helvetica,sans-Serif" font-size="10.00" fill="#000000">odp/api/spec/packet</text>
<text text-anchor="middle" x="803" y="-63.5" font-family="Helvetica,sans-Serif" font-size="10.00" fill="#000000">_io_stats.h</text>
</a>
</g>
</g>
<!-- Node21&#45;&gt;Node22 -->
<g id="edge29" class="edge">
<title>Node21&#45;&gt;Node22</title>
<path fill="none" stroke="#191970" d="M814,-649.4116C814,-630.0538 814,-584.9167 814,-547 814,-547 814,-547 814,-435 814,-355.3998 808,-335.6002 808,-256 808,-256 808,-256 808,-194.5 808,-160.6173 806.0824,-121.5278 804.6223,-96.6754"/>
<polygon fill="#191970" stroke="#191970" points="808.1127,-96.4096 804.0118,-86.6406 801.1256,-96.8347 808.1127,-96.4096"/>
</g>
<!-- Node22&#45;&gt;Node3 -->
<g id="edge30" class="edge">
<title>Node22&#45;&gt;Node3</title>
<path fill="none" stroke="#191970" d="M750.7875,-58.2311C708.4274,-47.4661 649.2247,-32.4207 608.2553,-22.0091"/>
<polygon fill="#191970" stroke="#191970" points="609.0668,-18.6041 598.5128,-19.5332 607.3426,-25.3885 609.0668,-18.6041"/>
</g>
<!-- Node22&#45;&gt;Node11 -->
<g id="edge31" class="edge">
<title>Node22&#45;&gt;Node11</title>
<path fill="none" stroke="#191970" d="M855.0643,-64.8013C944.3629,-53.3121 1126.2273,-29.9132 1220.8174,-17.7432"/>
<polygon fill="#191970" stroke="#191970" points="1221.3293,-21.2062 1230.8009,-16.4587 1220.436,-14.2635 1221.3293,-21.2062"/>
</g>
<!-- Node23&#45;&gt;Node4 -->
<g id="edge33" class="edge">
<title>Node23&#45;&gt;Node4</title>
<path fill="none" stroke="#191970" d="M680.7128,-649.2439C648.0712,-610.5999 525.9676,-463.9889 440,-333 427.4575,-313.889 414.9195,-290.8801 406.6467,-275.0196"/>
<polygon fill="#191970" stroke="#191970" points="409.559,-273.0301 401.8689,-265.7421 403.3357,-276.235 409.559,-273.0301"/>
</g>
<!-- Node23&#45;&gt;Node13 -->
<g id="edge37" class="edge">
<title>Node23&#45;&gt;Node13</title>
<path fill="none" stroke="#191970" d="M732.0766,-650.3858C735.0911,-649.8847 738.0878,-649.4163 741,-649 909.8142,-624.8701 958.5235,-658.0331 1123,-613 1189.348,-594.8342 1263,-615.7899 1263,-547 1263,-547 1263,-547 1263,-491 1263,-458.2688 1270.9852,-420.9052 1276.6022,-398.6716"/>
<polygon fill="#191970" stroke="#191970" points="1280.0415,-399.3545 1279.1965,-388.7934 1273.2711,-397.5763 1280.0415,-399.3545"/>
</g>
<!-- Node23&#45;&gt;Node17 -->
<g id="edge35" class="edge">
<title>Node23&#45;&gt;Node17</title>
<path fill="none" stroke="#191970" d="M645.8626,-649.5637C602.0534,-639.9804 534.1055,-625.1168 486.8042,-614.7697"/>
<polygon fill="#191970" stroke="#191970" points="487.2602,-611.2867 476.7432,-612.5688 485.7642,-618.125 487.2602,-611.2867"/>
</g>
<!-- Node24 -->
<g id="node25" class="node">
<title>Node24</title>
<polygon fill="#ffffff" stroke="#bfbfbf" points="1079.5,-369.5 1079.5,-388.5 1178.5,-388.5 1178.5,-369.5 1079.5,-369.5"/>
<text text-anchor="middle" x="1129" y="-376.5" font-family="Helvetica,sans-Serif" font-size="10.00" fill="#000000">odp/api/abi/event.h</text>
</g>
<!-- Node23&#45;&gt;Node24 -->
<g id="edge34" class="edge">
<title>Node23&#45;&gt;Node24</title>
<path fill="none" stroke="#191970" d="M732.1131,-650.6134C735.1189,-650.0581 738.1037,-649.5154 741,-649 837.2627,-631.8713 1169,-644.7747 1169,-547 1169,-547 1169,-547 1169,-491 1169,-456.4432 1151.903,-419.1996 1140.0642,-397.5529"/>
<polygon fill="#191970" stroke="#191970" points="1143.0578,-395.7365 1135.0751,-388.7703 1136.9713,-399.1941 1143.0578,-395.7365"/>
</g>
<!-- Node25 -->
<g id="node26" class="node">
<title>Node25</title>
<polygon fill="#ffffff" stroke="#bfbfbf" points="686,-369.5 686,-388.5 786,-388.5 786,-369.5 686,-369.5"/>
<text text-anchor="middle" x="736" y="-376.5" font-family="Helvetica,sans-Serif" font-size="10.00" fill="#000000">odp/api/abi/buffer.h</text>
</g>
<!-- Node23&#45;&gt;Node25 -->
<g id="edge36" class="edge">
<title>Node23&#45;&gt;Node25</title>
<path fill="none" stroke="#191970" d="M692.9839,-649.3019C700.4944,-630.1145 716,-585.8029 716,-547 716,-547 716,-547 716,-491 716,-458.2193 724.4055,-420.8705 730.3181,-398.6533"/>
<polygon fill="#191970" stroke="#191970" points="733.7555,-399.3545 733.0489,-388.7832 727.009,-397.4878 733.7555,-399.3545"/>
</g>
<!-- Node26 -->
<g id="node27" class="node">
<title>Node26</title>
<g id="a_node27"><a xlink:href="api_2spec_2queue_8h.html" target="_top" xlink:title="ODP queue. ">
<polygon fill="#ffffff" stroke="#000000" points="842,-593.5 842,-612.5 952,-612.5 952,-593.5 842,-593.5"/>
<text text-anchor="middle" x="897" y="-600.5" font-family="Helvetica,sans-Serif" font-size="10.00" fill="#000000">odp/api/spec/queue.h</text>
</a>
</g>
</g>
<!-- Node23&#45;&gt;Node26 -->
<g id="edge38" class="edge">
<title>Node23&#45;&gt;Node26</title>
<path fill="none" stroke="#191970" d="M724.7565,-649.3733C759.9426,-639.9001 813.7881,-625.4032 851.8956,-615.1435"/>
<polygon fill="#191970" stroke="#191970" points="852.9639,-618.4806 861.7101,-612.5011 851.144,-611.7213 852.9639,-618.4806"/>
</g>
<!-- Node26&#45;&gt;Node3 -->
<g id="edge39" class="edge">
<title>Node26&#45;&gt;Node3</title>
<path fill="none" stroke="#191970" d="M865.213,-593.3881C803.8227,-573.6139 666.9883,-523.5303 576,-445 523.8758,-400.0127 488,-386.3534 488,-317.5 488,-317.5 488,-317.5 488,-256 488,-220.7513 487.5606,-208.9662 469,-179 448.7434,-146.2957 433.8197,-146.0228 403,-123 379.5943,-105.5156 361.894,-112.7 348,-87 341.4477,-74.88 339.3468,-66.7214 348,-56 366.5096,-33.0663 441.3842,-21.0093 497.1599,-15.0844"/>
<polygon fill="#191970" stroke="#191970" points="497.7404,-18.5435 507.3343,-14.0483 497.0311,-11.5795 497.7404,-18.5435"/>
</g>
<!-- Node26&#45;&gt;Node11 -->
<g id="edge74" class="edge">
<title>Node26&#45;&gt;Node11</title>
<path fill="none" stroke="#191970" d="M934.8593,-593.4315C960.838,-585.8717 995.4587,-573.7845 1023,-557 1128.2851,-492.836 1118.216,-427.0346 1227,-369 1287.4901,-336.7295 1319.9841,-371.074 1377,-333 1412.1907,-309.5004 1433,-298.3157 1433,-256 1433,-256 1433,-256 1433,-133 1433,-75.5987 1366.6847,-40.3636 1321.6591,-23.0557"/>
<polygon fill="#191970" stroke="#191970" points="1322.7195,-19.7163 1312.1263,-19.5336 1320.2935,-26.2825 1322.7195,-19.7163"/>
</g>
<!-- Node27 -->
<g id="node28" class="node">
<title>Node27</title>
<g id="a_node28"><a xlink:href="api_2event_8h.html" target="_top" xlink:title="ODP event. ">
<polygon fill="#ffffff" stroke="#000000" points="930.5,-537.5 930.5,-556.5 1013.5,-556.5 1013.5,-537.5 930.5,-537.5"/>
<text text-anchor="middle" x="972" y="-544.5" font-family="Helvetica,sans-Serif" font-size="10.00" fill="#000000">odp/api/event.h</text>
</a>
</g>
</g>
<!-- Node26&#45;&gt;Node27 -->
<g id="edge40" class="edge">
<title>Node26&#45;&gt;Node27</title>
<path fill="none" stroke="#191970" d="M910.064,-593.2455C921.3562,-584.814 937.8845,-572.4729 951.0271,-562.6598"/>
<polygon fill="#191970" stroke="#191970" points="953.1669,-565.4301 959.0857,-556.6427 948.9789,-559.8211 953.1669,-565.4301"/>
</g>
<!-- Node34 -->
<g id="node35" class="node">
<title>Node34</title>
<g id="a_node35"><a xlink:href="queue__types_8h.html" target="_top" xlink:title="ODP queue types. ">
<polygon fill="#ffffff" stroke="#000000" points="964.5,-302.5 964.5,-332.5 1065.5,-332.5 1065.5,-302.5 964.5,-302.5"/>
<text text-anchor="start" x="972.5" y="-320.5" font-family="Helvetica,sans-Serif" font-size="10.00" fill="#000000">odp/api/spec/queue</text>
<text text-anchor="middle" x="1015" y="-309.5" font-family="Helvetica,sans-Serif" font-size="10.00" fill="#000000">_types.h</text>
</a>
</g>
</g>
<!-- Node26&#45;&gt;Node34 -->
<g id="edge61" class="edge">
<title>Node26&#45;&gt;Node34</title>
<path fill="none" stroke="#191970" d="M895.9971,-593.4242C894.0615,-574.0891 890,-528.9907 890,-491 890,-491 890,-491 890,-435 890,-389.4213 934.6674,-356.3472 970.5997,-337.1148"/>
<polygon fill="#191970" stroke="#191970" points="972.2262,-340.2141 979.5144,-332.5242 969.0215,-333.9907 972.2262,-340.2141"/>
</g>
<!-- Node27&#45;&gt;Node24 -->
<g id="edge41" class="edge">
<title>Node27&#45;&gt;Node24</title>
<path fill="none" stroke="#191970" d="M987.7098,-537.3355C1001.0675,-528.7118 1020.3546,-515.2723 1035,-501 1068.96,-467.9053 1100.9792,-422.1153 1117.4491,-397.1015"/>
<polygon fill="#191970" stroke="#191970" points="1120.4583,-398.8941 1122.9717,-388.6017 1114.5884,-395.0803 1120.4583,-398.8941"/>
</g>
<!-- Node28 -->
<g id="node29" class="node">
<title>Node28</title>
<g id="a_node29"><a xlink:href="api_2spec_2event_8h.html" target="_top" xlink:title="ODP event. ">
<polygon fill="#ffffff" stroke="#000000" points="918.5,-481.5 918.5,-500.5 1025.5,-500.5 1025.5,-481.5 918.5,-481.5"/>
<text text-anchor="middle" x="972" y="-488.5" font-family="Helvetica,sans-Serif" font-size="10.00" fill="#000000">odp/api/spec/event.h</text>
</a>
</g>
</g>
<!-- Node27&#45;&gt;Node28 -->
<g id="edge42" class="edge">
<title>Node27&#45;&gt;Node28</title>
<path fill="none" stroke="#191970" d="M972,-537.2455C972,-529.9382 972,-519.6944 972,-510.7046"/>
<polygon fill="#191970" stroke="#191970" points="975.5001,-510.6426 972,-500.6427 968.5001,-510.6427 975.5001,-510.6426"/>
</g>
<!-- Node28&#45;&gt;Node3 -->
<g id="edge43" class="edge">
<title>Node28&#45;&gt;Node3</title>
<path fill="none" stroke="#191970" d="M960.4187,-481.2007C888.2616,-420.1327 503.2701,-94.1035 500,-87 494.2385,-74.4847 493.8545,-68.3313 500,-56 506.6003,-42.756 519.0327,-32.3192 530.9605,-24.7581"/>
<polygon fill="#191970" stroke="#191970" points="533.0165,-27.6102 539.8784,-19.5378 529.4801,-21.5691 533.0165,-27.6102"/>
</g>
<!-- Node28&#45;&gt;Node11 -->
<g id="edge60" class="edge">
<title>Node28&#45;&gt;Node11</title>
<path fill="none" stroke="#191970" d="M977.338,-481.2325C990.3391,-458.3204 1025.9119,-400.67 1071,-369 1195.7973,-281.3422 1395,-408.5066 1395,-256 1395,-256 1395,-256 1395,-133 1395,-82.7008 1343.0841,-44.2744 1309.3217,-24.6028"/>
<polygon fill="#191970" stroke="#191970" points="1310.7714,-21.4029 1300.3385,-19.5575 1307.3435,-27.5062 1310.7714,-21.4029"/>
</g>
<!-- Node28&#45;&gt;Node29 -->
<g id="edge44" class="edge">
<title>Node28&#45;&gt;Node29</title>
<path fill="none" stroke="#191970" d="M918.1863,-482.1884C854.3522,-471.736 748.5392,-454.4099 684.4344,-443.9132"/>
<polygon fill="#191970" stroke="#191970" points="684.9511,-440.4513 674.5169,-442.2893 683.8199,-447.3593 684.9511,-440.4513"/>
</g>
<!-- Node29&#45;&gt;Node4 -->
<g id="edge45" class="edge">
<title>Node29&#45;&gt;Node4</title>
<path fill="none" stroke="#191970" d="M608.9297,-425.3303C591.2178,-416.8023 565.571,-403.502 545,-389 493.0576,-352.382 439.3387,-299.7088 413.2209,-272.9663"/>
<polygon fill="#191970" stroke="#191970" points="415.5054,-270.2941 406.0341,-265.5458 410.4771,-275.1641 415.5054,-270.2941"/>
</g>
<!-- Node29&#45;&gt;Node13 -->
<g id="edge50" class="edge">
<title>Node29&#45;&gt;Node13</title>
<path fill="none" stroke="#191970" d="M674.5154,-431.691C769.1118,-424.5798 997.1144,-407.019 1188,-389 1199.9989,-387.8673 1212.849,-386.5616 1225.0747,-385.2753"/>
<polygon fill="#191970" stroke="#191970" points="1225.5906,-388.7403 1235.165,-384.2036 1224.8512,-381.7794 1225.5906,-388.7403"/>
</g>
<!-- Node29&#45;&gt;Node15 -->
<g id="edge48" class="edge">
<title>Node29&#45;&gt;Node15</title>
<path fill="none" stroke="#191970" d="M585.426,-430.0835C517.2381,-422.4351 382.6887,-406.8424 258.304,-389.1437"/>
<polygon fill="#191970" stroke="#191970" points="258.6173,-385.6529 248.2224,-387.7012 257.6258,-392.5824 258.6173,-385.6529"/>
</g>
<!-- Node29&#45;&gt;Node16 -->
<g id="edge47" class="edge">
<title>Node29&#45;&gt;Node16</title>
<path fill="none" stroke="#191970" d="M585.3237,-426.7971C532.9252,-417.1764 445.7556,-401.1715 386.8733,-390.3604"/>
<polygon fill="#191970" stroke="#191970" points="387.418,-386.9019 376.9503,-388.5384 386.1538,-393.7868 387.418,-386.9019"/>
</g>
<!-- Node29&#45;&gt;Node24 -->
<g id="edge46" class="edge">
<title>Node29&#45;&gt;Node24</title>
<path fill="none" stroke="#191970" d="M674.7221,-429.9811C764.8041,-419.8717 968.1136,-397.0554 1069.3681,-385.6922"/>
<polygon fill="#191970" stroke="#191970" points="1069.8833,-389.1564 1079.4306,-384.5629 1069.1026,-382.2001 1069.8833,-389.1564"/>
</g>
<!-- Node29&#45;&gt;Node25 -->
<g id="edge49" class="edge">
<title>Node29&#45;&gt;Node25</title>
<path fill="none" stroke="#191970" d="M648.4638,-425.2455C665.1074,-416.4527 689.7993,-403.4079 708.7192,-393.4125"/>
<polygon fill="#191970" stroke="#191970" points="710.5408,-396.4086 717.7478,-388.6427 707.2709,-390.2193 710.5408,-396.4086"/>
</g>
<!-- Node30 -->
<g id="node31" class="node">
<title>Node30</title>
<g id="a_node31"><a xlink:href="api_2spec_2packet_8h.html" target="_top" xlink:title="ODP packet descriptor. ">
<polygon fill="#ffffff" stroke="#000000" points="554.5,-369.5 554.5,-388.5 667.5,-388.5 667.5,-369.5 554.5,-369.5"/>
<text text-anchor="middle" x="611" y="-376.5" font-family="Helvetica,sans-Serif" font-size="10.00" fill="#000000">odp/api/spec/packet.h</text>
</a>
</g>
</g>
<!-- Node29&#45;&gt;Node30 -->
<g id="edge51" class="edge">
<title>Node29&#45;&gt;Node30</title>
<path fill="none" stroke="#191970" d="M626.6905,-425.2455C624.1567,-417.7776 620.5823,-407.2427 617.485,-398.1137"/>
<polygon fill="#191970" stroke="#191970" points="620.7991,-396.9879 614.2716,-388.6427 614.1702,-399.237 620.7991,-396.9879"/>
</g>
<!-- Node30&#45;&gt;Node3 -->
<g id="edge52" class="edge">
<title>Node30&#45;&gt;Node3</title>
<path fill="none" stroke="#191970" d="M599.1281,-369.2124C587.9411,-359.9561 570.7424,-345.6395 556,-333 511.5307,-294.8741 508.5834,-273.7537 457,-246 403.4496,-217.1879 366.5626,-254.3884 325,-210 286.8719,-169.2796 305.5836,-142.5043 300,-87 298.6209,-73.2914 291.1434,-66.554 300,-56 324.6511,-26.6244 427.8603,-16.0008 496.8707,-12.1636"/>
<polygon fill="#191970" stroke="#191970" points="497.4086,-15.6404 507.2129,-11.6247 497.0443,-8.6499 497.4086,-15.6404"/>
</g>
<!-- Node30&#45;&gt;Node11 -->
<g id="edge59" class="edge">
<title>Node30&#45;&gt;Node11</title>
<path fill="none" stroke="#191970" d="M667.8521,-370.1641C670.944,-369.7529 674.0086,-369.3616 677,-369 940.3953,-337.1627 1032.1463,-393.1608 1265,-266 1310.4499,-241.1799 1357,-246.2854 1357,-194.5 1357,-194.5 1357,-194.5 1357,-133 1357,-89.4388 1322.0757,-48.4145 1299.5765,-26.5053"/>
<polygon fill="#191970" stroke="#191970" points="1301.8962,-23.8822 1292.2141,-19.5801 1297.1001,-28.981 1301.8962,-23.8822"/>
</g>
<!-- Node30&#45;&gt;Node31 -->
<g id="edge53" class="edge">
<title>Node30&#45;&gt;Node31</title>
<path fill="none" stroke="#191970" d="M609.9063,-369.3906C608.9359,-360.8657 607.4874,-348.1392 606.2677,-337.4235"/>
<polygon fill="#191970" stroke="#191970" points="609.7177,-336.7849 605.1092,-327.2449 602.7626,-337.5766 609.7177,-336.7849"/>
</g>
<!-- Node31&#45;&gt;Node4 -->
<g id="edge54" class="edge">
<title>Node31&#45;&gt;Node4</title>
<path fill="none" stroke="#191970" d="M571.6563,-307.8906C535.882,-297.2621 478.1253,-280.1025 438.9095,-268.4514"/>
<polygon fill="#191970" stroke="#191970" points="439.6993,-265.0349 429.1166,-265.5419 437.7057,-271.745 439.6993,-265.0349"/>
</g>
<!-- Node32 -->
<g id="node33" class="node">
<title>Node32</title>
<polygon fill="#ffffff" stroke="#bfbfbf" points="557,-246.5 557,-265.5 651,-265.5 651,-246.5 557,-246.5"/>
<text text-anchor="middle" x="604" y="-253.5" font-family="Helvetica,sans-Serif" font-size="10.00" fill="#000000">odp/api/abi/time.h</text>
</g>
<!-- Node31&#45;&gt;Node32 -->
<g id="edge55" class="edge">
<title>Node31&#45;&gt;Node32</title>
<path fill="none" stroke="#191970" d="M604,-307.8906C604,-299.3657 604,-286.6392 604,-275.9235"/>
<polygon fill="#191970" stroke="#191970" points="607.5001,-275.7448 604,-265.7449 600.5001,-275.7449 607.5001,-275.7448"/>
</g>
<!-- Node33 -->
<g id="node34" class="node">
<title>Node33</title>
<g id="a_node34"><a xlink:href="api_2spec_2time_8h.html" target="_top" xlink:title="ODP time. ">
<polygon fill="#ffffff" stroke="#000000" points="631,-62 631,-81 733,-81 733,-62 631,-62"/>
<text text-anchor="middle" x="682" y="-69" font-family="Helvetica,sans-Serif" font-size="10.00" fill="#000000">odp/api/spec/time.h</text>
</a>
</g>
</g>
<!-- Node31&#45;&gt;Node33 -->
<g id="edge56" class="edge">
<title>Node31&#45;&gt;Node33</title>
<path fill="none" stroke="#191970" d="M619.457,-307.9484C632.6334,-298.8945 650.8489,-284.0182 660,-266 689.4373,-208.0391 687.1649,-128.0948 684.1357,-91.386"/>
<polygon fill="#191970" stroke="#191970" points="687.5865,-90.6976 683.1649,-81.0695 680.6173,-91.3535 687.5865,-90.6976"/>
</g>
<!-- Node33&#45;&gt;Node3 -->
<g id="edge57" class="edge">
<title>Node33&#45;&gt;Node3</title>
<path fill="none" stroke="#191970" d="M663.0938,-61.8906C643.2034,-51.7811 611.6877,-35.7628 588.9308,-24.1962"/>
<polygon fill="#191970" stroke="#191970" points="590.274,-20.9528 579.7735,-19.5419 587.1022,-27.193 590.274,-20.9528"/>
</g>
<!-- Node33&#45;&gt;Node11 -->
<g id="edge58" class="edge">
<title>Node33&#45;&gt;Node11</title>
<path fill="none" stroke="#191970" d="M714.7951,-61.9695C723.5692,-59.711 733.0915,-57.5198 742,-56 914.1233,-26.6361 1120.5279,-15.661 1220.6351,-11.8527"/>
<polygon fill="#191970" stroke="#191970" points="1220.9938,-15.3419 1230.8576,-11.4748 1220.7351,-8.3467 1220.9938,-15.3419"/>
</g>
<!-- Node34&#45;&gt;Node3 -->
<g id="edge62" class="edge">
<title>Node34&#45;&gt;Node3</title>
<path fill="none" stroke="#191970" d="M991.7131,-302.3125C978.9437,-293.048 963.6021,-280.262 953,-266 892.5233,-184.6469 944.0624,-118.1753 864,-56 827.7036,-27.8128 702.4264,-16.7208 624.7805,-12.4875"/>
<polygon fill="#191970" stroke="#191970" points="624.7912,-8.9833 614.6224,-11.9578 624.4266,-15.9739 624.7912,-8.9833"/>
</g>
<!-- Node34&#45;&gt;Node11 -->
<g id="edge73" class="edge">
<title>Node34&#45;&gt;Node11</title>
<path fill="none" stroke="#191970" d="M1065.8505,-310.7025C1109.3721,-303.5634 1172.9055,-289.9491 1224,-266 1271.8491,-243.5721 1319,-247.3445 1319,-194.5 1319,-194.5 1319,-194.5 1319,-133 1319,-94.6461 1301.9248,-52.4423 1290.6666,-28.7843"/>
<polygon fill="#191970" stroke="#191970" points="1293.6861,-26.9938 1286.1248,-19.5723 1287.4077,-30.0892 1293.6861,-26.9938"/>
</g>
<!-- Node34&#45;&gt;Node19 -->
<g id="edge72" class="edge">
<title>Node34&#45;&gt;Node19</title>
<path fill="none" stroke="#191970" d="M1015,-302.2977C1015,-294.3834 1015,-284.6043 1015,-276.0759"/>
<polygon fill="#191970" stroke="#191970" points="1018.5001,-275.8469 1015,-265.8469 1011.5001,-275.847 1018.5001,-275.8469"/>
</g>
<!-- Node35 -->
<g id="node36" class="node">
<title>Node35</title>
<g id="a_node36"><a xlink:href="api_2schedule__types_8h.html" target="_top" xlink:title="ODP schedule. ">
<polygon fill="#ffffff" stroke="#000000" points="1087,-246.5 1087,-265.5 1215,-265.5 1215,-246.5 1087,-246.5"/>
<text text-anchor="middle" x="1151" y="-253.5" font-family="Helvetica,sans-Serif" font-size="10.00" fill="#000000">odp/api/schedule_types.h</text>
</a>
</g>
</g>
<!-- Node34&#45;&gt;Node35 -->
<g id="edge63" class="edge">
<title>Node34&#45;&gt;Node35</title>
<path fill="none" stroke="#191970" d="M1048.2693,-302.4554C1070.3641,-292.464 1099.146,-279.4487 1120.6219,-269.7372"/>
<polygon fill="#191970" stroke="#191970" points="1122.2553,-272.8398 1129.9248,-265.5303 1119.371,-266.4616 1122.2553,-272.8398"/>
</g>
<!-- Node36 -->
<g id="node37" class="node">
<title>Node36</title>
<polygon fill="#ffffff" stroke="#bfbfbf" points="1185,-179.5 1185,-209.5 1291,-209.5 1291,-179.5 1185,-179.5"/>
<text text-anchor="start" x="1193" y="-197.5" font-family="Helvetica,sans-Serif" font-size="10.00" fill="#000000">odp/api/abi/schedule</text>
<text text-anchor="middle" x="1238" y="-186.5" font-family="Helvetica,sans-Serif" font-size="10.00" fill="#000000">_types.h</text>
</g>
<!-- Node35&#45;&gt;Node36 -->
<g id="edge64" class="edge">
<title>Node35&#45;&gt;Node36</title>
<path fill="none" stroke="#191970" d="M1164.5938,-246.3906C1176.2591,-238.1444 1193.4859,-225.9669 1208.32,-215.4807"/>
<polygon fill="#191970" stroke="#191970" points="1210.572,-218.175 1216.7174,-209.5446 1206.5313,-212.459 1210.572,-218.175"/>
</g>
<!-- Node37 -->
<g id="node38" class="node">
<title>Node37</title>
<g id="a_node38"><a xlink:href="api_2spec_2schedule__types_8h.html" target="_top" xlink:title="ODP schedule types. ">
<polygon fill="#ffffff" stroke="#000000" points="1053,-179.5 1053,-209.5 1167,-209.5 1167,-179.5 1053,-179.5"/>
<text text-anchor="start" x="1061" y="-197.5" font-family="Helvetica,sans-Serif" font-size="10.00" fill="#000000">odp/api/spec/schedule</text>
<text text-anchor="middle" x="1110" y="-186.5" font-family="Helvetica,sans-Serif" font-size="10.00" fill="#000000">_types.h</text>
</a>
</g>
</g>
<!-- Node35&#45;&gt;Node37 -->
<g id="edge65" class="edge">
<title>Node35&#45;&gt;Node37</title>
<path fill="none" stroke="#191970" d="M1144.5938,-246.3906C1139.5587,-238.838 1132.3251,-227.9876 1125.7729,-218.1593"/>
<polygon fill="#191970" stroke="#191970" points="1128.489,-215.9236 1120.0297,-209.5446 1122.6646,-219.8066 1128.489,-215.9236"/>
</g>
<!-- Node37&#45;&gt;Node3 -->
<g id="edge66" class="edge">
<title>Node37&#45;&gt;Node3</title>
<path fill="none" stroke="#191970" d="M1085.4181,-179.3702C1052.314,-158.8804 991.7044,-120.9607 941,-87 921.1245,-73.6878 919.2601,-64.76 897,-56 848.8106,-37.0361 708.1936,-22.414 624.9284,-15.1212"/>
<polygon fill="#191970" stroke="#191970" points="625.0843,-11.6217 614.8199,-14.2471 624.4812,-18.5957 625.0843,-11.6217"/>
</g>
<!-- Node37&#45;&gt;Node11 -->
<g id="edge71" class="edge">
<title>Node37&#45;&gt;Node11</title>
<path fill="none" stroke="#191970" d="M1147.8878,-179.4282C1184.2064,-162.7529 1237.0777,-132.1286 1262,-87 1271.9513,-68.9805 1276.7595,-45.7473 1279.0378,-29.5352"/>
<polygon fill="#191970" stroke="#191970" points="1282.5153,-29.9318 1280.243,-19.5835 1275.566,-29.0901 1282.5153,-29.9318"/>
</g>
<!-- Node38 -->
<g id="node39" class="node">
<title>Node38</title>
<g id="a_node39"><a xlink:href="support_8h.html" target="_top" xlink:title="ODP support API &#45; platform specific header. ">
<polygon fill="#ffffff" stroke="#000000" points="1107,-123.5 1107,-142.5 1199,-142.5 1199,-123.5 1107,-123.5"/>
<text text-anchor="middle" x="1153" y="-130.5" font-family="Helvetica,sans-Serif" font-size="10.00" fill="#000000">odp/api/support.h</text>
</a>
</g>
</g>
<!-- Node37&#45;&gt;Node38 -->
<g id="edge67" class="edge">
<title>Node37&#45;&gt;Node38</title>
<path fill="none" stroke="#191970" d="M1120.6292,-179.2977C1126.5981,-170.7609 1134.0838,-160.0545 1140.3529,-151.0883"/>
<polygon fill="#191970" stroke="#191970" points="1143.2534,-153.048 1146.1152,-142.8469 1137.5165,-149.0368 1143.2534,-153.048"/>
</g>
<!-- Node39 -->
<g id="node40" class="node">
<title>Node39</title>
<g id="a_node40"><a xlink:href="spec_2support_8h.html" target="_top" xlink:title="ODP support API. ">
<polygon fill="#ffffff" stroke="#000000" points="1137,-62 1137,-81 1253,-81 1253,-62 1137,-62"/>
<text text-anchor="middle" x="1195" y="-69" font-family="Helvetica,sans-Serif" font-size="10.00" fill="#000000">odp/api/spec/support.h</text>
</a>
</g>
</g>
<!-- Node38&#45;&gt;Node39 -->
<g id="edge68" class="edge">
<title>Node38&#45;&gt;Node39</title>
<path fill="none" stroke="#191970" d="M1159.5625,-123.3906C1165.6908,-114.417 1174.9985,-100.7879 1182.5372,-89.7491"/>
<polygon fill="#191970" stroke="#191970" points="1185.5956,-91.4768 1188.345,-81.2449 1179.815,-87.529 1185.5956,-91.4768"/>
</g>
<!-- Node39&#45;&gt;Node3 -->
<g id="edge69" class="edge">
<title>Node39&#45;&gt;Node3</title>
<path fill="none" stroke="#191970" d="M1136.7663,-62.2702C1121.5679,-60.0351 1105.1902,-57.78 1090,-56 922.6446,-36.3891 724.5947,-21.3322 624.9963,-14.3236"/>
<polygon fill="#191970" stroke="#191970" points="625.0177,-10.8166 614.7978,-13.6099 624.529,-17.7995 625.0177,-10.8166"/>
</g>
<!-- Node39&#45;&gt;Node11 -->
<g id="edge70" class="edge">
<title>Node39&#45;&gt;Node11</title>
<path fill="none" stroke="#191970" d="M1208.4375,-61.8906C1222.0695,-52.1421 1243.3846,-36.8994 1259.3922,-25.4521"/>
<polygon fill="#191970" stroke="#191970" points="1261.5586,-28.2057 1267.6569,-19.5419 1257.4868,-22.5118 1261.5586,-28.2057"/>
</g>
</g>
</svg>
