<?xml version="1.0" encoding="UTF-8" standalone="no"?>
<!DOCTYPE svg PUBLIC "-//W3C//DTD SVG 1.1//EN"
 "http://www.w3.org/Graphics/SVG/1.1/DTD/svg11.dtd">
<!-- Generated by graphviz version 2.40.1 (20161225.0304)
 -->
<!-- Title: schedule_types.h Pages: 1 -->
<svg width="312pt" height="263pt"
 viewBox="0.00 0.00 312.00 263.00" xmlns="http://www.w3.org/2000/svg" xmlns:xlink="http://www.w3.org/1999/xlink">
<g id="graph0" class="graph" transform="scale(1 1) rotate(0) translate(4 259)">
<title>schedule_types.h</title>
<polygon fill="#ffffff" stroke="transparent" points="-4,4 -4,-259 308,-259 308,4 -4,4"/>
<!-- Node0 -->
<g id="node1" class="node">
<title>Node0</title>
<polygon fill="#bfbfbf" stroke="#000000" points="70.5,-235.5 70.5,-254.5 163.5,-254.5 163.5,-235.5 70.5,-235.5"/>
<text text-anchor="middle" x="117" y="-242.5" font-family="Helvetica,sans-Serif" font-size="10.00" fill="#000000">schedule_types.h</text>
</g>
<!-- Node1 -->
<g id="node2" class="node">
<title>Node1</title>
<polygon fill="#ffffff" stroke="#bfbfbf" points="0,-168.5 0,-198.5 106,-198.5 106,-168.5 0,-168.5"/>
<text text-anchor="start" x="8" y="-186.5" font-family="Helvetica,sans-Serif" font-size="10.00" fill="#000000">odp/api/abi/schedule</text>
<text text-anchor="middle" x="53" y="-175.5" font-family="Helvetica,sans-Serif" font-size="10.00" fill="#000000">_types.h</text>
</g>
<!-- Node0&#45;&gt;Node1 -->
<g id="edge1" class="edge">
<title>Node0&#45;&gt;Node1</title>
<path fill="none" stroke="#191970" d="M107,-235.3906C98.7394,-227.4527 86.6878,-215.8718 76.0645,-205.6635"/>
<polygon fill="#191970" stroke="#191970" points="78.2918,-202.9498 68.6562,-198.5446 73.4416,-207.9971 78.2918,-202.9498"/>
</g>
<!-- Node2 -->
<g id="node3" class="node">
<title>Node2</title>
<g id="a_node3"><a xlink:href="api_2spec_2schedule__types_8h.html" target="_top" xlink:title="ODP schedule types. ">
<polygon fill="#ffffff" stroke="#000000" points="124,-168.5 124,-198.5 238,-198.5 238,-168.5 124,-168.5"/>
<text text-anchor="start" x="132" y="-186.5" font-family="Helvetica,sans-Serif" font-size="10.00" fill="#000000">odp/api/spec/schedule</text>
<text text-anchor="middle" x="181" y="-175.5" font-family="Helvetica,sans-Serif" font-size="10.00" fill="#000000">_types.h</text>
</a>
</g>
</g>
<!-- Node0&#45;&gt;Node2 -->
<g id="edge2" class="edge">
<title>Node0&#45;&gt;Node2</title>
<path fill="none" stroke="#191970" d="M127,-235.3906C135.2606,-227.4527 147.3122,-215.8718 157.9355,-205.6635"/>
<polygon fill="#191970" stroke="#191970" points="160.5584,-207.9971 165.3438,-198.5446 155.7082,-202.9498 160.5584,-207.9971"/>
</g>
<!-- Node3 -->
<g id="node4" class="node">
<title>Node3</title>
<g id="a_node4"><a xlink:href="visibility__begin_8h_source.html" target="_top" xlink:title="odp/visibility_begin.h">
<polygon fill="#ffffff" stroke="#000000" points="66.5,-.5 66.5,-19.5 173.5,-19.5 173.5,-.5 66.5,-.5"/>
<text text-anchor="middle" x="120" y="-7.5" font-family="Helvetica,sans-Serif" font-size="10.00" fill="#000000">odp/visibility_begin.h</text>
</a>
</g>
</g>
<!-- Node2&#45;&gt;Node3 -->
<g id="edge3" class="edge">
<title>Node2&#45;&gt;Node3</title>
<path fill="none" stroke="#191970" d="M159.4073,-168.4641C147.7777,-159.2485 134.1778,-146.4609 126,-132 107.8138,-99.841 111.6017,-54.9503 115.8779,-29.5509"/>
<polygon fill="#191970" stroke="#191970" points="119.3294,-30.1346 117.7387,-19.6598 112.45,-28.8403 119.3294,-30.1346"/>
</g>
<!-- Node4 -->
<g id="node5" class="node">
<title>Node4</title>
<g id="a_node5"><a xlink:href="support_8h.html" target="_top" xlink:title="ODP support API &#45; platform specific header. ">
<polygon fill="#ffffff" stroke="#000000" points="135,-112.5 135,-131.5 227,-131.5 227,-112.5 135,-112.5"/>
<text text-anchor="middle" x="181" y="-119.5" font-family="Helvetica,sans-Serif" font-size="10.00" fill="#000000">odp/api/support.h</text>
</a>
</g>
</g>
<!-- Node2&#45;&gt;Node4 -->
<g id="edge4" class="edge">
<title>Node2&#45;&gt;Node4</title>
<path fill="none" stroke="#191970" d="M181,-168.2977C181,-160.3834 181,-150.6043 181,-142.0759"/>
<polygon fill="#191970" stroke="#191970" points="184.5001,-141.8469 181,-131.8469 177.5001,-141.847 184.5001,-141.8469"/>
</g>
<!-- Node6 -->
<g id="node7" class="node">
<title>Node6</title>
<g id="a_node7"><a xlink:href="visibility__end_8h_source.html" target="_top" xlink:title="odp/visibility_end.h">
<polygon fill="#ffffff" stroke="#000000" points="204,-.5 204,-19.5 304,-19.5 304,-.5 204,-.5"/>
<text text-anchor="middle" x="254" y="-7.5" font-family="Helvetica,sans-Serif" font-size="10.00" fill="#000000">odp/visibility_end.h</text>
</a>
</g>
</g>
<!-- Node2&#45;&gt;Node6 -->
<g id="edge8" class="edge">
<title>Node2&#45;&gt;Node6</title>
<path fill="none" stroke="#191970" d="M202.5927,-168.4641C214.2223,-159.2485 227.8222,-146.4609 236,-132 254.2785,-99.6777 256.0519,-55.1543 255.2945,-29.7978"/>
<polygon fill="#191970" stroke="#191970" points="258.7815,-29.4347 254.8187,-19.6089 251.7891,-29.7614 258.7815,-29.4347"/>
</g>
<!-- Node5 -->
<g id="node6" class="node">
<title>Node5</title>
<g id="a_node6"><a xlink:href="spec_2support_8h.html" target="_top" xlink:title="ODP support API. ">
<polygon fill="#ffffff" stroke="#000000" points="123,-56.5 123,-75.5 239,-75.5 239,-56.5 123,-56.5"/>
<text text-anchor="middle" x="181" y="-63.5" font-family="Helvetica,sans-Serif" font-size="10.00" fill="#000000">odp/api/spec/support.h</text>
</a>
</g>
</g>
<!-- Node4&#45;&gt;Node5 -->
<g id="edge5" class="edge">
<title>Node4&#45;&gt;Node5</title>
<path fill="none" stroke="#191970" d="M181,-112.2455C181,-104.9382 181,-94.6944 181,-85.7046"/>
<polygon fill="#191970" stroke="#191970" points="184.5001,-85.6426 181,-75.6427 177.5001,-85.6427 184.5001,-85.6426"/>
</g>
<!-- Node5&#45;&gt;Node3 -->
<g id="edge6" class="edge">
<title>Node5&#45;&gt;Node3</title>
<path fill="none" stroke="#191970" d="M170.3746,-56.2455C161.4527,-48.0549 148.512,-36.1749 137.9808,-26.5069"/>
<polygon fill="#191970" stroke="#191970" points="140.2371,-23.8271 130.5036,-19.6427 135.5032,-28.9837 140.2371,-23.8271"/>
</g>
<!-- Node5&#45;&gt;Node6 -->
<g id="edge7" class="edge">
<title>Node5&#45;&gt;Node6</title>
<path fill="none" stroke="#191970" d="M193.7156,-56.2455C204.602,-47.8943 220.4883,-35.7076 233.22,-25.9408"/>
<polygon fill="#191970" stroke="#191970" points="235.6261,-28.5063 241.4301,-19.6427 231.3654,-22.9523 235.6261,-28.5063"/>
</g>
</g>
</svg>
