<?xml version="1.0" encoding="UTF-8" standalone="no"?>
<!DOCTYPE svg PUBLIC "-//W3C//DTD SVG 1.1//EN"
 "http://www.w3.org/Graphics/SVG/1.1/DTD/svg11.dtd">
<!-- Generated by graphviz version 2.40.1 (20161225.0304)
 -->
<!-- Title: pool.h Pages: 1 -->
<svg width="605pt" height="375pt"
 viewBox="0.00 0.00 604.50 375.00" xmlns="http://www.w3.org/2000/svg" xmlns:xlink="http://www.w3.org/1999/xlink">
<g id="graph0" class="graph" transform="scale(1 1) rotate(0) translate(4 371)">
<title>pool.h</title>
<polygon fill="#ffffff" stroke="transparent" points="-4,4 -4,-371 600.5,-371 600.5,4 -4,4"/>
<!-- Node0 -->
<g id="node1" class="node">
<title>Node0</title>
<polygon fill="#bfbfbf" stroke="#000000" points="196,-347.5 196,-366.5 239,-366.5 239,-347.5 196,-347.5"/>
<text text-anchor="middle" x="217.5" y="-354.5" font-family="Helvetica,sans-Serif" font-size="10.00" fill="#000000">pool.h</text>
</g>
<!-- Node1 -->
<g id="node2" class="node">
<title>Node1</title>
<polygon fill="#ffffff" stroke="#bfbfbf" points="0,-286 0,-305 93,-305 93,-286 0,-286"/>
<text text-anchor="middle" x="46.5" y="-293" font-family="Helvetica,sans-Serif" font-size="10.00" fill="#000000">odp/api/abi/pool.h</text>
</g>
<!-- Node0&#45;&gt;Node1 -->
<g id="edge1" class="edge">
<title>Node0&#45;&gt;Node1</title>
<path fill="none" stroke="#191970" d="M195.8427,-349.211C167.3776,-338.9735 116.9784,-320.8475 82.6763,-308.5108"/>
<polygon fill="#191970" stroke="#191970" points="83.6197,-305.1307 73.0253,-305.0398 81.2507,-311.7176 83.6197,-305.1307"/>
</g>
<!-- Node2 -->
<g id="node3" class="node">
<title>Node2</title>
<polygon fill="#ffffff" stroke="#bfbfbf" points="111.5,-280.5 111.5,-310.5 207.5,-310.5 207.5,-280.5 111.5,-280.5"/>
<text text-anchor="start" x="119.5" y="-298.5" font-family="Helvetica,sans-Serif" font-size="10.00" fill="#000000">odp/api/abi/shared</text>
<text text-anchor="middle" x="159.5" y="-287.5" font-family="Helvetica,sans-Serif" font-size="10.00" fill="#000000">_memory.h</text>
</g>
<!-- Node0&#45;&gt;Node2 -->
<g id="edge2" class="edge">
<title>Node0&#45;&gt;Node2</title>
<path fill="none" stroke="#191970" d="M208.4375,-347.3906C201.024,-339.5298 190.2413,-328.0964 180.683,-317.9612"/>
<polygon fill="#191970" stroke="#191970" points="183.0957,-315.4183 173.6884,-310.5446 178.0032,-320.221 183.0957,-315.4183"/>
</g>
<!-- Node3 -->
<g id="node4" class="node">
<title>Node3</title>
<polygon fill="#ffffff" stroke="#bfbfbf" points="226,-286 226,-305 325,-305 325,-286 226,-286"/>
<text text-anchor="middle" x="275.5" y="-293" font-family="Helvetica,sans-Serif" font-size="10.00" fill="#000000">odp/api/abi/event.h</text>
</g>
<!-- Node0&#45;&gt;Node3 -->
<g id="edge3" class="edge">
<title>Node0&#45;&gt;Node3</title>
<path fill="none" stroke="#191970" d="M226.5625,-347.3906C235.2793,-338.1478 248.654,-323.966 259.2196,-312.7628"/>
<polygon fill="#191970" stroke="#191970" points="261.995,-314.9213 266.3097,-305.2449 256.9024,-310.1186 261.995,-314.9213"/>
</g>
<!-- Node4 -->
<g id="node5" class="node">
<title>Node4</title>
<g id="a_node5"><a xlink:href="api_2spec_2pool_8h.html" target="_top" xlink:title="ODP pool. ">
<polygon fill="#ffffff" stroke="#000000" points="343,-286 343,-305 444,-305 444,-286 343,-286"/>
<text text-anchor="middle" x="393.5" y="-293" font-family="Helvetica,sans-Serif" font-size="10.00" fill="#000000">odp/api/spec/pool.h</text>
</a>
</g>
</g>
<!-- Node0&#45;&gt;Node4 -->
<g id="edge4" class="edge">
<title>Node0&#45;&gt;Node4</title>
<path fill="none" stroke="#191970" d="M239.0811,-349.4589C268.3631,-339.2268 321.1025,-320.798 356.701,-308.3587"/>
<polygon fill="#191970" stroke="#191970" points="357.9677,-311.6237 366.2533,-305.0208 355.6585,-305.0155 357.9677,-311.6237"/>
</g>
<!-- Node5 -->
<g id="node6" class="node">
<title>Node5</title>
<g id="a_node6"><a xlink:href="visibility__begin_8h_source.html" target="_top" xlink:title="odp/visibility_begin.h">
<polygon fill="#ffffff" stroke="#000000" points="219,-.5 219,-19.5 326,-19.5 326,-.5 219,-.5"/>
<text text-anchor="middle" x="272.5" y="-7.5" font-family="Helvetica,sans-Serif" font-size="10.00" fill="#000000">odp/visibility_begin.h</text>
</a>
</g>
</g>
<!-- Node4&#45;&gt;Node5 -->
<g id="edge5" class="edge">
<title>Node4&#45;&gt;Node5</title>
<path fill="none" stroke="#191970" d="M356.6226,-285.946C309.6523,-271.2933 234.5,-238.4098 234.5,-178 234.5,-178 234.5,-178 234.5,-122 234.5,-87.6118 250.7634,-50.2832 262.011,-28.5791"/>
<polygon fill="#191970" stroke="#191970" points="265.2317,-29.9804 266.893,-19.5166 259.069,-26.6605 265.2317,-29.9804"/>
</g>
<!-- Node6 -->
<g id="node7" class="node">
<title>Node6</title>
<g id="a_node7"><a xlink:href="api_2std__types_8h.html" target="_top" xlink:title="Standard C language types and definitions for ODP. ">
<polygon fill="#ffffff" stroke="#000000" points="342.5,-224.5 342.5,-243.5 444.5,-243.5 444.5,-224.5 342.5,-224.5"/>
<text text-anchor="middle" x="393.5" y="-231.5" font-family="Helvetica,sans-Serif" font-size="10.00" fill="#000000">odp/api/std_types.h</text>
</a>
</g>
</g>
<!-- Node4&#45;&gt;Node6 -->
<g id="edge6" class="edge">
<title>Node4&#45;&gt;Node6</title>
<path fill="none" stroke="#191970" d="M393.5,-285.8906C393.5,-277.3657 393.5,-264.6392 393.5,-253.9235"/>
<polygon fill="#191970" stroke="#191970" points="397.0001,-253.7448 393.5,-243.7449 390.0001,-253.7449 397.0001,-253.7448"/>
</g>
<!-- Node13 -->
<g id="node14" class="node">
<title>Node13</title>
<g id="a_node14"><a xlink:href="visibility__end_8h_source.html" target="_top" xlink:title="odp/visibility_end.h">
<polygon fill="#ffffff" stroke="#000000" points="496.5,-.5 496.5,-19.5 596.5,-19.5 596.5,-.5 496.5,-.5"/>
<text text-anchor="middle" x="546.5" y="-7.5" font-family="Helvetica,sans-Serif" font-size="10.00" fill="#000000">odp/visibility_end.h</text>
</a>
</g>
</g>
<!-- Node4&#45;&gt;Node13 -->
<g id="edge17" class="edge">
<title>Node4&#45;&gt;Node13</title>
<path fill="none" stroke="#191970" d="M444.183,-286.9228C500.7677,-274.1053 584.5,-243.9897 584.5,-178 584.5,-178 584.5,-178 584.5,-122 584.5,-87.6118 568.2366,-50.2832 556.989,-28.5791"/>
<polygon fill="#191970" stroke="#191970" points="559.931,-26.6605 552.107,-19.5166 553.7683,-29.9804 559.931,-26.6605"/>
</g>
<!-- Node7 -->
<g id="node8" class="node">
<title>Node7</title>
<polygon fill="#ffffff" stroke="#bfbfbf" points="264.5,-168.5 264.5,-187.5 382.5,-187.5 382.5,-168.5 264.5,-168.5"/>
<text text-anchor="middle" x="323.5" y="-175.5" font-family="Helvetica,sans-Serif" font-size="10.00" fill="#000000">odp/api/abi/std_types.h</text>
</g>
<!-- Node6&#45;&gt;Node7 -->
<g id="edge7" class="edge">
<title>Node6&#45;&gt;Node7</title>
<path fill="none" stroke="#191970" d="M381.3069,-224.2455C370.8679,-215.8943 355.6345,-203.7076 343.426,-193.9408"/>
<polygon fill="#191970" stroke="#191970" points="345.5485,-191.1566 335.5533,-187.6427 341.1756,-196.6227 345.5485,-191.1566"/>
</g>
<!-- Node8 -->
<g id="node9" class="node">
<title>Node8</title>
<g id="a_node9"><a xlink:href="api_2spec_2std__types_8h.html" target="_top" xlink:title="Standard C language types and definitions for ODP. ">
<polygon fill="#ffffff" stroke="#000000" points="400.5,-168.5 400.5,-187.5 526.5,-187.5 526.5,-168.5 400.5,-168.5"/>
<text text-anchor="middle" x="463.5" y="-175.5" font-family="Helvetica,sans-Serif" font-size="10.00" fill="#000000">odp/api/spec/std_types.h</text>
</a>
</g>
</g>
<!-- Node6&#45;&gt;Node8 -->
<g id="edge8" class="edge">
<title>Node6&#45;&gt;Node8</title>
<path fill="none" stroke="#191970" d="M405.6931,-224.2455C416.1321,-215.8943 431.3655,-203.7076 443.574,-193.9408"/>
<polygon fill="#191970" stroke="#191970" points="445.8244,-196.6227 451.4467,-187.6427 441.4515,-191.1566 445.8244,-196.6227"/>
</g>
<!-- Node8&#45;&gt;Node5 -->
<g id="edge9" class="edge">
<title>Node8&#45;&gt;Node5</title>
<path fill="none" stroke="#191970" d="M429.2446,-168.4862C405.1621,-160.8545 372.8459,-148.6589 347.5,-132 318.0863,-112.6675 309.3803,-106.3184 291.5,-76 283.0768,-61.7174 278.1983,-43.4765 275.4989,-29.7922"/>
<polygon fill="#191970" stroke="#191970" points="278.8799,-28.8061 273.714,-19.556 271.9839,-30.0086 278.8799,-28.8061"/>
</g>
<!-- Node9 -->
<g id="node10" class="node">
<title>Node9</title>
<polygon fill="#ffffff" stroke="#bfbfbf" points="357,-112.5 357,-131.5 406,-131.5 406,-112.5 357,-112.5"/>
<text text-anchor="middle" x="381.5" y="-119.5" font-family="Helvetica,sans-Serif" font-size="10.00" fill="#000000">stdint.h</text>
</g>
<!-- Node8&#45;&gt;Node9 -->
<g id="edge10" class="edge">
<title>Node8&#45;&gt;Node9</title>
<path fill="none" stroke="#191970" d="M449.2167,-168.2455C436.753,-159.7337 418.4549,-147.2375 404.0208,-137.3801"/>
<polygon fill="#191970" stroke="#191970" points="405.8515,-134.392 395.6196,-131.6427 401.9038,-140.1726 405.8515,-134.392"/>
</g>
<!-- Node10 -->
<g id="node11" class="node">
<title>Node10</title>
<g id="a_node11"><a xlink:href="api_2align_8h.html" target="_top" xlink:title="ODP alignments. ">
<polygon fill="#ffffff" stroke="#000000" points="424.5,-112.5 424.5,-131.5 504.5,-131.5 504.5,-112.5 424.5,-112.5"/>
<text text-anchor="middle" x="464.5" y="-119.5" font-family="Helvetica,sans-Serif" font-size="10.00" fill="#000000">odp/api/align.h</text>
</a>
</g>
</g>
<!-- Node8&#45;&gt;Node10 -->
<g id="edge11" class="edge">
<title>Node8&#45;&gt;Node10</title>
<path fill="none" stroke="#191970" d="M463.6742,-168.2455C463.8047,-160.9382 463.9876,-150.6944 464.1481,-141.7046"/>
<polygon fill="#191970" stroke="#191970" points="467.6486,-141.7036 464.3278,-131.6427 460.6497,-141.5786 467.6486,-141.7036"/>
</g>
<!-- Node8&#45;&gt;Node13 -->
<g id="edge16" class="edge">
<title>Node8&#45;&gt;Node13</title>
<path fill="none" stroke="#191970" d="M477.8513,-168.3144C489.1449,-159.9654 504.4409,-146.9226 513.5,-132 533.2482,-99.4699 541.3847,-55.0203 544.5789,-29.733"/>
<polygon fill="#191970" stroke="#191970" points="548.0818,-29.9034 545.7227,-19.5745 541.1257,-29.1201 548.0818,-29.9034"/>
</g>
<!-- Node11 -->
<g id="node12" class="node">
<title>Node11</title>
<polygon fill="#ffffff" stroke="#bfbfbf" points="301,-56.5 301,-75.5 396,-75.5 396,-56.5 301,-56.5"/>
<text text-anchor="middle" x="348.5" y="-63.5" font-family="Helvetica,sans-Serif" font-size="10.00" fill="#000000">odp/api/abi/align.h</text>
</g>
<!-- Node10&#45;&gt;Node11 -->
<g id="edge12" class="edge">
<title>Node10&#45;&gt;Node11</title>
<path fill="none" stroke="#191970" d="M444.5589,-112.3733C426.0214,-103.4241 398.1972,-89.9917 377.2587,-79.8835"/>
<polygon fill="#191970" stroke="#191970" points="378.7081,-76.6967 368.1809,-75.5011 375.6648,-83.0006 378.7081,-76.6967"/>
</g>
<!-- Node12 -->
<g id="node13" class="node">
<title>Node12</title>
<g id="a_node13"><a xlink:href="api_2spec_2align_8h.html" target="_top" xlink:title="ODP alignments. ">
<polygon fill="#ffffff" stroke="#000000" points="414.5,-56.5 414.5,-75.5 518.5,-75.5 518.5,-56.5 414.5,-56.5"/>
<text text-anchor="middle" x="466.5" y="-63.5" font-family="Helvetica,sans-Serif" font-size="10.00" fill="#000000">odp/api/spec/align.h</text>
</a>
</g>
</g>
<!-- Node10&#45;&gt;Node12 -->
<g id="edge13" class="edge">
<title>Node10&#45;&gt;Node12</title>
<path fill="none" stroke="#191970" d="M464.8484,-112.2455C465.1093,-104.9382 465.4752,-94.6944 465.7963,-85.7046"/>
<polygon fill="#191970" stroke="#191970" points="469.2964,-85.7613 466.1556,-75.6427 462.3008,-85.5113 469.2964,-85.7613"/>
</g>
<!-- Node12&#45;&gt;Node5 -->
<g id="edge14" class="edge">
<title>Node12&#45;&gt;Node5</title>
<path fill="none" stroke="#191970" d="M433.1502,-56.3733C400.472,-46.9404 350.5382,-32.5265 315.023,-22.2747"/>
<polygon fill="#191970" stroke="#191970" points="315.993,-18.9119 305.4146,-19.5011 314.0516,-25.6373 315.993,-18.9119"/>
</g>
<!-- Node12&#45;&gt;Node13 -->
<g id="edge15" class="edge">
<title>Node12&#45;&gt;Node13</title>
<path fill="none" stroke="#191970" d="M480.4349,-56.2455C492.5947,-47.7337 510.4464,-35.2375 524.5285,-25.3801"/>
<polygon fill="#191970" stroke="#191970" points="526.5395,-28.2447 532.7248,-19.6427 522.5253,-22.51 526.5395,-28.2447"/>
</g>
</g>
</svg>
