<?xml version="1.0" encoding="UTF-8" standalone="no"?>
<!DOCTYPE svg PUBLIC "-//W3C//DTD SVG 1.1//EN"
 "http://www.w3.org/Graphics/SVG/1.1/DTD/svg11.dtd">
<!-- Generated by graphviz version 2.40.1 (20161225.0304)
 -->
<!-- Title: cpu.h Pages: 1 -->
<svg width="736pt" height="375pt"
 viewBox="0.00 0.00 736.00 375.00" xmlns="http://www.w3.org/2000/svg" xmlns:xlink="http://www.w3.org/1999/xlink">
<g id="graph0" class="graph" transform="scale(1 1) rotate(0) translate(4 371)">
<title>cpu.h</title>
<polygon fill="#ffffff" stroke="transparent" points="-4,4 -4,-371 732,-371 732,4 -4,4"/>
<!-- Node0 -->
<g id="node1" class="node">
<title>Node0</title>
<polygon fill="#bfbfbf" stroke="#000000" points="171.5,-347.5 171.5,-366.5 212.5,-366.5 212.5,-347.5 171.5,-347.5"/>
<text text-anchor="middle" x="192" y="-354.5" font-family="Helvetica,sans-Serif" font-size="10.00" fill="#000000">cpu.h</text>
</g>
<!-- Node1 -->
<g id="node2" class="node">
<title>Node1</title>
<polygon fill="#ffffff" stroke="#bfbfbf" points="72.5,-291.5 72.5,-310.5 163.5,-310.5 163.5,-291.5 72.5,-291.5"/>
<text text-anchor="middle" x="118" y="-298.5" font-family="Helvetica,sans-Serif" font-size="10.00" fill="#000000">odp/api/abi/cpu.h</text>
</g>
<!-- Node0&#45;&gt;Node1 -->
<g id="edge1" class="edge">
<title>Node0&#45;&gt;Node1</title>
<path fill="none" stroke="#191970" d="M179.1102,-347.2455C168.0746,-338.8943 151.9708,-326.7076 139.0647,-316.9408"/>
<polygon fill="#191970" stroke="#191970" points="140.8283,-313.8862 130.7421,-310.6427 136.6041,-319.4681 140.8283,-313.8862"/>
</g>
<!-- Node2 -->
<g id="node3" class="node">
<title>Node2</title>
<g id="a_node3"><a xlink:href="api_2thread_8h.html" target="_top" xlink:title="ODP thread API. ">
<polygon fill="#ffffff" stroke="#000000" points="132,-123.5 132,-142.5 218,-142.5 218,-123.5 132,-123.5"/>
<text text-anchor="middle" x="175" y="-130.5" font-family="Helvetica,sans-Serif" font-size="10.00" fill="#000000">odp/api/thread.h</text>
</a>
</g>
</g>
<!-- Node0&#45;&gt;Node2 -->
<g id="edge2" class="edge">
<title>Node0&#45;&gt;Node2</title>
<path fill="none" stroke="#191970" d="M191.2695,-347.375C188.6975,-313.4851 180.0265,-199.2317 176.5052,-152.8332"/>
<polygon fill="#191970" stroke="#191970" points="179.9746,-152.2956 175.7277,-142.5891 172.9946,-152.8254 179.9746,-152.2956"/>
</g>
<!-- Node8 -->
<g id="node9" class="node">
<title>Node8</title>
<g id="a_node9"><a xlink:href="api_2spec_2cpu_8h.html" target="_top" xlink:title="ODP CPU API. ">
<polygon fill="#ffffff" stroke="#000000" points="253.5,-291.5 253.5,-310.5 352.5,-310.5 352.5,-291.5 253.5,-291.5"/>
<text text-anchor="middle" x="303" y="-298.5" font-family="Helvetica,sans-Serif" font-size="10.00" fill="#000000">odp/api/spec/cpu.h</text>
</a>
</g>
</g>
<!-- Node0&#45;&gt;Node8 -->
<g id="edge8" class="edge">
<title>Node0&#45;&gt;Node8</title>
<path fill="none" stroke="#191970" d="M211.0816,-347.3733C228.7402,-338.4644 255.2053,-325.1127 275.2098,-315.0203"/>
<polygon fill="#191970" stroke="#191970" points="276.8158,-318.1303 284.1674,-310.5011 273.6628,-311.8806 276.8158,-318.1303"/>
</g>
<!-- Node3 -->
<g id="node4" class="node">
<title>Node3</title>
<g id="a_node4"><a xlink:href="thread__types_8h.html" target="_top" xlink:title="ODP thread API types. ">
<polygon fill="#ffffff" stroke="#000000" points="0,-56.5 0,-86.5 102,-86.5 102,-56.5 0,-56.5"/>
<text text-anchor="start" x="8" y="-74.5" font-family="Helvetica,sans-Serif" font-size="10.00" fill="#000000">odp/api/spec/thread</text>
<text text-anchor="middle" x="51" y="-63.5" font-family="Helvetica,sans-Serif" font-size="10.00" fill="#000000">_types.h</text>
</a>
</g>
</g>
<!-- Node2&#45;&gt;Node3 -->
<g id="edge3" class="edge">
<title>Node2&#45;&gt;Node3</title>
<path fill="none" stroke="#191970" d="M155.625,-123.3906C138.2216,-114.7591 112.1334,-101.8202 90.3621,-91.0224"/>
<polygon fill="#191970" stroke="#191970" points="91.8476,-87.8523 81.3338,-86.5446 88.7374,-94.1234 91.8476,-87.8523"/>
</g>
<!-- Node4 -->
<g id="node5" class="node">
<title>Node4</title>
<polygon fill="#ffffff" stroke="#bfbfbf" points="120,-62 120,-81 222,-81 222,-62 120,-62"/>
<text text-anchor="middle" x="171" y="-69" font-family="Helvetica,sans-Serif" font-size="10.00" fill="#000000">odp/api/abi/thread.h</text>
</g>
<!-- Node2&#45;&gt;Node4 -->
<g id="edge4" class="edge">
<title>Node2&#45;&gt;Node4</title>
<path fill="none" stroke="#191970" d="M174.375,-123.3906C173.8205,-114.8657 172.9928,-102.1392 172.2958,-91.4235"/>
<polygon fill="#191970" stroke="#191970" points="175.7756,-90.9966 171.6338,-81.2449 168.7903,-91.451 175.7756,-90.9966"/>
</g>
<!-- Node5 -->
<g id="node6" class="node">
<title>Node5</title>
<g id="a_node6"><a xlink:href="api_2spec_2thread_8h.html" target="_top" xlink:title="ODP thread API. ">
<polygon fill="#ffffff" stroke="#000000" points="278,-62 278,-81 388,-81 388,-62 278,-62"/>
<text text-anchor="middle" x="333" y="-69" font-family="Helvetica,sans-Serif" font-size="10.00" fill="#000000">odp/api/spec/thread.h</text>
</a>
</g>
</g>
<!-- Node2&#45;&gt;Node5 -->
<g id="edge5" class="edge">
<title>Node2&#45;&gt;Node5</title>
<path fill="none" stroke="#191970" d="M199.6875,-123.3906C226.3557,-113.0103 269.0282,-96.4004 298.8911,-84.7766"/>
<polygon fill="#191970" stroke="#191970" points="300.4365,-87.9309 308.4859,-81.0419 297.8973,-81.4076 300.4365,-87.9309"/>
</g>
<!-- Node6 -->
<g id="node7" class="node">
<title>Node6</title>
<g id="a_node7"><a xlink:href="visibility__begin_8h_source.html" target="_top" xlink:title="odp/visibility_begin.h">
<polygon fill="#ffffff" stroke="#000000" points="321.5,-.5 321.5,-19.5 428.5,-19.5 428.5,-.5 321.5,-.5"/>
<text text-anchor="middle" x="375" y="-7.5" font-family="Helvetica,sans-Serif" font-size="10.00" fill="#000000">odp/visibility_begin.h</text>
</a>
</g>
</g>
<!-- Node5&#45;&gt;Node6 -->
<g id="edge6" class="edge">
<title>Node5&#45;&gt;Node6</title>
<path fill="none" stroke="#191970" d="M339.5625,-61.8906C345.6908,-52.917 354.9985,-39.2879 362.5372,-28.2491"/>
<polygon fill="#191970" stroke="#191970" points="365.5956,-29.9768 368.345,-19.7449 359.815,-26.029 365.5956,-29.9768"/>
</g>
<!-- Node7 -->
<g id="node8" class="node">
<title>Node7</title>
<g id="a_node8"><a xlink:href="visibility__end_8h_source.html" target="_top" xlink:title="odp/visibility_end.h">
<polygon fill="#ffffff" stroke="#000000" points="600,-.5 600,-19.5 700,-19.5 700,-.5 600,-.5"/>
<text text-anchor="middle" x="650" y="-7.5" font-family="Helvetica,sans-Serif" font-size="10.00" fill="#000000">odp/visibility_end.h</text>
</a>
</g>
</g>
<!-- Node5&#45;&gt;Node7 -->
<g id="edge7" class="edge">
<title>Node5&#45;&gt;Node7</title>
<path fill="none" stroke="#191970" d="M382.1834,-61.9581C438.4886,-51.0345 530.6783,-33.1492 590.853,-21.4749"/>
<polygon fill="#191970" stroke="#191970" points="591.8117,-24.8542 600.962,-19.5137 590.4784,-17.9824 591.8117,-24.8542"/>
</g>
<!-- Node8&#45;&gt;Node6 -->
<g id="edge9" class="edge">
<title>Node8&#45;&gt;Node6</title>
<path fill="none" stroke="#191970" d="M294.7188,-291.2442C279.8125,-272.6512 250,-230.3024 250,-189 250,-189 250,-189 250,-133 250,-97.7513 246.248,-82.9224 269,-56 282.2871,-40.2774 301.9531,-29.7683 320.7495,-22.8195"/>
<polygon fill="#191970" stroke="#191970" points="322.1298,-26.0466 330.4611,-19.5014 319.8666,-19.4225 322.1298,-26.0466"/>
</g>
<!-- Node8&#45;&gt;Node7 -->
<g id="edge21" class="edge">
<title>Node8&#45;&gt;Node7</title>
<path fill="none" stroke="#191970" d="M352.5847,-298.3856C464.695,-291.121 728,-265.8761 728,-189 728,-189 728,-189 728,-133 728,-89.1191 692.1566,-48.2085 669.0654,-26.4058"/>
<polygon fill="#191970" stroke="#191970" points="671.2572,-23.6678 661.5092,-19.5172 666.5412,-28.8408 671.2572,-23.6678"/>
</g>
<!-- Node9 -->
<g id="node10" class="node">
<title>Node9</title>
<g id="a_node10"><a xlink:href="api_2std__types_8h.html" target="_top" xlink:title="Standard C language types and definitions for ODP. ">
<polygon fill="#ffffff" stroke="#000000" points="286,-235.5 286,-254.5 388,-254.5 388,-235.5 286,-235.5"/>
<text text-anchor="middle" x="337" y="-242.5" font-family="Helvetica,sans-Serif" font-size="10.00" fill="#000000">odp/api/std_types.h</text>
</a>
</g>
</g>
<!-- Node8&#45;&gt;Node9 -->
<g id="edge10" class="edge">
<title>Node8&#45;&gt;Node9</title>
<path fill="none" stroke="#191970" d="M308.9223,-291.2455C313.6027,-283.5367 320.2673,-272.5598 325.9289,-263.2348"/>
<polygon fill="#191970" stroke="#191970" points="328.9475,-265.007 331.1455,-254.6427 322.9639,-261.3741 328.9475,-265.007"/>
</g>
<!-- Node10 -->
<g id="node11" class="node">
<title>Node10</title>
<polygon fill="#ffffff" stroke="#bfbfbf" points="278,-179.5 278,-198.5 396,-198.5 396,-179.5 278,-179.5"/>
<text text-anchor="middle" x="337" y="-186.5" font-family="Helvetica,sans-Serif" font-size="10.00" fill="#000000">odp/api/abi/std_types.h</text>
</g>
<!-- Node9&#45;&gt;Node10 -->
<g id="edge11" class="edge">
<title>Node9&#45;&gt;Node10</title>
<path fill="none" stroke="#191970" d="M337,-235.2455C337,-227.9382 337,-217.6944 337,-208.7046"/>
<polygon fill="#191970" stroke="#191970" points="340.5001,-208.6426 337,-198.6427 333.5001,-208.6427 340.5001,-208.6426"/>
</g>
<!-- Node11 -->
<g id="node12" class="node">
<title>Node11</title>
<g id="a_node12"><a xlink:href="api_2spec_2std__types_8h.html" target="_top" xlink:title="Standard C language types and definitions for ODP. ">
<polygon fill="#ffffff" stroke="#000000" points="414,-179.5 414,-198.5 540,-198.5 540,-179.5 414,-179.5"/>
<text text-anchor="middle" x="477" y="-186.5" font-family="Helvetica,sans-Serif" font-size="10.00" fill="#000000">odp/api/spec/std_types.h</text>
</a>
</g>
</g>
<!-- Node9&#45;&gt;Node11 -->
<g id="edge12" class="edge">
<title>Node9&#45;&gt;Node11</title>
<path fill="none" stroke="#191970" d="M361.0669,-235.3733C383.8428,-226.2629 418.2344,-212.5062 443.649,-202.3404"/>
<polygon fill="#191970" stroke="#191970" points="445.2623,-205.4648 453.2472,-198.5011 442.6625,-198.9654 445.2623,-205.4648"/>
</g>
<!-- Node11&#45;&gt;Node6 -->
<g id="edge13" class="edge">
<title>Node11&#45;&gt;Node6</title>
<path fill="none" stroke="#191970" d="M468.0901,-179.2562C460.1341,-170.2624 448.4638,-156.3221 440,-143 436.6603,-137.7432 401.1032,-64.1766 384.039,-28.7738"/>
<polygon fill="#191970" stroke="#191970" points="387.0684,-26.9977 379.575,-19.5078 380.762,-30.0359 387.0684,-26.9977"/>
</g>
<!-- Node11&#45;&gt;Node7 -->
<g id="edge20" class="edge">
<title>Node11&#45;&gt;Node7</title>
<path fill="none" stroke="#191970" d="M529.8775,-179.4734C578.1921,-167.4602 645.8206,-141.3862 671,-87 679.7741,-68.0485 670.9377,-44.7224 662.1858,-28.7417"/>
<polygon fill="#191970" stroke="#191970" points="665.0194,-26.6585 656.9056,-19.8455 658.9998,-30.2313 665.0194,-26.6585"/>
</g>
<!-- Node12 -->
<g id="node13" class="node">
<title>Node12</title>
<polygon fill="#ffffff" stroke="#bfbfbf" points="448.5,-123.5 448.5,-142.5 497.5,-142.5 497.5,-123.5 448.5,-123.5"/>
<text text-anchor="middle" x="473" y="-130.5" font-family="Helvetica,sans-Serif" font-size="10.00" fill="#000000">stdint.h</text>
</g>
<!-- Node11&#45;&gt;Node12 -->
<g id="edge14" class="edge">
<title>Node11&#45;&gt;Node12</title>
<path fill="none" stroke="#191970" d="M476.3033,-179.2455C475.7813,-171.9382 475.0496,-161.6944 474.4075,-152.7046"/>
<polygon fill="#191970" stroke="#191970" points="477.8924,-152.3679 473.6888,-142.6427 470.9102,-152.8667 477.8924,-152.3679"/>
</g>
<!-- Node13 -->
<g id="node14" class="node">
<title>Node13</title>
<g id="a_node14"><a xlink:href="api_2align_8h.html" target="_top" xlink:title="ODP alignments. ">
<polygon fill="#ffffff" stroke="#000000" points="516,-123.5 516,-142.5 596,-142.5 596,-123.5 516,-123.5"/>
<text text-anchor="middle" x="556" y="-130.5" font-family="Helvetica,sans-Serif" font-size="10.00" fill="#000000">odp/api/align.h</text>
</a>
</g>
</g>
<!-- Node11&#45;&gt;Node13 -->
<g id="edge15" class="edge">
<title>Node11&#45;&gt;Node13</title>
<path fill="none" stroke="#191970" d="M490.7607,-179.2455C502.6552,-170.814 520.065,-158.4729 533.9085,-148.6598"/>
<polygon fill="#191970" stroke="#191970" points="536.2628,-151.2811 542.3969,-142.6427 532.2146,-145.5704 536.2628,-151.2811"/>
</g>
<!-- Node14 -->
<g id="node15" class="node">
<title>Node14</title>
<polygon fill="#ffffff" stroke="#bfbfbf" points="444.5,-62 444.5,-81 539.5,-81 539.5,-62 444.5,-62"/>
<text text-anchor="middle" x="492" y="-69" font-family="Helvetica,sans-Serif" font-size="10.00" fill="#000000">odp/api/abi/align.h</text>
</g>
<!-- Node13&#45;&gt;Node14 -->
<g id="edge16" class="edge">
<title>Node13&#45;&gt;Node14</title>
<path fill="none" stroke="#191970" d="M546,-123.3906C536.2881,-114.0581 521.3361,-99.6902 509.6259,-88.4374"/>
<polygon fill="#191970" stroke="#191970" points="511.7766,-85.65 502.141,-81.2449 506.9264,-90.6974 511.7766,-85.65"/>
</g>
<!-- Node15 -->
<g id="node16" class="node">
<title>Node15</title>
<g id="a_node16"><a xlink:href="api_2spec_2align_8h.html" target="_top" xlink:title="ODP alignments. ">
<polygon fill="#ffffff" stroke="#000000" points="558,-62 558,-81 662,-81 662,-62 558,-62"/>
<text text-anchor="middle" x="610" y="-69" font-family="Helvetica,sans-Serif" font-size="10.00" fill="#000000">odp/api/spec/align.h</text>
</a>
</g>
</g>
<!-- Node13&#45;&gt;Node15 -->
<g id="edge17" class="edge">
<title>Node13&#45;&gt;Node15</title>
<path fill="none" stroke="#191970" d="M564.4375,-123.3906C572.5531,-114.1478 585.0055,-99.966 594.8424,-88.7628"/>
<polygon fill="#191970" stroke="#191970" points="597.4755,-91.0686 601.4435,-81.2449 592.2154,-86.45 597.4755,-91.0686"/>
</g>
<!-- Node15&#45;&gt;Node6 -->
<g id="edge18" class="edge">
<title>Node15&#45;&gt;Node6</title>
<path fill="none" stroke="#191970" d="M573.5391,-61.9581C532.5485,-51.2308 465.9031,-33.7895 421.274,-22.11"/>
<polygon fill="#191970" stroke="#191970" points="422.1068,-18.7101 411.5464,-19.5643 420.3345,-25.4821 422.1068,-18.7101"/>
</g>
<!-- Node15&#45;&gt;Node7 -->
<g id="edge19" class="edge">
<title>Node15&#45;&gt;Node7</title>
<path fill="none" stroke="#191970" d="M616.25,-61.8906C622.0865,-52.917 630.9509,-39.2879 638.1306,-28.2491"/>
<polygon fill="#191970" stroke="#191970" points="641.1436,-30.0361 643.6619,-19.7449 635.2755,-26.2194 641.1436,-30.0361"/>
</g>
</g>
</svg>
