<?xml version="1.0" encoding="UTF-8" standalone="no"?>
<!DOCTYPE svg PUBLIC "-//W3C//DTD SVG 1.1//EN"
 "http://www.w3.org/Graphics/SVG/1.1/DTD/svg11.dtd">
<!-- Generated by graphviz version 2.40.1 (20161225.0304)
 -->
<!-- Title: ticketlock.h Pages: 1 -->
<svg width="585pt" height="252pt"
 viewBox="0.00 0.00 585.00 252.00" xmlns="http://www.w3.org/2000/svg" xmlns:xlink="http://www.w3.org/1999/xlink">
<g id="graph0" class="graph" transform="scale(1 1) rotate(0) translate(4 248)">
<title>ticketlock.h</title>
<polygon fill="#ffffff" stroke="transparent" points="-4,4 -4,-248 581,-248 581,4 -4,4"/>
<!-- Node6 -->
<g id="node1" class="node">
<title>Node6</title>
<polygon fill="#bfbfbf" stroke="#000000" points="255,-224.5 255,-243.5 322,-243.5 322,-224.5 255,-224.5"/>
<text text-anchor="middle" x="288.5" y="-231.5" font-family="Helvetica,sans-Serif" font-size="10.00" fill="#000000">ticketlock.h</text>
</g>
<!-- Node7 -->
<g id="node2" class="node">
<title>Node7</title>
<g id="a_node2"><a xlink:href="arch_2arm32-linux_2odp_2api_2abi_2ticketlock_8h_source.html" target="_top" xlink:title="ticketlock.h">
<polygon fill="#ffffff" stroke="#000000" points="0,-168.5 0,-187.5 67,-187.5 67,-168.5 0,-168.5"/>
<text text-anchor="middle" x="33.5" y="-175.5" font-family="Helvetica,sans-Serif" font-size="10.00" fill="#000000">ticketlock.h</text>
</a>
</g>
</g>
<!-- Node6&#45;&gt;Node7 -->
<g id="edge1" class="edge">
<title>Node6&#45;&gt;Node7</title>
<path fill="none" stroke="#191970" d="M244.8586,-224.7282C201.9678,-215.5694 134.671,-201.0743 76.5,-188 73.5088,-187.3277 70.4026,-186.6214 67.2903,-185.908"/>
<polygon fill="#191970" stroke="#191970" points="244.1761,-228.1613 254.6863,-226.8246 245.6365,-221.3154 244.1761,-228.1613"/>
</g>
<!-- Node8 -->
<g id="node3" class="node">
<title>Node8</title>
<g id="a_node3"><a xlink:href="arch_2arm64-linux_2odp_2api_2abi_2ticketlock_8h_source.html" target="_top" xlink:title="ticketlock.h">
<polygon fill="#ffffff" stroke="#000000" points="85,-168.5 85,-187.5 152,-187.5 152,-168.5 85,-168.5"/>
<text text-anchor="middle" x="118.5" y="-175.5" font-family="Helvetica,sans-Serif" font-size="10.00" fill="#000000">ticketlock.h</text>
</a>
</g>
</g>
<!-- Node6&#45;&gt;Node8 -->
<g id="edge2" class="edge">
<title>Node6&#45;&gt;Node8</title>
<path fill="none" stroke="#191970" d="M249.614,-221.1905C218.4688,-210.9309 175.4777,-196.7691 147.3427,-187.5011"/>
<polygon fill="#191970" stroke="#191970" points="248.6829,-224.5687 259.276,-224.3733 250.8731,-217.9202 248.6829,-224.5687"/>
</g>
<!-- Node9 -->
<g id="node4" class="node">
<title>Node9</title>
<g id="a_node4"><a xlink:href="arch_2default-linux_2odp_2api_2abi_2ticketlock_8h_source.html" target="_top" xlink:title="ticketlock.h">
<polygon fill="#ffffff" stroke="#000000" points="170,-168.5 170,-187.5 237,-187.5 237,-168.5 170,-168.5"/>
<text text-anchor="middle" x="203.5" y="-175.5" font-family="Helvetica,sans-Serif" font-size="10.00" fill="#000000">ticketlock.h</text>
</a>
</g>
</g>
<!-- Node6&#45;&gt;Node9 -->
<g id="edge3" class="edge">
<title>Node6&#45;&gt;Node9</title>
<path fill="none" stroke="#191970" d="M264.9581,-218.49C249.961,-208.6096 231.0027,-196.1194 218.1362,-187.6427"/>
<polygon fill="#191970" stroke="#191970" points="263.4179,-221.6666 273.6941,-224.2455 267.2691,-215.8212 263.4179,-221.6666"/>
</g>
<!-- Node10 -->
<g id="node5" class="node">
<title>Node10</title>
<g id="a_node5"><a xlink:href="arch_2mips64-linux_2odp_2api_2abi_2ticketlock_8h_source.html" target="_top" xlink:title="ticketlock.h">
<polygon fill="#ffffff" stroke="#000000" points="255,-168.5 255,-187.5 322,-187.5 322,-168.5 255,-168.5"/>
<text text-anchor="middle" x="288.5" y="-175.5" font-family="Helvetica,sans-Serif" font-size="10.00" fill="#000000">ticketlock.h</text>
</a>
</g>
</g>
<!-- Node6&#45;&gt;Node10 -->
<g id="edge4" class="edge">
<title>Node6&#45;&gt;Node10</title>
<path fill="none" stroke="#191970" d="M288.5,-214.1575C288.5,-205.155 288.5,-194.9199 288.5,-187.6427"/>
<polygon fill="#191970" stroke="#191970" points="285.0001,-214.2455 288.5,-224.2455 292.0001,-214.2456 285.0001,-214.2455"/>
</g>
<!-- Node11 -->
<g id="node6" class="node">
<title>Node11</title>
<g id="a_node6"><a xlink:href="arch_2power64-linux_2odp_2api_2abi_2ticketlock_8h_source.html" target="_top" xlink:title="ticketlock.h">
<polygon fill="#ffffff" stroke="#000000" points="340,-168.5 340,-187.5 407,-187.5 407,-168.5 340,-168.5"/>
<text text-anchor="middle" x="373.5" y="-175.5" font-family="Helvetica,sans-Serif" font-size="10.00" fill="#000000">ticketlock.h</text>
</a>
</g>
</g>
<!-- Node6&#45;&gt;Node11 -->
<g id="edge5" class="edge">
<title>Node6&#45;&gt;Node11</title>
<path fill="none" stroke="#191970" d="M312.0419,-218.49C327.039,-208.6096 345.9973,-196.1194 358.8638,-187.6427"/>
<polygon fill="#191970" stroke="#191970" points="309.7309,-215.8212 303.3059,-224.2455 313.5821,-221.6666 309.7309,-215.8212"/>
</g>
<!-- Node12 -->
<g id="node7" class="node">
<title>Node12</title>
<g id="a_node7"><a xlink:href="arch_2x86__32-linux_2odp_2api_2abi_2ticketlock_8h_source.html" target="_top" xlink:title="ticketlock.h">
<polygon fill="#ffffff" stroke="#000000" points="425,-168.5 425,-187.5 492,-187.5 492,-168.5 425,-168.5"/>
<text text-anchor="middle" x="458.5" y="-175.5" font-family="Helvetica,sans-Serif" font-size="10.00" fill="#000000">ticketlock.h</text>
</a>
</g>
</g>
<!-- Node6&#45;&gt;Node12 -->
<g id="edge6" class="edge">
<title>Node6&#45;&gt;Node12</title>
<path fill="none" stroke="#191970" d="M327.386,-221.1905C358.5312,-210.9309 401.5223,-196.7691 429.6573,-187.5011"/>
<polygon fill="#191970" stroke="#191970" points="326.1269,-217.9202 317.724,-224.3733 328.3171,-224.5687 326.1269,-217.9202"/>
</g>
<!-- Node13 -->
<g id="node8" class="node">
<title>Node13</title>
<g id="a_node8"><a xlink:href="arch_2x86__64-linux_2odp_2api_2abi_2ticketlock_8h_source.html" target="_top" xlink:title="ticketlock.h">
<polygon fill="#ffffff" stroke="#000000" points="510,-168.5 510,-187.5 577,-187.5 577,-168.5 510,-168.5"/>
<text text-anchor="middle" x="543.5" y="-175.5" font-family="Helvetica,sans-Serif" font-size="10.00" fill="#000000">ticketlock.h</text>
</a>
</g>
</g>
<!-- Node6&#45;&gt;Node13 -->
<g id="edge7" class="edge">
<title>Node6&#45;&gt;Node13</title>
<path fill="none" stroke="#191970" d="M331.9874,-224.8882C375.0757,-215.7941 442.9243,-201.2968 501.5,-188 504.1314,-187.4027 506.8533,-186.7756 509.5882,-186.1389"/>
<polygon fill="#191970" stroke="#191970" points="331.1827,-221.4808 322.1194,-226.9678 332.6262,-228.3304 331.1827,-221.4808"/>
</g>
<!-- Node14 -->
<g id="node9" class="node">
<title>Node14</title>
<g id="a_node9"><a xlink:href="api_2ticketlock_8h.html" target="_top" xlink:title="ODP ticketlock. ">
<polygon fill="#ffffff" stroke="#000000" points="510,-112.5 510,-131.5 577,-131.5 577,-112.5 510,-112.5"/>
<text text-anchor="middle" x="543.5" y="-119.5" font-family="Helvetica,sans-Serif" font-size="10.00" fill="#000000">ticketlock.h</text>
</a>
</g>
</g>
<!-- Node13&#45;&gt;Node14 -->
<g id="edge8" class="edge">
<title>Node13&#45;&gt;Node14</title>
<path fill="none" stroke="#191970" d="M543.5,-158.1575C543.5,-149.155 543.5,-138.9199 543.5,-131.6427"/>
<polygon fill="#191970" stroke="#191970" points="540.0001,-158.2455 543.5,-168.2455 547.0001,-158.2456 540.0001,-158.2455"/>
</g>
<!-- Node15 -->
<g id="node10" class="node">
<title>Node15</title>
<g id="a_node10"><a xlink:href="odp__api_8h.html" target="_top" xlink:title="The OpenDataPlane API. ">
<polygon fill="#ffffff" stroke="#000000" points="514,-56.5 514,-75.5 573,-75.5 573,-56.5 514,-56.5"/>
<text text-anchor="middle" x="543.5" y="-63.5" font-family="Helvetica,sans-Serif" font-size="10.00" fill="#000000">odp_api.h</text>
</a>
</g>
</g>
<!-- Node14&#45;&gt;Node15 -->
<g id="edge9" class="edge">
<title>Node14&#45;&gt;Node15</title>
<path fill="none" stroke="#191970" d="M543.5,-102.1575C543.5,-93.155 543.5,-82.9199 543.5,-75.6427"/>
<polygon fill="#191970" stroke="#191970" points="540.0001,-102.2455 543.5,-112.2455 547.0001,-102.2456 540.0001,-102.2455"/>
</g>
<!-- Node16 -->
<g id="node11" class="node">
<title>Node16</title>
<g id="a_node11"><a xlink:href="odp_8h.html" target="_top" xlink:title="WARNING: THIS FILE IS DEPRECATED AND WILL BE REMOVED!!! ODP APPLICATIONS SHOULD NOW INCLUDE odp_api...">
<polygon fill="#ffffff" stroke="#000000" points="523,-.5 523,-19.5 564,-19.5 564,-.5 523,-.5"/>
<text text-anchor="middle" x="543.5" y="-7.5" font-family="Helvetica,sans-Serif" font-size="10.00" fill="#000000">odp.h</text>
</a>
</g>
</g>
<!-- Node15&#45;&gt;Node16 -->
<g id="edge10" class="edge">
<title>Node15&#45;&gt;Node16</title>
<path fill="none" stroke="#191970" d="M543.5,-46.1575C543.5,-37.155 543.5,-26.9199 543.5,-19.6427"/>
<polygon fill="#191970" stroke="#191970" points="540.0001,-46.2455 543.5,-56.2455 547.0001,-46.2456 540.0001,-46.2455"/>
</g>
</g>
</svg>
