<?xml version="1.0" encoding="UTF-8" standalone="no"?>
<!DOCTYPE svg PUBLIC "-//W3C//DTD SVG 1.1//EN"
 "http://www.w3.org/Graphics/SVG/1.1/DTD/svg11.dtd">
<!-- Generated by graphviz version 2.40.1 (20161225.0304)
 -->
<!-- Title: schedule.h Pages: 1 -->
<svg width="564pt" height="252pt"
 viewBox="0.00 0.00 564.00 252.00" xmlns="http://www.w3.org/2000/svg" xmlns:xlink="http://www.w3.org/1999/xlink">
<g id="graph0" class="graph" transform="scale(1 1) rotate(0) translate(4 248)">
<title>schedule.h</title>
<polygon fill="#ffffff" stroke="transparent" points="-4,4 -4,-248 560,-248 560,4 -4,4"/>
<!-- Node10 -->
<g id="node1" class="node">
<title>Node10</title>
<polygon fill="#bfbfbf" stroke="#000000" points="246,-224.5 246,-243.5 310,-243.5 310,-224.5 246,-224.5"/>
<text text-anchor="middle" x="278" y="-231.5" font-family="Helvetica,sans-Serif" font-size="10.00" fill="#000000">schedule.h</text>
</g>
<!-- Node11 -->
<g id="node2" class="node">
<title>Node11</title>
<g id="a_node2"><a xlink:href="arch_2arm32-linux_2odp_2api_2abi_2schedule_8h_source.html" target="_top" xlink:title="schedule.h">
<polygon fill="#ffffff" stroke="#000000" points="0,-168.5 0,-187.5 64,-187.5 64,-168.5 0,-168.5"/>
<text text-anchor="middle" x="32" y="-175.5" font-family="Helvetica,sans-Serif" font-size="10.00" fill="#000000">schedule.h</text>
</a>
</g>
</g>
<!-- Node10&#45;&gt;Node11 -->
<g id="edge1" class="edge">
<title>Node10&#45;&gt;Node11</title>
<path fill="none" stroke="#191970" d="M235.6249,-224.7312C194.1341,-215.5994 129.1496,-201.146 73,-188 70.1465,-187.3319 67.1837,-186.6285 64.2155,-185.917"/>
<polygon fill="#191970" stroke="#191970" points="235.1293,-228.2058 245.6475,-226.9342 236.632,-221.369 235.1293,-228.2058"/>
</g>
<!-- Node12 -->
<g id="node3" class="node">
<title>Node12</title>
<g id="a_node3"><a xlink:href="arch_2arm64-linux_2odp_2api_2abi_2schedule_8h_source.html" target="_top" xlink:title="schedule.h">
<polygon fill="#ffffff" stroke="#000000" points="82,-168.5 82,-187.5 146,-187.5 146,-168.5 82,-168.5"/>
<text text-anchor="middle" x="114" y="-175.5" font-family="Helvetica,sans-Serif" font-size="10.00" fill="#000000">schedule.h</text>
</a>
</g>
</g>
<!-- Node10&#45;&gt;Node12 -->
<g id="edge2" class="edge">
<title>Node10&#45;&gt;Node12</title>
<path fill="none" stroke="#191970" d="M240.0956,-221.057C210.0816,-210.8084 168.8493,-196.729 141.8247,-187.5011"/>
<polygon fill="#191970" stroke="#191970" points="239.2129,-224.454 249.8074,-224.3733 241.4749,-217.8295 239.2129,-224.454"/>
</g>
<!-- Node13 -->
<g id="node4" class="node">
<title>Node13</title>
<g id="a_node4"><a xlink:href="arch_2default-linux_2odp_2api_2abi_2schedule_8h_source.html" target="_top" xlink:title="schedule.h">
<polygon fill="#ffffff" stroke="#000000" points="164,-168.5 164,-187.5 228,-187.5 228,-168.5 164,-168.5"/>
<text text-anchor="middle" x="196" y="-175.5" font-family="Helvetica,sans-Serif" font-size="10.00" fill="#000000">schedule.h</text>
</a>
</g>
</g>
<!-- Node10&#45;&gt;Node13 -->
<g id="edge3" class="edge">
<title>Node10&#45;&gt;Node13</title>
<path fill="none" stroke="#191970" d="M255.289,-218.49C240.8212,-208.6096 222.532,-196.1194 210.1196,-187.6427"/>
<polygon fill="#191970" stroke="#191970" points="253.4848,-221.4962 263.7167,-224.2455 257.4325,-215.7156 253.4848,-221.4962"/>
</g>
<!-- Node14 -->
<g id="node5" class="node">
<title>Node14</title>
<g id="a_node5"><a xlink:href="arch_2mips64-linux_2odp_2api_2abi_2schedule_8h_source.html" target="_top" xlink:title="schedule.h">
<polygon fill="#ffffff" stroke="#000000" points="246,-168.5 246,-187.5 310,-187.5 310,-168.5 246,-168.5"/>
<text text-anchor="middle" x="278" y="-175.5" font-family="Helvetica,sans-Serif" font-size="10.00" fill="#000000">schedule.h</text>
</a>
</g>
</g>
<!-- Node10&#45;&gt;Node14 -->
<g id="edge4" class="edge">
<title>Node10&#45;&gt;Node14</title>
<path fill="none" stroke="#191970" d="M278,-214.1575C278,-205.155 278,-194.9199 278,-187.6427"/>
<polygon fill="#191970" stroke="#191970" points="274.5001,-214.2455 278,-224.2455 281.5001,-214.2456 274.5001,-214.2455"/>
</g>
<!-- Node15 -->
<g id="node6" class="node">
<title>Node15</title>
<g id="a_node6"><a xlink:href="arch_2power64-linux_2odp_2api_2abi_2schedule_8h_source.html" target="_top" xlink:title="schedule.h">
<polygon fill="#ffffff" stroke="#000000" points="328,-168.5 328,-187.5 392,-187.5 392,-168.5 328,-168.5"/>
<text text-anchor="middle" x="360" y="-175.5" font-family="Helvetica,sans-Serif" font-size="10.00" fill="#000000">schedule.h</text>
</a>
</g>
</g>
<!-- Node10&#45;&gt;Node15 -->
<g id="edge5" class="edge">
<title>Node10&#45;&gt;Node15</title>
<path fill="none" stroke="#191970" d="M300.711,-218.49C315.1788,-208.6096 333.468,-196.1194 345.8804,-187.6427"/>
<polygon fill="#191970" stroke="#191970" points="298.5675,-215.7156 292.2833,-224.2455 302.5152,-221.4962 298.5675,-215.7156"/>
</g>
<!-- Node16 -->
<g id="node7" class="node">
<title>Node16</title>
<g id="a_node7"><a xlink:href="arch_2x86__32-linux_2odp_2api_2abi_2schedule_8h_source.html" target="_top" xlink:title="schedule.h">
<polygon fill="#ffffff" stroke="#000000" points="410,-168.5 410,-187.5 474,-187.5 474,-168.5 410,-168.5"/>
<text text-anchor="middle" x="442" y="-175.5" font-family="Helvetica,sans-Serif" font-size="10.00" fill="#000000">schedule.h</text>
</a>
</g>
</g>
<!-- Node10&#45;&gt;Node16 -->
<g id="edge6" class="edge">
<title>Node10&#45;&gt;Node16</title>
<path fill="none" stroke="#191970" d="M315.9044,-221.057C345.9184,-210.8084 387.1507,-196.729 414.1753,-187.5011"/>
<polygon fill="#191970" stroke="#191970" points="314.5251,-217.8295 306.1926,-224.3733 316.7871,-224.454 314.5251,-217.8295"/>
</g>
<!-- Node17 -->
<g id="node8" class="node">
<title>Node17</title>
<g id="a_node8"><a xlink:href="arch_2x86__64-linux_2odp_2api_2abi_2schedule_8h_source.html" target="_top" xlink:title="schedule.h">
<polygon fill="#ffffff" stroke="#000000" points="492,-168.5 492,-187.5 556,-187.5 556,-168.5 492,-168.5"/>
<text text-anchor="middle" x="524" y="-175.5" font-family="Helvetica,sans-Serif" font-size="10.00" fill="#000000">schedule.h</text>
</a>
</g>
</g>
<!-- Node10&#45;&gt;Node17 -->
<g id="edge7" class="edge">
<title>Node10&#45;&gt;Node17</title>
<path fill="none" stroke="#191970" d="M320.3751,-224.7312C361.8659,-215.5994 426.8504,-201.146 483,-188 485.8535,-187.3319 488.8163,-186.6285 491.7845,-185.917"/>
<polygon fill="#191970" stroke="#191970" points="319.368,-221.369 310.3525,-226.9342 320.8707,-228.2058 319.368,-221.369"/>
</g>
<!-- Node18 -->
<g id="node9" class="node">
<title>Node18</title>
<g id="a_node9"><a xlink:href="api_2schedule_8h.html" target="_top" xlink:title="ODP schedule. ">
<polygon fill="#ffffff" stroke="#000000" points="492,-112.5 492,-131.5 556,-131.5 556,-112.5 492,-112.5"/>
<text text-anchor="middle" x="524" y="-119.5" font-family="Helvetica,sans-Serif" font-size="10.00" fill="#000000">schedule.h</text>
</a>
</g>
</g>
<!-- Node17&#45;&gt;Node18 -->
<g id="edge8" class="edge">
<title>Node17&#45;&gt;Node18</title>
<path fill="none" stroke="#191970" d="M524,-158.1575C524,-149.155 524,-138.9199 524,-131.6427"/>
<polygon fill="#191970" stroke="#191970" points="520.5001,-158.2455 524,-168.2455 527.5001,-158.2456 520.5001,-158.2455"/>
</g>
<!-- Node19 -->
<g id="node10" class="node">
<title>Node19</title>
<g id="a_node10"><a xlink:href="odp__api_8h.html" target="_top" xlink:title="The OpenDataPlane API. ">
<polygon fill="#ffffff" stroke="#000000" points="494.5,-56.5 494.5,-75.5 553.5,-75.5 553.5,-56.5 494.5,-56.5"/>
<text text-anchor="middle" x="524" y="-63.5" font-family="Helvetica,sans-Serif" font-size="10.00" fill="#000000">odp_api.h</text>
</a>
</g>
</g>
<!-- Node18&#45;&gt;Node19 -->
<g id="edge9" class="edge">
<title>Node18&#45;&gt;Node19</title>
<path fill="none" stroke="#191970" d="M524,-102.1575C524,-93.155 524,-82.9199 524,-75.6427"/>
<polygon fill="#191970" stroke="#191970" points="520.5001,-102.2455 524,-112.2455 527.5001,-102.2456 520.5001,-102.2455"/>
</g>
<!-- Node20 -->
<g id="node11" class="node">
<title>Node20</title>
<g id="a_node11"><a xlink:href="odp_8h.html" target="_top" xlink:title="WARNING: THIS FILE IS DEPRECATED AND WILL BE REMOVED!!! ODP APPLICATIONS SHOULD NOW INCLUDE odp_api...">
<polygon fill="#ffffff" stroke="#000000" points="503.5,-.5 503.5,-19.5 544.5,-19.5 544.5,-.5 503.5,-.5"/>
<text text-anchor="middle" x="524" y="-7.5" font-family="Helvetica,sans-Serif" font-size="10.00" fill="#000000">odp.h</text>
</a>
</g>
</g>
<!-- Node19&#45;&gt;Node20 -->
<g id="edge10" class="edge">
<title>Node19&#45;&gt;Node20</title>
<path fill="none" stroke="#191970" d="M524,-46.1575C524,-37.155 524,-26.9199 524,-19.6427"/>
<polygon fill="#191970" stroke="#191970" points="520.5001,-46.2455 524,-56.2455 527.5001,-46.2456 520.5001,-46.2455"/>
</g>
</g>
</svg>
