<?xml version="1.0" encoding="UTF-8" standalone="no"?>
<!DOCTYPE svg PUBLIC "-//W3C//DTD SVG 1.1//EN"
 "http://www.w3.org/Graphics/SVG/1.1/DTD/svg11.dtd">
<!-- Generated by graphviz version 2.40.1 (20161225.0304)
 -->
<!-- Title: cpumask.h Pages: 1 -->
<svg width="409pt" height="308pt"
 viewBox="0.00 0.00 409.00 308.00" xmlns="http://www.w3.org/2000/svg" xmlns:xlink="http://www.w3.org/1999/xlink">
<g id="graph0" class="graph" transform="scale(1 1) rotate(0) translate(4 304)">
<title>cpumask.h</title>
<polygon fill="#ffffff" stroke="transparent" points="-4,4 -4,-304 405,-304 405,4 -4,4"/>
<!-- Node0 -->
<g id="node1" class="node">
<title>Node0</title>
<polygon fill="#bfbfbf" stroke="#000000" points="289,-280.5 289,-299.5 354,-299.5 354,-280.5 289,-280.5"/>
<text text-anchor="middle" x="321.5" y="-287.5" font-family="Helvetica,sans-Serif" font-size="10.00" fill="#000000">cpumask.h</text>
</g>
<!-- Node1 -->
<g id="node2" class="node">
<title>Node1</title>
<g id="a_node2"><a xlink:href="api_2std__types_8h.html" target="_top" xlink:title="Standard C language types and definitions for ODP. ">
<polygon fill="#ffffff" stroke="#000000" points="183.5,-224.5 183.5,-243.5 285.5,-243.5 285.5,-224.5 183.5,-224.5"/>
<text text-anchor="middle" x="234.5" y="-231.5" font-family="Helvetica,sans-Serif" font-size="10.00" fill="#000000">odp/api/std_types.h</text>
</a>
</g>
</g>
<!-- Node0&#45;&gt;Node1 -->
<g id="edge1" class="edge">
<title>Node0&#45;&gt;Node1</title>
<path fill="none" stroke="#191970" d="M306.3458,-280.2455C292.9973,-271.6534 273.3414,-259.0014 257.9617,-249.1018"/>
<polygon fill="#191970" stroke="#191970" points="259.7836,-246.1121 249.4806,-243.6427 255.9949,-251.9982 259.7836,-246.1121"/>
</g>
<!-- Node6 -->
<g id="node7" class="node">
<title>Node6</title>
<g id="a_node7"><a xlink:href="api_2align_8h.html" target="_top" xlink:title="ODP alignments. ">
<polygon fill="#ffffff" stroke="#000000" points="221.5,-112.5 221.5,-131.5 301.5,-131.5 301.5,-112.5 221.5,-112.5"/>
<text text-anchor="middle" x="261.5" y="-119.5" font-family="Helvetica,sans-Serif" font-size="10.00" fill="#000000">odp/api/align.h</text>
</a>
</g>
</g>
<!-- Node0&#45;&gt;Node6 -->
<g id="edge12" class="edge">
<title>Node0&#45;&gt;Node6</title>
<path fill="none" stroke="#191970" d="M321.8031,-280.2853C322.0935,-258.8966 320.7174,-206.5717 302.5,-168 297.3602,-157.1176 288.82,-146.9163 280.8605,-138.8991"/>
<polygon fill="#191970" stroke="#191970" points="282.9039,-136.013 273.2421,-131.6656 278.0841,-141.0893 282.9039,-136.013"/>
</g>
<!-- Node10 -->
<g id="node11" class="node">
<title>Node10</title>
<polygon fill="#ffffff" stroke="#bfbfbf" points="350,-224.5 350,-243.5 401,-243.5 401,-224.5 350,-224.5"/>
<text text-anchor="middle" x="375.5" y="-231.5" font-family="Helvetica,sans-Serif" font-size="10.00" fill="#000000">sched.h</text>
</g>
<!-- Node0&#45;&gt;Node10 -->
<g id="edge13" class="edge">
<title>Node0&#45;&gt;Node10</title>
<path fill="none" stroke="#191970" d="M330.9061,-280.2455C338.6493,-272.2155 349.812,-260.6394 359.0318,-251.0781"/>
<polygon fill="#191970" stroke="#191970" points="361.7798,-253.2706 366.2017,-243.6427 356.7409,-248.4117 361.7798,-253.2706"/>
</g>
<!-- Node2 -->
<g id="node3" class="node">
<title>Node2</title>
<polygon fill="#ffffff" stroke="#bfbfbf" points="175.5,-168.5 175.5,-187.5 293.5,-187.5 293.5,-168.5 175.5,-168.5"/>
<text text-anchor="middle" x="234.5" y="-175.5" font-family="Helvetica,sans-Serif" font-size="10.00" fill="#000000">odp/api/abi/std_types.h</text>
</g>
<!-- Node1&#45;&gt;Node2 -->
<g id="edge2" class="edge">
<title>Node1&#45;&gt;Node2</title>
<path fill="none" stroke="#191970" d="M234.5,-224.2455C234.5,-216.9382 234.5,-206.6944 234.5,-197.7046"/>
<polygon fill="#191970" stroke="#191970" points="238.0001,-197.6426 234.5,-187.6427 231.0001,-197.6427 238.0001,-197.6426"/>
</g>
<!-- Node3 -->
<g id="node4" class="node">
<title>Node3</title>
<g id="a_node4"><a xlink:href="api_2spec_2std__types_8h.html" target="_top" xlink:title="Standard C language types and definitions for ODP. ">
<polygon fill="#ffffff" stroke="#000000" points="31.5,-168.5 31.5,-187.5 157.5,-187.5 157.5,-168.5 31.5,-168.5"/>
<text text-anchor="middle" x="94.5" y="-175.5" font-family="Helvetica,sans-Serif" font-size="10.00" fill="#000000">odp/api/spec/std_types.h</text>
</a>
</g>
</g>
<!-- Node1&#45;&gt;Node3 -->
<g id="edge3" class="edge">
<title>Node1&#45;&gt;Node3</title>
<path fill="none" stroke="#191970" d="M210.4331,-224.3733C187.6572,-215.2629 153.2656,-201.5062 127.851,-191.3404"/>
<polygon fill="#191970" stroke="#191970" points="128.8375,-187.9654 118.2528,-187.5011 126.2377,-194.4648 128.8375,-187.9654"/>
</g>
<!-- Node4 -->
<g id="node5" class="node">
<title>Node4</title>
<g id="a_node5"><a xlink:href="visibility__begin_8h_source.html" target="_top" xlink:title="odp/visibility_begin.h">
<polygon fill="#ffffff" stroke="#000000" points="0,-.5 0,-19.5 107,-19.5 107,-.5 0,-.5"/>
<text text-anchor="middle" x="53.5" y="-7.5" font-family="Helvetica,sans-Serif" font-size="10.00" fill="#000000">odp/visibility_begin.h</text>
</a>
</g>
</g>
<!-- Node3&#45;&gt;Node4 -->
<g id="edge4" class="edge">
<title>Node3&#45;&gt;Node4</title>
<path fill="none" stroke="#191970" d="M91.2733,-168.1925C88.281,-158.9222 83.8053,-144.5961 80.5,-132 71.0886,-96.1344 62.2081,-53.7738 57.3452,-29.581"/>
<polygon fill="#191970" stroke="#191970" points="60.7341,-28.6771 55.351,-19.5517 53.8685,-30.0423 60.7341,-28.6771"/>
</g>
<!-- Node5 -->
<g id="node6" class="node">
<title>Node5</title>
<polygon fill="#ffffff" stroke="#bfbfbf" points="123,-112.5 123,-131.5 172,-131.5 172,-112.5 123,-112.5"/>
<text text-anchor="middle" x="147.5" y="-119.5" font-family="Helvetica,sans-Serif" font-size="10.00" fill="#000000">stdint.h</text>
</g>
<!-- Node3&#45;&gt;Node5 -->
<g id="edge5" class="edge">
<title>Node3&#45;&gt;Node5</title>
<path fill="none" stroke="#191970" d="M103.7319,-168.2455C111.3317,-160.2155 122.2877,-148.6394 131.3368,-139.0781"/>
<polygon fill="#191970" stroke="#191970" points="134.0421,-141.3115 138.3739,-131.6427 128.958,-136.4998 134.0421,-141.3115"/>
</g>
<!-- Node3&#45;&gt;Node6 -->
<g id="edge6" class="edge">
<title>Node3&#45;&gt;Node6</title>
<path fill="none" stroke="#191970" d="M123.2083,-168.3733C150.8577,-159.1016 192.8576,-145.0178 223.3166,-134.804"/>
<polygon fill="#191970" stroke="#191970" points="224.7979,-137.9989 233.1663,-131.5011 222.5724,-131.3621 224.7979,-137.9989"/>
</g>
<!-- Node9 -->
<g id="node10" class="node">
<title>Node9</title>
<g id="a_node10"><a xlink:href="visibility__end_8h_source.html" target="_top" xlink:title="odp/visibility_end.h">
<polygon fill="#ffffff" stroke="#000000" points="125.5,-.5 125.5,-19.5 225.5,-19.5 225.5,-.5 125.5,-.5"/>
<text text-anchor="middle" x="175.5" y="-7.5" font-family="Helvetica,sans-Serif" font-size="10.00" fill="#000000">odp/visibility_end.h</text>
</a>
</g>
</g>
<!-- Node3&#45;&gt;Node9 -->
<g id="edge11" class="edge">
<title>Node3&#45;&gt;Node9</title>
<path fill="none" stroke="#191970" d="M93.6472,-168.3081C92.204,-146.5167 91.33,-92.6944 113.5,-56 121.3428,-43.019 134.3658,-32.5262 146.4572,-24.8582"/>
<polygon fill="#191970" stroke="#191970" points="148.5994,-27.6574 155.4208,-19.5506 145.0328,-21.6341 148.5994,-27.6574"/>
</g>
<!-- Node7 -->
<g id="node8" class="node">
<title>Node7</title>
<polygon fill="#ffffff" stroke="#bfbfbf" points="245,-56.5 245,-75.5 340,-75.5 340,-56.5 245,-56.5"/>
<text text-anchor="middle" x="292.5" y="-63.5" font-family="Helvetica,sans-Serif" font-size="10.00" fill="#000000">odp/api/abi/align.h</text>
</g>
<!-- Node6&#45;&gt;Node7 -->
<g id="edge7" class="edge">
<title>Node6&#45;&gt;Node7</title>
<path fill="none" stroke="#191970" d="M266.8998,-112.2455C271.1227,-104.617 277.1173,-93.7881 282.2441,-84.5267"/>
<polygon fill="#191970" stroke="#191970" points="285.381,-86.0867 287.1621,-75.6427 279.2568,-82.6965 285.381,-86.0867"/>
</g>
<!-- Node8 -->
<g id="node9" class="node">
<title>Node8</title>
<g id="a_node9"><a xlink:href="api_2spec_2align_8h.html" target="_top" xlink:title="ODP alignments. ">
<polygon fill="#ffffff" stroke="#000000" points="122.5,-56.5 122.5,-75.5 226.5,-75.5 226.5,-56.5 122.5,-56.5"/>
<text text-anchor="middle" x="174.5" y="-63.5" font-family="Helvetica,sans-Serif" font-size="10.00" fill="#000000">odp/api/spec/align.h</text>
</a>
</g>
</g>
<!-- Node6&#45;&gt;Node8 -->
<g id="edge8" class="edge">
<title>Node6&#45;&gt;Node8</title>
<path fill="none" stroke="#191970" d="M246.3458,-112.2455C232.9973,-103.6534 213.3414,-91.0014 197.9617,-81.1018"/>
<polygon fill="#191970" stroke="#191970" points="199.7836,-78.1121 189.4806,-75.6427 195.9949,-83.9982 199.7836,-78.1121"/>
</g>
<!-- Node8&#45;&gt;Node4 -->
<g id="edge9" class="edge">
<title>Node8&#45;&gt;Node4</title>
<path fill="none" stroke="#191970" d="M153.6994,-56.3733C134.2757,-47.3838 105.0776,-33.8706 83.2036,-23.7471"/>
<polygon fill="#191970" stroke="#191970" points="84.5745,-20.5249 74.0292,-19.5011 81.6344,-26.8776 84.5745,-20.5249"/>
</g>
<!-- Node8&#45;&gt;Node9 -->
<g id="edge10" class="edge">
<title>Node8&#45;&gt;Node9</title>
<path fill="none" stroke="#191970" d="M174.6742,-56.2455C174.8047,-48.9382 174.9876,-38.6944 175.1481,-29.7046"/>
<polygon fill="#191970" stroke="#191970" points="178.6486,-29.7036 175.3278,-19.6427 171.6497,-29.5786 178.6486,-29.7036"/>
</g>
</g>
</svg>
