<?xml version="1.0" encoding="UTF-8" standalone="no"?>
<!DOCTYPE svg PUBLIC "-//W3C//DTD SVG 1.1//EN"
 "http://www.w3.org/Graphics/SVG/1.1/DTD/svg11.dtd">
<!-- Generated by graphviz version 2.40.1 (20161225.0304)
 -->
<!-- Title: packet_io.h Pages: 1 -->
<svg width="868pt" height="812pt"
 viewBox="0.00 0.00 867.50 812.00" xmlns="http://www.w3.org/2000/svg" xmlns:xlink="http://www.w3.org/1999/xlink">
<g id="graph0" class="graph" transform="scale(1 1) rotate(0) translate(4 808)">
<title>packet_io.h</title>
<polygon fill="#ffffff" stroke="transparent" points="-4,4 -4,-808 863.5,-808 863.5,4 -4,4"/>
<!-- Node10 -->
<g id="node1" class="node">
<title>Node10</title>
<polygon fill="#bfbfbf" stroke="#000000" points="255,-784.5 255,-803.5 322,-803.5 322,-784.5 255,-784.5"/>
<text text-anchor="middle" x="288.5" y="-791.5" font-family="Helvetica,sans-Serif" font-size="10.00" fill="#000000">packet_io.h</text>
</g>
<!-- Node11 -->
<g id="node2" class="node">
<title>Node11</title>
<g id="a_node2"><a xlink:href="arch_2arm32-linux_2odp_2api_2abi_2packet__io_8h_source.html" target="_top" xlink:title="packet_io.h">
<polygon fill="#ffffff" stroke="#000000" points="0,-728.5 0,-747.5 67,-747.5 67,-728.5 0,-728.5"/>
<text text-anchor="middle" x="33.5" y="-735.5" font-family="Helvetica,sans-Serif" font-size="10.00" fill="#000000">packet_io.h</text>
</a>
</g>
</g>
<!-- Node10&#45;&gt;Node11 -->
<g id="edge1" class="edge">
<title>Node10&#45;&gt;Node11</title>
<path fill="none" stroke="#191970" d="M245.0126,-784.8882C201.9243,-775.7941 134.0757,-761.2968 75.5,-748 72.8686,-747.4027 70.1467,-746.7756 67.4118,-746.1389"/>
<polygon fill="#191970" stroke="#191970" points="244.3738,-788.3304 254.8806,-786.9678 245.8173,-781.4808 244.3738,-788.3304"/>
</g>
<!-- Node12 -->
<g id="node3" class="node">
<title>Node12</title>
<g id="a_node3"><a xlink:href="arch_2arm64-linux_2odp_2api_2abi_2packet__io_8h_source.html" target="_top" xlink:title="packet_io.h">
<polygon fill="#ffffff" stroke="#000000" points="85,-728.5 85,-747.5 152,-747.5 152,-728.5 85,-728.5"/>
<text text-anchor="middle" x="118.5" y="-735.5" font-family="Helvetica,sans-Serif" font-size="10.00" fill="#000000">packet_io.h</text>
</a>
</g>
</g>
<!-- Node10&#45;&gt;Node12 -->
<g id="edge2" class="edge">
<title>Node10&#45;&gt;Node12</title>
<path fill="none" stroke="#191970" d="M249.614,-781.1905C218.4688,-770.9309 175.4777,-756.7691 147.3427,-747.5011"/>
<polygon fill="#191970" stroke="#191970" points="248.6829,-784.5687 259.276,-784.3733 250.8731,-777.9202 248.6829,-784.5687"/>
</g>
<!-- Node13 -->
<g id="node4" class="node">
<title>Node13</title>
<g id="a_node4"><a xlink:href="arch_2default-linux_2odp_2api_2abi_2packet__io_8h_source.html" target="_top" xlink:title="packet_io.h">
<polygon fill="#ffffff" stroke="#000000" points="170,-728.5 170,-747.5 237,-747.5 237,-728.5 170,-728.5"/>
<text text-anchor="middle" x="203.5" y="-735.5" font-family="Helvetica,sans-Serif" font-size="10.00" fill="#000000">packet_io.h</text>
</a>
</g>
</g>
<!-- Node10&#45;&gt;Node13 -->
<g id="edge3" class="edge">
<title>Node10&#45;&gt;Node13</title>
<path fill="none" stroke="#191970" d="M264.9581,-778.49C249.961,-768.6096 231.0027,-756.1194 218.1362,-747.6427"/>
<polygon fill="#191970" stroke="#191970" points="263.4179,-781.6666 273.6941,-784.2455 267.2691,-775.8212 263.4179,-781.6666"/>
</g>
<!-- Node14 -->
<g id="node5" class="node">
<title>Node14</title>
<g id="a_node5"><a xlink:href="arch_2mips64-linux_2odp_2api_2abi_2packet__io_8h_source.html" target="_top" xlink:title="packet_io.h">
<polygon fill="#ffffff" stroke="#000000" points="255,-728.5 255,-747.5 322,-747.5 322,-728.5 255,-728.5"/>
<text text-anchor="middle" x="288.5" y="-735.5" font-family="Helvetica,sans-Serif" font-size="10.00" fill="#000000">packet_io.h</text>
</a>
</g>
</g>
<!-- Node10&#45;&gt;Node14 -->
<g id="edge4" class="edge">
<title>Node10&#45;&gt;Node14</title>
<path fill="none" stroke="#191970" d="M288.5,-774.1575C288.5,-765.155 288.5,-754.9199 288.5,-747.6427"/>
<polygon fill="#191970" stroke="#191970" points="285.0001,-774.2455 288.5,-784.2455 292.0001,-774.2456 285.0001,-774.2455"/>
</g>
<!-- Node15 -->
<g id="node6" class="node">
<title>Node15</title>
<g id="a_node6"><a xlink:href="arch_2power64-linux_2odp_2api_2abi_2packet__io_8h_source.html" target="_top" xlink:title="packet_io.h">
<polygon fill="#ffffff" stroke="#000000" points="340,-728.5 340,-747.5 407,-747.5 407,-728.5 340,-728.5"/>
<text text-anchor="middle" x="373.5" y="-735.5" font-family="Helvetica,sans-Serif" font-size="10.00" fill="#000000">packet_io.h</text>
</a>
</g>
</g>
<!-- Node10&#45;&gt;Node15 -->
<g id="edge5" class="edge">
<title>Node10&#45;&gt;Node15</title>
<path fill="none" stroke="#191970" d="M312.0419,-778.49C327.039,-768.6096 345.9973,-756.1194 358.8638,-747.6427"/>
<polygon fill="#191970" stroke="#191970" points="309.7309,-775.8212 303.3059,-784.2455 313.5821,-781.6666 309.7309,-775.8212"/>
</g>
<!-- Node16 -->
<g id="node7" class="node">
<title>Node16</title>
<g id="a_node7"><a xlink:href="arch_2x86__32-linux_2odp_2api_2abi_2packet__io_8h_source.html" target="_top" xlink:title="packet_io.h">
<polygon fill="#ffffff" stroke="#000000" points="425,-728.5 425,-747.5 492,-747.5 492,-728.5 425,-728.5"/>
<text text-anchor="middle" x="458.5" y="-735.5" font-family="Helvetica,sans-Serif" font-size="10.00" fill="#000000">packet_io.h</text>
</a>
</g>
</g>
<!-- Node10&#45;&gt;Node16 -->
<g id="edge6" class="edge">
<title>Node10&#45;&gt;Node16</title>
<path fill="none" stroke="#191970" d="M327.386,-781.1905C358.5312,-770.9309 401.5223,-756.7691 429.6573,-747.5011"/>
<polygon fill="#191970" stroke="#191970" points="326.1269,-777.9202 317.724,-784.3733 328.3171,-784.5687 326.1269,-777.9202"/>
</g>
<!-- Node17 -->
<g id="node8" class="node">
<title>Node17</title>
<g id="a_node8"><a xlink:href="arch_2x86__64-linux_2odp_2api_2abi_2packet__io_8h_source.html" target="_top" xlink:title="packet_io.h">
<polygon fill="#ffffff" stroke="#000000" points="510,-728.5 510,-747.5 577,-747.5 577,-728.5 510,-728.5"/>
<text text-anchor="middle" x="543.5" y="-735.5" font-family="Helvetica,sans-Serif" font-size="10.00" fill="#000000">packet_io.h</text>
</a>
</g>
</g>
<!-- Node10&#45;&gt;Node17 -->
<g id="edge7" class="edge">
<title>Node10&#45;&gt;Node17</title>
<path fill="none" stroke="#191970" d="M331.9874,-784.8882C375.0757,-775.7941 442.9243,-761.2968 501.5,-748 504.1314,-747.4027 506.8533,-746.7756 509.5882,-746.1389"/>
<polygon fill="#191970" stroke="#191970" points="331.1827,-781.4808 322.1194,-786.9678 332.6262,-788.3304 331.1827,-781.4808"/>
</g>
<!-- Node18 -->
<g id="node9" class="node">
<title>Node18</title>
<g id="a_node9"><a xlink:href="api_2classification_8h.html" target="_top" xlink:title="ODP classification descriptor. ">
<polygon fill="#ffffff" stroke="#000000" points="343.5,-224.5 343.5,-243.5 425.5,-243.5 425.5,-224.5 343.5,-224.5"/>
<text text-anchor="middle" x="384.5" y="-231.5" font-family="Helvetica,sans-Serif" font-size="10.00" fill="#000000">classification.h</text>
</a>
</g>
</g>
<!-- Node17&#45;&gt;Node18 -->
<g id="edge8" class="edge">
<title>Node17&#45;&gt;Node18</title>
<path fill="none" stroke="#191970" d="M499.9139,-727.1964C401.6801,-702.547 171.5,-642.9775 171.5,-626 171.5,-626 171.5,-626 171.5,-346 171.5,-269.1253 281.5361,-244.8986 343.4315,-237.352"/>
<polygon fill="#191970" stroke="#191970" points="499.2808,-730.6459 509.8314,-729.6788 500.9805,-723.8553 499.2808,-730.6459"/>
</g>
<!-- Node23 -->
<g id="node14" class="node">
<title>Node23</title>
<g id="a_node14"><a xlink:href="api_2packet_8h.html" target="_top" xlink:title="ODP packet descriptor. ">
<polygon fill="#ffffff" stroke="#000000" points="516.5,-672.5 516.5,-691.5 570.5,-691.5 570.5,-672.5 516.5,-672.5"/>
<text text-anchor="middle" x="543.5" y="-679.5" font-family="Helvetica,sans-Serif" font-size="10.00" fill="#000000">packet.h</text>
</a>
</g>
</g>
<!-- Node17&#45;&gt;Node23 -->
<g id="edge14" class="edge">
<title>Node17&#45;&gt;Node23</title>
<path fill="none" stroke="#191970" d="M543.5,-718.1575C543.5,-709.155 543.5,-698.9199 543.5,-691.6427"/>
<polygon fill="#191970" stroke="#191970" points="540.0001,-718.2455 543.5,-728.2455 547.0001,-718.2456 540.0001,-718.2455"/>
</g>
<!-- Node33 -->
<g id="node24" class="node">
<title>Node33</title>
<g id="a_node24"><a xlink:href="api_2packet__io_8h.html" target="_top" xlink:title="ODP Packet IO. ">
<polygon fill="#ffffff" stroke="#000000" points="525,-336.5 525,-355.5 592,-355.5 592,-336.5 525,-336.5"/>
<text text-anchor="middle" x="558.5" y="-343.5" font-family="Helvetica,sans-Serif" font-size="10.00" fill="#000000">packet_io.h</text>
</a>
</g>
</g>
<!-- Node17&#45;&gt;Node33 -->
<g id="edge48" class="edge">
<title>Node17&#45;&gt;Node33</title>
<path fill="none" stroke="#191970" d="M587.0782,-731.8826C673.7531,-718.4882 859.5,-683.12 859.5,-626 859.5,-626 859.5,-626 859.5,-514 859.5,-445.2776 822.5627,-428.7626 764.5,-392 736.171,-374.0634 643.0773,-358.2645 592.2883,-350.7126"/>
<polygon fill="#191970" stroke="#191970" points="586.381,-728.4483 577.0184,-733.4072 587.4299,-735.3692 586.381,-728.4483"/>
</g>
<!-- Node19 -->
<g id="node10" class="node">
<title>Node19</title>
<g id="a_node10"><a xlink:href="api_2spec_2ipsec_8h.html" target="_top" xlink:title="ODP IPSEC API. ">
<polygon fill="#ffffff" stroke="#000000" points="467.5,-168.5 467.5,-187.5 515.5,-187.5 515.5,-168.5 467.5,-168.5"/>
<text text-anchor="middle" x="491.5" y="-175.5" font-family="Helvetica,sans-Serif" font-size="10.00" fill="#000000">ipsec.h</text>
</a>
</g>
</g>
<!-- Node18&#45;&gt;Node19 -->
<g id="edge9" class="edge">
<title>Node18&#45;&gt;Node19</title>
<path fill="none" stroke="#191970" d="M412.0199,-219.5971C431.2017,-209.558 456.2678,-196.4393 473.0756,-187.6427"/>
<polygon fill="#191970" stroke="#191970" points="410.375,-216.5075 403.138,-224.2455 413.6209,-222.7095 410.375,-216.5075"/>
</g>
<!-- Node21 -->
<g id="node12" class="node">
<title>Node21</title>
<g id="a_node12"><a xlink:href="odp__api_8h.html" target="_top" xlink:title="The OpenDataPlane API. ">
<polygon fill="#ffffff" stroke="#000000" points="529,-56.5 529,-75.5 588,-75.5 588,-56.5 529,-56.5"/>
<text text-anchor="middle" x="558.5" y="-63.5" font-family="Helvetica,sans-Serif" font-size="10.00" fill="#000000">odp_api.h</text>
</a>
</g>
</g>
<!-- Node18&#45;&gt;Node21 -->
<g id="edge13" class="edge">
<title>Node18&#45;&gt;Node21</title>
<path fill="none" stroke="#191970" d="M393.1363,-215.0097C405.8054,-188.9129 431.6435,-141.8152 465.5,-112 484.4256,-95.3334 510.4651,-83.1386 530.1775,-75.5091"/>
<polygon fill="#191970" stroke="#191970" points="389.9007,-213.6651 388.7993,-224.2026 396.2316,-216.652 389.9007,-213.6651"/>
</g>
<!-- Node20 -->
<g id="node11" class="node">
<title>Node20</title>
<g id="a_node11"><a xlink:href="api_2ipsec_8h.html" target="_top" xlink:title="ODP IPSEC API &#45; platform specific header. ">
<polygon fill="#ffffff" stroke="#000000" points="474.5,-112.5 474.5,-131.5 522.5,-131.5 522.5,-112.5 474.5,-112.5"/>
<text text-anchor="middle" x="498.5" y="-119.5" font-family="Helvetica,sans-Serif" font-size="10.00" fill="#000000">ipsec.h</text>
</a>
</g>
</g>
<!-- Node19&#45;&gt;Node20 -->
<g id="edge10" class="edge">
<title>Node19&#45;&gt;Node20</title>
<path fill="none" stroke="#191970" d="M493.9803,-158.1575C495.1056,-149.155 496.385,-138.9199 497.2947,-131.6427"/>
<polygon fill="#191970" stroke="#191970" points="490.4868,-157.8886 492.7193,-168.2455 497.4327,-158.7569 490.4868,-157.8886"/>
</g>
<!-- Node20&#45;&gt;Node21 -->
<g id="edge11" class="edge">
<title>Node20&#45;&gt;Node21</title>
<path fill="none" stroke="#191970" d="M516.3278,-105.3607C526.7078,-95.6727 539.4291,-83.7995 548.1686,-75.6427"/>
<polygon fill="#191970" stroke="#191970" points="513.8737,-102.8636 508.9512,-112.2455 518.6499,-107.981 513.8737,-102.8636"/>
</g>
<!-- Node22 -->
<g id="node13" class="node">
<title>Node22</title>
<g id="a_node13"><a xlink:href="odp_8h.html" target="_top" xlink:title="WARNING: THIS FILE IS DEPRECATED AND WILL BE REMOVED!!! ODP APPLICATIONS SHOULD NOW INCLUDE odp_api...">
<polygon fill="#ffffff" stroke="#000000" points="538,-.5 538,-19.5 579,-19.5 579,-.5 538,-.5"/>
<text text-anchor="middle" x="558.5" y="-7.5" font-family="Helvetica,sans-Serif" font-size="10.00" fill="#000000">odp.h</text>
</a>
</g>
</g>
<!-- Node21&#45;&gt;Node22 -->
<g id="edge12" class="edge">
<title>Node21&#45;&gt;Node22</title>
<path fill="none" stroke="#191970" d="M558.5,-46.1575C558.5,-37.155 558.5,-26.9199 558.5,-19.6427"/>
<polygon fill="#191970" stroke="#191970" points="555.0001,-46.2455 558.5,-56.2455 562.0001,-46.2456 555.0001,-46.2455"/>
</g>
<!-- Node23&#45;&gt;Node21 -->
<g id="edge47" class="edge">
<title>Node23&#45;&gt;Node21</title>
<path fill="none" stroke="#191970" d="M580.7342,-675.1136C656.5004,-660.0363 821.5,-621.3112 821.5,-570 821.5,-570 821.5,-570 821.5,-514 821.5,-437.4471 859.5,-422.5529 859.5,-346 859.5,-346 859.5,-346 859.5,-178 859.5,-129.1111 815.977,-132.2958 771.5,-112 710.0645,-83.9657 630.7465,-72.6618 588.3524,-68.387"/>
<polygon fill="#191970" stroke="#191970" points="579.8045,-671.729 570.662,-677.083 581.1478,-678.5989 579.8045,-671.729"/>
</g>
<!-- Node24 -->
<g id="node15" class="node">
<title>Node24</title>
<g id="a_node15"><a xlink:href="api_2spec_2comp_8h.html" target="_top" xlink:title="ODP Compression. ">
<polygon fill="#ffffff" stroke="#000000" points="239,-616.5 239,-635.5 288,-635.5 288,-616.5 239,-616.5"/>
<text text-anchor="middle" x="263.5" y="-623.5" font-family="Helvetica,sans-Serif" font-size="10.00" fill="#000000">comp.h</text>
</a>
</g>
</g>
<!-- Node23&#45;&gt;Node24 -->
<g id="edge15" class="edge">
<title>Node23&#45;&gt;Node24</title>
<path fill="none" stroke="#191970" d="M506.5408,-674.6082C448.5006,-663.0001 337.5242,-640.8048 288.1927,-630.9385"/>
<polygon fill="#191970" stroke="#191970" points="505.9058,-678.0504 516.398,-676.5796 507.2786,-671.1863 505.9058,-678.0504"/>
</g>
<!-- Node26 -->
<g id="node17" class="node">
<title>Node26</title>
<g id="a_node17"><a xlink:href="api_2spec_2crypto_8h.html" target="_top" xlink:title="ODP crypto. ">
<polygon fill="#ffffff" stroke="#000000" points="467.5,-448.5 467.5,-467.5 519.5,-467.5 519.5,-448.5 467.5,-448.5"/>
<text text-anchor="middle" x="493.5" y="-455.5" font-family="Helvetica,sans-Serif" font-size="10.00" fill="#000000">crypto.h</text>
</a>
</g>
</g>
<!-- Node23&#45;&gt;Node26 -->
<g id="edge18" class="edge">
<title>Node23&#45;&gt;Node26</title>
<path fill="none" stroke="#191970" d="M539.1277,-662.4119C528.8026,-616.1557 503.2085,-501.494 495.6404,-467.5891"/>
<polygon fill="#191970" stroke="#191970" points="535.757,-663.3777 541.3516,-672.375 542.5889,-661.8527 535.757,-663.3777"/>
</g>
<!-- Node28 -->
<g id="node19" class="node">
<title>Node28</title>
<g id="a_node19"><a xlink:href="api_2spec_2event_8h.html" target="_top" xlink:title="ODP event. ">
<polygon fill="#ffffff" stroke="#000000" points="626,-616.5 626,-635.5 675,-635.5 675,-616.5 626,-616.5"/>
<text text-anchor="middle" x="650.5" y="-623.5" font-family="Helvetica,sans-Serif" font-size="10.00" fill="#000000">event.h</text>
</a>
</g>
</g>
<!-- Node23&#45;&gt;Node28 -->
<g id="edge22" class="edge">
<title>Node23&#45;&gt;Node28</title>
<path fill="none" stroke="#191970" d="M571.0199,-667.5971C590.2017,-657.558 615.2678,-644.4393 632.0756,-635.6427"/>
<polygon fill="#191970" stroke="#191970" points="569.375,-664.5075 562.138,-672.2455 572.6209,-670.7095 569.375,-664.5075"/>
</g>
<!-- Node32 -->
<g id="node23" class="node">
<title>Node32</title>
<g id="a_node23"><a xlink:href="api_2spec_2packet__io_8h.html" target="_top" xlink:title="ODP Packet IO. ">
<polygon fill="#ffffff" stroke="#000000" points="525,-392.5 525,-411.5 592,-411.5 592,-392.5 525,-392.5"/>
<text text-anchor="middle" x="558.5" y="-399.5" font-family="Helvetica,sans-Serif" font-size="10.00" fill="#000000">packet_io.h</text>
</a>
</g>
</g>
<!-- Node23&#45;&gt;Node32 -->
<g id="edge46" class="edge">
<title>Node23&#45;&gt;Node32</title>
<path fill="none" stroke="#191970" d="M546.8544,-662.5699C550.4046,-640.2865 555.5,-602.6222 555.5,-570 555.5,-570 555.5,-570 555.5,-514 555.5,-476.0697 557.2406,-430.9397 558.0702,-411.5861"/>
<polygon fill="#191970" stroke="#191970" points="543.3993,-662.0113 545.2193,-672.4486 550.3053,-663.1544 543.3993,-662.0113"/>
</g>
<!-- Node39 -->
<g id="node30" class="node">
<title>Node39</title>
<g id="a_node30"><a xlink:href="api_2spec_2packet__flags_8h.html" target="_top" xlink:title="ODP packet flags. ">
<polygon fill="#ffffff" stroke="#000000" points="325.5,-616.5 325.5,-635.5 405.5,-635.5 405.5,-616.5 325.5,-616.5"/>
<text text-anchor="middle" x="365.5" y="-623.5" font-family="Helvetica,sans-Serif" font-size="10.00" fill="#000000">packet_flags.h</text>
</a>
</g>
</g>
<!-- Node23&#45;&gt;Node39 -->
<g id="edge43" class="edge">
<title>Node23&#45;&gt;Node39</title>
<path fill="none" stroke="#191970" d="M506.7881,-670.4502C473.9723,-660.1261 426.4612,-645.1788 395.774,-635.5244"/>
<polygon fill="#191970" stroke="#191970" points="505.8762,-673.8324 516.4656,-673.4948 507.977,-667.155 505.8762,-673.8324"/>
</g>
<!-- Node25 -->
<g id="node16" class="node">
<title>Node25</title>
<g id="a_node16"><a xlink:href="api_2comp_8h.html" target="_top" xlink:title="ODP crypto. ">
<polygon fill="#ffffff" stroke="#000000" points="200,-504.5 200,-523.5 249,-523.5 249,-504.5 200,-504.5"/>
<text text-anchor="middle" x="224.5" y="-511.5" font-family="Helvetica,sans-Serif" font-size="10.00" fill="#000000">comp.h</text>
</a>
</g>
</g>
<!-- Node24&#45;&gt;Node25 -->
<g id="edge16" class="edge">
<title>Node24&#45;&gt;Node25</title>
<path fill="none" stroke="#191970" d="M256.8579,-606.9253C248.4322,-582.7284 234.2283,-541.9376 227.8167,-523.5249"/>
<polygon fill="#191970" stroke="#191970" points="253.581,-608.1581 260.1749,-616.4509 260.1917,-605.8561 253.581,-608.1581"/>
</g>
<!-- Node25&#45;&gt;Node21 -->
<g id="edge17" class="edge">
<title>Node25&#45;&gt;Node21</title>
<path fill="none" stroke="#191970" d="M220.307,-494.6077C215.8693,-472.359 209.5,-434.7261 209.5,-402 209.5,-402 209.5,-402 209.5,-178 209.5,-147.4754 205.441,-132.0009 228.5,-112 251.059,-92.4327 451.9448,-74.5022 528.7877,-68.2997"/>
<polygon fill="#191970" stroke="#191970" points="216.8942,-495.3877 222.3509,-504.4693 223.7485,-493.9671 216.8942,-495.3877"/>
</g>
<!-- Node27 -->
<g id="node18" class="node">
<title>Node27</title>
<g id="a_node18"><a xlink:href="api_2crypto_8h.html" target="_top" xlink:title="ODP crypto. ">
<polygon fill="#ffffff" stroke="#000000" points="432.5,-336.5 432.5,-355.5 484.5,-355.5 484.5,-336.5 432.5,-336.5"/>
<text text-anchor="middle" x="458.5" y="-343.5" font-family="Helvetica,sans-Serif" font-size="10.00" fill="#000000">crypto.h</text>
</a>
</g>
</g>
<!-- Node26&#45;&gt;Node27 -->
<g id="edge19" class="edge">
<title>Node26&#45;&gt;Node27</title>
<path fill="none" stroke="#191970" d="M487.4371,-438.5987C479.8634,-414.363 467.2047,-373.8551 461.4765,-355.5249"/>
<polygon fill="#191970" stroke="#191970" points="484.1924,-439.9501 490.5159,-448.4509 490.8738,-437.8622 484.1924,-439.9501"/>
</g>
<!-- Node27&#45;&gt;Node19 -->
<g id="edge20" class="edge">
<title>Node27&#45;&gt;Node19</title>
<path fill="none" stroke="#191970" d="M460.6922,-326.3697C463.5973,-302.1274 469.3264,-259.717 477.5,-224 480.405,-211.3056 484.9683,-197.001 488.09,-187.7625"/>
<polygon fill="#191970" stroke="#191970" points="457.2018,-326.085 459.5259,-336.4218 464.1552,-326.8918 457.2018,-326.085"/>
</g>
<!-- Node27&#45;&gt;Node21 -->
<g id="edge21" class="edge">
<title>Node27&#45;&gt;Node21</title>
<path fill="none" stroke="#191970" d="M422.5393,-337.5073C389.7447,-328.9482 344.8677,-314.9042 334.5,-300 315.2112,-272.2713 321.7859,-255.2936 334.5,-224 360.645,-159.6484 385.7728,-150.6298 443.5,-112 470.1279,-94.1812 504.7167,-81.5216 528.9789,-74.0519"/>
<polygon fill="#191970" stroke="#191970" points="421.7234,-340.9112 432.2774,-339.9824 423.4477,-334.1269 421.7234,-340.9112"/>
</g>
<!-- Node29 -->
<g id="node20" class="node">
<title>Node29</title>
<g id="a_node20"><a xlink:href="api_2event_8h.html" target="_top" xlink:title="ODP event. ">
<polygon fill="#ffffff" stroke="#000000" points="668,-560.5 668,-579.5 717,-579.5 717,-560.5 668,-560.5"/>
<text text-anchor="middle" x="692.5" y="-567.5" font-family="Helvetica,sans-Serif" font-size="10.00" fill="#000000">event.h</text>
</a>
</g>
</g>
<!-- Node28&#45;&gt;Node29 -->
<g id="edge23" class="edge">
<title>Node28&#45;&gt;Node29</title>
<path fill="none" stroke="#191970" d="M663.8416,-608.2112C670.9396,-598.7472 679.3903,-587.4797 685.268,-579.6427"/>
<polygon fill="#191970" stroke="#191970" points="661.0159,-606.1455 657.8158,-616.2455 666.6159,-610.3455 661.0159,-606.1455"/>
</g>
<!-- Node29&#45;&gt;Node21 -->
<g id="edge42" class="edge">
<title>Node29&#45;&gt;Node21</title>
<path fill="none" stroke="#191970" d="M716.9312,-554.6245C743.8856,-535.5496 783.5,-500.3171 783.5,-458 783.5,-458 783.5,-458 783.5,-178 783.5,-91.822 649.5827,-71.9529 588.3783,-67.3722"/>
<polygon fill="#191970" stroke="#191970" points="714.6509,-551.9426 708.351,-560.4609 718.588,-557.7305 714.6509,-551.9426"/>
</g>
<!-- Node30 -->
<g id="node21" class="node">
<title>Node30</title>
<g id="a_node21"><a xlink:href="api_2spec_2queue_8h.html" target="_top" xlink:title="ODP queue. ">
<polygon fill="#ffffff" stroke="#000000" points="639,-504.5 639,-523.5 690,-523.5 690,-504.5 639,-504.5"/>
<text text-anchor="middle" x="664.5" y="-511.5" font-family="Helvetica,sans-Serif" font-size="10.00" fill="#000000">queue.h</text>
</a>
</g>
</g>
<!-- Node29&#45;&gt;Node30 -->
<g id="edge24" class="edge">
<title>Node29&#45;&gt;Node30</title>
<path fill="none" stroke="#191970" d="M683.0219,-551.0437C678.4165,-541.8331 673.0799,-531.1598 669.3213,-523.6427"/>
<polygon fill="#191970" stroke="#191970" points="680.0201,-552.8665 687.6228,-560.2455 686.2811,-549.736 680.0201,-552.8665"/>
</g>
<!-- Node37 -->
<g id="node28" class="node">
<title>Node37</title>
<g id="a_node28"><a xlink:href="api_2spec_2schedule_8h.html" target="_top" xlink:title="ODP schedule. ">
<polygon fill="#ffffff" stroke="#000000" points="691.5,-392.5 691.5,-411.5 755.5,-411.5 755.5,-392.5 691.5,-392.5"/>
<text text-anchor="middle" x="723.5" y="-399.5" font-family="Helvetica,sans-Serif" font-size="10.00" fill="#000000">schedule.h</text>
</a>
</g>
</g>
<!-- Node29&#45;&gt;Node37 -->
<g id="edge41" class="edge">
<title>Node29&#45;&gt;Node37</title>
<path fill="none" stroke="#191970" d="M696.1425,-550.2601C702.8025,-514.1669 716.7159,-438.7656 721.6865,-411.8279"/>
<polygon fill="#191970" stroke="#191970" points="692.6283,-550.0171 694.2555,-560.4862 699.5121,-551.2874 692.6283,-550.0171"/>
</g>
<!-- Node31 -->
<g id="node22" class="node">
<title>Node31</title>
<g id="a_node22"><a xlink:href="api_2queue_8h.html" target="_top" xlink:title="ODP queue. ">
<polygon fill="#ffffff" stroke="#000000" points="638,-448.5 638,-467.5 689,-467.5 689,-448.5 638,-448.5"/>
<text text-anchor="middle" x="663.5" y="-455.5" font-family="Helvetica,sans-Serif" font-size="10.00" fill="#000000">queue.h</text>
</a>
</g>
</g>
<!-- Node30&#45;&gt;Node31 -->
<g id="edge25" class="edge">
<title>Node30&#45;&gt;Node31</title>
<path fill="none" stroke="#191970" d="M664.1457,-494.1575C663.9849,-485.155 663.8021,-474.9199 663.6722,-467.6427"/>
<polygon fill="#191970" stroke="#191970" points="660.6477,-494.3097 664.3258,-504.2455 667.6466,-494.1846 660.6477,-494.3097"/>
</g>
<!-- Node31&#45;&gt;Node21 -->
<g id="edge40" class="edge">
<title>Node31&#45;&gt;Node21</title>
<path fill="none" stroke="#191970" d="M663.5,-438.1952C663.5,-415.8128 663.5,-378.2884 663.5,-346 663.5,-346 663.5,-346 663.5,-178 663.5,-128.6917 608.6656,-92.1593 578.2497,-75.688"/>
<polygon fill="#191970" stroke="#191970" points="660.0001,-438.4116 663.5,-448.4116 667.0001,-438.4117 660.0001,-438.4116"/>
</g>
<!-- Node31&#45;&gt;Node27 -->
<g id="edge26" class="edge">
<title>Node31&#45;&gt;Node27</title>
<path fill="none" stroke="#191970" d="M650.8276,-440.1197C639.4619,-425.2942 621.5258,-404.6651 601.5,-392 564.5811,-368.651 514.7551,-356.1636 484.7173,-350.3201"/>
<polygon fill="#191970" stroke="#191970" points="648.252,-442.523 657.0151,-448.4776 653.878,-438.3579 648.252,-442.523"/>
</g>
<!-- Node31&#45;&gt;Node32 -->
<g id="edge27" class="edge">
<title>Node31&#45;&gt;Node32</title>
<path fill="none" stroke="#191970" d="M636.2375,-443.46C617.4478,-433.4388 592.9987,-420.3993 576.58,-411.6427"/>
<polygon fill="#191970" stroke="#191970" points="634.7398,-446.6278 645.2104,-448.2455 638.0339,-440.4514 634.7398,-446.6278"/>
</g>
<!-- Node31&#45;&gt;Node37 -->
<g id="edge37" class="edge">
<title>Node31&#45;&gt;Node37</title>
<path fill="none" stroke="#191970" d="M681.3278,-441.3607C691.7078,-431.6727 704.4291,-419.7995 713.1686,-411.6427"/>
<polygon fill="#191970" stroke="#191970" points="678.8737,-438.8636 673.9512,-448.2455 683.6499,-443.981 678.8737,-438.8636"/>
</g>
<!-- Node32&#45;&gt;Node33 -->
<g id="edge28" class="edge">
<title>Node32&#45;&gt;Node33</title>
<path fill="none" stroke="#191970" d="M558.5,-382.1575C558.5,-373.155 558.5,-362.9199 558.5,-355.6427"/>
<polygon fill="#191970" stroke="#191970" points="555.0001,-382.2455 558.5,-392.2455 562.0001,-382.2456 555.0001,-382.2455"/>
</g>
<!-- Node33&#45;&gt;Node19 -->
<g id="edge31" class="edge">
<title>Node33&#45;&gt;Node19</title>
<path fill="none" stroke="#191970" d="M536.8143,-330C527.5615,-322.0197 517.5273,-311.5966 511.5,-300 491.8023,-262.1013 490.6431,-209.4031 491.1034,-187.8148"/>
<polygon fill="#191970" stroke="#191970" points="534.6576,-332.7574 544.6239,-336.3524 539.0747,-327.327 534.6576,-332.7574"/>
</g>
<!-- Node33&#45;&gt;Node21 -->
<g id="edge36" class="edge">
<title>Node33&#45;&gt;Node21</title>
<path fill="none" stroke="#191970" d="M579.6492,-330.0603C589.0689,-321.9818 599.5753,-311.4613 606.5,-300 622.285,-273.8736 625.5,-264.5246 625.5,-234 625.5,-234 625.5,-234 625.5,-178 625.5,-134.7231 588.2041,-93.678 569.2647,-75.6248"/>
<polygon fill="#191970" stroke="#191970" points="577.302,-327.4582 571.7685,-336.4932 581.7285,-332.881 577.302,-327.4582"/>
</g>
<!-- Node34 -->
<g id="node25" class="node">
<title>Node34</title>
<g id="a_node25"><a xlink:href="api_2spec_2classification_8h.html" target="_top" xlink:title="ODP classification descriptor. ">
<polygon fill="#ffffff" stroke="#000000" points="343.5,-280.5 343.5,-299.5 425.5,-299.5 425.5,-280.5 343.5,-280.5"/>
<text text-anchor="middle" x="384.5" y="-287.5" font-family="Helvetica,sans-Serif" font-size="10.00" fill="#000000">classification.h</text>
</a>
</g>
</g>
<!-- Node33&#45;&gt;Node34 -->
<g id="edge29" class="edge">
<title>Node33&#45;&gt;Node34</title>
<path fill="none" stroke="#191970" d="M518.699,-333.1905C486.821,-322.9309 442.8184,-308.7691 414.0213,-299.5011"/>
<polygon fill="#191970" stroke="#191970" points="517.9969,-336.6413 528.5883,-336.3733 520.1415,-329.9779 517.9969,-336.6413"/>
</g>
<!-- Node35 -->
<g id="node26" class="node">
<title>Node35</title>
<g id="a_node26"><a xlink:href="api_2spec_2traffic__mngr_8h.html" target="_top" xlink:title="Copyright (c) 2015&#45;2018, Linaro Limited All rights reserved. ">
<polygon fill="#ffffff" stroke="#000000" points="520,-280.5 520,-299.5 597,-299.5 597,-280.5 520,-280.5"/>
<text text-anchor="middle" x="558.5" y="-287.5" font-family="Helvetica,sans-Serif" font-size="10.00" fill="#000000">traffic_mngr.h</text>
</a>
</g>
</g>
<!-- Node33&#45;&gt;Node35 -->
<g id="edge32" class="edge">
<title>Node33&#45;&gt;Node35</title>
<path fill="none" stroke="#191970" d="M558.5,-326.1575C558.5,-317.155 558.5,-306.9199 558.5,-299.6427"/>
<polygon fill="#191970" stroke="#191970" points="555.0001,-326.2455 558.5,-336.2455 562.0001,-326.2456 555.0001,-326.2455"/>
</g>
<!-- Node34&#45;&gt;Node18 -->
<g id="edge30" class="edge">
<title>Node34&#45;&gt;Node18</title>
<path fill="none" stroke="#191970" d="M384.5,-270.1575C384.5,-261.155 384.5,-250.9199 384.5,-243.6427"/>
<polygon fill="#191970" stroke="#191970" points="381.0001,-270.2455 384.5,-280.2455 388.0001,-270.2456 381.0001,-270.2455"/>
</g>
<!-- Node36 -->
<g id="node27" class="node">
<title>Node36</title>
<g id="a_node27"><a xlink:href="api_2traffic__mngr_8h.html" target="_top" xlink:title="ODP Traffic manager. ">
<polygon fill="#ffffff" stroke="#000000" points="520,-224.5 520,-243.5 597,-243.5 597,-224.5 520,-224.5"/>
<text text-anchor="middle" x="558.5" y="-231.5" font-family="Helvetica,sans-Serif" font-size="10.00" fill="#000000">traffic_mngr.h</text>
</a>
</g>
</g>
<!-- Node35&#45;&gt;Node36 -->
<g id="edge33" class="edge">
<title>Node35&#45;&gt;Node36</title>
<path fill="none" stroke="#191970" d="M558.5,-270.1575C558.5,-261.155 558.5,-250.9199 558.5,-243.6427"/>
<polygon fill="#191970" stroke="#191970" points="555.0001,-270.2455 558.5,-280.2455 562.0001,-270.2456 555.0001,-270.2455"/>
</g>
<!-- Node36&#45;&gt;Node19 -->
<g id="edge34" class="edge">
<title>Node36&#45;&gt;Node19</title>
<path fill="none" stroke="#191970" d="M538.9324,-217.645C527.2802,-207.9058 512.8916,-195.8795 503.0368,-187.6427"/>
<polygon fill="#191970" stroke="#191970" points="536.9121,-220.5179 546.8295,-224.2455 541.4012,-215.1469 536.9121,-220.5179"/>
</g>
<!-- Node36&#45;&gt;Node21 -->
<g id="edge35" class="edge">
<title>Node36&#45;&gt;Node21</title>
<path fill="none" stroke="#191970" d="M558.5,-214.2601C558.5,-178.1669 558.5,-102.7656 558.5,-75.8279"/>
<polygon fill="#191970" stroke="#191970" points="555.0001,-214.4862 558.5,-224.4862 562.0001,-214.4863 555.0001,-214.4862"/>
</g>
<!-- Node38 -->
<g id="node29" class="node">
<title>Node38</title>
<g id="a_node29"><a xlink:href="api_2schedule_8h.html" target="_top" xlink:title="ODP schedule. ">
<polygon fill="#ffffff" stroke="#000000" points="691.5,-168.5 691.5,-187.5 755.5,-187.5 755.5,-168.5 691.5,-168.5"/>
<text text-anchor="middle" x="723.5" y="-175.5" font-family="Helvetica,sans-Serif" font-size="10.00" fill="#000000">schedule.h</text>
</a>
</g>
</g>
<!-- Node37&#45;&gt;Node38 -->
<g id="edge38" class="edge">
<title>Node37&#45;&gt;Node38</title>
<path fill="none" stroke="#191970" d="M723.5,-382.1177C723.5,-335.6713 723.5,-221.4223 723.5,-187.5891"/>
<polygon fill="#191970" stroke="#191970" points="720.0001,-382.375 723.5,-392.375 727.0001,-382.375 720.0001,-382.375"/>
</g>
<!-- Node38&#45;&gt;Node21 -->
<g id="edge39" class="edge">
<title>Node38&#45;&gt;Node21</title>
<path fill="none" stroke="#191970" d="M714.2451,-158.9638C706.29,-144.3544 693.5678,-124.6121 677.5,-112 650.9296,-91.1441 613.7867,-78.8124 588.0963,-72.25"/>
<polygon fill="#191970" stroke="#191970" points="711.271,-160.8324 718.9734,-168.1073 717.4888,-157.617 711.271,-160.8324"/>
</g>
<!-- Node40 -->
<g id="node31" class="node">
<title>Node40</title>
<g id="a_node31"><a xlink:href="api_2packet__flags_8h.html" target="_top" xlink:title="ODP packet flags. ">
<polygon fill="#ffffff" stroke="#000000" points="237.5,-112.5 237.5,-131.5 317.5,-131.5 317.5,-112.5 237.5,-112.5"/>
<text text-anchor="middle" x="277.5" y="-119.5" font-family="Helvetica,sans-Serif" font-size="10.00" fill="#000000">packet_flags.h</text>
</a>
</g>
</g>
<!-- Node39&#45;&gt;Node40 -->
<g id="edge44" class="edge">
<title>Node39&#45;&gt;Node40</title>
<path fill="none" stroke="#191970" d="M341.8742,-610.4338C315.8084,-591.1759 277.5,-555.7679 277.5,-514 277.5,-514 277.5,-514 277.5,-234 277.5,-196.0833 277.5,-150.9462 277.5,-131.5884"/>
<polygon fill="#191970" stroke="#191970" points="339.993,-613.3908 350.1716,-616.3315 344.0485,-607.6852 339.993,-613.3908"/>
</g>
<!-- Node40&#45;&gt;Node21 -->
<g id="edge45" class="edge">
<title>Node40&#45;&gt;Node21</title>
<path fill="none" stroke="#191970" d="M327.8813,-111.9596C386.3304,-100.3114 480.78,-81.4887 528.6443,-71.9499"/>
<polygon fill="#191970" stroke="#191970" points="326.8835,-108.5895 317.7604,-113.9766 328.2517,-115.4545 326.8835,-108.5895"/>
</g>
</g>
</svg>
