<?xml version="1.0" encoding="UTF-8" standalone="no"?>
<!DOCTYPE svg PUBLIC "-//W3C//DTD SVG 1.1//EN"
 "http://www.w3.org/Graphics/SVG/1.1/DTD/svg11.dtd">
<!-- Generated by graphviz version 2.40.1 (20161225.0304)
 -->
<!-- Title: thread.h Pages: 1 -->
<svg width="1052pt" height="476pt"
 viewBox="0.00 0.00 1051.50 476.00" xmlns="http://www.w3.org/2000/svg" xmlns:xlink="http://www.w3.org/1999/xlink">
<g id="graph0" class="graph" transform="scale(1 1) rotate(0) translate(4 472)">
<title>thread.h</title>
<polygon fill="#ffffff" stroke="transparent" points="-4,4 -4,-472 1047.5,-472 1047.5,4 -4,4"/>
<!-- Node1 -->
<g id="node1" class="node">
<title>Node1</title>
<polygon fill="#bfbfbf" stroke="#000000" points="610,-448.5 610,-467.5 662,-467.5 662,-448.5 610,-448.5"/>
<text text-anchor="middle" x="636" y="-455.5" font-family="Helvetica,sans-Serif" font-size="10.00" fill="#000000">thread.h</text>
</g>
<!-- Node2 -->
<g id="node2" class="node">
<title>Node2</title>
<g id="a_node2"><a xlink:href="arch_2arm32-linux_2odp_2api_2abi_2thread_8h_source.html" target="_top" xlink:title="thread.h">
<polygon fill="#ffffff" stroke="#000000" points="400,-392.5 400,-411.5 452,-411.5 452,-392.5 400,-392.5"/>
<text text-anchor="middle" x="426" y="-399.5" font-family="Helvetica,sans-Serif" font-size="10.00" fill="#000000">thread.h</text>
</a>
</g>
</g>
<!-- Node1&#45;&gt;Node2 -->
<g id="edge1" class="edge">
<title>Node1&#45;&gt;Node2</title>
<path fill="none" stroke="#191970" d="M599.9891,-448.7728C564.5667,-439.6403 508.9779,-425.1581 461,-412 458.1965,-411.2311 455.2705,-410.4157 452.3565,-409.5953"/>
<polygon fill="#191970" stroke="#191970" points="599.3059,-452.211 609.8627,-451.3145 601.051,-445.432 599.3059,-452.211"/>
</g>
<!-- Node3 -->
<g id="node3" class="node">
<title>Node3</title>
<g id="a_node3"><a xlink:href="arch_2arm64-linux_2odp_2api_2abi_2thread_8h_source.html" target="_top" xlink:title="thread.h">
<polygon fill="#ffffff" stroke="#000000" points="470,-392.5 470,-411.5 522,-411.5 522,-392.5 470,-392.5"/>
<text text-anchor="middle" x="496" y="-399.5" font-family="Helvetica,sans-Serif" font-size="10.00" fill="#000000">thread.h</text>
</a>
</g>
</g>
<!-- Node1&#45;&gt;Node3 -->
<g id="edge2" class="edge">
<title>Node1&#45;&gt;Node3</title>
<path fill="none" stroke="#191970" d="M602.6351,-444.6541C577.1048,-434.4419 542.5216,-420.6086 519.7528,-411.5011"/>
<polygon fill="#191970" stroke="#191970" points="601.3485,-447.909 611.9331,-448.3733 603.9483,-441.4096 601.3485,-447.909"/>
</g>
<!-- Node4 -->
<g id="node4" class="node">
<title>Node4</title>
<g id="a_node4"><a xlink:href="arch_2default-linux_2odp_2api_2abi_2thread_8h_source.html" target="_top" xlink:title="thread.h">
<polygon fill="#ffffff" stroke="#000000" points="540,-392.5 540,-411.5 592,-411.5 592,-392.5 540,-392.5"/>
<text text-anchor="middle" x="566" y="-399.5" font-family="Helvetica,sans-Serif" font-size="10.00" fill="#000000">thread.h</text>
</a>
</g>
</g>
<!-- Node1&#45;&gt;Node4 -->
<g id="edge3" class="edge">
<title>Node1&#45;&gt;Node4</title>
<path fill="none" stroke="#191970" d="M615.91,-441.928C603.6747,-432.1397 588.4493,-419.9595 578.0533,-411.6427"/>
<polygon fill="#191970" stroke="#191970" points="613.8118,-444.7316 623.8069,-448.2455 618.1847,-439.2655 613.8118,-444.7316"/>
</g>
<!-- Node5 -->
<g id="node5" class="node">
<title>Node5</title>
<g id="a_node5"><a xlink:href="arch_2mips64-linux_2odp_2api_2abi_2thread_8h_source.html" target="_top" xlink:title="thread.h">
<polygon fill="#ffffff" stroke="#000000" points="610,-392.5 610,-411.5 662,-411.5 662,-392.5 610,-392.5"/>
<text text-anchor="middle" x="636" y="-399.5" font-family="Helvetica,sans-Serif" font-size="10.00" fill="#000000">thread.h</text>
</a>
</g>
</g>
<!-- Node1&#45;&gt;Node5 -->
<g id="edge4" class="edge">
<title>Node1&#45;&gt;Node5</title>
<path fill="none" stroke="#191970" d="M636,-438.1575C636,-429.155 636,-418.9199 636,-411.6427"/>
<polygon fill="#191970" stroke="#191970" points="632.5001,-438.2455 636,-448.2455 639.5001,-438.2456 632.5001,-438.2455"/>
</g>
<!-- Node6 -->
<g id="node6" class="node">
<title>Node6</title>
<g id="a_node6"><a xlink:href="arch_2power64-linux_2odp_2api_2abi_2thread_8h_source.html" target="_top" xlink:title="thread.h">
<polygon fill="#ffffff" stroke="#000000" points="680,-392.5 680,-411.5 732,-411.5 732,-392.5 680,-392.5"/>
<text text-anchor="middle" x="706" y="-399.5" font-family="Helvetica,sans-Serif" font-size="10.00" fill="#000000">thread.h</text>
</a>
</g>
</g>
<!-- Node1&#45;&gt;Node6 -->
<g id="edge5" class="edge">
<title>Node1&#45;&gt;Node6</title>
<path fill="none" stroke="#191970" d="M656.09,-441.928C668.3253,-432.1397 683.5507,-419.9595 693.9467,-411.6427"/>
<polygon fill="#191970" stroke="#191970" points="653.8153,-439.2655 648.1931,-448.2455 658.1882,-444.7316 653.8153,-439.2655"/>
</g>
<!-- Node7 -->
<g id="node7" class="node">
<title>Node7</title>
<g id="a_node7"><a xlink:href="arch_2x86__32-linux_2odp_2api_2abi_2thread_8h_source.html" target="_top" xlink:title="thread.h">
<polygon fill="#ffffff" stroke="#000000" points="750,-392.5 750,-411.5 802,-411.5 802,-392.5 750,-392.5"/>
<text text-anchor="middle" x="776" y="-399.5" font-family="Helvetica,sans-Serif" font-size="10.00" fill="#000000">thread.h</text>
</a>
</g>
</g>
<!-- Node1&#45;&gt;Node7 -->
<g id="edge6" class="edge">
<title>Node1&#45;&gt;Node7</title>
<path fill="none" stroke="#191970" d="M669.3649,-444.6541C694.8952,-434.4419 729.4784,-420.6086 752.2472,-411.5011"/>
<polygon fill="#191970" stroke="#191970" points="668.0517,-441.4096 660.0669,-448.3733 670.6515,-447.909 668.0517,-441.4096"/>
</g>
<!-- Node8 -->
<g id="node8" class="node">
<title>Node8</title>
<g id="a_node8"><a xlink:href="arch_2x86__64-linux_2odp_2api_2abi_2thread_8h_source.html" target="_top" xlink:title="thread.h">
<polygon fill="#ffffff" stroke="#000000" points="820,-392.5 820,-411.5 872,-411.5 872,-392.5 820,-392.5"/>
<text text-anchor="middle" x="846" y="-399.5" font-family="Helvetica,sans-Serif" font-size="10.00" fill="#000000">thread.h</text>
</a>
</g>
</g>
<!-- Node1&#45;&gt;Node8 -->
<g id="edge7" class="edge">
<title>Node1&#45;&gt;Node8</title>
<path fill="none" stroke="#191970" d="M672.0109,-448.7728C707.4333,-439.6403 763.0221,-425.1581 811,-412 813.8035,-411.2311 816.7295,-410.4157 819.6435,-409.5953"/>
<polygon fill="#191970" stroke="#191970" points="670.949,-445.432 662.1373,-451.3145 672.6941,-452.211 670.949,-445.432"/>
</g>
<!-- Node9 -->
<g id="node9" class="node">
<title>Node9</title>
<g id="a_node9"><a xlink:href="api_2thread_8h.html" target="_top" xlink:title="ODP thread API. ">
<polygon fill="#ffffff" stroke="#000000" points="820,-336.5 820,-355.5 872,-355.5 872,-336.5 820,-336.5"/>
<text text-anchor="middle" x="846" y="-343.5" font-family="Helvetica,sans-Serif" font-size="10.00" fill="#000000">thread.h</text>
</a>
</g>
</g>
<!-- Node8&#45;&gt;Node9 -->
<g id="edge8" class="edge">
<title>Node8&#45;&gt;Node9</title>
<path fill="none" stroke="#191970" d="M846,-382.1575C846,-373.155 846,-362.9199 846,-355.6427"/>
<polygon fill="#191970" stroke="#191970" points="842.5001,-382.2455 846,-392.2455 849.5001,-382.2456 842.5001,-382.2455"/>
</g>
<!-- Node10 -->
<g id="node10" class="node">
<title>Node10</title>
<g id="a_node10"><a xlink:href="api_2abi-default_2rwlock__recursive_8h.html" target="_top" xlink:title="ODP recursive read/write lock. ">
<polygon fill="#ffffff" stroke="#000000" points="406,-280.5 406,-299.5 504,-299.5 504,-280.5 406,-280.5"/>
<text text-anchor="middle" x="455" y="-287.5" font-family="Helvetica,sans-Serif" font-size="10.00" fill="#000000">rwlock_recursive.h</text>
</a>
</g>
</g>
<!-- Node9&#45;&gt;Node10 -->
<g id="edge9" class="edge">
<title>Node9&#45;&gt;Node10</title>
<path fill="none" stroke="#191970" d="M809.5696,-340.7823C739.0534,-330.6828 583.8566,-308.4552 504.2373,-297.0519"/>
<polygon fill="#191970" stroke="#191970" points="809.343,-344.2855 819.7383,-342.2387 810.3355,-337.3562 809.343,-344.2855"/>
</g>
<!-- Node19 -->
<g id="node19" class="node">
<title>Node19</title>
<g id="a_node19"><a xlink:href="odp__api_8h.html" target="_top" xlink:title="The OpenDataPlane API. ">
<polygon fill="#ffffff" stroke="#000000" points="841.5,-56.5 841.5,-75.5 900.5,-75.5 900.5,-56.5 841.5,-56.5"/>
<text text-anchor="middle" x="871" y="-63.5" font-family="Helvetica,sans-Serif" font-size="10.00" fill="#000000">odp_api.h</text>
</a>
</g>
</g>
<!-- Node9&#45;&gt;Node19 -->
<g id="edge28" class="edge">
<title>Node9&#45;&gt;Node19</title>
<path fill="none" stroke="#191970" d="M839.2788,-326.7316C832.1789,-304.6263 822,-267.1535 822,-234 822,-234 822,-234 822,-178 822,-137.0378 849.8504,-94.181 863.558,-75.5681"/>
<polygon fill="#191970" stroke="#191970" points="835.9736,-327.8843 842.4587,-336.2625 842.6138,-325.6688 835.9736,-327.8843"/>
</g>
<!-- Node21 -->
<g id="node21" class="node">
<title>Node21</title>
<g id="a_node21"><a xlink:href="api_2cpu_8h.html" target="_top" xlink:title="ODP CPU. ">
<polygon fill="#ffffff" stroke="#000000" points="850.5,-168.5 850.5,-187.5 891.5,-187.5 891.5,-168.5 850.5,-168.5"/>
<text text-anchor="middle" x="871" y="-175.5" font-family="Helvetica,sans-Serif" font-size="10.00" fill="#000000">cpu.h</text>
</a>
</g>
</g>
<!-- Node9&#45;&gt;Node21 -->
<g id="edge20" class="edge">
<title>Node9&#45;&gt;Node21</title>
<path fill="none" stroke="#191970" d="M848.9375,-326.2601C854.3085,-290.1669 865.5289,-214.7656 869.5375,-187.8279"/>
<polygon fill="#191970" stroke="#191970" points="845.4258,-326.08 847.4157,-336.4862 852.3496,-327.1103 845.4258,-326.08"/>
</g>
<!-- Node22 -->
<g id="node22" class="node">
<title>Node22</title>
<g id="a_node22"><a xlink:href="api_2spec_2init_8h.html" target="_top" xlink:title="init.h">
<polygon fill="#ffffff" stroke="#000000" points="895,-280.5 895,-299.5 933,-299.5 933,-280.5 895,-280.5"/>
<text text-anchor="middle" x="914" y="-287.5" font-family="Helvetica,sans-Serif" font-size="10.00" fill="#000000">init.h</text>
</a>
</g>
</g>
<!-- Node9&#45;&gt;Node22 -->
<g id="edge22" class="edge">
<title>Node9&#45;&gt;Node22</title>
<path fill="none" stroke="#191970" d="M865.8596,-329.645C877.6858,-319.9058 892.2892,-307.8795 902.291,-299.6427"/>
<polygon fill="#191970" stroke="#191970" points="863.339,-327.1867 857.8447,-336.2455 867.789,-332.5902 863.339,-327.1867"/>
</g>
<!-- Node11 -->
<g id="node11" class="node">
<title>Node11</title>
<g id="a_node11"><a xlink:href="arch_2arm32-linux_2odp_2api_2abi_2rwlock__recursive_8h_source.html" target="_top" xlink:title="rwlock_recursive.h">
<polygon fill="#ffffff" stroke="#000000" points="0,-224.5 0,-243.5 98,-243.5 98,-224.5 0,-224.5"/>
<text text-anchor="middle" x="49" y="-231.5" font-family="Helvetica,sans-Serif" font-size="10.00" fill="#000000">rwlock_recursive.h</text>
</a>
</g>
</g>
<!-- Node10&#45;&gt;Node11 -->
<g id="edge10" class="edge">
<title>Node10&#45;&gt;Node11</title>
<path fill="none" stroke="#191970" d="M395.6416,-282.8748C326.2912,-274.3832 208.1455,-259.3983 107,-244 104.0705,-243.554 101.0605,-243.0808 98.0257,-242.5921"/>
<polygon fill="#191970" stroke="#191970" points="395.5768,-286.3928 405.9272,-284.1304 396.425,-279.4443 395.5768,-286.3928"/>
</g>
<!-- Node12 -->
<g id="node12" class="node">
<title>Node12</title>
<g id="a_node12"><a xlink:href="arch_2arm64-linux_2odp_2api_2abi_2rwlock__recursive_8h_source.html" target="_top" xlink:title="rwlock_recursive.h">
<polygon fill="#ffffff" stroke="#000000" points="116,-224.5 116,-243.5 214,-243.5 214,-224.5 116,-224.5"/>
<text text-anchor="middle" x="165" y="-231.5" font-family="Helvetica,sans-Serif" font-size="10.00" fill="#000000">rwlock_recursive.h</text>
</a>
</g>
</g>
<!-- Node10&#45;&gt;Node12 -->
<g id="edge11" class="edge">
<title>Node10&#45;&gt;Node12</title>
<path fill="none" stroke="#191970" d="M395.7887,-278.5661C342.3454,-268.246 264.623,-253.2375 214.4359,-243.5462"/>
<polygon fill="#191970" stroke="#191970" points="395.3232,-282.0408 405.8055,-280.5004 396.6505,-275.1678 395.3232,-282.0408"/>
</g>
<!-- Node13 -->
<g id="node13" class="node">
<title>Node13</title>
<g id="a_node13"><a xlink:href="arch_2default-linux_2odp_2api_2abi_2rwlock__recursive_8h_source.html" target="_top" xlink:title="rwlock_recursive.h">
<polygon fill="#ffffff" stroke="#000000" points="232,-224.5 232,-243.5 330,-243.5 330,-224.5 232,-224.5"/>
<text text-anchor="middle" x="281" y="-231.5" font-family="Helvetica,sans-Serif" font-size="10.00" fill="#000000">rwlock_recursive.h</text>
</a>
</g>
</g>
<!-- Node10&#45;&gt;Node13 -->
<g id="edge12" class="edge">
<title>Node10&#45;&gt;Node13</title>
<path fill="none" stroke="#191970" d="M415.199,-277.1905C383.321,-266.9309 339.3184,-252.7691 310.5213,-243.5011"/>
<polygon fill="#191970" stroke="#191970" points="414.4969,-280.6413 425.0883,-280.3733 416.6415,-273.9779 414.4969,-280.6413"/>
</g>
<!-- Node14 -->
<g id="node14" class="node">
<title>Node14</title>
<g id="a_node14"><a xlink:href="arch_2mips64-linux_2odp_2api_2abi_2rwlock__recursive_8h_source.html" target="_top" xlink:title="rwlock_recursive.h">
<polygon fill="#ffffff" stroke="#000000" points="348,-224.5 348,-243.5 446,-243.5 446,-224.5 348,-224.5"/>
<text text-anchor="middle" x="397" y="-231.5" font-family="Helvetica,sans-Serif" font-size="10.00" fill="#000000">rwlock_recursive.h</text>
</a>
</g>
</g>
<!-- Node10&#45;&gt;Node14 -->
<g id="edge13" class="edge">
<title>Node10&#45;&gt;Node14</title>
<path fill="none" stroke="#191970" d="M437.4707,-273.0751C427.4917,-263.4402 415.3524,-251.7196 406.9871,-243.6427"/>
<polygon fill="#191970" stroke="#191970" points="435.272,-275.8175 444.8972,-280.2455 440.1342,-270.7817 435.272,-275.8175"/>
</g>
<!-- Node15 -->
<g id="node15" class="node">
<title>Node15</title>
<g id="a_node15"><a xlink:href="arch_2power64-linux_2odp_2api_2abi_2rwlock__recursive_8h_source.html" target="_top" xlink:title="rwlock_recursive.h">
<polygon fill="#ffffff" stroke="#000000" points="464,-224.5 464,-243.5 562,-243.5 562,-224.5 464,-224.5"/>
<text text-anchor="middle" x="513" y="-231.5" font-family="Helvetica,sans-Serif" font-size="10.00" fill="#000000">rwlock_recursive.h</text>
</a>
</g>
</g>
<!-- Node10&#45;&gt;Node15 -->
<g id="edge14" class="edge">
<title>Node10&#45;&gt;Node15</title>
<path fill="none" stroke="#191970" d="M472.5293,-273.0751C482.5083,-263.4402 494.6476,-251.7196 503.0129,-243.6427"/>
<polygon fill="#191970" stroke="#191970" points="469.8658,-270.7817 465.1028,-280.2455 474.728,-275.8175 469.8658,-270.7817"/>
</g>
<!-- Node16 -->
<g id="node16" class="node">
<title>Node16</title>
<g id="a_node16"><a xlink:href="arch_2x86__32-linux_2odp_2api_2abi_2rwlock__recursive_8h_source.html" target="_top" xlink:title="rwlock_recursive.h">
<polygon fill="#ffffff" stroke="#000000" points="580,-224.5 580,-243.5 678,-243.5 678,-224.5 580,-224.5"/>
<text text-anchor="middle" x="629" y="-231.5" font-family="Helvetica,sans-Serif" font-size="10.00" fill="#000000">rwlock_recursive.h</text>
</a>
</g>
</g>
<!-- Node10&#45;&gt;Node16 -->
<g id="edge15" class="edge">
<title>Node10&#45;&gt;Node16</title>
<path fill="none" stroke="#191970" d="M494.801,-277.1905C526.679,-266.9309 570.6816,-252.7691 599.4787,-243.5011"/>
<polygon fill="#191970" stroke="#191970" points="493.3585,-273.9779 484.9117,-280.3733 495.5031,-280.6413 493.3585,-273.9779"/>
</g>
<!-- Node17 -->
<g id="node17" class="node">
<title>Node17</title>
<g id="a_node17"><a xlink:href="arch_2x86__64-linux_2odp_2api_2abi_2rwlock__recursive_8h_source.html" target="_top" xlink:title="rwlock_recursive.h">
<polygon fill="#ffffff" stroke="#000000" points="696,-224.5 696,-243.5 794,-243.5 794,-224.5 696,-224.5"/>
<text text-anchor="middle" x="745" y="-231.5" font-family="Helvetica,sans-Serif" font-size="10.00" fill="#000000">rwlock_recursive.h</text>
</a>
</g>
</g>
<!-- Node10&#45;&gt;Node17 -->
<g id="edge16" class="edge">
<title>Node10&#45;&gt;Node17</title>
<path fill="none" stroke="#191970" d="M514.2113,-278.5661C567.6546,-268.246 645.377,-253.2375 695.5641,-243.5462"/>
<polygon fill="#191970" stroke="#191970" points="513.3495,-275.1678 504.1945,-280.5004 514.6768,-282.0408 513.3495,-275.1678"/>
</g>
<!-- Node18 -->
<g id="node18" class="node">
<title>Node18</title>
<g id="a_node18"><a xlink:href="api_2rwlock__recursive_8h.html" target="_top" xlink:title="ODP resursive read/write lock. ">
<polygon fill="#ffffff" stroke="#000000" points="696,-112.5 696,-131.5 794,-131.5 794,-112.5 696,-112.5"/>
<text text-anchor="middle" x="745" y="-119.5" font-family="Helvetica,sans-Serif" font-size="10.00" fill="#000000">rwlock_recursive.h</text>
</a>
</g>
</g>
<!-- Node17&#45;&gt;Node18 -->
<g id="edge17" class="edge">
<title>Node17&#45;&gt;Node18</title>
<path fill="none" stroke="#191970" d="M745,-214.2702C745,-189.9985 745,-149.7725 745,-131.5249"/>
<polygon fill="#191970" stroke="#191970" points="741.5001,-214.4509 745,-224.4509 748.5001,-214.451 741.5001,-214.4509"/>
</g>
<!-- Node18&#45;&gt;Node19 -->
<g id="edge18" class="edge">
<title>Node18&#45;&gt;Node19</title>
<path fill="none" stroke="#191970" d="M775.9436,-108.2473C798.8265,-98.0771 829.4014,-84.4883 849.6225,-75.5011"/>
<polygon fill="#191970" stroke="#191970" points="774.3768,-105.1135 766.6602,-112.3733 777.2198,-111.5102 774.3768,-105.1135"/>
</g>
<!-- Node20 -->
<g id="node20" class="node">
<title>Node20</title>
<g id="a_node20"><a xlink:href="odp_8h.html" target="_top" xlink:title="WARNING: THIS FILE IS DEPRECATED AND WILL BE REMOVED!!! ODP APPLICATIONS SHOULD NOW INCLUDE odp_api...">
<polygon fill="#ffffff" stroke="#000000" points="850.5,-.5 850.5,-19.5 891.5,-19.5 891.5,-.5 850.5,-.5"/>
<text text-anchor="middle" x="871" y="-7.5" font-family="Helvetica,sans-Serif" font-size="10.00" fill="#000000">odp.h</text>
</a>
</g>
</g>
<!-- Node19&#45;&gt;Node20 -->
<g id="edge19" class="edge">
<title>Node19&#45;&gt;Node20</title>
<path fill="none" stroke="#191970" d="M871,-46.1575C871,-37.155 871,-26.9199 871,-19.6427"/>
<polygon fill="#191970" stroke="#191970" points="867.5001,-46.2455 871,-56.2455 874.5001,-46.2456 867.5001,-46.2455"/>
</g>
<!-- Node21&#45;&gt;Node19 -->
<g id="edge21" class="edge">
<title>Node21&#45;&gt;Node19</title>
<path fill="none" stroke="#191970" d="M871,-158.2702C871,-133.9985 871,-93.7725 871,-75.5249"/>
<polygon fill="#191970" stroke="#191970" points="867.5001,-158.4509 871,-168.4509 874.5001,-158.451 867.5001,-158.4509"/>
</g>
<!-- Node23 -->
<g id="node23" class="node">
<title>Node23</title>
<g id="a_node23"><a xlink:href="api_2init_8h.html" target="_top" xlink:title="ODP initialization. ">
<polygon fill="#ffffff" stroke="#000000" points="901,-224.5 901,-243.5 939,-243.5 939,-224.5 901,-224.5"/>
<text text-anchor="middle" x="920" y="-231.5" font-family="Helvetica,sans-Serif" font-size="10.00" fill="#000000">init.h</text>
</a>
</g>
</g>
<!-- Node22&#45;&gt;Node23 -->
<g id="edge23" class="edge">
<title>Node22&#45;&gt;Node23</title>
<path fill="none" stroke="#191970" d="M916.126,-270.1575C917.0905,-261.155 918.1872,-250.9199 918.9669,-243.6427"/>
<polygon fill="#191970" stroke="#191970" points="912.6305,-269.9296 915.0451,-280.2455 919.5906,-270.6753 912.6305,-269.9296"/>
</g>
<!-- Node23&#45;&gt;Node19 -->
<g id="edge27" class="edge">
<title>Node23&#45;&gt;Node19</title>
<path fill="none" stroke="#191970" d="M914.603,-214.8292C907.8082,-190.7775 895.725,-148.2827 885,-112 881.2612,-99.3515 876.8046,-84.7937 873.9404,-75.5014"/>
<polygon fill="#191970" stroke="#191970" points="911.2456,-215.8192 917.3289,-224.4936 917.9827,-213.9189 911.2456,-215.8192"/>
</g>
<!-- Node24 -->
<g id="node24" class="node">
<title>Node24</title>
<g id="a_node24"><a xlink:href="api_2spec_2shared__memory_8h.html" target="_top" xlink:title="ODP shared memory. ">
<polygon fill="#ffffff" stroke="#000000" points="948.5,-168.5 948.5,-187.5 1043.5,-187.5 1043.5,-168.5 948.5,-168.5"/>
<text text-anchor="middle" x="996" y="-175.5" font-family="Helvetica,sans-Serif" font-size="10.00" fill="#000000">shared_memory.h</text>
</a>
</g>
</g>
<!-- Node23&#45;&gt;Node24 -->
<g id="edge24" class="edge">
<title>Node23&#45;&gt;Node24</title>
<path fill="none" stroke="#191970" d="M941.4297,-218.2097C954.7777,-208.3743 971.5179,-196.0394 982.9135,-187.6427"/>
<polygon fill="#191970" stroke="#191970" points="939.2126,-215.4958 933.2382,-224.2455 943.365,-221.1312 939.2126,-215.4958"/>
</g>
<!-- Node25 -->
<g id="node25" class="node">
<title>Node25</title>
<g id="a_node25"><a xlink:href="api_2shared__memory_8h.html" target="_top" xlink:title="ODP shared memory. ">
<polygon fill="#ffffff" stroke="#000000" points="948.5,-112.5 948.5,-131.5 1043.5,-131.5 1043.5,-112.5 948.5,-112.5"/>
<text text-anchor="middle" x="996" y="-119.5" font-family="Helvetica,sans-Serif" font-size="10.00" fill="#000000">shared_memory.h</text>
</a>
</g>
</g>
<!-- Node24&#45;&gt;Node25 -->
<g id="edge25" class="edge">
<title>Node24&#45;&gt;Node25</title>
<path fill="none" stroke="#191970" d="M996,-158.1575C996,-149.155 996,-138.9199 996,-131.6427"/>
<polygon fill="#191970" stroke="#191970" points="992.5001,-158.2455 996,-168.2455 999.5001,-158.2456 992.5001,-158.2455"/>
</g>
<!-- Node25&#45;&gt;Node19 -->
<g id="edge26" class="edge">
<title>Node25&#45;&gt;Node19</title>
<path fill="none" stroke="#191970" d="M965.302,-108.2473C942.6007,-98.0771 912.2685,-84.4883 892.2079,-75.5011"/>
<polygon fill="#191970" stroke="#191970" points="963.9547,-111.4789 974.5117,-112.3733 966.8167,-105.0906 963.9547,-111.4789"/>
</g>
</g>
</svg>
