<?xml version="1.0" encoding="UTF-8" standalone="no"?>
<!DOCTYPE svg PUBLIC "-//W3C//DTD SVG 1.1//EN"
 "http://www.w3.org/Graphics/SVG/1.1/DTD/svg11.dtd">
<!-- Generated by graphviz version 2.40.1 (20161225.0304)
 -->
<!-- Title: event.h Pages: 1 -->
<svg width="448pt" height="588pt"
 viewBox="0.00 0.00 448.00 588.00" xmlns="http://www.w3.org/2000/svg" xmlns:xlink="http://www.w3.org/1999/xlink">
<g id="graph0" class="graph" transform="scale(1 1) rotate(0) translate(4 584)">
<title>event.h</title>
<polygon fill="#ffffff" stroke="transparent" points="-4,4 -4,-584 444,-584 444,4 -4,4"/>
<!-- Node21 -->
<g id="node1" class="node">
<title>Node21</title>
<polygon fill="#bfbfbf" stroke="#000000" points="239.5,-560.5 239.5,-579.5 288.5,-579.5 288.5,-560.5 239.5,-560.5"/>
<text text-anchor="middle" x="264" y="-567.5" font-family="Helvetica,sans-Serif" font-size="10.00" fill="#000000">event.h</text>
</g>
<!-- Node22 -->
<g id="node2" class="node">
<title>Node22</title>
<g id="a_node2"><a xlink:href="api_2spec_2queue_8h.html" target="_top" xlink:title="ODP queue. ">
<polygon fill="#ffffff" stroke="#000000" points="238.5,-504.5 238.5,-523.5 289.5,-523.5 289.5,-504.5 238.5,-504.5"/>
<text text-anchor="middle" x="264" y="-511.5" font-family="Helvetica,sans-Serif" font-size="10.00" fill="#000000">queue.h</text>
</a>
</g>
</g>
<!-- Node21&#45;&gt;Node22 -->
<g id="edge1" class="edge">
<title>Node21&#45;&gt;Node22</title>
<path fill="none" stroke="#191970" d="M264,-550.1575C264,-541.155 264,-530.9199 264,-523.6427"/>
<polygon fill="#191970" stroke="#191970" points="260.5001,-550.2455 264,-560.2455 267.5001,-550.2456 260.5001,-550.2455"/>
</g>
<!-- Node27 -->
<g id="node7" class="node">
<title>Node27</title>
<g id="a_node7"><a xlink:href="odp__api_8h.html" target="_top" xlink:title="The OpenDataPlane API. ">
<polygon fill="#ffffff" stroke="#000000" points="168.5,-56.5 168.5,-75.5 227.5,-75.5 227.5,-56.5 168.5,-56.5"/>
<text text-anchor="middle" x="198" y="-63.5" font-family="Helvetica,sans-Serif" font-size="10.00" fill="#000000">odp_api.h</text>
</a>
</g>
</g>
<!-- Node21&#45;&gt;Node27 -->
<g id="edge26" class="edge">
<title>Node21&#45;&gt;Node27</title>
<path fill="none" stroke="#191970" d="M229.2406,-562.8944C157.5651,-547.2417 0,-507.2331 0,-458 0,-458 0,-458 0,-178 0,-101.5803 113.122,-76.6975 168.3574,-69.1026"/>
<polygon fill="#191970" stroke="#191970" points="228.6515,-566.3476 239.1635,-565.0253 230.1213,-559.5037 228.6515,-566.3476"/>
</g>
<!-- Node35 -->
<g id="node15" class="node">
<title>Node35</title>
<g id="a_node15"><a xlink:href="api_2spec_2schedule_8h.html" target="_top" xlink:title="ODP schedule. ">
<polygon fill="#ffffff" stroke="#000000" points="376,-392.5 376,-411.5 440,-411.5 440,-392.5 376,-392.5"/>
<text text-anchor="middle" x="408" y="-399.5" font-family="Helvetica,sans-Serif" font-size="10.00" fill="#000000">schedule.h</text>
</a>
</g>
</g>
<!-- Node21&#45;&gt;Node35 -->
<g id="edge25" class="edge">
<title>Node21&#45;&gt;Node35</title>
<path fill="none" stroke="#191970" d="M278.9591,-552.5477C309.0396,-517.4538 375.9869,-439.3486 399.5761,-411.8279"/>
<polygon fill="#191970" stroke="#191970" points="276.0052,-550.6159 272.1547,-560.4862 281.32,-555.1714 276.0052,-550.6159"/>
</g>
<!-- Node23 -->
<g id="node3" class="node">
<title>Node23</title>
<g id="a_node3"><a xlink:href="api_2queue_8h.html" target="_top" xlink:title="ODP queue. ">
<polygon fill="#ffffff" stroke="#000000" points="238.5,-448.5 238.5,-467.5 289.5,-467.5 289.5,-448.5 238.5,-448.5"/>
<text text-anchor="middle" x="264" y="-455.5" font-family="Helvetica,sans-Serif" font-size="10.00" fill="#000000">queue.h</text>
</a>
</g>
</g>
<!-- Node22&#45;&gt;Node23 -->
<g id="edge2" class="edge">
<title>Node22&#45;&gt;Node23</title>
<path fill="none" stroke="#191970" d="M264,-494.1575C264,-485.155 264,-474.9199 264,-467.6427"/>
<polygon fill="#191970" stroke="#191970" points="260.5001,-494.2455 264,-504.2455 267.5001,-494.2456 260.5001,-494.2455"/>
</g>
<!-- Node24 -->
<g id="node4" class="node">
<title>Node24</title>
<g id="a_node4"><a xlink:href="api_2crypto_8h.html" target="_top" xlink:title="ODP crypto. ">
<polygon fill="#ffffff" stroke="#000000" points="338,-224.5 338,-243.5 390,-243.5 390,-224.5 338,-224.5"/>
<text text-anchor="middle" x="364" y="-231.5" font-family="Helvetica,sans-Serif" font-size="10.00" fill="#000000">crypto.h</text>
</a>
</g>
</g>
<!-- Node23&#45;&gt;Node24 -->
<g id="edge3" class="edge">
<title>Node23&#45;&gt;Node24</title>
<path fill="none" stroke="#191970" d="M272.4844,-438.995C292.9612,-393.1268 344.519,-277.6374 359.7191,-243.5891"/>
<polygon fill="#191970" stroke="#191970" points="269.1775,-437.8168 268.2969,-448.375 275.5694,-440.6704 269.1775,-437.8168"/>
</g>
<!-- Node23&#45;&gt;Node27 -->
<g id="edge24" class="edge">
<title>Node23&#45;&gt;Node27</title>
<path fill="none" stroke="#191970" d="M228.4311,-448.3081C164.7838,-429.9064 38,-387.9819 38,-346 38,-346 38,-346 38,-178 38,-115.1023 122.0094,-84.5506 168.2802,-72.4934"/>
<polygon fill="#191970" stroke="#191970" points="227.4986,-451.6816 238.0749,-451.0559 229.4168,-444.9496 227.4986,-451.6816"/>
</g>
<!-- Node29 -->
<g id="node9" class="node">
<title>Node29</title>
<g id="a_node9"><a xlink:href="api_2spec_2packet__io_8h.html" target="_top" xlink:title="ODP Packet IO. ">
<polygon fill="#ffffff" stroke="#000000" points="194.5,-392.5 194.5,-411.5 261.5,-411.5 261.5,-392.5 194.5,-392.5"/>
<text text-anchor="middle" x="228" y="-399.5" font-family="Helvetica,sans-Serif" font-size="10.00" fill="#000000">packet_io.h</text>
</a>
</g>
</g>
<!-- Node23&#45;&gt;Node29 -->
<g id="edge9" class="edge">
<title>Node23&#45;&gt;Node29</title>
<path fill="none" stroke="#191970" d="M252.1904,-439.6296C246.1856,-430.2887 239.1341,-419.3197 234.1989,-411.6427"/>
<polygon fill="#191970" stroke="#191970" points="249.3775,-441.7264 257.7293,-448.2455 255.2658,-437.9411 249.3775,-441.7264"/>
</g>
<!-- Node23&#45;&gt;Node35 -->
<g id="edge21" class="edge">
<title>Node23&#45;&gt;Node35</title>
<path fill="none" stroke="#191970" d="M298.3182,-444.6541C324.578,-434.4419 360.1492,-420.6086 383.5685,-411.5011"/>
<polygon fill="#191970" stroke="#191970" points="296.806,-441.4867 288.7545,-448.3733 299.3431,-448.0108 296.806,-441.4867"/>
</g>
<!-- Node25 -->
<g id="node5" class="node">
<title>Node25</title>
<g id="a_node5"><a xlink:href="api_2spec_2ipsec_8h.html" target="_top" xlink:title="ODP IPSEC API. ">
<polygon fill="#ffffff" stroke="#000000" points="200,-168.5 200,-187.5 248,-187.5 248,-168.5 200,-168.5"/>
<text text-anchor="middle" x="224" y="-175.5" font-family="Helvetica,sans-Serif" font-size="10.00" fill="#000000">ipsec.h</text>
</a>
</g>
</g>
<!-- Node24&#45;&gt;Node25 -->
<g id="edge4" class="edge">
<title>Node24&#45;&gt;Node25</title>
<path fill="none" stroke="#191970" d="M330.6351,-220.6541C305.1048,-210.4419 270.5216,-196.6086 247.7528,-187.5011"/>
<polygon fill="#191970" stroke="#191970" points="329.3485,-223.909 339.9331,-224.3733 331.9483,-217.4096 329.3485,-223.909"/>
</g>
<!-- Node24&#45;&gt;Node27 -->
<g id="edge8" class="edge">
<title>Node24&#45;&gt;Node27</title>
<path fill="none" stroke="#191970" d="M353.8994,-215.4082C339.2936,-189.7786 310.2408,-143.2258 276,-112 259.0404,-96.5337 236.0553,-83.7469 219.4338,-75.6137"/>
<polygon fill="#191970" stroke="#191970" points="351.0011,-217.3971 358.9305,-224.4238 357.1138,-213.9859 351.0011,-217.3971"/>
</g>
<!-- Node26 -->
<g id="node6" class="node">
<title>Node26</title>
<g id="a_node6"><a xlink:href="api_2ipsec_8h.html" target="_top" xlink:title="ODP IPSEC API &#45; platform specific header. ">
<polygon fill="#ffffff" stroke="#000000" points="200,-112.5 200,-131.5 248,-131.5 248,-112.5 200,-112.5"/>
<text text-anchor="middle" x="224" y="-119.5" font-family="Helvetica,sans-Serif" font-size="10.00" fill="#000000">ipsec.h</text>
</a>
</g>
</g>
<!-- Node25&#45;&gt;Node26 -->
<g id="edge5" class="edge">
<title>Node25&#45;&gt;Node26</title>
<path fill="none" stroke="#191970" d="M224,-158.1575C224,-149.155 224,-138.9199 224,-131.6427"/>
<polygon fill="#191970" stroke="#191970" points="220.5001,-158.2455 224,-168.2455 227.5001,-158.2456 220.5001,-158.2455"/>
</g>
<!-- Node26&#45;&gt;Node27 -->
<g id="edge6" class="edge">
<title>Node26&#45;&gt;Node27</title>
<path fill="none" stroke="#191970" d="M215.1989,-103.0437C210.9225,-93.8331 205.967,-83.1598 202.477,-75.6427"/>
<polygon fill="#191970" stroke="#191970" points="212.0854,-104.6494 219.4711,-112.2455 218.4345,-101.7015 212.0854,-104.6494"/>
</g>
<!-- Node28 -->
<g id="node8" class="node">
<title>Node28</title>
<g id="a_node8"><a xlink:href="odp_8h.html" target="_top" xlink:title="WARNING: THIS FILE IS DEPRECATED AND WILL BE REMOVED!!! ODP APPLICATIONS SHOULD NOW INCLUDE odp_api...">
<polygon fill="#ffffff" stroke="#000000" points="177.5,-.5 177.5,-19.5 218.5,-19.5 218.5,-.5 177.5,-.5"/>
<text text-anchor="middle" x="198" y="-7.5" font-family="Helvetica,sans-Serif" font-size="10.00" fill="#000000">odp.h</text>
</a>
</g>
</g>
<!-- Node27&#45;&gt;Node28 -->
<g id="edge7" class="edge">
<title>Node27&#45;&gt;Node28</title>
<path fill="none" stroke="#191970" d="M198,-46.1575C198,-37.155 198,-26.9199 198,-19.6427"/>
<polygon fill="#191970" stroke="#191970" points="194.5001,-46.2455 198,-56.2455 201.5001,-46.2456 194.5001,-46.2455"/>
</g>
<!-- Node30 -->
<g id="node10" class="node">
<title>Node30</title>
<g id="a_node10"><a xlink:href="api_2packet__io_8h.html" target="_top" xlink:title="ODP Packet IO. ">
<polygon fill="#ffffff" stroke="#000000" points="176.5,-336.5 176.5,-355.5 243.5,-355.5 243.5,-336.5 176.5,-336.5"/>
<text text-anchor="middle" x="210" y="-343.5" font-family="Helvetica,sans-Serif" font-size="10.00" fill="#000000">packet_io.h</text>
</a>
</g>
</g>
<!-- Node29&#45;&gt;Node30 -->
<g id="edge10" class="edge">
<title>Node29&#45;&gt;Node30</title>
<path fill="none" stroke="#191970" d="M221.7173,-382.4538C218.8008,-373.3803 215.4642,-362.9998 213.0994,-355.6427"/>
<polygon fill="#191970" stroke="#191970" points="218.4724,-383.7963 224.8646,-392.2455 225.1366,-381.6542 218.4724,-383.7963"/>
</g>
<!-- Node30&#45;&gt;Node25 -->
<g id="edge15" class="edge">
<title>Node30&#45;&gt;Node25</title>
<path fill="none" stroke="#191970" d="M211.645,-326.2601C214.6528,-290.1669 220.9362,-214.7656 223.181,-187.8279"/>
<polygon fill="#191970" stroke="#191970" points="208.1354,-326.2301 210.7928,-336.4862 215.1113,-326.8115 208.1354,-326.2301"/>
</g>
<!-- Node30&#45;&gt;Node27 -->
<g id="edge20" class="edge">
<title>Node30&#45;&gt;Node27</title>
<path fill="none" stroke="#191970" d="M199.511,-327.4209C188.2634,-305.7168 172,-268.3882 172,-234 172,-234 172,-234 172,-178 172,-139.2747 186.9313,-94.9231 194.1636,-75.7117"/>
<polygon fill="#191970" stroke="#191970" points="196.569,-329.3395 204.393,-336.4834 202.7317,-326.0196 196.569,-329.3395"/>
</g>
<!-- Node31 -->
<g id="node11" class="node">
<title>Node31</title>
<g id="a_node11"><a xlink:href="api_2spec_2classification_8h.html" target="_top" xlink:title="ODP classification descriptor. ">
<polygon fill="#ffffff" stroke="#000000" points="238,-280.5 238,-299.5 320,-299.5 320,-280.5 238,-280.5"/>
<text text-anchor="middle" x="279" y="-287.5" font-family="Helvetica,sans-Serif" font-size="10.00" fill="#000000">classification.h</text>
</a>
</g>
</g>
<!-- Node30&#45;&gt;Node31 -->
<g id="edge11" class="edge">
<title>Node30&#45;&gt;Node31</title>
<path fill="none" stroke="#191970" d="M229.803,-329.928C241.8636,-320.1397 256.8714,-307.9595 267.1188,-299.6427"/>
<polygon fill="#191970" stroke="#191970" points="227.5779,-327.2262 222.0189,-336.2455 231.9891,-332.6614 227.5779,-327.2262"/>
</g>
<!-- Node33 -->
<g id="node13" class="node">
<title>Node33</title>
<g id="a_node13"><a xlink:href="api_2spec_2traffic__mngr_8h.html" target="_top" xlink:title="Copyright (c) 2015&#45;2018, Linaro Limited All rights reserved. ">
<polygon fill="#ffffff" stroke="#000000" points="66.5,-280.5 66.5,-299.5 143.5,-299.5 143.5,-280.5 66.5,-280.5"/>
<text text-anchor="middle" x="105" y="-287.5" font-family="Helvetica,sans-Serif" font-size="10.00" fill="#000000">traffic_mngr.h</text>
</a>
</g>
</g>
<!-- Node30&#45;&gt;Node33 -->
<g id="edge16" class="edge">
<title>Node30&#45;&gt;Node33</title>
<path fill="none" stroke="#191970" d="M182.7375,-331.46C163.9478,-321.4388 139.4987,-308.3993 123.08,-299.6427"/>
<polygon fill="#191970" stroke="#191970" points="181.2398,-334.6278 191.7104,-336.2455 184.5339,-328.4514 181.2398,-334.6278"/>
</g>
<!-- Node32 -->
<g id="node12" class="node">
<title>Node32</title>
<g id="a_node12"><a xlink:href="api_2classification_8h.html" target="_top" xlink:title="ODP classification descriptor. ">
<polygon fill="#ffffff" stroke="#000000" points="238,-224.5 238,-243.5 320,-243.5 320,-224.5 238,-224.5"/>
<text text-anchor="middle" x="279" y="-231.5" font-family="Helvetica,sans-Serif" font-size="10.00" fill="#000000">classification.h</text>
</a>
</g>
</g>
<!-- Node31&#45;&gt;Node32 -->
<g id="edge12" class="edge">
<title>Node31&#45;&gt;Node32</title>
<path fill="none" stroke="#191970" d="M279,-270.1575C279,-261.155 279,-250.9199 279,-243.6427"/>
<polygon fill="#191970" stroke="#191970" points="275.5001,-270.2455 279,-280.2455 282.5001,-270.2456 275.5001,-270.2455"/>
</g>
<!-- Node32&#45;&gt;Node25 -->
<g id="edge13" class="edge">
<title>Node32&#45;&gt;Node25</title>
<path fill="none" stroke="#191970" d="M262.3774,-217.0751C252.9145,-207.4402 241.4031,-195.7196 233.4705,-187.6427"/>
<polygon fill="#191970" stroke="#191970" points="259.9155,-219.5635 269.4197,-224.2455 264.9097,-214.6585 259.9155,-219.5635"/>
</g>
<!-- Node32&#45;&gt;Node27 -->
<g id="edge14" class="edge">
<title>Node32&#45;&gt;Node27</title>
<path fill="none" stroke="#191970" d="M279.6345,-214.0856C279.5488,-188.6048 276.3032,-143.9489 257,-112 247.328,-95.9918 229.869,-83.4381 216.4437,-75.5177"/>
<polygon fill="#191970" stroke="#191970" points="276.1316,-214.2834 279.4978,-224.3292 283.131,-214.3768 276.1316,-214.2834"/>
</g>
<!-- Node34 -->
<g id="node14" class="node">
<title>Node34</title>
<g id="a_node14"><a xlink:href="api_2traffic__mngr_8h.html" target="_top" xlink:title="ODP Traffic manager. ">
<polygon fill="#ffffff" stroke="#000000" points="66.5,-224.5 66.5,-243.5 143.5,-243.5 143.5,-224.5 66.5,-224.5"/>
<text text-anchor="middle" x="105" y="-231.5" font-family="Helvetica,sans-Serif" font-size="10.00" fill="#000000">traffic_mngr.h</text>
</a>
</g>
</g>
<!-- Node33&#45;&gt;Node34 -->
<g id="edge17" class="edge">
<title>Node33&#45;&gt;Node34</title>
<path fill="none" stroke="#191970" d="M105,-270.1575C105,-261.155 105,-250.9199 105,-243.6427"/>
<polygon fill="#191970" stroke="#191970" points="101.5001,-270.2455 105,-280.2455 108.5001,-270.2456 101.5001,-270.2455"/>
</g>
<!-- Node34&#45;&gt;Node25 -->
<g id="edge18" class="edge">
<title>Node34&#45;&gt;Node25</title>
<path fill="none" stroke="#191970" d="M134.5144,-220.1109C156.0938,-209.9559 184.7976,-196.4482 203.8101,-187.5011"/>
<polygon fill="#191970" stroke="#191970" points="133.0147,-216.9484 125.4568,-224.3733 135.9953,-223.2821 133.0147,-216.9484"/>
</g>
<!-- Node34&#45;&gt;Node27 -->
<g id="edge19" class="edge">
<title>Node34&#45;&gt;Node27</title>
<path fill="none" stroke="#191970" d="M111.3275,-214.6479C119.9071,-189.8014 136.6417,-145.8571 158,-112 166.6957,-98.2155 179.4045,-84.3692 188.1514,-75.5236"/>
<polygon fill="#191970" stroke="#191970" points="107.9418,-213.7351 108.0658,-224.3293 114.5754,-215.9701 107.9418,-213.7351"/>
</g>
<!-- Node36 -->
<g id="node16" class="node">
<title>Node36</title>
<g id="a_node16"><a xlink:href="api_2schedule_8h.html" target="_top" xlink:title="ODP schedule. ">
<polygon fill="#ffffff" stroke="#000000" points="375,-168.5 375,-187.5 439,-187.5 439,-168.5 375,-168.5"/>
<text text-anchor="middle" x="407" y="-175.5" font-family="Helvetica,sans-Serif" font-size="10.00" fill="#000000">schedule.h</text>
</a>
</g>
</g>
<!-- Node35&#45;&gt;Node36 -->
<g id="edge22" class="edge">
<title>Node35&#45;&gt;Node36</title>
<path fill="none" stroke="#191970" d="M407.9112,-382.1177C407.7039,-335.6713 407.1938,-221.4223 407.0428,-187.5891"/>
<polygon fill="#191970" stroke="#191970" points="404.4123,-382.3908 407.957,-392.375 411.4123,-382.3594 404.4123,-382.3908"/>
</g>
<!-- Node36&#45;&gt;Node27 -->
<g id="edge23" class="edge">
<title>Node36&#45;&gt;Node27</title>
<path fill="none" stroke="#191970" d="M395.717,-160.0013C385.4962,-145.1022 369.1351,-124.4318 350,-112 311.8521,-87.2159 259.7353,-75.2707 227.5038,-69.9101"/>
<polygon fill="#191970" stroke="#191970" points="392.8317,-161.9837 401.2573,-168.407 398.6763,-158.1313 392.8317,-161.9837"/>
</g>
</g>
</svg>
