<?xml version="1.0" encoding="UTF-8" standalone="no"?>
<!DOCTYPE svg PUBLIC "-//W3C//DTD SVG 1.1//EN"
 "http://www.w3.org/Graphics/SVG/1.1/DTD/svg11.dtd">
<!-- Generated by graphviz version 2.40.1 (20161225.0304)
 -->
<!-- Title: packet_flags.h Pages: 1 -->
<svg width="857pt" height="476pt"
 viewBox="0.00 0.00 857.00 476.00" xmlns="http://www.w3.org/2000/svg" xmlns:xlink="http://www.w3.org/1999/xlink">
<g id="graph0" class="graph" transform="scale(1 1) rotate(0) translate(4 472)">
<title>packet_flags.h</title>
<polygon fill="#ffffff" stroke="transparent" points="-4,4 -4,-472 853,-472 853,4 -4,4"/>
<!-- Node0 -->
<g id="node1" class="node">
<title>Node0</title>
<polygon fill="#bfbfbf" stroke="#000000" points="174,-448.5 174,-467.5 254,-467.5 254,-448.5 174,-448.5"/>
<text text-anchor="middle" x="214" y="-455.5" font-family="Helvetica,sans-Serif" font-size="10.00" fill="#000000">packet_flags.h</text>
</g>
<!-- Node1 -->
<g id="node2" class="node">
<title>Node1</title>
<g id="a_node2"><a xlink:href="visibility__begin_8h_source.html" target="_top" xlink:title="odp/visibility_begin.h">
<polygon fill="#ffffff" stroke="#000000" points="451.5,-.5 451.5,-19.5 558.5,-19.5 558.5,-.5 451.5,-.5"/>
<text text-anchor="middle" x="505" y="-7.5" font-family="Helvetica,sans-Serif" font-size="10.00" fill="#000000">odp/visibility_begin.h</text>
</a>
</g>
</g>
<!-- Node0&#45;&gt;Node1 -->
<g id="edge1" class="edge">
<title>Node0&#45;&gt;Node1</title>
<path fill="none" stroke="#191970" d="M254.2038,-455.1868C393.7898,-444.8899 849,-406.66 849,-346 849,-346 849,-346 849,-122 849,-63.7064 668.1363,-31.0641 568.6966,-17.5225"/>
<polygon fill="#191970" stroke="#191970" points="569.1252,-14.0487 558.75,-16.1946 568.1989,-20.9872 569.1252,-14.0487"/>
</g>
<!-- Node2 -->
<g id="node3" class="node">
<title>Node2</title>
<g id="a_node3"><a xlink:href="api_2std__types_8h.html" target="_top" xlink:title="Standard C language types and definitions for ODP. ">
<polygon fill="#ffffff" stroke="#000000" points="154,-224.5 154,-243.5 256,-243.5 256,-224.5 154,-224.5"/>
<text text-anchor="middle" x="205" y="-231.5" font-family="Helvetica,sans-Serif" font-size="10.00" fill="#000000">odp/api/std_types.h</text>
</a>
</g>
</g>
<!-- Node0&#45;&gt;Node2 -->
<g id="edge2" class="edge">
<title>Node0&#45;&gt;Node2</title>
<path fill="none" stroke="#191970" d="M191.724,-448.4486C160.6759,-433.7538 105.6562,-402.3548 83,-356 72.0283,-333.5519 95.4514,-286.1668 101,-280 114.9439,-264.5025 135.079,-253.9634 153.9254,-246.9289"/>
<polygon fill="#191970" stroke="#191970" points="155.3246,-250.1482 163.6237,-243.5622 153.0289,-243.5353 155.3246,-250.1482"/>
</g>
<!-- Node9 -->
<g id="node10" class="node">
<title>Node9</title>
<g id="a_node10"><a xlink:href="visibility__end_8h_source.html" target="_top" xlink:title="odp/visibility_end.h">
<polygon fill="#ffffff" stroke="#000000" points="102,-.5 102,-19.5 202,-19.5 202,-.5 102,-.5"/>
<text text-anchor="middle" x="152" y="-7.5" font-family="Helvetica,sans-Serif" font-size="10.00" fill="#000000">odp/visibility_end.h</text>
</a>
</g>
</g>
<!-- Node0&#45;&gt;Node9 -->
<g id="edge29" class="edge">
<title>Node0&#45;&gt;Node9</title>
<path fill="none" stroke="#191970" d="M173.9993,-454.8648C112.0599,-447.5855 0,-423.6817 0,-346 0,-346 0,-346 0,-122 0,-68.8635 60.9479,-38.1127 105.6564,-22.7035"/>
<polygon fill="#191970" stroke="#191970" points="106.8031,-26.0108 115.205,-19.5566 104.612,-19.3626 106.8031,-26.0108"/>
</g>
<!-- Node10 -->
<g id="node11" class="node">
<title>Node10</title>
<g id="a_node11"><a xlink:href="api_2packet_8h.html" target="_top" xlink:title="ODP packet descriptor. ">
<polygon fill="#ffffff" stroke="#000000" points="283.5,-392.5 283.5,-411.5 372.5,-411.5 372.5,-392.5 283.5,-392.5"/>
<text text-anchor="middle" x="328" y="-399.5" font-family="Helvetica,sans-Serif" font-size="10.00" fill="#000000">odp/api/packet.h</text>
</a>
</g>
</g>
<!-- Node0&#45;&gt;Node10 -->
<g id="edge13" class="edge">
<title>Node0&#45;&gt;Node10</title>
<path fill="none" stroke="#191970" d="M233.5973,-448.3733C251.7331,-439.4644 278.9135,-426.1127 299.4587,-416.0203"/>
<polygon fill="#191970" stroke="#191970" points="301.2261,-419.0517 308.6584,-411.5011 298.1397,-412.7688 301.2261,-419.0517"/>
</g>
<!-- Node3 -->
<g id="node4" class="node">
<title>Node3</title>
<polygon fill="#ffffff" stroke="#bfbfbf" points="286,-168.5 286,-187.5 404,-187.5 404,-168.5 286,-168.5"/>
<text text-anchor="middle" x="345" y="-175.5" font-family="Helvetica,sans-Serif" font-size="10.00" fill="#000000">odp/api/abi/std_types.h</text>
</g>
<!-- Node2&#45;&gt;Node3 -->
<g id="edge3" class="edge">
<title>Node2&#45;&gt;Node3</title>
<path fill="none" stroke="#191970" d="M229.0669,-224.3733C251.8428,-215.2629 286.2344,-201.5062 311.649,-191.3404"/>
<polygon fill="#191970" stroke="#191970" points="313.2623,-194.4648 321.2472,-187.5011 310.6625,-187.9654 313.2623,-194.4648"/>
</g>
<!-- Node4 -->
<g id="node5" class="node">
<title>Node4</title>
<g id="a_node5"><a xlink:href="api_2spec_2std__types_8h.html" target="_top" xlink:title="Standard C language types and definitions for ODP. ">
<polygon fill="#ffffff" stroke="#000000" points="142,-168.5 142,-187.5 268,-187.5 268,-168.5 142,-168.5"/>
<text text-anchor="middle" x="205" y="-175.5" font-family="Helvetica,sans-Serif" font-size="10.00" fill="#000000">odp/api/spec/std_types.h</text>
</a>
</g>
</g>
<!-- Node2&#45;&gt;Node4 -->
<g id="edge4" class="edge">
<title>Node2&#45;&gt;Node4</title>
<path fill="none" stroke="#191970" d="M205,-224.2455C205,-216.9382 205,-206.6944 205,-197.7046"/>
<polygon fill="#191970" stroke="#191970" points="208.5001,-197.6426 205,-187.6427 201.5001,-197.6427 208.5001,-197.6426"/>
</g>
<!-- Node4&#45;&gt;Node1 -->
<g id="edge5" class="edge">
<title>Node4&#45;&gt;Node1</title>
<path fill="none" stroke="#191970" d="M241.4749,-168.4223C268.6619,-160.5471 306.2454,-148.0779 337,-132 352.657,-123.8148 442.866,-56.6126 484.2544,-25.5891"/>
<polygon fill="#191970" stroke="#191970" points="486.4022,-28.3533 492.3009,-19.5524 482.2013,-22.754 486.4022,-28.3533"/>
</g>
<!-- Node5 -->
<g id="node6" class="node">
<title>Node5</title>
<polygon fill="#ffffff" stroke="#bfbfbf" points="180.5,-112.5 180.5,-131.5 229.5,-131.5 229.5,-112.5 180.5,-112.5"/>
<text text-anchor="middle" x="205" y="-119.5" font-family="Helvetica,sans-Serif" font-size="10.00" fill="#000000">stdint.h</text>
</g>
<!-- Node4&#45;&gt;Node5 -->
<g id="edge6" class="edge">
<title>Node4&#45;&gt;Node5</title>
<path fill="none" stroke="#191970" d="M205,-168.2455C205,-160.9382 205,-150.6944 205,-141.7046"/>
<polygon fill="#191970" stroke="#191970" points="208.5001,-141.6426 205,-131.6427 201.5001,-141.6427 208.5001,-141.6426"/>
</g>
<!-- Node6 -->
<g id="node7" class="node">
<title>Node6</title>
<g id="a_node7"><a xlink:href="api_2align_8h.html" target="_top" xlink:title="ODP alignments. ">
<polygon fill="#ffffff" stroke="#000000" points="248,-112.5 248,-131.5 328,-131.5 328,-112.5 248,-112.5"/>
<text text-anchor="middle" x="288" y="-119.5" font-family="Helvetica,sans-Serif" font-size="10.00" fill="#000000">odp/api/align.h</text>
</a>
</g>
</g>
<!-- Node4&#45;&gt;Node6 -->
<g id="edge7" class="edge">
<title>Node4&#45;&gt;Node6</title>
<path fill="none" stroke="#191970" d="M219.4575,-168.2455C232.0732,-159.7337 250.5944,-147.2375 265.2045,-137.3801"/>
<polygon fill="#191970" stroke="#191970" points="267.3761,-140.1371 273.7082,-131.6427 263.4609,-134.3343 267.3761,-140.1371"/>
</g>
<!-- Node4&#45;&gt;Node9 -->
<g id="edge12" class="edge">
<title>Node4&#45;&gt;Node9</title>
<path fill="none" stroke="#191970" d="M195.6046,-168.2897C187.7115,-159.5345 176.8156,-145.9295 171,-132 156.8122,-98.0175 153.1101,-54.7037 152.2096,-29.8859"/>
<polygon fill="#191970" stroke="#191970" points="155.7017,-29.5097 151.9621,-19.5968 148.7037,-29.6781 155.7017,-29.5097"/>
</g>
<!-- Node7 -->
<g id="node8" class="node">
<title>Node7</title>
<polygon fill="#ffffff" stroke="#bfbfbf" points="180.5,-56.5 180.5,-75.5 275.5,-75.5 275.5,-56.5 180.5,-56.5"/>
<text text-anchor="middle" x="228" y="-63.5" font-family="Helvetica,sans-Serif" font-size="10.00" fill="#000000">odp/api/abi/align.h</text>
</g>
<!-- Node6&#45;&gt;Node7 -->
<g id="edge8" class="edge">
<title>Node6&#45;&gt;Node7</title>
<path fill="none" stroke="#191970" d="M277.5488,-112.2455C268.7731,-104.0549 256.0446,-92.1749 245.686,-82.5069"/>
<polygon fill="#191970" stroke="#191970" points="248.0301,-79.9072 238.3314,-75.6427 243.2539,-85.0246 248.0301,-79.9072"/>
</g>
<!-- Node8 -->
<g id="node9" class="node">
<title>Node8</title>
<g id="a_node9"><a xlink:href="api_2spec_2align_8h.html" target="_top" xlink:title="ODP alignments. ">
<polygon fill="#ffffff" stroke="#000000" points="294,-56.5 294,-75.5 398,-75.5 398,-56.5 294,-56.5"/>
<text text-anchor="middle" x="346" y="-63.5" font-family="Helvetica,sans-Serif" font-size="10.00" fill="#000000">odp/api/spec/align.h</text>
</a>
</g>
</g>
<!-- Node6&#45;&gt;Node8 -->
<g id="edge9" class="edge">
<title>Node6&#45;&gt;Node8</title>
<path fill="none" stroke="#191970" d="M298.1028,-112.2455C306.5028,-104.1352 318.6494,-92.4075 328.6084,-82.7919"/>
<polygon fill="#191970" stroke="#191970" points="331.25,-85.1066 336.0129,-75.6427 326.3878,-80.0707 331.25,-85.1066"/>
</g>
<!-- Node8&#45;&gt;Node1 -->
<g id="edge10" class="edge">
<title>Node8&#45;&gt;Node1</title>
<path fill="none" stroke="#191970" d="M373.3331,-56.3733C399.5434,-47.1419 439.2984,-33.1402 468.2668,-22.9375"/>
<polygon fill="#191970" stroke="#191970" points="469.7542,-26.1244 478.0236,-19.5011 467.4288,-19.5219 469.7542,-26.1244"/>
</g>
<!-- Node8&#45;&gt;Node9 -->
<g id="edge11" class="edge">
<title>Node8&#45;&gt;Node9</title>
<path fill="none" stroke="#191970" d="M312.6502,-56.3733C279.972,-46.9404 230.0382,-32.5265 194.523,-22.2747"/>
<polygon fill="#191970" stroke="#191970" points="195.493,-18.9119 184.9146,-19.5011 193.5516,-25.6373 195.493,-18.9119"/>
</g>
<!-- Node10&#45;&gt;Node2 -->
<g id="edge14" class="edge">
<title>Node10&#45;&gt;Node2</title>
<path fill="none" stroke="#191970" d="M283.2915,-399.7217C222.4271,-395.5776 118.3658,-384.4299 95,-356 61.766,-315.5633 132.7229,-270.4009 175.558,-248.0725"/>
<polygon fill="#191970" stroke="#191970" points="177.152,-251.1885 184.4806,-243.5372 173.9801,-244.9484 177.152,-251.1885"/>
</g>
<!-- Node11 -->
<g id="node12" class="node">
<title>Node11</title>
<polygon fill="#ffffff" stroke="#bfbfbf" points="215.5,-336.5 215.5,-355.5 314.5,-355.5 314.5,-336.5 215.5,-336.5"/>
<text text-anchor="middle" x="265" y="-343.5" font-family="Helvetica,sans-Serif" font-size="10.00" fill="#000000">odp/api/abi/event.h</text>
</g>
<!-- Node10&#45;&gt;Node11 -->
<g id="edge15" class="edge">
<title>Node10&#45;&gt;Node11</title>
<path fill="none" stroke="#191970" d="M317.0262,-392.2455C307.8118,-384.0549 294.4468,-372.1749 283.5703,-362.5069"/>
<polygon fill="#191970" stroke="#191970" points="285.6474,-359.6704 275.848,-355.6427 280.9968,-364.9023 285.6474,-359.6704"/>
</g>
<!-- Node12 -->
<g id="node13" class="node">
<title>Node12</title>
<polygon fill="#ffffff" stroke="#bfbfbf" points="332.5,-336.5 332.5,-355.5 449.5,-355.5 449.5,-336.5 332.5,-336.5"/>
<text text-anchor="middle" x="391" y="-343.5" font-family="Helvetica,sans-Serif" font-size="10.00" fill="#000000">odp/api/abi/packet_io.h</text>
</g>
<!-- Node10&#45;&gt;Node12 -->
<g id="edge16" class="edge">
<title>Node10&#45;&gt;Node12</title>
<path fill="none" stroke="#191970" d="M338.9738,-392.2455C348.1882,-384.0549 361.5532,-372.1749 372.4297,-362.5069"/>
<polygon fill="#191970" stroke="#191970" points="375.0032,-364.9023 380.152,-355.6427 370.3526,-359.6704 375.0032,-364.9023"/>
</g>
<!-- Node13 -->
<g id="node14" class="node">
<title>Node13</title>
<polygon fill="#ffffff" stroke="#bfbfbf" points="599,-336.5 599,-355.5 703,-355.5 703,-336.5 599,-336.5"/>
<text text-anchor="middle" x="651" y="-343.5" font-family="Helvetica,sans-Serif" font-size="10.00" fill="#000000">odp/api/abi/packet.h</text>
</g>
<!-- Node10&#45;&gt;Node13 -->
<g id="edge17" class="edge">
<title>Node10&#45;&gt;Node13</title>
<path fill="none" stroke="#191970" d="M372.5726,-394.2722C428.754,-384.5318 525.6246,-367.7369 589.0007,-356.7491"/>
<polygon fill="#191970" stroke="#191970" points="589.6181,-360.1944 598.8732,-355.0375 588.4223,-353.2973 589.6181,-360.1944"/>
</g>
<!-- Node14 -->
<g id="node15" class="node">
<title>Node14</title>
<polygon fill="#ffffff" stroke="#bfbfbf" points="721,-336.5 721,-355.5 821,-355.5 821,-336.5 721,-336.5"/>
<text text-anchor="middle" x="771" y="-343.5" font-family="Helvetica,sans-Serif" font-size="10.00" fill="#000000">odp/api/abi/buffer.h</text>
</g>
<!-- Node10&#45;&gt;Node14 -->
<g id="edge18" class="edge">
<title>Node10&#45;&gt;Node14</title>
<path fill="none" stroke="#191970" d="M372.7308,-397.3561C442.6318,-389.9426 582.2396,-374.5087 710.7909,-356.12"/>
<polygon fill="#191970" stroke="#191970" points="711.415,-359.5664 720.8141,-354.6769 710.4174,-352.6378 711.415,-359.5664"/>
</g>
<!-- Node15 -->
<g id="node16" class="node">
<title>Node15</title>
<polygon fill="#ffffff" stroke="#bfbfbf" points="104.5,-336.5 104.5,-355.5 197.5,-355.5 197.5,-336.5 104.5,-336.5"/>
<text text-anchor="middle" x="151" y="-343.5" font-family="Helvetica,sans-Serif" font-size="10.00" fill="#000000">odp/api/abi/pool.h</text>
</g>
<!-- Node10&#45;&gt;Node15 -->
<g id="edge19" class="edge">
<title>Node10&#45;&gt;Node15</title>
<path fill="none" stroke="#191970" d="M297.5726,-392.3733C268.0128,-383.021 222.9774,-368.7725 190.6305,-358.5385"/>
<polygon fill="#191970" stroke="#191970" points="191.6203,-355.1807 181.0303,-355.5011 189.5087,-361.8546 191.6203,-355.1807"/>
</g>
<!-- Node16 -->
<g id="node17" class="node">
<title>Node16</title>
<g id="a_node17"><a xlink:href="api_2spec_2packet_8h.html" target="_top" xlink:title="ODP packet descriptor. ">
<polygon fill="#ffffff" stroke="#000000" points="467.5,-336.5 467.5,-355.5 580.5,-355.5 580.5,-336.5 467.5,-336.5"/>
<text text-anchor="middle" x="524" y="-343.5" font-family="Helvetica,sans-Serif" font-size="10.00" fill="#000000">odp/api/spec/packet.h</text>
</a>
</g>
</g>
<!-- Node10&#45;&gt;Node16 -->
<g id="edge20" class="edge">
<title>Node10&#45;&gt;Node16</title>
<path fill="none" stroke="#191970" d="M361.6936,-392.3733C394.7087,-382.9404 445.1573,-368.5265 481.0386,-358.2747"/>
<polygon fill="#191970" stroke="#191970" points="482.0924,-361.6137 490.7461,-355.5011 480.1693,-354.8831 482.0924,-361.6137"/>
</g>
<!-- Node16&#45;&gt;Node1 -->
<g id="edge21" class="edge">
<title>Node16&#45;&gt;Node1</title>
<path fill="none" stroke="#191970" d="M533.375,-336.4412C550.25,-318.1765 584,-276.353 584,-234 584,-234 584,-234 584,-122 584,-91.4754 582.1979,-81.2188 565,-56 556.4551,-43.4699 543.4005,-32.8796 531.6479,-25.0308"/>
<polygon fill="#191970" stroke="#191970" points="533.3347,-21.9566 523.0107,-19.5764 529.5971,-27.8752 533.3347,-21.9566"/>
</g>
<!-- Node16&#45;&gt;Node9 -->
<g id="edge28" class="edge">
<title>Node16&#45;&gt;Node9</title>
<path fill="none" stroke="#191970" d="M467.4217,-336.4608C354.948,-316.7192 114,-270.2025 114,-234 114,-234 114,-234 114,-122 114,-87.6118 130.2634,-50.2832 141.511,-28.5791"/>
<polygon fill="#191970" stroke="#191970" points="144.7317,-29.9804 146.393,-19.5166 138.569,-26.6605 144.7317,-29.9804"/>
</g>
<!-- Node17 -->
<g id="node18" class="node">
<title>Node17</title>
<g id="a_node18"><a xlink:href="api_2time_8h.html" target="_top" xlink:title="ODP time. ">
<polygon fill="#ffffff" stroke="#000000" points="429,-280.5 429,-299.5 507,-299.5 507,-280.5 429,-280.5"/>
<text text-anchor="middle" x="468" y="-287.5" font-family="Helvetica,sans-Serif" font-size="10.00" fill="#000000">odp/api/time.h</text>
</a>
</g>
</g>
<!-- Node16&#45;&gt;Node17 -->
<g id="edge22" class="edge">
<title>Node16&#45;&gt;Node17</title>
<path fill="none" stroke="#191970" d="M514.2455,-336.2455C506.1352,-328.1352 494.4075,-316.4075 484.7919,-306.7919"/>
<polygon fill="#191970" stroke="#191970" points="487.1887,-304.2389 477.6427,-299.6427 482.2389,-309.1887 487.1887,-304.2389"/>
</g>
<!-- Node17&#45;&gt;Node2 -->
<g id="edge23" class="edge">
<title>Node17&#45;&gt;Node2</title>
<path fill="none" stroke="#191970" d="M428.9102,-281.6767C384.1042,-272.1363 310.3554,-256.4331 259.8234,-245.6734"/>
<polygon fill="#191970" stroke="#191970" points="260.5516,-242.2501 250.042,-243.5907 259.0938,-249.0966 260.5516,-242.2501"/>
</g>
<!-- Node18 -->
<g id="node19" class="node">
<title>Node18</title>
<polygon fill="#ffffff" stroke="#bfbfbf" points="383,-224.5 383,-243.5 477,-243.5 477,-224.5 383,-224.5"/>
<text text-anchor="middle" x="430" y="-231.5" font-family="Helvetica,sans-Serif" font-size="10.00" fill="#000000">odp/api/abi/time.h</text>
</g>
<!-- Node17&#45;&gt;Node18 -->
<g id="edge24" class="edge">
<title>Node17&#45;&gt;Node18</title>
<path fill="none" stroke="#191970" d="M461.3809,-280.2455C456.0954,-272.4564 448.5459,-261.3308 442.1762,-251.9439"/>
<polygon fill="#191970" stroke="#191970" points="445.0545,-249.9522 436.5432,-243.6427 439.2621,-253.8827 445.0545,-249.9522"/>
</g>
<!-- Node19 -->
<g id="node20" class="node">
<title>Node19</title>
<g id="a_node20"><a xlink:href="api_2spec_2time_8h.html" target="_top" xlink:title="ODP time. ">
<polygon fill="#ffffff" stroke="#000000" points="454,-56.5 454,-75.5 556,-75.5 556,-56.5 454,-56.5"/>
<text text-anchor="middle" x="505" y="-63.5" font-family="Helvetica,sans-Serif" font-size="10.00" fill="#000000">odp/api/spec/time.h</text>
</a>
</g>
</g>
<!-- Node17&#45;&gt;Node19 -->
<g id="edge25" class="edge">
<title>Node17&#45;&gt;Node19</title>
<path fill="none" stroke="#191970" d="M472.6403,-280.3755C476.8349,-271.2345 482.8243,-256.9958 486,-244 499.7263,-187.8276 503.5366,-119.28 504.594,-86.019"/>
<polygon fill="#191970" stroke="#191970" points="508.0985,-85.8931 504.865,-75.8038 501.1009,-85.7075 508.0985,-85.8931"/>
</g>
<!-- Node19&#45;&gt;Node1 -->
<g id="edge26" class="edge">
<title>Node19&#45;&gt;Node1</title>
<path fill="none" stroke="#191970" d="M505,-56.2455C505,-48.9382 505,-38.6944 505,-29.7046"/>
<polygon fill="#191970" stroke="#191970" points="508.5001,-29.6426 505,-19.6427 501.5001,-29.6427 508.5001,-29.6426"/>
</g>
<!-- Node19&#45;&gt;Node9 -->
<g id="edge27" class="edge">
<title>Node19&#45;&gt;Node9</title>
<path fill="none" stroke="#191970" d="M453.6708,-57.8571C389.6485,-47.7006 280.3564,-30.3625 212.3787,-19.5785"/>
<polygon fill="#191970" stroke="#191970" points="212.6731,-16.0815 202.2482,-17.9714 211.5763,-22.9951 212.6731,-16.0815"/>
</g>
</g>
</svg>
