<?xml version="1.0" encoding="UTF-8" standalone="no"?>
<!DOCTYPE svg PUBLIC "-//W3C//DTD SVG 1.1//EN"
 "http://www.w3.org/Graphics/SVG/1.1/DTD/svg11.dtd">
<!-- Generated by graphviz version 2.40.1 (20161225.0304)
 -->
<!-- Title: hash.h Pages: 1 -->
<svg width="445pt" height="252pt"
 viewBox="0.00 0.00 444.50 252.00" xmlns="http://www.w3.org/2000/svg" xmlns:xlink="http://www.w3.org/1999/xlink">
<g id="graph0" class="graph" transform="scale(1 1) rotate(0) translate(4 248)">
<title>hash.h</title>
<polygon fill="#ffffff" stroke="transparent" points="-4,4 -4,-248 440.5,-248 440.5,4 -4,4"/>
<!-- Node1 -->
<g id="node1" class="node">
<title>Node1</title>
<polygon fill="#bfbfbf" stroke="#000000" points="192,-224.5 192,-243.5 238,-243.5 238,-224.5 192,-224.5"/>
<text text-anchor="middle" x="215" y="-231.5" font-family="Helvetica,sans-Serif" font-size="10.00" fill="#000000">hash.h</text>
</g>
<!-- Node2 -->
<g id="node2" class="node">
<title>Node2</title>
<g id="a_node2"><a xlink:href="arch_2arm32-linux_2odp_2api_2abi_2hash_8h_source.html" target="_top" xlink:title="hash.h">
<polygon fill="#ffffff" stroke="#000000" points="0,-168.5 0,-187.5 46,-187.5 46,-168.5 0,-168.5"/>
<text text-anchor="middle" x="23" y="-175.5" font-family="Helvetica,sans-Serif" font-size="10.00" fill="#000000">hash.h</text>
</a>
</g>
</g>
<!-- Node1&#45;&gt;Node2 -->
<g id="edge1" class="edge">
<title>Node1&#45;&gt;Node2</title>
<path fill="none" stroke="#191970" d="M182.0623,-224.7687C149.6686,-215.6338 98.8413,-201.1505 55,-188 52.1009,-187.1304 49.0593,-186.2015 46.0527,-185.2732"/>
<polygon fill="#191970" stroke="#191970" points="181.3255,-228.1973 191.8998,-227.5382 183.2225,-221.4592 181.3255,-228.1973"/>
</g>
<!-- Node3 -->
<g id="node3" class="node">
<title>Node3</title>
<g id="a_node3"><a xlink:href="arch_2arm64-linux_2odp_2api_2abi_2hash_8h_source.html" target="_top" xlink:title="hash.h">
<polygon fill="#ffffff" stroke="#000000" points="64,-168.5 64,-187.5 110,-187.5 110,-168.5 64,-168.5"/>
<text text-anchor="middle" x="87" y="-175.5" font-family="Helvetica,sans-Serif" font-size="10.00" fill="#000000">hash.h</text>
</a>
</g>
</g>
<!-- Node1&#45;&gt;Node3 -->
<g id="edge2" class="edge">
<title>Node1&#45;&gt;Node3</title>
<path fill="none" stroke="#191970" d="M183.5652,-220.2473C160.3191,-210.0771 129.2589,-196.4883 108.7169,-187.5011"/>
<polygon fill="#191970" stroke="#191970" points="182.4315,-223.5716 192.996,-224.3733 185.2373,-217.1585 182.4315,-223.5716"/>
</g>
<!-- Node4 -->
<g id="node4" class="node">
<title>Node4</title>
<g id="a_node4"><a xlink:href="arch_2default-linux_2odp_2api_2abi_2hash_8h_source.html" target="_top" xlink:title="hash.h">
<polygon fill="#ffffff" stroke="#000000" points="128,-168.5 128,-187.5 174,-187.5 174,-168.5 128,-168.5"/>
<text text-anchor="middle" x="151" y="-175.5" font-family="Helvetica,sans-Serif" font-size="10.00" fill="#000000">hash.h</text>
</a>
</g>
</g>
<!-- Node1&#45;&gt;Node4 -->
<g id="edge3" class="edge">
<title>Node1&#45;&gt;Node4</title>
<path fill="none" stroke="#191970" d="M196.3086,-217.645C185.1781,-207.9058 171.4337,-195.8795 162.0202,-187.6427"/>
<polygon fill="#191970" stroke="#191970" points="194.0215,-220.2945 203.8521,-224.2455 198.631,-215.0264 194.0215,-220.2945"/>
</g>
<!-- Node5 -->
<g id="node5" class="node">
<title>Node5</title>
<g id="a_node5"><a xlink:href="arch_2mips64-linux_2odp_2api_2abi_2hash_8h_source.html" target="_top" xlink:title="hash.h">
<polygon fill="#ffffff" stroke="#000000" points="192,-168.5 192,-187.5 238,-187.5 238,-168.5 192,-168.5"/>
<text text-anchor="middle" x="215" y="-175.5" font-family="Helvetica,sans-Serif" font-size="10.00" fill="#000000">hash.h</text>
</a>
</g>
</g>
<!-- Node1&#45;&gt;Node5 -->
<g id="edge4" class="edge">
<title>Node1&#45;&gt;Node5</title>
<path fill="none" stroke="#191970" d="M215,-214.1575C215,-205.155 215,-194.9199 215,-187.6427"/>
<polygon fill="#191970" stroke="#191970" points="211.5001,-214.2455 215,-224.2455 218.5001,-214.2456 211.5001,-214.2455"/>
</g>
<!-- Node6 -->
<g id="node6" class="node">
<title>Node6</title>
<g id="a_node6"><a xlink:href="arch_2power64-linux_2odp_2api_2abi_2hash_8h_source.html" target="_top" xlink:title="hash.h">
<polygon fill="#ffffff" stroke="#000000" points="256,-168.5 256,-187.5 302,-187.5 302,-168.5 256,-168.5"/>
<text text-anchor="middle" x="279" y="-175.5" font-family="Helvetica,sans-Serif" font-size="10.00" fill="#000000">hash.h</text>
</a>
</g>
</g>
<!-- Node1&#45;&gt;Node6 -->
<g id="edge5" class="edge">
<title>Node1&#45;&gt;Node6</title>
<path fill="none" stroke="#191970" d="M233.6914,-217.645C244.8219,-207.9058 258.5663,-195.8795 267.9798,-187.6427"/>
<polygon fill="#191970" stroke="#191970" points="231.369,-215.0264 226.1479,-224.2455 235.9785,-220.2945 231.369,-215.0264"/>
</g>
<!-- Node7 -->
<g id="node7" class="node">
<title>Node7</title>
<g id="a_node7"><a xlink:href="arch_2x86__32-linux_2odp_2api_2abi_2hash_8h_source.html" target="_top" xlink:title="hash.h">
<polygon fill="#ffffff" stroke="#000000" points="320,-168.5 320,-187.5 366,-187.5 366,-168.5 320,-168.5"/>
<text text-anchor="middle" x="343" y="-175.5" font-family="Helvetica,sans-Serif" font-size="10.00" fill="#000000">hash.h</text>
</a>
</g>
</g>
<!-- Node1&#45;&gt;Node7 -->
<g id="edge6" class="edge">
<title>Node1&#45;&gt;Node7</title>
<path fill="none" stroke="#191970" d="M246.4348,-220.2473C269.6809,-210.0771 300.7411,-196.4883 321.2831,-187.5011"/>
<polygon fill="#191970" stroke="#191970" points="244.7627,-217.1585 237.004,-224.3733 247.5685,-223.5716 244.7627,-217.1585"/>
</g>
<!-- Node8 -->
<g id="node8" class="node">
<title>Node8</title>
<g id="a_node8"><a xlink:href="arch_2x86__64-linux_2odp_2api_2abi_2hash_8h_source.html" target="_top" xlink:title="hash.h">
<polygon fill="#ffffff" stroke="#000000" points="384,-168.5 384,-187.5 430,-187.5 430,-168.5 384,-168.5"/>
<text text-anchor="middle" x="407" y="-175.5" font-family="Helvetica,sans-Serif" font-size="10.00" fill="#000000">hash.h</text>
</a>
</g>
</g>
<!-- Node1&#45;&gt;Node8 -->
<g id="edge7" class="edge">
<title>Node1&#45;&gt;Node8</title>
<path fill="none" stroke="#191970" d="M247.9377,-224.7687C280.3314,-215.6338 331.1587,-201.1505 375,-188 377.8991,-187.1304 380.9407,-186.2015 383.9473,-185.2732"/>
<polygon fill="#191970" stroke="#191970" points="246.7775,-221.4592 238.1002,-227.5382 248.6745,-228.1973 246.7775,-221.4592"/>
</g>
<!-- Node9 -->
<g id="node9" class="node">
<title>Node9</title>
<g id="a_node9"><a xlink:href="api_2hash_8h.html" target="_top" xlink:title="ODP Hash function. ">
<polygon fill="#ffffff" stroke="#000000" points="384,-112.5 384,-131.5 430,-131.5 430,-112.5 384,-112.5"/>
<text text-anchor="middle" x="407" y="-119.5" font-family="Helvetica,sans-Serif" font-size="10.00" fill="#000000">hash.h</text>
</a>
</g>
</g>
<!-- Node8&#45;&gt;Node9 -->
<g id="edge8" class="edge">
<title>Node8&#45;&gt;Node9</title>
<path fill="none" stroke="#191970" d="M407,-158.1575C407,-149.155 407,-138.9199 407,-131.6427"/>
<polygon fill="#191970" stroke="#191970" points="403.5001,-158.2455 407,-168.2455 410.5001,-158.2456 403.5001,-158.2455"/>
</g>
<!-- Node10 -->
<g id="node10" class="node">
<title>Node10</title>
<g id="a_node10"><a xlink:href="odp__api_8h.html" target="_top" xlink:title="The OpenDataPlane API. ">
<polygon fill="#ffffff" stroke="#000000" points="377.5,-56.5 377.5,-75.5 436.5,-75.5 436.5,-56.5 377.5,-56.5"/>
<text text-anchor="middle" x="407" y="-63.5" font-family="Helvetica,sans-Serif" font-size="10.00" fill="#000000">odp_api.h</text>
</a>
</g>
</g>
<!-- Node9&#45;&gt;Node10 -->
<g id="edge9" class="edge">
<title>Node9&#45;&gt;Node10</title>
<path fill="none" stroke="#191970" d="M407,-102.1575C407,-93.155 407,-82.9199 407,-75.6427"/>
<polygon fill="#191970" stroke="#191970" points="403.5001,-102.2455 407,-112.2455 410.5001,-102.2456 403.5001,-102.2455"/>
</g>
<!-- Node11 -->
<g id="node11" class="node">
<title>Node11</title>
<g id="a_node11"><a xlink:href="odp_8h.html" target="_top" xlink:title="WARNING: THIS FILE IS DEPRECATED AND WILL BE REMOVED!!! ODP APPLICATIONS SHOULD NOW INCLUDE odp_api...">
<polygon fill="#ffffff" stroke="#000000" points="386.5,-.5 386.5,-19.5 427.5,-19.5 427.5,-.5 386.5,-.5"/>
<text text-anchor="middle" x="407" y="-7.5" font-family="Helvetica,sans-Serif" font-size="10.00" fill="#000000">odp.h</text>
</a>
</g>
</g>
<!-- Node10&#45;&gt;Node11 -->
<g id="edge10" class="edge">
<title>Node10&#45;&gt;Node11</title>
<path fill="none" stroke="#191970" d="M407,-46.1575C407,-37.155 407,-26.9199 407,-19.6427"/>
<polygon fill="#191970" stroke="#191970" points="403.5001,-46.2455 407,-56.2455 410.5001,-46.2456 403.5001,-46.2455"/>
</g>
</g>
</svg>
