<?xml version="1.0" encoding="UTF-8" standalone="no"?>
<!DOCTYPE svg PUBLIC "-//W3C//DTD SVG 1.1//EN"
 "http://www.w3.org/Graphics/SVG/1.1/DTD/svg11.dtd">
<!-- Generated by graphviz version 2.40.1 (20161225.0304)
 -->
<!-- Title: thread.h Pages: 1 -->
<svg width="414pt" height="151pt"
 viewBox="0.00 0.00 414.00 151.00" xmlns="http://www.w3.org/2000/svg" xmlns:xlink="http://www.w3.org/1999/xlink">
<g id="graph0" class="graph" transform="scale(1 1) rotate(0) translate(4 147)">
<title>thread.h</title>
<polygon fill="#ffffff" stroke="transparent" points="-4,4 -4,-147 410,-147 410,4 -4,4"/>
<!-- Node0 -->
<g id="node1" class="node">
<title>Node0</title>
<polygon fill="#bfbfbf" stroke="#000000" points="145,-123.5 145,-142.5 197,-142.5 197,-123.5 145,-123.5"/>
<text text-anchor="middle" x="171" y="-130.5" font-family="Helvetica,sans-Serif" font-size="10.00" fill="#000000">thread.h</text>
</g>
<!-- Node1 -->
<g id="node2" class="node">
<title>Node1</title>
<g id="a_node2"><a xlink:href="thread__types_8h.html" target="_top" xlink:title="ODP thread API types. ">
<polygon fill="#ffffff" stroke="#000000" points="0,-56.5 0,-86.5 102,-86.5 102,-56.5 0,-56.5"/>
<text text-anchor="start" x="8" y="-74.5" font-family="Helvetica,sans-Serif" font-size="10.00" fill="#000000">odp/api/spec/thread</text>
<text text-anchor="middle" x="51" y="-63.5" font-family="Helvetica,sans-Serif" font-size="10.00" fill="#000000">_types.h</text>
</a>
</g>
</g>
<!-- Node0&#45;&gt;Node1 -->
<g id="edge1" class="edge">
<title>Node0&#45;&gt;Node1</title>
<path fill="none" stroke="#191970" d="M152.25,-123.3906C135.4831,-114.7976 110.3866,-101.9356 89.3748,-91.1671"/>
<polygon fill="#191970" stroke="#191970" points="90.851,-87.9908 80.3553,-86.5446 87.6583,-94.2203 90.851,-87.9908"/>
</g>
<!-- Node2 -->
<g id="node3" class="node">
<title>Node2</title>
<polygon fill="#ffffff" stroke="#bfbfbf" points="120,-62 120,-81 222,-81 222,-62 120,-62"/>
<text text-anchor="middle" x="171" y="-69" font-family="Helvetica,sans-Serif" font-size="10.00" fill="#000000">odp/api/abi/thread.h</text>
</g>
<!-- Node0&#45;&gt;Node2 -->
<g id="edge2" class="edge">
<title>Node0&#45;&gt;Node2</title>
<path fill="none" stroke="#191970" d="M171,-123.3906C171,-114.8657 171,-102.1392 171,-91.4235"/>
<polygon fill="#191970" stroke="#191970" points="174.5001,-91.2448 171,-81.2449 167.5001,-91.2449 174.5001,-91.2448"/>
</g>
<!-- Node3 -->
<g id="node4" class="node">
<title>Node3</title>
<g id="a_node4"><a xlink:href="api_2spec_2thread_8h.html" target="_top" xlink:title="ODP thread API. ">
<polygon fill="#ffffff" stroke="#000000" points="240,-62 240,-81 350,-81 350,-62 240,-62"/>
<text text-anchor="middle" x="295" y="-69" font-family="Helvetica,sans-Serif" font-size="10.00" fill="#000000">odp/api/spec/thread.h</text>
</a>
</g>
</g>
<!-- Node0&#45;&gt;Node3 -->
<g id="edge3" class="edge">
<title>Node0&#45;&gt;Node3</title>
<path fill="none" stroke="#191970" d="M190.375,-123.3906C210.8495,-113.2359 243.3442,-97.1196 266.6885,-85.5416"/>
<polygon fill="#191970" stroke="#191970" points="268.3575,-88.6207 275.7611,-81.0419 265.2472,-82.3496 268.3575,-88.6207"/>
</g>
<!-- Node4 -->
<g id="node5" class="node">
<title>Node4</title>
<g id="a_node5"><a xlink:href="visibility__begin_8h_source.html" target="_top" xlink:title="odp/visibility_begin.h">
<polygon fill="#ffffff" stroke="#000000" points="180.5,-.5 180.5,-19.5 287.5,-19.5 287.5,-.5 180.5,-.5"/>
<text text-anchor="middle" x="234" y="-7.5" font-family="Helvetica,sans-Serif" font-size="10.00" fill="#000000">odp/visibility_begin.h</text>
</a>
</g>
</g>
<!-- Node3&#45;&gt;Node4 -->
<g id="edge4" class="edge">
<title>Node3&#45;&gt;Node4</title>
<path fill="none" stroke="#191970" d="M285.4688,-61.8906C276.2121,-52.5581 261.961,-38.1902 250.7997,-26.9374"/>
<polygon fill="#191970" stroke="#191970" points="253.1928,-24.38 243.6656,-19.7449 248.2228,-29.3095 253.1928,-24.38"/>
</g>
<!-- Node5 -->
<g id="node6" class="node">
<title>Node5</title>
<g id="a_node6"><a xlink:href="visibility__end_8h_source.html" target="_top" xlink:title="odp/visibility_end.h">
<polygon fill="#ffffff" stroke="#000000" points="306,-.5 306,-19.5 406,-19.5 406,-.5 306,-.5"/>
<text text-anchor="middle" x="356" y="-7.5" font-family="Helvetica,sans-Serif" font-size="10.00" fill="#000000">odp/visibility_end.h</text>
</a>
</g>
</g>
<!-- Node3&#45;&gt;Node5 -->
<g id="edge5" class="edge">
<title>Node3&#45;&gt;Node5</title>
<path fill="none" stroke="#191970" d="M304.5313,-61.8906C313.7879,-52.5581 328.039,-38.1902 339.2003,-26.9374"/>
<polygon fill="#191970" stroke="#191970" points="341.7772,-29.3095 346.3344,-19.7449 336.8072,-24.38 341.7772,-29.3095"/>
</g>
</g>
</svg>
