<?xml version="1.0" encoding="UTF-8" standalone="no"?>
<!DOCTYPE svg PUBLIC "-//W3C//DTD SVG 1.1//EN"
 "http://www.w3.org/Graphics/SVG/1.1/DTD/svg11.dtd">
<!-- Generated by graphviz version 2.40.1 (20161225.0304)
 -->
<!-- Title: packet.h Pages: 1 -->
<svg width="675pt" height="756pt"
 viewBox="0.00 0.00 675.00 756.00" xmlns="http://www.w3.org/2000/svg" xmlns:xlink="http://www.w3.org/1999/xlink">
<g id="graph0" class="graph" transform="scale(1 1) rotate(0) translate(4 752)">
<title>packet.h</title>
<polygon fill="#ffffff" stroke="transparent" points="-4,4 -4,-752 671,-752 671,4 -4,4"/>
<!-- Node13 -->
<g id="node1" class="node">
<title>Node13</title>
<polygon fill="#bfbfbf" stroke="#000000" points="237,-728.5 237,-747.5 291,-747.5 291,-728.5 237,-728.5"/>
<text text-anchor="middle" x="264" y="-735.5" font-family="Helvetica,sans-Serif" font-size="10.00" fill="#000000">packet.h</text>
</g>
<!-- Node14 -->
<g id="node2" class="node">
<title>Node14</title>
<g id="a_node2"><a xlink:href="api_2packet_8h.html" target="_top" xlink:title="ODP packet descriptor. ">
<polygon fill="#ffffff" stroke="#000000" points="237,-672.5 237,-691.5 291,-691.5 291,-672.5 237,-672.5"/>
<text text-anchor="middle" x="264" y="-679.5" font-family="Helvetica,sans-Serif" font-size="10.00" fill="#000000">packet.h</text>
</a>
</g>
</g>
<!-- Node13&#45;&gt;Node14 -->
<g id="edge1" class="edge">
<title>Node13&#45;&gt;Node14</title>
<path fill="none" stroke="#191970" d="M264,-718.1575C264,-709.155 264,-698.9199 264,-691.6427"/>
<polygon fill="#191970" stroke="#191970" points="260.5001,-718.2455 264,-728.2455 267.5001,-718.2456 260.5001,-718.2455"/>
</g>
<!-- Node15 -->
<g id="node3" class="node">
<title>Node15</title>
<g id="a_node3"><a xlink:href="api_2spec_2comp_8h.html" target="_top" xlink:title="ODP Compression. ">
<polygon fill="#ffffff" stroke="#000000" points="46.5,-616.5 46.5,-635.5 95.5,-635.5 95.5,-616.5 46.5,-616.5"/>
<text text-anchor="middle" x="71" y="-623.5" font-family="Helvetica,sans-Serif" font-size="10.00" fill="#000000">comp.h</text>
</a>
</g>
</g>
<!-- Node14&#45;&gt;Node15 -->
<g id="edge2" class="edge">
<title>Node14&#45;&gt;Node15</title>
<path fill="none" stroke="#191970" d="M226.935,-671.2454C188.3128,-660.0389 128.8873,-642.7963 95.6596,-633.1551"/>
<polygon fill="#191970" stroke="#191970" points="226.1779,-674.67 236.7572,-674.0953 228.1286,-667.9473 226.1779,-674.67"/>
</g>
<!-- Node17 -->
<g id="node5" class="node">
<title>Node17</title>
<g id="a_node5"><a xlink:href="odp__api_8h.html" target="_top" xlink:title="The OpenDataPlane API. ">
<polygon fill="#ffffff" stroke="#000000" points="219.5,-56.5 219.5,-75.5 278.5,-75.5 278.5,-56.5 219.5,-56.5"/>
<text text-anchor="middle" x="249" y="-63.5" font-family="Helvetica,sans-Serif" font-size="10.00" fill="#000000">odp_api.h</text>
</a>
</g>
</g>
<!-- Node14&#45;&gt;Node17 -->
<g id="edge39" class="edge">
<title>Node14&#45;&gt;Node17</title>
<path fill="none" stroke="#191970" d="M226.5838,-678.2189C170.1721,-671.8965 66.7634,-657.696 37,-636 9.8252,-616.191 0,-603.6283 0,-570 0,-570 0,-570 0,-178 0,-139.2415 23.8927,-132.1526 57,-112 108.3846,-80.722 179.5512,-70.7102 219.2274,-67.5066"/>
<polygon fill="#191970" stroke="#191970" points="226.5519,-681.7362 236.8729,-679.3431 227.3122,-674.7776 226.5519,-681.7362"/>
</g>
<!-- Node19 -->
<g id="node7" class="node">
<title>Node19</title>
<g id="a_node7"><a xlink:href="api_2spec_2crypto_8h.html" target="_top" xlink:title="ODP crypto. ">
<polygon fill="#ffffff" stroke="#000000" points="258,-448.5 258,-467.5 310,-467.5 310,-448.5 258,-448.5"/>
<text text-anchor="middle" x="284" y="-455.5" font-family="Helvetica,sans-Serif" font-size="10.00" fill="#000000">crypto.h</text>
</a>
</g>
</g>
<!-- Node14&#45;&gt;Node19 -->
<g id="edge6" class="edge">
<title>Node14&#45;&gt;Node19</title>
<path fill="none" stroke="#191970" d="M265.7489,-662.4119C269.879,-616.1557 280.1166,-501.494 283.1438,-467.5891"/>
<polygon fill="#191970" stroke="#191970" points="262.2627,-662.1033 264.8594,-672.375 269.2349,-662.7259 262.2627,-662.1033"/>
</g>
<!-- Node23 -->
<g id="node11" class="node">
<title>Node23</title>
<g id="a_node11"><a xlink:href="api_2spec_2event_8h.html" target="_top" xlink:title="ODP event. ">
<polygon fill="#ffffff" stroke="#000000" points="177.5,-616.5 177.5,-635.5 226.5,-635.5 226.5,-616.5 177.5,-616.5"/>
<text text-anchor="middle" x="202" y="-623.5" font-family="Helvetica,sans-Serif" font-size="10.00" fill="#000000">event.h</text>
</a>
</g>
</g>
<!-- Node14&#45;&gt;Node23 -->
<g id="edge12" class="edge">
<title>Node14&#45;&gt;Node23</title>
<path fill="none" stroke="#191970" d="M245.5779,-665.3607C234.8519,-655.6727 221.7066,-643.7995 212.6758,-635.6427"/>
<polygon fill="#191970" stroke="#191970" points="243.4334,-668.14 253.2004,-672.2455 248.1254,-662.9453 243.4334,-668.14"/>
</g>
<!-- Node27 -->
<g id="node15" class="node">
<title>Node27</title>
<g id="a_node15"><a xlink:href="api_2spec_2packet__io_8h.html" target="_top" xlink:title="ODP Packet IO. ">
<polygon fill="#ffffff" stroke="#000000" points="315.5,-392.5 315.5,-411.5 382.5,-411.5 382.5,-392.5 315.5,-392.5"/>
<text text-anchor="middle" x="349" y="-399.5" font-family="Helvetica,sans-Serif" font-size="10.00" fill="#000000">packet_io.h</text>
</a>
</g>
</g>
<!-- Node14&#45;&gt;Node27 -->
<g id="edge38" class="edge">
<title>Node14&#45;&gt;Node27</title>
<path fill="none" stroke="#191970" d="M285.4502,-665.6826C308.8445,-645.857 343,-610.0534 343,-570 343,-570 343,-570 343,-514 343,-476.029 346.4813,-430.9203 348.1403,-411.5791"/>
<polygon fill="#191970" stroke="#191970" points="282.942,-663.2115 277.4013,-672.2421 287.3642,-668.6378 282.942,-663.2115"/>
</g>
<!-- Node35 -->
<g id="node23" class="node">
<title>Node35</title>
<g id="a_node23"><a xlink:href="api_2spec_2packet__flags_8h.html" target="_top" xlink:title="ODP packet flags. ">
<polygon fill="#ffffff" stroke="#000000" points="483,-560.5 483,-579.5 563,-579.5 563,-560.5 483,-560.5"/>
<text text-anchor="middle" x="523" y="-567.5" font-family="Helvetica,sans-Serif" font-size="10.00" fill="#000000">packet_flags.h</text>
</a>
</g>
</g>
<!-- Node14&#45;&gt;Node35 -->
<g id="edge35" class="edge">
<title>Node14&#45;&gt;Node35</title>
<path fill="none" stroke="#191970" d="M295.358,-668.4398C348.5006,-645.4592 454.9574,-599.4238 500.9737,-579.5249"/>
<polygon fill="#191970" stroke="#191970" points="293.8716,-665.2693 286.0822,-672.4509 296.65,-671.6943 293.8716,-665.2693"/>
</g>
<!-- Node16 -->
<g id="node4" class="node">
<title>Node16</title>
<g id="a_node4"><a xlink:href="api_2comp_8h.html" target="_top" xlink:title="ODP crypto. ">
<polygon fill="#ffffff" stroke="#000000" points="28.5,-504.5 28.5,-523.5 77.5,-523.5 77.5,-504.5 28.5,-504.5"/>
<text text-anchor="middle" x="53" y="-511.5" font-family="Helvetica,sans-Serif" font-size="10.00" fill="#000000">comp.h</text>
</a>
</g>
</g>
<!-- Node15&#45;&gt;Node16 -->
<g id="edge3" class="edge">
<title>Node15&#45;&gt;Node16</title>
<path fill="none" stroke="#191970" d="M67.8291,-606.2702C63.9283,-581.9985 57.4634,-541.7725 54.5308,-523.5249"/>
<polygon fill="#191970" stroke="#191970" points="64.4228,-607.133 69.4653,-616.4509 71.3341,-606.0222 64.4228,-607.133"/>
</g>
<!-- Node16&#45;&gt;Node17 -->
<g id="edge4" class="edge">
<title>Node16&#45;&gt;Node17</title>
<path fill="none" stroke="#191970" d="M53,-494.1952C53,-471.8128 53,-434.2884 53,-402 53,-402 53,-402 53,-178 53,-146.7875 53.9858,-133.0848 77,-112 97.7403,-92.9984 175.9248,-77.7648 219.3922,-70.5456"/>
<polygon fill="#191970" stroke="#191970" points="49.5001,-494.4116 53,-504.4116 56.5001,-494.4117 49.5001,-494.4116"/>
</g>
<!-- Node18 -->
<g id="node6" class="node">
<title>Node18</title>
<g id="a_node6"><a xlink:href="odp_8h.html" target="_top" xlink:title="WARNING: THIS FILE IS DEPRECATED AND WILL BE REMOVED!!! ODP APPLICATIONS SHOULD NOW INCLUDE odp_api...">
<polygon fill="#ffffff" stroke="#000000" points="228.5,-.5 228.5,-19.5 269.5,-19.5 269.5,-.5 228.5,-.5"/>
<text text-anchor="middle" x="249" y="-7.5" font-family="Helvetica,sans-Serif" font-size="10.00" fill="#000000">odp.h</text>
</a>
</g>
</g>
<!-- Node17&#45;&gt;Node18 -->
<g id="edge5" class="edge">
<title>Node17&#45;&gt;Node18</title>
<path fill="none" stroke="#191970" d="M249,-46.1575C249,-37.155 249,-26.9199 249,-19.6427"/>
<polygon fill="#191970" stroke="#191970" points="245.5001,-46.2455 249,-56.2455 252.5001,-46.2456 245.5001,-46.2455"/>
</g>
<!-- Node20 -->
<g id="node8" class="node">
<title>Node20</title>
<g id="a_node8"><a xlink:href="api_2crypto_8h.html" target="_top" xlink:title="ODP crypto. ">
<polygon fill="#ffffff" stroke="#000000" points="250,-336.5 250,-355.5 302,-355.5 302,-336.5 250,-336.5"/>
<text text-anchor="middle" x="276" y="-343.5" font-family="Helvetica,sans-Serif" font-size="10.00" fill="#000000">crypto.h</text>
</a>
</g>
</g>
<!-- Node19&#45;&gt;Node20 -->
<g id="edge7" class="edge">
<title>Node19&#45;&gt;Node20</title>
<path fill="none" stroke="#191970" d="M282.5907,-438.2702C280.857,-413.9985 277.9837,-373.7725 276.6803,-355.5249"/>
<polygon fill="#191970" stroke="#191970" points="279.1143,-438.7258 283.3179,-448.4509 286.0965,-438.227 279.1143,-438.7258"/>
</g>
<!-- Node20&#45;&gt;Node17 -->
<g id="edge11" class="edge">
<title>Node20&#45;&gt;Node17</title>
<path fill="none" stroke="#191970" d="M268.4386,-326.8019C260.4512,-304.7608 249,-267.3462 249,-234 249,-234 249,-234 249,-178 249,-140.0833 249,-94.9462 249,-75.5884"/>
<polygon fill="#191970" stroke="#191970" points="265.2164,-328.177 272.0161,-336.3019 271.7673,-325.71 265.2164,-328.177"/>
</g>
<!-- Node21 -->
<g id="node9" class="node">
<title>Node21</title>
<g id="a_node9"><a xlink:href="api_2spec_2ipsec_8h.html" target="_top" xlink:title="ODP IPSEC API. ">
<polygon fill="#ffffff" stroke="#000000" points="301,-168.5 301,-187.5 349,-187.5 349,-168.5 301,-168.5"/>
<text text-anchor="middle" x="325" y="-175.5" font-family="Helvetica,sans-Serif" font-size="10.00" fill="#000000">ipsec.h</text>
</a>
</g>
</g>
<!-- Node20&#45;&gt;Node21 -->
<g id="edge8" class="edge">
<title>Node20&#45;&gt;Node21</title>
<path fill="none" stroke="#191970" d="M281.397,-326.8292C288.1918,-302.7775 300.275,-260.2827 311,-224 314.7388,-211.3515 319.1954,-196.7937 322.0596,-187.5014"/>
<polygon fill="#191970" stroke="#191970" points="278.0173,-325.9189 278.6711,-336.4936 284.7544,-327.8192 278.0173,-325.9189"/>
</g>
<!-- Node22 -->
<g id="node10" class="node">
<title>Node22</title>
<g id="a_node10"><a xlink:href="api_2ipsec_8h.html" target="_top" xlink:title="ODP IPSEC API &#45; platform specific header. ">
<polygon fill="#ffffff" stroke="#000000" points="289,-112.5 289,-131.5 337,-131.5 337,-112.5 289,-112.5"/>
<text text-anchor="middle" x="313" y="-119.5" font-family="Helvetica,sans-Serif" font-size="10.00" fill="#000000">ipsec.h</text>
</a>
</g>
</g>
<!-- Node21&#45;&gt;Node22 -->
<g id="edge9" class="edge">
<title>Node21&#45;&gt;Node22</title>
<path fill="none" stroke="#191970" d="M320.8115,-158.4538C318.8672,-149.3803 316.6428,-138.9998 315.0663,-131.6427"/>
<polygon fill="#191970" stroke="#191970" points="317.3921,-159.2009 322.9098,-168.2455 324.2367,-157.7341 317.3921,-159.2009"/>
</g>
<!-- Node22&#45;&gt;Node17 -->
<g id="edge10" class="edge">
<title>Node22&#45;&gt;Node17</title>
<path fill="none" stroke="#191970" d="M294.3086,-105.645C283.1781,-95.9058 269.4337,-83.8795 260.0202,-75.6427"/>
<polygon fill="#191970" stroke="#191970" points="292.0215,-108.2945 301.8521,-112.2455 296.631,-103.0264 292.0215,-108.2945"/>
</g>
<!-- Node24 -->
<g id="node12" class="node">
<title>Node24</title>
<g id="a_node12"><a xlink:href="api_2event_8h.html" target="_top" xlink:title="ODP event. ">
<polygon fill="#ffffff" stroke="#000000" points="146.5,-560.5 146.5,-579.5 195.5,-579.5 195.5,-560.5 146.5,-560.5"/>
<text text-anchor="middle" x="171" y="-567.5" font-family="Helvetica,sans-Serif" font-size="10.00" fill="#000000">event.h</text>
</a>
</g>
</g>
<!-- Node23&#45;&gt;Node24 -->
<g id="edge13" class="edge">
<title>Node23&#45;&gt;Node24</title>
<path fill="none" stroke="#191970" d="M191.6688,-607.3372C186.5335,-598.0605 180.5434,-587.2398 176.3379,-579.6427"/>
<polygon fill="#191970" stroke="#191970" points="188.6949,-609.1917 196.6002,-616.2455 194.8191,-605.8015 188.6949,-609.1917"/>
</g>
<!-- Node24&#45;&gt;Node17 -->
<g id="edge34" class="edge">
<title>Node24&#45;&gt;Node17</title>
<path fill="none" stroke="#191970" d="M159.4047,-551.3977C137.2315,-513.9914 91,-426.3632 91,-346 91,-346 91,-346 91,-178 91,-115.797 173.5127,-85.0068 219.2814,-72.7125"/>
<polygon fill="#191970" stroke="#191970" points="156.5495,-553.4397 164.7225,-560.1816 162.5376,-549.8145 156.5495,-553.4397"/>
</g>
<!-- Node25 -->
<g id="node13" class="node">
<title>Node25</title>
<g id="a_node13"><a xlink:href="api_2spec_2queue_8h.html" target="_top" xlink:title="ODP queue. ">
<polygon fill="#ffffff" stroke="#000000" points="184.5,-504.5 184.5,-523.5 235.5,-523.5 235.5,-504.5 184.5,-504.5"/>
<text text-anchor="middle" x="210" y="-511.5" font-family="Helvetica,sans-Serif" font-size="10.00" fill="#000000">queue.h</text>
</a>
</g>
</g>
<!-- Node24&#45;&gt;Node25 -->
<g id="edge14" class="edge">
<title>Node24&#45;&gt;Node25</title>
<path fill="none" stroke="#191970" d="M183.5908,-551.9209C190.1395,-542.5176 197.8824,-531.3997 203.2846,-523.6427"/>
<polygon fill="#191970" stroke="#191970" points="180.6361,-550.0392 177.7933,-560.2455 186.3804,-554.0397 180.6361,-550.0392"/>
</g>
<!-- Node33 -->
<g id="node21" class="node">
<title>Node33</title>
<g id="a_node21"><a xlink:href="api_2spec_2schedule_8h.html" target="_top" xlink:title="ODP schedule. ">
<polygon fill="#ffffff" stroke="#000000" points="119,-392.5 119,-411.5 183,-411.5 183,-392.5 119,-392.5"/>
<text text-anchor="middle" x="151" y="-399.5" font-family="Helvetica,sans-Serif" font-size="10.00" fill="#000000">schedule.h</text>
</a>
</g>
</g>
<!-- Node24&#45;&gt;Node33 -->
<g id="edge33" class="edge">
<title>Node24&#45;&gt;Node33</title>
<path fill="none" stroke="#191970" d="M168.65,-550.2601C164.3532,-514.1669 155.3769,-438.7656 152.17,-411.8279"/>
<polygon fill="#191970" stroke="#191970" points="165.2097,-550.9701 169.8674,-560.4862 172.1607,-550.1426 165.2097,-550.9701"/>
</g>
<!-- Node26 -->
<g id="node14" class="node">
<title>Node26</title>
<g id="a_node14"><a xlink:href="api_2queue_8h.html" target="_top" xlink:title="ODP queue. ">
<polygon fill="#ffffff" stroke="#000000" points="185.5,-448.5 185.5,-467.5 236.5,-467.5 236.5,-448.5 185.5,-448.5"/>
<text text-anchor="middle" x="211" y="-455.5" font-family="Helvetica,sans-Serif" font-size="10.00" fill="#000000">queue.h</text>
</a>
</g>
</g>
<!-- Node25&#45;&gt;Node26 -->
<g id="edge15" class="edge">
<title>Node25&#45;&gt;Node26</title>
<path fill="none" stroke="#191970" d="M210.3543,-494.1575C210.5151,-485.155 210.6979,-474.9199 210.8278,-467.6427"/>
<polygon fill="#191970" stroke="#191970" points="206.8534,-494.1846 210.1742,-504.2455 213.8523,-494.3097 206.8534,-494.1846"/>
</g>
<!-- Node26&#45;&gt;Node17 -->
<g id="edge32" class="edge">
<title>Node26&#45;&gt;Node17</title>
<path fill="none" stroke="#191970" d="M211,-438.1952C211,-415.8128 211,-378.2884 211,-346 211,-346 211,-346 211,-178 211,-138.1657 232.8226,-94.3859 243.393,-75.5166"/>
<polygon fill="#191970" stroke="#191970" points="207.5001,-438.4116 211,-448.4116 214.5001,-438.4117 207.5001,-438.4116"/>
</g>
<!-- Node26&#45;&gt;Node20 -->
<g id="edge16" class="edge">
<title>Node26&#45;&gt;Node20</title>
<path fill="none" stroke="#191970" d="M221.6947,-439.5723C235.6873,-415.4618 259.6904,-374.1028 270.4722,-355.5249"/>
<polygon fill="#191970" stroke="#191970" points="218.5343,-438.0451 216.5419,-448.4509 224.5885,-441.5588 218.5343,-438.0451"/>
</g>
<!-- Node26&#45;&gt;Node27 -->
<g id="edge17" class="edge">
<title>Node26&#45;&gt;Node27</title>
<path fill="none" stroke="#191970" d="M244.2213,-444.5189C269.354,-434.3201 303.2418,-420.5685 325.5865,-411.5011"/>
<polygon fill="#191970" stroke="#191970" points="242.6731,-441.3699 234.723,-448.3733 245.3053,-447.8562 242.6731,-441.3699"/>
</g>
<!-- Node26&#45;&gt;Node33 -->
<g id="edge29" class="edge">
<title>Node26&#45;&gt;Node33</title>
<path fill="none" stroke="#191970" d="M193.1722,-441.3607C182.7922,-431.6727 170.0709,-419.7995 161.3314,-411.6427"/>
<polygon fill="#191970" stroke="#191970" points="190.8501,-443.981 200.5488,-448.2455 195.6263,-438.8636 190.8501,-443.981"/>
</g>
<!-- Node28 -->
<g id="node16" class="node">
<title>Node28</title>
<g id="a_node16"><a xlink:href="api_2packet__io_8h.html" target="_top" xlink:title="ODP Packet IO. ">
<polygon fill="#ffffff" stroke="#000000" points="360.5,-336.5 360.5,-355.5 427.5,-355.5 427.5,-336.5 360.5,-336.5"/>
<text text-anchor="middle" x="394" y="-343.5" font-family="Helvetica,sans-Serif" font-size="10.00" fill="#000000">packet_io.h</text>
</a>
</g>
</g>
<!-- Node27&#45;&gt;Node28 -->
<g id="edge18" class="edge">
<title>Node27&#45;&gt;Node28</title>
<path fill="none" stroke="#191970" d="M363.2946,-384.2112C370.8996,-374.7472 379.9538,-363.4797 386.2514,-355.6427"/>
<polygon fill="#191970" stroke="#191970" points="360.3741,-382.2581 356.8384,-392.2455 365.8306,-386.6428 360.3741,-382.2581"/>
</g>
<!-- Node28&#45;&gt;Node17 -->
<g id="edge28" class="edge">
<title>Node28&#45;&gt;Node17</title>
<path fill="none" stroke="#191970" d="M437.9109,-336.9674C475.4706,-328.4043 525.6676,-314.6942 540,-300 561.3135,-278.1485 559,-264.5246 559,-234 559,-234 559,-234 559,-178 559,-118.7729 356.3146,-82.0988 278.7241,-70.2294"/>
<polygon fill="#191970" stroke="#191970" points="436.6927,-333.6529 427.6925,-339.2428 438.2142,-340.4856 436.6927,-333.6529"/>
</g>
<!-- Node28&#45;&gt;Node21 -->
<g id="edge23" class="edge">
<title>Node28&#45;&gt;Node21</title>
<path fill="none" stroke="#191970" d="M370.4857,-329.9633C360.7455,-322.0815 350.2775,-311.7474 344,-300 323.7944,-262.1884 323.5634,-208.9945 324.4292,-187.5316"/>
<polygon fill="#191970" stroke="#191970" points="368.6549,-332.968 378.7343,-336.2325 372.8906,-327.3949 368.6549,-332.968"/>
</g>
<!-- Node29 -->
<g id="node17" class="node">
<title>Node29</title>
<g id="a_node17"><a xlink:href="api_2spec_2classification_8h.html" target="_top" xlink:title="ODP classification descriptor. ">
<polygon fill="#ffffff" stroke="#000000" points="353,-280.5 353,-299.5 435,-299.5 435,-280.5 353,-280.5"/>
<text text-anchor="middle" x="394" y="-287.5" font-family="Helvetica,sans-Serif" font-size="10.00" fill="#000000">classification.h</text>
</a>
</g>
</g>
<!-- Node28&#45;&gt;Node29 -->
<g id="edge19" class="edge">
<title>Node28&#45;&gt;Node29</title>
<path fill="none" stroke="#191970" d="M394,-326.1575C394,-317.155 394,-306.9199 394,-299.6427"/>
<polygon fill="#191970" stroke="#191970" points="390.5001,-326.2455 394,-336.2455 397.5001,-326.2456 390.5001,-326.2455"/>
</g>
<!-- Node31 -->
<g id="node19" class="node">
<title>Node31</title>
<g id="a_node19"><a xlink:href="api_2spec_2traffic__mngr_8h.html" target="_top" xlink:title="Copyright (c) 2015&#45;2018, Linaro Limited All rights reserved. ">
<polygon fill="#ffffff" stroke="#000000" points="453.5,-280.5 453.5,-299.5 530.5,-299.5 530.5,-280.5 453.5,-280.5"/>
<text text-anchor="middle" x="492" y="-287.5" font-family="Helvetica,sans-Serif" font-size="10.00" fill="#000000">traffic_mngr.h</text>
</a>
</g>
</g>
<!-- Node28&#45;&gt;Node31 -->
<g id="edge24" class="edge">
<title>Node28&#45;&gt;Node31</title>
<path fill="none" stroke="#191970" d="M420.1686,-331.0465C437.6058,-321.0824 460.0111,-308.2794 475.1253,-299.6427"/>
<polygon fill="#191970" stroke="#191970" points="418.0162,-328.2453 411.0703,-336.2455 421.4892,-334.323 418.0162,-328.2453"/>
</g>
<!-- Node30 -->
<g id="node18" class="node">
<title>Node30</title>
<g id="a_node18"><a xlink:href="api_2classification_8h.html" target="_top" xlink:title="ODP classification descriptor. ">
<polygon fill="#ffffff" stroke="#000000" points="353,-224.5 353,-243.5 435,-243.5 435,-224.5 353,-224.5"/>
<text text-anchor="middle" x="394" y="-231.5" font-family="Helvetica,sans-Serif" font-size="10.00" fill="#000000">classification.h</text>
</a>
</g>
</g>
<!-- Node29&#45;&gt;Node30 -->
<g id="edge20" class="edge">
<title>Node29&#45;&gt;Node30</title>
<path fill="none" stroke="#191970" d="M394,-270.1575C394,-261.155 394,-250.9199 394,-243.6427"/>
<polygon fill="#191970" stroke="#191970" points="390.5001,-270.2455 394,-280.2455 397.5001,-270.2456 390.5001,-270.2455"/>
</g>
<!-- Node30&#45;&gt;Node17 -->
<g id="edge22" class="edge">
<title>Node30&#45;&gt;Node17</title>
<path fill="none" stroke="#191970" d="M390.9439,-214.6154C385.8852,-188.3575 373.4638,-141.3971 346,-112 327.9325,-92.6607 300.0639,-80.6227 278.8262,-73.7365"/>
<polygon fill="#191970" stroke="#191970" points="387.5014,-215.2486 392.6835,-224.4897 394.3953,-214.034 387.5014,-215.2486"/>
</g>
<!-- Node30&#45;&gt;Node21 -->
<g id="edge21" class="edge">
<title>Node30&#45;&gt;Node21</title>
<path fill="none" stroke="#191970" d="M374.197,-217.928C362.1364,-208.1397 347.1286,-195.9595 336.8812,-187.6427"/>
<polygon fill="#191970" stroke="#191970" points="372.0109,-220.6614 381.9811,-224.2455 376.4221,-215.2262 372.0109,-220.6614"/>
</g>
<!-- Node32 -->
<g id="node20" class="node">
<title>Node32</title>
<g id="a_node20"><a xlink:href="api_2traffic__mngr_8h.html" target="_top" xlink:title="ODP Traffic manager. ">
<polygon fill="#ffffff" stroke="#000000" points="453.5,-224.5 453.5,-243.5 530.5,-243.5 530.5,-224.5 453.5,-224.5"/>
<text text-anchor="middle" x="492" y="-231.5" font-family="Helvetica,sans-Serif" font-size="10.00" fill="#000000">traffic_mngr.h</text>
</a>
</g>
</g>
<!-- Node31&#45;&gt;Node32 -->
<g id="edge25" class="edge">
<title>Node31&#45;&gt;Node32</title>
<path fill="none" stroke="#191970" d="M492,-270.1575C492,-261.155 492,-250.9199 492,-243.6427"/>
<polygon fill="#191970" stroke="#191970" points="488.5001,-270.2455 492,-280.2455 495.5001,-270.2456 488.5001,-270.2455"/>
</g>
<!-- Node32&#45;&gt;Node17 -->
<g id="edge27" class="edge">
<title>Node32&#45;&gt;Node17</title>
<path fill="none" stroke="#191970" d="M478.1514,-216.5856C456.7516,-190.6695 413.2593,-141.8129 367,-112 339.277,-94.1333 303.5298,-81.4113 278.6797,-73.9391"/>
<polygon fill="#191970" stroke="#191970" points="475.5092,-218.884 484.5338,-224.4345 480.9402,-214.4677 475.5092,-218.884"/>
</g>
<!-- Node32&#45;&gt;Node21 -->
<g id="edge26" class="edge">
<title>Node32&#45;&gt;Node21</title>
<path fill="none" stroke="#191970" d="M453.7352,-221.1687C421.4999,-210.3593 376.3818,-195.2298 349.0089,-186.0509"/>
<polygon fill="#191970" stroke="#191970" points="452.6978,-224.5123 463.2917,-224.3733 454.9233,-217.8755 452.6978,-224.5123"/>
</g>
<!-- Node34 -->
<g id="node22" class="node">
<title>Node34</title>
<g id="a_node22"><a xlink:href="api_2schedule_8h.html" target="_top" xlink:title="ODP schedule. ">
<polygon fill="#ffffff" stroke="#000000" points="119,-168.5 119,-187.5 183,-187.5 183,-168.5 119,-168.5"/>
<text text-anchor="middle" x="151" y="-175.5" font-family="Helvetica,sans-Serif" font-size="10.00" fill="#000000">schedule.h</text>
</a>
</g>
</g>
<!-- Node33&#45;&gt;Node34 -->
<g id="edge30" class="edge">
<title>Node33&#45;&gt;Node34</title>
<path fill="none" stroke="#191970" d="M151,-382.1177C151,-335.6713 151,-221.4223 151,-187.5891"/>
<polygon fill="#191970" stroke="#191970" points="147.5001,-382.375 151,-392.375 154.5001,-382.375 147.5001,-382.375"/>
</g>
<!-- Node34&#45;&gt;Node17 -->
<g id="edge31" class="edge">
<title>Node34&#45;&gt;Node17</title>
<path fill="none" stroke="#191970" d="M162.211,-159.4921C170.9199,-145.7607 183.7164,-126.9147 197,-112 209.185,-98.3187 225.2324,-84.6672 236.2598,-75.8332"/>
<polygon fill="#191970" stroke="#191970" points="159.1856,-157.7295 156.8792,-168.0703 165.1308,-161.4248 159.1856,-157.7295"/>
</g>
<!-- Node36 -->
<g id="node24" class="node">
<title>Node36</title>
<g id="a_node24"><a xlink:href="api_2packet__flags_8h.html" target="_top" xlink:title="ODP packet flags. ">
<polygon fill="#ffffff" stroke="#000000" points="587,-112.5 587,-131.5 667,-131.5 667,-112.5 587,-112.5"/>
<text text-anchor="middle" x="627" y="-119.5" font-family="Helvetica,sans-Serif" font-size="10.00" fill="#000000">packet_flags.h</text>
</a>
</g>
</g>
<!-- Node35&#45;&gt;Node36 -->
<g id="edge36" class="edge">
<title>Node35&#45;&gt;Node36</title>
<path fill="none" stroke="#191970" d="M546.8943,-554.497C573.2563,-535.2996 612,-499.9497 612,-458 612,-458 612,-458 612,-234 612,-195.7448 620.7032,-150.7849 624.8509,-131.5307"/>
<polygon fill="#191970" stroke="#191970" points="544.6856,-551.7708 538.5026,-560.3744 548.7013,-557.5044 544.6856,-551.7708"/>
</g>
<!-- Node36&#45;&gt;Node17 -->
<g id="edge37" class="edge">
<title>Node36&#45;&gt;Node17</title>
<path fill="none" stroke="#191970" d="M576.8542,-112.6396C575.5567,-112.4213 574.2703,-112.2077 573,-112 464.7858,-94.3063 335.5849,-77.1462 278.5476,-69.7717"/>
<polygon fill="#191970" stroke="#191970" points="576.4775,-116.1264 586.9283,-114.3854 577.6728,-109.2292 576.4775,-116.1264"/>
</g>
</g>
</svg>
