<?xml version="1.0" encoding="UTF-8" standalone="no"?>
<!DOCTYPE svg PUBLIC "-//W3C//DTD SVG 1.1//EN"
 "http://www.w3.org/Graphics/SVG/1.1/DTD/svg11.dtd">
<!-- Generated by graphviz version 2.40.1 (20161225.0304)
 -->
<!-- Title: time.h Pages: 1 -->
<svg width="1054pt" height="924pt"
 viewBox="0.00 0.00 1054.00 924.00" xmlns="http://www.w3.org/2000/svg" xmlns:xlink="http://www.w3.org/1999/xlink">
<g id="graph0" class="graph" transform="scale(1 1) rotate(0) translate(4 920)">
<title>time.h</title>
<polygon fill="#ffffff" stroke="transparent" points="-4,4 -4,-920 1050,-920 1050,4 -4,4"/>
<!-- Node1 -->
<g id="node1" class="node">
<title>Node1</title>
<polygon fill="#bfbfbf" stroke="#000000" points="186,-896.5 186,-915.5 230,-915.5 230,-896.5 186,-896.5"/>
<text text-anchor="middle" x="208" y="-903.5" font-family="Helvetica,sans-Serif" font-size="10.00" fill="#000000">time.h</text>
</g>
<!-- Node2 -->
<g id="node2" class="node">
<title>Node2</title>
<g id="a_node2"><a xlink:href="arch_2arm32-linux_2odp_2api_2abi_2time_8h_source.html" target="_top" xlink:title="time.h">
<polygon fill="#ffffff" stroke="#000000" points="0,-840.5 0,-859.5 44,-859.5 44,-840.5 0,-840.5"/>
<text text-anchor="middle" x="22" y="-847.5" font-family="Helvetica,sans-Serif" font-size="10.00" fill="#000000">time.h</text>
</a>
</g>
</g>
<!-- Node1&#45;&gt;Node2 -->
<g id="edge1" class="edge">
<title>Node1&#45;&gt;Node2</title>
<path fill="none" stroke="#191970" d="M175.9472,-896.7266C144.5567,-887.5885 95.3994,-873.1281 53,-860 50.191,-859.1302 47.244,-858.2012 44.3311,-857.2729"/>
<polygon fill="#191970" stroke="#191970" points="175.2967,-900.1823 185.8762,-899.612 177.2502,-893.4604 175.2967,-900.1823"/>
</g>
<!-- Node3 -->
<g id="node3" class="node">
<title>Node3</title>
<g id="a_node3"><a xlink:href="arch_2arm64-linux_2odp_2api_2abi_2time_8h_source.html" target="_top" xlink:title="time.h">
<polygon fill="#ffffff" stroke="#000000" points="62,-840.5 62,-859.5 106,-859.5 106,-840.5 62,-840.5"/>
<text text-anchor="middle" x="84" y="-847.5" font-family="Helvetica,sans-Serif" font-size="10.00" fill="#000000">time.h</text>
</a>
</g>
</g>
<!-- Node1&#45;&gt;Node3 -->
<g id="edge2" class="edge">
<title>Node1&#45;&gt;Node3</title>
<path fill="none" stroke="#191970" d="M177.5476,-892.2473C155.0278,-882.0771 124.9383,-868.4883 105.0382,-859.5011"/>
<polygon fill="#191970" stroke="#191970" points="176.1294,-895.4471 186.6836,-896.3733 179.0105,-889.0675 176.1294,-895.4471"/>
</g>
<!-- Node4 -->
<g id="node4" class="node">
<title>Node4</title>
<g id="a_node4"><a xlink:href="arch_2default-linux_2odp_2api_2abi_2time_8h_source.html" target="_top" xlink:title="time.h">
<polygon fill="#ffffff" stroke="#000000" points="124,-840.5 124,-859.5 168,-859.5 168,-840.5 124,-840.5"/>
<text text-anchor="middle" x="146" y="-847.5" font-family="Helvetica,sans-Serif" font-size="10.00" fill="#000000">time.h</text>
</a>
</g>
</g>
<!-- Node1&#45;&gt;Node4 -->
<g id="edge3" class="edge">
<title>Node1&#45;&gt;Node4</title>
<path fill="none" stroke="#191970" d="M189.5779,-889.3607C178.8519,-879.6727 165.7066,-867.7995 156.6758,-859.6427"/>
<polygon fill="#191970" stroke="#191970" points="187.4334,-892.14 197.2004,-896.2455 192.1254,-886.9453 187.4334,-892.14"/>
</g>
<!-- Node5 -->
<g id="node5" class="node">
<title>Node5</title>
<g id="a_node5"><a xlink:href="arch_2mips64-linux_2odp_2api_2abi_2time_8h_source.html" target="_top" xlink:title="time.h">
<polygon fill="#ffffff" stroke="#000000" points="186,-840.5 186,-859.5 230,-859.5 230,-840.5 186,-840.5"/>
<text text-anchor="middle" x="208" y="-847.5" font-family="Helvetica,sans-Serif" font-size="10.00" fill="#000000">time.h</text>
</a>
</g>
</g>
<!-- Node1&#45;&gt;Node5 -->
<g id="edge4" class="edge">
<title>Node1&#45;&gt;Node5</title>
<path fill="none" stroke="#191970" d="M208,-886.1575C208,-877.155 208,-866.9199 208,-859.6427"/>
<polygon fill="#191970" stroke="#191970" points="204.5001,-886.2455 208,-896.2455 211.5001,-886.2456 204.5001,-886.2455"/>
</g>
<!-- Node6 -->
<g id="node6" class="node">
<title>Node6</title>
<g id="a_node6"><a xlink:href="arch_2power64-linux_2odp_2api_2abi_2time_8h_source.html" target="_top" xlink:title="time.h">
<polygon fill="#ffffff" stroke="#000000" points="248,-840.5 248,-859.5 292,-859.5 292,-840.5 248,-840.5"/>
<text text-anchor="middle" x="270" y="-847.5" font-family="Helvetica,sans-Serif" font-size="10.00" fill="#000000">time.h</text>
</a>
</g>
</g>
<!-- Node1&#45;&gt;Node6 -->
<g id="edge5" class="edge">
<title>Node1&#45;&gt;Node6</title>
<path fill="none" stroke="#191970" d="M226.4221,-889.3607C237.1481,-879.6727 250.2934,-867.7995 259.3242,-859.6427"/>
<polygon fill="#191970" stroke="#191970" points="223.8746,-886.9453 218.7996,-896.2455 228.5666,-892.14 223.8746,-886.9453"/>
</g>
<!-- Node7 -->
<g id="node7" class="node">
<title>Node7</title>
<g id="a_node7"><a xlink:href="arch_2x86__32-linux_2odp_2api_2abi_2time_8h_source.html" target="_top" xlink:title="time.h">
<polygon fill="#ffffff" stroke="#000000" points="310,-840.5 310,-859.5 354,-859.5 354,-840.5 310,-840.5"/>
<text text-anchor="middle" x="332" y="-847.5" font-family="Helvetica,sans-Serif" font-size="10.00" fill="#000000">time.h</text>
</a>
</g>
</g>
<!-- Node1&#45;&gt;Node7 -->
<g id="edge6" class="edge">
<title>Node1&#45;&gt;Node7</title>
<path fill="none" stroke="#191970" d="M238.4524,-892.2473C260.9722,-882.0771 291.0617,-868.4883 310.9618,-859.5011"/>
<polygon fill="#191970" stroke="#191970" points="236.9895,-889.0675 229.3164,-896.3733 239.8706,-895.4471 236.9895,-889.0675"/>
</g>
<!-- Node8 -->
<g id="node8" class="node">
<title>Node8</title>
<g id="a_node8"><a xlink:href="arch_2x86__64-linux_2odp_2api_2abi_2time_8h_source.html" target="_top" xlink:title="time.h">
<polygon fill="#ffffff" stroke="#000000" points="372,-840.5 372,-859.5 416,-859.5 416,-840.5 372,-840.5"/>
<text text-anchor="middle" x="394" y="-847.5" font-family="Helvetica,sans-Serif" font-size="10.00" fill="#000000">time.h</text>
</a>
</g>
</g>
<!-- Node1&#45;&gt;Node8 -->
<g id="edge7" class="edge">
<title>Node1&#45;&gt;Node8</title>
<path fill="none" stroke="#191970" d="M240.0528,-896.7266C271.4433,-887.5885 320.6006,-873.1281 363,-860 365.809,-859.1302 368.756,-858.2012 371.6689,-857.2729"/>
<polygon fill="#191970" stroke="#191970" points="238.7498,-893.4604 230.1238,-899.612 240.7033,-900.1823 238.7498,-893.4604"/>
</g>
<!-- Node9 -->
<g id="node9" class="node">
<title>Node9</title>
<g id="a_node9"><a xlink:href="api_2time_8h.html" target="_top" xlink:title="ODP time. ">
<polygon fill="#ffffff" stroke="#000000" points="372,-784.5 372,-803.5 416,-803.5 416,-784.5 372,-784.5"/>
<text text-anchor="middle" x="394" y="-791.5" font-family="Helvetica,sans-Serif" font-size="10.00" fill="#000000">time.h</text>
</a>
</g>
</g>
<!-- Node8&#45;&gt;Node9 -->
<g id="edge8" class="edge">
<title>Node8&#45;&gt;Node9</title>
<path fill="none" stroke="#191970" d="M394,-830.1575C394,-821.155 394,-810.9199 394,-803.6427"/>
<polygon fill="#191970" stroke="#191970" points="390.5001,-830.2455 394,-840.2455 397.5001,-830.2456 390.5001,-830.2455"/>
</g>
<!-- Node10 -->
<g id="node10" class="node">
<title>Node10</title>
<g id="a_node10"><a xlink:href="api_2spec_2packet_8h.html" target="_top" xlink:title="ODP packet descriptor. ">
<polygon fill="#ffffff" stroke="#000000" points="541,-728.5 541,-747.5 595,-747.5 595,-728.5 541,-728.5"/>
<text text-anchor="middle" x="568" y="-735.5" font-family="Helvetica,sans-Serif" font-size="10.00" fill="#000000">packet.h</text>
</a>
</g>
</g>
<!-- Node9&#45;&gt;Node10 -->
<g id="edge9" class="edge">
<title>Node9&#45;&gt;Node10</title>
<path fill="none" stroke="#191970" d="M425.6263,-783.8214C458.5302,-773.2317 509.5169,-756.8222 540.7124,-746.7822"/>
<polygon fill="#191970" stroke="#191970" points="424.4841,-780.5122 416.0372,-786.9076 426.6287,-787.1756 424.4841,-780.5122"/>
</g>
<!-- Node14 -->
<g id="node14" class="node">
<title>Node14</title>
<g id="a_node14"><a xlink:href="odp__api_8h.html" target="_top" xlink:title="The OpenDataPlane API. ">
<polygon fill="#ffffff" stroke="#000000" points="680.5,-56.5 680.5,-75.5 739.5,-75.5 739.5,-56.5 680.5,-56.5"/>
<text text-anchor="middle" x="710" y="-63.5" font-family="Helvetica,sans-Serif" font-size="10.00" fill="#000000">odp_api.h</text>
</a>
</g>
</g>
<!-- Node9&#45;&gt;Node14 -->
<g id="edge50" class="edge">
<title>Node9&#45;&gt;Node14</title>
<path fill="none" stroke="#191970" d="M383.511,-775.4209C372.2634,-753.7168 356,-716.3882 356,-682 356,-682 356,-682 356,-178 356,-136.201 385.7031,-130.8707 423,-112 467.8019,-89.3321 616.3744,-74.1096 680.3145,-68.4546"/>
<polygon fill="#191970" stroke="#191970" points="380.569,-777.3395 388.393,-784.4834 386.7317,-774.0196 380.569,-777.3395"/>
</g>
<!-- Node24 -->
<g id="node24" class="node">
<title>Node24</title>
<g id="a_node24"><a xlink:href="api_2spec_2packet__io_8h.html" target="_top" xlink:title="ODP Packet IO. ">
<polygon fill="#ffffff" stroke="#000000" points="574.5,-392.5 574.5,-411.5 641.5,-411.5 641.5,-392.5 574.5,-392.5"/>
<text text-anchor="middle" x="608" y="-399.5" font-family="Helvetica,sans-Serif" font-size="10.00" fill="#000000">packet_io.h</text>
</a>
</g>
</g>
<!-- Node9&#45;&gt;Node24 -->
<g id="edge49" class="edge">
<title>Node9&#45;&gt;Node24</title>
<path fill="none" stroke="#191970" d="M394,-774.1952C394,-751.8128 394,-714.2884 394,-682 394,-682 394,-682 394,-514 394,-433.6974 513.7489,-410.8627 574.0911,-404.4538"/>
<polygon fill="#191970" stroke="#191970" points="390.5001,-774.4116 394,-784.4116 397.5001,-774.4117 390.5001,-774.4116"/>
</g>
<!-- Node11 -->
<g id="node11" class="node">
<title>Node11</title>
<g id="a_node11"><a xlink:href="api_2packet_8h.html" target="_top" xlink:title="ODP packet descriptor. ">
<polygon fill="#ffffff" stroke="#000000" points="661,-672.5 661,-691.5 715,-691.5 715,-672.5 661,-672.5"/>
<text text-anchor="middle" x="688" y="-679.5" font-family="Helvetica,sans-Serif" font-size="10.00" fill="#000000">packet.h</text>
</a>
</g>
</g>
<!-- Node10&#45;&gt;Node11 -->
<g id="edge10" class="edge">
<title>Node10&#45;&gt;Node11</title>
<path fill="none" stroke="#191970" d="M597.7624,-724.1109C619.5232,-713.9559 648.4682,-700.4482 667.6405,-691.5011"/>
<polygon fill="#191970" stroke="#191970" points="596.2105,-720.9727 588.6287,-728.3733 599.1707,-727.316 596.2105,-720.9727"/>
</g>
<!-- Node12 -->
<g id="node12" class="node">
<title>Node12</title>
<g id="a_node12"><a xlink:href="api_2spec_2comp_8h.html" target="_top" xlink:title="ODP Compression. ">
<polygon fill="#ffffff" stroke="#000000" points="472.5,-616.5 472.5,-635.5 521.5,-635.5 521.5,-616.5 472.5,-616.5"/>
<text text-anchor="middle" x="497" y="-623.5" font-family="Helvetica,sans-Serif" font-size="10.00" fill="#000000">comp.h</text>
</a>
</g>
</g>
<!-- Node11&#45;&gt;Node12 -->
<g id="edge11" class="edge">
<title>Node11&#45;&gt;Node12</title>
<path fill="none" stroke="#191970" d="M650.921,-671.1287C612.7606,-659.9403 554.3903,-642.8265 521.5865,-633.2086"/>
<polygon fill="#191970" stroke="#191970" points="650.0536,-674.5216 660.6344,-673.9766 652.0231,-667.8044 650.0536,-674.5216"/>
</g>
<!-- Node11&#45;&gt;Node14 -->
<g id="edge48" class="edge">
<title>Node11&#45;&gt;Node14</title>
<path fill="none" stroke="#191970" d="M725.3589,-673.4771C795.0754,-656.4823 938,-616.0287 938,-570 938,-570 938,-570 938,-178 938,-131.2171 897.2458,-134.0777 856,-112 818.1604,-91.7455 769.9581,-78.7392 739.5275,-71.8969"/>
<polygon fill="#191970" stroke="#191970" points="724.1381,-670.1705 715.2303,-675.9065 725.7708,-676.9775 724.1381,-670.1705"/>
</g>
<!-- Node16 -->
<g id="node16" class="node">
<title>Node16</title>
<g id="a_node16"><a xlink:href="api_2spec_2crypto_8h.html" target="_top" xlink:title="ODP crypto. ">
<polygon fill="#ffffff" stroke="#000000" points="662,-448.5 662,-467.5 714,-467.5 714,-448.5 662,-448.5"/>
<text text-anchor="middle" x="688" y="-455.5" font-family="Helvetica,sans-Serif" font-size="10.00" fill="#000000">crypto.h</text>
</a>
</g>
</g>
<!-- Node11&#45;&gt;Node16 -->
<g id="edge15" class="edge">
<title>Node11&#45;&gt;Node16</title>
<path fill="none" stroke="#191970" d="M688,-662.1177C688,-615.6713 688,-501.4223 688,-467.5891"/>
<polygon fill="#191970" stroke="#191970" points="684.5001,-662.375 688,-672.375 691.5001,-662.375 684.5001,-662.375"/>
</g>
<!-- Node20 -->
<g id="node20" class="node">
<title>Node20</title>
<g id="a_node20"><a xlink:href="api_2spec_2event_8h.html" target="_top" xlink:title="ODP event. ">
<polygon fill="#ffffff" stroke="#000000" points="716.5,-616.5 716.5,-635.5 765.5,-635.5 765.5,-616.5 716.5,-616.5"/>
<text text-anchor="middle" x="741" y="-623.5" font-family="Helvetica,sans-Serif" font-size="10.00" fill="#000000">event.h</text>
</a>
</g>
</g>
<!-- Node11&#45;&gt;Node20 -->
<g id="edge21" class="edge">
<title>Node11&#45;&gt;Node20</title>
<path fill="none" stroke="#191970" d="M704.2896,-664.7884C713.3562,-655.2085 724.3054,-643.6396 731.8739,-635.6427"/>
<polygon fill="#191970" stroke="#191970" points="701.5637,-662.5767 697.2319,-672.2455 706.6478,-667.3884 701.5637,-662.5767"/>
</g>
<!-- Node11&#45;&gt;Node24 -->
<g id="edge47" class="edge">
<title>Node11&#45;&gt;Node24</title>
<path fill="none" stroke="#191970" d="M668.7776,-665.2786C647.7509,-645.0302 617,-608.7872 617,-570 617,-570 617,-570 617,-514 617,-475.9611 611.7781,-430.888 609.2895,-411.5676"/>
<polygon fill="#191970" stroke="#191970" points="666.5622,-667.9974 676.2758,-672.2278 671.3204,-662.8632 666.5622,-667.9974"/>
</g>
<!-- Node32 -->
<g id="node32" class="node">
<title>Node32</title>
<g id="a_node32"><a xlink:href="api_2spec_2packet__flags_8h.html" target="_top" xlink:title="ODP packet flags. ">
<polygon fill="#ffffff" stroke="#000000" points="966,-560.5 966,-579.5 1046,-579.5 1046,-560.5 966,-560.5"/>
<text text-anchor="middle" x="1006" y="-567.5" font-family="Helvetica,sans-Serif" font-size="10.00" fill="#000000">packet_flags.h</text>
</a>
</g>
</g>
<!-- Node11&#45;&gt;Node32 -->
<g id="edge44" class="edge">
<title>Node11&#45;&gt;Node32</title>
<path fill="none" stroke="#191970" d="M725.0041,-678.7525C788.2618,-672.6793 914.0438,-658.1774 952,-636 975.2647,-622.4066 992.7432,-594.7828 1000.9041,-579.9486"/>
<polygon fill="#191970" stroke="#191970" points="724.6753,-675.2679 715.0467,-679.6883 725.3303,-682.2372 724.6753,-675.2679"/>
</g>
<!-- Node13 -->
<g id="node13" class="node">
<title>Node13</title>
<g id="a_node13"><a xlink:href="api_2comp_8h.html" target="_top" xlink:title="ODP crypto. ">
<polygon fill="#ffffff" stroke="#000000" points="431.5,-504.5 431.5,-523.5 480.5,-523.5 480.5,-504.5 431.5,-504.5"/>
<text text-anchor="middle" x="456" y="-511.5" font-family="Helvetica,sans-Serif" font-size="10.00" fill="#000000">comp.h</text>
</a>
</g>
</g>
<!-- Node12&#45;&gt;Node13 -->
<g id="edge12" class="edge">
<title>Node12&#45;&gt;Node13</title>
<path fill="none" stroke="#191970" d="M490.0173,-606.9253C481.1595,-582.7284 466.2272,-541.9376 459.4868,-523.5249"/>
<polygon fill="#191970" stroke="#191970" points="486.78,-608.2636 493.5044,-616.4509 493.3534,-605.8572 486.78,-608.2636"/>
</g>
<!-- Node13&#45;&gt;Node14 -->
<g id="edge13" class="edge">
<title>Node13&#45;&gt;Node14</title>
<path fill="none" stroke="#191970" d="M448.7408,-494.9028C432.3714,-450.0663 394,-334.2715 394,-234 394,-234 394,-234 394,-178 394,-131.5625 432.956,-131.7167 475,-112 543.8804,-79.6982 634.3687,-70.0718 680.3744,-67.2083"/>
<polygon fill="#191970" stroke="#191970" points="445.5424,-496.3439 452.3073,-504.4978 452.1038,-493.9049 445.5424,-496.3439"/>
</g>
<!-- Node15 -->
<g id="node15" class="node">
<title>Node15</title>
<g id="a_node15"><a xlink:href="odp_8h.html" target="_top" xlink:title="WARNING: THIS FILE IS DEPRECATED AND WILL BE REMOVED!!! ODP APPLICATIONS SHOULD NOW INCLUDE odp_api...">
<polygon fill="#ffffff" stroke="#000000" points="689.5,-.5 689.5,-19.5 730.5,-19.5 730.5,-.5 689.5,-.5"/>
<text text-anchor="middle" x="710" y="-7.5" font-family="Helvetica,sans-Serif" font-size="10.00" fill="#000000">odp.h</text>
</a>
</g>
</g>
<!-- Node14&#45;&gt;Node15 -->
<g id="edge14" class="edge">
<title>Node14&#45;&gt;Node15</title>
<path fill="none" stroke="#191970" d="M710,-46.1575C710,-37.155 710,-26.9199 710,-19.6427"/>
<polygon fill="#191970" stroke="#191970" points="706.5001,-46.2455 710,-56.2455 713.5001,-46.2456 706.5001,-46.2455"/>
</g>
<!-- Node17 -->
<g id="node17" class="node">
<title>Node17</title>
<g id="a_node17"><a xlink:href="api_2crypto_8h.html" target="_top" xlink:title="ODP crypto. ">
<polygon fill="#ffffff" stroke="#000000" points="684,-336.5 684,-355.5 736,-355.5 736,-336.5 684,-336.5"/>
<text text-anchor="middle" x="710" y="-343.5" font-family="Helvetica,sans-Serif" font-size="10.00" fill="#000000">crypto.h</text>
</a>
</g>
</g>
<!-- Node16&#45;&gt;Node17 -->
<g id="edge16" class="edge">
<title>Node16&#45;&gt;Node17</title>
<path fill="none" stroke="#191970" d="M691.811,-438.5987C696.5716,-414.363 704.5285,-373.8551 708.129,-355.5249"/>
<polygon fill="#191970" stroke="#191970" points="688.3689,-437.9638 689.8757,-448.4509 695.2376,-439.3131 688.3689,-437.9638"/>
</g>
<!-- Node17&#45;&gt;Node14 -->
<g id="edge20" class="edge">
<title>Node17&#45;&gt;Node14</title>
<path fill="none" stroke="#191970" d="M718.8328,-327.2343C728.3045,-305.357 742,-267.868 742,-234 742,-234 742,-234 742,-178 742,-138.7683 723.623,-94.6778 714.7217,-75.6226"/>
<polygon fill="#191970" stroke="#191970" points="715.6305,-325.8216 714.7217,-336.3774 722.0149,-328.6923 715.6305,-325.8216"/>
</g>
<!-- Node18 -->
<g id="node18" class="node">
<title>Node18</title>
<g id="a_node18"><a xlink:href="api_2spec_2ipsec_8h.html" target="_top" xlink:title="ODP IPSEC API. ">
<polygon fill="#ffffff" stroke="#000000" points="642,-168.5 642,-187.5 690,-187.5 690,-168.5 642,-168.5"/>
<text text-anchor="middle" x="666" y="-175.5" font-family="Helvetica,sans-Serif" font-size="10.00" fill="#000000">ipsec.h</text>
</a>
</g>
</g>
<!-- Node17&#45;&gt;Node18 -->
<g id="edge17" class="edge">
<title>Node17&#45;&gt;Node18</title>
<path fill="none" stroke="#191970" d="M705.5372,-326.4465C699.9425,-302.2814 689.8825,-259.9487 680,-224 676.5481,-211.4433 672.1045,-197.1085 669.1596,-187.8255"/>
<polygon fill="#191970" stroke="#191970" points="702.1885,-327.5021 707.8409,-336.4631 709.0104,-325.9331 702.1885,-327.5021"/>
</g>
<!-- Node19 -->
<g id="node19" class="node">
<title>Node19</title>
<g id="a_node19"><a xlink:href="api_2ipsec_8h.html" target="_top" xlink:title="ODP IPSEC API &#45; platform specific header. ">
<polygon fill="#ffffff" stroke="#000000" points="654,-112.5 654,-131.5 702,-131.5 702,-112.5 654,-112.5"/>
<text text-anchor="middle" x="678" y="-119.5" font-family="Helvetica,sans-Serif" font-size="10.00" fill="#000000">ipsec.h</text>
</a>
</g>
</g>
<!-- Node18&#45;&gt;Node19 -->
<g id="edge18" class="edge">
<title>Node18&#45;&gt;Node19</title>
<path fill="none" stroke="#191970" d="M670.1885,-158.4538C672.1328,-149.3803 674.3572,-138.9998 675.9337,-131.6427"/>
<polygon fill="#191970" stroke="#191970" points="666.7633,-157.7341 668.0902,-168.2455 673.6079,-159.2009 666.7633,-157.7341"/>
</g>
<!-- Node19&#45;&gt;Node14 -->
<g id="edge19" class="edge">
<title>Node19&#45;&gt;Node14</title>
<path fill="none" stroke="#191970" d="M688.6645,-103.3372C693.9654,-94.0605 700.1487,-83.2398 704.4899,-75.6427"/>
<polygon fill="#191970" stroke="#191970" points="685.4966,-101.8266 683.574,-112.2455 691.5743,-105.2996 685.4966,-101.8266"/>
</g>
<!-- Node21 -->
<g id="node21" class="node">
<title>Node21</title>
<g id="a_node21"><a xlink:href="api_2event_8h.html" target="_top" xlink:title="ODP event. ">
<polygon fill="#ffffff" stroke="#000000" points="744.5,-560.5 744.5,-579.5 793.5,-579.5 793.5,-560.5 744.5,-560.5"/>
<text text-anchor="middle" x="769" y="-567.5" font-family="Helvetica,sans-Serif" font-size="10.00" fill="#000000">event.h</text>
</a>
</g>
</g>
<!-- Node20&#45;&gt;Node21 -->
<g id="edge22" class="edge">
<title>Node20&#45;&gt;Node21</title>
<path fill="none" stroke="#191970" d="M750.4781,-607.0437C755.0835,-597.8331 760.4201,-587.1598 764.1787,-579.6427"/>
<polygon fill="#191970" stroke="#191970" points="747.2189,-605.736 745.8772,-616.2455 753.4799,-608.8665 747.2189,-605.736"/>
</g>
<!-- Node21&#45;&gt;Node14 -->
<g id="edge43" class="edge">
<title>Node21&#45;&gt;Node14</title>
<path fill="none" stroke="#191970" d="M764.793,-550.2292C763.2729,-542.1393 761.7476,-532.6615 761,-524 758.0955,-490.3473 759.5049,-481.7447 761,-448 765.2264,-352.6083 780,-329.4852 780,-234 780,-234 780,-234 780,-178 780,-134.2041 741.0341,-93.4144 721.2467,-75.5244"/>
<polygon fill="#191970" stroke="#191970" points="761.3931,-551.076 766.7893,-560.1936 768.2567,-549.7009 761.3931,-551.076"/>
</g>
<!-- Node22 -->
<g id="node22" class="node">
<title>Node22</title>
<g id="a_node22"><a xlink:href="api_2spec_2queue_8h.html" target="_top" xlink:title="ODP queue. ">
<polygon fill="#ffffff" stroke="#000000" points="770.5,-504.5 770.5,-523.5 821.5,-523.5 821.5,-504.5 770.5,-504.5"/>
<text text-anchor="middle" x="796" y="-511.5" font-family="Helvetica,sans-Serif" font-size="10.00" fill="#000000">queue.h</text>
</a>
</g>
</g>
<!-- Node21&#45;&gt;Node22 -->
<g id="edge23" class="edge">
<title>Node21&#45;&gt;Node22</title>
<path fill="none" stroke="#191970" d="M778.1396,-551.0437C782.5805,-541.8331 787.7265,-531.1598 791.3509,-523.6427"/>
<polygon fill="#191970" stroke="#191970" points="774.8934,-549.7178 773.703,-560.2455 781.1988,-552.7579 774.8934,-549.7178"/>
</g>
<!-- Node30 -->
<g id="node30" class="node">
<title>Node30</title>
<g id="a_node30"><a xlink:href="api_2spec_2schedule_8h.html" target="_top" xlink:title="ODP schedule. ">
<polygon fill="#ffffff" stroke="#000000" points="846,-392.5 846,-411.5 910,-411.5 910,-392.5 846,-392.5"/>
<text text-anchor="middle" x="878" y="-399.5" font-family="Helvetica,sans-Serif" font-size="10.00" fill="#000000">schedule.h</text>
</a>
</g>
</g>
<!-- Node21&#45;&gt;Node30 -->
<g id="edge42" class="edge">
<title>Node21&#45;&gt;Node30</title>
<path fill="none" stroke="#191970" d="M795.3192,-554.8372C807.2147,-546.907 820.6639,-536.2872 830,-524 857.5405,-487.7541 871.3458,-433.6795 876.0678,-411.7563"/>
<polygon fill="#191970" stroke="#191970" points="793.186,-552.0457 786.6194,-560.3602 796.9377,-557.9554 793.186,-552.0457"/>
</g>
<!-- Node23 -->
<g id="node23" class="node">
<title>Node23</title>
<g id="a_node23"><a xlink:href="api_2queue_8h.html" target="_top" xlink:title="ODP queue. ">
<polygon fill="#ffffff" stroke="#000000" points="770.5,-448.5 770.5,-467.5 821.5,-467.5 821.5,-448.5 770.5,-448.5"/>
<text text-anchor="middle" x="796" y="-455.5" font-family="Helvetica,sans-Serif" font-size="10.00" fill="#000000">queue.h</text>
</a>
</g>
</g>
<!-- Node22&#45;&gt;Node23 -->
<g id="edge24" class="edge">
<title>Node22&#45;&gt;Node23</title>
<path fill="none" stroke="#191970" d="M796,-494.1575C796,-485.155 796,-474.9199 796,-467.6427"/>
<polygon fill="#191970" stroke="#191970" points="792.5001,-494.2455 796,-504.2455 799.5001,-494.2456 792.5001,-494.2455"/>
</g>
<!-- Node23&#45;&gt;Node14 -->
<g id="edge41" class="edge">
<title>Node23&#45;&gt;Node14</title>
<path fill="none" stroke="#191970" d="M802.2501,-438.3862C808.754,-416.2042 818,-378.8868 818,-346 818,-346 818,-346 818,-178 818,-146.7875 814.3283,-135.6851 794,-112 779.2728,-94.8409 756.4862,-82.9309 738.3598,-75.5356"/>
<polygon fill="#191970" stroke="#191970" points="798.8147,-437.6526 799.2462,-448.2386 805.5104,-439.6941 798.8147,-437.6526"/>
</g>
<!-- Node23&#45;&gt;Node17 -->
<g id="edge25" class="edge">
<title>Node23&#45;&gt;Node17</title>
<path fill="none" stroke="#191970" d="M782.3407,-440.2111C763.9027,-416.1989 731.7057,-374.2679 717.3138,-355.5249"/>
<polygon fill="#191970" stroke="#191970" points="779.8014,-442.651 788.6677,-448.4509 785.3534,-438.3878 779.8014,-442.651"/>
</g>
<!-- Node23&#45;&gt;Node24 -->
<g id="edge26" class="edge">
<title>Node23&#45;&gt;Node24</title>
<path fill="none" stroke="#191970" d="M760.5325,-447.4352C725.8438,-437.1024 673.4904,-421.5078 640.0306,-411.541"/>
<polygon fill="#191970" stroke="#191970" points="759.6705,-450.8304 770.2536,-450.3309 761.6689,-444.1217 759.6705,-450.8304"/>
</g>
<!-- Node23&#45;&gt;Node30 -->
<g id="edge38" class="edge">
<title>Node23&#45;&gt;Node30</title>
<path fill="none" stroke="#191970" d="M818.711,-442.49C833.1788,-432.6096 851.468,-420.1194 863.8804,-411.6427"/>
<polygon fill="#191970" stroke="#191970" points="816.5675,-439.7156 810.2833,-448.2455 820.5152,-445.4962 816.5675,-439.7156"/>
</g>
<!-- Node25 -->
<g id="node25" class="node">
<title>Node25</title>
<g id="a_node25"><a xlink:href="api_2packet__io_8h.html" target="_top" xlink:title="ODP Packet IO. ">
<polygon fill="#ffffff" stroke="#000000" points="565.5,-336.5 565.5,-355.5 632.5,-355.5 632.5,-336.5 565.5,-336.5"/>
<text text-anchor="middle" x="599" y="-343.5" font-family="Helvetica,sans-Serif" font-size="10.00" fill="#000000">packet_io.h</text>
</a>
</g>
</g>
<!-- Node24&#45;&gt;Node25 -->
<g id="edge27" class="edge">
<title>Node24&#45;&gt;Node25</title>
<path fill="none" stroke="#191970" d="M604.811,-382.1575C603.3642,-373.155 601.7193,-362.9199 600.5497,-355.6427"/>
<polygon fill="#191970" stroke="#191970" points="601.3898,-382.9276 606.4323,-392.2455 608.3011,-381.8168 601.3898,-382.9276"/>
</g>
<!-- Node25&#45;&gt;Node14 -->
<g id="edge37" class="edge">
<title>Node25&#45;&gt;Node14</title>
<path fill="none" stroke="#191970" d="M555.3183,-337.2248C517.1614,-328.7254 465.6453,-314.9568 451,-300 429.6441,-278.1899 432,-264.5246 432,-234 432,-234 432,-234 432,-178 432,-124.9258 608.5327,-85.3175 680.2491,-71.4165"/>
<polygon fill="#191970" stroke="#191970" points="554.676,-340.6669 565.1917,-339.3743 556.1651,-333.8271 554.676,-340.6669"/>
</g>
<!-- Node25&#45;&gt;Node18 -->
<g id="edge32" class="edge">
<title>Node25&#45;&gt;Node18</title>
<path fill="none" stroke="#191970" d="M620.6857,-330C629.9385,-322.0197 639.9727,-311.5966 646,-300 665.6977,-262.1013 666.8569,-209.4031 666.3966,-187.8148"/>
<polygon fill="#191970" stroke="#191970" points="618.4253,-327.327 612.8761,-336.3524 622.8424,-332.7574 618.4253,-327.327"/>
</g>
<!-- Node26 -->
<g id="node26" class="node">
<title>Node26</title>
<g id="a_node26"><a xlink:href="api_2spec_2classification_8h.html" target="_top" xlink:title="ODP classification descriptor. ">
<polygon fill="#ffffff" stroke="#000000" points="460,-280.5 460,-299.5 542,-299.5 542,-280.5 460,-280.5"/>
<text text-anchor="middle" x="501" y="-287.5" font-family="Helvetica,sans-Serif" font-size="10.00" fill="#000000">classification.h</text>
</a>
</g>
</g>
<!-- Node25&#45;&gt;Node26 -->
<g id="edge28" class="edge">
<title>Node25&#45;&gt;Node26</title>
<path fill="none" stroke="#191970" d="M572.8314,-331.0465C555.3942,-321.0824 532.9889,-308.2794 517.8747,-299.6427"/>
<polygon fill="#191970" stroke="#191970" points="571.5108,-334.323 581.9297,-336.2455 574.9838,-328.2453 571.5108,-334.323"/>
</g>
<!-- Node28 -->
<g id="node28" class="node">
<title>Node28</title>
<g id="a_node28"><a xlink:href="api_2spec_2traffic__mngr_8h.html" target="_top" xlink:title="Copyright (c) 2015&#45;2018, Linaro Limited All rights reserved. ">
<polygon fill="#ffffff" stroke="#000000" points="560.5,-280.5 560.5,-299.5 637.5,-299.5 637.5,-280.5 560.5,-280.5"/>
<text text-anchor="middle" x="599" y="-287.5" font-family="Helvetica,sans-Serif" font-size="10.00" fill="#000000">traffic_mngr.h</text>
</a>
</g>
</g>
<!-- Node25&#45;&gt;Node28 -->
<g id="edge33" class="edge">
<title>Node25&#45;&gt;Node28</title>
<path fill="none" stroke="#191970" d="M599,-326.1575C599,-317.155 599,-306.9199 599,-299.6427"/>
<polygon fill="#191970" stroke="#191970" points="595.5001,-326.2455 599,-336.2455 602.5001,-326.2456 595.5001,-326.2455"/>
</g>
<!-- Node27 -->
<g id="node27" class="node">
<title>Node27</title>
<g id="a_node27"><a xlink:href="api_2classification_8h.html" target="_top" xlink:title="ODP classification descriptor. ">
<polygon fill="#ffffff" stroke="#000000" points="460,-224.5 460,-243.5 542,-243.5 542,-224.5 460,-224.5"/>
<text text-anchor="middle" x="501" y="-231.5" font-family="Helvetica,sans-Serif" font-size="10.00" fill="#000000">classification.h</text>
</a>
</g>
</g>
<!-- Node26&#45;&gt;Node27 -->
<g id="edge29" class="edge">
<title>Node26&#45;&gt;Node27</title>
<path fill="none" stroke="#191970" d="M501,-270.1575C501,-261.155 501,-250.9199 501,-243.6427"/>
<polygon fill="#191970" stroke="#191970" points="497.5001,-270.2455 501,-280.2455 504.5001,-270.2456 497.5001,-270.2455"/>
</g>
<!-- Node27&#45;&gt;Node14 -->
<g id="edge31" class="edge">
<title>Node27&#45;&gt;Node14</title>
<path fill="none" stroke="#191970" d="M516.537,-216.7097C539.5386,-191.7181 584.7194,-144.8961 629,-112 648.6023,-97.4374 673.2612,-84.05 690.1915,-75.518"/>
<polygon fill="#191970" stroke="#191970" points="513.7709,-214.5487 509.62,-224.2966 518.9438,-219.2648 513.7709,-214.5487"/>
</g>
<!-- Node27&#45;&gt;Node18 -->
<g id="edge30" class="edge">
<title>Node27&#45;&gt;Node18</title>
<path fill="none" stroke="#191970" d="M539.1594,-221.0489C570.7805,-210.3169 614.766,-195.3885 641.759,-186.2273"/>
<polygon fill="#191970" stroke="#191970" points="537.7091,-217.845 529.3645,-224.3733 539.9589,-224.4736 537.7091,-217.845"/>
</g>
<!-- Node29 -->
<g id="node29" class="node">
<title>Node29</title>
<g id="a_node29"><a xlink:href="api_2traffic__mngr_8h.html" target="_top" xlink:title="ODP Traffic manager. ">
<polygon fill="#ffffff" stroke="#000000" points="560.5,-224.5 560.5,-243.5 637.5,-243.5 637.5,-224.5 560.5,-224.5"/>
<text text-anchor="middle" x="599" y="-231.5" font-family="Helvetica,sans-Serif" font-size="10.00" fill="#000000">traffic_mngr.h</text>
</a>
</g>
</g>
<!-- Node28&#45;&gt;Node29 -->
<g id="edge34" class="edge">
<title>Node28&#45;&gt;Node29</title>
<path fill="none" stroke="#191970" d="M599,-270.1575C599,-261.155 599,-250.9199 599,-243.6427"/>
<polygon fill="#191970" stroke="#191970" points="595.5001,-270.2455 599,-280.2455 602.5001,-270.2456 595.5001,-270.2455"/>
</g>
<!-- Node29&#45;&gt;Node14 -->
<g id="edge36" class="edge">
<title>Node29&#45;&gt;Node14</title>
<path fill="none" stroke="#191970" d="M602.7028,-214.1582C608.2922,-188.4426 620.8912,-143.2088 645,-112 657.1702,-96.2457 676.2153,-83.6603 690.5504,-75.6635"/>
<polygon fill="#191970" stroke="#191970" points="599.2272,-213.6871 600.6674,-224.1836 606.0872,-215.0799 599.2272,-213.6871"/>
</g>
<!-- Node29&#45;&gt;Node18 -->
<g id="edge35" class="edge">
<title>Node29&#45;&gt;Node18</title>
<path fill="none" stroke="#191970" d="M618.5676,-217.645C630.2198,-207.9058 644.6084,-195.8795 654.4632,-187.6427"/>
<polygon fill="#191970" stroke="#191970" points="616.0988,-215.1469 610.6705,-224.2455 620.5879,-220.5179 616.0988,-215.1469"/>
</g>
<!-- Node31 -->
<g id="node31" class="node">
<title>Node31</title>
<g id="a_node31"><a xlink:href="api_2schedule_8h.html" target="_top" xlink:title="ODP schedule. ">
<polygon fill="#ffffff" stroke="#000000" points="846,-168.5 846,-187.5 910,-187.5 910,-168.5 846,-168.5"/>
<text text-anchor="middle" x="878" y="-175.5" font-family="Helvetica,sans-Serif" font-size="10.00" fill="#000000">schedule.h</text>
</a>
</g>
</g>
<!-- Node30&#45;&gt;Node31 -->
<g id="edge39" class="edge">
<title>Node30&#45;&gt;Node31</title>
<path fill="none" stroke="#191970" d="M878,-382.1177C878,-335.6713 878,-221.4223 878,-187.5891"/>
<polygon fill="#191970" stroke="#191970" points="874.5001,-382.375 878,-392.375 881.5001,-382.375 874.5001,-382.375"/>
</g>
<!-- Node31&#45;&gt;Node14 -->
<g id="edge40" class="edge">
<title>Node31&#45;&gt;Node14</title>
<path fill="none" stroke="#191970" d="M868.7738,-158.927C860.8347,-144.2972 848.12,-124.5453 832,-112 804.4898,-90.5902 765.9287,-78.2927 739.5677,-71.892"/>
<polygon fill="#191970" stroke="#191970" points="865.8003,-160.7977 873.4904,-168.0856 872.0235,-157.5928 865.8003,-160.7977"/>
</g>
<!-- Node33 -->
<g id="node33" class="node">
<title>Node33</title>
<g id="a_node33"><a xlink:href="api_2packet__flags_8h.html" target="_top" xlink:title="ODP packet flags. ">
<polygon fill="#ffffff" stroke="#000000" points="966,-112.5 966,-131.5 1046,-131.5 1046,-112.5 966,-112.5"/>
<text text-anchor="middle" x="1006" y="-119.5" font-family="Helvetica,sans-Serif" font-size="10.00" fill="#000000">packet_flags.h</text>
</a>
</g>
</g>
<!-- Node32&#45;&gt;Node33 -->
<g id="edge45" class="edge">
<title>Node32&#45;&gt;Node33</title>
<path fill="none" stroke="#191970" d="M1006,-550.1952C1006,-527.8128 1006,-490.2884 1006,-458 1006,-458 1006,-458 1006,-234 1006,-196.0833 1006,-150.9462 1006,-131.5884"/>
<polygon fill="#191970" stroke="#191970" points="1002.5001,-550.4116 1006,-560.4116 1009.5001,-550.4117 1002.5001,-550.4116"/>
</g>
<!-- Node33&#45;&gt;Node14 -->
<g id="edge46" class="edge">
<title>Node33&#45;&gt;Node14</title>
<path fill="none" stroke="#191970" d="M955.8267,-112.5078C893.8744,-100.787 790.5009,-81.2299 739.8358,-71.6446"/>
<polygon fill="#191970" stroke="#191970" points="955.2957,-115.9693 965.7721,-114.3893 956.597,-109.0913 955.2957,-115.9693"/>
</g>
</g>
</svg>
