<?xml version="1.0" encoding="UTF-8" standalone="no"?>
<!DOCTYPE svg PUBLIC "-//W3C//DTD SVG 1.1//EN"
 "http://www.w3.org/Graphics/SVG/1.1/DTD/svg11.dtd">
<!-- Generated by graphviz version 2.40.1 (20161225.0304)
 -->
<!-- Title: spinlock.h Pages: 1 -->
<svg width="876pt" height="364pt"
 viewBox="0.00 0.00 876.17 364.00" xmlns="http://www.w3.org/2000/svg" xmlns:xlink="http://www.w3.org/1999/xlink">
<g id="graph0" class="graph" transform="scale(1 1) rotate(0) translate(4 360)">
<title>spinlock.h</title>
<polygon fill="#ffffff" stroke="transparent" points="-4,4 -4,-360 872.1655,-360 872.1655,4 -4,4"/>
<!-- Node3 -->
<g id="node1" class="node">
<title>Node3</title>
<polygon fill="#bfbfbf" stroke="#000000" points="682.5,-336.5 682.5,-355.5 743.5,-355.5 743.5,-336.5 682.5,-336.5"/>
<text text-anchor="middle" x="713" y="-343.5" font-family="Helvetica,sans-Serif" font-size="10.00" fill="#000000">spinlock.h</text>
</g>
<!-- Node4 -->
<g id="node2" class="node">
<title>Node4</title>
<g id="a_node2"><a xlink:href="api_2spinlock_8h.html" target="_top" xlink:title="ODP spinlock. ">
<polygon fill="#ffffff" stroke="#000000" points="682.5,-280.5 682.5,-299.5 743.5,-299.5 743.5,-280.5 682.5,-280.5"/>
<text text-anchor="middle" x="713" y="-287.5" font-family="Helvetica,sans-Serif" font-size="10.00" fill="#000000">spinlock.h</text>
</a>
</g>
</g>
<!-- Node3&#45;&gt;Node4 -->
<g id="edge1" class="edge">
<title>Node3&#45;&gt;Node4</title>
<path fill="none" stroke="#191970" d="M713,-326.1575C713,-317.155 713,-306.9199 713,-299.6427"/>
<polygon fill="#191970" stroke="#191970" points="709.5001,-326.2455 713,-336.2455 716.5001,-326.2456 709.5001,-326.2455"/>
</g>
<!-- Node5 -->
<g id="node3" class="node">
<title>Node5</title>
<g id="a_node3"><a xlink:href="api_2abi-default_2spinlock__recursive_8h.html" target="_top" xlink:title="ODP recursive spinlock. ">
<polygon fill="#ffffff" stroke="#000000" points="434,-224.5 434,-243.5 540,-243.5 540,-224.5 434,-224.5"/>
<text text-anchor="middle" x="487" y="-231.5" font-family="Helvetica,sans-Serif" font-size="10.00" fill="#000000">spinlock_recursive.h</text>
</a>
</g>
</g>
<!-- Node4&#45;&gt;Node5 -->
<g id="edge2" class="edge">
<title>Node4&#45;&gt;Node5</title>
<path fill="none" stroke="#191970" d="M672.2282,-279.8973C630.5591,-269.5722 566.3321,-253.6575 525.5049,-243.541"/>
<polygon fill="#191970" stroke="#191970" points="671.5013,-283.3229 682.0495,-282.3309 673.1849,-276.5284 671.5013,-283.3229"/>
</g>
<!-- Node14 -->
<g id="node12" class="node">
<title>Node14</title>
<g id="a_node12"><a xlink:href="odp__api_8h.html" target="_top" xlink:title="The OpenDataPlane API. ">
<polygon fill="#ffffff" stroke="#000000" points="807.5,-56.5 807.5,-75.5 866.5,-75.5 866.5,-56.5 807.5,-56.5"/>
<text text-anchor="middle" x="837" y="-63.5" font-family="Helvetica,sans-Serif" font-size="10.00" fill="#000000">odp_api.h</text>
</a>
</g>
</g>
<!-- Node4&#45;&gt;Node14 -->
<g id="edge13" class="edge">
<title>Node4&#45;&gt;Node14</title>
<path fill="none" stroke="#191970" d="M748.971,-276.4874C784.2563,-261.0621 836.0078,-232.1105 859,-188 874.6127,-158.047 866.4719,-144.941 859,-112 855.9843,-98.7049 848.6356,-84.7591 843.2583,-75.7567"/>
<polygon fill="#191970" stroke="#191970" points="747.3495,-273.3725 739.493,-280.4807 750.0674,-279.8233 747.3495,-273.3725"/>
</g>
<!-- Node6 -->
<g id="node4" class="node">
<title>Node6</title>
<g id="a_node4"><a xlink:href="arch_2arm32-linux_2odp_2api_2abi_2spinlock__recursive_8h_source.html" target="_top" xlink:title="spinlock_recursive.h">
<polygon fill="#ffffff" stroke="#000000" points="0,-168.5 0,-187.5 106,-187.5 106,-168.5 0,-168.5"/>
<text text-anchor="middle" x="53" y="-175.5" font-family="Helvetica,sans-Serif" font-size="10.00" fill="#000000">spinlock_recursive.h</text>
</a>
</g>
</g>
<!-- Node5&#45;&gt;Node6 -->
<g id="edge3" class="edge">
<title>Node5&#45;&gt;Node6</title>
<path fill="none" stroke="#191970" d="M423.8415,-226.909C349.7591,-218.4252 223.2945,-203.4237 115,-188 112.0856,-187.5849 109.0963,-187.1462 106.0803,-186.6933"/>
<polygon fill="#191970" stroke="#191970" points="423.6073,-230.405 433.9399,-228.0623 424.4016,-223.4502 423.6073,-230.405"/>
</g>
<!-- Node7 -->
<g id="node5" class="node">
<title>Node7</title>
<g id="a_node5"><a xlink:href="arch_2arm64-linux_2odp_2api_2abi_2spinlock__recursive_8h_source.html" target="_top" xlink:title="spinlock_recursive.h">
<polygon fill="#ffffff" stroke="#000000" points="124,-168.5 124,-187.5 230,-187.5 230,-168.5 124,-168.5"/>
<text text-anchor="middle" x="177" y="-175.5" font-family="Helvetica,sans-Serif" font-size="10.00" fill="#000000">spinlock_recursive.h</text>
</a>
</g>
</g>
<!-- Node5&#45;&gt;Node7 -->
<g id="edge4" class="edge">
<title>Node5&#45;&gt;Node7</title>
<path fill="none" stroke="#191970" d="M424.0568,-222.6296C366.8731,-212.2997 283.4745,-197.2341 229.7203,-187.5237"/>
<polygon fill="#191970" stroke="#191970" points="423.5984,-226.1034 434.0613,-224.4369 424.8428,-219.2149 423.5984,-226.1034"/>
</g>
<!-- Node8 -->
<g id="node6" class="node">
<title>Node8</title>
<g id="a_node6"><a xlink:href="arch_2default-linux_2odp_2api_2abi_2spinlock__recursive_8h_source.html" target="_top" xlink:title="spinlock_recursive.h">
<polygon fill="#ffffff" stroke="#000000" points="248,-168.5 248,-187.5 354,-187.5 354,-168.5 248,-168.5"/>
<text text-anchor="middle" x="301" y="-175.5" font-family="Helvetica,sans-Serif" font-size="10.00" fill="#000000">spinlock_recursive.h</text>
</a>
</g>
</g>
<!-- Node5&#45;&gt;Node8 -->
<g id="edge5" class="edge">
<title>Node5&#45;&gt;Node8</title>
<path fill="none" stroke="#191970" d="M445.3363,-221.4561C411.1933,-211.1765 363.6069,-196.8494 332.5573,-187.5011"/>
<polygon fill="#191970" stroke="#191970" points="444.441,-224.8417 455.0255,-224.3733 446.4591,-218.1389 444.441,-224.8417"/>
</g>
<!-- Node9 -->
<g id="node7" class="node">
<title>Node9</title>
<g id="a_node7"><a xlink:href="arch_2mips64-linux_2odp_2api_2abi_2spinlock__recursive_8h_source.html" target="_top" xlink:title="spinlock_recursive.h">
<polygon fill="#ffffff" stroke="#000000" points="372,-168.5 372,-187.5 478,-187.5 478,-168.5 372,-168.5"/>
<text text-anchor="middle" x="425" y="-175.5" font-family="Helvetica,sans-Serif" font-size="10.00" fill="#000000">spinlock_recursive.h</text>
</a>
</g>
</g>
<!-- Node5&#45;&gt;Node9 -->
<g id="edge6" class="edge">
<title>Node5&#45;&gt;Node9</title>
<path fill="none" stroke="#191970" d="M468.5779,-217.3607C457.8519,-207.6727 444.7066,-195.7995 435.6758,-187.6427"/>
<polygon fill="#191970" stroke="#191970" points="466.4334,-220.14 476.2004,-224.2455 471.1254,-214.9453 466.4334,-220.14"/>
</g>
<!-- Node10 -->
<g id="node8" class="node">
<title>Node10</title>
<g id="a_node8"><a xlink:href="arch_2power64-linux_2odp_2api_2abi_2spinlock__recursive_8h_source.html" target="_top" xlink:title="spinlock_recursive.h">
<polygon fill="#ffffff" stroke="#000000" points="496,-168.5 496,-187.5 602,-187.5 602,-168.5 496,-168.5"/>
<text text-anchor="middle" x="549" y="-175.5" font-family="Helvetica,sans-Serif" font-size="10.00" fill="#000000">spinlock_recursive.h</text>
</a>
</g>
</g>
<!-- Node5&#45;&gt;Node10 -->
<g id="edge7" class="edge">
<title>Node5&#45;&gt;Node10</title>
<path fill="none" stroke="#191970" d="M505.4221,-217.3607C516.1481,-207.6727 529.2934,-195.7995 538.3242,-187.6427"/>
<polygon fill="#191970" stroke="#191970" points="502.8746,-214.9453 497.7996,-224.2455 507.5666,-220.14 502.8746,-214.9453"/>
</g>
<!-- Node11 -->
<g id="node9" class="node">
<title>Node11</title>
<g id="a_node9"><a xlink:href="arch_2x86__32-linux_2odp_2api_2abi_2spinlock__recursive_8h_source.html" target="_top" xlink:title="spinlock_recursive.h">
<polygon fill="#ffffff" stroke="#000000" points="620,-168.5 620,-187.5 726,-187.5 726,-168.5 620,-168.5"/>
<text text-anchor="middle" x="673" y="-175.5" font-family="Helvetica,sans-Serif" font-size="10.00" fill="#000000">spinlock_recursive.h</text>
</a>
</g>
</g>
<!-- Node5&#45;&gt;Node11 -->
<g id="edge8" class="edge">
<title>Node5&#45;&gt;Node11</title>
<path fill="none" stroke="#191970" d="M528.6637,-221.4561C562.8067,-211.1765 610.3931,-196.8494 641.4427,-187.5011"/>
<polygon fill="#191970" stroke="#191970" points="527.5409,-218.1389 518.9745,-224.3733 529.559,-224.8417 527.5409,-218.1389"/>
</g>
<!-- Node12 -->
<g id="node10" class="node">
<title>Node12</title>
<g id="a_node10"><a xlink:href="arch_2x86__64-linux_2odp_2api_2abi_2spinlock__recursive_8h_source.html" target="_top" xlink:title="spinlock_recursive.h">
<polygon fill="#ffffff" stroke="#000000" points="744,-168.5 744,-187.5 850,-187.5 850,-168.5 744,-168.5"/>
<text text-anchor="middle" x="797" y="-175.5" font-family="Helvetica,sans-Serif" font-size="10.00" fill="#000000">spinlock_recursive.h</text>
</a>
</g>
</g>
<!-- Node5&#45;&gt;Node12 -->
<g id="edge9" class="edge">
<title>Node5&#45;&gt;Node12</title>
<path fill="none" stroke="#191970" d="M549.9432,-222.6296C607.1269,-212.2997 690.5255,-197.2341 744.2797,-187.5237"/>
<polygon fill="#191970" stroke="#191970" points="549.1572,-219.2149 539.9387,-224.4369 550.4016,-226.1034 549.1572,-219.2149"/>
</g>
<!-- Node13 -->
<g id="node11" class="node">
<title>Node13</title>
<g id="a_node11"><a xlink:href="api_2spinlock__recursive_8h.html" target="_top" xlink:title="ODP resursive spinlock. ">
<polygon fill="#ffffff" stroke="#000000" points="744,-112.5 744,-131.5 850,-131.5 850,-112.5 744,-112.5"/>
<text text-anchor="middle" x="797" y="-119.5" font-family="Helvetica,sans-Serif" font-size="10.00" fill="#000000">spinlock_recursive.h</text>
</a>
</g>
</g>
<!-- Node12&#45;&gt;Node13 -->
<g id="edge10" class="edge">
<title>Node12&#45;&gt;Node13</title>
<path fill="none" stroke="#191970" d="M797,-158.1575C797,-149.155 797,-138.9199 797,-131.6427"/>
<polygon fill="#191970" stroke="#191970" points="793.5001,-158.2455 797,-168.2455 800.5001,-158.2456 793.5001,-158.2455"/>
</g>
<!-- Node13&#45;&gt;Node14 -->
<g id="edge11" class="edge">
<title>Node13&#45;&gt;Node14</title>
<path fill="none" stroke="#191970" d="M809.9136,-103.9209C816.6303,-94.5176 824.5717,-83.3997 830.1124,-75.6427"/>
<polygon fill="#191970" stroke="#191970" points="806.9318,-102.0738 803.9675,-112.2455 812.628,-106.1425 806.9318,-102.0738"/>
</g>
<!-- Node15 -->
<g id="node13" class="node">
<title>Node15</title>
<g id="a_node13"><a xlink:href="odp_8h.html" target="_top" xlink:title="WARNING: THIS FILE IS DEPRECATED AND WILL BE REMOVED!!! ODP APPLICATIONS SHOULD NOW INCLUDE odp_api...">
<polygon fill="#ffffff" stroke="#000000" points="816.5,-.5 816.5,-19.5 857.5,-19.5 857.5,-.5 816.5,-.5"/>
<text text-anchor="middle" x="837" y="-7.5" font-family="Helvetica,sans-Serif" font-size="10.00" fill="#000000">odp.h</text>
</a>
</g>
</g>
<!-- Node14&#45;&gt;Node15 -->
<g id="edge12" class="edge">
<title>Node14&#45;&gt;Node15</title>
<path fill="none" stroke="#191970" d="M837,-46.1575C837,-37.155 837,-26.9199 837,-19.6427"/>
<polygon fill="#191970" stroke="#191970" points="833.5001,-46.2455 837,-56.2455 840.5001,-46.2456 833.5001,-46.2455"/>
</g>
</g>
</svg>
