<?xml version="1.0" encoding="UTF-8" standalone="no"?>
<!DOCTYPE svg PUBLIC "-//W3C//DTD SVG 1.1//EN"
 "http://www.w3.org/Graphics/SVG/1.1/DTD/svg11.dtd">
<!-- Generated by graphviz version 2.40.1 (20161225.0304)
 -->
<!-- Title: packet_flags.h Pages: 1 -->
<svg width="676pt" height="252pt"
 viewBox="0.00 0.00 676.00 252.00" xmlns="http://www.w3.org/2000/svg" xmlns:xlink="http://www.w3.org/1999/xlink">
<g id="graph0" class="graph" transform="scale(1 1) rotate(0) translate(4 248)">
<title>packet_flags.h</title>
<polygon fill="#ffffff" stroke="transparent" points="-4,4 -4,-248 672,-248 672,4 -4,4"/>
<!-- Node1 -->
<g id="node1" class="node">
<title>Node1</title>
<polygon fill="#bfbfbf" stroke="#000000" points="294,-224.5 294,-243.5 374,-243.5 374,-224.5 294,-224.5"/>
<text text-anchor="middle" x="334" y="-231.5" font-family="Helvetica,sans-Serif" font-size="10.00" fill="#000000">packet_flags.h</text>
</g>
<!-- Node2 -->
<g id="node2" class="node">
<title>Node2</title>
<g id="a_node2"><a xlink:href="arch_2arm32-linux_2odp_2api_2abi_2packet__flags_8h_source.html" target="_top" xlink:title="packet_flags.h">
<polygon fill="#ffffff" stroke="#000000" points="0,-168.5 0,-187.5 80,-187.5 80,-168.5 0,-168.5"/>
<text text-anchor="middle" x="40" y="-175.5" font-family="Helvetica,sans-Serif" font-size="10.00" fill="#000000">packet_flags.h</text>
</a>
</g>
</g>
<!-- Node1&#45;&gt;Node2 -->
<g id="edge1" class="edge">
<title>Node1&#45;&gt;Node2</title>
<path fill="none" stroke="#191970" d="M283.5086,-224.7596C233.9415,-215.6319 156.2073,-201.1663 89,-188 86.1031,-187.4325 83.1113,-186.8393 80.1011,-186.2373"/>
<polygon fill="#191970" stroke="#191970" points="283.176,-228.2571 293.6443,-226.624 284.4424,-221.3726 283.176,-228.2571"/>
</g>
<!-- Node3 -->
<g id="node3" class="node">
<title>Node3</title>
<g id="a_node3"><a xlink:href="arch_2arm64-linux_2odp_2api_2abi_2packet__flags_8h_source.html" target="_top" xlink:title="packet_flags.h">
<polygon fill="#ffffff" stroke="#000000" points="98,-168.5 98,-187.5 178,-187.5 178,-168.5 98,-168.5"/>
<text text-anchor="middle" x="138" y="-175.5" font-family="Helvetica,sans-Serif" font-size="10.00" fill="#000000">packet_flags.h</text>
</a>
</g>
</g>
<!-- Node1&#45;&gt;Node3 -->
<g id="edge2" class="edge">
<title>Node1&#45;&gt;Node3</title>
<path fill="none" stroke="#191970" d="M290.5587,-221.5882C254.5484,-211.2996 204.1132,-196.8895 171.2539,-187.5011"/>
<polygon fill="#191970" stroke="#191970" points="289.7296,-224.9913 300.3064,-224.3733 291.6527,-218.2606 289.7296,-224.9913"/>
</g>
<!-- Node4 -->
<g id="node4" class="node">
<title>Node4</title>
<g id="a_node4"><a xlink:href="arch_2default-linux_2odp_2api_2abi_2packet__flags_8h_source.html" target="_top" xlink:title="packet_flags.h">
<polygon fill="#ffffff" stroke="#000000" points="196,-168.5 196,-187.5 276,-187.5 276,-168.5 196,-168.5"/>
<text text-anchor="middle" x="236" y="-175.5" font-family="Helvetica,sans-Serif" font-size="10.00" fill="#000000">packet_flags.h</text>
</a>
</g>
</g>
<!-- Node1&#45;&gt;Node4 -->
<g id="edge3" class="edge">
<title>Node1&#45;&gt;Node4</title>
<path fill="none" stroke="#191970" d="M307.8314,-219.0465C290.3942,-209.0824 267.9889,-196.2794 252.8747,-187.6427"/>
<polygon fill="#191970" stroke="#191970" points="306.5108,-222.323 316.9297,-224.2455 309.9838,-216.2453 306.5108,-222.323"/>
</g>
<!-- Node5 -->
<g id="node5" class="node">
<title>Node5</title>
<g id="a_node5"><a xlink:href="arch_2mips64-linux_2odp_2api_2abi_2packet__flags_8h_source.html" target="_top" xlink:title="packet_flags.h">
<polygon fill="#ffffff" stroke="#000000" points="294,-168.5 294,-187.5 374,-187.5 374,-168.5 294,-168.5"/>
<text text-anchor="middle" x="334" y="-175.5" font-family="Helvetica,sans-Serif" font-size="10.00" fill="#000000">packet_flags.h</text>
</a>
</g>
</g>
<!-- Node1&#45;&gt;Node5 -->
<g id="edge4" class="edge">
<title>Node1&#45;&gt;Node5</title>
<path fill="none" stroke="#191970" d="M334,-214.1575C334,-205.155 334,-194.9199 334,-187.6427"/>
<polygon fill="#191970" stroke="#191970" points="330.5001,-214.2455 334,-224.2455 337.5001,-214.2456 330.5001,-214.2455"/>
</g>
<!-- Node6 -->
<g id="node6" class="node">
<title>Node6</title>
<g id="a_node6"><a xlink:href="arch_2power64-linux_2odp_2api_2abi_2packet__flags_8h_source.html" target="_top" xlink:title="packet_flags.h">
<polygon fill="#ffffff" stroke="#000000" points="392,-168.5 392,-187.5 472,-187.5 472,-168.5 392,-168.5"/>
<text text-anchor="middle" x="432" y="-175.5" font-family="Helvetica,sans-Serif" font-size="10.00" fill="#000000">packet_flags.h</text>
</a>
</g>
</g>
<!-- Node1&#45;&gt;Node6 -->
<g id="edge5" class="edge">
<title>Node1&#45;&gt;Node6</title>
<path fill="none" stroke="#191970" d="M360.1686,-219.0465C377.6058,-209.0824 400.0111,-196.2794 415.1253,-187.6427"/>
<polygon fill="#191970" stroke="#191970" points="358.0162,-216.2453 351.0703,-224.2455 361.4892,-222.323 358.0162,-216.2453"/>
</g>
<!-- Node7 -->
<g id="node7" class="node">
<title>Node7</title>
<g id="a_node7"><a xlink:href="arch_2x86__32-linux_2odp_2api_2abi_2packet__flags_8h_source.html" target="_top" xlink:title="packet_flags.h">
<polygon fill="#ffffff" stroke="#000000" points="490,-168.5 490,-187.5 570,-187.5 570,-168.5 490,-168.5"/>
<text text-anchor="middle" x="530" y="-175.5" font-family="Helvetica,sans-Serif" font-size="10.00" fill="#000000">packet_flags.h</text>
</a>
</g>
</g>
<!-- Node1&#45;&gt;Node7 -->
<g id="edge6" class="edge">
<title>Node1&#45;&gt;Node7</title>
<path fill="none" stroke="#191970" d="M377.4413,-221.5882C413.4516,-211.2996 463.8868,-196.8895 496.7461,-187.5011"/>
<polygon fill="#191970" stroke="#191970" points="376.3473,-218.2606 367.6936,-224.3733 378.2704,-224.9913 376.3473,-218.2606"/>
</g>
<!-- Node8 -->
<g id="node8" class="node">
<title>Node8</title>
<g id="a_node8"><a xlink:href="arch_2x86__64-linux_2odp_2api_2abi_2packet__flags_8h_source.html" target="_top" xlink:title="packet_flags.h">
<polygon fill="#ffffff" stroke="#000000" points="588,-168.5 588,-187.5 668,-187.5 668,-168.5 588,-168.5"/>
<text text-anchor="middle" x="628" y="-175.5" font-family="Helvetica,sans-Serif" font-size="10.00" fill="#000000">packet_flags.h</text>
</a>
</g>
</g>
<!-- Node1&#45;&gt;Node8 -->
<g id="edge7" class="edge">
<title>Node1&#45;&gt;Node8</title>
<path fill="none" stroke="#191970" d="M384.4914,-224.7596C434.0585,-215.6319 511.7927,-201.1663 579,-188 581.8969,-187.4325 584.8887,-186.8393 587.8989,-186.2373"/>
<polygon fill="#191970" stroke="#191970" points="383.5576,-221.3726 374.3557,-226.624 384.824,-228.2571 383.5576,-221.3726"/>
</g>
<!-- Node9 -->
<g id="node9" class="node">
<title>Node9</title>
<g id="a_node9"><a xlink:href="api_2packet__flags_8h.html" target="_top" xlink:title="ODP packet flags. ">
<polygon fill="#ffffff" stroke="#000000" points="588,-112.5 588,-131.5 668,-131.5 668,-112.5 588,-112.5"/>
<text text-anchor="middle" x="628" y="-119.5" font-family="Helvetica,sans-Serif" font-size="10.00" fill="#000000">packet_flags.h</text>
</a>
</g>
</g>
<!-- Node8&#45;&gt;Node9 -->
<g id="edge8" class="edge">
<title>Node8&#45;&gt;Node9</title>
<path fill="none" stroke="#191970" d="M628,-158.1575C628,-149.155 628,-138.9199 628,-131.6427"/>
<polygon fill="#191970" stroke="#191970" points="624.5001,-158.2455 628,-168.2455 631.5001,-158.2456 624.5001,-158.2455"/>
</g>
<!-- Node10 -->
<g id="node10" class="node">
<title>Node10</title>
<g id="a_node10"><a xlink:href="odp__api_8h.html" target="_top" xlink:title="The OpenDataPlane API. ">
<polygon fill="#ffffff" stroke="#000000" points="598.5,-56.5 598.5,-75.5 657.5,-75.5 657.5,-56.5 598.5,-56.5"/>
<text text-anchor="middle" x="628" y="-63.5" font-family="Helvetica,sans-Serif" font-size="10.00" fill="#000000">odp_api.h</text>
</a>
</g>
</g>
<!-- Node9&#45;&gt;Node10 -->
<g id="edge9" class="edge">
<title>Node9&#45;&gt;Node10</title>
<path fill="none" stroke="#191970" d="M628,-102.1575C628,-93.155 628,-82.9199 628,-75.6427"/>
<polygon fill="#191970" stroke="#191970" points="624.5001,-102.2455 628,-112.2455 631.5001,-102.2456 624.5001,-102.2455"/>
</g>
<!-- Node11 -->
<g id="node11" class="node">
<title>Node11</title>
<g id="a_node11"><a xlink:href="odp_8h.html" target="_top" xlink:title="WARNING: THIS FILE IS DEPRECATED AND WILL BE REMOVED!!! ODP APPLICATIONS SHOULD NOW INCLUDE odp_api...">
<polygon fill="#ffffff" stroke="#000000" points="607.5,-.5 607.5,-19.5 648.5,-19.5 648.5,-.5 607.5,-.5"/>
<text text-anchor="middle" x="628" y="-7.5" font-family="Helvetica,sans-Serif" font-size="10.00" fill="#000000">odp.h</text>
</a>
</g>
</g>
<!-- Node10&#45;&gt;Node11 -->
<g id="edge10" class="edge">
<title>Node10&#45;&gt;Node11</title>
<path fill="none" stroke="#191970" d="M628,-46.1575C628,-37.155 628,-26.9199 628,-19.6427"/>
<polygon fill="#191970" stroke="#191970" points="624.5001,-46.2455 628,-56.2455 631.5001,-46.2456 624.5001,-46.2455"/>
</g>
</g>
</svg>
