<?xml version="1.0" encoding="UTF-8" standalone="no"?>
<!DOCTYPE svg PUBLIC "-//W3C//DTD SVG 1.1//EN"
 "http://www.w3.org/Graphics/SVG/1.1/DTD/svg11.dtd">
<!-- Generated by graphviz version 2.40.1 (20161225.0304)
 -->
<!-- Title: init.h Pages: 1 -->
<svg width="123pt" height="252pt"
 viewBox="0.00 0.00 123.00 252.00" xmlns="http://www.w3.org/2000/svg" xmlns:xlink="http://www.w3.org/1999/xlink">
<g id="graph0" class="graph" transform="scale(1 1) rotate(0) translate(4 248)">
<title>init.h</title>
<polygon fill="#ffffff" stroke="transparent" points="-4,4 -4,-248 119,-248 119,4 -4,4"/>
<!-- Node23 -->
<g id="node1" class="node">
<title>Node23</title>
<polygon fill="#bfbfbf" stroke="#000000" points="66.5,-224.5 66.5,-243.5 104.5,-243.5 104.5,-224.5 66.5,-224.5"/>
<text text-anchor="middle" x="85.5" y="-231.5" font-family="Helvetica,sans-Serif" font-size="10.00" fill="#000000">init.h</text>
</g>
<!-- Node24 -->
<g id="node2" class="node">
<title>Node24</title>
<g id="a_node2"><a xlink:href="api_2spec_2shared__memory_8h.html" target="_top" xlink:title="ODP shared memory. ">
<polygon fill="#ffffff" stroke="#000000" points="0,-168.5 0,-187.5 95,-187.5 95,-168.5 0,-168.5"/>
<text text-anchor="middle" x="47.5" y="-175.5" font-family="Helvetica,sans-Serif" font-size="10.00" fill="#000000">shared_memory.h</text>
</a>
</g>
</g>
<!-- Node23&#45;&gt;Node24 -->
<g id="edge1" class="edge">
<title>Node23&#45;&gt;Node24</title>
<path fill="none" stroke="#191970" d="M73.2321,-215.9209C66.8512,-206.5176 59.3069,-195.3997 54.0432,-187.6427"/>
<polygon fill="#191970" stroke="#191970" points="70.3697,-217.936 78.8809,-224.2455 76.162,-214.0055 70.3697,-217.936"/>
</g>
<!-- Node26 -->
<g id="node4" class="node">
<title>Node26</title>
<g id="a_node4"><a xlink:href="odp__api_8h.html" target="_top" xlink:title="The OpenDataPlane API. ">
<polygon fill="#ffffff" stroke="#000000" points="56,-56.5 56,-75.5 115,-75.5 115,-56.5 56,-56.5"/>
<text text-anchor="middle" x="85.5" y="-63.5" font-family="Helvetica,sans-Serif" font-size="10.00" fill="#000000">odp_api.h</text>
</a>
</g>
</g>
<!-- Node23&#45;&gt;Node26 -->
<g id="edge5" class="edge">
<title>Node23&#45;&gt;Node26</title>
<path fill="none" stroke="#191970" d="M95.0946,-215.4785C98.8201,-207.2885 102.6352,-197.3997 104.5,-188 111.0732,-154.868 111.0732,-145.132 104.5,-112 101.8769,-98.7785 95.3953,-84.5891 90.7318,-75.5212"/>
<polygon fill="#191970" stroke="#191970" points="91.9443,-213.9536 90.7318,-224.4788 98.2433,-217.007 91.9443,-213.9536"/>
</g>
<!-- Node25 -->
<g id="node3" class="node">
<title>Node25</title>
<g id="a_node3"><a xlink:href="api_2shared__memory_8h.html" target="_top" xlink:title="ODP shared memory. ">
<polygon fill="#ffffff" stroke="#000000" points="0,-112.5 0,-131.5 95,-131.5 95,-112.5 0,-112.5"/>
<text text-anchor="middle" x="47.5" y="-119.5" font-family="Helvetica,sans-Serif" font-size="10.00" fill="#000000">shared_memory.h</text>
</a>
</g>
</g>
<!-- Node24&#45;&gt;Node25 -->
<g id="edge2" class="edge">
<title>Node24&#45;&gt;Node25</title>
<path fill="none" stroke="#191970" d="M47.5,-158.1575C47.5,-149.155 47.5,-138.9199 47.5,-131.6427"/>
<polygon fill="#191970" stroke="#191970" points="44.0001,-158.2455 47.5,-168.2455 51.0001,-158.2456 44.0001,-158.2455"/>
</g>
<!-- Node25&#45;&gt;Node26 -->
<g id="edge3" class="edge">
<title>Node25&#45;&gt;Node26</title>
<path fill="none" stroke="#191970" d="M59.7679,-103.9209C66.1488,-94.5176 73.6931,-83.3997 78.9568,-75.6427"/>
<polygon fill="#191970" stroke="#191970" points="56.838,-102.0055 54.1191,-112.2455 62.6303,-105.936 56.838,-102.0055"/>
</g>
<!-- Node27 -->
<g id="node5" class="node">
<title>Node27</title>
<g id="a_node5"><a xlink:href="odp_8h.html" target="_top" xlink:title="WARNING: THIS FILE IS DEPRECATED AND WILL BE REMOVED!!! ODP APPLICATIONS SHOULD NOW INCLUDE odp_api...">
<polygon fill="#ffffff" stroke="#000000" points="65,-.5 65,-19.5 106,-19.5 106,-.5 65,-.5"/>
<text text-anchor="middle" x="85.5" y="-7.5" font-family="Helvetica,sans-Serif" font-size="10.00" fill="#000000">odp.h</text>
</a>
</g>
</g>
<!-- Node26&#45;&gt;Node27 -->
<g id="edge4" class="edge">
<title>Node26&#45;&gt;Node27</title>
<path fill="none" stroke="#191970" d="M85.5,-46.1575C85.5,-37.155 85.5,-26.9199 85.5,-19.6427"/>
<polygon fill="#191970" stroke="#191970" points="82.0001,-46.2455 85.5,-56.2455 89.0001,-46.2456 82.0001,-46.2455"/>
</g>
</g>
</svg>
