<?xml version="1.0" encoding="UTF-8" standalone="no"?>
<!DOCTYPE svg PUBLIC "-//W3C//DTD SVG 1.1//EN"
 "http://www.w3.org/Graphics/SVG/1.1/DTD/svg11.dtd">
<!-- Generated by graphviz version 2.40.1 (20161225.0304)
 -->
<!-- Title: spinlock_recursive.h Pages: 1 -->
<svg width="114pt" height="196pt"
 viewBox="0.00 0.00 114.00 196.00" xmlns="http://www.w3.org/2000/svg" xmlns:xlink="http://www.w3.org/1999/xlink">
<g id="graph0" class="graph" transform="scale(1 1) rotate(0) translate(4 192)">
<title>spinlock_recursive.h</title>
<polygon fill="#ffffff" stroke="transparent" points="-4,4 -4,-192 110,-192 110,4 -4,4"/>
<!-- Node3 -->
<g id="node1" class="node">
<title>Node3</title>
<polygon fill="#bfbfbf" stroke="#000000" points="0,-168.5 0,-187.5 106,-187.5 106,-168.5 0,-168.5"/>
<text text-anchor="middle" x="53" y="-175.5" font-family="Helvetica,sans-Serif" font-size="10.00" fill="#000000">spinlock_recursive.h</text>
</g>
<!-- Node4 -->
<g id="node2" class="node">
<title>Node4</title>
<g id="a_node2"><a xlink:href="api_2spinlock__recursive_8h.html" target="_top" xlink:title="ODP resursive spinlock. ">
<polygon fill="#ffffff" stroke="#000000" points="0,-112.5 0,-131.5 106,-131.5 106,-112.5 0,-112.5"/>
<text text-anchor="middle" x="53" y="-119.5" font-family="Helvetica,sans-Serif" font-size="10.00" fill="#000000">spinlock_recursive.h</text>
</a>
</g>
</g>
<!-- Node3&#45;&gt;Node4 -->
<g id="edge1" class="edge">
<title>Node3&#45;&gt;Node4</title>
<path fill="none" stroke="#191970" d="M53,-158.1575C53,-149.155 53,-138.9199 53,-131.6427"/>
<polygon fill="#191970" stroke="#191970" points="49.5001,-158.2455 53,-168.2455 56.5001,-158.2456 49.5001,-158.2455"/>
</g>
<!-- Node5 -->
<g id="node3" class="node">
<title>Node5</title>
<g id="a_node3"><a xlink:href="odp__api_8h.html" target="_top" xlink:title="The OpenDataPlane API. ">
<polygon fill="#ffffff" stroke="#000000" points="23.5,-56.5 23.5,-75.5 82.5,-75.5 82.5,-56.5 23.5,-56.5"/>
<text text-anchor="middle" x="53" y="-63.5" font-family="Helvetica,sans-Serif" font-size="10.00" fill="#000000">odp_api.h</text>
</a>
</g>
</g>
<!-- Node4&#45;&gt;Node5 -->
<g id="edge2" class="edge">
<title>Node4&#45;&gt;Node5</title>
<path fill="none" stroke="#191970" d="M53,-102.1575C53,-93.155 53,-82.9199 53,-75.6427"/>
<polygon fill="#191970" stroke="#191970" points="49.5001,-102.2455 53,-112.2455 56.5001,-102.2456 49.5001,-102.2455"/>
</g>
<!-- Node6 -->
<g id="node4" class="node">
<title>Node6</title>
<g id="a_node4"><a xlink:href="odp_8h.html" target="_top" xlink:title="WARNING: THIS FILE IS DEPRECATED AND WILL BE REMOVED!!! ODP APPLICATIONS SHOULD NOW INCLUDE odp_api...">
<polygon fill="#ffffff" stroke="#000000" points="32.5,-.5 32.5,-19.5 73.5,-19.5 73.5,-.5 32.5,-.5"/>
<text text-anchor="middle" x="53" y="-7.5" font-family="Helvetica,sans-Serif" font-size="10.00" fill="#000000">odp.h</text>
</a>
</g>
</g>
<!-- Node5&#45;&gt;Node6 -->
<g id="edge3" class="edge">
<title>Node5&#45;&gt;Node6</title>
<path fill="none" stroke="#191970" d="M53,-46.1575C53,-37.155 53,-26.9199 53,-19.6427"/>
<polygon fill="#191970" stroke="#191970" points="49.5001,-46.2455 53,-56.2455 56.5001,-46.2456 49.5001,-46.2455"/>
</g>
</g>
</svg>
