<?xml version="1.0" encoding="UTF-8" standalone="no"?>
<!DOCTYPE svg PUBLIC "-//W3C//DTD SVG 1.1//EN"
 "http://www.w3.org/Graphics/SVG/1.1/DTD/svg11.dtd">
<!-- Generated by graphviz version 2.40.1 (20161225.0304)
 -->
<!-- Title: std_types.h Pages: 1 -->
<svg width="2283pt" height="364pt"
 viewBox="0.00 0.00 2283.37 364.00" xmlns="http://www.w3.org/2000/svg" xmlns:xlink="http://www.w3.org/1999/xlink">
<g id="graph0" class="graph" transform="scale(1 1) rotate(0) translate(4 360)">
<title>std_types.h</title>
<polygon fill="#ffffff" stroke="transparent" points="-4,4 -4,-360 2279.3738,-360 2279.3738,4 -4,4"/>
<!-- Node4 -->
<g id="node1" class="node">
<title>Node4</title>
<polygon fill="#bfbfbf" stroke="#000000" points="593.3738,-336.5 593.3738,-355.5 661.3738,-355.5 661.3738,-336.5 593.3738,-336.5"/>
<text text-anchor="middle" x="627.3738" y="-343.5" font-family="Helvetica,sans-Serif" font-size="10.00" fill="#000000">std_types.h</text>
</g>
<!-- Node5 -->
<g id="node2" class="node">
<title>Node5</title>
<g id="a_node2"><a xlink:href="arch_2arm32-linux_2odp_2api_2abi_2std__types_8h_source.html" target="_top" xlink:title="std_types.h">
<polygon fill="#ffffff" stroke="#000000" points="335.3738,-280.5 335.3738,-299.5 403.3738,-299.5 403.3738,-280.5 335.3738,-280.5"/>
<text text-anchor="middle" x="369.3738" y="-287.5" font-family="Helvetica,sans-Serif" font-size="10.00" fill="#000000">std_types.h</text>
</a>
</g>
</g>
<!-- Node4&#45;&gt;Node5 -->
<g id="edge1" class="edge">
<title>Node4&#45;&gt;Node5</title>
<path fill="none" stroke="#191970" d="M583.1071,-336.7682C539.6036,-327.6392 471.3503,-313.1658 412.3738,-300 409.5313,-299.3654 406.5852,-298.6989 403.6289,-298.0239"/>
<polygon fill="#191970" stroke="#191970" points="582.5699,-340.2316 593.0753,-338.8573 584.0059,-333.3804 582.5699,-340.2316"/>
</g>
<!-- Node6 -->
<g id="node3" class="node">
<title>Node6</title>
<g id="a_node3"><a xlink:href="arch_2arm64-linux_2odp_2api_2abi_2std__types_8h_source.html" target="_top" xlink:title="std_types.h">
<polygon fill="#ffffff" stroke="#000000" points="421.3738,-280.5 421.3738,-299.5 489.3738,-299.5 489.3738,-280.5 421.3738,-280.5"/>
<text text-anchor="middle" x="455.3738" y="-287.5" font-family="Helvetica,sans-Serif" font-size="10.00" fill="#000000">std_types.h</text>
</a>
</g>
</g>
<!-- Node4&#45;&gt;Node6 -->
<g id="edge2" class="edge">
<title>Node4&#45;&gt;Node6</title>
<path fill="none" stroke="#191970" d="M588.0303,-333.1905C556.5187,-322.9309 513.0219,-308.7691 484.5558,-299.5011"/>
<polygon fill="#191970" stroke="#191970" points="587.2137,-336.6054 597.806,-336.3733 589.3808,-329.9493 587.2137,-336.6054"/>
</g>
<!-- Node7 -->
<g id="node4" class="node">
<title>Node7</title>
<g id="a_node4"><a xlink:href="arch_2default-linux_2odp_2api_2abi_2std__types_8h_source.html" target="_top" xlink:title="std_types.h">
<polygon fill="#ffffff" stroke="#000000" points="507.3738,-280.5 507.3738,-299.5 575.3738,-299.5 575.3738,-280.5 507.3738,-280.5"/>
<text text-anchor="middle" x="541.3738" y="-287.5" font-family="Helvetica,sans-Serif" font-size="10.00" fill="#000000">std_types.h</text>
</a>
</g>
</g>
<!-- Node4&#45;&gt;Node7 -->
<g id="edge3" class="edge">
<title>Node4&#45;&gt;Node7</title>
<path fill="none" stroke="#191970" d="M603.9833,-330.769C588.7439,-320.8456 569.3229,-308.1994 556.1822,-299.6427"/>
<polygon fill="#191970" stroke="#191970" points="602.1039,-333.7218 612.3937,-336.2455 605.9236,-327.8558 602.1039,-333.7218"/>
</g>
<!-- Node8 -->
<g id="node5" class="node">
<title>Node8</title>
<g id="a_node5"><a xlink:href="arch_2mips64-linux_2odp_2api_2abi_2std__types_8h_source.html" target="_top" xlink:title="std_types.h">
<polygon fill="#ffffff" stroke="#000000" points="593.3738,-280.5 593.3738,-299.5 661.3738,-299.5 661.3738,-280.5 593.3738,-280.5"/>
<text text-anchor="middle" x="627.3738" y="-287.5" font-family="Helvetica,sans-Serif" font-size="10.00" fill="#000000">std_types.h</text>
</a>
</g>
</g>
<!-- Node4&#45;&gt;Node8 -->
<g id="edge4" class="edge">
<title>Node4&#45;&gt;Node8</title>
<path fill="none" stroke="#191970" d="M627.3738,-326.1575C627.3738,-317.155 627.3738,-306.9199 627.3738,-299.6427"/>
<polygon fill="#191970" stroke="#191970" points="623.8739,-326.2455 627.3738,-336.2455 630.8739,-326.2456 623.8739,-326.2455"/>
</g>
<!-- Node9 -->
<g id="node6" class="node">
<title>Node9</title>
<g id="a_node6"><a xlink:href="arch_2power64-linux_2odp_2api_2abi_2std__types_8h_source.html" target="_top" xlink:title="std_types.h">
<polygon fill="#ffffff" stroke="#000000" points="679.3738,-280.5 679.3738,-299.5 747.3738,-299.5 747.3738,-280.5 679.3738,-280.5"/>
<text text-anchor="middle" x="713.3738" y="-287.5" font-family="Helvetica,sans-Serif" font-size="10.00" fill="#000000">std_types.h</text>
</a>
</g>
</g>
<!-- Node4&#45;&gt;Node9 -->
<g id="edge5" class="edge">
<title>Node4&#45;&gt;Node9</title>
<path fill="none" stroke="#191970" d="M650.7643,-330.769C666.0037,-320.8456 685.4248,-308.1994 698.5654,-299.6427"/>
<polygon fill="#191970" stroke="#191970" points="648.824,-327.8558 642.3539,-336.2455 652.6437,-333.7218 648.824,-327.8558"/>
</g>
<!-- Node10 -->
<g id="node7" class="node">
<title>Node10</title>
<g id="a_node7"><a xlink:href="arch_2x86__32-linux_2odp_2api_2abi_2std__types_8h_source.html" target="_top" xlink:title="std_types.h">
<polygon fill="#ffffff" stroke="#000000" points="765.3738,-280.5 765.3738,-299.5 833.3738,-299.5 833.3738,-280.5 765.3738,-280.5"/>
<text text-anchor="middle" x="799.3738" y="-287.5" font-family="Helvetica,sans-Serif" font-size="10.00" fill="#000000">std_types.h</text>
</a>
</g>
</g>
<!-- Node4&#45;&gt;Node10 -->
<g id="edge6" class="edge">
<title>Node4&#45;&gt;Node10</title>
<path fill="none" stroke="#191970" d="M666.7173,-333.1905C698.2289,-322.9309 741.7257,-308.7691 770.1918,-299.5011"/>
<polygon fill="#191970" stroke="#191970" points="665.3668,-329.9493 656.9417,-336.3733 667.534,-336.6054 665.3668,-329.9493"/>
</g>
<!-- Node11 -->
<g id="node8" class="node">
<title>Node11</title>
<g id="a_node8"><a xlink:href="arch_2x86__64-linux_2odp_2api_2abi_2std__types_8h_source.html" target="_top" xlink:title="std_types.h">
<polygon fill="#ffffff" stroke="#000000" points="851.3738,-280.5 851.3738,-299.5 919.3738,-299.5 919.3738,-280.5 851.3738,-280.5"/>
<text text-anchor="middle" x="885.3738" y="-287.5" font-family="Helvetica,sans-Serif" font-size="10.00" fill="#000000">std_types.h</text>
</a>
</g>
</g>
<!-- Node4&#45;&gt;Node11 -->
<g id="edge7" class="edge">
<title>Node4&#45;&gt;Node11</title>
<path fill="none" stroke="#191970" d="M671.6405,-336.7682C715.144,-327.6392 783.3973,-313.1658 842.3738,-300 845.2163,-299.3654 848.1625,-298.6989 851.1188,-298.0239"/>
<polygon fill="#191970" stroke="#191970" points="670.7418,-333.3804 661.6723,-338.8573 672.1777,-340.2316 670.7418,-333.3804"/>
</g>
<!-- Node12 -->
<g id="node9" class="node">
<title>Node12</title>
<g id="a_node9"><a xlink:href="api_2std__clib_8h_source.html" target="_top" xlink:title="std_clib.h">
<polygon fill="#ffffff" stroke="#000000" points="530.8738,-224.5 530.8738,-243.5 589.8738,-243.5 589.8738,-224.5 530.8738,-224.5"/>
<text text-anchor="middle" x="560.3738" y="-231.5" font-family="Helvetica,sans-Serif" font-size="10.00" fill="#000000">std_clib.h</text>
</a>
</g>
</g>
<!-- Node11&#45;&gt;Node12 -->
<g id="edge8" class="edge">
<title>Node11&#45;&gt;Node12</title>
<path fill="none" stroke="#191970" d="M841.1362,-279.8534C743.6969,-260.8461 639.974,-245.3416 590.129,-238.1858"/>
<polygon fill="#191970" stroke="#191970" points="840.6631,-283.3273 851.1508,-281.8239 842.0147,-276.459 840.6631,-283.3273"/>
</g>
<!-- Node15 -->
<g id="node12" class="node">
<title>Node15</title>
<g id="a_node12"><a xlink:href="api_2std__types_8h.html" target="_top" xlink:title="Standard C language types and definitions for ODP. ">
<polygon fill="#ffffff" stroke="#000000" points="1177.3738,-224.5 1177.3738,-243.5 1245.3738,-243.5 1245.3738,-224.5 1177.3738,-224.5"/>
<text text-anchor="middle" x="1211.3738" y="-231.5" font-family="Helvetica,sans-Serif" font-size="10.00" fill="#000000">std_types.h</text>
</a>
</g>
</g>
<!-- Node11&#45;&gt;Node15 -->
<g id="edge11" class="edge">
<title>Node11&#45;&gt;Node15</title>
<path fill="none" stroke="#191970" d="M929.7038,-282.385C995.5018,-271.0823 1117.6197,-250.105 1177.0723,-239.8923"/>
<polygon fill="#191970" stroke="#191970" points="928.9084,-278.9703 919.6454,-284.1129 930.0936,-285.8693 928.9084,-278.9703"/>
</g>
<!-- Node13 -->
<g id="node10" class="node">
<title>Node13</title>
<g id="a_node10"><a xlink:href="odp__api_8h.html" target="_top" xlink:title="The OpenDataPlane API. ">
<polygon fill="#ffffff" stroke="#000000" points="1235.8738,-56.5 1235.8738,-75.5 1294.8738,-75.5 1294.8738,-56.5 1235.8738,-56.5"/>
<text text-anchor="middle" x="1265.3738" y="-63.5" font-family="Helvetica,sans-Serif" font-size="10.00" fill="#000000">odp_api.h</text>
</a>
</g>
</g>
<!-- Node12&#45;&gt;Node13 -->
<g id="edge9" class="edge">
<title>Node12&#45;&gt;Node13</title>
<path fill="none" stroke="#191970" d="M520.642,-233.0658C420.5036,-230.2562 160.0988,-219.9993 80.3738,-188 37.4759,-170.782 -22.708,-145.2783 9.3738,-112 31.3684,-89.1851 1048.3098,-69.8875 1235.8197,-66.5201"/>
<polygon fill="#191970" stroke="#191970" points="520.5652,-236.5649 530.6562,-233.3367 520.7546,-229.5674 520.5652,-236.5649"/>
</g>
<!-- Node14 -->
<g id="node11" class="node">
<title>Node14</title>
<g id="a_node11"><a xlink:href="odp_8h.html" target="_top" xlink:title="WARNING: THIS FILE IS DEPRECATED AND WILL BE REMOVED!!! ODP APPLICATIONS SHOULD NOW INCLUDE odp_api...">
<polygon fill="#ffffff" stroke="#000000" points="1244.8738,-.5 1244.8738,-19.5 1285.8738,-19.5 1285.8738,-.5 1244.8738,-.5"/>
<text text-anchor="middle" x="1265.3738" y="-7.5" font-family="Helvetica,sans-Serif" font-size="10.00" fill="#000000">odp.h</text>
</a>
</g>
</g>
<!-- Node13&#45;&gt;Node14 -->
<g id="edge10" class="edge">
<title>Node13&#45;&gt;Node14</title>
<path fill="none" stroke="#191970" d="M1265.3738,-46.1575C1265.3738,-37.155 1265.3738,-26.9199 1265.3738,-19.6427"/>
<polygon fill="#191970" stroke="#191970" points="1261.8739,-46.2455 1265.3738,-56.2455 1268.8739,-46.2456 1261.8739,-46.2455"/>
</g>
<!-- Node15&#45;&gt;Node13 -->
<g id="edge64" class="edge">
<title>Node15&#45;&gt;Node13</title>
<path fill="none" stroke="#191970" d="M1192.9281,-217.2028C1168.4931,-192.8688 1131.0542,-146.9067 1154.3738,-112 1172.3928,-85.0277 1209.4762,-73.8503 1235.8155,-69.2312"/>
<polygon fill="#191970" stroke="#191970" points="1190.6769,-219.8937 1200.3111,-224.3021 1195.5288,-214.8479 1190.6769,-219.8937"/>
</g>
<!-- Node16 -->
<g id="node13" class="node">
<title>Node16</title>
<g id="a_node13"><a xlink:href="api_2abi-default_2atomic_8h.html" target="_top" xlink:title="ODP atomic operations. ">
<polygon fill="#ffffff" stroke="#ff0000" points="114.3738,-168.5 114.3738,-187.5 168.3738,-187.5 168.3738,-168.5 114.3738,-168.5"/>
<text text-anchor="middle" x="141.3738" y="-175.5" font-family="Helvetica,sans-Serif" font-size="10.00" fill="#000000">atomic.h</text>
</a>
</g>
</g>
<!-- Node15&#45;&gt;Node16 -->
<g id="edge12" class="edge">
<title>Node15&#45;&gt;Node16</title>
<path fill="none" stroke="#191970" d="M1167.1189,-233.3647C995.322,-230.6918 372.4893,-219.0278 177.3738,-188 174.5551,-187.5518 171.6418,-186.9622 168.7498,-186.2931"/>
<polygon fill="#191970" stroke="#191970" points="1167.2561,-236.8671 1177.3086,-233.5208 1167.3634,-229.8679 1167.2561,-236.8671"/>
</g>
<!-- Node25 -->
<g id="node19" class="node">
<title>Node25</title>
<g id="a_node19"><a xlink:href="api_2abi-default_2barrier_8h.html" target="_top" xlink:title="ODP barrier. ">
<polygon fill="#ffffff" stroke="#ff0000" points="186.3738,-168.5 186.3738,-187.5 238.3738,-187.5 238.3738,-168.5 186.3738,-168.5"/>
<text text-anchor="middle" x="212.3738" y="-175.5" font-family="Helvetica,sans-Serif" font-size="10.00" fill="#000000">barrier.h</text>
</a>
</g>
</g>
<!-- Node15&#45;&gt;Node25 -->
<g id="edge18" class="edge">
<title>Node15&#45;&gt;Node25</title>
<path fill="none" stroke="#191970" d="M1166.9009,-233.2382C1002.3104,-230.2074 427.9594,-217.6972 247.3738,-188 244.5053,-187.5283 241.5377,-186.9032 238.5991,-186.1951"/>
<polygon fill="#191970" stroke="#191970" points="1167.0791,-236.7419 1177.141,-233.4242 1167.2063,-229.7431 1167.0791,-236.7419"/>
</g>
<!-- Node61 -->
<g id="node20" class="node">
<title>Node61</title>
<g id="a_node20"><a xlink:href="api_2abi-default_2byteorder_8h.html" target="_top" xlink:title="ODP byteorder. ">
<polygon fill="#ffffff" stroke="#ff0000" points="256.8738,-168.5 256.8738,-187.5 321.8738,-187.5 321.8738,-168.5 256.8738,-168.5"/>
<text text-anchor="middle" x="289.3738" y="-175.5" font-family="Helvetica,sans-Serif" font-size="10.00" fill="#000000">byteorder.h</text>
</a>
</g>
</g>
<!-- Node15&#45;&gt;Node61 -->
<g id="edge19" class="edge">
<title>Node15&#45;&gt;Node61</title>
<path fill="none" stroke="#191970" d="M1167.2179,-232.7882C1012.3844,-228.3684 494.6166,-212.1008 330.3738,-188 327.6192,-187.5958 324.7789,-187.0912 321.9392,-186.525"/>
<polygon fill="#191970" stroke="#191970" points="1167.2121,-236.2894 1177.3072,-233.0741 1167.4104,-229.2922 1167.2121,-236.2894"/>
</g>
<!-- Node70 -->
<g id="node21" class="node">
<title>Node70</title>
<g id="a_node21"><a xlink:href="api_2abi-default_2cpumask_8h.html" target="_top" xlink:title="ODP CPU masks and enumeration. ">
<polygon fill="#ffffff" stroke="#ff0000" points="339.8738,-168.5 339.8738,-187.5 404.8738,-187.5 404.8738,-168.5 339.8738,-168.5"/>
<text text-anchor="middle" x="372.3738" y="-175.5" font-family="Helvetica,sans-Serif" font-size="10.00" fill="#000000">cpumask.h</text>
</a>
</g>
</g>
<!-- Node15&#45;&gt;Node70 -->
<g id="edge20" class="edge">
<title>Node15&#45;&gt;Node70</title>
<path fill="none" stroke="#191970" d="M1166.6912,-232.4584C1021.1063,-227.2728 561.3667,-209.5694 414.3738,-188 411.4074,-187.5647 408.3426,-187.0213 405.2825,-186.4142"/>
<polygon fill="#191970" stroke="#191970" points="1166.9034,-235.9681 1177.021,-232.8241 1167.1511,-228.9724 1166.9034,-235.9681"/>
</g>
<!-- Node94 -->
<g id="node22" class="node">
<title>Node94</title>
<g id="a_node22"><a xlink:href="api_2abi-default_2init_8h.html" target="_top" xlink:title="ODP initialization. ">
<polygon fill="#ffffff" stroke="#ff0000" points="423.3738,-168.5 423.3738,-187.5 461.3738,-187.5 461.3738,-168.5 423.3738,-168.5"/>
<text text-anchor="middle" x="442.3738" y="-175.5" font-family="Helvetica,sans-Serif" font-size="10.00" fill="#000000">init.h</text>
</a>
</g>
</g>
<!-- Node15&#45;&gt;Node94 -->
<g id="edge21" class="edge">
<title>Node15&#45;&gt;Node94</title>
<path fill="none" stroke="#191970" d="M1166.9663,-232.8769C1028.3323,-229.1137 604.8099,-215.6032 470.3738,-188 467.4411,-187.3978 464.4001,-186.5552 461.4503,-185.612"/>
<polygon fill="#191970" stroke="#191970" points="1167.121,-236.3822 1177.2112,-233.1512 1167.3085,-229.3847 1167.121,-236.3822"/>
</g>
<!-- Node102 -->
<g id="node23" class="node">
<title>Node102</title>
<g id="a_node23"><a xlink:href="api_2abi-default_2ipsec_8h.html" target="_top" xlink:title="ODP IPSEC API &#45; platform specific types. ">
<polygon fill="#ffffff" stroke="#ff0000" points="479.3738,-168.5 479.3738,-187.5 527.3738,-187.5 527.3738,-168.5 479.3738,-168.5"/>
<text text-anchor="middle" x="503.3738" y="-175.5" font-family="Helvetica,sans-Serif" font-size="10.00" fill="#000000">ipsec.h</text>
</a>
</g>
</g>
<!-- Node15&#45;&gt;Node102 -->
<g id="edge22" class="edge">
<title>Node15&#45;&gt;Node102</title>
<path fill="none" stroke="#191970" d="M1167.0497,-232.2895C1037.0289,-227.0646 658.1455,-210.302 536.3738,-188 533.5473,-187.4823 530.6206,-186.8072 527.7306,-186.0519"/>
<polygon fill="#191970" stroke="#191970" points="1166.9239,-235.7872 1177.0555,-232.6885 1167.2029,-228.7928 1166.9239,-235.7872"/>
</g>
<!-- Node111 -->
<g id="node24" class="node">
<title>Node111</title>
<g id="a_node24"><a xlink:href="api_2abi-default_2packet__io_8h.html" target="_top" xlink:title="ODP Packet IO. ">
<polygon fill="#ffffff" stroke="#ff0000" points="545.8738,-168.5 545.8738,-187.5 612.8738,-187.5 612.8738,-168.5 545.8738,-168.5"/>
<text text-anchor="middle" x="579.3738" y="-175.5" font-family="Helvetica,sans-Serif" font-size="10.00" fill="#000000">packet_io.h</text>
</a>
</g>
</g>
<!-- Node15&#45;&gt;Node111 -->
<g id="edge23" class="edge">
<title>Node15&#45;&gt;Node111</title>
<path fill="none" stroke="#191970" d="M1167.1345,-232.8185C1068.7025,-229.6936 824.3371,-219.189 622.3738,-188 619.3439,-187.5321 616.2111,-186.9663 613.0814,-186.3446"/>
<polygon fill="#191970" stroke="#191970" points="1167.201,-236.3221 1177.3039,-233.1313 1167.4163,-229.3254 1167.201,-236.3221"/>
</g>
<!-- Node43 -->
<g id="node25" class="node">
<title>Node43</title>
<g id="a_node25"><a xlink:href="api_2abi-default_2rwlock__recursive_8h.html" target="_top" xlink:title="ODP recursive read/write lock. ">
<polygon fill="#ffffff" stroke="#ff0000" points="631.3738,-168.5 631.3738,-187.5 729.3738,-187.5 729.3738,-168.5 631.3738,-168.5"/>
<text text-anchor="middle" x="680.3738" y="-175.5" font-family="Helvetica,sans-Serif" font-size="10.00" fill="#000000">rwlock_recursive.h</text>
</a>
</g>
</g>
<!-- Node15&#45;&gt;Node43 -->
<g id="edge24" class="edge">
<title>Node15&#45;&gt;Node43</title>
<path fill="none" stroke="#191970" d="M1166.9519,-230.7796C1083.0048,-224.4501 895.3975,-209.1426 738.3738,-188 735.4371,-187.6046 732.4214,-187.1704 729.3824,-186.7114"/>
<polygon fill="#191970" stroke="#191970" points="1166.9105,-234.2862 1177.1438,-231.5422 1167.4329,-227.3057 1166.9105,-234.2862"/>
</g>
<!-- Node137 -->
<g id="node26" class="node">
<title>Node137</title>
<g id="a_node26"><a xlink:href="api_2abi-default_2schedule_8h.html" target="_top" xlink:title="ODP schedule. ">
<polygon fill="#ffffff" stroke="#ff0000" points="747.3738,-168.5 747.3738,-187.5 811.3738,-187.5 811.3738,-168.5 747.3738,-168.5"/>
<text text-anchor="middle" x="779.3738" y="-175.5" font-family="Helvetica,sans-Serif" font-size="10.00" fill="#000000">schedule.h</text>
</a>
</g>
</g>
<!-- Node15&#45;&gt;Node137 -->
<g id="edge25" class="edge">
<title>Node15&#45;&gt;Node137</title>
<path fill="none" stroke="#191970" d="M1166.9986,-230.5567C1094.211,-224.5114 945.0773,-210.4566 820.3738,-188 817.4895,-187.4806 814.5056,-186.8794 811.5236,-186.2346"/>
<polygon fill="#191970" stroke="#191970" points="1166.9192,-234.0618 1177.1718,-231.3905 1167.4911,-227.0852 1166.9192,-234.0618"/>
</g>
<!-- Node145 -->
<g id="node27" class="node">
<title>Node145</title>
<g id="a_node27"><a xlink:href="api_2abi-default_2spinlock__recursive_8h.html" target="_top" xlink:title="ODP recursive spinlock. ">
<polygon fill="#ffffff" stroke="#ff0000" points="829.3738,-168.5 829.3738,-187.5 935.3738,-187.5 935.3738,-168.5 829.3738,-168.5"/>
<text text-anchor="middle" x="882.3738" y="-175.5" font-family="Helvetica,sans-Serif" font-size="10.00" fill="#000000">spinlock_recursive.h</text>
</a>
</g>
</g>
<!-- Node15&#45;&gt;Node145 -->
<g id="edge26" class="edge">
<title>Node15&#45;&gt;Node145</title>
<path fill="none" stroke="#191970" d="M1167.164,-226.4749C1107.1058,-216.2522 999.8626,-197.9981 935.5025,-187.0432"/>
<polygon fill="#191970" stroke="#191970" points="1166.6506,-229.9378 1177.0961,-228.1655 1167.8252,-223.037 1166.6506,-229.9378"/>
</g>
<!-- Node154 -->
<g id="node28" class="node">
<title>Node154</title>
<g id="a_node28"><a xlink:href="api_2abi-default_2traffic__mngr_8h.html" target="_top" xlink:title="ODP traffic mngr. ">
<polygon fill="#ffffff" stroke="#ff0000" points="953.8738,-168.5 953.8738,-187.5 1030.8738,-187.5 1030.8738,-168.5 953.8738,-168.5"/>
<text text-anchor="middle" x="992.3738" y="-175.5" font-family="Helvetica,sans-Serif" font-size="10.00" fill="#000000">traffic_mngr.h</text>
</a>
</g>
</g>
<!-- Node15&#45;&gt;Node154 -->
<g id="edge27" class="edge">
<title>Node15&#45;&gt;Node154</title>
<path fill="none" stroke="#191970" d="M1167.3132,-222.7334C1126.9159,-212.4035 1067.7513,-197.2746 1029.6482,-187.5314"/>
<polygon fill="#191970" stroke="#191970" points="1166.5997,-226.1635 1177.1551,-225.25 1168.3339,-219.3817 1166.5997,-226.1635"/>
</g>
<!-- Node33 -->
<g id="node29" class="node">
<title>Node33</title>
<g id="a_node29"><a xlink:href="api_2barrier_8h.html" target="_top" xlink:title="ODP execution barriers. ">
<polygon fill="#ffffff" stroke="#000000" points="1163.3738,-112.5 1163.3738,-131.5 1215.3738,-131.5 1215.3738,-112.5 1163.3738,-112.5"/>
<text text-anchor="middle" x="1189.3738" y="-119.5" font-family="Helvetica,sans-Serif" font-size="10.00" fill="#000000">barrier.h</text>
</a>
</g>
</g>
<!-- Node15&#45;&gt;Node33 -->
<g id="edge28" class="edge">
<title>Node15&#45;&gt;Node33</title>
<path fill="none" stroke="#191970" d="M1204.6474,-214.6037C1202.0427,-206.4696 1199.2439,-196.8595 1197.3738,-188 1193.2259,-168.3496 1191.0207,-144.9211 1190.0336,-131.9284"/>
<polygon fill="#191970" stroke="#191970" points="1201.383,-215.8788 1207.8653,-224.2592 1208.0239,-213.6656 1201.383,-215.8788"/>
</g>
<!-- Node162 -->
<g id="node30" class="node">
<title>Node162</title>
<g id="a_node30"><a xlink:href="api_2buffer_8h.html" target="_top" xlink:title="ODP buffer descriptor. ">
<polygon fill="#ffffff" stroke="#000000" points="1369.3738,-112.5 1369.3738,-131.5 1419.3738,-131.5 1419.3738,-112.5 1369.3738,-112.5"/>
<text text-anchor="middle" x="1394.3738" y="-119.5" font-family="Helvetica,sans-Serif" font-size="10.00" fill="#000000">buffer.h</text>
</a>
</g>
</g>
<!-- Node15&#45;&gt;Node162 -->
<g id="edge30" class="edge">
<title>Node15&#45;&gt;Node162</title>
<path fill="none" stroke="#191970" d="M1241.8851,-220.0314C1259.8604,-211.4466 1282.8339,-199.8505 1302.3738,-188 1332.2915,-169.8556 1365.0832,-145.0349 1382.2882,-131.5943"/>
<polygon fill="#191970" stroke="#191970" points="1240.0181,-217.0422 1232.4665,-224.4735 1243.0041,-223.3734 1240.0181,-217.0422"/>
</g>
<!-- Node119 -->
<g id="node31" class="node">
<title>Node119</title>
<g id="a_node31"><a xlink:href="api_2classification_8h.html" target="_top" xlink:title="ODP classification descriptor. ">
<polygon fill="#ffffff" stroke="#ff0000" points="1437.3738,-112.5 1437.3738,-131.5 1519.3738,-131.5 1519.3738,-112.5 1437.3738,-112.5"/>
<text text-anchor="middle" x="1478.3738" y="-119.5" font-family="Helvetica,sans-Serif" font-size="10.00" fill="#000000">classification.h</text>
</a>
</g>
</g>
<!-- Node15&#45;&gt;Node119 -->
<g id="edge32" class="edge">
<title>Node15&#45;&gt;Node119</title>
<path fill="none" stroke="#191970" d="M1247.1652,-220.8778C1271.1305,-211.9452 1303.3079,-199.6691 1331.3738,-188 1377.0953,-168.9902 1429.8648,-144.7166 1458.0794,-131.5455"/>
<polygon fill="#191970" stroke="#191970" points="1245.9165,-217.608 1237.7595,-224.3692 1248.3525,-224.1704 1245.9165,-217.608"/>
</g>
<!-- Node125 -->
<g id="node32" class="node">
<title>Node125</title>
<g id="a_node32"><a xlink:href="api_2crypto_8h.html" target="_top" xlink:title="ODP crypto. ">
<polygon fill="#ffffff" stroke="#ff0000" points="2223.3738,-112.5 2223.3738,-131.5 2275.3738,-131.5 2275.3738,-112.5 2223.3738,-112.5"/>
<text text-anchor="middle" x="2249.3738" y="-119.5" font-family="Helvetica,sans-Serif" font-size="10.00" fill="#000000">crypto.h</text>
</a>
</g>
</g>
<!-- Node15&#45;&gt;Node125 -->
<g id="edge34" class="edge">
<title>Node15&#45;&gt;Node125</title>
<path fill="none" stroke="#191970" d="M1255.7878,-233.429C1446.9361,-230.7898 2191.6084,-218.5738 2230.3738,-188 2247.6004,-174.4136 2249.8792,-146.262 2249.7984,-131.5014"/>
<polygon fill="#191970" stroke="#191970" points="1255.4999,-229.9325 1245.5486,-233.5685 1255.5953,-236.9319 1255.4999,-229.9325"/>
</g>
<!-- Node121 -->
<g id="node33" class="node">
<title>Node121</title>
<g id="a_node33"><a xlink:href="api_2packet_8h.html" target="_top" xlink:title="ODP packet descriptor. ">
<polygon fill="#ffffff" stroke="#ff0000" points="1239.3738,-168.5 1239.3738,-187.5 1293.3738,-187.5 1293.3738,-168.5 1239.3738,-168.5"/>
<text text-anchor="middle" x="1266.3738" y="-175.5" font-family="Helvetica,sans-Serif" font-size="10.00" fill="#000000">packet.h</text>
</a>
</g>
</g>
<!-- Node15&#45;&gt;Node121 -->
<g id="edge36" class="edge">
<title>Node15&#45;&gt;Node121</title>
<path fill="none" stroke="#191970" d="M1227.9964,-217.0751C1237.4593,-207.4402 1248.9707,-195.7196 1256.9033,-187.6427"/>
<polygon fill="#191970" stroke="#191970" points="1225.4641,-214.6585 1220.9541,-224.2455 1230.4583,-219.5635 1225.4641,-214.6585"/>
</g>
<!-- Node135 -->
<g id="node34" class="node">
<title>Node135</title>
<g id="a_node34"><a xlink:href="api_2spec_2packet__flags_8h.html" target="_top" xlink:title="ODP packet flags. ">
<polygon fill="#ffffff" stroke="#ff0000" points="1233.3738,-112.5 1233.3738,-131.5 1313.3738,-131.5 1313.3738,-112.5 1233.3738,-112.5"/>
<text text-anchor="middle" x="1273.3738" y="-119.5" font-family="Helvetica,sans-Serif" font-size="10.00" fill="#000000">packet_flags.h</text>
</a>
</g>
</g>
<!-- Node15&#45;&gt;Node135 -->
<g id="edge51" class="edge">
<title>Node15&#45;&gt;Node135</title>
<path fill="none" stroke="#191970" d="M1214.5241,-214.2954C1217.293,-200.6513 1222.1925,-182.4225 1230.3738,-168 1238.4647,-153.7371 1251.8369,-140.3956 1261.5237,-131.7927"/>
<polygon fill="#191970" stroke="#191970" points="1211.0152,-214.0297 1212.674,-224.4938 1217.9028,-215.2792 1211.0152,-214.0297"/>
</g>
<!-- Node131 -->
<g id="node35" class="node">
<title>Node131</title>
<g id="a_node35"><a xlink:href="api_2packet__io_8h.html" target="_top" xlink:title="ODP Packet IO. ">
<polygon fill="#ffffff" stroke="#ff0000" points="2045.8738,-168.5 2045.8738,-187.5 2112.8738,-187.5 2112.8738,-168.5 2045.8738,-168.5"/>
<text text-anchor="middle" x="2079.3738" y="-175.5" font-family="Helvetica,sans-Serif" font-size="10.00" fill="#000000">packet_io.h</text>
</a>
</g>
</g>
<!-- Node15&#45;&gt;Node131 -->
<g id="edge39" class="edge">
<title>Node15&#45;&gt;Node131</title>
<path fill="none" stroke="#191970" d="M1255.6434,-232.5422C1404.095,-227.4953 1883.4818,-209.8731 2036.3738,-188 2039.4087,-187.5658 2042.545,-187.0232 2045.6769,-186.4166"/>
<polygon fill="#191970" stroke="#191970" points="1255.4119,-229.0479 1245.5358,-232.8837 1255.6484,-236.0439 1255.4119,-229.0479"/>
</g>
<!-- Node133 -->
<g id="node36" class="node">
<title>Node133</title>
<g id="a_node36"><a xlink:href="api_2spec_2traffic__mngr_8h.html" target="_top" xlink:title="Copyright (c) 2015&#45;2018, Linaro Limited All rights reserved. ">
<polygon fill="#ffffff" stroke="#ff0000" points="1645.8738,-112.5 1645.8738,-131.5 1722.8738,-131.5 1722.8738,-112.5 1645.8738,-112.5"/>
<text text-anchor="middle" x="1684.3738" y="-119.5" font-family="Helvetica,sans-Serif" font-size="10.00" fill="#000000">traffic_mngr.h</text>
</a>
</g>
</g>
<!-- Node15&#45;&gt;Node133 -->
<g id="edge57" class="edge">
<title>Node15&#45;&gt;Node133</title>
<path fill="none" stroke="#191970" d="M1255.2566,-222.5319C1286.9698,-213.9085 1330.6799,-201.3296 1368.3738,-188 1390.1627,-180.2948 1394.1781,-174.4399 1416.3738,-168 1496.1694,-144.848 1592.9179,-131.7878 1645.5932,-125.8861"/>
<polygon fill="#191970" stroke="#191970" points="1254.1483,-219.2057 1245.4045,-225.1887 1255.9709,-225.9643 1254.1483,-219.2057"/>
</g>
<!-- Node129 -->
<g id="node37" class="node">
<title>Node129</title>
<g id="a_node37"><a xlink:href="api_2queue_8h.html" target="_top" xlink:title="ODP queue. ">
<polygon fill="#ffffff" stroke="#ff0000" points="2169.8738,-168.5 2169.8738,-187.5 2220.8738,-187.5 2220.8738,-168.5 2169.8738,-168.5"/>
<text text-anchor="middle" x="2195.3738" y="-175.5" font-family="Helvetica,sans-Serif" font-size="10.00" fill="#000000">queue.h</text>
</a>
</g>
</g>
<!-- Node15&#45;&gt;Node129 -->
<g id="edge42" class="edge">
<title>Node15&#45;&gt;Node129</title>
<path fill="none" stroke="#191970" d="M1255.983,-232.988C1418.4822,-229.1208 1978.4765,-214.1629 2155.3738,-188 2160.0474,-187.3088 2164.9698,-186.3093 2169.7022,-185.2065"/>
<polygon fill="#191970" stroke="#191970" points="1255.7772,-229.4918 1245.8625,-233.2267 1255.9423,-236.4899 1255.7772,-229.4918"/>
</g>
<!-- Node88 -->
<g id="node38" class="node">
<title>Node88</title>
<g id="a_node38"><a xlink:href="api_2spec_2schedule_8h.html" target="_top" xlink:title="ODP schedule. ">
<polygon fill="#ffffff" stroke="#ff0000" points="2103.3738,-112.5 2103.3738,-131.5 2167.3738,-131.5 2167.3738,-112.5 2103.3738,-112.5"/>
<text text-anchor="middle" x="2135.3738" y="-119.5" font-family="Helvetica,sans-Serif" font-size="10.00" fill="#000000">schedule.h</text>
</a>
</g>
</g>
<!-- Node15&#45;&gt;Node88 -->
<g id="edge53" class="edge">
<title>Node15&#45;&gt;Node88</title>
<path fill="none" stroke="#191970" d="M1255.4206,-233.2703C1433.1076,-230.1363 2089.2615,-216.6563 2122.3738,-188 2138.4457,-174.0909 2138.236,-146.6003 2136.7718,-131.8695"/>
<polygon fill="#191970" stroke="#191970" points="1255.3176,-229.7714 1245.3801,-233.4453 1255.4396,-236.7704 1255.3176,-229.7714"/>
</g>
<!-- Node163 -->
<g id="node39" class="node">
<title>Node163</title>
<g id="a_node39"><a xlink:href="spec_2chksum_8h.html" target="_top" xlink:title="ODP checksum functions. ">
<polygon fill="#ffffff" stroke="#ff0000" points="1425.8738,-168.5 1425.8738,-187.5 1484.8738,-187.5 1484.8738,-168.5 1425.8738,-168.5"/>
<text text-anchor="middle" x="1455.3738" y="-175.5" font-family="Helvetica,sans-Serif" font-size="10.00" fill="#000000">chksum.h</text>
</a>
</g>
</g>
<!-- Node15&#45;&gt;Node163 -->
<g id="edge46" class="edge">
<title>Node15&#45;&gt;Node163</title>
<path fill="none" stroke="#191970" d="M1255.6082,-223.8478C1304.8802,-212.5395 1383.1712,-194.5711 1425.631,-184.8262"/>
<polygon fill="#191970" stroke="#191970" points="1254.5215,-220.5062 1245.5579,-226.1545 1256.0874,-227.3288 1254.5215,-220.5062"/>
</g>
<!-- Node165 -->
<g id="node40" class="node">
<title>Node165</title>
<g id="a_node40"><a xlink:href="api_2spec_2cpu_8h.html" target="_top" xlink:title="ODP CPU API. ">
<polygon fill="#ffffff" stroke="#ff0000" points="1502.8738,-168.5 1502.8738,-187.5 1543.8738,-187.5 1543.8738,-168.5 1502.8738,-168.5"/>
<text text-anchor="middle" x="1523.3738" y="-175.5" font-family="Helvetica,sans-Serif" font-size="10.00" fill="#000000">cpu.h</text>
</a>
</g>
</g>
<!-- Node15&#45;&gt;Node165 -->
<g id="edge47" class="edge">
<title>Node15&#45;&gt;Node165</title>
<path fill="none" stroke="#191970" d="M1255.8551,-228.9796C1311.8023,-222.1555 1410.5716,-208.4144 1493.3738,-188 1496.4655,-187.2378 1499.6961,-186.3076 1502.8441,-185.3248"/>
<polygon fill="#191970" stroke="#191970" points="1255.0985,-225.5452 1245.5872,-230.2128 1255.9332,-232.4953 1255.0985,-225.5452"/>
</g>
<!-- Node167 -->
<g id="node41" class="node">
<title>Node167</title>
<g id="a_node41"><a xlink:href="spec_2feature_8h.html" target="_top" xlink:title="ODP features. ">
<polygon fill="#ffffff" stroke="#ff0000" points="1561.8738,-168.5 1561.8738,-187.5 1616.8738,-187.5 1616.8738,-168.5 1561.8738,-168.5"/>
<text text-anchor="middle" x="1589.3738" y="-175.5" font-family="Helvetica,sans-Serif" font-size="10.00" fill="#000000">feature.h</text>
</a>
</g>
</g>
<!-- Node15&#45;&gt;Node167 -->
<g id="edge48" class="edge">
<title>Node15&#45;&gt;Node167</title>
<path fill="none" stroke="#191970" d="M1255.8429,-229.8636C1321.2316,-223.3616 1446.9802,-209.2575 1552.3738,-188 1555.3743,-187.3948 1558.4911,-186.6843 1561.5855,-185.9257"/>
<polygon fill="#191970" stroke="#191970" points="1255.1078,-226.4189 1245.4974,-230.8788 1255.7914,-233.3854 1255.1078,-226.4189"/>
</g>
<!-- Node169 -->
<g id="node42" class="node">
<title>Node169</title>
<g id="a_node42"><a xlink:href="api_2spec_2hash_8h.html" target="_top" xlink:title="ODP Hash functions. ">
<polygon fill="#ffffff" stroke="#ff0000" points="1635.3738,-168.5 1635.3738,-187.5 1681.3738,-187.5 1681.3738,-168.5 1635.3738,-168.5"/>
<text text-anchor="middle" x="1658.3738" y="-175.5" font-family="Helvetica,sans-Serif" font-size="10.00" fill="#000000">hash.h</text>
</a>
</g>
</g>
<!-- Node15&#45;&gt;Node169 -->
<g id="edge49" class="edge">
<title>Node15&#45;&gt;Node169</title>
<path fill="none" stroke="#191970" d="M1255.6947,-231.7504C1331.9087,-227.2887 1492.4256,-215.2887 1625.3738,-188 1628.5405,-187.35 1631.8395,-186.5293 1635.0742,-185.6388"/>
<polygon fill="#191970" stroke="#191970" points="1255.2963,-228.2673 1245.5117,-232.3307 1255.6947,-235.256 1255.2963,-228.2673"/>
</g>
<!-- Node90 -->
<g id="node43" class="node">
<title>Node90</title>
<g id="a_node43"><a xlink:href="api_2spec_2init_8h.html" target="_top" xlink:title="init.h">
<polygon fill="#ffffff" stroke="#ff0000" points="1699.3738,-168.5 1699.3738,-187.5 1737.3738,-187.5 1737.3738,-168.5 1699.3738,-168.5"/>
<text text-anchor="middle" x="1718.3738" y="-175.5" font-family="Helvetica,sans-Serif" font-size="10.00" fill="#000000">init.h</text>
</a>
</g>
</g>
<!-- Node15&#45;&gt;Node90 -->
<g id="edge50" class="edge">
<title>Node15&#45;&gt;Node90</title>
<path fill="none" stroke="#191970" d="M1255.603,-231.1561C1357.8447,-224.355 1608.0923,-206.3464 1690.3738,-188 1693.2959,-187.3485 1696.3312,-186.4788 1699.2784,-185.5234"/>
<polygon fill="#191970" stroke="#191970" points="1255.353,-227.6649 1245.6056,-231.8167 1255.8146,-234.6496 1255.353,-227.6649"/>
</g>
<!-- Node171 -->
<g id="node44" class="node">
<title>Node171</title>
<g id="a_node44"><a xlink:href="api_2spec_2pool_8h.html" target="_top" xlink:title="ODP pool. ">
<polygon fill="#ffffff" stroke="#ff0000" points="1755.8738,-168.5 1755.8738,-187.5 1798.8738,-187.5 1798.8738,-168.5 1755.8738,-168.5"/>
<text text-anchor="middle" x="1777.3738" y="-175.5" font-family="Helvetica,sans-Serif" font-size="10.00" fill="#000000">pool.h</text>
</a>
</g>
</g>
<!-- Node15&#45;&gt;Node171 -->
<g id="edge52" class="edge">
<title>Node15&#45;&gt;Node171</title>
<path fill="none" stroke="#191970" d="M1255.6373,-231.4882C1366.2885,-225.0013 1652.7526,-206.8714 1746.3738,-188 1749.4782,-187.3742 1752.7078,-186.5437 1755.8593,-185.628"/>
<polygon fill="#191970" stroke="#191970" points="1255.2699,-228.0036 1245.4903,-232.0792 1255.677,-234.9917 1255.2699,-228.0036"/>
</g>
<!-- Node173 -->
<g id="node45" class="node">
<title>Node173</title>
<g id="a_node45"><a xlink:href="api_2spec_2stash_8h.html" target="_top" xlink:title="ODP stash. ">
<polygon fill="#ffffff" stroke="#ff0000" points="1816.8738,-168.5 1816.8738,-187.5 1865.8738,-187.5 1865.8738,-168.5 1816.8738,-168.5"/>
<text text-anchor="middle" x="1841.3738" y="-175.5" font-family="Helvetica,sans-Serif" font-size="10.00" fill="#000000">stash.h</text>
</a>
</g>
</g>
<!-- Node15&#45;&gt;Node173 -->
<g id="edge54" class="edge">
<title>Node15&#45;&gt;Node173</title>
<path fill="none" stroke="#191970" d="M1255.7257,-231.8352C1375.2638,-225.8009 1702.2564,-207.9211 1808.3738,-188 1811.0803,-187.4919 1813.8796,-186.8436 1816.651,-186.1217"/>
<polygon fill="#191970" stroke="#191970" points="1255.2932,-228.3524 1245.481,-232.349 1255.6438,-235.3436 1255.2932,-228.3524"/>
</g>
<!-- Node175 -->
<g id="node46" class="node">
<title>Node175</title>
<g id="a_node46"><a xlink:href="spec_2threshold_8h.html" target="_top" xlink:title="ODP threshold descriptor. ">
<polygon fill="#ffffff" stroke="#ff0000" points="1883.8738,-168.5 1883.8738,-187.5 1948.8738,-187.5 1948.8738,-168.5 1883.8738,-168.5"/>
<text text-anchor="middle" x="1916.3738" y="-175.5" font-family="Helvetica,sans-Serif" font-size="10.00" fill="#000000">threshold.h</text>
</a>
</g>
</g>
<!-- Node15&#45;&gt;Node175 -->
<g id="edge55" class="edge">
<title>Node15&#45;&gt;Node175</title>
<path fill="none" stroke="#191970" d="M1255.5627,-233.5278C1362.5727,-231.8232 1643.8694,-223.9834 1875.3738,-188 1878.1249,-187.5724 1880.9627,-187.0514 1883.8008,-186.4741"/>
<polygon fill="#191970" stroke="#191970" points="1255.4072,-230.0297 1245.4606,-233.6785 1255.5117,-237.0289 1255.4072,-230.0297"/>
</g>
<!-- Node177 -->
<g id="node47" class="node">
<title>Node177</title>
<g id="a_node47"><a xlink:href="api_2spec_2thrmask_8h.html" target="_top" xlink:title="ODP thread masks. ">
<polygon fill="#ffffff" stroke="#ff0000" points="1967.3738,-168.5 1967.3738,-187.5 2027.3738,-187.5 2027.3738,-168.5 1967.3738,-168.5"/>
<text text-anchor="middle" x="1997.3738" y="-175.5" font-family="Helvetica,sans-Serif" font-size="10.00" fill="#000000">thrmask.h</text>
</a>
</g>
</g>
<!-- Node15&#45;&gt;Node177 -->
<g id="edge56" class="edge">
<title>Node15&#45;&gt;Node177</title>
<path fill="none" stroke="#191970" d="M1256.0444,-232.3616C1395.5149,-227.0709 1821.7115,-209.5293 1958.3738,-188 1961.2738,-187.5431 1964.272,-186.967 1967.258,-186.3231"/>
<polygon fill="#191970" stroke="#191970" points="1255.599,-228.8758 1245.7379,-232.75 1255.8627,-235.8709 1255.599,-228.8758"/>
</g>
<!-- Node178 -->
<g id="node48" class="node">
<title>Node178</title>
<g id="a_node48"><a xlink:href="system__info_8h.html" target="_top" xlink:title="ODP system information. ">
<polygon fill="#ffffff" stroke="#000000" points="18.3738,-112.5 18.3738,-131.5 96.3738,-131.5 96.3738,-112.5 18.3738,-112.5"/>
<text text-anchor="middle" x="57.3738" y="-119.5" font-family="Helvetica,sans-Serif" font-size="10.00" fill="#000000">system_info.h</text>
</a>
</g>
</g>
<!-- Node15&#45;&gt;Node178 -->
<g id="edge58" class="edge">
<title>Node15&#45;&gt;Node178</title>
<path fill="none" stroke="#191970" d="M1167.0449,-233.232C966.6272,-229.6231 152.8836,-213.4501 105.3738,-188 82.3938,-175.69 67.6507,-146.9799 61.1754,-131.8042"/>
<polygon fill="#191970" stroke="#191970" points="1167.145,-236.7342 1177.2059,-233.4136 1167.2701,-229.7354 1167.145,-236.7342"/>
</g>
<!-- Node179 -->
<g id="node49" class="node">
<title>Node179</title>
<g id="a_node49"><a xlink:href="api_2time_8h.html" target="_top" xlink:title="ODP time. ">
<polygon fill="#ffffff" stroke="#ff0000" points="997.3738,-112.5 997.3738,-131.5 1041.3738,-131.5 1041.3738,-112.5 997.3738,-112.5"/>
<text text-anchor="middle" x="1019.3738" y="-119.5" font-family="Helvetica,sans-Serif" font-size="10.00" fill="#000000">time.h</text>
</a>
</g>
</g>
<!-- Node15&#45;&gt;Node179 -->
<g id="edge60" class="edge">
<title>Node15&#45;&gt;Node179</title>
<path fill="none" stroke="#191970" d="M1173.5657,-220.9627C1152.0106,-212.8229 1124.8909,-201.3622 1102.3738,-188 1073.8756,-171.0885 1044.4191,-145.3294 1029.4409,-131.5254"/>
<polygon fill="#191970" stroke="#191970" points="1172.4481,-224.2809 1183.0414,-224.4638 1174.8742,-217.7148 1172.4481,-224.2809"/>
</g>
<!-- Node181 -->
<g id="node50" class="node">
<title>Node181</title>
<g id="a_node50"><a xlink:href="api_2timer_8h.html" target="_top" xlink:title="ODP timer service. ">
<polygon fill="#ffffff" stroke="#000000" points="1059.8738,-112.5 1059.8738,-131.5 1106.8738,-131.5 1106.8738,-112.5 1059.8738,-112.5"/>
<text text-anchor="middle" x="1083.3738" y="-119.5" font-family="Helvetica,sans-Serif" font-size="10.00" fill="#000000">timer.h</text>
</a>
</g>
</g>
<!-- Node15&#45;&gt;Node181 -->
<g id="edge62" class="edge">
<title>Node15&#45;&gt;Node181</title>
<path fill="none" stroke="#191970" d="M1173.8691,-220.6126C1156.4228,-213.0271 1136.2847,-202.1847 1121.3738,-188 1104.1305,-171.5965 1092.349,-145.631 1086.8734,-131.6597"/>
<polygon fill="#191970" stroke="#191970" points="1172.656,-223.8984 1183.2342,-224.4922 1175.3351,-217.4314 1172.656,-223.8984"/>
</g>
<!-- Node17 -->
<g id="node14" class="node">
<title>Node17</title>
<g id="a_node14"><a xlink:href="arch_2arm32-linux_2odp_2api_2abi_2atomic_8h_source.html" target="_top" xlink:title="atomic.h">
<polygon fill="#ffffff" stroke="#000000" points="186.3738,-112.5 186.3738,-131.5 240.3738,-131.5 240.3738,-112.5 186.3738,-112.5"/>
<text text-anchor="middle" x="213.3738" y="-119.5" font-family="Helvetica,sans-Serif" font-size="10.00" fill="#000000">atomic.h</text>
</a>
</g>
</g>
<!-- Node16&#45;&gt;Node17 -->
<g id="edge13" class="edge">
<title>Node16&#45;&gt;Node17</title>
<path fill="none" stroke="#191970" d="M162.0378,-161.928C174.6227,-152.1397 190.2831,-139.9595 200.9761,-131.6427"/>
<polygon fill="#191970" stroke="#191970" points="159.66,-159.3434 153.9152,-168.2455 163.9576,-164.8688 159.66,-159.3434"/>
</g>
<!-- Node18 -->
<g id="node15" class="node">
<title>Node18</title>
<g id="a_node15"><a xlink:href="arch_2arm64-linux_2odp_2api_2abi_2atomic_8h_source.html" target="_top" xlink:title="atomic.h">
<polygon fill="#ffffff" stroke="#000000" points="258.3738,-112.5 258.3738,-131.5 312.3738,-131.5 312.3738,-112.5 258.3738,-112.5"/>
<text text-anchor="middle" x="285.3738" y="-119.5" font-family="Helvetica,sans-Serif" font-size="10.00" fill="#000000">atomic.h</text>
</a>
</g>
</g>
<!-- Node16&#45;&gt;Node18 -->
<g id="edge14" class="edge">
<title>Node16&#45;&gt;Node18</title>
<path fill="none" stroke="#191970" d="M175.692,-164.6541C201.9518,-154.4419 237.523,-140.6086 260.9423,-131.5011"/>
<polygon fill="#191970" stroke="#191970" points="174.1798,-161.4867 166.1283,-168.3733 176.7169,-168.0108 174.1798,-161.4867"/>
</g>
<!-- Node19 -->
<g id="node16" class="node">
<title>Node19</title>
<g id="a_node16"><a xlink:href="arch_2default-linux_2odp_2api_2abi_2atomic_8h_source.html" target="_top" xlink:title="atomic.h">
<polygon fill="#ffffff" stroke="#000000" points="330.3738,-112.5 330.3738,-131.5 384.3738,-131.5 384.3738,-112.5 330.3738,-112.5"/>
<text text-anchor="middle" x="357.3738" y="-119.5" font-family="Helvetica,sans-Serif" font-size="10.00" fill="#000000">atomic.h</text>
</a>
</g>
</g>
<!-- Node16&#45;&gt;Node19 -->
<g id="edge15" class="edge">
<title>Node16&#45;&gt;Node19</title>
<path fill="none" stroke="#191970" d="M178.3407,-167.7947C242.8047,-150.9191 260.5769,-148.0407 321.3738,-132 324.2589,-131.2388 327.2696,-130.4283 330.2675,-129.6107"/>
<polygon fill="#191970" stroke="#191970" points="177.2603,-164.4597 168.4802,-170.3893 179.0416,-171.2293 177.2603,-164.4597"/>
</g>
<!-- Node20 -->
<g id="node17" class="node">
<title>Node20</title>
<g id="a_node17"><a xlink:href="arch_2mips64-linux_2odp_2api_2abi_2atomic_8h_source.html" target="_top" xlink:title="atomic.h">
<polygon fill="#ffffff" stroke="#000000" points="402.3738,-112.5 402.3738,-131.5 456.3738,-131.5 456.3738,-112.5 402.3738,-112.5"/>
<text text-anchor="middle" x="429.3738" y="-119.5" font-family="Helvetica,sans-Serif" font-size="10.00" fill="#000000">atomic.h</text>
</a>
</g>
</g>
<!-- Node16&#45;&gt;Node20 -->
<g id="edge16" class="edge">
<title>Node16&#45;&gt;Node20</title>
<path fill="none" stroke="#191970" d="M178.2371,-168.0012C274.1385,-147.3119 301.4162,-152.3751 393.3738,-132 396.287,-131.3545 399.3156,-130.6181 402.3241,-129.8444"/>
<polygon fill="#191970" stroke="#191970" points="177.4404,-164.5927 168.4235,-170.1556 178.9414,-171.4299 177.4404,-164.5927"/>
</g>
<!-- Node21 -->
<g id="node18" class="node">
<title>Node21</title>
<g id="a_node18"><a xlink:href="arch_2power64-linux_2odp_2api_2abi_2atomic_8h_source.html" target="_top" xlink:title="atomic.h">
<polygon fill="#ffffff" stroke="#000000" points="114.3738,-112.5 114.3738,-131.5 168.3738,-131.5 168.3738,-112.5 114.3738,-112.5"/>
<text text-anchor="middle" x="141.3738" y="-119.5" font-family="Helvetica,sans-Serif" font-size="10.00" fill="#000000">atomic.h</text>
</a>
</g>
</g>
<!-- Node16&#45;&gt;Node21 -->
<g id="edge17" class="edge">
<title>Node16&#45;&gt;Node21</title>
<path fill="none" stroke="#191970" d="M141.3738,-158.1575C141.3738,-149.155 141.3738,-138.9199 141.3738,-131.6427"/>
<polygon fill="#191970" stroke="#191970" points="137.8739,-158.2455 141.3738,-168.2455 144.8739,-158.2456 137.8739,-158.2455"/>
</g>
<!-- Node33&#45;&gt;Node13 -->
<g id="edge29" class="edge">
<title>Node33&#45;&gt;Node13</title>
<path fill="none" stroke="#191970" d="M1210.8035,-106.2097C1224.1515,-96.3743 1240.8917,-84.0394 1252.2873,-75.6427"/>
<polygon fill="#191970" stroke="#191970" points="1208.5864,-103.4958 1202.612,-112.2455 1212.7388,-109.1312 1208.5864,-103.4958"/>
</g>
<!-- Node162&#45;&gt;Node13 -->
<g id="edge31" class="edge">
<title>Node162&#45;&gt;Node13</title>
<path fill="none" stroke="#191970" d="M1363.0067,-108.3833C1339.5454,-98.1985 1308.0553,-84.5284 1287.2603,-75.5011"/>
<polygon fill="#191970" stroke="#191970" points="1361.6312,-111.6017 1372.1979,-112.3733 1364.4187,-105.1806 1361.6312,-111.6017"/>
</g>
<!-- Node119&#45;&gt;Node13 -->
<g id="edge33" class="edge">
<title>Node119&#45;&gt;Node13</title>
<path fill="none" stroke="#191970" d="M1431.8541,-109.7695C1390.2236,-98.8244 1330.4496,-83.1091 1295.0002,-73.7891"/>
<polygon fill="#191970" stroke="#191970" points="1431.1965,-113.2155 1441.7578,-112.3733 1432.9764,-106.4455 1431.1965,-113.2155"/>
</g>
<!-- Node125&#45;&gt;Node13 -->
<g id="edge35" class="edge">
<title>Node125&#45;&gt;Node13</title>
<path fill="none" stroke="#191970" d="M2213.2443,-112.6302C2211.9415,-112.4 2210.6484,-112.1885 2209.3738,-112 2026.5635,-84.9626 1434.6176,-69.8918 1295.0494,-66.6613"/>
<polygon fill="#191970" stroke="#191970" points="2212.7712,-116.1061 2223.2714,-114.6936 2214.1822,-109.2497 2212.7712,-116.1061"/>
</g>
<!-- Node121&#45;&gt;Node13 -->
<g id="edge38" class="edge">
<title>Node121&#45;&gt;Node13</title>
<path fill="none" stroke="#191970" d="M1293.4587,-163.0717C1312.087,-150.6717 1331.8847,-131.8972 1322.3738,-112 1314.5863,-95.7083 1297.9004,-83.337 1284.5838,-75.5495"/>
<polygon fill="#191970" stroke="#191970" points="1291.4491,-160.2001 1284.8171,-168.4626 1295.1541,-166.1392 1291.4491,-160.2001"/>
</g>
<!-- Node121&#45;&gt;Node135 -->
<g id="edge37" class="edge">
<title>Node121&#45;&gt;Node135</title>
<path fill="none" stroke="#191970" d="M1268.8541,-158.1575C1269.9794,-149.155 1271.2588,-138.9199 1272.1685,-131.6427"/>
<polygon fill="#191970" stroke="#191970" points="1265.3606,-157.8886 1267.5931,-168.2455 1272.3065,-158.7569 1265.3606,-157.8886"/>
</g>
<!-- Node131&#45;&gt;Node13 -->
<g id="edge41" class="edge">
<title>Node131&#45;&gt;Node13</title>
<path fill="none" stroke="#191970" d="M2035.6783,-167.9161C1900.2504,-139.5704 1865.2223,-130.7451 1732.3738,-112 1567.8077,-88.7794 1368.9693,-73.3562 1294.9811,-68.0486"/>
<polygon fill="#191970" stroke="#191970" points="2035.1008,-171.371 2045.6054,-169.9912 2036.5331,-164.5191 2035.1008,-171.371"/>
</g>
<!-- Node131&#45;&gt;Node133 -->
<g id="edge40" class="edge">
<title>Node131&#45;&gt;Node133</title>
<path fill="none" stroke="#191970" d="M2035.5734,-168.0093C1915.9361,-146.6935 1786.3669,-132.2787 1723.1106,-125.7997"/>
<polygon fill="#191970" stroke="#191970" points="2035.1757,-171.4939 2045.638,-169.8234 2036.4175,-164.6049 2035.1757,-171.4939"/>
</g>
<!-- Node129&#45;&gt;Node13 -->
<g id="edge45" class="edge">
<title>Node129&#45;&gt;Node13</title>
<path fill="none" stroke="#191970" d="M2195.3965,-157.6044C2194.2187,-142.4984 2189.9234,-122.7452 2176.3738,-112 2141.0497,-83.9871 1447.5445,-69.4096 1294.9159,-66.5335"/>
<polygon fill="#191970" stroke="#191970" points="2191.9151,-158.1637 2195.7911,-168.024 2198.91,-157.8987 2191.9151,-158.1637"/>
</g>
<!-- Node129&#45;&gt;Node125 -->
<g id="edge43" class="edge">
<title>Node129&#45;&gt;Node125</title>
<path fill="none" stroke="#191970" d="M2211.9707,-160.7884C2221.2085,-151.2085 2232.3642,-139.6396 2240.0755,-131.6427"/>
<polygon fill="#191970" stroke="#191970" points="2209.2018,-158.6176 2204.7799,-168.2455 2214.2407,-163.4766 2209.2018,-158.6176"/>
</g>
<!-- Node129&#45;&gt;Node88 -->
<g id="edge44" class="edge">
<title>Node129&#45;&gt;Node88</title>
<path fill="none" stroke="#191970" d="M2177.546,-161.3607C2167.166,-151.6727 2154.4447,-139.7995 2145.7052,-131.6427"/>
<polygon fill="#191970" stroke="#191970" points="2175.2239,-163.981 2184.9226,-168.2455 2180.0001,-158.8636 2175.2239,-163.981"/>
</g>
<!-- Node178&#45;&gt;Node13 -->
<g id="edge59" class="edge">
<title>Node178&#45;&gt;Node13</title>
<path fill="none" stroke="#191970" d="M106.5891,-112.0825C354.0256,-83.479 1079.986,-69.2836 1235.7453,-66.5088"/>
<polygon fill="#191970" stroke="#191970" points="106.0916,-108.617 96.5782,-113.2803 106.9233,-115.5674 106.0916,-108.617"/>
</g>
<!-- Node179&#45;&gt;Node13 -->
<g id="edge61" class="edge">
<title>Node179&#45;&gt;Node13</title>
<path fill="none" stroke="#191970" d="M1051.6615,-111.8474C1122.7647,-93.1264 1195.7487,-78.7981 1235.5867,-71.3839"/>
<polygon fill="#191970" stroke="#191970" points="1050.4055,-108.56 1041.6446,-114.518 1052.2088,-115.3237 1050.4055,-108.56"/>
</g>
<!-- Node181&#45;&gt;Node13 -->
<g id="edge63" class="edge">
<title>Node181&#45;&gt;Node13</title>
<path fill="none" stroke="#191970" d="M1117.1251,-111.615C1151.2134,-101.1263 1203.349,-85.0846 1235.8446,-75.0859"/>
<polygon fill="#191970" stroke="#191970" points="1115.6956,-108.3928 1107.1671,-114.679 1117.7542,-115.0833 1115.6956,-108.3928"/>
</g>
</g>
</svg>
