<?xml version="1.0" encoding="UTF-8" standalone="no"?>
<!DOCTYPE svg PUBLIC "-//W3C//DTD SVG 1.1//EN"
 "http://www.w3.org/Graphics/SVG/1.1/DTD/svg11.dtd">
<!-- Generated by graphviz version 2.40.1 (20161225.0304)
 -->
<!-- Title: rwlock_recursive.h Pages: 1 -->
<svg width="802pt" height="252pt"
 viewBox="0.00 0.00 802.00 252.00" xmlns="http://www.w3.org/2000/svg" xmlns:xlink="http://www.w3.org/1999/xlink">
<g id="graph0" class="graph" transform="scale(1 1) rotate(0) translate(4 248)">
<title>rwlock_recursive.h</title>
<polygon fill="#ffffff" stroke="transparent" points="-4,4 -4,-248 798,-248 798,4 -4,4"/>
<!-- Node17 -->
<g id="node1" class="node">
<title>Node17</title>
<polygon fill="#bfbfbf" stroke="#000000" points="348,-224.5 348,-243.5 446,-243.5 446,-224.5 348,-224.5"/>
<text text-anchor="middle" x="397" y="-231.5" font-family="Helvetica,sans-Serif" font-size="10.00" fill="#000000">rwlock_recursive.h</text>
</g>
<!-- Node18 -->
<g id="node2" class="node">
<title>Node18</title>
<g id="a_node2"><a xlink:href="arch_2arm32-linux_2odp_2api_2abi_2rwlock__recursive_8h_source.html" target="_top" xlink:title="rwlock_recursive.h">
<polygon fill="#ffffff" stroke="#000000" points="0,-168.5 0,-187.5 98,-187.5 98,-168.5 0,-168.5"/>
<text text-anchor="middle" x="49" y="-175.5" font-family="Helvetica,sans-Serif" font-size="10.00" fill="#000000">rwlock_recursive.h</text>
</a>
</g>
</g>
<!-- Node17&#45;&gt;Node18 -->
<g id="edge1" class="edge">
<title>Node17&#45;&gt;Node18</title>
<path fill="none" stroke="#191970" d="M337.7779,-224.8444C279.1427,-215.7233 186.8243,-201.2117 107,-188 104.0765,-187.5161 101.0711,-187.0136 98.0399,-186.5028"/>
<polygon fill="#191970" stroke="#191970" points="337.5463,-228.3503 347.9652,-226.4275 338.6213,-221.4333 337.5463,-228.3503"/>
</g>
<!-- Node19 -->
<g id="node3" class="node">
<title>Node19</title>
<g id="a_node3"><a xlink:href="arch_2arm64-linux_2odp_2api_2abi_2rwlock__recursive_8h_source.html" target="_top" xlink:title="rwlock_recursive.h">
<polygon fill="#ffffff" stroke="#000000" points="116,-168.5 116,-187.5 214,-187.5 214,-168.5 116,-168.5"/>
<text text-anchor="middle" x="165" y="-175.5" font-family="Helvetica,sans-Serif" font-size="10.00" fill="#000000">rwlock_recursive.h</text>
</a>
</g>
</g>
<!-- Node17&#45;&gt;Node19 -->
<g id="edge2" class="edge">
<title>Node17&#45;&gt;Node19</title>
<path fill="none" stroke="#191970" d="M347.4816,-222.0473C304.7803,-211.7401 243.9345,-197.0532 204.4552,-187.5237"/>
<polygon fill="#191970" stroke="#191970" points="346.8393,-225.4927 357.3814,-224.4369 348.4818,-218.6881 346.8393,-225.4927"/>
</g>
<!-- Node20 -->
<g id="node4" class="node">
<title>Node20</title>
<g id="a_node4"><a xlink:href="arch_2default-linux_2odp_2api_2abi_2rwlock__recursive_8h_source.html" target="_top" xlink:title="rwlock_recursive.h">
<polygon fill="#ffffff" stroke="#000000" points="232,-168.5 232,-187.5 330,-187.5 330,-168.5 232,-168.5"/>
<text text-anchor="middle" x="281" y="-175.5" font-family="Helvetica,sans-Serif" font-size="10.00" fill="#000000">rwlock_recursive.h</text>
</a>
</g>
</g>
<!-- Node17&#45;&gt;Node20 -->
<g id="edge3" class="edge">
<title>Node17&#45;&gt;Node20</title>
<path fill="none" stroke="#191970" d="M367.9463,-219.9741C346.9435,-209.8348 319.1309,-196.408 300.6809,-187.5011"/>
<polygon fill="#191970" stroke="#191970" points="366.5317,-223.1776 377.0589,-224.3733 369.575,-216.8738 366.5317,-223.1776"/>
</g>
<!-- Node21 -->
<g id="node5" class="node">
<title>Node21</title>
<g id="a_node5"><a xlink:href="arch_2mips64-linux_2odp_2api_2abi_2rwlock__recursive_8h_source.html" target="_top" xlink:title="rwlock_recursive.h">
<polygon fill="#ffffff" stroke="#000000" points="348,-168.5 348,-187.5 446,-187.5 446,-168.5 348,-168.5"/>
<text text-anchor="middle" x="397" y="-175.5" font-family="Helvetica,sans-Serif" font-size="10.00" fill="#000000">rwlock_recursive.h</text>
</a>
</g>
</g>
<!-- Node17&#45;&gt;Node21 -->
<g id="edge4" class="edge">
<title>Node17&#45;&gt;Node21</title>
<path fill="none" stroke="#191970" d="M397,-214.1575C397,-205.155 397,-194.9199 397,-187.6427"/>
<polygon fill="#191970" stroke="#191970" points="393.5001,-214.2455 397,-224.2455 400.5001,-214.2456 393.5001,-214.2455"/>
</g>
<!-- Node22 -->
<g id="node6" class="node">
<title>Node22</title>
<g id="a_node6"><a xlink:href="arch_2power64-linux_2odp_2api_2abi_2rwlock__recursive_8h_source.html" target="_top" xlink:title="rwlock_recursive.h">
<polygon fill="#ffffff" stroke="#000000" points="464,-168.5 464,-187.5 562,-187.5 562,-168.5 464,-168.5"/>
<text text-anchor="middle" x="513" y="-175.5" font-family="Helvetica,sans-Serif" font-size="10.00" fill="#000000">rwlock_recursive.h</text>
</a>
</g>
</g>
<!-- Node17&#45;&gt;Node22 -->
<g id="edge5" class="edge">
<title>Node17&#45;&gt;Node22</title>
<path fill="none" stroke="#191970" d="M426.0537,-219.9741C447.0565,-209.8348 474.8691,-196.408 493.3191,-187.5011"/>
<polygon fill="#191970" stroke="#191970" points="424.425,-216.8738 416.9411,-224.3733 427.4683,-223.1776 424.425,-216.8738"/>
</g>
<!-- Node23 -->
<g id="node7" class="node">
<title>Node23</title>
<g id="a_node7"><a xlink:href="arch_2x86__32-linux_2odp_2api_2abi_2rwlock__recursive_8h_source.html" target="_top" xlink:title="rwlock_recursive.h">
<polygon fill="#ffffff" stroke="#000000" points="580,-168.5 580,-187.5 678,-187.5 678,-168.5 580,-168.5"/>
<text text-anchor="middle" x="629" y="-175.5" font-family="Helvetica,sans-Serif" font-size="10.00" fill="#000000">rwlock_recursive.h</text>
</a>
</g>
</g>
<!-- Node17&#45;&gt;Node23 -->
<g id="edge6" class="edge">
<title>Node17&#45;&gt;Node23</title>
<path fill="none" stroke="#191970" d="M446.5184,-222.0473C489.2197,-211.7401 550.0655,-197.0532 589.5448,-187.5237"/>
<polygon fill="#191970" stroke="#191970" points="445.5182,-218.6881 436.6186,-224.4369 447.1607,-225.4927 445.5182,-218.6881"/>
</g>
<!-- Node24 -->
<g id="node8" class="node">
<title>Node24</title>
<g id="a_node8"><a xlink:href="arch_2x86__64-linux_2odp_2api_2abi_2rwlock__recursive_8h_source.html" target="_top" xlink:title="rwlock_recursive.h">
<polygon fill="#ffffff" stroke="#000000" points="696,-168.5 696,-187.5 794,-187.5 794,-168.5 696,-168.5"/>
<text text-anchor="middle" x="745" y="-175.5" font-family="Helvetica,sans-Serif" font-size="10.00" fill="#000000">rwlock_recursive.h</text>
</a>
</g>
</g>
<!-- Node17&#45;&gt;Node24 -->
<g id="edge7" class="edge">
<title>Node17&#45;&gt;Node24</title>
<path fill="none" stroke="#191970" d="M456.2221,-224.8444C514.8573,-215.7233 607.1757,-201.2117 687,-188 689.9235,-187.5161 692.9289,-187.0136 695.9601,-186.5028"/>
<polygon fill="#191970" stroke="#191970" points="455.3787,-221.4333 446.0348,-226.4275 456.4537,-228.3503 455.3787,-221.4333"/>
</g>
<!-- Node25 -->
<g id="node9" class="node">
<title>Node25</title>
<g id="a_node9"><a xlink:href="api_2rwlock__recursive_8h.html" target="_top" xlink:title="ODP resursive read/write lock. ">
<polygon fill="#ffffff" stroke="#000000" points="696,-112.5 696,-131.5 794,-131.5 794,-112.5 696,-112.5"/>
<text text-anchor="middle" x="745" y="-119.5" font-family="Helvetica,sans-Serif" font-size="10.00" fill="#000000">rwlock_recursive.h</text>
</a>
</g>
</g>
<!-- Node24&#45;&gt;Node25 -->
<g id="edge8" class="edge">
<title>Node24&#45;&gt;Node25</title>
<path fill="none" stroke="#191970" d="M745,-158.1575C745,-149.155 745,-138.9199 745,-131.6427"/>
<polygon fill="#191970" stroke="#191970" points="741.5001,-158.2455 745,-168.2455 748.5001,-158.2456 741.5001,-158.2455"/>
</g>
<!-- Node26 -->
<g id="node10" class="node">
<title>Node26</title>
<g id="a_node10"><a xlink:href="odp__api_8h.html" target="_top" xlink:title="The OpenDataPlane API. ">
<polygon fill="#ffffff" stroke="#000000" points="715.5,-56.5 715.5,-75.5 774.5,-75.5 774.5,-56.5 715.5,-56.5"/>
<text text-anchor="middle" x="745" y="-63.5" font-family="Helvetica,sans-Serif" font-size="10.00" fill="#000000">odp_api.h</text>
</a>
</g>
</g>
<!-- Node25&#45;&gt;Node26 -->
<g id="edge9" class="edge">
<title>Node25&#45;&gt;Node26</title>
<path fill="none" stroke="#191970" d="M745,-102.1575C745,-93.155 745,-82.9199 745,-75.6427"/>
<polygon fill="#191970" stroke="#191970" points="741.5001,-102.2455 745,-112.2455 748.5001,-102.2456 741.5001,-102.2455"/>
</g>
<!-- Node27 -->
<g id="node11" class="node">
<title>Node27</title>
<g id="a_node11"><a xlink:href="odp_8h.html" target="_top" xlink:title="WARNING: THIS FILE IS DEPRECATED AND WILL BE REMOVED!!! ODP APPLICATIONS SHOULD NOW INCLUDE odp_api...">
<polygon fill="#ffffff" stroke="#000000" points="724.5,-.5 724.5,-19.5 765.5,-19.5 765.5,-.5 724.5,-.5"/>
<text text-anchor="middle" x="745" y="-7.5" font-family="Helvetica,sans-Serif" font-size="10.00" fill="#000000">odp.h</text>
</a>
</g>
</g>
<!-- Node26&#45;&gt;Node27 -->
<g id="edge10" class="edge">
<title>Node26&#45;&gt;Node27</title>
<path fill="none" stroke="#191970" d="M745,-46.1575C745,-37.155 745,-26.9199 745,-19.6427"/>
<polygon fill="#191970" stroke="#191970" points="741.5001,-46.2455 745,-56.2455 748.5001,-46.2456 741.5001,-46.2455"/>
</g>
</g>
</svg>
