<?xml version="1.0" encoding="UTF-8" standalone="no"?>
<!DOCTYPE svg PUBLIC "-//W3C//DTD SVG 1.1//EN"
 "http://www.w3.org/Graphics/SVG/1.1/DTD/svg11.dtd">
<!-- Generated by graphviz version 2.40.1 (20161225.0304)
 -->
<!-- Title: cpumask.h Pages: 1 -->
<svg width="726pt" height="420pt"
 viewBox="0.00 0.00 725.50 420.00" xmlns="http://www.w3.org/2000/svg" xmlns:xlink="http://www.w3.org/1999/xlink">
<g id="graph0" class="graph" transform="scale(1 1) rotate(0) translate(4 416)">
<title>cpumask.h</title>
<polygon fill="#ffffff" stroke="transparent" points="-4,4 -4,-416 721.5,-416 721.5,4 -4,4"/>
<!-- Node5 -->
<g id="node1" class="node">
<title>Node5</title>
<polygon fill="#bfbfbf" stroke="#000000" points="523.5,-392.5 523.5,-411.5 588.5,-411.5 588.5,-392.5 523.5,-392.5"/>
<text text-anchor="middle" x="556" y="-399.5" font-family="Helvetica,sans-Serif" font-size="10.00" fill="#000000">cpumask.h</text>
</g>
<!-- Node6 -->
<g id="node2" class="node">
<title>Node6</title>
<g id="a_node2"><a xlink:href="api_2abi-default_2thrmask_8h.html" target="_top" xlink:title="ODP thread masks. ">
<polygon fill="#ffffff" stroke="#000000" points="273,-336.5 273,-355.5 333,-355.5 333,-336.5 273,-336.5"/>
<text text-anchor="middle" x="303" y="-343.5" font-family="Helvetica,sans-Serif" font-size="10.00" fill="#000000">thrmask.h</text>
</a>
</g>
</g>
<!-- Node5&#45;&gt;Node6 -->
<g id="edge1" class="edge">
<title>Node5&#45;&gt;Node6</title>
<path fill="none" stroke="#191970" d="M513.3731,-392.5648C462.2453,-381.248 377.8451,-362.5665 333.0687,-352.6555"/>
<polygon fill="#191970" stroke="#191970" points="512.9225,-396.0497 523.4426,-394.7936 514.4354,-389.2151 512.9225,-396.0497"/>
</g>
<!-- Node17 -->
<g id="node13" class="node">
<title>Node17</title>
<g id="a_node13"><a xlink:href="odp__api_8h.html" target="_top" xlink:title="The OpenDataPlane API. ">
<polygon fill="#ffffff" stroke="#000000" points="526.5,-56.5 526.5,-75.5 585.5,-75.5 585.5,-56.5 526.5,-56.5"/>
<text text-anchor="middle" x="556" y="-63.5" font-family="Helvetica,sans-Serif" font-size="10.00" fill="#000000">odp_api.h</text>
</a>
</g>
</g>
<!-- Node5&#45;&gt;Node17 -->
<g id="edge21" class="edge">
<title>Node5&#45;&gt;Node17</title>
<path fill="none" stroke="#191970" d="M556,-382.1952C556,-359.8128 556,-322.2884 556,-290 556,-290 556,-290 556,-178 556,-140.0833 556,-94.9462 556,-75.5884"/>
<polygon fill="#191970" stroke="#191970" points="552.5001,-382.4116 556,-392.4116 559.5001,-382.4117 552.5001,-382.4116"/>
</g>
<!-- Node19 -->
<g id="node15" class="node">
<title>Node19</title>
<g id="a_node15"><a xlink:href="api_2spec_2init_8h.html" target="_top" xlink:title="init.h">
<polygon fill="#ffffff" stroke="#000000" points="584,-336.5 584,-355.5 622,-355.5 622,-336.5 584,-336.5"/>
<text text-anchor="middle" x="603" y="-343.5" font-family="Helvetica,sans-Serif" font-size="10.00" fill="#000000">init.h</text>
</a>
</g>
</g>
<!-- Node5&#45;&gt;Node19 -->
<g id="edge15" class="edge">
<title>Node5&#45;&gt;Node19</title>
<path fill="none" stroke="#191970" d="M570.6872,-384.5004C578.6796,-374.9775 588.2625,-363.5596 594.907,-355.6427"/>
<polygon fill="#191970" stroke="#191970" points="567.9346,-382.3357 564.1868,-392.2455 573.2964,-386.8358 567.9346,-382.3357"/>
</g>
<!-- Node7 -->
<g id="node3" class="node">
<title>Node7</title>
<g id="a_node3"><a xlink:href="arch_2arm32-linux_2odp_2api_2abi_2thrmask_8h_source.html" target="_top" xlink:title="thrmask.h">
<polygon fill="#ffffff" stroke="#000000" points="0,-280.5 0,-299.5 60,-299.5 60,-280.5 0,-280.5"/>
<text text-anchor="middle" x="30" y="-287.5" font-family="Helvetica,sans-Serif" font-size="10.00" fill="#000000">thrmask.h</text>
</a>
</g>
</g>
<!-- Node6&#45;&gt;Node7 -->
<g id="edge2" class="edge">
<title>Node6&#45;&gt;Node7</title>
<path fill="none" stroke="#191970" d="M262.9478,-338.8436C216.2346,-330.3312 136.7635,-315.3351 69,-300 66.1367,-299.352 63.1631,-298.6475 60.1926,-297.9224"/>
<polygon fill="#191970" stroke="#191970" points="262.501,-342.3196 272.9652,-340.661 263.7507,-335.432 262.501,-342.3196"/>
</g>
<!-- Node8 -->
<g id="node4" class="node">
<title>Node8</title>
<g id="a_node4"><a xlink:href="arch_2arm64-linux_2odp_2api_2abi_2thrmask_8h_source.html" target="_top" xlink:title="thrmask.h">
<polygon fill="#ffffff" stroke="#000000" points="78,-280.5 78,-299.5 138,-299.5 138,-280.5 78,-280.5"/>
<text text-anchor="middle" x="108" y="-287.5" font-family="Helvetica,sans-Serif" font-size="10.00" fill="#000000">thrmask.h</text>
</a>
</g>
</g>
<!-- Node6&#45;&gt;Node8 -->
<g id="edge3" class="edge">
<title>Node6&#45;&gt;Node8</title>
<path fill="none" stroke="#191970" d="M262.9905,-334.5101C225.9146,-323.8626 171.5847,-308.2602 138.0755,-298.6371"/>
<polygon fill="#191970" stroke="#191970" points="262.381,-337.9765 272.9586,-337.3727 264.3132,-331.2484 262.381,-337.9765"/>
</g>
<!-- Node9 -->
<g id="node5" class="node">
<title>Node9</title>
<g id="a_node5"><a xlink:href="arch_2default-linux_2odp_2api_2abi_2thrmask_8h_source.html" target="_top" xlink:title="thrmask.h">
<polygon fill="#ffffff" stroke="#000000" points="156,-280.5 156,-299.5 216,-299.5 216,-280.5 156,-280.5"/>
<text text-anchor="middle" x="186" y="-287.5" font-family="Helvetica,sans-Serif" font-size="10.00" fill="#000000">thrmask.h</text>
</a>
</g>
</g>
<!-- Node6&#45;&gt;Node9 -->
<g id="edge4" class="edge">
<title>Node6&#45;&gt;Node9</title>
<path fill="none" stroke="#191970" d="M273.6958,-331.9741C252.512,-321.8348 224.4597,-308.408 205.8506,-299.5011"/>
<polygon fill="#191970" stroke="#191970" points="272.3559,-335.2129 282.887,-336.3733 275.378,-328.8989 272.3559,-335.2129"/>
</g>
<!-- Node10 -->
<g id="node6" class="node">
<title>Node10</title>
<g id="a_node6"><a xlink:href="arch_2mips64-linux_2odp_2api_2abi_2thrmask_8h_source.html" target="_top" xlink:title="thrmask.h">
<polygon fill="#ffffff" stroke="#000000" points="234,-280.5 234,-299.5 294,-299.5 294,-280.5 234,-280.5"/>
<text text-anchor="middle" x="264" y="-287.5" font-family="Helvetica,sans-Serif" font-size="10.00" fill="#000000">thrmask.h</text>
</a>
</g>
</g>
<!-- Node6&#45;&gt;Node10 -->
<g id="edge5" class="edge">
<title>Node6&#45;&gt;Node10</title>
<path fill="none" stroke="#191970" d="M290.4092,-327.9209C283.8605,-318.5176 276.1176,-307.3997 270.7154,-299.6427"/>
<polygon fill="#191970" stroke="#191970" points="287.6196,-330.0397 296.2067,-336.2455 293.3639,-326.0392 287.6196,-330.0397"/>
</g>
<!-- Node11 -->
<g id="node7" class="node">
<title>Node11</title>
<g id="a_node7"><a xlink:href="arch_2power64-linux_2odp_2api_2abi_2thrmask_8h_source.html" target="_top" xlink:title="thrmask.h">
<polygon fill="#ffffff" stroke="#000000" points="312,-280.5 312,-299.5 372,-299.5 372,-280.5 312,-280.5"/>
<text text-anchor="middle" x="342" y="-287.5" font-family="Helvetica,sans-Serif" font-size="10.00" fill="#000000">thrmask.h</text>
</a>
</g>
</g>
<!-- Node6&#45;&gt;Node11 -->
<g id="edge6" class="edge">
<title>Node6&#45;&gt;Node11</title>
<path fill="none" stroke="#191970" d="M315.5908,-327.9209C322.1395,-318.5176 329.8824,-307.3997 335.2846,-299.6427"/>
<polygon fill="#191970" stroke="#191970" points="312.6361,-326.0392 309.7933,-336.2455 318.3804,-330.0397 312.6361,-326.0392"/>
</g>
<!-- Node12 -->
<g id="node8" class="node">
<title>Node12</title>
<g id="a_node8"><a xlink:href="arch_2x86__32-linux_2odp_2api_2abi_2thrmask_8h_source.html" target="_top" xlink:title="thrmask.h">
<polygon fill="#ffffff" stroke="#000000" points="390,-280.5 390,-299.5 450,-299.5 450,-280.5 390,-280.5"/>
<text text-anchor="middle" x="420" y="-287.5" font-family="Helvetica,sans-Serif" font-size="10.00" fill="#000000">thrmask.h</text>
</a>
</g>
</g>
<!-- Node6&#45;&gt;Node12 -->
<g id="edge7" class="edge">
<title>Node6&#45;&gt;Node12</title>
<path fill="none" stroke="#191970" d="M332.3042,-331.9741C353.488,-321.8348 381.5403,-308.408 400.1494,-299.5011"/>
<polygon fill="#191970" stroke="#191970" points="330.622,-328.8989 323.113,-336.3733 333.6441,-335.2129 330.622,-328.8989"/>
</g>
<!-- Node13 -->
<g id="node9" class="node">
<title>Node13</title>
<g id="a_node9"><a xlink:href="arch_2x86__64-linux_2odp_2api_2abi_2thrmask_8h_source.html" target="_top" xlink:title="thrmask.h">
<polygon fill="#ffffff" stroke="#000000" points="468,-280.5 468,-299.5 528,-299.5 528,-280.5 468,-280.5"/>
<text text-anchor="middle" x="498" y="-287.5" font-family="Helvetica,sans-Serif" font-size="10.00" fill="#000000">thrmask.h</text>
</a>
</g>
</g>
<!-- Node6&#45;&gt;Node13 -->
<g id="edge8" class="edge">
<title>Node6&#45;&gt;Node13</title>
<path fill="none" stroke="#191970" d="M343.0095,-334.5101C380.0854,-323.8626 434.4153,-308.2602 467.9245,-298.6371"/>
<polygon fill="#191970" stroke="#191970" points="341.6868,-331.2484 333.0414,-337.3727 343.619,-337.9765 341.6868,-331.2484"/>
</g>
<!-- Node14 -->
<g id="node10" class="node">
<title>Node14</title>
<g id="a_node10"><a xlink:href="api_2thrmask_8h.html" target="_top" xlink:title="ODP thread masks. ">
<polygon fill="#ffffff" stroke="#000000" points="468,-224.5 468,-243.5 528,-243.5 528,-224.5 468,-224.5"/>
<text text-anchor="middle" x="498" y="-231.5" font-family="Helvetica,sans-Serif" font-size="10.00" fill="#000000">thrmask.h</text>
</a>
</g>
</g>
<!-- Node13&#45;&gt;Node14 -->
<g id="edge9" class="edge">
<title>Node13&#45;&gt;Node14</title>
<path fill="none" stroke="#191970" d="M498,-270.1575C498,-261.155 498,-250.9199 498,-243.6427"/>
<polygon fill="#191970" stroke="#191970" points="494.5001,-270.2455 498,-280.2455 501.5001,-270.2456 494.5001,-270.2455"/>
</g>
<!-- Node15 -->
<g id="node11" class="node">
<title>Node15</title>
<g id="a_node11"><a xlink:href="api_2spec_2schedule_8h.html" target="_top" xlink:title="ODP schedule. ">
<polygon fill="#ffffff" stroke="#000000" points="426,-168.5 426,-187.5 490,-187.5 490,-168.5 426,-168.5"/>
<text text-anchor="middle" x="458" y="-175.5" font-family="Helvetica,sans-Serif" font-size="10.00" fill="#000000">schedule.h</text>
</a>
</g>
</g>
<!-- Node14&#45;&gt;Node15 -->
<g id="edge10" class="edge">
<title>Node14&#45;&gt;Node15</title>
<path fill="none" stroke="#191970" d="M485.0864,-215.9209C478.3697,-206.5176 470.4283,-195.3997 464.8876,-187.6427"/>
<polygon fill="#191970" stroke="#191970" points="482.372,-218.1425 491.0325,-224.2455 488.0682,-214.0738 482.372,-218.1425"/>
</g>
<!-- Node14&#45;&gt;Node17 -->
<g id="edge14" class="edge">
<title>Node14&#45;&gt;Node17</title>
<path fill="none" stroke="#191970" d="M504.6539,-214.7267C517.05,-178.8207 543.2669,-102.8822 552.607,-75.8279"/>
<polygon fill="#191970" stroke="#191970" points="501.2396,-213.8915 501.2845,-224.4862 507.8563,-216.1759 501.2396,-213.8915"/>
</g>
<!-- Node16 -->
<g id="node12" class="node">
<title>Node16</title>
<g id="a_node12"><a xlink:href="api_2schedule_8h.html" target="_top" xlink:title="ODP schedule. ">
<polygon fill="#ffffff" stroke="#000000" points="426,-112.5 426,-131.5 490,-131.5 490,-112.5 426,-112.5"/>
<text text-anchor="middle" x="458" y="-119.5" font-family="Helvetica,sans-Serif" font-size="10.00" fill="#000000">schedule.h</text>
</a>
</g>
</g>
<!-- Node15&#45;&gt;Node16 -->
<g id="edge11" class="edge">
<title>Node15&#45;&gt;Node16</title>
<path fill="none" stroke="#191970" d="M458,-158.1575C458,-149.155 458,-138.9199 458,-131.6427"/>
<polygon fill="#191970" stroke="#191970" points="454.5001,-158.2455 458,-168.2455 461.5001,-158.2456 454.5001,-158.2455"/>
</g>
<!-- Node16&#45;&gt;Node17 -->
<g id="edge12" class="edge">
<title>Node16&#45;&gt;Node17</title>
<path fill="none" stroke="#191970" d="M484.1686,-107.0465C501.6058,-97.0824 524.0111,-84.2794 539.1253,-75.6427"/>
<polygon fill="#191970" stroke="#191970" points="482.0162,-104.2453 475.0703,-112.2455 485.4892,-110.323 482.0162,-104.2453"/>
</g>
<!-- Node18 -->
<g id="node14" class="node">
<title>Node18</title>
<g id="a_node14"><a xlink:href="odp_8h.html" target="_top" xlink:title="WARNING: THIS FILE IS DEPRECATED AND WILL BE REMOVED!!! ODP APPLICATIONS SHOULD NOW INCLUDE odp_api...">
<polygon fill="#ffffff" stroke="#000000" points="535.5,-.5 535.5,-19.5 576.5,-19.5 576.5,-.5 535.5,-.5"/>
<text text-anchor="middle" x="556" y="-7.5" font-family="Helvetica,sans-Serif" font-size="10.00" fill="#000000">odp.h</text>
</a>
</g>
</g>
<!-- Node17&#45;&gt;Node18 -->
<g id="edge13" class="edge">
<title>Node17&#45;&gt;Node18</title>
<path fill="none" stroke="#191970" d="M556,-46.1575C556,-37.155 556,-26.9199 556,-19.6427"/>
<polygon fill="#191970" stroke="#191970" points="552.5001,-46.2455 556,-56.2455 559.5001,-46.2456 552.5001,-46.2455"/>
</g>
<!-- Node20 -->
<g id="node16" class="node">
<title>Node20</title>
<g id="a_node16"><a xlink:href="api_2init_8h.html" target="_top" xlink:title="ODP initialization. ">
<polygon fill="#ffffff" stroke="#000000" points="584,-224.5 584,-243.5 622,-243.5 622,-224.5 584,-224.5"/>
<text text-anchor="middle" x="603" y="-231.5" font-family="Helvetica,sans-Serif" font-size="10.00" fill="#000000">init.h</text>
</a>
</g>
</g>
<!-- Node19&#45;&gt;Node20 -->
<g id="edge16" class="edge">
<title>Node19&#45;&gt;Node20</title>
<path fill="none" stroke="#191970" d="M603,-326.2702C603,-301.9985 603,-261.7725 603,-243.5249"/>
<polygon fill="#191970" stroke="#191970" points="599.5001,-326.4509 603,-336.4509 606.5001,-326.451 599.5001,-326.4509"/>
</g>
<!-- Node20&#45;&gt;Node17 -->
<g id="edge20" class="edge">
<title>Node20&#45;&gt;Node17</title>
<path fill="none" stroke="#191970" d="M597.9209,-214.4789C591.5957,-190.3463 580.3577,-148.0463 570,-112 566.4036,-99.4839 561.9916,-85.1403 559.0935,-75.8441"/>
<polygon fill="#191970" stroke="#191970" points="594.6197,-215.6897 600.5334,-224.4806 601.3925,-213.9206 594.6197,-215.6897"/>
</g>
<!-- Node21 -->
<g id="node17" class="node">
<title>Node21</title>
<g id="a_node17"><a xlink:href="api_2spec_2shared__memory_8h.html" target="_top" xlink:title="ODP shared memory. ">
<polygon fill="#ffffff" stroke="#000000" points="622.5,-168.5 622.5,-187.5 717.5,-187.5 717.5,-168.5 622.5,-168.5"/>
<text text-anchor="middle" x="670" y="-175.5" font-family="Helvetica,sans-Serif" font-size="10.00" fill="#000000">shared_memory.h</text>
</a>
</g>
</g>
<!-- Node20&#45;&gt;Node21 -->
<g id="edge17" class="edge">
<title>Node20&#45;&gt;Node21</title>
<path fill="none" stroke="#191970" d="M622.5676,-217.645C634.2198,-207.9058 648.6084,-195.8795 658.4632,-187.6427"/>
<polygon fill="#191970" stroke="#191970" points="620.0988,-215.1469 614.6705,-224.2455 624.5879,-220.5179 620.0988,-215.1469"/>
</g>
<!-- Node22 -->
<g id="node18" class="node">
<title>Node22</title>
<g id="a_node18"><a xlink:href="api_2shared__memory_8h.html" target="_top" xlink:title="ODP shared memory. ">
<polygon fill="#ffffff" stroke="#000000" points="622.5,-112.5 622.5,-131.5 717.5,-131.5 717.5,-112.5 622.5,-112.5"/>
<text text-anchor="middle" x="670" y="-119.5" font-family="Helvetica,sans-Serif" font-size="10.00" fill="#000000">shared_memory.h</text>
</a>
</g>
</g>
<!-- Node21&#45;&gt;Node22 -->
<g id="edge18" class="edge">
<title>Node21&#45;&gt;Node22</title>
<path fill="none" stroke="#191970" d="M670,-158.1575C670,-149.155 670,-138.9199 670,-131.6427"/>
<polygon fill="#191970" stroke="#191970" points="666.5001,-158.2455 670,-168.2455 673.5001,-158.2456 666.5001,-158.2455"/>
</g>
<!-- Node22&#45;&gt;Node17 -->
<g id="edge19" class="edge">
<title>Node22&#45;&gt;Node17</title>
<path fill="none" stroke="#191970" d="M641.1679,-107.8368C620.5605,-97.7139 593.3918,-84.3679 575.3416,-75.5011"/>
<polygon fill="#191970" stroke="#191970" points="639.884,-111.1056 650.4027,-112.3733 642.9703,-104.8227 639.884,-111.1056"/>
</g>
</g>
</svg>
