<?xml version="1.0" encoding="UTF-8" standalone="no"?>
<!DOCTYPE svg PUBLIC "-//W3C//DTD SVG 1.1//EN"
 "http://www.w3.org/Graphics/SVG/1.1/DTD/svg11.dtd">
<!-- Generated by graphviz version 2.40.1 (20161225.0304)
 -->
<!-- Title: shared_memory.h Pages: 1 -->
<svg width="1275pt" height="610pt"
 viewBox="0.00 0.00 1275.00 610.00" xmlns="http://www.w3.org/2000/svg" xmlns:xlink="http://www.w3.org/1999/xlink">
<g id="graph0" class="graph" transform="scale(1 1) rotate(0) translate(4 606)">
<title>shared_memory.h</title>
<polygon fill="#ffffff" stroke="transparent" points="-4,4 -4,-606 1271,-606 1271,4 -4,4"/>
<!-- Node0 -->
<g id="node1" class="node">
<title>Node0</title>
<polygon fill="#bfbfbf" stroke="#000000" points="305.5,-582.5 305.5,-601.5 400.5,-601.5 400.5,-582.5 305.5,-582.5"/>
<text text-anchor="middle" x="353" y="-589.5" font-family="Helvetica,sans-Serif" font-size="10.00" fill="#000000">shared_memory.h</text>
</g>
<!-- Node1 -->
<g id="node2" class="node">
<title>Node1</title>
<polygon fill="#ffffff" stroke="#bfbfbf" points="246,-515.5 246,-545.5 342,-545.5 342,-515.5 246,-515.5"/>
<text text-anchor="start" x="254" y="-533.5" font-family="Helvetica,sans-Serif" font-size="10.00" fill="#000000">odp/api/abi/shared</text>
<text text-anchor="middle" x="294" y="-522.5" font-family="Helvetica,sans-Serif" font-size="10.00" fill="#000000">_memory.h</text>
</g>
<!-- Node0&#45;&gt;Node1 -->
<g id="edge1" class="edge">
<title>Node0&#45;&gt;Node1</title>
<path fill="none" stroke="#191970" d="M343.7813,-582.3906C336.2399,-574.5298 325.2713,-563.0964 315.5482,-552.9612"/>
<polygon fill="#191970" stroke="#191970" points="317.8816,-550.3378 308.433,-545.5446 312.8302,-555.1839 317.8816,-550.3378"/>
</g>
<!-- Node2 -->
<g id="node3" class="node">
<title>Node2</title>
<g id="a_node3"><a xlink:href="api_2spec_2shared__memory_8h.html" target="_top" xlink:title="ODP shared memory. ">
<polygon fill="#ffffff" stroke="#000000" points="360,-515.5 360,-545.5 464,-545.5 464,-515.5 360,-515.5"/>
<text text-anchor="start" x="368" y="-533.5" font-family="Helvetica,sans-Serif" font-size="10.00" fill="#000000">odp/api/spec/shared</text>
<text text-anchor="middle" x="412" y="-522.5" font-family="Helvetica,sans-Serif" font-size="10.00" fill="#000000">_memory.h</text>
</a>
</g>
</g>
<!-- Node0&#45;&gt;Node2 -->
<g id="edge2" class="edge">
<title>Node0&#45;&gt;Node2</title>
<path fill="none" stroke="#191970" d="M362.2188,-582.3906C369.7601,-574.5298 380.7287,-563.0964 390.4518,-552.9612"/>
<polygon fill="#191970" stroke="#191970" points="393.1698,-555.1839 397.567,-545.5446 388.1184,-550.3378 393.1698,-555.1839"/>
</g>
<!-- Node3 -->
<g id="node4" class="node">
<title>Node3</title>
<g id="a_node4"><a xlink:href="visibility__begin_8h_source.html" target="_top" xlink:title="odp/visibility_begin.h">
<polygon fill="#ffffff" stroke="#000000" points="316.5,-.5 316.5,-19.5 423.5,-19.5 423.5,-.5 316.5,-.5"/>
<text text-anchor="middle" x="370" y="-7.5" font-family="Helvetica,sans-Serif" font-size="10.00" fill="#000000">odp/visibility_begin.h</text>
</a>
</g>
</g>
<!-- Node2&#45;&gt;Node3 -->
<g id="edge3" class="edge">
<title>Node2&#45;&gt;Node3</title>
<path fill="none" stroke="#191970" d="M359.8199,-516.9944C248.9565,-488.1205 0,-422.251 0,-413 0,-413 0,-413 0,-133 0,-95.4083 4.8549,-78.4591 35,-56 76.7316,-24.9086 221.3355,-14.8191 306.3076,-11.554"/>
<polygon fill="#191970" stroke="#191970" points="306.4972,-15.0496 316.3636,-11.1887 306.2431,-8.0542 306.4972,-15.0496"/>
</g>
<!-- Node4 -->
<g id="node5" class="node">
<title>Node4</title>
<g id="a_node5"><a xlink:href="api_2init_8h.html" target="_top" xlink:title="ODP initialization. ">
<polygon fill="#ffffff" stroke="#000000" points="376,-459.5 376,-478.5 448,-478.5 448,-459.5 376,-459.5"/>
<text text-anchor="middle" x="412" y="-466.5" font-family="Helvetica,sans-Serif" font-size="10.00" fill="#000000">odp/api/init.h</text>
</a>
</g>
</g>
<!-- Node2&#45;&gt;Node4 -->
<g id="edge4" class="edge">
<title>Node2&#45;&gt;Node4</title>
<path fill="none" stroke="#191970" d="M412,-515.2977C412,-507.3834 412,-497.6043 412,-489.0759"/>
<polygon fill="#191970" stroke="#191970" points="415.5001,-488.8469 412,-478.8469 408.5001,-488.847 415.5001,-488.8469"/>
</g>
<!-- Node14 -->
<g id="node15" class="node">
<title>Node14</title>
<g id="a_node15"><a xlink:href="visibility__end_8h_source.html" target="_top" xlink:title="odp/visibility_end.h">
<polygon fill="#ffffff" stroke="#000000" points="941,-.5 941,-19.5 1041,-19.5 1041,-.5 941,-.5"/>
<text text-anchor="middle" x="991" y="-7.5" font-family="Helvetica,sans-Serif" font-size="10.00" fill="#000000">odp/visibility_end.h</text>
</a>
</g>
</g>
<!-- Node2&#45;&gt;Node14 -->
<g id="edge40" class="edge">
<title>Node2&#45;&gt;Node14</title>
<path fill="none" stroke="#191970" d="M464.197,-528.8547C649.8301,-522.3208 1267,-494.4715 1267,-413 1267,-413 1267,-413 1267,-133 1267,-90.9442 1247.2269,-78.973 1212,-56 1185.964,-39.0208 1107.3409,-25.4218 1051.297,-17.5331"/>
<polygon fill="#191970" stroke="#191970" points="1051.4976,-14.0277 1041.1129,-16.1271 1050.5402,-20.9619 1051.4976,-14.0277"/>
</g>
<!-- Node5 -->
<g id="node6" class="node">
<title>Node5</title>
<polygon fill="#ffffff" stroke="#bfbfbf" points="423,-403.5 423,-422.5 511,-422.5 511,-403.5 423,-403.5"/>
<text text-anchor="middle" x="467" y="-410.5" font-family="Helvetica,sans-Serif" font-size="10.00" fill="#000000">odp/api/abi/init.h</text>
</g>
<!-- Node4&#45;&gt;Node5 -->
<g id="edge5" class="edge">
<title>Node4&#45;&gt;Node5</title>
<path fill="none" stroke="#191970" d="M421.5803,-459.2455C429.5458,-451.1352 441.0641,-439.4075 450.5079,-429.7919"/>
<polygon fill="#191970" stroke="#191970" points="453.0195,-432.2297 457.5295,-422.6427 448.0253,-427.3247 453.0195,-432.2297"/>
</g>
<!-- Node6 -->
<g id="node7" class="node">
<title>Node6</title>
<g id="a_node7"><a xlink:href="api_2spec_2init_8h.html" target="_top" xlink:title="odp/api/spec/init.h">
<polygon fill="#ffffff" stroke="#000000" points="309,-403.5 309,-422.5 405,-422.5 405,-403.5 309,-403.5"/>
<text text-anchor="middle" x="357" y="-410.5" font-family="Helvetica,sans-Serif" font-size="10.00" fill="#000000">odp/api/spec/init.h</text>
</a>
</g>
</g>
<!-- Node4&#45;&gt;Node6 -->
<g id="edge6" class="edge">
<title>Node4&#45;&gt;Node6</title>
<path fill="none" stroke="#191970" d="M402.4197,-459.2455C394.4542,-451.1352 382.9359,-439.4075 373.4921,-429.7919"/>
<polygon fill="#191970" stroke="#191970" points="375.9747,-427.3247 366.4705,-422.6427 370.9805,-432.2297 375.9747,-427.3247"/>
</g>
<!-- Node6&#45;&gt;Node3 -->
<g id="edge7" class="edge">
<title>Node6&#45;&gt;Node3</title>
<path fill="none" stroke="#191970" d="M308.8971,-406.334C219.7815,-392.6267 38,-357.7152 38,-301 38,-301 38,-301 38,-133 38,-97.7513 30.9082,-79.6999 57,-56 75.1421,-39.521 220.1494,-23.659 306.2906,-15.5647"/>
<polygon fill="#191970" stroke="#191970" points="306.8581,-19.0272 316.4913,-14.6166 306.2103,-12.0572 306.8581,-19.0272"/>
</g>
<!-- Node7 -->
<g id="node8" class="node">
<title>Node7</title>
<g id="a_node8"><a xlink:href="api_2std__types_8h.html" target="_top" xlink:title="Standard C language types and definitions for ODP. ">
<polygon fill="#ffffff" stroke="#000000" points="221,-235.5 221,-254.5 323,-254.5 323,-235.5 221,-235.5"/>
<text text-anchor="middle" x="272" y="-242.5" font-family="Helvetica,sans-Serif" font-size="10.00" fill="#000000">odp/api/std_types.h</text>
</a>
</g>
</g>
<!-- Node6&#45;&gt;Node7 -->
<g id="edge8" class="edge">
<title>Node6&#45;&gt;Node7</title>
<path fill="none" stroke="#191970" d="M341.2554,-403.187C329.3101,-394.9439 313.3923,-382.1065 304,-367 283.9475,-334.7478 276.378,-290.1996 273.5812,-264.8197"/>
<polygon fill="#191970" stroke="#191970" points="277.0419,-264.2413 272.6043,-254.6206 270.0738,-264.9087 277.0419,-264.2413"/>
</g>
<!-- Node6&#45;&gt;Node14 -->
<g id="edge39" class="edge">
<title>Node6&#45;&gt;Node14</title>
<path fill="none" stroke="#191970" d="M405.1514,-404.2056C408.1411,-403.7672 411.1087,-403.3602 414,-403 504.5618,-391.7164 1229,-392.262 1229,-301 1229,-301 1229,-301 1229,-133 1229,-53.0933 1121.8117,-25.0412 1051.3026,-15.2325"/>
<polygon fill="#191970" stroke="#191970" points="1051.5513,-11.7354 1041.1829,-13.9137 1050.6467,-18.6767 1051.5513,-11.7354"/>
</g>
<!-- Node15 -->
<g id="node16" class="node">
<title>Node15</title>
<g id="a_node16"><a xlink:href="hints_8h.html" target="_top" xlink:title="ODP compiler hints. ">
<polygon fill="#ffffff" stroke="#000000" points="633,-347.5 633,-366.5 713,-366.5 713,-347.5 633,-347.5"/>
<text text-anchor="middle" x="673" y="-354.5" font-family="Helvetica,sans-Serif" font-size="10.00" fill="#000000">odp/api/hints.h</text>
</a>
</g>
</g>
<!-- Node6&#45;&gt;Node15 -->
<g id="edge19" class="edge">
<title>Node6&#45;&gt;Node15</title>
<path fill="none" stroke="#191970" d="M405.3376,-404.4338C464.1751,-394.0069 563.0478,-376.4852 622.7413,-365.9066"/>
<polygon fill="#191970" stroke="#191970" points="623.4568,-369.3344 632.6926,-364.1431 622.2352,-362.4418 623.4568,-369.3344"/>
</g>
<!-- Node17 -->
<g id="node18" class="node">
<title>Node17</title>
<g id="a_node18"><a xlink:href="feature_8h.html" target="_top" xlink:title="ODP features. ">
<polygon fill="#ffffff" stroke="#000000" points="312.5,-347.5 312.5,-366.5 401.5,-366.5 401.5,-347.5 312.5,-347.5"/>
<text text-anchor="middle" x="357" y="-354.5" font-family="Helvetica,sans-Serif" font-size="10.00" fill="#000000">odp/api/feature.h</text>
</a>
</g>
</g>
<!-- Node6&#45;&gt;Node17 -->
<g id="edge23" class="edge">
<title>Node6&#45;&gt;Node17</title>
<path fill="none" stroke="#191970" d="M357,-403.2455C357,-395.9382 357,-385.6944 357,-376.7046"/>
<polygon fill="#191970" stroke="#191970" points="360.5001,-376.6426 357,-366.6427 353.5001,-376.6427 360.5001,-376.6426"/>
</g>
<!-- Node19 -->
<g id="node20" class="node">
<title>Node19</title>
<g id="a_node20"><a xlink:href="api_2thread_8h.html" target="_top" xlink:title="ODP thread API. ">
<polygon fill="#ffffff" stroke="#000000" points="911,-123.5 911,-142.5 997,-142.5 997,-123.5 911,-123.5"/>
<text text-anchor="middle" x="954" y="-130.5" font-family="Helvetica,sans-Serif" font-size="10.00" fill="#000000">odp/api/thread.h</text>
</a>
</g>
</g>
<!-- Node6&#45;&gt;Node19 -->
<g id="edge28" class="edge">
<title>Node6&#45;&gt;Node19</title>
<path fill="none" stroke="#191970" d="M405.1708,-404.349C408.1556,-403.875 411.117,-403.421 414,-403 531.1691,-385.8888 937,-419.4119 937,-301 937,-301 937,-301 937,-245 937,-212.192 944.2185,-174.584 949.248,-152.3624"/>
<polygon fill="#191970" stroke="#191970" points="952.6816,-153.0502 951.5643,-142.5144 945.8676,-151.4474 952.6816,-153.0502"/>
</g>
<!-- Node23 -->
<g id="node24" class="node">
<title>Node23</title>
<g id="a_node24"><a xlink:href="api_2cpumask_8h.html" target="_top" xlink:title="ODP CPU masks and enumeration. ">
<polygon fill="#ffffff" stroke="#000000" points="127.5,-123.5 127.5,-142.5 226.5,-142.5 226.5,-123.5 127.5,-123.5"/>
<text text-anchor="middle" x="177" y="-130.5" font-family="Helvetica,sans-Serif" font-size="10.00" fill="#000000">odp/api/cpumask.h</text>
</a>
</g>
</g>
<!-- Node6&#45;&gt;Node23 -->
<g id="edge34" class="edge">
<title>Node6&#45;&gt;Node23</title>
<path fill="none" stroke="#191970" d="M308.7633,-404.5377C255.4451,-392.0878 177,-363.2014 177,-301 177,-301 177,-301 177,-245 177,-212.7116 177,-175.1872 177,-152.8048"/>
<polygon fill="#191970" stroke="#191970" points="180.5001,-152.5883 177,-142.5884 173.5001,-152.5884 180.5001,-152.5883"/>
</g>
<!-- Node8 -->
<g id="node9" class="node">
<title>Node8</title>
<polygon fill="#ffffff" stroke="#bfbfbf" points="205,-179.5 205,-198.5 323,-198.5 323,-179.5 205,-179.5"/>
<text text-anchor="middle" x="264" y="-186.5" font-family="Helvetica,sans-Serif" font-size="10.00" fill="#000000">odp/api/abi/std_types.h</text>
</g>
<!-- Node7&#45;&gt;Node8 -->
<g id="edge9" class="edge">
<title>Node7&#45;&gt;Node8</title>
<path fill="none" stroke="#191970" d="M270.6065,-235.2455C269.5626,-227.9382 268.0992,-217.6944 266.8149,-208.7046"/>
<polygon fill="#191970" stroke="#191970" points="270.2566,-208.0472 265.3775,-198.6427 263.327,-209.0372 270.2566,-208.0472"/>
</g>
<!-- Node9 -->
<g id="node10" class="node">
<title>Node9</title>
<g id="a_node10"><a xlink:href="api_2spec_2std__types_8h.html" target="_top" xlink:title="Standard C language types and definitions for ODP. ">
<polygon fill="#ffffff" stroke="#000000" points="379,-179.5 379,-198.5 505,-198.5 505,-179.5 379,-179.5"/>
<text text-anchor="middle" x="442" y="-186.5" font-family="Helvetica,sans-Serif" font-size="10.00" fill="#000000">odp/api/spec/std_types.h</text>
</a>
</g>
</g>
<!-- Node7&#45;&gt;Node9 -->
<g id="edge10" class="edge">
<title>Node7&#45;&gt;Node9</title>
<path fill="none" stroke="#191970" d="M301.224,-235.3733C329.4925,-226.0613 372.4965,-211.8953 403.5344,-201.671"/>
<polygon fill="#191970" stroke="#191970" points="404.7544,-204.9542 413.1573,-198.5011 402.5643,-198.3056 404.7544,-204.9542"/>
</g>
<!-- Node9&#45;&gt;Node3 -->
<g id="edge11" class="edge">
<title>Node9&#45;&gt;Node3</title>
<path fill="none" stroke="#191970" d="M433.6182,-179.3906C426.2292,-170.4873 415.635,-156.6043 409,-143 390.4487,-104.9628 378.9799,-56.4156 373.618,-29.7523"/>
<polygon fill="#191970" stroke="#191970" points="377.0213,-28.9159 371.6911,-19.7595 370.1479,-30.2414 377.0213,-28.9159"/>
</g>
<!-- Node10 -->
<g id="node11" class="node">
<title>Node10</title>
<polygon fill="#ffffff" stroke="#bfbfbf" points="417.5,-123.5 417.5,-142.5 466.5,-142.5 466.5,-123.5 417.5,-123.5"/>
<text text-anchor="middle" x="442" y="-130.5" font-family="Helvetica,sans-Serif" font-size="10.00" fill="#000000">stdint.h</text>
</g>
<!-- Node9&#45;&gt;Node10 -->
<g id="edge12" class="edge">
<title>Node9&#45;&gt;Node10</title>
<path fill="none" stroke="#191970" d="M442,-179.2455C442,-171.9382 442,-161.6944 442,-152.7046"/>
<polygon fill="#191970" stroke="#191970" points="445.5001,-152.6426 442,-142.6427 438.5001,-152.6427 445.5001,-152.6426"/>
</g>
<!-- Node11 -->
<g id="node12" class="node">
<title>Node11</title>
<g id="a_node12"><a xlink:href="api_2align_8h.html" target="_top" xlink:title="ODP alignments. ">
<polygon fill="#ffffff" stroke="#000000" points="485,-123.5 485,-142.5 565,-142.5 565,-123.5 485,-123.5"/>
<text text-anchor="middle" x="525" y="-130.5" font-family="Helvetica,sans-Serif" font-size="10.00" fill="#000000">odp/api/align.h</text>
</a>
</g>
</g>
<!-- Node9&#45;&gt;Node11 -->
<g id="edge13" class="edge">
<title>Node9&#45;&gt;Node11</title>
<path fill="none" stroke="#191970" d="M456.4575,-179.2455C469.0732,-170.7337 487.5944,-158.2375 502.2045,-148.3801"/>
<polygon fill="#191970" stroke="#191970" points="504.3761,-151.1371 510.7082,-142.6427 500.4609,-145.3343 504.3761,-151.1371"/>
</g>
<!-- Node9&#45;&gt;Node14 -->
<g id="edge18" class="edge">
<title>Node9&#45;&gt;Node14</title>
<path fill="none" stroke="#191970" d="M505.0369,-186.4815C631.6322,-180.9938 912.6425,-166.5296 1006,-143 1066.2121,-127.8243 1100.0123,-138.9677 1134,-87 1157.9682,-50.3522 1100.2298,-29.8314 1051.0976,-19.358"/>
<polygon fill="#191970" stroke="#191970" points="1051.5904,-15.8869 1041.095,-17.3344 1050.2024,-22.7479 1051.5904,-15.8869"/>
</g>
<!-- Node12 -->
<g id="node13" class="node">
<title>Node12</title>
<polygon fill="#ffffff" stroke="#bfbfbf" points="417.5,-62 417.5,-81 512.5,-81 512.5,-62 417.5,-62"/>
<text text-anchor="middle" x="465" y="-69" font-family="Helvetica,sans-Serif" font-size="10.00" fill="#000000">odp/api/abi/align.h</text>
</g>
<!-- Node11&#45;&gt;Node12 -->
<g id="edge14" class="edge">
<title>Node11&#45;&gt;Node12</title>
<path fill="none" stroke="#191970" d="M515.625,-123.3906C506.5201,-114.0581 492.5026,-99.6902 481.5243,-88.4374"/>
<polygon fill="#191970" stroke="#191970" points="483.9957,-85.9586 474.5072,-81.2449 478.9852,-90.8468 483.9957,-85.9586"/>
</g>
<!-- Node13 -->
<g id="node14" class="node">
<title>Node13</title>
<g id="a_node14"><a xlink:href="api_2spec_2align_8h.html" target="_top" xlink:title="ODP alignments. ">
<polygon fill="#ffffff" stroke="#000000" points="531,-62 531,-81 635,-81 635,-62 531,-62"/>
<text text-anchor="middle" x="583" y="-69" font-family="Helvetica,sans-Serif" font-size="10.00" fill="#000000">odp/api/spec/align.h</text>
</a>
</g>
</g>
<!-- Node11&#45;&gt;Node13 -->
<g id="edge15" class="edge">
<title>Node11&#45;&gt;Node13</title>
<path fill="none" stroke="#191970" d="M534.0625,-123.3906C542.7793,-114.1478 556.154,-99.966 566.7196,-88.7628"/>
<polygon fill="#191970" stroke="#191970" points="569.495,-90.9213 573.8097,-81.2449 564.4024,-86.1186 569.495,-90.9213"/>
</g>
<!-- Node13&#45;&gt;Node3 -->
<g id="edge16" class="edge">
<title>Node13&#45;&gt;Node3</title>
<path fill="none" stroke="#191970" d="M549.7188,-61.8906C512.8295,-51.2395 453.2243,-34.0296 412.8675,-22.3772"/>
<polygon fill="#191970" stroke="#191970" points="413.626,-18.9533 403.0475,-19.5419 411.6842,-25.6786 413.626,-18.9533"/>
</g>
<!-- Node13&#45;&gt;Node14 -->
<g id="edge17" class="edge">
<title>Node13&#45;&gt;Node14</title>
<path fill="none" stroke="#191970" d="M617.6807,-61.9397C626.2405,-59.7874 635.4164,-57.6536 644,-56 743.7542,-36.7828 861.1938,-23.0484 930.6853,-15.8307"/>
<polygon fill="#191970" stroke="#191970" points="931.4095,-19.2748 940.9993,-14.7708 930.6939,-12.3115 931.4095,-19.2748"/>
</g>
<!-- Node16 -->
<g id="node17" class="node">
<title>Node16</title>
<g id="a_node17"><a xlink:href="spec_2hints_8h.html" target="_top" xlink:title="ODP compiler hints. ">
<polygon fill="#ffffff" stroke="#000000" points="653,-62 653,-81 757,-81 757,-62 653,-62"/>
<text text-anchor="middle" x="705" y="-69" font-family="Helvetica,sans-Serif" font-size="10.00" fill="#000000">odp/api/spec/hints.h</text>
</a>
</g>
</g>
<!-- Node15&#45;&gt;Node16 -->
<g id="edge20" class="edge">
<title>Node15&#45;&gt;Node16</title>
<path fill="none" stroke="#191970" d="M713.4901,-353.447C774.5137,-345.625 883,-321.0278 883,-245 883,-245 883,-245 883,-189 883,-154.4743 788.548,-107.8997 737.2498,-85.1504"/>
<polygon fill="#191970" stroke="#191970" points="738.4702,-81.864 727.906,-81.0584 735.662,-88.276 738.4702,-81.864"/>
</g>
<!-- Node16&#45;&gt;Node3 -->
<g id="edge21" class="edge">
<title>Node16&#45;&gt;Node3</title>
<path fill="none" stroke="#191970" d="M669.634,-61.9876C661.2606,-59.8816 652.3399,-57.7565 644,-56 572.3501,-40.9094 489.3296,-27.541 433.617,-19.1585"/>
<polygon fill="#191970" stroke="#191970" points="433.9486,-15.6692 423.5409,-17.652 432.9134,-22.5923 433.9486,-15.6692"/>
</g>
<!-- Node16&#45;&gt;Node14 -->
<g id="edge22" class="edge">
<title>Node16&#45;&gt;Node14</title>
<path fill="none" stroke="#191970" d="M741.3812,-61.9566C749.4687,-59.9186 758.0119,-57.8304 766,-56 821.6413,-43.2505 885.4211,-30.3739 930.8328,-21.5002"/>
<polygon fill="#191970" stroke="#191970" points="931.6631,-24.9043 940.8097,-19.5573 930.325,-18.0334 931.6631,-24.9043"/>
</g>
<!-- Node18 -->
<g id="node19" class="node">
<title>Node18</title>
<g id="a_node19"><a xlink:href="spec_2feature_8h.html" target="_top" xlink:title="ODP features. ">
<polygon fill="#ffffff" stroke="#000000" points="300.5,-291.5 300.5,-310.5 413.5,-310.5 413.5,-291.5 300.5,-291.5"/>
<text text-anchor="middle" x="357" y="-298.5" font-family="Helvetica,sans-Serif" font-size="10.00" fill="#000000">odp/api/spec/feature.h</text>
</a>
</g>
</g>
<!-- Node17&#45;&gt;Node18 -->
<g id="edge24" class="edge">
<title>Node17&#45;&gt;Node18</title>
<path fill="none" stroke="#191970" d="M357,-347.2455C357,-339.9382 357,-329.6944 357,-320.7046"/>
<polygon fill="#191970" stroke="#191970" points="360.5001,-320.6426 357,-310.6427 353.5001,-320.6427 360.5001,-320.6426"/>
</g>
<!-- Node18&#45;&gt;Node3 -->
<g id="edge25" class="edge">
<title>Node18&#45;&gt;Node3</title>
<path fill="none" stroke="#191970" d="M356.1403,-291.4209C354.4813,-272.0797 351,-226.971 351,-189 351,-189 351,-189 351,-133 351,-96.253 359.3851,-54.0469 365.0146,-29.8522"/>
<polygon fill="#191970" stroke="#191970" points="368.4954,-30.3473 367.4376,-19.8054 361.6905,-28.7061 368.4954,-30.3473"/>
</g>
<!-- Node18&#45;&gt;Node7 -->
<g id="edge26" class="edge">
<title>Node18&#45;&gt;Node7</title>
<path fill="none" stroke="#191970" d="M342.1941,-291.2455C329.2744,-282.7337 310.3069,-270.2375 295.3448,-260.3801"/>
<polygon fill="#191970" stroke="#191970" points="296.9124,-257.2216 286.6362,-254.6427 293.0613,-263.067 296.9124,-257.2216"/>
</g>
<!-- Node18&#45;&gt;Node14 -->
<g id="edge27" class="edge">
<title>Node18&#45;&gt;Node14</title>
<path fill="none" stroke="#191970" d="M413.7383,-295.8959C583.1584,-279.2264 1078.0847,-219.6466 1150,-87 1173.3948,-43.8487 1105.3993,-24.5569 1051.1361,-16.1571"/>
<polygon fill="#191970" stroke="#191970" points="1051.5883,-12.6861 1041.189,-14.7121 1050.5819,-19.6134 1051.5883,-12.6861"/>
</g>
<!-- Node20 -->
<g id="node21" class="node">
<title>Node20</title>
<g id="a_node21"><a xlink:href="thread__types_8h.html" target="_top" xlink:title="ODP thread API types. ">
<polygon fill="#ffffff" stroke="#000000" points="903,-56.5 903,-86.5 1005,-86.5 1005,-56.5 903,-56.5"/>
<text text-anchor="start" x="911" y="-74.5" font-family="Helvetica,sans-Serif" font-size="10.00" fill="#000000">odp/api/spec/thread</text>
<text text-anchor="middle" x="954" y="-63.5" font-family="Helvetica,sans-Serif" font-size="10.00" fill="#000000">_types.h</text>
</a>
</g>
</g>
<!-- Node19&#45;&gt;Node20 -->
<g id="edge29" class="edge">
<title>Node19&#45;&gt;Node20</title>
<path fill="none" stroke="#191970" d="M954,-123.3906C954,-116.2234 954,-106.0862 954,-96.671"/>
<polygon fill="#191970" stroke="#191970" points="957.5001,-96.5446 954,-86.5446 950.5001,-96.5446 957.5001,-96.5446"/>
</g>
<!-- Node21 -->
<g id="node22" class="node">
<title>Node21</title>
<polygon fill="#ffffff" stroke="#bfbfbf" points="1023,-62 1023,-81 1125,-81 1125,-62 1023,-62"/>
<text text-anchor="middle" x="1074" y="-69" font-family="Helvetica,sans-Serif" font-size="10.00" fill="#000000">odp/api/abi/thread.h</text>
</g>
<!-- Node19&#45;&gt;Node21 -->
<g id="edge30" class="edge">
<title>Node19&#45;&gt;Node21</title>
<path fill="none" stroke="#191970" d="M972.75,-123.3906C992.476,-113.2811 1023.7312,-97.2628 1046.3,-85.6962"/>
<polygon fill="#191970" stroke="#191970" points="1048.0787,-88.7176 1055.3817,-81.0419 1044.886,-82.4881 1048.0787,-88.7176"/>
</g>
<!-- Node22 -->
<g id="node23" class="node">
<title>Node22</title>
<g id="a_node23"><a xlink:href="api_2spec_2thread_8h.html" target="_top" xlink:title="ODP thread API. ">
<polygon fill="#ffffff" stroke="#000000" points="775,-62 775,-81 885,-81 885,-62 775,-62"/>
<text text-anchor="middle" x="830" y="-69" font-family="Helvetica,sans-Serif" font-size="10.00" fill="#000000">odp/api/spec/thread.h</text>
</a>
</g>
</g>
<!-- Node19&#45;&gt;Node22 -->
<g id="edge31" class="edge">
<title>Node19&#45;&gt;Node22</title>
<path fill="none" stroke="#191970" d="M934.625,-123.3906C914.1505,-113.2359 881.6558,-97.1196 858.3115,-85.5416"/>
<polygon fill="#191970" stroke="#191970" points="859.7528,-82.3496 849.2389,-81.0419 856.6425,-88.6207 859.7528,-82.3496"/>
</g>
<!-- Node22&#45;&gt;Node3 -->
<g id="edge32" class="edge">
<title>Node22&#45;&gt;Node3</title>
<path fill="none" stroke="#191970" d="M793.947,-61.9543C784.8707,-59.7763 775.1161,-57.6271 766,-56 649.7671,-35.2539 512.599,-21.7307 434.0099,-15.0164"/>
<polygon fill="#191970" stroke="#191970" points="434.045,-11.507 423.7859,-14.1532 433.456,-18.4822 434.045,-11.507"/>
</g>
<!-- Node22&#45;&gt;Node14 -->
<g id="edge33" class="edge">
<title>Node22&#45;&gt;Node14</title>
<path fill="none" stroke="#191970" d="M855.1563,-61.8906C882.449,-51.4652 926.192,-34.7559 956.6397,-23.1252"/>
<polygon fill="#191970" stroke="#191970" points="957.9277,-26.3799 966.0204,-19.5419 955.4298,-19.8408 957.9277,-26.3799"/>
</g>
<!-- Node24 -->
<g id="node25" class="node">
<title>Node24</title>
<polygon fill="#ffffff" stroke="#bfbfbf" points="66.5,-62 66.5,-81 181.5,-81 181.5,-62 66.5,-62"/>
<text text-anchor="middle" x="124" y="-69" font-family="Helvetica,sans-Serif" font-size="10.00" fill="#000000">odp/api/abi/cpumask.h</text>
</g>
<!-- Node23&#45;&gt;Node24 -->
<g id="edge35" class="edge">
<title>Node23&#45;&gt;Node24</title>
<path fill="none" stroke="#191970" d="M168.7188,-123.3906C160.8307,-114.2376 148.7686,-100.2409 139.1588,-89.09"/>
<polygon fill="#191970" stroke="#191970" points="141.5775,-86.5352 132.398,-81.2449 136.2749,-91.1049 141.5775,-86.5352"/>
</g>
<!-- Node25 -->
<g id="node26" class="node">
<title>Node25</title>
<g id="a_node26"><a xlink:href="api_2spec_2cpumask_8h.html" target="_top" xlink:title="ODP CPU masks and enumeration. ">
<polygon fill="#ffffff" stroke="#000000" points="199.5,-62 199.5,-81 322.5,-81 322.5,-62 199.5,-62"/>
<text text-anchor="middle" x="261" y="-69" font-family="Helvetica,sans-Serif" font-size="10.00" fill="#000000">odp/api/spec/cpumask.h</text>
</a>
</g>
</g>
<!-- Node23&#45;&gt;Node25 -->
<g id="edge36" class="edge">
<title>Node23&#45;&gt;Node25</title>
<path fill="none" stroke="#191970" d="M190.125,-123.3906C203.44,-113.6421 224.2594,-98.3994 239.8947,-86.9521"/>
<polygon fill="#191970" stroke="#191970" points="241.9661,-89.7734 247.9672,-81.0419 237.8309,-84.1253 241.9661,-89.7734"/>
</g>
<!-- Node25&#45;&gt;Node3 -->
<g id="edge37" class="edge">
<title>Node25&#45;&gt;Node3</title>
<path fill="none" stroke="#191970" d="M278.0313,-61.8906C295.789,-51.8713 323.833,-36.0483 344.2882,-24.5071"/>
<polygon fill="#191970" stroke="#191970" points="346.0989,-27.5042 353.0883,-19.5419 342.6591,-21.4077 346.0989,-27.5042"/>
</g>
<!-- Node25&#45;&gt;Node14 -->
<g id="edge38" class="edge">
<title>Node25&#45;&gt;Node14</title>
<path fill="none" stroke="#191970" d="M322.5318,-64.7015C349.111,-61.8566 380.5721,-58.6116 409,-56 599.23,-38.5238 824.8162,-21.8471 930.5882,-14.2653"/>
<polygon fill="#191970" stroke="#191970" points="931.0256,-17.7431 940.7504,-13.5385 930.5261,-10.7609 931.0256,-17.7431"/>
</g>
</g>
</svg>
