<?xml version="1.0" encoding="UTF-8" standalone="no"?>
<!DOCTYPE svg PUBLIC "-//W3C//DTD SVG 1.1//EN"
 "http://www.w3.org/Graphics/SVG/1.1/DTD/svg11.dtd">
<!-- Generated by graphviz version 2.40.1 (20161225.0304)
 -->
<!-- Title: schedule_types.h Pages: 1 -->
<svg width="443pt" height="644pt"
 viewBox="0.00 0.00 442.59 644.00" xmlns="http://www.w3.org/2000/svg" xmlns:xlink="http://www.w3.org/1999/xlink">
<g id="graph0" class="graph" transform="scale(1 1) rotate(0) translate(4 640)">
<title>schedule_types.h</title>
<polygon fill="#ffffff" stroke="transparent" points="-4,4 -4,-640 438.589,-640 438.589,4 -4,4"/>
<!-- Node7 -->
<g id="node1" class="node">
<title>Node7</title>
<polygon fill="#bfbfbf" stroke="#000000" points="322.089,-616.5 322.089,-635.5 415.089,-635.5 415.089,-616.5 322.089,-616.5"/>
<text text-anchor="middle" x="368.589" y="-623.5" font-family="Helvetica,sans-Serif" font-size="10.00" fill="#000000">schedule_types.h</text>
</g>
<!-- Node8 -->
<g id="node2" class="node">
<title>Node8</title>
<g id="a_node2"><a xlink:href="queue__types_8h.html" target="_top" xlink:title="ODP queue types. ">
<polygon fill="#ffffff" stroke="#000000" points="294.589,-560.5 294.589,-579.5 374.589,-579.5 374.589,-560.5 294.589,-560.5"/>
<text text-anchor="middle" x="334.589" y="-567.5" font-family="Helvetica,sans-Serif" font-size="10.00" fill="#000000">queue_types.h</text>
</a>
</g>
</g>
<!-- Node7&#45;&gt;Node8 -->
<g id="edge1" class="edge">
<title>Node7&#45;&gt;Node8</title>
<path fill="none" stroke="#191970" d="M357.4355,-607.6296C351.7642,-598.2887 345.1045,-587.3197 340.4434,-579.6427"/>
<polygon fill="#191970" stroke="#191970" points="354.485,-609.5141 362.6666,-616.2455 360.4685,-605.8812 354.485,-609.5141"/>
</g>
<!-- Node22 -->
<g id="node16" class="node">
<title>Node22</title>
<g id="a_node16"><a xlink:href="api_2spec_2schedule_8h.html" target="_top" xlink:title="ODP schedule. ">
<polygon fill="#ffffff" stroke="#000000" points="370.589,-392.5 370.589,-411.5 434.589,-411.5 434.589,-392.5 370.589,-392.5"/>
<text text-anchor="middle" x="402.589" y="-399.5" font-family="Helvetica,sans-Serif" font-size="10.00" fill="#000000">schedule.h</text>
</a>
</g>
</g>
<!-- Node7&#45;&gt;Node22 -->
<g id="edge26" class="edge">
<title>Node7&#45;&gt;Node22</title>
<path fill="none" stroke="#191970" d="M375.893,-606.6537C378.6989,-598.5275 381.6827,-588.9097 383.589,-580 397.1135,-516.7877 401.2036,-438.7876 402.262,-411.7598"/>
<polygon fill="#191970" stroke="#191970" points="372.5169,-605.6979 372.4123,-616.2923 379.1008,-608.0756 372.5169,-605.6979"/>
</g>
<!-- Node9 -->
<g id="node3" class="node">
<title>Node9</title>
<g id="a_node3"><a xlink:href="api_2spec_2queue_8h.html" target="_top" xlink:title="ODP queue. ">
<polygon fill="#ffffff" stroke="#000000" points="309.089,-504.5 309.089,-523.5 360.089,-523.5 360.089,-504.5 309.089,-504.5"/>
<text text-anchor="middle" x="334.589" y="-511.5" font-family="Helvetica,sans-Serif" font-size="10.00" fill="#000000">queue.h</text>
</a>
</g>
</g>
<!-- Node8&#45;&gt;Node9 -->
<g id="edge2" class="edge">
<title>Node8&#45;&gt;Node9</title>
<path fill="none" stroke="#191970" d="M334.589,-550.1575C334.589,-541.155 334.589,-530.9199 334.589,-523.6427"/>
<polygon fill="#191970" stroke="#191970" points="331.0891,-550.2455 334.589,-560.2455 338.0891,-550.2456 331.0891,-550.2455"/>
</g>
<!-- Node10 -->
<g id="node4" class="node">
<title>Node10</title>
<g id="a_node4"><a xlink:href="api_2queue_8h.html" target="_top" xlink:title="ODP queue. ">
<polygon fill="#ffffff" stroke="#000000" points="309.089,-448.5 309.089,-467.5 360.089,-467.5 360.089,-448.5 309.089,-448.5"/>
<text text-anchor="middle" x="334.589" y="-455.5" font-family="Helvetica,sans-Serif" font-size="10.00" fill="#000000">queue.h</text>
</a>
</g>
</g>
<!-- Node9&#45;&gt;Node10 -->
<g id="edge3" class="edge">
<title>Node9&#45;&gt;Node10</title>
<path fill="none" stroke="#191970" d="M334.589,-494.1575C334.589,-485.155 334.589,-474.9199 334.589,-467.6427"/>
<polygon fill="#191970" stroke="#191970" points="331.0891,-494.2455 334.589,-504.2455 338.0891,-494.2456 331.0891,-494.2455"/>
</g>
<!-- Node11 -->
<g id="node5" class="node">
<title>Node11</title>
<g id="a_node5"><a xlink:href="api_2crypto_8h.html" target="_top" xlink:title="ODP crypto. ">
<polygon fill="#ffffff" stroke="#000000" points="262.589,-224.5 262.589,-243.5 314.589,-243.5 314.589,-224.5 262.589,-224.5"/>
<text text-anchor="middle" x="288.589" y="-231.5" font-family="Helvetica,sans-Serif" font-size="10.00" fill="#000000">crypto.h</text>
</a>
</g>
</g>
<!-- Node10&#45;&gt;Node11 -->
<g id="edge4" class="edge">
<title>Node10&#45;&gt;Node11</title>
<path fill="none" stroke="#191970" d="M330.5664,-438.4119C321.0674,-392.1557 297.5208,-277.494 290.5582,-243.5891"/>
<polygon fill="#191970" stroke="#191970" points="327.1723,-439.2835 332.6124,-448.375 334.0292,-437.8753 327.1723,-439.2835"/>
</g>
<!-- Node14 -->
<g id="node8" class="node">
<title>Node14</title>
<g id="a_node8"><a xlink:href="odp__api_8h.html" target="_top" xlink:title="The OpenDataPlane API. ">
<polygon fill="#ffffff" stroke="#000000" points="196.089,-56.5 196.089,-75.5 255.089,-75.5 255.089,-56.5 196.089,-56.5"/>
<text text-anchor="middle" x="225.589" y="-63.5" font-family="Helvetica,sans-Serif" font-size="10.00" fill="#000000">odp_api.h</text>
</a>
</g>
</g>
<!-- Node10&#45;&gt;Node14 -->
<g id="edge25" class="edge">
<title>Node10&#45;&gt;Node14</title>
<path fill="none" stroke="#191970" d="M336.8577,-438.2257C339.223,-415.8706 342.589,-378.3707 342.589,-346 342.589,-346 342.589,-346 342.589,-178 342.589,-126.542 282.8018,-91.4207 248.7044,-75.5748"/>
<polygon fill="#191970" stroke="#191970" points="333.3499,-438.1052 335.7352,-448.4281 340.3079,-438.8709 333.3499,-438.1052"/>
</g>
<!-- Node16 -->
<g id="node10" class="node">
<title>Node16</title>
<g id="a_node10"><a xlink:href="api_2spec_2packet__io_8h.html" target="_top" xlink:title="ODP Packet IO. ">
<polygon fill="#ffffff" stroke="#000000" points="172.089,-392.5 172.089,-411.5 239.089,-411.5 239.089,-392.5 172.089,-392.5"/>
<text text-anchor="middle" x="205.589" y="-399.5" font-family="Helvetica,sans-Serif" font-size="10.00" fill="#000000">packet_io.h</text>
</a>
</g>
</g>
<!-- Node10&#45;&gt;Node16 -->
<g id="edge10" class="edge">
<title>Node10&#45;&gt;Node16</title>
<path fill="none" stroke="#191970" d="M303.2219,-444.3833C279.7605,-434.1985 248.2705,-420.5284 227.4755,-411.5011"/>
<polygon fill="#191970" stroke="#191970" points="301.8464,-447.6017 312.4131,-448.3733 304.6338,-441.1806 301.8464,-447.6017"/>
</g>
<!-- Node10&#45;&gt;Node22 -->
<g id="edge22" class="edge">
<title>Node10&#45;&gt;Node22</title>
<path fill="none" stroke="#191970" d="M354.4486,-441.645C366.2747,-431.9058 380.8781,-419.8795 390.88,-411.6427"/>
<polygon fill="#191970" stroke="#191970" points="351.928,-439.1867 346.4337,-448.2455 356.378,-444.5902 351.928,-439.1867"/>
</g>
<!-- Node12 -->
<g id="node6" class="node">
<title>Node12</title>
<g id="a_node6"><a xlink:href="api_2spec_2ipsec_8h.html" target="_top" xlink:title="ODP IPSEC API. ">
<polygon fill="#ffffff" stroke="#000000" points="201.589,-168.5 201.589,-187.5 249.589,-187.5 249.589,-168.5 201.589,-168.5"/>
<text text-anchor="middle" x="225.589" y="-175.5" font-family="Helvetica,sans-Serif" font-size="10.00" fill="#000000">ipsec.h</text>
</a>
</g>
</g>
<!-- Node11&#45;&gt;Node12 -->
<g id="edge5" class="edge">
<title>Node11&#45;&gt;Node12</title>
<path fill="none" stroke="#191970" d="M269.8698,-217.3607C258.9707,-207.6727 245.6134,-195.7995 236.437,-187.6427"/>
<polygon fill="#191970" stroke="#191970" points="267.8158,-220.2178 277.6152,-224.2455 272.4664,-214.9859 267.8158,-220.2178"/>
</g>
<!-- Node11&#45;&gt;Node14 -->
<g id="edge9" class="edge">
<title>Node11&#45;&gt;Node14</title>
<path fill="none" stroke="#191970" d="M286.1252,-214.466C282.4869,-189.7213 274.3386,-146.1868 258.589,-112 252.2557,-98.2527 241.6002,-84.3987 234.1145,-75.5413"/>
<polygon fill="#191970" stroke="#191970" points="282.663,-214.9808 287.4906,-224.4118 289.5979,-214.0287 282.663,-214.9808"/>
</g>
<!-- Node13 -->
<g id="node7" class="node">
<title>Node13</title>
<g id="a_node7"><a xlink:href="api_2ipsec_8h.html" target="_top" xlink:title="ODP IPSEC API &#45; platform specific header. ">
<polygon fill="#ffffff" stroke="#000000" points="201.589,-112.5 201.589,-131.5 249.589,-131.5 249.589,-112.5 201.589,-112.5"/>
<text text-anchor="middle" x="225.589" y="-119.5" font-family="Helvetica,sans-Serif" font-size="10.00" fill="#000000">ipsec.h</text>
</a>
</g>
</g>
<!-- Node12&#45;&gt;Node13 -->
<g id="edge6" class="edge">
<title>Node12&#45;&gt;Node13</title>
<path fill="none" stroke="#191970" d="M225.589,-158.1575C225.589,-149.155 225.589,-138.9199 225.589,-131.6427"/>
<polygon fill="#191970" stroke="#191970" points="222.0891,-158.2455 225.589,-168.2455 229.0891,-158.2456 222.0891,-158.2455"/>
</g>
<!-- Node13&#45;&gt;Node14 -->
<g id="edge7" class="edge">
<title>Node13&#45;&gt;Node14</title>
<path fill="none" stroke="#191970" d="M225.589,-102.1575C225.589,-93.155 225.589,-82.9199 225.589,-75.6427"/>
<polygon fill="#191970" stroke="#191970" points="222.0891,-102.2455 225.589,-112.2455 229.0891,-102.2456 222.0891,-102.2455"/>
</g>
<!-- Node15 -->
<g id="node9" class="node">
<title>Node15</title>
<g id="a_node9"><a xlink:href="odp_8h.html" target="_top" xlink:title="WARNING: THIS FILE IS DEPRECATED AND WILL BE REMOVED!!! ODP APPLICATIONS SHOULD NOW INCLUDE odp_api...">
<polygon fill="#ffffff" stroke="#000000" points="205.089,-.5 205.089,-19.5 246.089,-19.5 246.089,-.5 205.089,-.5"/>
<text text-anchor="middle" x="225.589" y="-7.5" font-family="Helvetica,sans-Serif" font-size="10.00" fill="#000000">odp.h</text>
</a>
</g>
</g>
<!-- Node14&#45;&gt;Node15 -->
<g id="edge8" class="edge">
<title>Node14&#45;&gt;Node15</title>
<path fill="none" stroke="#191970" d="M225.589,-46.1575C225.589,-37.155 225.589,-26.9199 225.589,-19.6427"/>
<polygon fill="#191970" stroke="#191970" points="222.0891,-46.2455 225.589,-56.2455 229.0891,-46.2456 222.0891,-46.2455"/>
</g>
<!-- Node17 -->
<g id="node11" class="node">
<title>Node17</title>
<g id="a_node11"><a xlink:href="api_2packet__io_8h.html" target="_top" xlink:title="ODP Packet IO. ">
<polygon fill="#ffffff" stroke="#000000" points="134.089,-336.5 134.089,-355.5 201.089,-355.5 201.089,-336.5 134.089,-336.5"/>
<text text-anchor="middle" x="167.589" y="-343.5" font-family="Helvetica,sans-Serif" font-size="10.00" fill="#000000">packet_io.h</text>
</a>
</g>
</g>
<!-- Node16&#45;&gt;Node17 -->
<g id="edge11" class="edge">
<title>Node16&#45;&gt;Node17</title>
<path fill="none" stroke="#191970" d="M193.321,-383.9209C186.9402,-374.5176 179.3959,-363.3997 174.1322,-355.6427"/>
<polygon fill="#191970" stroke="#191970" points="190.4586,-385.936 198.9699,-392.2455 196.251,-382.0055 190.4586,-385.936"/>
</g>
<!-- Node17&#45;&gt;Node12 -->
<g id="edge16" class="edge">
<title>Node17&#45;&gt;Node12</title>
<path fill="none" stroke="#191970" d="M189.6641,-330.1935C198.997,-322.253 208.9863,-311.8077 214.589,-300 232.731,-261.7655 229.3147,-209.2536 226.894,-187.7649"/>
<polygon fill="#191970" stroke="#191970" points="187.3945,-327.5268 181.7582,-336.4981 191.7588,-332.9997 187.3945,-327.5268"/>
</g>
<!-- Node17&#45;&gt;Node14 -->
<g id="edge21" class="edge">
<title>Node17&#45;&gt;Node14</title>
<path fill="none" stroke="#191970" d="M123.9073,-337.2248C85.7504,-328.7254 34.2343,-314.9568 19.589,-300 -1.7669,-278.1899 .589,-264.5246 .589,-234 .589,-234 .589,-234 .589,-178 .589,-91.822 134.5063,-71.9529 195.7107,-67.3722"/>
<polygon fill="#191970" stroke="#191970" points="123.265,-340.6669 133.7807,-339.3743 124.7541,-333.8271 123.265,-340.6669"/>
</g>
<!-- Node18 -->
<g id="node12" class="node">
<title>Node18</title>
<g id="a_node12"><a xlink:href="api_2spec_2classification_8h.html" target="_top" xlink:title="ODP classification descriptor. ">
<polygon fill="#ffffff" stroke="#000000" points="28.589,-280.5 28.589,-299.5 110.589,-299.5 110.589,-280.5 28.589,-280.5"/>
<text text-anchor="middle" x="69.589" y="-287.5" font-family="Helvetica,sans-Serif" font-size="10.00" fill="#000000">classification.h</text>
</a>
</g>
</g>
<!-- Node17&#45;&gt;Node18 -->
<g id="edge12" class="edge">
<title>Node17&#45;&gt;Node18</title>
<path fill="none" stroke="#191970" d="M141.4203,-331.0465C123.9831,-321.0824 101.5778,-308.2794 86.4636,-299.6427"/>
<polygon fill="#191970" stroke="#191970" points="140.0997,-334.323 150.5187,-336.2455 143.5727,-328.2453 140.0997,-334.323"/>
</g>
<!-- Node20 -->
<g id="node14" class="node">
<title>Node20</title>
<g id="a_node14"><a xlink:href="api_2spec_2traffic__mngr_8h.html" target="_top" xlink:title="Copyright (c) 2015&#45;2018, Linaro Limited All rights reserved. ">
<polygon fill="#ffffff" stroke="#000000" points="129.089,-280.5 129.089,-299.5 206.089,-299.5 206.089,-280.5 129.089,-280.5"/>
<text text-anchor="middle" x="167.589" y="-287.5" font-family="Helvetica,sans-Serif" font-size="10.00" fill="#000000">traffic_mngr.h</text>
</a>
</g>
</g>
<!-- Node17&#45;&gt;Node20 -->
<g id="edge17" class="edge">
<title>Node17&#45;&gt;Node20</title>
<path fill="none" stroke="#191970" d="M167.589,-326.1575C167.589,-317.155 167.589,-306.9199 167.589,-299.6427"/>
<polygon fill="#191970" stroke="#191970" points="164.0891,-326.2455 167.589,-336.2455 171.0891,-326.2456 164.0891,-326.2455"/>
</g>
<!-- Node19 -->
<g id="node13" class="node">
<title>Node19</title>
<g id="a_node13"><a xlink:href="api_2classification_8h.html" target="_top" xlink:title="ODP classification descriptor. ">
<polygon fill="#ffffff" stroke="#000000" points="28.589,-224.5 28.589,-243.5 110.589,-243.5 110.589,-224.5 28.589,-224.5"/>
<text text-anchor="middle" x="69.589" y="-231.5" font-family="Helvetica,sans-Serif" font-size="10.00" fill="#000000">classification.h</text>
</a>
</g>
</g>
<!-- Node18&#45;&gt;Node19 -->
<g id="edge13" class="edge">
<title>Node18&#45;&gt;Node19</title>
<path fill="none" stroke="#191970" d="M69.589,-270.1575C69.589,-261.155 69.589,-250.9199 69.589,-243.6427"/>
<polygon fill="#191970" stroke="#191970" points="66.0891,-270.2455 69.589,-280.2455 73.0891,-270.2456 66.0891,-270.2455"/>
</g>
<!-- Node19&#45;&gt;Node12 -->
<g id="edge14" class="edge">
<title>Node19&#45;&gt;Node12</title>
<path fill="none" stroke="#191970" d="M105.9088,-220.9621C135.3046,-210.4098 175.8829,-195.8432 201.4245,-186.6744"/>
<polygon fill="#191970" stroke="#191970" points="104.6357,-217.7004 96.4063,-224.3733 107.0008,-224.2887 104.6357,-217.7004"/>
</g>
<!-- Node19&#45;&gt;Node14 -->
<g id="edge15" class="edge">
<title>Node19&#45;&gt;Node14</title>
<path fill="none" stroke="#191970" d="M85.2423,-217.0508C107.0321,-193.4684 147.7561,-149.4347 182.589,-112 194.3552,-99.3549 207.977,-84.7963 216.682,-75.5029"/>
<polygon fill="#191970" stroke="#191970" points="82.5802,-214.7745 78.3653,-224.4949 87.722,-219.5246 82.5802,-214.7745"/>
</g>
<!-- Node21 -->
<g id="node15" class="node">
<title>Node21</title>
<g id="a_node15"><a xlink:href="api_2traffic__mngr_8h.html" target="_top" xlink:title="ODP Traffic manager. ">
<polygon fill="#ffffff" stroke="#000000" points="129.089,-224.5 129.089,-243.5 206.089,-243.5 206.089,-224.5 129.089,-224.5"/>
<text text-anchor="middle" x="167.589" y="-231.5" font-family="Helvetica,sans-Serif" font-size="10.00" fill="#000000">traffic_mngr.h</text>
</a>
</g>
</g>
<!-- Node20&#45;&gt;Node21 -->
<g id="edge18" class="edge">
<title>Node20&#45;&gt;Node21</title>
<path fill="none" stroke="#191970" d="M167.589,-270.1575C167.589,-261.155 167.589,-250.9199 167.589,-243.6427"/>
<polygon fill="#191970" stroke="#191970" points="164.0891,-270.2455 167.589,-280.2455 171.0891,-270.2456 164.0891,-270.2455"/>
</g>
<!-- Node21&#45;&gt;Node12 -->
<g id="edge19" class="edge">
<title>Node21&#45;&gt;Node12</title>
<path fill="none" stroke="#191970" d="M185.1183,-217.0751C195.0973,-207.4402 207.2366,-195.7196 215.6019,-187.6427"/>
<polygon fill="#191970" stroke="#191970" points="182.4547,-214.7817 177.6918,-224.2455 187.3169,-219.8175 182.4547,-214.7817"/>
</g>
<!-- Node21&#45;&gt;Node14 -->
<g id="edge20" class="edge">
<title>Node21&#45;&gt;Node14</title>
<path fill="none" stroke="#191970" d="M169.0941,-214.1301C171.5411,-189.3286 177.7082,-146.0316 192.589,-112 198.5743,-98.3119 209.0858,-84.6616 216.6386,-75.8298"/>
<polygon fill="#191970" stroke="#191970" points="165.5795,-214.1438 168.1916,-224.4116 172.5527,-214.756 165.5795,-214.1438"/>
</g>
<!-- Node23 -->
<g id="node17" class="node">
<title>Node23</title>
<g id="a_node17"><a xlink:href="api_2schedule_8h.html" target="_top" xlink:title="ODP schedule. ">
<polygon fill="#ffffff" stroke="#000000" points="370.589,-168.5 370.589,-187.5 434.589,-187.5 434.589,-168.5 370.589,-168.5"/>
<text text-anchor="middle" x="402.589" y="-175.5" font-family="Helvetica,sans-Serif" font-size="10.00" fill="#000000">schedule.h</text>
</a>
</g>
</g>
<!-- Node22&#45;&gt;Node23 -->
<g id="edge23" class="edge">
<title>Node22&#45;&gt;Node23</title>
<path fill="none" stroke="#191970" d="M402.589,-382.1177C402.589,-335.6713 402.589,-221.4223 402.589,-187.5891"/>
<polygon fill="#191970" stroke="#191970" points="399.0891,-382.375 402.589,-392.375 406.0891,-382.375 399.0891,-382.375"/>
</g>
<!-- Node23&#45;&gt;Node14 -->
<g id="edge24" class="edge">
<title>Node23&#45;&gt;Node14</title>
<path fill="none" stroke="#191970" d="M393.7027,-159.3126C385.8274,-144.5788 373.032,-124.4975 356.589,-112 326.2678,-88.9545 283.4737,-76.8334 255.153,-70.9305"/>
<polygon fill="#191970" stroke="#191970" points="390.7141,-161.1583 398.3532,-168.4996 396.9595,-157.9968 390.7141,-161.1583"/>
</g>
</g>
</svg>
