<?xml version="1.0" encoding="UTF-8" standalone="no"?>
<!DOCTYPE svg PUBLIC "-//W3C//DTD SVG 1.1//EN"
 "http://www.w3.org/Graphics/SVG/1.1/DTD/svg11.dtd">
<!-- Generated by graphviz version 2.40.1 (20161225.0304)
 -->
<!-- Title: barrier.h Pages: 1 -->
<svg width="890pt" height="319pt"
 viewBox="0.00 0.00 890.00 319.00" xmlns="http://www.w3.org/2000/svg" xmlns:xlink="http://www.w3.org/1999/xlink">
<g id="graph0" class="graph" transform="scale(1 1) rotate(0) translate(4 315)">
<title>barrier.h</title>
<polygon fill="#ffffff" stroke="transparent" points="-4,4 -4,-315 886,-315 886,4 -4,4"/>
<!-- Node0 -->
<g id="node1" class="node">
<title>Node0</title>
<polygon fill="#bfbfbf" stroke="#000000" points="612,-291.5 612,-310.5 664,-310.5 664,-291.5 612,-291.5"/>
<text text-anchor="middle" x="638" y="-298.5" font-family="Helvetica,sans-Serif" font-size="10.00" fill="#000000">barrier.h</text>
</g>
<!-- Node1 -->
<g id="node2" class="node">
<title>Node1</title>
<g id="a_node2"><a xlink:href="api_2std__types_8h.html" target="_top" xlink:title="Standard C language types and definitions for ODP. ">
<polygon fill="#ffffff" stroke="#000000" points="148,-230 148,-249 250,-249 250,-230 148,-230"/>
<text text-anchor="middle" x="199" y="-237" font-family="Helvetica,sans-Serif" font-size="10.00" fill="#000000">odp/api/std_types.h</text>
</a>
</g>
</g>
<!-- Node0&#45;&gt;Node1 -->
<g id="edge1" class="edge">
<title>Node0&#45;&gt;Node1</title>
<path fill="none" stroke="#191970" d="M611.8532,-297.3371C543.3945,-287.7466 357.4879,-261.7027 260.2043,-248.0742"/>
<polygon fill="#191970" stroke="#191970" points="260.607,-244.5965 250.2181,-246.6752 259.6357,-251.5288 260.607,-244.5965"/>
</g>
<!-- Node10 -->
<g id="node11" class="node">
<title>Node10</title>
<g id="a_node11"><a xlink:href="api_2atomic_8h.html" target="_top" xlink:title="ODP atomic operations. ">
<polygon fill="#ffffff" stroke="#000000" points="408.5,-112.5 408.5,-131.5 497.5,-131.5 497.5,-112.5 408.5,-112.5"/>
<text text-anchor="middle" x="453" y="-119.5" font-family="Helvetica,sans-Serif" font-size="10.00" fill="#000000">odp/api/atomic.h</text>
</a>
</g>
</g>
<!-- Node0&#45;&gt;Node10 -->
<g id="edge12" class="edge">
<title>Node0&#45;&gt;Node10</title>
<path fill="none" stroke="#191970" d="M628.0536,-291.3762C598.0646,-262.3598 508.265,-175.4726 470.2756,-138.7153"/>
<polygon fill="#191970" stroke="#191970" points="472.616,-136.1097 462.9956,-131.6714 467.7485,-141.1403 472.616,-136.1097"/>
</g>
<!-- Node13 -->
<g id="node14" class="node">
<title>Node13</title>
<polygon fill="#ffffff" stroke="#bfbfbf" points="666,-224.5 666,-254.5 762,-254.5 762,-224.5 666,-224.5"/>
<text text-anchor="start" x="674" y="-242.5" font-family="Helvetica,sans-Serif" font-size="10.00" fill="#000000">odp/api/abi/shared</text>
<text text-anchor="middle" x="714" y="-231.5" font-family="Helvetica,sans-Serif" font-size="10.00" fill="#000000">_memory.h</text>
</g>
<!-- Node0&#45;&gt;Node13 -->
<g id="edge17" class="edge">
<title>Node0&#45;&gt;Node13</title>
<path fill="none" stroke="#191970" d="M649.875,-291.3906C659.875,-283.2986 674.5533,-271.4207 687.3438,-261.0705"/>
<polygon fill="#191970" stroke="#191970" points="689.8363,-263.5559 695.4083,-254.5446 685.433,-258.1144 689.8363,-263.5559"/>
</g>
<!-- Node14 -->
<g id="node15" class="node">
<title>Node14</title>
<polygon fill="#ffffff" stroke="#bfbfbf" points="780,-230 780,-249 882,-249 882,-230 780,-230"/>
<text text-anchor="middle" x="831" y="-237" font-family="Helvetica,sans-Serif" font-size="10.00" fill="#000000">odp/api/abi/barrier.h</text>
</g>
<!-- Node0&#45;&gt;Node14 -->
<g id="edge18" class="edge">
<title>Node0&#45;&gt;Node14</title>
<path fill="none" stroke="#191970" d="M664.0288,-292.7058C696.7091,-282.2922 753.0986,-264.3235 791.2052,-252.1807"/>
<polygon fill="#191970" stroke="#191970" points="792.4877,-255.4455 800.953,-249.0746 790.3624,-248.776 792.4877,-255.4455"/>
</g>
<!-- Node15 -->
<g id="node16" class="node">
<title>Node15</title>
<g id="a_node16"><a xlink:href="api_2spec_2barrier_8h.html" target="_top" xlink:title="ODP execution barriers. ">
<polygon fill="#ffffff" stroke="#000000" points="523,-56.5 523,-75.5 633,-75.5 633,-56.5 523,-56.5"/>
<text text-anchor="middle" x="578" y="-63.5" font-family="Helvetica,sans-Serif" font-size="10.00" fill="#000000">odp/api/spec/barrier.h</text>
</a>
</g>
</g>
<!-- Node0&#45;&gt;Node15 -->
<g id="edge19" class="edge">
<title>Node0&#45;&gt;Node15</title>
<path fill="none" stroke="#191970" d="M635.5736,-291.4967C626.6039,-256.3651 595.2065,-133.3922 582.9521,-85.3958"/>
<polygon fill="#191970" stroke="#191970" points="586.3217,-84.4449 580.4566,-75.6216 579.5393,-86.1766 586.3217,-84.4449"/>
</g>
<!-- Node2 -->
<g id="node3" class="node">
<title>Node2</title>
<polygon fill="#ffffff" stroke="#bfbfbf" points="0,-168.5 0,-187.5 118,-187.5 118,-168.5 0,-168.5"/>
<text text-anchor="middle" x="59" y="-175.5" font-family="Helvetica,sans-Serif" font-size="10.00" fill="#000000">odp/api/abi/std_types.h</text>
</g>
<!-- Node1&#45;&gt;Node2 -->
<g id="edge2" class="edge">
<title>Node1&#45;&gt;Node2</title>
<path fill="none" stroke="#191970" d="M177.125,-229.8906C153.7004,-219.6005 116.3404,-203.1888 89.9159,-191.5809"/>
<polygon fill="#191970" stroke="#191970" points="91.2846,-188.3594 80.7214,-187.5419 88.4693,-194.7683 91.2846,-188.3594"/>
</g>
<!-- Node3 -->
<g id="node4" class="node">
<title>Node3</title>
<g id="a_node4"><a xlink:href="api_2spec_2std__types_8h.html" target="_top" xlink:title="Standard C language types and definitions for ODP. ">
<polygon fill="#ffffff" stroke="#000000" points="136,-168.5 136,-187.5 262,-187.5 262,-168.5 136,-168.5"/>
<text text-anchor="middle" x="199" y="-175.5" font-family="Helvetica,sans-Serif" font-size="10.00" fill="#000000">odp/api/spec/std_types.h</text>
</a>
</g>
</g>
<!-- Node1&#45;&gt;Node3 -->
<g id="edge3" class="edge">
<title>Node1&#45;&gt;Node3</title>
<path fill="none" stroke="#191970" d="M199,-229.8906C199,-221.3657 199,-208.6392 199,-197.9235"/>
<polygon fill="#191970" stroke="#191970" points="202.5001,-197.7448 199,-187.7449 195.5001,-197.7449 202.5001,-197.7448"/>
</g>
<!-- Node4 -->
<g id="node5" class="node">
<title>Node4</title>
<g id="a_node5"><a xlink:href="visibility__begin_8h_source.html" target="_top" xlink:title="odp/visibility_begin.h">
<polygon fill="#ffffff" stroke="#000000" points="334.5,-.5 334.5,-19.5 441.5,-19.5 441.5,-.5 334.5,-.5"/>
<text text-anchor="middle" x="388" y="-7.5" font-family="Helvetica,sans-Serif" font-size="10.00" fill="#000000">odp/visibility_begin.h</text>
</a>
</g>
</g>
<!-- Node3&#45;&gt;Node4 -->
<g id="edge4" class="edge">
<title>Node3&#45;&gt;Node4</title>
<path fill="none" stroke="#191970" d="M262.0801,-173.7344C374.1457,-164.6081 600.1424,-138.6791 642,-76 646.9365,-68.6079 647.6979,-62.8225 642,-56 618.1939,-27.4953 518.7457,-16.6186 451.5798,-12.4923"/>
<polygon fill="#191970" stroke="#191970" points="451.6915,-8.993 441.5058,-11.9087 451.2866,-15.9813 451.6915,-8.993"/>
</g>
<!-- Node5 -->
<g id="node6" class="node">
<title>Node5</title>
<polygon fill="#ffffff" stroke="#bfbfbf" points="91.5,-112.5 91.5,-131.5 140.5,-131.5 140.5,-112.5 91.5,-112.5"/>
<text text-anchor="middle" x="116" y="-119.5" font-family="Helvetica,sans-Serif" font-size="10.00" fill="#000000">stdint.h</text>
</g>
<!-- Node3&#45;&gt;Node5 -->
<g id="edge5" class="edge">
<title>Node3&#45;&gt;Node5</title>
<path fill="none" stroke="#191970" d="M184.5425,-168.2455C171.9268,-159.7337 153.4056,-147.2375 138.7955,-137.3801"/>
<polygon fill="#191970" stroke="#191970" points="140.5391,-134.3343 130.2918,-131.6427 136.6239,-140.1371 140.5391,-134.3343"/>
</g>
<!-- Node6 -->
<g id="node7" class="node">
<title>Node6</title>
<g id="a_node7"><a xlink:href="api_2align_8h.html" target="_top" xlink:title="ODP alignments. ">
<polygon fill="#ffffff" stroke="#000000" points="159,-112.5 159,-131.5 239,-131.5 239,-112.5 159,-112.5"/>
<text text-anchor="middle" x="199" y="-119.5" font-family="Helvetica,sans-Serif" font-size="10.00" fill="#000000">odp/api/align.h</text>
</a>
</g>
</g>
<!-- Node3&#45;&gt;Node6 -->
<g id="edge6" class="edge">
<title>Node3&#45;&gt;Node6</title>
<path fill="none" stroke="#191970" d="M199,-168.2455C199,-160.9382 199,-150.6944 199,-141.7046"/>
<polygon fill="#191970" stroke="#191970" points="202.5001,-141.6426 199,-131.6427 195.5001,-141.6427 202.5001,-141.6426"/>
</g>
<!-- Node9 -->
<g id="node10" class="node">
<title>Node9</title>
<g id="a_node10"><a xlink:href="visibility__end_8h_source.html" target="_top" xlink:title="odp/visibility_end.h">
<polygon fill="#ffffff" stroke="#000000" points="214,-.5 214,-19.5 314,-19.5 314,-.5 214,-.5"/>
<text text-anchor="middle" x="264" y="-7.5" font-family="Helvetica,sans-Serif" font-size="10.00" fill="#000000">odp/visibility_end.h</text>
</a>
</g>
</g>
<!-- Node3&#45;&gt;Node9 -->
<g id="edge11" class="edge">
<title>Node3&#45;&gt;Node9</title>
<path fill="none" stroke="#191970" d="M160.4039,-168.4613C96.3515,-150.8467 -20.654,-110.0255 24,-56 46.3708,-28.9343 140.1589,-17.6377 203.651,-13.0335"/>
<polygon fill="#191970" stroke="#191970" points="204.2192,-16.5028 213.9556,-12.3252 203.7391,-9.5193 204.2192,-16.5028"/>
</g>
<!-- Node7 -->
<g id="node8" class="node">
<title>Node7</title>
<polygon fill="#ffffff" stroke="#bfbfbf" points="33.5,-56.5 33.5,-75.5 128.5,-75.5 128.5,-56.5 33.5,-56.5"/>
<text text-anchor="middle" x="81" y="-63.5" font-family="Helvetica,sans-Serif" font-size="10.00" fill="#000000">odp/api/abi/align.h</text>
</g>
<!-- Node6&#45;&gt;Node7 -->
<g id="edge7" class="edge">
<title>Node6&#45;&gt;Node7</title>
<path fill="none" stroke="#191970" d="M178.7151,-112.3733C159.8579,-103.4241 131.554,-89.9917 110.2545,-79.8835"/>
<polygon fill="#191970" stroke="#191970" points="111.5551,-76.6266 101.0202,-75.5011 108.5539,-82.9506 111.5551,-76.6266"/>
</g>
<!-- Node8 -->
<g id="node9" class="node">
<title>Node8</title>
<g id="a_node9"><a xlink:href="api_2spec_2align_8h.html" target="_top" xlink:title="ODP alignments. ">
<polygon fill="#ffffff" stroke="#000000" points="147,-56.5 147,-75.5 251,-75.5 251,-56.5 147,-56.5"/>
<text text-anchor="middle" x="199" y="-63.5" font-family="Helvetica,sans-Serif" font-size="10.00" fill="#000000">odp/api/spec/align.h</text>
</a>
</g>
</g>
<!-- Node6&#45;&gt;Node8 -->
<g id="edge8" class="edge">
<title>Node6&#45;&gt;Node8</title>
<path fill="none" stroke="#191970" d="M199,-112.2455C199,-104.9382 199,-94.6944 199,-85.7046"/>
<polygon fill="#191970" stroke="#191970" points="202.5001,-85.6426 199,-75.6427 195.5001,-85.6427 202.5001,-85.6426"/>
</g>
<!-- Node8&#45;&gt;Node4 -->
<g id="edge9" class="edge">
<title>Node8&#45;&gt;Node4</title>
<path fill="none" stroke="#191970" d="M231.4903,-56.3733C263.1902,-46.9807 311.5576,-32.6496 346.1286,-22.4064"/>
<polygon fill="#191970" stroke="#191970" points="347.3401,-25.6979 355.9337,-19.5011 345.3514,-18.9863 347.3401,-25.6979"/>
</g>
<!-- Node8&#45;&gt;Node9 -->
<g id="edge10" class="edge">
<title>Node8&#45;&gt;Node9</title>
<path fill="none" stroke="#191970" d="M210.3221,-56.2455C219.9223,-47.9746 233.8892,-35.9416 245.1695,-26.2232"/>
<polygon fill="#191970" stroke="#191970" points="247.516,-28.8214 252.8076,-19.6427 242.947,-23.5182 247.516,-28.8214"/>
</g>
<!-- Node11 -->
<g id="node12" class="node">
<title>Node11</title>
<polygon fill="#ffffff" stroke="#bfbfbf" points="401,-56.5 401,-75.5 505,-75.5 505,-56.5 401,-56.5"/>
<text text-anchor="middle" x="453" y="-63.5" font-family="Helvetica,sans-Serif" font-size="10.00" fill="#000000">odp/api/abi/atomic.h</text>
</g>
<!-- Node10&#45;&gt;Node11 -->
<g id="edge13" class="edge">
<title>Node10&#45;&gt;Node11</title>
<path fill="none" stroke="#191970" d="M453,-112.2455C453,-104.9382 453,-94.6944 453,-85.7046"/>
<polygon fill="#191970" stroke="#191970" points="456.5001,-85.6426 453,-75.6427 449.5001,-85.6427 456.5001,-85.6426"/>
</g>
<!-- Node12 -->
<g id="node13" class="node">
<title>Node12</title>
<g id="a_node13"><a xlink:href="api_2spec_2atomic_8h.html" target="_top" xlink:title="ODP atomic operations. ">
<polygon fill="#ffffff" stroke="#000000" points="269.5,-56.5 269.5,-75.5 382.5,-75.5 382.5,-56.5 269.5,-56.5"/>
<text text-anchor="middle" x="326" y="-63.5" font-family="Helvetica,sans-Serif" font-size="10.00" fill="#000000">odp/api/spec/atomic.h</text>
</a>
</g>
</g>
<!-- Node10&#45;&gt;Node12 -->
<g id="edge14" class="edge">
<title>Node10&#45;&gt;Node12</title>
<path fill="none" stroke="#191970" d="M431.1679,-112.3733C410.6897,-103.3435 379.8601,-89.7494 356.8681,-79.6111"/>
<polygon fill="#191970" stroke="#191970" points="358.1093,-76.3333 347.5472,-75.5011 355.285,-82.7383 358.1093,-76.3333"/>
</g>
<!-- Node12&#45;&gt;Node4 -->
<g id="edge15" class="edge">
<title>Node12&#45;&gt;Node4</title>
<path fill="none" stroke="#191970" d="M336.7996,-56.2455C345.8678,-48.0549 359.0206,-36.1749 369.7245,-26.5069"/>
<polygon fill="#191970" stroke="#191970" points="372.2491,-28.9429 377.3242,-19.6427 367.5571,-23.7482 372.2491,-28.9429"/>
</g>
<!-- Node12&#45;&gt;Node9 -->
<g id="edge16" class="edge">
<title>Node12&#45;&gt;Node9</title>
<path fill="none" stroke="#191970" d="M315.2004,-56.2455C306.1322,-48.0549 292.9794,-36.1749 282.2755,-26.5069"/>
<polygon fill="#191970" stroke="#191970" points="284.4429,-23.7482 274.6758,-19.6427 279.7509,-28.9429 284.4429,-23.7482"/>
</g>
<!-- Node15&#45;&gt;Node4 -->
<g id="edge20" class="edge">
<title>Node15&#45;&gt;Node4</title>
<path fill="none" stroke="#191970" d="M545.3378,-56.3733C513.4702,-46.9807 464.8469,-32.6496 430.093,-22.4064"/>
<polygon fill="#191970" stroke="#191970" points="430.8175,-18.9711 420.236,-19.5011 428.8385,-25.6855 430.8175,-18.9711"/>
</g>
<!-- Node15&#45;&gt;Node9 -->
<g id="edge21" class="edge">
<title>Node15&#45;&gt;Node9</title>
<path fill="none" stroke="#191970" d="M524.3783,-56.4369C468.7753,-46.5204 382.0304,-31.05 324.1335,-20.7244"/>
<polygon fill="#191970" stroke="#191970" points="324.489,-17.2327 314.0298,-18.9225 323.26,-24.124 324.489,-17.2327"/>
</g>
</g>
</svg>
