<?xml version="1.0" encoding="UTF-8" standalone="no"?>
<!DOCTYPE svg PUBLIC "-//W3C//DTD SVG 1.1//EN"
 "http://www.w3.org/Graphics/SVG/1.1/DTD/svg11.dtd">
<!-- Generated by graphviz version 2.40.1 (20161225.0304)
 -->
<!-- Title: std_clib.h Pages: 1 -->
<svg width="529pt" height="252pt"
 viewBox="0.00 0.00 529.00 252.00" xmlns="http://www.w3.org/2000/svg" xmlns:xlink="http://www.w3.org/1999/xlink">
<g id="graph0" class="graph" transform="scale(1 1) rotate(0) translate(4 248)">
<title>std_clib.h</title>
<polygon fill="#ffffff" stroke="transparent" points="-4,4 -4,-248 525,-248 525,4 -4,4"/>
<!-- Node1 -->
<g id="node1" class="node">
<title>Node1</title>
<polygon fill="#bfbfbf" stroke="#000000" points="231,-224.5 231,-243.5 290,-243.5 290,-224.5 231,-224.5"/>
<text text-anchor="middle" x="260.5" y="-231.5" font-family="Helvetica,sans-Serif" font-size="10.00" fill="#000000">std_clib.h</text>
</g>
<!-- Node2 -->
<g id="node2" class="node">
<title>Node2</title>
<g id="a_node2"><a xlink:href="arch_2arm32-linux_2odp_2api_2abi_2std__clib_8h_source.html" target="_top" xlink:title="std_clib.h">
<polygon fill="#ffffff" stroke="#000000" points="0,-168.5 0,-187.5 59,-187.5 59,-168.5 0,-168.5"/>
<text text-anchor="middle" x="29.5" y="-175.5" font-family="Helvetica,sans-Serif" font-size="10.00" fill="#000000">std_clib.h</text>
</a>
</g>
</g>
<!-- Node1&#45;&gt;Node2 -->
<g id="edge1" class="edge">
<title>Node1&#45;&gt;Node2</title>
<path fill="none" stroke="#191970" d="M220.9991,-224.7293C182.151,-215.5664 121.1813,-201.0639 68.5,-188 65.5149,-187.2597 62.4038,-186.4785 59.2982,-185.6923"/>
<polygon fill="#191970" stroke="#191970" points="220.3259,-228.1665 230.8621,-227.0531 221.9312,-221.353 220.3259,-228.1665"/>
</g>
<!-- Node3 -->
<g id="node3" class="node">
<title>Node3</title>
<g id="a_node3"><a xlink:href="arch_2arm64-linux_2odp_2api_2abi_2std__clib_8h_source.html" target="_top" xlink:title="std_clib.h">
<polygon fill="#ffffff" stroke="#000000" points="77,-168.5 77,-187.5 136,-187.5 136,-168.5 77,-168.5"/>
<text text-anchor="middle" x="106.5" y="-175.5" font-family="Helvetica,sans-Serif" font-size="10.00" fill="#000000">std_clib.h</text>
</a>
</g>
</g>
<!-- Node1&#45;&gt;Node3 -->
<g id="edge2" class="edge">
<title>Node1&#45;&gt;Node3</title>
<path fill="none" stroke="#191970" d="M224.5386,-220.9231C196.3866,-210.686 157.8945,-196.6889 132.6281,-187.5011"/>
<polygon fill="#191970" stroke="#191970" points="223.4324,-224.245 234.0265,-224.3733 225.8246,-217.6665 223.4324,-224.245"/>
</g>
<!-- Node4 -->
<g id="node4" class="node">
<title>Node4</title>
<g id="a_node4"><a xlink:href="arch_2default-linux_2odp_2api_2abi_2std__clib_8h_source.html" target="_top" xlink:title="std_clib.h">
<polygon fill="#ffffff" stroke="#000000" points="154,-168.5 154,-187.5 213,-187.5 213,-168.5 154,-168.5"/>
<text text-anchor="middle" x="183.5" y="-175.5" font-family="Helvetica,sans-Serif" font-size="10.00" fill="#000000">std_clib.h</text>
</a>
</g>
</g>
<!-- Node1&#45;&gt;Node4 -->
<g id="edge3" class="edge">
<title>Node1&#45;&gt;Node4</title>
<path fill="none" stroke="#191970" d="M238.7884,-218.2097C225.2647,-208.3743 208.3042,-196.0394 196.7587,-187.6427"/>
<polygon fill="#191970" stroke="#191970" points="236.9416,-221.1944 247.0876,-224.2455 241.0589,-215.5332 236.9416,-221.1944"/>
</g>
<!-- Node5 -->
<g id="node5" class="node">
<title>Node5</title>
<g id="a_node5"><a xlink:href="arch_2mips64-linux_2odp_2api_2abi_2std__clib_8h_source.html" target="_top" xlink:title="std_clib.h">
<polygon fill="#ffffff" stroke="#000000" points="231,-168.5 231,-187.5 290,-187.5 290,-168.5 231,-168.5"/>
<text text-anchor="middle" x="260.5" y="-175.5" font-family="Helvetica,sans-Serif" font-size="10.00" fill="#000000">std_clib.h</text>
</a>
</g>
</g>
<!-- Node1&#45;&gt;Node5 -->
<g id="edge4" class="edge">
<title>Node1&#45;&gt;Node5</title>
<path fill="none" stroke="#191970" d="M260.5,-214.1575C260.5,-205.155 260.5,-194.9199 260.5,-187.6427"/>
<polygon fill="#191970" stroke="#191970" points="257.0001,-214.2455 260.5,-224.2455 264.0001,-214.2456 257.0001,-214.2455"/>
</g>
<!-- Node6 -->
<g id="node6" class="node">
<title>Node6</title>
<g id="a_node6"><a xlink:href="arch_2power64-linux_2odp_2api_2abi_2std__clib_8h_source.html" target="_top" xlink:title="std_clib.h">
<polygon fill="#ffffff" stroke="#000000" points="308,-168.5 308,-187.5 367,-187.5 367,-168.5 308,-168.5"/>
<text text-anchor="middle" x="337.5" y="-175.5" font-family="Helvetica,sans-Serif" font-size="10.00" fill="#000000">std_clib.h</text>
</a>
</g>
</g>
<!-- Node1&#45;&gt;Node6 -->
<g id="edge5" class="edge">
<title>Node1&#45;&gt;Node6</title>
<path fill="none" stroke="#191970" d="M282.2116,-218.2097C295.7353,-208.3743 312.6958,-196.0394 324.2413,-187.6427"/>
<polygon fill="#191970" stroke="#191970" points="279.9411,-215.5332 273.9124,-224.2455 284.0584,-221.1944 279.9411,-215.5332"/>
</g>
<!-- Node7 -->
<g id="node7" class="node">
<title>Node7</title>
<g id="a_node7"><a xlink:href="arch_2x86__32-linux_2odp_2api_2abi_2std__clib_8h_source.html" target="_top" xlink:title="std_clib.h">
<polygon fill="#ffffff" stroke="#000000" points="385,-168.5 385,-187.5 444,-187.5 444,-168.5 385,-168.5"/>
<text text-anchor="middle" x="414.5" y="-175.5" font-family="Helvetica,sans-Serif" font-size="10.00" fill="#000000">std_clib.h</text>
</a>
</g>
</g>
<!-- Node1&#45;&gt;Node7 -->
<g id="edge6" class="edge">
<title>Node1&#45;&gt;Node7</title>
<path fill="none" stroke="#191970" d="M296.4614,-220.9231C324.6134,-210.686 363.1055,-196.6889 388.3719,-187.5011"/>
<polygon fill="#191970" stroke="#191970" points="295.1754,-217.6665 286.9735,-224.3733 297.5676,-224.245 295.1754,-217.6665"/>
</g>
<!-- Node8 -->
<g id="node8" class="node">
<title>Node8</title>
<g id="a_node8"><a xlink:href="arch_2x86__64-linux_2odp_2api_2abi_2std__clib_8h_source.html" target="_top" xlink:title="std_clib.h">
<polygon fill="#ffffff" stroke="#000000" points="462,-168.5 462,-187.5 521,-187.5 521,-168.5 462,-168.5"/>
<text text-anchor="middle" x="491.5" y="-175.5" font-family="Helvetica,sans-Serif" font-size="10.00" fill="#000000">std_clib.h</text>
</a>
</g>
</g>
<!-- Node1&#45;&gt;Node8 -->
<g id="edge7" class="edge">
<title>Node1&#45;&gt;Node8</title>
<path fill="none" stroke="#191970" d="M300.2279,-224.8169C339.2943,-215.7194 400.5931,-201.2645 453.5,-188 456.1468,-187.3364 458.8942,-186.636 461.6462,-185.9266"/>
<polygon fill="#191970" stroke="#191970" points="299.2569,-221.4492 290.3092,-227.1228 300.8421,-228.2674 299.2569,-221.4492"/>
</g>
<!-- Node9 -->
<g id="node9" class="node">
<title>Node9</title>
<g id="a_node9"><a xlink:href="api_2std__clib_8h_source.html" target="_top" xlink:title="std_clib.h">
<polygon fill="#ffffff" stroke="#000000" points="462,-112.5 462,-131.5 521,-131.5 521,-112.5 462,-112.5"/>
<text text-anchor="middle" x="491.5" y="-119.5" font-family="Helvetica,sans-Serif" font-size="10.00" fill="#000000">std_clib.h</text>
</a>
</g>
</g>
<!-- Node8&#45;&gt;Node9 -->
<g id="edge8" class="edge">
<title>Node8&#45;&gt;Node9</title>
<path fill="none" stroke="#191970" d="M491.5,-158.1575C491.5,-149.155 491.5,-138.9199 491.5,-131.6427"/>
<polygon fill="#191970" stroke="#191970" points="488.0001,-158.2455 491.5,-168.2455 495.0001,-158.2456 488.0001,-158.2455"/>
</g>
<!-- Node10 -->
<g id="node10" class="node">
<title>Node10</title>
<g id="a_node10"><a xlink:href="odp__api_8h.html" target="_top" xlink:title="The OpenDataPlane API. ">
<polygon fill="#ffffff" stroke="#000000" points="462,-56.5 462,-75.5 521,-75.5 521,-56.5 462,-56.5"/>
<text text-anchor="middle" x="491.5" y="-63.5" font-family="Helvetica,sans-Serif" font-size="10.00" fill="#000000">odp_api.h</text>
</a>
</g>
</g>
<!-- Node9&#45;&gt;Node10 -->
<g id="edge9" class="edge">
<title>Node9&#45;&gt;Node10</title>
<path fill="none" stroke="#191970" d="M491.5,-102.1575C491.5,-93.155 491.5,-82.9199 491.5,-75.6427"/>
<polygon fill="#191970" stroke="#191970" points="488.0001,-102.2455 491.5,-112.2455 495.0001,-102.2456 488.0001,-102.2455"/>
</g>
<!-- Node11 -->
<g id="node11" class="node">
<title>Node11</title>
<g id="a_node11"><a xlink:href="odp_8h.html" target="_top" xlink:title="WARNING: THIS FILE IS DEPRECATED AND WILL BE REMOVED!!! ODP APPLICATIONS SHOULD NOW INCLUDE odp_api...">
<polygon fill="#ffffff" stroke="#000000" points="471,-.5 471,-19.5 512,-19.5 512,-.5 471,-.5"/>
<text text-anchor="middle" x="491.5" y="-7.5" font-family="Helvetica,sans-Serif" font-size="10.00" fill="#000000">odp.h</text>
</a>
</g>
</g>
<!-- Node10&#45;&gt;Node11 -->
<g id="edge10" class="edge">
<title>Node10&#45;&gt;Node11</title>
<path fill="none" stroke="#191970" d="M491.5,-46.1575C491.5,-37.155 491.5,-26.9199 491.5,-19.6427"/>
<polygon fill="#191970" stroke="#191970" points="488.0001,-46.2455 491.5,-56.2455 495.0001,-46.2456 488.0001,-46.2455"/>
</g>
</g>
</svg>
