<?xml version="1.0" encoding="UTF-8" standalone="no"?>
<!DOCTYPE svg PUBLIC "-//W3C//DTD SVG 1.1//EN"
 "http://www.w3.org/Graphics/SVG/1.1/DTD/svg11.dtd">
<!-- Generated by graphviz version 2.40.1 (20161225.0304)
 -->
<!-- Title: std_types.h Pages: 1 -->
<svg width="2991pt" height="252pt"
 viewBox="0.00 0.00 2990.50 252.00" xmlns="http://www.w3.org/2000/svg" xmlns:xlink="http://www.w3.org/1999/xlink">
<g id="graph0" class="graph" transform="scale(1 1) rotate(0) translate(4 248)">
<title>std_types.h</title>
<polygon fill="#ffffff" stroke="transparent" points="-4,4 -4,-248 2986.5,-248 2986.5,4 -4,4"/>
<!-- Node9 -->
<g id="node1" class="node">
<title>Node9</title>
<polygon fill="#bfbfbf" stroke="#000000" points="2018,-224.5 2018,-243.5 2086,-243.5 2086,-224.5 2018,-224.5"/>
<text text-anchor="middle" x="2052" y="-231.5" font-family="Helvetica,sans-Serif" font-size="10.00" fill="#000000">std_types.h</text>
</g>
<!-- Node10 -->
<g id="node2" class="node">
<title>Node10</title>
<g id="a_node2"><a xlink:href="api_2abi-default_2atomic_8h.html" target="_top" xlink:title="ODP atomic operations. ">
<polygon fill="#ffffff" stroke="#000000" points="252,-168.5 252,-187.5 306,-187.5 306,-168.5 252,-168.5"/>
<text text-anchor="middle" x="279" y="-175.5" font-family="Helvetica,sans-Serif" font-size="10.00" fill="#000000">atomic.h</text>
</a>
</g>
</g>
<!-- Node9&#45;&gt;Node10 -->
<g id="edge1" class="edge">
<title>Node9&#45;&gt;Node10</title>
<path fill="none" stroke="#191970" d="M2007.519,-232.5951C1755.1168,-224.623 507.1509,-185.2061 306.3049,-178.8624"/>
<polygon fill="#191970" stroke="#191970" points="2007.6674,-236.1014 2017.773,-232.9189 2007.8885,-229.1049 2007.6674,-236.1014"/>
</g>
<!-- Node19 -->
<g id="node10" class="node">
<title>Node19</title>
<g id="a_node10"><a xlink:href="api_2abi-default_2barrier_8h.html" target="_top" xlink:title="ODP barrier. ">
<polygon fill="#ffffff" stroke="#000000" points="749,-168.5 749,-187.5 801,-187.5 801,-168.5 749,-168.5"/>
<text text-anchor="middle" x="775" y="-175.5" font-family="Helvetica,sans-Serif" font-size="10.00" fill="#000000">barrier.h</text>
</a>
</g>
</g>
<!-- Node9&#45;&gt;Node19 -->
<g id="edge9" class="edge">
<title>Node9&#45;&gt;Node19</title>
<path fill="none" stroke="#191970" d="M2007.2716,-232.1138C1861.1151,-225.9393 1384.3452,-205.7112 990,-188 921.8744,-184.9403 841.6152,-181.1609 801.1446,-179.243"/>
<polygon fill="#191970" stroke="#191970" points="2007.4779,-235.6255 2017.6167,-232.5506 2007.7733,-228.6317 2007.4779,-235.6255"/>
</g>
<!-- Node27 -->
<g id="node18" class="node">
<title>Node27</title>
<g id="a_node18"><a xlink:href="api_2barrier_8h.html" target="_top" xlink:title="ODP execution barriers. ">
<polygon fill="#ffffff" stroke="#000000" points="962,-56.5 962,-75.5 1014,-75.5 1014,-56.5 962,-56.5"/>
<text text-anchor="middle" x="988" y="-63.5" font-family="Helvetica,sans-Serif" font-size="10.00" fill="#000000">barrier.h</text>
</a>
</g>
</g>
<!-- Node9&#45;&gt;Node27 -->
<g id="edge29" class="edge">
<title>Node9&#45;&gt;Node27</title>
<path fill="none" stroke="#191970" d="M2007.7121,-233.4051C1816.2484,-230.6566 1067.5349,-218.0192 1028,-188 991.7853,-160.5019 987.8874,-99.3577 987.7981,-75.6524"/>
<polygon fill="#191970" stroke="#191970" points="2007.9165,-236.9083 2017.9652,-233.5505 2008.0158,-229.909 2007.9165,-236.9083"/>
</g>
<!-- Node28 -->
<g id="node19" class="node">
<title>Node28</title>
<g id="a_node19"><a xlink:href="odp__api_8h.html" target="_top" xlink:title="The OpenDataPlane API. ">
<polygon fill="#ffffff" stroke="#ff0000" points="2055.5,-.5 2055.5,-19.5 2114.5,-19.5 2114.5,-.5 2055.5,-.5"/>
<text text-anchor="middle" x="2085" y="-7.5" font-family="Helvetica,sans-Serif" font-size="10.00" fill="#000000">odp_api.h</text>
</a>
</g>
</g>
<!-- Node9&#45;&gt;Node28 -->
<g id="edge64" class="edge">
<title>Node9&#45;&gt;Node28</title>
<path fill="none" stroke="#191970" d="M2007.6957,-233.6253C1819.5755,-231.8216 1095.068,-222.6402 1062,-188 1038.6764,-163.5675 1039.3313,-137.0413 1062,-112 1130.5386,-36.2878 1894.2213,-14.4256 2055.287,-10.6427"/>
<polygon fill="#191970" stroke="#191970" points="2007.7494,-237.1258 2017.7818,-233.7198 2007.8151,-230.1262 2007.7494,-237.1258"/>
</g>
<!-- Node57 -->
<g id="node20" class="node">
<title>Node57</title>
<g id="a_node20"><a xlink:href="api_2abi-default_2byteorder_8h.html" target="_top" xlink:title="ODP byteorder. ">
<polygon fill="#ffffff" stroke="#ff0000" points="1070.5,-168.5 1070.5,-187.5 1135.5,-187.5 1135.5,-168.5 1070.5,-168.5"/>
<text text-anchor="middle" x="1103" y="-175.5" font-family="Helvetica,sans-Serif" font-size="10.00" fill="#000000">byteorder.h</text>
</a>
</g>
</g>
<!-- Node9&#45;&gt;Node57 -->
<g id="edge19" class="edge">
<title>Node9&#45;&gt;Node57</title>
<path fill="none" stroke="#191970" d="M2007.6185,-232.8262C1849.5657,-228.4778 1314.5439,-212.2744 1145,-188 1142.0321,-187.5751 1138.9662,-187.0388 1135.9055,-186.4363"/>
<polygon fill="#191970" stroke="#191970" points="2007.8154,-236.3327 2017.9072,-233.1071 2008.0065,-229.3354 2007.8154,-236.3327"/>
</g>
<!-- Node66 -->
<g id="node22" class="node">
<title>Node66</title>
<g id="a_node22"><a xlink:href="api_2abi-default_2cpumask_8h.html" target="_top" xlink:title="ODP CPU masks and enumeration. ">
<polygon fill="#ffffff" stroke="#ff0000" points="1153.5,-168.5 1153.5,-187.5 1218.5,-187.5 1218.5,-168.5 1153.5,-168.5"/>
<text text-anchor="middle" x="1186" y="-175.5" font-family="Helvetica,sans-Serif" font-size="10.00" fill="#000000">cpumask.h</text>
</a>
</g>
</g>
<!-- Node9&#45;&gt;Node66 -->
<g id="edge21" class="edge">
<title>Node9&#45;&gt;Node66</title>
<path fill="none" stroke="#191970" d="M2007.7797,-232.5709C1859.4939,-227.6158 1380.6486,-210.2523 1228,-188 1225.0332,-187.5675 1221.9681,-187.026 1218.9079,-186.4202"/>
<polygon fill="#191970" stroke="#191970" points="2007.7653,-236.0723 2017.8759,-232.9061 2007.9976,-229.0761 2007.7653,-236.0723"/>
</g>
<!-- Node90 -->
<g id="node23" class="node">
<title>Node90</title>
<g id="a_node23"><a xlink:href="api_2abi-default_2init_8h.html" target="_top" xlink:title="ODP initialization. ">
<polygon fill="#ffffff" stroke="#ff0000" points="1237,-168.5 1237,-187.5 1275,-187.5 1275,-168.5 1237,-168.5"/>
<text text-anchor="middle" x="1256" y="-175.5" font-family="Helvetica,sans-Serif" font-size="10.00" fill="#000000">init.h</text>
</a>
</g>
</g>
<!-- Node9&#45;&gt;Node90 -->
<g id="edge22" class="edge">
<title>Node9&#45;&gt;Node90</title>
<path fill="none" stroke="#191970" d="M2007.8709,-232.9957C1866.1951,-229.5143 1423.9656,-216.58 1284,-188 1281.0667,-187.401 1278.0252,-186.5602 1275.0753,-185.6178"/>
<polygon fill="#191970" stroke="#191970" points="2007.8513,-236.4962 2017.9331,-233.2394 2008.0208,-229.4982 2007.8513,-236.4962"/>
</g>
<!-- Node98 -->
<g id="node24" class="node">
<title>Node98</title>
<g id="a_node24"><a xlink:href="api_2abi-default_2ipsec_8h.html" target="_top" xlink:title="ODP IPSEC API &#45; platform specific types. ">
<polygon fill="#ffffff" stroke="#ff0000" points="1293,-168.5 1293,-187.5 1341,-187.5 1341,-168.5 1293,-168.5"/>
<text text-anchor="middle" x="1317" y="-175.5" font-family="Helvetica,sans-Serif" font-size="10.00" fill="#000000">ipsec.h</text>
</a>
</g>
</g>
<!-- Node9&#45;&gt;Node98 -->
<g id="edge23" class="edge">
<title>Node9&#45;&gt;Node98</title>
<path fill="none" stroke="#191970" d="M2007.3717,-232.3596C1873.7041,-227.2429 1478.0014,-210.5583 1351,-188 1347.8499,-187.4405 1344.5766,-186.6956 1341.3603,-185.8639"/>
<polygon fill="#191970" stroke="#191970" points="2007.5187,-235.8676 2017.6443,-232.7498 2007.7844,-228.8727 2007.5187,-235.8676"/>
</g>
<!-- Node107 -->
<g id="node25" class="node">
<title>Node107</title>
<g id="a_node25"><a xlink:href="api_2abi-default_2packet__io_8h.html" target="_top" xlink:title="ODP Packet IO. ">
<polygon fill="#ffffff" stroke="#ff0000" points="1359.5,-168.5 1359.5,-187.5 1426.5,-187.5 1426.5,-168.5 1359.5,-168.5"/>
<text text-anchor="middle" x="1393" y="-175.5" font-family="Helvetica,sans-Serif" font-size="10.00" fill="#000000">packet_io.h</text>
</a>
</g>
</g>
<!-- Node9&#45;&gt;Node107 -->
<g id="edge24" class="edge">
<title>Node9&#45;&gt;Node107</title>
<path fill="none" stroke="#191970" d="M2007.5267,-233.0237C1905.7853,-230.2798 1648.4594,-220.4398 1436,-188 1432.9693,-187.5373 1429.8359,-186.975 1426.7059,-186.3556"/>
<polygon fill="#191970" stroke="#191970" points="2007.6473,-236.528 2017.7349,-233.2891 2007.8293,-229.5303 2007.6473,-236.528"/>
</g>
<!-- Node39 -->
<g id="node26" class="node">
<title>Node39</title>
<g id="a_node26"><a xlink:href="api_2abi-default_2rwlock__recursive_8h.html" target="_top" xlink:title="ODP recursive read/write lock. ">
<polygon fill="#ffffff" stroke="#ff0000" points="1445,-168.5 1445,-187.5 1543,-187.5 1543,-168.5 1445,-168.5"/>
<text text-anchor="middle" x="1494" y="-175.5" font-family="Helvetica,sans-Serif" font-size="10.00" fill="#000000">rwlock_recursive.h</text>
</a>
</g>
</g>
<!-- Node9&#45;&gt;Node39 -->
<g id="edge25" class="edge">
<title>Node9&#45;&gt;Node39</title>
<path fill="none" stroke="#191970" d="M2007.8731,-231.1168C1920.5764,-225.1533 1719.7542,-210.1431 1552,-188 1549.0623,-187.6122 1546.0458,-187.184 1543.0062,-186.7294"/>
<polygon fill="#191970" stroke="#191970" points="2007.7327,-234.6152 2017.9464,-231.7991 2008.2058,-227.6313 2007.7327,-234.6152"/>
</g>
<!-- Node133 -->
<g id="node27" class="node">
<title>Node133</title>
<g id="a_node27"><a xlink:href="api_2abi-default_2schedule_8h.html" target="_top" xlink:title="ODP schedule. ">
<polygon fill="#ffffff" stroke="#ff0000" points="1561,-168.5 1561,-187.5 1625,-187.5 1625,-168.5 1561,-168.5"/>
<text text-anchor="middle" x="1593" y="-175.5" font-family="Helvetica,sans-Serif" font-size="10.00" fill="#000000">schedule.h</text>
</a>
</g>
</g>
<!-- Node9&#45;&gt;Node133 -->
<g id="edge26" class="edge">
<title>Node9&#45;&gt;Node133</title>
<path fill="none" stroke="#191970" d="M2007.6937,-231.0212C1931.0878,-225.4489 1769.1082,-211.8074 1634,-188 1631.1138,-187.4914 1628.1285,-186.8976 1625.1457,-186.2577"/>
<polygon fill="#191970" stroke="#191970" points="2007.7003,-234.5306 2017.9248,-231.7542 2008.2005,-227.5485 2007.7003,-234.5306"/>
</g>
<!-- Node141 -->
<g id="node28" class="node">
<title>Node141</title>
<g id="a_node28"><a xlink:href="api_2abi-default_2spinlock__recursive_8h.html" target="_top" xlink:title="ODP recursive spinlock. ">
<polygon fill="#ffffff" stroke="#ff0000" points="1643,-168.5 1643,-187.5 1749,-187.5 1749,-168.5 1643,-168.5"/>
<text text-anchor="middle" x="1696" y="-175.5" font-family="Helvetica,sans-Serif" font-size="10.00" fill="#000000">spinlock_recursive.h</text>
</a>
</g>
</g>
<!-- Node9&#45;&gt;Node141 -->
<g id="edge27" class="edge">
<title>Node9&#45;&gt;Node141</title>
<path fill="none" stroke="#191970" d="M2007.5387,-227.0437C1950.1235,-218.0551 1847.1013,-201.908 1759,-188 1755.8277,-187.4992 1752.5657,-186.9836 1749.2749,-186.4628"/>
<polygon fill="#191970" stroke="#191970" points="2007.2938,-230.5479 2017.7148,-228.6366 2008.3764,-223.6321 2007.2938,-230.5479"/>
</g>
<!-- Node150 -->
<g id="node29" class="node">
<title>Node150</title>
<g id="a_node29"><a xlink:href="api_2abi-default_2traffic__mngr_8h.html" target="_top" xlink:title="ODP traffic mngr. ">
<polygon fill="#ffffff" stroke="#ff0000" points="1767.5,-168.5 1767.5,-187.5 1844.5,-187.5 1844.5,-168.5 1767.5,-168.5"/>
<text text-anchor="middle" x="1806" y="-175.5" font-family="Helvetica,sans-Serif" font-size="10.00" fill="#000000">traffic_mngr.h</text>
</a>
</g>
</g>
<!-- Node9&#45;&gt;Node150 -->
<g id="edge28" class="edge">
<title>Node9&#45;&gt;Node150</title>
<path fill="none" stroke="#191970" d="M2008.0178,-223.9878C1961.5944,-213.4199 1889.1293,-196.9237 1844.7759,-186.827"/>
<polygon fill="#191970" stroke="#191970" points="2007.2673,-227.4064 2017.7948,-226.2134 2008.8211,-220.581 2007.2673,-227.4064"/>
</g>
<!-- Node158 -->
<g id="node30" class="node">
<title>Node158</title>
<g id="a_node30"><a xlink:href="api_2buffer_8h.html" target="_top" xlink:title="ODP buffer descriptor. ">
<polygon fill="#ffffff" stroke="#000000" points="1802,-56.5 1802,-75.5 1852,-75.5 1852,-56.5 1802,-56.5"/>
<text text-anchor="middle" x="1827" y="-63.5" font-family="Helvetica,sans-Serif" font-size="10.00" fill="#000000">buffer.h</text>
</a>
</g>
</g>
<!-- Node9&#45;&gt;Node158 -->
<g id="edge30" class="edge">
<title>Node9&#45;&gt;Node158</title>
<path fill="none" stroke="#191970" d="M2007.6277,-226.4036C1979.0808,-219.8479 1942.3459,-208.1453 1915,-188 1872.5272,-156.711 1842.2913,-98.8403 1831.4253,-75.8184"/>
<polygon fill="#191970" stroke="#191970" points="2007.228,-229.8981 2017.742,-228.5921 2008.7084,-223.0564 2007.228,-229.8981"/>
</g>
<!-- Node115 -->
<g id="node31" class="node">
<title>Node115</title>
<g id="a_node31"><a xlink:href="api_2classification_8h.html" target="_top" xlink:title="ODP classification descriptor. ">
<polygon fill="#ffffff" stroke="#ff0000" points="1870,-56.5 1870,-75.5 1952,-75.5 1952,-56.5 1870,-56.5"/>
<text text-anchor="middle" x="1911" y="-63.5" font-family="Helvetica,sans-Serif" font-size="10.00" fill="#000000">classification.h</text>
</a>
</g>
</g>
<!-- Node9&#45;&gt;Node115 -->
<g id="edge32" class="edge">
<title>Node9&#45;&gt;Node115</title>
<path fill="none" stroke="#191970" d="M2007.991,-228.5857C1981.392,-222.946 1949.0501,-211.4441 1930,-188 1902.6935,-154.3952 1906.6503,-97.8634 1909.5346,-75.5092"/>
<polygon fill="#191970" stroke="#191970" points="2007.3851,-232.0332 2017.8644,-230.4728 2008.6993,-225.1576 2007.3851,-232.0332"/>
</g>
<!-- Node121 -->
<g id="node32" class="node">
<title>Node121</title>
<g id="a_node32"><a xlink:href="api_2crypto_8h.html" target="_top" xlink:title="ODP crypto. ">
<polygon fill="#ffffff" stroke="#ff0000" points="2209,-112.5 2209,-131.5 2261,-131.5 2261,-112.5 2209,-112.5"/>
<text text-anchor="middle" x="2235" y="-119.5" font-family="Helvetica,sans-Serif" font-size="10.00" fill="#000000">crypto.h</text>
</a>
</g>
</g>
<!-- Node9&#45;&gt;Node121 -->
<g id="edge34" class="edge">
<title>Node9&#45;&gt;Node121</title>
<path fill="none" stroke="#191970" d="M2083.8451,-220.1822C2102.4172,-211.6933 2126.0415,-200.1433 2146,-188 2175.2519,-170.2023 2206.8533,-145.2462 2223.3948,-131.6908"/>
<polygon fill="#191970" stroke="#191970" points="2082.3196,-217.0306 2074.6398,-224.3293 2085.195,-223.4129 2082.3196,-217.0306"/>
</g>
<!-- Node117 -->
<g id="node33" class="node">
<title>Node117</title>
<g id="a_node33"><a xlink:href="api_2packet_8h.html" target="_top" xlink:title="ODP packet descriptor. ">
<polygon fill="#ffffff" stroke="#ff0000" points="1939,-168.5 1939,-187.5 1993,-187.5 1993,-168.5 1939,-168.5"/>
<text text-anchor="middle" x="1966" y="-175.5" font-family="Helvetica,sans-Serif" font-size="10.00" fill="#000000">packet.h</text>
</a>
</g>
</g>
<!-- Node9&#45;&gt;Node117 -->
<g id="edge36" class="edge">
<title>Node9&#45;&gt;Node117</title>
<path fill="none" stroke="#191970" d="M2028.6095,-218.769C2013.3701,-208.8456 1993.9491,-196.1994 1980.8084,-187.6427"/>
<polygon fill="#191970" stroke="#191970" points="2026.7301,-221.7218 2037.0199,-224.2455 2030.5498,-215.8558 2026.7301,-221.7218"/>
</g>
<!-- Node131 -->
<g id="node34" class="node">
<title>Node131</title>
<g id="a_node34"><a xlink:href="api_2spec_2packet__flags_8h.html" target="_top" xlink:title="ODP packet flags. ">
<polygon fill="#ffffff" stroke="#ff0000" points="1977,-112.5 1977,-131.5 2057,-131.5 2057,-112.5 1977,-112.5"/>
<text text-anchor="middle" x="2017" y="-119.5" font-family="Helvetica,sans-Serif" font-size="10.00" fill="#000000">packet_flags.h</text>
</a>
</g>
</g>
<!-- Node9&#45;&gt;Node131 -->
<g id="edge51" class="edge">
<title>Node9&#45;&gt;Node131</title>
<path fill="none" stroke="#191970" d="M2045.9371,-214.5987C2038.3634,-190.363 2025.7047,-149.8551 2019.9765,-131.5249"/>
<polygon fill="#191970" stroke="#191970" points="2042.6924,-215.9501 2049.0159,-224.4509 2049.3738,-213.8622 2042.6924,-215.9501"/>
</g>
<!-- Node127 -->
<g id="node35" class="node">
<title>Node127</title>
<g id="a_node35"><a xlink:href="api_2packet__io_8h.html" target="_top" xlink:title="ODP Packet IO. ">
<polygon fill="#ffffff" stroke="#ff0000" points="2049.5,-168.5 2049.5,-187.5 2116.5,-187.5 2116.5,-168.5 2049.5,-168.5"/>
<text text-anchor="middle" x="2083" y="-175.5" font-family="Helvetica,sans-Serif" font-size="10.00" fill="#000000">packet_io.h</text>
</a>
</g>
</g>
<!-- Node9&#45;&gt;Node127 -->
<g id="edge39" class="edge">
<title>Node9&#45;&gt;Node127</title>
<path fill="none" stroke="#191970" d="M2062.3312,-215.3372C2067.4665,-206.0605 2073.4566,-195.2398 2077.6621,-187.6427"/>
<polygon fill="#191970" stroke="#191970" points="2059.1809,-213.8015 2057.3998,-224.2455 2065.3051,-217.1917 2059.1809,-213.8015"/>
</g>
<!-- Node129 -->
<g id="node36" class="node">
<title>Node129</title>
<g id="a_node36"><a xlink:href="api_2spec_2traffic__mngr_8h.html" target="_top" xlink:title="Copyright (c) 2015&#45;2018, Linaro Limited All rights reserved. ">
<polygon fill="#ffffff" stroke="#ff0000" points="2113.5,-112.5 2113.5,-131.5 2190.5,-131.5 2190.5,-112.5 2113.5,-112.5"/>
<text text-anchor="middle" x="2152" y="-119.5" font-family="Helvetica,sans-Serif" font-size="10.00" fill="#000000">traffic_mngr.h</text>
</a>
</g>
</g>
<!-- Node9&#45;&gt;Node129 -->
<g id="edge57" class="edge">
<title>Node9&#45;&gt;Node129</title>
<path fill="none" stroke="#191970" d="M2084.2316,-219.8009C2098.6103,-212.1243 2114.7961,-201.4389 2126,-188 2140.0373,-171.1625 2147.1239,-145.8313 2150.1392,-131.9582"/>
<polygon fill="#191970" stroke="#191970" points="2082.4597,-216.7748 2075.1141,-224.4098 2085.6177,-223.022 2082.4597,-216.7748"/>
</g>
<!-- Node125 -->
<g id="node37" class="node">
<title>Node125</title>
<g id="a_node37"><a xlink:href="api_2queue_8h.html" target="_top" xlink:title="ODP queue. ">
<polygon fill="#ffffff" stroke="#ff0000" points="2211.5,-168.5 2211.5,-187.5 2262.5,-187.5 2262.5,-168.5 2211.5,-168.5"/>
<text text-anchor="middle" x="2237" y="-175.5" font-family="Helvetica,sans-Serif" font-size="10.00" fill="#000000">queue.h</text>
</a>
</g>
</g>
<!-- Node9&#45;&gt;Node125 -->
<g id="edge42" class="edge">
<title>Node9&#45;&gt;Node125</title>
<path fill="none" stroke="#191970" d="M2093.5564,-221.4208C2129.6576,-210.4928 2180.8043,-195.0106 2211.2682,-185.7891"/>
<polygon fill="#191970" stroke="#191970" points="2092.3597,-218.1261 2083.8026,-224.3733 2094.3878,-224.8259 2092.3597,-218.1261"/>
</g>
<!-- Node84 -->
<g id="node38" class="node">
<title>Node84</title>
<g id="a_node38"><a xlink:href="api_2spec_2schedule_8h.html" target="_top" xlink:title="ODP schedule. ">
<polygon fill="#ffffff" stroke="#ff0000" points="2317,-112.5 2317,-131.5 2381,-131.5 2381,-112.5 2317,-112.5"/>
<text text-anchor="middle" x="2349" y="-119.5" font-family="Helvetica,sans-Serif" font-size="10.00" fill="#000000">schedule.h</text>
</a>
</g>
</g>
<!-- Node9&#45;&gt;Node84 -->
<g id="edge53" class="edge">
<title>Node9&#45;&gt;Node84</title>
<path fill="none" stroke="#191970" d="M2096.3563,-231.2305C2142.3495,-226.9055 2215.3229,-215.8955 2272,-188 2300.7507,-173.8494 2327.5397,-146.4607 2340.6249,-131.8089"/>
<polygon fill="#191970" stroke="#191970" points="2095.7776,-227.7677 2086.12,-232.1244 2096.3866,-234.7411 2095.7776,-227.7677"/>
</g>
<!-- Node159 -->
<g id="node39" class="node">
<title>Node159</title>
<g id="a_node39"><a xlink:href="spec_2chksum_8h.html" target="_top" xlink:title="ODP checksum functions. ">
<polygon fill="#ffffff" stroke="#ff0000" points="2319.5,-168.5 2319.5,-187.5 2378.5,-187.5 2378.5,-168.5 2319.5,-168.5"/>
<text text-anchor="middle" x="2349" y="-175.5" font-family="Helvetica,sans-Serif" font-size="10.00" fill="#000000">chksum.h</text>
</a>
</g>
</g>
<!-- Node9&#45;&gt;Node159 -->
<g id="edge46" class="edge">
<title>Node9&#45;&gt;Node159</title>
<path fill="none" stroke="#191970" d="M2095.9936,-226.6005C2146.5518,-217.9579 2231.958,-202.933 2305,-188 2309.605,-187.0585 2314.4683,-186.0091 2319.216,-184.9539"/>
<polygon fill="#191970" stroke="#191970" points="2095.3259,-223.1637 2086.0559,-228.2937 2096.5017,-230.0643 2095.3259,-223.1637"/>
</g>
<!-- Node161 -->
<g id="node40" class="node">
<title>Node161</title>
<g id="a_node40"><a xlink:href="api_2spec_2cpu_8h.html" target="_top" xlink:title="ODP CPU API. ">
<polygon fill="#ffffff" stroke="#ff0000" points="2396.5,-168.5 2396.5,-187.5 2437.5,-187.5 2437.5,-168.5 2396.5,-168.5"/>
<text text-anchor="middle" x="2417" y="-175.5" font-family="Helvetica,sans-Serif" font-size="10.00" fill="#000000">cpu.h</text>
</a>
</g>
</g>
<!-- Node9&#45;&gt;Node161 -->
<g id="edge47" class="edge">
<title>Node9&#45;&gt;Node161</title>
<path fill="none" stroke="#191970" d="M2096.5326,-230.6989C2161.3578,-225.2658 2285.1928,-212.5122 2388,-188 2390.6938,-187.3577 2393.4898,-186.5638 2396.2353,-185.7063"/>
<polygon fill="#191970" stroke="#191970" points="2095.9496,-227.2348 2086.2685,-231.539 2096.5207,-234.2115 2095.9496,-227.2348"/>
</g>
<!-- Node163 -->
<g id="node41" class="node">
<title>Node163</title>
<g id="a_node41"><a xlink:href="spec_2feature_8h.html" target="_top" xlink:title="ODP features. ">
<polygon fill="#ffffff" stroke="#ff0000" points="2455.5,-168.5 2455.5,-187.5 2510.5,-187.5 2510.5,-168.5 2455.5,-168.5"/>
<text text-anchor="middle" x="2483" y="-175.5" font-family="Helvetica,sans-Serif" font-size="10.00" fill="#000000">feature.h</text>
</a>
</g>
</g>
<!-- Node9&#45;&gt;Node163 -->
<g id="edge48" class="edge">
<title>Node9&#45;&gt;Node163</title>
<path fill="none" stroke="#191970" d="M2096.3491,-231.088C2169.7945,-225.7633 2321.0763,-212.6672 2447,-188 2449.6736,-187.4763 2452.4389,-186.8552 2455.1939,-186.1829"/>
<polygon fill="#191970" stroke="#191970" points="2095.8164,-227.6169 2086.0899,-231.8176 2096.3131,-234.5993 2095.8164,-227.6169"/>
</g>
<!-- Node165 -->
<g id="node42" class="node">
<title>Node165</title>
<g id="a_node42"><a xlink:href="api_2spec_2hash_8h.html" target="_top" xlink:title="ODP Hash functions. ">
<polygon fill="#ffffff" stroke="#ff0000" points="2529,-168.5 2529,-187.5 2575,-187.5 2575,-168.5 2529,-168.5"/>
<text text-anchor="middle" x="2552" y="-175.5" font-family="Helvetica,sans-Serif" font-size="10.00" fill="#000000">hash.h</text>
</a>
</g>
</g>
<!-- Node9&#45;&gt;Node165 -->
<g id="edge49" class="edge">
<title>Node9&#45;&gt;Node165</title>
<path fill="none" stroke="#191970" d="M2096.2746,-232.6658C2179.872,-229.4829 2366.357,-219.2138 2520,-188 2522.852,-187.4206 2525.8106,-186.686 2528.7255,-185.8791"/>
<polygon fill="#191970" stroke="#191970" points="2095.9891,-229.1738 2086.1235,-233.0364 2096.2446,-236.1691 2095.9891,-229.1738"/>
</g>
<!-- Node86 -->
<g id="node43" class="node">
<title>Node86</title>
<g id="a_node43"><a xlink:href="api_2spec_2init_8h.html" target="_top" xlink:title="init.h">
<polygon fill="#ffffff" stroke="#ff0000" points="2593,-168.5 2593,-187.5 2631,-187.5 2631,-168.5 2593,-168.5"/>
<text text-anchor="middle" x="2612" y="-175.5" font-family="Helvetica,sans-Serif" font-size="10.00" fill="#000000">init.h</text>
</a>
</g>
</g>
<!-- Node9&#45;&gt;Node86 -->
<g id="edge50" class="edge">
<title>Node9&#45;&gt;Node86</title>
<path fill="none" stroke="#191970" d="M2096.4427,-231.6288C2206.8405,-225.5022 2491.3163,-208.2047 2584,-188 2586.9252,-187.3623 2589.9621,-186.5003 2592.9101,-185.5483"/>
<polygon fill="#191970" stroke="#191970" points="2096.1071,-228.1418 2086.3148,-232.1865 2096.4921,-235.1313 2096.1071,-228.1418"/>
</g>
<!-- Node167 -->
<g id="node44" class="node">
<title>Node167</title>
<g id="a_node44"><a xlink:href="api_2spec_2pool_8h.html" target="_top" xlink:title="ODP pool. ">
<polygon fill="#ffffff" stroke="#ff0000" points="2649.5,-168.5 2649.5,-187.5 2692.5,-187.5 2692.5,-168.5 2649.5,-168.5"/>
<text text-anchor="middle" x="2671" y="-175.5" font-family="Helvetica,sans-Serif" font-size="10.00" fill="#000000">pool.h</text>
</a>
</g>
</g>
<!-- Node9&#45;&gt;Node167 -->
<g id="edge52" class="edge">
<title>Node9&#45;&gt;Node167</title>
<path fill="none" stroke="#191970" d="M2096.5316,-231.8679C2214.992,-225.9805 2535.9075,-208.5655 2640,-188 2643.1068,-187.3862 2646.3377,-186.5624 2649.4899,-185.6499"/>
<polygon fill="#191970" stroke="#191970" points="2096.1859,-228.3806 2086.3705,-232.3693 2096.5309,-235.3721 2096.1859,-228.3806"/>
</g>
<!-- Node169 -->
<g id="node45" class="node">
<title>Node169</title>
<g id="a_node45"><a xlink:href="api_2spec_2stash_8h.html" target="_top" xlink:title="ODP stash. ">
<polygon fill="#ffffff" stroke="#ff0000" points="2710.5,-168.5 2710.5,-187.5 2759.5,-187.5 2759.5,-168.5 2710.5,-168.5"/>
<text text-anchor="middle" x="2735" y="-175.5" font-family="Helvetica,sans-Serif" font-size="10.00" fill="#000000">stash.h</text>
</a>
</g>
</g>
<!-- Node9&#45;&gt;Node169 -->
<g id="edge54" class="edge">
<title>Node9&#45;&gt;Node169</title>
<path fill="none" stroke="#191970" d="M2096.3741,-232.1539C2223.1424,-226.6747 2585.2686,-209.5363 2702,-188 2704.7081,-187.5004 2707.5084,-186.8574 2710.2804,-186.1388"/>
<polygon fill="#191970" stroke="#191970" points="2096.0922,-228.6627 2086.2515,-232.5882 2096.3923,-235.6563 2096.0922,-228.6627"/>
</g>
<!-- Node171 -->
<g id="node46" class="node">
<title>Node171</title>
<g id="a_node46"><a xlink:href="spec_2threshold_8h.html" target="_top" xlink:title="ODP threshold descriptor. ">
<polygon fill="#ffffff" stroke="#ff0000" points="2777.5,-168.5 2777.5,-187.5 2842.5,-187.5 2842.5,-168.5 2777.5,-168.5"/>
<text text-anchor="middle" x="2810" y="-175.5" font-family="Helvetica,sans-Serif" font-size="10.00" fill="#000000">threshold.h</text>
</a>
</g>
</g>
<!-- Node9&#45;&gt;Node171 -->
<g id="edge55" class="edge">
<title>Node9&#45;&gt;Node171</title>
<path fill="none" stroke="#191970" d="M2096.2548,-232.1786C2231.5117,-226.451 2638.1619,-207.9951 2769,-188 2771.7522,-187.5794 2774.5907,-187.0633 2777.4293,-186.4894"/>
<polygon fill="#191970" stroke="#191970" points="2096.0897,-228.6823 2086.2459,-232.6001 2096.3843,-235.6761 2096.0897,-228.6823"/>
</g>
<!-- Node173 -->
<g id="node47" class="node">
<title>Node173</title>
<g id="a_node47"><a xlink:href="api_2spec_2thrmask_8h.html" target="_top" xlink:title="ODP thread masks. ">
<polygon fill="#ffffff" stroke="#ff0000" points="2861,-168.5 2861,-187.5 2921,-187.5 2921,-168.5 2861,-168.5"/>
<text text-anchor="middle" x="2891" y="-175.5" font-family="Helvetica,sans-Serif" font-size="10.00" fill="#000000">thrmask.h</text>
</a>
</g>
</g>
<!-- Node9&#45;&gt;Node173 -->
<g id="edge56" class="edge">
<title>Node9&#45;&gt;Node173</title>
<path fill="none" stroke="#191970" d="M2096.3683,-232.581C2241.9953,-227.7458 2704.4778,-210.9329 2852,-188 2854.9009,-187.549 2857.8997,-186.9769 2860.8862,-186.3354"/>
<polygon fill="#191970" stroke="#191970" points="2095.9198,-229.0938 2086.0405,-232.9214 2096.1504,-236.09 2095.9198,-229.0938"/>
</g>
<!-- Node174 -->
<g id="node48" class="node">
<title>Node174</title>
<g id="a_node48"><a xlink:href="system__info_8h.html" target="_top" xlink:title="ODP system information. ">
<polygon fill="#ffffff" stroke="#000000" points="2580,-56.5 2580,-75.5 2658,-75.5 2658,-56.5 2580,-56.5"/>
<text text-anchor="middle" x="2619" y="-63.5" font-family="Helvetica,sans-Serif" font-size="10.00" fill="#000000">system_info.h</text>
</a>
</g>
</g>
<!-- Node9&#45;&gt;Node174 -->
<g id="edge58" class="edge">
<title>Node9&#45;&gt;Node174</title>
<path fill="none" stroke="#191970" d="M2096.3086,-233.352C2270.6172,-230.59 2901.0404,-218.5166 2930,-188 3012.5431,-101.0191 2758.9114,-74.9588 2658.2676,-68.1509"/>
<polygon fill="#191970" stroke="#191970" points="2096.1502,-229.8539 2086.2061,-233.5097 2096.2595,-236.8531 2096.1502,-229.8539"/>
</g>
<!-- Node175 -->
<g id="node49" class="node">
<title>Node175</title>
<g id="a_node49"><a xlink:href="api_2time_8h.html" target="_top" xlink:title="ODP time. ">
<polygon fill="#ffffff" stroke="#ff0000" points="2807,-56.5 2807,-75.5 2851,-75.5 2851,-56.5 2807,-56.5"/>
<text text-anchor="middle" x="2829" y="-63.5" font-family="Helvetica,sans-Serif" font-size="10.00" fill="#000000">time.h</text>
</a>
</g>
</g>
<!-- Node9&#45;&gt;Node175 -->
<g id="edge60" class="edge">
<title>Node9&#45;&gt;Node175</title>
<path fill="none" stroke="#191970" d="M2096.4295,-233.404C2273.4416,-230.8161 2920.3149,-219.2446 2950,-188 2965.1657,-172.0375 2954.388,-135.3353 2934,-112 2912.3943,-87.271 2875.0205,-75.3099 2851.1802,-69.931"/>
<polygon fill="#191970" stroke="#191970" points="2096.1273,-229.9079 2086.1787,-233.5514 2096.2281,-236.9071 2096.1273,-229.9079"/>
</g>
<!-- Node177 -->
<g id="node50" class="node">
<title>Node177</title>
<g id="a_node50"><a xlink:href="api_2timer_8h.html" target="_top" xlink:title="ODP timer service. ">
<polygon fill="#ffffff" stroke="#000000" points="2935.5,-56.5 2935.5,-75.5 2982.5,-75.5 2982.5,-56.5 2935.5,-56.5"/>
<text text-anchor="middle" x="2959" y="-63.5" font-family="Helvetica,sans-Serif" font-size="10.00" fill="#000000">timer.h</text>
</a>
</g>
</g>
<!-- Node9&#45;&gt;Node177 -->
<g id="edge62" class="edge">
<title>Node9&#45;&gt;Node177</title>
<path fill="none" stroke="#191970" d="M2096.1062,-233.4524C2274.7757,-231.0223 2936.6739,-219.889 2967,-188 2996.6937,-156.776 2974.2646,-98.3578 2963.7049,-75.5073"/>
<polygon fill="#191970" stroke="#191970" points="2095.9651,-229.9538 2086.0128,-233.5873 2096.0588,-236.9532 2095.9651,-229.9538"/>
</g>
<!-- Node11 -->
<g id="node3" class="node">
<title>Node11</title>
<g id="a_node3"><a xlink:href="arch_2arm32-linux_2odp_2api_2abi_2atomic_8h_source.html" target="_top" xlink:title="atomic.h">
<polygon fill="#ffffff" stroke="#000000" points="432,-112.5 432,-131.5 486,-131.5 486,-112.5 432,-112.5"/>
<text text-anchor="middle" x="459" y="-119.5" font-family="Helvetica,sans-Serif" font-size="10.00" fill="#000000">atomic.h</text>
</a>
</g>
</g>
<!-- Node10&#45;&gt;Node11 -->
<g id="edge2" class="edge">
<title>Node10&#45;&gt;Node11</title>
<path fill="none" stroke="#191970" d="M316.0499,-166.4734C350.5517,-155.7395 401.1645,-139.9933 431.9944,-130.4017"/>
<polygon fill="#191970" stroke="#191970" points="314.8469,-163.1821 306.3381,-169.4948 316.9265,-169.8661 314.8469,-163.1821"/>
</g>
<!-- Node12 -->
<g id="node4" class="node">
<title>Node12</title>
<g id="a_node4"><a xlink:href="arch_2arm64-linux_2odp_2api_2abi_2atomic_8h_source.html" target="_top" xlink:title="atomic.h">
<polygon fill="#ffffff" stroke="#000000" points="0,-112.5 0,-131.5 54,-131.5 54,-112.5 0,-112.5"/>
<text text-anchor="middle" x="27" y="-119.5" font-family="Helvetica,sans-Serif" font-size="10.00" fill="#000000">atomic.h</text>
</a>
</g>
</g>
<!-- Node10&#45;&gt;Node12 -->
<g id="edge3" class="edge">
<title>Node10&#45;&gt;Node12</title>
<path fill="none" stroke="#191970" d="M241.9036,-170.817C198.7495,-162.2954 125.4395,-147.3057 63,-132 60.1019,-131.2896 57.083,-130.5116 54.0802,-129.7133"/>
<polygon fill="#191970" stroke="#191970" points="241.4527,-174.2953 251.94,-172.7896 242.8027,-167.4267 241.4527,-174.2953"/>
</g>
<!-- Node13 -->
<g id="node5" class="node">
<title>Node13</title>
<g id="a_node5"><a xlink:href="arch_2default-linux_2odp_2api_2abi_2atomic_8h_source.html" target="_top" xlink:title="atomic.h">
<polygon fill="#ffffff" stroke="#000000" points="72,-112.5 72,-131.5 126,-131.5 126,-112.5 72,-112.5"/>
<text text-anchor="middle" x="99" y="-119.5" font-family="Helvetica,sans-Serif" font-size="10.00" fill="#000000">atomic.h</text>
</a>
</g>
</g>
<!-- Node10&#45;&gt;Node13 -->
<g id="edge4" class="edge">
<title>Node10&#45;&gt;Node13</title>
<path fill="none" stroke="#191970" d="M241.9501,-166.4734C207.4483,-155.7395 156.8355,-139.9933 126.0056,-130.4017"/>
<polygon fill="#191970" stroke="#191970" points="241.0735,-169.8661 251.6619,-169.4948 243.1531,-163.1821 241.0735,-169.8661"/>
</g>
<!-- Node14 -->
<g id="node6" class="node">
<title>Node14</title>
<g id="a_node6"><a xlink:href="arch_2mips64-linux_2odp_2api_2abi_2atomic_8h_source.html" target="_top" xlink:title="atomic.h">
<polygon fill="#ffffff" stroke="#000000" points="144,-112.5 144,-131.5 198,-131.5 198,-112.5 144,-112.5"/>
<text text-anchor="middle" x="171" y="-119.5" font-family="Helvetica,sans-Serif" font-size="10.00" fill="#000000">atomic.h</text>
</a>
</g>
</g>
<!-- Node10&#45;&gt;Node14 -->
<g id="edge5" class="edge">
<title>Node10&#45;&gt;Node14</title>
<path fill="none" stroke="#191970" d="M251.2229,-163.5971C231.8618,-153.558 206.5615,-140.4393 189.5966,-131.6427"/>
<polygon fill="#191970" stroke="#191970" points="249.6992,-166.7495 260.1878,-168.2455 252.9214,-160.5352 249.6992,-166.7495"/>
</g>
<!-- Node15 -->
<g id="node7" class="node">
<title>Node15</title>
<g id="a_node7"><a xlink:href="arch_2power64-linux_2odp_2api_2abi_2atomic_8h_source.html" target="_top" xlink:title="atomic.h">
<polygon fill="#ffffff" stroke="#000000" points="216,-112.5 216,-131.5 270,-131.5 270,-112.5 216,-112.5"/>
<text text-anchor="middle" x="243" y="-119.5" font-family="Helvetica,sans-Serif" font-size="10.00" fill="#000000">atomic.h</text>
</a>
</g>
</g>
<!-- Node10&#45;&gt;Node15 -->
<g id="edge6" class="edge">
<title>Node10&#45;&gt;Node15</title>
<path fill="none" stroke="#191970" d="M267.1904,-159.6296C261.1856,-150.2887 254.1341,-139.3197 249.1989,-131.6427"/>
<polygon fill="#191970" stroke="#191970" points="264.3775,-161.7264 272.7293,-168.2455 270.2658,-157.9411 264.3775,-161.7264"/>
</g>
<!-- Node16 -->
<g id="node8" class="node">
<title>Node16</title>
<g id="a_node8"><a xlink:href="arch_2x86__32-linux_2odp_2api_2abi_2atomic_8h_source.html" target="_top" xlink:title="atomic.h">
<polygon fill="#ffffff" stroke="#000000" points="288,-112.5 288,-131.5 342,-131.5 342,-112.5 288,-112.5"/>
<text text-anchor="middle" x="315" y="-119.5" font-family="Helvetica,sans-Serif" font-size="10.00" fill="#000000">atomic.h</text>
</a>
</g>
</g>
<!-- Node10&#45;&gt;Node16 -->
<g id="edge7" class="edge">
<title>Node10&#45;&gt;Node16</title>
<path fill="none" stroke="#191970" d="M290.8096,-159.6296C296.8144,-150.2887 303.8659,-139.3197 308.8011,-131.6427"/>
<polygon fill="#191970" stroke="#191970" points="287.7342,-157.9411 285.2707,-168.2455 293.6225,-161.7264 287.7342,-157.9411"/>
</g>
<!-- Node17 -->
<g id="node9" class="node">
<title>Node17</title>
<g id="a_node9"><a xlink:href="arch_2x86__64-linux_2odp_2api_2abi_2atomic_8h_source.html" target="_top" xlink:title="atomic.h">
<polygon fill="#ffffff" stroke="#ff0000" points="360,-112.5 360,-131.5 414,-131.5 414,-112.5 360,-112.5"/>
<text text-anchor="middle" x="387" y="-119.5" font-family="Helvetica,sans-Serif" font-size="10.00" fill="#000000">atomic.h</text>
</a>
</g>
</g>
<!-- Node10&#45;&gt;Node17 -->
<g id="edge8" class="edge">
<title>Node10&#45;&gt;Node17</title>
<path fill="none" stroke="#191970" d="M306.7771,-163.5971C326.1382,-153.558 351.4385,-140.4393 368.4034,-131.6427"/>
<polygon fill="#191970" stroke="#191970" points="305.0786,-160.5352 297.8122,-168.2455 308.3008,-166.7495 305.0786,-160.5352"/>
</g>
<!-- Node20 -->
<g id="node11" class="node">
<title>Node20</title>
<g id="a_node11"><a xlink:href="arch_2arm32-linux_2odp_2api_2abi_2barrier_8h_source.html" target="_top" xlink:title="barrier.h">
<polygon fill="#ffffff" stroke="#000000" points="854,-112.5 854,-131.5 906,-131.5 906,-112.5 854,-112.5"/>
<text text-anchor="middle" x="880" y="-119.5" font-family="Helvetica,sans-Serif" font-size="10.00" fill="#000000">barrier.h</text>
</a>
</g>
</g>
<!-- Node19&#45;&gt;Node20 -->
<g id="edge10" class="edge">
<title>Node19&#45;&gt;Node20</title>
<path fill="none" stroke="#191970" d="M802.2625,-163.46C821.0522,-153.4388 845.5013,-140.3993 861.92,-131.6427"/>
<polygon fill="#191970" stroke="#191970" points="800.4661,-160.4514 793.2896,-168.2455 803.7602,-166.6278 800.4661,-160.4514"/>
</g>
<!-- Node21 -->
<g id="node12" class="node">
<title>Node21</title>
<g id="a_node12"><a xlink:href="arch_2arm64-linux_2odp_2api_2abi_2barrier_8h_source.html" target="_top" xlink:title="barrier.h">
<polygon fill="#ffffff" stroke="#000000" points="504,-112.5 504,-131.5 556,-131.5 556,-112.5 504,-112.5"/>
<text text-anchor="middle" x="530" y="-119.5" font-family="Helvetica,sans-Serif" font-size="10.00" fill="#000000">barrier.h</text>
</a>
</g>
</g>
<!-- Node19&#45;&gt;Node21 -->
<g id="edge11" class="edge">
<title>Node19&#45;&gt;Node21</title>
<path fill="none" stroke="#191970" d="M738.6592,-170.7605C696.6614,-162.2275 625.5537,-147.2667 565,-132 562.1812,-131.2893 559.2454,-130.5112 556.3255,-129.7128"/>
<polygon fill="#191970" stroke="#191970" points="738.19,-174.2364 748.6853,-172.7877 739.5773,-167.3752 738.19,-174.2364"/>
</g>
<!-- Node22 -->
<g id="node13" class="node">
<title>Node22</title>
<g id="a_node13"><a xlink:href="arch_2default-linux_2odp_2api_2abi_2barrier_8h_source.html" target="_top" xlink:title="barrier.h">
<polygon fill="#ffffff" stroke="#000000" points="574,-112.5 574,-131.5 626,-131.5 626,-112.5 574,-112.5"/>
<text text-anchor="middle" x="600" y="-119.5" font-family="Helvetica,sans-Serif" font-size="10.00" fill="#000000">barrier.h</text>
</a>
</g>
</g>
<!-- Node19&#45;&gt;Node22 -->
<g id="edge12" class="edge">
<title>Node19&#45;&gt;Node22</title>
<path fill="none" stroke="#191970" d="M738.9143,-166.4526C705.3113,-155.6996 656.0307,-139.9298 626.0922,-130.3495"/>
<polygon fill="#191970" stroke="#191970" points="738.2097,-169.9019 748.8007,-169.6162 740.3432,-163.2349 738.2097,-169.9019"/>
</g>
<!-- Node23 -->
<g id="node14" class="node">
<title>Node23</title>
<g id="a_node14"><a xlink:href="arch_2mips64-linux_2odp_2api_2abi_2barrier_8h_source.html" target="_top" xlink:title="barrier.h">
<polygon fill="#ffffff" stroke="#000000" points="644,-112.5 644,-131.5 696,-131.5 696,-112.5 644,-112.5"/>
<text text-anchor="middle" x="670" y="-119.5" font-family="Helvetica,sans-Serif" font-size="10.00" fill="#000000">barrier.h</text>
</a>
</g>
</g>
<!-- Node19&#45;&gt;Node23 -->
<g id="edge13" class="edge">
<title>Node19&#45;&gt;Node23</title>
<path fill="none" stroke="#191970" d="M747.7375,-163.46C728.9478,-153.4388 704.4987,-140.3993 688.08,-131.6427"/>
<polygon fill="#191970" stroke="#191970" points="746.2398,-166.6278 756.7104,-168.2455 749.5339,-160.4514 746.2398,-166.6278"/>
</g>
<!-- Node24 -->
<g id="node15" class="node">
<title>Node24</title>
<g id="a_node15"><a xlink:href="arch_2power64-linux_2odp_2api_2abi_2barrier_8h_source.html" target="_top" xlink:title="barrier.h">
<polygon fill="#ffffff" stroke="#000000" points="714,-112.5 714,-131.5 766,-131.5 766,-112.5 714,-112.5"/>
<text text-anchor="middle" x="740" y="-119.5" font-family="Helvetica,sans-Serif" font-size="10.00" fill="#000000">barrier.h</text>
</a>
</g>
</g>
<!-- Node19&#45;&gt;Node24 -->
<g id="edge14" class="edge">
<title>Node19&#45;&gt;Node24</title>
<path fill="none" stroke="#191970" d="M763.5185,-159.6296C757.6804,-150.2887 750.8248,-139.3197 746.0267,-131.6427"/>
<polygon fill="#191970" stroke="#191970" points="760.6354,-161.6206 768.9035,-168.2455 766.5714,-157.9105 760.6354,-161.6206"/>
</g>
<!-- Node25 -->
<g id="node16" class="node">
<title>Node25</title>
<g id="a_node16"><a xlink:href="arch_2x86__32-linux_2odp_2api_2abi_2barrier_8h_source.html" target="_top" xlink:title="barrier.h">
<polygon fill="#ffffff" stroke="#000000" points="784,-112.5 784,-131.5 836,-131.5 836,-112.5 784,-112.5"/>
<text text-anchor="middle" x="810" y="-119.5" font-family="Helvetica,sans-Serif" font-size="10.00" fill="#000000">barrier.h</text>
</a>
</g>
</g>
<!-- Node19&#45;&gt;Node25 -->
<g id="edge15" class="edge">
<title>Node19&#45;&gt;Node25</title>
<path fill="none" stroke="#191970" d="M786.4815,-159.6296C792.3196,-150.2887 799.1752,-139.3197 803.9733,-131.6427"/>
<polygon fill="#191970" stroke="#191970" points="783.4286,-157.9105 781.0965,-168.2455 789.3646,-161.6206 783.4286,-157.9105"/>
</g>
<!-- Node26 -->
<g id="node17" class="node">
<title>Node26</title>
<g id="a_node17"><a xlink:href="arch_2x86__64-linux_2odp_2api_2abi_2barrier_8h_source.html" target="_top" xlink:title="barrier.h">
<polygon fill="#ffffff" stroke="#000000" points="924,-112.5 924,-131.5 976,-131.5 976,-112.5 924,-112.5"/>
<text text-anchor="middle" x="950" y="-119.5" font-family="Helvetica,sans-Serif" font-size="10.00" fill="#000000">barrier.h</text>
</a>
</g>
</g>
<!-- Node19&#45;&gt;Node26 -->
<g id="edge16" class="edge">
<title>Node19&#45;&gt;Node26</title>
<path fill="none" stroke="#191970" d="M811.0857,-166.4526C844.6887,-155.6996 893.9693,-139.9298 923.9078,-130.3495"/>
<polygon fill="#191970" stroke="#191970" points="809.6568,-163.2349 801.1993,-169.6162 811.7903,-169.9019 809.6568,-163.2349"/>
</g>
<!-- Node26&#45;&gt;Node27 -->
<g id="edge17" class="edge">
<title>Node26&#45;&gt;Node27</title>
<path fill="none" stroke="#191970" d="M962.2679,-103.9209C968.6488,-94.5176 976.1931,-83.3997 981.4568,-75.6427"/>
<polygon fill="#191970" stroke="#191970" points="959.338,-102.0055 956.6191,-112.2455 965.1303,-105.936 959.338,-102.0055"/>
</g>
<!-- Node27&#45;&gt;Node28 -->
<g id="edge18" class="edge">
<title>Node27&#45;&gt;Node28</title>
<path fill="none" stroke="#191970" d="M1024.1283,-56.6216C1025.4314,-56.3938 1026.7249,-56.1852 1028,-56 1234.3127,-26.0343 1905.8303,-13.0425 2055.3234,-10.4835"/>
<polygon fill="#191970" stroke="#191970" points="1023.1948,-53.24 1014.0995,-58.6737 1024.5981,-60.0979 1023.1948,-53.24"/>
</g>
<!-- Node58 -->
<g id="node21" class="node">
<title>Node58</title>
<g id="a_node21"><a xlink:href="arch_2arm32-linux_2odp_2api_2abi_2byteorder_8h_source.html" target="_top" xlink:title="byteorder.h">
<polygon fill="#ffffff" stroke="#000000" points="1070.5,-112.5 1070.5,-131.5 1135.5,-131.5 1135.5,-112.5 1070.5,-112.5"/>
<text text-anchor="middle" x="1103" y="-119.5" font-family="Helvetica,sans-Serif" font-size="10.00" fill="#000000">byteorder.h</text>
</a>
</g>
</g>
<!-- Node57&#45;&gt;Node58 -->
<g id="edge20" class="edge">
<title>Node57&#45;&gt;Node58</title>
<path fill="none" stroke="#191970" d="M1103,-158.1575C1103,-149.155 1103,-138.9199 1103,-131.6427"/>
<polygon fill="#191970" stroke="#191970" points="1099.5001,-158.2455 1103,-168.2455 1106.5001,-158.2456 1099.5001,-158.2455"/>
</g>
<!-- Node158&#45;&gt;Node28 -->
<g id="edge31" class="edge">
<title>Node158&#45;&gt;Node28</title>
<path fill="none" stroke="#191970" d="M1862.257,-55.8362C1937.1471,-37.4305 2014.3019,-22.7464 2055.4703,-15.2506"/>
<polygon fill="#191970" stroke="#191970" points="1861.0483,-52.53 1852.187,-58.3376 1862.7358,-59.3236 1861.0483,-52.53"/>
</g>
<!-- Node115&#45;&gt;Node28 -->
<g id="edge33" class="edge">
<title>Node115&#45;&gt;Node28</title>
<path fill="none" stroke="#191970" d="M1950.801,-53.1905C1982.679,-42.9309 2026.6816,-28.7691 2055.4787,-19.5011"/>
<polygon fill="#191970" stroke="#191970" points="1949.3585,-49.9779 1940.9117,-56.3733 1951.5031,-56.6413 1949.3585,-49.9779"/>
</g>
<!-- Node121&#45;&gt;Node28 -->
<g id="edge35" class="edge">
<title>Node121&#45;&gt;Node28</title>
<path fill="none" stroke="#191970" d="M2214.0806,-106.3802C2182.5094,-82.807 2123.6329,-38.8459 2097.7565,-19.5249"/>
<polygon fill="#191970" stroke="#191970" points="2212.1042,-109.2725 2222.2111,-112.4509 2216.2923,-103.6635 2212.1042,-109.2725"/>
</g>
<!-- Node117&#45;&gt;Node28 -->
<g id="edge38" class="edge">
<title>Node117&#45;&gt;Node28</title>
<path fill="none" stroke="#191970" d="M1962.6019,-158.2871C1961.1797,-144.6392 1961.1805,-126.4093 1968,-112 1988.9806,-67.6692 2039.265,-34.8172 2066.5825,-19.5288"/>
<polygon fill="#191970" stroke="#191970" points="1959.1758,-159.0629 1964.0128,-168.4891 1966.1098,-158.1039 1959.1758,-159.0629"/>
</g>
<!-- Node117&#45;&gt;Node131 -->
<g id="edge37" class="edge">
<title>Node117&#45;&gt;Node131</title>
<path fill="none" stroke="#191970" d="M1981.6749,-160.7884C1990.3994,-151.2085 2000.9354,-139.6396 2008.2183,-131.6427"/>
<polygon fill="#191970" stroke="#191970" points="1979.0291,-158.4954 1974.8835,-168.2455 1984.2046,-163.2088 1979.0291,-158.4954"/>
</g>
<!-- Node127&#45;&gt;Node28 -->
<g id="edge41" class="edge">
<title>Node127&#45;&gt;Node28</title>
<path fill="none" stroke="#191970" d="M2083.235,-158.2601C2083.6647,-122.1669 2084.5623,-46.7656 2084.883,-19.8279"/>
<polygon fill="#191970" stroke="#191970" points="2079.7326,-158.4452 2083.1133,-168.4862 2086.7321,-158.5286 2079.7326,-158.4452"/>
</g>
<!-- Node127&#45;&gt;Node129 -->
<g id="edge40" class="edge">
<title>Node127&#45;&gt;Node129</title>
<path fill="none" stroke="#191970" d="M2102.803,-161.928C2114.8636,-152.1397 2129.8714,-139.9595 2140.1188,-131.6427"/>
<polygon fill="#191970" stroke="#191970" points="2100.5779,-159.2262 2095.0189,-168.2455 2104.9891,-164.6614 2100.5779,-159.2262"/>
</g>
<!-- Node125&#45;&gt;Node28 -->
<g id="edge45" class="edge">
<title>Node125&#45;&gt;Node28</title>
<path fill="none" stroke="#191970" d="M2254.9233,-161.2095C2267.0853,-147.7008 2279.3874,-128.3438 2270,-112 2236.9366,-54.4355 2158.1467,-27.2817 2114.8186,-16.3121"/>
<polygon fill="#191970" stroke="#191970" points="2252.3838,-158.8007 2247.9438,-168.4204 2257.4136,-163.6692 2252.3838,-158.8007"/>
</g>
<!-- Node125&#45;&gt;Node121 -->
<g id="edge43" class="edge">
<title>Node125&#45;&gt;Node121</title>
<path fill="none" stroke="#191970" d="M2236.2913,-158.1575C2235.9698,-149.155 2235.6043,-138.9199 2235.3444,-131.6427"/>
<polygon fill="#191970" stroke="#191970" points="2232.7968,-158.3769 2236.6516,-168.2455 2239.7924,-158.127 2232.7968,-158.3769"/>
</g>
<!-- Node125&#45;&gt;Node84 -->
<g id="edge44" class="edge">
<title>Node125&#45;&gt;Node84</title>
<path fill="none" stroke="#191970" d="M2265.3263,-163.8368C2285.5721,-153.7139 2312.2642,-140.3679 2329.9978,-131.5011"/>
<polygon fill="#191970" stroke="#191970" points="2263.6325,-160.7706 2256.2535,-168.3733 2266.763,-167.0316 2263.6325,-160.7706"/>
</g>
<!-- Node174&#45;&gt;Node28 -->
<g id="edge59" class="edge">
<title>Node174&#45;&gt;Node28</title>
<path fill="none" stroke="#191970" d="M2569.6718,-60.827C2460.7696,-49.4066 2202.5139,-22.3236 2114.7703,-13.122"/>
<polygon fill="#191970" stroke="#191970" points="2569.4232,-64.32 2579.7337,-61.8822 2570.1533,-57.3582 2569.4232,-64.32"/>
</g>
<!-- Node175&#45;&gt;Node28 -->
<g id="edge61" class="edge">
<title>Node175&#45;&gt;Node28</title>
<path fill="none" stroke="#191970" d="M2796.4105,-63.547C2672.6673,-54.233 2232.9356,-21.1349 2114.5412,-12.2235"/>
<polygon fill="#191970" stroke="#191970" points="2796.499,-67.0635 2806.7336,-64.324 2797.0245,-60.0832 2796.499,-67.0635"/>
</g>
<!-- Node177&#45;&gt;Node28 -->
<g id="edge63" class="edge">
<title>Node177&#45;&gt;Node28</title>
<path fill="none" stroke="#191970" d="M2925.3807,-62.2554C2906.2357,-60.2105 2881.7937,-57.7467 2860,-56 2569.7941,-32.7406 2217.5773,-15.9834 2114.5946,-11.3146"/>
<polygon fill="#191970" stroke="#191970" points="2925.103,-65.7457 2935.4213,-63.3412 2925.8556,-58.7863 2925.103,-65.7457"/>
</g>
</g>
</svg>
