<?xml version="1.0" encoding="UTF-8" standalone="no"?>
<!DOCTYPE svg PUBLIC "-//W3C//DTD SVG 1.1//EN"
 "http://www.w3.org/Graphics/SVG/1.1/DTD/svg11.dtd">
<!-- Generated by graphviz version 2.40.1 (20161225.0304)
 -->
<!-- Title: ipsec.h Pages: 1 -->
<svg width="1936pt" height="1013pt"
 viewBox="0.00 0.00 1936.00 1013.00" xmlns="http://www.w3.org/2000/svg" xmlns:xlink="http://www.w3.org/1999/xlink">
<g id="graph0" class="graph" transform="scale(1 1) rotate(0) translate(4 1009)">
<title>ipsec.h</title>
<polygon fill="#ffffff" stroke="transparent" points="-4,4 -4,-1009 1932,-1009 1932,4 -4,4"/>
<!-- Node0 -->
<g id="node1" class="node">
<title>Node0</title>
<polygon fill="#bfbfbf" stroke="#000000" points="727,-985.5 727,-1004.5 775,-1004.5 775,-985.5 727,-985.5"/>
<text text-anchor="middle" x="751" y="-992.5" font-family="Helvetica,sans-Serif" font-size="10.00" fill="#000000">ipsec.h</text>
</g>
<!-- Node1 -->
<g id="node2" class="node">
<title>Node1</title>
<polygon fill="#ffffff" stroke="#bfbfbf" points="642,-929.5 642,-948.5 740,-948.5 740,-929.5 642,-929.5"/>
<text text-anchor="middle" x="691" y="-936.5" font-family="Helvetica,sans-Serif" font-size="10.00" fill="#000000">odp/api/abi/ipsec.h</text>
</g>
<!-- Node0&#45;&gt;Node1 -->
<g id="edge1" class="edge">
<title>Node0&#45;&gt;Node1</title>
<path fill="none" stroke="#191970" d="M740.5488,-985.2455C731.7731,-977.0549 719.0446,-965.1749 708.686,-955.5069"/>
<polygon fill="#191970" stroke="#191970" points="711.0301,-952.9072 701.3314,-948.6427 706.2539,-958.0246 711.0301,-952.9072"/>
</g>
<!-- Node2 -->
<g id="node3" class="node">
<title>Node2</title>
<g id="a_node3"><a xlink:href="api_2spec_2ipsec_8h.html" target="_top" xlink:title="ODP IPSEC API. ">
<polygon fill="#ffffff" stroke="#000000" points="758.5,-929.5 758.5,-948.5 865.5,-948.5 865.5,-929.5 758.5,-929.5"/>
<text text-anchor="middle" x="812" y="-936.5" font-family="Helvetica,sans-Serif" font-size="10.00" fill="#000000">odp/api/spec/ipsec.h</text>
</a>
</g>
</g>
<!-- Node0&#45;&gt;Node2 -->
<g id="edge2" class="edge">
<title>Node0&#45;&gt;Node2</title>
<path fill="none" stroke="#191970" d="M761.6254,-985.2455C770.5473,-977.0549 783.488,-965.1749 794.0192,-955.5069"/>
<polygon fill="#191970" stroke="#191970" points="796.4968,-957.9837 801.4964,-948.6427 791.7629,-952.8271 796.4968,-957.9837"/>
</g>
<!-- Node3 -->
<g id="node4" class="node">
<title>Node3</title>
<g id="a_node4"><a xlink:href="visibility__begin_8h_source.html" target="_top" xlink:title="odp/visibility_begin.h">
<polygon fill="#ffffff" stroke="#000000" points="552.5,-.5 552.5,-19.5 659.5,-19.5 659.5,-.5 552.5,-.5"/>
<text text-anchor="middle" x="606" y="-7.5" font-family="Helvetica,sans-Serif" font-size="10.00" fill="#000000">odp/visibility_begin.h</text>
</a>
</g>
</g>
<!-- Node2&#45;&gt;Node3 -->
<g id="edge3" class="edge">
<title>Node2&#45;&gt;Node3</title>
<path fill="none" stroke="#191970" d="M758.4278,-930.1658C755.2417,-929.7432 752.081,-929.3501 749,-929 517.9357,-902.746 455.6392,-935.4747 227,-893 123.0041,-873.6805 0,-927.2752 0,-821.5 0,-821.5 0,-821.5 0,-133 0,-65.8477 66.1631,-76.8395 130,-56 204.9091,-31.546 430.4434,-18.0655 542.039,-12.7301"/>
<polygon fill="#191970" stroke="#191970" points="542.3251,-16.2206 552.1494,-12.2541 541.9958,-9.2283 542.3251,-16.2206"/>
</g>
<!-- Node4 -->
<g id="node5" class="node">
<title>Node4</title>
<g id="a_node5"><a xlink:href="api_2crypto_8h.html" target="_top" xlink:title="ODP crypto. ">
<polygon fill="#ffffff" stroke="#000000" points="862,-694.5 862,-713.5 948,-713.5 948,-694.5 862,-694.5"/>
<text text-anchor="middle" x="905" y="-701.5" font-family="Helvetica,sans-Serif" font-size="10.00" fill="#000000">odp/api/crypto.h</text>
</a>
</g>
</g>
<!-- Node2&#45;&gt;Node4 -->
<g id="edge4" class="edge">
<title>Node2&#45;&gt;Node4</title>
<path fill="none" stroke="#191970" d="M821.6221,-929.3025C837.89,-912.2621 870.5622,-875.123 886,-837 901.3286,-799.1467 904.5772,-750.8577 905.0995,-724.115"/>
<polygon fill="#191970" stroke="#191970" points="908.6021,-723.7896 905.1825,-713.7618 901.6023,-723.7333 908.6021,-723.7896"/>
</g>
<!-- Node12 -->
<g id="node13" class="node">
<title>Node12</title>
<g id="a_node13"><a xlink:href="visibility__end_8h_source.html" target="_top" xlink:title="odp/visibility_end.h">
<polygon fill="#ffffff" stroke="#000000" points="1484,-.5 1484,-19.5 1584,-19.5 1584,-.5 1484,-.5"/>
<text text-anchor="middle" x="1534" y="-7.5" font-family="Helvetica,sans-Serif" font-size="10.00" fill="#000000">odp/visibility_end.h</text>
</a>
</g>
</g>
<!-- Node2&#45;&gt;Node12 -->
<g id="edge114" class="edge">
<title>Node2&#45;&gt;Node12</title>
<path fill="none" stroke="#191970" d="M865.7163,-937.9415C1075.3393,-933.6478 1829.0184,-916.6251 1874,-893 1909.2556,-874.4832 1928,-861.3224 1928,-821.5 1928,-821.5 1928,-821.5 1928,-133 1928,-85.2269 1895.5739,-77.6735 1853,-56 1809.0357,-33.6187 1674.2882,-20.2454 1594.6794,-14.0894"/>
<polygon fill="#191970" stroke="#191970" points="1594.5389,-10.5688 1584.3032,-13.3037 1594.0103,-17.5488 1594.5389,-10.5688"/>
</g>
<!-- Node33 -->
<g id="node35" class="node">
<title>Node33</title>
<g id="a_node35"><a xlink:href="support_8h.html" target="_top" xlink:title="ODP support API &#45; platform specific header. ">
<polygon fill="#ffffff" stroke="#000000" points="1656,-414.5 1656,-433.5 1748,-433.5 1748,-414.5 1656,-414.5"/>
<text text-anchor="middle" x="1702" y="-421.5" font-family="Helvetica,sans-Serif" font-size="10.00" fill="#000000">odp/api/support.h</text>
</a>
</g>
</g>
<!-- Node2&#45;&gt;Node33 -->
<g id="edge67" class="edge">
<title>Node2&#45;&gt;Node33</title>
<path fill="none" stroke="#191970" d="M865.7898,-937.6093C1058.6412,-931.9204 1704,-906.5308 1704,-821.5 1704,-821.5 1704,-821.5 1704,-536 1704,-503.7064 1703.1585,-466.1836 1702.5672,-443.8029"/>
<polygon fill="#191970" stroke="#191970" points="1706.0599,-443.4874 1702.2866,-433.5873 1699.0626,-443.6797 1706.0599,-443.4874"/>
</g>
<!-- Node38 -->
<g id="node37" class="node">
<title>Node38</title>
<g id="a_node37"><a xlink:href="api_2packet__io_8h.html" target="_top" xlink:title="ODP Packet IO. ">
<polygon fill="#ffffff" stroke="#000000" points="534.5,-750.5 534.5,-769.5 635.5,-769.5 635.5,-750.5 534.5,-750.5"/>
<text text-anchor="middle" x="585" y="-757.5" font-family="Helvetica,sans-Serif" font-size="10.00" fill="#000000">odp/api/packet_io.h</text>
</a>
</g>
</g>
<!-- Node2&#45;&gt;Node38 -->
<g id="edge68" class="edge">
<title>Node2&#45;&gt;Node38</title>
<path fill="none" stroke="#191970" d="M805.053,-929.4326C787.4666,-905.7701 738.8132,-843.6956 686,-806 666.7274,-792.2441 642.6837,-781.0948 622.8907,-773.2194"/>
<polygon fill="#191970" stroke="#191970" points="624.1447,-769.9519 613.5551,-769.6193 621.626,-776.483 624.1447,-769.9519"/>
</g>
<!-- Node43 -->
<g id="node42" class="node">
<title>Node43</title>
<g id="a_node42"><a xlink:href="protocols_8h.html" target="_top" xlink:title="ODP protocols. ">
<polygon fill="#ffffff" stroke="#000000" points="1766.5,-873.5 1766.5,-892.5 1865.5,-892.5 1865.5,-873.5 1766.5,-873.5"/>
<text text-anchor="middle" x="1816" y="-880.5" font-family="Helvetica,sans-Serif" font-size="10.00" fill="#000000">odp/api/protocols.h</text>
</a>
</g>
</g>
<!-- Node2&#45;&gt;Node43 -->
<g id="edge86" class="edge">
<title>Node2&#45;&gt;Node43</title>
<path fill="none" stroke="#191970" d="M865.6719,-937.2304C1005.9246,-932.3991 1394.8961,-917.6712 1718,-893 1730.4464,-892.0496 1743.7618,-890.8283 1756.439,-889.5678"/>
<polygon fill="#191970" stroke="#191970" points="1756.8447,-893.0447 1766.4402,-888.5529 1756.1379,-886.0804 1756.8447,-893.0447"/>
</g>
<!-- Node45 -->
<g id="node44" class="node">
<title>Node45</title>
<g id="a_node44"><a xlink:href="api_2classification_8h.html" target="_top" xlink:title="ODP classification descriptor. ">
<polygon fill="#ffffff" stroke="#000000" points="236,-873.5 236,-892.5 352,-892.5 352,-873.5 236,-873.5"/>
<text text-anchor="middle" x="294" y="-880.5" font-family="Helvetica,sans-Serif" font-size="10.00" fill="#000000">odp/api/classification.h</text>
</a>
</g>
</g>
<!-- Node2&#45;&gt;Node45 -->
<g id="edge90" class="edge">
<title>Node2&#45;&gt;Node45</title>
<path fill="none" stroke="#191970" d="M758.4136,-930.2826C755.2311,-929.8306 752.075,-929.3992 749,-929 612.1569,-911.2366 451.403,-896.3904 362.2791,-888.6878"/>
<polygon fill="#191970" stroke="#191970" points="362.5626,-885.1994 352.2994,-887.8293 361.9626,-892.1736 362.5626,-885.1994"/>
</g>
<!-- Node49 -->
<g id="node48" class="node">
<title>Node49</title>
<g id="a_node48"><a xlink:href="api_2traffic__mngr_8h.html" target="_top" xlink:title="ODP Traffic manager. ">
<polygon fill="#ffffff" stroke="#000000" points="579.5,-873.5 579.5,-892.5 690.5,-892.5 690.5,-873.5 579.5,-873.5"/>
<text text-anchor="middle" x="635" y="-880.5" font-family="Helvetica,sans-Serif" font-size="10.00" fill="#000000">odp/api/traffic_mngr.h</text>
</a>
</g>
</g>
<!-- Node2&#45;&gt;Node49 -->
<g id="edge107" class="edge">
<title>Node2&#45;&gt;Node49</title>
<path fill="none" stroke="#191970" d="M781.5726,-929.3733C752.0128,-920.021 706.9774,-905.7725 674.6305,-895.5385"/>
<polygon fill="#191970" stroke="#191970" points="675.6203,-892.1807 665.0303,-892.5011 673.5087,-898.8546 675.6203,-892.1807"/>
</g>
<!-- Node5 -->
<g id="node6" class="node">
<title>Node5</title>
<g id="a_node6"><a xlink:href="api_2std__types_8h.html" target="_top" xlink:title="Standard C language types and definitions for ODP. ">
<polygon fill="#ffffff" stroke="#000000" points="689,-246.5 689,-265.5 791,-265.5 791,-246.5 689,-246.5"/>
<text text-anchor="middle" x="740" y="-253.5" font-family="Helvetica,sans-Serif" font-size="10.00" fill="#000000">odp/api/std_types.h</text>
</a>
</g>
</g>
<!-- Node4&#45;&gt;Node5 -->
<g id="edge5" class="edge">
<title>Node4&#45;&gt;Node5</title>
<path fill="none" stroke="#191970" d="M870.535,-694.4443C827.0863,-680.0495 758,-648.3079 758,-592 758,-592 758,-592 758,-536 758,-447.2802 664.6453,-461.9682 636,-378 620.1618,-331.5734 675.4281,-291.246 711.3986,-270.6258"/>
<polygon fill="#191970" stroke="#191970" points="713.4609,-273.4847 720.515,-265.5796 710.0708,-267.3603 713.4609,-273.4847"/>
</g>
<!-- Node13 -->
<g id="node14" class="node">
<title>Node13</title>
<polygon fill="#ffffff" stroke="#bfbfbf" points="485,-358.5 485,-377.5 589,-377.5 589,-358.5 485,-358.5"/>
<text text-anchor="middle" x="537" y="-365.5" font-family="Helvetica,sans-Serif" font-size="10.00" fill="#000000">odp/api/abi/packet.h</text>
</g>
<!-- Node4&#45;&gt;Node13 -->
<g id="edge16" class="edge">
<title>Node4&#45;&gt;Node13</title>
<path fill="none" stroke="#191970" d="M861.6255,-696.2115C820.0176,-687.9474 761.0667,-673.9044 744,-658 721.1656,-636.7206 720,-623.2125 720,-592 720,-592 720,-592 720,-536 720,-467.0137 653.4198,-481.0845 603,-434 585.5755,-417.7281 566.3799,-398.3603 553.2041,-384.8295"/>
<polygon fill="#191970" stroke="#191970" points="555.6742,-382.3491 546.2009,-377.6048 550.648,-387.2212 555.6742,-382.3491"/>
</g>
<!-- Node14 -->
<g id="node15" class="node">
<title>Node14</title>
<polygon fill="#ffffff" stroke="#bfbfbf" points="1042,-638.5 1042,-657.5 1144,-657.5 1144,-638.5 1042,-638.5"/>
<text text-anchor="middle" x="1093" y="-645.5" font-family="Helvetica,sans-Serif" font-size="10.00" fill="#000000">odp/api/abi/crypto.h</text>
</g>
<!-- Node4&#45;&gt;Node14 -->
<g id="edge17" class="edge">
<title>Node4&#45;&gt;Node14</title>
<path fill="none" stroke="#191970" d="M937.3184,-694.3733C968.8506,-684.9807 1016.9621,-670.6496 1051.3501,-660.4064"/>
<polygon fill="#191970" stroke="#191970" points="1052.5187,-663.7103 1061.1034,-657.5011 1050.5203,-657.0016 1052.5187,-663.7103"/>
</g>
<!-- Node15 -->
<g id="node16" class="node">
<title>Node15</title>
<polygon fill="#ffffff" stroke="#bfbfbf" points="1310,-358.5 1310,-377.5 1410,-377.5 1410,-358.5 1310,-358.5"/>
<text text-anchor="middle" x="1360" y="-365.5" font-family="Helvetica,sans-Serif" font-size="10.00" fill="#000000">odp/api/abi/buffer.h</text>
</g>
<!-- Node4&#45;&gt;Node15 -->
<g id="edge18" class="edge">
<title>Node4&#45;&gt;Node15</title>
<path fill="none" stroke="#191970" d="M915.7421,-694.3959C934.6607,-677.7029 973.4808,-644.4918 990,-638 1074.0943,-604.9524 1334.0034,-668.659 1395,-602 1451.2011,-540.5816 1396.478,-429.7477 1371.2401,-386.2366"/>
<polygon fill="#191970" stroke="#191970" points="1374.2035,-384.3722 1366.0805,-377.5701 1368.1887,-387.9531 1374.2035,-384.3722"/>
</g>
<!-- Node16 -->
<g id="node17" class="node">
<title>Node16</title>
<polygon fill="#ffffff" stroke="#bfbfbf" points="645.5,-358.5 645.5,-377.5 738.5,-377.5 738.5,-358.5 645.5,-358.5"/>
<text text-anchor="middle" x="692" y="-365.5" font-family="Helvetica,sans-Serif" font-size="10.00" fill="#000000">odp/api/abi/pool.h</text>
</g>
<!-- Node4&#45;&gt;Node16 -->
<g id="edge19" class="edge">
<title>Node4&#45;&gt;Node16</title>
<path fill="none" stroke="#191970" d="M875.8991,-694.3806C857.6243,-687.0066 834.7956,-675.1524 820,-658 799.6129,-634.3655 796,-623.2125 796,-592 796,-592 796,-592 796,-536 796,-472.3491 741.3617,-412.7076 711.2913,-384.7034"/>
<polygon fill="#191970" stroke="#191970" points="713.2873,-381.7888 703.5272,-377.6667 708.5864,-386.9756 713.2873,-381.7888"/>
</g>
<!-- Node17 -->
<g id="node18" class="node">
<title>Node17</title>
<g id="a_node18"><a xlink:href="api_2queue_8h.html" target="_top" xlink:title="ODP queue. ">
<polygon fill="#ffffff" stroke="#000000" points="862,-638.5 862,-657.5 948,-657.5 948,-638.5 862,-638.5"/>
<text text-anchor="middle" x="905" y="-645.5" font-family="Helvetica,sans-Serif" font-size="10.00" fill="#000000">odp/api/queue.h</text>
</a>
</g>
</g>
<!-- Node4&#45;&gt;Node17 -->
<g id="edge20" class="edge">
<title>Node4&#45;&gt;Node17</title>
<path fill="none" stroke="#191970" d="M905,-694.2455C905,-686.9382 905,-676.6944 905,-667.7046"/>
<polygon fill="#191970" stroke="#191970" points="908.5001,-667.6426 905,-657.6427 901.5001,-667.6427 908.5001,-667.6426"/>
</g>
<!-- Node37 -->
<g id="node34" class="node">
<title>Node37</title>
<g id="a_node34"><a xlink:href="api_2spec_2crypto_8h.html" target="_top" xlink:title="ODP crypto. ">
<polygon fill="#ffffff" stroke="#000000" points="1452,-470.5 1452,-489.5 1562,-489.5 1562,-470.5 1452,-470.5"/>
<text text-anchor="middle" x="1507" y="-477.5" font-family="Helvetica,sans-Serif" font-size="10.00" fill="#000000">odp/api/spec/crypto.h</text>
</a>
</g>
</g>
<!-- Node4&#45;&gt;Node37 -->
<g id="edge58" class="edge">
<title>Node4&#45;&gt;Node37</title>
<path fill="none" stroke="#191970" d="M922.8392,-694.3157C955.238,-676.8001 1021.4759,-641.3502 1033,-638 1118.7002,-613.086 1357.2735,-649.2306 1433,-602 1470.8542,-578.3904 1492.0708,-527.6213 1501.3246,-499.59"/>
<polygon fill="#191970" stroke="#191970" points="1504.7585,-500.3342 1504.3882,-489.7458 1498.0747,-498.254 1504.7585,-500.3342"/>
</g>
<!-- Node6 -->
<g id="node7" class="node">
<title>Node6</title>
<polygon fill="#ffffff" stroke="#bfbfbf" points="503,-185 503,-204 621,-204 621,-185 503,-185"/>
<text text-anchor="middle" x="562" y="-192" font-family="Helvetica,sans-Serif" font-size="10.00" fill="#000000">odp/api/abi/std_types.h</text>
</g>
<!-- Node5&#45;&gt;Node6 -->
<g id="edge6" class="edge">
<title>Node5&#45;&gt;Node6</title>
<path fill="none" stroke="#191970" d="M712.1875,-246.3906C681.7517,-235.8749 632.8123,-218.966 599.1174,-207.3243"/>
<polygon fill="#191970" stroke="#191970" points="600.212,-203.9995 589.6172,-204.0419 597.926,-210.6157 600.212,-203.9995"/>
</g>
<!-- Node7 -->
<g id="node8" class="node">
<title>Node7</title>
<g id="a_node8"><a xlink:href="api_2spec_2std__types_8h.html" target="_top" xlink:title="Standard C language types and definitions for ODP. ">
<polygon fill="#ffffff" stroke="#000000" points="677,-185 677,-204 803,-204 803,-185 677,-185"/>
<text text-anchor="middle" x="740" y="-192" font-family="Helvetica,sans-Serif" font-size="10.00" fill="#000000">odp/api/spec/std_types.h</text>
</a>
</g>
</g>
<!-- Node5&#45;&gt;Node7 -->
<g id="edge7" class="edge">
<title>Node5&#45;&gt;Node7</title>
<path fill="none" stroke="#191970" d="M740,-246.3906C740,-237.8657 740,-225.1392 740,-214.4235"/>
<polygon fill="#191970" stroke="#191970" points="743.5001,-214.2448 740,-204.2449 736.5001,-214.2449 743.5001,-214.2448"/>
</g>
<!-- Node7&#45;&gt;Node3 -->
<g id="edge8" class="edge">
<title>Node7&#45;&gt;Node3</title>
<path fill="none" stroke="#191970" d="M702.5306,-184.9472C635.5454,-167.0286 499.7444,-126.5986 473,-87 465.2887,-75.5824 465.0069,-67.2222 473,-56 482.602,-42.519 519.2926,-30.4231 551.7098,-22.0221"/>
<polygon fill="#191970" stroke="#191970" points="552.7536,-25.3687 561.5984,-19.5361 551.0468,-18.5799 552.7536,-25.3687"/>
</g>
<!-- Node8 -->
<g id="node9" class="node">
<title>Node8</title>
<polygon fill="#ffffff" stroke="#bfbfbf" points="632.5,-123.5 632.5,-142.5 681.5,-142.5 681.5,-123.5 632.5,-123.5"/>
<text text-anchor="middle" x="657" y="-130.5" font-family="Helvetica,sans-Serif" font-size="10.00" fill="#000000">stdint.h</text>
</g>
<!-- Node7&#45;&gt;Node8 -->
<g id="edge9" class="edge">
<title>Node7&#45;&gt;Node8</title>
<path fill="none" stroke="#191970" d="M727.0313,-184.8906C713.9966,-175.2324 693.6836,-160.1812 678.2845,-148.771"/>
<polygon fill="#191970" stroke="#191970" points="679.9961,-145.6832 669.8777,-142.5419 675.8287,-151.3075 679.9961,-145.6832"/>
</g>
<!-- Node9 -->
<g id="node10" class="node">
<title>Node9</title>
<g id="a_node10"><a xlink:href="api_2align_8h.html" target="_top" xlink:title="ODP alignments. ">
<polygon fill="#ffffff" stroke="#000000" points="700,-123.5 700,-142.5 780,-142.5 780,-123.5 700,-123.5"/>
<text text-anchor="middle" x="740" y="-130.5" font-family="Helvetica,sans-Serif" font-size="10.00" fill="#000000">odp/api/align.h</text>
</a>
</g>
</g>
<!-- Node7&#45;&gt;Node9 -->
<g id="edge10" class="edge">
<title>Node7&#45;&gt;Node9</title>
<path fill="none" stroke="#191970" d="M740,-184.8906C740,-176.3657 740,-163.6392 740,-152.9235"/>
<polygon fill="#191970" stroke="#191970" points="743.5001,-152.7448 740,-142.7449 736.5001,-152.7449 743.5001,-152.7448"/>
</g>
<!-- Node7&#45;&gt;Node12 -->
<g id="edge15" class="edge">
<title>Node7&#45;&gt;Node12</title>
<path fill="none" stroke="#191970" d="M786.6794,-184.9916C898.3902,-162.0832 1174.7739,-104.4419 1214,-87 1235.8582,-77.2807 1235.8697,-65.0828 1258,-56 1296.0435,-40.3861 1404.4882,-25.3047 1473.5726,-16.881"/>
<polygon fill="#191970" stroke="#191970" points="1474.3769,-20.3094 1483.8858,-15.6371 1473.5386,-13.3598 1474.3769,-20.3094"/>
</g>
<!-- Node10 -->
<g id="node11" class="node">
<title>Node10</title>
<polygon fill="#ffffff" stroke="#bfbfbf" points="482.5,-62 482.5,-81 577.5,-81 577.5,-62 482.5,-62"/>
<text text-anchor="middle" x="530" y="-69" font-family="Helvetica,sans-Serif" font-size="10.00" fill="#000000">odp/api/abi/align.h</text>
</g>
<!-- Node9&#45;&gt;Node10 -->
<g id="edge11" class="edge">
<title>Node9&#45;&gt;Node10</title>
<path fill="none" stroke="#191970" d="M707.1875,-123.3906C670.8178,-112.7395 612.0522,-95.5296 572.2637,-83.8772"/>
<polygon fill="#191970" stroke="#191970" points="573.1627,-80.4936 562.5821,-81.0419 571.1953,-87.2114 573.1627,-80.4936"/>
</g>
<!-- Node11 -->
<g id="node12" class="node">
<title>Node11</title>
<g id="a_node12"><a xlink:href="api_2spec_2align_8h.html" target="_top" xlink:title="ODP alignments. ">
<polygon fill="#ffffff" stroke="#000000" points="710,-62 710,-81 814,-81 814,-62 710,-62"/>
<text text-anchor="middle" x="762" y="-69" font-family="Helvetica,sans-Serif" font-size="10.00" fill="#000000">odp/api/spec/align.h</text>
</a>
</g>
</g>
<!-- Node9&#45;&gt;Node11 -->
<g id="edge12" class="edge">
<title>Node9&#45;&gt;Node11</title>
<path fill="none" stroke="#191970" d="M743.4375,-123.3906C746.5513,-114.6862 751.232,-101.6015 755.114,-90.7494"/>
<polygon fill="#191970" stroke="#191970" points="758.4412,-91.8394 758.514,-81.2449 751.8503,-89.4817 758.4412,-91.8394"/>
</g>
<!-- Node11&#45;&gt;Node3 -->
<g id="edge13" class="edge">
<title>Node11&#45;&gt;Node3</title>
<path fill="none" stroke="#191970" d="M737.625,-61.8906C711.2944,-51.5103 669.162,-34.9004 639.6771,-23.2766"/>
<polygon fill="#191970" stroke="#191970" points="640.7907,-19.9534 630.2038,-19.5419 638.2233,-26.4657 640.7907,-19.9534"/>
</g>
<!-- Node11&#45;&gt;Node12 -->
<g id="edge14" class="edge">
<title>Node11&#45;&gt;Node12</title>
<path fill="none" stroke="#191970" d="M795.0112,-61.932C804.0192,-59.6454 813.826,-57.4496 823,-56 947.6853,-36.2978 1325.4961,-18.7721 1473.5575,-12.4759"/>
<polygon fill="#191970" stroke="#191970" points="1473.9711,-15.9616 1483.8143,-12.0421 1473.6753,-8.9679 1473.9711,-15.9616"/>
</g>
<!-- Node17&#45;&gt;Node5 -->
<g id="edge21" class="edge">
<title>Node17&#45;&gt;Node5</title>
<path fill="none" stroke="#191970" d="M904.0938,-638.0847C902.806,-625.1061 900.1339,-601.6928 896,-582 880.0466,-506.0019 881.0022,-484.2928 848,-414 822.1341,-358.907 777.9896,-301.762 754.9672,-273.7083"/>
<polygon fill="#191970" stroke="#191970" points="757.3661,-271.1184 748.2846,-265.6616 751.981,-275.5907 757.3661,-271.1184"/>
</g>
<!-- Node17&#45;&gt;Node15 -->
<g id="edge24" class="edge">
<title>Node17&#45;&gt;Node15</title>
<path fill="none" stroke="#191970" d="M948.1242,-640.3497C1050.51,-621.8049 1301.6665,-573.9277 1328,-546 1369.2059,-502.2996 1366.6977,-424.5167 1362.7976,-387.9897"/>
<polygon fill="#191970" stroke="#191970" points="1366.2243,-387.1764 1361.536,-377.6754 1359.276,-388.0263 1366.2243,-387.1764"/>
</g>
<!-- Node17&#45;&gt;Node16 -->
<g id="edge25" class="edge">
<title>Node17&#45;&gt;Node16</title>
<path fill="none" stroke="#191970" d="M901.8546,-638.1655C890.2068,-603.1532 846.3171,-482.9862 772,-414 757.9004,-400.9118 739.4268,-389.9812 723.7845,-382.0637"/>
<polygon fill="#191970" stroke="#191970" points="724.9984,-378.7619 714.4753,-377.5309 721.9339,-385.0555 724.9984,-378.7619"/>
</g>
<!-- Node18 -->
<g id="node19" class="node">
<title>Node18</title>
<polygon fill="#ffffff" stroke="#bfbfbf" points="1078.5,-358.5 1078.5,-377.5 1177.5,-377.5 1177.5,-358.5 1078.5,-358.5"/>
<text text-anchor="middle" x="1128" y="-365.5" font-family="Helvetica,sans-Serif" font-size="10.00" fill="#000000">odp/api/abi/event.h</text>
</g>
<!-- Node17&#45;&gt;Node18 -->
<g id="edge22" class="edge">
<title>Node17&#45;&gt;Node18</title>
<path fill="none" stroke="#191970" d="M933.227,-638.4852C971.0612,-624.2951 1037.7591,-593.9957 1075,-546 1112.4708,-497.708 1123.5094,-423.3304 1126.7151,-387.9815"/>
<polygon fill="#191970" stroke="#191970" points="1130.2379,-387.8265 1127.5289,-377.5839 1123.2592,-387.2803 1130.2379,-387.8265"/>
</g>
<!-- Node19 -->
<g id="node20" class="node">
<title>Node19</title>
<polygon fill="#ffffff" stroke="#bfbfbf" points="514.5,-582.5 514.5,-601.5 615.5,-601.5 615.5,-582.5 514.5,-582.5"/>
<text text-anchor="middle" x="565" y="-589.5" font-family="Helvetica,sans-Serif" font-size="10.00" fill="#000000">odp/api/abi/queue.h</text>
</g>
<!-- Node17&#45;&gt;Node19 -->
<g id="edge23" class="edge">
<title>Node17&#45;&gt;Node19</title>
<path fill="none" stroke="#191970" d="M861.9388,-640.9076C802.1961,-631.0676 693.8595,-613.2239 625.8678,-602.0253"/>
<polygon fill="#191970" stroke="#191970" points="626.1637,-598.5269 615.7278,-600.3552 625.026,-605.4339 626.1637,-598.5269"/>
</g>
<!-- Node20 -->
<g id="node21" class="node">
<title>Node20</title>
<g id="a_node21"><a xlink:href="api_2spec_2queue_8h.html" target="_top" xlink:title="ODP queue. ">
<polygon fill="#ffffff" stroke="#000000" points="1276,-582.5 1276,-601.5 1386,-601.5 1386,-582.5 1276,-582.5"/>
<text text-anchor="middle" x="1331" y="-589.5" font-family="Helvetica,sans-Serif" font-size="10.00" fill="#000000">odp/api/spec/queue.h</text>
</a>
</g>
</g>
<!-- Node17&#45;&gt;Node20 -->
<g id="edge26" class="edge">
<title>Node17&#45;&gt;Node20</title>
<path fill="none" stroke="#191970" d="M948.2232,-640.1848C952.8684,-639.4142 957.5289,-638.6705 962,-638 1068.0991,-622.0899 1191.946,-607.4515 1265.7882,-599.1384"/>
<polygon fill="#191970" stroke="#191970" points="1266.3212,-602.6006 1275.8688,-598.0078 1265.541,-595.6442 1266.3212,-602.6006"/>
</g>
<!-- Node20&#45;&gt;Node3 -->
<g id="edge27" class="edge">
<title>Node20&#45;&gt;Node3</title>
<path fill="none" stroke="#191970" d="M1309.0216,-582.4165C1210.039,-539.2857 809.2399,-364.9718 781,-358 685.9701,-334.5392 417.7306,-384.0158 342,-322 318.3835,-302.6605 323,-286.5246 323,-256 323,-256 323,-256 323,-133 323,-90.9442 342.7028,-78.8649 378,-56 404.6565,-38.7324 484.6412,-25.3172 542.3518,-17.5399"/>
<polygon fill="#191970" stroke="#191970" points="543.0343,-20.9802 552.4896,-16.2003 542.1172,-14.0405 543.0343,-20.9802"/>
</g>
<!-- Node20&#45;&gt;Node12 -->
<g id="edge57" class="edge">
<title>Node20&#45;&gt;Node12</title>
<path fill="none" stroke="#191970" d="M1375.0843,-582.4446C1427.1131,-569.2652 1513.7721,-541.1253 1571,-490 1627.2503,-439.7481 1738,-269.9278 1738,-194.5 1738,-194.5 1738,-194.5 1738,-133 1738,-93.3621 1724.2706,-80.3579 1693,-56 1664.7703,-34.0108 1626.3835,-22.5297 1594.4001,-16.5368"/>
<polygon fill="#191970" stroke="#191970" points="1594.7131,-13.0389 1584.2619,-14.7776 1593.5162,-19.9359 1594.7131,-13.0389"/>
</g>
<!-- Node21 -->
<g id="node22" class="node">
<title>Node21</title>
<g id="a_node22"><a xlink:href="api_2event_8h.html" target="_top" xlink:title="ODP event. ">
<polygon fill="#ffffff" stroke="#000000" points="1236.5,-526.5 1236.5,-545.5 1319.5,-545.5 1319.5,-526.5 1236.5,-526.5"/>
<text text-anchor="middle" x="1278" y="-533.5" font-family="Helvetica,sans-Serif" font-size="10.00" fill="#000000">odp/api/event.h</text>
</a>
</g>
</g>
<!-- Node20&#45;&gt;Node21 -->
<g id="edge28" class="edge">
<title>Node20&#45;&gt;Node21</title>
<path fill="none" stroke="#191970" d="M1321.7681,-582.2455C1314.1683,-574.2155 1303.2123,-562.6394 1294.1632,-553.0781"/>
<polygon fill="#191970" stroke="#191970" points="1296.542,-550.4998 1287.1261,-545.6427 1291.4579,-555.3115 1296.542,-550.4998"/>
</g>
<!-- Node29 -->
<g id="node30" class="node">
<title>Node29</title>
<g id="a_node30"><a xlink:href="queue__types_8h.html" target="_top" xlink:title="ODP queue types. ">
<polygon fill="#ffffff" stroke="#000000" points="1418.5,-179.5 1418.5,-209.5 1519.5,-209.5 1519.5,-179.5 1418.5,-179.5"/>
<text text-anchor="start" x="1426.5" y="-197.5" font-family="Helvetica,sans-Serif" font-size="10.00" fill="#000000">odp/api/spec/queue</text>
<text text-anchor="middle" x="1469" y="-186.5" font-family="Helvetica,sans-Serif" font-size="10.00" fill="#000000">_types.h</text>
</a>
</g>
</g>
<!-- Node20&#45;&gt;Node29 -->
<g id="edge49" class="edge">
<title>Node20&#45;&gt;Node29</title>
<path fill="none" stroke="#191970" d="M1334.9355,-582.4875C1338.7818,-573.187 1344.8008,-558.6232 1350,-546 1380.741,-471.3639 1393.0067,-454.4193 1419,-378 1437.8867,-322.474 1454.6356,-255.6598 1463.1209,-219.9535"/>
<polygon fill="#191970" stroke="#191970" points="1466.5987,-220.4537 1465.4821,-209.9179 1459.7847,-218.8504 1466.5987,-220.4537"/>
</g>
<!-- Node21&#45;&gt;Node18 -->
<g id="edge29" class="edge">
<title>Node21&#45;&gt;Node18</title>
<path fill="none" stroke="#191970" d="M1256.7645,-526.3837C1240.6495,-518.3319 1218.6694,-505.6533 1203,-490 1171.926,-458.958 1148.0234,-412.6614 1136.1922,-386.9464"/>
<polygon fill="#191970" stroke="#191970" points="1139.2817,-385.2815 1132.0022,-377.5834 1132.8922,-388.1408 1139.2817,-385.2815"/>
</g>
<!-- Node22 -->
<g id="node23" class="node">
<title>Node22</title>
<g id="a_node23"><a xlink:href="api_2spec_2event_8h.html" target="_top" xlink:title="ODP event. ">
<polygon fill="#ffffff" stroke="#000000" points="1212.5,-470.5 1212.5,-489.5 1319.5,-489.5 1319.5,-470.5 1212.5,-470.5"/>
<text text-anchor="middle" x="1266" y="-477.5" font-family="Helvetica,sans-Serif" font-size="10.00" fill="#000000">odp/api/spec/event.h</text>
</a>
</g>
</g>
<!-- Node21&#45;&gt;Node22 -->
<g id="edge30" class="edge">
<title>Node21&#45;&gt;Node22</title>
<path fill="none" stroke="#191970" d="M1275.9098,-526.2455C1274.3439,-518.9382 1272.1488,-508.6944 1270.2224,-499.7046"/>
<polygon fill="#191970" stroke="#191970" points="1273.584,-498.6873 1268.0663,-489.6427 1266.7393,-500.1541 1273.584,-498.6873"/>
</g>
<!-- Node22&#45;&gt;Node3 -->
<g id="edge31" class="edge">
<title>Node22&#45;&gt;Node3</title>
<path fill="none" stroke="#191970" d="M1262.8237,-470.2308C1255.331,-448.2812 1234.8324,-394.1562 1204,-358 1066.4645,-196.7164 989.4209,-191.9916 789,-123 720.4901,-99.4166 683.2288,-136.1576 630,-87 614.1359,-72.3493 608.6757,-47.4065 606.8415,-29.8887"/>
<polygon fill="#191970" stroke="#191970" points="610.3113,-29.3482 606.087,-19.632 603.3302,-29.8618 610.3113,-29.3482"/>
</g>
<!-- Node22&#45;&gt;Node12 -->
<g id="edge48" class="edge">
<title>Node22&#45;&gt;Node12</title>
<path fill="none" stroke="#191970" d="M1266.3776,-470.3597C1267.7103,-448.2086 1273.7401,-392.9073 1301,-358 1381.8889,-254.4187 1461.9387,-300.7494 1557,-210 1582.5932,-185.5677 1584.3933,-174.755 1600,-143 1617.5,-107.3928 1640.3922,-90.0335 1620,-56 1610.9913,-40.9649 1595.2066,-30.5677 1579.5987,-23.5159"/>
<polygon fill="#191970" stroke="#191970" points="1580.5449,-20.1203 1569.9657,-19.546 1577.8777,-26.5923 1580.5449,-20.1203"/>
</g>
<!-- Node23 -->
<g id="node24" class="node">
<title>Node23</title>
<g id="a_node24"><a xlink:href="api_2packet_8h.html" target="_top" xlink:title="ODP packet descriptor. ">
<polygon fill="#ffffff" stroke="#000000" points="976.5,-414.5 976.5,-433.5 1065.5,-433.5 1065.5,-414.5 976.5,-414.5"/>
<text text-anchor="middle" x="1021" y="-421.5" font-family="Helvetica,sans-Serif" font-size="10.00" fill="#000000">odp/api/packet.h</text>
</a>
</g>
</g>
<!-- Node22&#45;&gt;Node23 -->
<g id="edge32" class="edge">
<title>Node22&#45;&gt;Node23</title>
<path fill="none" stroke="#191970" d="M1224.1614,-470.4369C1182.2315,-460.8529 1117.6052,-446.0812 1072.5376,-435.78"/>
<polygon fill="#191970" stroke="#191970" points="1073.1946,-432.34 1062.6661,-433.5237 1071.6347,-439.164 1073.1946,-432.34"/>
</g>
<!-- Node23&#45;&gt;Node5 -->
<g id="edge33" class="edge">
<title>Node23&#45;&gt;Node5</title>
<path fill="none" stroke="#191970" d="M1003.0076,-414.4471C986.0713,-405.3567 960.0804,-391.1522 938,-378 884.085,-345.8854 872.5713,-334.6846 819,-302 801.4972,-291.3213 781.5414,-279.706 766.0656,-270.8188"/>
<polygon fill="#191970" stroke="#191970" points="767.4883,-267.6004 757.0707,-265.6706 764.0111,-273.6757 767.4883,-267.6004"/>
</g>
<!-- Node23&#45;&gt;Node13 -->
<g id="edge36" class="edge">
<title>Node23&#45;&gt;Node13</title>
<path fill="none" stroke="#191970" d="M976.334,-418.832C889.6547,-408.803 698.466,-386.682 599.3394,-375.2128"/>
<polygon fill="#191970" stroke="#191970" points="599.506,-371.7088 589.17,-374.0362 598.7014,-378.6624 599.506,-371.7088"/>
</g>
<!-- Node23&#45;&gt;Node15 -->
<g id="edge37" class="edge">
<title>Node23&#45;&gt;Node15</title>
<path fill="none" stroke="#191970" d="M1065.6669,-416.6214C1125.7778,-406.6916 1232.8906,-388.9974 1299.9887,-377.9134"/>
<polygon fill="#191970" stroke="#191970" points="1300.6982,-381.3437 1309.994,-376.2606 1299.5572,-374.4373 1300.6982,-381.3437"/>
</g>
<!-- Node23&#45;&gt;Node16 -->
<g id="edge38" class="edge">
<title>Node23&#45;&gt;Node16</title>
<path fill="none" stroke="#191970" d="M976.2872,-416.3893C917.2503,-406.3405 813.2554,-388.6392 748.7426,-377.6583"/>
<polygon fill="#191970" stroke="#191970" points="749.1861,-374.1835 738.7406,-375.9558 748.0115,-381.0843 749.1861,-374.1835"/>
</g>
<!-- Node23&#45;&gt;Node18 -->
<g id="edge34" class="edge">
<title>Node23&#45;&gt;Node18</title>
<path fill="none" stroke="#191970" d="M1039.638,-414.2455C1056.4386,-405.4527 1081.3634,-392.4079 1100.4618,-382.4125"/>
<polygon fill="#191970" stroke="#191970" points="1102.3386,-385.3807 1109.5756,-377.6427 1099.0927,-379.1787 1102.3386,-385.3807"/>
</g>
<!-- Node24 -->
<g id="node25" class="node">
<title>Node24</title>
<polygon fill="#ffffff" stroke="#bfbfbf" points="311.5,-358.5 311.5,-377.5 428.5,-377.5 428.5,-358.5 311.5,-358.5"/>
<text text-anchor="middle" x="370" y="-365.5" font-family="Helvetica,sans-Serif" font-size="10.00" fill="#000000">odp/api/abi/packet_io.h</text>
</g>
<!-- Node23&#45;&gt;Node24 -->
<g id="edge35" class="edge">
<title>Node23&#45;&gt;Node24</title>
<path fill="none" stroke="#191970" d="M976.4808,-420.392C883.4898,-412.8226 661.8449,-394.6089 476,-378 463.9896,-376.9266 451.2172,-375.751 438.8511,-374.5948"/>
<polygon fill="#191970" stroke="#191970" points="438.8681,-371.0811 428.5847,-373.6309 438.2137,-378.0505 438.8681,-371.0811"/>
</g>
<!-- Node25 -->
<g id="node26" class="node">
<title>Node25</title>
<g id="a_node26"><a xlink:href="api_2spec_2packet_8h.html" target="_top" xlink:title="ODP packet descriptor. ">
<polygon fill="#ffffff" stroke="#000000" points="947.5,-358.5 947.5,-377.5 1060.5,-377.5 1060.5,-358.5 947.5,-358.5"/>
<text text-anchor="middle" x="1004" y="-365.5" font-family="Helvetica,sans-Serif" font-size="10.00" fill="#000000">odp/api/spec/packet.h</text>
</a>
</g>
</g>
<!-- Node23&#45;&gt;Node25 -->
<g id="edge39" class="edge">
<title>Node23&#45;&gt;Node25</title>
<path fill="none" stroke="#191970" d="M1018.0388,-414.2455C1015.7962,-406.8579 1012.6423,-396.4689 1009.8919,-387.4087"/>
<polygon fill="#191970" stroke="#191970" points="1013.1812,-386.1948 1006.9272,-377.6427 1006.483,-388.2282 1013.1812,-386.1948"/>
</g>
<!-- Node25&#45;&gt;Node3 -->
<g id="edge40" class="edge">
<title>Node25&#45;&gt;Node3</title>
<path fill="none" stroke="#191970" d="M990.836,-358.3649C959.3696,-335.739 876.6937,-278.6622 800,-246 744.053,-222.1734 722.0697,-237.8252 668,-210 648.6198,-200.0266 649.0663,-189.5612 630,-179 586.477,-154.8918 566.6958,-168.5446 524,-143 492.6977,-124.272 478.5378,-120.4547 464,-87 458.5089,-74.3637 455.8967,-67.1429 464,-56 474.1958,-41.9797 512.5204,-30.0498 546.787,-21.8547"/>
<polygon fill="#191970" stroke="#191970" points="547.8329,-25.2052 556.785,-19.5386 546.2531,-18.3858 547.8329,-25.2052"/>
</g>
<!-- Node25&#45;&gt;Node12 -->
<g id="edge47" class="edge">
<title>Node25&#45;&gt;Node12</title>
<path fill="none" stroke="#191970" d="M1034.9082,-358.4744C1102.144,-337.7798 1266.7614,-287.2576 1405,-246 1459.581,-229.7102 1482.6906,-244.5181 1528,-210 1558.3569,-186.8732 1622.1187,-89.5873 1604,-56 1596.427,-41.9617 1582.4927,-31.5084 1569.0386,-24.1453"/>
<polygon fill="#191970" stroke="#191970" points="1570.3906,-20.9074 1559.885,-19.5353 1567.242,-27.1593 1570.3906,-20.9074"/>
</g>
<!-- Node26 -->
<g id="node27" class="node">
<title>Node26</title>
<g id="a_node27"><a xlink:href="api_2time_8h.html" target="_top" xlink:title="ODP time. ">
<polygon fill="#ffffff" stroke="#000000" points="965,-302.5 965,-321.5 1043,-321.5 1043,-302.5 965,-302.5"/>
<text text-anchor="middle" x="1004" y="-309.5" font-family="Helvetica,sans-Serif" font-size="10.00" fill="#000000">odp/api/time.h</text>
</a>
</g>
</g>
<!-- Node25&#45;&gt;Node26 -->
<g id="edge41" class="edge">
<title>Node25&#45;&gt;Node26</title>
<path fill="none" stroke="#191970" d="M1004,-358.2455C1004,-350.9382 1004,-340.6944 1004,-331.7046"/>
<polygon fill="#191970" stroke="#191970" points="1007.5001,-331.6426 1004,-321.6427 1000.5001,-331.6427 1007.5001,-331.6426"/>
</g>
<!-- Node26&#45;&gt;Node5 -->
<g id="edge42" class="edge">
<title>Node26&#45;&gt;Node5</title>
<path fill="none" stroke="#191970" d="M964.7616,-303.6767C919.7852,-294.1363 845.756,-278.4331 795.0318,-267.6734"/>
<polygon fill="#191970" stroke="#191970" points="795.7219,-264.242 785.2132,-265.5907 794.2693,-271.0896 795.7219,-264.242"/>
</g>
<!-- Node27 -->
<g id="node28" class="node">
<title>Node27</title>
<polygon fill="#ffffff" stroke="#bfbfbf" points="947,-246.5 947,-265.5 1041,-265.5 1041,-246.5 947,-246.5"/>
<text text-anchor="middle" x="994" y="-253.5" font-family="Helvetica,sans-Serif" font-size="10.00" fill="#000000">odp/api/abi/time.h</text>
</g>
<!-- Node26&#45;&gt;Node27 -->
<g id="edge43" class="edge">
<title>Node26&#45;&gt;Node27</title>
<path fill="none" stroke="#191970" d="M1002.2581,-302.2455C1000.9533,-294.9382 999.124,-284.6944 997.5187,-275.7046"/>
<polygon fill="#191970" stroke="#191970" points="1000.9254,-274.8717 995.7219,-265.6427 994.0344,-276.1022 1000.9254,-274.8717"/>
</g>
<!-- Node28 -->
<g id="node29" class="node">
<title>Node28</title>
<g id="a_node29"><a xlink:href="api_2spec_2time_8h.html" target="_top" xlink:title="ODP time. ">
<polygon fill="#ffffff" stroke="#000000" points="954,-62 954,-81 1056,-81 1056,-62 954,-62"/>
<text text-anchor="middle" x="1005" y="-69" font-family="Helvetica,sans-Serif" font-size="10.00" fill="#000000">odp/api/spec/time.h</text>
</a>
</g>
</g>
<!-- Node26&#45;&gt;Node28 -->
<g id="edge44" class="edge">
<title>Node26&#45;&gt;Node28</title>
<path fill="none" stroke="#191970" d="M1018.6852,-302.2577C1029.6154,-294.0536 1043.6898,-281.2342 1050,-266 1075.581,-204.2419 1037.0755,-125.1426 1016.5279,-89.8848"/>
<polygon fill="#191970" stroke="#191970" points="1019.4301,-87.9194 1011.2768,-81.1537 1013.4314,-91.5272 1019.4301,-87.9194"/>
</g>
<!-- Node28&#45;&gt;Node3 -->
<g id="edge45" class="edge">
<title>Node28&#45;&gt;Node3</title>
<path fill="none" stroke="#191970" d="M970.8918,-61.9458C962.4722,-59.7933 953.4457,-57.6579 945,-56 849.9282,-37.3372 738.3712,-23.7809 669.9408,-16.4011"/>
<polygon fill="#191970" stroke="#191970" points="670.0663,-12.8947 659.7513,-15.3136 669.3233,-19.8552 670.0663,-12.8947"/>
</g>
<!-- Node28&#45;&gt;Node12 -->
<g id="edge46" class="edge">
<title>Node28&#45;&gt;Node12</title>
<path fill="none" stroke="#191970" d="M1038.122,-61.965C1046.8089,-59.7341 1056.2072,-57.5573 1065,-56 1210.4458,-30.2408 1384.0075,-17.9357 1473.6881,-12.9197"/>
<polygon fill="#191970" stroke="#191970" points="1473.8834,-16.4143 1483.6767,-12.3718 1473.5,-9.4248 1473.8834,-16.4143"/>
</g>
<!-- Node29&#45;&gt;Node3 -->
<g id="edge50" class="edge">
<title>Node29&#45;&gt;Node3</title>
<path fill="none" stroke="#191970" d="M1418.3336,-181.6266C1372.4335,-169.7402 1308.3749,-152.5293 1284,-143 1265.8575,-135.9072 1263.7741,-128.1952 1245,-123 1011.4697,-58.3772 926.5919,-175.4353 701,-87 692.254,-83.5714 650.1915,-48.0777 625.0615,-26.4958"/>
<polygon fill="#191970" stroke="#191970" points="627.1219,-23.6511 617.2609,-19.7765 622.5534,-28.9548 627.1219,-23.6511"/>
</g>
<!-- Node29&#45;&gt;Node12 -->
<g id="edge56" class="edge">
<title>Node29&#45;&gt;Node12</title>
<path fill="none" stroke="#191970" d="M1464.3413,-179.2699C1458.6787,-163.1689 1447.6322,-138.0613 1430,-123 1393.7648,-92.0481 1356.4639,-125.9454 1329,-87 1321.0598,-75.7403 1320.39,-66.7561 1329,-56 1346.8808,-33.6624 1419.8392,-21.4271 1473.6514,-15.3014"/>
<polygon fill="#191970" stroke="#191970" points="1474.2371,-18.7583 1483.7974,-14.192 1473.4762,-11.7998 1474.2371,-18.7583"/>
</g>
<!-- Node30 -->
<g id="node31" class="node">
<title>Node30</title>
<g id="a_node31"><a xlink:href="api_2schedule__types_8h.html" target="_top" xlink:title="ODP schedule. ">
<polygon fill="#ffffff" stroke="#ff0000" points="1293,-123.5 1293,-142.5 1421,-142.5 1421,-123.5 1293,-123.5"/>
<text text-anchor="middle" x="1357" y="-130.5" font-family="Helvetica,sans-Serif" font-size="10.00" fill="#000000">odp/api/schedule_types.h</text>
</a>
</g>
</g>
<!-- Node29&#45;&gt;Node30 -->
<g id="edge51" class="edge">
<title>Node29&#45;&gt;Node30</title>
<path fill="none" stroke="#191970" d="M1441.6017,-179.4554C1423.8978,-169.734 1400.9805,-157.15 1383.4642,-147.5317"/>
<polygon fill="#191970" stroke="#191970" points="1384.8061,-144.2756 1374.356,-142.5303 1381.4369,-150.4115 1384.8061,-144.2756"/>
</g>
<!-- Node35 -->
<g id="node32" class="node">
<title>Node35</title>
<g id="a_node32"><a xlink:href="deprecated_8h.html" target="_top" xlink:title="Control deprecated API definitions. ">
<polygon fill="#ffffff" stroke="#000000" points="1129.5,-123.5 1129.5,-142.5 1236.5,-142.5 1236.5,-123.5 1129.5,-123.5"/>
<text text-anchor="middle" x="1183" y="-130.5" font-family="Helvetica,sans-Serif" font-size="10.00" fill="#000000">odp/api/deprecated.h</text>
</a>
</g>
</g>
<!-- Node29&#45;&gt;Node35 -->
<g id="edge52" class="edge">
<title>Node29&#45;&gt;Node35</title>
<path fill="none" stroke="#191970" d="M1418.2906,-182.2584C1413.4647,-181.1384 1408.6422,-180.0364 1404,-179 1348.8213,-166.6811 1285.6507,-153.6384 1241.0182,-144.5997"/>
<polygon fill="#191970" stroke="#191970" points="1241.4335,-141.1129 1230.9383,-142.5626 1240.0468,-147.9742 1241.4335,-141.1129"/>
</g>
<!-- Node36 -->
<g id="node33" class="node">
<title>Node36</title>
<g id="a_node33"><a xlink:href="spec_2deprecated_8h.html" target="_top" xlink:title="Macro for deprecated API definitions. ">
<polygon fill="#ffffff" stroke="#000000" points="1074.5,-62 1074.5,-81 1205.5,-81 1205.5,-62 1074.5,-62"/>
<text text-anchor="middle" x="1140" y="-69" font-family="Helvetica,sans-Serif" font-size="10.00" fill="#000000">odp/api/spec/deprecated.h</text>
</a>
</g>
</g>
<!-- Node35&#45;&gt;Node36 -->
<g id="edge53" class="edge">
<title>Node35&#45;&gt;Node36</title>
<path fill="none" stroke="#191970" d="M1176.2813,-123.3906C1170.007,-114.417 1160.4777,-100.7879 1152.7596,-89.7491"/>
<polygon fill="#191970" stroke="#191970" points="1155.4121,-87.4348 1146.8135,-81.2449 1149.6753,-91.4459 1155.4121,-87.4348"/>
</g>
<!-- Node36&#45;&gt;Node3 -->
<g id="edge54" class="edge">
<title>Node36&#45;&gt;Node3</title>
<path fill="none" stroke="#191970" d="M1097.6984,-61.957C1087.0633,-59.7789 1075.6458,-57.629 1065,-56 924.6934,-34.5305 758.6607,-20.7405 669.7721,-14.2871"/>
<polygon fill="#191970" stroke="#191970" points="669.8081,-10.7807 659.583,-13.555 669.3064,-17.7627 669.8081,-10.7807"/>
</g>
<!-- Node36&#45;&gt;Node12 -->
<g id="edge55" class="edge">
<title>Node36&#45;&gt;Node12</title>
<path fill="none" stroke="#191970" d="M1187.313,-61.9602C1198.0434,-59.9005 1209.4003,-57.8023 1220,-56 1307.9827,-41.0402 1410.3389,-26.5951 1473.654,-18.0027"/>
<polygon fill="#191970" stroke="#191970" points="1474.4153,-21.4317 1483.856,-16.623 1473.4771,-14.4948 1474.4153,-21.4317"/>
</g>
<!-- Node37&#45;&gt;Node3 -->
<g id="edge59" class="edge">
<title>Node37&#45;&gt;Node3</title>
<path fill="none" stroke="#191970" d="M1502.3921,-470.4188C1491.1315,-447.9094 1460.1044,-391.0661 1419,-358 1200.0362,-181.8566 1103.7398,-194.6181 832,-123 755.6364,-102.8741 723.6019,-130.9641 658,-87 646.7722,-79.4755 627.9617,-48.8073 616.3069,-28.5195"/>
<polygon fill="#191970" stroke="#191970" points="619.1967,-26.5195 611.2249,-19.5408 613.1048,-29.9676 619.1967,-26.5195"/>
</g>
<!-- Node37&#45;&gt;Node12 -->
<g id="edge66" class="edge">
<title>Node37&#45;&gt;Node12</title>
<path fill="none" stroke="#191970" d="M1513.4684,-470.2563C1541.3887,-427.4314 1651.279,-250.7673 1676,-87 1678.0565,-73.3766 1684.1033,-67.1429 1676,-56 1665.8042,-41.9797 1627.4796,-30.0498 1593.213,-21.8547"/>
<polygon fill="#191970" stroke="#191970" points="1593.7469,-18.3858 1583.215,-19.5386 1592.1671,-25.2052 1593.7469,-18.3858"/>
</g>
<!-- Node37&#45;&gt;Node23 -->
<g id="edge65" class="edge">
<title>Node37&#45;&gt;Node23</title>
<path fill="none" stroke="#191970" d="M1451.7228,-473.6306C1358.0809,-462.8406 1169.3443,-441.0932 1075.9348,-430.3299"/>
<polygon fill="#191970" stroke="#191970" points="1076.1766,-426.8347 1065.8417,-429.1669 1075.3753,-433.7887 1076.1766,-426.8347"/>
</g>
<!-- Node37&#45;&gt;Node35 -->
<g id="edge60" class="edge">
<title>Node37&#45;&gt;Node35</title>
<path fill="none" stroke="#191970" d="M1504.5015,-470.1854C1498.5082,-448.1429 1481.5745,-393.8401 1452,-358 1375.3916,-265.1615 1256.682,-181.5292 1206.583,-148.2499"/>
<polygon fill="#191970" stroke="#191970" points="1208.3289,-145.2089 1198.0524,-142.6311 1204.4783,-151.0548 1208.3289,-145.2089"/>
</g>
<!-- Node37&#45;&gt;Node33 -->
<g id="edge61" class="edge">
<title>Node37&#45;&gt;Node33</title>
<path fill="none" stroke="#191970" d="M1540.5217,-470.3733C1573.3683,-460.9404 1623.5595,-446.5265 1659.2578,-436.2747"/>
<polygon fill="#191970" stroke="#191970" points="1660.2703,-439.6255 1668.9157,-433.5011 1658.3381,-432.8974 1660.2703,-439.6255"/>
</g>
<!-- Node34 -->
<g id="node36" class="node">
<title>Node34</title>
<g id="a_node36"><a xlink:href="spec_2support_8h.html" target="_top" xlink:title="ODP support API. ">
<polygon fill="#ffffff" stroke="#000000" points="1338,-62 1338,-81 1454,-81 1454,-62 1338,-62"/>
<text text-anchor="middle" x="1396" y="-69" font-family="Helvetica,sans-Serif" font-size="10.00" fill="#000000">odp/api/spec/support.h</text>
</a>
</g>
</g>
<!-- Node33&#45;&gt;Node34 -->
<g id="edge62" class="edge">
<title>Node33&#45;&gt;Node34</title>
<path fill="none" stroke="#191970" d="M1696.5025,-414.4284C1676.5964,-380.2188 1605.3701,-261.6457 1528,-179 1493.3707,-142.0095 1445.9213,-106.3499 1418.3547,-86.8292"/>
<polygon fill="#191970" stroke="#191970" points="1420.343,-83.9487 1410.1447,-81.0772 1416.3264,-89.6817 1420.343,-83.9487"/>
</g>
<!-- Node34&#45;&gt;Node3 -->
<g id="edge63" class="edge">
<title>Node34&#45;&gt;Node3</title>
<path fill="none" stroke="#191970" d="M1337.8163,-66.404C1302.0958,-63.3104 1255.4085,-59.3296 1214,-56 1015.4947,-40.0383 780.3995,-22.6945 669.692,-14.6199"/>
<polygon fill="#191970" stroke="#191970" points="669.9202,-11.1273 659.6922,-13.8911 669.4113,-18.1088 669.9202,-11.1273"/>
</g>
<!-- Node34&#45;&gt;Node12 -->
<g id="edge64" class="edge">
<title>Node34&#45;&gt;Node12</title>
<path fill="none" stroke="#191970" d="M1417.5625,-61.8906C1440.5512,-51.6457 1477.156,-35.3326 1503.1824,-23.7339"/>
<polygon fill="#191970" stroke="#191970" points="1504.8796,-26.8095 1512.5889,-19.5419 1502.0302,-20.4156 1504.8796,-26.8095"/>
</g>
<!-- Node38&#45;&gt;Node5 -->
<g id="edge69" class="edge">
<title>Node38&#45;&gt;Node5</title>
<path fill="none" stroke="#191970" d="M573.3195,-750.1746C540.189,-721.1354 448,-631.73 448,-536 448,-536 448,-536 448,-480 448,-424.3681 439.575,-400.0492 476,-358 483.8383,-348.9514 632.7826,-294.5519 703.4176,-269.1058"/>
<polygon fill="#191970" stroke="#191970" points="705.02,-272.249 713.2448,-265.5704 702.6504,-265.6623 705.02,-272.249"/>
</g>
<!-- Node38&#45;&gt;Node13 -->
<g id="edge72" class="edge">
<title>Node38&#45;&gt;Node13</title>
<path fill="none" stroke="#191970" d="M583.4604,-750.4248C579.6538,-728.8726 568.2958,-675.5079 544,-638 531.1756,-618.2016 517.3867,-622.0752 505,-602 488.9714,-576.0224 486,-566.5246 486,-536 486,-536 486,-536 486,-480 486,-444.0802 507.9955,-407.0352 523.0967,-385.8345"/>
<polygon fill="#191970" stroke="#191970" points="526.1163,-387.638 529.2542,-377.5185 520.4906,-383.4725 526.1163,-387.638"/>
</g>
<!-- Node38&#45;&gt;Node16 -->
<g id="edge70" class="edge">
<title>Node38&#45;&gt;Node16</title>
<path fill="none" stroke="#191970" d="M602.3417,-750.4601C630.2423,-733.6916 682,-696.1023 682,-648 682,-648 682,-648 682,-536 682,-482.3936 687.1362,-419.3353 690.0467,-387.9064"/>
<polygon fill="#191970" stroke="#191970" points="693.542,-388.121 691.0046,-377.8345 686.5734,-387.4582 693.542,-388.121"/>
</g>
<!-- Node38&#45;&gt;Node19 -->
<g id="edge74" class="edge">
<title>Node38&#45;&gt;Node19</title>
<path fill="none" stroke="#191970" d="M585.8233,-750.3952C587.3713,-729.6502 589.8935,-679.2009 582,-638 580.2428,-628.828 576.8705,-619.0709 573.5897,-610.914"/>
<polygon fill="#191970" stroke="#191970" points="576.7588,-609.423 569.6114,-601.6021 570.3216,-612.1732 576.7588,-609.423"/>
</g>
<!-- Node38&#45;&gt;Node24 -->
<g id="edge73" class="edge">
<title>Node38&#45;&gt;Node24</title>
<path fill="none" stroke="#191970" d="M567.0367,-750.3825C552.3302,-741.9812 531.4985,-728.8316 516,-714 449.4767,-650.3394 410,-628.0762 410,-536 410,-536 410,-536 410,-480 410,-445.4432 392.903,-408.1996 381.0642,-386.5529"/>
<polygon fill="#191970" stroke="#191970" points="384.0578,-384.7365 376.0751,-377.7703 377.9713,-388.1941 384.0578,-384.7365"/>
</g>
<!-- Node39 -->
<g id="node38" class="node">
<title>Node39</title>
<polygon fill="#ffffff" stroke="#bfbfbf" points="332,-694.5 332,-713.5 464,-713.5 464,-694.5 332,-694.5"/>
<text text-anchor="middle" x="398" y="-701.5" font-family="Helvetica,sans-Serif" font-size="10.00" fill="#000000">odp/api/abi/classification.h</text>
</g>
<!-- Node38&#45;&gt;Node39 -->
<g id="edge71" class="edge">
<title>Node38&#45;&gt;Node39</title>
<path fill="none" stroke="#191970" d="M552.8536,-750.3733C521.4891,-740.9807 473.6335,-726.6496 439.4284,-716.4064"/>
<polygon fill="#191970" stroke="#191970" points="440.3107,-713.0171 429.727,-713.5011 438.3025,-719.7229 440.3107,-713.0171"/>
</g>
<!-- Node40 -->
<g id="node39" class="node">
<title>Node40</title>
<g id="a_node39"><a xlink:href="api_2spec_2packet__io_8h.html" target="_top" xlink:title="ODP Packet IO. ">
<polygon fill="#ffffff" stroke="#000000" points="1128.5,-694.5 1128.5,-713.5 1253.5,-713.5 1253.5,-694.5 1128.5,-694.5"/>
<text text-anchor="middle" x="1191" y="-701.5" font-family="Helvetica,sans-Serif" font-size="10.00" fill="#000000">odp/api/spec/packet_io.h</text>
</a>
</g>
</g>
<!-- Node38&#45;&gt;Node40 -->
<g id="edge75" class="edge">
<title>Node38&#45;&gt;Node40</title>
<path fill="none" stroke="#191970" d="M635.7105,-753.5443C646.0559,-752.3037 656.873,-751.0617 667,-750 827.9094,-733.1305 1017.0662,-717.5791 1118.3076,-709.6008"/>
<polygon fill="#191970" stroke="#191970" points="1118.7277,-713.0786 1128.4227,-708.8058 1118.1792,-706.1002 1118.7277,-713.0786"/>
</g>
<!-- Node40&#45;&gt;Node3 -->
<g id="edge76" class="edge">
<title>Node40&#45;&gt;Node3</title>
<path fill="none" stroke="#191970" d="M1128.4677,-699.1718C1036.513,-691.525 873.44,-675.6714 853,-658 829.9087,-638.0364 834,-622.5246 834,-592 834,-592 834,-592 834,-480 834,-413.403 804.8598,-390.9758 747,-358 564.3093,-253.8799 285,-466.2781 285,-256 285,-256 285,-256 285,-133 285,-92.1957 300.9025,-78.4132 335,-56 368.1893,-34.1838 472.7916,-21.2902 541.9074,-14.9394"/>
<polygon fill="#191970" stroke="#191970" points="542.6085,-18.3907 552.2565,-14.0127 541.9842,-11.4186 542.6085,-18.3907"/>
</g>
<!-- Node40&#45;&gt;Node12 -->
<g id="edge85" class="edge">
<title>Node40&#45;&gt;Node12</title>
<path fill="none" stroke="#191970" d="M1253.7673,-700.1814C1340.2938,-694.1674 1491.1811,-680.7673 1541,-658 1691.8849,-589.0454 1776,-533.8945 1776,-368 1776,-368 1776,-368 1776,-133 1776,-51.6947 1666.1014,-24.1133 1594.4231,-14.7709"/>
<polygon fill="#191970" stroke="#191970" points="1594.492,-11.2535 1584.1426,-13.5206 1593.6468,-18.2023 1594.492,-11.2535"/>
</g>
<!-- Node40&#45;&gt;Node17 -->
<g id="edge82" class="edge">
<title>Node40&#45;&gt;Node17</title>
<path fill="none" stroke="#191970" d="M1142.1598,-694.4369C1090.9004,-684.4001 1010.5835,-668.6737 957.863,-658.3508"/>
<polygon fill="#191970" stroke="#191970" points="958.5149,-654.9121 948.0287,-656.4252 957.1698,-661.7816 958.5149,-654.9121"/>
</g>
<!-- Node40&#45;&gt;Node23 -->
<g id="edge84" class="edge">
<title>Node40&#45;&gt;Node23</title>
<path fill="none" stroke="#191970" d="M1189.8278,-694.2162C1187.9785,-680.9796 1183.6656,-656.8548 1175,-638 1137.9948,-557.4834 1068.8891,-476.3625 1037.3957,-441.5969"/>
<polygon fill="#191970" stroke="#191970" points="1039.5768,-438.7962 1030.2418,-433.7855 1034.4146,-443.524 1039.5768,-438.7962"/>
</g>
<!-- Node40&#45;&gt;Node26 -->
<g id="edge83" class="edge">
<title>Node40&#45;&gt;Node26</title>
<path fill="none" stroke="#191970" d="M1191.5613,-694.1622C1194.5294,-640.5323 1207.4685,-384.8702 1186,-358 1169.524,-337.3786 1101.0348,-324.4368 1052.949,-317.7121"/>
<polygon fill="#191970" stroke="#191970" points="1053.4024,-314.2416 1043.0237,-316.3709 1052.465,-321.1786 1053.4024,-314.2416"/>
</g>
<!-- Node40&#45;&gt;Node35 -->
<g id="edge77" class="edge">
<title>Node40&#45;&gt;Node35</title>
<path fill="none" stroke="#191970" d="M1253.7827,-699.4118C1366.1466,-689.4609 1590,-660.9803 1590,-592 1590,-592 1590,-592 1590,-368 1590,-283.2135 1321.7571,-181.2098 1220.8084,-145.8244"/>
<polygon fill="#191970" stroke="#191970" points="1221.8911,-142.4953 1211.2963,-142.5141 1219.5904,-149.1065 1221.8911,-142.4953"/>
</g>
<!-- Node41 -->
<g id="node40" class="node">
<title>Node41</title>
<g id="a_node40"><a xlink:href="packet__io__stats_8h.html" target="_top" xlink:title="ODP packet IO stats. ">
<polygon fill="#ffffff" stroke="#000000" points="938,-526.5 938,-545.5 1066,-545.5 1066,-526.5 938,-526.5"/>
<text text-anchor="middle" x="1002" y="-533.5" font-family="Helvetica,sans-Serif" font-size="10.00" fill="#000000">odp/api/packet_io_stats.h</text>
</a>
</g>
</g>
<!-- Node40&#45;&gt;Node41 -->
<g id="edge78" class="edge">
<title>Node40&#45;&gt;Node41</title>
<path fill="none" stroke="#191970" d="M1187.0323,-694.1503C1181.1425,-680.4062 1169.0346,-655.2273 1153,-638 1116.904,-599.2189 1063.4145,-567.5267 1030.7354,-550.2448"/>
<polygon fill="#191970" stroke="#191970" points="1032.1909,-547.0569 1021.703,-545.5553 1028.9654,-553.2695 1032.1909,-547.0569"/>
</g>
<!-- Node42 -->
<g id="node41" class="node">
<title>Node42</title>
<g id="a_node41"><a xlink:href="spec_2packet__io__stats_8h.html" target="_top" xlink:title="ODP Packet IO. ">
<polygon fill="#ffffff" stroke="#000000" points="832,-56.5 832,-86.5 936,-86.5 936,-56.5 832,-56.5"/>
<text text-anchor="start" x="840" y="-74.5" font-family="Helvetica,sans-Serif" font-size="10.00" fill="#000000">odp/api/spec/packet</text>
<text text-anchor="middle" x="884" y="-63.5" font-family="Helvetica,sans-Serif" font-size="10.00" fill="#000000">_io_stats.h</text>
</a>
</g>
</g>
<!-- Node41&#45;&gt;Node42 -->
<g id="edge79" class="edge">
<title>Node41&#45;&gt;Node42</title>
<path fill="none" stroke="#191970" d="M997.2135,-526.2741C985.4101,-501.9061 954.6633,-436.0297 938,-378 908.6936,-275.9411 892.5596,-149.9537 886.6444,-96.9196"/>
<polygon fill="#191970" stroke="#191970" points="890.0985,-96.3071 885.5363,-86.7449 883.1397,-97.0651 890.0985,-96.3071"/>
</g>
<!-- Node42&#45;&gt;Node3 -->
<g id="edge80" class="edge">
<title>Node42&#45;&gt;Node3</title>
<path fill="none" stroke="#191970" d="M831.7901,-58.0876C828.8191,-57.3699 825.8733,-56.6693 823,-56 769.0659,-43.4365 707.2545,-30.4731 663.4327,-21.5232"/>
<polygon fill="#191970" stroke="#191970" points="664.0293,-18.0729 653.532,-19.5069 662.6324,-24.9321 664.0293,-18.0729"/>
</g>
<!-- Node42&#45;&gt;Node12 -->
<g id="edge81" class="edge">
<title>Node42&#45;&gt;Node12</title>
<path fill="none" stroke="#191970" d="M936.1196,-57.6329C939.1136,-57.031 942.0891,-56.4799 945,-56 1136.2297,-24.4747 1366.0563,-14.4265 1473.3169,-11.3258"/>
<polygon fill="#191970" stroke="#191970" points="1473.7199,-14.816 1483.6184,-11.0386 1473.5247,-7.8187 1473.7199,-14.816"/>
</g>
<!-- Node44 -->
<g id="node43" class="node">
<title>Node44</title>
<g id="a_node43"><a xlink:href="spec_2protocols_8h.html" target="_top" xlink:title="ODP protocols. ">
<polygon fill="#ffffff" stroke="#000000" points="1472.5,-62 1472.5,-81 1595.5,-81 1595.5,-62 1472.5,-62"/>
<text text-anchor="middle" x="1534" y="-69" font-family="Helvetica,sans-Serif" font-size="10.00" fill="#000000">odp/api/spec/protocols.h</text>
</a>
</g>
</g>
<!-- Node43&#45;&gt;Node44 -->
<g id="edge87" class="edge">
<title>Node43&#45;&gt;Node44</title>
<path fill="none" stroke="#191970" d="M1826.919,-873.3582C1847.5033,-854.0543 1890,-808.3466 1890,-760 1890,-760 1890,-760 1890,-480 1890,-376.7373 1628.1855,-150.1607 1553.6074,-87.7148"/>
<polygon fill="#191970" stroke="#191970" points="1555.7667,-84.9583 1545.8448,-81.2427 1551.2841,-90.3348 1555.7667,-84.9583"/>
</g>
<!-- Node44&#45;&gt;Node3 -->
<g id="edge88" class="edge">
<title>Node44&#45;&gt;Node3</title>
<path fill="none" stroke="#191970" d="M1495.8795,-61.9942C1485.2935,-59.6785 1473.7527,-57.4526 1463,-56 1309.7068,-35.291 841.3148,-17.9146 669.798,-12.0879"/>
<polygon fill="#191970" stroke="#191970" points="669.776,-8.5852 659.6634,-11.7453 669.5394,-15.5812 669.776,-8.5852"/>
</g>
<!-- Node44&#45;&gt;Node12 -->
<g id="edge89" class="edge">
<title>Node44&#45;&gt;Node12</title>
<path fill="none" stroke="#191970" d="M1534,-61.8906C1534,-53.3657 1534,-40.6392 1534,-29.9235"/>
<polygon fill="#191970" stroke="#191970" points="1537.5001,-29.7448 1534,-19.7449 1530.5001,-29.7449 1537.5001,-29.7448"/>
</g>
<!-- Node45&#45;&gt;Node5 -->
<g id="edge91" class="edge">
<title>Node45&#45;&gt;Node5</title>
<path fill="none" stroke="#191970" d="M235.7422,-876.1322C180.7839,-868.6751 103.3048,-855.3292 79,-837 48.0446,-813.6553 38,-798.7713 38,-760 38,-760 38,-760 38,-592 38,-541.2304 283.4625,-358.2602 284,-358 364.8992,-318.837 398.7351,-353.2706 483,-322 499.4364,-315.9005 500.6395,-308.3 517,-302 569.6444,-281.728 632.8928,-269.7627 678.5636,-263.1425"/>
<polygon fill="#191970" stroke="#191970" points="679.1962,-266.5881 688.6121,-261.7309 678.2224,-259.6562 679.1962,-266.5881"/>
</g>
<!-- Node45&#45;&gt;Node13 -->
<g id="edge94" class="edge">
<title>Node45&#45;&gt;Node13</title>
<path fill="none" stroke="#191970" d="M279.5027,-873.1774C268.6761,-864.9291 254.6494,-852.0892 248,-837 211.5485,-754.2827 241.9559,-714.5678 290,-638 358.3445,-529.0793 473.0183,-423.6138 518.04,-384.2265"/>
<polygon fill="#191970" stroke="#191970" points="520.3525,-386.8539 525.6091,-377.6551 515.7634,-381.5681 520.3525,-386.8539"/>
</g>
<!-- Node45&#45;&gt;Node16 -->
<g id="edge92" class="edge">
<title>Node45&#45;&gt;Node16</title>
<path fill="none" stroke="#191970" d="M352.368,-880.3584C456.2044,-875.0563 664.2253,-861.4793 686,-837 695.1571,-826.7056 687.333,-819.7131 686,-806 676.6227,-709.5291 644,-688.9256 644,-592 644,-592 644,-592 644,-536 644,-480.1029 668.8706,-417.6301 682.8072,-387.0106"/>
<polygon fill="#191970" stroke="#191970" points="686.1557,-388.1126 687.2221,-377.5715 679.815,-385.1468 686.1557,-388.1126"/>
</g>
<!-- Node45&#45;&gt;Node19 -->
<g id="edge96" class="edge">
<title>Node45&#45;&gt;Node19</title>
<path fill="none" stroke="#191970" d="M286.3685,-873.2798C269.7038,-850.7916 233.1592,-793.7552 254,-750 299.4231,-654.6346 427.3174,-615.8747 504.2182,-600.8558"/>
<polygon fill="#191970" stroke="#191970" points="505.0723,-604.2567 514.2558,-598.9734 503.782,-597.3766 505.0723,-604.2567"/>
</g>
<!-- Node45&#45;&gt;Node24 -->
<g id="edge95" class="edge">
<title>Node45&#45;&gt;Node24</title>
<path fill="none" stroke="#191970" d="M235.9912,-874.6374C188.5187,-866.7462 126.1925,-853.6515 107,-837 79.1344,-812.8237 76,-796.8916 76,-760 76,-760 76,-760 76,-648 76,-506.0503 257.9404,-414.1583 335.5682,-381.4114"/>
<polygon fill="#191970" stroke="#191970" points="337.0325,-384.5933 344.9337,-377.5349 334.3554,-378.1255 337.0325,-384.5933"/>
</g>
<!-- Node45&#45;&gt;Node39 -->
<g id="edge93" class="edge">
<title>Node45&#45;&gt;Node39</title>
<path fill="none" stroke="#191970" d="M301.5246,-873.4646C316.2182,-854.5426 349.1941,-810.5656 371,-770 379.1404,-754.8564 386.3944,-736.7202 391.3282,-723.2948"/>
<polygon fill="#191970" stroke="#191970" points="394.693,-724.2796 394.7602,-713.685 388.1008,-721.9253 394.693,-724.2796"/>
</g>
<!-- Node46 -->
<g id="node45" class="node">
<title>Node46</title>
<g id="a_node45"><a xlink:href="api_2spec_2classification_8h.html" target="_top" xlink:title="ODP classification descriptor. ">
<polygon fill="#ffffff" stroke="#000000" points="419,-812 419,-831 559,-831 559,-812 419,-812"/>
<text text-anchor="middle" x="489" y="-819" font-family="Helvetica,sans-Serif" font-size="10.00" fill="#000000">odp/api/spec/classification.h</text>
</a>
</g>
</g>
<!-- Node45&#45;&gt;Node46 -->
<g id="edge97" class="edge">
<title>Node45&#45;&gt;Node46</title>
<path fill="none" stroke="#191970" d="M324.4688,-873.3906C357.9544,-862.8298 411.8853,-845.8208 448.812,-834.1747"/>
<polygon fill="#191970" stroke="#191970" points="450.261,-837.3877 458.7452,-831.0419 448.1555,-830.7118 450.261,-837.3877"/>
</g>
<!-- Node46&#45;&gt;Node3 -->
<g id="edge98" class="edge">
<title>Node46&#45;&gt;Node3</title>
<path fill="none" stroke="#191970" d="M418.7179,-812.8364C349.9398,-803.5433 250.6194,-787.7113 216,-770 153.0797,-737.8099 114,-718.6764 114,-648 114,-648 114,-648 114,-133 114,-85.8428 144.7594,-76.9651 187,-56 247.8389,-25.8041 440.7457,-15.2129 542.2091,-11.6717"/>
<polygon fill="#191970" stroke="#191970" points="542.4537,-15.1656 552.3303,-11.3313 542.2183,-8.1696 542.4537,-15.1656"/>
</g>
<!-- Node46&#45;&gt;Node12 -->
<g id="edge106" class="edge">
<title>Node46&#45;&gt;Node12</title>
<path fill="none" stroke="#191970" d="M533.5738,-811.9688C544.7756,-809.7904 556.7979,-807.6374 568,-806 987.7373,-744.6474 1108.9669,-826.4074 1518,-714 1713.1376,-660.3738 1814,-570.3721 1814,-368 1814,-368 1814,-368 1814,-133 1814,-90.9442 1794.2676,-78.9104 1759,-56 1732.3082,-38.6606 1651.3896,-25.0566 1594.2679,-17.2733"/>
<polygon fill="#191970" stroke="#191970" points="1594.6287,-13.7905 1584.2531,-15.9348 1593.7012,-20.7288 1594.6287,-13.7905"/>
</g>
<!-- Node46&#45;&gt;Node33 -->
<g id="edge100" class="edge">
<title>Node46&#45;&gt;Node33</title>
<path fill="none" stroke="#191970" d="M517.7504,-811.9312C575.9892,-792.5548 702.6129,-750.4643 705,-750 1099.254,-673.3166 1249.5177,-846.8355 1604,-658 1639.5205,-639.0779 1666,-632.2462 1666,-592 1666,-592 1666,-592 1666,-536 1666,-501.7942 1681.4074,-464.4094 1692.0631,-442.6445"/>
<polygon fill="#191970" stroke="#191970" points="1695.273,-444.0537 1696.6881,-433.5538 1689.0341,-440.8795 1695.273,-444.0537"/>
</g>
<!-- Node46&#45;&gt;Node38 -->
<g id="edge99" class="edge">
<title>Node46&#45;&gt;Node38</title>
<path fill="none" stroke="#191970" d="M504,-811.8906C519.3581,-802.0519 543.4521,-786.6167 561.3745,-775.1351"/>
<polygon fill="#191970" stroke="#191970" points="563.573,-777.8833 570.1053,-769.5419 559.797,-771.9891 563.573,-777.8833"/>
</g>
<!-- Node47 -->
<g id="node46" class="node">
<title>Node47</title>
<g id="a_node46"><a xlink:href="threshold_8h.html" target="_top" xlink:title="ODP threshold API &#45; platform specific header. ">
<polygon fill="#ffffff" stroke="#000000" points="263.5,-750.5 263.5,-769.5 362.5,-769.5 362.5,-750.5 263.5,-750.5"/>
<text text-anchor="middle" x="313" y="-757.5" font-family="Helvetica,sans-Serif" font-size="10.00" fill="#000000">odp/api/threshold.h</text>
</a>
</g>
</g>
<!-- Node46&#45;&gt;Node47 -->
<g id="edge101" class="edge">
<title>Node46&#45;&gt;Node47</title>
<path fill="none" stroke="#191970" d="M461.5,-811.8906C431.5353,-801.42 383.4317,-784.6111 350.1302,-772.9745"/>
<polygon fill="#191970" stroke="#191970" points="350.9017,-769.5366 340.3069,-769.5419 348.5926,-776.1448 350.9017,-769.5366"/>
</g>
<!-- Node48 -->
<g id="node47" class="node">
<title>Node48</title>
<g id="a_node47"><a xlink:href="spec_2threshold_8h.html" target="_top" xlink:title="ODP threshold descriptor. ">
<polygon fill="#ffffff" stroke="#000000" points="351.5,-302.5 351.5,-321.5 474.5,-321.5 474.5,-302.5 351.5,-302.5"/>
<text text-anchor="middle" x="413" y="-309.5" font-family="Helvetica,sans-Serif" font-size="10.00" fill="#000000">odp/api/spec/threshold.h</text>
</a>
</g>
</g>
<!-- Node47&#45;&gt;Node48 -->
<g id="edge102" class="edge">
<title>Node47&#45;&gt;Node48</title>
<path fill="none" stroke="#191970" d="M298.5809,-750.481C274.33,-733.1955 228,-694.1351 228,-648 228,-648 228,-648 228,-480 228,-422.7977 228.2495,-398.1434 269,-358 282.0736,-345.1211 323.8383,-332.5854 359.0447,-323.8615"/>
<polygon fill="#191970" stroke="#191970" points="359.8769,-327.2612 368.7716,-321.5048 358.2286,-320.458 359.8769,-327.2612"/>
</g>
<!-- Node48&#45;&gt;Node3 -->
<g id="edge103" class="edge">
<title>Node48&#45;&gt;Node3</title>
<path fill="none" stroke="#191970" d="M407.9854,-302.235C398.3075,-282.4555 378,-236.0059 378,-194.5 378,-194.5 378,-194.5 378,-133 378,-97.154 375.6553,-80.3083 402,-56 422.2622,-37.3041 490.2825,-24.6012 542.2634,-17.3606"/>
<polygon fill="#191970" stroke="#191970" points="542.9866,-20.7948 552.4268,-15.9852 542.0477,-13.858 542.9866,-20.7948"/>
</g>
<!-- Node48&#45;&gt;Node5 -->
<g id="edge104" class="edge">
<title>Node48&#45;&gt;Node5</title>
<path fill="none" stroke="#191970" d="M468.8418,-302.4369C527.2116,-292.4408 618.5352,-276.8013 678.8229,-266.4768"/>
<polygon fill="#191970" stroke="#191970" points="679.6963,-269.8783 688.962,-264.7404 678.5147,-262.9787 679.6963,-269.8783"/>
</g>
<!-- Node48&#45;&gt;Node12 -->
<g id="edge105" class="edge">
<title>Node48&#45;&gt;Node12</title>
<path fill="none" stroke="#191970" d="M451.6012,-302.473C522.9271,-284.7936 680.1261,-245.4752 812,-210 949.3618,-173.0485 983.0121,-161.3146 1120,-123 1177.7364,-106.8515 1193.6048,-107.3435 1250,-87 1281.6248,-75.592 1287.0505,-66.4642 1319,-56 1370.1535,-39.246 1430.1888,-26.992 1473.7997,-19.364"/>
<polygon fill="#191970" stroke="#191970" points="1474.4173,-22.8092 1483.6799,-17.6657 1473.2315,-15.9104 1474.4173,-22.8092"/>
</g>
<!-- Node50 -->
<g id="node49" class="node">
<title>Node50</title>
<polygon fill="#ffffff" stroke="#bfbfbf" points="785,-806.5 785,-836.5 877,-836.5 877,-806.5 785,-806.5"/>
<text text-anchor="start" x="793" y="-824.5" font-family="Helvetica,sans-Serif" font-size="10.00" fill="#000000">odp/api/abi/traffic</text>
<text text-anchor="middle" x="831" y="-813.5" font-family="Helvetica,sans-Serif" font-size="10.00" fill="#000000">_mngr.h</text>
</g>
<!-- Node49&#45;&gt;Node50 -->
<g id="edge108" class="edge">
<title>Node49&#45;&gt;Node50</title>
<path fill="none" stroke="#191970" d="M665.625,-873.3906C694.8538,-864.2193 739.5805,-850.1852 775.1529,-839.0235"/>
<polygon fill="#191970" stroke="#191970" points="776.4294,-842.2912 784.9229,-835.9579 774.3337,-835.6123 776.4294,-842.2912"/>
</g>
<!-- Node51 -->
<g id="node50" class="node">
<title>Node51</title>
<g id="a_node50"><a xlink:href="api_2spec_2traffic__mngr_8h.html" target="_top" xlink:title="Copyright (c) 2015&#45;2018, Linaro Limited All rights reserved. ">
<polygon fill="#ffffff" stroke="#000000" points="577,-806.5 577,-836.5 677,-836.5 677,-806.5 577,-806.5"/>
<text text-anchor="start" x="585" y="-824.5" font-family="Helvetica,sans-Serif" font-size="10.00" fill="#000000">odp/api/spec/traffic</text>
<text text-anchor="middle" x="627" y="-813.5" font-family="Helvetica,sans-Serif" font-size="10.00" fill="#000000">_mngr.h</text>
</a>
</g>
</g>
<!-- Node49&#45;&gt;Node51 -->
<g id="edge109" class="edge">
<title>Node49&#45;&gt;Node51</title>
<path fill="none" stroke="#191970" d="M633.75,-873.3906C632.8177,-866.2234 631.499,-856.0862 630.2743,-846.671"/>
<polygon fill="#191970" stroke="#191970" points="633.7178,-846.0095 628.957,-836.5446 626.7763,-846.9126 633.7178,-846.0095"/>
</g>
<!-- Node51&#45;&gt;Node3 -->
<g id="edge110" class="edge">
<title>Node51&#45;&gt;Node3</title>
<path fill="none" stroke="#191970" d="M576.8985,-807.8174C573.8972,-807.1598 570.9145,-806.547 568,-806 429.9409,-780.0881 377.6557,-836.641 254,-770 191.7834,-736.47 152,-718.6764 152,-648 152,-648 152,-648 152,-133 152,-53.1749 416.781,-23.5368 541.9233,-13.9868"/>
<polygon fill="#191970" stroke="#191970" points="542.4241,-17.4593 552.1374,-13.2283 541.9057,-10.4785 542.4241,-17.4593"/>
</g>
<!-- Node51&#45;&gt;Node5 -->
<g id="edge111" class="edge">
<title>Node51&#45;&gt;Node5</title>
<path fill="none" stroke="#191970" d="M576.8893,-806.532C495.2956,-781.7587 340.97,-733.0742 323,-714 302.0685,-691.7823 304,-678.5246 304,-648 304,-648 304,-648 304,-592 304,-487.9962 234.8045,-437.3823 302,-358 333.2983,-321.0253 470.9373,-336.9981 517,-322 535.8996,-315.8463 538.3629,-308.9079 557,-302 597.0101,-287.17 643.681,-275.5226 679.8767,-267.6584"/>
<polygon fill="#191970" stroke="#191970" points="680.7449,-271.052 689.7937,-265.541 679.2833,-264.2062 680.7449,-271.052"/>
</g>
<!-- Node51&#45;&gt;Node12 -->
<g id="edge113" class="edge">
<title>Node51&#45;&gt;Node12</title>
<path fill="none" stroke="#191970" d="M677.3356,-816.1481C706.2053,-813.1076 743.1323,-809.2673 776,-806 895.5025,-794.1204 1852,-824.0915 1852,-704 1852,-704 1852,-704 1852,-133 1852,-97.154 1855.1392,-79.418 1828,-56 1793.9585,-26.6261 1670.2899,-15.9305 1594.6128,-12.0931"/>
<polygon fill="#191970" stroke="#191970" points="1594.4238,-8.5801 1584.2673,-11.5959 1594.0877,-15.572 1594.4238,-8.5801"/>
</g>
<!-- Node51&#45;&gt;Node38 -->
<g id="edge112" class="edge">
<title>Node51&#45;&gt;Node38</title>
<path fill="none" stroke="#191970" d="M616.618,-806.2977C610.8487,-797.8498 603.6284,-787.2773 597.5447,-778.369"/>
<polygon fill="#191970" stroke="#191970" points="600.2547,-776.1311 591.7247,-769.8469 594.4741,-780.0788 600.2547,-776.1311"/>
</g>
</g>
</svg>
