<?xml version="1.0" encoding="UTF-8" standalone="no"?>
<!DOCTYPE svg PUBLIC "-//W3C//DTD SVG 1.1//EN"
 "http://www.w3.org/Graphics/SVG/1.1/DTD/svg11.dtd">
<!-- Generated by graphviz version 2.40.1 (20161225.0304)
 -->
<!-- Title: time.h Pages: 1 -->
<svg width="717pt" height="868pt"
 viewBox="0.00 0.00 717.00 868.00" xmlns="http://www.w3.org/2000/svg" xmlns:xlink="http://www.w3.org/1999/xlink">
<g id="graph0" class="graph" transform="scale(1 1) rotate(0) translate(4 864)">
<title>time.h</title>
<polygon fill="#ffffff" stroke="transparent" points="-4,4 -4,-864 713,-864 713,4 -4,4"/>
<!-- Node3 -->
<g id="node1" class="node">
<title>Node3</title>
<polygon fill="#bfbfbf" stroke="#000000" points="16,-840.5 16,-859.5 60,-859.5 60,-840.5 16,-840.5"/>
<text text-anchor="middle" x="38" y="-847.5" font-family="Helvetica,sans-Serif" font-size="10.00" fill="#000000">time.h</text>
</g>
<!-- Node4 -->
<g id="node2" class="node">
<title>Node4</title>
<g id="a_node2"><a xlink:href="api_2time_8h.html" target="_top" xlink:title="ODP time. ">
<polygon fill="#ffffff" stroke="#000000" points="16,-784.5 16,-803.5 60,-803.5 60,-784.5 16,-784.5"/>
<text text-anchor="middle" x="38" y="-791.5" font-family="Helvetica,sans-Serif" font-size="10.00" fill="#000000">time.h</text>
</a>
</g>
</g>
<!-- Node3&#45;&gt;Node4 -->
<g id="edge1" class="edge">
<title>Node3&#45;&gt;Node4</title>
<path fill="none" stroke="#191970" d="M38,-830.1575C38,-821.155 38,-810.9199 38,-803.6427"/>
<polygon fill="#191970" stroke="#191970" points="34.5001,-830.2455 38,-840.2455 41.5001,-830.2456 34.5001,-830.2455"/>
</g>
<!-- Node5 -->
<g id="node3" class="node">
<title>Node5</title>
<g id="a_node3"><a xlink:href="api_2spec_2packet_8h.html" target="_top" xlink:title="ODP packet descriptor. ">
<polygon fill="#ffffff" stroke="#000000" points="185,-728.5 185,-747.5 239,-747.5 239,-728.5 185,-728.5"/>
<text text-anchor="middle" x="212" y="-735.5" font-family="Helvetica,sans-Serif" font-size="10.00" fill="#000000">packet.h</text>
</a>
</g>
</g>
<!-- Node4&#45;&gt;Node5 -->
<g id="edge2" class="edge">
<title>Node4&#45;&gt;Node5</title>
<path fill="none" stroke="#191970" d="M69.6263,-783.8214C102.5302,-773.2317 153.5169,-756.8222 184.7124,-746.7822"/>
<polygon fill="#191970" stroke="#191970" points="68.4841,-780.5122 60.0372,-786.9076 70.6287,-787.1756 68.4841,-780.5122"/>
</g>
<!-- Node9 -->
<g id="node7" class="node">
<title>Node9</title>
<g id="a_node7"><a xlink:href="odp__api_8h.html" target="_top" xlink:title="The OpenDataPlane API. ">
<polygon fill="#ffffff" stroke="#000000" points="343.5,-56.5 343.5,-75.5 402.5,-75.5 402.5,-56.5 343.5,-56.5"/>
<text text-anchor="middle" x="373" y="-63.5" font-family="Helvetica,sans-Serif" font-size="10.00" fill="#000000">odp_api.h</text>
</a>
</g>
</g>
<!-- Node4&#45;&gt;Node9 -->
<g id="edge43" class="edge">
<title>Node4&#45;&gt;Node9</title>
<path fill="none" stroke="#191970" d="M27.511,-775.4209C16.2634,-753.7168 0,-716.3882 0,-682 0,-682 0,-682 0,-178 0,-129.8193 41.7502,-131.0615 86,-112 131.9976,-92.1855 279.2162,-75.4424 343.029,-68.9206"/>
<polygon fill="#191970" stroke="#191970" points="24.569,-777.3395 32.393,-784.4834 30.7317,-774.0196 24.569,-777.3395"/>
</g>
<!-- Node19 -->
<g id="node17" class="node">
<title>Node19</title>
<g id="a_node17"><a xlink:href="api_2spec_2packet__io_8h.html" target="_top" xlink:title="ODP Packet IO. ">
<polygon fill="#ffffff" stroke="#000000" points="237.5,-392.5 237.5,-411.5 304.5,-411.5 304.5,-392.5 237.5,-392.5"/>
<text text-anchor="middle" x="271" y="-399.5" font-family="Helvetica,sans-Serif" font-size="10.00" fill="#000000">packet_io.h</text>
</a>
</g>
</g>
<!-- Node4&#45;&gt;Node19 -->
<g id="edge42" class="edge">
<title>Node4&#45;&gt;Node19</title>
<path fill="none" stroke="#191970" d="M38,-774.1952C38,-751.8128 38,-714.2884 38,-682 38,-682 38,-682 38,-514 38,-470.3522 172.4978,-428.3773 237.1198,-410.7287"/>
<polygon fill="#191970" stroke="#191970" points="34.5001,-774.4116 38,-784.4116 41.5001,-774.4117 34.5001,-774.4116"/>
</g>
<!-- Node6 -->
<g id="node4" class="node">
<title>Node6</title>
<g id="a_node4"><a xlink:href="api_2packet_8h.html" target="_top" xlink:title="ODP packet descriptor. ">
<polygon fill="#ffffff" stroke="#000000" points="324,-672.5 324,-691.5 378,-691.5 378,-672.5 324,-672.5"/>
<text text-anchor="middle" x="351" y="-679.5" font-family="Helvetica,sans-Serif" font-size="10.00" fill="#000000">packet.h</text>
</a>
</g>
</g>
<!-- Node5&#45;&gt;Node6 -->
<g id="edge3" class="edge">
<title>Node5&#45;&gt;Node6</title>
<path fill="none" stroke="#191970" d="M245.4621,-724.5189C270.7769,-714.3201 304.9103,-700.5685 327.4169,-691.5011"/>
<polygon fill="#191970" stroke="#191970" points="243.8626,-721.3899 235.895,-728.3733 246.4784,-727.8827 243.8626,-721.3899"/>
</g>
<!-- Node7 -->
<g id="node5" class="node">
<title>Node7</title>
<g id="a_node5"><a xlink:href="api_2spec_2comp_8h.html" target="_top" xlink:title="ODP Compression. ">
<polygon fill="#ffffff" stroke="#000000" points="168.5,-616.5 168.5,-635.5 217.5,-635.5 217.5,-616.5 168.5,-616.5"/>
<text text-anchor="middle" x="193" y="-623.5" font-family="Helvetica,sans-Serif" font-size="10.00" fill="#000000">comp.h</text>
</a>
</g>
</g>
<!-- Node6&#45;&gt;Node7 -->
<g id="edge4" class="edge">
<title>Node6&#45;&gt;Node7</title>
<path fill="none" stroke="#191970" d="M314.2443,-668.9727C284.567,-658.4541 243.6217,-643.9419 217.7296,-634.7649"/>
<polygon fill="#191970" stroke="#191970" points="313.2441,-672.3314 323.8388,-672.3733 315.5826,-665.7336 313.2441,-672.3314"/>
</g>
<!-- Node6&#45;&gt;Node9 -->
<g id="edge41" class="edge">
<title>Node6&#45;&gt;Node9</title>
<path fill="none" stroke="#191970" d="M388.3589,-673.4771C458.0754,-656.4823 601,-616.0287 601,-570 601,-570 601,-570 601,-178 601,-131.2171 560.2458,-134.0777 519,-112 481.1604,-91.7455 432.9581,-78.7392 402.5275,-71.8969"/>
<polygon fill="#191970" stroke="#191970" points="387.1381,-670.1705 378.2303,-675.9065 388.7708,-676.9775 387.1381,-670.1705"/>
</g>
<!-- Node11 -->
<g id="node9" class="node">
<title>Node11</title>
<g id="a_node9"><a xlink:href="api_2spec_2crypto_8h.html" target="_top" xlink:title="ODP crypto. ">
<polygon fill="#ffffff" stroke="#000000" points="325,-448.5 325,-467.5 377,-467.5 377,-448.5 325,-448.5"/>
<text text-anchor="middle" x="351" y="-455.5" font-family="Helvetica,sans-Serif" font-size="10.00" fill="#000000">crypto.h</text>
</a>
</g>
</g>
<!-- Node6&#45;&gt;Node11 -->
<g id="edge8" class="edge">
<title>Node6&#45;&gt;Node11</title>
<path fill="none" stroke="#191970" d="M351,-662.1177C351,-615.6713 351,-501.4223 351,-467.5891"/>
<polygon fill="#191970" stroke="#191970" points="347.5001,-662.375 351,-672.375 354.5001,-662.375 347.5001,-662.375"/>
</g>
<!-- Node15 -->
<g id="node13" class="node">
<title>Node15</title>
<g id="a_node13"><a xlink:href="api_2spec_2event_8h.html" target="_top" xlink:title="ODP event. ">
<polygon fill="#ffffff" stroke="#000000" points="393.5,-616.5 393.5,-635.5 442.5,-635.5 442.5,-616.5 393.5,-616.5"/>
<text text-anchor="middle" x="418" y="-623.5" font-family="Helvetica,sans-Serif" font-size="10.00" fill="#000000">event.h</text>
</a>
</g>
</g>
<!-- Node6&#45;&gt;Node15 -->
<g id="edge14" class="edge">
<title>Node6&#45;&gt;Node15</title>
<path fill="none" stroke="#191970" d="M370.5676,-665.645C382.2198,-655.9058 396.6084,-643.8795 406.4632,-635.6427"/>
<polygon fill="#191970" stroke="#191970" points="368.0988,-663.1469 362.6705,-672.2455 372.5879,-668.5179 368.0988,-663.1469"/>
</g>
<!-- Node6&#45;&gt;Node19 -->
<g id="edge40" class="edge">
<title>Node6&#45;&gt;Node19</title>
<path fill="none" stroke="#191970" d="M331.7776,-665.2786C310.7509,-645.0302 280,-608.7872 280,-570 280,-570 280,-570 280,-514 280,-475.9611 274.7781,-430.888 272.2895,-411.5676"/>
<polygon fill="#191970" stroke="#191970" points="329.5622,-667.9974 339.2758,-672.2278 334.3204,-662.8632 329.5622,-667.9974"/>
</g>
<!-- Node27 -->
<g id="node25" class="node">
<title>Node27</title>
<g id="a_node25"><a xlink:href="api_2spec_2packet__flags_8h.html" target="_top" xlink:title="ODP packet flags. ">
<polygon fill="#ffffff" stroke="#000000" points="629,-560.5 629,-579.5 709,-579.5 709,-560.5 629,-560.5"/>
<text text-anchor="middle" x="669" y="-567.5" font-family="Helvetica,sans-Serif" font-size="10.00" fill="#000000">packet_flags.h</text>
</a>
</g>
</g>
<!-- Node6&#45;&gt;Node27 -->
<g id="edge37" class="edge">
<title>Node6&#45;&gt;Node27</title>
<path fill="none" stroke="#191970" d="M388.0041,-678.7525C451.2618,-672.6793 577.0438,-658.1774 615,-636 638.2647,-622.4066 655.7432,-594.7828 663.9041,-579.9486"/>
<polygon fill="#191970" stroke="#191970" points="387.6753,-675.2679 378.0467,-679.6883 388.3303,-682.2372 387.6753,-675.2679"/>
</g>
<!-- Node8 -->
<g id="node6" class="node">
<title>Node8</title>
<g id="a_node6"><a xlink:href="api_2comp_8h.html" target="_top" xlink:title="ODP crypto. ">
<polygon fill="#ffffff" stroke="#000000" points="135.5,-504.5 135.5,-523.5 184.5,-523.5 184.5,-504.5 135.5,-504.5"/>
<text text-anchor="middle" x="160" y="-511.5" font-family="Helvetica,sans-Serif" font-size="10.00" fill="#000000">comp.h</text>
</a>
</g>
</g>
<!-- Node7&#45;&gt;Node8 -->
<g id="edge5" class="edge">
<title>Node7&#45;&gt;Node8</title>
<path fill="none" stroke="#191970" d="M187.2836,-606.5987C180.1427,-582.363 168.2073,-541.8551 162.8064,-523.5249"/>
<polygon fill="#191970" stroke="#191970" points="184.0028,-607.8479 190.1864,-616.4509 190.7174,-605.8694 184.0028,-607.8479"/>
</g>
<!-- Node8&#45;&gt;Node9 -->
<g id="edge6" class="edge">
<title>Node8&#45;&gt;Node9</title>
<path fill="none" stroke="#191970" d="M148.0808,-495.6801C120.9662,-452.1826 57,-338.494 57,-234 57,-234 57,-234 57,-178 57,-131.5625 95.956,-131.7167 138,-112 206.8804,-79.6982 297.3687,-70.0718 343.3744,-67.2083"/>
<polygon fill="#191970" stroke="#191970" points="145.2439,-497.742 153.5569,-504.3105 151.1545,-493.9916 145.2439,-497.742"/>
</g>
<!-- Node10 -->
<g id="node8" class="node">
<title>Node10</title>
<g id="a_node8"><a xlink:href="odp_8h.html" target="_top" xlink:title="WARNING: THIS FILE IS DEPRECATED AND WILL BE REMOVED!!! ODP APPLICATIONS SHOULD NOW INCLUDE odp_api...">
<polygon fill="#ffffff" stroke="#000000" points="352.5,-.5 352.5,-19.5 393.5,-19.5 393.5,-.5 352.5,-.5"/>
<text text-anchor="middle" x="373" y="-7.5" font-family="Helvetica,sans-Serif" font-size="10.00" fill="#000000">odp.h</text>
</a>
</g>
</g>
<!-- Node9&#45;&gt;Node10 -->
<g id="edge7" class="edge">
<title>Node9&#45;&gt;Node10</title>
<path fill="none" stroke="#191970" d="M373,-46.1575C373,-37.155 373,-26.9199 373,-19.6427"/>
<polygon fill="#191970" stroke="#191970" points="369.5001,-46.2455 373,-56.2455 376.5001,-46.2456 369.5001,-46.2455"/>
</g>
<!-- Node12 -->
<g id="node10" class="node">
<title>Node12</title>
<g id="a_node10"><a xlink:href="api_2crypto_8h.html" target="_top" xlink:title="ODP crypto. ">
<polygon fill="#ffffff" stroke="#000000" points="346,-336.5 346,-355.5 398,-355.5 398,-336.5 346,-336.5"/>
<text text-anchor="middle" x="372" y="-343.5" font-family="Helvetica,sans-Serif" font-size="10.00" fill="#000000">crypto.h</text>
</a>
</g>
</g>
<!-- Node11&#45;&gt;Node12 -->
<g id="edge9" class="edge">
<title>Node11&#45;&gt;Node12</title>
<path fill="none" stroke="#191970" d="M354.6377,-438.5987C359.1819,-414.363 366.7772,-373.8551 370.2141,-355.5249"/>
<polygon fill="#191970" stroke="#191970" points="351.1934,-437.9772 352.7904,-448.4509 358.0735,-439.2673 351.1934,-437.9772"/>
</g>
<!-- Node12&#45;&gt;Node9 -->
<g id="edge13" class="edge">
<title>Node12&#45;&gt;Node9</title>
<path fill="none" stroke="#191970" d="M381.1089,-327.2634C390.8765,-305.4131 405,-267.949 405,-234 405,-234 405,-234 405,-178 405,-138.7683 386.623,-94.6778 377.7217,-75.6226"/>
<polygon fill="#191970" stroke="#191970" points="377.9063,-325.8499 376.8693,-336.3939 384.2552,-328.798 377.9063,-325.8499"/>
</g>
<!-- Node13 -->
<g id="node11" class="node">
<title>Node13</title>
<g id="a_node11"><a xlink:href="api_2spec_2ipsec_8h.html" target="_top" xlink:title="ODP IPSEC API. ">
<polygon fill="#ffffff" stroke="#000000" points="305,-168.5 305,-187.5 353,-187.5 353,-168.5 305,-168.5"/>
<text text-anchor="middle" x="329" y="-175.5" font-family="Helvetica,sans-Serif" font-size="10.00" fill="#000000">ipsec.h</text>
</a>
</g>
</g>
<!-- Node12&#45;&gt;Node13 -->
<g id="edge10" class="edge">
<title>Node12&#45;&gt;Node13</title>
<path fill="none" stroke="#191970" d="M367.7429,-326.4368C362.392,-302.2619 352.725,-259.9194 343,-224 339.5967,-211.43 335.1425,-197.0982 332.1819,-187.8194"/>
<polygon fill="#191970" stroke="#191970" points="364.38,-327.4414 369.9435,-336.4579 371.2171,-325.9399 364.38,-327.4414"/>
</g>
<!-- Node14 -->
<g id="node12" class="node">
<title>Node14</title>
<g id="a_node12"><a xlink:href="api_2ipsec_8h.html" target="_top" xlink:title="ODP IPSEC API &#45; platform specific header. ">
<polygon fill="#ffffff" stroke="#000000" points="317,-112.5 317,-131.5 365,-131.5 365,-112.5 317,-112.5"/>
<text text-anchor="middle" x="341" y="-119.5" font-family="Helvetica,sans-Serif" font-size="10.00" fill="#000000">ipsec.h</text>
</a>
</g>
</g>
<!-- Node13&#45;&gt;Node14 -->
<g id="edge11" class="edge">
<title>Node13&#45;&gt;Node14</title>
<path fill="none" stroke="#191970" d="M333.1885,-158.4538C335.1328,-149.3803 337.3572,-138.9998 338.9337,-131.6427"/>
<polygon fill="#191970" stroke="#191970" points="329.7633,-157.7341 331.0902,-168.2455 336.6079,-159.2009 329.7633,-157.7341"/>
</g>
<!-- Node14&#45;&gt;Node9 -->
<g id="edge12" class="edge">
<title>Node14&#45;&gt;Node9</title>
<path fill="none" stroke="#191970" d="M351.6645,-103.3372C356.9654,-94.0605 363.1487,-83.2398 367.4899,-75.6427"/>
<polygon fill="#191970" stroke="#191970" points="348.4966,-101.8266 346.574,-112.2455 354.5743,-105.2996 348.4966,-101.8266"/>
</g>
<!-- Node16 -->
<g id="node14" class="node">
<title>Node16</title>
<g id="a_node14"><a xlink:href="api_2event_8h.html" target="_top" xlink:title="ODP event. ">
<polygon fill="#ffffff" stroke="#000000" points="407.5,-560.5 407.5,-579.5 456.5,-579.5 456.5,-560.5 407.5,-560.5"/>
<text text-anchor="middle" x="432" y="-567.5" font-family="Helvetica,sans-Serif" font-size="10.00" fill="#000000">event.h</text>
</a>
</g>
</g>
<!-- Node15&#45;&gt;Node16 -->
<g id="edge15" class="edge">
<title>Node15&#45;&gt;Node16</title>
<path fill="none" stroke="#191970" d="M422.8865,-606.4538C425.1549,-597.3803 427.75,-586.9998 429.5893,-579.6427"/>
<polygon fill="#191970" stroke="#191970" points="419.4685,-605.6952 420.4386,-616.2455 426.2595,-607.393 419.4685,-605.6952"/>
</g>
<!-- Node16&#45;&gt;Node9 -->
<g id="edge36" class="edge">
<title>Node16&#45;&gt;Node9</title>
<path fill="none" stroke="#191970" d="M427.793,-550.2292C426.2729,-542.1393 424.7476,-532.6615 424,-524 421.0955,-490.3473 422.5049,-481.7447 424,-448 428.2264,-352.6083 443,-329.4852 443,-234 443,-234 443,-234 443,-178 443,-134.2041 404.0341,-93.4144 384.2467,-75.5244"/>
<polygon fill="#191970" stroke="#191970" points="424.3931,-551.076 429.7893,-560.1936 431.2567,-549.7009 424.3931,-551.076"/>
</g>
<!-- Node17 -->
<g id="node15" class="node">
<title>Node17</title>
<g id="a_node15"><a xlink:href="api_2spec_2queue_8h.html" target="_top" xlink:title="ODP queue. ">
<polygon fill="#ffffff" stroke="#000000" points="433.5,-504.5 433.5,-523.5 484.5,-523.5 484.5,-504.5 433.5,-504.5"/>
<text text-anchor="middle" x="459" y="-511.5" font-family="Helvetica,sans-Serif" font-size="10.00" fill="#000000">queue.h</text>
</a>
</g>
</g>
<!-- Node16&#45;&gt;Node17 -->
<g id="edge16" class="edge">
<title>Node16&#45;&gt;Node17</title>
<path fill="none" stroke="#191970" d="M441.1396,-551.0437C445.5805,-541.8331 450.7265,-531.1598 454.3509,-523.6427"/>
<polygon fill="#191970" stroke="#191970" points="437.8934,-549.7178 436.703,-560.2455 444.1988,-552.7579 437.8934,-549.7178"/>
</g>
<!-- Node25 -->
<g id="node23" class="node">
<title>Node25</title>
<g id="a_node23"><a xlink:href="api_2spec_2schedule_8h.html" target="_top" xlink:title="ODP schedule. ">
<polygon fill="#ffffff" stroke="#000000" points="509,-392.5 509,-411.5 573,-411.5 573,-392.5 509,-392.5"/>
<text text-anchor="middle" x="541" y="-399.5" font-family="Helvetica,sans-Serif" font-size="10.00" fill="#000000">schedule.h</text>
</a>
</g>
</g>
<!-- Node16&#45;&gt;Node25 -->
<g id="edge35" class="edge">
<title>Node16&#45;&gt;Node25</title>
<path fill="none" stroke="#191970" d="M458.3192,-554.8372C470.2147,-546.907 483.6639,-536.2872 493,-524 520.5405,-487.7541 534.3458,-433.6795 539.0678,-411.7563"/>
<polygon fill="#191970" stroke="#191970" points="456.186,-552.0457 449.6194,-560.3602 459.9377,-557.9554 456.186,-552.0457"/>
</g>
<!-- Node18 -->
<g id="node16" class="node">
<title>Node18</title>
<g id="a_node16"><a xlink:href="api_2queue_8h.html" target="_top" xlink:title="ODP queue. ">
<polygon fill="#ffffff" stroke="#000000" points="433.5,-448.5 433.5,-467.5 484.5,-467.5 484.5,-448.5 433.5,-448.5"/>
<text text-anchor="middle" x="459" y="-455.5" font-family="Helvetica,sans-Serif" font-size="10.00" fill="#000000">queue.h</text>
</a>
</g>
</g>
<!-- Node17&#45;&gt;Node18 -->
<g id="edge17" class="edge">
<title>Node17&#45;&gt;Node18</title>
<path fill="none" stroke="#191970" d="M459,-494.1575C459,-485.155 459,-474.9199 459,-467.6427"/>
<polygon fill="#191970" stroke="#191970" points="455.5001,-494.2455 459,-504.2455 462.5001,-494.2456 455.5001,-494.2455"/>
</g>
<!-- Node18&#45;&gt;Node9 -->
<g id="edge34" class="edge">
<title>Node18&#45;&gt;Node9</title>
<path fill="none" stroke="#191970" d="M465.2501,-438.3862C471.754,-416.2042 481,-378.8868 481,-346 481,-346 481,-346 481,-178 481,-146.7875 477.3283,-135.6851 457,-112 442.2728,-94.8409 419.4862,-82.9309 401.3598,-75.5356"/>
<polygon fill="#191970" stroke="#191970" points="461.8147,-437.6526 462.2462,-448.2386 468.5104,-439.6941 461.8147,-437.6526"/>
</g>
<!-- Node18&#45;&gt;Node12 -->
<g id="edge18" class="edge">
<title>Node18&#45;&gt;Node12</title>
<path fill="none" stroke="#191970" d="M445.4275,-440.5274C426.8168,-416.5688 394.0222,-374.3505 379.3988,-355.5249"/>
<polygon fill="#191970" stroke="#191970" points="442.6838,-442.7007 451.5824,-448.4509 448.2119,-438.4065 442.6838,-442.7007"/>
</g>
<!-- Node18&#45;&gt;Node19 -->
<g id="edge19" class="edge">
<title>Node18&#45;&gt;Node19</title>
<path fill="none" stroke="#191970" d="M423.5325,-447.4352C388.8438,-437.1024 336.4904,-421.5078 303.0306,-411.541"/>
<polygon fill="#191970" stroke="#191970" points="422.6705,-450.8304 433.2536,-450.3309 424.6689,-444.1217 422.6705,-450.8304"/>
</g>
<!-- Node18&#45;&gt;Node25 -->
<g id="edge31" class="edge">
<title>Node18&#45;&gt;Node25</title>
<path fill="none" stroke="#191970" d="M481.711,-442.49C496.1788,-432.6096 514.468,-420.1194 526.8804,-411.6427"/>
<polygon fill="#191970" stroke="#191970" points="479.5675,-439.7156 473.2833,-448.2455 483.5152,-445.4962 479.5675,-439.7156"/>
</g>
<!-- Node20 -->
<g id="node18" class="node">
<title>Node20</title>
<g id="a_node18"><a xlink:href="api_2packet__io_8h.html" target="_top" xlink:title="ODP Packet IO. ">
<polygon fill="#ffffff" stroke="#000000" points="228.5,-336.5 228.5,-355.5 295.5,-355.5 295.5,-336.5 228.5,-336.5"/>
<text text-anchor="middle" x="262" y="-343.5" font-family="Helvetica,sans-Serif" font-size="10.00" fill="#000000">packet_io.h</text>
</a>
</g>
</g>
<!-- Node19&#45;&gt;Node20 -->
<g id="edge20" class="edge">
<title>Node19&#45;&gt;Node20</title>
<path fill="none" stroke="#191970" d="M267.811,-382.1575C266.3642,-373.155 264.7193,-362.9199 263.5497,-355.6427"/>
<polygon fill="#191970" stroke="#191970" points="264.3898,-382.9276 269.4323,-392.2455 271.3011,-381.8168 264.3898,-382.9276"/>
</g>
<!-- Node20&#45;&gt;Node9 -->
<g id="edge30" class="edge">
<title>Node20&#45;&gt;Node9</title>
<path fill="none" stroke="#191970" d="M218.3183,-337.2248C180.1614,-328.7254 128.6453,-314.9568 114,-300 92.6441,-278.1899 95,-264.5246 95,-234 95,-234 95,-234 95,-178 95,-124.9258 271.5327,-85.3175 343.2491,-71.4165"/>
<polygon fill="#191970" stroke="#191970" points="217.676,-340.6669 228.1917,-339.3743 219.1651,-333.8271 217.676,-340.6669"/>
</g>
<!-- Node20&#45;&gt;Node13 -->
<g id="edge25" class="edge">
<title>Node20&#45;&gt;Node13</title>
<path fill="none" stroke="#191970" d="M283.6857,-330C292.9385,-322.0197 302.9727,-311.5966 309,-300 328.6977,-262.1013 329.8569,-209.4031 329.3966,-187.8148"/>
<polygon fill="#191970" stroke="#191970" points="281.4253,-327.327 275.8761,-336.3524 285.8424,-332.7574 281.4253,-327.327"/>
</g>
<!-- Node21 -->
<g id="node19" class="node">
<title>Node21</title>
<g id="a_node19"><a xlink:href="api_2spec_2classification_8h.html" target="_top" xlink:title="ODP classification descriptor. ">
<polygon fill="#ffffff" stroke="#000000" points="123,-280.5 123,-299.5 205,-299.5 205,-280.5 123,-280.5"/>
<text text-anchor="middle" x="164" y="-287.5" font-family="Helvetica,sans-Serif" font-size="10.00" fill="#000000">classification.h</text>
</a>
</g>
</g>
<!-- Node20&#45;&gt;Node21 -->
<g id="edge21" class="edge">
<title>Node20&#45;&gt;Node21</title>
<path fill="none" stroke="#191970" d="M235.8314,-331.0465C218.3942,-321.0824 195.9889,-308.2794 180.8747,-299.6427"/>
<polygon fill="#191970" stroke="#191970" points="234.5108,-334.323 244.9297,-336.2455 237.9838,-328.2453 234.5108,-334.323"/>
</g>
<!-- Node23 -->
<g id="node21" class="node">
<title>Node23</title>
<g id="a_node21"><a xlink:href="api_2spec_2traffic__mngr_8h.html" target="_top" xlink:title="Copyright (c) 2015&#45;2018, Linaro Limited All rights reserved. ">
<polygon fill="#ffffff" stroke="#000000" points="223.5,-280.5 223.5,-299.5 300.5,-299.5 300.5,-280.5 223.5,-280.5"/>
<text text-anchor="middle" x="262" y="-287.5" font-family="Helvetica,sans-Serif" font-size="10.00" fill="#000000">traffic_mngr.h</text>
</a>
</g>
</g>
<!-- Node20&#45;&gt;Node23 -->
<g id="edge26" class="edge">
<title>Node20&#45;&gt;Node23</title>
<path fill="none" stroke="#191970" d="M262,-326.1575C262,-317.155 262,-306.9199 262,-299.6427"/>
<polygon fill="#191970" stroke="#191970" points="258.5001,-326.2455 262,-336.2455 265.5001,-326.2456 258.5001,-326.2455"/>
</g>
<!-- Node22 -->
<g id="node20" class="node">
<title>Node22</title>
<g id="a_node20"><a xlink:href="api_2classification_8h.html" target="_top" xlink:title="ODP classification descriptor. ">
<polygon fill="#ffffff" stroke="#000000" points="123,-224.5 123,-243.5 205,-243.5 205,-224.5 123,-224.5"/>
<text text-anchor="middle" x="164" y="-231.5" font-family="Helvetica,sans-Serif" font-size="10.00" fill="#000000">classification.h</text>
</a>
</g>
</g>
<!-- Node21&#45;&gt;Node22 -->
<g id="edge22" class="edge">
<title>Node21&#45;&gt;Node22</title>
<path fill="none" stroke="#191970" d="M164,-270.1575C164,-261.155 164,-250.9199 164,-243.6427"/>
<polygon fill="#191970" stroke="#191970" points="160.5001,-270.2455 164,-280.2455 167.5001,-270.2456 160.5001,-270.2455"/>
</g>
<!-- Node22&#45;&gt;Node9 -->
<g id="edge24" class="edge">
<title>Node22&#45;&gt;Node9</title>
<path fill="none" stroke="#191970" d="M179.537,-216.7097C202.5386,-191.7181 247.7194,-144.8961 292,-112 311.6023,-97.4374 336.2612,-84.05 353.1915,-75.518"/>
<polygon fill="#191970" stroke="#191970" points="176.7709,-214.5487 172.62,-224.2966 181.9438,-219.2648 176.7709,-214.5487"/>
</g>
<!-- Node22&#45;&gt;Node13 -->
<g id="edge23" class="edge">
<title>Node22&#45;&gt;Node13</title>
<path fill="none" stroke="#191970" d="M202.1594,-221.0489C233.7805,-210.3169 277.766,-195.3885 304.759,-186.2273"/>
<polygon fill="#191970" stroke="#191970" points="200.7091,-217.845 192.3645,-224.3733 202.9589,-224.4736 200.7091,-217.845"/>
</g>
<!-- Node24 -->
<g id="node22" class="node">
<title>Node24</title>
<g id="a_node22"><a xlink:href="api_2traffic__mngr_8h.html" target="_top" xlink:title="ODP Traffic manager. ">
<polygon fill="#ffffff" stroke="#000000" points="223.5,-224.5 223.5,-243.5 300.5,-243.5 300.5,-224.5 223.5,-224.5"/>
<text text-anchor="middle" x="262" y="-231.5" font-family="Helvetica,sans-Serif" font-size="10.00" fill="#000000">traffic_mngr.h</text>
</a>
</g>
</g>
<!-- Node23&#45;&gt;Node24 -->
<g id="edge27" class="edge">
<title>Node23&#45;&gt;Node24</title>
<path fill="none" stroke="#191970" d="M262,-270.1575C262,-261.155 262,-250.9199 262,-243.6427"/>
<polygon fill="#191970" stroke="#191970" points="258.5001,-270.2455 262,-280.2455 265.5001,-270.2456 258.5001,-270.2455"/>
</g>
<!-- Node24&#45;&gt;Node9 -->
<g id="edge29" class="edge">
<title>Node24&#45;&gt;Node9</title>
<path fill="none" stroke="#191970" d="M265.7028,-214.1582C271.2922,-188.4426 283.8912,-143.2088 308,-112 320.1702,-96.2457 339.2153,-83.6603 353.5504,-75.6635"/>
<polygon fill="#191970" stroke="#191970" points="262.2272,-213.6871 263.6674,-224.1836 269.0872,-215.0799 262.2272,-213.6871"/>
</g>
<!-- Node24&#45;&gt;Node13 -->
<g id="edge28" class="edge">
<title>Node24&#45;&gt;Node13</title>
<path fill="none" stroke="#191970" d="M281.5676,-217.645C293.2198,-207.9058 307.6084,-195.8795 317.4632,-187.6427"/>
<polygon fill="#191970" stroke="#191970" points="279.0988,-215.1469 273.6705,-224.2455 283.5879,-220.5179 279.0988,-215.1469"/>
</g>
<!-- Node26 -->
<g id="node24" class="node">
<title>Node26</title>
<g id="a_node24"><a xlink:href="api_2schedule_8h.html" target="_top" xlink:title="ODP schedule. ">
<polygon fill="#ffffff" stroke="#000000" points="509,-168.5 509,-187.5 573,-187.5 573,-168.5 509,-168.5"/>
<text text-anchor="middle" x="541" y="-175.5" font-family="Helvetica,sans-Serif" font-size="10.00" fill="#000000">schedule.h</text>
</a>
</g>
</g>
<!-- Node25&#45;&gt;Node26 -->
<g id="edge32" class="edge">
<title>Node25&#45;&gt;Node26</title>
<path fill="none" stroke="#191970" d="M541,-382.1177C541,-335.6713 541,-221.4223 541,-187.5891"/>
<polygon fill="#191970" stroke="#191970" points="537.5001,-382.375 541,-392.375 544.5001,-382.375 537.5001,-382.375"/>
</g>
<!-- Node26&#45;&gt;Node9 -->
<g id="edge33" class="edge">
<title>Node26&#45;&gt;Node9</title>
<path fill="none" stroke="#191970" d="M531.7738,-158.927C523.8347,-144.2972 511.12,-124.5453 495,-112 467.4898,-90.5902 428.9287,-78.2927 402.5677,-71.892"/>
<polygon fill="#191970" stroke="#191970" points="528.8003,-160.7977 536.4904,-168.0856 535.0235,-157.5928 528.8003,-160.7977"/>
</g>
<!-- Node28 -->
<g id="node26" class="node">
<title>Node28</title>
<g id="a_node26"><a xlink:href="api_2packet__flags_8h.html" target="_top" xlink:title="ODP packet flags. ">
<polygon fill="#ffffff" stroke="#000000" points="629,-112.5 629,-131.5 709,-131.5 709,-112.5 629,-112.5"/>
<text text-anchor="middle" x="669" y="-119.5" font-family="Helvetica,sans-Serif" font-size="10.00" fill="#000000">packet_flags.h</text>
</a>
</g>
</g>
<!-- Node27&#45;&gt;Node28 -->
<g id="edge38" class="edge">
<title>Node27&#45;&gt;Node28</title>
<path fill="none" stroke="#191970" d="M669,-550.1952C669,-527.8128 669,-490.2884 669,-458 669,-458 669,-458 669,-234 669,-196.0833 669,-150.9462 669,-131.5884"/>
<polygon fill="#191970" stroke="#191970" points="665.5001,-550.4116 669,-560.4116 672.5001,-550.4117 665.5001,-550.4116"/>
</g>
<!-- Node28&#45;&gt;Node9 -->
<g id="edge39" class="edge">
<title>Node28&#45;&gt;Node9</title>
<path fill="none" stroke="#191970" d="M618.8267,-112.5078C556.8744,-100.787 453.5009,-81.2299 402.8358,-71.6446"/>
<polygon fill="#191970" stroke="#191970" points="618.2957,-115.9693 628.7721,-114.3893 619.597,-109.0913 618.2957,-115.9693"/>
</g>
</g>
</svg>
