<?xml version="1.0" encoding="UTF-8" standalone="no"?>
<!DOCTYPE svg PUBLIC "-//W3C//DTD SVG 1.1//EN"
 "http://www.w3.org/Graphics/SVG/1.1/DTD/svg11.dtd">
<!-- Generated by graphviz version 2.40.1 (20161225.0304)
 -->
<!-- Title: crypto.h Pages: 1 -->
<svg width="1049pt" height="476pt"
 viewBox="0.00 0.00 1049.00 476.00" xmlns="http://www.w3.org/2000/svg" xmlns:xlink="http://www.w3.org/1999/xlink">
<g id="graph0" class="graph" transform="scale(1 1) rotate(0) translate(4 472)">
<title>crypto.h</title>
<polygon fill="#ffffff" stroke="transparent" points="-4,4 -4,-472 1045,-472 1045,4 -4,4"/>
<!-- Node0 -->
<g id="node1" class="node">
<title>Node0</title>
<polygon fill="#bfbfbf" stroke="#000000" points="160,-448.5 160,-467.5 212,-467.5 212,-448.5 160,-448.5"/>
<text text-anchor="middle" x="186" y="-455.5" font-family="Helvetica,sans-Serif" font-size="10.00" fill="#000000">crypto.h</text>
</g>
<!-- Node1 -->
<g id="node2" class="node">
<title>Node1</title>
<g id="a_node2"><a xlink:href="visibility__begin_8h_source.html" target="_top" xlink:title="odp/visibility_begin.h">
<polygon fill="#ffffff" stroke="#000000" points="506.5,-.5 506.5,-19.5 613.5,-19.5 613.5,-.5 506.5,-.5"/>
<text text-anchor="middle" x="560" y="-7.5" font-family="Helvetica,sans-Serif" font-size="10.00" fill="#000000">odp/visibility_begin.h</text>
</a>
</g>
</g>
<!-- Node0&#45;&gt;Node1 -->
<g id="edge1" class="edge">
<title>Node0&#45;&gt;Node1</title>
<path fill="none" stroke="#191970" d="M212.0553,-457.3974C355.3462,-453.7475 1041,-431.8 1041,-346 1041,-346 1041,-346 1041,-122 1041,-37.372 754.9926,-16.6626 624.0639,-11.616"/>
<polygon fill="#191970" stroke="#191970" points="623.8981,-8.1077 613.7767,-11.2395 623.642,-15.103 623.8981,-8.1077"/>
</g>
<!-- Node2 -->
<g id="node3" class="node">
<title>Node2</title>
<g id="a_node3"><a xlink:href="deprecated_8h.html" target="_top" xlink:title="Control deprecated API definitions. ">
<polygon fill="#ffffff" stroke="#000000" points="50.5,-280.5 50.5,-299.5 157.5,-299.5 157.5,-280.5 50.5,-280.5"/>
<text text-anchor="middle" x="104" y="-287.5" font-family="Helvetica,sans-Serif" font-size="10.00" fill="#000000">odp/api/deprecated.h</text>
</a>
</g>
</g>
<!-- Node0&#45;&gt;Node2 -->
<g id="edge2" class="edge">
<title>Node0&#45;&gt;Node2</title>
<path fill="none" stroke="#191970" d="M169.4901,-448.4224C156.9998,-440.3091 140.4379,-427.5314 131,-412 111.4618,-379.847 106.0046,-335.2636 104.5169,-309.8507"/>
<polygon fill="#191970" stroke="#191970" points="108.0041,-309.4768 104.0764,-299.637 101.0106,-309.7785 108.0041,-309.4768"/>
</g>
<!-- Node4 -->
<g id="node5" class="node">
<title>Node4</title>
<g id="a_node5"><a xlink:href="visibility__end_8h_source.html" target="_top" xlink:title="odp/visibility_end.h">
<polygon fill="#ffffff" stroke="#000000" points="224,-.5 224,-19.5 324,-19.5 324,-.5 224,-.5"/>
<text text-anchor="middle" x="274" y="-7.5" font-family="Helvetica,sans-Serif" font-size="10.00" fill="#000000">odp/visibility_end.h</text>
</a>
</g>
</g>
<!-- Node0&#45;&gt;Node4 -->
<g id="edge36" class="edge">
<title>Node0&#45;&gt;Node4</title>
<path fill="none" stroke="#191970" d="M159.7452,-454.538C108.4742,-446.1487 0,-419.6918 0,-346 0,-346 0,-346 0,-122 0,-85.1996 18.8697,-75.6259 50,-56 76.7707,-39.1226 157.0729,-25.4261 213.849,-17.4942"/>
<polygon fill="#191970" stroke="#191970" points="214.3731,-20.9551 223.8046,-16.1284 213.4216,-14.0201 214.3731,-20.9551"/>
</g>
<!-- Node5 -->
<g id="node6" class="node">
<title>Node5</title>
<g id="a_node6"><a xlink:href="support_8h.html" target="_top" xlink:title="ODP support API &#45; platform specific header. ">
<polygon fill="#ffffff" stroke="#000000" points="140,-392.5 140,-411.5 232,-411.5 232,-392.5 140,-392.5"/>
<text text-anchor="middle" x="186" y="-399.5" font-family="Helvetica,sans-Serif" font-size="10.00" fill="#000000">odp/api/support.h</text>
</a>
</g>
</g>
<!-- Node0&#45;&gt;Node5 -->
<g id="edge6" class="edge">
<title>Node0&#45;&gt;Node5</title>
<path fill="none" stroke="#191970" d="M186,-448.2455C186,-440.9382 186,-430.6944 186,-421.7046"/>
<polygon fill="#191970" stroke="#191970" points="189.5001,-421.6426 186,-411.6427 182.5001,-421.6427 189.5001,-421.6426"/>
</g>
<!-- Node7 -->
<g id="node8" class="node">
<title>Node7</title>
<g id="a_node8"><a xlink:href="api_2packet_8h.html" target="_top" xlink:title="ODP packet descriptor. ">
<polygon fill="#ffffff" stroke="#000000" points="563.5,-392.5 563.5,-411.5 652.5,-411.5 652.5,-392.5 563.5,-392.5"/>
<text text-anchor="middle" x="608" y="-399.5" font-family="Helvetica,sans-Serif" font-size="10.00" fill="#000000">odp/api/packet.h</text>
</a>
</g>
</g>
<!-- Node0&#45;&gt;Node7 -->
<g id="edge10" class="edge">
<title>Node0&#45;&gt;Node7</title>
<path fill="none" stroke="#191970" d="M212.0795,-454.5392C279.6296,-445.5752 461.408,-421.453 553.2704,-409.2627"/>
<polygon fill="#191970" stroke="#191970" points="553.759,-412.7286 563.2116,-407.9435 552.8381,-405.7895 553.759,-412.7286"/>
</g>
<!-- Node3 -->
<g id="node4" class="node">
<title>Node3</title>
<g id="a_node4"><a xlink:href="spec_2deprecated_8h.html" target="_top" xlink:title="Macro for deprecated API definitions. ">
<polygon fill="#ffffff" stroke="#000000" points="66.5,-56.5 66.5,-75.5 197.5,-75.5 197.5,-56.5 66.5,-56.5"/>
<text text-anchor="middle" x="132" y="-63.5" font-family="Helvetica,sans-Serif" font-size="10.00" fill="#000000">odp/api/spec/deprecated.h</text>
</a>
</g>
</g>
<!-- Node2&#45;&gt;Node3 -->
<g id="edge3" class="edge">
<title>Node2&#45;&gt;Node3</title>
<path fill="none" stroke="#191970" d="M105.2031,-280.375C109.4483,-246.4133 123.7816,-131.7472 129.5576,-85.5392"/>
<polygon fill="#191970" stroke="#191970" points="133.0339,-85.9461 130.8014,-75.5891 126.0879,-85.0778 133.0339,-85.9461"/>
</g>
<!-- Node3&#45;&gt;Node1 -->
<g id="edge4" class="edge">
<title>Node3&#45;&gt;Node1</title>
<path fill="none" stroke="#191970" d="M197.8486,-57.2089C200.9421,-56.7995 204.0046,-56.3949 207,-56 308.1791,-42.6624 425.7028,-27.392 496.3878,-18.2316"/>
<polygon fill="#191970" stroke="#191970" points="497.002,-21.6814 506.4694,-16.9254 496.1025,-14.7394 497.002,-21.6814"/>
</g>
<!-- Node3&#45;&gt;Node4 -->
<g id="edge5" class="edge">
<title>Node3&#45;&gt;Node4</title>
<path fill="none" stroke="#191970" d="M156.4107,-56.3733C179.6142,-47.2226 214.7038,-33.3844 240.5142,-23.2057"/>
<polygon fill="#191970" stroke="#191970" points="241.8892,-26.4258 249.9079,-19.5011 239.3211,-19.9139 241.8892,-26.4258"/>
</g>
<!-- Node6 -->
<g id="node7" class="node">
<title>Node6</title>
<g id="a_node7"><a xlink:href="spec_2support_8h.html" target="_top" xlink:title="ODP support API. ">
<polygon fill="#ffffff" stroke="#000000" points="216,-56.5 216,-75.5 332,-75.5 332,-56.5 216,-56.5"/>
<text text-anchor="middle" x="274" y="-63.5" font-family="Helvetica,sans-Serif" font-size="10.00" fill="#000000">odp/api/spec/support.h</text>
</a>
</g>
</g>
<!-- Node5&#45;&gt;Node6 -->
<g id="edge7" class="edge">
<title>Node5&#45;&gt;Node6</title>
<path fill="none" stroke="#191970" d="M186,-392.4116C186,-373.0538 186,-327.9167 186,-290 186,-290 186,-290 186,-178 186,-136.2321 224.3084,-100.8241 250.3742,-81.5662"/>
<polygon fill="#191970" stroke="#191970" points="252.5485,-84.3148 258.6716,-75.6685 248.493,-78.6092 252.5485,-84.3148"/>
</g>
<!-- Node6&#45;&gt;Node1 -->
<g id="edge8" class="edge">
<title>Node6&#45;&gt;Node1</title>
<path fill="none" stroke="#191970" d="M322.8402,-56.4369C372.301,-46.7522 448.816,-31.7703 501.488,-21.4569"/>
<polygon fill="#191970" stroke="#191970" points="502.2202,-24.8801 511.3613,-19.5237 500.875,-18.0105 502.2202,-24.8801"/>
</g>
<!-- Node6&#45;&gt;Node4 -->
<g id="edge9" class="edge">
<title>Node6&#45;&gt;Node4</title>
<path fill="none" stroke="#191970" d="M274,-56.2455C274,-48.9382 274,-38.6944 274,-29.7046"/>
<polygon fill="#191970" stroke="#191970" points="277.5001,-29.6426 274,-19.6427 270.5001,-29.6427 277.5001,-29.6426"/>
</g>
<!-- Node8 -->
<g id="node9" class="node">
<title>Node8</title>
<g id="a_node9"><a xlink:href="api_2std__types_8h.html" target="_top" xlink:title="Standard C language types and definitions for ODP. ">
<polygon fill="#ffffff" stroke="#000000" points="541,-224.5 541,-243.5 643,-243.5 643,-224.5 541,-224.5"/>
<text text-anchor="middle" x="592" y="-231.5" font-family="Helvetica,sans-Serif" font-size="10.00" fill="#000000">odp/api/std_types.h</text>
</a>
</g>
</g>
<!-- Node7&#45;&gt;Node8 -->
<g id="edge11" class="edge">
<title>Node7&#45;&gt;Node8</title>
<path fill="none" stroke="#191970" d="M614.8208,-392.328C620.6826,-383.3825 628.6966,-369.4728 632,-356 634.1167,-347.3668 633.6514,-344.7341 632,-336 626.2563,-305.6211 611.6813,-272.7001 601.8047,-252.7114"/>
<polygon fill="#191970" stroke="#191970" points="604.9109,-251.0979 597.2664,-243.7622 598.6678,-254.264 604.9109,-251.0979"/>
</g>
<!-- Node15 -->
<g id="node16" class="node">
<title>Node15</title>
<polygon fill="#ffffff" stroke="#bfbfbf" points="388.5,-336.5 388.5,-355.5 487.5,-355.5 487.5,-336.5 388.5,-336.5"/>
<text text-anchor="middle" x="438" y="-343.5" font-family="Helvetica,sans-Serif" font-size="10.00" fill="#000000">odp/api/abi/event.h</text>
</g>
<!-- Node7&#45;&gt;Node15 -->
<g id="edge22" class="edge">
<title>Node7&#45;&gt;Node15</title>
<path fill="none" stroke="#191970" d="M578.776,-392.3733C550.5075,-383.0613 507.5035,-368.8953 476.4656,-358.671"/>
<polygon fill="#191970" stroke="#191970" points="477.4357,-355.3056 466.8427,-355.5011 475.2456,-361.9542 477.4357,-355.3056"/>
</g>
<!-- Node16 -->
<g id="node17" class="node">
<title>Node16</title>
<polygon fill="#ffffff" stroke="#bfbfbf" points="505.5,-336.5 505.5,-355.5 622.5,-355.5 622.5,-336.5 505.5,-336.5"/>
<text text-anchor="middle" x="564" y="-343.5" font-family="Helvetica,sans-Serif" font-size="10.00" fill="#000000">odp/api/abi/packet_io.h</text>
</g>
<!-- Node7&#45;&gt;Node16 -->
<g id="edge23" class="edge">
<title>Node7&#45;&gt;Node16</title>
<path fill="none" stroke="#191970" d="M600.3358,-392.2455C594.1527,-384.3761 585.2937,-373.101 577.8711,-363.6542"/>
<polygon fill="#191970" stroke="#191970" points="580.5068,-361.3435 571.5764,-355.6427 575.0025,-365.6683 580.5068,-361.3435"/>
</g>
<!-- Node17 -->
<g id="node18" class="node">
<title>Node17</title>
<polygon fill="#ffffff" stroke="#bfbfbf" points="679,-336.5 679,-355.5 783,-355.5 783,-336.5 679,-336.5"/>
<text text-anchor="middle" x="731" y="-343.5" font-family="Helvetica,sans-Serif" font-size="10.00" fill="#000000">odp/api/abi/packet.h</text>
</g>
<!-- Node7&#45;&gt;Node17 -->
<g id="edge24" class="edge">
<title>Node7&#45;&gt;Node17</title>
<path fill="none" stroke="#191970" d="M629.1445,-392.3733C648.8892,-383.3838 678.5698,-369.8706 700.8055,-359.7471"/>
<polygon fill="#191970" stroke="#191970" points="702.4806,-362.8302 710.1315,-355.5011 699.58,-356.4594 702.4806,-362.8302"/>
</g>
<!-- Node18 -->
<g id="node19" class="node">
<title>Node18</title>
<polygon fill="#ffffff" stroke="#bfbfbf" points="801,-336.5 801,-355.5 901,-355.5 901,-336.5 801,-336.5"/>
<text text-anchor="middle" x="851" y="-343.5" font-family="Helvetica,sans-Serif" font-size="10.00" fill="#000000">odp/api/abi/buffer.h</text>
</g>
<!-- Node7&#45;&gt;Node18 -->
<g id="edge25" class="edge">
<title>Node7&#45;&gt;Node18</title>
<path fill="none" stroke="#191970" d="M649.4971,-392.4369C691.0847,-382.8529 755.1834,-368.0812 799.8831,-357.78"/>
<polygon fill="#191970" stroke="#191970" points="800.7155,-361.18 809.6741,-355.5237 799.1435,-354.3588 800.7155,-361.18"/>
</g>
<!-- Node19 -->
<g id="node20" class="node">
<title>Node19</title>
<polygon fill="#ffffff" stroke="#bfbfbf" points="919.5,-336.5 919.5,-355.5 1012.5,-355.5 1012.5,-336.5 919.5,-336.5"/>
<text text-anchor="middle" x="966" y="-343.5" font-family="Helvetica,sans-Serif" font-size="10.00" fill="#000000">odp/api/abi/pool.h</text>
</g>
<!-- Node7&#45;&gt;Node19 -->
<g id="edge26" class="edge">
<title>Node7&#45;&gt;Node19</title>
<path fill="none" stroke="#191970" d="M652.5743,-395.5742C709.5864,-387.2749 811.6319,-372.1504 909.227,-356.095"/>
<polygon fill="#191970" stroke="#191970" points="909.9682,-359.5201 919.2645,-354.4377 908.8279,-352.6136 909.9682,-359.5201"/>
</g>
<!-- Node20 -->
<g id="node21" class="node">
<title>Node20</title>
<g id="a_node21"><a xlink:href="api_2spec_2packet_8h.html" target="_top" xlink:title="ODP packet descriptor. ">
<polygon fill="#ffffff" stroke="#000000" points="257.5,-336.5 257.5,-355.5 370.5,-355.5 370.5,-336.5 257.5,-336.5"/>
<text text-anchor="middle" x="314" y="-343.5" font-family="Helvetica,sans-Serif" font-size="10.00" fill="#000000">odp/api/spec/packet.h</text>
</a>
</g>
</g>
<!-- Node7&#45;&gt;Node20 -->
<g id="edge27" class="edge">
<title>Node7&#45;&gt;Node20</title>
<path fill="none" stroke="#191970" d="M563.3477,-393.4948C512.839,-383.8741 430.3272,-368.1576 374.1688,-357.4607"/>
<polygon fill="#191970" stroke="#191970" points="374.4815,-353.9574 364.0032,-355.5244 373.1716,-360.8338 374.4815,-353.9574"/>
</g>
<!-- Node9 -->
<g id="node10" class="node">
<title>Node9</title>
<polygon fill="#ffffff" stroke="#bfbfbf" points="626,-168.5 626,-187.5 744,-187.5 744,-168.5 626,-168.5"/>
<text text-anchor="middle" x="685" y="-175.5" font-family="Helvetica,sans-Serif" font-size="10.00" fill="#000000">odp/api/abi/std_types.h</text>
</g>
<!-- Node8&#45;&gt;Node9 -->
<g id="edge12" class="edge">
<title>Node8&#45;&gt;Node9</title>
<path fill="none" stroke="#191970" d="M608.1994,-224.2455C622.6018,-215.5731 643.8732,-202.7645 660.3799,-192.825"/>
<polygon fill="#191970" stroke="#191970" points="662.225,-195.7996 668.9863,-187.6427 658.614,-189.8028 662.225,-195.7996"/>
</g>
<!-- Node10 -->
<g id="node11" class="node">
<title>Node10</title>
<g id="a_node11"><a xlink:href="api_2spec_2std__types_8h.html" target="_top" xlink:title="Standard C language types and definitions for ODP. ">
<polygon fill="#ffffff" stroke="#000000" points="482,-168.5 482,-187.5 608,-187.5 608,-168.5 482,-168.5"/>
<text text-anchor="middle" x="545" y="-175.5" font-family="Helvetica,sans-Serif" font-size="10.00" fill="#000000">odp/api/spec/std_types.h</text>
</a>
</g>
</g>
<!-- Node8&#45;&gt;Node10 -->
<g id="edge13" class="edge">
<title>Node8&#45;&gt;Node10</title>
<path fill="none" stroke="#191970" d="M583.8132,-224.2455C577.1411,-216.2958 567.5521,-204.8706 559.5747,-195.3656"/>
<polygon fill="#191970" stroke="#191970" points="562.2026,-193.0524 553.093,-187.6427 556.8408,-197.5525 562.2026,-193.0524"/>
</g>
<!-- Node10&#45;&gt;Node1 -->
<g id="edge14" class="edge">
<title>Node10&#45;&gt;Node1</title>
<path fill="none" stroke="#191970" d="M596.2029,-168.4819C643.8136,-156.4075 710.9062,-130.2291 735,-76 738.6091,-67.8768 740.428,-63.0391 735,-56 721.2521,-38.1714 668.0383,-25.8868 623.8626,-18.5271"/>
<polygon fill="#191970" stroke="#191970" points="624.1558,-15.0293 613.7269,-16.8966 623.044,-21.9405 624.1558,-15.0293"/>
</g>
<!-- Node10&#45;&gt;Node4 -->
<g id="edge21" class="edge">
<title>Node10&#45;&gt;Node4</title>
<path fill="none" stroke="#191970" d="M536.6999,-168.4017C528.9526,-159.2793 517.2327,-145.0531 508,-132 485.066,-99.576 493.1126,-79.3681 461,-56 440.8519,-41.3383 380.7659,-28.1549 334.0829,-19.6991"/>
<polygon fill="#191970" stroke="#191970" points="334.5024,-16.2189 324.0443,-17.9154 333.2777,-23.111 334.5024,-16.2189"/>
</g>
<!-- Node11 -->
<g id="node12" class="node">
<title>Node11</title>
<polygon fill="#ffffff" stroke="#bfbfbf" points="516.5,-112.5 516.5,-131.5 565.5,-131.5 565.5,-112.5 516.5,-112.5"/>
<text text-anchor="middle" x="541" y="-119.5" font-family="Helvetica,sans-Serif" font-size="10.00" fill="#000000">stdint.h</text>
</g>
<!-- Node10&#45;&gt;Node11 -->
<g id="edge15" class="edge">
<title>Node10&#45;&gt;Node11</title>
<path fill="none" stroke="#191970" d="M544.3033,-168.2455C543.7813,-160.9382 543.0496,-150.6944 542.4075,-141.7046"/>
<polygon fill="#191970" stroke="#191970" points="545.8924,-141.3679 541.6888,-131.6427 538.9102,-141.8667 545.8924,-141.3679"/>
</g>
<!-- Node12 -->
<g id="node13" class="node">
<title>Node12</title>
<g id="a_node13"><a xlink:href="api_2align_8h.html" target="_top" xlink:title="ODP alignments. ">
<polygon fill="#ffffff" stroke="#000000" points="584,-112.5 584,-131.5 664,-131.5 664,-112.5 584,-112.5"/>
<text text-anchor="middle" x="624" y="-119.5" font-family="Helvetica,sans-Serif" font-size="10.00" fill="#000000">odp/api/align.h</text>
</a>
</g>
</g>
<!-- Node10&#45;&gt;Node12 -->
<g id="edge16" class="edge">
<title>Node10&#45;&gt;Node12</title>
<path fill="none" stroke="#191970" d="M558.7607,-168.2455C570.6552,-159.814 588.065,-147.4729 601.9085,-137.6598"/>
<polygon fill="#191970" stroke="#191970" points="604.2628,-140.2811 610.3969,-131.6427 600.2146,-134.5704 604.2628,-140.2811"/>
</g>
<!-- Node13 -->
<g id="node14" class="node">
<title>Node13</title>
<polygon fill="#ffffff" stroke="#bfbfbf" points="630.5,-56.5 630.5,-75.5 725.5,-75.5 725.5,-56.5 630.5,-56.5"/>
<text text-anchor="middle" x="678" y="-63.5" font-family="Helvetica,sans-Serif" font-size="10.00" fill="#000000">odp/api/abi/align.h</text>
</g>
<!-- Node12&#45;&gt;Node13 -->
<g id="edge17" class="edge">
<title>Node12&#45;&gt;Node13</title>
<path fill="none" stroke="#191970" d="M633.4061,-112.2455C641.1493,-104.2155 652.312,-92.6394 661.5318,-83.0781"/>
<polygon fill="#191970" stroke="#191970" points="664.2798,-85.2706 668.7017,-75.6427 659.2409,-80.4117 664.2798,-85.2706"/>
</g>
<!-- Node14 -->
<g id="node15" class="node">
<title>Node14</title>
<g id="a_node15"><a xlink:href="api_2spec_2align_8h.html" target="_top" xlink:title="ODP alignments. ">
<polygon fill="#ffffff" stroke="#000000" points="508,-56.5 508,-75.5 612,-75.5 612,-56.5 508,-56.5"/>
<text text-anchor="middle" x="560" y="-63.5" font-family="Helvetica,sans-Serif" font-size="10.00" fill="#000000">odp/api/spec/align.h</text>
</a>
</g>
</g>
<!-- Node12&#45;&gt;Node14 -->
<g id="edge18" class="edge">
<title>Node12&#45;&gt;Node14</title>
<path fill="none" stroke="#191970" d="M612.8521,-112.2455C603.4913,-104.0549 589.9142,-92.1749 578.8651,-82.5069"/>
<polygon fill="#191970" stroke="#191970" points="580.8508,-79.5937 571.0202,-75.6427 576.2412,-84.8618 580.8508,-79.5937"/>
</g>
<!-- Node14&#45;&gt;Node1 -->
<g id="edge19" class="edge">
<title>Node14&#45;&gt;Node1</title>
<path fill="none" stroke="#191970" d="M560,-56.2455C560,-48.9382 560,-38.6944 560,-29.7046"/>
<polygon fill="#191970" stroke="#191970" points="563.5001,-29.6426 560,-19.6427 556.5001,-29.6427 563.5001,-29.6426"/>
</g>
<!-- Node14&#45;&gt;Node4 -->
<g id="edge20" class="edge">
<title>Node14&#45;&gt;Node4</title>
<path fill="none" stroke="#191970" d="M511.1598,-56.4369C461.699,-46.7522 385.184,-31.7703 332.512,-21.4569"/>
<polygon fill="#191970" stroke="#191970" points="333.125,-18.0105 322.6387,-19.5237 331.7798,-24.8801 333.125,-18.0105"/>
</g>
<!-- Node20&#45;&gt;Node1 -->
<g id="edge28" class="edge">
<title>Node20&#45;&gt;Node1</title>
<path fill="none" stroke="#191970" d="M362.72,-336.4823C468.294,-314.6851 711.9954,-257.6209 753,-188 769.7509,-159.559 839.6007,-166.7966 750,-56 734.1604,-36.4134 672.8072,-24.075 624.0481,-17.1646"/>
<polygon fill="#191970" stroke="#191970" points="624.2373,-13.658 613.8555,-15.7717 623.2895,-20.5935 624.2373,-13.658"/>
</g>
<!-- Node20&#45;&gt;Node4 -->
<g id="edge35" class="edge">
<title>Node20&#45;&gt;Node4</title>
<path fill="none" stroke="#191970" d="M298.6828,-336.3225C251.4316,-305.4329 108.0557,-203.6907 57,-76 53.6999,-67.7464 51.4041,-62.9064 57,-56 76.4401,-32.007 156.683,-20.0226 213.9198,-14.4171"/>
<polygon fill="#191970" stroke="#191970" points="214.3332,-17.8937 223.9626,-13.4751 213.6795,-10.9243 214.3332,-17.8937"/>
</g>
<!-- Node21 -->
<g id="node22" class="node">
<title>Node21</title>
<g id="a_node22"><a xlink:href="api_2time_8h.html" target="_top" xlink:title="ODP time. ">
<polygon fill="#ffffff" stroke="#000000" points="325,-280.5 325,-299.5 403,-299.5 403,-280.5 325,-280.5"/>
<text text-anchor="middle" x="364" y="-287.5" font-family="Helvetica,sans-Serif" font-size="10.00" fill="#000000">odp/api/time.h</text>
</a>
</g>
</g>
<!-- Node20&#45;&gt;Node21 -->
<g id="edge29" class="edge">
<title>Node20&#45;&gt;Node21</title>
<path fill="none" stroke="#191970" d="M322.7093,-336.2455C329.8073,-328.2958 340.0084,-316.8706 348.495,-307.3656"/>
<polygon fill="#191970" stroke="#191970" points="351.3411,-309.4331 355.3905,-299.6427 346.1195,-304.771 351.3411,-309.4331"/>
</g>
<!-- Node21&#45;&gt;Node8 -->
<g id="edge30" class="edge">
<title>Node21&#45;&gt;Node8</title>
<path fill="none" stroke="#191970" d="M402.9355,-280.4369C441.792,-270.8932 501.593,-256.2052 543.5089,-245.9101"/>
<polygon fill="#191970" stroke="#191970" points="544.3486,-249.308 553.2251,-243.5237 542.6788,-242.51 544.3486,-249.308"/>
</g>
<!-- Node22 -->
<g id="node23" class="node">
<title>Node22</title>
<polygon fill="#ffffff" stroke="#bfbfbf" points="279,-224.5 279,-243.5 373,-243.5 373,-224.5 279,-224.5"/>
<text text-anchor="middle" x="326" y="-231.5" font-family="Helvetica,sans-Serif" font-size="10.00" fill="#000000">odp/api/abi/time.h</text>
</g>
<!-- Node21&#45;&gt;Node22 -->
<g id="edge31" class="edge">
<title>Node21&#45;&gt;Node22</title>
<path fill="none" stroke="#191970" d="M357.3809,-280.2455C352.0954,-272.4564 344.5459,-261.3308 338.1762,-251.9439"/>
<polygon fill="#191970" stroke="#191970" points="341.0545,-249.9522 332.5432,-243.6427 335.2621,-253.8827 341.0545,-249.9522"/>
</g>
<!-- Node23 -->
<g id="node24" class="node">
<title>Node23</title>
<g id="a_node24"><a xlink:href="api_2spec_2time_8h.html" target="_top" xlink:title="ODP time. ">
<polygon fill="#ffffff" stroke="#000000" points="350,-56.5 350,-75.5 452,-75.5 452,-56.5 350,-56.5"/>
<text text-anchor="middle" x="401" y="-63.5" font-family="Helvetica,sans-Serif" font-size="10.00" fill="#000000">odp/api/spec/time.h</text>
</a>
</g>
</g>
<!-- Node21&#45;&gt;Node23 -->
<g id="edge32" class="edge">
<title>Node21&#45;&gt;Node23</title>
<path fill="none" stroke="#191970" d="M368.6403,-280.3755C372.8349,-271.2345 378.8243,-256.9958 382,-244 395.7263,-187.8276 399.5366,-119.28 400.594,-86.019"/>
<polygon fill="#191970" stroke="#191970" points="404.0985,-85.8931 400.865,-75.8038 397.1009,-85.7075 404.0985,-85.8931"/>
</g>
<!-- Node23&#45;&gt;Node1 -->
<g id="edge33" class="edge">
<title>Node23&#45;&gt;Node1</title>
<path fill="none" stroke="#191970" d="M428.3331,-56.3733C454.5434,-47.1419 494.2984,-33.1402 523.2668,-22.9375"/>
<polygon fill="#191970" stroke="#191970" points="524.7542,-26.1244 533.0236,-19.5011 522.4288,-19.5219 524.7542,-26.1244"/>
</g>
<!-- Node23&#45;&gt;Node4 -->
<g id="edge34" class="edge">
<title>Node23&#45;&gt;Node4</title>
<path fill="none" stroke="#191970" d="M379.1679,-56.3733C358.6897,-47.3435 327.8601,-33.7494 304.8681,-23.6111"/>
<polygon fill="#191970" stroke="#191970" points="306.1093,-20.3333 295.5472,-19.5011 303.285,-26.7383 306.1093,-20.3333"/>
</g>
</g>
</svg>
