<?xml version="1.0" encoding="UTF-8" standalone="no"?>
<!DOCTYPE svg PUBLIC "-//W3C//DTD SVG 1.1//EN"
 "http://www.w3.org/Graphics/SVG/1.1/DTD/svg11.dtd">
<!-- Generated by graphviz version 2.40.1 (20161225.0304)
 -->
<!-- Title: packet_io.h Pages: 1 -->
<svg width="252pt" height="364pt"
 viewBox="0.00 0.00 251.52 364.00" xmlns="http://www.w3.org/2000/svg" xmlns:xlink="http://www.w3.org/1999/xlink">
<g id="graph0" class="graph" transform="scale(1 1) rotate(0) translate(4 360)">
<title>packet_io.h</title>
<polygon fill="#ffffff" stroke="transparent" points="-4,4 -4,-360 247.5189,-360 247.5189,4 -4,4"/>
<!-- Node37 -->
<g id="node1" class="node">
<title>Node37</title>
<polygon fill="#bfbfbf" stroke="#000000" points="69.5189,-336.5 69.5189,-355.5 136.5189,-355.5 136.5189,-336.5 69.5189,-336.5"/>
<text text-anchor="middle" x="103.0189" y="-343.5" font-family="Helvetica,sans-Serif" font-size="10.00" fill="#000000">packet_io.h</text>
</g>
<!-- Node38 -->
<g id="node2" class="node">
<title>Node38</title>
<g id="a_node2"><a xlink:href="api_2spec_2classification_8h.html" target="_top" xlink:title="ODP classification descriptor. ">
<polygon fill="#ffffff" stroke="#000000" points="28.0189,-280.5 28.0189,-299.5 110.0189,-299.5 110.0189,-280.5 28.0189,-280.5"/>
<text text-anchor="middle" x="69.0189" y="-287.5" font-family="Helvetica,sans-Serif" font-size="10.00" fill="#000000">classification.h</text>
</a>
</g>
</g>
<!-- Node37&#45;&gt;Node38 -->
<g id="edge1" class="edge">
<title>Node37&#45;&gt;Node38</title>
<path fill="none" stroke="#191970" d="M91.8655,-327.6296C86.1942,-318.2887 79.5345,-307.3197 74.8734,-299.6427"/>
<polygon fill="#191970" stroke="#191970" points="88.915,-329.5141 97.0966,-336.2455 94.8985,-325.8812 88.915,-329.5141"/>
</g>
<!-- Node40 -->
<g id="node4" class="node">
<title>Node40</title>
<g id="a_node4"><a xlink:href="api_2spec_2ipsec_8h.html" target="_top" xlink:title="ODP IPSEC API. ">
<polygon fill="#ffffff" stroke="#000000" points="111.0189,-168.5 111.0189,-187.5 159.0189,-187.5 159.0189,-168.5 111.0189,-168.5"/>
<text text-anchor="middle" x="135.0189" y="-175.5" font-family="Helvetica,sans-Serif" font-size="10.00" fill="#000000">ipsec.h</text>
</a>
</g>
</g>
<!-- Node37&#45;&gt;Node40 -->
<g id="edge8" class="edge">
<title>Node37&#45;&gt;Node40</title>
<path fill="none" stroke="#191970" d="M110.6293,-326.9418C113.6382,-318.7608 116.8813,-309.0248 119.0189,-300 128.7674,-258.8421 133.0075,-208.3693 134.4284,-187.6114"/>
<polygon fill="#191970" stroke="#191970" points="107.3525,-325.7117 107.0441,-336.302 113.8895,-328.2155 107.3525,-325.7117"/>
</g>
<!-- Node42 -->
<g id="node6" class="node">
<title>Node42</title>
<g id="a_node6"><a xlink:href="odp__api_8h.html" target="_top" xlink:title="The OpenDataPlane API. ">
<polygon fill="#ffffff" stroke="#000000" points="73.5189,-56.5 73.5189,-75.5 132.5189,-75.5 132.5189,-56.5 73.5189,-56.5"/>
<text text-anchor="middle" x="103.0189" y="-63.5" font-family="Helvetica,sans-Serif" font-size="10.00" fill="#000000">odp_api.h</text>
</a>
</g>
</g>
<!-- Node37&#45;&gt;Node42 -->
<g id="edge13" class="edge">
<title>Node37&#45;&gt;Node42</title>
<path fill="none" stroke="#191970" d="M64.2382,-332.5127C48.1941,-325.1628 30.658,-314.5399 19.0189,-300 -.0568,-276.17 .0189,-264.5246 .0189,-234 .0189,-234 .0189,-234 .0189,-178 .0189,-128.8646 54.3919,-92.0051 84.1271,-75.5213"/>
<polygon fill="#191970" stroke="#191970" points="62.8864,-335.7412 73.4564,-336.4668 65.646,-329.3081 62.8864,-335.7412"/>
</g>
<!-- Node44 -->
<g id="node8" class="node">
<title>Node44</title>
<g id="a_node8"><a xlink:href="api_2spec_2traffic__mngr_8h.html" target="_top" xlink:title="Copyright (c) 2015&#45;2018, Linaro Limited All rights reserved. ">
<polygon fill="#ffffff" stroke="#000000" points="166.5189,-280.5 166.5189,-299.5 243.5189,-299.5 243.5189,-280.5 166.5189,-280.5"/>
<text text-anchor="middle" x="205.0189" y="-287.5" font-family="Helvetica,sans-Serif" font-size="10.00" fill="#000000">traffic_mngr.h</text>
</a>
</g>
</g>
<!-- Node37&#45;&gt;Node44 -->
<g id="edge9" class="edge">
<title>Node37&#45;&gt;Node44</title>
<path fill="none" stroke="#191970" d="M129.7529,-331.3225C147.9721,-321.3198 171.5787,-308.3593 187.4555,-299.6427"/>
<polygon fill="#191970" stroke="#191970" points="127.8674,-328.3649 120.786,-336.2455 131.2362,-334.5009 127.8674,-328.3649"/>
</g>
<!-- Node39 -->
<g id="node3" class="node">
<title>Node39</title>
<g id="a_node3"><a xlink:href="api_2classification_8h.html" target="_top" xlink:title="ODP classification descriptor. ">
<polygon fill="#ffffff" stroke="#000000" points="28.0189,-224.5 28.0189,-243.5 110.0189,-243.5 110.0189,-224.5 28.0189,-224.5"/>
<text text-anchor="middle" x="69.0189" y="-231.5" font-family="Helvetica,sans-Serif" font-size="10.00" fill="#000000">classification.h</text>
</a>
</g>
</g>
<!-- Node38&#45;&gt;Node39 -->
<g id="edge2" class="edge">
<title>Node38&#45;&gt;Node39</title>
<path fill="none" stroke="#191970" d="M69.0189,-270.1575C69.0189,-261.155 69.0189,-250.9199 69.0189,-243.6427"/>
<polygon fill="#191970" stroke="#191970" points="65.519,-270.2455 69.0189,-280.2455 72.519,-270.2456 65.519,-270.2455"/>
</g>
<!-- Node39&#45;&gt;Node40 -->
<g id="edge3" class="edge">
<title>Node39&#45;&gt;Node40</title>
<path fill="none" stroke="#191970" d="M88.2944,-217.645C99.7728,-207.9058 113.9467,-195.8795 123.6544,-187.6427"/>
<polygon fill="#191970" stroke="#191970" points="85.8759,-215.1069 80.5153,-224.2455 90.4048,-220.4445 85.8759,-215.1069"/>
</g>
<!-- Node39&#45;&gt;Node42 -->
<g id="edge7" class="edge">
<title>Node39&#45;&gt;Node42</title>
<path fill="none" stroke="#191970" d="M73.0139,-214.2601C80.3185,-178.1669 95.5783,-102.7656 101.03,-75.8279"/>
<polygon fill="#191970" stroke="#191970" points="69.4976,-213.9907 70.9443,-224.4862 76.3585,-215.3792 69.4976,-213.9907"/>
</g>
<!-- Node41 -->
<g id="node5" class="node">
<title>Node41</title>
<g id="a_node5"><a xlink:href="api_2ipsec_8h.html" target="_top" xlink:title="ODP IPSEC API &#45; platform specific header. ">
<polygon fill="#ffffff" stroke="#000000" points="109.0189,-112.5 109.0189,-131.5 157.0189,-131.5 157.0189,-112.5 109.0189,-112.5"/>
<text text-anchor="middle" x="133.0189" y="-119.5" font-family="Helvetica,sans-Serif" font-size="10.00" fill="#000000">ipsec.h</text>
</a>
</g>
</g>
<!-- Node40&#45;&gt;Node41 -->
<g id="edge4" class="edge">
<title>Node40&#45;&gt;Node41</title>
<path fill="none" stroke="#191970" d="M134.3103,-158.1575C133.9888,-149.155 133.6232,-138.9199 133.3633,-131.6427"/>
<polygon fill="#191970" stroke="#191970" points="130.8158,-158.3769 134.6706,-168.2455 137.8113,-158.127 130.8158,-158.3769"/>
</g>
<!-- Node41&#45;&gt;Node42 -->
<g id="edge5" class="edge">
<title>Node41&#45;&gt;Node42</title>
<path fill="none" stroke="#191970" d="M123.021,-103.3372C118.0514,-94.0605 112.2545,-83.2398 108.1847,-75.6427"/>
<polygon fill="#191970" stroke="#191970" points="119.9859,-105.0835 127.7933,-112.2455 126.1563,-101.7779 119.9859,-105.0835"/>
</g>
<!-- Node43 -->
<g id="node7" class="node">
<title>Node43</title>
<g id="a_node7"><a xlink:href="odp_8h.html" target="_top" xlink:title="WARNING: THIS FILE IS DEPRECATED AND WILL BE REMOVED!!! ODP APPLICATIONS SHOULD NOW INCLUDE odp_api...">
<polygon fill="#ffffff" stroke="#000000" points="82.5189,-.5 82.5189,-19.5 123.5189,-19.5 123.5189,-.5 82.5189,-.5"/>
<text text-anchor="middle" x="103.0189" y="-7.5" font-family="Helvetica,sans-Serif" font-size="10.00" fill="#000000">odp.h</text>
</a>
</g>
</g>
<!-- Node42&#45;&gt;Node43 -->
<g id="edge6" class="edge">
<title>Node42&#45;&gt;Node43</title>
<path fill="none" stroke="#191970" d="M103.0189,-46.1575C103.0189,-37.155 103.0189,-26.9199 103.0189,-19.6427"/>
<polygon fill="#191970" stroke="#191970" points="99.519,-46.2455 103.0189,-56.2455 106.519,-46.2456 99.519,-46.2455"/>
</g>
<!-- Node45 -->
<g id="node9" class="node">
<title>Node45</title>
<g id="a_node9"><a xlink:href="api_2traffic__mngr_8h.html" target="_top" xlink:title="ODP Traffic manager. ">
<polygon fill="#ffffff" stroke="#000000" points="166.5189,-224.5 166.5189,-243.5 243.5189,-243.5 243.5189,-224.5 166.5189,-224.5"/>
<text text-anchor="middle" x="205.0189" y="-231.5" font-family="Helvetica,sans-Serif" font-size="10.00" fill="#000000">traffic_mngr.h</text>
</a>
</g>
</g>
<!-- Node44&#45;&gt;Node45 -->
<g id="edge10" class="edge">
<title>Node44&#45;&gt;Node45</title>
<path fill="none" stroke="#191970" d="M205.0189,-270.1575C205.0189,-261.155 205.0189,-250.9199 205.0189,-243.6427"/>
<polygon fill="#191970" stroke="#191970" points="201.519,-270.2455 205.0189,-280.2455 208.519,-270.2456 201.519,-270.2455"/>
</g>
<!-- Node45&#45;&gt;Node40 -->
<g id="edge11" class="edge">
<title>Node45&#45;&gt;Node40</title>
<path fill="none" stroke="#191970" d="M184.929,-217.928C172.6936,-208.1397 157.4683,-195.9595 147.0723,-187.6427"/>
<polygon fill="#191970" stroke="#191970" points="182.8307,-220.7316 192.8259,-224.2455 187.2036,-215.2655 182.8307,-220.7316"/>
</g>
<!-- Node45&#45;&gt;Node42 -->
<g id="edge12" class="edge">
<title>Node45&#45;&gt;Node42</title>
<path fill="none" stroke="#191970" d="M202.559,-214.2235C198.5586,-188.5789 188.6781,-143.4222 166.0189,-112 154.6124,-96.1822 136.1046,-83.6047 122.0936,-75.6271"/>
<polygon fill="#191970" stroke="#191970" points="199.1065,-214.8066 203.971,-224.2187 206.0377,-213.8274 199.1065,-214.8066"/>
</g>
</g>
</svg>
