<?xml version="1.0" encoding="UTF-8" standalone="no"?>
<!DOCTYPE svg PUBLIC "-//W3C//DTD SVG 1.1//EN"
 "http://www.w3.org/Graphics/SVG/1.1/DTD/svg11.dtd">
<!-- Generated by graphviz version 2.40.1 (20161225.0304)
 -->
<!-- Title: align.h Pages: 1 -->
<svg width="2529pt" height="532pt"
 viewBox="0.00 0.00 2529.00 532.00" xmlns="http://www.w3.org/2000/svg" xmlns:xlink="http://www.w3.org/1999/xlink">
<g id="graph0" class="graph" transform="scale(1 1) rotate(0) translate(4 528)">
<title>align.h</title>
<polygon fill="#ffffff" stroke="transparent" points="-4,4 -4,-528 2525,-528 2525,4 -4,4"/>
<!-- Node3 -->
<g id="node1" class="node">
<title>Node3</title>
<polygon fill="#bfbfbf" stroke="#000000" points="1538.5,-504.5 1538.5,-523.5 1583.5,-523.5 1583.5,-504.5 1538.5,-504.5"/>
<text text-anchor="middle" x="1561" y="-511.5" font-family="Helvetica,sans-Serif" font-size="10.00" fill="#000000">align.h</text>
</g>
<!-- Node4 -->
<g id="node2" class="node">
<title>Node4</title>
<g id="a_node2"><a xlink:href="api_2align_8h.html" target="_top" xlink:title="ODP alignments. ">
<polygon fill="#ffffff" stroke="#000000" points="1538.5,-448.5 1538.5,-467.5 1583.5,-467.5 1583.5,-448.5 1538.5,-448.5"/>
<text text-anchor="middle" x="1561" y="-455.5" font-family="Helvetica,sans-Serif" font-size="10.00" fill="#000000">align.h</text>
</a>
</g>
</g>
<!-- Node3&#45;&gt;Node4 -->
<g id="edge1" class="edge">
<title>Node3&#45;&gt;Node4</title>
<path fill="none" stroke="#191970" d="M1561,-494.1575C1561,-485.155 1561,-474.9199 1561,-467.6427"/>
<polygon fill="#191970" stroke="#191970" points="1557.5001,-494.2455 1561,-504.2455 1564.5001,-494.2456 1557.5001,-494.2455"/>
</g>
<!-- Node5 -->
<g id="node3" class="node">
<title>Node5</title>
<g id="a_node3"><a xlink:href="api_2abi-default_2atomic_8h.html" target="_top" xlink:title="ODP atomic operations. ">
<polygon fill="#ffffff" stroke="#000000" points="180,-280.5 180,-299.5 234,-299.5 234,-280.5 180,-280.5"/>
<text text-anchor="middle" x="207" y="-287.5" font-family="Helvetica,sans-Serif" font-size="10.00" fill="#000000">atomic.h</text>
</a>
</g>
</g>
<!-- Node4&#45;&gt;Node5 -->
<g id="edge2" class="edge">
<title>Node4&#45;&gt;Node5</title>
<path fill="none" stroke="#191970" d="M1527.8996,-455.8891C1378.1221,-445.9495 749.1959,-400.046 243,-300 240.0728,-299.4215 237.0352,-298.7279 234.0213,-297.9795"/>
<polygon fill="#191970" stroke="#191970" points="1528.0265,-459.4049 1538.2345,-456.568 1528.4855,-452.4199 1528.0265,-459.4049"/>
</g>
<!-- Node23 -->
<g id="node14" class="node">
<title>Node23</title>
<g id="a_node14"><a xlink:href="odp__api_8h.html" target="_top" xlink:title="The OpenDataPlane API. ">
<polygon fill="#ffffff" stroke="#000000" points="1620.5,-56.5 1620.5,-75.5 1679.5,-75.5 1679.5,-56.5 1620.5,-56.5"/>
<text text-anchor="middle" x="1650" y="-63.5" font-family="Helvetica,sans-Serif" font-size="10.00" fill="#000000">odp_api.h</text>
</a>
</g>
</g>
<!-- Node4&#45;&gt;Node23 -->
<g id="edge67" class="edge">
<title>Node4&#45;&gt;Node23</title>
<path fill="none" stroke="#191970" d="M1594.0345,-457.6933C1762.8193,-455.7003 2521,-441.4366 2521,-346 2521,-346 2521,-346 2521,-178 2521,-91.2406 1832.3824,-70.2193 1679.7298,-66.6253"/>
<polygon fill="#191970" stroke="#191970" points="1593.7439,-454.1962 1583.7836,-457.8075 1593.822,-461.1958 1593.7439,-454.1962"/>
</g>
<!-- Node52 -->
<g id="node16" class="node">
<title>Node52</title>
<g id="a_node16"><a xlink:href="api_2abi-default_2cpumask_8h.html" target="_top" xlink:title="ODP CPU masks and enumeration. ">
<polygon fill="#ffffff" stroke="#000000" points="2095.5,-280.5 2095.5,-299.5 2160.5,-299.5 2160.5,-280.5 2095.5,-280.5"/>
<text text-anchor="middle" x="2128" y="-287.5" font-family="Helvetica,sans-Serif" font-size="10.00" fill="#000000">cpumask.h</text>
</a>
</g>
</g>
<!-- Node4&#45;&gt;Node52 -->
<g id="edge16" class="edge">
<title>Node4&#45;&gt;Node52</title>
<path fill="none" stroke="#191970" d="M1593.4026,-448.3992C1693.2877,-418.8036 1995.7251,-329.1926 2095.6029,-299.5992"/>
<polygon fill="#191970" stroke="#191970" points="1592.1706,-445.1138 1583.577,-451.3105 1594.1593,-451.8254 1592.1706,-445.1138"/>
</g>
<!-- Node76 -->
<g id="node26" class="node">
<title>Node76</title>
<g id="a_node26"><a xlink:href="api_2spec_2std__types_8h.html" target="_top" xlink:title="Standard C language types and definitions for ODP. ">
<polygon fill="#ffffff" stroke="#000000" points="1496,-392.5 1496,-411.5 1564,-411.5 1564,-392.5 1496,-392.5"/>
<text text-anchor="middle" x="1530" y="-399.5" font-family="Helvetica,sans-Serif" font-size="10.00" fill="#000000">std_types.h</text>
</a>
</g>
</g>
<!-- Node4&#45;&gt;Node76 -->
<g id="edge27" class="edge">
<title>Node4&#45;&gt;Node76</title>
<path fill="none" stroke="#191970" d="M1550.6688,-439.3372C1545.5335,-430.0605 1539.5434,-419.2398 1535.3379,-411.6427"/>
<polygon fill="#191970" stroke="#191970" points="1547.6949,-441.1917 1555.6002,-448.2455 1553.8191,-437.8015 1547.6949,-441.1917"/>
</g>
<!-- Node6 -->
<g id="node4" class="node">
<title>Node6</title>
<g id="a_node4"><a xlink:href="arch_2arm32-linux_2odp_2api_2abi_2atomic_8h_source.html" target="_top" xlink:title="atomic.h">
<polygon fill="#ffffff" stroke="#000000" points="432,-224.5 432,-243.5 486,-243.5 486,-224.5 432,-224.5"/>
<text text-anchor="middle" x="459" y="-231.5" font-family="Helvetica,sans-Serif" font-size="10.00" fill="#000000">atomic.h</text>
</a>
</g>
</g>
<!-- Node5&#45;&gt;Node6 -->
<g id="edge3" class="edge">
<title>Node5&#45;&gt;Node6</title>
<path fill="none" stroke="#191970" d="M244.1182,-279.871C324.1091,-261.1831 346.7423,-262.1911 423,-244 425.9024,-243.3076 428.9241,-242.5412 431.9286,-241.7497"/>
<polygon fill="#191970" stroke="#191970" points="242.9957,-276.54 234.0714,-282.2503 244.6089,-283.3516 242.9957,-276.54"/>
</g>
<!-- Node7 -->
<g id="node5" class="node">
<title>Node7</title>
<g id="a_node5"><a xlink:href="arch_2arm64-linux_2odp_2api_2abi_2atomic_8h_source.html" target="_top" xlink:title="atomic.h">
<polygon fill="#ffffff" stroke="#000000" points="0,-224.5 0,-243.5 54,-243.5 54,-224.5 0,-224.5"/>
<text text-anchor="middle" x="27" y="-231.5" font-family="Helvetica,sans-Serif" font-size="10.00" fill="#000000">atomic.h</text>
</a>
</g>
</g>
<!-- Node5&#45;&gt;Node7 -->
<g id="edge4" class="edge">
<title>Node5&#45;&gt;Node7</title>
<path fill="none" stroke="#191970" d="M169.9501,-278.4734C135.4483,-267.7395 84.8355,-251.9933 54.0056,-242.4017"/>
<polygon fill="#191970" stroke="#191970" points="169.0735,-281.8661 179.6619,-281.4948 171.1531,-275.1821 169.0735,-281.8661"/>
</g>
<!-- Node8 -->
<g id="node6" class="node">
<title>Node8</title>
<g id="a_node6"><a xlink:href="arch_2default-linux_2odp_2api_2abi_2atomic_8h_source.html" target="_top" xlink:title="atomic.h">
<polygon fill="#ffffff" stroke="#000000" points="144,-224.5 144,-243.5 198,-243.5 198,-224.5 144,-224.5"/>
<text text-anchor="middle" x="171" y="-231.5" font-family="Helvetica,sans-Serif" font-size="10.00" fill="#000000">atomic.h</text>
</a>
</g>
</g>
<!-- Node5&#45;&gt;Node8 -->
<g id="edge5" class="edge">
<title>Node5&#45;&gt;Node8</title>
<path fill="none" stroke="#191970" d="M195.1904,-271.6296C189.1856,-262.2887 182.1341,-251.3197 177.1989,-243.6427"/>
<polygon fill="#191970" stroke="#191970" points="192.3775,-273.7264 200.7293,-280.2455 198.2658,-269.9411 192.3775,-273.7264"/>
</g>
<!-- Node9 -->
<g id="node7" class="node">
<title>Node9</title>
<g id="a_node7"><a xlink:href="arch_2mips64-linux_2odp_2api_2abi_2atomic_8h_source.html" target="_top" xlink:title="atomic.h">
<polygon fill="#ffffff" stroke="#000000" points="216,-224.5 216,-243.5 270,-243.5 270,-224.5 216,-224.5"/>
<text text-anchor="middle" x="243" y="-231.5" font-family="Helvetica,sans-Serif" font-size="10.00" fill="#000000">atomic.h</text>
</a>
</g>
</g>
<!-- Node5&#45;&gt;Node9 -->
<g id="edge6" class="edge">
<title>Node5&#45;&gt;Node9</title>
<path fill="none" stroke="#191970" d="M218.8096,-271.6296C224.8144,-262.2887 231.8659,-251.3197 236.8011,-243.6427"/>
<polygon fill="#191970" stroke="#191970" points="215.7342,-269.9411 213.2707,-280.2455 221.6225,-273.7264 215.7342,-269.9411"/>
</g>
<!-- Node10 -->
<g id="node8" class="node">
<title>Node10</title>
<g id="a_node8"><a xlink:href="arch_2power64-linux_2odp_2api_2abi_2atomic_8h_source.html" target="_top" xlink:title="atomic.h">
<polygon fill="#ffffff" stroke="#000000" points="288,-224.5 288,-243.5 342,-243.5 342,-224.5 288,-224.5"/>
<text text-anchor="middle" x="315" y="-231.5" font-family="Helvetica,sans-Serif" font-size="10.00" fill="#000000">atomic.h</text>
</a>
</g>
</g>
<!-- Node5&#45;&gt;Node10 -->
<g id="edge7" class="edge">
<title>Node5&#45;&gt;Node10</title>
<path fill="none" stroke="#191970" d="M234.7771,-275.5971C254.1382,-265.558 279.4385,-252.4393 296.4034,-243.6427"/>
<polygon fill="#191970" stroke="#191970" points="233.0786,-272.5352 225.8122,-280.2455 236.3008,-278.7495 233.0786,-272.5352"/>
</g>
<!-- Node11 -->
<g id="node9" class="node">
<title>Node11</title>
<g id="a_node9"><a xlink:href="arch_2x86__32-linux_2odp_2api_2abi_2atomic_8h_source.html" target="_top" xlink:title="atomic.h">
<polygon fill="#ffffff" stroke="#000000" points="360,-224.5 360,-243.5 414,-243.5 414,-224.5 360,-224.5"/>
<text text-anchor="middle" x="387" y="-231.5" font-family="Helvetica,sans-Serif" font-size="10.00" fill="#000000">atomic.h</text>
</a>
</g>
</g>
<!-- Node5&#45;&gt;Node11 -->
<g id="edge8" class="edge">
<title>Node5&#45;&gt;Node11</title>
<path fill="none" stroke="#191970" d="M244.0499,-278.4734C278.5517,-267.7395 329.1645,-251.9933 359.9944,-242.4017"/>
<polygon fill="#191970" stroke="#191970" points="242.8469,-275.1821 234.3381,-281.4948 244.9265,-281.8661 242.8469,-275.1821"/>
</g>
<!-- Node12 -->
<g id="node10" class="node">
<title>Node12</title>
<g id="a_node10"><a xlink:href="arch_2x86__64-linux_2odp_2api_2abi_2atomic_8h_source.html" target="_top" xlink:title="atomic.h">
<polygon fill="#ffffff" stroke="#000000" points="72,-224.5 72,-243.5 126,-243.5 126,-224.5 72,-224.5"/>
<text text-anchor="middle" x="99" y="-231.5" font-family="Helvetica,sans-Serif" font-size="10.00" fill="#000000">atomic.h</text>
</a>
</g>
</g>
<!-- Node5&#45;&gt;Node12 -->
<g id="edge9" class="edge">
<title>Node5&#45;&gt;Node12</title>
<path fill="none" stroke="#191970" d="M179.2229,-275.5971C159.8618,-265.558 134.5615,-252.4393 117.5966,-243.6427"/>
<polygon fill="#191970" stroke="#191970" points="177.6992,-278.7495 188.1878,-280.2455 180.9214,-272.5352 177.6992,-278.7495"/>
</g>
<!-- Node13 -->
<g id="node11" class="node">
<title>Node13</title>
<g id="a_node11"><a xlink:href="api_2atomic_8h.html" target="_top" xlink:title="ODP atomic operations. ">
<polygon fill="#ffffff" stroke="#ff0000" points="1241,-168.5 1241,-187.5 1295,-187.5 1295,-168.5 1241,-168.5"/>
<text text-anchor="middle" x="1268" y="-175.5" font-family="Helvetica,sans-Serif" font-size="10.00" fill="#000000">atomic.h</text>
</a>
</g>
</g>
<!-- Node12&#45;&gt;Node13 -->
<g id="edge10" class="edge">
<title>Node12&#45;&gt;Node13</title>
<path fill="none" stroke="#191970" d="M136.5086,-224.153C378.5439,-188.7345 1092.3114,-179.7734 1240.775,-178.2551"/>
<polygon fill="#191970" stroke="#191970" points="135.7336,-220.7306 126.3742,-225.6956 136.7871,-227.6508 135.7336,-220.7306"/>
</g>
<!-- Node14 -->
<g id="node12" class="node">
<title>Node14</title>
<g id="a_node12"><a xlink:href="api_2abi-default_2barrier_8h.html" target="_top" xlink:title="ODP barrier. ">
<polygon fill="#ffffff" stroke="#ff0000" points="1351,-112.5 1351,-131.5 1403,-131.5 1403,-112.5 1351,-112.5"/>
<text text-anchor="middle" x="1377" y="-119.5" font-family="Helvetica,sans-Serif" font-size="10.00" fill="#000000">barrier.h</text>
</a>
</g>
</g>
<!-- Node13&#45;&gt;Node14 -->
<g id="edge11" class="edge">
<title>Node13&#45;&gt;Node14</title>
<path fill="none" stroke="#191970" d="M1296.0342,-163.5971C1315.5746,-153.558 1341.1092,-140.4393 1358.2312,-131.6427"/>
<polygon fill="#191970" stroke="#191970" points="1294.2817,-160.5625 1286.9864,-168.2455 1297.4806,-166.7889 1294.2817,-160.5625"/>
</g>
<!-- Node22 -->
<g id="node13" class="node">
<title>Node22</title>
<g id="a_node13"><a xlink:href="api_2barrier_8h.html" target="_top" xlink:title="ODP execution barriers. ">
<polygon fill="#ffffff" stroke="#000000" points="1281,-112.5 1281,-131.5 1333,-131.5 1333,-112.5 1281,-112.5"/>
<text text-anchor="middle" x="1307" y="-119.5" font-family="Helvetica,sans-Serif" font-size="10.00" fill="#000000">barrier.h</text>
</a>
</g>
</g>
<!-- Node13&#45;&gt;Node22 -->
<g id="edge12" class="edge">
<title>Node13&#45;&gt;Node22</title>
<path fill="none" stroke="#191970" d="M1280.5908,-159.9209C1287.1395,-150.5176 1294.8824,-139.3997 1300.2846,-131.6427"/>
<polygon fill="#191970" stroke="#191970" points="1277.6361,-158.0392 1274.7933,-168.2455 1283.3804,-162.0397 1277.6361,-158.0392"/>
</g>
<!-- Node13&#45;&gt;Node23 -->
<g id="edge15" class="edge">
<title>Node13&#45;&gt;Node23</title>
<path fill="none" stroke="#191970" d="M1263.1711,-158.3813C1260.8239,-143.6933 1260.5895,-124.1234 1272,-112 1295.8158,-86.6963 1535.4792,-71.9282 1620.3796,-67.4579"/>
<polygon fill="#191970" stroke="#191970" points="1259.7975,-159.3556 1265.2201,-168.4576 1266.6572,-157.9606 1259.7975,-159.3556"/>
</g>
<!-- Node22&#45;&gt;Node23 -->
<g id="edge13" class="edge">
<title>Node22&#45;&gt;Node23</title>
<path fill="none" stroke="#191970" d="M1343.2938,-111.9393C1450.5235,-89.1931 1567.0076,-75.032 1620.4671,-69.1154"/>
<polygon fill="#191970" stroke="#191970" points="1342.32,-108.5687 1333.2804,-114.0947 1343.7931,-115.412 1342.32,-108.5687"/>
</g>
<!-- Node24 -->
<g id="node15" class="node">
<title>Node24</title>
<g id="a_node15"><a xlink:href="odp_8h.html" target="_top" xlink:title="WARNING: THIS FILE IS DEPRECATED AND WILL BE REMOVED!!! ODP APPLICATIONS SHOULD NOW INCLUDE odp_api...">
<polygon fill="#ffffff" stroke="#000000" points="1629.5,-.5 1629.5,-19.5 1670.5,-19.5 1670.5,-.5 1629.5,-.5"/>
<text text-anchor="middle" x="1650" y="-7.5" font-family="Helvetica,sans-Serif" font-size="10.00" fill="#000000">odp.h</text>
</a>
</g>
</g>
<!-- Node23&#45;&gt;Node24 -->
<g id="edge14" class="edge">
<title>Node23&#45;&gt;Node24</title>
<path fill="none" stroke="#191970" d="M1650,-46.1575C1650,-37.155 1650,-26.9199 1650,-19.6427"/>
<polygon fill="#191970" stroke="#191970" points="1646.5001,-46.2455 1650,-56.2455 1653.5001,-46.2456 1646.5001,-46.2455"/>
</g>
<!-- Node53 -->
<g id="node17" class="node">
<title>Node53</title>
<g id="a_node17"><a xlink:href="arch_2arm32-linux_2odp_2api_2abi_2cpumask_8h_source.html" target="_top" xlink:title="cpumask.h">
<polygon fill="#ffffff" stroke="#000000" points="2344.5,-224.5 2344.5,-243.5 2409.5,-243.5 2409.5,-224.5 2344.5,-224.5"/>
<text text-anchor="middle" x="2377" y="-231.5" font-family="Helvetica,sans-Serif" font-size="10.00" fill="#000000">cpumask.h</text>
</a>
</g>
</g>
<!-- Node52&#45;&gt;Node53 -->
<g id="edge17" class="edge">
<title>Node52&#45;&gt;Node53</title>
<path fill="none" stroke="#191970" d="M2170.7361,-280.8309C2212.828,-271.7335 2278.9267,-257.2695 2336,-244 2338.7118,-243.3695 2341.522,-242.7058 2344.3415,-242.0328"/>
<polygon fill="#191970" stroke="#191970" points="2169.8692,-277.4373 2160.8326,-282.9681 2171.3459,-284.2798 2169.8692,-277.4373"/>
</g>
<!-- Node54 -->
<g id="node18" class="node">
<title>Node54</title>
<g id="a_node18"><a xlink:href="arch_2arm64-linux_2odp_2api_2abi_2cpumask_8h_source.html" target="_top" xlink:title="cpumask.h">
<polygon fill="#ffffff" stroke="#000000" points="2427.5,-224.5 2427.5,-243.5 2492.5,-243.5 2492.5,-224.5 2427.5,-224.5"/>
<text text-anchor="middle" x="2460" y="-231.5" font-family="Helvetica,sans-Serif" font-size="10.00" fill="#000000">cpumask.h</text>
</a>
</g>
</g>
<!-- Node52&#45;&gt;Node54 -->
<g id="edge18" class="edge">
<title>Node52&#45;&gt;Node54</title>
<path fill="none" stroke="#191970" d="M2170.9656,-284.3378C2227.9174,-276.5748 2331.4248,-261.5706 2419,-244 2421.7298,-243.4523 2424.5525,-242.8469 2427.3805,-242.2129"/>
<polygon fill="#191970" stroke="#191970" points="2170.3277,-280.8921 2160.8876,-285.702 2171.2668,-287.8289 2170.3277,-280.8921"/>
</g>
<!-- Node55 -->
<g id="node19" class="node">
<title>Node55</title>
<g id="a_node19"><a xlink:href="arch_2default-linux_2odp_2api_2abi_2cpumask_8h_source.html" target="_top" xlink:title="cpumask.h">
<polygon fill="#ffffff" stroke="#000000" points="2012.5,-224.5 2012.5,-243.5 2077.5,-243.5 2077.5,-224.5 2012.5,-224.5"/>
<text text-anchor="middle" x="2045" y="-231.5" font-family="Helvetica,sans-Serif" font-size="10.00" fill="#000000">cpumask.h</text>
</a>
</g>
</g>
<!-- Node52&#45;&gt;Node55 -->
<g id="edge19" class="edge">
<title>Node52&#45;&gt;Node55</title>
<path fill="none" stroke="#191970" d="M2105.012,-274.49C2090.3678,-264.6096 2071.8556,-252.1194 2059.2918,-243.6427"/>
<polygon fill="#191970" stroke="#191970" points="2103.2953,-277.5539 2113.5425,-280.2455 2107.2104,-271.7511 2103.2953,-277.5539"/>
</g>
<!-- Node56 -->
<g id="node20" class="node">
<title>Node56</title>
<g id="a_node20"><a xlink:href="arch_2mips64-linux_2odp_2api_2abi_2cpumask_8h_source.html" target="_top" xlink:title="cpumask.h">
<polygon fill="#ffffff" stroke="#000000" points="2095.5,-224.5 2095.5,-243.5 2160.5,-243.5 2160.5,-224.5 2095.5,-224.5"/>
<text text-anchor="middle" x="2128" y="-231.5" font-family="Helvetica,sans-Serif" font-size="10.00" fill="#000000">cpumask.h</text>
</a>
</g>
</g>
<!-- Node52&#45;&gt;Node56 -->
<g id="edge20" class="edge">
<title>Node52&#45;&gt;Node56</title>
<path fill="none" stroke="#191970" d="M2128,-270.1575C2128,-261.155 2128,-250.9199 2128,-243.6427"/>
<polygon fill="#191970" stroke="#191970" points="2124.5001,-270.2455 2128,-280.2455 2131.5001,-270.2456 2124.5001,-270.2455"/>
</g>
<!-- Node57 -->
<g id="node21" class="node">
<title>Node57</title>
<g id="a_node21"><a xlink:href="arch_2power64-linux_2odp_2api_2abi_2cpumask_8h_source.html" target="_top" xlink:title="cpumask.h">
<polygon fill="#ffffff" stroke="#000000" points="2178.5,-224.5 2178.5,-243.5 2243.5,-243.5 2243.5,-224.5 2178.5,-224.5"/>
<text text-anchor="middle" x="2211" y="-231.5" font-family="Helvetica,sans-Serif" font-size="10.00" fill="#000000">cpumask.h</text>
</a>
</g>
</g>
<!-- Node52&#45;&gt;Node57 -->
<g id="edge21" class="edge">
<title>Node52&#45;&gt;Node57</title>
<path fill="none" stroke="#191970" d="M2150.988,-274.49C2165.6322,-264.6096 2184.1444,-252.1194 2196.7082,-243.6427"/>
<polygon fill="#191970" stroke="#191970" points="2148.7896,-271.7511 2142.4575,-280.2455 2152.7047,-277.5539 2148.7896,-271.7511"/>
</g>
<!-- Node58 -->
<g id="node22" class="node">
<title>Node58</title>
<g id="a_node22"><a xlink:href="arch_2x86__32-linux_2odp_2api_2abi_2cpumask_8h_source.html" target="_top" xlink:title="cpumask.h">
<polygon fill="#ffffff" stroke="#000000" points="2261.5,-224.5 2261.5,-243.5 2326.5,-243.5 2326.5,-224.5 2261.5,-224.5"/>
<text text-anchor="middle" x="2294" y="-231.5" font-family="Helvetica,sans-Serif" font-size="10.00" fill="#000000">cpumask.h</text>
</a>
</g>
</g>
<!-- Node52&#45;&gt;Node58 -->
<g id="edge22" class="edge">
<title>Node52&#45;&gt;Node58</title>
<path fill="none" stroke="#191970" d="M2166.3667,-277.057C2196.7466,-266.8084 2238.4819,-252.729 2265.836,-243.5011"/>
<polygon fill="#191970" stroke="#191970" points="2164.893,-273.8603 2156.5364,-280.3733 2167.1306,-280.4931 2164.893,-273.8603"/>
</g>
<!-- Node59 -->
<g id="node23" class="node">
<title>Node59</title>
<g id="a_node23"><a xlink:href="arch_2x86__64-linux_2odp_2api_2abi_2cpumask_8h_source.html" target="_top" xlink:title="cpumask.h">
<polygon fill="#ffffff" stroke="#000000" points="1929.5,-224.5 1929.5,-243.5 1994.5,-243.5 1994.5,-224.5 1929.5,-224.5"/>
<text text-anchor="middle" x="1962" y="-231.5" font-family="Helvetica,sans-Serif" font-size="10.00" fill="#000000">cpumask.h</text>
</a>
</g>
</g>
<!-- Node52&#45;&gt;Node59 -->
<g id="edge23" class="edge">
<title>Node52&#45;&gt;Node59</title>
<path fill="none" stroke="#191970" d="M2089.6333,-277.057C2059.2534,-266.8084 2017.5181,-252.729 1990.164,-243.5011"/>
<polygon fill="#191970" stroke="#191970" points="2088.8694,-280.4931 2099.4636,-280.3733 2091.107,-273.8603 2088.8694,-280.4931"/>
</g>
<!-- Node60 -->
<g id="node24" class="node">
<title>Node60</title>
<g id="a_node24"><a xlink:href="api_2cpumask_8h.html" target="_top" xlink:title="ODP CPU masks and enumeration. ">
<polygon fill="#ffffff" stroke="#ff0000" points="1929.5,-168.5 1929.5,-187.5 1994.5,-187.5 1994.5,-168.5 1929.5,-168.5"/>
<text text-anchor="middle" x="1962" y="-175.5" font-family="Helvetica,sans-Serif" font-size="10.00" fill="#000000">cpumask.h</text>
</a>
</g>
</g>
<!-- Node59&#45;&gt;Node60 -->
<g id="edge24" class="edge">
<title>Node59&#45;&gt;Node60</title>
<path fill="none" stroke="#191970" d="M1962,-214.1575C1962,-205.155 1962,-194.9199 1962,-187.6427"/>
<polygon fill="#191970" stroke="#191970" points="1958.5001,-214.2455 1962,-224.2455 1965.5001,-214.2456 1958.5001,-214.2455"/>
</g>
<!-- Node60&#45;&gt;Node23 -->
<g id="edge26" class="edge">
<title>Node60&#45;&gt;Node23</title>
<path fill="none" stroke="#191970" d="M1953.5734,-158.9919C1945.8002,-143.7754 1932.7719,-123.1899 1915,-112 1876.0781,-87.4933 1740.1322,-73.4637 1679.537,-68.2987"/>
<polygon fill="#191970" stroke="#191970" points="1950.4423,-160.5573 1957.9196,-168.0633 1956.7551,-157.5327 1950.4423,-160.5573"/>
</g>
<!-- Node72 -->
<g id="node25" class="node">
<title>Node72</title>
<g id="a_node25"><a xlink:href="api_2spec_2init_8h.html" target="_top" xlink:title="init.h">
<polygon fill="#ffffff" stroke="#ff0000" points="1835,-112.5 1835,-131.5 1873,-131.5 1873,-112.5 1835,-112.5"/>
<text text-anchor="middle" x="1854" y="-119.5" font-family="Helvetica,sans-Serif" font-size="10.00" fill="#000000">init.h</text>
</a>
</g>
</g>
<!-- Node60&#45;&gt;Node72 -->
<g id="edge25" class="edge">
<title>Node60&#45;&gt;Node72</title>
<path fill="none" stroke="#191970" d="M1934.2229,-163.5971C1914.8618,-153.558 1889.5615,-140.4393 1872.5966,-131.6427"/>
<polygon fill="#191970" stroke="#191970" points="1932.6992,-166.7495 1943.1878,-168.2455 1935.9214,-160.5352 1932.6992,-166.7495"/>
</g>
<!-- Node77 -->
<g id="node27" class="node">
<title>Node77</title>
<g id="a_node27"><a xlink:href="api_2std__types_8h.html" target="_top" xlink:title="Standard C language types and definitions for ODP. ">
<polygon fill="#ffffff" stroke="#ff0000" points="1308,-336.5 1308,-355.5 1376,-355.5 1376,-336.5 1308,-336.5"/>
<text text-anchor="middle" x="1342" y="-343.5" font-family="Helvetica,sans-Serif" font-size="10.00" fill="#000000">std_types.h</text>
</a>
</g>
</g>
<!-- Node76&#45;&gt;Node77 -->
<g id="edge28" class="edge">
<title>Node76&#45;&gt;Node77</title>
<path fill="none" stroke="#191970" d="M1487.8883,-389.4561C1453.3782,-379.1765 1405.2801,-364.8494 1373.8966,-355.5011"/>
<polygon fill="#191970" stroke="#191970" points="1487.0986,-392.8728 1497.6816,-392.3733 1489.097,-386.1641 1487.0986,-392.8728"/>
</g>
<!-- Node77&#45;&gt;Node5 -->
<g id="edge29" class="edge">
<title>Node77&#45;&gt;Node5</title>
<path fill="none" stroke="#191970" d="M1297.9099,-345.5015C1119.6088,-343.2776 451.5321,-332.8807 243,-300 240.1807,-299.5555 237.2671,-298.9683 234.3748,-298.3007"/>
<polygon fill="#191970" stroke="#191970" points="1297.9327,-349.002 1307.9748,-345.6248 1298.0185,-342.0025 1297.9327,-349.002"/>
</g>
<!-- Node77&#45;&gt;Node14 -->
<g id="edge30" class="edge">
<title>Node77&#45;&gt;Node14</title>
<path fill="none" stroke="#191970" d="M1364.2638,-329.6617C1373.1073,-321.7992 1382.2844,-311.5637 1387,-300 1411.4265,-240.1004 1389.3039,-159.3652 1380.3574,-131.7393"/>
<polygon fill="#191970" stroke="#191970" points="1361.8504,-327.1158 1356.3737,-336.1853 1366.3109,-332.5106 1361.8504,-327.1158"/>
</g>
<!-- Node77&#45;&gt;Node22 -->
<g id="edge40" class="edge">
<title>Node77&#45;&gt;Node22</title>
<path fill="none" stroke="#191970" d="M1348.4602,-326.3812C1351.9895,-313.2733 1355.2294,-295.6329 1353,-280 1344.7718,-222.3021 1320.4468,-156.2287 1310.9043,-131.767"/>
<polygon fill="#191970" stroke="#191970" points="1345.0412,-325.5993 1345.5411,-336.1823 1351.75,-327.5974 1345.0412,-325.5993"/>
</g>
<!-- Node77&#45;&gt;Node23 -->
<g id="edge66" class="edge">
<title>Node77&#45;&gt;Node23</title>
<path fill="none" stroke="#191970" d="M1386.1638,-339.1241C1436.5717,-330.7024 1515.3608,-315.62 1541,-300 1573.8529,-279.9852 1597,-272.4695 1597,-234 1597,-234 1597,-234 1597,-178 1597,-136.6976 1626.8125,-94.3488 1641.7188,-75.7558"/>
<polygon fill="#191970" stroke="#191970" points="1385.475,-335.6903 1376.1762,-340.7679 1386.6119,-342.5974 1385.475,-335.6903"/>
</g>
<!-- Node77&#45;&gt;Node52 -->
<g id="edge32" class="edge">
<title>Node77&#45;&gt;Node52</title>
<path fill="none" stroke="#191970" d="M1386.0936,-343.0898C1492.2979,-336.0456 1770.6964,-317.3749 2003,-300 2034.3711,-297.6536 2070.1531,-294.77 2095.3714,-292.7032"/>
<polygon fill="#191970" stroke="#191970" points="1385.8115,-339.6007 1376.0648,-343.7543 1386.2744,-346.5854 1385.8115,-339.6007"/>
</g>
<!-- Node77&#45;&gt;Node72 -->
<g id="edge60" class="edge">
<title>Node77&#45;&gt;Node72</title>
<path fill="none" stroke="#191970" d="M1386.2768,-343.1007C1464.5342,-337.4462 1623.7762,-323.4077 1674,-300 1707.6559,-284.3141 1720.9236,-277.9333 1736,-244 1749.7146,-213.1318 1716.9404,-195.8867 1736,-168 1747.5384,-151.1178 1804.6015,-134.4845 1834.9451,-126.6504"/>
<polygon fill="#191970" stroke="#191970" points="1385.9706,-339.6136 1376.243,-343.8117 1386.4654,-346.596 1385.9706,-339.6136"/>
</g>
<!-- Node78 -->
<g id="node28" class="node">
<title>Node78</title>
<g id="a_node28"><a xlink:href="api_2abi-default_2byteorder_8h.html" target="_top" xlink:title="ODP byteorder. ">
<polygon fill="#ffffff" stroke="#ff0000" points="1928.5,-280.5 1928.5,-299.5 1993.5,-299.5 1993.5,-280.5 1928.5,-280.5"/>
<text text-anchor="middle" x="1961" y="-287.5" font-family="Helvetica,sans-Serif" font-size="10.00" fill="#000000">byteorder.h</text>
</a>
</g>
</g>
<!-- Node77&#45;&gt;Node78 -->
<g id="edge31" class="edge">
<title>Node77&#45;&gt;Node78</title>
<path fill="none" stroke="#191970" d="M1386.053,-344.8027C1482.9597,-341.6636 1721.711,-331.1604 1919,-300 1921.9615,-299.5323 1925.0229,-298.9665 1928.0807,-298.3449"/>
<polygon fill="#191970" stroke="#191970" points="1385.9191,-341.3051 1376.0338,-345.1171 1386.1387,-348.3016 1385.9191,-341.3051"/>
</g>
<!-- Node87 -->
<g id="node29" class="node">
<title>Node87</title>
<g id="a_node29"><a xlink:href="api_2abi-default_2init_8h.html" target="_top" xlink:title="ODP initialization. ">
<polygon fill="#ffffff" stroke="#ff0000" points="252,-280.5 252,-299.5 290,-299.5 290,-280.5 252,-280.5"/>
<text text-anchor="middle" x="271" y="-287.5" font-family="Helvetica,sans-Serif" font-size="10.00" fill="#000000">init.h</text>
</a>
</g>
</g>
<!-- Node77&#45;&gt;Node87 -->
<g id="edge33" class="edge">
<title>Node77&#45;&gt;Node87</title>
<path fill="none" stroke="#191970" d="M1297.8334,-345.8038C1125.0434,-344.7653 494.7687,-338.3713 299,-300 296.062,-299.4242 293.0181,-298.5959 290.067,-297.6592"/>
<polygon fill="#191970" stroke="#191970" points="1297.8227,-349.3037 1307.8426,-345.8609 1297.8627,-342.3038 1297.8227,-349.3037"/>
</g>
<!-- Node95 -->
<g id="node30" class="node">
<title>Node95</title>
<g id="a_node30"><a xlink:href="api_2abi-default_2ipsec_8h.html" target="_top" xlink:title="ODP IPSEC API &#45; platform specific types. ">
<polygon fill="#ffffff" stroke="#ff0000" points="308,-280.5 308,-299.5 356,-299.5 356,-280.5 308,-280.5"/>
<text text-anchor="middle" x="332" y="-287.5" font-family="Helvetica,sans-Serif" font-size="10.00" fill="#000000">ipsec.h</text>
</a>
</g>
</g>
<!-- Node77&#45;&gt;Node95 -->
<g id="edge34" class="edge">
<title>Node77&#45;&gt;Node95</title>
<path fill="none" stroke="#191970" d="M1297.4708,-345.363C1131.3511,-342.7602 547.9845,-331.5314 365,-300 362.1682,-299.512 359.2382,-298.8555 356.3464,-298.1108"/>
<polygon fill="#191970" stroke="#191970" points="1297.7479,-348.8676 1307.8007,-345.5221 1297.8558,-341.8685 1297.7479,-348.8676"/>
</g>
<!-- Node104 -->
<g id="node31" class="node">
<title>Node104</title>
<g id="a_node31"><a xlink:href="api_2abi-default_2packet__io_8h.html" target="_top" xlink:title="ODP Packet IO. ">
<polygon fill="#ffffff" stroke="#ff0000" points="374.5,-280.5 374.5,-299.5 441.5,-299.5 441.5,-280.5 374.5,-280.5"/>
<text text-anchor="middle" x="408" y="-287.5" font-family="Helvetica,sans-Serif" font-size="10.00" fill="#000000">packet_io.h</text>
</a>
</g>
</g>
<!-- Node77&#45;&gt;Node104 -->
<g id="edge35" class="edge">
<title>Node77&#45;&gt;Node104</title>
<path fill="none" stroke="#191970" d="M1297.352,-344.7412C1140.7918,-340.1637 617.2373,-323.4331 451,-300 447.9642,-299.5721 444.8273,-299.0337 441.695,-298.4299"/>
<polygon fill="#191970" stroke="#191970" points="1297.4565,-348.2456 1307.5539,-345.0374 1297.6597,-341.2486 1297.4565,-348.2456"/>
</g>
<!-- Node34 -->
<g id="node32" class="node">
<title>Node34</title>
<g id="a_node32"><a xlink:href="api_2abi-default_2rwlock__recursive_8h.html" target="_top" xlink:title="ODP recursive read/write lock. ">
<polygon fill="#ffffff" stroke="#ff0000" points="460,-280.5 460,-299.5 558,-299.5 558,-280.5 460,-280.5"/>
<text text-anchor="middle" x="509" y="-287.5" font-family="Helvetica,sans-Serif" font-size="10.00" fill="#000000">rwlock_recursive.h</text>
</a>
</g>
</g>
<!-- Node77&#45;&gt;Node34 -->
<g id="edge36" class="edge">
<title>Node77&#45;&gt;Node34</title>
<path fill="none" stroke="#191970" d="M1297.7395,-345.0987C1179.0358,-342.3088 843.8409,-331.9807 567,-300 564.1579,-299.6717 561.2436,-299.2955 558.307,-298.886"/>
<polygon fill="#191970" stroke="#191970" points="1297.8107,-348.6011 1307.8882,-345.3311 1297.971,-341.603 1297.8107,-348.6011"/>
</g>
<!-- Node130 -->
<g id="node33" class="node">
<title>Node130</title>
<g id="a_node33"><a xlink:href="api_2abi-default_2schedule_8h.html" target="_top" xlink:title="ODP schedule. ">
<polygon fill="#ffffff" stroke="#ff0000" points="576,-280.5 576,-299.5 640,-299.5 640,-280.5 576,-280.5"/>
<text text-anchor="middle" x="608" y="-287.5" font-family="Helvetica,sans-Serif" font-size="10.00" fill="#000000">schedule.h</text>
</a>
</g>
</g>
<!-- Node77&#45;&gt;Node130 -->
<g id="edge37" class="edge">
<title>Node77&#45;&gt;Node130</title>
<path fill="none" stroke="#191970" d="M1297.4683,-344.0535C1165.0087,-338.1038 774.8936,-319.382 649,-300 646.1034,-299.5541 643.1111,-299.0033 640.1236,-298.3915"/>
<polygon fill="#191970" stroke="#191970" points="1297.5063,-347.5586 1307.6526,-344.5085 1297.8188,-340.5656 1297.5063,-347.5586"/>
</g>
<!-- Node138 -->
<g id="node34" class="node">
<title>Node138</title>
<g id="a_node34"><a xlink:href="api_2abi-default_2spinlock__recursive_8h.html" target="_top" xlink:title="ODP recursive spinlock. ">
<polygon fill="#ffffff" stroke="#ff0000" points="658,-280.5 658,-299.5 764,-299.5 764,-280.5 658,-280.5"/>
<text text-anchor="middle" x="711" y="-287.5" font-family="Helvetica,sans-Serif" font-size="10.00" fill="#000000">spinlock_recursive.h</text>
</a>
</g>
</g>
<!-- Node77&#45;&gt;Node138 -->
<g id="edge38" class="edge">
<title>Node77&#45;&gt;Node138</title>
<path fill="none" stroke="#191970" d="M1297.7215,-343.6186C1201.8305,-338.1987 967.8874,-323.5569 773,-300 770.0775,-299.6467 767.0817,-299.2568 764.0608,-298.8417"/>
<polygon fill="#191970" stroke="#191970" points="1297.7342,-347.1247 1307.9142,-344.1893 1298.1255,-340.1357 1297.7342,-347.1247"/>
</g>
<!-- Node147 -->
<g id="node35" class="node">
<title>Node147</title>
<g id="a_node35"><a xlink:href="api_2abi-default_2traffic__mngr_8h.html" target="_top" xlink:title="ODP traffic mngr. ">
<polygon fill="#ffffff" stroke="#ff0000" points="782.5,-280.5 782.5,-299.5 859.5,-299.5 859.5,-280.5 782.5,-280.5"/>
<text text-anchor="middle" x="821" y="-287.5" font-family="Helvetica,sans-Serif" font-size="10.00" fill="#000000">traffic_mngr.h</text>
</a>
</g>
</g>
<!-- Node77&#45;&gt;Node147 -->
<g id="edge39" class="edge">
<title>Node77&#45;&gt;Node147</title>
<path fill="none" stroke="#191970" d="M1297.7164,-343.3774C1213.6084,-338.0261 1025.1091,-324.2579 868,-300 865.2793,-299.5799 862.479,-299.102 859.6648,-298.588"/>
<polygon fill="#191970" stroke="#191970" points="1297.7252,-346.8848 1307.9248,-344.018 1298.1637,-339.8985 1297.7252,-346.8848"/>
</g>
<!-- Node155 -->
<g id="node36" class="node">
<title>Node155</title>
<g id="a_node36"><a xlink:href="api_2buffer_8h.html" target="_top" xlink:title="ODP buffer descriptor. ">
<polygon fill="#ffffff" stroke="#000000" points="1625,-168.5 1625,-187.5 1675,-187.5 1675,-168.5 1625,-168.5"/>
<text text-anchor="middle" x="1650" y="-175.5" font-family="Helvetica,sans-Serif" font-size="10.00" fill="#000000">buffer.h</text>
</a>
</g>
</g>
<!-- Node77&#45;&gt;Node155 -->
<g id="edge41" class="edge">
<title>Node77&#45;&gt;Node155</title>
<path fill="none" stroke="#191970" d="M1386.4172,-343.8936C1453.9676,-339.8057 1578.1554,-328.5394 1611,-300 1645.0737,-270.3925 1649.6318,-211.0271 1650.0587,-187.7152"/>
<polygon fill="#191970" stroke="#191970" points="1385.8666,-340.4194 1376.0848,-344.4896 1386.2697,-347.4078 1385.8666,-340.4194"/>
</g>
<!-- Node112 -->
<g id="node37" class="node">
<title>Node112</title>
<g id="a_node37"><a xlink:href="api_2classification_8h.html" target="_top" xlink:title="ODP classification descriptor. ">
<polygon fill="#ffffff" stroke="#ff0000" points="1745,-168.5 1745,-187.5 1827,-187.5 1827,-168.5 1745,-168.5"/>
<text text-anchor="middle" x="1786" y="-175.5" font-family="Helvetica,sans-Serif" font-size="10.00" fill="#000000">classification.h</text>
</a>
</g>
</g>
<!-- Node77&#45;&gt;Node112 -->
<g id="edge43" class="edge">
<title>Node77&#45;&gt;Node112</title>
<path fill="none" stroke="#191970" d="M1386.1624,-344.2738C1489.7857,-339.8014 1741.8587,-326.3091 1769,-300 1800.1711,-269.7847 1792.5964,-210.7755 1788.1239,-187.637"/>
<polygon fill="#191970" stroke="#191970" points="1385.8694,-340.783 1376.0264,-344.7029 1386.1655,-347.7767 1385.8694,-340.783"/>
</g>
<!-- Node118 -->
<g id="node38" class="node">
<title>Node118</title>
<g id="a_node38"><a xlink:href="api_2crypto_8h.html" target="_top" xlink:title="ODP crypto. ">
<polygon fill="#ffffff" stroke="#ff0000" points="1821,-224.5 1821,-243.5 1873,-243.5 1873,-224.5 1821,-224.5"/>
<text text-anchor="middle" x="1847" y="-231.5" font-family="Helvetica,sans-Serif" font-size="10.00" fill="#000000">crypto.h</text>
</a>
</g>
</g>
<!-- Node77&#45;&gt;Node118 -->
<g id="edge45" class="edge">
<title>Node77&#45;&gt;Node118</title>
<path fill="none" stroke="#191970" d="M1386.3858,-343.8607C1495.7529,-338.2731 1771.8853,-322.1262 1807,-300 1827.8578,-286.8572 1839.3966,-258.5115 1844.2372,-243.6066"/>
<polygon fill="#191970" stroke="#191970" points="1386.1469,-340.3682 1376.3362,-344.3683 1386.5001,-347.3593 1386.1469,-340.3682"/>
</g>
<!-- Node114 -->
<g id="node39" class="node">
<title>Node114</title>
<g id="a_node39"><a xlink:href="api_2packet_8h.html" target="_top" xlink:title="ODP packet descriptor. ">
<polygon fill="#ffffff" stroke="#ff0000" points="1439,-280.5 1439,-299.5 1493,-299.5 1493,-280.5 1439,-280.5"/>
<text text-anchor="middle" x="1466" y="-287.5" font-family="Helvetica,sans-Serif" font-size="10.00" fill="#000000">packet.h</text>
</a>
</g>
</g>
<!-- Node77&#45;&gt;Node114 -->
<g id="edge47" class="edge">
<title>Node77&#45;&gt;Node114</title>
<path fill="none" stroke="#191970" d="M1372.4524,-332.2473C1394.9722,-322.0771 1425.0617,-308.4883 1444.9618,-299.5011"/>
<polygon fill="#191970" stroke="#191970" points="1370.9895,-329.0675 1363.3164,-336.3733 1373.8706,-335.4471 1370.9895,-329.0675"/>
</g>
<!-- Node128 -->
<g id="node40" class="node">
<title>Node128</title>
<g id="a_node40"><a xlink:href="api_2spec_2packet__flags_8h.html" target="_top" xlink:title="ODP packet flags. ">
<polygon fill="#ffffff" stroke="#ff0000" points="1451,-224.5 1451,-243.5 1531,-243.5 1531,-224.5 1451,-224.5"/>
<text text-anchor="middle" x="1491" y="-231.5" font-family="Helvetica,sans-Serif" font-size="10.00" fill="#000000">packet_flags.h</text>
</a>
</g>
</g>
<!-- Node77&#45;&gt;Node128 -->
<g id="edge61" class="edge">
<title>Node77&#45;&gt;Node128</title>
<path fill="none" stroke="#191970" d="M1386.1664,-339.3412C1428.5168,-331.9466 1488.0262,-318.5573 1502,-300 1514.5778,-283.2965 1504.0299,-257.4529 1496.6584,-243.5804"/>
<polygon fill="#191970" stroke="#191970" points="1385.3521,-335.9291 1376.0757,-341.0476 1386.5194,-342.8311 1385.3521,-335.9291"/>
</g>
<!-- Node124 -->
<g id="node41" class="node">
<title>Node124</title>
<g id="a_node41"><a xlink:href="api_2packet__io_8h.html" target="_top" xlink:title="ODP Packet IO. ">
<polygon fill="#ffffff" stroke="#ff0000" points="1501.5,-112.5 1501.5,-131.5 1568.5,-131.5 1568.5,-112.5 1501.5,-112.5"/>
<text text-anchor="middle" x="1535" y="-119.5" font-family="Helvetica,sans-Serif" font-size="10.00" fill="#000000">packet_io.h</text>
</a>
</g>
</g>
<!-- Node77&#45;&gt;Node124 -->
<g id="edge50" class="edge">
<title>Node77&#45;&gt;Node124</title>
<path fill="none" stroke="#191970" d="M1386.1889,-339.2767C1431.9991,-331.4956 1499.5887,-317.4818 1519,-300 1568.1085,-255.7731 1546.5738,-161.9174 1537.954,-131.6355"/>
<polygon fill="#191970" stroke="#191970" points="1385.4913,-335.8445 1376.199,-340.934 1386.637,-342.7501 1385.4913,-335.8445"/>
</g>
<!-- Node122 -->
<g id="node42" class="node">
<title>Node122</title>
<g id="a_node42"><a xlink:href="api_2queue_8h.html" target="_top" xlink:title="ODP queue. ">
<polygon fill="#ffffff" stroke="#ff0000" points="1859.5,-280.5 1859.5,-299.5 1910.5,-299.5 1910.5,-280.5 1859.5,-280.5"/>
<text text-anchor="middle" x="1885" y="-287.5" font-family="Helvetica,sans-Serif" font-size="10.00" fill="#000000">queue.h</text>
</a>
</g>
</g>
<!-- Node77&#45;&gt;Node122 -->
<g id="edge52" class="edge">
<title>Node77&#45;&gt;Node122</title>
<path fill="none" stroke="#191970" d="M1386.2305,-344.2423C1474.1671,-340.2448 1676.9752,-328.512 1845,-300 1849.6578,-299.2096 1854.5726,-298.1621 1859.3023,-297.0426"/>
<polygon fill="#191970" stroke="#191970" points="1385.9212,-340.7524 1376.0861,-344.692 1386.2313,-347.7456 1385.9212,-340.7524"/>
</g>
<!-- Node70 -->
<g id="node43" class="node">
<title>Node70</title>
<g id="a_node43"><a xlink:href="api_2spec_2schedule_8h.html" target="_top" xlink:title="ODP schedule. ">
<polygon fill="#ffffff" stroke="#ff0000" points="1663,-224.5 1663,-243.5 1727,-243.5 1727,-224.5 1663,-224.5"/>
<text text-anchor="middle" x="1695" y="-231.5" font-family="Helvetica,sans-Serif" font-size="10.00" fill="#000000">schedule.h</text>
</a>
</g>
</g>
<!-- Node77&#45;&gt;Node70 -->
<g id="edge63" class="edge">
<title>Node77&#45;&gt;Node70</title>
<path fill="none" stroke="#191970" d="M1386.6419,-343.6243C1460.9277,-338.9687 1606.0089,-326.6797 1649,-300 1670.8358,-286.449 1685.0463,-258.2819 1691.3125,-243.5097"/>
<polygon fill="#191970" stroke="#191970" points="1385.9857,-340.1576 1376.216,-344.2567 1386.4095,-347.1448 1385.9857,-340.1576"/>
</g>
<!-- Node156 -->
<g id="node44" class="node">
<title>Node156</title>
<g id="a_node44"><a xlink:href="spec_2chksum_8h.html" target="_top" xlink:title="ODP checksum functions. ">
<polygon fill="#ffffff" stroke="#ff0000" points="877.5,-280.5 877.5,-299.5 936.5,-299.5 936.5,-280.5 877.5,-280.5"/>
<text text-anchor="middle" x="907" y="-287.5" font-family="Helvetica,sans-Serif" font-size="10.00" fill="#000000">chksum.h</text>
</a>
</g>
</g>
<!-- Node77&#45;&gt;Node156 -->
<g id="edge56" class="edge">
<title>Node77&#45;&gt;Node156</title>
<path fill="none" stroke="#191970" d="M1297.4634,-342.9132C1223.6991,-337.3381 1071.7257,-323.8911 945,-300 942.3185,-299.4945 939.5472,-298.9028 936.7797,-298.2642"/>
<polygon fill="#191970" stroke="#191970" points="1297.5349,-346.4281 1307.7668,-343.6789 1298.0538,-339.4473 1297.5349,-346.4281"/>
</g>
<!-- Node158 -->
<g id="node45" class="node">
<title>Node158</title>
<g id="a_node45"><a xlink:href="api_2spec_2cpu_8h.html" target="_top" xlink:title="ODP CPU API. ">
<polygon fill="#ffffff" stroke="#ff0000" points="954.5,-280.5 954.5,-299.5 995.5,-299.5 995.5,-280.5 954.5,-280.5"/>
<text text-anchor="middle" x="975" y="-287.5" font-family="Helvetica,sans-Serif" font-size="10.00" fill="#000000">cpu.h</text>
</a>
</g>
</g>
<!-- Node77&#45;&gt;Node158 -->
<g id="edge57" class="edge">
<title>Node77&#45;&gt;Node158</title>
<path fill="none" stroke="#191970" d="M1297.202,-342.7263C1231.9904,-337.3269 1107.4178,-324.6144 1004,-300 1001.3059,-299.3588 998.5098,-298.5655 995.7642,-297.7083"/>
<polygon fill="#191970" stroke="#191970" points="1297.2777,-346.2437 1307.5272,-343.5608 1297.8417,-339.2665 1297.2777,-346.2437"/>
</g>
<!-- Node160 -->
<g id="node46" class="node">
<title>Node160</title>
<g id="a_node46"><a xlink:href="spec_2feature_8h.html" target="_top" xlink:title="ODP features. ">
<polygon fill="#ffffff" stroke="#ff0000" points="1013.5,-280.5 1013.5,-299.5 1068.5,-299.5 1068.5,-280.5 1013.5,-280.5"/>
<text text-anchor="middle" x="1041" y="-287.5" font-family="Helvetica,sans-Serif" font-size="10.00" fill="#000000">feature.h</text>
</a>
</g>
</g>
<!-- Node77&#45;&gt;Node160 -->
<g id="edge58" class="edge">
<title>Node77&#45;&gt;Node160</title>
<path fill="none" stroke="#191970" d="M1297.6151,-339.5357C1244.9583,-331.5743 1154.6469,-316.9979 1078,-300 1075.0117,-299.3373 1071.9027,-298.5899 1068.8129,-297.8096"/>
<polygon fill="#191970" stroke="#191970" points="1297.2205,-343.0156 1307.6292,-341.0385 1298.2594,-336.0931 1297.2205,-343.0156"/>
</g>
<!-- Node162 -->
<g id="node47" class="node">
<title>Node162</title>
<g id="a_node47"><a xlink:href="api_2spec_2hash_8h.html" target="_top" xlink:title="ODP Hash functions. ">
<polygon fill="#ffffff" stroke="#ff0000" points="1087,-280.5 1087,-299.5 1133,-299.5 1133,-280.5 1087,-280.5"/>
<text text-anchor="middle" x="1110" y="-287.5" font-family="Helvetica,sans-Serif" font-size="10.00" fill="#000000">hash.h</text>
</a>
</g>
</g>
<!-- Node77&#45;&gt;Node162 -->
<g id="edge59" class="edge">
<title>Node77&#45;&gt;Node162</title>
<path fill="none" stroke="#191970" d="M1297.9642,-336.8895C1257.2789,-328.2318 1195.2614,-314.4243 1142,-300 1139.0786,-299.2088 1136.0237,-298.3265 1133.01,-297.4226"/>
<polygon fill="#191970" stroke="#191970" points="1297.322,-340.3311 1307.83,-338.9769 1298.7711,-333.4827 1297.322,-340.3311"/>
</g>
<!-- Node164 -->
<g id="node48" class="node">
<title>Node164</title>
<g id="a_node48"><a xlink:href="api_2spec_2pool_8h.html" target="_top" xlink:title="ODP pool. ">
<polygon fill="#ffffff" stroke="#ff0000" points="1151.5,-280.5 1151.5,-299.5 1194.5,-299.5 1194.5,-280.5 1151.5,-280.5"/>
<text text-anchor="middle" x="1173" y="-287.5" font-family="Helvetica,sans-Serif" font-size="10.00" fill="#000000">pool.h</text>
</a>
</g>
</g>
<!-- Node77&#45;&gt;Node164 -->
<g id="edge62" class="edge">
<title>Node77&#45;&gt;Node164</title>
<path fill="none" stroke="#191970" d="M1303.2108,-333.1882C1275.3275,-323.9724 1236.8386,-311.2389 1203,-300 1200.2907,-299.1001 1197.4442,-298.1533 1194.6282,-297.2156"/>
<polygon fill="#191970" stroke="#191970" points="1302.3823,-336.6005 1312.9755,-336.415 1304.5787,-329.954 1302.3823,-336.6005"/>
</g>
<!-- Node166 -->
<g id="node49" class="node">
<title>Node166</title>
<g id="a_node49"><a xlink:href="api_2spec_2stash_8h.html" target="_top" xlink:title="ODP stash. ">
<polygon fill="#ffffff" stroke="#ff0000" points="1212.5,-280.5 1212.5,-299.5 1261.5,-299.5 1261.5,-280.5 1212.5,-280.5"/>
<text text-anchor="middle" x="1237" y="-287.5" font-family="Helvetica,sans-Serif" font-size="10.00" fill="#000000">stash.h</text>
</a>
</g>
</g>
<!-- Node77&#45;&gt;Node166 -->
<g id="edge64" class="edge">
<title>Node77&#45;&gt;Node166</title>
<path fill="none" stroke="#191970" d="M1314.7375,-331.46C1295.9478,-321.4388 1271.4987,-308.3993 1255.08,-299.6427"/>
<polygon fill="#191970" stroke="#191970" points="1313.2398,-334.6278 1323.7104,-336.2455 1316.5339,-328.4514 1313.2398,-334.6278"/>
</g>
<!-- Node168 -->
<g id="node50" class="node">
<title>Node168</title>
<g id="a_node50"><a xlink:href="spec_2threshold_8h.html" target="_top" xlink:title="ODP threshold descriptor. ">
<polygon fill="#ffffff" stroke="#ff0000" points="1279.5,-280.5 1279.5,-299.5 1344.5,-299.5 1344.5,-280.5 1279.5,-280.5"/>
<text text-anchor="middle" x="1312" y="-287.5" font-family="Helvetica,sans-Serif" font-size="10.00" fill="#000000">threshold.h</text>
</a>
</g>
</g>
<!-- Node77&#45;&gt;Node168 -->
<g id="edge65" class="edge">
<title>Node77&#45;&gt;Node168</title>
<path fill="none" stroke="#191970" d="M1332.002,-327.3372C1327.0324,-318.0605 1321.2356,-307.2398 1317.1657,-299.6427"/>
<polygon fill="#191970" stroke="#191970" points="1328.9669,-329.0835 1336.7744,-336.2455 1335.1373,-325.7779 1328.9669,-329.0835"/>
</g>
<!-- Node155&#45;&gt;Node23 -->
<g id="edge42" class="edge">
<title>Node155&#45;&gt;Node23</title>
<path fill="none" stroke="#191970" d="M1650,-158.2702C1650,-133.9985 1650,-93.7725 1650,-75.5249"/>
<polygon fill="#191970" stroke="#191970" points="1646.5001,-158.4509 1650,-168.4509 1653.5001,-158.451 1646.5001,-158.4509"/>
</g>
<!-- Node112&#45;&gt;Node23 -->
<g id="edge44" class="edge">
<title>Node112&#45;&gt;Node23</title>
<path fill="none" stroke="#191970" d="M1766.6647,-162.0768C1737.9528,-138.4317 1684.9269,-94.7633 1661.5659,-75.5249"/>
<polygon fill="#191970" stroke="#191970" points="1764.4604,-164.7956 1774.4047,-168.4509 1768.9104,-159.3921 1764.4604,-164.7956"/>
</g>
<!-- Node118&#45;&gt;Node23 -->
<g id="edge46" class="edge">
<title>Node118&#45;&gt;Node23</title>
<path fill="none" stroke="#191970" d="M1848.0709,-213.9326C1847.8348,-199.8779 1845.4423,-181.3057 1836,-168 1797.7418,-114.0884 1721.6894,-85.6319 1679.6525,-73.4389"/>
<polygon fill="#191970" stroke="#191970" points="1844.5695,-213.9882 1847.8915,-224.0488 1851.5684,-214.1124 1844.5695,-213.9882"/>
</g>
<!-- Node114&#45;&gt;Node23 -->
<g id="edge49" class="edge">
<title>Node114&#45;&gt;Node23</title>
<path fill="none" stroke="#191970" d="M1453.8753,-271.7224C1449.1821,-263.5929 1444.3743,-253.6836 1442,-244 1439.8833,-235.3668 1440.1475,-232.6937 1442,-224 1453.3605,-170.684 1450.9133,-147.8265 1492,-112 1511.1644,-95.2892 1580.0649,-79.5777 1620.272,-71.5549"/>
<polygon fill="#191970" stroke="#191970" points="1450.9528,-273.6514 1459.1792,-280.328 1456.9119,-269.9786 1450.9528,-273.6514"/>
</g>
<!-- Node114&#45;&gt;Node128 -->
<g id="edge48" class="edge">
<title>Node114&#45;&gt;Node128</title>
<path fill="none" stroke="#191970" d="M1474.4626,-271.0437C1478.5745,-261.8331 1483.3394,-251.1598 1486.6952,-243.6427"/>
<polygon fill="#191970" stroke="#191970" points="1471.2352,-269.6874 1470.3547,-280.2455 1477.6272,-272.541 1471.2352,-269.6874"/>
</g>
<!-- Node124&#45;&gt;Node23 -->
<g id="edge51" class="edge">
<title>Node124&#45;&gt;Node23</title>
<path fill="none" stroke="#191970" d="M1563.8033,-107.9741C1584.625,-97.8348 1612.1978,-84.408 1630.4888,-75.5011"/>
<polygon fill="#191970" stroke="#191970" points="1562.2276,-104.8484 1554.7692,-112.3733 1565.2922,-111.1419 1562.2276,-104.8484"/>
</g>
<!-- Node122&#45;&gt;Node23 -->
<g id="edge55" class="edge">
<title>Node122&#45;&gt;Node23</title>
<path fill="none" stroke="#191970" d="M1891.6431,-270.7964C1902.6875,-234.9964 1920.0699,-157.571 1882,-112 1856.4642,-81.4328 1736.3982,-70.7771 1679.739,-67.4087"/>
<polygon fill="#191970" stroke="#191970" points="1888.2553,-269.8968 1888.4875,-280.4891 1894.9114,-272.0639 1888.2553,-269.8968"/>
</g>
<!-- Node122&#45;&gt;Node118 -->
<g id="edge53" class="edge">
<title>Node122&#45;&gt;Node118</title>
<path fill="none" stroke="#191970" d="M1872.7321,-271.9209C1866.3512,-262.5176 1858.8069,-251.3997 1853.5432,-243.6427"/>
<polygon fill="#191970" stroke="#191970" points="1869.8697,-273.936 1878.3809,-280.2455 1875.662,-270.0055 1869.8697,-273.936"/>
</g>
<!-- Node122&#45;&gt;Node70 -->
<g id="edge54" class="edge">
<title>Node122&#45;&gt;Node70</title>
<path fill="none" stroke="#191970" d="M1849.5439,-279.5498C1814.4261,-269.1993 1761.1198,-253.4879 1727.1872,-243.4868"/>
<polygon fill="#191970" stroke="#191970" points="1848.7942,-282.9776 1859.3758,-282.4476 1850.7732,-276.2632 1848.7942,-282.9776"/>
</g>
</g>
</svg>
