<?xml version="1.0" encoding="UTF-8" standalone="no"?>
<!DOCTYPE svg PUBLIC "-//W3C//DTD SVG 1.1//EN"
 "http://www.w3.org/Graphics/SVG/1.1/DTD/svg11.dtd">
<!-- Generated by graphviz version 2.40.1 (20161225.0304)
 -->
<!-- Title: rwlock.h Pages: 1 -->
<svg width="821pt" height="364pt"
 viewBox="0.00 0.00 820.50 364.00" xmlns="http://www.w3.org/2000/svg" xmlns:xlink="http://www.w3.org/1999/xlink">
<g id="graph0" class="graph" transform="scale(1 1) rotate(0) translate(4 360)">
<title>rwlock.h</title>
<polygon fill="#ffffff" stroke="transparent" points="-4,4 -4,-360 816.5,-360 816.5,4 -4,4"/>
<!-- Node3 -->
<g id="node1" class="node">
<title>Node3</title>
<polygon fill="#bfbfbf" stroke="#000000" points="640.5,-336.5 640.5,-355.5 693.5,-355.5 693.5,-336.5 640.5,-336.5"/>
<text text-anchor="middle" x="667" y="-343.5" font-family="Helvetica,sans-Serif" font-size="10.00" fill="#000000">rwlock.h</text>
</g>
<!-- Node4 -->
<g id="node2" class="node">
<title>Node4</title>
<g id="a_node2"><a xlink:href="api_2rwlock_8h.html" target="_top" xlink:title="ODP RW Locks. ">
<polygon fill="#ffffff" stroke="#000000" points="640.5,-280.5 640.5,-299.5 693.5,-299.5 693.5,-280.5 640.5,-280.5"/>
<text text-anchor="middle" x="667" y="-287.5" font-family="Helvetica,sans-Serif" font-size="10.00" fill="#000000">rwlock.h</text>
</a>
</g>
</g>
<!-- Node3&#45;&gt;Node4 -->
<g id="edge1" class="edge">
<title>Node3&#45;&gt;Node4</title>
<path fill="none" stroke="#191970" d="M667,-326.1575C667,-317.155 667,-306.9199 667,-299.6427"/>
<polygon fill="#191970" stroke="#191970" points="663.5001,-326.2455 667,-336.2455 670.5001,-326.2456 663.5001,-326.2455"/>
</g>
<!-- Node5 -->
<g id="node3" class="node">
<title>Node5</title>
<g id="a_node3"><a xlink:href="api_2abi-default_2rwlock__recursive_8h.html" target="_top" xlink:title="ODP recursive read/write lock. ">
<polygon fill="#ffffff" stroke="#000000" points="406,-224.5 406,-243.5 504,-243.5 504,-224.5 406,-224.5"/>
<text text-anchor="middle" x="455" y="-231.5" font-family="Helvetica,sans-Serif" font-size="10.00" fill="#000000">rwlock_recursive.h</text>
</a>
</g>
</g>
<!-- Node4&#45;&gt;Node5 -->
<g id="edge2" class="edge">
<title>Node4&#45;&gt;Node5</title>
<path fill="none" stroke="#191970" d="M630.2579,-280.2946C591.2511,-269.9909 529.9906,-253.8088 491.1938,-243.5606"/>
<polygon fill="#191970" stroke="#191970" points="629.5878,-283.7375 640.1501,-282.9076 631.3756,-276.9696 629.5878,-283.7375"/>
</g>
<!-- Node14 -->
<g id="node12" class="node">
<title>Node14</title>
<g id="a_node12"><a xlink:href="odp__api_8h.html" target="_top" xlink:title="The OpenDataPlane API. ">
<polygon fill="#ffffff" stroke="#000000" points="753.5,-56.5 753.5,-75.5 812.5,-75.5 812.5,-56.5 753.5,-56.5"/>
<text text-anchor="middle" x="783" y="-63.5" font-family="Helvetica,sans-Serif" font-size="10.00" fill="#000000">odp_api.h</text>
</a>
</g>
</g>
<!-- Node4&#45;&gt;Node14 -->
<g id="edge13" class="edge">
<title>Node4&#45;&gt;Node14</title>
<path fill="none" stroke="#191970" d="M699.8899,-276.1422C732.8312,-260.2543 781.6166,-230.7669 803,-188 822.1014,-149.7973 799.4208,-97.2677 788.3739,-75.7696"/>
<polygon fill="#191970" stroke="#191970" points="698.2277,-273.0553 690.6396,-280.4493 701.1824,-279.4012 698.2277,-273.0553"/>
</g>
<!-- Node6 -->
<g id="node4" class="node">
<title>Node6</title>
<g id="a_node4"><a xlink:href="arch_2arm32-linux_2odp_2api_2abi_2rwlock__recursive_8h_source.html" target="_top" xlink:title="rwlock_recursive.h">
<polygon fill="#ffffff" stroke="#000000" points="0,-168.5 0,-187.5 98,-187.5 98,-168.5 0,-168.5"/>
<text text-anchor="middle" x="49" y="-175.5" font-family="Helvetica,sans-Serif" font-size="10.00" fill="#000000">rwlock_recursive.h</text>
</a>
</g>
</g>
<!-- Node5&#45;&gt;Node6 -->
<g id="edge3" class="edge">
<title>Node5&#45;&gt;Node6</title>
<path fill="none" stroke="#191970" d="M395.6416,-226.8748C326.2912,-218.3832 208.1455,-203.3983 107,-188 104.0705,-187.554 101.0605,-187.0808 98.0257,-186.5921"/>
<polygon fill="#191970" stroke="#191970" points="395.5768,-230.3928 405.9272,-228.1304 396.425,-223.4443 395.5768,-230.3928"/>
</g>
<!-- Node7 -->
<g id="node5" class="node">
<title>Node7</title>
<g id="a_node5"><a xlink:href="arch_2arm64-linux_2odp_2api_2abi_2rwlock__recursive_8h_source.html" target="_top" xlink:title="rwlock_recursive.h">
<polygon fill="#ffffff" stroke="#000000" points="116,-168.5 116,-187.5 214,-187.5 214,-168.5 116,-168.5"/>
<text text-anchor="middle" x="165" y="-175.5" font-family="Helvetica,sans-Serif" font-size="10.00" fill="#000000">rwlock_recursive.h</text>
</a>
</g>
</g>
<!-- Node5&#45;&gt;Node7 -->
<g id="edge4" class="edge">
<title>Node5&#45;&gt;Node7</title>
<path fill="none" stroke="#191970" d="M395.7887,-222.5661C342.3454,-212.246 264.623,-197.2375 214.4359,-187.5462"/>
<polygon fill="#191970" stroke="#191970" points="395.3232,-226.0408 405.8055,-224.5004 396.6505,-219.1678 395.3232,-226.0408"/>
</g>
<!-- Node8 -->
<g id="node6" class="node">
<title>Node8</title>
<g id="a_node6"><a xlink:href="arch_2default-linux_2odp_2api_2abi_2rwlock__recursive_8h_source.html" target="_top" xlink:title="rwlock_recursive.h">
<polygon fill="#ffffff" stroke="#000000" points="232,-168.5 232,-187.5 330,-187.5 330,-168.5 232,-168.5"/>
<text text-anchor="middle" x="281" y="-175.5" font-family="Helvetica,sans-Serif" font-size="10.00" fill="#000000">rwlock_recursive.h</text>
</a>
</g>
</g>
<!-- Node5&#45;&gt;Node8 -->
<g id="edge5" class="edge">
<title>Node5&#45;&gt;Node8</title>
<path fill="none" stroke="#191970" d="M415.199,-221.1905C383.321,-210.9309 339.3184,-196.7691 310.5213,-187.5011"/>
<polygon fill="#191970" stroke="#191970" points="414.4969,-224.6413 425.0883,-224.3733 416.6415,-217.9779 414.4969,-224.6413"/>
</g>
<!-- Node9 -->
<g id="node7" class="node">
<title>Node9</title>
<g id="a_node7"><a xlink:href="arch_2mips64-linux_2odp_2api_2abi_2rwlock__recursive_8h_source.html" target="_top" xlink:title="rwlock_recursive.h">
<polygon fill="#ffffff" stroke="#000000" points="348,-168.5 348,-187.5 446,-187.5 446,-168.5 348,-168.5"/>
<text text-anchor="middle" x="397" y="-175.5" font-family="Helvetica,sans-Serif" font-size="10.00" fill="#000000">rwlock_recursive.h</text>
</a>
</g>
</g>
<!-- Node5&#45;&gt;Node9 -->
<g id="edge6" class="edge">
<title>Node5&#45;&gt;Node9</title>
<path fill="none" stroke="#191970" d="M437.4707,-217.0751C427.4917,-207.4402 415.3524,-195.7196 406.9871,-187.6427"/>
<polygon fill="#191970" stroke="#191970" points="435.272,-219.8175 444.8972,-224.2455 440.1342,-214.7817 435.272,-219.8175"/>
</g>
<!-- Node10 -->
<g id="node8" class="node">
<title>Node10</title>
<g id="a_node8"><a xlink:href="arch_2power64-linux_2odp_2api_2abi_2rwlock__recursive_8h_source.html" target="_top" xlink:title="rwlock_recursive.h">
<polygon fill="#ffffff" stroke="#000000" points="464,-168.5 464,-187.5 562,-187.5 562,-168.5 464,-168.5"/>
<text text-anchor="middle" x="513" y="-175.5" font-family="Helvetica,sans-Serif" font-size="10.00" fill="#000000">rwlock_recursive.h</text>
</a>
</g>
</g>
<!-- Node5&#45;&gt;Node10 -->
<g id="edge7" class="edge">
<title>Node5&#45;&gt;Node10</title>
<path fill="none" stroke="#191970" d="M472.5293,-217.0751C482.5083,-207.4402 494.6476,-195.7196 503.0129,-187.6427"/>
<polygon fill="#191970" stroke="#191970" points="469.8658,-214.7817 465.1028,-224.2455 474.728,-219.8175 469.8658,-214.7817"/>
</g>
<!-- Node11 -->
<g id="node9" class="node">
<title>Node11</title>
<g id="a_node9"><a xlink:href="arch_2x86__32-linux_2odp_2api_2abi_2rwlock__recursive_8h_source.html" target="_top" xlink:title="rwlock_recursive.h">
<polygon fill="#ffffff" stroke="#000000" points="580,-168.5 580,-187.5 678,-187.5 678,-168.5 580,-168.5"/>
<text text-anchor="middle" x="629" y="-175.5" font-family="Helvetica,sans-Serif" font-size="10.00" fill="#000000">rwlock_recursive.h</text>
</a>
</g>
</g>
<!-- Node5&#45;&gt;Node11 -->
<g id="edge8" class="edge">
<title>Node5&#45;&gt;Node11</title>
<path fill="none" stroke="#191970" d="M494.801,-221.1905C526.679,-210.9309 570.6816,-196.7691 599.4787,-187.5011"/>
<polygon fill="#191970" stroke="#191970" points="493.3585,-217.9779 484.9117,-224.3733 495.5031,-224.6413 493.3585,-217.9779"/>
</g>
<!-- Node12 -->
<g id="node10" class="node">
<title>Node12</title>
<g id="a_node10"><a xlink:href="arch_2x86__64-linux_2odp_2api_2abi_2rwlock__recursive_8h_source.html" target="_top" xlink:title="rwlock_recursive.h">
<polygon fill="#ffffff" stroke="#000000" points="696,-168.5 696,-187.5 794,-187.5 794,-168.5 696,-168.5"/>
<text text-anchor="middle" x="745" y="-175.5" font-family="Helvetica,sans-Serif" font-size="10.00" fill="#000000">rwlock_recursive.h</text>
</a>
</g>
</g>
<!-- Node5&#45;&gt;Node12 -->
<g id="edge9" class="edge">
<title>Node5&#45;&gt;Node12</title>
<path fill="none" stroke="#191970" d="M514.2113,-222.5661C567.6546,-212.246 645.377,-197.2375 695.5641,-187.5462"/>
<polygon fill="#191970" stroke="#191970" points="513.3495,-219.1678 504.1945,-224.5004 514.6768,-226.0408 513.3495,-219.1678"/>
</g>
<!-- Node13 -->
<g id="node11" class="node">
<title>Node13</title>
<g id="a_node11"><a xlink:href="api_2rwlock__recursive_8h.html" target="_top" xlink:title="ODP resursive read/write lock. ">
<polygon fill="#ffffff" stroke="#000000" points="696,-112.5 696,-131.5 794,-131.5 794,-112.5 696,-112.5"/>
<text text-anchor="middle" x="745" y="-119.5" font-family="Helvetica,sans-Serif" font-size="10.00" fill="#000000">rwlock_recursive.h</text>
</a>
</g>
</g>
<!-- Node12&#45;&gt;Node13 -->
<g id="edge10" class="edge">
<title>Node12&#45;&gt;Node13</title>
<path fill="none" stroke="#191970" d="M745,-158.1575C745,-149.155 745,-138.9199 745,-131.6427"/>
<polygon fill="#191970" stroke="#191970" points="741.5001,-158.2455 745,-168.2455 748.5001,-158.2456 741.5001,-158.2455"/>
</g>
<!-- Node13&#45;&gt;Node14 -->
<g id="edge11" class="edge">
<title>Node13&#45;&gt;Node14</title>
<path fill="none" stroke="#191970" d="M757.2679,-103.9209C763.6488,-94.5176 771.1931,-83.3997 776.4568,-75.6427"/>
<polygon fill="#191970" stroke="#191970" points="754.338,-102.0055 751.6191,-112.2455 760.1303,-105.936 754.338,-102.0055"/>
</g>
<!-- Node15 -->
<g id="node13" class="node">
<title>Node15</title>
<g id="a_node13"><a xlink:href="odp_8h.html" target="_top" xlink:title="WARNING: THIS FILE IS DEPRECATED AND WILL BE REMOVED!!! ODP APPLICATIONS SHOULD NOW INCLUDE odp_api...">
<polygon fill="#ffffff" stroke="#000000" points="762.5,-.5 762.5,-19.5 803.5,-19.5 803.5,-.5 762.5,-.5"/>
<text text-anchor="middle" x="783" y="-7.5" font-family="Helvetica,sans-Serif" font-size="10.00" fill="#000000">odp.h</text>
</a>
</g>
</g>
<!-- Node14&#45;&gt;Node15 -->
<g id="edge12" class="edge">
<title>Node14&#45;&gt;Node15</title>
<path fill="none" stroke="#191970" d="M783,-46.1575C783,-37.155 783,-26.9199 783,-19.6427"/>
<polygon fill="#191970" stroke="#191970" points="779.5001,-46.2455 783,-56.2455 786.5001,-46.2456 779.5001,-46.2455"/>
</g>
</g>
</svg>
