<?xml version="1.0" encoding="UTF-8" standalone="no"?>
<!DOCTYPE svg PUBLIC "-//W3C//DTD SVG 1.1//EN"
 "http://www.w3.org/Graphics/SVG/1.1/DTD/svg11.dtd">
<!-- Generated by graphviz version 2.40.1 (20161225.0304)
 -->
<!-- Title: schedule.h Pages: 1 -->
<svg width="1724pt" height="778pt"
 viewBox="0.00 0.00 1724.00 778.00" xmlns="http://www.w3.org/2000/svg" xmlns:xlink="http://www.w3.org/1999/xlink">
<g id="graph0" class="graph" transform="scale(1 1) rotate(0) translate(4 774)">
<title>schedule.h</title>
<polygon fill="#ffffff" stroke="transparent" points="-4,4 -4,-774 1720,-774 1720,4 -4,4"/>
<!-- Node0 -->
<g id="node1" class="node">
<title>Node0</title>
<polygon fill="#bfbfbf" stroke="#000000" points="1542,-750.5 1542,-769.5 1606,-769.5 1606,-750.5 1542,-750.5"/>
<text text-anchor="middle" x="1574" y="-757.5" font-family="Helvetica,sans-Serif" font-size="10.00" fill="#000000">schedule.h</text>
</g>
<!-- Node1 -->
<g id="node2" class="node">
<title>Node1</title>
<polygon fill="#ffffff" stroke="#bfbfbf" points="1476,-168.5 1476,-198.5 1582,-198.5 1582,-168.5 1476,-168.5"/>
<text text-anchor="start" x="1484" y="-186.5" font-family="Helvetica,sans-Serif" font-size="10.00" fill="#000000">odp/api/abi/schedule</text>
<text text-anchor="middle" x="1529" y="-175.5" font-family="Helvetica,sans-Serif" font-size="10.00" fill="#000000">_types.h</text>
</g>
<!-- Node0&#45;&gt;Node1 -->
<g id="edge1" class="edge">
<title>Node0&#45;&gt;Node1</title>
<path fill="none" stroke="#191970" d="M1574,-750.4116C1574,-731.0538 1574,-685.9167 1574,-648 1574,-648 1574,-648 1574,-306.5 1574,-270.3672 1556.6614,-231.6994 1543.5093,-207.5658"/>
<polygon fill="#191970" stroke="#191970" points="1546.5053,-205.7532 1538.5433,-198.7633 1540.4085,-209.1927 1546.5053,-205.7532"/>
</g>
<!-- Node2 -->
<g id="node3" class="node">
<title>Node2</title>
<polygon fill="#ffffff" stroke="#bfbfbf" points="1602,-694.5 1602,-713.5 1716,-713.5 1716,-694.5 1602,-694.5"/>
<text text-anchor="middle" x="1659" y="-701.5" font-family="Helvetica,sans-Serif" font-size="10.00" fill="#000000">odp/api/abi/schedule.h</text>
</g>
<!-- Node0&#45;&gt;Node2 -->
<g id="edge2" class="edge">
<title>Node0&#45;&gt;Node2</title>
<path fill="none" stroke="#191970" d="M1588.8059,-750.2455C1601.7256,-741.7337 1620.6931,-729.2375 1635.6552,-719.3801"/>
<polygon fill="#191970" stroke="#191970" points="1637.9387,-722.067 1644.3638,-713.6427 1634.0876,-716.2216 1637.9387,-722.067"/>
</g>
<!-- Node3 -->
<g id="node4" class="node">
<title>Node3</title>
<g id="a_node4"><a xlink:href="api_2spec_2schedule_8h.html" target="_top" xlink:title="ODP schedule. ">
<polygon fill="#ffffff" stroke="#000000" points="966,-694.5 966,-713.5 1088,-713.5 1088,-694.5 966,-694.5"/>
<text text-anchor="middle" x="1027" y="-701.5" font-family="Helvetica,sans-Serif" font-size="10.00" fill="#000000">odp/api/spec/schedule.h</text>
</a>
</g>
</g>
<!-- Node0&#45;&gt;Node3 -->
<g id="edge3" class="edge">
<title>Node0&#45;&gt;Node3</title>
<path fill="none" stroke="#191970" d="M1541.8248,-756.706C1455.7082,-747.8897 1218.3812,-723.593 1098.411,-711.3108"/>
<polygon fill="#191970" stroke="#191970" points="1098.5313,-707.8049 1088.2268,-710.2682 1097.8183,-714.7685 1098.5313,-707.8049"/>
</g>
<!-- Node4 -->
<g id="node5" class="node">
<title>Node4</title>
<g id="a_node5"><a xlink:href="visibility__begin_8h_source.html" target="_top" xlink:title="odp/visibility_begin.h">
<polygon fill="#ffffff" stroke="#000000" points="1244.5,-.5 1244.5,-19.5 1351.5,-19.5 1351.5,-.5 1244.5,-.5"/>
<text text-anchor="middle" x="1298" y="-7.5" font-family="Helvetica,sans-Serif" font-size="10.00" fill="#000000">odp/visibility_begin.h</text>
</a>
</g>
</g>
<!-- Node3&#45;&gt;Node4 -->
<g id="edge4" class="edge">
<title>Node3&#45;&gt;Node4</title>
<path fill="none" stroke="#191970" d="M1088.2046,-702.2462C1190.1417,-698.5247 1389.7515,-687.5995 1453,-658 1594.1255,-591.9552 1650,-523.815 1650,-368 1650,-368 1650,-368 1650,-122 1650,-62.2469 1463.4815,-30.1391 1361.9893,-17.0911"/>
<polygon fill="#191970" stroke="#191970" points="1362.2033,-13.5905 1351.8444,-15.8138 1361.3288,-20.5357 1362.2033,-13.5905"/>
</g>
<!-- Node5 -->
<g id="node6" class="node">
<title>Node5</title>
<g id="a_node6"><a xlink:href="api_2std__types_8h.html" target="_top" xlink:title="Standard C language types and definitions for ODP. ">
<polygon fill="#ffffff" stroke="#000000" points="437,-235.5 437,-254.5 539,-254.5 539,-235.5 437,-235.5"/>
<text text-anchor="middle" x="488" y="-242.5" font-family="Helvetica,sans-Serif" font-size="10.00" fill="#000000">odp/api/std_types.h</text>
</a>
</g>
</g>
<!-- Node3&#45;&gt;Node5 -->
<g id="edge5" class="edge">
<title>Node3&#45;&gt;Node5</title>
<path fill="none" stroke="#191970" d="M965.7873,-701.0129C790.3068,-691.6404 298,-659.345 298,-592 298,-592 298,-592 298,-424 298,-354.3228 328.1343,-336.3887 381,-291 398.535,-275.9451 421.7413,-265.1638 442.0594,-257.8411"/>
<polygon fill="#191970" stroke="#191970" points="443.4358,-261.0695 451.7642,-254.5206 441.1696,-254.4464 443.4358,-261.0695"/>
</g>
<!-- Node12 -->
<g id="node13" class="node">
<title>Node12</title>
<g id="a_node13"><a xlink:href="visibility__end_8h_source.html" target="_top" xlink:title="odp/visibility_end.h">
<polygon fill="#ffffff" stroke="#000000" points="657,-.5 657,-19.5 757,-19.5 757,-.5 657,-.5"/>
<text text-anchor="middle" x="707" y="-7.5" font-family="Helvetica,sans-Serif" font-size="10.00" fill="#000000">odp/visibility_end.h</text>
</a>
</g>
</g>
<!-- Node3&#45;&gt;Node12 -->
<g id="edge70" class="edge">
<title>Node3&#45;&gt;Node12</title>
<path fill="none" stroke="#191970" d="M965.7547,-701.937C807.6074,-696.3587 388.3556,-679.9083 251,-658 137.0922,-639.8316 0,-707.3477 0,-592 0,-592 0,-592 0,-122 0,-56.7685 475.5717,-23.1994 646.6258,-13.2349"/>
<polygon fill="#191970" stroke="#191970" points="646.9388,-16.7228 656.7211,-12.6538 646.5364,-9.7344 646.9388,-16.7228"/>
</g>
<!-- Node13 -->
<g id="node14" class="node">
<title>Node13</title>
<g id="a_node14"><a xlink:href="api_2event_8h.html" target="_top" xlink:title="ODP event. ">
<polygon fill="#ffffff" stroke="#000000" points="1064.5,-526.5 1064.5,-545.5 1147.5,-545.5 1147.5,-526.5 1064.5,-526.5"/>
<text text-anchor="middle" x="1106" y="-533.5" font-family="Helvetica,sans-Serif" font-size="10.00" fill="#000000">odp/api/event.h</text>
</a>
</g>
</g>
<!-- Node3&#45;&gt;Node13 -->
<g id="edge16" class="edge">
<title>Node3&#45;&gt;Node13</title>
<path fill="none" stroke="#191970" d="M1033.658,-694.2671C1045.5239,-676.5721 1070.5306,-637.6581 1086,-602 1092.5519,-586.8973 1097.8354,-568.9781 1101.3228,-555.6248"/>
<polygon fill="#191970" stroke="#191970" points="1104.7881,-556.1944 1103.8183,-545.6441 1097.9972,-554.4965 1104.7881,-556.1944"/>
</g>
<!-- Node25 -->
<g id="node26" class="node">
<title>Node25</title>
<g id="a_node26"><a xlink:href="api_2queue_8h.html" target="_top" xlink:title="ODP queue. ">
<polygon fill="#ffffff" stroke="#000000" points="905,-638.5 905,-657.5 991,-657.5 991,-638.5 905,-638.5"/>
<text text-anchor="middle" x="948" y="-645.5" font-family="Helvetica,sans-Serif" font-size="10.00" fill="#000000">odp/api/queue.h</text>
</a>
</g>
</g>
<!-- Node3&#45;&gt;Node25 -->
<g id="edge37" class="edge">
<title>Node3&#45;&gt;Node25</title>
<path fill="none" stroke="#191970" d="M1013.2393,-694.2455C1001.3448,-685.814 983.935,-673.4729 970.0915,-663.6598"/>
<polygon fill="#191970" stroke="#191970" points="971.7854,-660.5704 961.6031,-657.6427 967.7372,-666.2811 971.7854,-660.5704"/>
</g>
<!-- Node29 -->
<g id="node30" class="node">
<title>Node29</title>
<g id="a_node30"><a xlink:href="api_2schedule__types_8h.html" target="_top" xlink:title="ODP schedule. ">
<polygon fill="#ffffff" stroke="#000000" points="1418,-235.5 1418,-254.5 1546,-254.5 1546,-235.5 1418,-235.5"/>
<text text-anchor="middle" x="1482" y="-242.5" font-family="Helvetica,sans-Serif" font-size="10.00" fill="#000000">odp/api/schedule_types.h</text>
</a>
</g>
</g>
<!-- Node3&#45;&gt;Node29 -->
<g id="edge63" class="edge">
<title>Node3&#45;&gt;Node29</title>
<path fill="none" stroke="#191970" d="M1088.0922,-702.1923C1215.5332,-696.7579 1498,-675.3155 1498,-592 1498,-592 1498,-592 1498,-368 1498,-331.1919 1490.867,-288.7016 1486.1262,-264.5267"/>
<polygon fill="#191970" stroke="#191970" points="1489.513,-263.617 1484.0917,-254.5143 1482.6532,-265.011 1489.513,-263.617"/>
</g>
<!-- Node35 -->
<g id="node36" class="node">
<title>Node35</title>
<g id="a_node36"><a xlink:href="api_2thrmask_8h.html" target="_top" xlink:title="ODP thread masks. ">
<polygon fill="#ffffff" stroke="#000000" points="168.5,-358.5 168.5,-377.5 263.5,-377.5 263.5,-358.5 168.5,-358.5"/>
<text text-anchor="middle" x="216" y="-365.5" font-family="Helvetica,sans-Serif" font-size="10.00" fill="#000000">odp/api/thrmask.h</text>
</a>
</g>
</g>
<!-- Node3&#45;&gt;Node35 -->
<g id="edge64" class="edge">
<title>Node3&#45;&gt;Node35</title>
<path fill="none" stroke="#191970" d="M965.8693,-703.1541C798.8319,-700.4327 343.2163,-690.1195 284,-658 251.8861,-640.5811 235,-628.5338 235,-592 235,-592 235,-592 235,-480 235,-447.2688 227.0148,-409.9052 221.3978,-387.6716"/>
<polygon fill="#191970" stroke="#191970" points="224.7289,-386.5763 218.8035,-377.7934 217.9585,-388.3545 224.7289,-386.5763"/>
</g>
<!-- Node6 -->
<g id="node7" class="node">
<title>Node6</title>
<polygon fill="#ffffff" stroke="#bfbfbf" points="607,-174 607,-193 725,-193 725,-174 607,-174"/>
<text text-anchor="middle" x="666" y="-181" font-family="Helvetica,sans-Serif" font-size="10.00" fill="#000000">odp/api/abi/std_types.h</text>
</g>
<!-- Node5&#45;&gt;Node6 -->
<g id="edge6" class="edge">
<title>Node5&#45;&gt;Node6</title>
<path fill="none" stroke="#191970" d="M515.8125,-235.3906C546.2483,-224.8749 595.1877,-207.966 628.8826,-196.3243"/>
<polygon fill="#191970" stroke="#191970" points="630.074,-199.6157 638.3828,-193.0419 627.788,-192.9995 630.074,-199.6157"/>
</g>
<!-- Node7 -->
<g id="node8" class="node">
<title>Node7</title>
<g id="a_node8"><a xlink:href="api_2spec_2std__types_8h.html" target="_top" xlink:title="Standard C language types and definitions for ODP. ">
<polygon fill="#ffffff" stroke="#000000" points="425,-174 425,-193 551,-193 551,-174 425,-174"/>
<text text-anchor="middle" x="488" y="-181" font-family="Helvetica,sans-Serif" font-size="10.00" fill="#000000">odp/api/spec/std_types.h</text>
</a>
</g>
</g>
<!-- Node5&#45;&gt;Node7 -->
<g id="edge7" class="edge">
<title>Node5&#45;&gt;Node7</title>
<path fill="none" stroke="#191970" d="M488,-235.3906C488,-226.8657 488,-214.1392 488,-203.4235"/>
<polygon fill="#191970" stroke="#191970" points="491.5001,-203.2448 488,-193.2449 484.5001,-203.2449 491.5001,-203.2448"/>
</g>
<!-- Node7&#45;&gt;Node4 -->
<g id="edge8" class="edge">
<title>Node7&#45;&gt;Node4</title>
<path fill="none" stroke="#191970" d="M534.8063,-173.9682C544.7675,-171.9704 555.2277,-169.8956 565,-168 698.1545,-142.1717 731.2041,-134.2687 865,-112 973.9985,-93.8585 1004.9896,-107.17 1111,-76 1131.6086,-69.9405 1134.9644,-63.7463 1155,-56 1188.0737,-43.2128 1226.3546,-31.0324 1254.9812,-22.4215"/>
<polygon fill="#191970" stroke="#191970" points="1256.097,-25.7411 1264.6798,-19.5294 1254.0966,-19.033 1256.097,-25.7411"/>
</g>
<!-- Node8 -->
<g id="node9" class="node">
<title>Node8</title>
<polygon fill="#ffffff" stroke="#bfbfbf" points="463.5,-112.5 463.5,-131.5 512.5,-131.5 512.5,-112.5 463.5,-112.5"/>
<text text-anchor="middle" x="488" y="-119.5" font-family="Helvetica,sans-Serif" font-size="10.00" fill="#000000">stdint.h</text>
</g>
<!-- Node7&#45;&gt;Node8 -->
<g id="edge9" class="edge">
<title>Node7&#45;&gt;Node8</title>
<path fill="none" stroke="#191970" d="M488,-173.8906C488,-165.3657 488,-152.6392 488,-141.9235"/>
<polygon fill="#191970" stroke="#191970" points="491.5001,-141.7448 488,-131.7449 484.5001,-141.7449 491.5001,-141.7448"/>
</g>
<!-- Node9 -->
<g id="node10" class="node">
<title>Node9</title>
<g id="a_node10"><a xlink:href="api_2align_8h.html" target="_top" xlink:title="ODP alignments. ">
<polygon fill="#ffffff" stroke="#000000" points="569,-112.5 569,-131.5 649,-131.5 649,-112.5 569,-112.5"/>
<text text-anchor="middle" x="609" y="-119.5" font-family="Helvetica,sans-Serif" font-size="10.00" fill="#000000">odp/api/align.h</text>
</a>
</g>
</g>
<!-- Node7&#45;&gt;Node9 -->
<g id="edge10" class="edge">
<title>Node7&#45;&gt;Node9</title>
<path fill="none" stroke="#191970" d="M506.9063,-173.8906C526.7966,-163.7811 558.3123,-147.7628 581.0692,-136.1962"/>
<polygon fill="#191970" stroke="#191970" points="582.8978,-139.193 590.2265,-131.5419 579.726,-132.9528 582.8978,-139.193"/>
</g>
<!-- Node7&#45;&gt;Node12 -->
<g id="edge15" class="edge">
<title>Node7&#45;&gt;Node12</title>
<path fill="none" stroke="#191970" d="M479.0077,-173.7645C470.6791,-164.03 458.869,-148.2123 454,-132 448.3869,-113.3097 450.6779,-65.1469 459,-56 483.5813,-28.9827 581.4414,-17.6432 646.6357,-13.0215"/>
<polygon fill="#191970" stroke="#191970" points="647.0604,-16.5009 656.8023,-12.336 646.5895,-9.5168 647.0604,-16.5009"/>
</g>
<!-- Node10 -->
<g id="node11" class="node">
<title>Node10</title>
<polygon fill="#ffffff" stroke="#bfbfbf" points="501.5,-56.5 501.5,-75.5 596.5,-75.5 596.5,-56.5 501.5,-56.5"/>
<text text-anchor="middle" x="549" y="-63.5" font-family="Helvetica,sans-Serif" font-size="10.00" fill="#000000">odp/api/abi/align.h</text>
</g>
<!-- Node9&#45;&gt;Node10 -->
<g id="edge11" class="edge">
<title>Node9&#45;&gt;Node10</title>
<path fill="none" stroke="#191970" d="M598.5488,-112.2455C589.7731,-104.0549 577.0446,-92.1749 566.686,-82.5069"/>
<polygon fill="#191970" stroke="#191970" points="569.0301,-79.9072 559.3314,-75.6427 564.2539,-85.0246 569.0301,-79.9072"/>
</g>
<!-- Node11 -->
<g id="node12" class="node">
<title>Node11</title>
<g id="a_node12"><a xlink:href="api_2spec_2align_8h.html" target="_top" xlink:title="ODP alignments. ">
<polygon fill="#ffffff" stroke="#000000" points="615,-56.5 615,-75.5 719,-75.5 719,-56.5 615,-56.5"/>
<text text-anchor="middle" x="667" y="-63.5" font-family="Helvetica,sans-Serif" font-size="10.00" fill="#000000">odp/api/spec/align.h</text>
</a>
</g>
</g>
<!-- Node9&#45;&gt;Node11 -->
<g id="edge12" class="edge">
<title>Node9&#45;&gt;Node11</title>
<path fill="none" stroke="#191970" d="M619.1028,-112.2455C627.5028,-104.1352 639.6494,-92.4075 649.6084,-82.7919"/>
<polygon fill="#191970" stroke="#191970" points="652.25,-85.1066 657.0129,-75.6427 647.3878,-80.0707 652.25,-85.1066"/>
</g>
<!-- Node11&#45;&gt;Node4 -->
<g id="edge13" class="edge">
<title>Node11&#45;&gt;Node4</title>
<path fill="none" stroke="#191970" d="M719.1364,-60.5914C734.2495,-59.0622 750.7784,-57.4268 766,-56 934.9323,-40.1654 1134.2349,-23.4602 1234.1361,-15.2228"/>
<polygon fill="#191970" stroke="#191970" points="1234.6842,-18.6896 1244.3631,-14.3805 1234.1095,-11.7132 1234.6842,-18.6896"/>
</g>
<!-- Node11&#45;&gt;Node12 -->
<g id="edge14" class="edge">
<title>Node11&#45;&gt;Node12</title>
<path fill="none" stroke="#191970" d="M673.9675,-56.2455C679.5311,-48.4564 687.478,-37.3308 694.1829,-27.9439"/>
<polygon fill="#191970" stroke="#191970" points="697.148,-29.8144 700.1124,-19.6427 691.4519,-25.7457 697.148,-29.8144"/>
</g>
<!-- Node14 -->
<g id="node15" class="node">
<title>Node14</title>
<polygon fill="#ffffff" stroke="#bfbfbf" points="364.5,-358.5 364.5,-377.5 463.5,-377.5 463.5,-358.5 364.5,-358.5"/>
<text text-anchor="middle" x="414" y="-365.5" font-family="Helvetica,sans-Serif" font-size="10.00" fill="#000000">odp/api/abi/event.h</text>
</g>
<!-- Node13&#45;&gt;Node14 -->
<g id="edge17" class="edge">
<title>Node13&#45;&gt;Node14</title>
<path fill="none" stroke="#191970" d="M1066.8124,-526.4862C948.2447,-497.701 593.4844,-411.5743 462.9251,-379.8778"/>
<polygon fill="#191970" stroke="#191970" points="463.7292,-376.4714 453.1857,-377.5133 462.0777,-383.2738 463.7292,-376.4714"/>
</g>
<!-- Node15 -->
<g id="node16" class="node">
<title>Node15</title>
<g id="a_node16"><a xlink:href="api_2spec_2event_8h.html" target="_top" xlink:title="ODP event. ">
<polygon fill="#ffffff" stroke="#000000" points="1052.5,-470.5 1052.5,-489.5 1159.5,-489.5 1159.5,-470.5 1052.5,-470.5"/>
<text text-anchor="middle" x="1106" y="-477.5" font-family="Helvetica,sans-Serif" font-size="10.00" fill="#000000">odp/api/spec/event.h</text>
</a>
</g>
</g>
<!-- Node13&#45;&gt;Node15 -->
<g id="edge18" class="edge">
<title>Node13&#45;&gt;Node15</title>
<path fill="none" stroke="#191970" d="M1106,-526.2455C1106,-518.9382 1106,-508.6944 1106,-499.7046"/>
<polygon fill="#191970" stroke="#191970" points="1109.5001,-499.6426 1106,-489.6427 1102.5001,-499.6427 1109.5001,-499.6426"/>
</g>
<!-- Node15&#45;&gt;Node4 -->
<g id="edge19" class="edge">
<title>Node15&#45;&gt;Node4</title>
<path fill="none" stroke="#191970" d="M1129.9954,-470.4657C1165.0144,-454.7839 1226,-420.0082 1226,-368 1226,-368 1226,-368 1226,-306.5 1226,-273.6194 1222.6561,-259.1223 1245,-235 1277.9534,-199.4237 1314.5104,-234.0721 1348,-199 1369.4613,-176.5246 1363.5084,-162.7499 1368,-132 1372.9426,-98.1628 1374.0394,-85.0511 1356,-56 1348.1663,-43.3843 1335.5883,-32.7858 1324.1446,-24.9536"/>
<polygon fill="#191970" stroke="#191970" points="1326.0131,-21.9938 1315.7121,-19.5158 1322.2194,-27.8768 1326.0131,-21.9938"/>
</g>
<!-- Node15&#45;&gt;Node12 -->
<g id="edge36" class="edge">
<title>Node15&#45;&gt;Node12</title>
<path fill="none" stroke="#191970" d="M1112.1704,-470.3314C1125.1879,-448.5877 1152.4831,-394.8567 1130,-358 1028.3409,-191.3498 920.2772,-226.3754 734,-168 658.6425,-144.3845 631.2301,-166.0986 560,-132 542.3431,-123.5475 500.3547,-93.7034 492,-76 488.2063,-67.9613 486.4107,-62.9117 492,-56 511.1499,-32.3196 589.9588,-20.2879 646.6141,-14.5836"/>
<polygon fill="#191970" stroke="#191970" points="647.2976,-18.0341 656.9157,-13.5908 646.626,-11.0664 647.2976,-18.0341"/>
</g>
<!-- Node16 -->
<g id="node17" class="node">
<title>Node16</title>
<g id="a_node17"><a xlink:href="api_2packet_8h.html" target="_top" xlink:title="ODP packet descriptor. ">
<polygon fill="#ffffff" stroke="#000000" points="727.5,-414.5 727.5,-433.5 816.5,-433.5 816.5,-414.5 727.5,-414.5"/>
<text text-anchor="middle" x="772" y="-421.5" font-family="Helvetica,sans-Serif" font-size="10.00" fill="#000000">odp/api/packet.h</text>
</a>
</g>
</g>
<!-- Node15&#45;&gt;Node16 -->
<g id="edge20" class="edge">
<title>Node15&#45;&gt;Node16</title>
<path fill="none" stroke="#191970" d="M1052.3371,-471.0026C990.4137,-460.6203 889.1263,-443.6379 826.7475,-433.1792"/>
<polygon fill="#191970" stroke="#191970" points="827.146,-429.6973 816.7049,-431.4954 825.9885,-436.6009 827.146,-429.6973"/>
</g>
<!-- Node16&#45;&gt;Node5 -->
<g id="edge21" class="edge">
<title>Node16&#45;&gt;Node5</title>
<path fill="none" stroke="#191970" d="M727.4128,-422.1704C660.9925,-418.4818 540.6807,-407.7762 511,-378 481.0611,-347.9647 481.9576,-293.9271 485.0544,-264.8341"/>
<polygon fill="#191970" stroke="#191970" points="488.5559,-265.0414 486.3369,-254.6816 481.6111,-264.164 488.5559,-265.0414"/>
</g>
<!-- Node16&#45;&gt;Node14 -->
<g id="edge22" class="edge">
<title>Node16&#45;&gt;Node14</title>
<path fill="none" stroke="#191970" d="M727.3829,-417.0208C663.4256,-407.0163 545.5283,-388.5743 473.9932,-377.3844"/>
<polygon fill="#191970" stroke="#191970" points="474.208,-373.8755 463.7872,-375.7879 473.1261,-380.7914 474.208,-373.8755"/>
</g>
<!-- Node17 -->
<g id="node18" class="node">
<title>Node17</title>
<polygon fill="#ffffff" stroke="#bfbfbf" points="520.5,-358.5 520.5,-377.5 637.5,-377.5 637.5,-358.5 520.5,-358.5"/>
<text text-anchor="middle" x="579" y="-365.5" font-family="Helvetica,sans-Serif" font-size="10.00" fill="#000000">odp/api/abi/packet_io.h</text>
</g>
<!-- Node16&#45;&gt;Node17 -->
<g id="edge23" class="edge">
<title>Node16&#45;&gt;Node17</title>
<path fill="none" stroke="#191970" d="M738.8221,-414.3733C706.4513,-404.9807 657.0602,-390.6496 621.7576,-380.4064"/>
<polygon fill="#191970" stroke="#191970" points="622.3242,-376.9264 611.7449,-377.5011 620.3735,-383.6492 622.3242,-376.9264"/>
</g>
<!-- Node18 -->
<g id="node19" class="node">
<title>Node18</title>
<polygon fill="#ffffff" stroke="#bfbfbf" points="656,-358.5 656,-377.5 760,-377.5 760,-358.5 656,-358.5"/>
<text text-anchor="middle" x="708" y="-365.5" font-family="Helvetica,sans-Serif" font-size="10.00" fill="#000000">odp/api/abi/packet.h</text>
</g>
<!-- Node16&#45;&gt;Node18 -->
<g id="edge24" class="edge">
<title>Node16&#45;&gt;Node18</title>
<path fill="none" stroke="#191970" d="M760.8521,-414.2455C751.4913,-406.0549 737.9142,-394.1749 726.8651,-384.5069"/>
<polygon fill="#191970" stroke="#191970" points="728.8508,-381.5937 719.0202,-377.6427 724.2412,-386.8618 728.8508,-381.5937"/>
</g>
<!-- Node19 -->
<g id="node20" class="node">
<title>Node19</title>
<polygon fill="#ffffff" stroke="#bfbfbf" points="910,-358.5 910,-377.5 1010,-377.5 1010,-358.5 910,-358.5"/>
<text text-anchor="middle" x="960" y="-365.5" font-family="Helvetica,sans-Serif" font-size="10.00" fill="#000000">odp/api/abi/buffer.h</text>
</g>
<!-- Node16&#45;&gt;Node19 -->
<g id="edge25" class="edge">
<title>Node16&#45;&gt;Node19</title>
<path fill="none" stroke="#191970" d="M804.3184,-414.3733C835.8506,-404.9807 883.9621,-390.6496 918.3501,-380.4064"/>
<polygon fill="#191970" stroke="#191970" points="919.5187,-383.7103 928.1034,-377.5011 917.5203,-377.0016 919.5187,-383.7103"/>
</g>
<!-- Node20 -->
<g id="node21" class="node">
<title>Node20</title>
<polygon fill="#ffffff" stroke="#bfbfbf" points="1028.5,-358.5 1028.5,-377.5 1121.5,-377.5 1121.5,-358.5 1028.5,-358.5"/>
<text text-anchor="middle" x="1075" y="-365.5" font-family="Helvetica,sans-Serif" font-size="10.00" fill="#000000">odp/api/abi/pool.h</text>
</g>
<!-- Node16&#45;&gt;Node20 -->
<g id="edge26" class="edge">
<title>Node16&#45;&gt;Node20</title>
<path fill="none" stroke="#191970" d="M816.7087,-415.737C870.1299,-405.8638 959.5949,-389.329 1017.9525,-378.5434"/>
<polygon fill="#191970" stroke="#191970" points="1018.9158,-381.9248 1028.1131,-376.6656 1017.6436,-375.0413 1018.9158,-381.9248"/>
</g>
<!-- Node21 -->
<g id="node22" class="node">
<title>Node21</title>
<g id="a_node22"><a xlink:href="api_2spec_2packet_8h.html" target="_top" xlink:title="ODP packet descriptor. ">
<polygon fill="#ffffff" stroke="#000000" points="778.5,-358.5 778.5,-377.5 891.5,-377.5 891.5,-358.5 778.5,-358.5"/>
<text text-anchor="middle" x="835" y="-365.5" font-family="Helvetica,sans-Serif" font-size="10.00" fill="#000000">odp/api/spec/packet.h</text>
</a>
</g>
</g>
<!-- Node16&#45;&gt;Node21 -->
<g id="edge27" class="edge">
<title>Node16&#45;&gt;Node21</title>
<path fill="none" stroke="#191970" d="M782.9738,-414.2455C792.1882,-406.0549 805.5532,-394.1749 816.4297,-384.5069"/>
<polygon fill="#191970" stroke="#191970" points="819.0032,-386.9023 824.152,-377.6427 814.3526,-381.6704 819.0032,-386.9023"/>
</g>
<!-- Node21&#45;&gt;Node4 -->
<g id="edge28" class="edge">
<title>Node21&#45;&gt;Node4</title>
<path fill="none" stroke="#191970" d="M861.4295,-358.4145C922.8122,-336.2097 1079.8609,-279.7282 1212,-235 1261.1251,-218.3715 1290.0167,-239.0235 1323,-199 1363.6411,-149.6842 1360.3845,-115.8556 1338,-56 1333.8851,-44.9969 1325.8185,-34.8874 1318.0006,-26.9652"/>
<polygon fill="#191970" stroke="#191970" points="1320.0985,-24.1329 1310.4212,-19.82 1315.2968,-29.2264 1320.0985,-24.1329"/>
</g>
<!-- Node21&#45;&gt;Node12 -->
<g id="edge35" class="edge">
<title>Node21&#45;&gt;Node12</title>
<path fill="none" stroke="#191970" d="M816.9846,-358.3498C772.412,-334.7647 652.9759,-273.3314 548,-235 490.8795,-214.1427 452.9109,-247.3256 416,-199 388.1256,-162.5054 391.9059,-107.1306 449,-56 477.4907,-30.4852 579.8303,-18.6436 646.7358,-13.5204"/>
<polygon fill="#191970" stroke="#191970" points="647.0286,-17.0084 656.7446,-12.7836 646.5146,-10.0273 647.0286,-17.0084"/>
</g>
<!-- Node22 -->
<g id="node23" class="node">
<title>Node22</title>
<g id="a_node23"><a xlink:href="api_2time_8h.html" target="_top" xlink:title="ODP time. ">
<polygon fill="#ffffff" stroke="#000000" points="796,-297 796,-316 874,-316 874,-297 796,-297"/>
<text text-anchor="middle" x="835" y="-304" font-family="Helvetica,sans-Serif" font-size="10.00" fill="#000000">odp/api/time.h</text>
</a>
</g>
</g>
<!-- Node21&#45;&gt;Node22 -->
<g id="edge29" class="edge">
<title>Node21&#45;&gt;Node22</title>
<path fill="none" stroke="#191970" d="M835,-358.3906C835,-349.8657 835,-337.1392 835,-326.4235"/>
<polygon fill="#191970" stroke="#191970" points="838.5001,-326.2448 835,-316.2449 831.5001,-326.2449 838.5001,-326.2448"/>
</g>
<!-- Node22&#45;&gt;Node5 -->
<g id="edge30" class="edge">
<title>Node22&#45;&gt;Node5</title>
<path fill="none" stroke="#191970" d="M795.8692,-299.5647C735.8123,-288.9206 620.4096,-268.4674 549.2183,-255.8499"/>
<polygon fill="#191970" stroke="#191970" points="549.5047,-252.3462 539.0473,-254.0473 548.2831,-259.2388 549.5047,-252.3462"/>
</g>
<!-- Node23 -->
<g id="node24" class="node">
<title>Node23</title>
<polygon fill="#ffffff" stroke="#bfbfbf" points="788,-235.5 788,-254.5 882,-254.5 882,-235.5 788,-235.5"/>
<text text-anchor="middle" x="835" y="-242.5" font-family="Helvetica,sans-Serif" font-size="10.00" fill="#000000">odp/api/abi/time.h</text>
</g>
<!-- Node22&#45;&gt;Node23 -->
<g id="edge31" class="edge">
<title>Node22&#45;&gt;Node23</title>
<path fill="none" stroke="#191970" d="M835,-296.8906C835,-288.3657 835,-275.6392 835,-264.9235"/>
<polygon fill="#191970" stroke="#191970" points="838.5001,-264.7448 835,-254.7449 831.5001,-264.7449 838.5001,-264.7448"/>
</g>
<!-- Node24 -->
<g id="node25" class="node">
<title>Node24</title>
<g id="a_node25"><a xlink:href="api_2spec_2time_8h.html" target="_top" xlink:title="ODP time. ">
<polygon fill="#ffffff" stroke="#000000" points="775,-56.5 775,-75.5 877,-75.5 877,-56.5 775,-56.5"/>
<text text-anchor="middle" x="826" y="-63.5" font-family="Helvetica,sans-Serif" font-size="10.00" fill="#000000">odp/api/spec/time.h</text>
</a>
</g>
</g>
<!-- Node22&#45;&gt;Node24 -->
<g id="edge32" class="edge">
<title>Node22&#45;&gt;Node24</title>
<path fill="none" stroke="#191970" d="M851.4887,-296.8327C864.9409,-287.8989 882.9837,-273.2628 891,-255 894.5727,-246.8607 892.6227,-243.7395 891,-235 880.3787,-177.7973 851.1412,-114.9735 835.7566,-84.5546"/>
<polygon fill="#191970" stroke="#191970" points="838.804,-82.8272 831.1172,-75.5359 832.5793,-86.0293 838.804,-82.8272"/>
</g>
<!-- Node24&#45;&gt;Node4 -->
<g id="edge33" class="edge">
<title>Node24&#45;&gt;Node4</title>
<path fill="none" stroke="#191970" d="M877.4108,-59.9004C964.3206,-49.5891 1140.0245,-28.7429 1234.4908,-17.535"/>
<polygon fill="#191970" stroke="#191970" points="1234.9673,-21.0031 1244.4853,-16.3492 1234.1425,-14.0518 1234.9673,-21.0031"/>
</g>
<!-- Node24&#45;&gt;Node12 -->
<g id="edge34" class="edge">
<title>Node24&#45;&gt;Node12</title>
<path fill="none" stroke="#191970" d="M805.5432,-56.3733C786.5262,-47.4241 757.9825,-33.9917 736.5024,-23.8835"/>
<polygon fill="#191970" stroke="#191970" points="737.7284,-20.5923 727.1899,-19.5011 734.7478,-26.926 737.7284,-20.5923"/>
</g>
<!-- Node25&#45;&gt;Node5 -->
<g id="edge38" class="edge">
<title>Node25&#45;&gt;Node5</title>
<path fill="none" stroke="#191970" d="M904.8541,-645.162C807.7359,-638.5193 574.4846,-621.0719 498,-602 422.5639,-583.1896 336,-613.746 336,-536 336,-536 336,-536 336,-424 336,-393.4754 338.4404,-383.6424 355,-358 383.0049,-314.6347 432.643,-278.9403 462.7152,-259.914"/>
<polygon fill="#191970" stroke="#191970" points="464.7133,-262.7935 471.3742,-254.5544 461.0291,-256.8415 464.7133,-262.7935"/>
</g>
<!-- Node25&#45;&gt;Node14 -->
<g id="edge39" class="edge">
<title>Node25&#45;&gt;Node14</title>
<path fill="none" stroke="#191970" d="M904.6933,-647.2461C785.2614,-644.0042 460,-626.8365 460,-536 460,-536 460,-536 460,-480 460,-444.66 440.1609,-407.4332 426.5403,-386.0395"/>
<polygon fill="#191970" stroke="#191970" points="429.4212,-384.0507 420.9864,-377.6394 423.5821,-387.9114 429.4212,-384.0507"/>
</g>
<!-- Node25&#45;&gt;Node19 -->
<g id="edge41" class="edge">
<title>Node25&#45;&gt;Node19</title>
<path fill="none" stroke="#191970" d="M942.393,-638.4834C931.8226,-619.6141 910,-575.8343 910,-536 910,-536 910,-536 910,-480 910,-444.2001 931.5643,-407.1175 946.3693,-385.8769"/>
<polygon fill="#191970" stroke="#191970" points="949.3739,-387.6952 952.4061,-377.5435 943.7051,-383.5886 949.3739,-387.6952"/>
</g>
<!-- Node25&#45;&gt;Node20 -->
<g id="edge42" class="edge">
<title>Node25&#45;&gt;Node20</title>
<path fill="none" stroke="#191970" d="M948,-638.4116C948,-619.0538 948,-573.9167 948,-536 948,-536 948,-536 948,-480 948,-431.155 1001.4979,-398.5347 1039.0499,-381.6541"/>
<polygon fill="#191970" stroke="#191970" points="1040.8848,-384.6747 1048.6855,-377.5053 1038.1166,-378.2454 1040.8848,-384.6747"/>
</g>
<!-- Node26 -->
<g id="node27" class="node">
<title>Node26</title>
<polygon fill="#ffffff" stroke="#bfbfbf" points="976.5,-582.5 976.5,-601.5 1077.5,-601.5 1077.5,-582.5 976.5,-582.5"/>
<text text-anchor="middle" x="1027" y="-589.5" font-family="Helvetica,sans-Serif" font-size="10.00" fill="#000000">odp/api/abi/queue.h</text>
</g>
<!-- Node25&#45;&gt;Node26 -->
<g id="edge40" class="edge">
<title>Node25&#45;&gt;Node26</title>
<path fill="none" stroke="#191970" d="M961.7607,-638.2455C973.6552,-629.814 991.065,-617.4729 1004.9085,-607.6598"/>
<polygon fill="#191970" stroke="#191970" points="1007.2628,-610.2811 1013.3969,-601.6427 1003.2146,-604.5704 1007.2628,-610.2811"/>
</g>
<!-- Node27 -->
<g id="node28" class="node">
<title>Node27</title>
<g id="a_node28"><a xlink:href="api_2spec_2queue_8h.html" target="_top" xlink:title="ODP queue. ">
<polygon fill="#ffffff" stroke="#000000" points="1134,-582.5 1134,-601.5 1244,-601.5 1244,-582.5 1134,-582.5"/>
<text text-anchor="middle" x="1189" y="-589.5" font-family="Helvetica,sans-Serif" font-size="10.00" fill="#000000">odp/api/spec/queue.h</text>
</a>
</g>
</g>
<!-- Node25&#45;&gt;Node27 -->
<g id="edge43" class="edge">
<title>Node25&#45;&gt;Node27</title>
<path fill="none" stroke="#191970" d="M989.1555,-638.4369C1030.3142,-628.8731 1093.705,-614.1432 1138.0242,-603.845"/>
<polygon fill="#191970" stroke="#191970" points="1139.0659,-607.1963 1148.0142,-601.5237 1137.4815,-600.3779 1139.0659,-607.1963"/>
</g>
<!-- Node27&#45;&gt;Node4 -->
<g id="edge44" class="edge">
<title>Node27&#45;&gt;Node4</title>
<path fill="none" stroke="#191970" d="M1244.2999,-588.053C1358.959,-576.5533 1612,-532.5356 1612,-368 1612,-368 1612,-368 1612,-122 1612,-69.3514 1453.4165,-34.9689 1361.6486,-19.4802"/>
<polygon fill="#191970" stroke="#191970" points="1362.0595,-16.0006 1351.6217,-17.818 1360.9147,-22.9064 1362.0595,-16.0006"/>
</g>
<!-- Node27&#45;&gt;Node12 -->
<g id="edge62" class="edge">
<title>Node27&#45;&gt;Node12</title>
<path fill="none" stroke="#191970" d="M1188.8567,-582.4119C1188.5802,-563.0545 1188,-517.9182 1188,-480 1188,-480 1188,-480 1188,-424 1188,-180.8974 953.3557,-230.9087 766,-76 748.5399,-61.5637 731.6255,-41.87 720.4173,-27.7597"/>
<polygon fill="#191970" stroke="#191970" points="723.1236,-25.5383 714.2221,-19.7925 717.5976,-29.8353 723.1236,-25.5383"/>
</g>
<!-- Node27&#45;&gt;Node13 -->
<g id="edge45" class="edge">
<title>Node27&#45;&gt;Node13</title>
<path fill="none" stroke="#191970" d="M1174.5425,-582.2455C1161.9268,-573.7337 1143.4056,-561.2375 1128.7955,-551.3801"/>
<polygon fill="#191970" stroke="#191970" points="1130.5391,-548.3343 1120.2918,-545.6427 1126.6239,-554.1371 1130.5391,-548.3343"/>
</g>
<!-- Node28 -->
<g id="node29" class="node">
<title>Node28</title>
<g id="a_node29"><a xlink:href="queue__types_8h.html" target="_top" xlink:title="ODP queue types. ">
<polygon fill="#ffffff" stroke="#000000" points="1257.5,-291.5 1257.5,-321.5 1358.5,-321.5 1358.5,-291.5 1257.5,-291.5"/>
<text text-anchor="start" x="1265.5" y="-309.5" font-family="Helvetica,sans-Serif" font-size="10.00" fill="#000000">odp/api/spec/queue</text>
<text text-anchor="middle" x="1308" y="-298.5" font-family="Helvetica,sans-Serif" font-size="10.00" fill="#000000">_types.h</text>
</a>
</g>
</g>
<!-- Node27&#45;&gt;Node28 -->
<g id="edge46" class="edge">
<title>Node27&#45;&gt;Node28</title>
<path fill="none" stroke="#191970" d="M1206.3417,-582.4601C1234.2423,-565.6916 1286,-528.1023 1286,-480 1286,-480 1286,-480 1286,-424 1286,-391.6046 1294.1793,-355.0302 1300.5633,-331.4171"/>
<polygon fill="#191970" stroke="#191970" points="1304.0025,-332.1152 1303.3344,-321.5414 1297.2628,-330.224 1304.0025,-332.1152"/>
</g>
<!-- Node28&#45;&gt;Node4 -->
<g id="edge47" class="edge">
<title>Node28&#45;&gt;Node4</title>
<path fill="none" stroke="#191970" d="M1328.5855,-291.3749C1341.1815,-281.655 1357.2675,-268.3809 1370,-255 1433.7681,-187.9846 1484.667,-131.3478 1431,-56 1421.398,-42.519 1384.7074,-30.4231 1352.2902,-22.0221"/>
<polygon fill="#191970" stroke="#191970" points="1352.9532,-18.5799 1342.4016,-19.5361 1351.2464,-25.3687 1352.9532,-18.5799"/>
</g>
<!-- Node28&#45;&gt;Node12 -->
<g id="edge61" class="edge">
<title>Node28&#45;&gt;Node12</title>
<path fill="none" stroke="#191970" d="M1282.4603,-291.485C1220.2011,-254.8566 1055.6899,-157.9159 919,-76 904.2893,-67.1841 901.8082,-62.6501 886,-56 847.9103,-39.9766 802.8425,-28.4333 767.4575,-20.9176"/>
<polygon fill="#191970" stroke="#191970" points="767.7797,-17.4102 757.2777,-18.8093 766.36,-24.2647 767.7797,-17.4102"/>
</g>
<!-- Node28&#45;&gt;Node29 -->
<g id="edge48" class="edge">
<title>Node28&#45;&gt;Node29</title>
<path fill="none" stroke="#191970" d="M1350.5652,-291.4554C1379.5975,-281.194 1417.6541,-267.7429 1445.3409,-257.9571"/>
<polygon fill="#191970" stroke="#191970" points="1446.7741,-261.1628 1455.0362,-254.5303 1444.4414,-254.5629 1446.7741,-261.1628"/>
</g>
<!-- Node33 -->
<g id="node34" class="node">
<title>Node33</title>
<g id="a_node34"><a xlink:href="deprecated_8h.html" target="_top" xlink:title="Control deprecated API definitions. ">
<polygon fill="#ffffff" stroke="#000000" points="1254.5,-235.5 1254.5,-254.5 1361.5,-254.5 1361.5,-235.5 1254.5,-235.5"/>
<text text-anchor="middle" x="1308" y="-242.5" font-family="Helvetica,sans-Serif" font-size="10.00" fill="#000000">odp/api/deprecated.h</text>
</a>
</g>
</g>
<!-- Node28&#45;&gt;Node33 -->
<g id="edge57" class="edge">
<title>Node28&#45;&gt;Node33</title>
<path fill="none" stroke="#191970" d="M1308,-291.2977C1308,-283.3834 1308,-273.6043 1308,-265.0759"/>
<polygon fill="#191970" stroke="#191970" points="1311.5001,-264.8469 1308,-254.8469 1304.5001,-264.847 1311.5001,-264.8469"/>
</g>
<!-- Node29&#45;&gt;Node1 -->
<g id="edge49" class="edge">
<title>Node29&#45;&gt;Node1</title>
<path fill="none" stroke="#191970" d="M1489.3438,-235.3906C1495.2335,-227.6839 1503.7473,-216.5434 1511.3778,-206.5589"/>
<polygon fill="#191970" stroke="#191970" points="1514.2113,-208.6153 1517.5025,-198.5446 1508.6495,-204.3648 1514.2113,-208.6153"/>
</g>
<!-- Node30 -->
<g id="node31" class="node">
<title>Node30</title>
<g id="a_node31"><a xlink:href="api_2spec_2schedule__types_8h.html" target="_top" xlink:title="ODP schedule types. ">
<polygon fill="#ffffff" stroke="#000000" points="1200,-168.5 1200,-198.5 1314,-198.5 1314,-168.5 1200,-168.5"/>
<text text-anchor="start" x="1208" y="-186.5" font-family="Helvetica,sans-Serif" font-size="10.00" fill="#000000">odp/api/spec/schedule</text>
<text text-anchor="middle" x="1257" y="-175.5" font-family="Helvetica,sans-Serif" font-size="10.00" fill="#000000">_types.h</text>
</a>
</g>
</g>
<!-- Node29&#45;&gt;Node30 -->
<g id="edge50" class="edge">
<title>Node29&#45;&gt;Node30</title>
<path fill="none" stroke="#191970" d="M1446.8438,-235.3906C1413.5027,-226.2774 1362.5953,-212.3627 1321.8871,-201.2358"/>
<polygon fill="#191970" stroke="#191970" points="1322.6102,-197.8051 1312.0412,-198.5446 1320.7645,-204.5574 1322.6102,-197.8051"/>
</g>
<!-- Node30&#45;&gt;Node4 -->
<g id="edge51" class="edge">
<title>Node30&#45;&gt;Node4</title>
<path fill="none" stroke="#191970" d="M1278.2909,-168.438C1289.7384,-159.214 1303.0901,-146.4267 1311,-132 1327.4083,-102.0733 1330.1274,-89.1479 1322,-56 1319.6257,-46.3164 1314.8179,-36.4071 1310.1247,-28.2776"/>
<polygon fill="#191970" stroke="#191970" points="1313.0472,-26.3486 1304.8208,-19.672 1307.0881,-30.0214 1313.0472,-26.3486"/>
</g>
<!-- Node30&#45;&gt;Node12 -->
<g id="edge56" class="edge">
<title>Node30&#45;&gt;Node12</title>
<path fill="none" stroke="#191970" d="M1212.0614,-168.4707C1153.8237,-148.6875 1049.3862,-112.1662 962,-76 942.5248,-67.9399 938.9771,-62.7204 919,-56 868.9338,-39.1576 810.0923,-26.9626 767.1192,-19.3781"/>
<polygon fill="#191970" stroke="#191970" points="767.5533,-15.9012 757.1026,-17.6429 766.3584,-22.7985 767.5533,-15.9012"/>
</g>
<!-- Node31 -->
<g id="node32" class="node">
<title>Node31</title>
<g id="a_node32"><a xlink:href="support_8h.html" target="_top" xlink:title="ODP support API &#45; platform specific header. ">
<polygon fill="#ffffff" stroke="#000000" points="1210,-112.5 1210,-131.5 1302,-131.5 1302,-112.5 1210,-112.5"/>
<text text-anchor="middle" x="1256" y="-119.5" font-family="Helvetica,sans-Serif" font-size="10.00" fill="#000000">odp/api/support.h</text>
</a>
</g>
</g>
<!-- Node30&#45;&gt;Node31 -->
<g id="edge52" class="edge">
<title>Node30&#45;&gt;Node31</title>
<path fill="none" stroke="#191970" d="M1256.7528,-168.2977C1256.6241,-160.3834 1256.4651,-150.6043 1256.3264,-142.0759"/>
<polygon fill="#191970" stroke="#191970" points="1259.8223,-141.7887 1256.1601,-131.8469 1252.8233,-141.9025 1259.8223,-141.7887"/>
</g>
<!-- Node32 -->
<g id="node33" class="node">
<title>Node32</title>
<g id="a_node33"><a xlink:href="spec_2support_8h.html" target="_top" xlink:title="ODP support API. ">
<polygon fill="#ffffff" stroke="#000000" points="1197,-56.5 1197,-75.5 1313,-75.5 1313,-56.5 1197,-56.5"/>
<text text-anchor="middle" x="1255" y="-63.5" font-family="Helvetica,sans-Serif" font-size="10.00" fill="#000000">odp/api/spec/support.h</text>
</a>
</g>
</g>
<!-- Node31&#45;&gt;Node32 -->
<g id="edge53" class="edge">
<title>Node31&#45;&gt;Node32</title>
<path fill="none" stroke="#191970" d="M1255.8258,-112.2455C1255.6953,-104.9382 1255.5124,-94.6944 1255.3519,-85.7046"/>
<polygon fill="#191970" stroke="#191970" points="1258.8503,-85.5786 1255.1722,-75.6427 1251.8514,-85.7036 1258.8503,-85.5786"/>
</g>
<!-- Node32&#45;&gt;Node4 -->
<g id="edge54" class="edge">
<title>Node32&#45;&gt;Node4</title>
<path fill="none" stroke="#191970" d="M1262.49,-56.2455C1268.5326,-48.3761 1277.1903,-37.101 1284.4441,-27.6542"/>
<polygon fill="#191970" stroke="#191970" points="1287.2815,-29.7058 1290.5958,-19.6427 1281.7295,-25.4426 1287.2815,-29.7058"/>
</g>
<!-- Node32&#45;&gt;Node12 -->
<g id="edge55" class="edge">
<title>Node32&#45;&gt;Node12</title>
<path fill="none" stroke="#191970" d="M1196.8732,-60.06C1092.3735,-49.3812 873.7874,-27.044 767.5511,-16.1877"/>
<polygon fill="#191970" stroke="#191970" points="767.6243,-12.677 757.3203,-15.1422 766.9127,-19.6408 767.6243,-12.677"/>
</g>
<!-- Node34 -->
<g id="node35" class="node">
<title>Node34</title>
<g id="a_node35"><a xlink:href="spec_2deprecated_8h.html" target="_top" xlink:title="Macro for deprecated API definitions. ">
<polygon fill="#ffffff" stroke="#000000" points="971.5,-56.5 971.5,-75.5 1102.5,-75.5 1102.5,-56.5 971.5,-56.5"/>
<text text-anchor="middle" x="1037" y="-63.5" font-family="Helvetica,sans-Serif" font-size="10.00" fill="#000000">odp/api/spec/deprecated.h</text>
</a>
</g>
</g>
<!-- Node33&#45;&gt;Node34 -->
<g id="edge58" class="edge">
<title>Node33&#45;&gt;Node34</title>
<path fill="none" stroke="#191970" d="M1275.3511,-235.4585C1251.0908,-227.6017 1217.7142,-215.1398 1191,-199 1134.8589,-165.0814 1079.145,-110.4015 1052.7706,-82.9182"/>
<polygon fill="#191970" stroke="#191970" points="1055.2679,-80.4652 1045.8456,-75.6205 1050.1902,-85.2836 1055.2679,-80.4652"/>
</g>
<!-- Node34&#45;&gt;Node4 -->
<g id="edge59" class="edge">
<title>Node34&#45;&gt;Node4</title>
<path fill="none" stroke="#191970" d="M1081.5709,-56.4369C1126.4268,-46.8127 1195.6649,-31.957 1243.7008,-21.6504"/>
<polygon fill="#191970" stroke="#191970" points="1244.5697,-25.0437 1253.6129,-19.5237 1243.1011,-18.1995 1244.5697,-25.0437"/>
</g>
<!-- Node34&#45;&gt;Node12 -->
<g id="edge60" class="edge">
<title>Node34&#45;&gt;Node12</title>
<path fill="none" stroke="#191970" d="M980.6459,-56.4369C921.3056,-46.367 828.216,-30.57 767.3955,-20.2489"/>
<polygon fill="#191970" stroke="#191970" points="767.6213,-16.7373 757.1767,-18.5148 766.4501,-23.6386 767.6213,-16.7373"/>
</g>
<!-- Node36 -->
<g id="node37" class="node">
<title>Node36</title>
<polygon fill="#ffffff" stroke="#bfbfbf" points="28,-297 28,-316 138,-316 138,-297 28,-297"/>
<text text-anchor="middle" x="83" y="-304" font-family="Helvetica,sans-Serif" font-size="10.00" fill="#000000">odp/api/abi/thrmask.h</text>
</g>
<!-- Node35&#45;&gt;Node36 -->
<g id="edge65" class="edge">
<title>Node35&#45;&gt;Node36</title>
<path fill="none" stroke="#191970" d="M195.2188,-358.3906C173.1606,-348.1908 138.095,-331.9763 113.0331,-320.3875"/>
<polygon fill="#191970" stroke="#191970" points="114.1809,-317.0622 103.6353,-316.0419 111.2429,-323.4158 114.1809,-317.0622"/>
</g>
<!-- Node37 -->
<g id="node38" class="node">
<title>Node37</title>
<g id="a_node38"><a xlink:href="api_2spec_2thrmask_8h.html" target="_top" xlink:title="ODP thread masks. ">
<polygon fill="#ffffff" stroke="#000000" points="156.5,-297 156.5,-316 275.5,-316 275.5,-297 156.5,-297"/>
<text text-anchor="middle" x="216" y="-304" font-family="Helvetica,sans-Serif" font-size="10.00" fill="#000000">odp/api/spec/thrmask.h</text>
</a>
</g>
</g>
<!-- Node35&#45;&gt;Node37 -->
<g id="edge66" class="edge">
<title>Node35&#45;&gt;Node37</title>
<path fill="none" stroke="#191970" d="M216,-358.3906C216,-349.8657 216,-337.1392 216,-326.4235"/>
<polygon fill="#191970" stroke="#191970" points="219.5001,-326.2448 216,-316.2449 212.5001,-326.2449 219.5001,-326.2448"/>
</g>
<!-- Node37&#45;&gt;Node4 -->
<g id="edge67" class="edge">
<title>Node37&#45;&gt;Node4</title>
<path fill="none" stroke="#191970" d="M242.6097,-296.9617C282.6171,-282.7494 360.7479,-255.4921 428,-235 486.1689,-217.2756 505.9303,-226.8252 560,-199 579.3802,-189.0266 578.1115,-176.9169 598,-168 690.4093,-126.569 723.1019,-148.6244 823,-132 967.1527,-108.0111 1007.9424,-120.927 1147,-76 1166.2927,-69.7669 1169.5287,-64.359 1188,-56 1213.3487,-44.5288 1242.4035,-32.4222 1264.2845,-23.5099"/>
<polygon fill="#191970" stroke="#191970" points="1265.8423,-26.655 1273.794,-19.6535 1263.2117,-20.1681 1265.8423,-26.655"/>
</g>
<!-- Node37&#45;&gt;Node5 -->
<g id="edge68" class="edge">
<title>Node37&#45;&gt;Node5</title>
<path fill="none" stroke="#191970" d="M258.2016,-296.9581C306.0447,-286.1406 384.0831,-268.4959 435.7372,-256.8168"/>
<polygon fill="#191970" stroke="#191970" points="436.7175,-260.1835 445.6994,-254.5643 435.1737,-253.3559 436.7175,-260.1835"/>
</g>
<!-- Node37&#45;&gt;Node12 -->
<g id="edge69" class="edge">
<title>Node37&#45;&gt;Node12</title>
<path fill="none" stroke="#191970" d="M226.4763,-296.7679C246.2261,-277.3058 287,-231.3335 287,-183.5 287,-183.5 287,-183.5 287,-122 287,-48.4714 530.3623,-21.987 646.5894,-13.5311"/>
<polygon fill="#191970" stroke="#191970" points="647.0265,-17.0091 656.7554,-12.8139 646.5338,-10.0264 647.0265,-17.0091"/>
</g>
</g>
</svg>
