<?xml version="1.0" encoding="UTF-8" standalone="no"?>
<!DOCTYPE svg PUBLIC "-//W3C//DTD SVG 1.1//EN"
 "http://www.w3.org/Graphics/SVG/1.1/DTD/svg11.dtd">
<!-- Generated by graphviz version 2.40.1 (20161225.0304)
 -->
<!-- Title: sync.h Pages: 1 -->
<svg width="285pt" height="140pt"
 viewBox="0.00 0.00 285.00 140.00" xmlns="http://www.w3.org/2000/svg" xmlns:xlink="http://www.w3.org/1999/xlink">
<g id="graph0" class="graph" transform="scale(1 1) rotate(0) translate(4 136)">
<title>sync.h</title>
<polygon fill="#ffffff" stroke="transparent" points="-4,4 -4,-136 281,-136 281,4 -4,4"/>
<!-- Node0 -->
<g id="node1" class="node">
<title>Node0</title>
<polygon fill="#bfbfbf" stroke="#000000" points="84,-112.5 84,-131.5 130,-131.5 130,-112.5 84,-112.5"/>
<text text-anchor="middle" x="107" y="-119.5" font-family="Helvetica,sans-Serif" font-size="10.00" fill="#000000">sync.h</text>
</g>
<!-- Node1 -->
<g id="node2" class="node">
<title>Node1</title>
<polygon fill="#ffffff" stroke="#bfbfbf" points="0,-56.5 0,-75.5 96,-75.5 96,-56.5 0,-56.5"/>
<text text-anchor="middle" x="48" y="-63.5" font-family="Helvetica,sans-Serif" font-size="10.00" fill="#000000">odp/api/abi/sync.h</text>
</g>
<!-- Node0&#45;&gt;Node1 -->
<g id="edge1" class="edge">
<title>Node0&#45;&gt;Node1</title>
<path fill="none" stroke="#191970" d="M96.723,-112.2455C88.1782,-104.1352 75.8222,-92.4075 65.6915,-82.7919"/>
<polygon fill="#191970" stroke="#191970" points="67.8218,-79.9884 58.1592,-75.6427 63.0028,-85.0655 67.8218,-79.9884"/>
</g>
<!-- Node2 -->
<g id="node3" class="node">
<title>Node2</title>
<g id="a_node3"><a xlink:href="api_2spec_2sync_8h.html" target="_top" xlink:title="ODP memory barriers. ">
<polygon fill="#ffffff" stroke="#000000" points="114,-56.5 114,-75.5 218,-75.5 218,-56.5 114,-56.5"/>
<text text-anchor="middle" x="166" y="-63.5" font-family="Helvetica,sans-Serif" font-size="10.00" fill="#000000">odp/api/spec/sync.h</text>
</a>
</g>
</g>
<!-- Node0&#45;&gt;Node2 -->
<g id="edge2" class="edge">
<title>Node0&#45;&gt;Node2</title>
<path fill="none" stroke="#191970" d="M117.277,-112.2455C125.8218,-104.1352 138.1778,-92.4075 148.3085,-82.7919"/>
<polygon fill="#191970" stroke="#191970" points="150.9972,-85.0655 155.8408,-75.6427 146.1782,-79.9884 150.9972,-85.0655"/>
</g>
<!-- Node3 -->
<g id="node4" class="node">
<title>Node3</title>
<g id="a_node4"><a xlink:href="visibility__begin_8h_source.html" target="_top" xlink:title="odp/visibility_begin.h">
<polygon fill="#ffffff" stroke="#000000" points="51.5,-.5 51.5,-19.5 158.5,-19.5 158.5,-.5 51.5,-.5"/>
<text text-anchor="middle" x="105" y="-7.5" font-family="Helvetica,sans-Serif" font-size="10.00" fill="#000000">odp/visibility_begin.h</text>
</a>
</g>
</g>
<!-- Node2&#45;&gt;Node3 -->
<g id="edge3" class="edge">
<title>Node2&#45;&gt;Node3</title>
<path fill="none" stroke="#191970" d="M155.3746,-56.2455C146.4527,-48.0549 133.512,-36.1749 122.9808,-26.5069"/>
<polygon fill="#191970" stroke="#191970" points="125.2371,-23.8271 115.5036,-19.6427 120.5032,-28.9837 125.2371,-23.8271"/>
</g>
<!-- Node4 -->
<g id="node5" class="node">
<title>Node4</title>
<g id="a_node5"><a xlink:href="visibility__end_8h_source.html" target="_top" xlink:title="odp/visibility_end.h">
<polygon fill="#ffffff" stroke="#000000" points="177,-.5 177,-19.5 277,-19.5 277,-.5 177,-.5"/>
<text text-anchor="middle" x="227" y="-7.5" font-family="Helvetica,sans-Serif" font-size="10.00" fill="#000000">odp/visibility_end.h</text>
</a>
</g>
</g>
<!-- Node2&#45;&gt;Node4 -->
<g id="edge4" class="edge">
<title>Node2&#45;&gt;Node4</title>
<path fill="none" stroke="#191970" d="M176.6254,-56.2455C185.5473,-48.0549 198.488,-36.1749 209.0192,-26.5069"/>
<polygon fill="#191970" stroke="#191970" points="211.4968,-28.9837 216.4964,-19.6427 206.7629,-23.8271 211.4968,-28.9837"/>
</g>
</g>
</svg>
