<?xml version="1.0" encoding="UTF-8" standalone="no"?>
<!DOCTYPE svg PUBLIC "-//W3C//DTD SVG 1.1//EN"
 "http://www.w3.org/Graphics/SVG/1.1/DTD/svg11.dtd">
<!-- Generated by graphviz version 2.40.1 (20161225.0304)
 -->
<!-- Title: comp.h Pages: 1 -->
<svg width="928pt" height="532pt"
 viewBox="0.00 0.00 928.20 532.00" xmlns="http://www.w3.org/2000/svg" xmlns:xlink="http://www.w3.org/1999/xlink">
<g id="graph0" class="graph" transform="scale(1 1) rotate(0) translate(4 528)">
<title>comp.h</title>
<polygon fill="#ffffff" stroke="transparent" points="-4,4 -4,-528 924.197,-528 924.197,4 -4,4"/>
<!-- Node0 -->
<g id="node1" class="node">
<title>Node0</title>
<polygon fill="#bfbfbf" stroke="#000000" points="142,-504.5 142,-523.5 191,-523.5 191,-504.5 142,-504.5"/>
<text text-anchor="middle" x="166.5" y="-511.5" font-family="Helvetica,sans-Serif" font-size="10.00" fill="#000000">comp.h</text>
</g>
<!-- Node1 -->
<g id="node2" class="node">
<title>Node1</title>
<polygon fill="#ffffff" stroke="#bfbfbf" points="0,-448.5 0,-467.5 99,-467.5 99,-448.5 0,-448.5"/>
<text text-anchor="middle" x="49.5" y="-455.5" font-family="Helvetica,sans-Serif" font-size="10.00" fill="#000000">odp/api/abi/comp.h</text>
</g>
<!-- Node0&#45;&gt;Node1 -->
<g id="edge1" class="edge">
<title>Node0&#45;&gt;Node1</title>
<path fill="none" stroke="#191970" d="M146.387,-504.3733C127.6897,-495.4241 99.6256,-481.9917 78.5066,-471.8835"/>
<polygon fill="#191970" stroke="#191970" points="79.8817,-468.6614 69.3506,-467.5011 76.8595,-474.9755 79.8817,-468.6614"/>
</g>
<!-- Node2 -->
<g id="node3" class="node">
<title>Node2</title>
<polygon fill="#ffffff" stroke="#bfbfbf" points="58,-336.5 58,-355.5 157,-355.5 157,-336.5 58,-336.5"/>
<text text-anchor="middle" x="107.5" y="-343.5" font-family="Helvetica,sans-Serif" font-size="10.00" fill="#000000">odp/api/abi/event.h</text>
</g>
<!-- Node0&#45;&gt;Node2 -->
<g id="edge2" class="edge">
<title>Node0&#45;&gt;Node2</title>
<path fill="none" stroke="#191970" d="M161.9182,-504.2471C157.6632,-495.0153 151.2827,-480.7152 146.5,-468 133.0583,-432.2637 120.1032,-389.5823 113.0288,-365.3486"/>
<polygon fill="#191970" stroke="#191970" points="116.3512,-364.2381 110.2116,-355.6035 109.6265,-366.1821 116.3512,-364.2381"/>
</g>
<!-- Node3 -->
<g id="node4" class="node">
<title>Node3</title>
<polygon fill="#ffffff" stroke="#bfbfbf" points="156,-448.5 156,-467.5 257,-467.5 257,-448.5 156,-448.5"/>
<text text-anchor="middle" x="206.5" y="-455.5" font-family="Helvetica,sans-Serif" font-size="10.00" fill="#000000">odp/api/abi/queue.h</text>
</g>
<!-- Node0&#45;&gt;Node3 -->
<g id="edge3" class="edge">
<title>Node0&#45;&gt;Node3</title>
<path fill="none" stroke="#191970" d="M173.4675,-504.2455C179.0311,-496.4564 186.978,-485.3308 193.6829,-475.9439"/>
<polygon fill="#191970" stroke="#191970" points="196.648,-477.8144 199.6124,-467.6427 190.9519,-473.7457 196.648,-477.8144"/>
</g>
<!-- Node4 -->
<g id="node5" class="node">
<title>Node4</title>
<g id="a_node5"><a xlink:href="api_2spec_2comp_8h.html" target="_top" xlink:title="ODP Compression. ">
<polygon fill="#ffffff" stroke="#000000" points="457,-448.5 457,-467.5 564,-467.5 564,-448.5 457,-448.5"/>
<text text-anchor="middle" x="510.5" y="-455.5" font-family="Helvetica,sans-Serif" font-size="10.00" fill="#000000">odp/api/spec/comp.h</text>
</a>
</g>
</g>
<!-- Node0&#45;&gt;Node4 -->
<g id="edge4" class="edge">
<title>Node0&#45;&gt;Node4</title>
<path fill="none" stroke="#191970" d="M191.2396,-509.9726C244.1689,-501.3562 369.8252,-480.9005 446.7685,-468.3749"/>
<polygon fill="#191970" stroke="#191970" points="447.5191,-471.7989 456.8267,-466.7375 446.3943,-464.8898 447.5191,-471.7989"/>
</g>
<!-- Node5 -->
<g id="node6" class="node">
<title>Node5</title>
<g id="a_node6"><a xlink:href="visibility__begin_8h_source.html" target="_top" xlink:title="odp/visibility_begin.h">
<polygon fill="#ffffff" stroke="#000000" points="675,-.5 675,-19.5 782,-19.5 782,-.5 675,-.5"/>
<text text-anchor="middle" x="728.5" y="-7.5" font-family="Helvetica,sans-Serif" font-size="10.00" fill="#000000">odp/visibility_begin.h</text>
</a>
</g>
</g>
<!-- Node4&#45;&gt;Node5 -->
<g id="edge5" class="edge">
<title>Node4&#45;&gt;Node5</title>
<path fill="none" stroke="#191970" d="M564.3902,-454.5491C675.4514,-445.9564 919.5,-418.7929 919.5,-346 919.5,-346 919.5,-346 919.5,-122 919.5,-91.4754 922.288,-77.3784 900.5,-56 884.9763,-40.7681 834.5488,-28.3827 792.2801,-20.3167"/>
<polygon fill="#191970" stroke="#191970" points="792.7649,-16.847 782.2937,-18.4609 791.4859,-23.7291 792.7649,-16.847"/>
</g>
<!-- Node6 -->
<g id="node7" class="node">
<title>Node6</title>
<g id="a_node7"><a xlink:href="support_8h.html" target="_top" xlink:title="ODP support API &#45; platform specific header. ">
<polygon fill="#ffffff" stroke="#000000" points="686.5,-392.5 686.5,-411.5 778.5,-411.5 778.5,-392.5 686.5,-392.5"/>
<text text-anchor="middle" x="732.5" y="-399.5" font-family="Helvetica,sans-Serif" font-size="10.00" fill="#000000">odp/api/support.h</text>
</a>
</g>
</g>
<!-- Node4&#45;&gt;Node6 -->
<g id="edge6" class="edge">
<title>Node4&#45;&gt;Node6</title>
<path fill="none" stroke="#191970" d="M548.4109,-448.4369C586.165,-438.9133 644.2265,-424.2672 685.0264,-413.9753"/>
<polygon fill="#191970" stroke="#191970" points="685.9053,-417.3633 694.7454,-411.5237 684.1931,-410.576 685.9053,-417.3633"/>
</g>
<!-- Node8 -->
<g id="node9" class="node">
<title>Node8</title>
<g id="a_node9"><a xlink:href="visibility__end_8h_source.html" target="_top" xlink:title="odp/visibility_end.h">
<polygon fill="#ffffff" stroke="#000000" points="346.5,-.5 346.5,-19.5 446.5,-19.5 446.5,-.5 346.5,-.5"/>
<text text-anchor="middle" x="396.5" y="-7.5" font-family="Helvetica,sans-Serif" font-size="10.00" fill="#000000">odp/visibility_end.h</text>
</a>
</g>
</g>
<!-- Node4&#45;&gt;Node8 -->
<g id="edge36" class="edge">
<title>Node4&#45;&gt;Node8</title>
<path fill="none" stroke="#191970" d="M456.8329,-450.8108C364.5237,-436.9282 185.5,-402.6961 185.5,-346 185.5,-346 185.5,-346 185.5,-122 185.5,-53.2501 273.9753,-26.5743 336.3425,-16.3106"/>
<polygon fill="#191970" stroke="#191970" points="337.1463,-19.7281 346.4959,-14.7447 336.0793,-12.8099 337.1463,-19.7281"/>
</g>
<!-- Node9 -->
<g id="node10" class="node">
<title>Node9</title>
<g id="a_node10"><a xlink:href="api_2packet_8h.html" target="_top" xlink:title="ODP packet descriptor. ">
<polygon fill="#ffffff" stroke="#000000" points="466,-392.5 466,-411.5 555,-411.5 555,-392.5 466,-392.5"/>
<text text-anchor="middle" x="510.5" y="-399.5" font-family="Helvetica,sans-Serif" font-size="10.00" fill="#000000">odp/api/packet.h</text>
</a>
</g>
</g>
<!-- Node4&#45;&gt;Node9 -->
<g id="edge10" class="edge">
<title>Node4&#45;&gt;Node9</title>
<path fill="none" stroke="#191970" d="M510.5,-448.2455C510.5,-440.9382 510.5,-430.6944 510.5,-421.7046"/>
<polygon fill="#191970" stroke="#191970" points="514.0001,-421.6426 510.5,-411.6427 507.0001,-421.6427 514.0001,-421.6426"/>
</g>
<!-- Node7 -->
<g id="node8" class="node">
<title>Node7</title>
<g id="a_node8"><a xlink:href="spec_2support_8h.html" target="_top" xlink:title="ODP support API. ">
<polygon fill="#ffffff" stroke="#000000" points="775.5,-56.5 775.5,-75.5 891.5,-75.5 891.5,-56.5 775.5,-56.5"/>
<text text-anchor="middle" x="833.5" y="-63.5" font-family="Helvetica,sans-Serif" font-size="10.00" fill="#000000">odp/api/spec/support.h</text>
</a>
</g>
</g>
<!-- Node6&#45;&gt;Node7 -->
<g id="edge7" class="edge">
<title>Node6&#45;&gt;Node7</title>
<path fill="none" stroke="#191970" d="M778.5736,-396.399C806.4322,-390.6887 840.668,-379.1781 862.5,-356 883.4293,-333.7802 881.5,-320.5246 881.5,-290 881.5,-290 881.5,-290 881.5,-178 881.5,-142.4341 860.7983,-105.2782 846.5855,-83.9597"/>
<polygon fill="#191970" stroke="#191970" points="849.3613,-81.8202 840.7902,-75.5923 843.6067,-85.8059 849.3613,-81.8202"/>
</g>
<!-- Node7&#45;&gt;Node5 -->
<g id="edge8" class="edge">
<title>Node7&#45;&gt;Node5</title>
<path fill="none" stroke="#191970" d="M815.2104,-56.2455C798.7238,-47.4527 774.2648,-34.4079 755.5235,-24.4125"/>
<polygon fill="#191970" stroke="#191970" points="757.0506,-21.2604 746.58,-19.6427 753.7565,-27.4368 757.0506,-21.2604"/>
</g>
<!-- Node7&#45;&gt;Node8 -->
<g id="edge9" class="edge">
<title>Node7&#45;&gt;Node8</title>
<path fill="none" stroke="#191970" d="M775.4698,-58.5636C692.5595,-47.939 540.9482,-28.5105 456.803,-17.7276"/>
<polygon fill="#191970" stroke="#191970" points="456.9999,-14.2243 446.6361,-16.4248 456.1101,-21.1675 456.9999,-14.2243"/>
</g>
<!-- Node9&#45;&gt;Node2 -->
<g id="edge22" class="edge">
<title>Node9&#45;&gt;Node2</title>
<path fill="none" stroke="#191970" d="M465.8322,-395.7931C393.0185,-385.675 248.7012,-365.621 167.1854,-354.2938"/>
<polygon fill="#191970" stroke="#191970" points="167.4679,-350.7995 157.0813,-352.8897 166.5044,-357.7328 167.4679,-350.7995"/>
</g>
<!-- Node10 -->
<g id="node11" class="node">
<title>Node10</title>
<g id="a_node11"><a xlink:href="api_2std__types_8h.html" target="_top" xlink:title="Standard C language types and definitions for ODP. ">
<polygon fill="#ffffff" stroke="#000000" points="494.5,-224.5 494.5,-243.5 596.5,-243.5 596.5,-224.5 494.5,-224.5"/>
<text text-anchor="middle" x="545.5" y="-231.5" font-family="Helvetica,sans-Serif" font-size="10.00" fill="#000000">odp/api/std_types.h</text>
</a>
</g>
</g>
<!-- Node9&#45;&gt;Node10 -->
<g id="edge11" class="edge">
<title>Node9&#45;&gt;Node10</title>
<path fill="none" stroke="#191970" d="M529.3824,-392.3676C542.47,-384.5389 558.8649,-372.1524 566.5,-356 582.5642,-322.0154 566.8755,-277.5211 555.3235,-252.7412"/>
<polygon fill="#191970" stroke="#191970" points="558.4315,-251.13 550.878,-243.7005 552.1498,-254.2188 558.4315,-251.13"/>
</g>
<!-- Node17 -->
<g id="node18" class="node">
<title>Node17</title>
<polygon fill="#ffffff" stroke="#bfbfbf" points="614,-336.5 614,-355.5 731,-355.5 731,-336.5 614,-336.5"/>
<text text-anchor="middle" x="672.5" y="-343.5" font-family="Helvetica,sans-Serif" font-size="10.00" fill="#000000">odp/api/abi/packet_io.h</text>
</g>
<!-- Node9&#45;&gt;Node17 -->
<g id="edge23" class="edge">
<title>Node9&#45;&gt;Node17</title>
<path fill="none" stroke="#191970" d="M538.3488,-392.3733C565.1703,-383.1016 605.9127,-369.0178 635.4598,-358.804"/>
<polygon fill="#191970" stroke="#191970" points="636.7069,-362.0762 645.0146,-355.5011 634.4198,-355.4603 636.7069,-362.0762"/>
</g>
<!-- Node18 -->
<g id="node19" class="node">
<title>Node18</title>
<polygon fill="#ffffff" stroke="#bfbfbf" points="749.5,-336.5 749.5,-355.5 853.5,-355.5 853.5,-336.5 749.5,-336.5"/>
<text text-anchor="middle" x="801.5" y="-343.5" font-family="Helvetica,sans-Serif" font-size="10.00" fill="#000000">odp/api/abi/packet.h</text>
</g>
<!-- Node9&#45;&gt;Node18 -->
<g id="edge24" class="edge">
<title>Node9&#45;&gt;Node18</title>
<path fill="none" stroke="#191970" d="M555.0134,-393.4338C605.0751,-383.8 686.6099,-368.1094 742.0808,-357.4346"/>
<polygon fill="#191970" stroke="#191970" points="742.9633,-360.8291 752.1217,-355.5024 741.6404,-353.9552 742.9633,-360.8291"/>
</g>
<!-- Node19 -->
<g id="node20" class="node">
<title>Node19</title>
<polygon fill="#ffffff" stroke="#bfbfbf" points="345.5,-336.5 345.5,-355.5 445.5,-355.5 445.5,-336.5 345.5,-336.5"/>
<text text-anchor="middle" x="395.5" y="-343.5" font-family="Helvetica,sans-Serif" font-size="10.00" fill="#000000">odp/api/abi/buffer.h</text>
</g>
<!-- Node9&#45;&gt;Node19 -->
<g id="edge25" class="edge">
<title>Node9&#45;&gt;Node19</title>
<path fill="none" stroke="#191970" d="M490.7308,-392.3733C472.3531,-383.4241 444.7688,-369.9917 424.0107,-359.8835"/>
<polygon fill="#191970" stroke="#191970" points="425.5343,-356.7325 415.0112,-355.5011 422.4696,-363.026 425.5343,-356.7325"/>
</g>
<!-- Node20 -->
<g id="node21" class="node">
<title>Node20</title>
<polygon fill="#ffffff" stroke="#bfbfbf" points="464,-336.5 464,-355.5 557,-355.5 557,-336.5 464,-336.5"/>
<text text-anchor="middle" x="510.5" y="-343.5" font-family="Helvetica,sans-Serif" font-size="10.00" fill="#000000">odp/api/abi/pool.h</text>
</g>
<!-- Node9&#45;&gt;Node20 -->
<g id="edge26" class="edge">
<title>Node9&#45;&gt;Node20</title>
<path fill="none" stroke="#191970" d="M510.5,-392.2455C510.5,-384.9382 510.5,-374.6944 510.5,-365.7046"/>
<polygon fill="#191970" stroke="#191970" points="514.0001,-365.6426 510.5,-355.6427 507.0001,-365.6427 514.0001,-365.6426"/>
</g>
<!-- Node21 -->
<g id="node22" class="node">
<title>Node21</title>
<g id="a_node22"><a xlink:href="api_2spec_2packet_8h.html" target="_top" xlink:title="ODP packet descriptor. ">
<polygon fill="#ffffff" stroke="#000000" points="214,-336.5 214,-355.5 327,-355.5 327,-336.5 214,-336.5"/>
<text text-anchor="middle" x="270.5" y="-343.5" font-family="Helvetica,sans-Serif" font-size="10.00" fill="#000000">odp/api/spec/packet.h</text>
</a>
</g>
</g>
<!-- Node9&#45;&gt;Node21 -->
<g id="edge27" class="edge">
<title>Node9&#45;&gt;Node21</title>
<path fill="none" stroke="#191970" d="M469.5152,-392.4369C428.5274,-382.8731 365.3996,-368.1432 321.2643,-357.845"/>
<polygon fill="#191970" stroke="#191970" points="321.8495,-354.3876 311.3157,-355.5237 320.2588,-361.2045 321.8495,-354.3876"/>
</g>
<!-- Node11 -->
<g id="node12" class="node">
<title>Node11</title>
<polygon fill="#ffffff" stroke="#bfbfbf" points="585.5,-168.5 585.5,-187.5 703.5,-187.5 703.5,-168.5 585.5,-168.5"/>
<text text-anchor="middle" x="644.5" y="-175.5" font-family="Helvetica,sans-Serif" font-size="10.00" fill="#000000">odp/api/abi/std_types.h</text>
</g>
<!-- Node10&#45;&gt;Node11 -->
<g id="edge12" class="edge">
<title>Node10&#45;&gt;Node11</title>
<path fill="none" stroke="#191970" d="M562.7445,-224.2455C578.0761,-215.5731 600.7199,-202.7645 618.2916,-192.825"/>
<polygon fill="#191970" stroke="#191970" points="620.4724,-195.6126 627.4531,-187.6427 617.0259,-189.5198 620.4724,-195.6126"/>
</g>
<!-- Node12 -->
<g id="node13" class="node">
<title>Node12</title>
<g id="a_node13"><a xlink:href="api_2spec_2std__types_8h.html" target="_top" xlink:title="Standard C language types and definitions for ODP. ">
<polygon fill="#ffffff" stroke="#000000" points="441.5,-168.5 441.5,-187.5 567.5,-187.5 567.5,-168.5 441.5,-168.5"/>
<text text-anchor="middle" x="504.5" y="-175.5" font-family="Helvetica,sans-Serif" font-size="10.00" fill="#000000">odp/api/spec/std_types.h</text>
</a>
</g>
</g>
<!-- Node10&#45;&gt;Node12 -->
<g id="edge13" class="edge">
<title>Node10&#45;&gt;Node12</title>
<path fill="none" stroke="#191970" d="M538.3583,-224.2455C532.6556,-216.4564 524.51,-205.3308 517.6375,-195.9439"/>
<polygon fill="#191970" stroke="#191970" points="520.2913,-193.6437 511.5598,-187.6427 514.6432,-197.7789 520.2913,-193.6437"/>
</g>
<!-- Node12&#45;&gt;Node5 -->
<g id="edge14" class="edge">
<title>Node12&#45;&gt;Node5</title>
<path fill="none" stroke="#191970" d="M540.8737,-168.4885C566.502,-160.8578 601.0097,-148.6626 628.5,-132 660.254,-112.753 667.172,-104.8889 690.5,-76 702.3979,-61.2659 712.8778,-42.3582 719.8018,-28.5597"/>
<polygon fill="#191970" stroke="#191970" points="722.9584,-30.0717 724.1845,-19.548 716.6633,-27.0102 722.9584,-30.0717"/>
</g>
<!-- Node12&#45;&gt;Node8 -->
<g id="edge21" class="edge">
<title>Node12&#45;&gt;Node8</title>
<path fill="none" stroke="#191970" d="M494.6878,-168.3196C485.9126,-159.3684 473.0066,-145.4552 463.5,-132 439.2202,-97.6357 416.9727,-53.577 405.2256,-28.9099"/>
<polygon fill="#191970" stroke="#191970" points="408.2773,-27.1743 400.8587,-19.6103 401.9411,-30.1497 408.2773,-27.1743"/>
</g>
<!-- Node13 -->
<g id="node14" class="node">
<title>Node13</title>
<polygon fill="#ffffff" stroke="#bfbfbf" points="472,-112.5 472,-131.5 521,-131.5 521,-112.5 472,-112.5"/>
<text text-anchor="middle" x="496.5" y="-119.5" font-family="Helvetica,sans-Serif" font-size="10.00" fill="#000000">stdint.h</text>
</g>
<!-- Node12&#45;&gt;Node13 -->
<g id="edge15" class="edge">
<title>Node12&#45;&gt;Node13</title>
<path fill="none" stroke="#191970" d="M503.1065,-168.2455C502.0626,-160.9382 500.5992,-150.6944 499.3149,-141.7046"/>
<polygon fill="#191970" stroke="#191970" points="502.7566,-141.0472 497.8775,-131.6427 495.827,-142.0372 502.7566,-141.0472"/>
</g>
<!-- Node14 -->
<g id="node15" class="node">
<title>Node14</title>
<g id="a_node15"><a xlink:href="api_2align_8h.html" target="_top" xlink:title="ODP alignments. ">
<polygon fill="#ffffff" stroke="#000000" points="539.5,-112.5 539.5,-131.5 619.5,-131.5 619.5,-112.5 539.5,-112.5"/>
<text text-anchor="middle" x="579.5" y="-119.5" font-family="Helvetica,sans-Serif" font-size="10.00" fill="#000000">odp/api/align.h</text>
</a>
</g>
</g>
<!-- Node12&#45;&gt;Node14 -->
<g id="edge16" class="edge">
<title>Node12&#45;&gt;Node14</title>
<path fill="none" stroke="#191970" d="M517.564,-168.2455C528.8562,-159.814 545.3845,-147.4729 558.5271,-137.6598"/>
<polygon fill="#191970" stroke="#191970" points="560.6669,-140.4301 566.5857,-131.6427 556.4789,-134.8211 560.6669,-140.4301"/>
</g>
<!-- Node15 -->
<g id="node16" class="node">
<title>Node15</title>
<polygon fill="#ffffff" stroke="#bfbfbf" points="464,-56.5 464,-75.5 559,-75.5 559,-56.5 464,-56.5"/>
<text text-anchor="middle" x="511.5" y="-63.5" font-family="Helvetica,sans-Serif" font-size="10.00" fill="#000000">odp/api/abi/align.h</text>
</g>
<!-- Node14&#45;&gt;Node15 -->
<g id="edge17" class="edge">
<title>Node14&#45;&gt;Node15</title>
<path fill="none" stroke="#191970" d="M567.6553,-112.2455C557.612,-103.9746 543.0005,-91.9416 531.1996,-82.2232"/>
<polygon fill="#191970" stroke="#191970" points="533.1533,-79.298 523.209,-75.6427 528.7033,-84.7015 533.1533,-79.298"/>
</g>
<!-- Node16 -->
<g id="node17" class="node">
<title>Node16</title>
<g id="a_node17"><a xlink:href="api_2spec_2align_8h.html" target="_top" xlink:title="ODP alignments. ">
<polygon fill="#ffffff" stroke="#000000" points="577.5,-56.5 577.5,-75.5 681.5,-75.5 681.5,-56.5 577.5,-56.5"/>
<text text-anchor="middle" x="629.5" y="-63.5" font-family="Helvetica,sans-Serif" font-size="10.00" fill="#000000">odp/api/spec/align.h</text>
</a>
</g>
</g>
<!-- Node14&#45;&gt;Node16 -->
<g id="edge18" class="edge">
<title>Node14&#45;&gt;Node16</title>
<path fill="none" stroke="#191970" d="M588.2093,-112.2455C595.3073,-104.2958 605.5084,-92.8706 613.995,-83.3656"/>
<polygon fill="#191970" stroke="#191970" points="616.8411,-85.4331 620.8905,-75.6427 611.6195,-80.771 616.8411,-85.4331"/>
</g>
<!-- Node16&#45;&gt;Node5 -->
<g id="edge19" class="edge">
<title>Node16&#45;&gt;Node5</title>
<path fill="none" stroke="#191970" d="M646.7445,-56.2455C662.0761,-47.5731 684.7199,-34.7645 702.2916,-24.825"/>
<polygon fill="#191970" stroke="#191970" points="704.4724,-27.6126 711.4531,-19.6427 701.0259,-21.5198 704.4724,-27.6126"/>
</g>
<!-- Node16&#45;&gt;Node8 -->
<g id="edge20" class="edge">
<title>Node16&#45;&gt;Node8</title>
<path fill="none" stroke="#191970" d="M589.7106,-56.4369C550.002,-46.8932 488.8896,-32.2052 446.0545,-21.9101"/>
<polygon fill="#191970" stroke="#191970" points="446.6663,-18.4575 436.1253,-19.5237 445.0305,-25.2637 446.6663,-18.4575"/>
</g>
<!-- Node21&#45;&gt;Node5 -->
<g id="edge28" class="edge">
<title>Node21&#45;&gt;Node5</title>
<path fill="none" stroke="#191970" d="M322.9118,-336.4465C446.8235,-313.5055 747.5,-255.6117 747.5,-234 747.5,-234 747.5,-234 747.5,-122 747.5,-89.2688 739.5148,-51.9052 733.8978,-29.6716"/>
<polygon fill="#191970" stroke="#191970" points="737.2289,-28.5763 731.3035,-19.7934 730.4585,-30.3545 737.2289,-28.5763"/>
</g>
<!-- Node21&#45;&gt;Node8 -->
<g id="edge35" class="edge">
<title>Node21&#45;&gt;Node8</title>
<path fill="none" stroke="#191970" d="M267.1063,-336.2503C260.7084,-316.9723 247.5,-272.5094 247.5,-234 247.5,-234 247.5,-234 247.5,-122 247.5,-69.35 307.6806,-38.3847 351.5488,-22.8068"/>
<polygon fill="#191970" stroke="#191970" points="352.8453,-26.0629 361.1891,-19.5337 350.5947,-19.4346 352.8453,-26.0629"/>
</g>
<!-- Node22 -->
<g id="node23" class="node">
<title>Node22</title>
<g id="a_node23"><a xlink:href="api_2time_8h.html" target="_top" xlink:title="ODP time. ">
<polygon fill="#ffffff" stroke="#000000" points="320.5,-280.5 320.5,-299.5 398.5,-299.5 398.5,-280.5 320.5,-280.5"/>
<text text-anchor="middle" x="359.5" y="-287.5" font-family="Helvetica,sans-Serif" font-size="10.00" fill="#000000">odp/api/time.h</text>
</a>
</g>
</g>
<!-- Node21&#45;&gt;Node22 -->
<g id="edge29" class="edge">
<title>Node21&#45;&gt;Node22</title>
<path fill="none" stroke="#191970" d="M286.0026,-336.2455C299.658,-327.6534 319.7657,-315.0014 335.4989,-305.1018"/>
<polygon fill="#191970" stroke="#191970" points="337.5751,-307.9307 344.175,-299.6427 333.8471,-302.006 337.5751,-307.9307"/>
</g>
<!-- Node22&#45;&gt;Node10 -->
<g id="edge30" class="edge">
<title>Node22&#45;&gt;Node10</title>
<path fill="none" stroke="#191970" d="M391.4745,-280.3733C422.6713,-270.9807 470.271,-256.6496 504.2932,-246.4064"/>
<polygon fill="#191970" stroke="#191970" points="505.3763,-249.7355 513.9427,-243.5011 503.3582,-243.0327 505.3763,-249.7355"/>
</g>
<!-- Node23 -->
<g id="node24" class="node">
<title>Node23</title>
<polygon fill="#ffffff" stroke="#bfbfbf" points="275.5,-224.5 275.5,-243.5 369.5,-243.5 369.5,-224.5 275.5,-224.5"/>
<text text-anchor="middle" x="322.5" y="-231.5" font-family="Helvetica,sans-Serif" font-size="10.00" fill="#000000">odp/api/abi/time.h</text>
</g>
<!-- Node22&#45;&gt;Node23 -->
<g id="edge31" class="edge">
<title>Node22&#45;&gt;Node23</title>
<path fill="none" stroke="#191970" d="M353.0551,-280.2455C347.9618,-272.5367 340.7092,-261.5598 334.548,-252.2348"/>
<polygon fill="#191970" stroke="#191970" points="337.3038,-250.0566 328.8711,-243.6427 331.4635,-253.9155 337.3038,-250.0566"/>
</g>
<!-- Node24 -->
<g id="node25" class="node">
<title>Node24</title>
<g id="a_node25"><a xlink:href="api_2spec_2time_8h.html" target="_top" xlink:title="ODP time. ">
<polygon fill="#ffffff" stroke="#000000" points="305.5,-56.5 305.5,-75.5 407.5,-75.5 407.5,-56.5 305.5,-56.5"/>
<text text-anchor="middle" x="356.5" y="-63.5" font-family="Helvetica,sans-Serif" font-size="10.00" fill="#000000">odp/api/spec/time.h</text>
</a>
</g>
</g>
<!-- Node22&#45;&gt;Node24 -->
<g id="edge32" class="edge">
<title>Node22&#45;&gt;Node24</title>
<path fill="none" stroke="#191970" d="M364.7318,-280.4788C369.3953,-271.4109 375.8769,-257.2215 378.5,-244 389.8236,-186.9234 372.892,-118.3253 362.9227,-85.4411"/>
<polygon fill="#191970" stroke="#191970" points="366.2048,-84.2111 359.8596,-75.7265 359.5288,-86.3161 366.2048,-84.2111"/>
</g>
<!-- Node24&#45;&gt;Node5 -->
<g id="edge33" class="edge">
<title>Node24&#45;&gt;Node5</title>
<path fill="none" stroke="#191970" d="M407.8344,-58.2722C474.9369,-48.1708 592.4394,-30.4822 665.0478,-19.5519"/>
<polygon fill="#191970" stroke="#191970" points="665.6178,-23.0057 674.9853,-18.056 664.5757,-16.0837 665.6178,-23.0057"/>
</g>
<!-- Node24&#45;&gt;Node8 -->
<g id="edge34" class="edge">
<title>Node24&#45;&gt;Node8</title>
<path fill="none" stroke="#191970" d="M363.4675,-56.2455C369.0311,-48.4564 376.978,-37.3308 383.6829,-27.9439"/>
<polygon fill="#191970" stroke="#191970" points="386.648,-29.8144 389.6124,-19.6427 380.9519,-25.7457 386.648,-29.8144"/>
</g>
</g>
</svg>
