<?xml version="1.0" encoding="UTF-8" standalone="no"?>
<!DOCTYPE svg PUBLIC "-//W3C//DTD SVG 1.1//EN"
 "http://www.w3.org/Graphics/SVG/1.1/DTD/svg11.dtd">
<!-- Generated by graphviz version 2.40.1 (20161225.0304)
 -->
<!-- Title: buffer.h Pages: 1 -->
<svg width="705pt" height="308pt"
 viewBox="0.00 0.00 704.50 308.00" xmlns="http://www.w3.org/2000/svg" xmlns:xlink="http://www.w3.org/1999/xlink">
<g id="graph0" class="graph" transform="scale(1 1) rotate(0) translate(4 304)">
<title>buffer.h</title>
<polygon fill="#ffffff" stroke="transparent" points="-4,4 -4,-304 700.5,-304 700.5,4 -4,4"/>
<!-- Node0 -->
<g id="node1" class="node">
<title>Node0</title>
<polygon fill="#bfbfbf" stroke="#000000" points="392,-280.5 392,-299.5 442,-299.5 442,-280.5 392,-280.5"/>
<text text-anchor="middle" x="417" y="-287.5" font-family="Helvetica,sans-Serif" font-size="10.00" fill="#000000">buffer.h</text>
</g>
<!-- Node1 -->
<g id="node2" class="node">
<title>Node1</title>
<g id="a_node2"><a xlink:href="api_2std__types_8h.html" target="_top" xlink:title="Standard C language types and definitions for ODP. ">
<polygon fill="#ffffff" stroke="#000000" points="148,-224.5 148,-243.5 250,-243.5 250,-224.5 148,-224.5"/>
<text text-anchor="middle" x="199" y="-231.5" font-family="Helvetica,sans-Serif" font-size="10.00" fill="#000000">odp/api/std_types.h</text>
</a>
</g>
</g>
<!-- Node0&#45;&gt;Node1 -->
<g id="edge1" class="edge">
<title>Node0&#45;&gt;Node1</title>
<path fill="none" stroke="#191970" d="M391.9926,-283.5761C356.4331,-274.4415 290.6123,-257.5334 245.8281,-246.0292"/>
<polygon fill="#191970" stroke="#191970" points="246.6065,-242.6156 236.0502,-243.5175 244.8649,-249.3955 246.6065,-242.6156"/>
</g>
<!-- Node10 -->
<g id="node11" class="node">
<title>Node10</title>
<polygon fill="#ffffff" stroke="#bfbfbf" points="367.5,-224.5 367.5,-243.5 466.5,-243.5 466.5,-224.5 367.5,-224.5"/>
<text text-anchor="middle" x="417" y="-231.5" font-family="Helvetica,sans-Serif" font-size="10.00" fill="#000000">odp/api/abi/event.h</text>
</g>
<!-- Node0&#45;&gt;Node10 -->
<g id="edge12" class="edge">
<title>Node0&#45;&gt;Node10</title>
<path fill="none" stroke="#191970" d="M417,-280.2455C417,-272.9382 417,-262.6944 417,-253.7046"/>
<polygon fill="#191970" stroke="#191970" points="420.5001,-253.6426 417,-243.6427 413.5001,-253.6427 420.5001,-253.6426"/>
</g>
<!-- Node11 -->
<g id="node12" class="node">
<title>Node11</title>
<polygon fill="#ffffff" stroke="#bfbfbf" points="485,-224.5 485,-243.5 585,-243.5 585,-224.5 485,-224.5"/>
<text text-anchor="middle" x="535" y="-231.5" font-family="Helvetica,sans-Serif" font-size="10.00" fill="#000000">odp/api/abi/buffer.h</text>
</g>
<!-- Node0&#45;&gt;Node11 -->
<g id="edge13" class="edge">
<title>Node0&#45;&gt;Node11</title>
<path fill="none" stroke="#191970" d="M437.2849,-280.3733C456.1421,-271.4241 484.446,-257.9917 505.7455,-247.8835"/>
<polygon fill="#191970" stroke="#191970" points="507.4461,-250.9506 514.9798,-243.5011 504.4449,-244.6266 507.4461,-250.9506"/>
</g>
<!-- Node12 -->
<g id="node13" class="node">
<title>Node12</title>
<polygon fill="#ffffff" stroke="#bfbfbf" points="603.5,-224.5 603.5,-243.5 696.5,-243.5 696.5,-224.5 603.5,-224.5"/>
<text text-anchor="middle" x="650" y="-231.5" font-family="Helvetica,sans-Serif" font-size="10.00" fill="#000000">odp/api/abi/pool.h</text>
</g>
<!-- Node0&#45;&gt;Node12 -->
<g id="edge14" class="edge">
<title>Node0&#45;&gt;Node12</title>
<path fill="none" stroke="#191970" d="M442.3786,-283.9004C480.1477,-274.8229 551.8876,-257.5807 600.3311,-245.9376"/>
<polygon fill="#191970" stroke="#191970" points="601.3891,-249.2831 610.2943,-243.543 599.7532,-242.4769 601.3891,-249.2831"/>
</g>
<!-- Node13 -->
<g id="node14" class="node">
<title>Node13</title>
<g id="a_node14"><a xlink:href="api_2spec_2buffer_8h.html" target="_top" xlink:title="ODP buffer descriptor. ">
<polygon fill="#ffffff" stroke="#000000" points="307,-56.5 307,-75.5 415,-75.5 415,-56.5 307,-56.5"/>
<text text-anchor="middle" x="361" y="-63.5" font-family="Helvetica,sans-Serif" font-size="10.00" fill="#000000">odp/api/spec/buffer.h</text>
</a>
</g>
</g>
<!-- Node0&#45;&gt;Node13 -->
<g id="edge15" class="edge">
<title>Node0&#45;&gt;Node13</title>
<path fill="none" stroke="#191970" d="M397.1759,-280.3695C383.6785,-272.6136 366.8843,-260.3161 359,-244 333.6306,-191.4997 346.742,-119.7009 355.3934,-85.566"/>
<polygon fill="#191970" stroke="#191970" points="358.8789,-86.0817 358.0943,-75.516 352.1188,-84.2649 358.8789,-86.0817"/>
</g>
<!-- Node2 -->
<g id="node3" class="node">
<title>Node2</title>
<polygon fill="#ffffff" stroke="#bfbfbf" points="0,-168.5 0,-187.5 118,-187.5 118,-168.5 0,-168.5"/>
<text text-anchor="middle" x="59" y="-175.5" font-family="Helvetica,sans-Serif" font-size="10.00" fill="#000000">odp/api/abi/std_types.h</text>
</g>
<!-- Node1&#45;&gt;Node2 -->
<g id="edge2" class="edge">
<title>Node1&#45;&gt;Node2</title>
<path fill="none" stroke="#191970" d="M174.9331,-224.3733C152.1572,-215.2629 117.7656,-201.5062 92.351,-191.3404"/>
<polygon fill="#191970" stroke="#191970" points="93.3375,-187.9654 82.7528,-187.5011 90.7377,-194.4648 93.3375,-187.9654"/>
</g>
<!-- Node3 -->
<g id="node4" class="node">
<title>Node3</title>
<g id="a_node4"><a xlink:href="api_2spec_2std__types_8h.html" target="_top" xlink:title="Standard C language types and definitions for ODP. ">
<polygon fill="#ffffff" stroke="#000000" points="136,-168.5 136,-187.5 262,-187.5 262,-168.5 136,-168.5"/>
<text text-anchor="middle" x="199" y="-175.5" font-family="Helvetica,sans-Serif" font-size="10.00" fill="#000000">odp/api/spec/std_types.h</text>
</a>
</g>
</g>
<!-- Node1&#45;&gt;Node3 -->
<g id="edge3" class="edge">
<title>Node1&#45;&gt;Node3</title>
<path fill="none" stroke="#191970" d="M199,-224.2455C199,-216.9382 199,-206.6944 199,-197.7046"/>
<polygon fill="#191970" stroke="#191970" points="202.5001,-197.6426 199,-187.6427 195.5001,-197.6427 202.5001,-197.6426"/>
</g>
<!-- Node4 -->
<g id="node5" class="node">
<title>Node4</title>
<g id="a_node5"><a xlink:href="visibility__begin_8h_source.html" target="_top" xlink:title="odp/visibility_begin.h">
<polygon fill="#ffffff" stroke="#000000" points="124.5,-.5 124.5,-19.5 231.5,-19.5 231.5,-.5 124.5,-.5"/>
<text text-anchor="middle" x="178" y="-7.5" font-family="Helvetica,sans-Serif" font-size="10.00" fill="#000000">odp/visibility_begin.h</text>
</a>
</g>
</g>
<!-- Node3&#45;&gt;Node4 -->
<g id="edge4" class="edge">
<title>Node3&#45;&gt;Node4</title>
<path fill="none" stroke="#191970" d="M155.7682,-168.402C111.6194,-155.8524 46.468,-128.9247 24,-76 20.5265,-67.8179 18.6897,-63.1283 24,-56 35.2089,-40.9536 77.1396,-29.0213 114.4211,-21.0836"/>
<polygon fill="#191970" stroke="#191970" points="115.1915,-24.4984 124.2791,-19.0519 113.7785,-17.6425 115.1915,-24.4984"/>
</g>
<!-- Node5 -->
<g id="node6" class="node">
<title>Node5</title>
<polygon fill="#ffffff" stroke="#bfbfbf" points="91.5,-112.5 91.5,-131.5 140.5,-131.5 140.5,-112.5 91.5,-112.5"/>
<text text-anchor="middle" x="116" y="-119.5" font-family="Helvetica,sans-Serif" font-size="10.00" fill="#000000">stdint.h</text>
</g>
<!-- Node3&#45;&gt;Node5 -->
<g id="edge5" class="edge">
<title>Node3&#45;&gt;Node5</title>
<path fill="none" stroke="#191970" d="M184.5425,-168.2455C171.9268,-159.7337 153.4056,-147.2375 138.7955,-137.3801"/>
<polygon fill="#191970" stroke="#191970" points="140.5391,-134.3343 130.2918,-131.6427 136.6239,-140.1371 140.5391,-134.3343"/>
</g>
<!-- Node6 -->
<g id="node7" class="node">
<title>Node6</title>
<g id="a_node7"><a xlink:href="api_2align_8h.html" target="_top" xlink:title="ODP alignments. ">
<polygon fill="#ffffff" stroke="#000000" points="159,-112.5 159,-131.5 239,-131.5 239,-112.5 159,-112.5"/>
<text text-anchor="middle" x="199" y="-119.5" font-family="Helvetica,sans-Serif" font-size="10.00" fill="#000000">odp/api/align.h</text>
</a>
</g>
</g>
<!-- Node3&#45;&gt;Node6 -->
<g id="edge6" class="edge">
<title>Node3&#45;&gt;Node6</title>
<path fill="none" stroke="#191970" d="M199,-168.2455C199,-160.9382 199,-150.6944 199,-141.7046"/>
<polygon fill="#191970" stroke="#191970" points="202.5001,-141.6426 199,-131.6427 195.5001,-141.6427 202.5001,-141.6426"/>
</g>
<!-- Node9 -->
<g id="node10" class="node">
<title>Node9</title>
<g id="a_node10"><a xlink:href="visibility__end_8h_source.html" target="_top" xlink:title="odp/visibility_end.h">
<polygon fill="#ffffff" stroke="#000000" points="250,-.5 250,-19.5 350,-19.5 350,-.5 250,-.5"/>
<text text-anchor="middle" x="300" y="-7.5" font-family="Helvetica,sans-Serif" font-size="10.00" fill="#000000">odp/visibility_end.h</text>
</a>
</g>
</g>
<!-- Node3&#45;&gt;Node9 -->
<g id="edge11" class="edge">
<title>Node3&#45;&gt;Node9</title>
<path fill="none" stroke="#191970" d="M212.0892,-168.2502C222.8747,-159.6734 237.9744,-146.3463 248,-132 270.9772,-99.1204 286.7636,-54.4899 294.505,-29.3303"/>
<polygon fill="#191970" stroke="#191970" points="297.9203,-30.1237 297.4104,-19.5411 291.2097,-28.1319 297.9203,-30.1237"/>
</g>
<!-- Node7 -->
<g id="node8" class="node">
<title>Node7</title>
<polygon fill="#ffffff" stroke="#bfbfbf" points="33.5,-56.5 33.5,-75.5 128.5,-75.5 128.5,-56.5 33.5,-56.5"/>
<text text-anchor="middle" x="81" y="-63.5" font-family="Helvetica,sans-Serif" font-size="10.00" fill="#000000">odp/api/abi/align.h</text>
</g>
<!-- Node6&#45;&gt;Node7 -->
<g id="edge7" class="edge">
<title>Node6&#45;&gt;Node7</title>
<path fill="none" stroke="#191970" d="M178.7151,-112.3733C159.8579,-103.4241 131.554,-89.9917 110.2545,-79.8835"/>
<polygon fill="#191970" stroke="#191970" points="111.5551,-76.6266 101.0202,-75.5011 108.5539,-82.9506 111.5551,-76.6266"/>
</g>
<!-- Node8 -->
<g id="node9" class="node">
<title>Node8</title>
<g id="a_node9"><a xlink:href="api_2spec_2align_8h.html" target="_top" xlink:title="ODP alignments. ">
<polygon fill="#ffffff" stroke="#000000" points="147,-56.5 147,-75.5 251,-75.5 251,-56.5 147,-56.5"/>
<text text-anchor="middle" x="199" y="-63.5" font-family="Helvetica,sans-Serif" font-size="10.00" fill="#000000">odp/api/spec/align.h</text>
</a>
</g>
</g>
<!-- Node6&#45;&gt;Node8 -->
<g id="edge8" class="edge">
<title>Node6&#45;&gt;Node8</title>
<path fill="none" stroke="#191970" d="M199,-112.2455C199,-104.9382 199,-94.6944 199,-85.7046"/>
<polygon fill="#191970" stroke="#191970" points="202.5001,-85.6426 199,-75.6427 195.5001,-85.6427 202.5001,-85.6426"/>
</g>
<!-- Node8&#45;&gt;Node4 -->
<g id="edge9" class="edge">
<title>Node8&#45;&gt;Node4</title>
<path fill="none" stroke="#191970" d="M195.3421,-56.2455C192.5416,-48.7776 188.591,-38.2427 185.1676,-29.1137"/>
<polygon fill="#191970" stroke="#191970" points="188.4045,-27.777 181.616,-19.6427 181.8501,-30.2349 188.4045,-27.777"/>
</g>
<!-- Node8&#45;&gt;Node9 -->
<g id="edge10" class="edge">
<title>Node8&#45;&gt;Node9</title>
<path fill="none" stroke="#191970" d="M216.5929,-56.2455C232.379,-47.4928 255.7639,-34.527 273.7587,-24.5496"/>
<polygon fill="#191970" stroke="#191970" points="275.5603,-27.5528 282.6087,-19.6427 272.1659,-21.4308 275.5603,-27.5528"/>
</g>
<!-- Node13&#45;&gt;Node4 -->
<g id="edge16" class="edge">
<title>Node13&#45;&gt;Node4</title>
<path fill="none" stroke="#191970" d="M329.5412,-56.3733C298.9793,-47.021 252.4174,-32.7725 218.9739,-22.5385"/>
<polygon fill="#191970" stroke="#191970" points="219.6348,-19.0806 209.0483,-19.5011 217.5864,-25.7742 219.6348,-19.0806"/>
</g>
<!-- Node13&#45;&gt;Node9 -->
<g id="edge17" class="edge">
<title>Node13&#45;&gt;Node9</title>
<path fill="none" stroke="#191970" d="M350.3746,-56.2455C341.4527,-48.0549 328.512,-36.1749 317.9808,-26.5069"/>
<polygon fill="#191970" stroke="#191970" points="320.2371,-23.8271 310.5036,-19.6427 315.5032,-28.9837 320.2371,-23.8271"/>
</g>
</g>
</svg>
