<?xml version="1.0" encoding="UTF-8" standalone="no"?>
<!DOCTYPE svg PUBLIC "-//W3C//DTD SVG 1.1//EN"
 "http://www.w3.org/Graphics/SVG/1.1/DTD/svg11.dtd">
<!-- Generated by graphviz version 2.40.1 (20161225.0304)
 -->
<!-- Title: align.h Pages: 1 -->
<svg width="2397pt" height="588pt"
 viewBox="0.00 0.00 2397.00 588.00" xmlns="http://www.w3.org/2000/svg" xmlns:xlink="http://www.w3.org/1999/xlink">
<g id="graph0" class="graph" transform="scale(1 1) rotate(0) translate(4 584)">
<title>align.h</title>
<polygon fill="#ffffff" stroke="transparent" points="-4,4 -4,-584 2393,-584 2393,4 -4,4"/>
<!-- Node2 -->
<g id="node1" class="node">
<title>Node2</title>
<polygon fill="#bfbfbf" stroke="#000000" points="969.5,-560.5 969.5,-579.5 1014.5,-579.5 1014.5,-560.5 969.5,-560.5"/>
<text text-anchor="middle" x="992" y="-567.5" font-family="Helvetica,sans-Serif" font-size="10.00" fill="#000000">align.h</text>
</g>
<!-- Node3 -->
<g id="node2" class="node">
<title>Node3</title>
<g id="a_node2"><a xlink:href="arch_2arm32-linux_2odp_2api_2abi_2align_8h_source.html" target="_top" xlink:title="align.h">
<polygon fill="#ffffff" stroke="#000000" points="780.5,-504.5 780.5,-523.5 825.5,-523.5 825.5,-504.5 780.5,-504.5"/>
<text text-anchor="middle" x="803" y="-511.5" font-family="Helvetica,sans-Serif" font-size="10.00" fill="#000000">align.h</text>
</a>
</g>
</g>
<!-- Node2&#45;&gt;Node3 -->
<g id="edge1" class="edge">
<title>Node2&#45;&gt;Node3</title>
<path fill="none" stroke="#191970" d="M959.7296,-560.8984C927.7408,-551.8071 877.3764,-537.3075 834,-524 831.2968,-523.1707 828.467,-522.2839 825.6632,-521.3936"/>
<polygon fill="#191970" stroke="#191970" points="958.8622,-564.2903 969.4378,-563.6517 960.7722,-557.5559 958.8622,-564.2903"/>
</g>
<!-- Node4 -->
<g id="node3" class="node">
<title>Node4</title>
<g id="a_node3"><a xlink:href="arch_2arm64-linux_2odp_2api_2abi_2align_8h_source.html" target="_top" xlink:title="align.h">
<polygon fill="#ffffff" stroke="#000000" points="843.5,-504.5 843.5,-523.5 888.5,-523.5 888.5,-504.5 843.5,-504.5"/>
<text text-anchor="middle" x="866" y="-511.5" font-family="Helvetica,sans-Serif" font-size="10.00" fill="#000000">align.h</text>
</a>
</g>
</g>
<!-- Node2&#45;&gt;Node4 -->
<g id="edge2" class="edge">
<title>Node2&#45;&gt;Node4</title>
<path fill="none" stroke="#191970" d="M961.0564,-556.2473C938.1735,-546.0771 907.5986,-532.4883 887.3775,-523.5011"/>
<polygon fill="#191970" stroke="#191970" points="959.7802,-559.5102 970.3398,-560.3733 962.6232,-553.1135 959.7802,-559.5102"/>
</g>
<!-- Node5 -->
<g id="node4" class="node">
<title>Node5</title>
<g id="a_node4"><a xlink:href="arch_2default-linux_2odp_2api_2abi_2align_8h_source.html" target="_top" xlink:title="align.h">
<polygon fill="#ffffff" stroke="#000000" points="906.5,-504.5 906.5,-523.5 951.5,-523.5 951.5,-504.5 906.5,-504.5"/>
<text text-anchor="middle" x="929" y="-511.5" font-family="Helvetica,sans-Serif" font-size="10.00" fill="#000000">align.h</text>
</a>
</g>
</g>
<!-- Node2&#45;&gt;Node5 -->
<g id="edge3" class="edge">
<title>Node2&#45;&gt;Node5</title>
<path fill="none" stroke="#191970" d="M973.2808,-553.3607C962.3818,-543.6727 949.0245,-531.7995 939.848,-523.6427"/>
<polygon fill="#191970" stroke="#191970" points="971.2268,-556.2178 981.0262,-560.2455 975.8774,-550.9859 971.2268,-556.2178"/>
</g>
<!-- Node6 -->
<g id="node5" class="node">
<title>Node6</title>
<g id="a_node5"><a xlink:href="arch_2mips64-linux_2odp_2api_2abi_2align_8h_source.html" target="_top" xlink:title="align.h">
<polygon fill="#ffffff" stroke="#000000" points="969.5,-504.5 969.5,-523.5 1014.5,-523.5 1014.5,-504.5 969.5,-504.5"/>
<text text-anchor="middle" x="992" y="-511.5" font-family="Helvetica,sans-Serif" font-size="10.00" fill="#000000">align.h</text>
</a>
</g>
</g>
<!-- Node2&#45;&gt;Node6 -->
<g id="edge4" class="edge">
<title>Node2&#45;&gt;Node6</title>
<path fill="none" stroke="#191970" d="M992,-550.1575C992,-541.155 992,-530.9199 992,-523.6427"/>
<polygon fill="#191970" stroke="#191970" points="988.5001,-550.2455 992,-560.2455 995.5001,-550.2456 988.5001,-550.2455"/>
</g>
<!-- Node7 -->
<g id="node6" class="node">
<title>Node7</title>
<g id="a_node6"><a xlink:href="arch_2power64-linux_2odp_2api_2abi_2align_8h_source.html" target="_top" xlink:title="align.h">
<polygon fill="#ffffff" stroke="#000000" points="1032.5,-504.5 1032.5,-523.5 1077.5,-523.5 1077.5,-504.5 1032.5,-504.5"/>
<text text-anchor="middle" x="1055" y="-511.5" font-family="Helvetica,sans-Serif" font-size="10.00" fill="#000000">align.h</text>
</a>
</g>
</g>
<!-- Node2&#45;&gt;Node7 -->
<g id="edge5" class="edge">
<title>Node2&#45;&gt;Node7</title>
<path fill="none" stroke="#191970" d="M1010.7192,-553.3607C1021.6182,-543.6727 1034.9755,-531.7995 1044.152,-523.6427"/>
<polygon fill="#191970" stroke="#191970" points="1008.1226,-550.9859 1002.9738,-560.2455 1012.7732,-556.2178 1008.1226,-550.9859"/>
</g>
<!-- Node8 -->
<g id="node7" class="node">
<title>Node8</title>
<g id="a_node7"><a xlink:href="arch_2x86__32-linux_2odp_2api_2abi_2align_8h_source.html" target="_top" xlink:title="align.h">
<polygon fill="#ffffff" stroke="#000000" points="1095.5,-504.5 1095.5,-523.5 1140.5,-523.5 1140.5,-504.5 1095.5,-504.5"/>
<text text-anchor="middle" x="1118" y="-511.5" font-family="Helvetica,sans-Serif" font-size="10.00" fill="#000000">align.h</text>
</a>
</g>
</g>
<!-- Node2&#45;&gt;Node8 -->
<g id="edge6" class="edge">
<title>Node2&#45;&gt;Node8</title>
<path fill="none" stroke="#191970" d="M1022.9436,-556.2473C1045.8265,-546.0771 1076.4014,-532.4883 1096.6225,-523.5011"/>
<polygon fill="#191970" stroke="#191970" points="1021.3768,-553.1135 1013.6602,-560.3733 1024.2198,-559.5102 1021.3768,-553.1135"/>
</g>
<!-- Node9 -->
<g id="node8" class="node">
<title>Node9</title>
<g id="a_node8"><a xlink:href="arch_2x86__64-linux_2odp_2api_2abi_2align_8h_source.html" target="_top" xlink:title="align.h">
<polygon fill="#ffffff" stroke="#000000" points="1158.5,-504.5 1158.5,-523.5 1203.5,-523.5 1203.5,-504.5 1158.5,-504.5"/>
<text text-anchor="middle" x="1181" y="-511.5" font-family="Helvetica,sans-Serif" font-size="10.00" fill="#000000">align.h</text>
</a>
</g>
</g>
<!-- Node2&#45;&gt;Node9 -->
<g id="edge7" class="edge">
<title>Node2&#45;&gt;Node9</title>
<path fill="none" stroke="#191970" d="M1024.3068,-560.717C1056.0832,-551.5434 1105.9503,-537.032 1149,-524 1152.0083,-523.0893 1155.1712,-522.1179 1158.2898,-521.1519"/>
<polygon fill="#191970" stroke="#191970" points="1023.296,-557.3658 1014.6571,-563.4993 1025.2353,-564.0918 1023.296,-557.3658"/>
</g>
<!-- Node10 -->
<g id="node9" class="node">
<title>Node10</title>
<g id="a_node9"><a xlink:href="api_2align_8h.html" target="_top" xlink:title="ODP alignments. ">
<polygon fill="#ffffff" stroke="#000000" points="1158.5,-448.5 1158.5,-467.5 1203.5,-467.5 1203.5,-448.5 1158.5,-448.5"/>
<text text-anchor="middle" x="1181" y="-455.5" font-family="Helvetica,sans-Serif" font-size="10.00" fill="#000000">align.h</text>
</a>
</g>
</g>
<!-- Node9&#45;&gt;Node10 -->
<g id="edge8" class="edge">
<title>Node9&#45;&gt;Node10</title>
<path fill="none" stroke="#191970" d="M1181,-494.1575C1181,-485.155 1181,-474.9199 1181,-467.6427"/>
<polygon fill="#191970" stroke="#191970" points="1177.5001,-494.2455 1181,-504.2455 1184.5001,-494.2456 1177.5001,-494.2455"/>
</g>
<!-- Node11 -->
<g id="node10" class="node">
<title>Node11</title>
<g id="a_node10"><a xlink:href="api_2abi-default_2atomic_8h.html" target="_top" xlink:title="ODP atomic operations. ">
<polygon fill="#ffffff" stroke="#000000" points="288,-280.5 288,-299.5 342,-299.5 342,-280.5 288,-280.5"/>
<text text-anchor="middle" x="315" y="-287.5" font-family="Helvetica,sans-Serif" font-size="10.00" fill="#000000">atomic.h</text>
</a>
</g>
</g>
<!-- Node10&#45;&gt;Node11 -->
<g id="edge9" class="edge">
<title>Node10&#45;&gt;Node11</title>
<path fill="none" stroke="#191970" d="M1148.2487,-451.6464C1009.2527,-424.6818 469.4727,-319.967 342.0583,-295.2492"/>
<polygon fill="#191970" stroke="#191970" points="1147.7982,-455.1242 1158.2817,-453.5928 1149.1313,-448.2523 1147.7982,-455.1242"/>
</g>
<!-- Node29 -->
<g id="node21" class="node">
<title>Node29</title>
<g id="a_node21"><a xlink:href="odp__api_8h.html" target="_top" xlink:title="The OpenDataPlane API. ">
<polygon fill="#ffffff" stroke="#000000" points="1320.5,-56.5 1320.5,-75.5 1379.5,-75.5 1379.5,-56.5 1320.5,-56.5"/>
<text text-anchor="middle" x="1350" y="-63.5" font-family="Helvetica,sans-Serif" font-size="10.00" fill="#000000">odp_api.h</text>
</a>
</g>
</g>
<!-- Node10&#45;&gt;Node29 -->
<g id="edge64" class="edge">
<title>Node10&#45;&gt;Node29</title>
<path fill="none" stroke="#191970" d="M1213.5986,-456.7328C1406.3961,-449.0294 2389,-406.7867 2389,-346 2389,-346 2389,-346 2389,-178 2389,-125.8114 1549.4178,-76.9466 1379.6976,-67.6018"/>
<polygon fill="#191970" stroke="#191970" points="1213.376,-453.2388 1203.5226,-457.1325 1213.6535,-460.2333 1213.376,-453.2388"/>
</g>
<!-- Node58 -->
<g id="node23" class="node">
<title>Node58</title>
<g id="a_node23"><a xlink:href="api_2abi-default_2cpumask_8h.html" target="_top" xlink:title="ODP CPU masks and enumeration. ">
<polygon fill="#ffffff" stroke="#000000" points="836.5,-280.5 836.5,-299.5 901.5,-299.5 901.5,-280.5 836.5,-280.5"/>
<text text-anchor="middle" x="869" y="-287.5" font-family="Helvetica,sans-Serif" font-size="10.00" fill="#000000">cpumask.h</text>
</a>
</g>
</g>
<!-- Node10&#45;&gt;Node58 -->
<g id="edge23" class="edge">
<title>Node10&#45;&gt;Node58</title>
<path fill="none" stroke="#191970" d="M1154.1492,-443.5419C1091.9089,-410.0279 939.1141,-327.7538 886.8614,-299.6177"/>
<polygon fill="#191970" stroke="#191970" points="1152.8675,-446.8268 1163.3316,-448.4862 1156.1862,-440.6635 1152.8675,-446.8268"/>
</g>
<!-- Node82 -->
<g id="node32" class="node">
<title>Node82</title>
<g id="a_node32"><a xlink:href="api_2spec_2std__types_8h.html" target="_top" xlink:title="Standard C language types and definitions for ODP. ">
<polygon fill="#ffffff" stroke="#000000" points="1444,-392.5 1444,-411.5 1512,-411.5 1512,-392.5 1444,-392.5"/>
<text text-anchor="middle" x="1478" y="-399.5" font-family="Helvetica,sans-Serif" font-size="10.00" fill="#000000">std_types.h</text>
</a>
</g>
</g>
<!-- Node10&#45;&gt;Node82 -->
<g id="edge33" class="edge">
<title>Node10&#45;&gt;Node82</title>
<path fill="none" stroke="#191970" d="M1213.679,-451.8383C1270.367,-441.1496 1386.3752,-419.2761 1443.9824,-408.4141"/>
<polygon fill="#191970" stroke="#191970" points="1212.9902,-448.4064 1203.8119,-453.6988 1214.2873,-455.2852 1212.9902,-448.4064"/>
</g>
<!-- Node12 -->
<g id="node11" class="node">
<title>Node12</title>
<g id="a_node11"><a xlink:href="arch_2arm32-linux_2odp_2api_2abi_2atomic_8h_source.html" target="_top" xlink:title="atomic.h">
<polygon fill="#ffffff" stroke="#000000" points="0,-224.5 0,-243.5 54,-243.5 54,-224.5 0,-224.5"/>
<text text-anchor="middle" x="27" y="-231.5" font-family="Helvetica,sans-Serif" font-size="10.00" fill="#000000">atomic.h</text>
</a>
</g>
</g>
<!-- Node11&#45;&gt;Node12 -->
<g id="edge10" class="edge">
<title>Node11&#45;&gt;Node12</title>
<path fill="none" stroke="#191970" d="M278.1023,-284.3373C228.8105,-276.5283 138.874,-261.4255 63,-244 60.0919,-243.3321 57.0665,-242.5814 54.0599,-241.7991"/>
<polygon fill="#191970" stroke="#191970" points="277.5617,-287.7952 287.9841,-285.8911 278.6492,-280.8802 277.5617,-287.7952"/>
</g>
<!-- Node13 -->
<g id="node12" class="node">
<title>Node13</title>
<g id="a_node12"><a xlink:href="arch_2arm64-linux_2odp_2api_2abi_2atomic_8h_source.html" target="_top" xlink:title="atomic.h">
<polygon fill="#ffffff" stroke="#000000" points="72,-224.5 72,-243.5 126,-243.5 126,-224.5 72,-224.5"/>
<text text-anchor="middle" x="99" y="-231.5" font-family="Helvetica,sans-Serif" font-size="10.00" fill="#000000">atomic.h</text>
</a>
</g>
</g>
<!-- Node11&#45;&gt;Node13 -->
<g id="edge11" class="edge">
<title>Node11&#45;&gt;Node13</title>
<path fill="none" stroke="#191970" d="M277.6488,-280.6949C241.2027,-271.5586 184.2141,-257.1222 135,-244 132.1169,-243.2313 129.1075,-242.4159 126.1104,-241.5955"/>
<polygon fill="#191970" stroke="#191970" points="277.2634,-284.2063 287.814,-283.2391 278.9631,-277.4158 277.2634,-284.2063"/>
</g>
<!-- Node14 -->
<g id="node13" class="node">
<title>Node14</title>
<g id="a_node13"><a xlink:href="arch_2default-linux_2odp_2api_2abi_2atomic_8h_source.html" target="_top" xlink:title="atomic.h">
<polygon fill="#ffffff" stroke="#000000" points="144,-224.5 144,-243.5 198,-243.5 198,-224.5 144,-224.5"/>
<text text-anchor="middle" x="171" y="-231.5" font-family="Helvetica,sans-Serif" font-size="10.00" fill="#000000">atomic.h</text>
</a>
</g>
</g>
<!-- Node11&#45;&gt;Node14 -->
<g id="edge12" class="edge">
<title>Node11&#45;&gt;Node14</title>
<path fill="none" stroke="#191970" d="M280.6818,-276.6541C254.422,-266.4419 218.8508,-252.6086 195.4315,-243.5011"/>
<polygon fill="#191970" stroke="#191970" points="279.6569,-280.0108 290.2455,-280.3733 282.194,-273.4867 279.6569,-280.0108"/>
</g>
<!-- Node15 -->
<g id="node14" class="node">
<title>Node15</title>
<g id="a_node14"><a xlink:href="arch_2mips64-linux_2odp_2api_2abi_2atomic_8h_source.html" target="_top" xlink:title="atomic.h">
<polygon fill="#ffffff" stroke="#000000" points="216,-224.5 216,-243.5 270,-243.5 270,-224.5 216,-224.5"/>
<text text-anchor="middle" x="243" y="-231.5" font-family="Helvetica,sans-Serif" font-size="10.00" fill="#000000">atomic.h</text>
</a>
</g>
</g>
<!-- Node11&#45;&gt;Node15 -->
<g id="edge13" class="edge">
<title>Node11&#45;&gt;Node15</title>
<path fill="none" stroke="#191970" d="M294.336,-273.928C281.7511,-264.1397 266.0908,-251.9595 255.3977,-243.6427"/>
<polygon fill="#191970" stroke="#191970" points="292.4162,-276.8688 302.4586,-280.2455 296.7138,-271.3434 292.4162,-276.8688"/>
</g>
<!-- Node16 -->
<g id="node15" class="node">
<title>Node16</title>
<g id="a_node15"><a xlink:href="arch_2power64-linux_2odp_2api_2abi_2atomic_8h_source.html" target="_top" xlink:title="atomic.h">
<polygon fill="#ffffff" stroke="#000000" points="288,-224.5 288,-243.5 342,-243.5 342,-224.5 288,-224.5"/>
<text text-anchor="middle" x="315" y="-231.5" font-family="Helvetica,sans-Serif" font-size="10.00" fill="#000000">atomic.h</text>
</a>
</g>
</g>
<!-- Node11&#45;&gt;Node16 -->
<g id="edge14" class="edge">
<title>Node11&#45;&gt;Node16</title>
<path fill="none" stroke="#191970" d="M315,-270.1575C315,-261.155 315,-250.9199 315,-243.6427"/>
<polygon fill="#191970" stroke="#191970" points="311.5001,-270.2455 315,-280.2455 318.5001,-270.2456 311.5001,-270.2455"/>
</g>
<!-- Node17 -->
<g id="node16" class="node">
<title>Node17</title>
<g id="a_node16"><a xlink:href="arch_2x86__32-linux_2odp_2api_2abi_2atomic_8h_source.html" target="_top" xlink:title="atomic.h">
<polygon fill="#ffffff" stroke="#000000" points="360,-224.5 360,-243.5 414,-243.5 414,-224.5 360,-224.5"/>
<text text-anchor="middle" x="387" y="-231.5" font-family="Helvetica,sans-Serif" font-size="10.00" fill="#000000">atomic.h</text>
</a>
</g>
</g>
<!-- Node11&#45;&gt;Node17 -->
<g id="edge15" class="edge">
<title>Node11&#45;&gt;Node17</title>
<path fill="none" stroke="#191970" d="M335.664,-273.928C348.2489,-264.1397 363.9092,-251.9595 374.6023,-243.6427"/>
<polygon fill="#191970" stroke="#191970" points="333.2862,-271.3434 327.5414,-280.2455 337.5838,-276.8688 333.2862,-271.3434"/>
</g>
<!-- Node18 -->
<g id="node17" class="node">
<title>Node18</title>
<g id="a_node17"><a xlink:href="arch_2x86__64-linux_2odp_2api_2abi_2atomic_8h_source.html" target="_top" xlink:title="atomic.h">
<polygon fill="#ffffff" stroke="#000000" points="432,-224.5 432,-243.5 486,-243.5 486,-224.5 432,-224.5"/>
<text text-anchor="middle" x="459" y="-231.5" font-family="Helvetica,sans-Serif" font-size="10.00" fill="#000000">atomic.h</text>
</a>
</g>
</g>
<!-- Node11&#45;&gt;Node18 -->
<g id="edge16" class="edge">
<title>Node11&#45;&gt;Node18</title>
<path fill="none" stroke="#191970" d="M349.3182,-276.6541C375.578,-266.4419 411.1492,-252.6086 434.5685,-243.5011"/>
<polygon fill="#191970" stroke="#191970" points="347.806,-273.4867 339.7545,-280.3733 350.3431,-280.0108 347.806,-273.4867"/>
</g>
<!-- Node19 -->
<g id="node18" class="node">
<title>Node19</title>
<g id="a_node18"><a xlink:href="api_2atomic_8h.html" target="_top" xlink:title="ODP atomic operations. ">
<polygon fill="#ffffff" stroke="#ff0000" points="998,-168.5 998,-187.5 1052,-187.5 1052,-168.5 998,-168.5"/>
<text text-anchor="middle" x="1025" y="-175.5" font-family="Helvetica,sans-Serif" font-size="10.00" fill="#000000">atomic.h</text>
</a>
</g>
</g>
<!-- Node18&#45;&gt;Node19 -->
<g id="edge17" class="edge">
<title>Node18&#45;&gt;Node19</title>
<path fill="none" stroke="#191970" d="M495.9619,-224.1369C693.1276,-189.3011 920.4251,-180.6596 997.7399,-178.5963"/>
<polygon fill="#191970" stroke="#191970" points="495.2278,-220.7126 486.003,-225.9237 496.464,-227.6026 495.2278,-220.7126"/>
</g>
<!-- Node20 -->
<g id="node19" class="node">
<title>Node20</title>
<g id="a_node19"><a xlink:href="api_2abi-default_2barrier_8h.html" target="_top" xlink:title="ODP barrier. ">
<polygon fill="#ffffff" stroke="#ff0000" points="1108,-112.5 1108,-131.5 1160,-131.5 1160,-112.5 1108,-112.5"/>
<text text-anchor="middle" x="1134" y="-119.5" font-family="Helvetica,sans-Serif" font-size="10.00" fill="#000000">barrier.h</text>
</a>
</g>
</g>
<!-- Node19&#45;&gt;Node20 -->
<g id="edge18" class="edge">
<title>Node19&#45;&gt;Node20</title>
<path fill="none" stroke="#191970" d="M1053.0342,-163.5971C1072.5746,-153.558 1098.1092,-140.4393 1115.2312,-131.6427"/>
<polygon fill="#191970" stroke="#191970" points="1051.2817,-160.5625 1043.9864,-168.2455 1054.4806,-166.7889 1051.2817,-160.5625"/>
</g>
<!-- Node28 -->
<g id="node20" class="node">
<title>Node28</title>
<g id="a_node20"><a xlink:href="api_2barrier_8h.html" target="_top" xlink:title="ODP execution barriers. ">
<polygon fill="#ffffff" stroke="#000000" points="1038,-112.5 1038,-131.5 1090,-131.5 1090,-112.5 1038,-112.5"/>
<text text-anchor="middle" x="1064" y="-119.5" font-family="Helvetica,sans-Serif" font-size="10.00" fill="#000000">barrier.h</text>
</a>
</g>
</g>
<!-- Node19&#45;&gt;Node28 -->
<g id="edge19" class="edge">
<title>Node19&#45;&gt;Node28</title>
<path fill="none" stroke="#191970" d="M1037.5908,-159.9209C1044.1395,-150.5176 1051.8824,-139.3997 1057.2846,-131.6427"/>
<polygon fill="#191970" stroke="#191970" points="1034.6361,-158.0392 1031.7933,-168.2455 1040.3804,-162.0397 1034.6361,-158.0392"/>
</g>
<!-- Node19&#45;&gt;Node29 -->
<g id="edge22" class="edge">
<title>Node19&#45;&gt;Node29</title>
<path fill="none" stroke="#191970" d="M1020.2441,-158.4492C1017.936,-143.7977 1017.7188,-124.2439 1029,-112 1048.6462,-90.6772 1244.5289,-73.8848 1320.2961,-68.1386"/>
<polygon fill="#191970" stroke="#191970" points="1016.861,-159.3799 1022.2608,-168.4955 1023.7241,-158.0022 1016.861,-159.3799"/>
</g>
<!-- Node28&#45;&gt;Node29 -->
<g id="edge20" class="edge">
<title>Node28&#45;&gt;Node29</title>
<path fill="none" stroke="#191970" d="M1100.1322,-111.8998C1185.354,-92.2844 1275.0634,-77.5209 1320.4404,-70.4634"/>
<polygon fill="#191970" stroke="#191970" points="1099.2472,-108.5122 1090.3017,-114.1892 1100.835,-115.3298 1099.2472,-108.5122"/>
</g>
<!-- Node30 -->
<g id="node22" class="node">
<title>Node30</title>
<g id="a_node22"><a xlink:href="odp_8h.html" target="_top" xlink:title="WARNING: THIS FILE IS DEPRECATED AND WILL BE REMOVED!!! ODP APPLICATIONS SHOULD NOW INCLUDE odp_api...">
<polygon fill="#ffffff" stroke="#000000" points="1329.5,-.5 1329.5,-19.5 1370.5,-19.5 1370.5,-.5 1329.5,-.5"/>
<text text-anchor="middle" x="1350" y="-7.5" font-family="Helvetica,sans-Serif" font-size="10.00" fill="#000000">odp.h</text>
</a>
</g>
</g>
<!-- Node29&#45;&gt;Node30 -->
<g id="edge21" class="edge">
<title>Node29&#45;&gt;Node30</title>
<path fill="none" stroke="#191970" d="M1350,-46.1575C1350,-37.155 1350,-26.9199 1350,-19.6427"/>
<polygon fill="#191970" stroke="#191970" points="1346.5001,-46.2455 1350,-56.2455 1353.5001,-46.2456 1346.5001,-46.2455"/>
</g>
<!-- Node59 -->
<g id="node24" class="node">
<title>Node59</title>
<g id="a_node24"><a xlink:href="arch_2arm32-linux_2odp_2api_2abi_2cpumask_8h_source.html" target="_top" xlink:title="cpumask.h">
<polygon fill="#ffffff" stroke="#000000" points="836.5,-224.5 836.5,-243.5 901.5,-243.5 901.5,-224.5 836.5,-224.5"/>
<text text-anchor="middle" x="869" y="-231.5" font-family="Helvetica,sans-Serif" font-size="10.00" fill="#000000">cpumask.h</text>
</a>
</g>
</g>
<!-- Node58&#45;&gt;Node59 -->
<g id="edge24" class="edge">
<title>Node58&#45;&gt;Node59</title>
<path fill="none" stroke="#191970" d="M869,-270.1575C869,-261.155 869,-250.9199 869,-243.6427"/>
<polygon fill="#191970" stroke="#191970" points="865.5001,-270.2455 869,-280.2455 872.5001,-270.2456 865.5001,-270.2455"/>
</g>
<!-- Node60 -->
<g id="node25" class="node">
<title>Node60</title>
<g id="a_node25"><a xlink:href="arch_2arm64-linux_2odp_2api_2abi_2cpumask_8h_source.html" target="_top" xlink:title="cpumask.h">
<polygon fill="#ffffff" stroke="#000000" points="919.5,-224.5 919.5,-243.5 984.5,-243.5 984.5,-224.5 919.5,-224.5"/>
<text text-anchor="middle" x="952" y="-231.5" font-family="Helvetica,sans-Serif" font-size="10.00" fill="#000000">cpumask.h</text>
</a>
</g>
</g>
<!-- Node58&#45;&gt;Node60 -->
<g id="edge25" class="edge">
<title>Node58&#45;&gt;Node60</title>
<path fill="none" stroke="#191970" d="M891.988,-274.49C906.6322,-264.6096 925.1444,-252.1194 937.7082,-243.6427"/>
<polygon fill="#191970" stroke="#191970" points="889.7896,-271.7511 883.4575,-280.2455 893.7047,-277.5539 889.7896,-271.7511"/>
</g>
<!-- Node61 -->
<g id="node26" class="node">
<title>Node61</title>
<g id="a_node26"><a xlink:href="arch_2default-linux_2odp_2api_2abi_2cpumask_8h_source.html" target="_top" xlink:title="cpumask.h">
<polygon fill="#ffffff" stroke="#000000" points="1002.5,-224.5 1002.5,-243.5 1067.5,-243.5 1067.5,-224.5 1002.5,-224.5"/>
<text text-anchor="middle" x="1035" y="-231.5" font-family="Helvetica,sans-Serif" font-size="10.00" fill="#000000">cpumask.h</text>
</a>
</g>
</g>
<!-- Node58&#45;&gt;Node61 -->
<g id="edge26" class="edge">
<title>Node58&#45;&gt;Node61</title>
<path fill="none" stroke="#191970" d="M907.3667,-277.057C937.7466,-266.8084 979.4819,-252.729 1006.836,-243.5011"/>
<polygon fill="#191970" stroke="#191970" points="905.893,-273.8603 897.5364,-280.3733 908.1306,-280.4931 905.893,-273.8603"/>
</g>
<!-- Node62 -->
<g id="node27" class="node">
<title>Node62</title>
<g id="a_node27"><a xlink:href="arch_2mips64-linux_2odp_2api_2abi_2cpumask_8h_source.html" target="_top" xlink:title="cpumask.h">
<polygon fill="#ffffff" stroke="#000000" points="587.5,-224.5 587.5,-243.5 652.5,-243.5 652.5,-224.5 587.5,-224.5"/>
<text text-anchor="middle" x="620" y="-231.5" font-family="Helvetica,sans-Serif" font-size="10.00" fill="#000000">cpumask.h</text>
</a>
</g>
</g>
<!-- Node58&#45;&gt;Node62 -->
<g id="edge27" class="edge">
<title>Node58&#45;&gt;Node62</title>
<path fill="none" stroke="#191970" d="M826.2639,-280.8309C784.172,-271.7335 718.0733,-257.2695 661,-244 658.2882,-243.3695 655.478,-242.7058 652.6585,-242.0328"/>
<polygon fill="#191970" stroke="#191970" points="825.6541,-284.2798 836.1674,-282.9681 827.1308,-277.4373 825.6541,-284.2798"/>
</g>
<!-- Node63 -->
<g id="node28" class="node">
<title>Node63</title>
<g id="a_node28"><a xlink:href="arch_2power64-linux_2odp_2api_2abi_2cpumask_8h_source.html" target="_top" xlink:title="cpumask.h">
<polygon fill="#ffffff" stroke="#000000" points="670.5,-224.5 670.5,-243.5 735.5,-243.5 735.5,-224.5 670.5,-224.5"/>
<text text-anchor="middle" x="703" y="-231.5" font-family="Helvetica,sans-Serif" font-size="10.00" fill="#000000">cpumask.h</text>
</a>
</g>
</g>
<!-- Node58&#45;&gt;Node63 -->
<g id="edge28" class="edge">
<title>Node58&#45;&gt;Node63</title>
<path fill="none" stroke="#191970" d="M830.6333,-277.057C800.2534,-266.8084 758.5181,-252.729 731.164,-243.5011"/>
<polygon fill="#191970" stroke="#191970" points="829.8694,-280.4931 840.4636,-280.3733 832.107,-273.8603 829.8694,-280.4931"/>
</g>
<!-- Node64 -->
<g id="node29" class="node">
<title>Node64</title>
<g id="a_node29"><a xlink:href="arch_2x86__32-linux_2odp_2api_2abi_2cpumask_8h_source.html" target="_top" xlink:title="cpumask.h">
<polygon fill="#ffffff" stroke="#000000" points="753.5,-224.5 753.5,-243.5 818.5,-243.5 818.5,-224.5 753.5,-224.5"/>
<text text-anchor="middle" x="786" y="-231.5" font-family="Helvetica,sans-Serif" font-size="10.00" fill="#000000">cpumask.h</text>
</a>
</g>
</g>
<!-- Node58&#45;&gt;Node64 -->
<g id="edge29" class="edge">
<title>Node58&#45;&gt;Node64</title>
<path fill="none" stroke="#191970" d="M846.012,-274.49C831.3678,-264.6096 812.8556,-252.1194 800.2918,-243.6427"/>
<polygon fill="#191970" stroke="#191970" points="844.2953,-277.5539 854.5425,-280.2455 848.2104,-271.7511 844.2953,-277.5539"/>
</g>
<!-- Node65 -->
<g id="node30" class="node">
<title>Node65</title>
<g id="a_node30"><a xlink:href="arch_2x86__64-linux_2odp_2api_2abi_2cpumask_8h_source.html" target="_top" xlink:title="cpumask.h">
<polygon fill="#ffffff" stroke="#000000" points="504.5,-224.5 504.5,-243.5 569.5,-243.5 569.5,-224.5 504.5,-224.5"/>
<text text-anchor="middle" x="537" y="-231.5" font-family="Helvetica,sans-Serif" font-size="10.00" fill="#000000">cpumask.h</text>
</a>
</g>
</g>
<!-- Node58&#45;&gt;Node65 -->
<g id="edge30" class="edge">
<title>Node58&#45;&gt;Node65</title>
<path fill="none" stroke="#191970" d="M826.0344,-284.3378C769.0826,-276.5748 665.5752,-261.5706 578,-244 575.2702,-243.4523 572.4475,-242.8469 569.6195,-242.2129"/>
<polygon fill="#191970" stroke="#191970" points="825.7332,-287.8289 836.1124,-285.702 826.6723,-280.8921 825.7332,-287.8289"/>
</g>
<!-- Node66 -->
<g id="node31" class="node">
<title>Node66</title>
<g id="a_node31"><a xlink:href="api_2cpumask_8h.html" target="_top" xlink:title="ODP CPU masks and enumeration. ">
<polygon fill="#ffffff" stroke="#ff0000" points="709.5,-168.5 709.5,-187.5 774.5,-187.5 774.5,-168.5 709.5,-168.5"/>
<text text-anchor="middle" x="742" y="-175.5" font-family="Helvetica,sans-Serif" font-size="10.00" fill="#000000">cpumask.h</text>
</a>
</g>
</g>
<!-- Node65&#45;&gt;Node66 -->
<g id="edge31" class="edge">
<title>Node65&#45;&gt;Node66</title>
<path fill="none" stroke="#191970" d="M579.8488,-222.295C618.4727,-211.744 674.4286,-196.4585 709.4835,-186.8825"/>
<polygon fill="#191970" stroke="#191970" points="578.661,-218.9911 569.9368,-225.0026 580.5057,-225.7437 578.661,-218.9911"/>
</g>
<!-- Node66&#45;&gt;Node29 -->
<g id="edge32" class="edge">
<title>Node66&#45;&gt;Node29</title>
<path fill="none" stroke="#191970" d="M784.6647,-166.3806C838.4894,-152.0417 934.0517,-127.6438 1017,-112 1128.2599,-91.0168 1262.1267,-75.4194 1320.4425,-69.0952"/>
<polygon fill="#191970" stroke="#191970" points="783.5476,-163.0563 774.7924,-169.0227 785.3574,-169.8184 783.5476,-163.0563"/>
</g>
<!-- Node83 -->
<g id="node33" class="node">
<title>Node83</title>
<g id="a_node33"><a xlink:href="api_2std__types_8h.html" target="_top" xlink:title="Standard C language types and definitions for ODP. ">
<polygon fill="#ffffff" stroke="#ff0000" points="1444,-336.5 1444,-355.5 1512,-355.5 1512,-336.5 1444,-336.5"/>
<text text-anchor="middle" x="1478" y="-343.5" font-family="Helvetica,sans-Serif" font-size="10.00" fill="#000000">std_types.h</text>
</a>
</g>
</g>
<!-- Node82&#45;&gt;Node83 -->
<g id="edge34" class="edge">
<title>Node82&#45;&gt;Node83</title>
<path fill="none" stroke="#191970" d="M1478,-382.1575C1478,-373.155 1478,-362.9199 1478,-355.6427"/>
<polygon fill="#191970" stroke="#191970" points="1474.5001,-382.2455 1478,-392.2455 1481.5001,-382.2456 1474.5001,-382.2455"/>
</g>
<!-- Node83&#45;&gt;Node11 -->
<g id="edge35" class="edge">
<title>Node83&#45;&gt;Node11</title>
<path fill="none" stroke="#191970" d="M1433.6034,-343.8622C1242.736,-334.6717 494.7082,-298.6532 342.2253,-291.3109"/>
<polygon fill="#191970" stroke="#191970" points="1433.6667,-347.3693 1443.8235,-344.3544 1434.0034,-340.3774 1433.6667,-347.3693"/>
</g>
<!-- Node83&#45;&gt;Node20 -->
<g id="edge36" class="edge">
<title>Node83&#45;&gt;Node20</title>
<path fill="none" stroke="#191970" d="M1433.5137,-344.1315C1363.546,-340.3219 1232.1238,-329.3714 1197,-300 1143.4359,-255.2084 1135.3924,-161.7277 1134.2015,-131.5877"/>
<polygon fill="#191970" stroke="#191970" points="1433.6142,-347.6413 1443.7818,-344.6633 1433.9763,-340.6507 1433.6142,-347.6413"/>
</g>
<!-- Node83&#45;&gt;Node28 -->
<g id="edge46" class="edge">
<title>Node83&#45;&gt;Node28</title>
<path fill="none" stroke="#191970" d="M1433.6679,-343.7382C1360.3015,-339.2655 1217.591,-327.2589 1176,-300 1110.9563,-257.3701 1076.6145,-162.4539 1066.9129,-131.7707"/>
<polygon fill="#191970" stroke="#191970" points="1433.7807,-347.2508 1443.9691,-344.3443 1434.1919,-340.2629 1433.7807,-347.2508"/>
</g>
<!-- Node83&#45;&gt;Node29 -->
<g id="edge63" class="edge">
<title>Node83&#45;&gt;Node29</title>
<path fill="none" stroke="#191970" d="M1521.9925,-335.9667C1543.0832,-329.0818 1567.1445,-317.8584 1583,-300 1603.3498,-277.0796 1603,-264.6506 1603,-234 1603,-234 1603,-234 1603,-178 1603,-129.6046 1446.2561,-88.0056 1379.5175,-72.4868"/>
<polygon fill="#191970" stroke="#191970" points="1520.7961,-332.672 1512.24,-338.9205 1522.8252,-339.3715 1520.7961,-332.672"/>
</g>
<!-- Node83&#45;&gt;Node58 -->
<g id="edge38" class="edge">
<title>Node83&#45;&gt;Node58</title>
<path fill="none" stroke="#191970" d="M1433.968,-341.9511C1317.6139,-331.2519 1003.9169,-302.4061 901.692,-293.0062"/>
<polygon fill="#191970" stroke="#191970" points="1433.6741,-345.4387 1443.9526,-342.8692 1434.3151,-338.4681 1433.6741,-345.4387"/>
</g>
<!-- Node84 -->
<g id="node34" class="node">
<title>Node84</title>
<g id="a_node34"><a xlink:href="api_2abi-default_2byteorder_8h.html" target="_top" xlink:title="ODP byteorder. ">
<polygon fill="#ffffff" stroke="#ff0000" points="1669.5,-280.5 1669.5,-299.5 1734.5,-299.5 1734.5,-280.5 1669.5,-280.5"/>
<text text-anchor="middle" x="1702" y="-287.5" font-family="Helvetica,sans-Serif" font-size="10.00" fill="#000000">byteorder.h</text>
</a>
</g>
</g>
<!-- Node83&#45;&gt;Node84 -->
<g id="edge37" class="edge">
<title>Node83&#45;&gt;Node84</title>
<path fill="none" stroke="#191970" d="M1521.7287,-335.0678C1565.0892,-324.2277 1630.523,-307.8692 1669.4827,-298.1293"/>
<polygon fill="#191970" stroke="#191970" points="1520.8733,-331.6739 1512.0208,-337.4948 1522.5711,-338.4649 1520.8733,-331.6739"/>
</g>
<!-- Node93 -->
<g id="node35" class="node">
<title>Node93</title>
<g id="a_node35"><a xlink:href="api_2abi-default_2init_8h.html" target="_top" xlink:title="ODP initialization. ">
<polygon fill="#ffffff" stroke="#ff0000" points="1753,-280.5 1753,-299.5 1791,-299.5 1791,-280.5 1753,-280.5"/>
<text text-anchor="middle" x="1772" y="-287.5" font-family="Helvetica,sans-Serif" font-size="10.00" fill="#000000">init.h</text>
</a>
</g>
</g>
<!-- Node83&#45;&gt;Node93 -->
<g id="edge39" class="edge">
<title>Node83&#45;&gt;Node93</title>
<path fill="none" stroke="#191970" d="M1522.5361,-340.6785C1575.7751,-333.7726 1667.3013,-320.1681 1744,-300 1746.8954,-299.2386 1749.9161,-298.309 1752.8567,-297.3263"/>
<polygon fill="#191970" stroke="#191970" points="1521.8909,-337.2324 1512.4146,-341.9703 1522.7772,-344.176 1521.8909,-337.2324"/>
</g>
<!-- Node101 -->
<g id="node36" class="node">
<title>Node101</title>
<g id="a_node36"><a xlink:href="api_2abi-default_2ipsec_8h.html" target="_top" xlink:title="ODP IPSEC API &#45; platform specific types. ">
<polygon fill="#ffffff" stroke="#ff0000" points="1809,-280.5 1809,-299.5 1857,-299.5 1857,-280.5 1809,-280.5"/>
<text text-anchor="middle" x="1833" y="-287.5" font-family="Helvetica,sans-Serif" font-size="10.00" fill="#000000">ipsec.h</text>
</a>
</g>
</g>
<!-- Node83&#45;&gt;Node101 -->
<g id="edge40" class="edge">
<title>Node83&#45;&gt;Node101</title>
<path fill="none" stroke="#191970" d="M1522.427,-341.8173C1584.8947,-335.4472 1702.0183,-321.7117 1800,-300 1802.9223,-299.3524 1805.962,-298.5764 1808.9616,-297.7467"/>
<polygon fill="#191970" stroke="#191970" points="1521.7489,-338.3677 1512.1485,-342.849 1522.4481,-345.3327 1521.7489,-338.3677"/>
</g>
<!-- Node110 -->
<g id="node37" class="node">
<title>Node110</title>
<g id="a_node37"><a xlink:href="api_2abi-default_2packet__io_8h.html" target="_top" xlink:title="ODP Packet IO. ">
<polygon fill="#ffffff" stroke="#ff0000" points="1875.5,-280.5 1875.5,-299.5 1942.5,-299.5 1942.5,-280.5 1875.5,-280.5"/>
<text text-anchor="middle" x="1909" y="-287.5" font-family="Helvetica,sans-Serif" font-size="10.00" fill="#000000">packet_io.h</text>
</a>
</g>
</g>
<!-- Node83&#45;&gt;Node110 -->
<g id="edge41" class="edge">
<title>Node83&#45;&gt;Node110</title>
<path fill="none" stroke="#191970" d="M1522.2858,-342.3545C1594.5772,-336.0446 1742.2913,-321.6497 1866,-300 1869.0199,-299.4715 1872.1459,-298.864 1875.2711,-298.2151"/>
<polygon fill="#191970" stroke="#191970" points="1521.841,-338.8798 1512.179,-343.2267 1522.4429,-345.8539 1521.841,-338.8798"/>
</g>
<!-- Node40 -->
<g id="node38" class="node">
<title>Node40</title>
<g id="a_node38"><a xlink:href="api_2abi-default_2rwlock__recursive_8h.html" target="_top" xlink:title="ODP recursive read/write lock. ">
<polygon fill="#ffffff" stroke="#ff0000" points="1961,-280.5 1961,-299.5 2059,-299.5 2059,-280.5 1961,-280.5"/>
<text text-anchor="middle" x="2010" y="-287.5" font-family="Helvetica,sans-Serif" font-size="10.00" fill="#000000">rwlock_recursive.h</text>
</a>
</g>
</g>
<!-- Node83&#45;&gt;Node40 -->
<g id="edge42" class="edge">
<title>Node83&#45;&gt;Node40</title>
<path fill="none" stroke="#191970" d="M1522.2014,-342.8085C1606.1715,-336.5024 1794.4488,-321.1973 1952,-300 1954.9368,-299.6049 1957.9525,-299.171 1960.9915,-298.7121"/>
<polygon fill="#191970" stroke="#191970" points="1521.7224,-339.3344 1512.0102,-343.568 1522.2427,-346.3151 1521.7224,-339.3344"/>
</g>
<!-- Node136 -->
<g id="node39" class="node">
<title>Node136</title>
<g id="a_node39"><a xlink:href="api_2abi-default_2schedule_8h.html" target="_top" xlink:title="ODP schedule. ">
<polygon fill="#ffffff" stroke="#ff0000" points="2077,-280.5 2077,-299.5 2141,-299.5 2141,-280.5 2077,-280.5"/>
<text text-anchor="middle" x="2109" y="-287.5" font-family="Helvetica,sans-Serif" font-size="10.00" fill="#000000">schedule.h</text>
</a>
</g>
</g>
<!-- Node83&#45;&gt;Node136 -->
<g id="edge43" class="edge">
<title>Node83&#45;&gt;Node136</title>
<path fill="none" stroke="#191970" d="M1522.3396,-344.9843C1620.9892,-342.1923 1865.8643,-332.3137 2068,-300 2070.8939,-299.5374 2073.8845,-298.9752 2076.8708,-298.3558"/>
<polygon fill="#191970" stroke="#191970" points="1522.0485,-341.4909 1512.1476,-345.2621 1522.2392,-348.4883 1522.0485,-341.4909"/>
</g>
<!-- Node144 -->
<g id="node40" class="node">
<title>Node144</title>
<g id="a_node40"><a xlink:href="api_2abi-default_2spinlock__recursive_8h.html" target="_top" xlink:title="ODP recursive spinlock. ">
<polygon fill="#ffffff" stroke="#ff0000" points="2159,-280.5 2159,-299.5 2265,-299.5 2265,-280.5 2159,-280.5"/>
<text text-anchor="middle" x="2212" y="-287.5" font-family="Helvetica,sans-Serif" font-size="10.00" fill="#000000">spinlock_recursive.h</text>
</a>
</g>
</g>
<!-- Node83&#45;&gt;Node144 -->
<g id="edge44" class="edge">
<title>Node83&#45;&gt;Node144</title>
<path fill="none" stroke="#191970" d="M1522.1724,-344.377C1629.8196,-340.1174 1914.1679,-327.0329 2150,-300 2152.9247,-299.6648 2155.9221,-299.289 2158.9443,-298.885"/>
<polygon fill="#191970" stroke="#191970" points="1521.8706,-340.8861 1512.0147,-344.7734 1522.1436,-347.8807 1521.8706,-340.8861"/>
</g>
<!-- Node153 -->
<g id="node41" class="node">
<title>Node153</title>
<g id="a_node41"><a xlink:href="api_2abi-default_2traffic__mngr_8h.html" target="_top" xlink:title="ODP traffic mngr. ">
<polygon fill="#ffffff" stroke="#ff0000" points="2283.5,-280.5 2283.5,-299.5 2360.5,-299.5 2360.5,-280.5 2283.5,-280.5"/>
<text text-anchor="middle" x="2322" y="-287.5" font-family="Helvetica,sans-Serif" font-size="10.00" fill="#000000">traffic_mngr.h</text>
</a>
</g>
</g>
<!-- Node83&#45;&gt;Node153 -->
<g id="edge45" class="edge">
<title>Node83&#45;&gt;Node153</title>
<path fill="none" stroke="#191970" d="M1522.6035,-344.2916C1667.9343,-338.5885 2126.901,-319.4648 2274,-300 2277.0379,-299.598 2280.1707,-299.1113 2283.3115,-298.5717"/>
<polygon fill="#191970" stroke="#191970" points="1522.1476,-340.8066 1512.2918,-344.6943 1522.4208,-347.8013 1522.1476,-340.8066"/>
</g>
<!-- Node161 -->
<g id="node42" class="node">
<title>Node161</title>
<g id="a_node42"><a xlink:href="api_2buffer_8h.html" target="_top" xlink:title="ODP buffer descriptor. ">
<polygon fill="#ffffff" stroke="#000000" points="1631,-168.5 1631,-187.5 1681,-187.5 1681,-168.5 1631,-168.5"/>
<text text-anchor="middle" x="1656" y="-175.5" font-family="Helvetica,sans-Serif" font-size="10.00" fill="#000000">buffer.h</text>
</a>
</g>
</g>
<!-- Node83&#45;&gt;Node161 -->
<g id="edge47" class="edge">
<title>Node83&#45;&gt;Node161</title>
<path fill="none" stroke="#191970" d="M1522.4153,-335.9512C1557.789,-327.1263 1603.5319,-313.606 1617,-300 1648.5994,-268.0771 1654.6132,-210.5729 1655.7442,-187.7338"/>
<polygon fill="#191970" stroke="#191970" points="1521.1694,-332.6525 1512.2839,-338.4229 1522.8286,-339.453 1521.1694,-332.6525"/>
</g>
<!-- Node118 -->
<g id="node43" class="node">
<title>Node118</title>
<g id="a_node43"><a xlink:href="api_2classification_8h.html" target="_top" xlink:title="ODP classification descriptor. ">
<polygon fill="#ffffff" stroke="#ff0000" points="1178,-112.5 1178,-131.5 1260,-131.5 1260,-112.5 1178,-112.5"/>
<text text-anchor="middle" x="1219" y="-119.5" font-family="Helvetica,sans-Serif" font-size="10.00" fill="#000000">classification.h</text>
</a>
</g>
</g>
<!-- Node83&#45;&gt;Node118 -->
<g id="edge49" class="edge">
<title>Node83&#45;&gt;Node118</title>
<path fill="none" stroke="#191970" d="M1433.4748,-343.8154C1367.7981,-339.672 1249.4273,-328.3912 1219,-300 1175.1517,-259.0859 1174.8075,-225.7446 1191,-168 1194.8369,-154.3169 1203.9886,-140.6657 1210.7911,-131.8323"/>
<polygon fill="#191970" stroke="#191970" points="1433.3495,-347.3141 1443.5416,-344.4206 1433.7697,-340.3267 1433.3495,-347.3141"/>
</g>
<!-- Node124 -->
<g id="node44" class="node">
<title>Node124</title>
<g id="a_node44"><a xlink:href="api_2crypto_8h.html" target="_top" xlink:title="ODP crypto. ">
<polygon fill="#ffffff" stroke="#ff0000" points="1386,-224.5 1386,-243.5 1438,-243.5 1438,-224.5 1386,-224.5"/>
<text text-anchor="middle" x="1412" y="-231.5" font-family="Helvetica,sans-Serif" font-size="10.00" fill="#000000">crypto.h</text>
</a>
</g>
</g>
<!-- Node83&#45;&gt;Node124 -->
<g id="edge51" class="edge">
<title>Node83&#45;&gt;Node124</title>
<path fill="none" stroke="#191970" d="M1433.9017,-340.4025C1387.9942,-333.5632 1320.6297,-320.3287 1305,-300 1280.4552,-268.0759 1346.8666,-247.8862 1385.8783,-239.0986"/>
<polygon fill="#191970" stroke="#191970" points="1433.521,-343.8837 1443.9178,-341.8448 1434.5188,-336.9552 1433.521,-343.8837"/>
</g>
<!-- Node120 -->
<g id="node45" class="node">
<title>Node120</title>
<g id="a_node45"><a xlink:href="api_2packet_8h.html" target="_top" xlink:title="ODP packet descriptor. ">
<polygon fill="#ffffff" stroke="#ff0000" points="1200,-168.5 1200,-187.5 1254,-187.5 1254,-168.5 1200,-168.5"/>
<text text-anchor="middle" x="1227" y="-175.5" font-family="Helvetica,sans-Serif" font-size="10.00" fill="#000000">packet.h</text>
</a>
</g>
</g>
<!-- Node83&#45;&gt;Node120 -->
<g id="edge53" class="edge">
<title>Node83&#45;&gt;Node120</title>
<path fill="none" stroke="#191970" d="M1433.502,-343.98C1370.3912,-340.1013 1259.6723,-329.2183 1234,-300 1205.7135,-267.8064 1217.7083,-210.4587 1224.0272,-187.6976"/>
<polygon fill="#191970" stroke="#191970" points="1433.3907,-347.4793 1443.5767,-344.5646 1433.7962,-340.4911 1433.3907,-347.4793"/>
</g>
<!-- Node130 -->
<g id="node46" class="node">
<title>Node130</title>
<g id="a_node46"><a xlink:href="api_2packet__io_8h.html" target="_top" xlink:title="ODP Packet IO. ">
<polygon fill="#ffffff" stroke="#ff0000" points="1316.5,-112.5 1316.5,-131.5 1383.5,-131.5 1383.5,-112.5 1316.5,-112.5"/>
<text text-anchor="middle" x="1350" y="-119.5" font-family="Helvetica,sans-Serif" font-size="10.00" fill="#000000">packet_io.h</text>
</a>
</g>
</g>
<!-- Node83&#45;&gt;Node130 -->
<g id="edge55" class="edge">
<title>Node83&#45;&gt;Node130</title>
<path fill="none" stroke="#191970" d="M1433.5643,-340.9984C1385.2749,-334.5405 1312.7427,-321.5008 1296,-300 1254.1356,-246.2381 1317.9662,-160.1774 1341.7002,-131.5829"/>
<polygon fill="#191970" stroke="#191970" points="1433.4053,-344.5068 1443.7708,-342.3144 1434.3005,-337.5643 1433.4053,-344.5068"/>
</g>
<!-- Node128 -->
<g id="node47" class="node">
<title>Node128</title>
<g id="a_node47"><a xlink:href="api_2queue_8h.html" target="_top" xlink:title="ODP queue. ">
<polygon fill="#ffffff" stroke="#ff0000" points="1523.5,-280.5 1523.5,-299.5 1574.5,-299.5 1574.5,-280.5 1523.5,-280.5"/>
<text text-anchor="middle" x="1549" y="-287.5" font-family="Helvetica,sans-Serif" font-size="10.00" fill="#000000">queue.h</text>
</a>
</g>
</g>
<!-- Node83&#45;&gt;Node128 -->
<g id="edge57" class="edge">
<title>Node83&#45;&gt;Node128</title>
<path fill="none" stroke="#191970" d="M1498.377,-329.928C1510.7871,-320.1397 1526.23,-307.9595 1536.7745,-299.6427"/>
<polygon fill="#191970" stroke="#191970" points="1496.0514,-327.3046 1490.3673,-336.2455 1500.3864,-332.8007 1496.0514,-327.3046"/>
</g>
<!-- Node162 -->
<g id="node48" class="node">
<title>Node162</title>
<g id="a_node48"><a xlink:href="spec_2chksum_8h.html" target="_top" xlink:title="ODP checksum functions. ">
<polygon fill="#ffffff" stroke="#ff0000" points="1314.5,-280.5 1314.5,-299.5 1373.5,-299.5 1373.5,-280.5 1314.5,-280.5"/>
<text text-anchor="middle" x="1344" y="-287.5" font-family="Helvetica,sans-Serif" font-size="10.00" fill="#000000">chksum.h</text>
</a>
</g>
</g>
<!-- Node83&#45;&gt;Node162 -->
<g id="edge60" class="edge">
<title>Node83&#45;&gt;Node162</title>
<path fill="none" stroke="#191970" d="M1445.4172,-332.3833C1421.0464,-322.1985 1388.3358,-308.5284 1366.7348,-299.5011"/>
<polygon fill="#191970" stroke="#191970" points="1444.3883,-335.7466 1454.9646,-336.3733 1447.0875,-329.2879 1444.3883,-335.7466"/>
</g>
<!-- Node164 -->
<g id="node49" class="node">
<title>Node164</title>
<g id="a_node49"><a xlink:href="api_2spec_2cpu_8h.html" target="_top" xlink:title="ODP CPU API. ">
<polygon fill="#ffffff" stroke="#ff0000" points="1391.5,-280.5 1391.5,-299.5 1432.5,-299.5 1432.5,-280.5 1391.5,-280.5"/>
<text text-anchor="middle" x="1412" y="-287.5" font-family="Helvetica,sans-Serif" font-size="10.00" fill="#000000">cpu.h</text>
</a>
</g>
</g>
<!-- Node83&#45;&gt;Node164 -->
<g id="edge61" class="edge">
<title>Node83&#45;&gt;Node164</title>
<path fill="none" stroke="#191970" d="M1458.7245,-329.645C1447.2462,-319.9058 1433.0723,-307.8795 1423.3646,-299.6427"/>
<polygon fill="#191970" stroke="#191970" points="1456.6141,-332.4445 1466.5037,-336.2455 1461.143,-327.1069 1456.6141,-332.4445"/>
</g>
<!-- Node166 -->
<g id="node50" class="node">
<title>Node166</title>
<g id="a_node50"><a xlink:href="spec_2feature_8h.html" target="_top" xlink:title="ODP features. ">
<polygon fill="#ffffff" stroke="#ff0000" points="1450.5,-280.5 1450.5,-299.5 1505.5,-299.5 1505.5,-280.5 1450.5,-280.5"/>
<text text-anchor="middle" x="1478" y="-287.5" font-family="Helvetica,sans-Serif" font-size="10.00" fill="#000000">feature.h</text>
</a>
</g>
</g>
<!-- Node83&#45;&gt;Node166 -->
<g id="edge62" class="edge">
<title>Node83&#45;&gt;Node166</title>
<path fill="none" stroke="#191970" d="M1478,-326.1575C1478,-317.155 1478,-306.9199 1478,-299.6427"/>
<polygon fill="#191970" stroke="#191970" points="1474.5001,-326.2455 1478,-336.2455 1481.5001,-326.2456 1474.5001,-326.2455"/>
</g>
<!-- Node161&#45;&gt;Node29 -->
<g id="edge48" class="edge">
<title>Node161&#45;&gt;Node29</title>
<path fill="none" stroke="#191970" d="M1649.6754,-158.6049C1643.698,-143.4619 1633.2006,-123.1752 1617,-112 1578.8619,-85.6923 1441.3091,-72.6336 1379.9316,-68.0117"/>
<polygon fill="#191970" stroke="#191970" points="1646.4138,-159.8779 1653.106,-168.0917 1652.9966,-157.4974 1646.4138,-159.8779"/>
</g>
<!-- Node118&#45;&gt;Node29 -->
<g id="edge50" class="edge">
<title>Node118&#45;&gt;Node29</title>
<path fill="none" stroke="#191970" d="M1250.8534,-108.3833C1274.6785,-98.1985 1306.6568,-84.5284 1327.7742,-75.5011"/>
<polygon fill="#191970" stroke="#191970" points="1249.339,-105.2242 1241.5197,-112.3733 1252.0906,-111.6608 1249.339,-105.2242"/>
</g>
<!-- Node124&#45;&gt;Node29 -->
<g id="edge52" class="edge">
<title>Node124&#45;&gt;Node29</title>
<path fill="none" stroke="#191970" d="M1412.1584,-214.1936C1411.616,-189.1642 1408.1519,-145.332 1392,-112 1384.9263,-97.4023 1371.7226,-84.1184 1362.001,-75.6205"/>
<polygon fill="#191970" stroke="#191970" points="1408.659,-214.2929 1412.2371,-224.2652 1415.6588,-214.2382 1408.659,-214.2929"/>
</g>
<!-- Node120&#45;&gt;Node29 -->
<g id="edge54" class="edge">
<title>Node120&#45;&gt;Node29</title>
<path fill="none" stroke="#191970" d="M1245.1606,-161.4635C1271.2758,-137.6838 1318.5931,-94.5982 1339.5396,-75.5249"/>
<polygon fill="#191970" stroke="#191970" points="1242.5244,-159.1303 1237.4869,-168.4509 1247.2374,-164.3061 1242.5244,-159.1303"/>
</g>
<!-- Node130&#45;&gt;Node29 -->
<g id="edge56" class="edge">
<title>Node130&#45;&gt;Node29</title>
<path fill="none" stroke="#191970" d="M1350,-102.1575C1350,-93.155 1350,-82.9199 1350,-75.6427"/>
<polygon fill="#191970" stroke="#191970" points="1346.5001,-102.2455 1350,-112.2455 1353.5001,-102.2456 1346.5001,-102.2455"/>
</g>
<!-- Node128&#45;&gt;Node29 -->
<g id="edge59" class="edge">
<title>Node128&#45;&gt;Node29</title>
<path fill="none" stroke="#191970" d="M1537.2901,-272.0994C1514.8964,-238.5862 1463.455,-164.9813 1410,-112 1395.8298,-97.9554 1377.3343,-84.3719 1364.6455,-75.6533"/>
<polygon fill="#191970" stroke="#191970" points="1534.3734,-274.034 1542.8135,-280.4382 1540.2093,-270.1684 1534.3734,-274.034"/>
</g>
<!-- Node128&#45;&gt;Node124 -->
<g id="edge58" class="edge">
<title>Node128&#45;&gt;Node124</title>
<path fill="none" stroke="#191970" d="M1516.0194,-276.5189C1491.0689,-266.3201 1457.4266,-252.5685 1435.2438,-243.5011"/>
<polygon fill="#191970" stroke="#191970" points="1514.868,-279.8293 1525.4489,-280.3733 1517.5166,-273.3497 1514.868,-279.8293"/>
</g>
</g>
</svg>
