<?xml version="1.0" encoding="UTF-8" standalone="no"?>
<!DOCTYPE svg PUBLIC "-//W3C//DTD SVG 1.1//EN"
 "http://www.w3.org/Graphics/SVG/1.1/DTD/svg11.dtd">
<!-- Generated by graphviz version 2.40.1 (20161225.0304)
 -->
<!-- Title: init.h Pages: 1 -->
<svg width="393pt" height="364pt"
 viewBox="0.00 0.00 392.50 364.00" xmlns="http://www.w3.org/2000/svg" xmlns:xlink="http://www.w3.org/1999/xlink">
<g id="graph0" class="graph" transform="scale(1 1) rotate(0) translate(4 360)">
<title>init.h</title>
<polygon fill="#ffffff" stroke="transparent" points="-4,4 -4,-360 388.5,-360 388.5,4 -4,4"/>
<!-- Node10 -->
<g id="node1" class="node">
<title>Node10</title>
<polygon fill="#bfbfbf" stroke="#000000" points="168,-336.5 168,-355.5 206,-355.5 206,-336.5 168,-336.5"/>
<text text-anchor="middle" x="187" y="-343.5" font-family="Helvetica,sans-Serif" font-size="10.00" fill="#000000">init.h</text>
</g>
<!-- Node11 -->
<g id="node2" class="node">
<title>Node11</title>
<g id="a_node2"><a xlink:href="arch_2arm32-linux_2odp_2api_2abi_2init_8h_source.html" target="_top" xlink:title="init.h">
<polygon fill="#ffffff" stroke="#000000" points="0,-280.5 0,-299.5 38,-299.5 38,-280.5 0,-280.5"/>
<text text-anchor="middle" x="19" y="-287.5" font-family="Helvetica,sans-Serif" font-size="10.00" fill="#000000">init.h</text>
</a>
</g>
</g>
<!-- Node10&#45;&gt;Node11 -->
<g id="edge1" class="edge">
<title>Node10&#45;&gt;Node11</title>
<path fill="none" stroke="#191970" d="M158.2553,-336.7926C129.9035,-327.6553 85.3669,-313.152 47,-300 44.1679,-299.0292 41.1819,-297.985 38.257,-296.9504"/>
<polygon fill="#191970" stroke="#191970" points="157.3356,-340.1734 167.927,-339.9038 159.4792,-333.5096 157.3356,-340.1734"/>
</g>
<!-- Node12 -->
<g id="node3" class="node">
<title>Node12</title>
<g id="a_node3"><a xlink:href="arch_2arm64-linux_2odp_2api_2abi_2init_8h_source.html" target="_top" xlink:title="init.h">
<polygon fill="#ffffff" stroke="#000000" points="56,-280.5 56,-299.5 94,-299.5 94,-280.5 56,-280.5"/>
<text text-anchor="middle" x="75" y="-287.5" font-family="Helvetica,sans-Serif" font-size="10.00" fill="#000000">init.h</text>
</a>
</g>
</g>
<!-- Node10&#45;&gt;Node12 -->
<g id="edge2" class="edge">
<title>Node10&#45;&gt;Node12</title>
<path fill="none" stroke="#191970" d="M158.6737,-331.8368C138.4279,-321.7139 111.7358,-308.3679 94.0022,-299.5011"/>
<polygon fill="#191970" stroke="#191970" points="157.237,-335.0316 167.7465,-336.3733 160.3675,-328.7706 157.237,-335.0316"/>
</g>
<!-- Node13 -->
<g id="node4" class="node">
<title>Node13</title>
<g id="a_node4"><a xlink:href="arch_2default-linux_2odp_2api_2abi_2init_8h_source.html" target="_top" xlink:title="init.h">
<polygon fill="#ffffff" stroke="#000000" points="112,-280.5 112,-299.5 150,-299.5 150,-280.5 112,-280.5"/>
<text text-anchor="middle" x="131" y="-287.5" font-family="Helvetica,sans-Serif" font-size="10.00" fill="#000000">init.h</text>
</a>
</g>
</g>
<!-- Node10&#45;&gt;Node13 -->
<g id="edge3" class="edge">
<title>Node10&#45;&gt;Node13</title>
<path fill="none" stroke="#191970" d="M170.0751,-329.0751C160.4402,-319.4402 148.7196,-307.7196 140.6427,-299.6427"/>
<polygon fill="#191970" stroke="#191970" points="167.6996,-331.6493 177.2455,-336.2455 172.6493,-326.6996 167.6996,-331.6493"/>
</g>
<!-- Node14 -->
<g id="node5" class="node">
<title>Node14</title>
<g id="a_node5"><a xlink:href="arch_2mips64-linux_2odp_2api_2abi_2init_8h_source.html" target="_top" xlink:title="init.h">
<polygon fill="#ffffff" stroke="#000000" points="168,-280.5 168,-299.5 206,-299.5 206,-280.5 168,-280.5"/>
<text text-anchor="middle" x="187" y="-287.5" font-family="Helvetica,sans-Serif" font-size="10.00" fill="#000000">init.h</text>
</a>
</g>
</g>
<!-- Node10&#45;&gt;Node14 -->
<g id="edge4" class="edge">
<title>Node10&#45;&gt;Node14</title>
<path fill="none" stroke="#191970" d="M187,-326.1575C187,-317.155 187,-306.9199 187,-299.6427"/>
<polygon fill="#191970" stroke="#191970" points="183.5001,-326.2455 187,-336.2455 190.5001,-326.2456 183.5001,-326.2455"/>
</g>
<!-- Node15 -->
<g id="node6" class="node">
<title>Node15</title>
<g id="a_node6"><a xlink:href="arch_2power64-linux_2odp_2api_2abi_2init_8h_source.html" target="_top" xlink:title="init.h">
<polygon fill="#ffffff" stroke="#000000" points="224,-280.5 224,-299.5 262,-299.5 262,-280.5 224,-280.5"/>
<text text-anchor="middle" x="243" y="-287.5" font-family="Helvetica,sans-Serif" font-size="10.00" fill="#000000">init.h</text>
</a>
</g>
</g>
<!-- Node10&#45;&gt;Node15 -->
<g id="edge5" class="edge">
<title>Node10&#45;&gt;Node15</title>
<path fill="none" stroke="#191970" d="M203.9249,-329.0751C213.5598,-319.4402 225.2804,-307.7196 233.3573,-299.6427"/>
<polygon fill="#191970" stroke="#191970" points="201.3507,-326.6996 196.7545,-336.2455 206.3004,-331.6493 201.3507,-326.6996"/>
</g>
<!-- Node16 -->
<g id="node7" class="node">
<title>Node16</title>
<g id="a_node7"><a xlink:href="arch_2x86__32-linux_2odp_2api_2abi_2init_8h_source.html" target="_top" xlink:title="init.h">
<polygon fill="#ffffff" stroke="#000000" points="280,-280.5 280,-299.5 318,-299.5 318,-280.5 280,-280.5"/>
<text text-anchor="middle" x="299" y="-287.5" font-family="Helvetica,sans-Serif" font-size="10.00" fill="#000000">init.h</text>
</a>
</g>
</g>
<!-- Node10&#45;&gt;Node16 -->
<g id="edge6" class="edge">
<title>Node10&#45;&gt;Node16</title>
<path fill="none" stroke="#191970" d="M215.3263,-331.8368C235.5721,-321.7139 262.2642,-308.3679 279.9978,-299.5011"/>
<polygon fill="#191970" stroke="#191970" points="213.6325,-328.7706 206.2535,-336.3733 216.763,-335.0316 213.6325,-328.7706"/>
</g>
<!-- Node17 -->
<g id="node8" class="node">
<title>Node17</title>
<g id="a_node8"><a xlink:href="arch_2x86__64-linux_2odp_2api_2abi_2init_8h_source.html" target="_top" xlink:title="init.h">
<polygon fill="#ffffff" stroke="#000000" points="336,-280.5 336,-299.5 374,-299.5 374,-280.5 336,-280.5"/>
<text text-anchor="middle" x="355" y="-287.5" font-family="Helvetica,sans-Serif" font-size="10.00" fill="#000000">init.h</text>
</a>
</g>
</g>
<!-- Node10&#45;&gt;Node17 -->
<g id="edge7" class="edge">
<title>Node10&#45;&gt;Node17</title>
<path fill="none" stroke="#191970" d="M215.7447,-336.7926C244.0965,-327.6553 288.6331,-313.152 327,-300 329.8321,-299.0292 332.8181,-297.985 335.743,-296.9504"/>
<polygon fill="#191970" stroke="#191970" points="214.5208,-333.5096 206.073,-339.9038 216.6644,-340.1734 214.5208,-333.5096"/>
</g>
<!-- Node18 -->
<g id="node9" class="node">
<title>Node18</title>
<g id="a_node9"><a xlink:href="api_2init_8h.html" target="_top" xlink:title="ODP initialization. ">
<polygon fill="#ffffff" stroke="#000000" points="336,-224.5 336,-243.5 374,-243.5 374,-224.5 336,-224.5"/>
<text text-anchor="middle" x="355" y="-231.5" font-family="Helvetica,sans-Serif" font-size="10.00" fill="#000000">init.h</text>
</a>
</g>
</g>
<!-- Node17&#45;&gt;Node18 -->
<g id="edge8" class="edge">
<title>Node17&#45;&gt;Node18</title>
<path fill="none" stroke="#191970" d="M355,-270.1575C355,-261.155 355,-250.9199 355,-243.6427"/>
<polygon fill="#191970" stroke="#191970" points="351.5001,-270.2455 355,-280.2455 358.5001,-270.2456 351.5001,-270.2455"/>
</g>
<!-- Node19 -->
<g id="node10" class="node">
<title>Node19</title>
<g id="a_node10"><a xlink:href="api_2spec_2shared__memory_8h.html" target="_top" xlink:title="ODP shared memory. ">
<polygon fill="#ffffff" stroke="#000000" points="269.5,-168.5 269.5,-187.5 364.5,-187.5 364.5,-168.5 269.5,-168.5"/>
<text text-anchor="middle" x="317" y="-175.5" font-family="Helvetica,sans-Serif" font-size="10.00" fill="#000000">shared_memory.h</text>
</a>
</g>
</g>
<!-- Node18&#45;&gt;Node19 -->
<g id="edge9" class="edge">
<title>Node18&#45;&gt;Node19</title>
<path fill="none" stroke="#191970" d="M342.7321,-215.9209C336.3512,-206.5176 328.8069,-195.3997 323.5432,-187.6427"/>
<polygon fill="#191970" stroke="#191970" points="339.8697,-217.936 348.3809,-224.2455 345.662,-214.0055 339.8697,-217.936"/>
</g>
<!-- Node21 -->
<g id="node12" class="node">
<title>Node21</title>
<g id="a_node12"><a xlink:href="odp__api_8h.html" target="_top" xlink:title="The OpenDataPlane API. ">
<polygon fill="#ffffff" stroke="#000000" points="325.5,-56.5 325.5,-75.5 384.5,-75.5 384.5,-56.5 325.5,-56.5"/>
<text text-anchor="middle" x="355" y="-63.5" font-family="Helvetica,sans-Serif" font-size="10.00" fill="#000000">odp_api.h</text>
</a>
</g>
</g>
<!-- Node18&#45;&gt;Node21 -->
<g id="edge13" class="edge">
<title>Node18&#45;&gt;Node21</title>
<path fill="none" stroke="#191970" d="M364.5946,-215.4785C368.3201,-207.2885 372.1352,-197.3997 374,-188 380.5732,-154.868 380.5732,-145.132 374,-112 371.3769,-98.7785 364.8953,-84.5891 360.2318,-75.5212"/>
<polygon fill="#191970" stroke="#191970" points="361.4443,-213.9536 360.2318,-224.4788 367.7433,-217.007 361.4443,-213.9536"/>
</g>
<!-- Node20 -->
<g id="node11" class="node">
<title>Node20</title>
<g id="a_node11"><a xlink:href="api_2shared__memory_8h.html" target="_top" xlink:title="ODP shared memory. ">
<polygon fill="#ffffff" stroke="#000000" points="269.5,-112.5 269.5,-131.5 364.5,-131.5 364.5,-112.5 269.5,-112.5"/>
<text text-anchor="middle" x="317" y="-119.5" font-family="Helvetica,sans-Serif" font-size="10.00" fill="#000000">shared_memory.h</text>
</a>
</g>
</g>
<!-- Node19&#45;&gt;Node20 -->
<g id="edge10" class="edge">
<title>Node19&#45;&gt;Node20</title>
<path fill="none" stroke="#191970" d="M317,-158.1575C317,-149.155 317,-138.9199 317,-131.6427"/>
<polygon fill="#191970" stroke="#191970" points="313.5001,-158.2455 317,-168.2455 320.5001,-158.2456 313.5001,-158.2455"/>
</g>
<!-- Node20&#45;&gt;Node21 -->
<g id="edge11" class="edge">
<title>Node20&#45;&gt;Node21</title>
<path fill="none" stroke="#191970" d="M329.2679,-103.9209C335.6488,-94.5176 343.1931,-83.3997 348.4568,-75.6427"/>
<polygon fill="#191970" stroke="#191970" points="326.338,-102.0055 323.6191,-112.2455 332.1303,-105.936 326.338,-102.0055"/>
</g>
<!-- Node22 -->
<g id="node13" class="node">
<title>Node22</title>
<g id="a_node13"><a xlink:href="odp_8h.html" target="_top" xlink:title="WARNING: THIS FILE IS DEPRECATED AND WILL BE REMOVED!!! ODP APPLICATIONS SHOULD NOW INCLUDE odp_api...">
<polygon fill="#ffffff" stroke="#000000" points="334.5,-.5 334.5,-19.5 375.5,-19.5 375.5,-.5 334.5,-.5"/>
<text text-anchor="middle" x="355" y="-7.5" font-family="Helvetica,sans-Serif" font-size="10.00" fill="#000000">odp.h</text>
</a>
</g>
</g>
<!-- Node21&#45;&gt;Node22 -->
<g id="edge12" class="edge">
<title>Node21&#45;&gt;Node22</title>
<path fill="none" stroke="#191970" d="M355,-46.1575C355,-37.155 355,-26.9199 355,-19.6427"/>
<polygon fill="#191970" stroke="#191970" points="351.5001,-46.2455 355,-56.2455 358.5001,-46.2456 351.5001,-46.2455"/>
</g>
</g>
</svg>
