<?xml version="1.0" encoding="UTF-8" standalone="no"?>
<!DOCTYPE svg PUBLIC "-//W3C//DTD SVG 1.1//EN"
 "http://www.w3.org/Graphics/SVG/1.1/DTD/svg11.dtd">
<!-- Generated by graphviz version 2.40.1 (20161225.0304)
 -->
<!-- Title: crypto.h Pages: 1 -->
<svg width="1506pt" height="722pt"
 viewBox="0.00 0.00 1506.20 722.00" xmlns="http://www.w3.org/2000/svg" xmlns:xlink="http://www.w3.org/1999/xlink">
<g id="graph0" class="graph" transform="scale(1 1) rotate(0) translate(4 718)">
<title>crypto.h</title>
<polygon fill="#ffffff" stroke="transparent" points="-4,4 -4,-718 1502.2009,-718 1502.2009,4 -4,4"/>
<!-- Node0 -->
<g id="node1" class="node">
<title>Node0</title>
<polygon fill="#bfbfbf" stroke="#000000" points="1233.2009,-694.5 1233.2009,-713.5 1285.2009,-713.5 1285.2009,-694.5 1233.2009,-694.5"/>
<text text-anchor="middle" x="1259.2009" y="-701.5" font-family="Helvetica,sans-Serif" font-size="10.00" fill="#000000">crypto.h</text>
</g>
<!-- Node1 -->
<g id="node2" class="node">
<title>Node1</title>
<g id="a_node2"><a xlink:href="api_2std__types_8h.html" target="_top" xlink:title="Standard C language types and definitions for ODP. ">
<polygon fill="#ffffff" stroke="#000000" points="205.2009,-235.5 205.2009,-254.5 307.2009,-254.5 307.2009,-235.5 205.2009,-235.5"/>
<text text-anchor="middle" x="256.2009" y="-242.5" font-family="Helvetica,sans-Serif" font-size="10.00" fill="#000000">odp/api/std_types.h</text>
</a>
</g>
</g>
<!-- Node0&#45;&gt;Node1 -->
<g id="edge1" class="edge">
<title>Node0&#45;&gt;Node1</title>
<path fill="none" stroke="#191970" d="M1232.9424,-702.7052C1067.398,-694.3741 175.2009,-646.926 175.2009,-592 175.2009,-592 175.2009,-592 175.2009,-368 175.2009,-323.6644 212.3626,-282.9584 236.344,-261.3057"/>
<polygon fill="#191970" stroke="#191970" points="238.6639,-263.9265 243.8988,-254.7153 234.0623,-258.6515 238.6639,-263.9265"/>
</g>
<!-- Node10 -->
<g id="node11" class="node">
<title>Node10</title>
<polygon fill="#ffffff" stroke="#bfbfbf" points="1123.2009,-358.5 1123.2009,-377.5 1227.2009,-377.5 1227.2009,-358.5 1123.2009,-358.5"/>
<text text-anchor="middle" x="1175.2009" y="-365.5" font-family="Helvetica,sans-Serif" font-size="10.00" fill="#000000">odp/api/abi/packet.h</text>
</g>
<!-- Node0&#45;&gt;Node10 -->
<g id="edge12" class="edge">
<title>Node0&#45;&gt;Node10</title>
<path fill="none" stroke="#191970" d="M1256.7775,-694.3065C1245.2568,-648.2235 1195.9291,-450.9127 1180.1064,-387.6219"/>
<polygon fill="#191970" stroke="#191970" points="1183.455,-386.5853 1177.6341,-377.7328 1176.664,-388.2831 1183.455,-386.5853"/>
</g>
<!-- Node11 -->
<g id="node12" class="node">
<title>Node11</title>
<polygon fill="#ffffff" stroke="#bfbfbf" points="1396.2009,-638.5 1396.2009,-657.5 1498.2009,-657.5 1498.2009,-638.5 1396.2009,-638.5"/>
<text text-anchor="middle" x="1447.2009" y="-645.5" font-family="Helvetica,sans-Serif" font-size="10.00" fill="#000000">odp/api/abi/crypto.h</text>
</g>
<!-- Node0&#45;&gt;Node11 -->
<g id="edge13" class="edge">
<title>Node0&#45;&gt;Node11</title>
<path fill="none" stroke="#191970" d="M1285.3415,-696.2134C1316.3283,-686.9833 1368.381,-671.4783 1405.0768,-660.5476"/>
<polygon fill="#191970" stroke="#191970" points="1406.4048,-663.8041 1414.9894,-657.5949 1404.4064,-657.0954 1406.4048,-663.8041"/>
</g>
<!-- Node12 -->
<g id="node13" class="node">
<title>Node12</title>
<polygon fill="#ffffff" stroke="#bfbfbf" points="1357.2009,-358.5 1357.2009,-377.5 1457.2009,-377.5 1457.2009,-358.5 1357.2009,-358.5"/>
<text text-anchor="middle" x="1407.2009" y="-365.5" font-family="Helvetica,sans-Serif" font-size="10.00" fill="#000000">odp/api/abi/buffer.h</text>
</g>
<!-- Node0&#45;&gt;Node12 -->
<g id="edge14" class="edge">
<title>Node0&#45;&gt;Node12</title>
<path fill="none" stroke="#191970" d="M1279.9595,-694.3851C1311.5849,-678.1375 1368.2009,-642.06 1368.2009,-592 1368.2009,-592 1368.2009,-592 1368.2009,-480 1368.2009,-445.5398 1384.8705,-408.2666 1396.4133,-386.5877"/>
<polygon fill="#191970" stroke="#191970" points="1399.5015,-388.2355 1401.2777,-377.7906 1393.3757,-384.8481 1399.5015,-388.2355"/>
</g>
<!-- Node13 -->
<g id="node14" class="node">
<title>Node13</title>
<polygon fill="#ffffff" stroke="#bfbfbf" points="1245.7009,-358.5 1245.7009,-377.5 1338.7009,-377.5 1338.7009,-358.5 1245.7009,-358.5"/>
<text text-anchor="middle" x="1292.2009" y="-365.5" font-family="Helvetica,sans-Serif" font-size="10.00" fill="#000000">odp/api/abi/pool.h</text>
</g>
<!-- Node0&#45;&gt;Node13 -->
<g id="edge15" class="edge">
<title>Node0&#45;&gt;Node13</title>
<path fill="none" stroke="#191970" d="M1262.8709,-694.291C1266.1764,-685.0902 1270.864,-670.8111 1273.2009,-658 1291.5197,-557.5771 1292.7507,-434.7546 1292.4614,-387.6601"/>
<polygon fill="#191970" stroke="#191970" points="1295.9609,-387.5772 1292.3676,-377.6104 1288.9612,-387.6427 1295.9609,-387.5772"/>
</g>
<!-- Node14 -->
<g id="node15" class="node">
<title>Node14</title>
<g id="a_node15"><a xlink:href="api_2queue_8h.html" target="_top" xlink:title="ODP queue. ">
<polygon fill="#ffffff" stroke="#000000" points="1061.2009,-638.5 1061.2009,-657.5 1147.2009,-657.5 1147.2009,-638.5 1061.2009,-638.5"/>
<text text-anchor="middle" x="1104.2009" y="-645.5" font-family="Helvetica,sans-Serif" font-size="10.00" fill="#000000">odp/api/queue.h</text>
</a>
</g>
</g>
<!-- Node0&#45;&gt;Node14 -->
<g id="edge16" class="edge">
<title>Node0&#45;&gt;Node14</title>
<path fill="none" stroke="#191970" d="M1232.9073,-694.5004C1207.4108,-685.2887 1168.5307,-671.2417 1140.1751,-660.9971"/>
<polygon fill="#191970" stroke="#191970" points="1141.2178,-657.6525 1130.6235,-657.5462 1138.8392,-664.236 1141.2178,-657.6525"/>
</g>
<!-- Node34 -->
<g id="node35" class="node">
<title>Node34</title>
<g id="a_node35"><a xlink:href="api_2spec_2crypto_8h.html" target="_top" xlink:title="ODP crypto. ">
<polygon fill="#ffffff" stroke="#000000" points="375.2009,-470.5 375.2009,-489.5 485.2009,-489.5 485.2009,-470.5 375.2009,-470.5"/>
<text text-anchor="middle" x="430.2009" y="-477.5" font-family="Helvetica,sans-Serif" font-size="10.00" fill="#000000">odp/api/spec/crypto.h</text>
</a>
</g>
</g>
<!-- Node0&#45;&gt;Node34 -->
<g id="edge62" class="edge">
<title>Node0&#45;&gt;Node34</title>
<path fill="none" stroke="#191970" d="M1233.0069,-698.4196C1193.6728,-689.9854 1117.0439,-673.3435 1052.2009,-658 952.7586,-634.4695 927.6493,-629.3933 829.2009,-602 696.5049,-565.0773 540.8038,-515.6968 469.4813,-492.7353"/>
<polygon fill="#191970" stroke="#191970" points="470.1749,-489.2816 459.5833,-489.5439 468.0267,-495.9438 470.1749,-489.2816"/>
</g>
<!-- Node2 -->
<g id="node3" class="node">
<title>Node2</title>
<polygon fill="#ffffff" stroke="#bfbfbf" points="27.2009,-174 27.2009,-193 145.2009,-193 145.2009,-174 27.2009,-174"/>
<text text-anchor="middle" x="86.2009" y="-181" font-family="Helvetica,sans-Serif" font-size="10.00" fill="#000000">odp/api/abi/std_types.h</text>
</g>
<!-- Node1&#45;&gt;Node2 -->
<g id="edge2" class="edge">
<title>Node1&#45;&gt;Node2</title>
<path fill="none" stroke="#191970" d="M229.6384,-235.3906C200.6953,-224.92 154.2315,-208.1111 122.0653,-196.4745"/>
<polygon fill="#191970" stroke="#191970" points="123.1712,-193.1526 112.5769,-193.0419 120.7898,-199.7351 123.1712,-193.1526"/>
</g>
<!-- Node3 -->
<g id="node4" class="node">
<title>Node3</title>
<g id="a_node4"><a xlink:href="api_2spec_2std__types_8h.html" target="_top" xlink:title="Standard C language types and definitions for ODP. ">
<polygon fill="#ffffff" stroke="#000000" points="239.2009,-174 239.2009,-193 365.2009,-193 365.2009,-174 239.2009,-174"/>
<text text-anchor="middle" x="302.2009" y="-181" font-family="Helvetica,sans-Serif" font-size="10.00" fill="#000000">odp/api/spec/std_types.h</text>
</a>
</g>
</g>
<!-- Node1&#45;&gt;Node3 -->
<g id="edge3" class="edge">
<title>Node1&#45;&gt;Node3</title>
<path fill="none" stroke="#191970" d="M263.3884,-235.3906C270.1675,-226.3273 280.4987,-212.5149 288.7983,-201.4188"/>
<polygon fill="#191970" stroke="#191970" points="291.7252,-203.349 294.9121,-193.2449 286.1197,-199.1563 291.7252,-203.349"/>
</g>
<!-- Node4 -->
<g id="node5" class="node">
<title>Node4</title>
<g id="a_node5"><a xlink:href="visibility__begin_8h_source.html" target="_top" xlink:title="odp/visibility_begin.h">
<polygon fill="#ffffff" stroke="#000000" points="253.7009,-.5 253.7009,-19.5 360.7009,-19.5 360.7009,-.5 253.7009,-.5"/>
<text text-anchor="middle" x="307.2009" y="-7.5" font-family="Helvetica,sans-Serif" font-size="10.00" fill="#000000">odp/visibility_begin.h</text>
</a>
</g>
</g>
<!-- Node3&#45;&gt;Node4 -->
<g id="edge4" class="edge">
<title>Node3&#45;&gt;Node4</title>
<path fill="none" stroke="#191970" d="M267.048,-173.9519C205.5892,-155.5378 89.0594,-111.9471 132.2009,-56 145.9488,-38.1714 199.1626,-25.8868 243.3383,-18.5271"/>
<polygon fill="#191970" stroke="#191970" points="244.1569,-21.9405 253.4741,-16.8966 243.0451,-15.0293 244.1569,-21.9405"/>
</g>
<!-- Node5 -->
<g id="node6" class="node">
<title>Node5</title>
<polygon fill="#ffffff" stroke="#bfbfbf" points="196.7009,-112.5 196.7009,-131.5 245.7009,-131.5 245.7009,-112.5 196.7009,-112.5"/>
<text text-anchor="middle" x="221.2009" y="-119.5" font-family="Helvetica,sans-Serif" font-size="10.00" fill="#000000">stdint.h</text>
</g>
<!-- Node3&#45;&gt;Node5 -->
<g id="edge5" class="edge">
<title>Node3&#45;&gt;Node5</title>
<path fill="none" stroke="#191970" d="M289.5447,-173.8906C276.8241,-164.2324 257.0005,-149.1812 241.9725,-137.771"/>
<polygon fill="#191970" stroke="#191970" points="243.8493,-134.8015 233.7683,-131.5419 239.6163,-140.3766 243.8493,-134.8015"/>
</g>
<!-- Node6 -->
<g id="node7" class="node">
<title>Node6</title>
<g id="a_node7"><a xlink:href="api_2align_8h.html" target="_top" xlink:title="ODP alignments. ">
<polygon fill="#ffffff" stroke="#000000" points="264.2009,-112.5 264.2009,-131.5 344.2009,-131.5 344.2009,-112.5 264.2009,-112.5"/>
<text text-anchor="middle" x="304.2009" y="-119.5" font-family="Helvetica,sans-Serif" font-size="10.00" fill="#000000">odp/api/align.h</text>
</a>
</g>
</g>
<!-- Node3&#45;&gt;Node6 -->
<g id="edge6" class="edge">
<title>Node3&#45;&gt;Node6</title>
<path fill="none" stroke="#191970" d="M302.5134,-173.8906C302.7906,-165.3657 303.2045,-152.6392 303.553,-141.9235"/>
<polygon fill="#191970" stroke="#191970" points="307.057,-141.8534 303.884,-131.7449 300.0607,-141.6258 307.057,-141.8534"/>
</g>
<!-- Node9 -->
<g id="node10" class="node">
<title>Node9</title>
<g id="a_node10"><a xlink:href="visibility__end_8h_source.html" target="_top" xlink:title="odp/visibility_end.h">
<polygon fill="#ffffff" stroke="#000000" points="799.2009,-.5 799.2009,-19.5 899.2009,-19.5 899.2009,-.5 799.2009,-.5"/>
<text text-anchor="middle" x="849.2009" y="-7.5" font-family="Helvetica,sans-Serif" font-size="10.00" fill="#000000">odp/visibility_end.h</text>
</a>
</g>
</g>
<!-- Node3&#45;&gt;Node9 -->
<g id="edge11" class="edge">
<title>Node3&#45;&gt;Node9</title>
<path fill="none" stroke="#191970" d="M318.7431,-173.7659C344.7239,-158.8047 397.0078,-130.0043 444.2009,-112 501.8177,-90.019 520.7844,-98.4992 578.2009,-76 595.9706,-69.0368 598.2063,-62.3593 616.2009,-56 673.0639,-35.9048 741.0114,-23.756 788.8141,-17.0332"/>
<polygon fill="#191970" stroke="#191970" points="789.5657,-20.4631 798.999,-15.64 788.6169,-13.5277 789.5657,-20.4631"/>
</g>
<!-- Node7 -->
<g id="node8" class="node">
<title>Node7</title>
<polygon fill="#ffffff" stroke="#bfbfbf" points="141.7009,-56.5 141.7009,-75.5 236.7009,-75.5 236.7009,-56.5 141.7009,-56.5"/>
<text text-anchor="middle" x="189.2009" y="-63.5" font-family="Helvetica,sans-Serif" font-size="10.00" fill="#000000">odp/api/abi/align.h</text>
</g>
<!-- Node6&#45;&gt;Node7 -->
<g id="edge7" class="edge">
<title>Node6&#45;&gt;Node7</title>
<path fill="none" stroke="#191970" d="M284.4317,-112.3733C266.054,-103.4241 238.4697,-89.9917 217.7117,-79.8835"/>
<polygon fill="#191970" stroke="#191970" points="219.2352,-76.7325 208.7122,-75.5011 216.1705,-83.026 219.2352,-76.7325"/>
</g>
<!-- Node8 -->
<g id="node9" class="node">
<title>Node8</title>
<g id="a_node9"><a xlink:href="api_2spec_2align_8h.html" target="_top" xlink:title="ODP alignments. ">
<polygon fill="#ffffff" stroke="#000000" points="255.2009,-56.5 255.2009,-75.5 359.2009,-75.5 359.2009,-56.5 255.2009,-56.5"/>
<text text-anchor="middle" x="307.2009" y="-63.5" font-family="Helvetica,sans-Serif" font-size="10.00" fill="#000000">odp/api/spec/align.h</text>
</a>
</g>
</g>
<!-- Node6&#45;&gt;Node8 -->
<g id="edge8" class="edge">
<title>Node6&#45;&gt;Node8</title>
<path fill="none" stroke="#191970" d="M304.7235,-112.2455C305.1149,-104.9382 305.6637,-94.6944 306.1453,-85.7046"/>
<polygon fill="#191970" stroke="#191970" points="309.6443,-85.8156 306.6843,-75.6427 302.6543,-85.4411 309.6443,-85.8156"/>
</g>
<!-- Node8&#45;&gt;Node4 -->
<g id="edge9" class="edge">
<title>Node8&#45;&gt;Node4</title>
<path fill="none" stroke="#191970" d="M307.2009,-56.2455C307.2009,-48.9382 307.2009,-38.6944 307.2009,-29.7046"/>
<polygon fill="#191970" stroke="#191970" points="310.701,-29.6426 307.2009,-19.6427 303.701,-29.6427 310.701,-29.6426"/>
</g>
<!-- Node8&#45;&gt;Node9 -->
<g id="edge10" class="edge">
<title>Node8&#45;&gt;Node9</title>
<path fill="none" stroke="#191970" d="M359.6626,-60.5796C460.8068,-50.1293 682.2106,-27.2536 789.1005,-16.2096"/>
<polygon fill="#191970" stroke="#191970" points="789.492,-19.6879 799.0793,-15.1786 788.7725,-12.725 789.492,-19.6879"/>
</g>
<!-- Node14&#45;&gt;Node1 -->
<g id="edge17" class="edge">
<title>Node14&#45;&gt;Node1</title>
<path fill="none" stroke="#191970" d="M1061.0223,-642.6179C887.6223,-620.969 251.2009,-541.1606 251.2009,-536 251.2009,-536 251.2009,-536 251.2009,-368 251.2009,-331.4692 253.43,-288.8859 254.9115,-264.6186"/>
<polygon fill="#191970" stroke="#191970" points="258.4091,-264.7647 255.5473,-254.5638 251.4231,-264.3229 258.4091,-264.7647"/>
</g>
<!-- Node14&#45;&gt;Node12 -->
<g id="edge20" class="edge">
<title>Node14&#45;&gt;Node12</title>
<path fill="none" stroke="#191970" d="M1125.3292,-638.3578C1142.3942,-630.0339 1166.5529,-617.0037 1185.2009,-602 1272.7381,-531.5695 1274.0664,-492.7507 1354.2009,-414 1364.656,-403.7255 1376.9901,-392.9483 1387.1279,-384.4102"/>
<polygon fill="#191970" stroke="#191970" points="1389.5917,-386.9132 1395.0376,-377.8251 1385.1129,-381.5336 1389.5917,-386.9132"/>
</g>
<!-- Node14&#45;&gt;Node13 -->
<g id="edge21" class="edge">
<title>Node14&#45;&gt;Node13</title>
<path fill="none" stroke="#191970" d="M1120.2138,-638.3916C1133.2357,-629.9958 1151.4731,-616.849 1164.2009,-602 1224.2081,-531.992 1268.3072,-429.3176 1284.9401,-387.1512"/>
<polygon fill="#191970" stroke="#191970" points="1288.2174,-388.3803 1288.57,-377.7913 1281.691,-385.8492 1288.2174,-388.3803"/>
</g>
<!-- Node15 -->
<g id="node16" class="node">
<title>Node15</title>
<polygon fill="#ffffff" stroke="#bfbfbf" points="967.7009,-358.5 967.7009,-377.5 1066.7009,-377.5 1066.7009,-358.5 967.7009,-358.5"/>
<text text-anchor="middle" x="1017.2009" y="-365.5" font-family="Helvetica,sans-Serif" font-size="10.00" fill="#000000">odp/api/abi/event.h</text>
</g>
<!-- Node14&#45;&gt;Node15 -->
<g id="edge18" class="edge">
<title>Node14&#45;&gt;Node15</title>
<path fill="none" stroke="#191970" d="M1086.8255,-638.4802C1073.6116,-630.3988 1055.9303,-617.6358 1045.2009,-602 1027.8587,-576.7274 1025.2009,-566.6506 1025.2009,-536 1025.2009,-536 1025.2009,-536 1025.2009,-480 1025.2009,-447.6293 1021.8349,-410.1294 1019.4697,-387.7743"/>
<polygon fill="#191970" stroke="#191970" points="1022.9199,-387.1291 1018.3471,-377.5719 1015.9619,-387.8948 1022.9199,-387.1291"/>
</g>
<!-- Node16 -->
<g id="node17" class="node">
<title>Node16</title>
<polygon fill="#ffffff" stroke="#bfbfbf" points="1053.7009,-582.5 1053.7009,-601.5 1154.7009,-601.5 1154.7009,-582.5 1053.7009,-582.5"/>
<text text-anchor="middle" x="1104.2009" y="-589.5" font-family="Helvetica,sans-Serif" font-size="10.00" fill="#000000">odp/api/abi/queue.h</text>
</g>
<!-- Node14&#45;&gt;Node16 -->
<g id="edge19" class="edge">
<title>Node14&#45;&gt;Node16</title>
<path fill="none" stroke="#191970" d="M1104.2009,-638.2455C1104.2009,-630.9382 1104.2009,-620.6944 1104.2009,-611.7046"/>
<polygon fill="#191970" stroke="#191970" points="1107.701,-611.6426 1104.2009,-601.6427 1100.701,-611.6427 1107.701,-611.6426"/>
</g>
<!-- Node17 -->
<g id="node18" class="node">
<title>Node17</title>
<g id="a_node18"><a xlink:href="api_2spec_2queue_8h.html" target="_top" xlink:title="ODP queue. ">
<polygon fill="#ffffff" stroke="#000000" points="838.2009,-582.5 838.2009,-601.5 948.2009,-601.5 948.2009,-582.5 838.2009,-582.5"/>
<text text-anchor="middle" x="893.2009" y="-589.5" font-family="Helvetica,sans-Serif" font-size="10.00" fill="#000000">odp/api/spec/queue.h</text>
</a>
</g>
</g>
<!-- Node14&#45;&gt;Node17 -->
<g id="edge22" class="edge">
<title>Node14&#45;&gt;Node17</title>
<path fill="none" stroke="#191970" d="M1067.9287,-638.3733C1032.2351,-628.9001 977.613,-614.4032 938.9558,-604.1435"/>
<polygon fill="#191970" stroke="#191970" points="939.563,-600.6835 928.9998,-601.5011 937.7673,-607.4493 939.563,-600.6835"/>
</g>
<!-- Node17&#45;&gt;Node4 -->
<g id="edge23" class="edge">
<title>Node17&#45;&gt;Node4</title>
<path fill="none" stroke="#191970" d="M838.1557,-589.3692C694.6321,-579.5817 304.9793,-533.8282 86.2009,-322 15.621,-253.6623 -24.4198,-200.9903 17.2009,-112 30.9667,-82.5669 36.1627,-72.4213 64.2009,-56 93.9449,-38.5796 181.9678,-24.916 243.4648,-17.1495"/>
<polygon fill="#191970" stroke="#191970" points="243.9812,-20.6123 253.4741,-15.9076 243.1192,-13.6656 243.9812,-20.6123"/>
</g>
<!-- Node17&#45;&gt;Node9 -->
<g id="edge61" class="edge">
<title>Node17&#45;&gt;Node9</title>
<path fill="none" stroke="#191970" d="M907.0852,-582.4217C952.7227,-549.6885 1095.2009,-437.0433 1095.2009,-306.5 1095.2009,-306.5 1095.2009,-306.5 1095.2009,-122 1095.2009,-87.6999 1083.0608,-76.008 1055.2009,-56 1032.1801,-39.4672 961.766,-26.1189 909.6385,-18.143"/>
<polygon fill="#191970" stroke="#191970" points="909.8846,-14.6409 899.4763,-16.6201 908.8471,-21.5636 909.8846,-14.6409"/>
</g>
<!-- Node18 -->
<g id="node19" class="node">
<title>Node18</title>
<g id="a_node19"><a xlink:href="api_2event_8h.html" target="_top" xlink:title="ODP event. ">
<polygon fill="#ffffff" stroke="#000000" points="851.7009,-526.5 851.7009,-545.5 934.7009,-545.5 934.7009,-526.5 851.7009,-526.5"/>
<text text-anchor="middle" x="893.2009" y="-533.5" font-family="Helvetica,sans-Serif" font-size="10.00" fill="#000000">odp/api/event.h</text>
</a>
</g>
</g>
<!-- Node17&#45;&gt;Node18 -->
<g id="edge24" class="edge">
<title>Node17&#45;&gt;Node18</title>
<path fill="none" stroke="#191970" d="M893.2009,-582.2455C893.2009,-574.9382 893.2009,-564.6944 893.2009,-555.7046"/>
<polygon fill="#191970" stroke="#191970" points="896.701,-555.6426 893.2009,-545.6427 889.701,-555.6427 896.701,-555.6426"/>
</g>
<!-- Node26 -->
<g id="node27" class="node">
<title>Node26</title>
<g id="a_node27"><a xlink:href="queue__types_8h.html" target="_top" xlink:title="ODP queue types. ">
<polygon fill="#ffffff" stroke="#000000" points="715.7009,-291.5 715.7009,-321.5 816.7009,-321.5 816.7009,-291.5 715.7009,-291.5"/>
<text text-anchor="start" x="723.7009" y="-309.5" font-family="Helvetica,sans-Serif" font-size="10.00" fill="#000000">odp/api/spec/queue</text>
<text text-anchor="middle" x="766.2009" y="-298.5" font-family="Helvetica,sans-Serif" font-size="10.00" fill="#000000">_types.h</text>
</a>
</g>
</g>
<!-- Node17&#45;&gt;Node26 -->
<g id="edge45" class="edge">
<title>Node17&#45;&gt;Node26</title>
<path fill="none" stroke="#191970" d="M866.8864,-582.4947C829.6874,-567.1657 766.2009,-533.2099 766.2009,-480 766.2009,-480 766.2009,-480 766.2009,-424 766.2009,-392.3014 766.2009,-355.7926 766.2009,-331.9922"/>
<polygon fill="#191970" stroke="#191970" points="769.701,-331.7101 766.2009,-321.7101 762.701,-331.7102 769.701,-331.7101"/>
</g>
<!-- Node18&#45;&gt;Node15 -->
<g id="edge25" class="edge">
<title>Node18&#45;&gt;Node15</title>
<path fill="none" stroke="#191970" d="M902.1132,-526.3999C910.4458,-517.2761 923.0868,-503.049 933.2009,-490 960.7379,-454.4723 989.8325,-410.5829 1005.5195,-386.3141"/>
<polygon fill="#191970" stroke="#191970" points="1008.56,-388.0568 1011.0227,-377.7522 1002.6714,-384.2719 1008.56,-388.0568"/>
</g>
<!-- Node19 -->
<g id="node20" class="node">
<title>Node19</title>
<g id="a_node20"><a xlink:href="api_2spec_2event_8h.html" target="_top" xlink:title="ODP event. ">
<polygon fill="#ffffff" stroke="#000000" points="816.7009,-470.5 816.7009,-489.5 923.7009,-489.5 923.7009,-470.5 816.7009,-470.5"/>
<text text-anchor="middle" x="870.2009" y="-477.5" font-family="Helvetica,sans-Serif" font-size="10.00" fill="#000000">odp/api/spec/event.h</text>
</a>
</g>
</g>
<!-- Node18&#45;&gt;Node19 -->
<g id="edge26" class="edge">
<title>Node18&#45;&gt;Node19</title>
<path fill="none" stroke="#191970" d="M889.1946,-526.2455C886.1274,-518.7776 881.8006,-508.2427 878.0512,-499.1137"/>
<polygon fill="#191970" stroke="#191970" points="881.1981,-497.5631 874.1613,-489.6427 874.723,-500.2226 881.1981,-497.5631"/>
</g>
<!-- Node19&#45;&gt;Node4 -->
<g id="edge27" class="edge">
<title>Node19&#45;&gt;Node4</title>
<path fill="none" stroke="#191970" d="M816.3709,-477.5581C699.1453,-470.7716 431.2009,-446.6566 431.2009,-368 431.2009,-368 431.2009,-368 431.2009,-245 431.2009,-156.4562 419.8793,-127.8981 368.2009,-56 359.2559,-43.5551 345.9586,-32.9732 334.0602,-25.1078"/>
<polygon fill="#191970" stroke="#191970" points="335.6616,-21.9809 325.3294,-19.6367 331.9446,-27.9125 335.6616,-21.9809"/>
</g>
<!-- Node19&#45;&gt;Node9 -->
<g id="edge44" class="edge">
<title>Node19&#45;&gt;Node9</title>
<path fill="none" stroke="#191970" d="M860.6841,-470.3442C839.9623,-448.1608 794.8861,-392.796 824.2009,-358 884.9308,-285.9151 962.3141,-384.1241 1033.2009,-322 1060.1593,-298.3741 1057.2009,-280.846 1057.2009,-245 1057.2009,-245 1057.2009,-245 1057.2009,-122 1057.2009,-90.7875 1056.3867,-76.896 1033.2009,-56 1015.0277,-39.6215 955.9571,-26.7583 909.5904,-18.8478"/>
<polygon fill="#191970" stroke="#191970" points="910.0492,-15.3761 899.6103,-17.187 908.9001,-22.2811 910.0492,-15.3761"/>
</g>
<!-- Node20 -->
<g id="node21" class="node">
<title>Node20</title>
<g id="a_node21"><a xlink:href="api_2packet_8h.html" target="_top" xlink:title="ODP packet descriptor. ">
<polygon fill="#ffffff" stroke="#000000" points="846.7009,-414.5 846.7009,-433.5 935.7009,-433.5 935.7009,-414.5 846.7009,-414.5"/>
<text text-anchor="middle" x="891.2009" y="-421.5" font-family="Helvetica,sans-Serif" font-size="10.00" fill="#000000">odp/api/packet.h</text>
</a>
</g>
</g>
<!-- Node19&#45;&gt;Node20 -->
<g id="edge28" class="edge">
<title>Node19&#45;&gt;Node20</title>
<path fill="none" stroke="#191970" d="M873.8588,-470.2455C876.6593,-462.7776 880.6099,-452.2427 884.0333,-443.1137"/>
<polygon fill="#191970" stroke="#191970" points="887.3508,-444.2349 887.5849,-433.6427 880.7965,-441.777 887.3508,-444.2349"/>
</g>
<!-- Node20&#45;&gt;Node1 -->
<g id="edge29" class="edge">
<title>Node20&#45;&gt;Node1</title>
<path fill="none" stroke="#191970" d="M846.6693,-421.477C783.1765,-417.0387 663.4406,-405.5397 565.2009,-378 456.1423,-347.4274 334.9919,-286.8508 282.6544,-259.273"/>
<polygon fill="#191970" stroke="#191970" points="284.1751,-256.1177 273.7011,-254.5223 280.8941,-262.3012 284.1751,-256.1177"/>
</g>
<!-- Node20&#45;&gt;Node10 -->
<g id="edge32" class="edge">
<title>Node20&#45;&gt;Node10</title>
<path fill="none" stroke="#191970" d="M935.8883,-415.1884C984.756,-405.5525 1063.25,-390.0748 1116.9223,-379.4916"/>
<polygon fill="#191970" stroke="#191970" points="1117.8419,-382.8777 1126.9758,-377.5092 1116.4876,-376.01 1117.8419,-382.8777"/>
</g>
<!-- Node20&#45;&gt;Node12 -->
<g id="edge33" class="edge">
<title>Node20&#45;&gt;Node12</title>
<path fill="none" stroke="#191970" d="M935.7551,-420.5219C1015.8732,-414.0487 1189.7786,-399.0023 1346.7128,-378.1253"/>
<polygon fill="#191970" stroke="#191970" points="1347.5784,-381.5406 1357.0241,-376.7417 1346.6474,-374.6028 1347.5784,-381.5406"/>
</g>
<!-- Node20&#45;&gt;Node13 -->
<g id="edge34" class="edge">
<title>Node20&#45;&gt;Node13</title>
<path fill="none" stroke="#191970" d="M935.9513,-418.6738C999.9629,-410.9142 1121.5931,-395.6479 1235.5344,-378.0476"/>
<polygon fill="#191970" stroke="#191970" points="1236.1318,-381.4969 1245.4758,-376.5029 1235.057,-374.5799 1236.1318,-381.4969"/>
</g>
<!-- Node20&#45;&gt;Node15 -->
<g id="edge30" class="edge">
<title>Node20&#45;&gt;Node15</title>
<path fill="none" stroke="#191970" d="M912.8611,-414.3733C933.1781,-405.3435 963.7649,-391.7494 986.5759,-381.6111"/>
<polygon fill="#191970" stroke="#191970" points="988.1068,-384.7609 995.8234,-377.5011 985.2638,-378.3642 988.1068,-384.7609"/>
</g>
<!-- Node21 -->
<g id="node22" class="node">
<title>Node21</title>
<polygon fill="#ffffff" stroke="#bfbfbf" points="832.7009,-358.5 832.7009,-377.5 949.7009,-377.5 949.7009,-358.5 832.7009,-358.5"/>
<text text-anchor="middle" x="891.2009" y="-365.5" font-family="Helvetica,sans-Serif" font-size="10.00" fill="#000000">odp/api/abi/packet_io.h</text>
</g>
<!-- Node20&#45;&gt;Node21 -->
<g id="edge31" class="edge">
<title>Node20&#45;&gt;Node21</title>
<path fill="none" stroke="#191970" d="M891.2009,-414.2455C891.2009,-406.9382 891.2009,-396.6944 891.2009,-387.7046"/>
<polygon fill="#191970" stroke="#191970" points="894.701,-387.6426 891.2009,-377.6427 887.701,-387.6427 894.701,-387.6426"/>
</g>
<!-- Node22 -->
<g id="node23" class="node">
<title>Node22</title>
<g id="a_node23"><a xlink:href="api_2spec_2packet_8h.html" target="_top" xlink:title="ODP packet descriptor. ">
<polygon fill="#ffffff" stroke="#000000" points="573.7009,-358.5 573.7009,-377.5 686.7009,-377.5 686.7009,-358.5 573.7009,-358.5"/>
<text text-anchor="middle" x="630.2009" y="-365.5" font-family="Helvetica,sans-Serif" font-size="10.00" fill="#000000">odp/api/spec/packet.h</text>
</a>
</g>
</g>
<!-- Node20&#45;&gt;Node22 -->
<g id="edge35" class="edge">
<title>Node20&#45;&gt;Node22</title>
<path fill="none" stroke="#191970" d="M846.63,-414.4369C801.7742,-404.8127 732.5361,-389.957 684.5001,-379.6504"/>
<polygon fill="#191970" stroke="#191970" points="685.0998,-376.1995 674.588,-377.5237 683.6312,-383.0437 685.0998,-376.1995"/>
</g>
<!-- Node22&#45;&gt;Node4 -->
<g id="edge36" class="edge">
<title>Node22&#45;&gt;Node4</title>
<path fill="none" stroke="#191970" d="M608.6789,-358.456C547.7565,-331.5083 374.7394,-255.4705 316.2009,-235 260.0133,-215.3516 238.5956,-229.0283 187.2009,-199 182.6558,-196.3444 122.7557,-136.6025 120.2009,-132 103.5692,-102.0383 85.8573,-82.8099 107.2009,-56 124.0522,-34.833 191.3009,-22.591 243.2184,-16.1342"/>
<polygon fill="#191970" stroke="#191970" points="243.8644,-19.582 253.378,-14.9191 243.0331,-12.6315 243.8644,-19.582"/>
</g>
<!-- Node22&#45;&gt;Node9 -->
<g id="edge43" class="edge">
<title>Node22&#45;&gt;Node9</title>
<path fill="none" stroke="#191970" d="M686.9852,-360.1037C786.3258,-344.6831 981.2009,-306.5843 981.2009,-245 981.2009,-245 981.2009,-245 981.2009,-122 981.2009,-88.3717 968.6824,-79.0547 944.2009,-56 928.8218,-41.5172 908.029,-30.75 889.8169,-23.2888"/>
<polygon fill="#191970" stroke="#191970" points="890.8826,-19.9479 880.294,-19.584 888.3446,-26.4716 890.8826,-19.9479"/>
</g>
<!-- Node23 -->
<g id="node24" class="node">
<title>Node23</title>
<g id="a_node24"><a xlink:href="api_2time_8h.html" target="_top" xlink:title="ODP time. ">
<polygon fill="#ffffff" stroke="#000000" points="535.2009,-297 535.2009,-316 613.2009,-316 613.2009,-297 535.2009,-297"/>
<text text-anchor="middle" x="574.2009" y="-304" font-family="Helvetica,sans-Serif" font-size="10.00" fill="#000000">odp/api/time.h</text>
</a>
</g>
</g>
<!-- Node22&#45;&gt;Node23 -->
<g id="edge37" class="edge">
<title>Node22&#45;&gt;Node23</title>
<path fill="none" stroke="#191970" d="M621.4509,-358.3906C613.0347,-349.1478 600.1212,-334.966 589.9199,-323.7628"/>
<polygon fill="#191970" stroke="#191970" points="592.3949,-321.2824 583.0743,-316.2449 587.2191,-325.9953 592.3949,-321.2824"/>
</g>
<!-- Node23&#45;&gt;Node1 -->
<g id="edge38" class="edge">
<title>Node23&#45;&gt;Node1</title>
<path fill="none" stroke="#191970" d="M534.8889,-298.8972C479.9181,-288.2661 379.6438,-268.8734 315.5544,-256.4787"/>
<polygon fill="#191970" stroke="#191970" points="316.0743,-253.0145 305.5916,-254.552 314.7451,-259.8872 316.0743,-253.0145"/>
</g>
<!-- Node24 -->
<g id="node25" class="node">
<title>Node24</title>
<polygon fill="#ffffff" stroke="#bfbfbf" points="473.2009,-235.5 473.2009,-254.5 567.2009,-254.5 567.2009,-235.5 473.2009,-235.5"/>
<text text-anchor="middle" x="520.2009" y="-242.5" font-family="Helvetica,sans-Serif" font-size="10.00" fill="#000000">odp/api/abi/time.h</text>
</g>
<!-- Node23&#45;&gt;Node24 -->
<g id="edge39" class="edge">
<title>Node23&#45;&gt;Node24</title>
<path fill="none" stroke="#191970" d="M565.7634,-296.8906C557.6478,-287.6478 545.1955,-273.466 535.3585,-262.2628"/>
<polygon fill="#191970" stroke="#191970" points="537.9855,-259.95 528.7574,-254.7449 532.7254,-264.5686 537.9855,-259.95"/>
</g>
<!-- Node25 -->
<g id="node26" class="node">
<title>Node25</title>
<g id="a_node26"><a xlink:href="api_2spec_2time_8h.html" target="_top" xlink:title="ODP time. ">
<polygon fill="#ffffff" stroke="#000000" points="625.2009,-56.5 625.2009,-75.5 727.2009,-75.5 727.2009,-56.5 625.2009,-56.5"/>
<text text-anchor="middle" x="676.2009" y="-63.5" font-family="Helvetica,sans-Serif" font-size="10.00" fill="#000000">odp/api/spec/time.h</text>
</a>
</g>
</g>
<!-- Node23&#45;&gt;Node25 -->
<g id="edge40" class="edge">
<title>Node23&#45;&gt;Node25</title>
<path fill="none" stroke="#191970" d="M577.4215,-296.9707C585.1509,-274.3284 605.6408,-215.634 626.2009,-168 638.9708,-138.4144 655.8085,-105.0431 666.3192,-84.7711"/>
<polygon fill="#191970" stroke="#191970" points="669.5298,-86.1839 671.0546,-75.6993 663.3244,-82.9446 669.5298,-86.1839"/>
</g>
<!-- Node25&#45;&gt;Node4 -->
<g id="edge41" class="edge">
<title>Node25&#45;&gt;Node4</title>
<path fill="none" stroke="#191970" d="M624.893,-58.2134C558.5485,-48.1449 443.0037,-30.6096 371.0526,-19.6902"/>
<polygon fill="#191970" stroke="#191970" points="371.1762,-16.169 360.7642,-18.1288 370.1258,-23.0897 371.1762,-16.169"/>
</g>
<!-- Node25&#45;&gt;Node9 -->
<g id="edge42" class="edge">
<title>Node25&#45;&gt;Node9</title>
<path fill="none" stroke="#191970" d="M705.9407,-56.3733C734.7079,-47.0613 778.4709,-32.8953 810.0565,-22.671"/>
<polygon fill="#191970" stroke="#191970" points="811.4132,-25.9107 819.8492,-19.5011 809.2574,-19.251 811.4132,-25.9107"/>
</g>
<!-- Node26&#45;&gt;Node4 -->
<g id="edge46" class="edge">
<title>Node26&#45;&gt;Node4</title>
<path fill="none" stroke="#191970" d="M765.3438,-291.3997C763.5098,-274.663 757.811,-248.2833 740.2009,-235 649.4963,-166.5814 337.0231,-237.6972 230.2009,-199 230.2009,-199 137.2009,-132 137.2009,-132 117.0687,-103.8448 98.8485,-83.2415 120.2009,-56 135.4607,-36.5315 195.5587,-24.2004 243.5611,-17.2601"/>
<polygon fill="#191970" stroke="#191970" points="244.1794,-20.7079 253.6002,-15.8604 243.2126,-13.7749 244.1794,-20.7079"/>
</g>
<!-- Node26&#45;&gt;Node9 -->
<g id="edge60" class="edge">
<title>Node26&#45;&gt;Node9</title>
<path fill="none" stroke="#191970" d="M816.9832,-295.5047C857.2957,-285.7975 909.2801,-270.7705 924.2009,-255 946.7987,-231.1153 943.2009,-216.3806 943.2009,-183.5 943.2009,-183.5 943.2009,-183.5 943.2009,-122 943.2009,-91.4754 942.6853,-80.2916 924.2009,-56 913.7299,-42.2393 897.8539,-31.6537 883.4006,-24.1259"/>
<polygon fill="#191970" stroke="#191970" points="884.7004,-20.8655 874.1792,-19.618 881.626,-27.1543 884.7004,-20.8655"/>
</g>
<!-- Node27 -->
<g id="node28" class="node">
<title>Node27</title>
<g id="a_node28"><a xlink:href="api_2schedule__types_8h.html" target="_top" xlink:title="ODP schedule. ">
<polygon fill="#ffffff" stroke="#000000" points="787.2009,-235.5 787.2009,-254.5 915.2009,-254.5 915.2009,-235.5 787.2009,-235.5"/>
<text text-anchor="middle" x="851.2009" y="-242.5" font-family="Helvetica,sans-Serif" font-size="10.00" fill="#000000">odp/api/schedule_types.h</text>
</a>
</g>
</g>
<!-- Node26&#45;&gt;Node27 -->
<g id="edge47" class="edge">
<title>Node26&#45;&gt;Node27</title>
<path fill="none" stroke="#191970" d="M787.2122,-291.2977C799.9943,-282.0495 816.2956,-270.2551 829.2457,-260.8853"/>
<polygon fill="#191970" stroke="#191970" points="831.5412,-263.5445 837.5913,-254.8469 827.4379,-257.8732 831.5412,-263.5445"/>
</g>
<!-- Node32 -->
<g id="node33" class="node">
<title>Node32</title>
<g id="a_node33"><a xlink:href="deprecated_8h.html" target="_top" xlink:title="Control deprecated API definitions. ">
<polygon fill="#ffffff" stroke="#000000" points="623.7009,-235.5 623.7009,-254.5 730.7009,-254.5 730.7009,-235.5 623.7009,-235.5"/>
<text text-anchor="middle" x="677.2009" y="-242.5" font-family="Helvetica,sans-Serif" font-size="10.00" fill="#000000">odp/api/deprecated.h</text>
</a>
</g>
</g>
<!-- Node26&#45;&gt;Node32 -->
<g id="edge56" class="edge">
<title>Node26&#45;&gt;Node32</title>
<path fill="none" stroke="#191970" d="M744.2009,-291.2977C730.6041,-281.9022 713.2043,-269.8787 699.5442,-260.4395"/>
<polygon fill="#191970" stroke="#191970" points="701.4018,-257.4688 691.1852,-254.6633 697.4224,-263.2276 701.4018,-257.4688"/>
</g>
<!-- Node28 -->
<g id="node29" class="node">
<title>Node28</title>
<polygon fill="#ffffff" stroke="#bfbfbf" points="809.2009,-168.5 809.2009,-198.5 915.2009,-198.5 915.2009,-168.5 809.2009,-168.5"/>
<text text-anchor="start" x="817.2009" y="-186.5" font-family="Helvetica,sans-Serif" font-size="10.00" fill="#000000">odp/api/abi/schedule</text>
<text text-anchor="middle" x="862.2009" y="-175.5" font-family="Helvetica,sans-Serif" font-size="10.00" fill="#000000">_types.h</text>
</g>
<!-- Node27&#45;&gt;Node28 -->
<g id="edge48" class="edge">
<title>Node27&#45;&gt;Node28</title>
<path fill="none" stroke="#191970" d="M852.9197,-235.3906C854.2016,-228.2234 856.0148,-218.0862 857.6988,-208.671"/>
<polygon fill="#191970" stroke="#191970" points="861.1946,-209.0046 859.51,-198.5446 854.3039,-207.7721 861.1946,-209.0046"/>
</g>
<!-- Node29 -->
<g id="node30" class="node">
<title>Node29</title>
<g id="a_node30"><a xlink:href="api_2spec_2schedule__types_8h.html" target="_top" xlink:title="ODP schedule types. ">
<polygon fill="#ffffff" stroke="#000000" points="635.2009,-168.5 635.2009,-198.5 749.2009,-198.5 749.2009,-168.5 635.2009,-168.5"/>
<text text-anchor="start" x="643.2009" y="-186.5" font-family="Helvetica,sans-Serif" font-size="10.00" fill="#000000">odp/api/spec/schedule</text>
<text text-anchor="middle" x="692.2009" y="-175.5" font-family="Helvetica,sans-Serif" font-size="10.00" fill="#000000">_types.h</text>
</a>
</g>
</g>
<!-- Node27&#45;&gt;Node29 -->
<g id="edge49" class="edge">
<title>Node27&#45;&gt;Node29</title>
<path fill="none" stroke="#191970" d="M826.3572,-235.3906C803.4437,-226.5279 768.7896,-213.1239 740.4423,-202.1594"/>
<polygon fill="#191970" stroke="#191970" points="741.686,-198.8878 731.0967,-198.5446 739.1607,-205.4165 741.686,-198.8878"/>
</g>
<!-- Node29&#45;&gt;Node4 -->
<g id="edge50" class="edge">
<title>Node29&#45;&gt;Node4</title>
<path fill="none" stroke="#191970" d="M666.3512,-168.4981C639.0661,-153.0492 594.5111,-128.9081 554.2009,-112 506.7644,-92.1027 491.9218,-95.2052 444.2009,-76 433.4373,-71.6682 372.8559,-42.1643 335.9502,-24.1014"/>
<polygon fill="#191970" stroke="#191970" points="337.1962,-20.8145 326.676,-19.5592 334.1172,-27.101 337.1962,-20.8145"/>
</g>
<!-- Node29&#45;&gt;Node9 -->
<g id="edge55" class="edge">
<title>Node29&#45;&gt;Node9</title>
<path fill="none" stroke="#191970" d="M699.349,-168.2372C711.891,-142.661 739.913,-90.5581 775.2009,-56 788.1448,-43.3239 805.1738,-32.4404 819.6326,-24.4467"/>
<polygon fill="#191970" stroke="#191970" points="821.5128,-27.4108 828.6941,-19.6212 818.2225,-21.2323 821.5128,-27.4108"/>
</g>
<!-- Node30 -->
<g id="node31" class="node">
<title>Node30</title>
<g id="a_node31"><a xlink:href="support_8h.html" target="_top" xlink:title="ODP support API &#45; platform specific header. ">
<polygon fill="#ffffff" stroke="#000000" points="453.2009,-112.5 453.2009,-131.5 545.2009,-131.5 545.2009,-112.5 453.2009,-112.5"/>
<text text-anchor="middle" x="499.2009" y="-119.5" font-family="Helvetica,sans-Serif" font-size="10.00" fill="#000000">odp/api/support.h</text>
</a>
</g>
</g>
<!-- Node29&#45;&gt;Node30 -->
<g id="edge51" class="edge">
<title>Node29&#45;&gt;Node30</title>
<path fill="none" stroke="#191970" d="M644.9878,-168.4554C612.3615,-158.059 569.4605,-144.3884 538.6568,-134.5727"/>
<polygon fill="#191970" stroke="#191970" points="539.6997,-131.2317 529.1091,-131.5303 537.5744,-137.9013 539.6997,-131.2317"/>
</g>
<!-- Node31 -->
<g id="node32" class="node">
<title>Node31</title>
<g id="a_node32"><a xlink:href="spec_2support_8h.html" target="_top" xlink:title="ODP support API. ">
<polygon fill="#ffffff" stroke="#000000" points="453.2009,-56.5 453.2009,-75.5 569.2009,-75.5 569.2009,-56.5 453.2009,-56.5"/>
<text text-anchor="middle" x="511.2009" y="-63.5" font-family="Helvetica,sans-Serif" font-size="10.00" fill="#000000">odp/api/spec/support.h</text>
</a>
</g>
</g>
<!-- Node30&#45;&gt;Node31 -->
<g id="edge52" class="edge">
<title>Node30&#45;&gt;Node31</title>
<path fill="none" stroke="#191970" d="M501.2912,-112.2455C502.857,-104.9382 505.0521,-94.6944 506.9785,-85.7046"/>
<polygon fill="#191970" stroke="#191970" points="510.4616,-86.1541 509.1346,-75.6427 503.617,-84.6873 510.4616,-86.1541"/>
</g>
<!-- Node31&#45;&gt;Node4 -->
<g id="edge53" class="edge">
<title>Node31&#45;&gt;Node4</title>
<path fill="none" stroke="#191970" d="M476.1321,-56.3733C441.7694,-46.9404 389.2617,-32.5265 351.9159,-22.2747"/>
<polygon fill="#191970" stroke="#191970" points="352.3819,-18.7732 341.8121,-19.5011 350.5289,-25.5235 352.3819,-18.7732"/>
</g>
<!-- Node31&#45;&gt;Node9 -->
<g id="edge54" class="edge">
<title>Node31&#45;&gt;Node9</title>
<path fill="none" stroke="#191970" d="M568.9211,-56.4369C630.2721,-46.2722 726.8443,-30.2721 789.0915,-19.959"/>
<polygon fill="#191970" stroke="#191970" points="789.8629,-23.379 799.1563,-18.2914 788.7187,-16.4731 789.8629,-23.379"/>
</g>
<!-- Node33 -->
<g id="node34" class="node">
<title>Node33</title>
<g id="a_node34"><a xlink:href="spec_2deprecated_8h.html" target="_top" xlink:title="Macro for deprecated API definitions. ">
<polygon fill="#ffffff" stroke="#000000" points="783.7009,-56.5 783.7009,-75.5 914.7009,-75.5 914.7009,-56.5 783.7009,-56.5"/>
<text text-anchor="middle" x="849.2009" y="-63.5" font-family="Helvetica,sans-Serif" font-size="10.00" fill="#000000">odp/api/spec/deprecated.h</text>
</a>
</g>
</g>
<!-- Node32&#45;&gt;Node33 -->
<g id="edge57" class="edge">
<title>Node32&#45;&gt;Node33</title>
<path fill="none" stroke="#191970" d="M700.3044,-235.3424C717.5743,-227.3487 741.0606,-214.7646 758.2009,-199 795.4313,-164.7577 825.4629,-112.5452 839.8944,-84.824"/>
<polygon fill="#191970" stroke="#191970" points="843.0718,-86.2972 844.4898,-75.7977 836.8337,-83.1213 843.0718,-86.2972"/>
</g>
<!-- Node33&#45;&gt;Node4 -->
<g id="edge58" class="edge">
<title>Node33&#45;&gt;Node4</title>
<path fill="none" stroke="#191970" d="M783.5532,-59.2172C678.6795,-48.3816 474.6347,-27.2994 370.9635,-16.588"/>
<polygon fill="#191970" stroke="#191970" points="371.2549,-13.0996 360.9481,-15.5532 370.5354,-20.0625 371.2549,-13.0996"/>
</g>
<!-- Node33&#45;&gt;Node9 -->
<g id="edge59" class="edge">
<title>Node33&#45;&gt;Node9</title>
<path fill="none" stroke="#191970" d="M849.2009,-56.2455C849.2009,-48.9382 849.2009,-38.6944 849.2009,-29.7046"/>
<polygon fill="#191970" stroke="#191970" points="852.701,-29.6426 849.2009,-19.6427 845.701,-29.6427 852.701,-29.6426"/>
</g>
<!-- Node34&#45;&gt;Node4 -->
<g id="edge63" class="edge">
<title>Node34&#45;&gt;Node4</title>
<path fill="none" stroke="#191970" d="M399.8994,-470.4727C319.6296,-443.3848 101.932,-357.4596 18.2009,-199 -13.5574,-138.8979 64.6082,-75.9706 94.2009,-56 118.211,-39.7968 189.7093,-26.519 243.2931,-18.4645"/>
<polygon fill="#191970" stroke="#191970" points="244.0299,-21.8938 253.4126,-16.9729 243.0091,-14.9686 244.0299,-21.8938"/>
</g>
<!-- Node34&#45;&gt;Node9 -->
<g id="edge67" class="edge">
<title>Node34&#45;&gt;Node9</title>
<path fill="none" stroke="#191970" d="M460.2185,-470.3865C564.5316,-436.9607 905.5298,-327.5303 916.2009,-322 966.9468,-295.7013 1019.2009,-302.1556 1019.2009,-245 1019.2009,-245 1019.2009,-245 1019.2009,-122 1019.2009,-66.3341 954.8536,-36.7699 905.3364,-22.2603"/>
<polygon fill="#191970" stroke="#191970" points="906.2271,-18.8752 895.6542,-19.5558 904.3439,-25.6171 906.2271,-18.8752"/>
</g>
<!-- Node34&#45;&gt;Node20 -->
<g id="edge66" class="edge">
<title>Node34&#45;&gt;Node20</title>
<path fill="none" stroke="#191970" d="M485.3504,-473.3007C574.203,-462.5073 748.0102,-441.3941 836.5463,-430.6392"/>
<polygon fill="#191970" stroke="#191970" points="837.1462,-434.0921 846.6511,-429.4117 836.302,-427.1432 837.1462,-434.0921"/>
</g>
<!-- Node34&#45;&gt;Node30 -->
<g id="edge65" class="edge">
<title>Node34&#45;&gt;Node30</title>
<path fill="none" stroke="#191970" d="M417.8162,-470.3714C396.5141,-452.6205 355.2009,-412.4628 355.2009,-368 355.2009,-368 355.2009,-368 355.2009,-306.5 355.2009,-229.4653 434.1793,-165.3405 475.1562,-137.2545"/>
<polygon fill="#191970" stroke="#191970" points="477.1497,-140.1319 483.5163,-131.6632 473.2582,-134.3132 477.1497,-140.1319"/>
</g>
<!-- Node34&#45;&gt;Node32 -->
<g id="edge64" class="edge">
<title>Node34&#45;&gt;Node32</title>
<path fill="none" stroke="#191970" d="M439.8505,-470.2001C461.3242,-448.6415 515.121,-395.9989 565.2009,-358 589.0705,-339.8886 600.4195,-342.5754 622.2009,-322 640.5697,-304.6483 656.7203,-280.3507 666.6871,-263.7177"/>
<polygon fill="#191970" stroke="#191970" points="669.8023,-265.3233 671.8109,-254.9206 663.7535,-261.8002 669.8023,-265.3233"/>
</g>
</g>
</svg>
