<?xml version="1.0" encoding="UTF-8" standalone="no"?>
<!DOCTYPE svg PUBLIC "-//W3C//DTD SVG 1.1//EN"
 "http://www.w3.org/Graphics/SVG/1.1/DTD/svg11.dtd">
<!-- Generated by graphviz version 2.40.1 (20161225.0304)
 -->
<!-- Title: barrier.h Pages: 1 -->
<svg width="484pt" height="252pt"
 viewBox="0.00 0.00 483.50 252.00" xmlns="http://www.w3.org/2000/svg" xmlns:xlink="http://www.w3.org/1999/xlink">
<g id="graph0" class="graph" transform="scale(1 1) rotate(0) translate(4 248)">
<title>barrier.h</title>
<polygon fill="#ffffff" stroke="transparent" points="-4,4 -4,-248 479.5,-248 479.5,4 -4,4"/>
<!-- Node13 -->
<g id="node1" class="node">
<title>Node13</title>
<polygon fill="#bfbfbf" stroke="#000000" points="210,-224.5 210,-243.5 262,-243.5 262,-224.5 210,-224.5"/>
<text text-anchor="middle" x="236" y="-231.5" font-family="Helvetica,sans-Serif" font-size="10.00" fill="#000000">barrier.h</text>
</g>
<!-- Node14 -->
<g id="node2" class="node">
<title>Node14</title>
<g id="a_node2"><a xlink:href="arch_2arm32-linux_2odp_2api_2abi_2barrier_8h_source.html" target="_top" xlink:title="barrier.h">
<polygon fill="#ffffff" stroke="#000000" points="0,-168.5 0,-187.5 52,-187.5 52,-168.5 0,-168.5"/>
<text text-anchor="middle" x="26" y="-175.5" font-family="Helvetica,sans-Serif" font-size="10.00" fill="#000000">barrier.h</text>
</a>
</g>
</g>
<!-- Node13&#45;&gt;Node14 -->
<g id="edge1" class="edge">
<title>Node13&#45;&gt;Node14</title>
<path fill="none" stroke="#191970" d="M199.9891,-224.7728C164.5667,-215.6403 108.9779,-201.1581 61,-188 58.1965,-187.2311 55.2705,-186.4157 52.3565,-185.5953"/>
<polygon fill="#191970" stroke="#191970" points="199.3059,-228.211 209.8627,-227.3145 201.051,-221.432 199.3059,-228.211"/>
</g>
<!-- Node15 -->
<g id="node3" class="node">
<title>Node15</title>
<g id="a_node3"><a xlink:href="arch_2arm64-linux_2odp_2api_2abi_2barrier_8h_source.html" target="_top" xlink:title="barrier.h">
<polygon fill="#ffffff" stroke="#000000" points="70,-168.5 70,-187.5 122,-187.5 122,-168.5 70,-168.5"/>
<text text-anchor="middle" x="96" y="-175.5" font-family="Helvetica,sans-Serif" font-size="10.00" fill="#000000">barrier.h</text>
</a>
</g>
</g>
<!-- Node13&#45;&gt;Node15 -->
<g id="edge2" class="edge">
<title>Node13&#45;&gt;Node15</title>
<path fill="none" stroke="#191970" d="M202.6351,-220.6541C177.1048,-210.4419 142.5216,-196.6086 119.7528,-187.5011"/>
<polygon fill="#191970" stroke="#191970" points="201.3485,-223.909 211.9331,-224.3733 203.9483,-217.4096 201.3485,-223.909"/>
</g>
<!-- Node16 -->
<g id="node4" class="node">
<title>Node16</title>
<g id="a_node4"><a xlink:href="arch_2default-linux_2odp_2api_2abi_2barrier_8h_source.html" target="_top" xlink:title="barrier.h">
<polygon fill="#ffffff" stroke="#000000" points="140,-168.5 140,-187.5 192,-187.5 192,-168.5 140,-168.5"/>
<text text-anchor="middle" x="166" y="-175.5" font-family="Helvetica,sans-Serif" font-size="10.00" fill="#000000">barrier.h</text>
</a>
</g>
</g>
<!-- Node13&#45;&gt;Node16 -->
<g id="edge3" class="edge">
<title>Node13&#45;&gt;Node16</title>
<path fill="none" stroke="#191970" d="M215.91,-217.928C203.6747,-208.1397 188.4493,-195.9595 178.0533,-187.6427"/>
<polygon fill="#191970" stroke="#191970" points="213.8118,-220.7316 223.8069,-224.2455 218.1847,-215.2655 213.8118,-220.7316"/>
</g>
<!-- Node17 -->
<g id="node5" class="node">
<title>Node17</title>
<g id="a_node5"><a xlink:href="arch_2mips64-linux_2odp_2api_2abi_2barrier_8h_source.html" target="_top" xlink:title="barrier.h">
<polygon fill="#ffffff" stroke="#000000" points="210,-168.5 210,-187.5 262,-187.5 262,-168.5 210,-168.5"/>
<text text-anchor="middle" x="236" y="-175.5" font-family="Helvetica,sans-Serif" font-size="10.00" fill="#000000">barrier.h</text>
</a>
</g>
</g>
<!-- Node13&#45;&gt;Node17 -->
<g id="edge4" class="edge">
<title>Node13&#45;&gt;Node17</title>
<path fill="none" stroke="#191970" d="M236,-214.1575C236,-205.155 236,-194.9199 236,-187.6427"/>
<polygon fill="#191970" stroke="#191970" points="232.5001,-214.2455 236,-224.2455 239.5001,-214.2456 232.5001,-214.2455"/>
</g>
<!-- Node18 -->
<g id="node6" class="node">
<title>Node18</title>
<g id="a_node6"><a xlink:href="arch_2power64-linux_2odp_2api_2abi_2barrier_8h_source.html" target="_top" xlink:title="barrier.h">
<polygon fill="#ffffff" stroke="#000000" points="280,-168.5 280,-187.5 332,-187.5 332,-168.5 280,-168.5"/>
<text text-anchor="middle" x="306" y="-175.5" font-family="Helvetica,sans-Serif" font-size="10.00" fill="#000000">barrier.h</text>
</a>
</g>
</g>
<!-- Node13&#45;&gt;Node18 -->
<g id="edge5" class="edge">
<title>Node13&#45;&gt;Node18</title>
<path fill="none" stroke="#191970" d="M256.09,-217.928C268.3253,-208.1397 283.5507,-195.9595 293.9467,-187.6427"/>
<polygon fill="#191970" stroke="#191970" points="253.8153,-215.2655 248.1931,-224.2455 258.1882,-220.7316 253.8153,-215.2655"/>
</g>
<!-- Node19 -->
<g id="node7" class="node">
<title>Node19</title>
<g id="a_node7"><a xlink:href="arch_2x86__32-linux_2odp_2api_2abi_2barrier_8h_source.html" target="_top" xlink:title="barrier.h">
<polygon fill="#ffffff" stroke="#000000" points="350,-168.5 350,-187.5 402,-187.5 402,-168.5 350,-168.5"/>
<text text-anchor="middle" x="376" y="-175.5" font-family="Helvetica,sans-Serif" font-size="10.00" fill="#000000">barrier.h</text>
</a>
</g>
</g>
<!-- Node13&#45;&gt;Node19 -->
<g id="edge6" class="edge">
<title>Node13&#45;&gt;Node19</title>
<path fill="none" stroke="#191970" d="M269.3649,-220.6541C294.8952,-210.4419 329.4784,-196.6086 352.2472,-187.5011"/>
<polygon fill="#191970" stroke="#191970" points="268.0517,-217.4096 260.0669,-224.3733 270.6515,-223.909 268.0517,-217.4096"/>
</g>
<!-- Node20 -->
<g id="node8" class="node">
<title>Node20</title>
<g id="a_node8"><a xlink:href="arch_2x86__64-linux_2odp_2api_2abi_2barrier_8h_source.html" target="_top" xlink:title="barrier.h">
<polygon fill="#ffffff" stroke="#000000" points="420,-168.5 420,-187.5 472,-187.5 472,-168.5 420,-168.5"/>
<text text-anchor="middle" x="446" y="-175.5" font-family="Helvetica,sans-Serif" font-size="10.00" fill="#000000">barrier.h</text>
</a>
</g>
</g>
<!-- Node13&#45;&gt;Node20 -->
<g id="edge7" class="edge">
<title>Node13&#45;&gt;Node20</title>
<path fill="none" stroke="#191970" d="M272.0109,-224.7728C307.4333,-215.6403 363.0221,-201.1581 411,-188 413.8035,-187.2311 416.7295,-186.4157 419.6435,-185.5953"/>
<polygon fill="#191970" stroke="#191970" points="270.949,-221.432 262.1373,-227.3145 272.6941,-228.211 270.949,-221.432"/>
</g>
<!-- Node21 -->
<g id="node9" class="node">
<title>Node21</title>
<g id="a_node9"><a xlink:href="api_2barrier_8h.html" target="_top" xlink:title="ODP execution barriers. ">
<polygon fill="#ffffff" stroke="#000000" points="420,-112.5 420,-131.5 472,-131.5 472,-112.5 420,-112.5"/>
<text text-anchor="middle" x="446" y="-119.5" font-family="Helvetica,sans-Serif" font-size="10.00" fill="#000000">barrier.h</text>
</a>
</g>
</g>
<!-- Node20&#45;&gt;Node21 -->
<g id="edge8" class="edge">
<title>Node20&#45;&gt;Node21</title>
<path fill="none" stroke="#191970" d="M446,-158.1575C446,-149.155 446,-138.9199 446,-131.6427"/>
<polygon fill="#191970" stroke="#191970" points="442.5001,-158.2455 446,-168.2455 449.5001,-158.2456 442.5001,-158.2455"/>
</g>
<!-- Node22 -->
<g id="node10" class="node">
<title>Node22</title>
<g id="a_node10"><a xlink:href="odp__api_8h.html" target="_top" xlink:title="The OpenDataPlane API. ">
<polygon fill="#ffffff" stroke="#000000" points="416.5,-56.5 416.5,-75.5 475.5,-75.5 475.5,-56.5 416.5,-56.5"/>
<text text-anchor="middle" x="446" y="-63.5" font-family="Helvetica,sans-Serif" font-size="10.00" fill="#000000">odp_api.h</text>
</a>
</g>
</g>
<!-- Node21&#45;&gt;Node22 -->
<g id="edge9" class="edge">
<title>Node21&#45;&gt;Node22</title>
<path fill="none" stroke="#191970" d="M446,-102.1575C446,-93.155 446,-82.9199 446,-75.6427"/>
<polygon fill="#191970" stroke="#191970" points="442.5001,-102.2455 446,-112.2455 449.5001,-102.2456 442.5001,-102.2455"/>
</g>
<!-- Node23 -->
<g id="node11" class="node">
<title>Node23</title>
<g id="a_node11"><a xlink:href="odp_8h.html" target="_top" xlink:title="WARNING: THIS FILE IS DEPRECATED AND WILL BE REMOVED!!! ODP APPLICATIONS SHOULD NOW INCLUDE odp_api...">
<polygon fill="#ffffff" stroke="#000000" points="425.5,-.5 425.5,-19.5 466.5,-19.5 466.5,-.5 425.5,-.5"/>
<text text-anchor="middle" x="446" y="-7.5" font-family="Helvetica,sans-Serif" font-size="10.00" fill="#000000">odp.h</text>
</a>
</g>
</g>
<!-- Node22&#45;&gt;Node23 -->
<g id="edge10" class="edge">
<title>Node22&#45;&gt;Node23</title>
<path fill="none" stroke="#191970" d="M446,-46.1575C446,-37.155 446,-26.9199 446,-19.6427"/>
<polygon fill="#191970" stroke="#191970" points="442.5001,-46.2455 446,-56.2455 449.5001,-46.2456 442.5001,-46.2455"/>
</g>
</g>
</svg>
