<?xml version="1.0" encoding="UTF-8" standalone="no"?>
<!DOCTYPE svg PUBLIC "-//W3C//DTD SVG 1.1//EN"
 "http://www.w3.org/Graphics/SVG/1.1/DTD/svg11.dtd">
<!-- Generated by graphviz version 2.40.1 (20161225.0304)
 -->
<!-- Title: deprecated.h Pages: 1 -->
<svg width="1000pt" height="644pt"
 viewBox="0.00 0.00 1000.00 644.00" xmlns="http://www.w3.org/2000/svg" xmlns:xlink="http://www.w3.org/1999/xlink">
<g id="graph0" class="graph" transform="scale(1 1) rotate(0) translate(4 640)">
<title>deprecated.h</title>
<polygon fill="#ffffff" stroke="transparent" points="-4,4 -4,-640 996,-640 996,4 -4,4"/>
<!-- Node4 -->
<g id="node1" class="node">
<title>Node4</title>
<polygon fill="#bfbfbf" stroke="#000000" points="757.5,-616.5 757.5,-635.5 830.5,-635.5 830.5,-616.5 757.5,-616.5"/>
<text text-anchor="middle" x="794" y="-623.5" font-family="Helvetica,sans-Serif" font-size="10.00" fill="#000000">deprecated.h</text>
</g>
<!-- Node5 -->
<g id="node2" class="node">
<title>Node5</title>
<g id="a_node2"><a xlink:href="api_2abi-default_2classification_8h_source.html" target="_top" xlink:title="classification.h">
<polygon fill="#ffffff" stroke="#000000" points="350,-448.5 350,-467.5 432,-467.5 432,-448.5 350,-448.5"/>
<text text-anchor="middle" x="391" y="-455.5" font-family="Helvetica,sans-Serif" font-size="10.00" fill="#000000">classification.h</text>
</a>
</g>
</g>
<!-- Node4&#45;&gt;Node5 -->
<g id="edge1" class="edge">
<title>Node4&#45;&gt;Node5</title>
<path fill="none" stroke="#191970" d="M761.7616,-612.5607C682.9987,-579.7265 482.2584,-496.0432 414.0709,-467.6177"/>
<polygon fill="#191970" stroke="#191970" points="760.6015,-615.8689 771.1783,-616.4862 763.2949,-609.4079 760.6015,-615.8689"/>
</g>
<!-- Node16 -->
<g id="node13" class="node">
<title>Node16</title>
<g id="a_node13"><a xlink:href="odp__api_8h.html" target="_top" xlink:title="The OpenDataPlane API. ">
<polygon fill="#ffffff" stroke="#000000" points="766.5,-56.5 766.5,-75.5 825.5,-75.5 825.5,-56.5 766.5,-56.5"/>
<text text-anchor="middle" x="796" y="-63.5" font-family="Helvetica,sans-Serif" font-size="10.00" fill="#000000">odp_api.h</text>
</a>
</g>
</g>
<!-- Node4&#45;&gt;Node16 -->
<g id="edge39" class="edge">
<title>Node4&#45;&gt;Node16</title>
<path fill="none" stroke="#191970" d="M840.9301,-620.2138C899.4817,-610.0714 992,-583.1107 992,-514 992,-514 992,-514 992,-178 992,-102.3603 880.5986,-77.1131 825.7682,-69.2677"/>
<polygon fill="#191970" stroke="#191970" points="840.087,-616.8048 830.7783,-621.8643 841.2103,-623.7141 840.087,-616.8048"/>
</g>
<!-- Node22 -->
<g id="node19" class="node">
<title>Node22</title>
<g id="a_node19"><a xlink:href="api_2spec_2crypto_8h.html" target="_top" xlink:title="ODP crypto. ">
<polygon fill="#ffffff" stroke="#000000" points="768,-504.5 768,-523.5 820,-523.5 820,-504.5 768,-504.5"/>
<text text-anchor="middle" x="794" y="-511.5" font-family="Helvetica,sans-Serif" font-size="10.00" fill="#000000">crypto.h</text>
</a>
</g>
</g>
<!-- Node4&#45;&gt;Node22 -->
<g id="edge24" class="edge">
<title>Node4&#45;&gt;Node22</title>
<path fill="none" stroke="#191970" d="M794,-606.2702C794,-581.9985 794,-541.7725 794,-523.5249"/>
<polygon fill="#191970" stroke="#191970" points="790.5001,-606.4509 794,-616.4509 797.5001,-606.451 790.5001,-606.4509"/>
</g>
<!-- Node24 -->
<g id="node21" class="node">
<title>Node24</title>
<g id="a_node21"><a xlink:href="api_2spec_2packet__io_8h.html" target="_top" xlink:title="ODP Packet IO. ">
<polygon fill="#ffffff" stroke="#000000" points="700.5,-392.5 700.5,-411.5 767.5,-411.5 767.5,-392.5 700.5,-392.5"/>
<text text-anchor="middle" x="734" y="-399.5" font-family="Helvetica,sans-Serif" font-size="10.00" fill="#000000">packet_io.h</text>
</a>
</g>
</g>
<!-- Node4&#45;&gt;Node24 -->
<g id="edge28" class="edge">
<title>Node4&#45;&gt;Node24</title>
<path fill="none" stroke="#191970" d="M786.6292,-606.9212C778.9733,-586.5987 767.0145,-553.3772 759,-524 747.7328,-482.7004 738.9394,-432.305 735.5333,-411.5896"/>
<polygon fill="#191970" stroke="#191970" points="783.3655,-608.1857 790.1969,-616.284 789.9067,-605.6932 783.3655,-608.1857"/>
</g>
<!-- Node25 -->
<g id="node22" class="node">
<title>Node25</title>
<g id="a_node22"><a xlink:href="queue__types_8h.html" target="_top" xlink:title="ODP queue types. ">
<polygon fill="#ffffff" stroke="#000000" points="823,-560.5 823,-579.5 903,-579.5 903,-560.5 823,-560.5"/>
<text text-anchor="middle" x="863" y="-567.5" font-family="Helvetica,sans-Serif" font-size="10.00" fill="#000000">queue_types.h</text>
</a>
</g>
</g>
<!-- Node4&#45;&gt;Node25 -->
<g id="edge30" class="edge">
<title>Node4&#45;&gt;Node25</title>
<path fill="none" stroke="#191970" d="M813.803,-609.928C825.8636,-600.1397 840.8714,-587.9595 851.1188,-579.6427"/>
<polygon fill="#191970" stroke="#191970" points="811.5779,-607.2262 806.0189,-616.2455 815.9891,-612.6614 811.5779,-607.2262"/>
</g>
<!-- Node6 -->
<g id="node3" class="node">
<title>Node6</title>
<g id="a_node3"><a xlink:href="arch_2arm32-linux_2odp_2api_2abi_2classification_8h_source.html" target="_top" xlink:title="classification.h">
<polygon fill="#ffffff" stroke="#000000" points="200,-392.5 200,-411.5 282,-411.5 282,-392.5 200,-392.5"/>
<text text-anchor="middle" x="241" y="-399.5" font-family="Helvetica,sans-Serif" font-size="10.00" fill="#000000">classification.h</text>
</a>
</g>
</g>
<!-- Node5&#45;&gt;Node6 -->
<g id="edge2" class="edge">
<title>Node5&#45;&gt;Node6</title>
<path fill="none" stroke="#191970" d="M355.6129,-444.7888C328.2247,-434.5639 290.9521,-420.6488 266.4494,-411.5011"/>
<polygon fill="#191970" stroke="#191970" points="354.6215,-448.1546 365.2141,-448.3733 357.0698,-441.5967 354.6215,-448.1546"/>
</g>
<!-- Node7 -->
<g id="node4" class="node">
<title>Node7</title>
<g id="a_node4"><a xlink:href="arch_2arm64-linux_2odp_2api_2abi_2classification_8h_source.html" target="_top" xlink:title="classification.h">
<polygon fill="#ffffff" stroke="#000000" points="400,-392.5 400,-411.5 482,-411.5 482,-392.5 400,-392.5"/>
<text text-anchor="middle" x="441" y="-399.5" font-family="Helvetica,sans-Serif" font-size="10.00" fill="#000000">classification.h</text>
</a>
</g>
</g>
<!-- Node5&#45;&gt;Node7 -->
<g id="edge3" class="edge">
<title>Node5&#45;&gt;Node7</title>
<path fill="none" stroke="#191970" d="M406.6247,-440.5004C415.1273,-430.9775 425.3218,-419.5596 432.3905,-411.6427"/>
<polygon fill="#191970" stroke="#191970" points="403.7587,-438.4551 399.7093,-448.2455 408.9803,-443.1172 403.7587,-438.4551"/>
</g>
<!-- Node8 -->
<g id="node5" class="node">
<title>Node8</title>
<g id="a_node5"><a xlink:href="arch_2default-linux_2odp_2api_2abi_2classification_8h_source.html" target="_top" xlink:title="classification.h">
<polygon fill="#ffffff" stroke="#000000" points="500,-392.5 500,-411.5 582,-411.5 582,-392.5 500,-392.5"/>
<text text-anchor="middle" x="541" y="-399.5" font-family="Helvetica,sans-Serif" font-size="10.00" fill="#000000">classification.h</text>
</a>
</g>
</g>
<!-- Node5&#45;&gt;Node8 -->
<g id="edge4" class="edge">
<title>Node5&#45;&gt;Node8</title>
<path fill="none" stroke="#191970" d="M426.3871,-444.7888C453.7753,-434.5639 491.0479,-420.6488 515.5506,-411.5011"/>
<polygon fill="#191970" stroke="#191970" points="424.9302,-441.5967 416.7859,-448.3733 427.3785,-448.1546 424.9302,-441.5967"/>
</g>
<!-- Node9 -->
<g id="node6" class="node">
<title>Node9</title>
<g id="a_node6"><a xlink:href="arch_2mips64-linux_2odp_2api_2abi_2classification_8h_source.html" target="_top" xlink:title="classification.h">
<polygon fill="#ffffff" stroke="#000000" points="600,-392.5 600,-411.5 682,-411.5 682,-392.5 600,-392.5"/>
<text text-anchor="middle" x="641" y="-399.5" font-family="Helvetica,sans-Serif" font-size="10.00" fill="#000000">classification.h</text>
</a>
</g>
</g>
<!-- Node5&#45;&gt;Node9 -->
<g id="edge5" class="edge">
<title>Node5&#45;&gt;Node9</title>
<path fill="none" stroke="#191970" d="M441.9039,-446.5975C488.5485,-436.1491 556.7332,-420.8758 599.9751,-411.1896"/>
<polygon fill="#191970" stroke="#191970" points="440.9956,-443.2142 432.0025,-448.8154 442.5257,-450.0449 440.9956,-443.2142"/>
</g>
<!-- Node10 -->
<g id="node7" class="node">
<title>Node10</title>
<g id="a_node7"><a xlink:href="arch_2power64-linux_2odp_2api_2abi_2classification_8h_source.html" target="_top" xlink:title="classification.h">
<polygon fill="#ffffff" stroke="#000000" points="0,-392.5 0,-411.5 82,-411.5 82,-392.5 0,-392.5"/>
<text text-anchor="middle" x="41" y="-399.5" font-family="Helvetica,sans-Serif" font-size="10.00" fill="#000000">classification.h</text>
</a>
</g>
</g>
<!-- Node5&#45;&gt;Node10 -->
<g id="edge6" class="edge">
<title>Node5&#45;&gt;Node10</title>
<path fill="none" stroke="#191970" d="M339.705,-450.8554C279.8801,-442.356 178.0667,-427.3737 91,-412 88.1232,-411.492 85.1572,-410.9489 82.1729,-410.388"/>
<polygon fill="#191970" stroke="#191970" points="339.2633,-454.3277 349.6552,-452.2643 340.2447,-447.3969 339.2633,-454.3277"/>
</g>
<!-- Node11 -->
<g id="node8" class="node">
<title>Node11</title>
<g id="a_node8"><a xlink:href="arch_2x86__32-linux_2odp_2api_2abi_2classification_8h_source.html" target="_top" xlink:title="classification.h">
<polygon fill="#ffffff" stroke="#000000" points="100,-392.5 100,-411.5 182,-411.5 182,-392.5 100,-392.5"/>
<text text-anchor="middle" x="141" y="-399.5" font-family="Helvetica,sans-Serif" font-size="10.00" fill="#000000">classification.h</text>
</a>
</g>
</g>
<!-- Node5&#45;&gt;Node11 -->
<g id="edge7" class="edge">
<title>Node5&#45;&gt;Node11</title>
<path fill="none" stroke="#191970" d="M340.0961,-446.5975C293.4515,-436.1491 225.2668,-420.8758 182.0249,-411.1896"/>
<polygon fill="#191970" stroke="#191970" points="339.4743,-450.0449 349.9975,-448.8154 341.0044,-443.2142 339.4743,-450.0449"/>
</g>
<!-- Node12 -->
<g id="node9" class="node">
<title>Node12</title>
<g id="a_node9"><a xlink:href="arch_2x86__64-linux_2odp_2api_2abi_2classification_8h_source.html" target="_top" xlink:title="classification.h">
<polygon fill="#ffffff" stroke="#000000" points="300,-392.5 300,-411.5 382,-411.5 382,-392.5 300,-392.5"/>
<text text-anchor="middle" x="341" y="-399.5" font-family="Helvetica,sans-Serif" font-size="10.00" fill="#000000">classification.h</text>
</a>
</g>
</g>
<!-- Node5&#45;&gt;Node12 -->
<g id="edge8" class="edge">
<title>Node5&#45;&gt;Node12</title>
<path fill="none" stroke="#191970" d="M375.3753,-440.5004C366.8727,-430.9775 356.6782,-419.5596 349.6095,-411.6427"/>
<polygon fill="#191970" stroke="#191970" points="373.0197,-443.1172 382.2907,-448.2455 378.2413,-438.4551 373.0197,-443.1172"/>
</g>
<!-- Node13 -->
<g id="node10" class="node">
<title>Node13</title>
<g id="a_node10"><a xlink:href="api_2classification_8h.html" target="_top" xlink:title="ODP classification descriptor. ">
<polygon fill="#ffffff" stroke="#000000" points="514,-224.5 514,-243.5 596,-243.5 596,-224.5 514,-224.5"/>
<text text-anchor="middle" x="555" y="-231.5" font-family="Helvetica,sans-Serif" font-size="10.00" fill="#000000">classification.h</text>
</a>
</g>
</g>
<!-- Node12&#45;&gt;Node13 -->
<g id="edge9" class="edge">
<title>Node12&#45;&gt;Node13</title>
<path fill="none" stroke="#191970" d="M361.0262,-386.2785C404.6845,-352.0047 507.3514,-271.4064 542.7489,-243.6177"/>
<polygon fill="#191970" stroke="#191970" points="358.8232,-383.5582 353.1187,-392.4862 363.1457,-389.0642 358.8232,-383.5582"/>
</g>
<!-- Node18 -->
<g id="node15" class="node">
<title>Node18</title>
<g id="a_node15"><a xlink:href="api_2packet__io_8h.html" target="_top" xlink:title="ODP Packet IO. ">
<polygon fill="#ffffff" stroke="#000000" points="623.5,-336.5 623.5,-355.5 690.5,-355.5 690.5,-336.5 623.5,-336.5"/>
<text text-anchor="middle" x="657" y="-343.5" font-family="Helvetica,sans-Serif" font-size="10.00" fill="#000000">packet_io.h</text>
</a>
</g>
</g>
<!-- Node12&#45;&gt;Node18 -->
<g id="edge15" class="edge">
<title>Node12&#45;&gt;Node18</title>
<path fill="none" stroke="#191970" d="M392.2011,-391.8107C481.4421,-375.2674 574.6588,-359.5931 623.357,-351.5281"/>
<polygon fill="#191970" stroke="#191970" points="391.3752,-388.4042 382.1842,-393.6745 392.6557,-395.2861 391.3752,-388.4042"/>
</g>
<!-- Node14 -->
<g id="node11" class="node">
<title>Node14</title>
<g id="a_node11"><a xlink:href="api_2spec_2ipsec_8h.html" target="_top" xlink:title="ODP IPSEC API. ">
<polygon fill="#ffffff" stroke="#000000" points="644,-168.5 644,-187.5 692,-187.5 692,-168.5 644,-168.5"/>
<text text-anchor="middle" x="668" y="-175.5" font-family="Helvetica,sans-Serif" font-size="10.00" fill="#000000">ipsec.h</text>
</a>
</g>
</g>
<!-- Node13&#45;&gt;Node14 -->
<g id="edge10" class="edge">
<title>Node13&#45;&gt;Node14</title>
<path fill="none" stroke="#191970" d="M583.5792,-219.8368C604.0058,-209.7139 630.9362,-196.3679 648.8281,-187.5011"/>
<polygon fill="#191970" stroke="#191970" points="581.8313,-216.7968 574.4254,-224.3733 584.9396,-223.0688 581.8313,-216.7968"/>
</g>
<!-- Node13&#45;&gt;Node16 -->
<g id="edge14" class="edge">
<title>Node13&#45;&gt;Node16</title>
<path fill="none" stroke="#191970" d="M562.4072,-214.9158C573.8621,-187.9256 598.4396,-138.9011 635,-112 674.4535,-82.9702 731.7204,-72.2268 766.2586,-68.274"/>
<polygon fill="#191970" stroke="#191970" points="559.0765,-213.8146 558.5419,-224.396 565.5584,-216.4575 559.0765,-213.8146"/>
</g>
<!-- Node15 -->
<g id="node12" class="node">
<title>Node15</title>
<g id="a_node12"><a xlink:href="api_2ipsec_8h.html" target="_top" xlink:title="ODP IPSEC API &#45; platform specific header. ">
<polygon fill="#ffffff" stroke="#000000" points="644,-112.5 644,-131.5 692,-131.5 692,-112.5 644,-112.5"/>
<text text-anchor="middle" x="668" y="-119.5" font-family="Helvetica,sans-Serif" font-size="10.00" fill="#000000">ipsec.h</text>
</a>
</g>
</g>
<!-- Node14&#45;&gt;Node15 -->
<g id="edge11" class="edge">
<title>Node14&#45;&gt;Node15</title>
<path fill="none" stroke="#191970" d="M668,-158.1575C668,-149.155 668,-138.9199 668,-131.6427"/>
<polygon fill="#191970" stroke="#191970" points="664.5001,-158.2455 668,-168.2455 671.5001,-158.2456 664.5001,-158.2455"/>
</g>
<!-- Node15&#45;&gt;Node16 -->
<g id="edge12" class="edge">
<title>Node15&#45;&gt;Node16</title>
<path fill="none" stroke="#191970" d="M699.4348,-108.2473C722.6809,-98.0771 753.7411,-84.4883 774.2831,-75.5011"/>
<polygon fill="#191970" stroke="#191970" points="697.7627,-105.1585 690.004,-112.3733 700.5685,-111.5716 697.7627,-105.1585"/>
</g>
<!-- Node17 -->
<g id="node14" class="node">
<title>Node17</title>
<g id="a_node14"><a xlink:href="odp_8h.html" target="_top" xlink:title="WARNING: THIS FILE IS DEPRECATED AND WILL BE REMOVED!!! ODP APPLICATIONS SHOULD NOW INCLUDE odp_api...">
<polygon fill="#ffffff" stroke="#000000" points="775.5,-.5 775.5,-19.5 816.5,-19.5 816.5,-.5 775.5,-.5"/>
<text text-anchor="middle" x="796" y="-7.5" font-family="Helvetica,sans-Serif" font-size="10.00" fill="#000000">odp.h</text>
</a>
</g>
</g>
<!-- Node16&#45;&gt;Node17 -->
<g id="edge13" class="edge">
<title>Node16&#45;&gt;Node17</title>
<path fill="none" stroke="#191970" d="M796,-46.1575C796,-37.155 796,-26.9199 796,-19.6427"/>
<polygon fill="#191970" stroke="#191970" points="792.5001,-46.2455 796,-56.2455 799.5001,-46.2456 792.5001,-46.2455"/>
</g>
<!-- Node18&#45;&gt;Node14 -->
<g id="edge18" class="edge">
<title>Node18&#45;&gt;Node14</title>
<path fill="none" stroke="#191970" d="M649.7381,-326.7C647.0494,-318.581 644.3327,-308.9561 643,-300 638.0285,-266.5901 634.6789,-256.7368 643,-224 646.4483,-210.4338 654.7948,-196.5431 660.8985,-187.6276"/>
<polygon fill="#191970" stroke="#191970" points="646.5064,-328.0598 653.1376,-336.3228 653.1067,-325.728 646.5064,-328.0598"/>
</g>
<!-- Node18&#45;&gt;Node16 -->
<g id="edge23" class="edge">
<title>Node18&#45;&gt;Node16</title>
<path fill="none" stroke="#191970" d="M694.0616,-332.2642C709.5853,-324.84 726.6287,-314.2278 738,-300 757.1361,-276.057 758,-264.6506 758,-234 758,-234 758,-234 758,-178 758,-138.1657 779.8226,-94.3859 790.393,-75.5166"/>
<polygon fill="#191970" stroke="#191970" points="692.351,-329.1953 684.6566,-336.4786 695.2135,-335.5833 692.351,-329.1953"/>
</g>
<!-- Node19 -->
<g id="node16" class="node">
<title>Node19</title>
<g id="a_node16"><a xlink:href="api_2spec_2classification_8h.html" target="_top" xlink:title="ODP classification descriptor. ">
<polygon fill="#ffffff" stroke="#000000" points="514,-280.5 514,-299.5 596,-299.5 596,-280.5 514,-280.5"/>
<text text-anchor="middle" x="555" y="-287.5" font-family="Helvetica,sans-Serif" font-size="10.00" fill="#000000">classification.h</text>
</a>
</g>
</g>
<!-- Node18&#45;&gt;Node19 -->
<g id="edge16" class="edge">
<title>Node18&#45;&gt;Node19</title>
<path fill="none" stroke="#191970" d="M630.266,-331.3225C612.0468,-321.3198 588.4402,-308.3593 572.5634,-299.6427"/>
<polygon fill="#191970" stroke="#191970" points="628.7827,-334.5009 639.233,-336.2455 632.1516,-328.3649 628.7827,-334.5009"/>
</g>
<!-- Node20 -->
<g id="node17" class="node">
<title>Node20</title>
<g id="a_node17"><a xlink:href="api_2spec_2traffic__mngr_8h.html" target="_top" xlink:title="Copyright (c) 2015&#45;2018, Linaro Limited All rights reserved. ">
<polygon fill="#ffffff" stroke="#000000" points="652.5,-280.5 652.5,-299.5 729.5,-299.5 729.5,-280.5 652.5,-280.5"/>
<text text-anchor="middle" x="691" y="-287.5" font-family="Helvetica,sans-Serif" font-size="10.00" fill="#000000">traffic_mngr.h</text>
</a>
</g>
</g>
<!-- Node18&#45;&gt;Node20 -->
<g id="edge19" class="edge">
<title>Node18&#45;&gt;Node20</title>
<path fill="none" stroke="#191970" d="M668.1535,-327.6296C673.8247,-318.2887 680.4845,-307.3197 685.1455,-299.6427"/>
<polygon fill="#191970" stroke="#191970" points="665.1204,-325.8812 662.9223,-336.2455 671.1039,-329.5141 665.1204,-325.8812"/>
</g>
<!-- Node19&#45;&gt;Node13 -->
<g id="edge17" class="edge">
<title>Node19&#45;&gt;Node13</title>
<path fill="none" stroke="#191970" d="M555,-270.1575C555,-261.155 555,-250.9199 555,-243.6427"/>
<polygon fill="#191970" stroke="#191970" points="551.5001,-270.2455 555,-280.2455 558.5001,-270.2456 551.5001,-270.2455"/>
</g>
<!-- Node21 -->
<g id="node18" class="node">
<title>Node21</title>
<g id="a_node18"><a xlink:href="api_2traffic__mngr_8h.html" target="_top" xlink:title="ODP Traffic manager. ">
<polygon fill="#ffffff" stroke="#000000" points="652.5,-224.5 652.5,-243.5 729.5,-243.5 729.5,-224.5 652.5,-224.5"/>
<text text-anchor="middle" x="691" y="-231.5" font-family="Helvetica,sans-Serif" font-size="10.00" fill="#000000">traffic_mngr.h</text>
</a>
</g>
</g>
<!-- Node20&#45;&gt;Node21 -->
<g id="edge20" class="edge">
<title>Node20&#45;&gt;Node21</title>
<path fill="none" stroke="#191970" d="M691,-270.1575C691,-261.155 691,-250.9199 691,-243.6427"/>
<polygon fill="#191970" stroke="#191970" points="687.5001,-270.2455 691,-280.2455 694.5001,-270.2456 687.5001,-270.2455"/>
</g>
<!-- Node21&#45;&gt;Node14 -->
<g id="edge21" class="edge">
<title>Node21&#45;&gt;Node14</title>
<path fill="none" stroke="#191970" d="M683.0934,-214.7493C679.3383,-205.6064 675.0149,-195.0798 671.9604,-187.6427"/>
<polygon fill="#191970" stroke="#191970" points="679.9569,-216.3251 686.9937,-224.2455 686.432,-213.6656 679.9569,-216.3251"/>
</g>
<!-- Node21&#45;&gt;Node16 -->
<g id="edge22" class="edge">
<title>Node21&#45;&gt;Node16</title>
<path fill="none" stroke="#191970" d="M696.532,-214.5693C704.3475,-189.3005 720.3564,-144.5516 744,-112 754.6251,-97.3718 770.6517,-84.0932 782.1021,-75.6048"/>
<polygon fill="#191970" stroke="#191970" points="693.1027,-213.8218 693.6024,-224.4049 699.8115,-215.8201 693.1027,-213.8218"/>
</g>
<!-- Node23 -->
<g id="node20" class="node">
<title>Node23</title>
<g id="a_node20"><a xlink:href="api_2crypto_8h.html" target="_top" xlink:title="ODP crypto. ">
<polygon fill="#ffffff" stroke="#000000" points="781,-336.5 781,-355.5 833,-355.5 833,-336.5 781,-336.5"/>
<text text-anchor="middle" x="807" y="-343.5" font-family="Helvetica,sans-Serif" font-size="10.00" fill="#000000">crypto.h</text>
</a>
</g>
</g>
<!-- Node22&#45;&gt;Node23 -->
<g id="edge25" class="edge">
<title>Node22&#45;&gt;Node23</title>
<path fill="none" stroke="#191970" d="M795.5275,-494.2601C798.3204,-458.1669 804.155,-382.7656 806.2395,-355.8279"/>
<polygon fill="#191970" stroke="#191970" points="792.0182,-494.246 794.7362,-504.4862 798.9973,-494.7861 792.0182,-494.246"/>
</g>
<!-- Node23&#45;&gt;Node14 -->
<g id="edge26" class="edge">
<title>Node23&#45;&gt;Node14</title>
<path fill="none" stroke="#191970" d="M799.6876,-327.1547C789.0613,-301.556 767.3669,-255.3928 738,-224 723.4959,-208.4953 702.7676,-195.7139 687.6321,-187.5925"/>
<polygon fill="#191970" stroke="#191970" points="796.4577,-328.5039 803.4407,-336.4719 802.9508,-325.8884 796.4577,-328.5039"/>
</g>
<!-- Node23&#45;&gt;Node16 -->
<g id="edge27" class="edge">
<title>Node23&#45;&gt;Node16</title>
<path fill="none" stroke="#191970" d="M814.5614,-326.8019C822.5488,-304.7608 834,-267.3462 834,-234 834,-234 834,-234 834,-178 834,-138.1657 812.1774,-94.3859 801.607,-75.5166"/>
<polygon fill="#191970" stroke="#191970" points="811.2327,-325.71 810.9839,-336.3019 817.7836,-328.177 811.2327,-325.71"/>
</g>
<!-- Node24&#45;&gt;Node18 -->
<g id="edge29" class="edge">
<title>Node24&#45;&gt;Node18</title>
<path fill="none" stroke="#191970" d="M712.2884,-386.2097C698.7647,-376.3743 681.8042,-364.0394 670.2587,-355.6427"/>
<polygon fill="#191970" stroke="#191970" points="710.4416,-389.1944 720.5876,-392.2455 714.5589,-383.5332 710.4416,-389.1944"/>
</g>
<!-- Node26 -->
<g id="node23" class="node">
<title>Node26</title>
<g id="a_node23"><a xlink:href="api_2spec_2queue_8h.html" target="_top" xlink:title="ODP queue. ">
<polygon fill="#ffffff" stroke="#000000" points="838.5,-504.5 838.5,-523.5 889.5,-523.5 889.5,-504.5 838.5,-504.5"/>
<text text-anchor="middle" x="864" y="-511.5" font-family="Helvetica,sans-Serif" font-size="10.00" fill="#000000">queue.h</text>
</a>
</g>
</g>
<!-- Node25&#45;&gt;Node26 -->
<g id="edge31" class="edge">
<title>Node25&#45;&gt;Node26</title>
<path fill="none" stroke="#191970" d="M863.3543,-550.1575C863.5151,-541.155 863.6979,-530.9199 863.8278,-523.6427"/>
<polygon fill="#191970" stroke="#191970" points="859.8534,-550.1846 863.1742,-560.2455 866.8523,-550.3097 859.8534,-550.1846"/>
</g>
<!-- Node27 -->
<g id="node24" class="node">
<title>Node27</title>
<g id="a_node24"><a xlink:href="api_2queue_8h.html" target="_top" xlink:title="ODP queue. ">
<polygon fill="#ffffff" stroke="#000000" points="838.5,-448.5 838.5,-467.5 889.5,-467.5 889.5,-448.5 838.5,-448.5"/>
<text text-anchor="middle" x="864" y="-455.5" font-family="Helvetica,sans-Serif" font-size="10.00" fill="#000000">queue.h</text>
</a>
</g>
</g>
<!-- Node26&#45;&gt;Node27 -->
<g id="edge32" class="edge">
<title>Node26&#45;&gt;Node27</title>
<path fill="none" stroke="#191970" d="M864,-494.1575C864,-485.155 864,-474.9199 864,-467.6427"/>
<polygon fill="#191970" stroke="#191970" points="860.5001,-494.2455 864,-504.2455 867.5001,-494.2456 860.5001,-494.2455"/>
</g>
<!-- Node27&#45;&gt;Node16 -->
<g id="edge38" class="edge">
<title>Node27&#45;&gt;Node16</title>
<path fill="none" stroke="#191970" d="M866.2687,-438.2257C868.634,-415.8706 872,-378.3707 872,-346 872,-346 872,-346 872,-178 872,-133.3528 830.136,-93.2845 808.5499,-75.5918"/>
<polygon fill="#191970" stroke="#191970" points="862.761,-438.1052 865.1462,-448.4281 869.719,-438.8709 862.761,-438.1052"/>
</g>
<!-- Node27&#45;&gt;Node23 -->
<g id="edge33" class="edge">
<title>Node27&#45;&gt;Node23</title>
<path fill="none" stroke="#191970" d="M854.4575,-439.2498C842.1642,-415.0946 821.2603,-374.0202 811.8475,-355.5249"/>
<polygon fill="#191970" stroke="#191970" points="851.4852,-441.1262 859.1402,-448.4509 857.7238,-437.9512 851.4852,-441.1262"/>
</g>
<!-- Node27&#45;&gt;Node24 -->
<g id="edge34" class="edge">
<title>Node27&#45;&gt;Node24</title>
<path fill="none" stroke="#191970" d="M832.3898,-444.3833C808.7465,-434.1985 777.0124,-420.5284 756.0562,-411.5011"/>
<polygon fill="#191970" stroke="#191970" points="831.0834,-447.6314 841.6522,-448.3733 833.8528,-441.2025 831.0834,-447.6314"/>
</g>
<!-- Node28 -->
<g id="node25" class="node">
<title>Node28</title>
<g id="a_node25"><a xlink:href="api_2spec_2schedule_8h.html" target="_top" xlink:title="ODP schedule. ">
<polygon fill="#ffffff" stroke="#000000" points="900,-392.5 900,-411.5 964,-411.5 964,-392.5 900,-392.5"/>
<text text-anchor="middle" x="932" y="-399.5" font-family="Helvetica,sans-Serif" font-size="10.00" fill="#000000">schedule.h</text>
</a>
</g>
</g>
<!-- Node27&#45;&gt;Node28 -->
<g id="edge35" class="edge">
<title>Node27&#45;&gt;Node28</title>
<path fill="none" stroke="#191970" d="M883.8596,-441.645C895.6858,-431.9058 910.2892,-419.8795 920.291,-411.6427"/>
<polygon fill="#191970" stroke="#191970" points="881.339,-439.1867 875.8447,-448.2455 885.789,-444.5902 881.339,-439.1867"/>
</g>
<!-- Node29 -->
<g id="node26" class="node">
<title>Node29</title>
<g id="a_node26"><a xlink:href="api_2schedule_8h.html" target="_top" xlink:title="ODP schedule. ">
<polygon fill="#ffffff" stroke="#000000" points="900,-168.5 900,-187.5 964,-187.5 964,-168.5 900,-168.5"/>
<text text-anchor="middle" x="932" y="-175.5" font-family="Helvetica,sans-Serif" font-size="10.00" fill="#000000">schedule.h</text>
</a>
</g>
</g>
<!-- Node28&#45;&gt;Node29 -->
<g id="edge36" class="edge">
<title>Node28&#45;&gt;Node29</title>
<path fill="none" stroke="#191970" d="M932,-382.1177C932,-335.6713 932,-221.4223 932,-187.5891"/>
<polygon fill="#191970" stroke="#191970" points="928.5001,-382.375 932,-392.375 935.5001,-382.375 928.5001,-382.375"/>
</g>
<!-- Node29&#45;&gt;Node16 -->
<g id="edge37" class="edge">
<title>Node29&#45;&gt;Node16</title>
<path fill="none" stroke="#191970" d="M922.373,-159.4134C914.2114,-145.0534 901.393,-125.4274 886,-112 867.3548,-95.7357 841.946,-83.433 822.8804,-75.6618"/>
<polygon fill="#191970" stroke="#191970" points="919.3963,-161.2656 927.2538,-168.3727 925.5433,-157.9168 919.3963,-161.2656"/>
</g>
</g>
</svg>
