<?xml version="1.0" encoding="UTF-8" standalone="no"?>
<!DOCTYPE svg PUBLIC "-//W3C//DTD SVG 1.1//EN"
 "http://www.w3.org/Graphics/SVG/1.1/DTD/svg11.dtd">
<!-- Generated by graphviz version 2.40.1 (20161225.0304)
 -->
<!-- Title: arch Pages: 1 -->
<svg width="730pt" height="159pt"
 viewBox="0.00 0.00 730.00 159.00" xmlns="http://www.w3.org/2000/svg" xmlns:xlink="http://www.w3.org/1999/xlink">
<g id="graph0" class="graph" transform="scale(1 1) rotate(0) translate(4 155)">
<title>arch</title>
<polygon fill="#ffffff" stroke="transparent" points="-4,4 -4,-155 726,-155 726,4 -4,4"/>
<g id="clust1" class="cluster">
<title>clusterdir_a97ec78d987d17ef5986981beb9a2005</title>
<g id="a_clust1"><a xlink:href="dir_a97ec78d987d17ef5986981beb9a2005.html" target="_top" xlink:title="odp">
<polygon fill="#ddddee" stroke="#000000" points="8,-56 8,-143 714,-143 714,-56 8,-56"/>
<text text-anchor="middle" x="361" y="-131" font-family="Helvetica,sans-Serif" font-size="10.00" fill="#000000">odp</text>
</a>
</g>
</g>
<g id="clust2" class="cluster">
<title>clusterdir_4eda4fd55dd0f0d3e72752e79818319a</title>
<g id="a_clust2"><a xlink:href="dir_4eda4fd55dd0f0d3e72752e79818319a.html" target="_top">
<polygon fill="#eeeeff" stroke="#000000" points="16,-64 16,-116 706,-116 706,-64 16,-64"/>
</a>
</g>
</g>
<!-- dir_4eda4fd55dd0f0d3e72752e79818319a -->
<g id="node1" class="node">
<title>dir_4eda4fd55dd0f0d3e72752e79818319a</title>
<text text-anchor="middle" x="671" y="-87.5" font-family="Helvetica,sans-Serif" font-size="10.00" fill="#000000">arch</text>
</g>
<!-- dir_052e7602a29a4e1039e7de666bce86ca -->
<g id="node2" class="node">
<title>dir_052e7602a29a4e1039e7de666bce86ca</title>
<g id="a_node2"><a xlink:href="dir_052e7602a29a4e1039e7de666bce86ca.html" target="_top" xlink:title="arm32&#45;linux">
<polygon fill="#ffffff" stroke="#ff0000" points="625.5,-108 558.5,-108 558.5,-72 625.5,-72 625.5,-108"/>
<text text-anchor="middle" x="592" y="-87.5" font-family="Helvetica,sans-Serif" font-size="10.00" fill="#000000">arm32&#45;linux</text>
</a>
</g>
</g>
<!-- dir_be9f6d876b8eda462084eff1b3ea4553 -->
<g id="node9" class="node">
<title>dir_be9f6d876b8eda462084eff1b3ea4553</title>
<g id="a_node9"><a xlink:href="dir_be9f6d876b8eda462084eff1b3ea4553.html" target="_top" xlink:title="api">
<polygon fill="#ffffff" stroke="#ff0000" points="360,-36 306,-36 306,0 360,0 360,-36"/>
<text text-anchor="middle" x="333" y="-15.5" font-family="Helvetica,sans-Serif" font-size="10.00" fill="#000000">api</text>
</a>
</g>
</g>
<!-- dir_052e7602a29a4e1039e7de666bce86ca&#45;&gt;dir_be9f6d876b8eda462084eff1b3ea4553 -->
<g id="edge7" class="edge">
<title>dir_052e7602a29a4e1039e7de666bce86ca&#45;&gt;dir_be9f6d876b8eda462084eff1b3ea4553</title>
<path fill="none" stroke="#000000" d="M573.7322,-71.8385C566.816,-65.9225 558.5393,-59.8847 550,-56 518.586,-41.7091 423.622,-28.6825 370.3195,-22.2397"/>
<polygon fill="#000000" stroke="#000000" points="370.5893,-18.7472 360.2457,-21.0405 369.7618,-25.6981 370.5893,-18.7472"/>
<g id="a_edge7&#45;headlabel"><a xlink:href="dir_000006_000002.html" target="_top" xlink:title="27">
<text text-anchor="middle" x="374.4943" y="-13.8527" font-family="Helvetica,sans-Serif" font-size="10.00" fill="#000000">27</text>
</a>
</g>
</g>
<!-- dir_70eaa2f41713610ea0cf8498c63ac358 -->
<g id="node3" class="node">
<title>dir_70eaa2f41713610ea0cf8498c63ac358</title>
<g id="a_node3"><a xlink:href="dir_70eaa2f41713610ea0cf8498c63ac358.html" target="_top" xlink:title="arm64&#45;linux">
<polygon fill="#ffffff" stroke="#ff0000" points="540.5,-108 473.5,-108 473.5,-72 540.5,-72 540.5,-108"/>
<text text-anchor="middle" x="507" y="-87.5" font-family="Helvetica,sans-Serif" font-size="10.00" fill="#000000">arm64&#45;linux</text>
</a>
</g>
</g>
<!-- dir_70eaa2f41713610ea0cf8498c63ac358&#45;&gt;dir_be9f6d876b8eda462084eff1b3ea4553 -->
<g id="edge2" class="edge">
<title>dir_70eaa2f41713610ea0cf8498c63ac358&#45;&gt;dir_be9f6d876b8eda462084eff1b3ea4553</title>
<path fill="none" stroke="#000000" d="M488.0694,-71.9883C481.2189,-66.2272 473.1531,-60.2489 465,-56 434.9026,-40.3152 397.4735,-30.3255 370.1664,-24.5463"/>
<polygon fill="#000000" stroke="#000000" points="370.7285,-21.0891 360.2327,-22.5344 369.339,-27.9498 370.7285,-21.0891"/>
<g id="a_edge2&#45;headlabel"><a xlink:href="dir_000010_000002.html" target="_top" xlink:title="27">
<text text-anchor="middle" x="374.8152" y="-16.5198" font-family="Helvetica,sans-Serif" font-size="10.00" fill="#000000">27</text>
</a>
</g>
</g>
<!-- dir_48117faa50f292645806ea8fb70008d8 -->
<g id="node4" class="node">
<title>dir_48117faa50f292645806ea8fb70008d8</title>
<g id="a_node4"><a xlink:href="dir_48117faa50f292645806ea8fb70008d8.html" target="_top" xlink:title="default&#45;linux">
<polygon fill="#ffffff" stroke="#ff0000" points="455.5,-108 386.5,-108 386.5,-72 455.5,-72 455.5,-108"/>
<text text-anchor="middle" x="421" y="-87.5" font-family="Helvetica,sans-Serif" font-size="10.00" fill="#000000">default&#45;linux</text>
</a>
</g>
</g>
<!-- dir_48117faa50f292645806ea8fb70008d8&#45;&gt;dir_be9f6d876b8eda462084eff1b3ea4553 -->
<g id="edge4" class="edge">
<title>dir_48117faa50f292645806ea8fb70008d8&#45;&gt;dir_be9f6d876b8eda462084eff1b3ea4553</title>
<path fill="none" stroke="#000000" d="M398.7939,-71.8314C387.955,-62.9632 374.7556,-52.1637 363.0322,-42.5718"/>
<polygon fill="#000000" stroke="#000000" points="365.155,-39.7864 355.199,-36.1628 360.7223,-45.2041 365.155,-39.7864"/>
<g id="a_edge4&#45;headlabel"><a xlink:href="dir_000014_000002.html" target="_top" xlink:title="27">
<text text-anchor="middle" x="369.7349" y="-37.3651" font-family="Helvetica,sans-Serif" font-size="10.00" fill="#000000">27</text>
</a>
</g>
</g>
<!-- dir_178cc946f187f307d85774a5fd402eaa -->
<g id="node5" class="node">
<title>dir_178cc946f187f307d85774a5fd402eaa</title>
<g id="a_node5"><a xlink:href="dir_178cc946f187f307d85774a5fd402eaa.html" target="_top" xlink:title="mips64&#45;linux">
<polygon fill="#ffffff" stroke="#ff0000" points="368.5,-108 297.5,-108 297.5,-72 368.5,-72 368.5,-108"/>
<text text-anchor="middle" x="333" y="-87.5" font-family="Helvetica,sans-Serif" font-size="10.00" fill="#000000">mips64&#45;linux</text>
</a>
</g>
</g>
<!-- dir_178cc946f187f307d85774a5fd402eaa&#45;&gt;dir_be9f6d876b8eda462084eff1b3ea4553 -->
<g id="edge6" class="edge">
<title>dir_178cc946f187f307d85774a5fd402eaa&#45;&gt;dir_be9f6d876b8eda462084eff1b3ea4553</title>
<path fill="none" stroke="#000000" d="M333,-71.8314C333,-64.131 333,-54.9743 333,-46.4166"/>
<polygon fill="#000000" stroke="#000000" points="336.5001,-46.4132 333,-36.4133 329.5001,-46.4133 336.5001,-46.4132"/>
<g id="a_edge6&#45;headlabel"><a xlink:href="dir_000018_000002.html" target="_top" xlink:title="27">
<text text-anchor="middle" x="339.3393" y="-47.5079" font-family="Helvetica,sans-Serif" font-size="10.00" fill="#000000">27</text>
</a>
</g>
</g>
<!-- dir_03c05aea247c636c5180e1c14df87c04 -->
<g id="node6" class="node">
<title>dir_03c05aea247c636c5180e1c14df87c04</title>
<g id="a_node6"><a xlink:href="dir_03c05aea247c636c5180e1c14df87c04.html" target="_top" xlink:title="power64&#45;linux">
<polygon fill="#ffffff" stroke="#ff0000" points="279.5,-108 202.5,-108 202.5,-72 279.5,-72 279.5,-108"/>
<text text-anchor="middle" x="241" y="-87.5" font-family="Helvetica,sans-Serif" font-size="10.00" fill="#000000">power64&#45;linux</text>
</a>
</g>
</g>
<!-- dir_03c05aea247c636c5180e1c14df87c04&#45;&gt;dir_be9f6d876b8eda462084eff1b3ea4553 -->
<g id="edge5" class="edge">
<title>dir_03c05aea247c636c5180e1c14df87c04&#45;&gt;dir_be9f6d876b8eda462084eff1b3ea4553</title>
<path fill="none" stroke="#000000" d="M264.2155,-71.8314C275.547,-62.9632 289.3464,-52.1637 301.6027,-42.5718"/>
<polygon fill="#000000" stroke="#000000" points="304.074,-45.0822 309.7919,-36.1628 299.7598,-39.5697 304.074,-45.0822"/>
<g id="a_edge5&#45;headlabel"><a xlink:href="dir_000022_000002.html" target="_top" xlink:title="27">
<text text-anchor="middle" x="302.9931" y="-47.0335" font-family="Helvetica,sans-Serif" font-size="10.00" fill="#000000">27</text>
</a>
</g>
</g>
<!-- dir_8bf6b7e80d8919b75edbcc15956e61d9 -->
<g id="node7" class="node">
<title>dir_8bf6b7e80d8919b75edbcc15956e61d9</title>
<g id="a_node7"><a xlink:href="dir_8bf6b7e80d8919b75edbcc15956e61d9.html" target="_top" xlink:title="x86_32&#45;linux">
<polygon fill="#ffffff" stroke="#ff0000" points="184.5,-108 113.5,-108 113.5,-72 184.5,-72 184.5,-108"/>
<text text-anchor="middle" x="149" y="-87.5" font-family="Helvetica,sans-Serif" font-size="10.00" fill="#000000">x86_32&#45;linux</text>
</a>
</g>
</g>
<!-- dir_8bf6b7e80d8919b75edbcc15956e61d9&#45;&gt;dir_be9f6d876b8eda462084eff1b3ea4553 -->
<g id="edge1" class="edge">
<title>dir_8bf6b7e80d8919b75edbcc15956e61d9&#45;&gt;dir_be9f6d876b8eda462084eff1b3ea4553</title>
<path fill="none" stroke="#000000" d="M169.4246,-71.9712C176.7758,-66.2087 185.3886,-60.2339 194,-56 226.5921,-39.9757 266.9189,-29.9056 295.7272,-24.1896"/>
<polygon fill="#000000" stroke="#000000" points="296.6136,-27.5839 305.784,-22.2778 295.3062,-20.707 296.6136,-27.5839"/>
<g id="a_edge1&#45;headlabel"><a xlink:href="dir_000026_000002.html" target="_top" xlink:title="27">
<text text-anchor="middle" x="293.6124" y="-28.5445" font-family="Helvetica,sans-Serif" font-size="10.00" fill="#000000">27</text>
</a>
</g>
</g>
<!-- dir_e8c392aee706068680f6562db90ecbae -->
<g id="node8" class="node">
<title>dir_e8c392aee706068680f6562db90ecbae</title>
<g id="a_node8"><a xlink:href="dir_e8c392aee706068680f6562db90ecbae.html" target="_top" xlink:title="x86_64&#45;linux">
<polygon fill="#ffffff" stroke="#ff0000" points="95.5,-108 24.5,-108 24.5,-72 95.5,-72 95.5,-108"/>
<text text-anchor="middle" x="60" y="-87.5" font-family="Helvetica,sans-Serif" font-size="10.00" fill="#000000">x86_64&#45;linux</text>
</a>
</g>
</g>
<!-- dir_e8c392aee706068680f6562db90ecbae&#45;&gt;dir_be9f6d876b8eda462084eff1b3ea4553 -->
<g id="edge3" class="edge">
<title>dir_e8c392aee706068680f6562db90ecbae&#45;&gt;dir_be9f6d876b8eda462084eff1b3ea4553</title>
<path fill="none" stroke="#000000" d="M79.7441,-71.8199C87.1705,-65.9021 96.0046,-59.868 105,-56 138.5945,-41.5544 239.9155,-28.4172 295.5028,-22.0471"/>
<polygon fill="#000000" stroke="#000000" points="296.1061,-25.5014 305.6502,-20.9013 295.3206,-18.5456 296.1061,-25.5014"/>
<g id="a_edge3&#45;headlabel"><a xlink:href="dir_000030_000002.html" target="_top" xlink:title="27">
<text text-anchor="middle" x="292.8528" y="-26.226" font-family="Helvetica,sans-Serif" font-size="10.00" fill="#000000">27</text>
</a>
</g>
</g>
</g>
</svg>
