<?xml version="1.0" encoding="UTF-8" standalone="no"?>
<!DOCTYPE svg PUBLIC "-//W3C//DTD SVG 1.1//EN"
 "http://www.w3.org/Graphics/SVG/1.1/DTD/svg11.dtd">
<!-- Generated by graphviz version 2.40.1 (20161225.0304)
 -->
<!-- Title: odp.h Pages: 1 -->
<svg width="4745pt" height="252pt"
 viewBox="0.00 0.00 4745.00 252.00" xmlns="http://www.w3.org/2000/svg" xmlns:xlink="http://www.w3.org/1999/xlink">
<g id="graph0" class="graph" transform="scale(1 1) rotate(0) translate(4 248)">
<title>odp.h</title>
<polygon fill="#ffffff" stroke="transparent" points="-4,4 -4,-248 4741,-248 4741,4 -4,4"/>
<!-- Node0 -->
<g id="node1" class="node">
<title>Node0</title>
<polygon fill="#bfbfbf" stroke="#000000" points="2175,-224.5 2175,-243.5 2216,-243.5 2216,-224.5 2175,-224.5"/>
<text text-anchor="middle" x="2195.5" y="-231.5" font-family="Helvetica,sans-Serif" font-size="10.00" fill="#000000">odp.h</text>
</g>
<!-- Node1 -->
<g id="node2" class="node">
<title>Node1</title>
<g id="a_node2"><a xlink:href="odp__api_8h.html" target="_top" xlink:title="The OpenDataPlane API. ">
<polygon fill="#ffffff" stroke="#000000" points="2166,-168.5 2166,-187.5 2225,-187.5 2225,-168.5 2166,-168.5"/>
<text text-anchor="middle" x="2195.5" y="-175.5" font-family="Helvetica,sans-Serif" font-size="10.00" fill="#000000">odp_api.h</text>
</a>
</g>
</g>
<!-- Node0&#45;&gt;Node1 -->
<g id="edge1" class="edge">
<title>Node0&#45;&gt;Node1</title>
<path fill="none" stroke="#191970" d="M2195.5,-224.2455C2195.5,-216.9382 2195.5,-206.6944 2195.5,-197.7046"/>
<polygon fill="#191970" stroke="#191970" points="2199.0001,-197.6426 2195.5,-187.6427 2192.0001,-197.6427 2199.0001,-197.6426"/>
</g>
<!-- Node2 -->
<g id="node3" class="node">
<title>Node2</title>
<g id="a_node3"><a xlink:href="deprecated_8h.html" target="_top" xlink:title="Control deprecated API definitions. ">
<polygon fill="#ffffff" stroke="#000000" points="87,-112.5 87,-131.5 194,-131.5 194,-112.5 87,-112.5"/>
<text text-anchor="middle" x="140.5" y="-119.5" font-family="Helvetica,sans-Serif" font-size="10.00" fill="#000000">odp/api/deprecated.h</text>
</a>
</g>
</g>
<!-- Node1&#45;&gt;Node2 -->
<g id="edge2" class="edge">
<title>Node1&#45;&gt;Node2</title>
<path fill="none" stroke="#191970" d="M2165.882,-177.8396C1988.1523,-176.7631 1044.9919,-169.4411 276.5,-132 252.9179,-130.8511 227.0703,-129.0797 204.301,-127.3453"/>
<polygon fill="#191970" stroke="#191970" points="204.3156,-123.836 194.0752,-126.5533 203.7751,-130.8151 204.3156,-123.836"/>
</g>
<!-- Node6 -->
<g id="node5" class="node">
<title>Node6</title>
<g id="a_node5"><a xlink:href="api_2version_8h.html" target="_top" xlink:title="ODP version. ">
<polygon fill="#ffffff" stroke="#000000" points="286,-112.5 286,-131.5 377,-131.5 377,-112.5 286,-112.5"/>
<text text-anchor="middle" x="331.5" y="-119.5" font-family="Helvetica,sans-Serif" font-size="10.00" fill="#000000">odp/api/version.h</text>
</a>
</g>
</g>
<!-- Node1&#45;&gt;Node6 -->
<g id="edge4" class="edge">
<title>Node1&#45;&gt;Node6</title>
<path fill="none" stroke="#191970" d="M2165.8102,-177.7633C1998.1,-176.3113 1152.3245,-167.4625 462.5,-132 437.7958,-130.73 410.5124,-128.7414 387.2688,-126.8709"/>
<polygon fill="#191970" stroke="#191970" points="387.4886,-123.3773 377.2367,-126.051 386.9184,-130.354 387.4886,-123.3773"/>
</g>
<!-- Node9 -->
<g id="node8" class="node">
<title>Node9</title>
<g id="a_node8"><a xlink:href="api_2std__types_8h.html" target="_top" xlink:title="Standard C language types and definitions for ODP. ">
<polygon fill="#ffffff" stroke="#ff0000" points="922.5,-.5 922.5,-19.5 1024.5,-19.5 1024.5,-.5 922.5,-.5"/>
<text text-anchor="middle" x="973.5" y="-7.5" font-family="Helvetica,sans-Serif" font-size="10.00" fill="#000000">odp/api/std_types.h</text>
</a>
</g>
</g>
<!-- Node1&#45;&gt;Node9 -->
<g id="edge7" class="edge">
<title>Node1&#45;&gt;Node9</title>
<path fill="none" stroke="#191970" d="M2165.7779,-177.6874C1987.8795,-175.7103 1070.0552,-163.9832 1020.5,-132 986.1389,-109.8231 976.8638,-58.4301 974.3838,-29.9316"/>
<polygon fill="#191970" stroke="#191970" points="977.8523,-29.3387 973.6979,-19.5924 970.8677,-29.8021 977.8523,-29.3387"/>
</g>
<!-- Node13 -->
<g id="node9" class="node">
<title>Node13</title>
<g id="a_node9"><a xlink:href="api_2align_8h.html" target="_top" xlink:title="ODP alignments. ">
<polygon fill="#ffffff" stroke="#ff0000" points="1361.5,-112.5 1361.5,-131.5 1441.5,-131.5 1441.5,-112.5 1361.5,-112.5"/>
<text text-anchor="middle" x="1401.5" y="-119.5" font-family="Helvetica,sans-Serif" font-size="10.00" fill="#000000">odp/api/align.h</text>
</a>
</g>
</g>
<!-- Node1&#45;&gt;Node13 -->
<g id="edge8" class="edge">
<title>Node1&#45;&gt;Node13</title>
<path fill="none" stroke="#191970" d="M2165.8989,-177.6544C2066.4139,-176.1816 1734.9213,-168.7492 1451.5924,-131.9654"/>
<polygon fill="#191970" stroke="#191970" points="1451.905,-128.4765 1441.5343,-130.6445 1450.9934,-135.4169 1451.905,-128.4765"/>
</g>
<!-- Node16 -->
<g id="node10" class="node">
<title>Node16</title>
<g id="a_node10"><a xlink:href="api_2hash_8h.html" target="_top" xlink:title="ODP Hash function. ">
<polygon fill="#ffffff" stroke="#ff0000" points="1459.5,-112.5 1459.5,-131.5 1539.5,-131.5 1539.5,-112.5 1459.5,-112.5"/>
<text text-anchor="middle" x="1499.5" y="-119.5" font-family="Helvetica,sans-Serif" font-size="10.00" fill="#000000">odp/api/hash.h</text>
</a>
</g>
</g>
<!-- Node1&#45;&gt;Node16 -->
<g id="edge9" class="edge">
<title>Node1&#45;&gt;Node16</title>
<path fill="none" stroke="#191970" d="M2165.6925,-177.2621C2074.7721,-174.72 1792.8755,-164.6823 1549.6307,-131.9865"/>
<polygon fill="#191970" stroke="#191970" points="1549.919,-128.4936 1539.5385,-130.6138 1548.9755,-135.4297 1549.919,-128.4936"/>
</g>
<!-- Node19 -->
<g id="node11" class="node">
<title>Node19</title>
<g id="a_node11"><a xlink:href="chksum_8h.html" target="_top" xlink:title="ODP checksum functions. ">
<polygon fill="#ffffff" stroke="#ff0000" points="1557.5,-112.5 1557.5,-131.5 1651.5,-131.5 1651.5,-112.5 1557.5,-112.5"/>
<text text-anchor="middle" x="1604.5" y="-119.5" font-family="Helvetica,sans-Serif" font-size="10.00" fill="#000000">odp/api/chksum.h</text>
</a>
</g>
</g>
<!-- Node1&#45;&gt;Node19 -->
<g id="edge10" class="edge">
<title>Node1&#45;&gt;Node19</title>
<path fill="none" stroke="#191970" d="M2165.8186,-176.3982C2086.0008,-171.8892 1859.9515,-157.793 1661.5301,-132.0285"/>
<polygon fill="#191970" stroke="#191970" points="1661.8757,-128.5439 1651.5054,-130.7137 1660.9653,-135.4845 1661.8757,-128.5439"/>
</g>
<!-- Node21 -->
<g id="node12" class="node">
<title>Node21</title>
<g id="a_node12"><a xlink:href="api_2comp_8h.html" target="_top" xlink:title="ODP crypto. ">
<polygon fill="#ffffff" stroke="#ff0000" points="1670,-112.5 1670,-131.5 1753,-131.5 1753,-112.5 1670,-112.5"/>
<text text-anchor="middle" x="1711.5" y="-119.5" font-family="Helvetica,sans-Serif" font-size="10.00" fill="#000000">odp/api/comp.h</text>
</a>
</g>
</g>
<!-- Node1&#45;&gt;Node21 -->
<g id="edge11" class="edge">
<title>Node1&#45;&gt;Node21</title>
<path fill="none" stroke="#191970" d="M2165.985,-175.7639C2097.304,-170.369 1921.278,-155.4394 1763.5576,-132.0389"/>
<polygon fill="#191970" stroke="#191970" points="1763.6051,-128.5069 1753.1966,-130.4853 1762.567,-135.4295 1763.6051,-128.5069"/>
</g>
<!-- Node37 -->
<g id="node13" class="node">
<title>Node37</title>
<g id="a_node13"><a xlink:href="hints_8h.html" target="_top" xlink:title="ODP compiler hints. ">
<polygon fill="#ffffff" stroke="#ff0000" points="1771.5,-112.5 1771.5,-131.5 1851.5,-131.5 1851.5,-112.5 1771.5,-112.5"/>
<text text-anchor="middle" x="1811.5" y="-119.5" font-family="Helvetica,sans-Serif" font-size="10.00" fill="#000000">odp/api/hints.h</text>
</a>
</g>
</g>
<!-- Node1&#45;&gt;Node37 -->
<g id="edge12" class="edge">
<title>Node1&#45;&gt;Node37</title>
<path fill="none" stroke="#191970" d="M2165.8248,-174.5811C2108.8649,-167.8778 1980.0667,-152.0408 1861.5415,-132.0905"/>
<polygon fill="#191970" stroke="#191970" points="1862.0163,-128.6211 1851.5716,-130.3983 1860.8449,-135.5224 1862.0163,-128.6211"/>
</g>
<!-- Node39 -->
<g id="node14" class="node">
<title>Node39</title>
<g id="a_node14"><a xlink:href="api_2debug_8h.html" target="_top" xlink:title="ODP debug. ">
<polygon fill="#ffffff" stroke="#ff0000" points="1869.5,-112.5 1869.5,-131.5 1955.5,-131.5 1955.5,-112.5 1869.5,-112.5"/>
<text text-anchor="middle" x="1912.5" y="-119.5" font-family="Helvetica,sans-Serif" font-size="10.00" fill="#000000">odp/api/debug.h</text>
</a>
</g>
</g>
<!-- Node1&#45;&gt;Node39 -->
<g id="edge13" class="edge">
<title>Node1&#45;&gt;Node39</title>
<path fill="none" stroke="#191970" d="M2165.7489,-172.1129C2118.2593,-162.7156 2024.6631,-144.1948 1965.5174,-132.4911"/>
<polygon fill="#191970" stroke="#191970" points="1966.1031,-129.0392 1955.6139,-130.5314 1964.7442,-135.906 1966.1031,-129.0392"/>
</g>
<!-- Node42 -->
<g id="node15" class="node">
<title>Node42</title>
<g id="a_node15"><a xlink:href="api_2byteorder_8h.html" target="_top" xlink:title="ODP byteorder. ">
<polygon fill="#ffffff" stroke="#ff0000" points="1973.5,-112.5 1973.5,-131.5 2073.5,-131.5 2073.5,-112.5 1973.5,-112.5"/>
<text text-anchor="middle" x="2023.5" y="-119.5" font-family="Helvetica,sans-Serif" font-size="10.00" fill="#000000">odp/api/byteorder.h</text>
</a>
</g>
</g>
<!-- Node1&#45;&gt;Node42 -->
<g id="edge14" class="edge">
<title>Node1&#45;&gt;Node42</title>
<path fill="none" stroke="#191970" d="M2165.9321,-168.3733C2137.3312,-159.0613 2093.8212,-144.8953 2062.4181,-134.671"/>
<polygon fill="#191970" stroke="#191970" points="2063.2743,-131.269 2052.682,-131.5011 2061.1072,-137.9251 2063.2743,-131.269"/>
</g>
<!-- Node45 -->
<g id="node16" class="node">
<title>Node45</title>
<g id="a_node16"><a xlink:href="api_2cpu_8h.html" target="_top" xlink:title="ODP CPU. ">
<polygon fill="#ffffff" stroke="#ff0000" points="2092,-112.5 2092,-131.5 2167,-131.5 2167,-112.5 2092,-112.5"/>
<text text-anchor="middle" x="2129.5" y="-119.5" font-family="Helvetica,sans-Serif" font-size="10.00" fill="#000000">odp/api/cpu.h</text>
</a>
</g>
</g>
<!-- Node1&#45;&gt;Node45 -->
<g id="edge15" class="edge">
<title>Node1&#45;&gt;Node45</title>
<path fill="none" stroke="#191970" d="M2184.0037,-168.2455C2174.2558,-159.9746 2160.0741,-147.9416 2148.6202,-138.2232"/>
<polygon fill="#191970" stroke="#191970" points="2150.7541,-135.4437 2140.8646,-131.6427 2146.2253,-140.7813 2150.7541,-135.4437"/>
</g>
<!-- Node47 -->
<g id="node17" class="node">
<title>Node47</title>
<g id="a_node17"><a xlink:href="api_2thread_8h.html" target="_top" xlink:title="ODP thread API. ">
<polygon fill="#ffffff" stroke="#ff0000" points="2119.5,-56.5 2119.5,-75.5 2205.5,-75.5 2205.5,-56.5 2119.5,-56.5"/>
<text text-anchor="middle" x="2162.5" y="-63.5" font-family="Helvetica,sans-Serif" font-size="10.00" fill="#000000">odp/api/thread.h</text>
</a>
</g>
</g>
<!-- Node1&#45;&gt;Node47 -->
<g id="edge27" class="edge">
<title>Node1&#45;&gt;Node47</title>
<path fill="none" stroke="#191970" d="M2192.6864,-168.4509C2187.2798,-150.1013 2175.3437,-109.5908 2168.207,-85.3693"/>
<polygon fill="#191970" stroke="#191970" points="2171.4901,-84.128 2165.3064,-75.5249 2164.7755,-86.1064 2171.4901,-84.128"/>
</g>
<!-- Node52 -->
<g id="node18" class="node">
<title>Node52</title>
<g id="a_node18"><a xlink:href="api_2cpumask_8h.html" target="_top" xlink:title="ODP CPU masks and enumeration. ">
<polygon fill="#ffffff" stroke="#ff0000" points="2224,-112.5 2224,-131.5 2323,-131.5 2323,-112.5 2224,-112.5"/>
<text text-anchor="middle" x="2273.5" y="-119.5" font-family="Helvetica,sans-Serif" font-size="10.00" fill="#000000">odp/api/cpumask.h</text>
</a>
</g>
</g>
<!-- Node1&#45;&gt;Node52 -->
<g id="edge17" class="edge">
<title>Node1&#45;&gt;Node52</title>
<path fill="none" stroke="#191970" d="M2209.0866,-168.2455C2220.8305,-159.814 2238.0199,-147.4729 2251.6882,-137.6598"/>
<polygon fill="#191970" stroke="#191970" points="2253.9871,-140.3179 2260.0691,-131.6427 2249.9046,-134.6316 2253.9871,-140.3179"/>
</g>
<!-- Node55 -->
<g id="node19" class="node">
<title>Node55</title>
<g id="a_node19"><a xlink:href="api_2barrier_8h.html" target="_top" xlink:title="ODP execution barriers. ">
<polygon fill="#ffffff" stroke="#ff0000" points="1039.5,-112.5 1039.5,-131.5 1125.5,-131.5 1125.5,-112.5 1039.5,-112.5"/>
<text text-anchor="middle" x="1082.5" y="-119.5" font-family="Helvetica,sans-Serif" font-size="10.00" fill="#000000">odp/api/barrier.h</text>
</a>
</g>
</g>
<!-- Node1&#45;&gt;Node55 -->
<g id="edge18" class="edge">
<title>Node1&#45;&gt;Node55</title>
<path fill="none" stroke="#191970" d="M2165.8875,-177.2319C2016.7118,-173.2831 1346.5536,-154.5753 1139.5,-132 1138.2359,-131.8622 1136.9575,-131.7135 1135.6693,-131.5555"/>
<polygon fill="#191970" stroke="#191970" points="1136.0589,-128.0762 1125.6756,-130.183 1135.1064,-135.0111 1136.0589,-128.0762"/>
</g>
<!-- Node56 -->
<g id="node20" class="node">
<title>Node56</title>
<g id="a_node20"><a xlink:href="api_2atomic_8h.html" target="_top" xlink:title="ODP atomic operations. ">
<polygon fill="#ffffff" stroke="#ff0000" points="1002,-56.5 1002,-75.5 1091,-75.5 1091,-56.5 1002,-56.5"/>
<text text-anchor="middle" x="1046.5" y="-63.5" font-family="Helvetica,sans-Serif" font-size="10.00" fill="#000000">odp/api/atomic.h</text>
</a>
</g>
</g>
<!-- Node1&#45;&gt;Node56 -->
<g id="edge22" class="edge">
<title>Node1&#45;&gt;Node56</title>
<path fill="none" stroke="#191970" d="M2165.7984,-177.3908C1986.0561,-173.6357 1050.7853,-153.1021 1030.5,-132 1018.4353,-119.4495 1025.6108,-99.4201 1033.8454,-84.7144"/>
<polygon fill="#191970" stroke="#191970" points="1036.9749,-86.3063 1039.2181,-75.9516 1031.0073,-82.6473 1036.9749,-86.3063"/>
</g>
<!-- Node62 -->
<g id="node21" class="node">
<title>Node62</title>
<g id="a_node21"><a xlink:href="api_2spinlock_8h.html" target="_top" xlink:title="ODP spinlock. ">
<polygon fill="#ffffff" stroke="#ff0000" points="2341,-112.5 2341,-131.5 2436,-131.5 2436,-112.5 2341,-112.5"/>
<text text-anchor="middle" x="2388.5" y="-119.5" font-family="Helvetica,sans-Serif" font-size="10.00" fill="#000000">odp/api/spinlock.h</text>
</a>
</g>
</g>
<!-- Node1&#45;&gt;Node62 -->
<g id="edge21" class="edge">
<title>Node1&#45;&gt;Node62</title>
<path fill="none" stroke="#191970" d="M2225.2333,-169.3727C2257.4182,-160.0341 2309.0384,-145.0562 2345.6103,-134.4447"/>
<polygon fill="#191970" stroke="#191970" points="2346.8692,-137.7238 2355.4978,-131.5758 2344.9185,-131.0011 2346.8692,-137.7238"/>
</g>
<!-- Node65 -->
<g id="node22" class="node">
<title>Node65</title>
<g id="a_node22"><a xlink:href="feature_8h.html" target="_top" xlink:title="ODP features. ">
<polygon fill="#ffffff" stroke="#ff0000" points="2454,-112.5 2454,-131.5 2543,-131.5 2543,-112.5 2454,-112.5"/>
<text text-anchor="middle" x="2498.5" y="-119.5" font-family="Helvetica,sans-Serif" font-size="10.00" fill="#000000">odp/api/feature.h</text>
</a>
</g>
</g>
<!-- Node1&#45;&gt;Node65 -->
<g id="edge23" class="edge">
<title>Node1&#45;&gt;Node65</title>
<path fill="none" stroke="#191970" d="M2225.1407,-172.5909C2270.1754,-164.3629 2358.8027,-148.1324 2443.8833,-132.2958"/>
<polygon fill="#191970" stroke="#191970" points="2444.7797,-135.6891 2453.9697,-130.417 2443.4979,-128.8074 2444.7797,-135.6891"/>
</g>
<!-- Node67 -->
<g id="node23" class="node">
<title>Node67</title>
<g id="a_node23"><a xlink:href="api_2init_8h.html" target="_top" xlink:title="ODP initialization. ">
<polygon fill="#ffffff" stroke="#ff0000" points="2561.5,-112.5 2561.5,-131.5 2633.5,-131.5 2633.5,-112.5 2561.5,-112.5"/>
<text text-anchor="middle" x="2597.5" y="-119.5" font-family="Helvetica,sans-Serif" font-size="10.00" fill="#000000">odp/api/init.h</text>
</a>
</g>
</g>
<!-- Node1&#45;&gt;Node67 -->
<g id="edge24" class="edge">
<title>Node1&#45;&gt;Node67</title>
<path fill="none" stroke="#191970" d="M2225.2574,-175.0865C2285.1205,-169.0284 2424.5354,-153.9263 2551.3249,-132.0819"/>
<polygon fill="#191970" stroke="#191970" points="2551.9558,-135.5248 2561.207,-130.361 2550.7547,-128.6286 2551.9558,-135.5248"/>
</g>
<!-- Node70 -->
<g id="node24" class="node">
<title>Node70</title>
<g id="a_node24"><a xlink:href="system__info_8h.html" target="_top" xlink:title="ODP system information. ">
<polygon fill="#ffffff" stroke="#ff0000" points="1148,-56.5 1148,-75.5 1261,-75.5 1261,-56.5 1148,-56.5"/>
<text text-anchor="middle" x="1204.5" y="-63.5" font-family="Helvetica,sans-Serif" font-size="10.00" fill="#000000">odp/api/system_info.h</text>
</a>
</g>
</g>
<!-- Node1&#45;&gt;Node70 -->
<g id="edge25" class="edge">
<title>Node1&#45;&gt;Node70</title>
<path fill="none" stroke="#191970" d="M2165.748,-177.8064C2001.1007,-176.5932 1207.7251,-168.8447 1172.5,-132 1159.1353,-118.0208 1172.8908,-97.3989 1186.2916,-82.9362"/>
<polygon fill="#191970" stroke="#191970" points="1188.9858,-85.1892 1193.5255,-75.6163 1184.0069,-80.2688 1188.9858,-85.1892"/>
</g>
<!-- Node72 -->
<g id="node25" class="node">
<title>Node72</title>
<g id="a_node25"><a xlink:href="api_2shared__memory_8h.html" target="_top" xlink:title="ODP shared memory. ">
<polygon fill="#ffffff" stroke="#ff0000" points="2652,-112.5 2652,-131.5 2781,-131.5 2781,-112.5 2652,-112.5"/>
<text text-anchor="middle" x="2716.5" y="-119.5" font-family="Helvetica,sans-Serif" font-size="10.00" fill="#000000">odp/api/shared_memory.h</text>
</a>
</g>
</g>
<!-- Node1&#45;&gt;Node72 -->
<g id="edge28" class="edge">
<title>Node1&#45;&gt;Node72</title>
<path fill="none" stroke="#191970" d="M2225.0881,-175.283C2295.3067,-168.7651 2477.7459,-151.4204 2641.6707,-132.0653"/>
<polygon fill="#191970" stroke="#191970" points="2642.4234,-135.5006 2651.9415,-130.847 2641.5988,-128.5494 2642.4234,-135.5006"/>
</g>
<!-- Node74 -->
<g id="node26" class="node">
<title>Node74</title>
<g id="a_node26"><a xlink:href="api_2buffer_8h.html" target="_top" xlink:title="ODP buffer descriptor. ">
<polygon fill="#ffffff" stroke="#ff0000" points="1421.5,-56.5 1421.5,-75.5 1505.5,-75.5 1505.5,-56.5 1421.5,-56.5"/>
<text text-anchor="middle" x="1463.5" y="-63.5" font-family="Helvetica,sans-Serif" font-size="10.00" fill="#000000">odp/api/buffer.h</text>
</a>
</g>
</g>
<!-- Node1&#45;&gt;Node74 -->
<g id="edge29" class="edge">
<title>Node1&#45;&gt;Node74</title>
<path fill="none" stroke="#191970" d="M2165.6341,-177.5087C2018.985,-174.9539 1381.033,-162.1324 1352.5,-132 1329.1228,-107.3123 1372.3928,-88.7134 1411.5529,-77.6527"/>
<polygon fill="#191970" stroke="#191970" points="1412.6331,-80.9865 1421.3772,-75.004 1410.8108,-74.2278 1412.6331,-80.9865"/>
</g>
<!-- Node76 -->
<g id="node27" class="node">
<title>Node76</title>
<g id="a_node27"><a xlink:href="api_2pool_8h.html" target="_top" xlink:title="ODP pool. ">
<polygon fill="#ffffff" stroke="#ff0000" points="2799,-112.5 2799,-131.5 2876,-131.5 2876,-112.5 2799,-112.5"/>
<text text-anchor="middle" x="2837.5" y="-119.5" font-family="Helvetica,sans-Serif" font-size="10.00" fill="#000000">odp/api/pool.h</text>
</a>
</g>
</g>
<!-- Node1&#45;&gt;Node76 -->
<g id="edge31" class="edge">
<title>Node1&#45;&gt;Node76</title>
<path fill="none" stroke="#191970" d="M2225.0596,-177.1004C2310.7863,-174.1989 2566.9869,-163.462 2788.649,-132.109"/>
<polygon fill="#191970" stroke="#191970" points="2789.4415,-135.5313 2798.8442,-130.6487 2788.449,-128.602 2789.4415,-135.5313"/>
</g>
<!-- Node78 -->
<g id="node28" class="node">
<title>Node78</title>
<g id="a_node28"><a xlink:href="api_2queue_8h.html" target="_top" xlink:title="ODP queue. ">
<polygon fill="#ffffff" stroke="#ff0000" points="1317.5,-56.5 1317.5,-75.5 1403.5,-75.5 1403.5,-56.5 1317.5,-56.5"/>
<text text-anchor="middle" x="1360.5" y="-63.5" font-family="Helvetica,sans-Serif" font-size="10.00" fill="#000000">odp/api/queue.h</text>
</a>
</g>
</g>
<!-- Node1&#45;&gt;Node78 -->
<g id="edge32" class="edge">
<title>Node1&#45;&gt;Node78</title>
<path fill="none" stroke="#191970" d="M2165.7697,-177.5307C2018.3188,-175.0616 1371.4121,-162.5133 1342.5,-132 1330.4381,-119.2701 1338.2785,-99.2682 1347.0755,-84.618"/>
<polygon fill="#191970" stroke="#191970" points="1350.2393,-86.1758 1352.7948,-75.8938 1344.3851,-82.3379 1350.2393,-86.1758"/>
</g>
<!-- Node86 -->
<g id="node29" class="node">
<title>Node86</title>
<g id="a_node29"><a xlink:href="api_2ticketlock_8h.html" target="_top" xlink:title="ODP ticketlock. ">
<polygon fill="#ffffff" stroke="#ff0000" points="2894,-112.5 2894,-131.5 2995,-131.5 2995,-112.5 2894,-112.5"/>
<text text-anchor="middle" x="2944.5" y="-119.5" font-family="Helvetica,sans-Serif" font-size="10.00" fill="#000000">odp/api/ticketlock.h</text>
</a>
</g>
</g>
<!-- Node1&#45;&gt;Node86 -->
<g id="edge34" class="edge">
<title>Node1&#45;&gt;Node86</title>
<path fill="none" stroke="#191970" d="M2225.1891,-177.0964C2319.8442,-173.9888 2623.103,-162.2829 2883.6685,-132.1192"/>
<polygon fill="#191970" stroke="#191970" points="2884.1725,-135.5842 2893.6983,-130.9464 2883.3595,-128.6316 2884.1725,-135.5842"/>
</g>
<!-- Node34 -->
<g id="node30" class="node">
<title>Node34</title>
<g id="a_node30"><a xlink:href="api_2time_8h.html" target="_top" xlink:title="ODP time. ">
<polygon fill="#ffffff" stroke="#ff0000" points="407.5,-56.5 407.5,-75.5 485.5,-75.5 485.5,-56.5 407.5,-56.5"/>
<text text-anchor="middle" x="446.5" y="-63.5" font-family="Helvetica,sans-Serif" font-size="10.00" fill="#000000">odp/api/time.h</text>
</a>
</g>
</g>
<!-- Node1&#45;&gt;Node34 -->
<g id="edge35" class="edge">
<title>Node1&#45;&gt;Node34</title>
<path fill="none" stroke="#191970" d="M2165.9467,-177.54C1967.4294,-174.3921 831.4106,-155.4537 679.5,-132 607.843,-120.9368 526.9913,-94.8272 481.8524,-78.9643"/>
<polygon fill="#191970" stroke="#191970" points="482.8378,-75.6002 472.243,-75.5519 480.4953,-82.1966 482.8378,-75.6002"/>
</g>
<!-- Node89 -->
<g id="node31" class="node">
<title>Node89</title>
<g id="a_node31"><a xlink:href="api_2timer_8h.html" target="_top" xlink:title="ODP timer service. ">
<polygon fill="#ffffff" stroke="#ff0000" points="504,-56.5 504,-75.5 585,-75.5 585,-56.5 504,-56.5"/>
<text text-anchor="middle" x="544.5" y="-63.5" font-family="Helvetica,sans-Serif" font-size="10.00" fill="#000000">odp/api/timer.h</text>
</a>
</g>
</g>
<!-- Node1&#45;&gt;Node89 -->
<g id="edge37" class="edge">
<title>Node1&#45;&gt;Node89</title>
<path fill="none" stroke="#191970" d="M2165.914,-177.4897C1974.4084,-174.1276 913.6433,-154.592 771.5,-132 701.745,-120.9132 623.1906,-94.9062 579.1907,-79.0494"/>
<polygon fill="#191970" stroke="#191970" points="580.1521,-75.6746 569.5581,-75.5405 577.7561,-82.2519 580.1521,-75.6746"/>
</g>
<!-- Node92 -->
<g id="node32" class="node">
<title>Node92</title>
<g id="a_node32"><a xlink:href="api_2schedule_8h.html" target="_top" xlink:title="ODP schedule. ">
<polygon fill="#ffffff" stroke="#ff0000" points="3013.5,-112.5 3013.5,-131.5 3111.5,-131.5 3111.5,-112.5 3013.5,-112.5"/>
<text text-anchor="middle" x="3062.5" y="-119.5" font-family="Helvetica,sans-Serif" font-size="10.00" fill="#000000">odp/api/schedule.h</text>
</a>
</g>
</g>
<!-- Node1&#45;&gt;Node92 -->
<g id="edge39" class="edge">
<title>Node1&#45;&gt;Node92</title>
<path fill="none" stroke="#191970" d="M2225.3559,-177.5287C2330.5166,-175.6111 2693.6346,-166.8071 3003.1311,-132.0363"/>
<polygon fill="#191970" stroke="#191970" points="3003.6524,-135.4997 3013.194,-130.8944 3002.8631,-128.5443 3003.6524,-135.4997"/>
</g>
<!-- Node98 -->
<g id="node33" class="node">
<title>Node98</title>
<g id="a_node33"><a xlink:href="api_2sync_8h.html" target="_top" xlink:title="ODP synchronisation. ">
<polygon fill="#ffffff" stroke="#ff0000" points="3129.5,-112.5 3129.5,-131.5 3209.5,-131.5 3209.5,-112.5 3129.5,-112.5"/>
<text text-anchor="middle" x="3169.5" y="-119.5" font-family="Helvetica,sans-Serif" font-size="10.00" fill="#000000">odp/api/sync.h</text>
</a>
</g>
</g>
<!-- Node1&#45;&gt;Node98 -->
<g id="edge40" class="edge">
<title>Node1&#45;&gt;Node98</title>
<path fill="none" stroke="#191970" d="M2225.0119,-177.1358C2360.1459,-173.088 2921.3899,-155.2662 3119.4721,-131.9074"/>
<polygon fill="#191970" stroke="#191970" points="3119.9699,-135.3727 3129.4708,-130.684 3119.1197,-128.4245 3119.9699,-135.3727"/>
</g>
<!-- Node28 -->
<g id="node34" class="node">
<title>Node28</title>
<g id="a_node34"><a xlink:href="api_2packet_8h.html" target="_top" xlink:title="ODP packet descriptor. ">
<polygon fill="#ffffff" stroke="#ff0000" points="603,-56.5 603,-75.5 692,-75.5 692,-56.5 603,-56.5"/>
<text text-anchor="middle" x="647.5" y="-63.5" font-family="Helvetica,sans-Serif" font-size="10.00" fill="#000000">odp/api/packet.h</text>
</a>
</g>
</g>
<!-- Node1&#45;&gt;Node28 -->
<g id="edge41" class="edge">
<title>Node1&#45;&gt;Node28</title>
<path fill="none" stroke="#191970" d="M2165.9068,-177.4651C1981.1365,-174.0616 989.4621,-154.8389 856.5,-132 792.2332,-120.9609 720.3525,-95.1256 679.8505,-79.2505"/>
<polygon fill="#191970" stroke="#191970" points="681.0799,-75.9729 670.4939,-75.5407 678.4998,-82.4801 681.0799,-75.9729"/>
</g>
<!-- Node101 -->
<g id="node35" class="node">
<title>Node101</title>
<g id="a_node35"><a xlink:href="api_2packet__flags_8h.html" target="_top" xlink:title="ODP packet flags. ">
<polygon fill="#ffffff" stroke="#ff0000" points="3228,-112.5 3228,-131.5 3343,-131.5 3343,-112.5 3228,-112.5"/>
<text text-anchor="middle" x="3285.5" y="-119.5" font-family="Helvetica,sans-Serif" font-size="10.00" fill="#000000">odp/api/packet_flags.h</text>
</a>
</g>
</g>
<!-- Node1&#45;&gt;Node101 -->
<g id="edge43" class="edge">
<title>Node1&#45;&gt;Node101</title>
<path fill="none" stroke="#191970" d="M2225.2897,-177.7833C2347.0694,-176.6628 2819.0597,-170.0292 3217.8059,-131.9603"/>
<polygon fill="#191970" stroke="#191970" points="3218.1846,-135.4401 3227.8031,-130.9977 3217.5137,-128.4723 3218.1846,-135.4401"/>
</g>
<!-- Node104 -->
<g id="node36" class="node">
<title>Node104</title>
<g id="a_node36"><a xlink:href="api_2packet__io_8h.html" target="_top" xlink:title="ODP Packet IO. ">
<polygon fill="#ffffff" stroke="#ff0000" points="710,-56.5 710,-75.5 811,-75.5 811,-56.5 710,-56.5"/>
<text text-anchor="middle" x="760.5" y="-63.5" font-family="Helvetica,sans-Serif" font-size="10.00" fill="#000000">odp/api/packet_io.h</text>
</a>
</g>
</g>
<!-- Node1&#45;&gt;Node104 -->
<g id="edge44" class="edge">
<title>Node1&#45;&gt;Node104</title>
<path fill="none" stroke="#191970" d="M2165.9495,-177.542C1986.7764,-174.6836 1049.4317,-158.5488 924.5,-132 874.1679,-121.3041 819.4213,-96.3102 787.6301,-80.3336"/>
<polygon fill="#191970" stroke="#191970" points="789.0293,-77.1183 778.5311,-75.6906 785.8476,-83.3534 789.0293,-77.1183"/>
</g>
<!-- Node109 -->
<g id="node37" class="node">
<title>Node109</title>
<g id="a_node37"><a xlink:href="api_2crypto_8h.html" target="_top" xlink:title="ODP crypto. ">
<polygon fill="#ffffff" stroke="#ff0000" points="1181.5,-112.5 1181.5,-131.5 1267.5,-131.5 1267.5,-112.5 1181.5,-112.5"/>
<text text-anchor="middle" x="1224.5" y="-119.5" font-family="Helvetica,sans-Serif" font-size="10.00" fill="#000000">odp/api/crypto.h</text>
</a>
</g>
</g>
<!-- Node1&#45;&gt;Node109 -->
<g id="edge46" class="edge">
<title>Node1&#45;&gt;Node109</title>
<path fill="none" stroke="#191970" d="M2165.8022,-177.8348C2051.3051,-176.9169 1627.6657,-170.926 1281.5,-132 1280.2364,-131.8579 1278.9584,-131.7054 1277.6706,-131.5439"/>
<polygon fill="#191970" stroke="#191970" points="1278.0663,-128.0653 1267.679,-130.152 1277.1005,-134.9984 1278.0663,-128.0653"/>
</g>
<!-- Node112 -->
<g id="node38" class="node">
<title>Node112</title>
<g id="a_node38"><a xlink:href="api_2classification_8h.html" target="_top" xlink:title="ODP classification descriptor. ">
<polygon fill="#ffffff" stroke="#ff0000" points="829.5,-56.5 829.5,-75.5 945.5,-75.5 945.5,-56.5 829.5,-56.5"/>
<text text-anchor="middle" x="887.5" y="-63.5" font-family="Helvetica,sans-Serif" font-size="10.00" fill="#000000">odp/api/classification.h</text>
</a>
</g>
</g>
<!-- Node1&#45;&gt;Node112 -->
<g id="edge49" class="edge">
<title>Node1&#45;&gt;Node112</title>
<path fill="none" stroke="#191970" d="M2165.8779,-177.4759C1983.3286,-174.1738 1017.0442,-155.6251 959.5,-132 935.1467,-122.0016 913.8514,-99.8569 900.8617,-83.9753"/>
<polygon fill="#191970" stroke="#191970" points="903.4609,-81.6181 894.5329,-75.9134 897.9548,-85.9405 903.4609,-81.6181"/>
</g>
<!-- Node116 -->
<g id="node39" class="node">
<title>Node116</title>
<g id="a_node39"><a xlink:href="api_2rwlock_8h.html" target="_top" xlink:title="ODP RW Locks. ">
<polygon fill="#ffffff" stroke="#ff0000" points="3361.5,-112.5 3361.5,-131.5 3449.5,-131.5 3449.5,-112.5 3361.5,-112.5"/>
<text text-anchor="middle" x="3405.5" y="-119.5" font-family="Helvetica,sans-Serif" font-size="10.00" fill="#000000">odp/api/rwlock.h</text>
</a>
</g>
</g>
<!-- Node1&#45;&gt;Node116 -->
<g id="edge51" class="edge">
<title>Node1&#45;&gt;Node116</title>
<path fill="none" stroke="#191970" d="M2225.043,-177.4138C2380.3541,-174.2436 3104.242,-158.3522 3351.3299,-131.9407"/>
<polygon fill="#191970" stroke="#191970" points="3351.772,-135.4132 3361.3273,-130.8363 3351.0034,-128.4556 3351.772,-135.4132"/>
</g>
<!-- Node80 -->
<g id="node40" class="node">
<title>Node80</title>
<g id="a_node40"><a xlink:href="api_2event_8h.html" target="_top" xlink:title="ODP event. ">
<polygon fill="#ffffff" stroke="#ff0000" points="3468,-112.5 3468,-131.5 3551,-131.5 3551,-112.5 3468,-112.5"/>
<text text-anchor="middle" x="3509.5" y="-119.5" font-family="Helvetica,sans-Serif" font-size="10.00" fill="#000000">odp/api/event.h</text>
</a>
</g>
</g>
<!-- Node1&#45;&gt;Node80 -->
<g id="edge52" class="edge">
<title>Node1&#45;&gt;Node80</title>
<path fill="none" stroke="#191970" d="M2225.2587,-177.5522C2389.5523,-174.9845 3187.7512,-161.2494 3457.6866,-131.8647"/>
<polygon fill="#191970" stroke="#191970" points="3458.2889,-135.3192 3467.8351,-130.7234 3457.5065,-128.363 3458.2889,-135.3192"/>
</g>
<!-- Node119 -->
<g id="node41" class="node">
<title>Node119</title>
<g id="a_node41"><a xlink:href="random_8h.html" target="_top" xlink:title="ODP random number API. ">
<polygon fill="#ffffff" stroke="#ff0000" points="3569.5,-112.5 3569.5,-131.5 3661.5,-131.5 3661.5,-112.5 3569.5,-112.5"/>
<text text-anchor="middle" x="3615.5" y="-119.5" font-family="Helvetica,sans-Serif" font-size="10.00" fill="#000000">odp/api/random.h</text>
</a>
</g>
</g>
<!-- Node1&#45;&gt;Node119 -->
<g id="edge53" class="edge">
<title>Node1&#45;&gt;Node119</title>
<path fill="none" stroke="#191970" d="M2225.0615,-177.5926C2396.7585,-175.1383 3267.878,-161.4637 3559.2396,-131.9513"/>
<polygon fill="#191970" stroke="#191970" points="3559.7752,-135.4145 3569.3576,-130.8948 3559.0481,-128.4523 3559.7752,-135.4145"/>
</g>
<!-- Node121 -->
<g id="node42" class="node">
<title>Node121</title>
<g id="a_node42"><a xlink:href="api_2errno_8h.html" target="_top" xlink:title="ODP errno API. ">
<polygon fill="#ffffff" stroke="#ff0000" points="3680,-112.5 3680,-131.5 3761,-131.5 3761,-112.5 3680,-112.5"/>
<text text-anchor="middle" x="3720.5" y="-119.5" font-family="Helvetica,sans-Serif" font-size="10.00" fill="#000000">odp/api/errno.h</text>
</a>
</g>
</g>
<!-- Node1&#45;&gt;Node121 -->
<g id="edge54" class="edge">
<title>Node1&#45;&gt;Node121</title>
<path fill="none" stroke="#191970" d="M2225.0528,-177.7486C2404.9241,-176.1184 3354.9987,-166.0558 3669.8984,-131.8241"/>
<polygon fill="#191970" stroke="#191970" points="3670.3821,-135.2919 3679.9303,-130.7004 3669.6028,-128.3354 3670.3821,-135.2919"/>
</g>
<!-- Node95 -->
<g id="node43" class="node">
<title>Node95</title>
<g id="a_node43"><a xlink:href="api_2thrmask_8h.html" target="_top" xlink:title="ODP thread masks. ">
<polygon fill="#ffffff" stroke="#ff0000" points="3779,-112.5 3779,-131.5 3874,-131.5 3874,-112.5 3779,-112.5"/>
<text text-anchor="middle" x="3826.5" y="-119.5" font-family="Helvetica,sans-Serif" font-size="10.00" fill="#000000">odp/api/thrmask.h</text>
</a>
</g>
</g>
<!-- Node1&#45;&gt;Node95 -->
<g id="edge55" class="edge">
<title>Node1&#45;&gt;Node95</title>
<path fill="none" stroke="#191970" d="M2225.1874,-177.7316C2412.4918,-175.9489 3433.1103,-164.8945 3768.7007,-132.0198"/>
<polygon fill="#191970" stroke="#191970" points="3769.3102,-135.4762 3778.9088,-130.991 3768.6082,-128.5115 3769.3102,-135.4762"/>
</g>
<!-- Node124 -->
<g id="node44" class="node">
<title>Node124</title>
<g id="a_node44"><a xlink:href="api_2traffic__mngr_8h.html" target="_top" xlink:title="ODP Traffic manager. ">
<polygon fill="#ffffff" stroke="#ff0000" points="3892,-112.5 3892,-131.5 4003,-131.5 4003,-112.5 3892,-112.5"/>
<text text-anchor="middle" x="3947.5" y="-119.5" font-family="Helvetica,sans-Serif" font-size="10.00" fill="#000000">odp/api/traffic_mngr.h</text>
</a>
</g>
</g>
<!-- Node1&#45;&gt;Node124 -->
<g id="edge56" class="edge">
<title>Node1&#45;&gt;Node124</title>
<path fill="none" stroke="#191970" d="M2225.0562,-177.7118C2419.797,-175.736 3521.7456,-163.3504 3881.5357,-132.0555"/>
<polygon fill="#191970" stroke="#191970" points="3882.0553,-135.5231 3891.7045,-131.1477 3881.4328,-128.5508 3882.0553,-135.5231"/>
</g>
<!-- Node127 -->
<g id="node45" class="node">
<title>Node127</title>
<g id="a_node45"><a xlink:href="api_2spinlock__recursive_8h.html" target="_top" xlink:title="ODP resursive spinlock. ">
<polygon fill="#ffffff" stroke="#ff0000" points="4021.5,-112.5 4021.5,-131.5 4161.5,-131.5 4161.5,-112.5 4021.5,-112.5"/>
<text text-anchor="middle" x="4091.5" y="-119.5" font-family="Helvetica,sans-Serif" font-size="10.00" fill="#000000">odp/api/spinlock_recursive.h</text>
</a>
</g>
</g>
<!-- Node1&#45;&gt;Node127 -->
<g id="edge57" class="edge">
<title>Node1&#45;&gt;Node127</title>
<path fill="none" stroke="#191970" d="M2225.2942,-177.6571C2429.2947,-175.2483 3623.1096,-160.1576 4011.1938,-132.0067"/>
<polygon fill="#191970" stroke="#191970" points="4011.6124,-135.4853 4021.3259,-131.2548 4011.0942,-128.5045 4011.6124,-135.4853"/>
</g>
<!-- Node130 -->
<g id="node46" class="node">
<title>Node130</title>
<g id="a_node46"><a xlink:href="api_2rwlock__recursive_8h.html" target="_top" xlink:title="ODP resursive read/write lock. ">
<polygon fill="#ffffff" stroke="#ff0000" points="4180,-112.5 4180,-131.5 4313,-131.5 4313,-112.5 4180,-112.5"/>
<text text-anchor="middle" x="4246.5" y="-119.5" font-family="Helvetica,sans-Serif" font-size="10.00" fill="#000000">odp/api/rwlock_recursive.h</text>
</a>
</g>
</g>
<!-- Node1&#45;&gt;Node130 -->
<g id="edge58" class="edge">
<title>Node1&#45;&gt;Node130</title>
<path fill="none" stroke="#191970" d="M2225.0784,-177.7484C2438.5791,-175.8676 3747.3679,-163.229 4169.7002,-131.9526"/>
<polygon fill="#191970" stroke="#191970" points="4170.1072,-135.4319 4179.8143,-131.1868 4169.5786,-128.4518 4170.1072,-135.4319"/>
</g>
<!-- Node133 -->
<g id="node47" class="node">
<title>Node133</title>
<g id="a_node47"><a xlink:href="api_2std__clib_8h_source.html" target="_top" xlink:title="odp/api/std_clib.h">
<polygon fill="#ffffff" stroke="#ff0000" points="4331,-112.5 4331,-131.5 4424,-131.5 4424,-112.5 4331,-112.5"/>
<text text-anchor="middle" x="4377.5" y="-119.5" font-family="Helvetica,sans-Serif" font-size="10.00" fill="#000000">odp/api/std_clib.h</text>
</a>
</g>
</g>
<!-- Node1&#45;&gt;Node133 -->
<g id="edge59" class="edge">
<title>Node1&#45;&gt;Node133</title>
<path fill="none" stroke="#191970" d="M2225.312,-177.6412C2463.8832,-174.7325 4060.2488,-154.571 4320.7099,-131.9586"/>
<polygon fill="#191970" stroke="#191970" points="4321.1337,-135.4344 4330.7637,-131.017 4320.4808,-128.4649 4321.1337,-135.4344"/>
</g>
<!-- Node26 -->
<g id="node48" class="node">
<title>Node26</title>
<g id="a_node48"><a xlink:href="support_8h.html" target="_top" xlink:title="ODP support API &#45; platform specific header. ">
<polygon fill="#ffffff" stroke="#ff0000" points="4442.5,-112.5 4442.5,-131.5 4534.5,-131.5 4534.5,-112.5 4442.5,-112.5"/>
<text text-anchor="middle" x="4488.5" y="-119.5" font-family="Helvetica,sans-Serif" font-size="10.00" fill="#000000">odp/api/support.h</text>
</a>
</g>
</g>
<!-- Node1&#45;&gt;Node26 -->
<g id="edge60" class="edge">
<title>Node1&#45;&gt;Node26</title>
<path fill="none" stroke="#191970" d="M2225.2765,-177.6757C2470.8105,-174.9642 4158.559,-155.6028 4432.1605,-131.8918"/>
<polygon fill="#191970" stroke="#191970" points="4432.7309,-135.3539 4442.3622,-130.9392 4432.08,-128.3842 4432.7309,-135.3539"/>
</g>
<!-- Node136 -->
<g id="node49" class="node">
<title>Node136</title>
<g id="a_node49"><a xlink:href="api_2ipsec_8h.html" target="_top" xlink:title="ODP IPSEC API &#45; platform specific header. ">
<polygon fill="#ffffff" stroke="#ff0000" points="4553,-112.5 4553,-131.5 4636,-131.5 4636,-112.5 4553,-112.5"/>
<text text-anchor="middle" x="4594.5" y="-119.5" font-family="Helvetica,sans-Serif" font-size="10.00" fill="#000000">odp/api/ipsec.h</text>
</a>
</g>
</g>
<!-- Node1&#45;&gt;Node136 -->
<g id="edge61" class="edge">
<title>Node1&#45;&gt;Node136</title>
<path fill="none" stroke="#191970" d="M2225.1145,-177.7326C2476.9207,-175.4183 4256.2731,-158.2564 4542.5454,-131.8062"/>
<polygon fill="#191970" stroke="#191970" points="4543.2374,-135.2547 4552.8415,-130.7813 4542.544,-128.2891 4543.2374,-135.2547"/>
</g>
<!-- Node141 -->
<g id="node50" class="node">
<title>Node141</title>
<g id="a_node50"><a xlink:href="api_2stash_8h.html" target="_top" xlink:title="ODP stash. ">
<polygon fill="#ffffff" stroke="#ff0000" points="4654,-112.5 4654,-131.5 4737,-131.5 4737,-112.5 4654,-112.5"/>
<text text-anchor="middle" x="4695.5" y="-119.5" font-family="Helvetica,sans-Serif" font-size="10.00" fill="#000000">odp/api/stash.h</text>
</a>
</g>
</g>
<!-- Node1&#45;&gt;Node141 -->
<g id="edge62" class="edge">
<title>Node1&#45;&gt;Node141</title>
<path fill="none" stroke="#191970" d="M2225.1559,-177.7648C2483.3444,-175.6757 4347.144,-159.7446 4643.5787,-131.9456"/>
<polygon fill="#191970" stroke="#191970" points="4644.2465,-135.3961 4653.8445,-130.9096 4643.5436,-128.4315 4644.2465,-135.3961"/>
</g>
<!-- Node3 -->
<g id="node4" class="node">
<title>Node3</title>
<g id="a_node4"><a xlink:href="spec_2deprecated_8h.html" target="_top" xlink:title="Macro for deprecated API definitions. ">
<polygon fill="#ffffff" stroke="#ff0000" points="0,-56.5 0,-75.5 131,-75.5 131,-56.5 0,-56.5"/>
<text text-anchor="middle" x="65.5" y="-63.5" font-family="Helvetica,sans-Serif" font-size="10.00" fill="#000000">odp/api/spec/deprecated.h</text>
</a>
</g>
</g>
<!-- Node2&#45;&gt;Node3 -->
<g id="edge3" class="edge">
<title>Node2&#45;&gt;Node3</title>
<path fill="none" stroke="#191970" d="M127.436,-112.2455C116.1438,-103.814 99.6155,-91.4729 86.4729,-81.6598"/>
<polygon fill="#191970" stroke="#191970" points="88.5211,-78.8211 78.4143,-75.6427 84.3331,-84.4301 88.5211,-78.8211"/>
</g>
<!-- Node7 -->
<g id="node6" class="node">
<title>Node7</title>
<polygon fill="#ffffff" stroke="#bfbfbf" points="149,-56.5 149,-75.5 256,-75.5 256,-56.5 149,-56.5"/>
<text text-anchor="middle" x="202.5" y="-63.5" font-family="Helvetica,sans-Serif" font-size="10.00" fill="#000000">odp/api/abi/version.h</text>
</g>
<!-- Node6&#45;&gt;Node7 -->
<g id="edge5" class="edge">
<title>Node6&#45;&gt;Node7</title>
<path fill="none" stroke="#191970" d="M309.3241,-112.3733C288.5234,-103.3435 257.2083,-89.7494 233.8542,-79.6111"/>
<polygon fill="#191970" stroke="#191970" points="234.9532,-76.2727 224.3865,-75.5011 232.1657,-82.6938 234.9532,-76.2727"/>
</g>
<!-- Node8 -->
<g id="node7" class="node">
<title>Node8</title>
<g id="a_node7"><a xlink:href="api_2spec_2version_8h.html" target="_top" xlink:title="ODP version. ">
<polygon fill="#ffffff" stroke="#ff0000" points="274,-56.5 274,-75.5 389,-75.5 389,-56.5 274,-56.5"/>
<text text-anchor="middle" x="331.5" y="-63.5" font-family="Helvetica,sans-Serif" font-size="10.00" fill="#000000">odp/api/spec/version.h</text>
</a>
</g>
</g>
<!-- Node6&#45;&gt;Node8 -->
<g id="edge6" class="edge">
<title>Node6&#45;&gt;Node8</title>
<path fill="none" stroke="#191970" d="M331.5,-112.2455C331.5,-104.9382 331.5,-94.6944 331.5,-85.7046"/>
<polygon fill="#191970" stroke="#191970" points="335.0001,-85.6426 331.5,-75.6427 328.0001,-85.6427 335.0001,-85.6426"/>
</g>
<!-- Node45&#45;&gt;Node47 -->
<g id="edge16" class="edge">
<title>Node45&#45;&gt;Node47</title>
<path fill="none" stroke="#191970" d="M2135.2482,-112.2455C2139.7435,-104.617 2146.1248,-93.7881 2151.5825,-84.5267"/>
<polygon fill="#191970" stroke="#191970" points="2154.7561,-86.035 2156.8177,-75.6427 2148.7253,-82.4811 2154.7561,-86.035"/>
</g>
<!-- Node55&#45;&gt;Node9 -->
<g id="edge19" class="edge">
<title>Node55&#45;&gt;Node9</title>
<path fill="none" stroke="#191970" d="M1089.6349,-112.159C1098.6375,-98.4252 1111.572,-73.2585 1099.5,-56 1090.3765,-42.9568 1055.0668,-30.7264 1024.1396,-22.1602"/>
<polygon fill="#191970" stroke="#191970" points="1024.8569,-18.7288 1014.291,-19.5114 1023.0388,-25.4886 1024.8569,-18.7288"/>
</g>
<!-- Node55&#45;&gt;Node56 -->
<g id="edge20" class="edge">
<title>Node55&#45;&gt;Node56</title>
<path fill="none" stroke="#191970" d="M1076.2293,-112.2455C1071.2736,-104.5367 1064.217,-93.5598 1058.2224,-84.2348"/>
<polygon fill="#191970" stroke="#191970" points="1061.0506,-82.1618 1052.6989,-75.6427 1055.1624,-85.9471 1061.0506,-82.1618"/>
</g>
<!-- Node70&#45;&gt;Node9 -->
<g id="edge26" class="edge">
<title>Node70&#45;&gt;Node9</title>
<path fill="none" stroke="#191970" d="M1165.0522,-56.4369C1125.6844,-46.8932 1065.0966,-32.2052 1022.6292,-21.9101"/>
<polygon fill="#191970" stroke="#191970" points="1023.3283,-18.4783 1012.7851,-19.5237 1021.679,-25.2812 1023.3283,-18.4783"/>
</g>
<!-- Node74&#45;&gt;Node9 -->
<g id="edge30" class="edge">
<title>Node74&#45;&gt;Node9</title>
<path fill="none" stroke="#191970" d="M1421.2496,-57.4142C1418.2936,-56.9064 1415.3553,-56.4287 1412.5,-56 1278.3236,-35.8567 1119.7575,-21.5731 1034.7184,-14.6789"/>
<polygon fill="#191970" stroke="#191970" points="1034.9672,-11.1877 1024.7189,-13.8749 1034.4061,-18.1652 1034.9672,-11.1877"/>
</g>
<!-- Node78&#45;&gt;Node9 -->
<g id="edge33" class="edge">
<title>Node78&#45;&gt;Node9</title>
<path fill="none" stroke="#191970" d="M1317.2667,-58.2507C1312.6235,-57.4676 1307.9662,-56.7028 1303.5,-56 1210.0705,-41.2973 1101.3723,-26.6112 1035.0206,-17.918"/>
<polygon fill="#191970" stroke="#191970" points="1035.1132,-14.4004 1024.744,-16.5751 1034.2062,-21.3414 1035.1132,-14.4004"/>
</g>
<!-- Node34&#45;&gt;Node9 -->
<g id="edge36" class="edge">
<title>Node34&#45;&gt;Node9</title>
<path fill="none" stroke="#191970" d="M485.7294,-57.4617C488.6905,-56.9293 491.6386,-56.4341 494.5,-56 643.6225,-33.3758 820.6486,-19.7838 912.0522,-13.7368"/>
<polygon fill="#191970" stroke="#191970" points="912.4818,-17.2162 922.2321,-13.0711 912.025,-10.2312 912.4818,-17.2162"/>
</g>
<!-- Node89&#45;&gt;Node9 -->
<g id="edge38" class="edge">
<title>Node89&#45;&gt;Node9</title>
<path fill="none" stroke="#191970" d="M585.0955,-57.452C587.9351,-56.9351 590.7575,-56.4451 593.5,-56 705.3283,-37.8509 836.7365,-23.4742 912.0528,-15.8943"/>
<polygon fill="#191970" stroke="#191970" points="912.6978,-19.3474 922.3001,-14.8702 912.0016,-12.3821 912.6978,-19.3474"/>
</g>
<!-- Node28&#45;&gt;Node9 -->
<g id="edge42" class="edge">
<title>Node28&#45;&gt;Node9</title>
<path fill="none" stroke="#191970" d="M692.0214,-57.5344C694.8895,-57.0092 697.7346,-56.4938 700.5,-56 773.2166,-43.0149 857.0135,-29.0423 912.3802,-19.9476"/>
<polygon fill="#191970" stroke="#191970" points="913.0769,-23.3802 922.3784,-18.3075 911.9437,-16.4725 913.0769,-23.3802"/>
</g>
<!-- Node104&#45;&gt;Node9 -->
<g id="edge45" class="edge">
<title>Node104&#45;&gt;Node9</title>
<path fill="none" stroke="#191970" d="M797.116,-56.3733C833.148,-46.9001 888.2878,-32.4032 927.3114,-22.1435"/>
<polygon fill="#191970" stroke="#191970" points="928.5804,-25.4289 937.3618,-19.5011 926.8005,-18.6589 928.5804,-25.4289"/>
</g>
<!-- Node109&#45;&gt;Node9 -->
<g id="edge47" class="edge">
<title>Node109&#45;&gt;Node9</title>
<path fill="none" stroke="#191970" d="M1239.2734,-112.3495C1257.8439,-99.0566 1285.469,-74.6423 1269.5,-56 1254.4181,-38.3933 1116.739,-22.9966 1034.5661,-15.2732"/>
<polygon fill="#191970" stroke="#191970" points="1034.8673,-11.7862 1024.5867,-14.3473 1034.2205,-18.7563 1034.8673,-11.7862"/>
</g>
<!-- Node109&#45;&gt;Node78 -->
<g id="edge48" class="edge">
<title>Node109&#45;&gt;Node78</title>
<path fill="none" stroke="#191970" d="M1247.8792,-112.3733C1270.0045,-103.2629 1303.4134,-89.5062 1328.1019,-79.3404"/>
<polygon fill="#191970" stroke="#191970" points="1329.5117,-82.5451 1337.4258,-75.5011 1326.8464,-76.0723 1329.5117,-82.5451"/>
</g>
<!-- Node112&#45;&gt;Node9 -->
<g id="edge50" class="edge">
<title>Node112&#45;&gt;Node9</title>
<path fill="none" stroke="#191970" d="M902.4801,-56.2455C915.6751,-47.6534 935.1051,-35.0014 950.3079,-25.1018"/>
<polygon fill="#191970" stroke="#191970" points="952.2215,-28.0325 958.6916,-19.6427 948.4017,-22.1665 952.2215,-28.0325"/>
</g>
</g>
</svg>
