<?xml version="1.0" encoding="UTF-8" standalone="no"?>
<!DOCTYPE svg PUBLIC "-//W3C//DTD SVG 1.1//EN"
 "http://www.w3.org/Graphics/SVG/1.1/DTD/svg11.dtd">
<!-- Generated by graphviz version 2.40.1 (20161225.0304)
 -->
<!-- Title: odp_api.h Pages: 1 -->
<svg width="4692pt" height="252pt"
 viewBox="0.00 0.00 4692.00 252.00" xmlns="http://www.w3.org/2000/svg" xmlns:xlink="http://www.w3.org/1999/xlink">
<g id="graph0" class="graph" transform="scale(1 1) rotate(0) translate(4 248)">
<title>odp_api.h</title>
<polygon fill="#ffffff" stroke="transparent" points="-4,4 -4,-248 4688,-248 4688,4 -4,4"/>
<!-- Node0 -->
<g id="node1" class="node">
<title>Node0</title>
<polygon fill="#bfbfbf" stroke="#000000" points="2158,-224.5 2158,-243.5 2217,-243.5 2217,-224.5 2158,-224.5"/>
<text text-anchor="middle" x="2187.5" y="-231.5" font-family="Helvetica,sans-Serif" font-size="10.00" fill="#000000">odp_api.h</text>
</g>
<!-- Node1 -->
<g id="node2" class="node">
<title>Node1</title>
<g id="a_node2"><a xlink:href="deprecated_8h.html" target="_top" xlink:title="Control deprecated API definitions. ">
<polygon fill="#ffffff" stroke="#000000" points="89,-168.5 89,-187.5 196,-187.5 196,-168.5 89,-168.5"/>
<text text-anchor="middle" x="142.5" y="-175.5" font-family="Helvetica,sans-Serif" font-size="10.00" fill="#000000">odp/api/deprecated.h</text>
</a>
</g>
</g>
<!-- Node0&#45;&gt;Node1 -->
<g id="edge1" class="edge">
<title>Node0&#45;&gt;Node1</title>
<path fill="none" stroke="#191970" d="M2157.7803,-233.8209C1980.4379,-232.6406 1043.7925,-224.84 280.5,-188 256.2556,-186.8299 229.6501,-185.0255 206.3247,-183.2698"/>
<polygon fill="#191970" stroke="#191970" points="206.441,-179.7686 196.2032,-182.4958 205.9072,-186.7482 206.441,-179.7686"/>
</g>
<!-- Node5 -->
<g id="node4" class="node">
<title>Node5</title>
<g id="a_node4"><a xlink:href="api_2version_8h.html" target="_top" xlink:title="ODP version. ">
<polygon fill="#ffffff" stroke="#000000" points="290,-168.5 290,-187.5 381,-187.5 381,-168.5 290,-168.5"/>
<text text-anchor="middle" x="335.5" y="-175.5" font-family="Helvetica,sans-Serif" font-size="10.00" fill="#000000">odp/api/version.h</text>
</a>
</g>
</g>
<!-- Node0&#45;&gt;Node5 -->
<g id="edge3" class="edge">
<title>Node0&#45;&gt;Node5</title>
<path fill="none" stroke="#191970" d="M2157.9458,-233.7858C1991.0024,-232.4561 1149.0974,-224.1616 462.5,-188 439.1434,-186.7699 413.4116,-184.8496 391.2527,-183.0193"/>
<polygon fill="#191970" stroke="#191970" points="391.2751,-179.5089 381.0172,-182.1595 390.6892,-186.4843 391.2751,-179.5089"/>
</g>
<!-- Node8 -->
<g id="node7" class="node">
<title>Node8</title>
<g id="a_node7"><a xlink:href="api_2std__types_8h.html" target="_top" xlink:title="Standard C language types and definitions for ODP. ">
<polygon fill="#ffffff" stroke="#ff0000" points="941.5,-56.5 941.5,-75.5 1043.5,-75.5 1043.5,-56.5 941.5,-56.5"/>
<text text-anchor="middle" x="992.5" y="-63.5" font-family="Helvetica,sans-Serif" font-size="10.00" fill="#000000">odp/api/std_types.h</text>
</a>
</g>
</g>
<!-- Node0&#45;&gt;Node8 -->
<g id="edge6" class="edge">
<title>Node0&#45;&gt;Node8</title>
<path fill="none" stroke="#191970" d="M2157.9155,-233.889C1979.8359,-233.0912 1056.7205,-227.0762 1012.5,-188 983.8042,-162.6424 985.3925,-113.3712 988.9907,-85.8363"/>
<polygon fill="#191970" stroke="#191970" points="992.4717,-86.2256 990.5185,-75.8124 985.5516,-85.1709 992.4717,-86.2256"/>
</g>
<!-- Node12 -->
<g id="node9" class="node">
<title>Node12</title>
<g id="a_node9"><a xlink:href="api_2align_8h.html" target="_top" xlink:title="ODP alignments. ">
<polygon fill="#ffffff" stroke="#ff0000" points="1419.5,-168.5 1419.5,-187.5 1499.5,-187.5 1499.5,-168.5 1419.5,-168.5"/>
<text text-anchor="middle" x="1459.5" y="-175.5" font-family="Helvetica,sans-Serif" font-size="10.00" fill="#000000">odp/api/align.h</text>
</a>
</g>
</g>
<!-- Node0&#45;&gt;Node12 -->
<g id="edge8" class="edge">
<title>Node0&#45;&gt;Node12</title>
<path fill="none" stroke="#191970" d="M2157.9078,-233.4062C2064.3008,-231.2311 1766.1865,-222.0287 1509.7902,-188.0019"/>
<polygon fill="#191970" stroke="#191970" points="1509.9139,-184.4871 1499.537,-186.6248 1508.982,-191.4248 1509.9139,-184.4871"/>
</g>
<!-- Node15 -->
<g id="node10" class="node">
<title>Node15</title>
<g id="a_node10"><a xlink:href="api_2hash_8h.html" target="_top" xlink:title="ODP Hash function. ">
<polygon fill="#ffffff" stroke="#ff0000" points="1517.5,-168.5 1517.5,-187.5 1597.5,-187.5 1597.5,-168.5 1517.5,-168.5"/>
<text text-anchor="middle" x="1557.5" y="-175.5" font-family="Helvetica,sans-Serif" font-size="10.00" fill="#000000">odp/api/hash.h</text>
</a>
</g>
</g>
<!-- Node0&#45;&gt;Node15 -->
<g id="edge9" class="edge">
<title>Node0&#45;&gt;Node15</title>
<path fill="none" stroke="#191970" d="M2157.7324,-232.9295C2073.1557,-229.6161 1824.0957,-217.9744 1607.505,-187.9832"/>
<polygon fill="#191970" stroke="#191970" points="1607.9311,-184.5087 1597.5421,-186.5873 1606.9598,-191.441 1607.9311,-184.5087"/>
</g>
<!-- Node18 -->
<g id="node11" class="node">
<title>Node18</title>
<g id="a_node11"><a xlink:href="chksum_8h.html" target="_top" xlink:title="ODP checksum functions. ">
<polygon fill="#ffffff" stroke="#ff0000" points="1615.5,-168.5 1615.5,-187.5 1709.5,-187.5 1709.5,-168.5 1615.5,-168.5"/>
<text text-anchor="middle" x="1662.5" y="-175.5" font-family="Helvetica,sans-Serif" font-size="10.00" fill="#000000">odp/api/chksum.h</text>
</a>
</g>
</g>
<!-- Node0&#45;&gt;Node18 -->
<g id="edge10" class="edge">
<title>Node0&#45;&gt;Node18</title>
<path fill="none" stroke="#191970" d="M2157.7735,-231.9035C2084.9003,-226.5897 1891.3905,-211.4259 1719.4963,-188.0435"/>
<polygon fill="#191970" stroke="#191970" points="1719.8942,-184.5654 1709.511,-186.6725 1718.9419,-191.5003 1719.8942,-184.5654"/>
</g>
<!-- Node20 -->
<g id="node12" class="node">
<title>Node20</title>
<g id="a_node12"><a xlink:href="api_2comp_8h.html" target="_top" xlink:title="ODP crypto. ">
<polygon fill="#ffffff" stroke="#ff0000" points="1728,-168.5 1728,-187.5 1811,-187.5 1811,-168.5 1728,-168.5"/>
<text text-anchor="middle" x="1769.5" y="-175.5" font-family="Helvetica,sans-Serif" font-size="10.00" fill="#000000">odp/api/comp.h</text>
</a>
</g>
</g>
<!-- Node0&#45;&gt;Node20 -->
<g id="edge11" class="edge">
<title>Node0&#45;&gt;Node20</title>
<path fill="none" stroke="#191970" d="M2157.9076,-230.9909C2096.9887,-224.6466 1952.9632,-208.8766 1821.4575,-188.0581"/>
<polygon fill="#191970" stroke="#191970" points="1821.6336,-184.5419 1811.2067,-186.4208 1820.5294,-191.4543 1821.6336,-184.5419"/>
</g>
<!-- Node36 -->
<g id="node13" class="node">
<title>Node36</title>
<g id="a_node13"><a xlink:href="hints_8h.html" target="_top" xlink:title="ODP compiler hints. ">
<polygon fill="#ffffff" stroke="#ff0000" points="1829.5,-168.5 1829.5,-187.5 1909.5,-187.5 1909.5,-168.5 1829.5,-168.5"/>
<text text-anchor="middle" x="1869.5" y="-175.5" font-family="Helvetica,sans-Serif" font-size="10.00" fill="#000000">odp/api/hints.h</text>
</a>
</g>
</g>
<!-- Node0&#45;&gt;Node36 -->
<g id="edge12" class="edge">
<title>Node0&#45;&gt;Node36</title>
<path fill="none" stroke="#191970" d="M2157.9894,-229.2702C2110.1182,-221.5292 2012.3327,-205.4333 1919.4331,-188.1315"/>
<polygon fill="#191970" stroke="#191970" points="1920.064,-184.6889 1909.5909,-186.2904 1918.7768,-191.5695 1920.064,-184.6889"/>
</g>
<!-- Node38 -->
<g id="node14" class="node">
<title>Node38</title>
<g id="a_node14"><a xlink:href="api_2debug_8h.html" target="_top" xlink:title="ODP debug. ">
<polygon fill="#ffffff" stroke="#ff0000" points="1927.5,-168.5 1927.5,-187.5 2013.5,-187.5 2013.5,-168.5 1927.5,-168.5"/>
<text text-anchor="middle" x="1970.5" y="-175.5" font-family="Helvetica,sans-Serif" font-size="10.00" fill="#000000">odp/api/debug.h</text>
</a>
</g>
</g>
<!-- Node0&#45;&gt;Node38 -->
<g id="edge13" class="edge">
<title>Node0&#45;&gt;Node38</title>
<path fill="none" stroke="#191970" d="M2157.7821,-226.3309C2121.5678,-216.9852 2059.9483,-201.0834 2017.3318,-190.0856"/>
<polygon fill="#191970" stroke="#191970" points="2018.0289,-186.6509 2007.4715,-187.541 2016.2797,-193.4289 2018.0289,-186.6509"/>
</g>
<!-- Node41 -->
<g id="node15" class="node">
<title>Node41</title>
<g id="a_node15"><a xlink:href="api_2byteorder_8h.html" target="_top" xlink:title="ODP byteorder. ">
<polygon fill="#ffffff" stroke="#ff0000" points="2031.5,-168.5 2031.5,-187.5 2131.5,-187.5 2131.5,-168.5 2031.5,-168.5"/>
<text text-anchor="middle" x="2081.5" y="-175.5" font-family="Helvetica,sans-Serif" font-size="10.00" fill="#000000">odp/api/byteorder.h</text>
</a>
</g>
</g>
<!-- Node0&#45;&gt;Node41 -->
<g id="edge14" class="edge">
<title>Node0&#45;&gt;Node41</title>
<path fill="none" stroke="#191970" d="M2169.0362,-224.2455C2152.3926,-215.4527 2127.7007,-202.4079 2108.7808,-192.4125"/>
<polygon fill="#191970" stroke="#191970" points="2110.2291,-189.2193 2099.7522,-187.6427 2106.9592,-195.4086 2110.2291,-189.2193"/>
</g>
<!-- Node44 -->
<g id="node16" class="node">
<title>Node44</title>
<g id="a_node16"><a xlink:href="api_2cpu_8h.html" target="_top" xlink:title="ODP CPU. ">
<polygon fill="#ffffff" stroke="#ff0000" points="2150,-168.5 2150,-187.5 2225,-187.5 2225,-168.5 2150,-168.5"/>
<text text-anchor="middle" x="2187.5" y="-175.5" font-family="Helvetica,sans-Serif" font-size="10.00" fill="#000000">odp/api/cpu.h</text>
</a>
</g>
</g>
<!-- Node0&#45;&gt;Node44 -->
<g id="edge15" class="edge">
<title>Node0&#45;&gt;Node44</title>
<path fill="none" stroke="#191970" d="M2187.5,-224.2455C2187.5,-216.9382 2187.5,-206.6944 2187.5,-197.7046"/>
<polygon fill="#191970" stroke="#191970" points="2191.0001,-197.6426 2187.5,-187.6427 2184.0001,-197.6427 2191.0001,-197.6426"/>
</g>
<!-- Node46 -->
<g id="node17" class="node">
<title>Node46</title>
<g id="a_node17"><a xlink:href="api_2thread_8h.html" target="_top" xlink:title="ODP thread API. ">
<polygon fill="#ffffff" stroke="#ff0000" points="2177.5,-112.5 2177.5,-131.5 2263.5,-131.5 2263.5,-112.5 2177.5,-112.5"/>
<text text-anchor="middle" x="2220.5" y="-119.5" font-family="Helvetica,sans-Serif" font-size="10.00" fill="#000000">odp/api/thread.h</text>
</a>
</g>
</g>
<!-- Node0&#45;&gt;Node46 -->
<g id="edge27" class="edge">
<title>Node0&#45;&gt;Node46</title>
<path fill="none" stroke="#191970" d="M2202.1852,-224.2577C2213.1154,-216.0536 2227.1898,-203.2342 2233.5,-188 2239.768,-172.8677 2235.2663,-154.5066 2229.914,-140.9963"/>
<polygon fill="#191970" stroke="#191970" points="2233.0671,-139.4724 2225.8196,-131.7443 2226.6659,-142.3053 2233.0671,-139.4724"/>
</g>
<!-- Node51 -->
<g id="node18" class="node">
<title>Node51</title>
<g id="a_node18"><a xlink:href="api_2cpumask_8h.html" target="_top" xlink:title="ODP CPU masks and enumeration. ">
<polygon fill="#ffffff" stroke="#ff0000" points="2282,-168.5 2282,-187.5 2381,-187.5 2381,-168.5 2282,-168.5"/>
<text text-anchor="middle" x="2331.5" y="-175.5" font-family="Helvetica,sans-Serif" font-size="10.00" fill="#000000">odp/api/cpumask.h</text>
</a>
</g>
</g>
<!-- Node0&#45;&gt;Node51 -->
<g id="edge17" class="edge">
<title>Node0&#45;&gt;Node51</title>
<path fill="none" stroke="#191970" d="M2212.2545,-224.3733C2235.7849,-215.2226 2271.3687,-201.3844 2297.5426,-191.2057"/>
<polygon fill="#191970" stroke="#191970" points="2299.0171,-194.3877 2307.0685,-187.5011 2296.4799,-187.8636 2299.0171,-194.3877"/>
</g>
<!-- Node54 -->
<g id="node19" class="node">
<title>Node54</title>
<g id="a_node19"><a xlink:href="api_2barrier_8h.html" target="_top" xlink:title="ODP execution barriers. ">
<polygon fill="#ffffff" stroke="#ff0000" points="1021.5,-168.5 1021.5,-187.5 1107.5,-187.5 1107.5,-168.5 1021.5,-168.5"/>
<text text-anchor="middle" x="1064.5" y="-175.5" font-family="Helvetica,sans-Serif" font-size="10.00" fill="#000000">odp/api/barrier.h</text>
</a>
</g>
</g>
<!-- Node0&#45;&gt;Node54 -->
<g id="edge18" class="edge">
<title>Node0&#45;&gt;Node54</title>
<path fill="none" stroke="#191970" d="M2157.6071,-233.2385C2007.019,-229.3218 1330.5153,-210.746 1121.5,-188 1120.2359,-187.8624 1118.9575,-187.714 1117.6692,-187.5562"/>
<polygon fill="#191970" stroke="#191970" points="1118.0584,-184.0769 1107.6754,-186.1848 1117.1067,-191.0119 1118.0584,-184.0769"/>
</g>
<!-- Node55 -->
<g id="node20" class="node">
<title>Node55</title>
<g id="a_node20"><a xlink:href="api_2atomic_8h.html" target="_top" xlink:title="ODP atomic operations. ">
<polygon fill="#ffffff" stroke="#ff0000" points="1040,-112.5 1040,-131.5 1129,-131.5 1129,-112.5 1040,-112.5"/>
<text text-anchor="middle" x="1084.5" y="-119.5" font-family="Helvetica,sans-Serif" font-size="10.00" fill="#000000">odp/api/atomic.h</text>
</a>
</g>
</g>
<!-- Node0&#45;&gt;Node55 -->
<g id="edge22" class="edge">
<title>Node0&#45;&gt;Node55</title>
<path fill="none" stroke="#191970" d="M2157.85,-233.2612C2005.9765,-229.3858 1318.7432,-210.716 1226.5,-188 1182.8162,-177.2424 1136.2709,-152.8128 1108.8183,-136.8828"/>
<polygon fill="#191970" stroke="#191970" points="1110.3304,-133.7111 1099.9402,-131.639 1106.7705,-139.7383 1110.3304,-133.7111"/>
</g>
<!-- Node61 -->
<g id="node21" class="node">
<title>Node61</title>
<g id="a_node21"><a xlink:href="api_2spinlock_8h.html" target="_top" xlink:title="ODP spinlock. ">
<polygon fill="#ffffff" stroke="#ff0000" points="2399,-168.5 2399,-187.5 2494,-187.5 2494,-168.5 2399,-168.5"/>
<text text-anchor="middle" x="2446.5" y="-175.5" font-family="Helvetica,sans-Serif" font-size="10.00" fill="#000000">odp/api/spinlock.h</text>
</a>
</g>
</g>
<!-- Node0&#45;&gt;Node61 -->
<g id="edge21" class="edge">
<title>Node0&#45;&gt;Node61</title>
<path fill="none" stroke="#191970" d="M2217.2106,-227.5761C2259.9017,-218.3456 2339.3047,-201.1774 2392.5331,-189.6685"/>
<polygon fill="#191970" stroke="#191970" points="2393.4472,-193.0518 2402.4817,-187.5175 2391.9678,-186.2099 2393.4472,-193.0518"/>
</g>
<!-- Node64 -->
<g id="node22" class="node">
<title>Node64</title>
<g id="a_node22"><a xlink:href="feature_8h.html" target="_top" xlink:title="ODP features. ">
<polygon fill="#ffffff" stroke="#ff0000" points="2512,-168.5 2512,-187.5 2601,-187.5 2601,-168.5 2512,-168.5"/>
<text text-anchor="middle" x="2556.5" y="-175.5" font-family="Helvetica,sans-Serif" font-size="10.00" fill="#000000">odp/api/feature.h</text>
</a>
</g>
</g>
<!-- Node0&#45;&gt;Node64 -->
<g id="edge23" class="edge">
<title>Node0&#45;&gt;Node64</title>
<path fill="none" stroke="#191970" d="M2217.1896,-230.1009C2271.6131,-222.8626 2391.2315,-206.5323 2501.989,-188.2029"/>
<polygon fill="#191970" stroke="#191970" points="2502.7015,-191.6325 2511.9911,-186.538 2501.5521,-184.7275 2502.7015,-191.6325"/>
</g>
<!-- Node66 -->
<g id="node23" class="node">
<title>Node66</title>
<g id="a_node23"><a xlink:href="api_2init_8h.html" target="_top" xlink:title="ODP initialization. ">
<polygon fill="#ffffff" stroke="#ff0000" points="2619.5,-168.5 2619.5,-187.5 2691.5,-187.5 2691.5,-168.5 2619.5,-168.5"/>
<text text-anchor="middle" x="2655.5" y="-175.5" font-family="Helvetica,sans-Serif" font-size="10.00" fill="#000000">odp/api/init.h</text>
</a>
</g>
</g>
<!-- Node0&#45;&gt;Node66 -->
<g id="edge24" class="edge">
<title>Node0&#45;&gt;Node66</title>
<path fill="none" stroke="#191970" d="M2217.14,-231.9083C2284.8564,-226.8886 2456.2423,-212.8199 2609.1723,-188.0691"/>
<polygon fill="#191970" stroke="#191970" points="2609.9151,-191.4942 2619.2176,-186.4234 2608.7832,-184.5863 2609.9151,-191.4942"/>
</g>
<!-- Node69 -->
<g id="node24" class="node">
<title>Node69</title>
<g id="a_node24"><a xlink:href="system__info_8h.html" target="_top" xlink:title="ODP system information. ">
<polygon fill="#ffffff" stroke="#ff0000" points="1147,-112.5 1147,-131.5 1260,-131.5 1260,-112.5 1147,-112.5"/>
<text text-anchor="middle" x="1203.5" y="-119.5" font-family="Helvetica,sans-Serif" font-size="10.00" fill="#000000">odp/api/system_info.h</text>
</a>
</g>
</g>
<!-- Node0&#45;&gt;Node69 -->
<g id="edge25" class="edge">
<title>Node0&#45;&gt;Node69</title>
<path fill="none" stroke="#191970" d="M2157.8215,-233.2608C2002.8702,-229.311 1292.2906,-210.049 1251.5,-188 1232.6874,-177.831 1219.3725,-156.7098 1211.6121,-141.0863"/>
<polygon fill="#191970" stroke="#191970" points="1214.6852,-139.3927 1207.3127,-131.7837 1208.331,-142.3295 1214.6852,-139.3927"/>
</g>
<!-- Node71 -->
<g id="node25" class="node">
<title>Node71</title>
<g id="a_node25"><a xlink:href="api_2shared__memory_8h.html" target="_top" xlink:title="ODP shared memory. ">
<polygon fill="#ffffff" stroke="#ff0000" points="2710,-168.5 2710,-187.5 2839,-187.5 2839,-168.5 2710,-168.5"/>
<text text-anchor="middle" x="2774.5" y="-175.5" font-family="Helvetica,sans-Serif" font-size="10.00" fill="#000000">odp/api/shared_memory.h</text>
</a>
</g>
</g>
<!-- Node0&#45;&gt;Node71 -->
<g id="edge28" class="edge">
<title>Node0&#45;&gt;Node71</title>
<path fill="none" stroke="#191970" d="M2217.0409,-231.8178C2294.3613,-226.0069 2509.2679,-209.2192 2699.7471,-188.0381"/>
<polygon fill="#191970" stroke="#191970" points="2700.3984,-191.4872 2709.9473,-186.897 2699.6201,-184.5306 2700.3984,-191.4872"/>
</g>
<!-- Node73 -->
<g id="node26" class="node">
<title>Node73</title>
<g id="a_node26"><a xlink:href="api_2buffer_8h.html" target="_top" xlink:title="ODP buffer descriptor. ">
<polygon fill="#ffffff" stroke="#ff0000" points="1278.5,-112.5 1278.5,-131.5 1362.5,-131.5 1362.5,-112.5 1278.5,-112.5"/>
<text text-anchor="middle" x="1320.5" y="-119.5" font-family="Helvetica,sans-Serif" font-size="10.00" fill="#000000">odp/api/buffer.h</text>
</a>
</g>
</g>
<!-- Node0&#45;&gt;Node73 -->
<g id="edge29" class="edge">
<title>Node0&#45;&gt;Node73</title>
<path fill="none" stroke="#191970" d="M2157.7932,-233.6634C2002.7335,-231.7651 1292.158,-221.2679 1260.5,-188 1243.9136,-170.5701 1269.563,-149.9855 1292.2894,-136.4962"/>
<polygon fill="#191970" stroke="#191970" points="1294.0992,-139.4936 1301.0796,-131.5234 1290.6525,-133.401 1294.0992,-139.4936"/>
</g>
<!-- Node75 -->
<g id="node27" class="node">
<title>Node75</title>
<g id="a_node27"><a xlink:href="api_2pool_8h.html" target="_top" xlink:title="ODP pool. ">
<polygon fill="#ffffff" stroke="#ff0000" points="2857,-168.5 2857,-187.5 2934,-187.5 2934,-168.5 2857,-168.5"/>
<text text-anchor="middle" x="2895.5" y="-175.5" font-family="Helvetica,sans-Serif" font-size="10.00" fill="#000000">odp/api/pool.h</text>
</a>
</g>
</g>
<!-- Node0&#45;&gt;Node75 -->
<g id="edge31" class="edge">
<title>Node0&#45;&gt;Node75</title>
<path fill="none" stroke="#191970" d="M2217.3017,-233.4123C2309.5524,-231.2801 2598.6682,-222.2471 2846.9203,-188.0564"/>
<polygon fill="#191970" stroke="#191970" points="2847.4266,-191.5198 2856.8476,-186.6726 2846.4601,-184.5868 2847.4266,-191.5198"/>
</g>
<!-- Node77 -->
<g id="node28" class="node">
<title>Node77</title>
<g id="a_node28"><a xlink:href="api_2queue_8h.html" target="_top" xlink:title="ODP queue. ">
<polygon fill="#ffffff" stroke="#ff0000" points="1380.5,-112.5 1380.5,-131.5 1466.5,-131.5 1466.5,-112.5 1380.5,-112.5"/>
<text text-anchor="middle" x="1423.5" y="-119.5" font-family="Helvetica,sans-Serif" font-size="10.00" fill="#000000">odp/api/queue.h</text>
</a>
</g>
</g>
<!-- Node0&#45;&gt;Node77 -->
<g id="edge32" class="edge">
<title>Node0&#45;&gt;Node77</title>
<path fill="none" stroke="#191970" d="M2157.796,-233.6502C2003.5544,-231.6922 1299.8611,-220.9702 1268.5,-188 1262.3737,-181.5594 1263.1834,-175.1236 1268.5,-168 1274.9834,-159.313 1330.075,-144.3616 1372.755,-133.8684"/>
<polygon fill="#191970" stroke="#191970" points="1373.5855,-137.2685 1382.4739,-131.5025 1371.9298,-130.4671 1373.5855,-137.2685"/>
</g>
<!-- Node85 -->
<g id="node29" class="node">
<title>Node85</title>
<g id="a_node29"><a xlink:href="api_2ticketlock_8h.html" target="_top" xlink:title="ODP ticketlock. ">
<polygon fill="#ffffff" stroke="#ff0000" points="2952,-168.5 2952,-187.5 3053,-187.5 3053,-168.5 2952,-168.5"/>
<text text-anchor="middle" x="3002.5" y="-175.5" font-family="Helvetica,sans-Serif" font-size="10.00" fill="#000000">odp/api/ticketlock.h</text>
</a>
</g>
</g>
<!-- Node0&#45;&gt;Node85 -->
<g id="edge34" class="edge">
<title>Node0&#45;&gt;Node85</title>
<path fill="none" stroke="#191970" d="M2217.1396,-233.3377C2317.5179,-230.8548 2653.9709,-220.5728 2941.4935,-188.1288"/>
<polygon fill="#191970" stroke="#191970" points="2942.1613,-191.5754 2951.7005,-186.9653 2941.3684,-184.6205 2942.1613,-191.5754"/>
</g>
<!-- Node33 -->
<g id="node30" class="node">
<title>Node33</title>
<g id="a_node30"><a xlink:href="api_2time_8h.html" target="_top" xlink:title="ODP time. ">
<polygon fill="#ffffff" stroke="#ff0000" points="407.5,-112.5 407.5,-131.5 485.5,-131.5 485.5,-112.5 407.5,-112.5"/>
<text text-anchor="middle" x="446.5" y="-119.5" font-family="Helvetica,sans-Serif" font-size="10.00" fill="#000000">odp/api/time.h</text>
</a>
</g>
</g>
<!-- Node0&#45;&gt;Node33 -->
<g id="edge35" class="edge">
<title>Node0&#45;&gt;Node33</title>
<path fill="none" stroke="#191970" d="M2157.7847,-233.5323C1959.4231,-230.3522 830.5269,-211.3297 679.5,-188 607.8439,-176.931 526.9919,-150.8235 481.8527,-134.9625"/>
<polygon fill="#191970" stroke="#191970" points="482.838,-131.5983 472.2432,-131.5505 480.4958,-138.1948 482.838,-131.5983"/>
</g>
<!-- Node88 -->
<g id="node31" class="node">
<title>Node88</title>
<g id="a_node31"><a xlink:href="api_2timer_8h.html" target="_top" xlink:title="ODP timer service. ">
<polygon fill="#ffffff" stroke="#ff0000" points="504,-112.5 504,-131.5 585,-131.5 585,-112.5 504,-112.5"/>
<text text-anchor="middle" x="544.5" y="-119.5" font-family="Helvetica,sans-Serif" font-size="10.00" fill="#000000">odp/api/timer.h</text>
</a>
</g>
</g>
<!-- Node0&#45;&gt;Node88 -->
<g id="edge37" class="edge">
<title>Node0&#45;&gt;Node88</title>
<path fill="none" stroke="#191970" d="M2157.7726,-233.4814C1966.5175,-230.0858 912.7676,-210.4661 771.5,-188 701.746,-176.9069 623.1912,-150.9021 579.191,-135.0473"/>
<polygon fill="#191970" stroke="#191970" points="580.1523,-131.6726 569.5583,-131.5389 577.7567,-138.2499 580.1523,-131.6726"/>
</g>
<!-- Node91 -->
<g id="node32" class="node">
<title>Node91</title>
<g id="a_node32"><a xlink:href="api_2schedule_8h.html" target="_top" xlink:title="ODP schedule. ">
<polygon fill="#ffffff" stroke="#ff0000" points="3071.5,-168.5 3071.5,-187.5 3169.5,-187.5 3169.5,-168.5 3071.5,-168.5"/>
<text text-anchor="middle" x="3120.5" y="-175.5" font-family="Helvetica,sans-Serif" font-size="10.00" fill="#000000">odp/api/schedule.h</text>
</a>
</g>
</g>
<!-- Node0&#45;&gt;Node91 -->
<g id="edge39" class="edge">
<title>Node0&#45;&gt;Node91</title>
<path fill="none" stroke="#191970" d="M2217.0626,-233.7115C2327.2147,-232.3713 2724.3272,-225.169 3061.2455,-188.0168"/>
<polygon fill="#191970" stroke="#191970" points="3061.6444,-191.4941 3071.1956,-186.9089 3060.8697,-184.5371 3061.6444,-191.4941"/>
</g>
<!-- Node97 -->
<g id="node33" class="node">
<title>Node97</title>
<g id="a_node33"><a xlink:href="api_2sync_8h.html" target="_top" xlink:title="ODP synchronisation. ">
<polygon fill="#ffffff" stroke="#ff0000" points="3187.5,-168.5 3187.5,-187.5 3267.5,-187.5 3267.5,-168.5 3187.5,-168.5"/>
<text text-anchor="middle" x="3227.5" y="-175.5" font-family="Helvetica,sans-Serif" font-size="10.00" fill="#000000">odp/api/sync.h</text>
</a>
</g>
</g>
<!-- Node0&#45;&gt;Node97 -->
<g id="edge40" class="edge">
<title>Node0&#45;&gt;Node97</title>
<path fill="none" stroke="#191970" d="M2217.1814,-233.2434C2358.575,-229.546 2965.3666,-212.6014 3177.3772,-187.9141"/>
<polygon fill="#191970" stroke="#191970" points="3177.9639,-191.3688 3187.4722,-186.695 3177.1246,-184.4192 3177.9639,-191.3688"/>
</g>
<!-- Node27 -->
<g id="node34" class="node">
<title>Node27</title>
<g id="a_node34"><a xlink:href="api_2packet_8h.html" target="_top" xlink:title="ODP packet descriptor. ">
<polygon fill="#ffffff" stroke="#ff0000" points="603,-112.5 603,-131.5 692,-131.5 692,-112.5 603,-112.5"/>
<text text-anchor="middle" x="647.5" y="-119.5" font-family="Helvetica,sans-Serif" font-size="10.00" fill="#000000">odp/api/packet.h</text>
</a>
</g>
</g>
<!-- Node0&#45;&gt;Node27 -->
<g id="edge41" class="edge">
<title>Node0&#45;&gt;Node27</title>
<path fill="none" stroke="#191970" d="M2157.786,-233.4563C1973.3549,-230.0178 988.5951,-210.704 856.5,-188 792.2344,-176.9543 720.3532,-151.1213 679.8509,-135.2484"/>
<polygon fill="#191970" stroke="#191970" points="681.0802,-131.9708 670.4942,-131.5391 678.5005,-138.4781 681.0802,-131.9708"/>
</g>
<!-- Node100 -->
<g id="node35" class="node">
<title>Node100</title>
<g id="a_node35"><a xlink:href="api_2packet__flags_8h.html" target="_top" xlink:title="ODP packet flags. ">
<polygon fill="#ffffff" stroke="#ff0000" points="3286,-168.5 3286,-187.5 3401,-187.5 3401,-168.5 3286,-168.5"/>
<text text-anchor="middle" x="3343.5" y="-175.5" font-family="Helvetica,sans-Serif" font-size="10.00" fill="#000000">odp/api/packet_flags.h</text>
</a>
</g>
</g>
<!-- Node0&#45;&gt;Node100 -->
<g id="edge43" class="edge">
<title>Node0&#45;&gt;Node100</title>
<path fill="none" stroke="#191970" d="M2217.0187,-233.1773C2366.5429,-228.946 3042.0241,-209.0532 3275.6795,-187.9497"/>
<polygon fill="#191970" stroke="#191970" points="3276.1713,-191.4191 3285.8041,-187.0077 3275.5228,-184.4492 3276.1713,-191.4191"/>
</g>
<!-- Node103 -->
<g id="node36" class="node">
<title>Node103</title>
<g id="a_node36"><a xlink:href="api_2packet__io_8h.html" target="_top" xlink:title="ODP Packet IO. ">
<polygon fill="#ffffff" stroke="#ff0000" points="710,-112.5 710,-131.5 811,-131.5 811,-112.5 710,-112.5"/>
<text text-anchor="middle" x="760.5" y="-119.5" font-family="Helvetica,sans-Serif" font-size="10.00" fill="#000000">odp/api/packet_io.h</text>
</a>
</g>
</g>
<!-- Node0&#45;&gt;Node103 -->
<g id="edge44" class="edge">
<title>Node0&#45;&gt;Node103</title>
<path fill="none" stroke="#191970" d="M2157.8462,-233.533C1979.0836,-230.6366 1048.5763,-214.3819 924.5,-188 874.1691,-177.2983 819.4222,-152.3062 787.6305,-136.3315"/>
<polygon fill="#191970" stroke="#191970" points="789.0297,-133.1162 778.5314,-131.6891 785.8484,-139.3515 789.0297,-133.1162"/>
</g>
<!-- Node108 -->
<g id="node37" class="node">
<title>Node108</title>
<g id="a_node37"><a xlink:href="api_2crypto_8h.html" target="_top" xlink:title="ODP crypto. ">
<polygon fill="#ffffff" stroke="#ff0000" points="1277.5,-168.5 1277.5,-187.5 1363.5,-187.5 1363.5,-168.5 1277.5,-168.5"/>
<text text-anchor="middle" x="1320.5" y="-175.5" font-family="Helvetica,sans-Serif" font-size="10.00" fill="#000000">odp/api/crypto.h</text>
</a>
</g>
</g>
<!-- Node0&#45;&gt;Node108 -->
<g id="edge46" class="edge">
<title>Node0&#45;&gt;Node108</title>
<path fill="none" stroke="#191970" d="M2157.9708,-233.5687C2052.0119,-231.7565 1681.122,-223.1329 1377.5,-188 1376.2369,-187.8538 1374.9593,-187.6977 1373.6718,-187.5329"/>
<polygon fill="#191970" stroke="#191970" points="1374.0735,-184.055 1363.6824,-186.1225 1373.0949,-190.9862 1374.0735,-184.055"/>
</g>
<!-- Node111 -->
<g id="node38" class="node">
<title>Node111</title>
<g id="a_node38"><a xlink:href="api_2classification_8h.html" target="_top" xlink:title="ODP classification descriptor. ">
<polygon fill="#ffffff" stroke="#ff0000" points="829.5,-112.5 829.5,-131.5 945.5,-131.5 945.5,-112.5 829.5,-112.5"/>
<text text-anchor="middle" x="887.5" y="-119.5" font-family="Helvetica,sans-Serif" font-size="10.00" fill="#000000">odp/api/classification.h</text>
</a>
</g>
</g>
<!-- Node0&#45;&gt;Node111 -->
<g id="edge49" class="edge">
<title>Node0&#45;&gt;Node111</title>
<path fill="none" stroke="#191970" d="M2157.7754,-233.4666C1975.6661,-230.126 1016.6386,-211.4667 959.5,-188 935.1479,-177.9986 913.8523,-155.8546 900.8622,-139.9739"/>
<polygon fill="#191970" stroke="#191970" points="903.4615,-137.6168 894.5333,-131.9126 897.9556,-141.9395 903.4615,-137.6168"/>
</g>
<!-- Node115 -->
<g id="node39" class="node">
<title>Node115</title>
<g id="a_node39"><a xlink:href="api_2rwlock_8h.html" target="_top" xlink:title="ODP RW Locks. ">
<polygon fill="#ffffff" stroke="#ff0000" points="3419.5,-168.5 3419.5,-187.5 3507.5,-187.5 3507.5,-168.5 3419.5,-168.5"/>
<text text-anchor="middle" x="3463.5" y="-175.5" font-family="Helvetica,sans-Serif" font-size="10.00" fill="#000000">odp/api/rwlock.h</text>
</a>
</g>
</g>
<!-- Node0&#45;&gt;Node115 -->
<g id="edge51" class="edge">
<title>Node0&#45;&gt;Node115</title>
<path fill="none" stroke="#191970" d="M2217.1081,-233.4854C2377.868,-230.6015 3147.9236,-215.6183 3409.1341,-187.9588"/>
<polygon fill="#191970" stroke="#191970" points="3409.7681,-191.4105 3419.3281,-186.8435 3409.0067,-184.452 3409.7681,-191.4105"/>
</g>
<!-- Node79 -->
<g id="node40" class="node">
<title>Node79</title>
<g id="a_node40"><a xlink:href="api_2event_8h.html" target="_top" xlink:title="ODP event. ">
<polygon fill="#ffffff" stroke="#ff0000" points="3526,-168.5 3526,-187.5 3609,-187.5 3609,-168.5 3526,-168.5"/>
<text text-anchor="middle" x="3567.5" y="-175.5" font-family="Helvetica,sans-Serif" font-size="10.00" fill="#000000">odp/api/event.h</text>
</a>
</g>
</g>
<!-- Node0&#45;&gt;Node79 -->
<g id="edge52" class="edge">
<title>Node0&#45;&gt;Node79</title>
<path fill="none" stroke="#191970" d="M2217.1188,-233.616C2386.2008,-231.3279 3231.4483,-218.5798 3515.5621,-187.8762"/>
<polygon fill="#191970" stroke="#191970" points="3516.2857,-191.3172 3525.8358,-186.7296 3515.5093,-184.3604 3516.2857,-191.3172"/>
</g>
<!-- Node118 -->
<g id="node41" class="node">
<title>Node118</title>
<g id="a_node41"><a xlink:href="random_8h.html" target="_top" xlink:title="ODP random number API. ">
<polygon fill="#ffffff" stroke="#ff0000" points="3627.5,-168.5 3627.5,-187.5 3719.5,-187.5 3719.5,-168.5 3627.5,-168.5"/>
<text text-anchor="middle" x="3673.5" y="-175.5" font-family="Helvetica,sans-Serif" font-size="10.00" fill="#000000">odp/api/random.h</text>
</a>
</g>
</g>
<!-- Node0&#45;&gt;Node118 -->
<g id="edge53" class="edge">
<title>Node0&#45;&gt;Node118</title>
<path fill="none" stroke="#191970" d="M2217.0264,-233.6459C2393.5563,-231.4398 3311.7552,-218.6969 3617.1898,-187.9545"/>
<polygon fill="#191970" stroke="#191970" points="3617.7725,-191.4129 3627.3581,-186.9 3617.0504,-184.4503 3617.7725,-191.4129"/>
</g>
<!-- Node120 -->
<g id="node42" class="node">
<title>Node120</title>
<g id="a_node42"><a xlink:href="api_2errno_8h.html" target="_top" xlink:title="ODP errno API. ">
<polygon fill="#ffffff" stroke="#ff0000" points="3738,-168.5 3738,-187.5 3819,-187.5 3819,-168.5 3738,-168.5"/>
<text text-anchor="middle" x="3778.5" y="-175.5" font-family="Helvetica,sans-Serif" font-size="10.00" fill="#000000">odp/api/errno.h</text>
</a>
</g>
</g>
<!-- Node0&#45;&gt;Node120 -->
<g id="edge54" class="edge">
<title>Node0&#45;&gt;Node120</title>
<path fill="none" stroke="#191970" d="M2217.1562,-233.7933C2402.0448,-232.4036 3399.1105,-223.4065 3727.9278,-187.8196"/>
<polygon fill="#191970" stroke="#191970" points="3728.3799,-191.291 3737.9308,-186.705 3727.6047,-184.3341 3728.3799,-191.291"/>
</g>
<!-- Node94 -->
<g id="node43" class="node">
<title>Node94</title>
<g id="a_node43"><a xlink:href="api_2thrmask_8h.html" target="_top" xlink:title="ODP thread masks. ">
<polygon fill="#ffffff" stroke="#ff0000" points="3837,-168.5 3837,-187.5 3932,-187.5 3932,-168.5 3837,-168.5"/>
<text text-anchor="middle" x="3884.5" y="-175.5" font-family="Helvetica,sans-Serif" font-size="10.00" fill="#000000">odp/api/thrmask.h</text>
</a>
</g>
</g>
<!-- Node0&#45;&gt;Node94 -->
<g id="edge55" class="edge">
<title>Node0&#45;&gt;Node94</title>
<path fill="none" stroke="#191970" d="M2217.1707,-233.7719C2409.0465,-232.2069 3477.2275,-222.1116 3826.7786,-188.0108"/>
<polygon fill="#191970" stroke="#191970" points="3827.3083,-191.4753 3836.9092,-186.9948 3826.6098,-184.5102 3827.3083,-191.4753"/>
</g>
<!-- Node123 -->
<g id="node44" class="node">
<title>Node123</title>
<g id="a_node44"><a xlink:href="api_2traffic__mngr_8h.html" target="_top" xlink:title="ODP Traffic manager. ">
<polygon fill="#ffffff" stroke="#ff0000" points="3950,-168.5 3950,-187.5 4061,-187.5 4061,-168.5 3950,-168.5"/>
<text text-anchor="middle" x="4005.5" y="-175.5" font-family="Helvetica,sans-Serif" font-size="10.00" fill="#000000">odp/api/traffic_mngr.h</text>
</a>
</g>
</g>
<!-- Node0&#45;&gt;Node123 -->
<g id="edge56" class="edge">
<title>Node0&#45;&gt;Node123</title>
<path fill="none" stroke="#191970" d="M2217.2337,-233.7451C2416.9418,-231.9549 3566.0978,-220.4086 3939.6831,-188.0414"/>
<polygon fill="#191970" stroke="#191970" points="3940.0538,-191.5224 3949.7048,-187.1511 3939.4343,-184.5498 3940.0538,-191.5224"/>
</g>
<!-- Node126 -->
<g id="node45" class="node">
<title>Node126</title>
<g id="a_node45"><a xlink:href="api_2spinlock__recursive_8h.html" target="_top" xlink:title="ODP resursive spinlock. ">
<polygon fill="#ffffff" stroke="#ff0000" points="4079.5,-168.5 4079.5,-187.5 4219.5,-187.5 4219.5,-168.5 4079.5,-168.5"/>
<text text-anchor="middle" x="4149.5" y="-175.5" font-family="Helvetica,sans-Serif" font-size="10.00" fill="#000000">odp/api/spinlock_recursive.h</text>
</a>
</g>
</g>
<!-- Node0&#45;&gt;Node126 -->
<g id="edge57" class="edge">
<title>Node0&#45;&gt;Node126</title>
<path fill="none" stroke="#191970" d="M2217.0234,-233.6904C2424.4955,-231.4536 3666.6782,-217.043 4069.1093,-188.0119"/>
<polygon fill="#191970" stroke="#191970" points="4069.6108,-191.4845 4079.3261,-187.258 4069.0957,-184.5035 4069.6108,-191.4845"/>
</g>
<!-- Node129 -->
<g id="node46" class="node">
<title>Node129</title>
<g id="a_node46"><a xlink:href="api_2rwlock__recursive_8h.html" target="_top" xlink:title="ODP resursive read/write lock. ">
<polygon fill="#ffffff" stroke="#ff0000" points="4238,-168.5 4238,-187.5 4371,-187.5 4371,-168.5 4238,-168.5"/>
<text text-anchor="middle" x="4304.5" y="-175.5" font-family="Helvetica,sans-Serif" font-size="10.00" fill="#000000">odp/api/rwlock_recursive.h</text>
</a>
</g>
</g>
<!-- Node0&#45;&gt;Node129 -->
<g id="edge58" class="edge">
<title>Node0&#45;&gt;Node129</title>
<path fill="none" stroke="#191970" d="M2217.0107,-233.7746C2434.3981,-232.0489 3791.1685,-220.1419 4227.6755,-187.9538"/>
<polygon fill="#191970" stroke="#191970" points="4228.1059,-191.4313 4237.8146,-187.1896 4227.5798,-184.4511 4228.1059,-191.4313"/>
</g>
<!-- Node132 -->
<g id="node47" class="node">
<title>Node132</title>
<g id="a_node47"><a xlink:href="api_2std__clib_8h_source.html" target="_top" xlink:title="odp/api/std_clib.h">
<polygon fill="#ffffff" stroke="#ff0000" points="1274,-56.5 1274,-75.5 1367,-75.5 1367,-56.5 1274,-56.5"/>
<text text-anchor="middle" x="1320.5" y="-63.5" font-family="Helvetica,sans-Serif" font-size="10.00" fill="#000000">odp/api/std_clib.h</text>
</a>
</g>
</g>
<!-- Node0&#45;&gt;Node132 -->
<g id="edge59" class="edge">
<title>Node0&#45;&gt;Node132</title>
<path fill="none" stroke="#191970" d="M2157.6908,-233.3668C2018.3179,-230.2644 1436.597,-215.6877 1410.5,-188 1404.4032,-181.5315 1405.6394,-175.4423 1410.5,-168 1432.2643,-134.6756 1470.7357,-165.3244 1492.5,-132 1497.3606,-124.5577 1497.9129,-119.0507 1492.5,-112 1478.3989,-93.632 1421.8866,-81.0076 1377.4374,-73.6955"/>
<polygon fill="#191970" stroke="#191970" points="1377.7212,-70.1967 1367.2956,-72.0833 1376.6221,-77.1099 1377.7212,-70.1967"/>
</g>
<!-- Node25 -->
<g id="node48" class="node">
<title>Node25</title>
<g id="a_node48"><a xlink:href="support_8h.html" target="_top" xlink:title="ODP support API &#45; platform specific header. ">
<polygon fill="#ffffff" stroke="#ff0000" points="4389.5,-168.5 4389.5,-187.5 4481.5,-187.5 4481.5,-168.5 4389.5,-168.5"/>
<text text-anchor="middle" x="4435.5" y="-175.5" font-family="Helvetica,sans-Serif" font-size="10.00" fill="#000000">odp/api/support.h</text>
</a>
</g>
</g>
<!-- Node0&#45;&gt;Node25 -->
<g id="edge61" class="edge">
<title>Node0&#45;&gt;Node25</title>
<path fill="none" stroke="#191970" d="M2217.064,-233.6647C2459.0406,-230.8836 4111.2518,-211.1835 4379.3641,-187.8739"/>
<polygon fill="#191970" stroke="#191970" points="4379.7319,-191.3549 4389.362,-186.9378 4379.0793,-184.3854 4379.7319,-191.3549"/>
</g>
<!-- Node135 -->
<g id="node49" class="node">
<title>Node135</title>
<g id="a_node49"><a xlink:href="api_2ipsec_8h.html" target="_top" xlink:title="ODP IPSEC API &#45; platform specific header. ">
<polygon fill="#ffffff" stroke="#ff0000" points="4500,-168.5 4500,-187.5 4583,-187.5 4583,-168.5 4500,-168.5"/>
<text text-anchor="middle" x="4541.5" y="-175.5" font-family="Helvetica,sans-Serif" font-size="10.00" fill="#000000">odp/api/ipsec.h</text>
</a>
</g>
</g>
<!-- Node0&#45;&gt;Node135 -->
<g id="edge62" class="edge">
<title>Node0&#45;&gt;Node135</title>
<path fill="none" stroke="#191970" d="M2217.3404,-233.7183C2467.243,-231.3185 4209.1174,-213.79 4489.747,-187.7872"/>
<polygon fill="#191970" stroke="#191970" points="4490.2383,-191.2557 4499.8414,-186.7799 4489.5432,-184.2902 4490.2383,-191.2557"/>
</g>
<!-- Node140 -->
<g id="node50" class="node">
<title>Node140</title>
<g id="a_node50"><a xlink:href="api_2stash_8h.html" target="_top" xlink:title="ODP stash. ">
<polygon fill="#ffffff" stroke="#ff0000" points="4601,-168.5 4601,-187.5 4684,-187.5 4684,-168.5 4601,-168.5"/>
<text text-anchor="middle" x="4642.5" y="-175.5" font-family="Helvetica,sans-Serif" font-size="10.00" fill="#000000">odp/api/stash.h</text>
</a>
</g>
</g>
<!-- Node0&#45;&gt;Node140 -->
<g id="edge63" class="edge">
<title>Node0&#45;&gt;Node140</title>
<path fill="none" stroke="#191970" d="M2217.0162,-233.7549C2472.0016,-231.5959 4299.801,-215.2814 4590.7672,-187.9276"/>
<polygon fill="#191970" stroke="#191970" points="4591.2473,-191.397 4600.8444,-186.9085 4590.5429,-184.4325 4591.2473,-191.397"/>
</g>
<!-- Node2 -->
<g id="node3" class="node">
<title>Node2</title>
<g id="a_node3"><a xlink:href="spec_2deprecated_8h.html" target="_top" xlink:title="Macro for deprecated API definitions. ">
<polygon fill="#ffffff" stroke="#ff0000" points="0,-112.5 0,-131.5 131,-131.5 131,-112.5 0,-112.5"/>
<text text-anchor="middle" x="65.5" y="-119.5" font-family="Helvetica,sans-Serif" font-size="10.00" fill="#000000">odp/api/spec/deprecated.h</text>
</a>
</g>
</g>
<!-- Node1&#45;&gt;Node2 -->
<g id="edge2" class="edge">
<title>Node1&#45;&gt;Node2</title>
<path fill="none" stroke="#191970" d="M129.0876,-168.2455C117.4943,-159.814 100.5252,-147.4729 87.0322,-137.6598"/>
<polygon fill="#191970" stroke="#191970" points="88.9047,-134.6938 78.7587,-131.6427 84.7874,-140.355 88.9047,-134.6938"/>
</g>
<!-- Node6 -->
<g id="node5" class="node">
<title>Node6</title>
<polygon fill="#ffffff" stroke="#bfbfbf" points="282,-112.5 282,-131.5 389,-131.5 389,-112.5 282,-112.5"/>
<text text-anchor="middle" x="335.5" y="-119.5" font-family="Helvetica,sans-Serif" font-size="10.00" fill="#000000">odp/api/abi/version.h</text>
</g>
<!-- Node5&#45;&gt;Node6 -->
<g id="edge4" class="edge">
<title>Node5&#45;&gt;Node6</title>
<path fill="none" stroke="#191970" d="M335.5,-168.2455C335.5,-160.9382 335.5,-150.6944 335.5,-141.7046"/>
<polygon fill="#191970" stroke="#191970" points="339.0001,-141.6426 335.5,-131.6427 332.0001,-141.6427 339.0001,-141.6426"/>
</g>
<!-- Node7 -->
<g id="node6" class="node">
<title>Node7</title>
<g id="a_node6"><a xlink:href="api_2spec_2version_8h.html" target="_top" xlink:title="ODP version. ">
<polygon fill="#ffffff" stroke="#ff0000" points="149,-112.5 149,-131.5 264,-131.5 264,-112.5 149,-112.5"/>
<text text-anchor="middle" x="206.5" y="-119.5" font-family="Helvetica,sans-Serif" font-size="10.00" fill="#000000">odp/api/spec/version.h</text>
</a>
</g>
</g>
<!-- Node5&#45;&gt;Node7 -->
<g id="edge5" class="edge">
<title>Node5&#45;&gt;Node7</title>
<path fill="none" stroke="#191970" d="M313.3241,-168.3733C292.5234,-159.3435 261.2083,-145.7494 237.8542,-135.6111"/>
<polygon fill="#191970" stroke="#191970" points="238.9532,-132.2727 228.3865,-131.5011 236.1657,-138.6938 238.9532,-132.2727"/>
</g>
<!-- Node9 -->
<g id="node8" class="node">
<title>Node9</title>
<polygon fill="#ffffff" stroke="#bfbfbf" points="991.5,-.5 991.5,-19.5 1109.5,-19.5 1109.5,-.5 991.5,-.5"/>
<text text-anchor="middle" x="1050.5" y="-7.5" font-family="Helvetica,sans-Serif" font-size="10.00" fill="#000000">odp/api/abi/std_types.h</text>
</g>
<!-- Node8&#45;&gt;Node9 -->
<g id="edge7" class="edge">
<title>Node8&#45;&gt;Node9</title>
<path fill="none" stroke="#191970" d="M1002.6028,-56.2455C1011.0028,-48.1352 1023.1494,-36.4075 1033.1084,-26.7919"/>
<polygon fill="#191970" stroke="#191970" points="1035.75,-29.1066 1040.5129,-19.6427 1030.8878,-24.0707 1035.75,-29.1066"/>
</g>
<!-- Node44&#45;&gt;Node46 -->
<g id="edge16" class="edge">
<title>Node44&#45;&gt;Node46</title>
<path fill="none" stroke="#191970" d="M2193.2482,-168.2455C2197.7435,-160.617 2204.1248,-149.7881 2209.5825,-140.5267"/>
<polygon fill="#191970" stroke="#191970" points="2212.7561,-142.035 2214.8177,-131.6427 2206.7253,-138.4811 2212.7561,-142.035"/>
</g>
<!-- Node54&#45;&gt;Node8 -->
<g id="edge19" class="edge">
<title>Node54&#45;&gt;Node8</title>
<path fill="none" stroke="#191970" d="M1056.8723,-168.3606C1049.7528,-159.209 1038.983,-144.9631 1030.5,-132 1020.3461,-116.4834 1009.9125,-98.1591 1002.5533,-84.7606"/>
<polygon fill="#191970" stroke="#191970" points="1005.4283,-82.7207 997.5804,-75.603 999.2768,-86.0612 1005.4283,-82.7207"/>
</g>
<!-- Node54&#45;&gt;Node55 -->
<g id="edge20" class="edge">
<title>Node54&#45;&gt;Node55</title>
<path fill="none" stroke="#191970" d="M1067.9837,-168.2455C1070.6508,-160.7776 1074.4133,-150.2427 1077.6737,-141.1137"/>
<polygon fill="#191970" stroke="#191970" points="1080.9889,-142.2373 1081.0562,-131.6427 1074.3967,-139.8829 1080.9889,-142.2373"/>
</g>
<!-- Node69&#45;&gt;Node8 -->
<g id="edge26" class="edge">
<title>Node69&#45;&gt;Node8</title>
<path fill="none" stroke="#191970" d="M1167.2278,-112.3733C1131.5342,-102.9001 1076.9121,-88.4032 1038.2549,-78.1435"/>
<polygon fill="#191970" stroke="#191970" points="1038.8621,-74.6835 1028.2989,-75.5011 1037.0664,-81.4493 1038.8621,-74.6835"/>
</g>
<!-- Node73&#45;&gt;Node8 -->
<g id="edge30" class="edge">
<title>Node73&#45;&gt;Node8</title>
<path fill="none" stroke="#191970" d="M1278.2309,-113.7803C1274.9401,-113.1682 1271.667,-112.5683 1268.5,-112 1194.7925,-98.7726 1109.7741,-84.7955 1053.7938,-75.768"/>
<polygon fill="#191970" stroke="#191970" points="1054.1174,-72.2751 1043.6882,-74.1412 1053.0049,-79.1861 1054.1174,-72.2751"/>
</g>
<!-- Node77&#45;&gt;Node8 -->
<g id="edge33" class="edge">
<title>Node77&#45;&gt;Node8</title>
<path fill="none" stroke="#191970" d="M1380.41,-113.4754C1377.3987,-112.953 1374.4064,-112.4553 1371.5,-112 1259.8638,-94.5125 1128.8353,-79.9162 1053.7513,-72.1158"/>
<polygon fill="#191970" stroke="#191970" points="1053.8424,-68.6067 1043.5357,-71.0606 1053.1232,-75.5696 1053.8424,-68.6067"/>
</g>
<!-- Node33&#45;&gt;Node8 -->
<g id="edge36" class="edge">
<title>Node33&#45;&gt;Node8</title>
<path fill="none" stroke="#191970" d="M485.7276,-113.45C488.6892,-112.9203 491.6378,-112.4289 494.5,-112 650.9257,-88.5583 836.9029,-75.1855 931.1625,-69.4219"/>
<polygon fill="#191970" stroke="#191970" points="931.5991,-72.902 941.37,-68.8056 931.1772,-65.9147 931.5991,-72.902"/>
</g>
<!-- Node88&#45;&gt;Node8 -->
<g id="edge38" class="edge">
<title>Node88&#45;&gt;Node8</title>
<path fill="none" stroke="#191970" d="M585.0926,-113.4341C587.9329,-112.9215 590.7563,-112.4373 593.5,-112 712.4526,-93.0415 852.548,-78.7235 931.0898,-71.4157"/>
<polygon fill="#191970" stroke="#191970" points="931.6534,-74.8787 941.2892,-70.474 931.0098,-67.9083 931.6534,-74.8787"/>
</g>
<!-- Node27&#45;&gt;Node8 -->
<g id="edge42" class="edge">
<title>Node27&#45;&gt;Node8</title>
<path fill="none" stroke="#191970" d="M692.0153,-113.4998C694.8849,-112.9831 697.732,-112.479 700.5,-112 780.0911,-98.2255 872.1914,-84.0004 931.333,-75.0857"/>
<polygon fill="#191970" stroke="#191970" points="931.8893,-78.5415 941.2575,-73.5929 930.8481,-71.6193 931.8893,-78.5415"/>
</g>
<!-- Node103&#45;&gt;Node8 -->
<g id="edge45" class="edge">
<title>Node103&#45;&gt;Node8</title>
<path fill="none" stroke="#191970" d="M800.1186,-112.4369C839.6568,-102.8932 900.5069,-88.2052 943.1582,-77.9101"/>
<polygon fill="#191970" stroke="#191970" points="944.1452,-81.2724 953.0448,-75.5237 942.5027,-74.4679 944.1452,-81.2724"/>
</g>
<!-- Node108&#45;&gt;Node8 -->
<g id="edge47" class="edge">
<title>Node108&#45;&gt;Node8</title>
<path fill="none" stroke="#191970" d="M1361.5261,-168.4975C1405.0473,-158.0056 1468.5116,-141.3637 1475.5,-132 1480.8166,-124.8764 1481.48,-118.5766 1475.5,-112 1447.6306,-81.3502 1177.384,-70.6425 1053.7199,-67.327"/>
<polygon fill="#191970" stroke="#191970" points="1053.7344,-63.8262 1043.6466,-67.0646 1053.5521,-70.8239 1053.7344,-63.8262"/>
</g>
<!-- Node108&#45;&gt;Node77 -->
<g id="edge48" class="edge">
<title>Node108&#45;&gt;Node77</title>
<path fill="none" stroke="#191970" d="M1338.4412,-168.2455C1354.54,-159.4928 1378.3879,-146.527 1396.7391,-136.5496"/>
<polygon fill="#191970" stroke="#191970" points="1398.6507,-139.4942 1405.7644,-131.6427 1395.3071,-133.3444 1398.6507,-139.4942"/>
</g>
<!-- Node111&#45;&gt;Node8 -->
<g id="edge50" class="edge">
<title>Node111&#45;&gt;Node8</title>
<path fill="none" stroke="#191970" d="M905.7896,-112.2455C922.2762,-103.4527 946.7352,-90.4079 965.4765,-80.4125"/>
<polygon fill="#191970" stroke="#191970" points="967.2435,-83.4368 974.42,-75.6427 963.9494,-77.2604 967.2435,-83.4368"/>
</g>
<!-- Node132&#45;&gt;Node9 -->
<g id="edge60" class="edge">
<title>Node132&#45;&gt;Node9</title>
<path fill="none" stroke="#191970" d="M1274.3921,-56.4369C1227.8925,-46.7925 1156.0641,-31.8948 1106.36,-21.5858"/>
<polygon fill="#191970" stroke="#191970" points="1106.9201,-18.1275 1096.4177,-19.5237 1105.4985,-24.9817 1106.9201,-18.1275"/>
</g>
</g>
</svg>
