<?xml version="1.0" encoding="UTF-8" standalone="no"?>
<!DOCTYPE svg PUBLIC "-//W3C//DTD SVG 1.1//EN"
 "http://www.w3.org/Graphics/SVG/1.1/DTD/svg11.dtd">
<!-- Generated by graphviz version 2.40.1 (20161225.0304)
 -->
<!-- Title: queue_types.h Pages: 1 -->
<svg width="407pt" height="319pt"
 viewBox="0.00 0.00 406.52 319.00" xmlns="http://www.w3.org/2000/svg" xmlns:xlink="http://www.w3.org/1999/xlink">
<g id="graph0" class="graph" transform="scale(1 1) rotate(0) translate(4 315)">
<title>queue_types.h</title>
<polygon fill="#ffffff" stroke="transparent" points="-4,4 -4,-315 402.5209,-315 402.5209,4 -4,4"/>
<!-- Node0 -->
<g id="node1" class="node">
<title>Node0</title>
<polygon fill="#bfbfbf" stroke="#000000" points="122.5209,-291.5 122.5209,-310.5 202.5209,-310.5 202.5209,-291.5 122.5209,-291.5"/>
<text text-anchor="middle" x="162.5209" y="-298.5" font-family="Helvetica,sans-Serif" font-size="10.00" fill="#000000">queue_types.h</text>
</g>
<!-- Node1 -->
<g id="node2" class="node">
<title>Node1</title>
<g id="a_node2"><a xlink:href="visibility__begin_8h_source.html" target="_top" xlink:title="odp/visibility_begin.h">
<polygon fill="#ffffff" stroke="#000000" points="102.0209,-.5 102.0209,-19.5 209.0209,-19.5 209.0209,-.5 102.0209,-.5"/>
<text text-anchor="middle" x="155.5209" y="-7.5" font-family="Helvetica,sans-Serif" font-size="10.00" fill="#000000">odp/visibility_begin.h</text>
</a>
</g>
</g>
<!-- Node0&#45;&gt;Node1 -->
<g id="edge1" class="edge">
<title>Node0&#45;&gt;Node1</title>
<path fill="none" stroke="#191970" d="M122.3263,-295.5734C93.874,-289.844 56.4843,-278.2415 31.5209,-255 6.1709,-231.3985 .5209,-218.136 .5209,-183.5 .5209,-183.5 .5209,-183.5 .5209,-122 .5209,-91.4754 -1.5627,-78.0733 19.5209,-56 31.4955,-43.4633 70.6142,-30.9686 103.8411,-22.172"/>
<polygon fill="#191970" stroke="#191970" points="105.1214,-25.4562 113.9272,-19.5648 103.3695,-18.6789 105.1214,-25.4562"/>
</g>
<!-- Node2 -->
<g id="node3" class="node">
<title>Node2</title>
<g id="a_node3"><a xlink:href="api_2schedule__types_8h.html" target="_top" xlink:title="ODP schedule. ">
<polygon fill="#ffffff" stroke="#000000" points="166.5209,-235.5 166.5209,-254.5 294.5209,-254.5 294.5209,-235.5 166.5209,-235.5"/>
<text text-anchor="middle" x="230.5209" y="-242.5" font-family="Helvetica,sans-Serif" font-size="10.00" fill="#000000">odp/api/schedule_types.h</text>
</a>
</g>
</g>
<!-- Node0&#45;&gt;Node2 -->
<g id="edge2" class="edge">
<title>Node0&#45;&gt;Node2</title>
<path fill="none" stroke="#191970" d="M174.3656,-291.2455C184.4089,-282.9746 199.0204,-270.9416 210.8213,-261.2232"/>
<polygon fill="#191970" stroke="#191970" points="213.3176,-263.7015 218.812,-254.6427 208.8676,-258.298 213.3176,-263.7015"/>
</g>
<!-- Node7 -->
<g id="node8" class="node">
<title>Node7</title>
<g id="a_node8"><a xlink:href="visibility__end_8h_source.html" target="_top" xlink:title="odp/visibility_end.h">
<polygon fill="#ffffff" stroke="#000000" points="256.5209,-.5 256.5209,-19.5 356.5209,-19.5 356.5209,-.5 256.5209,-.5"/>
<text text-anchor="middle" x="306.5209" y="-7.5" font-family="Helvetica,sans-Serif" font-size="10.00" fill="#000000">odp/visibility_end.h</text>
</a>
</g>
</g>
<!-- Node0&#45;&gt;Node7 -->
<g id="edge15" class="edge">
<title>Node0&#45;&gt;Node7</title>
<path fill="none" stroke="#191970" d="M202.5551,-298.8435C269.8869,-292.8242 398.5209,-270.0045 398.5209,-183.5 398.5209,-183.5 398.5209,-183.5 398.5209,-122 398.5209,-79.5397 358.5508,-44.3942 331.3019,-25.3678"/>
<polygon fill="#191970" stroke="#191970" points="333.2209,-22.4405 322.9687,-19.768 329.3166,-28.2506 333.2209,-22.4405"/>
</g>
<!-- Node8 -->
<g id="node9" class="node">
<title>Node8</title>
<g id="a_node9"><a xlink:href="deprecated_8h.html" target="_top" xlink:title="Control deprecated API definitions. ">
<polygon fill="#ffffff" stroke="#000000" points="41.0209,-235.5 41.0209,-254.5 148.0209,-254.5 148.0209,-235.5 41.0209,-235.5"/>
<text text-anchor="middle" x="94.5209" y="-242.5" font-family="Helvetica,sans-Serif" font-size="10.00" fill="#000000">odp/api/deprecated.h</text>
</a>
</g>
</g>
<!-- Node0&#45;&gt;Node8 -->
<g id="edge11" class="edge">
<title>Node0&#45;&gt;Node8</title>
<path fill="none" stroke="#191970" d="M150.6762,-291.2455C140.633,-282.9746 126.0215,-270.9416 114.2205,-261.2232"/>
<polygon fill="#191970" stroke="#191970" points="116.1742,-258.298 106.2299,-254.6427 111.7242,-263.7015 116.1742,-258.298"/>
</g>
<!-- Node3 -->
<g id="node4" class="node">
<title>Node3</title>
<polygon fill="#ffffff" stroke="#bfbfbf" points="264.5209,-168.5 264.5209,-198.5 370.5209,-198.5 370.5209,-168.5 264.5209,-168.5"/>
<text text-anchor="start" x="272.5209" y="-186.5" font-family="Helvetica,sans-Serif" font-size="10.00" fill="#000000">odp/api/abi/schedule</text>
<text text-anchor="middle" x="317.5209" y="-175.5" font-family="Helvetica,sans-Serif" font-size="10.00" fill="#000000">_types.h</text>
</g>
<!-- Node2&#45;&gt;Node3 -->
<g id="edge3" class="edge">
<title>Node2&#45;&gt;Node3</title>
<path fill="none" stroke="#191970" d="M244.1147,-235.3906C255.78,-227.1444 273.0068,-214.9669 287.8409,-204.4807"/>
<polygon fill="#191970" stroke="#191970" points="290.0929,-207.175 296.2383,-198.5446 286.0522,-201.459 290.0929,-207.175"/>
</g>
<!-- Node4 -->
<g id="node5" class="node">
<title>Node4</title>
<g id="a_node5"><a xlink:href="api_2spec_2schedule__types_8h.html" target="_top" xlink:title="ODP schedule types. ">
<polygon fill="#ffffff" stroke="#000000" points="132.5209,-168.5 132.5209,-198.5 246.5209,-198.5 246.5209,-168.5 132.5209,-168.5"/>
<text text-anchor="start" x="140.5209" y="-186.5" font-family="Helvetica,sans-Serif" font-size="10.00" fill="#000000">odp/api/spec/schedule</text>
<text text-anchor="middle" x="189.5209" y="-175.5" font-family="Helvetica,sans-Serif" font-size="10.00" fill="#000000">_types.h</text>
</a>
</g>
</g>
<!-- Node2&#45;&gt;Node4 -->
<g id="edge4" class="edge">
<title>Node2&#45;&gt;Node4</title>
<path fill="none" stroke="#191970" d="M224.1147,-235.3906C219.0796,-227.838 211.846,-216.9876 205.2938,-207.1593"/>
<polygon fill="#191970" stroke="#191970" points="208.0099,-204.9236 199.5506,-198.5446 202.1855,-208.8066 208.0099,-204.9236"/>
</g>
<!-- Node4&#45;&gt;Node1 -->
<g id="edge5" class="edge">
<title>Node4&#45;&gt;Node1</title>
<path fill="none" stroke="#191970" d="M187.6032,-168.4775C184.4215,-144.5293 177.5021,-96.289 168.5209,-56 166.5623,-47.2139 163.9296,-37.6151 161.5457,-29.4695"/>
<polygon fill="#191970" stroke="#191970" points="164.8658,-28.3564 158.6327,-19.7891 158.1628,-30.3735 164.8658,-28.3564"/>
</g>
<!-- Node5 -->
<g id="node6" class="node">
<title>Node5</title>
<g id="a_node6"><a xlink:href="support_8h.html" target="_top" xlink:title="ODP support API &#45; platform specific header. ">
<polygon fill="#ffffff" stroke="#000000" points="222.5209,-112.5 222.5209,-131.5 314.5209,-131.5 314.5209,-112.5 222.5209,-112.5"/>
<text text-anchor="middle" x="268.5209" y="-119.5" font-family="Helvetica,sans-Serif" font-size="10.00" fill="#000000">odp/api/support.h</text>
</a>
</g>
</g>
<!-- Node4&#45;&gt;Node5 -->
<g id="edge6" class="edge">
<title>Node4&#45;&gt;Node5</title>
<path fill="none" stroke="#191970" d="M209.049,-168.2977C220.8146,-159.1384 235.7884,-147.4816 247.7674,-138.1562"/>
<polygon fill="#191970" stroke="#191970" points="250.1312,-140.7516 255.872,-131.8469 245.8311,-135.228 250.1312,-140.7516"/>
</g>
<!-- Node4&#45;&gt;Node7 -->
<g id="edge10" class="edge">
<title>Node4&#45;&gt;Node7</title>
<path fill="none" stroke="#191970" d="M242.2173,-168.3905C274.5132,-158.1804 311.8341,-144.3594 323.5209,-132 347.3703,-106.7781 352.6118,-88.8927 341.5209,-56 337.9515,-45.4138 330.8674,-35.3356 324.0007,-27.3256"/>
<polygon fill="#191970" stroke="#191970" points="326.4228,-24.7886 317.0799,-19.7924 321.2679,-29.5244 326.4228,-24.7886"/>
</g>
<!-- Node6 -->
<g id="node7" class="node">
<title>Node6</title>
<g id="a_node7"><a xlink:href="spec_2support_8h.html" target="_top" xlink:title="ODP support API. ">
<polygon fill="#ffffff" stroke="#000000" points="216.5209,-56.5 216.5209,-75.5 332.5209,-75.5 332.5209,-56.5 216.5209,-56.5"/>
<text text-anchor="middle" x="274.5209" y="-63.5" font-family="Helvetica,sans-Serif" font-size="10.00" fill="#000000">odp/api/spec/support.h</text>
</a>
</g>
</g>
<!-- Node5&#45;&gt;Node6 -->
<g id="edge7" class="edge">
<title>Node5&#45;&gt;Node6</title>
<path fill="none" stroke="#191970" d="M269.566,-112.2455C270.349,-104.9382 271.4465,-94.6944 272.4097,-85.7046"/>
<polygon fill="#191970" stroke="#191970" points="275.9024,-85.9587 273.4878,-75.6427 268.9423,-85.2129 275.9024,-85.9587"/>
</g>
<!-- Node6&#45;&gt;Node1 -->
<g id="edge8" class="edge">
<title>Node6&#45;&gt;Node1</title>
<path fill="none" stroke="#191970" d="M254.0641,-56.3733C235.0472,-47.4241 206.5034,-33.9917 185.0233,-23.8835"/>
<polygon fill="#191970" stroke="#191970" points="186.2493,-20.5923 175.7108,-19.5011 183.2687,-26.926 186.2493,-20.5923"/>
</g>
<!-- Node6&#45;&gt;Node7 -->
<g id="edge9" class="edge">
<title>Node6&#45;&gt;Node7</title>
<path fill="none" stroke="#191970" d="M280.0949,-56.2455C284.454,-48.617 290.642,-37.7881 295.9342,-28.5267"/>
<polygon fill="#191970" stroke="#191970" points="299.0882,-30.0616 301.0108,-19.6427 293.0105,-26.5886 299.0882,-30.0616"/>
</g>
<!-- Node9 -->
<g id="node10" class="node">
<title>Node9</title>
<g id="a_node10"><a xlink:href="spec_2deprecated_8h.html" target="_top" xlink:title="Macro for deprecated API definitions. ">
<polygon fill="#ffffff" stroke="#000000" points="29.0209,-56.5 29.0209,-75.5 160.0209,-75.5 160.0209,-56.5 29.0209,-56.5"/>
<text text-anchor="middle" x="94.5209" y="-63.5" font-family="Helvetica,sans-Serif" font-size="10.00" fill="#000000">odp/api/spec/deprecated.h</text>
</a>
</g>
</g>
<!-- Node8&#45;&gt;Node9 -->
<g id="edge12" class="edge">
<title>Node8&#45;&gt;Node9</title>
<path fill="none" stroke="#191970" d="M94.5209,-235.3762C94.5209,-207.2097 94.5209,-124.5126 94.5209,-86.0713"/>
<polygon fill="#191970" stroke="#191970" points="98.021,-85.6714 94.5209,-75.6714 91.021,-85.6714 98.021,-85.6714"/>
</g>
<!-- Node9&#45;&gt;Node1 -->
<g id="edge13" class="edge">
<title>Node9&#45;&gt;Node1</title>
<path fill="none" stroke="#191970" d="M105.1463,-56.2455C114.0682,-48.0549 127.0089,-36.1749 137.5402,-26.5069"/>
<polygon fill="#191970" stroke="#191970" points="140.0177,-28.9837 145.0173,-19.6427 135.2838,-23.8271 140.0177,-28.9837"/>
</g>
<!-- Node9&#45;&gt;Node7 -->
<g id="edge14" class="edge">
<title>Node9&#45;&gt;Node7</title>
<path fill="none" stroke="#191970" d="M130.965,-56.3733C166.8278,-46.9001 221.7088,-32.4032 260.5491,-22.1435"/>
<polygon fill="#191970" stroke="#191970" points="261.7779,-25.439 270.5524,-19.5011 259.9901,-18.6712 261.7779,-25.439"/>
</g>
</g>
</svg>
