<?xml version="1.0" encoding="UTF-8" standalone="no"?>
<!DOCTYPE svg PUBLIC "-//W3C//DTD SVG 1.1//EN"
 "http://www.w3.org/Graphics/SVG/1.1/DTD/svg11.dtd">
<!-- Generated by graphviz version 2.40.1 (20161225.0304)
 -->
<!-- Title: queue_types.h Pages: 1 -->
<svg width="442pt" height="588pt"
 viewBox="0.00 0.00 442.00 588.00" xmlns="http://www.w3.org/2000/svg" xmlns:xlink="http://www.w3.org/1999/xlink">
<g id="graph0" class="graph" transform="scale(1 1) rotate(0) translate(4 584)">
<title>queue_types.h</title>
<polygon fill="#ffffff" stroke="transparent" points="-4,4 -4,-584 438,-584 438,4 -4,4"/>
<!-- Node10 -->
<g id="node1" class="node">
<title>Node10</title>
<polygon fill="#bfbfbf" stroke="#000000" points="53,-560.5 53,-579.5 133,-579.5 133,-560.5 53,-560.5"/>
<text text-anchor="middle" x="93" y="-567.5" font-family="Helvetica,sans-Serif" font-size="10.00" fill="#000000">queue_types.h</text>
</g>
<!-- Node11 -->
<g id="node2" class="node">
<title>Node11</title>
<g id="a_node2"><a xlink:href="api_2spec_2queue_8h.html" target="_top" xlink:title="ODP queue. ">
<polygon fill="#ffffff" stroke="#000000" points="67.5,-504.5 67.5,-523.5 118.5,-523.5 118.5,-504.5 67.5,-504.5"/>
<text text-anchor="middle" x="93" y="-511.5" font-family="Helvetica,sans-Serif" font-size="10.00" fill="#000000">queue.h</text>
</a>
</g>
</g>
<!-- Node10&#45;&gt;Node11 -->
<g id="edge1" class="edge">
<title>Node10&#45;&gt;Node11</title>
<path fill="none" stroke="#191970" d="M93,-550.1575C93,-541.155 93,-530.9199 93,-523.6427"/>
<polygon fill="#191970" stroke="#191970" points="89.5001,-550.2455 93,-560.2455 96.5001,-550.2456 89.5001,-550.2455"/>
</g>
<!-- Node12 -->
<g id="node3" class="node">
<title>Node12</title>
<g id="a_node3"><a xlink:href="api_2queue_8h.html" target="_top" xlink:title="ODP queue. ">
<polygon fill="#ffffff" stroke="#000000" points="67.5,-448.5 67.5,-467.5 118.5,-467.5 118.5,-448.5 67.5,-448.5"/>
<text text-anchor="middle" x="93" y="-455.5" font-family="Helvetica,sans-Serif" font-size="10.00" fill="#000000">queue.h</text>
</a>
</g>
</g>
<!-- Node11&#45;&gt;Node12 -->
<g id="edge2" class="edge">
<title>Node11&#45;&gt;Node12</title>
<path fill="none" stroke="#191970" d="M93,-494.1575C93,-485.155 93,-474.9199 93,-467.6427"/>
<polygon fill="#191970" stroke="#191970" points="89.5001,-494.2455 93,-504.2455 96.5001,-494.2456 89.5001,-494.2455"/>
</g>
<!-- Node13 -->
<g id="node4" class="node">
<title>Node13</title>
<g id="a_node4"><a xlink:href="api_2crypto_8h.html" target="_top" xlink:title="ODP crypto. ">
<polygon fill="#ffffff" stroke="#000000" points="28,-224.5 28,-243.5 80,-243.5 80,-224.5 28,-224.5"/>
<text text-anchor="middle" x="54" y="-231.5" font-family="Helvetica,sans-Serif" font-size="10.00" fill="#000000">crypto.h</text>
</a>
</g>
</g>
<!-- Node12&#45;&gt;Node13 -->
<g id="edge3" class="edge">
<title>Node12&#45;&gt;Node13</title>
<path fill="none" stroke="#191970" d="M89.5896,-438.4119C81.536,-392.1557 61.5726,-277.494 55.6695,-243.5891"/>
<polygon fill="#191970" stroke="#191970" points="86.1607,-439.1236 91.3242,-448.375 93.057,-437.9228 86.1607,-439.1236"/>
</g>
<!-- Node16 -->
<g id="node7" class="node">
<title>Node16</title>
<g id="a_node7"><a xlink:href="odp__api_8h.html" target="_top" xlink:title="The OpenDataPlane API. ">
<polygon fill="#ffffff" stroke="#000000" points="170.5,-56.5 170.5,-75.5 229.5,-75.5 229.5,-56.5 170.5,-56.5"/>
<text text-anchor="middle" x="200" y="-63.5" font-family="Helvetica,sans-Serif" font-size="10.00" fill="#000000">odp_api.h</text>
</a>
</g>
</g>
<!-- Node12&#45;&gt;Node16 -->
<g id="edge24" class="edge">
<title>Node12&#45;&gt;Node16</title>
<path fill="none" stroke="#191970" d="M67.9496,-442.6972C40.4045,-423.733 0,-388.6469 0,-346 0,-346 0,-346 0,-178 0,-100.7958 114.856,-76.2849 170.4893,-68.9408"/>
<polygon fill="#191970" stroke="#191970" points="66.1037,-445.6727 76.3735,-448.2771 69.9693,-439.8368 66.1037,-445.6727"/>
</g>
<!-- Node18 -->
<g id="node9" class="node">
<title>Node18</title>
<g id="a_node9"><a xlink:href="api_2spec_2packet__io_8h.html" target="_top" xlink:title="ODP Packet IO. ">
<polygon fill="#ffffff" stroke="#000000" points="134.5,-392.5 134.5,-411.5 201.5,-411.5 201.5,-392.5 134.5,-392.5"/>
<text text-anchor="middle" x="168" y="-399.5" font-family="Helvetica,sans-Serif" font-size="10.00" fill="#000000">packet_io.h</text>
</a>
</g>
</g>
<!-- Node12&#45;&gt;Node18 -->
<g id="edge9" class="edge">
<title>Node12&#45;&gt;Node18</title>
<path fill="none" stroke="#191970" d="M114.1477,-442.2097C127.3201,-432.3743 143.84,-420.0394 155.0857,-411.6427"/>
<polygon fill="#191970" stroke="#191970" points="111.9828,-439.4581 106.064,-448.2455 116.1709,-445.0671 111.9828,-439.4581"/>
</g>
<!-- Node24 -->
<g id="node15" class="node">
<title>Node24</title>
<g id="a_node15"><a xlink:href="api_2spec_2schedule_8h.html" target="_top" xlink:title="ODP schedule. ">
<polygon fill="#ffffff" stroke="#000000" points="313,-336.5 313,-355.5 377,-355.5 377,-336.5 313,-336.5"/>
<text text-anchor="middle" x="345" y="-343.5" font-family="Helvetica,sans-Serif" font-size="10.00" fill="#000000">schedule.h</text>
</a>
</g>
</g>
<!-- Node12&#45;&gt;Node24 -->
<g id="edge21" class="edge">
<title>Node12&#45;&gt;Node24</title>
<path fill="none" stroke="#191970" d="M128.308,-444.9632C151.6823,-436.1263 182.9071,-423.9258 210,-412 252.2634,-393.3965 300.6202,-368.9673 326.4406,-355.6616"/>
<polygon fill="#191970" stroke="#191970" points="126.9356,-441.7399 118.806,-448.5339 129.3981,-448.2925 126.9356,-441.7399"/>
</g>
<!-- Node14 -->
<g id="node5" class="node">
<title>Node14</title>
<g id="a_node5"><a xlink:href="api_2spec_2ipsec_8h.html" target="_top" xlink:title="ODP IPSEC API. ">
<polygon fill="#ffffff" stroke="#000000" points="176,-168.5 176,-187.5 224,-187.5 224,-168.5 176,-168.5"/>
<text text-anchor="middle" x="200" y="-175.5" font-family="Helvetica,sans-Serif" font-size="10.00" fill="#000000">ipsec.h</text>
</a>
</g>
</g>
<!-- Node13&#45;&gt;Node14 -->
<g id="edge4" class="edge">
<title>Node13&#45;&gt;Node14</title>
<path fill="none" stroke="#191970" d="M88.503,-220.766C115.3368,-210.4735 151.8918,-196.4525 175.7144,-187.315"/>
<polygon fill="#191970" stroke="#191970" points="87.1816,-217.5241 79.0983,-224.3733 89.6885,-224.0598 87.1816,-217.5241"/>
</g>
<!-- Node13&#45;&gt;Node16 -->
<g id="edge8" class="edge">
<title>Node13&#45;&gt;Node16</title>
<path fill="none" stroke="#191970" d="M68.0533,-216.4547C87.4015,-192.4711 123.542,-148.2864 156,-112 167.4938,-99.1505 181.3184,-84.8798 190.365,-75.6915"/>
<polygon fill="#191970" stroke="#191970" points="65.2633,-214.3389 61.7226,-224.3247 70.7177,-218.7264 65.2633,-214.3389"/>
</g>
<!-- Node15 -->
<g id="node6" class="node">
<title>Node15</title>
<g id="a_node6"><a xlink:href="api_2ipsec_8h.html" target="_top" xlink:title="ODP IPSEC API &#45; platform specific header. ">
<polygon fill="#ffffff" stroke="#000000" points="176,-112.5 176,-131.5 224,-131.5 224,-112.5 176,-112.5"/>
<text text-anchor="middle" x="200" y="-119.5" font-family="Helvetica,sans-Serif" font-size="10.00" fill="#000000">ipsec.h</text>
</a>
</g>
</g>
<!-- Node14&#45;&gt;Node15 -->
<g id="edge5" class="edge">
<title>Node14&#45;&gt;Node15</title>
<path fill="none" stroke="#191970" d="M200,-158.1575C200,-149.155 200,-138.9199 200,-131.6427"/>
<polygon fill="#191970" stroke="#191970" points="196.5001,-158.2455 200,-168.2455 203.5001,-158.2456 196.5001,-158.2455"/>
</g>
<!-- Node15&#45;&gt;Node16 -->
<g id="edge6" class="edge">
<title>Node15&#45;&gt;Node16</title>
<path fill="none" stroke="#191970" d="M200,-102.1575C200,-93.155 200,-82.9199 200,-75.6427"/>
<polygon fill="#191970" stroke="#191970" points="196.5001,-102.2455 200,-112.2455 203.5001,-102.2456 196.5001,-102.2455"/>
</g>
<!-- Node17 -->
<g id="node8" class="node">
<title>Node17</title>
<g id="a_node8"><a xlink:href="odp_8h.html" target="_top" xlink:title="WARNING: THIS FILE IS DEPRECATED AND WILL BE REMOVED!!! ODP APPLICATIONS SHOULD NOW INCLUDE odp_api...">
<polygon fill="#ffffff" stroke="#000000" points="179.5,-.5 179.5,-19.5 220.5,-19.5 220.5,-.5 179.5,-.5"/>
<text text-anchor="middle" x="200" y="-7.5" font-family="Helvetica,sans-Serif" font-size="10.00" fill="#000000">odp.h</text>
</a>
</g>
</g>
<!-- Node16&#45;&gt;Node17 -->
<g id="edge7" class="edge">
<title>Node16&#45;&gt;Node17</title>
<path fill="none" stroke="#191970" d="M200,-46.1575C200,-37.155 200,-26.9199 200,-19.6427"/>
<polygon fill="#191970" stroke="#191970" points="196.5001,-46.2455 200,-56.2455 203.5001,-46.2456 196.5001,-46.2455"/>
</g>
<!-- Node19 -->
<g id="node10" class="node">
<title>Node19</title>
<g id="a_node10"><a xlink:href="api_2packet__io_8h.html" target="_top" xlink:title="ODP Packet IO. ">
<polygon fill="#ffffff" stroke="#000000" points="170.5,-336.5 170.5,-355.5 237.5,-355.5 237.5,-336.5 170.5,-336.5"/>
<text text-anchor="middle" x="204" y="-343.5" font-family="Helvetica,sans-Serif" font-size="10.00" fill="#000000">packet_io.h</text>
</a>
</g>
</g>
<!-- Node18&#45;&gt;Node19 -->
<g id="edge10" class="edge">
<title>Node18&#45;&gt;Node19</title>
<path fill="none" stroke="#191970" d="M179.8096,-383.6296C185.8144,-374.2887 192.8659,-363.3197 197.8011,-355.6427"/>
<polygon fill="#191970" stroke="#191970" points="176.7342,-381.9411 174.2707,-392.2455 182.6225,-385.7264 176.7342,-381.9411"/>
</g>
<!-- Node19&#45;&gt;Node14 -->
<g id="edge15" class="edge">
<title>Node19&#45;&gt;Node14</title>
<path fill="none" stroke="#191970" d="M203.53,-326.2601C202.6706,-290.1669 200.8754,-214.7656 200.234,-187.8279"/>
<polygon fill="#191970" stroke="#191970" points="200.0364,-326.5724 203.7735,-336.4862 207.0344,-326.4057 200.0364,-326.5724"/>
</g>
<!-- Node19&#45;&gt;Node16 -->
<g id="edge20" class="edge">
<title>Node19&#45;&gt;Node16</title>
<path fill="none" stroke="#191970" d="M247.3409,-339.1326C272.6635,-332.9664 303.3964,-321.4214 323,-300 343.6076,-277.4815 342,-264.5246 342,-234 342,-234 342,-234 342,-178 342,-121.3263 271.4068,-88.8922 229.7679,-74.6906"/>
<polygon fill="#191970" stroke="#191970" points="246.5768,-335.7169 237.5813,-341.3144 248.104,-342.5483 246.5768,-335.7169"/>
</g>
<!-- Node20 -->
<g id="node11" class="node">
<title>Node20</title>
<g id="a_node11"><a xlink:href="api_2spec_2classification_8h.html" target="_top" xlink:title="ODP classification descriptor. ">
<polygon fill="#ffffff" stroke="#000000" points="232,-280.5 232,-299.5 314,-299.5 314,-280.5 232,-280.5"/>
<text text-anchor="middle" x="273" y="-287.5" font-family="Helvetica,sans-Serif" font-size="10.00" fill="#000000">classification.h</text>
</a>
</g>
</g>
<!-- Node19&#45;&gt;Node20 -->
<g id="edge11" class="edge">
<title>Node19&#45;&gt;Node20</title>
<path fill="none" stroke="#191970" d="M223.803,-329.928C235.8636,-320.1397 250.8714,-307.9595 261.1188,-299.6427"/>
<polygon fill="#191970" stroke="#191970" points="221.5779,-327.2262 216.0189,-336.2455 225.9891,-332.6614 221.5779,-327.2262"/>
</g>
<!-- Node22 -->
<g id="node13" class="node">
<title>Node22</title>
<g id="a_node13"><a xlink:href="api_2spec_2traffic__mngr_8h.html" target="_top" xlink:title="Copyright (c) 2015&#45;2018, Linaro Limited All rights reserved. ">
<polygon fill="#ffffff" stroke="#000000" points="98.5,-280.5 98.5,-299.5 175.5,-299.5 175.5,-280.5 98.5,-280.5"/>
<text text-anchor="middle" x="137" y="-287.5" font-family="Helvetica,sans-Serif" font-size="10.00" fill="#000000">traffic_mngr.h</text>
</a>
</g>
</g>
<!-- Node19&#45;&gt;Node22 -->
<g id="edge16" class="edge">
<title>Node19&#45;&gt;Node22</title>
<path fill="none" stroke="#191970" d="M184.4324,-329.645C172.7802,-319.9058 158.3916,-307.8795 148.5368,-299.6427"/>
<polygon fill="#191970" stroke="#191970" points="182.4121,-332.5179 192.3295,-336.2455 186.9012,-327.1469 182.4121,-332.5179"/>
</g>
<!-- Node21 -->
<g id="node12" class="node">
<title>Node21</title>
<g id="a_node12"><a xlink:href="api_2classification_8h.html" target="_top" xlink:title="ODP classification descriptor. ">
<polygon fill="#ffffff" stroke="#000000" points="232,-224.5 232,-243.5 314,-243.5 314,-224.5 232,-224.5"/>
<text text-anchor="middle" x="273" y="-231.5" font-family="Helvetica,sans-Serif" font-size="10.00" fill="#000000">classification.h</text>
</a>
</g>
</g>
<!-- Node20&#45;&gt;Node21 -->
<g id="edge12" class="edge">
<title>Node20&#45;&gt;Node21</title>
<path fill="none" stroke="#191970" d="M273,-270.1575C273,-261.155 273,-250.9199 273,-243.6427"/>
<polygon fill="#191970" stroke="#191970" points="269.5001,-270.2455 273,-280.2455 276.5001,-270.2456 269.5001,-270.2455"/>
</g>
<!-- Node21&#45;&gt;Node14 -->
<g id="edge13" class="edge">
<title>Node21&#45;&gt;Node14</title>
<path fill="none" stroke="#191970" d="M252.049,-217.928C239.2893,-208.1397 223.4115,-195.9595 212.5699,-187.6427"/>
<polygon fill="#191970" stroke="#191970" points="250.2197,-220.9359 260.2844,-224.2455 254.4804,-215.3819 250.2197,-220.9359"/>
</g>
<!-- Node21&#45;&gt;Node16 -->
<g id="edge14" class="edge">
<title>Node21&#45;&gt;Node16</title>
<path fill="none" stroke="#191970" d="M268.5699,-214.5028C262.5215,-189.7968 250.4057,-146.3025 233,-112 226.151,-98.5022 215.6002,-84.5976 208.2799,-75.6601"/>
<polygon fill="#191970" stroke="#191970" points="265.2106,-215.5063 270.9191,-224.4317 272.0225,-213.8945 265.2106,-215.5063"/>
</g>
<!-- Node23 -->
<g id="node14" class="node">
<title>Node23</title>
<g id="a_node14"><a xlink:href="api_2traffic__mngr_8h.html" target="_top" xlink:title="ODP Traffic manager. ">
<polygon fill="#ffffff" stroke="#000000" points="98.5,-224.5 98.5,-243.5 175.5,-243.5 175.5,-224.5 98.5,-224.5"/>
<text text-anchor="middle" x="137" y="-231.5" font-family="Helvetica,sans-Serif" font-size="10.00" fill="#000000">traffic_mngr.h</text>
</a>
</g>
</g>
<!-- Node22&#45;&gt;Node23 -->
<g id="edge17" class="edge">
<title>Node22&#45;&gt;Node23</title>
<path fill="none" stroke="#191970" d="M137,-270.1575C137,-261.155 137,-250.9199 137,-243.6427"/>
<polygon fill="#191970" stroke="#191970" points="133.5001,-270.2455 137,-280.2455 140.5001,-270.2456 133.5001,-270.2455"/>
</g>
<!-- Node23&#45;&gt;Node14 -->
<g id="edge18" class="edge">
<title>Node23&#45;&gt;Node14</title>
<path fill="none" stroke="#191970" d="M155.7192,-217.3607C166.6182,-207.6727 179.9755,-195.7995 189.152,-187.6427"/>
<polygon fill="#191970" stroke="#191970" points="153.1226,-214.9859 147.9738,-224.2455 157.7732,-220.2178 153.1226,-214.9859"/>
</g>
<!-- Node23&#45;&gt;Node16 -->
<g id="edge19" class="edge">
<title>Node23&#45;&gt;Node16</title>
<path fill="none" stroke="#191970" d="M139.4638,-214.466C143.1021,-189.7213 151.2504,-146.1868 167,-112 173.3333,-98.2527 183.9888,-84.3987 191.4745,-75.5413"/>
<polygon fill="#191970" stroke="#191970" points="135.9911,-214.0287 138.0984,-224.4118 142.926,-214.9808 135.9911,-214.0287"/>
</g>
<!-- Node25 -->
<g id="node16" class="node">
<title>Node25</title>
<g id="a_node16"><a xlink:href="api_2schedule_8h.html" target="_top" xlink:title="ODP schedule. ">
<polygon fill="#ffffff" stroke="#000000" points="370,-168.5 370,-187.5 434,-187.5 434,-168.5 370,-168.5"/>
<text text-anchor="middle" x="402" y="-175.5" font-family="Helvetica,sans-Serif" font-size="10.00" fill="#000000">schedule.h</text>
</a>
</g>
</g>
<!-- Node24&#45;&gt;Node25 -->
<g id="edge22" class="edge">
<title>Node24&#45;&gt;Node25</title>
<path fill="none" stroke="#191970" d="M351.5392,-326.7267C363.7216,-290.8207 389.4864,-214.8822 398.6655,-187.8279"/>
<polygon fill="#191970" stroke="#191970" points="348.1265,-325.8919 348.2279,-336.4862 354.7553,-328.141 348.1265,-325.8919"/>
</g>
<!-- Node25&#45;&gt;Node16 -->
<g id="edge23" class="edge">
<title>Node25&#45;&gt;Node16</title>
<path fill="none" stroke="#191970" d="M393.2813,-159.0863C385.5029,-144.2216 372.7561,-124.0746 356,-112 317.7436,-84.432 263.0137,-73.2562 229.5831,-68.8175"/>
<polygon fill="#191970" stroke="#191970" points="390.2977,-160.9496 397.8608,-168.3692 396.5754,-157.8526 390.2977,-160.9496"/>
</g>
</g>
</svg>
