<?xml version="1.0" encoding="UTF-8" standalone="no"?>
<!DOCTYPE svg PUBLIC "-//W3C//DTD SVG 1.1//EN"
 "http://www.w3.org/Graphics/SVG/1.1/DTD/svg11.dtd">
<!-- Generated by graphviz version 2.40.1 (20161225.0304)
 -->
<!-- Title: chksum.h Pages: 1 -->
<svg width="386pt" height="308pt"
 viewBox="0.00 0.00 385.50 308.00" xmlns="http://www.w3.org/2000/svg" xmlns:xlink="http://www.w3.org/1999/xlink">
<g id="graph0" class="graph" transform="scale(1 1) rotate(0) translate(4 304)">
<title>chksum.h</title>
<polygon fill="#ffffff" stroke="transparent" points="-4,4 -4,-304 381.5,-304 381.5,4 -4,4"/>
<!-- Node0 -->
<g id="node1" class="node">
<title>Node0</title>
<polygon fill="#bfbfbf" stroke="#000000" points="145,-280.5 145,-299.5 204,-299.5 204,-280.5 145,-280.5"/>
<text text-anchor="middle" x="174.5" y="-287.5" font-family="Helvetica,sans-Serif" font-size="10.00" fill="#000000">chksum.h</text>
</g>
<!-- Node1 -->
<g id="node2" class="node">
<title>Node1</title>
<g id="a_node2"><a xlink:href="visibility__begin_8h_source.html" target="_top" xlink:title="odp/visibility_begin.h">
<polygon fill="#ffffff" stroke="#000000" points="0,-.5 0,-19.5 107,-19.5 107,-.5 0,-.5"/>
<text text-anchor="middle" x="53.5" y="-7.5" font-family="Helvetica,sans-Serif" font-size="10.00" fill="#000000">odp/visibility_begin.h</text>
</a>
</g>
</g>
<!-- Node0&#45;&gt;Node1 -->
<g id="edge1" class="edge">
<title>Node0&#45;&gt;Node1</title>
<path fill="none" stroke="#191970" d="M144.966,-283.4467C98.9843,-271.3043 15.5,-240.6341 15.5,-178 15.5,-178 15.5,-178 15.5,-122 15.5,-87.6118 31.7634,-50.2832 43.011,-28.5791"/>
<polygon fill="#191970" stroke="#191970" points="46.2317,-29.9804 47.893,-19.5166 40.069,-26.6605 46.2317,-29.9804"/>
</g>
<!-- Node2 -->
<g id="node3" class="node">
<title>Node2</title>
<g id="a_node3"><a xlink:href="api_2std__types_8h.html" target="_top" xlink:title="Standard C language types and definitions for ODP. ">
<polygon fill="#ffffff" stroke="#000000" points="123.5,-224.5 123.5,-243.5 225.5,-243.5 225.5,-224.5 123.5,-224.5"/>
<text text-anchor="middle" x="174.5" y="-231.5" font-family="Helvetica,sans-Serif" font-size="10.00" fill="#000000">odp/api/std_types.h</text>
</a>
</g>
</g>
<!-- Node0&#45;&gt;Node2 -->
<g id="edge2" class="edge">
<title>Node0&#45;&gt;Node2</title>
<path fill="none" stroke="#191970" d="M174.5,-280.2455C174.5,-272.9382 174.5,-262.6944 174.5,-253.7046"/>
<polygon fill="#191970" stroke="#191970" points="178.0001,-253.6426 174.5,-243.6427 171.0001,-253.6427 178.0001,-253.6426"/>
</g>
<!-- Node9 -->
<g id="node10" class="node">
<title>Node9</title>
<g id="a_node10"><a xlink:href="visibility__end_8h_source.html" target="_top" xlink:title="odp/visibility_end.h">
<polygon fill="#ffffff" stroke="#000000" points="277.5,-.5 277.5,-19.5 377.5,-19.5 377.5,-.5 277.5,-.5"/>
<text text-anchor="middle" x="327.5" y="-7.5" font-family="Helvetica,sans-Serif" font-size="10.00" fill="#000000">odp/visibility_end.h</text>
</a>
</g>
</g>
<!-- Node0&#45;&gt;Node9 -->
<g id="edge13" class="edge">
<title>Node0&#45;&gt;Node9</title>
<path fill="none" stroke="#191970" d="M204.3438,-286.3385C258.0625,-277.9026 365.5,-251.8053 365.5,-178 365.5,-178 365.5,-178 365.5,-122 365.5,-87.6118 349.2366,-50.2832 337.989,-28.5791"/>
<polygon fill="#191970" stroke="#191970" points="340.931,-26.6605 333.107,-19.5166 334.7683,-29.9804 340.931,-26.6605"/>
</g>
<!-- Node3 -->
<g id="node4" class="node">
<title>Node3</title>
<polygon fill="#ffffff" stroke="#bfbfbf" points="45.5,-168.5 45.5,-187.5 163.5,-187.5 163.5,-168.5 45.5,-168.5"/>
<text text-anchor="middle" x="104.5" y="-175.5" font-family="Helvetica,sans-Serif" font-size="10.00" fill="#000000">odp/api/abi/std_types.h</text>
</g>
<!-- Node2&#45;&gt;Node3 -->
<g id="edge3" class="edge">
<title>Node2&#45;&gt;Node3</title>
<path fill="none" stroke="#191970" d="M162.3069,-224.2455C151.8679,-215.8943 136.6345,-203.7076 124.426,-193.9408"/>
<polygon fill="#191970" stroke="#191970" points="126.5485,-191.1566 116.5533,-187.6427 122.1756,-196.6227 126.5485,-191.1566"/>
</g>
<!-- Node4 -->
<g id="node5" class="node">
<title>Node4</title>
<g id="a_node5"><a xlink:href="api_2spec_2std__types_8h.html" target="_top" xlink:title="Standard C language types and definitions for ODP. ">
<polygon fill="#ffffff" stroke="#000000" points="181.5,-168.5 181.5,-187.5 307.5,-187.5 307.5,-168.5 181.5,-168.5"/>
<text text-anchor="middle" x="244.5" y="-175.5" font-family="Helvetica,sans-Serif" font-size="10.00" fill="#000000">odp/api/spec/std_types.h</text>
</a>
</g>
</g>
<!-- Node2&#45;&gt;Node4 -->
<g id="edge4" class="edge">
<title>Node2&#45;&gt;Node4</title>
<path fill="none" stroke="#191970" d="M186.6931,-224.2455C197.1321,-215.8943 212.3655,-203.7076 224.574,-193.9408"/>
<polygon fill="#191970" stroke="#191970" points="226.8244,-196.6227 232.4467,-187.6427 222.4515,-191.1566 226.8244,-196.6227"/>
</g>
<!-- Node4&#45;&gt;Node1 -->
<g id="edge5" class="edge">
<title>Node4&#45;&gt;Node1</title>
<path fill="none" stroke="#191970" d="M210.2446,-168.4862C186.1621,-160.8545 153.8459,-148.6589 128.5,-132 99.0863,-112.6675 90.3803,-106.3184 72.5,-76 64.0768,-61.7174 59.1983,-43.4765 56.4989,-29.7922"/>
<polygon fill="#191970" stroke="#191970" points="59.8799,-28.8061 54.714,-19.556 52.9839,-30.0086 59.8799,-28.8061"/>
</g>
<!-- Node5 -->
<g id="node6" class="node">
<title>Node5</title>
<polygon fill="#ffffff" stroke="#bfbfbf" points="138,-112.5 138,-131.5 187,-131.5 187,-112.5 138,-112.5"/>
<text text-anchor="middle" x="162.5" y="-119.5" font-family="Helvetica,sans-Serif" font-size="10.00" fill="#000000">stdint.h</text>
</g>
<!-- Node4&#45;&gt;Node5 -->
<g id="edge6" class="edge">
<title>Node4&#45;&gt;Node5</title>
<path fill="none" stroke="#191970" d="M230.2167,-168.2455C217.753,-159.7337 199.4549,-147.2375 185.0208,-137.3801"/>
<polygon fill="#191970" stroke="#191970" points="186.8515,-134.392 176.6196,-131.6427 182.9038,-140.1726 186.8515,-134.392"/>
</g>
<!-- Node6 -->
<g id="node7" class="node">
<title>Node6</title>
<g id="a_node7"><a xlink:href="api_2align_8h.html" target="_top" xlink:title="ODP alignments. ">
<polygon fill="#ffffff" stroke="#000000" points="205.5,-112.5 205.5,-131.5 285.5,-131.5 285.5,-112.5 205.5,-112.5"/>
<text text-anchor="middle" x="245.5" y="-119.5" font-family="Helvetica,sans-Serif" font-size="10.00" fill="#000000">odp/api/align.h</text>
</a>
</g>
</g>
<!-- Node4&#45;&gt;Node6 -->
<g id="edge7" class="edge">
<title>Node4&#45;&gt;Node6</title>
<path fill="none" stroke="#191970" d="M244.6742,-168.2455C244.8047,-160.9382 244.9876,-150.6944 245.1481,-141.7046"/>
<polygon fill="#191970" stroke="#191970" points="248.6486,-141.7036 245.3278,-131.6427 241.6497,-141.5786 248.6486,-141.7036"/>
</g>
<!-- Node4&#45;&gt;Node9 -->
<g id="edge12" class="edge">
<title>Node4&#45;&gt;Node9</title>
<path fill="none" stroke="#191970" d="M258.8513,-168.3144C270.1449,-159.9654 285.4409,-146.9226 294.5,-132 314.2482,-99.4699 322.3847,-55.0203 325.5789,-29.733"/>
<polygon fill="#191970" stroke="#191970" points="329.0818,-29.9034 326.7227,-19.5745 322.1257,-29.1201 329.0818,-29.9034"/>
</g>
<!-- Node7 -->
<g id="node8" class="node">
<title>Node7</title>
<polygon fill="#ffffff" stroke="#bfbfbf" points="82,-56.5 82,-75.5 177,-75.5 177,-56.5 82,-56.5"/>
<text text-anchor="middle" x="129.5" y="-63.5" font-family="Helvetica,sans-Serif" font-size="10.00" fill="#000000">odp/api/abi/align.h</text>
</g>
<!-- Node6&#45;&gt;Node7 -->
<g id="edge8" class="edge">
<title>Node6&#45;&gt;Node7</title>
<path fill="none" stroke="#191970" d="M225.5589,-112.3733C207.0214,-103.4241 179.1972,-89.9917 158.2587,-79.8835"/>
<polygon fill="#191970" stroke="#191970" points="159.7081,-76.6967 149.1809,-75.5011 156.6648,-83.0006 159.7081,-76.6967"/>
</g>
<!-- Node8 -->
<g id="node9" class="node">
<title>Node8</title>
<g id="a_node9"><a xlink:href="api_2spec_2align_8h.html" target="_top" xlink:title="ODP alignments. ">
<polygon fill="#ffffff" stroke="#000000" points="195.5,-56.5 195.5,-75.5 299.5,-75.5 299.5,-56.5 195.5,-56.5"/>
<text text-anchor="middle" x="247.5" y="-63.5" font-family="Helvetica,sans-Serif" font-size="10.00" fill="#000000">odp/api/spec/align.h</text>
</a>
</g>
</g>
<!-- Node6&#45;&gt;Node8 -->
<g id="edge9" class="edge">
<title>Node6&#45;&gt;Node8</title>
<path fill="none" stroke="#191970" d="M245.8484,-112.2455C246.1093,-104.9382 246.4752,-94.6944 246.7963,-85.7046"/>
<polygon fill="#191970" stroke="#191970" points="250.2964,-85.7613 247.1556,-75.6427 243.3008,-85.5113 250.2964,-85.7613"/>
</g>
<!-- Node8&#45;&gt;Node1 -->
<g id="edge10" class="edge">
<title>Node8&#45;&gt;Node1</title>
<path fill="none" stroke="#191970" d="M214.1502,-56.3733C181.472,-46.9404 131.5382,-32.5265 96.023,-22.2747"/>
<polygon fill="#191970" stroke="#191970" points="96.993,-18.9119 86.4146,-19.5011 95.0516,-25.6373 96.993,-18.9119"/>
</g>
<!-- Node8&#45;&gt;Node9 -->
<g id="edge11" class="edge">
<title>Node8&#45;&gt;Node9</title>
<path fill="none" stroke="#191970" d="M261.4349,-56.2455C273.5947,-47.7337 291.4464,-35.2375 305.5285,-25.3801"/>
<polygon fill="#191970" stroke="#191970" points="307.5395,-28.2447 313.7248,-19.6427 303.5253,-22.51 307.5395,-28.2447"/>
</g>
</g>
</svg>
