<?xml version="1.0" encoding="UTF-8" standalone="no"?>
<!DOCTYPE svg PUBLIC "-//W3C//DTD SVG 1.1//EN"
 "http://www.w3.org/Graphics/SVG/1.1/DTD/svg11.dtd">
<!-- Generated by graphviz version 2.40.1 (20161225.0304)
 -->
<!-- Title: feature.h Pages: 1 -->
<svg width="173pt" height="420pt"
 viewBox="0.00 0.00 173.00 420.00" xmlns="http://www.w3.org/2000/svg" xmlns:xlink="http://www.w3.org/1999/xlink">
<g id="graph0" class="graph" transform="scale(1 1) rotate(0) translate(4 416)">
<title>feature.h</title>
<polygon fill="#ffffff" stroke="transparent" points="-4,4 -4,-416 169,-416 169,4 -4,4"/>
<!-- Node10 -->
<g id="node1" class="node">
<title>Node10</title>
<polygon fill="#bfbfbf" stroke="#000000" points="110,-392.5 110,-411.5 165,-411.5 165,-392.5 110,-392.5"/>
<text text-anchor="middle" x="137.5" y="-399.5" font-family="Helvetica,sans-Serif" font-size="10.00" fill="#000000">feature.h</text>
</g>
<!-- Node11 -->
<g id="node2" class="node">
<title>Node11</title>
<g id="a_node2"><a xlink:href="feature_8h.html" target="_top" xlink:title="ODP features. ">
<polygon fill="#ffffff" stroke="#000000" points="110,-336.5 110,-355.5 165,-355.5 165,-336.5 110,-336.5"/>
<text text-anchor="middle" x="137.5" y="-343.5" font-family="Helvetica,sans-Serif" font-size="10.00" fill="#000000">feature.h</text>
</a>
</g>
</g>
<!-- Node10&#45;&gt;Node11 -->
<g id="edge1" class="edge">
<title>Node10&#45;&gt;Node11</title>
<path fill="none" stroke="#191970" d="M137.5,-382.1575C137.5,-373.155 137.5,-362.9199 137.5,-355.6427"/>
<polygon fill="#191970" stroke="#191970" points="134.0001,-382.2455 137.5,-392.2455 141.0001,-382.2456 134.0001,-382.2455"/>
</g>
<!-- Node12 -->
<g id="node3" class="node">
<title>Node12</title>
<g id="a_node3"><a xlink:href="api_2spec_2init_8h.html" target="_top" xlink:title="init.h">
<polygon fill="#ffffff" stroke="#000000" points="95.5,-280.5 95.5,-299.5 133.5,-299.5 133.5,-280.5 95.5,-280.5"/>
<text text-anchor="middle" x="114.5" y="-287.5" font-family="Helvetica,sans-Serif" font-size="10.00" fill="#000000">init.h</text>
</a>
</g>
</g>
<!-- Node11&#45;&gt;Node12 -->
<g id="edge2" class="edge">
<title>Node11&#45;&gt;Node12</title>
<path fill="none" stroke="#191970" d="M129.5934,-326.7493C125.8383,-317.6064 121.5149,-307.0798 118.4604,-299.6427"/>
<polygon fill="#191970" stroke="#191970" points="126.4569,-328.3251 133.4937,-336.2455 132.932,-325.6656 126.4569,-328.3251"/>
</g>
<!-- Node16 -->
<g id="node7" class="node">
<title>Node16</title>
<g id="a_node7"><a xlink:href="odp__api_8h.html" target="_top" xlink:title="The OpenDataPlane API. ">
<polygon fill="#ffffff" stroke="#000000" points="94,-56.5 94,-75.5 153,-75.5 153,-56.5 94,-56.5"/>
<text text-anchor="middle" x="123.5" y="-63.5" font-family="Helvetica,sans-Serif" font-size="10.00" fill="#000000">odp_api.h</text>
</a>
</g>
</g>
<!-- Node11&#45;&gt;Node16 -->
<g id="edge9" class="edge">
<title>Node11&#45;&gt;Node16</title>
<path fill="none" stroke="#191970" d="M144.2212,-326.7316C151.3211,-304.6263 161.5,-267.1535 161.5,-234 161.5,-234 161.5,-234 161.5,-178 161.5,-138.1657 139.6774,-94.3859 129.107,-75.5166"/>
<polygon fill="#191970" stroke="#191970" points="140.8862,-325.6688 141.0413,-336.2625 147.5264,-327.8843 140.8862,-325.6688"/>
</g>
<!-- Node13 -->
<g id="node4" class="node">
<title>Node13</title>
<g id="a_node4"><a xlink:href="api_2init_8h.html" target="_top" xlink:title="ODP initialization. ">
<polygon fill="#ffffff" stroke="#000000" points="95.5,-224.5 95.5,-243.5 133.5,-243.5 133.5,-224.5 95.5,-224.5"/>
<text text-anchor="middle" x="114.5" y="-231.5" font-family="Helvetica,sans-Serif" font-size="10.00" fill="#000000">init.h</text>
</a>
</g>
</g>
<!-- Node12&#45;&gt;Node13 -->
<g id="edge3" class="edge">
<title>Node12&#45;&gt;Node13</title>
<path fill="none" stroke="#191970" d="M114.5,-270.1575C114.5,-261.155 114.5,-250.9199 114.5,-243.6427"/>
<polygon fill="#191970" stroke="#191970" points="111.0001,-270.2455 114.5,-280.2455 118.0001,-270.2456 111.0001,-270.2455"/>
</g>
<!-- Node14 -->
<g id="node5" class="node">
<title>Node14</title>
<g id="a_node5"><a xlink:href="api_2spec_2shared__memory_8h.html" target="_top" xlink:title="ODP shared memory. ">
<polygon fill="#ffffff" stroke="#000000" points="0,-168.5 0,-187.5 95,-187.5 95,-168.5 0,-168.5"/>
<text text-anchor="middle" x="47.5" y="-175.5" font-family="Helvetica,sans-Serif" font-size="10.00" fill="#000000">shared_memory.h</text>
</a>
</g>
</g>
<!-- Node13&#45;&gt;Node14 -->
<g id="edge4" class="edge">
<title>Node13&#45;&gt;Node14</title>
<path fill="none" stroke="#191970" d="M94.9324,-217.645C83.2802,-207.9058 68.8916,-195.8795 59.0368,-187.6427"/>
<polygon fill="#191970" stroke="#191970" points="92.9121,-220.5179 102.8295,-224.2455 97.4012,-215.1469 92.9121,-220.5179"/>
</g>
<!-- Node13&#45;&gt;Node16 -->
<g id="edge8" class="edge">
<title>Node13&#45;&gt;Node16</title>
<path fill="none" stroke="#191970" d="M115.5575,-214.2601C117.4911,-178.1669 121.5304,-102.7656 122.9735,-75.8279"/>
<polygon fill="#191970" stroke="#191970" points="112.0497,-214.3133 115.0097,-224.4862 119.0397,-214.6878 112.0497,-214.3133"/>
</g>
<!-- Node15 -->
<g id="node6" class="node">
<title>Node15</title>
<g id="a_node6"><a xlink:href="api_2shared__memory_8h.html" target="_top" xlink:title="ODP shared memory. ">
<polygon fill="#ffffff" stroke="#000000" points="0,-112.5 0,-131.5 95,-131.5 95,-112.5 0,-112.5"/>
<text text-anchor="middle" x="47.5" y="-119.5" font-family="Helvetica,sans-Serif" font-size="10.00" fill="#000000">shared_memory.h</text>
</a>
</g>
</g>
<!-- Node14&#45;&gt;Node15 -->
<g id="edge5" class="edge">
<title>Node14&#45;&gt;Node15</title>
<path fill="none" stroke="#191970" d="M47.5,-158.1575C47.5,-149.155 47.5,-138.9199 47.5,-131.6427"/>
<polygon fill="#191970" stroke="#191970" points="44.0001,-158.2455 47.5,-168.2455 51.0001,-158.2456 44.0001,-158.2455"/>
</g>
<!-- Node15&#45;&gt;Node16 -->
<g id="edge6" class="edge">
<title>Node15&#45;&gt;Node16</title>
<path fill="none" stroke="#191970" d="M68.9297,-106.2097C82.2777,-96.3743 99.0179,-84.0394 110.4135,-75.6427"/>
<polygon fill="#191970" stroke="#191970" points="66.7126,-103.4958 60.7382,-112.2455 70.865,-109.1312 66.7126,-103.4958"/>
</g>
<!-- Node17 -->
<g id="node8" class="node">
<title>Node17</title>
<g id="a_node8"><a xlink:href="odp_8h.html" target="_top" xlink:title="WARNING: THIS FILE IS DEPRECATED AND WILL BE REMOVED!!! ODP APPLICATIONS SHOULD NOW INCLUDE odp_api...">
<polygon fill="#ffffff" stroke="#000000" points="103,-.5 103,-19.5 144,-19.5 144,-.5 103,-.5"/>
<text text-anchor="middle" x="123.5" y="-7.5" font-family="Helvetica,sans-Serif" font-size="10.00" fill="#000000">odp.h</text>
</a>
</g>
</g>
<!-- Node16&#45;&gt;Node17 -->
<g id="edge7" class="edge">
<title>Node16&#45;&gt;Node17</title>
<path fill="none" stroke="#191970" d="M123.5,-46.1575C123.5,-37.155 123.5,-26.9199 123.5,-19.6427"/>
<polygon fill="#191970" stroke="#191970" points="120.0001,-46.2455 123.5,-56.2455 127.0001,-46.2456 120.0001,-46.2455"/>
</g>
</g>
</svg>
