<?xml version="1.0" encoding="UTF-8" standalone="no"?>
<!DOCTYPE svg PUBLIC "-//W3C//DTD SVG 1.1//EN"
 "http://www.w3.org/Graphics/SVG/1.1/DTD/svg11.dtd">
<!-- Generated by graphviz version 2.40.1 (20161225.0304)
 -->
<!-- Title: odp_cls_capability_t Pages: 1 -->
<svg width="390pt" height="106pt"
 viewBox="0.00 0.00 389.50 106.00" xmlns="http://www.w3.org/2000/svg" xmlns:xlink="http://www.w3.org/1999/xlink">
<g id="graph0" class="graph" transform="scale(1 1) rotate(0) translate(4 102)">
<title>odp_cls_capability_t</title>
<polygon fill="#ffffff" stroke="transparent" points="-4,4 -4,-102 385.5,-102 385.5,4 -4,4"/>
<!-- Node1 -->
<g id="node1" class="node">
<title>Node1</title>
<polygon fill="#bfbfbf" stroke="#000000" points="141,-.5 141,-19.5 246,-19.5 246,-.5 141,-.5"/>
<text text-anchor="middle" x="193.5" y="-7.5" font-family="Helvetica,sans-Serif" font-size="10.00" fill="#000000">odp_cls_capability_t</text>
</g>
<!-- Node2 -->
<g id="node2" class="node">
<title>Node2</title>
<g id="a_node2"><a xlink:href="unionodp__threshold__types__t.html" target="_top" xlink:title="Supported threshold types. ">
<polygon fill="#ffffff" stroke="#000000" points="0,-78.5 0,-97.5 115,-97.5 115,-78.5 0,-78.5"/>
<text text-anchor="middle" x="57.5" y="-85.5" font-family="Helvetica,sans-Serif" font-size="10.00" fill="#000000">odp_threshold_types_t</text>
</a>
</g>
</g>
<!-- Node2&#45;&gt;Node1 -->
<g id="edge1" class="edge">
<title>Node2&#45;&gt;Node1</title>
<path fill="none" stroke="#9a32cd" stroke-dasharray="5,2" d="M77.4915,-71.925C91.0854,-61.4534 109.7586,-47.941 127.5,-38 140.2043,-30.8814 155.082,-24.4211 167.4929,-19.5042"/>
<polygon fill="#9a32cd" stroke="#9a32cd" points="75.0675,-69.3778 69.3527,-78.2992 79.3836,-74.8888 75.0675,-69.3778"/>
<text text-anchor="middle" x="158.5" y="-52" font-family="Helvetica,sans-Serif" font-size="10.00" fill="#000000"> threshold_red</text>
<text text-anchor="middle" x="158.5" y="-41" font-family="Helvetica,sans-Serif" font-size="10.00" fill="#000000">threshold_bp</text>
</g>
<!-- Node3 -->
<g id="node3" class="node">
<title>Node3</title>
<g id="a_node3"><a xlink:href="unionodp__pktin__hash__proto__t.html" target="_top" xlink:title="Packet input hash protocols. ">
<polygon fill="#ffffff" stroke="#000000" points="133.5,-78.5 133.5,-97.5 253.5,-97.5 253.5,-78.5 133.5,-78.5"/>
<text text-anchor="middle" x="193.5" y="-85.5" font-family="Helvetica,sans-Serif" font-size="10.00" fill="#000000">odp_pktin_hash_proto_t</text>
</a>
</g>
</g>
<!-- Node3&#45;&gt;Node1 -->
<g id="edge2" class="edge">
<title>Node3&#45;&gt;Node1</title>
<path fill="none" stroke="#9a32cd" stroke-dasharray="5,2" d="M193.5,-68.2866C193.5,-52.7395 193.5,-31.7276 193.5,-19.6426"/>
<polygon fill="#9a32cd" stroke="#9a32cd" points="190.0001,-68.4356 193.5,-78.4357 197.0001,-68.4357 190.0001,-68.4356"/>
<text text-anchor="middle" x="228.5" y="-46.5" font-family="Helvetica,sans-Serif" font-size="10.00" fill="#000000"> hash_protocols</text>
</g>
<!-- Node4 -->
<g id="node4" class="node">
<title>Node4</title>
<g id="a_node4"><a xlink:href="unionodp__cls__pmr__terms__t.html" target="_top" xlink:title="Supported PMR term values. ">
<polygon fill="#ffffff" stroke="#000000" points="271.5,-78.5 271.5,-97.5 381.5,-97.5 381.5,-78.5 271.5,-78.5"/>
<text text-anchor="middle" x="326.5" y="-85.5" font-family="Helvetica,sans-Serif" font-size="10.00" fill="#000000">odp_cls_pmr_terms_t</text>
</a>
</g>
</g>
<!-- Node4&#45;&gt;Node1 -->
<g id="edge3" class="edge">
<title>Node4&#45;&gt;Node1</title>
<path fill="none" stroke="#9a32cd" stroke-dasharray="5,2" d="M309.9311,-71.2591C298.7138,-60.639 283.139,-47.2131 267.5,-38 254.5997,-30.4003 239.2694,-24.1961 225.917,-19.5768"/>
<polygon fill="#9a32cd" stroke="#9a32cd" points="307.6591,-73.9318 317.2675,-78.396 312.5401,-68.9142 307.6591,-73.9318"/>
<text text-anchor="middle" x="333.5" y="-46.5" font-family="Helvetica,sans-Serif" font-size="10.00" fill="#000000"> supported_terms</text>
</g>
</g>
</svg>
