<?xml version="1.0" encoding="UTF-8" standalone="no"?>
<!DOCTYPE svg PUBLIC "-//W3C//DTD SVG 1.1//EN"
 "http://www.w3.org/Graphics/SVG/1.1/DTD/svg11.dtd">
<!-- Generated by graphviz version 2.40.1 (20161225.0304)
 -->
<!-- Title: odp_crypto_packet_op_param_t Pages: 1 -->
<svg width="128pt" height="117pt"
 viewBox="0.00 0.00 128.00 117.00" xmlns="http://www.w3.org/2000/svg" xmlns:xlink="http://www.w3.org/1999/xlink">
<g id="graph0" class="graph" transform="scale(1 1) rotate(0) translate(4 113)">
<title>odp_crypto_packet_op_param_t</title>
<polygon fill="#ffffff" stroke="transparent" points="-4,4 -4,-113 124,-113 124,4 -4,4"/>
<!-- Node1 -->
<g id="node1" class="node">
<title>Node1</title>
<polygon fill="#bfbfbf" stroke="#000000" points="2.5,-.5 2.5,-30.5 117.5,-30.5 117.5,-.5 2.5,-.5"/>
<text text-anchor="start" x="10.5" y="-18.5" font-family="Helvetica,sans-Serif" font-size="10.00" fill="#000000">odp_crypto_packet_op</text>
<text text-anchor="middle" x="60" y="-7.5" font-family="Helvetica,sans-Serif" font-size="10.00" fill="#000000">_param_t</text>
</g>
<!-- Node2 -->
<g id="node2" class="node">
<title>Node2</title>
<g id="a_node2"><a xlink:href="structodp__packet__data__range.html" target="_top" xlink:title="Packet API data range specifier. ">
<polygon fill="#ffffff" stroke="#000000" points="0,-89.5 0,-108.5 120,-108.5 120,-89.5 0,-89.5"/>
<text text-anchor="middle" x="60" y="-96.5" font-family="Helvetica,sans-Serif" font-size="10.00" fill="#000000">odp_packet_data_range</text>
</a>
</g>
</g>
<!-- Node2&#45;&gt;Node1 -->
<g id="edge1" class="edge">
<title>Node2&#45;&gt;Node1</title>
<path fill="none" stroke="#9a32cd" stroke-dasharray="5,2" d="M60,-79.2427C60,-64.345 60,-44.2186 60,-30.597"/>
<polygon fill="#9a32cd" stroke="#9a32cd" points="56.5001,-79.4215 60,-89.4215 63.5001,-79.4215 56.5001,-79.4215"/>
<text text-anchor="middle" x="89.5" y="-63" font-family="Helvetica,sans-Serif" font-size="10.00" fill="#000000"> cipher_range</text>
<text text-anchor="middle" x="89.5" y="-52" font-family="Helvetica,sans-Serif" font-size="10.00" fill="#000000">auth_range</text>
</g>
</g>
</svg>
