<?xml version="1.0" encoding="UTF-8" standalone="no"?>
<!DOCTYPE svg PUBLIC "-//W3C//DTD SVG 1.1//EN"
 "http://www.w3.org/Graphics/SVG/1.1/DTD/svg11.dtd">
<!-- Generated by graphviz version 2.40.1 (20161225.0304)
 -->
<!-- Title: odp_crypto_op_param_t Pages: 1 -->
<svg width="244pt" height="106pt"
 viewBox="0.00 0.00 244.00 106.00" xmlns="http://www.w3.org/2000/svg" xmlns:xlink="http://www.w3.org/1999/xlink">
<g id="graph0" class="graph" transform="scale(1 1) rotate(0) translate(4 102)">
<title>odp_crypto_op_param_t</title>
<polygon fill="#ffffff" stroke="transparent" points="-4,4 -4,-102 240,-102 240,4 -4,4"/>
<!-- Node1 -->
<g id="node1" class="node">
<title>Node1</title>
<polygon fill="#bfbfbf" stroke="#000000" points="51.5,-.5 51.5,-19.5 172.5,-19.5 172.5,-.5 51.5,-.5"/>
<text text-anchor="middle" x="112" y="-7.5" font-family="Helvetica,sans-Serif" font-size="10.00" fill="#000000">odp_crypto_op_param_t</text>
</g>
<!-- Node2 -->
<g id="node2" class="node">
<title>Node2</title>
<g id="a_node2"><a xlink:href="struct__odp__abi__packet__t.html" target="_top" xlink:title="_odp_abi_packet_t">
<polygon fill="#ffffff" stroke="#000000" points="0,-78.5 0,-97.5 98,-97.5 98,-78.5 0,-78.5"/>
<text text-anchor="middle" x="49" y="-85.5" font-family="Helvetica,sans-Serif" font-size="10.00" fill="#000000">_odp_abi_packet_t</text>
</a>
</g>
</g>
<!-- Node2&#45;&gt;Node1 -->
<g id="edge1" class="edge">
<title>Node2&#45;&gt;Node1</title>
<path fill="none" stroke="#9a32cd" stroke-dasharray="5,2" d="M63.1262,-70.5105C75.8149,-54.8005 93.9769,-32.3143 104.2118,-19.6426"/>
<polygon fill="#9a32cd" stroke="#9a32cd" points="60.2856,-68.457 56.725,-78.4357 65.7312,-72.8554 60.2856,-68.457"/>
<text text-anchor="middle" x="104.5" y="-52" font-family="Helvetica,sans-Serif" font-size="10.00" fill="#000000"> pkt</text>
<text text-anchor="middle" x="104.5" y="-41" font-family="Helvetica,sans-Serif" font-size="10.00" fill="#000000">out_pkt</text>
</g>
<!-- Node3 -->
<g id="node3" class="node">
<title>Node3</title>
<g id="a_node3"><a xlink:href="structodp__packet__data__range.html" target="_top" xlink:title="Packet API data range specifier. ">
<polygon fill="#ffffff" stroke="#000000" points="116,-78.5 116,-97.5 236,-97.5 236,-78.5 116,-78.5"/>
<text text-anchor="middle" x="176" y="-85.5" font-family="Helvetica,sans-Serif" font-size="10.00" fill="#000000">odp_packet_data_range</text>
</a>
</g>
</g>
<!-- Node3&#45;&gt;Node1 -->
<g id="edge2" class="edge">
<title>Node3&#45;&gt;Node1</title>
<path fill="none" stroke="#9a32cd" stroke-dasharray="5,2" d="M161.6496,-70.5105C148.7594,-54.8005 130.3092,-32.3143 119.9118,-19.6426"/>
<polygon fill="#9a32cd" stroke="#9a32cd" points="159.1034,-72.925 168.1523,-78.4357 164.5149,-68.4848 159.1034,-72.925"/>
<text text-anchor="middle" x="180.5" y="-52" font-family="Helvetica,sans-Serif" font-size="10.00" fill="#000000"> cipher_range</text>
<text text-anchor="middle" x="180.5" y="-41" font-family="Helvetica,sans-Serif" font-size="10.00" fill="#000000">auth_range</text>
</g>
</g>
</svg>
