<?xml version="1.0" encoding="UTF-8" standalone="no"?>
<!DOCTYPE svg PUBLIC "-//W3C//DTD SVG 1.1//EN"
 "http://www.w3.org/Graphics/SVG/1.1/DTD/svg11.dtd">
<!-- Generated by graphviz version 2.40.1 (20161225.0304)
 -->
<!-- Title: odp_crypto_capability_t Pages: 1 -->
<svg width="284pt" height="106pt"
 viewBox="0.00 0.00 284.00 106.00" xmlns="http://www.w3.org/2000/svg" xmlns:xlink="http://www.w3.org/1999/xlink">
<g id="graph0" class="graph" transform="scale(1 1) rotate(0) translate(4 102)">
<title>odp_crypto_capability_t</title>
<polygon fill="#ffffff" stroke="transparent" points="-4,4 -4,-102 280,-102 280,4 -4,4"/>
<!-- Node1 -->
<g id="node1" class="node">
<title>Node1</title>
<polygon fill="#bfbfbf" stroke="#000000" points="80,-.5 80,-19.5 199,-19.5 199,-.5 80,-.5"/>
<text text-anchor="middle" x="139.5" y="-7.5" font-family="Helvetica,sans-Serif" font-size="10.00" fill="#000000">odp_crypto_capability_t</text>
</g>
<!-- Node2 -->
<g id="node2" class="node">
<title>Node2</title>
<g id="a_node2"><a xlink:href="unionodp__crypto__cipher__algos__t.html" target="_top" xlink:title="Cipher algorithms in a bit field structure. ">
<polygon fill="#ffffff" stroke="#000000" points="0,-78.5 0,-97.5 133,-97.5 133,-78.5 0,-78.5"/>
<text text-anchor="middle" x="66.5" y="-85.5" font-family="Helvetica,sans-Serif" font-size="10.00" fill="#000000">odp_crypto_cipher_algos_t</text>
</a>
</g>
</g>
<!-- Node2&#45;&gt;Node1 -->
<g id="edge1" class="edge">
<title>Node2&#45;&gt;Node1</title>
<path fill="none" stroke="#9a32cd" stroke-dasharray="5,2" d="M82.4616,-70.9451C97.1808,-55.2178 118.5063,-32.4316 130.4756,-19.6426"/>
<polygon fill="#9a32cd" stroke="#9a32cd" points="79.729,-68.7428 75.4512,-78.4357 84.8399,-73.5261 79.729,-68.7428"/>
<text text-anchor="middle" x="139" y="-52" font-family="Helvetica,sans-Serif" font-size="10.00" fill="#000000"> hw_ciphers</text>
<text text-anchor="middle" x="139" y="-41" font-family="Helvetica,sans-Serif" font-size="10.00" fill="#000000">ciphers</text>
</g>
<!-- Node3 -->
<g id="node3" class="node">
<title>Node3</title>
<g id="a_node3"><a xlink:href="unionodp__crypto__auth__algos__t.html" target="_top" xlink:title="Authentication algorithms in a bit field structure. ">
<polygon fill="#ffffff" stroke="#000000" points="151,-78.5 151,-97.5 276,-97.5 276,-78.5 151,-78.5"/>
<text text-anchor="middle" x="213.5" y="-85.5" font-family="Helvetica,sans-Serif" font-size="10.00" fill="#000000">odp_crypto_auth_algos_t</text>
</a>
</g>
</g>
<!-- Node3&#45;&gt;Node1 -->
<g id="edge2" class="edge">
<title>Node3&#45;&gt;Node1</title>
<path fill="none" stroke="#9a32cd" stroke-dasharray="5,2" d="M198.6965,-70.3361C190.3471,-60.5906 179.5936,-48.3935 169.5,-38 163.3453,-31.6625 156.1144,-24.8951 150.2939,-19.6012"/>
<polygon fill="#9a32cd" stroke="#9a32cd" points="196.199,-72.8023 205.3381,-78.1621 201.5362,-68.2729 196.199,-72.8023"/>
<text text-anchor="middle" x="211.5" y="-52" font-family="Helvetica,sans-Serif" font-size="10.00" fill="#000000"> hw_auths</text>
<text text-anchor="middle" x="211.5" y="-41" font-family="Helvetica,sans-Serif" font-size="10.00" fill="#000000">auths</text>
</g>
</g>
</svg>
