<?xml version="1.0" encoding="UTF-8" standalone="no"?>
<!DOCTYPE svg PUBLIC "-//W3C//DTD SVG 1.1//EN"
 "http://www.w3.org/Graphics/SVG/1.1/DTD/svg11.dtd">
<!-- Generated by graphviz version 2.40.1 (20161225.0304)
 -->
<!-- Title: odp_pktio_capability_t Pages: 1 -->
<svg width="540pt" height="162pt"
 viewBox="0.00 0.00 540.00 162.00" xmlns="http://www.w3.org/2000/svg" xmlns:xlink="http://www.w3.org/1999/xlink">
<g id="graph0" class="graph" transform="scale(1 1) rotate(0) translate(4 158)">
<title>odp_pktio_capability_t</title>
<polygon fill="#ffffff" stroke="transparent" points="-4,4 -4,-158 536,-158 536,4 -4,4"/>
<!-- Node1 -->
<g id="node1" class="node">
<title>Node1</title>
<polygon fill="#bfbfbf" stroke="#000000" points="136,-.5 136,-19.5 249,-19.5 249,-.5 136,-.5"/>
<text text-anchor="middle" x="192.5" y="-7.5" font-family="Helvetica,sans-Serif" font-size="10.00" fill="#000000">odp_pktio_capability_t</text>
</g>
<!-- Node2 -->
<g id="node2" class="node">
<title>Node2</title>
<g id="a_node2"><a xlink:href="unionodp__pktio__set__op__t.html" target="_top" xlink:title="Packet IO set operations. ">
<polygon fill="#ffffff" stroke="#000000" points="0,-67.5 0,-86.5 101,-86.5 101,-67.5 0,-67.5"/>
<text text-anchor="middle" x="50.5" y="-74.5" font-family="Helvetica,sans-Serif" font-size="10.00" fill="#000000">odp_pktio_set_op_t</text>
</a>
</g>
</g>
<!-- Node2&#45;&gt;Node1 -->
<g id="edge1" class="edge">
<title>Node2&#45;&gt;Node1</title>
<path fill="none" stroke="#9a32cd" stroke-dasharray="5,2" d="M80.0186,-63.0722C107.6062,-50.0555 148.0625,-30.967 172.1926,-19.5817"/>
<polygon fill="#9a32cd" stroke="#9a32cd" points="78.3955,-59.968 70.8451,-67.4005 81.3825,-66.2987 78.3955,-59.968"/>
<text text-anchor="middle" x="147" y="-41" font-family="Helvetica,sans-Serif" font-size="10.00" fill="#000000"> set_op</text>
</g>
<!-- Node3 -->
<g id="node3" class="node">
<title>Node3</title>
<g id="a_node3"><a xlink:href="structodp__pktin__vector__capability__t.html" target="_top" xlink:title="Packet input vector capabilities. ">
<polygon fill="#ffffff" stroke="#000000" points="119.5,-67.5 119.5,-86.5 265.5,-86.5 265.5,-67.5 119.5,-67.5"/>
<text text-anchor="middle" x="192.5" y="-74.5" font-family="Helvetica,sans-Serif" font-size="10.00" fill="#000000">odp_pktin_vector_capability_t</text>
</a>
</g>
</g>
<!-- Node3&#45;&gt;Node1 -->
<g id="edge2" class="edge">
<title>Node3&#45;&gt;Node1</title>
<path fill="none" stroke="#9a32cd" stroke-dasharray="5,2" d="M192.5,-57.1079C192.5,-44.714 192.5,-29.3263 192.5,-19.5817"/>
<polygon fill="#9a32cd" stroke="#9a32cd" points="189.0001,-57.4005 192.5,-67.4005 196.0001,-57.4006 189.0001,-57.4005"/>
<text text-anchor="middle" x="208" y="-41" font-family="Helvetica,sans-Serif" font-size="10.00" fill="#000000"> vector</text>
</g>
<!-- Node4 -->
<g id="node4" class="node">
<title>Node4</title>
<g id="a_node4"><a xlink:href="structodp__pktio__config__t.html" target="_top" xlink:title="Packet IO configuration options. ">
<polygon fill="#ffffff" stroke="#000000" points="283.5,-67.5 283.5,-86.5 381.5,-86.5 381.5,-67.5 283.5,-67.5"/>
<text text-anchor="middle" x="332.5" y="-74.5" font-family="Helvetica,sans-Serif" font-size="10.00" fill="#000000">odp_pktio_config_t</text>
</a>
</g>
</g>
<!-- Node4&#45;&gt;Node1 -->
<g id="edge3" class="edge">
<title>Node4&#45;&gt;Node1</title>
<path fill="none" stroke="#9a32cd" stroke-dasharray="5,2" d="M303.3971,-63.0722C276.1981,-50.0555 236.3116,-30.967 212.5214,-19.5817"/>
<polygon fill="#9a32cd" stroke="#9a32cd" points="301.9102,-66.2407 312.4414,-67.4005 304.9321,-59.9266 301.9102,-66.2407"/>
<text text-anchor="middle" x="286.5" y="-41" font-family="Helvetica,sans-Serif" font-size="10.00" fill="#000000"> config</text>
</g>
<!-- Node5 -->
<g id="node5" class="node">
<title>Node5</title>
<g id="a_node5"><a xlink:href="structodp__pktio__parser__config__t.html" target="_top" xlink:title="Parser configuration. ">
<polygon fill="#ffffff" stroke="#000000" points="125,-134.5 125,-153.5 256,-153.5 256,-134.5 125,-134.5"/>
<text text-anchor="middle" x="190.5" y="-141.5" font-family="Helvetica,sans-Serif" font-size="10.00" fill="#000000">odp_pktio_parser_config_t</text>
</a>
</g>
</g>
<!-- Node5&#45;&gt;Node4 -->
<g id="edge4" class="edge">
<title>Node5&#45;&gt;Node4</title>
<path fill="none" stroke="#9a32cd" stroke-dasharray="5,2" d="M220.0186,-130.0722C247.6062,-117.0555 288.0625,-97.967 312.1926,-86.5817"/>
<polygon fill="#9a32cd" stroke="#9a32cd" points="218.3955,-126.968 210.8451,-134.4005 221.3825,-133.2987 218.3955,-126.968"/>
<text text-anchor="middle" x="286" y="-108" font-family="Helvetica,sans-Serif" font-size="10.00" fill="#000000"> parser</text>
</g>
<!-- Node6 -->
<g id="node6" class="node">
<title>Node6</title>
<g id="a_node6"><a xlink:href="unionodp__pktin__config__opt__t.html" target="_top" xlink:title="Packet input configuration options bit field. ">
<polygon fill="#ffffff" stroke="#000000" points="274,-134.5 274,-153.5 391,-153.5 391,-134.5 274,-134.5"/>
<text text-anchor="middle" x="332.5" y="-141.5" font-family="Helvetica,sans-Serif" font-size="10.00" fill="#000000">odp_pktin_config_opt_t</text>
</a>
</g>
</g>
<!-- Node6&#45;&gt;Node4 -->
<g id="edge5" class="edge">
<title>Node6&#45;&gt;Node4</title>
<path fill="none" stroke="#9a32cd" stroke-dasharray="5,2" d="M332.5,-124.1079C332.5,-111.714 332.5,-96.3263 332.5,-86.5817"/>
<polygon fill="#9a32cd" stroke="#9a32cd" points="329.0001,-124.4005 332.5,-134.4005 336.0001,-124.4006 329.0001,-124.4005"/>
<text text-anchor="middle" x="345" y="-108" font-family="Helvetica,sans-Serif" font-size="10.00" fill="#000000"> pktin</text>
</g>
<!-- Node7 -->
<g id="node7" class="node">
<title>Node7</title>
<g id="a_node7"><a xlink:href="unionodp__pktout__config__opt__t.html" target="_top" xlink:title="Packet output configuration options bit field. ">
<polygon fill="#ffffff" stroke="#000000" points="409,-134.5 409,-153.5 532,-153.5 532,-134.5 409,-134.5"/>
<text text-anchor="middle" x="470.5" y="-141.5" font-family="Helvetica,sans-Serif" font-size="10.00" fill="#000000">odp_pktout_config_opt_t</text>
</a>
</g>
</g>
<!-- Node7&#45;&gt;Node4 -->
<g id="edge6" class="edge">
<title>Node7&#45;&gt;Node4</title>
<path fill="none" stroke="#9a32cd" stroke-dasharray="5,2" d="M441.4609,-129.9013C414.6594,-116.889 375.5834,-97.9173 352.2354,-86.5817"/>
<polygon fill="#9a32cd" stroke="#9a32cd" points="440.2035,-133.1815 450.728,-134.4005 443.2608,-126.8844 440.2035,-133.1815"/>
<text text-anchor="middle" x="425" y="-108" font-family="Helvetica,sans-Serif" font-size="10.00" fill="#000000"> pktout</text>
</g>
</g>
</svg>
