<?xml version="1.0" encoding="UTF-8" standalone="no"?>
<!DOCTYPE svg PUBLIC "-//W3C//DTD SVG 1.1//EN"
 "http://www.w3.org/Graphics/SVG/1.1/DTD/svg11.dtd">
<!-- Generated by graphviz version 2.40.1 (20161225.0304)
 -->
<!-- Title: odp_system_info_t Pages: 1 -->
<svg width="115pt" height="106pt"
 viewBox="0.00 0.00 115.00 106.00" xmlns="http://www.w3.org/2000/svg" xmlns:xlink="http://www.w3.org/1999/xlink">
<g id="graph0" class="graph" transform="scale(1 1) rotate(0) translate(4 102)">
<title>odp_system_info_t</title>
<polygon fill="#ffffff" stroke="transparent" points="-4,4 -4,-102 111,-102 111,4 -4,4"/>
<!-- Node1 -->
<g id="node1" class="node">
<title>Node1</title>
<polygon fill="#bfbfbf" stroke="#000000" points="2.5,-.5 2.5,-19.5 101.5,-19.5 101.5,-.5 2.5,-.5"/>
<text text-anchor="middle" x="52" y="-7.5" font-family="Helvetica,sans-Serif" font-size="10.00" fill="#000000">odp_system_info_t</text>
</g>
<!-- Node2 -->
<g id="node2" class="node">
<title>Node2</title>
<g id="a_node2"><a xlink:href="unionodp__cpu__arch__isa__t.html" target="_top" xlink:title="CPU ISA versions. ">
<polygon fill="#ffffff" stroke="#000000" points="0,-78.5 0,-97.5 104,-97.5 104,-78.5 0,-78.5"/>
<text text-anchor="middle" x="52" y="-85.5" font-family="Helvetica,sans-Serif" font-size="10.00" fill="#000000">odp_cpu_arch_isa_t</text>
</a>
</g>
</g>
<!-- Node2&#45;&gt;Node1 -->
<g id="edge1" class="edge">
<title>Node2&#45;&gt;Node1</title>
<path fill="none" stroke="#9a32cd" stroke-dasharray="5,2" d="M52,-68.2866C52,-52.7395 52,-31.7276 52,-19.6426"/>
<polygon fill="#9a32cd" stroke="#9a32cd" points="48.5001,-68.4356 52,-78.4357 55.5001,-68.4357 48.5001,-68.4356"/>
<text text-anchor="middle" x="79.5" y="-52" font-family="Helvetica,sans-Serif" font-size="10.00" fill="#000000"> cpu_isa_hw</text>
<text text-anchor="middle" x="79.5" y="-41" font-family="Helvetica,sans-Serif" font-size="10.00" fill="#000000">cpu_isa_sw</text>
</g>
</g>
</svg>
