<?xml version="1.0" encoding="UTF-8" standalone="no"?>
<!DOCTYPE svg PUBLIC "-//W3C//DTD SVG 1.1//EN"
 "http://www.w3.org/Graphics/SVG/1.1/DTD/svg11.dtd">
<!-- Generated by graphviz version 2.40.1 (20161225.0304)
 -->
<!-- Title: odp_comp_packet_op_param_t Pages: 1 -->
<svg width="278pt" height="117pt"
 viewBox="0.00 0.00 278.00 117.00" xmlns="http://www.w3.org/2000/svg" xmlns:xlink="http://www.w3.org/1999/xlink">
<g id="graph0" class="graph" transform="scale(1 1) rotate(0) translate(4 113)">
<title>odp_comp_packet_op_param_t</title>
<polygon fill="#ffffff" stroke="transparent" points="-4,4 -4,-113 274,-113 274,4 -4,4"/>
<!-- Node1 -->
<g id="node1" class="node">
<title>Node1</title>
<polygon fill="#bfbfbf" stroke="#000000" points="82,-.5 82,-30.5 194,-30.5 194,-.5 82,-.5"/>
<text text-anchor="start" x="90" y="-18.5" font-family="Helvetica,sans-Serif" font-size="10.00" fill="#000000">odp_comp_packet_op</text>
<text text-anchor="middle" x="138" y="-7.5" font-family="Helvetica,sans-Serif" font-size="10.00" fill="#000000">_param_t</text>
</g>
<!-- Node2 -->
<g id="node2" class="node">
<title>Node2</title>
<g id="a_node2"><a xlink:href="struct__odp__abi__comp__session__t.html" target="_top" xlink:title="_odp_abi_comp_session_t">
<polygon fill="#ffffff" stroke="#000000" points="0,-89.5 0,-108.5 132,-108.5 132,-89.5 0,-89.5"/>
<text text-anchor="middle" x="66" y="-96.5" font-family="Helvetica,sans-Serif" font-size="10.00" fill="#000000">_odp_abi_comp_session_t</text>
</a>
</g>
</g>
<!-- Node2&#45;&gt;Node1 -->
<g id="edge1" class="edge">
<title>Node2&#45;&gt;Node1</title>
<path fill="none" stroke="#9a32cd" stroke-dasharray="5,2" d="M80.8182,-81.815C93.8211,-66.7353 112.5458,-45.0198 124.9822,-30.597"/>
<polygon fill="#9a32cd" stroke="#9a32cd" points="78.139,-79.5625 74.2593,-89.4215 83.4403,-84.1338 78.139,-79.5625"/>
<text text-anchor="middle" x="127.5" y="-57.5" font-family="Helvetica,sans-Serif" font-size="10.00" fill="#000000"> session</text>
</g>
<!-- Node3 -->
<g id="node3" class="node">
<title>Node3</title>
<g id="a_node3"><a xlink:href="structodp__packet__data__range.html" target="_top" xlink:title="Packet API data range specifier. ">
<polygon fill="#ffffff" stroke="#000000" points="150,-89.5 150,-108.5 270,-108.5 270,-89.5 150,-89.5"/>
<text text-anchor="middle" x="210" y="-96.5" font-family="Helvetica,sans-Serif" font-size="10.00" fill="#000000">odp_packet_data_range</text>
</a>
</g>
</g>
<!-- Node3&#45;&gt;Node1 -->
<g id="edge2" class="edge">
<title>Node3&#45;&gt;Node1</title>
<path fill="none" stroke="#9a32cd" stroke-dasharray="5,2" d="M195.1818,-81.815C182.1789,-66.7353 163.4542,-45.0198 151.0178,-30.597"/>
<polygon fill="#9a32cd" stroke="#9a32cd" points="192.5597,-84.1338 201.7407,-89.4215 197.861,-79.5625 192.5597,-84.1338"/>
<text text-anchor="middle" x="217.5" y="-63" font-family="Helvetica,sans-Serif" font-size="10.00" fill="#000000"> in_data_range</text>
<text text-anchor="middle" x="217.5" y="-52" font-family="Helvetica,sans-Serif" font-size="10.00" fill="#000000">out_data_range</text>
</g>
</g>
</svg>
