<?xml version="1.0" encoding="UTF-8" standalone="no"?>
<!DOCTYPE svg PUBLIC "-//W3C//DTD SVG 1.1//EN"
 "http://www.w3.org/Graphics/SVG/1.1/DTD/svg11.dtd">
<!-- Generated by graphviz version 2.40.1 (20161225.0304)
 -->
<!-- Title: odp_ipsec_packet_result_t Pages: 1 -->
<svg width="421pt" height="162pt"
 viewBox="0.00 0.00 421.00 162.00" xmlns="http://www.w3.org/2000/svg" xmlns:xlink="http://www.w3.org/1999/xlink">
<g id="graph0" class="graph" transform="scale(1 1) rotate(0) translate(4 158)">
<title>odp_ipsec_packet_result_t</title>
<polygon fill="#ffffff" stroke="transparent" points="-4,4 -4,-158 417,-158 417,4 -4,4"/>
<!-- Node1 -->
<g id="node1" class="node">
<title>Node1</title>
<polygon fill="#bfbfbf" stroke="#000000" points="111.5,-.5 111.5,-19.5 244.5,-19.5 244.5,-.5 111.5,-.5"/>
<text text-anchor="middle" x="178" y="-7.5" font-family="Helvetica,sans-Serif" font-size="10.00" fill="#000000">odp_ipsec_packet_result_t</text>
</g>
<!-- Node2 -->
<g id="node2" class="node">
<title>Node2</title>
<g id="a_node2"><a xlink:href="structodp__ipsec__op__flag__t.html" target="_top" xlink:title="IPSEC operation flags. ">
<polygon fill="#ffffff" stroke="#000000" points="0,-67.5 0,-86.5 106,-86.5 106,-67.5 0,-67.5"/>
<text text-anchor="middle" x="53" y="-74.5" font-family="Helvetica,sans-Serif" font-size="10.00" fill="#000000">odp_ipsec_op_flag_t</text>
</a>
</g>
</g>
<!-- Node2&#45;&gt;Node1 -->
<g id="edge1" class="edge">
<title>Node2&#45;&gt;Node1</title>
<path fill="none" stroke="#9a32cd" stroke-dasharray="5,2" d="M79.9449,-62.5575C104.2002,-49.5567 139.1607,-30.8179 160.1238,-19.5817"/>
<polygon fill="#9a32cd" stroke="#9a32cd" points="78.0697,-59.5915 70.9095,-67.4005 81.3767,-65.7611 78.0697,-59.5915"/>
<text text-anchor="middle" x="132.5" y="-41" font-family="Helvetica,sans-Serif" font-size="10.00" fill="#000000"> flag</text>
</g>
<!-- Node3 -->
<g id="node3" class="node">
<title>Node3</title>
<g id="a_node3"><a xlink:href="struct__odp__abi__ipsec__sa__t.html" target="_top" xlink:title="_odp_abi_ipsec_sa_t">
<polygon fill="#ffffff" stroke="#000000" points="124,-67.5 124,-86.5 232,-86.5 232,-67.5 124,-67.5"/>
<text text-anchor="middle" x="178" y="-74.5" font-family="Helvetica,sans-Serif" font-size="10.00" fill="#000000">_odp_abi_ipsec_sa_t</text>
</a>
</g>
</g>
<!-- Node3&#45;&gt;Node1 -->
<g id="edge2" class="edge">
<title>Node3&#45;&gt;Node1</title>
<path fill="none" stroke="#9a32cd" stroke-dasharray="5,2" d="M178,-57.1079C178,-44.714 178,-29.3263 178,-19.5817"/>
<polygon fill="#9a32cd" stroke="#9a32cd" points="174.5001,-57.4005 178,-67.4005 181.5001,-57.4006 174.5001,-57.4005"/>
<text text-anchor="middle" x="185" y="-41" font-family="Helvetica,sans-Serif" font-size="10.00" fill="#000000"> sa</text>
</g>
<!-- Node4 -->
<g id="node4" class="node">
<title>Node4</title>
<g id="a_node4"><a xlink:href="structodp__ipsec__op__status__t.html" target="_top" xlink:title="IPSEC operation status. ">
<polygon fill="#ffffff" stroke="#000000" points="250.5,-67.5 250.5,-86.5 367.5,-86.5 367.5,-67.5 250.5,-67.5"/>
<text text-anchor="middle" x="309" y="-74.5" font-family="Helvetica,sans-Serif" font-size="10.00" fill="#000000">odp_ipsec_op_status_t</text>
</a>
</g>
</g>
<!-- Node4&#45;&gt;Node1 -->
<g id="edge3" class="edge">
<title>Node4&#45;&gt;Node1</title>
<path fill="none" stroke="#9a32cd" stroke-dasharray="5,2" d="M281.0985,-62.7298C255.6668,-49.7227 218.8008,-30.8676 196.7343,-19.5817"/>
<polygon fill="#9a32cd" stroke="#9a32cd" points="279.734,-65.9631 290.2309,-67.4005 282.9215,-59.7309 279.734,-65.9631"/>
<text text-anchor="middle" x="267.5" y="-41" font-family="Helvetica,sans-Serif" font-size="10.00" fill="#000000"> status</text>
</g>
<!-- Node5 -->
<g id="node5" class="node">
<title>Node5</title>
<g id="a_node5"><a xlink:href="structodp__ipsec__warn__t.html" target="_top" xlink:title="IPSEC warnings. ">
<polygon fill="#ffffff" stroke="#000000" points="205.5,-134.5 205.5,-153.5 300.5,-153.5 300.5,-134.5 205.5,-134.5"/>
<text text-anchor="middle" x="253" y="-141.5" font-family="Helvetica,sans-Serif" font-size="10.00" fill="#000000">odp_ipsec_warn_t</text>
</a>
</g>
</g>
<!-- Node5&#45;&gt;Node4 -->
<g id="edge4" class="edge">
<title>Node5&#45;&gt;Node4</title>
<path fill="none" stroke="#9a32cd" stroke-dasharray="5,2" d="M267.4474,-126.7147C278.1239,-113.941 292.2649,-97.0224 300.9914,-86.5817"/>
<polygon fill="#9a32cd" stroke="#9a32cd" points="264.7511,-124.4831 261.0234,-134.4005 270.1221,-128.9723 264.7511,-124.4831"/>
<text text-anchor="middle" x="297.5" y="-108" font-family="Helvetica,sans-Serif" font-size="10.00" fill="#000000"> warn</text>
</g>
<!-- Node6 -->
<g id="node6" class="node">
<title>Node6</title>
<g id="a_node6"><a xlink:href="structodp__ipsec__error__t.html" target="_top" xlink:title="IPSEC errors. ">
<polygon fill="#ffffff" stroke="#000000" points="319,-134.5 319,-153.5 413,-153.5 413,-134.5 319,-134.5"/>
<text text-anchor="middle" x="366" y="-141.5" font-family="Helvetica,sans-Serif" font-size="10.00" fill="#000000">odp_ipsec_error_t</text>
</a>
</g>
</g>
<!-- Node6&#45;&gt;Node4 -->
<g id="edge5" class="edge">
<title>Node6&#45;&gt;Node4</title>
<path fill="none" stroke="#9a32cd" stroke-dasharray="5,2" d="M351.2946,-126.7147C340.4274,-113.941 326.034,-97.0224 317.1516,-86.5817"/>
<polygon fill="#9a32cd" stroke="#9a32cd" points="348.6877,-129.0519 357.8333,-134.4005 354.0193,-124.516 348.6877,-129.0519"/>
<text text-anchor="middle" x="351.5" y="-108" font-family="Helvetica,sans-Serif" font-size="10.00" fill="#000000"> error</text>
</g>
</g>
</svg>
