<?xml version="1.0" encoding="UTF-8" standalone="no"?>
<!DOCTYPE svg PUBLIC "-//W3C//DTD SVG 1.1//EN"
 "http://www.w3.org/Graphics/SVG/1.1/DTD/svg11.dtd">
<!-- Generated by graphviz version 2.40.1 (20161225.0304)
 -->
<!-- Title: odp_ipsec_config_t Pages: 1 -->
<svg width="311pt" height="173pt"
 viewBox="0.00 0.00 310.50 173.00" xmlns="http://www.w3.org/2000/svg" xmlns:xlink="http://www.w3.org/1999/xlink">
<g id="graph0" class="graph" transform="scale(1 1) rotate(0) translate(4 169)">
<title>odp_ipsec_config_t</title>
<polygon fill="#ffffff" stroke="transparent" points="-4,4 -4,-169 306.5,-169 306.5,4 -4,4"/>
<!-- Node1 -->
<g id="node1" class="node">
<title>Node1</title>
<polygon fill="#bfbfbf" stroke="#000000" points="53.5,-.5 53.5,-19.5 154.5,-19.5 154.5,-.5 53.5,-.5"/>
<text text-anchor="middle" x="104" y="-7.5" font-family="Helvetica,sans-Serif" font-size="10.00" fill="#000000">odp_ipsec_config_t</text>
</g>
<!-- Node2 -->
<g id="node2" class="node">
<title>Node2</title>
<g id="a_node2"><a xlink:href="structodp__ipsec__outbound__config__t.html" target="_top" xlink:title="Configuration options for IPSEC outbound processing. ">
<polygon fill="#ffffff" stroke="#000000" points="0,-67.5 0,-97.5 106,-97.5 106,-67.5 0,-67.5"/>
<text text-anchor="start" x="8" y="-85.5" font-family="Helvetica,sans-Serif" font-size="10.00" fill="#000000">odp_ipsec_outbound</text>
<text text-anchor="middle" x="53" y="-74.5" font-family="Helvetica,sans-Serif" font-size="10.00" fill="#000000">_config_t</text>
</a>
</g>
</g>
<!-- Node2&#45;&gt;Node1 -->
<g id="edge1" class="edge">
<title>Node2&#45;&gt;Node1</title>
<path fill="none" stroke="#9a32cd" stroke-dasharray="5,2" d="M69.3757,-59.2208C78.7241,-45.9314 89.957,-29.963 97.0389,-19.8957"/>
<polygon fill="#9a32cd" stroke="#9a32cd" points="66.4581,-57.2851 63.5672,-67.478 72.1835,-61.3126 66.4581,-57.2851"/>
<text text-anchor="middle" x="105.5" y="-41" font-family="Helvetica,sans-Serif" font-size="10.00" fill="#000000"> outbound</text>
</g>
<!-- Node3 -->
<g id="node3" class="node">
<title>Node3</title>
<g id="a_node3"><a xlink:href="structodp__ipsec__inbound__config__t.html" target="_top" xlink:title="Configuration options for IPSEC inbound processing. ">
<polygon fill="#ffffff" stroke="#000000" points="124,-73 124,-92 264,-92 264,-73 124,-73"/>
<text text-anchor="middle" x="194" y="-80" font-family="Helvetica,sans-Serif" font-size="10.00" fill="#000000">odp_ipsec_inbound_config_t</text>
</a>
</g>
</g>
<!-- Node3&#45;&gt;Node1 -->
<g id="edge2" class="edge">
<title>Node3&#45;&gt;Node1</title>
<path fill="none" stroke="#9a32cd" stroke-dasharray="5,2" d="M173.8118,-66.2373C156.0193,-51.9044 130.6983,-31.507 115.9455,-19.6228"/>
<polygon fill="#9a32cd" stroke="#9a32cd" points="171.879,-69.1746 181.8622,-72.7223 176.2703,-63.7233 171.879,-69.1746"/>
<text text-anchor="middle" x="169.5" y="-41" font-family="Helvetica,sans-Serif" font-size="10.00" fill="#000000"> inbound</text>
</g>
<!-- Node4 -->
<g id="node4" class="node">
<title>Node4</title>
<g id="a_node4"><a xlink:href="unionodp__proto__chksums__t.html" target="_top" xlink:title="Flags to control packet data checksum checking. ">
<polygon fill="#ffffff" stroke="#000000" points="76.5,-145.5 76.5,-164.5 189.5,-164.5 189.5,-145.5 76.5,-145.5"/>
<text text-anchor="middle" x="133" y="-152.5" font-family="Helvetica,sans-Serif" font-size="10.00" fill="#000000">odp_proto_chksums_t</text>
</a>
</g>
</g>
<!-- Node4&#45;&gt;Node3 -->
<g id="edge3" class="edge">
<title>Node4&#45;&gt;Node3</title>
<path fill="none" stroke="#9a32cd" stroke-dasharray="5,2" d="M147.6809,-137.5513C159.6733,-123.2982 176.1772,-103.6829 185.9036,-92.1228"/>
<polygon fill="#9a32cd" stroke="#9a32cd" points="144.9867,-135.3171 141.2267,-145.2223 150.343,-139.8238 144.9867,-135.3171"/>
<text text-anchor="middle" x="186.5" y="-119" font-family="Helvetica,sans-Serif" font-size="10.00" fill="#000000"> chksums</text>
</g>
<!-- Node5 -->
<g id="node5" class="node">
<title>Node5</title>
<g id="a_node5"><a xlink:href="struct__odp__abi__queue__t.html" target="_top" xlink:title="_odp_abi_queue_t">
<polygon fill="#ffffff" stroke="#000000" points="207.5,-145.5 207.5,-164.5 302.5,-164.5 302.5,-145.5 207.5,-145.5"/>
<text text-anchor="middle" x="255" y="-152.5" font-family="Helvetica,sans-Serif" font-size="10.00" fill="#000000">_odp_abi_queue_t</text>
</a>
</g>
</g>
<!-- Node5&#45;&gt;Node3 -->
<g id="edge4" class="edge">
<title>Node5&#45;&gt;Node3</title>
<path fill="none" stroke="#9a32cd" stroke-dasharray="5,2" d="M240.3191,-137.5513C228.3267,-123.2982 211.8228,-103.6829 202.0964,-92.1228"/>
<polygon fill="#9a32cd" stroke="#9a32cd" points="237.657,-139.8238 246.7733,-145.2223 243.0133,-135.3171 237.657,-139.8238"/>
<text text-anchor="middle" x="261" y="-119" font-family="Helvetica,sans-Serif" font-size="10.00" fill="#000000"> default_queue</text>
</g>
</g>
</svg>
