<?xml version="1.0" encoding="UTF-8" standalone="no"?>
<!DOCTYPE svg PUBLIC "-//W3C//DTD SVG 1.1//EN"
 "http://www.w3.org/Graphics/SVG/1.1/DTD/svg11.dtd">
<!-- Generated by graphviz version 2.40.1 (20161225.0304)
 -->
<!-- Title: odp_ipsec_capability_t Pages: 1 -->
<svg width="415pt" height="95pt"
 viewBox="0.00 0.00 415.00 95.00" xmlns="http://www.w3.org/2000/svg" xmlns:xlink="http://www.w3.org/1999/xlink">
<g id="graph0" class="graph" transform="scale(1 1) rotate(0) translate(4 91)">
<title>odp_ipsec_capability_t</title>
<polygon fill="#ffffff" stroke="transparent" points="-4,4 -4,-91 411,-91 411,4 -4,4"/>
<!-- Node1 -->
<g id="node1" class="node">
<title>Node1</title>
<polygon fill="#bfbfbf" stroke="#000000" points="139.5,-.5 139.5,-19.5 255.5,-19.5 255.5,-.5 139.5,-.5"/>
<text text-anchor="middle" x="197.5" y="-7.5" font-family="Helvetica,sans-Serif" font-size="10.00" fill="#000000">odp_ipsec_capability_t</text>
</g>
<!-- Node2 -->
<g id="node2" class="node">
<title>Node2</title>
<g id="a_node2"><a xlink:href="unionodp__proto__chksums__t.html" target="_top" xlink:title="Flags to control packet data checksum checking. ">
<polygon fill="#ffffff" stroke="#000000" points="0,-67.5 0,-86.5 113,-86.5 113,-67.5 0,-67.5"/>
<text text-anchor="middle" x="56.5" y="-74.5" font-family="Helvetica,sans-Serif" font-size="10.00" fill="#000000">odp_proto_chksums_t</text>
</a>
</g>
</g>
<!-- Node2&#45;&gt;Node1 -->
<g id="edge1" class="edge">
<title>Node2&#45;&gt;Node1</title>
<path fill="none" stroke="#9a32cd" stroke-dasharray="5,2" d="M85.1783,-63.0879C100.6535,-55.607 120.098,-46.2495 137.5,-38 150.5877,-31.7957 165.3271,-24.9158 176.9219,-19.5283"/>
<polygon fill="#9a32cd" stroke="#9a32cd" points="83.5862,-59.97 76.1095,-67.4766 86.6355,-66.2709 83.5862,-59.97"/>
<text text-anchor="middle" x="165.5" y="-41" font-family="Helvetica,sans-Serif" font-size="10.00" fill="#000000"> chksums_in</text>
</g>
<!-- Node3 -->
<g id="node3" class="node">
<title>Node3</title>
<g id="a_node3"><a xlink:href="unionodp__crypto__cipher__algos__t.html" target="_top" xlink:title="Cipher algorithms in a bit field structure. ">
<polygon fill="#ffffff" stroke="#000000" points="131,-67.5 131,-86.5 264,-86.5 264,-67.5 131,-67.5"/>
<text text-anchor="middle" x="197.5" y="-74.5" font-family="Helvetica,sans-Serif" font-size="10.00" fill="#000000">odp_crypto_cipher_algos_t</text>
</a>
</g>
</g>
<!-- Node3&#45;&gt;Node1 -->
<g id="edge2" class="edge">
<title>Node3&#45;&gt;Node1</title>
<path fill="none" stroke="#9a32cd" stroke-dasharray="5,2" d="M197.5,-57.1079C197.5,-44.714 197.5,-29.3263 197.5,-19.5817"/>
<polygon fill="#9a32cd" stroke="#9a32cd" points="194.0001,-57.4005 197.5,-67.4005 201.0001,-57.4006 194.0001,-57.4005"/>
<text text-anchor="middle" x="215" y="-41" font-family="Helvetica,sans-Serif" font-size="10.00" fill="#000000"> ciphers</text>
</g>
<!-- Node4 -->
<g id="node4" class="node">
<title>Node4</title>
<g id="a_node4"><a xlink:href="unionodp__crypto__auth__algos__t.html" target="_top" xlink:title="Authentication algorithms in a bit field structure. ">
<polygon fill="#ffffff" stroke="#000000" points="282,-67.5 282,-86.5 407,-86.5 407,-67.5 282,-67.5"/>
<text text-anchor="middle" x="344.5" y="-74.5" font-family="Helvetica,sans-Serif" font-size="10.00" fill="#000000">odp_crypto_auth_algos_t</text>
</a>
</g>
</g>
<!-- Node4&#45;&gt;Node1 -->
<g id="edge3" class="edge">
<title>Node4&#45;&gt;Node1</title>
<path fill="none" stroke="#9a32cd" stroke-dasharray="5,2" d="M314.3153,-63.2424C285.7491,-50.2224 243.6113,-31.0167 218.5224,-19.5817"/>
<polygon fill="#9a32cd" stroke="#9a32cd" points="312.8875,-66.4379 323.4385,-67.4005 315.7906,-60.0683 312.8875,-66.4379"/>
<text text-anchor="middle" x="293.5" y="-41" font-family="Helvetica,sans-Serif" font-size="10.00" fill="#000000"> auths</text>
</g>
</g>
</svg>
