<?xml version="1.0" encoding="UTF-8" standalone="no"?>
<!DOCTYPE svg PUBLIC "-//W3C//DTD SVG 1.1//EN"
 "http://www.w3.org/Graphics/SVG/1.1/DTD/svg11.dtd">
<!-- Generated by graphviz version 2.40.1 (20161225.0304)
 -->
<!-- Title: odp_pktio_info_t Pages: 1 -->
<svg width="212pt" height="95pt"
 viewBox="0.00 0.00 212.00 95.00" xmlns="http://www.w3.org/2000/svg" xmlns:xlink="http://www.w3.org/1999/xlink">
<g id="graph0" class="graph" transform="scale(1 1) rotate(0) translate(4 91)">
<title>odp_pktio_info_t</title>
<polygon fill="#ffffff" stroke="transparent" points="-4,4 -4,-91 208,-91 208,4 -4,4"/>
<!-- Node1 -->
<g id="node1" class="node">
<title>Node1</title>
<polygon fill="#bfbfbf" stroke="#000000" points="54.5,-.5 54.5,-19.5 142.5,-19.5 142.5,-.5 54.5,-.5"/>
<text text-anchor="middle" x="98.5" y="-7.5" font-family="Helvetica,sans-Serif" font-size="10.00" fill="#000000">odp_pktio_info_t</text>
</g>
<!-- Node2 -->
<g id="node2" class="node">
<title>Node2</title>
<g id="a_node2"><a xlink:href="struct__odp__abi__pool__t.html" target="_top" xlink:title="_odp_abi_pool_t">
<polygon fill="#ffffff" stroke="#000000" points="0,-67.5 0,-86.5 87,-86.5 87,-67.5 0,-67.5"/>
<text text-anchor="middle" x="43.5" y="-74.5" font-family="Helvetica,sans-Serif" font-size="10.00" fill="#000000">_odp_abi_pool_t</text>
</a>
</g>
</g>
<!-- Node2&#45;&gt;Node1 -->
<g id="edge1" class="edge">
<title>Node2&#45;&gt;Node1</title>
<path fill="none" stroke="#9a32cd" stroke-dasharray="5,2" d="M57.9899,-59.3486C68.4393,-46.6194 82.1454,-29.9229 90.6345,-19.5817"/>
<polygon fill="#9a32cd" stroke="#9a32cd" points="55.0199,-57.4505 51.3802,-67.4005 60.4304,-61.892 55.0199,-57.4505"/>
<text text-anchor="middle" x="85.5" y="-41" font-family="Helvetica,sans-Serif" font-size="10.00" fill="#000000"> pool</text>
</g>
<!-- Node3 -->
<g id="node3" class="node">
<title>Node3</title>
<g id="a_node3"><a xlink:href="structodp__pktio__param__t.html" target="_top" xlink:title="Packet IO parameters. ">
<polygon fill="#ffffff" stroke="#000000" points="105,-67.5 105,-86.5 204,-86.5 204,-67.5 105,-67.5"/>
<text text-anchor="middle" x="154.5" y="-74.5" font-family="Helvetica,sans-Serif" font-size="10.00" fill="#000000">odp_pktio_param_t</text>
</a>
</g>
</g>
<!-- Node3&#45;&gt;Node1 -->
<g id="edge2" class="edge">
<title>Node3&#45;&gt;Node1</title>
<path fill="none" stroke="#9a32cd" stroke-dasharray="5,2" d="M140.0526,-59.7147C129.3761,-46.941 115.2351,-30.0224 106.5086,-19.5817"/>
<polygon fill="#9a32cd" stroke="#9a32cd" points="137.3779,-61.9723 146.4766,-67.4005 142.7489,-57.4831 137.3779,-61.9723"/>
<text text-anchor="middle" x="145" y="-41" font-family="Helvetica,sans-Serif" font-size="10.00" fill="#000000"> param</text>
</g>
</g>
</svg>
