<?xml version="1.0" encoding="UTF-8" standalone="no"?>
<!DOCTYPE svg PUBLIC "-//W3C//DTD SVG 1.1//EN"
 "http://www.w3.org/Graphics/SVG/1.1/DTD/svg11.dtd">
<!-- Generated by graphviz version 2.40.1 (20161225.0304)
 -->
<!-- Title: odp_tm_egress_t Pages: 1 -->
<svg width="214pt" height="95pt"
 viewBox="0.00 0.00 214.00 95.00" xmlns="http://www.w3.org/2000/svg" xmlns:xlink="http://www.w3.org/1999/xlink">
<g id="graph0" class="graph" transform="scale(1 1) rotate(0) translate(4 91)">
<title>odp_tm_egress_t</title>
<polygon fill="#ffffff" stroke="transparent" points="-4,4 -4,-91 210,-91 210,4 -4,4"/>
<!-- Node1 -->
<g id="node1" class="node">
<title>Node1</title>
<polygon fill="#bfbfbf" stroke="#000000" points="55,-.5 55,-19.5 147,-19.5 147,-.5 55,-.5"/>
<text text-anchor="middle" x="101" y="-7.5" font-family="Helvetica,sans-Serif" font-size="10.00" fill="#000000">odp_tm_egress_t</text>
</g>
<!-- Node2 -->
<g id="node2" class="node">
<title>Node2</title>
<g id="a_node2"><a xlink:href="struct__odp__abi__pktio__t.html" target="_top" xlink:title="_odp_abi_pktio_t">
<polygon fill="#ffffff" stroke="#000000" points="0,-67.5 0,-86.5 90,-86.5 90,-67.5 0,-67.5"/>
<text text-anchor="middle" x="45" y="-74.5" font-family="Helvetica,sans-Serif" font-size="10.00" fill="#000000">_odp_abi_pktio_t</text>
</a>
</g>
</g>
<!-- Node2&#45;&gt;Node1 -->
<g id="edge1" class="edge">
<title>Node2&#45;&gt;Node1</title>
<path fill="none" stroke="#9a32cd" stroke-dasharray="5,2" d="M59.4474,-59.7147C70.1239,-46.941 84.2649,-30.0224 92.9914,-19.5817"/>
<polygon fill="#9a32cd" stroke="#9a32cd" points="56.7511,-57.4831 53.0234,-67.4005 62.1221,-61.9723 56.7511,-57.4831"/>
<text text-anchor="middle" x="89.5" y="-41" font-family="Helvetica,sans-Serif" font-size="10.00" fill="#000000"> pktio</text>
</g>
<!-- Node3 -->
<g id="node3" class="node">
<title>Node3</title>
<g id="a_node3"><a xlink:href="struct__odp__abi__packet__t.html" target="_top" xlink:title="_odp_abi_packet_t">
<polygon fill="#ffffff" stroke="#000000" points="108,-67.5 108,-86.5 206,-86.5 206,-67.5 108,-67.5"/>
<text text-anchor="middle" x="157" y="-74.5" font-family="Helvetica,sans-Serif" font-size="10.00" fill="#000000">_odp_abi_packet_t</text>
</a>
</g>
</g>
<!-- Node3&#45;&gt;Node1 -->
<g id="edge2" class="edge">
<title>Node3&#45;&gt;Node1</title>
<path fill="none" stroke="#9a32cd" stroke-dasharray="5,2" d="M142.5526,-59.7147C131.8761,-46.941 117.7351,-30.0224 109.0086,-19.5817"/>
<polygon fill="#9a32cd" stroke="#9a32cd" points="139.8779,-61.9723 148.9766,-67.4005 145.2489,-57.4831 139.8779,-61.9723"/>
<text text-anchor="middle" x="158" y="-41" font-family="Helvetica,sans-Serif" font-size="10.00" fill="#000000"> egress_fcn</text>
</g>
</g>
</svg>
