<?xml version="1.0" encoding="UTF-8" standalone="no"?>
<!DOCTYPE svg PUBLIC "-//W3C//DTD SVG 1.1//EN"
 "http://www.w3.org/Graphics/SVG/1.1/DTD/svg11.dtd">
<!-- Generated by graphviz version 2.40.1 (20161225.0304)
 -->
<!-- Title: support.h Pages: 1 -->
<svg width="567pt" height="756pt"
 viewBox="0.00 0.00 566.50 756.00" xmlns="http://www.w3.org/2000/svg" xmlns:xlink="http://www.w3.org/1999/xlink">
<g id="graph0" class="graph" transform="scale(1 1) rotate(0) translate(4 752)">
<title>support.h</title>
<polygon fill="#ffffff" stroke="transparent" points="-4,4 -4,-752 562.5,-752 562.5,4 -4,4"/>
<!-- Node4 -->
<g id="node1" class="node">
<title>Node4</title>
<polygon fill="#bfbfbf" stroke="#000000" points="128.5,-728.5 128.5,-747.5 185.5,-747.5 185.5,-728.5 128.5,-728.5"/>
<text text-anchor="middle" x="157" y="-735.5" font-family="Helvetica,sans-Serif" font-size="10.00" fill="#000000">support.h</text>
</g>
<!-- Node5 -->
<g id="node2" class="node">
<title>Node5</title>
<g id="a_node2"><a xlink:href="api_2spec_2classification_8h.html" target="_top" xlink:title="ODP classification descriptor. ">
<polygon fill="#ffffff" stroke="#000000" points="28,-280.5 28,-299.5 110,-299.5 110,-280.5 28,-280.5"/>
<text text-anchor="middle" x="69" y="-287.5" font-family="Helvetica,sans-Serif" font-size="10.00" fill="#000000">classification.h</text>
</a>
</g>
</g>
<!-- Node4&#45;&gt;Node5 -->
<g id="edge1" class="edge">
<title>Node4&#45;&gt;Node5</title>
<path fill="none" stroke="#191970" d="M137.5069,-721.3338C116.184,-701.1378 85,-664.9446 85,-626 85,-626 85,-626 85,-402 85,-363.6984 75.7166,-318.7628 71.2924,-299.5228"/>
<polygon fill="#191970" stroke="#191970" points="135.3619,-724.1144 145.1107,-728.2632 140.0769,-718.9405 135.3619,-724.1144"/>
</g>
<!-- Node7 -->
<g id="node4" class="node">
<title>Node7</title>
<g id="a_node4"><a xlink:href="api_2spec_2ipsec_8h.html" target="_top" xlink:title="ODP IPSEC API. ">
<polygon fill="#ffffff" stroke="#000000" points="225,-168.5 225,-187.5 273,-187.5 273,-168.5 225,-168.5"/>
<text text-anchor="middle" x="249" y="-175.5" font-family="Helvetica,sans-Serif" font-size="10.00" fill="#000000">ipsec.h</text>
</a>
</g>
</g>
<!-- Node4&#45;&gt;Node7 -->
<g id="edge15" class="edge">
<title>Node4&#45;&gt;Node7</title>
<path fill="none" stroke="#191970" d="M151.6022,-718.3284C145.9852,-696.0948 138,-658.7312 138,-626 138,-626 138,-626 138,-346 138,-315.3494 139.4298,-304.3845 158,-280 176.1536,-256.1625 194.7612,-266.0946 215,-244 230.4971,-227.0818 240.8812,-201.7822 245.7703,-187.9358"/>
<polygon fill="#191970" stroke="#191970" points="148.2711,-719.4237 154.1965,-728.2066 155.0415,-717.6455 148.2711,-719.4237"/>
</g>
<!-- Node9 -->
<g id="node6" class="node">
<title>Node9</title>
<g id="a_node6"><a xlink:href="odp__api_8h.html" target="_top" xlink:title="The OpenDataPlane API. ">
<polygon fill="#ffffff" stroke="#000000" points="318.5,-56.5 318.5,-75.5 377.5,-75.5 377.5,-56.5 318.5,-56.5"/>
<text text-anchor="middle" x="348" y="-63.5" font-family="Helvetica,sans-Serif" font-size="10.00" fill="#000000">odp_api.h</text>
</a>
</g>
</g>
<!-- Node4&#45;&gt;Node9 -->
<g id="edge36" class="edge">
<title>Node4&#45;&gt;Node9</title>
<path fill="none" stroke="#191970" d="M118.4207,-728.6494C71.9354,-714.8093 0,-684.0189 0,-626 0,-626 0,-626 0,-178 0,-111.358 234.1736,-78.6843 318.3297,-69.0939"/>
<polygon fill="#191970" stroke="#191970" points="117.6281,-732.0626 128.2038,-731.4263 119.5395,-725.3286 117.6281,-732.0626"/>
</g>
<!-- Node11 -->
<g id="node8" class="node">
<title>Node11</title>
<g id="a_node8"><a xlink:href="api_2spec_2comp_8h.html" target="_top" xlink:title="ODP Compression. ">
<polygon fill="#ffffff" stroke="#000000" points="497.5,-616.5 497.5,-635.5 546.5,-635.5 546.5,-616.5 497.5,-616.5"/>
<text text-anchor="middle" x="522" y="-623.5" font-family="Helvetica,sans-Serif" font-size="10.00" fill="#000000">comp.h</text>
</a>
</g>
</g>
<!-- Node4&#45;&gt;Node11 -->
<g id="edge8" class="edge">
<title>Node4&#45;&gt;Node11</title>
<path fill="none" stroke="#191970" d="M195.9716,-735.1062C246.4578,-730.416 336.5778,-718.8134 409,-692 447.9896,-677.5646 488.9795,-650.0412 509.1861,-635.5181"/>
<polygon fill="#191970" stroke="#191970" points="195.4729,-731.6365 185.8206,-736.005 196.0904,-738.6092 195.4729,-731.6365"/>
</g>
<!-- Node13 -->
<g id="node10" class="node">
<title>Node13</title>
<g id="a_node10"><a xlink:href="api_2spec_2crypto_8h.html" target="_top" xlink:title="ODP crypto. ">
<polygon fill="#ffffff" stroke="#000000" points="267,-504.5 267,-523.5 319,-523.5 319,-504.5 267,-504.5"/>
<text text-anchor="middle" x="293" y="-511.5" font-family="Helvetica,sans-Serif" font-size="10.00" fill="#000000">crypto.h</text>
</a>
</g>
</g>
<!-- Node4&#45;&gt;Node13 -->
<g id="edge11" class="edge">
<title>Node4&#45;&gt;Node13</title>
<path fill="none" stroke="#191970" d="M168.1892,-719.5707C195.7959,-674.1008 266.4188,-557.7807 287.178,-523.5891"/>
<polygon fill="#191970" stroke="#191970" points="165.0418,-718.0107 162.8438,-728.375 171.0253,-721.6436 165.0418,-718.0107"/>
</g>
<!-- Node15 -->
<g id="node12" class="node">
<title>Node15</title>
<g id="a_node12"><a xlink:href="api_2spec_2schedule__types_8h.html" target="_top" xlink:title="ODP schedule types. ">
<polygon fill="#ffffff" stroke="#000000" points="306.5,-672.5 306.5,-691.5 399.5,-691.5 399.5,-672.5 306.5,-672.5"/>
<text text-anchor="middle" x="353" y="-679.5" font-family="Helvetica,sans-Serif" font-size="10.00" fill="#000000">schedule_types.h</text>
</a>
</g>
</g>
<!-- Node4&#45;&gt;Node15 -->
<g id="edge16" class="edge">
<title>Node4&#45;&gt;Node15</title>
<path fill="none" stroke="#191970" d="M195.1968,-727.0866C231.3362,-716.7611 285.0425,-701.4164 319.5387,-691.5604"/>
<polygon fill="#191970" stroke="#191970" points="194.1538,-723.7445 185.5001,-729.8571 196.0769,-730.4752 194.1538,-723.7445"/>
</g>
<!-- Node6 -->
<g id="node3" class="node">
<title>Node6</title>
<g id="a_node3"><a xlink:href="api_2classification_8h.html" target="_top" xlink:title="ODP classification descriptor. ">
<polygon fill="#ffffff" stroke="#000000" points="28,-224.5 28,-243.5 110,-243.5 110,-224.5 28,-224.5"/>
<text text-anchor="middle" x="69" y="-231.5" font-family="Helvetica,sans-Serif" font-size="10.00" fill="#000000">classification.h</text>
</a>
</g>
</g>
<!-- Node5&#45;&gt;Node6 -->
<g id="edge2" class="edge">
<title>Node5&#45;&gt;Node6</title>
<path fill="none" stroke="#191970" d="M69,-270.1575C69,-261.155 69,-250.9199 69,-243.6427"/>
<polygon fill="#191970" stroke="#191970" points="65.5001,-270.2455 69,-280.2455 72.5001,-270.2456 65.5001,-270.2455"/>
</g>
<!-- Node6&#45;&gt;Node7 -->
<g id="edge3" class="edge">
<title>Node6&#45;&gt;Node7</title>
<path fill="none" stroke="#191970" d="M109.5184,-221.3943C144.9697,-210.365 195.284,-194.7116 224.7945,-185.5306"/>
<polygon fill="#191970" stroke="#191970" points="108.4519,-218.0605 99.9431,-224.3733 110.5314,-224.7445 108.4519,-218.0605"/>
</g>
<!-- Node6&#45;&gt;Node9 -->
<g id="edge7" class="edge">
<title>Node6&#45;&gt;Node9</title>
<path fill="none" stroke="#191970" d="M84.4448,-216.7143C108.6231,-190.6132 157.9511,-141.1066 209,-112 244.1102,-91.9812 289.2272,-79.0847 318.3767,-72.1856"/>
<polygon fill="#191970" stroke="#191970" points="81.6667,-214.5662 77.5081,-224.3108 86.8358,-219.2864 81.6667,-214.5662"/>
</g>
<!-- Node8 -->
<g id="node5" class="node">
<title>Node8</title>
<g id="a_node5"><a xlink:href="api_2ipsec_8h.html" target="_top" xlink:title="ODP IPSEC API &#45; platform specific header. ">
<polygon fill="#ffffff" stroke="#000000" points="241,-112.5 241,-131.5 289,-131.5 289,-112.5 241,-112.5"/>
<text text-anchor="middle" x="265" y="-119.5" font-family="Helvetica,sans-Serif" font-size="10.00" fill="#000000">ipsec.h</text>
</a>
</g>
</g>
<!-- Node7&#45;&gt;Node8 -->
<g id="edge4" class="edge">
<title>Node7&#45;&gt;Node8</title>
<path fill="none" stroke="#191970" d="M254.5846,-158.4538C257.177,-149.3803 260.1429,-138.9998 262.245,-131.6427"/>
<polygon fill="#191970" stroke="#191970" points="251.1689,-157.6688 251.787,-168.2455 257.8996,-159.5919 251.1689,-157.6688"/>
</g>
<!-- Node8&#45;&gt;Node9 -->
<g id="edge5" class="edge">
<title>Node8&#45;&gt;Node9</title>
<path fill="none" stroke="#191970" d="M287.988,-106.49C302.6322,-96.6096 321.1444,-84.1194 333.7082,-75.6427"/>
<polygon fill="#191970" stroke="#191970" points="285.7896,-103.7511 279.4575,-112.2455 289.7047,-109.5539 285.7896,-103.7511"/>
</g>
<!-- Node10 -->
<g id="node7" class="node">
<title>Node10</title>
<g id="a_node7"><a xlink:href="odp_8h.html" target="_top" xlink:title="WARNING: THIS FILE IS DEPRECATED AND WILL BE REMOVED!!! ODP APPLICATIONS SHOULD NOW INCLUDE odp_api...">
<polygon fill="#ffffff" stroke="#000000" points="327.5,-.5 327.5,-19.5 368.5,-19.5 368.5,-.5 327.5,-.5"/>
<text text-anchor="middle" x="348" y="-7.5" font-family="Helvetica,sans-Serif" font-size="10.00" fill="#000000">odp.h</text>
</a>
</g>
</g>
<!-- Node9&#45;&gt;Node10 -->
<g id="edge6" class="edge">
<title>Node9&#45;&gt;Node10</title>
<path fill="none" stroke="#191970" d="M348,-46.1575C348,-37.155 348,-26.9199 348,-19.6427"/>
<polygon fill="#191970" stroke="#191970" points="344.5001,-46.2455 348,-56.2455 351.5001,-46.2456 344.5001,-46.2455"/>
</g>
<!-- Node12 -->
<g id="node9" class="node">
<title>Node12</title>
<g id="a_node9"><a xlink:href="api_2comp_8h.html" target="_top" xlink:title="ODP crypto. ">
<polygon fill="#ffffff" stroke="#000000" points="509.5,-560.5 509.5,-579.5 558.5,-579.5 558.5,-560.5 509.5,-560.5"/>
<text text-anchor="middle" x="534" y="-567.5" font-family="Helvetica,sans-Serif" font-size="10.00" fill="#000000">comp.h</text>
</a>
</g>
</g>
<!-- Node11&#45;&gt;Node12 -->
<g id="edge9" class="edge">
<title>Node11&#45;&gt;Node12</title>
<path fill="none" stroke="#191970" d="M526.1885,-606.4538C528.1328,-597.3803 530.3572,-586.9998 531.9337,-579.6427"/>
<polygon fill="#191970" stroke="#191970" points="522.7633,-605.7341 524.0902,-616.2455 529.6079,-607.2009 522.7633,-605.7341"/>
</g>
<!-- Node12&#45;&gt;Node9 -->
<g id="edge10" class="edge">
<title>Node12&#45;&gt;Node9</title>
<path fill="none" stroke="#191970" d="M536.8359,-550.2428C539.7925,-527.9031 544,-490.4169 544,-458 544,-458 544,-458 544,-178 544,-102.3603 432.5986,-77.1131 377.7682,-69.2677"/>
<polygon fill="#191970" stroke="#191970" points="533.3291,-550.0534 535.4328,-560.4373 540.2637,-551.008 533.3291,-550.0534"/>
</g>
<!-- Node14 -->
<g id="node11" class="node">
<title>Node14</title>
<g id="a_node11"><a xlink:href="api_2crypto_8h.html" target="_top" xlink:title="ODP crypto. ">
<polygon fill="#ffffff" stroke="#000000" points="334,-336.5 334,-355.5 386,-355.5 386,-336.5 334,-336.5"/>
<text text-anchor="middle" x="360" y="-343.5" font-family="Helvetica,sans-Serif" font-size="10.00" fill="#000000">crypto.h</text>
</a>
</g>
</g>
<!-- Node13&#45;&gt;Node14 -->
<g id="edge12" class="edge">
<title>Node13&#45;&gt;Node14</title>
<path fill="none" stroke="#191970" d="M300.5021,-495.1887C314.7446,-459.4762 345.2445,-382.9988 356.0805,-355.8279"/>
<polygon fill="#191970" stroke="#191970" points="297.2476,-493.9011 296.7942,-504.4862 303.7496,-496.4942 297.2476,-493.9011"/>
</g>
<!-- Node14&#45;&gt;Node7 -->
<g id="edge13" class="edge">
<title>Node14&#45;&gt;Node7</title>
<path fill="none" stroke="#191970" d="M348.1727,-328.0993C324.8452,-292.7928 273.5997,-215.232 255.4934,-187.8279"/>
<polygon fill="#191970" stroke="#191970" points="345.2813,-330.0723 353.7141,-336.4862 351.1217,-326.2135 345.2813,-330.0723"/>
</g>
<!-- Node14&#45;&gt;Node9 -->
<g id="edge14" class="edge">
<title>Node14&#45;&gt;Node9</title>
<path fill="none" stroke="#191970" d="M367.2813,-326.7776C374.9729,-304.7143 386,-267.2796 386,-234 386,-234 386,-234 386,-178 386,-138.1657 364.1774,-94.3859 353.607,-75.5166"/>
<polygon fill="#191970" stroke="#191970" points="363.9513,-325.6941 363.8364,-336.2883 370.5329,-328.0781 363.9513,-325.6941"/>
</g>
<!-- Node16 -->
<g id="node13" class="node">
<title>Node16</title>
<g id="a_node13"><a xlink:href="api_2schedule__types_8h.html" target="_top" xlink:title="ODP schedule. ">
<polygon fill="#ffffff" stroke="#000000" points="353.5,-616.5 353.5,-635.5 446.5,-635.5 446.5,-616.5 353.5,-616.5"/>
<text text-anchor="middle" x="400" y="-623.5" font-family="Helvetica,sans-Serif" font-size="10.00" fill="#000000">schedule_types.h</text>
</a>
</g>
</g>
<!-- Node15&#45;&gt;Node16 -->
<g id="edge17" class="edge">
<title>Node15&#45;&gt;Node16</title>
<path fill="none" stroke="#191970" d="M367.6872,-664.5004C375.6796,-654.9775 385.2625,-643.5596 391.907,-635.6427"/>
<polygon fill="#191970" stroke="#191970" points="364.9346,-662.3357 361.1868,-672.2455 370.2964,-666.8358 364.9346,-662.3357"/>
</g>
<!-- Node17 -->
<g id="node14" class="node">
<title>Node17</title>
<g id="a_node14"><a xlink:href="queue__types_8h.html" target="_top" xlink:title="ODP queue types. ">
<polygon fill="#ffffff" stroke="#000000" points="360,-560.5 360,-579.5 440,-579.5 440,-560.5 360,-560.5"/>
<text text-anchor="middle" x="400" y="-567.5" font-family="Helvetica,sans-Serif" font-size="10.00" fill="#000000">queue_types.h</text>
</a>
</g>
</g>
<!-- Node16&#45;&gt;Node17 -->
<g id="edge18" class="edge">
<title>Node16&#45;&gt;Node17</title>
<path fill="none" stroke="#191970" d="M400,-606.1575C400,-597.155 400,-586.9199 400,-579.6427"/>
<polygon fill="#191970" stroke="#191970" points="396.5001,-606.2455 400,-616.2455 403.5001,-606.2456 396.5001,-606.2455"/>
</g>
<!-- Node24 -->
<g id="node21" class="node">
<title>Node24</title>
<g id="a_node21"><a xlink:href="api_2spec_2schedule_8h.html" target="_top" xlink:title="ODP schedule. ">
<polygon fill="#ffffff" stroke="#000000" points="452,-392.5 452,-411.5 516,-411.5 516,-392.5 452,-392.5"/>
<text text-anchor="middle" x="484" y="-399.5" font-family="Helvetica,sans-Serif" font-size="10.00" fill="#000000">schedule.h</text>
</a>
</g>
</g>
<!-- Node16&#45;&gt;Node24 -->
<g id="edge35" class="edge">
<title>Node16&#45;&gt;Node24</title>
<path fill="none" stroke="#191970" d="M422.4392,-610.0816C432.0508,-602.118 442.5315,-591.6856 449,-580 481.0307,-522.1352 484.063,-439.4264 484.1185,-411.5712"/>
<polygon fill="#191970" stroke="#191970" points="420.0619,-607.4975 414.3391,-616.4138 424.3731,-613.0123 420.0619,-607.4975"/>
</g>
<!-- Node18 -->
<g id="node15" class="node">
<title>Node18</title>
<g id="a_node15"><a xlink:href="api_2spec_2queue_8h.html" target="_top" xlink:title="ODP queue. ">
<polygon fill="#ffffff" stroke="#000000" points="374.5,-504.5 374.5,-523.5 425.5,-523.5 425.5,-504.5 374.5,-504.5"/>
<text text-anchor="middle" x="400" y="-511.5" font-family="Helvetica,sans-Serif" font-size="10.00" fill="#000000">queue.h</text>
</a>
</g>
</g>
<!-- Node17&#45;&gt;Node18 -->
<g id="edge19" class="edge">
<title>Node17&#45;&gt;Node18</title>
<path fill="none" stroke="#191970" d="M400,-550.1575C400,-541.155 400,-530.9199 400,-523.6427"/>
<polygon fill="#191970" stroke="#191970" points="396.5001,-550.2455 400,-560.2455 403.5001,-550.2456 396.5001,-550.2455"/>
</g>
<!-- Node19 -->
<g id="node16" class="node">
<title>Node19</title>
<g id="a_node16"><a xlink:href="api_2queue_8h.html" target="_top" xlink:title="ODP queue. ">
<polygon fill="#ffffff" stroke="#000000" points="374.5,-448.5 374.5,-467.5 425.5,-467.5 425.5,-448.5 374.5,-448.5"/>
<text text-anchor="middle" x="400" y="-455.5" font-family="Helvetica,sans-Serif" font-size="10.00" fill="#000000">queue.h</text>
</a>
</g>
</g>
<!-- Node18&#45;&gt;Node19 -->
<g id="edge20" class="edge">
<title>Node18&#45;&gt;Node19</title>
<path fill="none" stroke="#191970" d="M400,-494.1575C400,-485.155 400,-474.9199 400,-467.6427"/>
<polygon fill="#191970" stroke="#191970" points="396.5001,-494.2455 400,-504.2455 403.5001,-494.2456 396.5001,-494.2455"/>
</g>
<!-- Node19&#45;&gt;Node9 -->
<g id="edge34" class="edge">
<title>Node19&#45;&gt;Node9</title>
<path fill="none" stroke="#191970" d="M406.7212,-438.7316C413.8211,-416.6263 424,-379.1535 424,-346 424,-346 424,-346 424,-178 424,-133.3528 382.136,-93.2845 360.5499,-75.5918"/>
<polygon fill="#191970" stroke="#191970" points="403.3862,-437.6688 403.5413,-448.2625 410.0264,-439.8843 403.3862,-437.6688"/>
</g>
<!-- Node19&#45;&gt;Node14 -->
<g id="edge21" class="edge">
<title>Node19&#45;&gt;Node14</title>
<path fill="none" stroke="#191970" d="M393.1876,-438.9253C384.5458,-414.7284 369.9777,-373.9376 363.4017,-355.5249"/>
<polygon fill="#191970" stroke="#191970" points="389.9301,-440.2107 396.5896,-448.4509 396.5223,-437.8563 389.9301,-440.2107"/>
</g>
<!-- Node20 -->
<g id="node17" class="node">
<title>Node20</title>
<g id="a_node17"><a xlink:href="api_2spec_2packet__io_8h.html" target="_top" xlink:title="ODP Packet IO. ">
<polygon fill="#ffffff" stroke="#000000" points="240.5,-392.5 240.5,-411.5 307.5,-411.5 307.5,-392.5 240.5,-392.5"/>
<text text-anchor="middle" x="274" y="-399.5" font-family="Helvetica,sans-Serif" font-size="10.00" fill="#000000">packet_io.h</text>
</a>
</g>
</g>
<!-- Node19&#45;&gt;Node20 -->
<g id="edge22" class="edge">
<title>Node19&#45;&gt;Node20</title>
<path fill="none" stroke="#191970" d="M369.0564,-444.2473C346.1735,-434.0771 315.5986,-420.4883 295.3775,-411.5011"/>
<polygon fill="#191970" stroke="#191970" points="367.7802,-447.5102 378.3398,-448.3733 370.6232,-441.1135 367.7802,-447.5102"/>
</g>
<!-- Node19&#45;&gt;Node24 -->
<g id="edge31" class="edge">
<title>Node19&#45;&gt;Node24</title>
<path fill="none" stroke="#191970" d="M423.2649,-442.49C438.0856,-432.6096 456.8209,-420.1194 469.536,-411.6427"/>
<polygon fill="#191970" stroke="#191970" points="421.0107,-439.7863 414.6317,-448.2455 424.8937,-445.6107 421.0107,-439.7863"/>
</g>
<!-- Node21 -->
<g id="node18" class="node">
<title>Node21</title>
<g id="a_node18"><a xlink:href="api_2packet__io_8h.html" target="_top" xlink:title="ODP Packet IO. ">
<polygon fill="#ffffff" stroke="#000000" points="238.5,-336.5 238.5,-355.5 305.5,-355.5 305.5,-336.5 238.5,-336.5"/>
<text text-anchor="middle" x="272" y="-343.5" font-family="Helvetica,sans-Serif" font-size="10.00" fill="#000000">packet_io.h</text>
</a>
</g>
</g>
<!-- Node20&#45;&gt;Node21 -->
<g id="edge23" class="edge">
<title>Node20&#45;&gt;Node21</title>
<path fill="none" stroke="#191970" d="M273.2913,-382.1575C272.9698,-373.155 272.6043,-362.9199 272.3444,-355.6427"/>
<polygon fill="#191970" stroke="#191970" points="269.7968,-382.3769 273.6516,-392.2455 276.7924,-382.127 269.7968,-382.3769"/>
</g>
<!-- Node21&#45;&gt;Node5 -->
<g id="edge24" class="edge">
<title>Node21&#45;&gt;Node5</title>
<path fill="none" stroke="#191970" d="M228.3957,-333.9712C191.0706,-323.6746 138.052,-309.0488 103.5907,-299.5423"/>
<polygon fill="#191970" stroke="#191970" points="227.908,-337.4674 238.4787,-336.7527 229.7695,-330.7194 227.908,-337.4674"/>
</g>
<!-- Node21&#45;&gt;Node7 -->
<g id="edge25" class="edge">
<title>Node21&#45;&gt;Node7</title>
<path fill="none" stroke="#191970" d="M269.2975,-326.2601C264.3562,-290.1669 254.0334,-214.7656 250.3455,-187.8279"/>
<polygon fill="#191970" stroke="#191970" points="265.8734,-327.0534 270.6975,-336.4862 272.8087,-326.1039 265.8734,-327.0534"/>
</g>
<!-- Node21&#45;&gt;Node9 -->
<g id="edge30" class="edge">
<title>Node21&#45;&gt;Node9</title>
<path fill="none" stroke="#191970" d="M277.3032,-326.4621C292.273,-271.31 334.4762,-115.8245 345.3949,-75.5977"/>
<polygon fill="#191970" stroke="#191970" points="273.8579,-325.7941 274.6161,-336.3618 280.6135,-327.6278 273.8579,-325.7941"/>
</g>
<!-- Node22 -->
<g id="node19" class="node">
<title>Node22</title>
<g id="a_node19"><a xlink:href="api_2spec_2traffic__mngr_8h.html" target="_top" xlink:title="Copyright (c) 2015&#45;2018, Linaro Limited All rights reserved. ">
<polygon fill="#ffffff" stroke="#000000" points="166.5,-280.5 166.5,-299.5 243.5,-299.5 243.5,-280.5 166.5,-280.5"/>
<text text-anchor="middle" x="205" y="-287.5" font-family="Helvetica,sans-Serif" font-size="10.00" fill="#000000">traffic_mngr.h</text>
</a>
</g>
</g>
<!-- Node21&#45;&gt;Node22 -->
<g id="edge26" class="edge">
<title>Node21&#45;&gt;Node22</title>
<path fill="none" stroke="#191970" d="M252.4324,-329.645C240.7802,-319.9058 226.3916,-307.8795 216.5368,-299.6427"/>
<polygon fill="#191970" stroke="#191970" points="250.4121,-332.5179 260.3295,-336.2455 254.9012,-327.1469 250.4121,-332.5179"/>
</g>
<!-- Node23 -->
<g id="node20" class="node">
<title>Node23</title>
<g id="a_node20"><a xlink:href="api_2traffic__mngr_8h.html" target="_top" xlink:title="ODP Traffic manager. ">
<polygon fill="#ffffff" stroke="#000000" points="128.5,-224.5 128.5,-243.5 205.5,-243.5 205.5,-224.5 128.5,-224.5"/>
<text text-anchor="middle" x="167" y="-231.5" font-family="Helvetica,sans-Serif" font-size="10.00" fill="#000000">traffic_mngr.h</text>
</a>
</g>
</g>
<!-- Node22&#45;&gt;Node23 -->
<g id="edge27" class="edge">
<title>Node22&#45;&gt;Node23</title>
<path fill="none" stroke="#191970" d="M192.7321,-271.9209C186.3512,-262.5176 178.8069,-251.3997 173.5432,-243.6427"/>
<polygon fill="#191970" stroke="#191970" points="189.8697,-273.936 198.3809,-280.2455 195.662,-270.0055 189.8697,-273.936"/>
</g>
<!-- Node23&#45;&gt;Node7 -->
<g id="edge28" class="edge">
<title>Node23&#45;&gt;Node7</title>
<path fill="none" stroke="#191970" d="M189.711,-218.49C204.1788,-208.6096 222.468,-196.1194 234.8804,-187.6427"/>
<polygon fill="#191970" stroke="#191970" points="187.5675,-215.7156 181.2833,-224.2455 191.5152,-221.4962 187.5675,-215.7156"/>
</g>
<!-- Node23&#45;&gt;Node9 -->
<g id="edge29" class="edge">
<title>Node23&#45;&gt;Node9</title>
<path fill="none" stroke="#191970" d="M172.6224,-214.6464C181.265,-188.0823 200.2325,-140.3948 232,-112 256.5519,-90.0547 292.843,-77.9526 318.2774,-71.7416"/>
<polygon fill="#191970" stroke="#191970" points="169.2424,-213.7298 169.6316,-224.3175 175.9299,-215.798 169.2424,-213.7298"/>
</g>
<!-- Node25 -->
<g id="node22" class="node">
<title>Node25</title>
<g id="a_node22"><a xlink:href="api_2schedule_8h.html" target="_top" xlink:title="ODP schedule. ">
<polygon fill="#ffffff" stroke="#000000" points="452,-168.5 452,-187.5 516,-187.5 516,-168.5 452,-168.5"/>
<text text-anchor="middle" x="484" y="-175.5" font-family="Helvetica,sans-Serif" font-size="10.00" fill="#000000">schedule.h</text>
</a>
</g>
</g>
<!-- Node24&#45;&gt;Node25 -->
<g id="edge32" class="edge">
<title>Node24&#45;&gt;Node25</title>
<path fill="none" stroke="#191970" d="M484,-382.1177C484,-335.6713 484,-221.4223 484,-187.5891"/>
<polygon fill="#191970" stroke="#191970" points="480.5001,-382.375 484,-392.375 487.5001,-382.375 480.5001,-382.375"/>
</g>
<!-- Node25&#45;&gt;Node9 -->
<g id="edge33" class="edge">
<title>Node25&#45;&gt;Node9</title>
<path fill="none" stroke="#191970" d="M474.373,-159.4134C466.2114,-145.0534 453.393,-125.4274 438,-112 419.3548,-95.7357 393.946,-83.433 374.8804,-75.6618"/>
<polygon fill="#191970" stroke="#191970" points="471.3963,-161.2656 479.2538,-168.3727 477.5433,-157.9168 471.3963,-161.2656"/>
</g>
</g>
</svg>
