<?xml version="1.0" encoding="UTF-8" standalone="no"?>
<!DOCTYPE svg PUBLIC "-//W3C//DTD SVG 1.1//EN"
 "http://www.w3.org/Graphics/SVG/1.1/DTD/svg11.dtd">
<!-- Generated by graphviz version 2.40.1 (20161225.0304)
 -->
<!-- Title: system_info.h Pages: 1 -->
<svg width="408pt" height="319pt"
 viewBox="0.00 0.00 407.92 319.00" xmlns="http://www.w3.org/2000/svg" xmlns:xlink="http://www.w3.org/1999/xlink">
<g id="graph0" class="graph" transform="scale(1 1) rotate(0) translate(4 315)">
<title>system_info.h</title>
<polygon fill="#ffffff" stroke="transparent" points="-4,4 -4,-315 403.9164,-315 403.9164,4 -4,4"/>
<!-- Node0 -->
<g id="node1" class="node">
<title>Node0</title>
<polygon fill="#bfbfbf" stroke="#000000" points="263.4164,-291.5 263.4164,-310.5 341.4164,-310.5 341.4164,-291.5 263.4164,-291.5"/>
<text text-anchor="middle" x="302.4164" y="-298.5" font-family="Helvetica,sans-Serif" font-size="10.00" fill="#000000">system_info.h</text>
</g>
<!-- Node1 -->
<g id="node2" class="node">
<title>Node1</title>
<g id="a_node2"><a xlink:href="api_2std__types_8h.html" target="_top" xlink:title="Standard C language types and definitions for ODP. ">
<polygon fill="#ffffff" stroke="#000000" points="208.4164,-235.5 208.4164,-254.5 310.4164,-254.5 310.4164,-235.5 208.4164,-235.5"/>
<text text-anchor="middle" x="259.4164" y="-242.5" font-family="Helvetica,sans-Serif" font-size="10.00" fill="#000000">odp/api/std_types.h</text>
</a>
</g>
</g>
<!-- Node0&#45;&gt;Node1 -->
<g id="edge1" class="edge">
<title>Node0&#45;&gt;Node1</title>
<path fill="none" stroke="#191970" d="M294.9264,-291.2455C288.8838,-283.3761 280.2261,-272.101 272.9723,-262.6542"/>
<polygon fill="#191970" stroke="#191970" points="275.6869,-260.4426 266.8206,-254.6427 270.1349,-264.7058 275.6869,-260.4426"/>
</g>
<!-- Node10 -->
<g id="node11" class="node">
<title>Node10</title>
<g id="a_node11"><a xlink:href="spec_2system__info_8h.html" target="_top" xlink:title="ODP system information. ">
<polygon fill="#ffffff" stroke="#000000" points="292.9164,-56.5 292.9164,-86.5 399.9164,-86.5 399.9164,-56.5 292.9164,-56.5"/>
<text text-anchor="start" x="300.9164" y="-74.5" font-family="Helvetica,sans-Serif" font-size="10.00" fill="#000000">odp/api/spec/system</text>
<text text-anchor="middle" x="346.4164" y="-63.5" font-family="Helvetica,sans-Serif" font-size="10.00" fill="#000000">_info.h</text>
</a>
</g>
</g>
<!-- Node0&#45;&gt;Node10 -->
<g id="edge12" class="edge">
<title>Node0&#45;&gt;Node10</title>
<path fill="none" stroke="#191970" d="M306.6674,-291.3174C310.536,-282.1353 316.1298,-267.8688 319.4164,-255 333.5695,-199.5823 341.0808,-132.7261 344.3535,-96.984"/>
<polygon fill="#191970" stroke="#191970" points="347.8475,-97.2055 345.2358,-86.9376 340.8743,-96.593 347.8475,-97.2055"/>
</g>
<!-- Node2 -->
<g id="node3" class="node">
<title>Node2</title>
<polygon fill="#ffffff" stroke="#bfbfbf" points="200.4164,-179.5 200.4164,-198.5 318.4164,-198.5 318.4164,-179.5 200.4164,-179.5"/>
<text text-anchor="middle" x="259.4164" y="-186.5" font-family="Helvetica,sans-Serif" font-size="10.00" fill="#000000">odp/api/abi/std_types.h</text>
</g>
<!-- Node1&#45;&gt;Node2 -->
<g id="edge2" class="edge">
<title>Node1&#45;&gt;Node2</title>
<path fill="none" stroke="#191970" d="M259.4164,-235.2455C259.4164,-227.9382 259.4164,-217.6944 259.4164,-208.7046"/>
<polygon fill="#191970" stroke="#191970" points="262.9165,-208.6426 259.4164,-198.6427 255.9165,-208.6427 262.9165,-208.6426"/>
</g>
<!-- Node3 -->
<g id="node4" class="node">
<title>Node3</title>
<g id="a_node4"><a xlink:href="api_2spec_2std__types_8h.html" target="_top" xlink:title="Standard C language types and definitions for ODP. ">
<polygon fill="#ffffff" stroke="#000000" points="56.4164,-179.5 56.4164,-198.5 182.4164,-198.5 182.4164,-179.5 56.4164,-179.5"/>
<text text-anchor="middle" x="119.4164" y="-186.5" font-family="Helvetica,sans-Serif" font-size="10.00" fill="#000000">odp/api/spec/std_types.h</text>
</a>
</g>
</g>
<!-- Node1&#45;&gt;Node3 -->
<g id="edge3" class="edge">
<title>Node1&#45;&gt;Node3</title>
<path fill="none" stroke="#191970" d="M235.3495,-235.3733C212.5736,-226.2629 178.182,-212.5062 152.7674,-202.3404"/>
<polygon fill="#191970" stroke="#191970" points="153.7539,-198.9654 143.1692,-198.5011 151.1541,-205.4648 153.7539,-198.9654"/>
</g>
<!-- Node4 -->
<g id="node5" class="node">
<title>Node4</title>
<g id="a_node5"><a xlink:href="visibility__begin_8h_source.html" target="_top" xlink:title="odp/visibility_begin.h">
<polygon fill="#ffffff" stroke="#000000" points="109.9164,-.5 109.9164,-19.5 216.9164,-19.5 216.9164,-.5 109.9164,-.5"/>
<text text-anchor="middle" x="163.4164" y="-7.5" font-family="Helvetica,sans-Serif" font-size="10.00" fill="#000000">odp/visibility_begin.h</text>
</a>
</g>
</g>
<!-- Node3&#45;&gt;Node4 -->
<g id="edge4" class="edge">
<title>Node3&#45;&gt;Node4</title>
<path fill="none" stroke="#191970" d="M97.8672,-179.4679C81.521,-171.4613 59.2406,-158.8025 43.4164,-143 14.041,-113.665 -15.3847,-89.292 9.4164,-56 20.6253,-40.9536 62.556,-29.0213 99.8375,-21.0836"/>
<polygon fill="#191970" stroke="#191970" points="100.6079,-24.4984 109.6955,-19.0519 99.1949,-17.6425 100.6079,-24.4984"/>
</g>
<!-- Node5 -->
<g id="node6" class="node">
<title>Node5</title>
<polygon fill="#ffffff" stroke="#bfbfbf" points="150.9164,-123.5 150.9164,-142.5 199.9164,-142.5 199.9164,-123.5 150.9164,-123.5"/>
<text text-anchor="middle" x="175.4164" y="-130.5" font-family="Helvetica,sans-Serif" font-size="10.00" fill="#000000">stdint.h</text>
</g>
<!-- Node3&#45;&gt;Node5 -->
<g id="edge5" class="edge">
<title>Node3&#45;&gt;Node5</title>
<path fill="none" stroke="#191970" d="M129.1709,-179.2455C137.2812,-171.1352 149.0089,-159.4075 158.6245,-149.7919"/>
<polygon fill="#191970" stroke="#191970" points="161.1775,-152.1887 165.7737,-142.6427 156.2277,-147.2389 161.1775,-152.1887"/>
</g>
<!-- Node6 -->
<g id="node7" class="node">
<title>Node6</title>
<g id="a_node7"><a xlink:href="api_2align_8h.html" target="_top" xlink:title="ODP alignments. ">
<polygon fill="#ffffff" stroke="#000000" points="52.4164,-123.5 52.4164,-142.5 132.4164,-142.5 132.4164,-123.5 52.4164,-123.5"/>
<text text-anchor="middle" x="92.4164" y="-130.5" font-family="Helvetica,sans-Serif" font-size="10.00" fill="#000000">odp/api/align.h</text>
</a>
</g>
</g>
<!-- Node3&#45;&gt;Node6 -->
<g id="edge6" class="edge">
<title>Node3&#45;&gt;Node6</title>
<path fill="none" stroke="#191970" d="M114.7134,-179.2455C111.074,-171.6973 105.924,-161.0158 101.4902,-151.8197"/>
<polygon fill="#191970" stroke="#191970" points="104.5613,-150.1303 97.0655,-142.6427 98.2559,-153.1704 104.5613,-150.1303"/>
</g>
<!-- Node9 -->
<g id="node10" class="node">
<title>Node9</title>
<g id="a_node10"><a xlink:href="visibility__end_8h_source.html" target="_top" xlink:title="odp/visibility_end.h">
<polygon fill="#ffffff" stroke="#000000" points="235.4164,-.5 235.4164,-19.5 335.4164,-19.5 335.4164,-.5 235.4164,-.5"/>
<text text-anchor="middle" x="285.4164" y="-7.5" font-family="Helvetica,sans-Serif" font-size="10.00" fill="#000000">odp/visibility_end.h</text>
</a>
</g>
</g>
<!-- Node3&#45;&gt;Node9 -->
<g id="edge11" class="edge">
<title>Node3&#45;&gt;Node9</title>
<path fill="none" stroke="#191970" d="M146.8912,-179.3834C165.9987,-171.7031 191.2082,-159.4919 209.4164,-143 245.0717,-110.7055 268.2846,-57.6444 278.8365,-29.2885"/>
<polygon fill="#191970" stroke="#191970" points="282.1848,-30.3198 282.2603,-19.7253 275.5944,-27.9604 282.1848,-30.3198"/>
</g>
<!-- Node7 -->
<g id="node8" class="node">
<title>Node7</title>
<polygon fill="#ffffff" stroke="#bfbfbf" points="18.9164,-62 18.9164,-81 113.9164,-81 113.9164,-62 18.9164,-62"/>
<text text-anchor="middle" x="66.4164" y="-69" font-family="Helvetica,sans-Serif" font-size="10.00" fill="#000000">odp/api/abi/align.h</text>
</g>
<!-- Node6&#45;&gt;Node7 -->
<g id="edge7" class="edge">
<title>Node6&#45;&gt;Node7</title>
<path fill="none" stroke="#191970" d="M88.3539,-123.3906C84.674,-114.6862 79.1422,-101.6015 74.5544,-90.7494"/>
<polygon fill="#191970" stroke="#191970" points="77.6539,-89.0927 70.5362,-81.2449 71.2064,-91.8185 77.6539,-89.0927"/>
</g>
<!-- Node8 -->
<g id="node9" class="node">
<title>Node8</title>
<g id="a_node9"><a xlink:href="api_2spec_2align_8h.html" target="_top" xlink:title="ODP alignments. ">
<polygon fill="#ffffff" stroke="#000000" points="132.4164,-62 132.4164,-81 236.4164,-81 236.4164,-62 132.4164,-62"/>
<text text-anchor="middle" x="184.4164" y="-69" font-family="Helvetica,sans-Serif" font-size="10.00" fill="#000000">odp/api/spec/align.h</text>
</a>
</g>
</g>
<!-- Node6&#45;&gt;Node8 -->
<g id="edge8" class="edge">
<title>Node6&#45;&gt;Node8</title>
<path fill="none" stroke="#191970" d="M106.7914,-123.3906C121.5095,-113.5519 144.5996,-98.1167 161.7753,-86.6351"/>
<polygon fill="#191970" stroke="#191970" points="163.7739,-89.5091 170.1423,-81.0419 159.8837,-83.6896 163.7739,-89.5091"/>
</g>
<!-- Node8&#45;&gt;Node4 -->
<g id="edge9" class="edge">
<title>Node8&#45;&gt;Node4</title>
<path fill="none" stroke="#191970" d="M181.1351,-61.8906C178.1629,-53.1862 173.695,-40.1015 169.9894,-29.2494"/>
<polygon fill="#191970" stroke="#191970" points="173.2876,-28.0773 166.7439,-19.7449 166.6632,-30.3394 173.2876,-28.0773"/>
</g>
<!-- Node8&#45;&gt;Node9 -->
<g id="edge10" class="edge">
<title>Node8&#45;&gt;Node9</title>
<path fill="none" stroke="#191970" d="M200.1976,-61.8906C216.5038,-51.9616 242.1704,-36.333 261.0778,-24.8201"/>
<polygon fill="#191970" stroke="#191970" points="263.0251,-27.7322 269.746,-19.5419 259.3845,-21.7533 263.0251,-27.7322"/>
</g>
<!-- Node10&#45;&gt;Node4 -->
<g id="edge13" class="edge">
<title>Node10&#45;&gt;Node4</title>
<path fill="none" stroke="#191970" d="M301.6496,-56.4554C270.9816,-46.149 230.7392,-32.6249 201.5892,-22.8286"/>
<polygon fill="#191970" stroke="#191970" points="202.3689,-19.3983 191.7749,-19.5303 200.139,-26.0336 202.3689,-19.3983"/>
</g>
<!-- Node10&#45;&gt;Node9 -->
<g id="edge14" class="edge">
<title>Node10&#45;&gt;Node9</title>
<path fill="none" stroke="#191970" d="M331.3377,-56.2977C322.5175,-47.4052 311.3623,-36.1586 302.2552,-26.9769"/>
<polygon fill="#191970" stroke="#191970" points="304.7104,-24.4821 295.1833,-19.8469 299.7405,-29.4116 304.7104,-24.4821"/>
</g>
</g>
</svg>
