<?xml version="1.0" encoding="UTF-8" standalone="no"?>
<!DOCTYPE svg PUBLIC "-//W3C//DTD SVG 1.1//EN"
 "http://www.w3.org/Graphics/SVG/1.1/DTD/svg11.dtd">
<!-- Generated by graphviz version 2.40.1 (20161225.0304)
 -->
<!-- Title: threshold.h Pages: 1 -->
<svg width="99pt" height="364pt"
 viewBox="0.00 0.00 99.00 364.00" xmlns="http://www.w3.org/2000/svg" xmlns:xlink="http://www.w3.org/1999/xlink">
<g id="graph0" class="graph" transform="scale(1 1) rotate(0) translate(4 360)">
<title>threshold.h</title>
<polygon fill="#ffffff" stroke="transparent" points="-4,4 -4,-360 95,-360 95,4 -4,4"/>
<!-- Node11 -->
<g id="node1" class="node">
<title>Node11</title>
<polygon fill="#bfbfbf" stroke="#000000" points="17.5,-336.5 17.5,-355.5 82.5,-355.5 82.5,-336.5 17.5,-336.5"/>
<text text-anchor="middle" x="50" y="-343.5" font-family="Helvetica,sans-Serif" font-size="10.00" fill="#000000">threshold.h</text>
</g>
<!-- Node12 -->
<g id="node2" class="node">
<title>Node12</title>
<g id="a_node2"><a xlink:href="api_2spec_2classification_8h.html" target="_top" xlink:title="ODP classification descriptor. ">
<polygon fill="#ffffff" stroke="#000000" points="9,-280.5 9,-299.5 91,-299.5 91,-280.5 9,-280.5"/>
<text text-anchor="middle" x="50" y="-287.5" font-family="Helvetica,sans-Serif" font-size="10.00" fill="#000000">classification.h</text>
</a>
</g>
</g>
<!-- Node11&#45;&gt;Node12 -->
<g id="edge1" class="edge">
<title>Node11&#45;&gt;Node12</title>
<path fill="none" stroke="#191970" d="M50,-326.1575C50,-317.155 50,-306.9199 50,-299.6427"/>
<polygon fill="#191970" stroke="#191970" points="46.5001,-326.2455 50,-336.2455 53.5001,-326.2456 46.5001,-326.2455"/>
</g>
<!-- Node13 -->
<g id="node3" class="node">
<title>Node13</title>
<g id="a_node3"><a xlink:href="api_2classification_8h.html" target="_top" xlink:title="ODP classification descriptor. ">
<polygon fill="#ffffff" stroke="#000000" points="9,-224.5 9,-243.5 91,-243.5 91,-224.5 9,-224.5"/>
<text text-anchor="middle" x="50" y="-231.5" font-family="Helvetica,sans-Serif" font-size="10.00" fill="#000000">classification.h</text>
</a>
</g>
</g>
<!-- Node12&#45;&gt;Node13 -->
<g id="edge2" class="edge">
<title>Node12&#45;&gt;Node13</title>
<path fill="none" stroke="#191970" d="M50,-270.1575C50,-261.155 50,-250.9199 50,-243.6427"/>
<polygon fill="#191970" stroke="#191970" points="46.5001,-270.2455 50,-280.2455 53.5001,-270.2456 46.5001,-270.2455"/>
</g>
<!-- Node14 -->
<g id="node4" class="node">
<title>Node14</title>
<g id="a_node4"><a xlink:href="api_2spec_2ipsec_8h.html" target="_top" xlink:title="ODP IPSEC API. ">
<polygon fill="#ffffff" stroke="#000000" points="0,-168.5 0,-187.5 48,-187.5 48,-168.5 0,-168.5"/>
<text text-anchor="middle" x="24" y="-175.5" font-family="Helvetica,sans-Serif" font-size="10.00" fill="#000000">ipsec.h</text>
</a>
</g>
</g>
<!-- Node13&#45;&gt;Node14 -->
<g id="edge3" class="edge">
<title>Node13&#45;&gt;Node14</title>
<path fill="none" stroke="#191970" d="M41.1989,-215.0437C36.9225,-205.8331 31.967,-195.1598 28.477,-187.6427"/>
<polygon fill="#191970" stroke="#191970" points="38.0854,-216.6494 45.4711,-224.2455 44.4345,-213.7015 38.0854,-216.6494"/>
</g>
<!-- Node16 -->
<g id="node6" class="node">
<title>Node16</title>
<g id="a_node6"><a xlink:href="odp__api_8h.html" target="_top" xlink:title="The OpenDataPlane API. ">
<polygon fill="#ffffff" stroke="#000000" points="20.5,-56.5 20.5,-75.5 79.5,-75.5 79.5,-56.5 20.5,-56.5"/>
<text text-anchor="middle" x="50" y="-63.5" font-family="Helvetica,sans-Serif" font-size="10.00" fill="#000000">odp_api.h</text>
</a>
</g>
</g>
<!-- Node13&#45;&gt;Node16 -->
<g id="edge7" class="edge">
<title>Node13&#45;&gt;Node16</title>
<path fill="none" stroke="#191970" d="M53.6817,-214.2065C55.0119,-206.1132 56.3464,-196.639 57,-188 59.5481,-154.3185 59.5481,-145.6815 57,-112 56.0494,-99.4342 53.658,-85.1014 51.9347,-75.8213"/>
<polygon fill="#191970" stroke="#191970" points="50.2128,-213.7247 51.9347,-224.1787 57.1078,-214.9326 50.2128,-213.7247"/>
</g>
<!-- Node15 -->
<g id="node5" class="node">
<title>Node15</title>
<g id="a_node5"><a xlink:href="api_2ipsec_8h.html" target="_top" xlink:title="ODP IPSEC API &#45; platform specific header. ">
<polygon fill="#ffffff" stroke="#000000" points="0,-112.5 0,-131.5 48,-131.5 48,-112.5 0,-112.5"/>
<text text-anchor="middle" x="24" y="-119.5" font-family="Helvetica,sans-Serif" font-size="10.00" fill="#000000">ipsec.h</text>
</a>
</g>
</g>
<!-- Node14&#45;&gt;Node15 -->
<g id="edge4" class="edge">
<title>Node14&#45;&gt;Node15</title>
<path fill="none" stroke="#191970" d="M24,-158.1575C24,-149.155 24,-138.9199 24,-131.6427"/>
<polygon fill="#191970" stroke="#191970" points="20.5001,-158.2455 24,-168.2455 27.5001,-158.2456 20.5001,-158.2455"/>
</g>
<!-- Node15&#45;&gt;Node16 -->
<g id="edge5" class="edge">
<title>Node15&#45;&gt;Node16</title>
<path fill="none" stroke="#191970" d="M32.8011,-103.0437C37.0775,-93.8331 42.033,-83.1598 45.523,-75.6427"/>
<polygon fill="#191970" stroke="#191970" points="29.5655,-101.7015 28.5289,-112.2455 35.9146,-104.6494 29.5655,-101.7015"/>
</g>
<!-- Node17 -->
<g id="node7" class="node">
<title>Node17</title>
<g id="a_node7"><a xlink:href="odp_8h.html" target="_top" xlink:title="WARNING: THIS FILE IS DEPRECATED AND WILL BE REMOVED!!! ODP APPLICATIONS SHOULD NOW INCLUDE odp_api...">
<polygon fill="#ffffff" stroke="#000000" points="29.5,-.5 29.5,-19.5 70.5,-19.5 70.5,-.5 29.5,-.5"/>
<text text-anchor="middle" x="50" y="-7.5" font-family="Helvetica,sans-Serif" font-size="10.00" fill="#000000">odp.h</text>
</a>
</g>
</g>
<!-- Node16&#45;&gt;Node17 -->
<g id="edge6" class="edge">
<title>Node16&#45;&gt;Node17</title>
<path fill="none" stroke="#191970" d="M50,-46.1575C50,-37.155 50,-26.9199 50,-19.6427"/>
<polygon fill="#191970" stroke="#191970" points="46.5001,-46.2455 50,-56.2455 53.5001,-46.2456 46.5001,-46.2455"/>
</g>
</g>
</svg>
