<?xml version="1.0" encoding="UTF-8" standalone="no"?>
<!DOCTYPE svg PUBLIC "-//W3C//DTD SVG 1.1//EN"
 "http://www.w3.org/Graphics/SVG/1.1/DTD/svg11.dtd">
<!-- Generated by graphviz version 2.40.1 (20161225.0304)
 -->
<!-- Title: rwlock_recursive.h Pages: 1 -->
<svg width="922pt" height="319pt"
 viewBox="0.00 0.00 922.00 319.00" xmlns="http://www.w3.org/2000/svg" xmlns:xlink="http://www.w3.org/1999/xlink">
<g id="graph0" class="graph" transform="scale(1 1) rotate(0) translate(4 315)">
<title>rwlock_recursive.h</title>
<polygon fill="#ffffff" stroke="transparent" points="-4,4 -4,-315 918,-315 918,4 -4,4"/>
<!-- Node0 -->
<g id="node1" class="node">
<title>Node0</title>
<polygon fill="#bfbfbf" stroke="#000000" points="365,-291.5 365,-310.5 463,-310.5 463,-291.5 365,-291.5"/>
<text text-anchor="middle" x="414" y="-298.5" font-family="Helvetica,sans-Serif" font-size="10.00" fill="#000000">rwlock_recursive.h</text>
</g>
<!-- Node1 -->
<g id="node2" class="node">
<title>Node1</title>
<g id="a_node2"><a xlink:href="rwlock_8h.html" target="_top" xlink:title="ODP RW Locks. ">
<polygon fill="#ffffff" stroke="#000000" points="134,-123.5 134,-142.5 222,-142.5 222,-123.5 134,-123.5"/>
<text text-anchor="middle" x="178" y="-130.5" font-family="Helvetica,sans-Serif" font-size="10.00" fill="#000000">odp/api/rwlock.h</text>
</a>
</g>
</g>
<!-- Node0&#45;&gt;Node1 -->
<g id="edge1" class="edge">
<title>Node0&#45;&gt;Node1</title>
<path fill="none" stroke="#191970" d="M400.6354,-291.4862C361.6225,-263.7144 247.6299,-182.5671 199.6652,-148.4227"/>
<polygon fill="#191970" stroke="#191970" points="201.687,-145.5657 191.5105,-142.6177 197.6274,-151.2683 201.687,-145.5657"/>
</g>
<!-- Node6 -->
<g id="node7" class="node">
<title>Node6</title>
<g id="a_node7"><a xlink:href="std__types_8h.html" target="_top" xlink:title="Standard C language types and definitions for ODP. ">
<polygon fill="#ffffff" stroke="#000000" points="363,-235.5 363,-254.5 465,-254.5 465,-235.5 363,-235.5"/>
<text text-anchor="middle" x="414" y="-242.5" font-family="Helvetica,sans-Serif" font-size="10.00" fill="#000000">odp/api/std_types.h</text>
</a>
</g>
</g>
<!-- Node0&#45;&gt;Node6 -->
<g id="edge6" class="edge">
<title>Node0&#45;&gt;Node6</title>
<path fill="none" stroke="#191970" d="M414,-291.2455C414,-283.9382 414,-273.6944 414,-264.7046"/>
<polygon fill="#191970" stroke="#191970" points="417.5001,-264.6426 414,-254.6427 410.5001,-264.6427 417.5001,-264.6426"/>
</g>
<!-- Node13 -->
<g id="node14" class="node">
<title>Node13</title>
<g id="a_node14"><a xlink:href="thread_8h.html" target="_top" xlink:title="ODP thread API. ">
<polygon fill="#ffffff" stroke="#000000" points="638,-123.5 638,-142.5 724,-142.5 724,-123.5 638,-123.5"/>
<text text-anchor="middle" x="681" y="-130.5" font-family="Helvetica,sans-Serif" font-size="10.00" fill="#000000">odp/api/thread.h</text>
</a>
</g>
</g>
<!-- Node0&#45;&gt;Node13 -->
<g id="edge17" class="edge">
<title>Node0&#45;&gt;Node13</title>
<path fill="none" stroke="#191970" d="M429.1201,-291.4862C473.4407,-263.5991 603.2955,-181.8927 657.1606,-148.0001"/>
<polygon fill="#191970" stroke="#191970" points="659.1148,-150.9057 665.7148,-142.6177 655.3869,-144.9809 659.1148,-150.9057"/>
</g>
<!-- Node2 -->
<g id="node3" class="node">
<title>Node2</title>
<polygon fill="#ffffff" stroke="#bfbfbf" points="0,-62 0,-81 104,-81 104,-62 0,-62"/>
<text text-anchor="middle" x="52" y="-69" font-family="Helvetica,sans-Serif" font-size="10.00" fill="#000000">odp/api/abi/rwlock.h</text>
</g>
<!-- Node1&#45;&gt;Node2 -->
<g id="edge2" class="edge">
<title>Node1&#45;&gt;Node2</title>
<path fill="none" stroke="#191970" d="M158.3125,-123.3906C137.5078,-113.2359 104.489,-97.1196 80.7681,-85.5416"/>
<polygon fill="#191970" stroke="#191970" points="82.0712,-82.283 71.5493,-81.0419 79.0007,-88.5736 82.0712,-82.283"/>
</g>
<!-- Node3 -->
<g id="node4" class="node">
<title>Node3</title>
<g id="a_node4"><a xlink:href="spec_2rwlock_8h.html" target="_top" xlink:title="ODP RW Locks. ">
<polygon fill="#ffffff" stroke="#000000" points="122,-62 122,-81 234,-81 234,-62 122,-62"/>
<text text-anchor="middle" x="178" y="-69" font-family="Helvetica,sans-Serif" font-size="10.00" fill="#000000">odp/api/spec/rwlock.h</text>
</a>
</g>
</g>
<!-- Node1&#45;&gt;Node3 -->
<g id="edge3" class="edge">
<title>Node1&#45;&gt;Node3</title>
<path fill="none" stroke="#191970" d="M178,-123.3906C178,-114.8657 178,-102.1392 178,-91.4235"/>
<polygon fill="#191970" stroke="#191970" points="181.5001,-91.2448 178,-81.2449 174.5001,-91.2449 181.5001,-91.2448"/>
</g>
<!-- Node4 -->
<g id="node5" class="node">
<title>Node4</title>
<polygon fill="#ffffff" stroke="#bfbfbf" points="426.5,-.5 426.5,-19.5 533.5,-19.5 533.5,-.5 426.5,-.5"/>
<text text-anchor="middle" x="480" y="-7.5" font-family="Helvetica,sans-Serif" font-size="10.00" fill="#000000">odp/visibility_begin.h</text>
</g>
<!-- Node3&#45;&gt;Node4 -->
<g id="edge4" class="edge">
<title>Node3&#45;&gt;Node4</title>
<path fill="none" stroke="#191970" d="M224.8561,-61.9581C278.3081,-51.073 365.706,-33.2751 423.0448,-21.5985"/>
<polygon fill="#191970" stroke="#191970" points="423.9335,-24.9894 433.0339,-19.5643 422.5366,-18.1302 423.9335,-24.9894"/>
</g>
<!-- Node5 -->
<g id="node6" class="node">
<title>Node5</title>
<polygon fill="#ffffff" stroke="#bfbfbf" points="252,-.5 252,-19.5 352,-19.5 352,-.5 252,-.5"/>
<text text-anchor="middle" x="302" y="-7.5" font-family="Helvetica,sans-Serif" font-size="10.00" fill="#000000">odp/visibility_end.h</text>
</g>
<!-- Node3&#45;&gt;Node5 -->
<g id="edge5" class="edge">
<title>Node3&#45;&gt;Node5</title>
<path fill="none" stroke="#191970" d="M197.375,-61.8906C217.8495,-51.7359 250.3442,-35.6196 273.6885,-24.0416"/>
<polygon fill="#191970" stroke="#191970" points="275.3575,-27.1207 282.7611,-19.5419 272.2472,-20.8496 275.3575,-27.1207"/>
</g>
<!-- Node7 -->
<g id="node8" class="node">
<title>Node7</title>
<polygon fill="#ffffff" stroke="#bfbfbf" points="425,-179.5 425,-198.5 543,-198.5 543,-179.5 425,-179.5"/>
<text text-anchor="middle" x="484" y="-186.5" font-family="Helvetica,sans-Serif" font-size="10.00" fill="#000000">odp/api/abi/std_types.h</text>
</g>
<!-- Node6&#45;&gt;Node7 -->
<g id="edge7" class="edge">
<title>Node6&#45;&gt;Node7</title>
<path fill="none" stroke="#191970" d="M426.1931,-235.2455C436.6321,-226.8943 451.8655,-214.7076 464.074,-204.9408"/>
<polygon fill="#191970" stroke="#191970" points="466.3244,-207.6227 471.9467,-198.6427 461.9515,-202.1566 466.3244,-207.6227"/>
</g>
<!-- Node8 -->
<g id="node9" class="node">
<title>Node8</title>
<g id="a_node9"><a xlink:href="spec_2std__types_8h.html" target="_top" xlink:title="Standard C language types and definitions for ODP. ">
<polygon fill="#ffffff" stroke="#000000" points="281,-179.5 281,-198.5 407,-198.5 407,-179.5 281,-179.5"/>
<text text-anchor="middle" x="344" y="-186.5" font-family="Helvetica,sans-Serif" font-size="10.00" fill="#000000">odp/api/spec/std_types.h</text>
</a>
</g>
</g>
<!-- Node6&#45;&gt;Node8 -->
<g id="edge8" class="edge">
<title>Node6&#45;&gt;Node8</title>
<path fill="none" stroke="#191970" d="M401.8069,-235.2455C391.3679,-226.8943 376.1345,-214.7076 363.926,-204.9408"/>
<polygon fill="#191970" stroke="#191970" points="366.0485,-202.1566 356.0533,-198.6427 361.6756,-207.6227 366.0485,-202.1566"/>
</g>
<!-- Node8&#45;&gt;Node4 -->
<g id="edge9" class="edge">
<title>Node8&#45;&gt;Node4</title>
<path fill="none" stroke="#191970" d="M387.3766,-179.4951C431.5607,-167.024 496.42,-140.1622 517,-87 521.9739,-74.1514 521.5777,-68.9951 517,-56 513.1691,-45.125 505.5598,-34.9246 498.2328,-26.9061"/>
<polygon fill="#191970" stroke="#191970" points="500.6466,-24.3686 491.1502,-19.6707 495.6443,-29.2652 500.6466,-24.3686"/>
</g>
<!-- Node8&#45;&gt;Node5 -->
<g id="edge16" class="edge">
<title>Node8&#45;&gt;Node5</title>
<path fill="none" stroke="#191970" d="M332.0372,-179.1617C322.2245,-170.5308 308.5957,-157.1742 300,-143 286.3716,-120.5271 285.2793,-112.9317 281,-87 278.7567,-73.4061 278.0722,-69.4631 281,-56 283.0425,-46.6079 287.1789,-36.8357 291.2447,-28.7264"/>
<polygon fill="#191970" stroke="#191970" points="294.3909,-30.2651 296.0235,-19.7968 288.2191,-26.9622 294.3909,-30.2651"/>
</g>
<!-- Node9 -->
<g id="node10" class="node">
<title>Node9</title>
<polygon fill="#ffffff" stroke="#bfbfbf" points="309.5,-123.5 309.5,-142.5 358.5,-142.5 358.5,-123.5 309.5,-123.5"/>
<text text-anchor="middle" x="334" y="-130.5" font-family="Helvetica,sans-Serif" font-size="10.00" fill="#000000">stdint.h</text>
</g>
<!-- Node8&#45;&gt;Node9 -->
<g id="edge10" class="edge">
<title>Node8&#45;&gt;Node9</title>
<path fill="none" stroke="#191970" d="M342.2581,-179.2455C340.9533,-171.9382 339.124,-161.6944 337.5187,-152.7046"/>
<polygon fill="#191970" stroke="#191970" points="340.9254,-151.8717 335.7219,-142.6427 334.0344,-153.1022 340.9254,-151.8717"/>
</g>
<!-- Node10 -->
<g id="node11" class="node">
<title>Node10</title>
<g id="a_node11"><a xlink:href="align_8h.html" target="_top" xlink:title="ODP alignments. ">
<polygon fill="#ffffff" stroke="#000000" points="377,-123.5 377,-142.5 457,-142.5 457,-123.5 377,-123.5"/>
<text text-anchor="middle" x="417" y="-130.5" font-family="Helvetica,sans-Serif" font-size="10.00" fill="#000000">odp/api/align.h</text>
</a>
</g>
</g>
<!-- Node8&#45;&gt;Node10 -->
<g id="edge11" class="edge">
<title>Node8&#45;&gt;Node10</title>
<path fill="none" stroke="#191970" d="M356.7156,-179.2455C367.602,-170.8943 383.4883,-158.7076 396.22,-148.9408"/>
<polygon fill="#191970" stroke="#191970" points="398.6261,-151.5063 404.4301,-142.6427 394.3654,-145.9523 398.6261,-151.5063"/>
</g>
<!-- Node11 -->
<g id="node12" class="node">
<title>Node11</title>
<polygon fill="#ffffff" stroke="#bfbfbf" points="412.5,-62 412.5,-81 507.5,-81 507.5,-62 412.5,-62"/>
<text text-anchor="middle" x="460" y="-69" font-family="Helvetica,sans-Serif" font-size="10.00" fill="#000000">odp/api/abi/align.h</text>
</g>
<!-- Node10&#45;&gt;Node11 -->
<g id="edge12" class="edge">
<title>Node10&#45;&gt;Node11</title>
<path fill="none" stroke="#191970" d="M423.7188,-123.3906C429.993,-114.417 439.5223,-100.7879 447.2404,-89.7491"/>
<polygon fill="#191970" stroke="#191970" points="450.3247,-91.4459 453.1865,-81.2449 444.5879,-87.4348 450.3247,-91.4459"/>
</g>
<!-- Node12 -->
<g id="node13" class="node">
<title>Node12</title>
<g id="a_node13"><a xlink:href="spec_2align_8h.html" target="_top" xlink:title="ODP alignments. ">
<polygon fill="#ffffff" stroke="#000000" points="290,-62 290,-81 394,-81 394,-62 290,-62"/>
<text text-anchor="middle" x="342" y="-69" font-family="Helvetica,sans-Serif" font-size="10.00" fill="#000000">odp/api/spec/align.h</text>
</a>
</g>
</g>
<!-- Node10&#45;&gt;Node12 -->
<g id="edge13" class="edge">
<title>Node10&#45;&gt;Node12</title>
<path fill="none" stroke="#191970" d="M405.2813,-123.3906C393.6812,-113.8786 375.7021,-99.1357 361.8679,-87.7917"/>
<polygon fill="#191970" stroke="#191970" points="363.836,-84.8792 353.884,-81.2449 359.3974,-90.2921 363.836,-84.8792"/>
</g>
<!-- Node12&#45;&gt;Node4 -->
<g id="edge14" class="edge">
<title>Node12&#45;&gt;Node4</title>
<path fill="none" stroke="#191970" d="M363.5625,-61.8906C386.5512,-51.6457 423.156,-35.3326 449.1824,-23.7339"/>
<polygon fill="#191970" stroke="#191970" points="450.8796,-26.8095 458.5889,-19.5419 448.0302,-20.4156 450.8796,-26.8095"/>
</g>
<!-- Node12&#45;&gt;Node5 -->
<g id="edge15" class="edge">
<title>Node12&#45;&gt;Node5</title>
<path fill="none" stroke="#191970" d="M335.75,-61.8906C329.9135,-52.917 321.0491,-39.2879 313.8694,-28.2491"/>
<polygon fill="#191970" stroke="#191970" points="316.7245,-26.2194 308.3381,-19.7449 310.8564,-30.0361 316.7245,-26.2194"/>
</g>
<!-- Node14 -->
<g id="node15" class="node">
<title>Node14</title>
<g id="a_node15"><a xlink:href="thread__types_8h.html" target="_top" xlink:title="ODP thread API types. ">
<polygon fill="#ffffff" stroke="#000000" points="692,-56.5 692,-86.5 794,-86.5 794,-56.5 692,-56.5"/>
<text text-anchor="start" x="700" y="-74.5" font-family="Helvetica,sans-Serif" font-size="10.00" fill="#000000">odp/api/spec/thread</text>
<text text-anchor="middle" x="743" y="-63.5" font-family="Helvetica,sans-Serif" font-size="10.00" fill="#000000">_types.h</text>
</a>
</g>
</g>
<!-- Node13&#45;&gt;Node14 -->
<g id="edge18" class="edge">
<title>Node13&#45;&gt;Node14</title>
<path fill="none" stroke="#191970" d="M690.6875,-123.3906C698.69,-115.4527 710.365,-103.8718 720.6563,-93.6635"/>
<polygon fill="#191970" stroke="#191970" points="723.1983,-96.0719 727.8331,-86.5446 718.2686,-91.1021 723.1983,-96.0719"/>
</g>
<!-- Node15 -->
<g id="node16" class="node">
<title>Node15</title>
<polygon fill="#ffffff" stroke="#bfbfbf" points="812,-62 812,-81 914,-81 914,-62 812,-62"/>
<text text-anchor="middle" x="863" y="-69" font-family="Helvetica,sans-Serif" font-size="10.00" fill="#000000">odp/api/abi/thread.h</text>
</g>
<!-- Node13&#45;&gt;Node15 -->
<g id="edge19" class="edge">
<title>Node13&#45;&gt;Node15</title>
<path fill="none" stroke="#191970" d="M709.4375,-123.3906C740.5572,-112.8749 790.5964,-95.966 825.0485,-84.3243"/>
<polygon fill="#191970" stroke="#191970" points="826.4089,-87.5591 834.7622,-81.0419 824.168,-80.9274 826.4089,-87.5591"/>
</g>
<!-- Node16 -->
<g id="node17" class="node">
<title>Node16</title>
<g id="a_node17"><a xlink:href="spec_2thread_8h.html" target="_top" xlink:title="ODP thread API. ">
<polygon fill="#ffffff" stroke="#000000" points="564,-62 564,-81 674,-81 674,-62 564,-62"/>
<text text-anchor="middle" x="619" y="-69" font-family="Helvetica,sans-Serif" font-size="10.00" fill="#000000">odp/api/spec/thread.h</text>
</a>
</g>
</g>
<!-- Node13&#45;&gt;Node16 -->
<g id="edge20" class="edge">
<title>Node13&#45;&gt;Node16</title>
<path fill="none" stroke="#191970" d="M671.3125,-123.3906C661.9041,-114.0581 647.4193,-99.6902 636.0751,-88.4374"/>
<polygon fill="#191970" stroke="#191970" points="638.3886,-85.8024 628.8241,-81.2449 633.4589,-90.7722 638.3886,-85.8024"/>
</g>
<!-- Node16&#45;&gt;Node4 -->
<g id="edge21" class="edge">
<title>Node16&#45;&gt;Node4</title>
<path fill="none" stroke="#191970" d="M597.2813,-61.8906C574.126,-51.6457 537.2559,-35.3326 511.0409,-23.7339"/>
<polygon fill="#191970" stroke="#191970" points="512.1273,-20.3874 501.5662,-19.5419 509.295,-26.7888 512.1273,-20.3874"/>
</g>
<!-- Node16&#45;&gt;Node5 -->
<g id="edge22" class="edge">
<title>Node16&#45;&gt;Node5</title>
<path fill="none" stroke="#191970" d="M569.8166,-61.9581C513.5114,-51.0345 421.3217,-33.1492 361.147,-21.4749"/>
<polygon fill="#191970" stroke="#191970" points="361.5216,-17.9824 351.038,-19.5137 360.1883,-24.8542 361.5216,-17.9824"/>
</g>
</g>
</svg>
