<?xml version="1.0" encoding="UTF-8" standalone="no"?>
<!DOCTYPE svg PUBLIC "-//W3C//DTD SVG 1.1//EN"
 "http://www.w3.org/Graphics/SVG/1.1/DTD/svg11.dtd">
<!-- Generated by graphviz version 2.40.1 (20161225.0304)
 -->
<!-- Title: spinlock_recursive.h Pages: 1 -->
<svg width="544pt" height="308pt"
 viewBox="0.00 0.00 543.52 308.00" xmlns="http://www.w3.org/2000/svg" xmlns:xlink="http://www.w3.org/1999/xlink">
<g id="graph0" class="graph" transform="scale(1 1) rotate(0) translate(4 304)">
<title>spinlock_recursive.h</title>
<polygon fill="#ffffff" stroke="transparent" points="-4,4 -4,-304 539.5174,-304 539.5174,4 -4,4"/>
<!-- Node0 -->
<g id="node1" class="node">
<title>Node0</title>
<polygon fill="#bfbfbf" stroke="#000000" points="80.5,-280.5 80.5,-299.5 186.5,-299.5 186.5,-280.5 80.5,-280.5"/>
<text text-anchor="middle" x="133.5" y="-287.5" font-family="Helvetica,sans-Serif" font-size="10.00" fill="#000000">spinlock_recursive.h</text>
</g>
<!-- Node1 -->
<g id="node2" class="node">
<title>Node1</title>
<g id="a_node2"><a xlink:href="spinlock_8h.html" target="_top" xlink:title="ODP spinlock. ">
<polygon fill="#ffffff" stroke="#000000" points="43,-112.5 43,-131.5 138,-131.5 138,-112.5 43,-112.5"/>
<text text-anchor="middle" x="90.5" y="-119.5" font-family="Helvetica,sans-Serif" font-size="10.00" fill="#000000">odp/api/spinlock.h</text>
</a>
</g>
</g>
<!-- Node0&#45;&gt;Node1 -->
<g id="edge1" class="edge">
<title>Node0&#45;&gt;Node1</title>
<path fill="none" stroke="#191970" d="M129.7301,-280.2356C126.2523,-270.9958 121.0979,-256.6903 117.5,-244 107.3858,-208.3262 98.741,-165.9013 94.1124,-141.6446"/>
<polygon fill="#191970" stroke="#191970" points="97.5093,-140.7692 92.2256,-131.5859 90.6293,-142.0598 97.5093,-140.7692"/>
</g>
<!-- Node6 -->
<g id="node7" class="node">
<title>Node6</title>
<g id="a_node7"><a xlink:href="std__types_8h.html" target="_top" xlink:title="Standard C language types and definitions for ODP. ">
<polygon fill="#ffffff" stroke="#000000" points="126.5,-224.5 126.5,-243.5 228.5,-243.5 228.5,-224.5 126.5,-224.5"/>
<text text-anchor="middle" x="177.5" y="-231.5" font-family="Helvetica,sans-Serif" font-size="10.00" fill="#000000">odp/api/std_types.h</text>
</a>
</g>
</g>
<!-- Node0&#45;&gt;Node6 -->
<g id="edge6" class="edge">
<title>Node0&#45;&gt;Node6</title>
<path fill="none" stroke="#191970" d="M141.1642,-280.2455C147.3473,-272.3761 156.2063,-261.101 163.6289,-251.6542"/>
<polygon fill="#191970" stroke="#191970" points="166.4975,-253.6683 169.9236,-243.6427 160.9932,-249.3435 166.4975,-253.6683"/>
</g>
<!-- Node2 -->
<g id="node3" class="node">
<title>Node2</title>
<polygon fill="#ffffff" stroke="#bfbfbf" points="0,-56.5 0,-75.5 111,-75.5 111,-56.5 0,-56.5"/>
<text text-anchor="middle" x="55.5" y="-63.5" font-family="Helvetica,sans-Serif" font-size="10.00" fill="#000000">odp/api/abi/spinlock.h</text>
</g>
<!-- Node1&#45;&gt;Node2 -->
<g id="edge2" class="edge">
<title>Node1&#45;&gt;Node2</title>
<path fill="none" stroke="#191970" d="M84.4035,-112.2455C79.5855,-104.5367 72.7249,-93.5598 66.8968,-84.2348"/>
<polygon fill="#191970" stroke="#191970" points="69.7947,-82.2677 61.5267,-75.6427 63.8587,-85.9777 69.7947,-82.2677"/>
</g>
<!-- Node3 -->
<g id="node4" class="node">
<title>Node3</title>
<g id="a_node4"><a xlink:href="spec_2spinlock_8h.html" target="_top" xlink:title="ODP spinlock. ">
<polygon fill="#ffffff" stroke="#000000" points="129,-56.5 129,-75.5 248,-75.5 248,-56.5 129,-56.5"/>
<text text-anchor="middle" x="188.5" y="-63.5" font-family="Helvetica,sans-Serif" font-size="10.00" fill="#000000">odp/api/spec/spinlock.h</text>
</a>
</g>
</g>
<!-- Node1&#45;&gt;Node3 -->
<g id="edge3" class="edge">
<title>Node1&#45;&gt;Node3</title>
<path fill="none" stroke="#191970" d="M107.5703,-112.2455C122.747,-103.5731 145.1621,-90.7645 162.5563,-80.825"/>
<polygon fill="#191970" stroke="#191970" points="164.6794,-83.643 171.6253,-75.6427 161.2064,-77.5653 164.6794,-83.643"/>
</g>
<!-- Node4 -->
<g id="node5" class="node">
<title>Node4</title>
<polygon fill="#ffffff" stroke="#bfbfbf" points="417,-.5 417,-19.5 524,-19.5 524,-.5 417,-.5"/>
<text text-anchor="middle" x="470.5" y="-7.5" font-family="Helvetica,sans-Serif" font-size="10.00" fill="#000000">odp/visibility_begin.h</text>
</g>
<!-- Node3&#45;&gt;Node4 -->
<g id="edge4" class="edge">
<title>Node3&#45;&gt;Node4</title>
<path fill="none" stroke="#191970" d="M236.6571,-56.4369C285.3248,-46.7724 360.5575,-31.8326 412.4821,-21.5213"/>
<polygon fill="#191970" stroke="#191970" points="413.4148,-24.9045 422.5415,-19.5237 412.0513,-18.0386 413.4148,-24.9045"/>
</g>
<!-- Node5 -->
<g id="node6" class="node">
<title>Node5</title>
<polygon fill="#ffffff" stroke="#bfbfbf" points="226.5,-.5 226.5,-19.5 326.5,-19.5 326.5,-.5 226.5,-.5"/>
<text text-anchor="middle" x="276.5" y="-7.5" font-family="Helvetica,sans-Serif" font-size="10.00" fill="#000000">odp/visibility_end.h</text>
</g>
<!-- Node3&#45;&gt;Node5 -->
<g id="edge5" class="edge">
<title>Node3&#45;&gt;Node5</title>
<path fill="none" stroke="#191970" d="M203.8284,-56.2455C217.3303,-47.6534 237.2122,-35.0014 252.7686,-25.1018"/>
<polygon fill="#191970" stroke="#191970" points="254.7897,-27.9643 261.3472,-19.6427 251.0315,-22.0587 254.7897,-27.9643"/>
</g>
<!-- Node7 -->
<g id="node8" class="node">
<title>Node7</title>
<polygon fill="#ffffff" stroke="#bfbfbf" points="118.5,-168.5 118.5,-187.5 236.5,-187.5 236.5,-168.5 118.5,-168.5"/>
<text text-anchor="middle" x="177.5" y="-175.5" font-family="Helvetica,sans-Serif" font-size="10.00" fill="#000000">odp/api/abi/std_types.h</text>
</g>
<!-- Node6&#45;&gt;Node7 -->
<g id="edge7" class="edge">
<title>Node6&#45;&gt;Node7</title>
<path fill="none" stroke="#191970" d="M177.5,-224.2455C177.5,-216.9382 177.5,-206.6944 177.5,-197.7046"/>
<polygon fill="#191970" stroke="#191970" points="181.0001,-197.6426 177.5,-187.6427 174.0001,-197.6427 181.0001,-197.6426"/>
</g>
<!-- Node8 -->
<g id="node9" class="node">
<title>Node8</title>
<g id="a_node9"><a xlink:href="spec_2std__types_8h.html" target="_top" xlink:title="Standard C language types and definitions for ODP. ">
<polygon fill="#ffffff" stroke="#000000" points="254.5,-168.5 254.5,-187.5 380.5,-187.5 380.5,-168.5 254.5,-168.5"/>
<text text-anchor="middle" x="317.5" y="-175.5" font-family="Helvetica,sans-Serif" font-size="10.00" fill="#000000">odp/api/spec/std_types.h</text>
</a>
</g>
</g>
<!-- Node6&#45;&gt;Node8 -->
<g id="edge8" class="edge">
<title>Node6&#45;&gt;Node8</title>
<path fill="none" stroke="#191970" d="M201.5669,-224.3733C224.3428,-215.2629 258.7344,-201.5062 284.149,-191.3404"/>
<polygon fill="#191970" stroke="#191970" points="285.7623,-194.4648 293.7472,-187.5011 283.1625,-187.9654 285.7623,-194.4648"/>
</g>
<!-- Node8&#45;&gt;Node4 -->
<g id="edge9" class="edge">
<title>Node8&#45;&gt;Node4</title>
<path fill="none" stroke="#191970" d="M373.7741,-168.4371C424.7998,-156.4611 497.1218,-130.4694 531.5,-76 543.9603,-56.2576 521.0171,-37.0469 499.7986,-24.4904"/>
<polygon fill="#191970" stroke="#191970" points="501.3566,-21.3518 490.9188,-19.5344 497.9451,-27.4642 501.3566,-21.3518"/>
</g>
<!-- Node8&#45;&gt;Node5 -->
<g id="edge16" class="edge">
<title>Node8&#45;&gt;Node5</title>
<path fill="none" stroke="#191970" d="M314.2733,-168.1925C311.281,-158.9222 306.8053,-144.5961 303.5,-132 294.0886,-96.1344 285.2081,-53.7738 280.3452,-29.581"/>
<polygon fill="#191970" stroke="#191970" points="283.7341,-28.6771 278.351,-19.5517 276.8685,-30.0423 283.7341,-28.6771"/>
</g>
<!-- Node9 -->
<g id="node10" class="node">
<title>Node9</title>
<polygon fill="#ffffff" stroke="#bfbfbf" points="199,-112.5 199,-131.5 248,-131.5 248,-112.5 199,-112.5"/>
<text text-anchor="middle" x="223.5" y="-119.5" font-family="Helvetica,sans-Serif" font-size="10.00" fill="#000000">stdint.h</text>
</g>
<!-- Node8&#45;&gt;Node9 -->
<g id="edge10" class="edge">
<title>Node8&#45;&gt;Node9</title>
<path fill="none" stroke="#191970" d="M301.1264,-168.2455C286.5692,-159.5731 265.069,-146.7645 248.3848,-136.825"/>
<polygon fill="#191970" stroke="#191970" points="250.0683,-133.7539 239.6859,-131.6427 246.4856,-139.7676 250.0683,-133.7539"/>
</g>
<!-- Node10 -->
<g id="node11" class="node">
<title>Node10</title>
<g id="a_node11"><a xlink:href="align_8h.html" target="_top" xlink:title="ODP alignments. ">
<polygon fill="#ffffff" stroke="#000000" points="312.5,-112.5 312.5,-131.5 392.5,-131.5 392.5,-112.5 312.5,-112.5"/>
<text text-anchor="middle" x="352.5" y="-119.5" font-family="Helvetica,sans-Serif" font-size="10.00" fill="#000000">odp/api/align.h</text>
</a>
</g>
</g>
<!-- Node8&#45;&gt;Node10 -->
<g id="edge11" class="edge">
<title>Node8&#45;&gt;Node10</title>
<path fill="none" stroke="#191970" d="M323.5965,-168.2455C328.4145,-160.5367 335.2751,-149.5598 341.1032,-140.2348"/>
<polygon fill="#191970" stroke="#191970" points="344.1413,-141.9777 346.4733,-131.6427 338.2053,-138.2677 344.1413,-141.9777"/>
</g>
<!-- Node11 -->
<g id="node12" class="node">
<title>Node11</title>
<polygon fill="#ffffff" stroke="#bfbfbf" points="305,-56.5 305,-75.5 400,-75.5 400,-56.5 305,-56.5"/>
<text text-anchor="middle" x="352.5" y="-63.5" font-family="Helvetica,sans-Serif" font-size="10.00" fill="#000000">odp/api/abi/align.h</text>
</g>
<!-- Node10&#45;&gt;Node11 -->
<g id="edge12" class="edge">
<title>Node10&#45;&gt;Node11</title>
<path fill="none" stroke="#191970" d="M352.5,-112.2455C352.5,-104.9382 352.5,-94.6944 352.5,-85.7046"/>
<polygon fill="#191970" stroke="#191970" points="356.0001,-85.6426 352.5,-75.6427 349.0001,-85.6427 356.0001,-85.6426"/>
</g>
<!-- Node12 -->
<g id="node13" class="node">
<title>Node12</title>
<g id="a_node13"><a xlink:href="spec_2align_8h.html" target="_top" xlink:title="ODP alignments. ">
<polygon fill="#ffffff" stroke="#000000" points="418.5,-56.5 418.5,-75.5 522.5,-75.5 522.5,-56.5 418.5,-56.5"/>
<text text-anchor="middle" x="470.5" y="-63.5" font-family="Helvetica,sans-Serif" font-size="10.00" fill="#000000">odp/api/spec/align.h</text>
</a>
</g>
</g>
<!-- Node10&#45;&gt;Node12 -->
<g id="edge13" class="edge">
<title>Node10&#45;&gt;Node12</title>
<path fill="none" stroke="#191970" d="M372.7849,-112.3733C391.6421,-103.4241 419.946,-89.9917 441.2455,-79.8835"/>
<polygon fill="#191970" stroke="#191970" points="442.9461,-82.9506 450.4798,-75.5011 439.9449,-76.6266 442.9461,-82.9506"/>
</g>
<!-- Node12&#45;&gt;Node4 -->
<g id="edge14" class="edge">
<title>Node12&#45;&gt;Node4</title>
<path fill="none" stroke="#191970" d="M470.5,-56.2455C470.5,-48.9382 470.5,-38.6944 470.5,-29.7046"/>
<polygon fill="#191970" stroke="#191970" points="474.0001,-29.6426 470.5,-19.6427 467.0001,-29.6427 474.0001,-29.6426"/>
</g>
<!-- Node12&#45;&gt;Node5 -->
<g id="edge15" class="edge">
<title>Node12&#45;&gt;Node5</title>
<path fill="none" stroke="#191970" d="M437.1502,-56.3733C404.472,-46.9404 354.5382,-32.5265 319.023,-22.2747"/>
<polygon fill="#191970" stroke="#191970" points="319.993,-18.9119 309.4146,-19.5011 318.0516,-25.6373 319.993,-18.9119"/>
</g>
</g>
</svg>
