<?xml version="1.0" encoding="UTF-8" standalone="no"?>
<!DOCTYPE svg PUBLIC "-//W3C//DTD SVG 1.1//EN"
 "http://www.w3.org/Graphics/SVG/1.1/DTD/svg11.dtd">
<!-- Generated by graphviz version 2.40.1 (20161225.0304)
 -->
<!-- Title: align.h Pages: 1 -->
<svg width="2370pt" height="476pt"
 viewBox="0.00 0.00 2370.00 476.00" xmlns="http://www.w3.org/2000/svg" xmlns:xlink="http://www.w3.org/1999/xlink">
<g id="graph0" class="graph" transform="scale(1 1) rotate(0) translate(4 472)">
<title>align.h</title>
<polygon fill="#ffffff" stroke="transparent" points="-4,4 -4,-472 2366,-472 2366,4 -4,4"/>
<!-- Node5 -->
<g id="node1" class="node">
<title>Node5</title>
<polygon fill="#bfbfbf" stroke="#000000" points="113.5,-448.5 113.5,-467.5 158.5,-467.5 158.5,-448.5 113.5,-448.5"/>
<text text-anchor="middle" x="136" y="-455.5" font-family="Helvetica,sans-Serif" font-size="10.00" fill="#000000">align.h</text>
</g>
<!-- Node6 -->
<g id="node2" class="node">
<title>Node6</title>
<g id="a_node2"><a xlink:href="abi-default_2atomic_8h.html" target="_top" xlink:title="ODP atomic operations. ">
<polygon fill="#ffffff" stroke="#000000" points="0,-280.5 0,-299.5 54,-299.5 54,-280.5 0,-280.5"/>
<text text-anchor="middle" x="27" y="-287.5" font-family="Helvetica,sans-Serif" font-size="10.00" fill="#000000">atomic.h</text>
</a>
</g>
</g>
<!-- Node5&#45;&gt;Node6 -->
<g id="edge1" class="edge">
<title>Node5&#45;&gt;Node6</title>
<path fill="none" stroke="#191970" d="M124.0919,-439.6463C101.051,-404.1336 51.0808,-327.1154 33.3764,-299.8279"/>
<polygon fill="#191970" stroke="#191970" points="121.4483,-442.0022 129.8274,-448.4862 127.3206,-438.1922 121.4483,-442.0022"/>
</g>
<!-- Node7 -->
<g id="node3" class="node">
<title>Node7</title>
<g id="a_node3"><a xlink:href="abi-default_2cpumask_8h.html" target="_top" xlink:title="ODP CPU masks and enumeration. ">
<polygon fill="#ffffff" stroke="#000000" points="72.5,-280.5 72.5,-299.5 137.5,-299.5 137.5,-280.5 72.5,-280.5"/>
<text text-anchor="middle" x="105" y="-287.5" font-family="Helvetica,sans-Serif" font-size="10.00" fill="#000000">cpumask.h</text>
</a>
</g>
</g>
<!-- Node5&#45;&gt;Node7 -->
<g id="edge2" class="edge">
<title>Node5&#45;&gt;Node7</title>
<path fill="none" stroke="#191970" d="M130.4517,-438.5097C128.2532,-430.3609 125.821,-420.7652 124,-412 115.3667,-370.4443 108.7221,-320.189 106.1545,-299.5501"/>
<polygon fill="#191970" stroke="#191970" points="127.0928,-439.495 133.1362,-448.1971 133.8385,-437.6256 127.0928,-439.495"/>
</g>
<!-- Node8 -->
<g id="node4" class="node">
<title>Node8</title>
<g id="a_node4"><a xlink:href="spec_2std__types_8h.html" target="_top" xlink:title="Standard C language types and definitions for ODP. ">
<polygon fill="#ffffff" stroke="#000000" points="133,-392.5 133,-411.5 201,-411.5 201,-392.5 133,-392.5"/>
<text text-anchor="middle" x="167" y="-399.5" font-family="Helvetica,sans-Serif" font-size="10.00" fill="#000000">std_types.h</text>
</a>
</g>
</g>
<!-- Node5&#45;&gt;Node8 -->
<g id="edge3" class="edge">
<title>Node5&#45;&gt;Node8</title>
<path fill="none" stroke="#191970" d="M146.3312,-439.3372C151.4665,-430.0605 157.4566,-419.2398 161.6621,-411.6427"/>
<polygon fill="#191970" stroke="#191970" points="143.1809,-437.8015 141.3998,-448.2455 149.3051,-441.1917 143.1809,-437.8015"/>
</g>
<!-- Node69 -->
<g id="node50" class="node">
<title>Node69</title>
<g id="a_node50"><a xlink:href="time__inlines_8h_source.html" target="_top" xlink:title="time_inlines.h">
<polygon fill="#ffffff" stroke="#000000" points="219.5,-392.5 219.5,-411.5 296.5,-411.5 296.5,-392.5 219.5,-392.5"/>
<text text-anchor="middle" x="258" y="-399.5" font-family="Helvetica,sans-Serif" font-size="10.00" fill="#000000">time_inlines.h</text>
</a>
</g>
</g>
<!-- Node5&#45;&gt;Node69 -->
<g id="edge63" class="edge">
<title>Node5&#45;&gt;Node69</title>
<path fill="none" stroke="#191970" d="M166.2584,-444.1109C188.3819,-433.9559 217.8094,-420.4482 237.3011,-411.5011"/>
<polygon fill="#191970" stroke="#191970" points="164.6007,-441.0206 156.9725,-448.3733 167.521,-447.3824 164.6007,-441.0206"/>
</g>
<!-- Node9 -->
<g id="node5" class="node">
<title>Node9</title>
<g id="a_node5"><a xlink:href="std__types_8h.html" target="_top" xlink:title="Standard C language types and definitions for ODP. ">
<polygon fill="#ffffff" stroke="#000000" points="1034,-336.5 1034,-355.5 1102,-355.5 1102,-336.5 1034,-336.5"/>
<text text-anchor="middle" x="1068" y="-343.5" font-family="Helvetica,sans-Serif" font-size="10.00" fill="#000000">std_types.h</text>
</a>
</g>
</g>
<!-- Node8&#45;&gt;Node9 -->
<g id="edge4" class="edge">
<title>Node8&#45;&gt;Node9</title>
<path fill="none" stroke="#191970" d="M211.1085,-392.1198C392.617,-368.1607 897.8048,-351.2634 1033.8951,-347.0305"/>
<polygon fill="#191970" stroke="#191970" points="210.5961,-388.6572 201.1657,-393.4862 211.5492,-395.5921 210.5961,-388.6572"/>
</g>
<!-- Node9&#45;&gt;Node6 -->
<g id="edge5" class="edge">
<title>Node9&#45;&gt;Node6</title>
<path fill="none" stroke="#191970" d="M1023.8636,-345.301C855.3108,-342.4267 252.2124,-330.2134 63,-300 60.1816,-299.55 57.2685,-298.9592 54.3766,-298.2894"/>
<polygon fill="#191970" stroke="#191970" points="1023.814,-348.8006 1033.8714,-345.4693 1023.9318,-341.8016 1023.814,-348.8006"/>
</g>
<!-- Node9&#45;&gt;Node7 -->
<g id="edge8" class="edge">
<title>Node9&#45;&gt;Node7</title>
<path fill="none" stroke="#191970" d="M1023.4738,-344.8617C863.6645,-340.6068 319.3574,-324.6096 147,-300 144.0319,-299.5762 140.9659,-299.0407 137.9052,-298.4388"/>
<polygon fill="#191970" stroke="#191970" points="1023.7825,-348.371 1033.8714,-345.1363 1023.9674,-341.3734 1023.7825,-348.371"/>
</g>
<!-- Node10 -->
<g id="node6" class="node">
<title>Node10</title>
<g id="a_node6"><a xlink:href="abi-default_2barrier_8h.html" target="_top" xlink:title="ODP barrier. ">
<polygon fill="#ffffff" stroke="#000000" points="1902,-280.5 1902,-299.5 1954,-299.5 1954,-280.5 1902,-280.5"/>
<text text-anchor="middle" x="1928" y="-287.5" font-family="Helvetica,sans-Serif" font-size="10.00" fill="#000000">barrier.h</text>
</a>
</g>
</g>
<!-- Node9&#45;&gt;Node10 -->
<g id="edge6" class="edge">
<title>Node9&#45;&gt;Node10</title>
<path fill="none" stroke="#191970" d="M1112.3144,-344.8299C1260.9093,-340.7027 1740.7,-325.6732 1893,-300 1895.8665,-299.5168 1898.833,-298.8844 1901.7709,-298.1719"/>
<polygon fill="#191970" stroke="#191970" points="1112.097,-341.3345 1102.197,-345.1082 1112.2895,-348.3318 1112.097,-341.3345"/>
</g>
<!-- Node11 -->
<g id="node7" class="node">
<title>Node11</title>
<g id="a_node7"><a xlink:href="abi-default_2byteorder_8h.html" target="_top" xlink:title="ODP byteorder. ">
<polygon fill="#ffffff" stroke="#000000" points="1972.5,-280.5 1972.5,-299.5 2037.5,-299.5 2037.5,-280.5 1972.5,-280.5"/>
<text text-anchor="middle" x="2005" y="-287.5" font-family="Helvetica,sans-Serif" font-size="10.00" fill="#000000">byteorder.h</text>
</a>
</g>
</g>
<!-- Node9&#45;&gt;Node11 -->
<g id="edge7" class="edge">
<title>Node9&#45;&gt;Node11</title>
<path fill="none" stroke="#191970" d="M1112.3222,-344.7931C1268.944,-340.3611 1795.8897,-323.9838 1963,-300 1965.9678,-299.5741 1969.0335,-299.0371 1972.0942,-298.4342"/>
<polygon fill="#191970" stroke="#191970" points="1112.0192,-341.3002 1102.1215,-345.0796 1112.2158,-348.2974 1112.0192,-341.3002"/>
</g>
<!-- Node12 -->
<g id="node8" class="node">
<title>Node12</title>
<g id="a_node8"><a xlink:href="abi-default_2init_8h.html" target="_top" xlink:title="ODP initialization. ">
<polygon fill="#ffffff" stroke="#000000" points="2056,-280.5 2056,-299.5 2094,-299.5 2094,-280.5 2056,-280.5"/>
<text text-anchor="middle" x="2075" y="-287.5" font-family="Helvetica,sans-Serif" font-size="10.00" fill="#000000">init.h</text>
</a>
</g>
</g>
<!-- Node9&#45;&gt;Node12 -->
<g id="edge9" class="edge">
<title>Node9&#45;&gt;Node12</title>
<path fill="none" stroke="#191970" d="M1112.3937,-345.6535C1278.6657,-344.086 1864.3632,-336.0703 2047,-300 2049.9371,-299.4199 2052.9806,-298.5894 2055.9315,-297.6517"/>
<polygon fill="#191970" stroke="#191970" points="1112.0246,-342.1566 1102.0569,-345.7476 1112.0884,-349.1563 1112.0246,-342.1566"/>
</g>
<!-- Node13 -->
<g id="node9" class="node">
<title>Node13</title>
<g id="a_node9"><a xlink:href="abi-default_2ipsec_8h.html" target="_top" xlink:title="ODP IPSEC API &#45; platform specific types. ">
<polygon fill="#ffffff" stroke="#000000" points="2112,-280.5 2112,-299.5 2160,-299.5 2160,-280.5 2112,-280.5"/>
<text text-anchor="middle" x="2136" y="-287.5" font-family="Helvetica,sans-Serif" font-size="10.00" fill="#000000">ipsec.h</text>
</a>
</g>
</g>
<!-- Node9&#45;&gt;Node13 -->
<g id="edge10" class="edge">
<title>Node9&#45;&gt;Node13</title>
<path fill="none" stroke="#191970" d="M1112.32,-345.5018C1284.3664,-343.3399 1908.0703,-333.3255 2103,-300 2105.8324,-299.5158 2108.7628,-298.8616 2111.6549,-298.1181"/>
<polygon fill="#191970" stroke="#191970" points="1112.0717,-342.0045 1102.1156,-345.6274 1112.1579,-349.004 1112.0717,-342.0045"/>
</g>
<!-- Node14 -->
<g id="node10" class="node">
<title>Node14</title>
<g id="a_node10"><a xlink:href="abi-default_2packet__io_8h.html" target="_top" xlink:title="ODP Packet IO. ">
<polygon fill="#ffffff" stroke="#000000" points="2178.5,-280.5 2178.5,-299.5 2245.5,-299.5 2245.5,-280.5 2178.5,-280.5"/>
<text text-anchor="middle" x="2212" y="-287.5" font-family="Helvetica,sans-Serif" font-size="10.00" fill="#000000">packet_io.h</text>
</a>
</g>
</g>
<!-- Node9&#45;&gt;Node14 -->
<g id="edge11" class="edge">
<title>Node9&#45;&gt;Node14</title>
<path fill="none" stroke="#191970" d="M1112.1339,-345.2567C1290.618,-342.0807 1959.4359,-328.4912 2169,-300 2172.0379,-299.587 2175.1762,-299.0589 2178.3094,-298.4618"/>
<polygon fill="#191970" stroke="#191970" points="1111.9956,-341.7585 1102.0588,-345.4342 1112.1189,-348.7574 1111.9956,-341.7585"/>
</g>
<!-- Node15 -->
<g id="node11" class="node">
<title>Node15</title>
<g id="a_node11"><a xlink:href="abi-default_2rwlock__recursive_8h.html" target="_top" xlink:title="ODP recursive read/write lock. ">
<polygon fill="#ffffff" stroke="#000000" points="2264,-280.5 2264,-299.5 2362,-299.5 2362,-280.5 2264,-280.5"/>
<text text-anchor="middle" x="2313" y="-287.5" font-family="Helvetica,sans-Serif" font-size="10.00" fill="#000000">rwlock_recursive.h</text>
</a>
</g>
</g>
<!-- Node9&#45;&gt;Node15 -->
<g id="edge12" class="edge">
<title>Node9&#45;&gt;Node15</title>
<path fill="none" stroke="#191970" d="M1112.1389,-345.0709C1299.1394,-341.0139 2026.9071,-323.9769 2255,-300 2257.8454,-299.7009 2260.7622,-299.3476 2263.7007,-298.9555"/>
<polygon fill="#191970" stroke="#191970" points="1112.042,-341.572 1102.1198,-345.287 1112.193,-348.5704 1112.042,-341.572"/>
</g>
<!-- Node16 -->
<g id="node12" class="node">
<title>Node16</title>
<g id="a_node12"><a xlink:href="abi-default_2schedule_8h.html" target="_top" xlink:title="ODP schedule. ">
<polygon fill="#ffffff" stroke="#000000" points="156,-280.5 156,-299.5 220,-299.5 220,-280.5 156,-280.5"/>
<text text-anchor="middle" x="188" y="-287.5" font-family="Helvetica,sans-Serif" font-size="10.00" fill="#000000">schedule.h</text>
</a>
</g>
</g>
<!-- Node9&#45;&gt;Node16 -->
<g id="edge13" class="edge">
<title>Node9&#45;&gt;Node16</title>
<path fill="none" stroke="#191970" d="M1023.4824,-344.6441C873.0767,-339.8932 384.5437,-323.0314 229,-300 226.1009,-299.5707 223.1068,-299.0315 220.1182,-298.4271"/>
<polygon fill="#191970" stroke="#191970" points="1023.6133,-348.1498 1033.7181,-344.9652 1023.8328,-341.1533 1023.6133,-348.1498"/>
</g>
<!-- Node17 -->
<g id="node13" class="node">
<title>Node17</title>
<g id="a_node13"><a xlink:href="abi-default_2spinlock__recursive_8h.html" target="_top" xlink:title="ODP recursive spinlock. ">
<polygon fill="#ffffff" stroke="#000000" points="238,-280.5 238,-299.5 344,-299.5 344,-280.5 238,-280.5"/>
<text text-anchor="middle" x="291" y="-287.5" font-family="Helvetica,sans-Serif" font-size="10.00" fill="#000000">spinlock_recursive.h</text>
</a>
</g>
</g>
<!-- Node9&#45;&gt;Node17 -->
<g id="edge14" class="edge">
<title>Node9&#45;&gt;Node17</title>
<path fill="none" stroke="#191970" d="M1023.3689,-344.6131C910.6844,-340.7894 605.6627,-328.4376 353,-300 350.0747,-299.6707 347.0767,-299.2997 344.054,-298.8994"/>
<polygon fill="#191970" stroke="#191970" points="1023.554,-348.1211 1033.6652,-344.9568 1023.7875,-341.125 1023.554,-348.1211"/>
</g>
<!-- Node18 -->
<g id="node14" class="node">
<title>Node18</title>
<g id="a_node14"><a xlink:href="abi-default_2traffic__mngr_8h.html" target="_top" xlink:title="ODP traffic mngr. ">
<polygon fill="#ffffff" stroke="#000000" points="362.5,-280.5 362.5,-299.5 439.5,-299.5 439.5,-280.5 362.5,-280.5"/>
<text text-anchor="middle" x="401" y="-287.5" font-family="Helvetica,sans-Serif" font-size="10.00" fill="#000000">traffic_mngr.h</text>
</a>
</g>
</g>
<!-- Node9&#45;&gt;Node18 -->
<g id="edge15" class="edge">
<title>Node9&#45;&gt;Node18</title>
<path fill="none" stroke="#191970" d="M1023.7298,-344.7037C921.853,-341.2863 663.1137,-330.1266 449,-300 445.9655,-299.573 442.8352,-299.0684 439.6961,-298.5164"/>
<polygon fill="#191970" stroke="#191970" points="1023.8384,-348.2091 1033.9475,-345.038 1024.0673,-341.2128 1023.8384,-348.2091"/>
</g>
<!-- Node19 -->
<g id="node15" class="node">
<title>Node19</title>
<g id="a_node15"><a xlink:href="barrier_8h.html" target="_top" xlink:title="ODP execution barriers. ">
<polygon fill="#ffffff" stroke="#000000" points="458,-280.5 458,-299.5 510,-299.5 510,-280.5 458,-280.5"/>
<text text-anchor="middle" x="484" y="-287.5" font-family="Helvetica,sans-Serif" font-size="10.00" fill="#000000">barrier.h</text>
</a>
</g>
</g>
<!-- Node9&#45;&gt;Node19 -->
<g id="edge16" class="edge">
<title>Node9&#45;&gt;Node19</title>
<path fill="none" stroke="#191970" d="M1023.7111,-345.2049C929.8866,-342.8839 704.4902,-333.935 519,-300 516.1405,-299.4769 513.1785,-298.8188 510.2433,-298.0913"/>
<polygon fill="#191970" stroke="#191970" points="1023.8837,-348.7098 1033.9629,-345.4448 1024.0475,-341.7117 1023.8837,-348.7098"/>
</g>
<!-- Node20 -->
<g id="node16" class="node">
<title>Node20</title>
<g id="a_node16"><a xlink:href="buffer_8h.html" target="_top" xlink:title="ODP buffer descriptor. ">
<polygon fill="#ffffff" stroke="#000000" points="528,-280.5 528,-299.5 578,-299.5 578,-280.5 528,-280.5"/>
<text text-anchor="middle" x="553" y="-287.5" font-family="Helvetica,sans-Serif" font-size="10.00" fill="#000000">buffer.h</text>
</a>
</g>
</g>
<!-- Node9&#45;&gt;Node20 -->
<g id="edge17" class="edge">
<title>Node9&#45;&gt;Node20</title>
<path fill="none" stroke="#191970" d="M1024.0034,-344.0251C939.6583,-339.7372 749.5903,-327.6474 592,-300 587.4561,-299.2028 582.6629,-298.152 578.051,-297.0313"/>
<polygon fill="#191970" stroke="#191970" points="1023.8341,-347.5209 1033.9955,-344.5215 1024.1815,-340.5295 1023.8341,-347.5209"/>
</g>
<!-- Node21 -->
<g id="node17" class="node">
<title>Node21</title>
<g id="a_node17"><a xlink:href="classification_8h.html" target="_top" xlink:title="ODP classification descriptor. ">
<polygon fill="#ffffff" stroke="#000000" points="717,-56.5 717,-75.5 799,-75.5 799,-56.5 717,-56.5"/>
<text text-anchor="middle" x="758" y="-63.5" font-family="Helvetica,sans-Serif" font-size="10.00" fill="#000000">classification.h</text>
</a>
</g>
</g>
<!-- Node9&#45;&gt;Node21 -->
<g id="edge18" class="edge">
<title>Node9&#45;&gt;Node21</title>
<path fill="none" stroke="#191970" d="M1023.6549,-343.9258C925.7851,-338.9479 694.1154,-324.8569 620,-300 603.7401,-294.5467 602.7589,-286.7662 587,-280 531.1234,-256.0088 491.9109,-292.3256 455,-244 415.0651,-191.7152 462.703,-140.5018 522,-112 555.8605,-95.7245 658.7795,-79.5947 716.9033,-71.4521"/>
<polygon fill="#191970" stroke="#191970" points="1023.6437,-347.4295 1033.8062,-344.4337 1023.9936,-340.4382 1023.6437,-347.4295"/>
</g>
<!-- Node24 -->
<g id="node19" class="node">
<title>Node24</title>
<g id="a_node19"><a xlink:href="crypto_8h.html" target="_top" xlink:title="ODP crypto. ">
<polygon fill="#ffffff" stroke="#000000" points="869,-168.5 869,-187.5 921,-187.5 921,-168.5 869,-168.5"/>
<text text-anchor="middle" x="895" y="-175.5" font-family="Helvetica,sans-Serif" font-size="10.00" fill="#000000">crypto.h</text>
</a>
</g>
</g>
<!-- Node9&#45;&gt;Node24 -->
<g id="edge20" class="edge">
<title>Node9&#45;&gt;Node24</title>
<path fill="none" stroke="#191970" d="M1049.6031,-328.9355C1042.0355,-320.887 1033.9093,-310.707 1029,-300 1014.7472,-268.9156 1038.5931,-250.5165 1017,-224 993.3443,-194.9506 949.2857,-184.2358 921.0913,-180.2906"/>
<polygon fill="#191970" stroke="#191970" points="1047.3104,-331.5935 1056.8446,-336.214 1052.2727,-326.6564 1047.3104,-331.5935"/>
</g>
<!-- Node25 -->
<g id="node20" class="node">
<title>Node25</title>
<g id="a_node20"><a xlink:href="packet_8h.html" target="_top" xlink:title="ODP packet descriptor. ">
<polygon fill="#ffffff" stroke="#000000" points="710,-280.5 710,-299.5 764,-299.5 764,-280.5 710,-280.5"/>
<text text-anchor="middle" x="737" y="-287.5" font-family="Helvetica,sans-Serif" font-size="10.00" fill="#000000">packet.h</text>
</a>
</g>
</g>
<!-- Node9&#45;&gt;Node25 -->
<g id="edge22" class="edge">
<title>Node9&#45;&gt;Node25</title>
<path fill="none" stroke="#191970" d="M1023.7969,-340.1369C966.7605,-332.309 864.5712,-317.3931 778,-300 773.5464,-299.1052 768.8452,-298.0573 764.2775,-296.9829"/>
<polygon fill="#191970" stroke="#191970" points="1023.5264,-343.6323 1033.9075,-341.5151 1024.4719,-336.6965 1023.5264,-343.6323"/>
</g>
<!-- Node40 -->
<g id="node24" class="node">
<title>Node40</title>
<g id="a_node24"><a xlink:href="spec_2packet__flags_8h.html" target="_top" xlink:title="ODP packet flags. ">
<polygon fill="#ffffff" stroke="#000000" points="479,-224.5 479,-243.5 559,-243.5 559,-224.5 479,-224.5"/>
<text text-anchor="middle" x="519" y="-231.5" font-family="Helvetica,sans-Serif" font-size="10.00" fill="#000000">packet_flags.h</text>
</a>
</g>
</g>
<!-- Node9&#45;&gt;Node40 -->
<g id="edge51" class="edge">
<title>Node9&#45;&gt;Node40</title>
<path fill="none" stroke="#191970" d="M1023.7021,-344.8608C953.8209,-342.0882 814.2897,-332.5796 701,-300 680.7438,-294.1748 677.5933,-287.7684 658,-280 622.0831,-265.7595 579.8146,-252.2128 551.3991,-243.5563"/>
<polygon fill="#191970" stroke="#191970" points="1023.7783,-348.3659 1033.9004,-345.2367 1024.0362,-341.3706 1023.7783,-348.3659"/>
</g>
<!-- Node34 -->
<g id="node27" class="node">
<title>Node34</title>
<g id="a_node27"><a xlink:href="packet__io_8h.html" target="_top" xlink:title="ODP Packet IO. ">
<polygon fill="#ffffff" stroke="#000000" points="758.5,-168.5 758.5,-187.5 825.5,-187.5 825.5,-168.5 758.5,-168.5"/>
<text text-anchor="middle" x="792" y="-175.5" font-family="Helvetica,sans-Serif" font-size="10.00" fill="#000000">packet_io.h</text>
</a>
</g>
</g>
<!-- Node9&#45;&gt;Node34 -->
<g id="edge35" class="edge">
<title>Node9&#45;&gt;Node34</title>
<path fill="none" stroke="#191970" d="M1023.6127,-343.4359C960.5542,-338.872 849.5059,-327.1355 821,-300 788.9898,-269.5286 789.5106,-210.6694 791.0982,-187.6041"/>
<polygon fill="#191970" stroke="#191970" points="1023.4575,-346.9334 1033.6755,-344.1328 1023.9412,-339.9501 1023.4575,-346.9334"/>
</g>
<!-- Node36 -->
<g id="node29" class="node">
<title>Node36</title>
<g id="a_node29"><a xlink:href="spec_2traffic__mngr_8h.html" target="_top" xlink:title="Copyright (c) 2015&#45;2018, Linaro Limited All rights reserved. ">
<polygon fill="#ffffff" stroke="#ff0000" points="531.5,-112.5 531.5,-131.5 608.5,-131.5 608.5,-112.5 531.5,-112.5"/>
<text text-anchor="middle" x="570" y="-119.5" font-family="Helvetica,sans-Serif" font-size="10.00" fill="#000000">traffic_mngr.h</text>
</a>
</g>
</g>
<!-- Node9&#45;&gt;Node36 -->
<g id="edge57" class="edge">
<title>Node9&#45;&gt;Node36</title>
<path fill="none" stroke="#191970" d="M1023.6637,-343.1128C932.1976,-336.8165 725.493,-320.7378 658,-300 639.7565,-294.3945 637.8618,-286.7234 620,-280 555.8354,-255.8474 512.447,-297.8396 470,-244 449.0874,-217.4745 451.7773,-196.4407 470,-168 483.5055,-146.9216 509.3746,-135.3703 531.4174,-129.1151"/>
<polygon fill="#191970" stroke="#191970" points="1023.4961,-346.6094 1033.7108,-343.7969 1023.9717,-339.6256 1023.4961,-346.6094"/>
</g>
<!-- Node32 -->
<g id="node30" class="node">
<title>Node32</title>
<g id="a_node30"><a xlink:href="queue_8h.html" target="_top" xlink:title="ODP queue. ">
<polygon fill="#ffffff" stroke="#000000" points="892.5,-280.5 892.5,-299.5 943.5,-299.5 943.5,-280.5 892.5,-280.5"/>
<text text-anchor="middle" x="918" y="-287.5" font-family="Helvetica,sans-Serif" font-size="10.00" fill="#000000">queue.h</text>
</a>
</g>
</g>
<!-- Node9&#45;&gt;Node32 -->
<g id="edge36" class="edge">
<title>Node9&#45;&gt;Node32</title>
<path fill="none" stroke="#191970" d="M1032.6129,-332.7888C1005.2247,-322.5639 967.9521,-308.6488 943.4494,-299.5011"/>
<polygon fill="#191970" stroke="#191970" points="1031.6215,-336.1546 1042.2141,-336.3733 1034.0698,-329.5967 1031.6215,-336.1546"/>
</g>
<!-- Node38 -->
<g id="node31" class="node">
<title>Node38</title>
<g id="a_node31"><a xlink:href="spec_2schedule_8h.html" target="_top" xlink:title="ODP schedule. ">
<polygon fill="#ffffff" stroke="#ff0000" points="944,-224.5 944,-243.5 1008,-243.5 1008,-224.5 944,-224.5"/>
<text text-anchor="middle" x="976" y="-231.5" font-family="Helvetica,sans-Serif" font-size="10.00" fill="#000000">schedule.h</text>
</a>
</g>
</g>
<!-- Node9&#45;&gt;Node38 -->
<g id="edge53" class="edge">
<title>Node9&#45;&gt;Node38</title>
<path fill="none" stroke="#191970" d="M1035.8509,-331.8522C1021.8329,-324.2326 1006.2857,-313.5794 996,-300 983.1321,-283.0116 978.4894,-257.7394 976.8549,-243.9162"/>
<polygon fill="#191970" stroke="#191970" points="1034.2752,-334.9775 1044.7712,-336.4216 1037.4666,-328.7473 1034.2752,-334.9775"/>
</g>
<!-- Node42 -->
<g id="node32" class="node">
<title>Node42</title>
<g id="a_node32"><a xlink:href="spec_2chksum_8h.html" target="_top" xlink:title="ODP checksum functions. ">
<polygon fill="#ffffff" stroke="#000000" points="1038.5,-280.5 1038.5,-299.5 1097.5,-299.5 1097.5,-280.5 1038.5,-280.5"/>
<text text-anchor="middle" x="1068" y="-287.5" font-family="Helvetica,sans-Serif" font-size="10.00" fill="#000000">chksum.h</text>
</a>
</g>
</g>
<!-- Node9&#45;&gt;Node42 -->
<g id="edge40" class="edge">
<title>Node9&#45;&gt;Node42</title>
<path fill="none" stroke="#191970" d="M1068,-326.1575C1068,-317.155 1068,-306.9199 1068,-299.6427"/>
<polygon fill="#191970" stroke="#191970" points="1064.5001,-326.2455 1068,-336.2455 1071.5001,-326.2456 1064.5001,-326.2455"/>
</g>
<!-- Node44 -->
<g id="node34" class="node">
<title>Node44</title>
<g id="a_node34"><a xlink:href="spec_2cpu_8h.html" target="_top" xlink:title="ODP CPU API. ">
<polygon fill="#ffffff" stroke="#000000" points="1115.5,-280.5 1115.5,-299.5 1156.5,-299.5 1156.5,-280.5 1115.5,-280.5"/>
<text text-anchor="middle" x="1136" y="-287.5" font-family="Helvetica,sans-Serif" font-size="10.00" fill="#000000">cpu.h</text>
</a>
</g>
</g>
<!-- Node9&#45;&gt;Node44 -->
<g id="edge42" class="edge">
<title>Node9&#45;&gt;Node44</title>
<path fill="none" stroke="#191970" d="M1087.8596,-329.645C1099.6858,-319.9058 1114.2892,-307.8795 1124.291,-299.6427"/>
<polygon fill="#191970" stroke="#191970" points="1085.339,-327.1867 1079.8447,-336.2455 1089.789,-332.5902 1085.339,-327.1867"/>
</g>
<!-- Node47 -->
<g id="node36" class="node">
<title>Node47</title>
<g id="a_node36"><a xlink:href="spec_2feature_8h.html" target="_top" xlink:title="ODP features. ">
<polygon fill="#ffffff" stroke="#000000" points="1213.5,-280.5 1213.5,-299.5 1268.5,-299.5 1268.5,-280.5 1213.5,-280.5"/>
<text text-anchor="middle" x="1241" y="-287.5" font-family="Helvetica,sans-Serif" font-size="10.00" fill="#000000">feature.h</text>
</a>
</g>
</g>
<!-- Node9&#45;&gt;Node47 -->
<g id="edge44" class="edge">
<title>Node9&#45;&gt;Node47</title>
<path fill="none" stroke="#191970" d="M1107.3405,-333.2655C1139.6909,-322.7937 1184.7164,-308.219 1213.3604,-298.9469"/>
<polygon fill="#191970" stroke="#191970" points="1106.1758,-329.9636 1097.7398,-336.3733 1108.3316,-336.6234 1106.1758,-329.9636"/>
</g>
<!-- Node49 -->
<g id="node38" class="node">
<title>Node49</title>
<g id="a_node38"><a xlink:href="spec_2init_8h.html" target="_top" xlink:title="init.h">
<polygon fill="#ffffff" stroke="#000000" points="1220,-168.5 1220,-187.5 1258,-187.5 1258,-168.5 1220,-168.5"/>
<text text-anchor="middle" x="1239" y="-175.5" font-family="Helvetica,sans-Serif" font-size="10.00" fill="#000000">init.h</text>
</a>
</g>
</g>
<!-- Node9&#45;&gt;Node49 -->
<g id="edge50" class="edge">
<title>Node9&#45;&gt;Node49</title>
<path fill="none" stroke="#191970" d="M1108.9903,-332.7351C1127.5982,-325.253 1148.9759,-314.4617 1165,-300 1202.1483,-266.4737 1226.7458,-209.8965 1235.47,-187.5197"/>
<polygon fill="#191970" stroke="#191970" points="1107.6422,-329.5034 1099.555,-336.348 1110.1454,-336.0406 1107.6422,-329.5034"/>
</g>
<!-- Node53 -->
<g id="node40" class="node">
<title>Node53</title>
<g id="a_node40"><a xlink:href="spec_2hash_8h.html" target="_top" xlink:title="ODP Hash functions. ">
<polygon fill="#ffffff" stroke="#000000" points="1287,-280.5 1287,-299.5 1333,-299.5 1333,-280.5 1287,-280.5"/>
<text text-anchor="middle" x="1310" y="-287.5" font-family="Helvetica,sans-Serif" font-size="10.00" fill="#000000">hash.h</text>
</a>
</g>
</g>
<!-- Node9&#45;&gt;Node53 -->
<g id="edge48" class="edge">
<title>Node9&#45;&gt;Node53</title>
<path fill="none" stroke="#191970" d="M1112.2317,-337.3034C1154.6985,-328.7094 1220.5439,-314.7431 1277,-300 1280.2436,-299.153 1283.6473,-298.198 1286.9857,-297.2228"/>
<polygon fill="#191970" stroke="#191970" points="1111.3357,-333.9135 1102.2224,-339.317 1112.7163,-340.776 1111.3357,-333.9135"/>
</g>
<!-- Node55 -->
<g id="node42" class="node">
<title>Node55</title>
<g id="a_node42"><a xlink:href="spec_2pool_8h.html" target="_top" xlink:title="ODP pool. ">
<polygon fill="#ffffff" stroke="#ff0000" points="1351.5,-280.5 1351.5,-299.5 1394.5,-299.5 1394.5,-280.5 1351.5,-280.5"/>
<text text-anchor="middle" x="1373" y="-287.5" font-family="Helvetica,sans-Serif" font-size="10.00" fill="#000000">pool.h</text>
</a>
</g>
</g>
<!-- Node9&#45;&gt;Node55 -->
<g id="edge52" class="edge">
<title>Node9&#45;&gt;Node55</title>
<path fill="none" stroke="#191970" d="M1112.0774,-340.6143C1166.5539,-333.4977 1261.8752,-319.5388 1342,-300 1345.0767,-299.2497 1348.2907,-298.3492 1351.4347,-297.4"/>
<polygon fill="#191970" stroke="#191970" points="1111.5389,-337.1547 1102.0685,-341.9047 1112.434,-344.0972 1111.5389,-337.1547"/>
</g>
<!-- Node58 -->
<g id="node43" class="node">
<title>Node58</title>
<g id="a_node43"><a xlink:href="spec_2stash_8h.html" target="_top" xlink:title="ODP stash. ">
<polygon fill="#ffffff" stroke="#ff0000" points="1412.5,-280.5 1412.5,-299.5 1461.5,-299.5 1461.5,-280.5 1412.5,-280.5"/>
<text text-anchor="middle" x="1437" y="-287.5" font-family="Helvetica,sans-Serif" font-size="10.00" fill="#000000">stash.h</text>
</a>
</g>
</g>
<!-- Node9&#45;&gt;Node58 -->
<g id="edge54" class="edge">
<title>Node9&#45;&gt;Node58</title>
<path fill="none" stroke="#191970" d="M1112.4133,-342.177C1177.0918,-336.1014 1300.7476,-322.5636 1404,-300 1406.6903,-299.4121 1409.4792,-298.7126 1412.2445,-297.9606"/>
<polygon fill="#191970" stroke="#191970" points="1111.8092,-338.7178 1102.1734,-343.1226 1112.4529,-345.6881 1111.8092,-338.7178"/>
</g>
<!-- Node60 -->
<g id="node44" class="node">
<title>Node60</title>
<g id="a_node44"><a xlink:href="spec_2threshold_8h.html" target="_top" xlink:title="ODP threshold descriptor. ">
<polygon fill="#ffffff" stroke="#ff0000" points="1479.5,-280.5 1479.5,-299.5 1544.5,-299.5 1544.5,-280.5 1479.5,-280.5"/>
<text text-anchor="middle" x="1512" y="-287.5" font-family="Helvetica,sans-Serif" font-size="10.00" fill="#000000">threshold.h</text>
</a>
</g>
</g>
<!-- Node9&#45;&gt;Node60 -->
<g id="edge55" class="edge">
<title>Node9&#45;&gt;Node60</title>
<path fill="none" stroke="#191970" d="M1112.5889,-342.7515C1187.1838,-336.9062 1341.8202,-323.0322 1471,-300 1473.7409,-299.5113 1476.5715,-298.9474 1479.4048,-298.3413"/>
<polygon fill="#191970" stroke="#191970" points="1111.8771,-339.296 1102.1764,-343.5558 1112.4163,-346.2752 1111.8771,-339.296"/>
</g>
<!-- Node62 -->
<g id="node45" class="node">
<title>Node62</title>
<g id="a_node45"><a xlink:href="spec_2thrmask_8h.html" target="_top" xlink:title="ODP thread masks. ">
<polygon fill="#ffffff" stroke="#ff0000" points="1563,-280.5 1563,-299.5 1623,-299.5 1623,-280.5 1563,-280.5"/>
<text text-anchor="middle" x="1593" y="-287.5" font-family="Helvetica,sans-Serif" font-size="10.00" fill="#000000">thrmask.h</text>
</a>
</g>
</g>
<!-- Node9&#45;&gt;Node62 -->
<g id="edge56" class="edge">
<title>Node9&#45;&gt;Node62</title>
<path fill="none" stroke="#191970" d="M1112.2799,-344.1325C1198.0724,-340.0024 1392.7009,-328.1343 1554,-300 1556.8921,-299.4956 1559.8849,-298.8875 1562.8677,-298.2233"/>
<polygon fill="#191970" stroke="#191970" points="1111.948,-340.6441 1102.1233,-344.6095 1112.2765,-347.6364 1111.948,-340.6441"/>
</g>
<!-- Node64 -->
<g id="node46" class="node">
<title>Node64</title>
<g id="a_node46"><a xlink:href="system__info_8h.html" target="_top" xlink:title="ODP system information. ">
<polygon fill="#ffffff" stroke="#000000" points="1641,-280.5 1641,-299.5 1719,-299.5 1719,-280.5 1641,-280.5"/>
<text text-anchor="middle" x="1680" y="-287.5" font-family="Helvetica,sans-Serif" font-size="10.00" fill="#000000">system_info.h</text>
</a>
</g>
</g>
<!-- Node9&#45;&gt;Node64 -->
<g id="edge58" class="edge">
<title>Node9&#45;&gt;Node64</title>
<path fill="none" stroke="#191970" d="M1112.3266,-344.2562C1207.7651,-340.0919 1439.6391,-327.7728 1632,-300 1634.8645,-299.5864 1637.8147,-299.1063 1640.7775,-298.5847"/>
<polygon fill="#191970" stroke="#191970" points="1112.019,-340.7661 1102.1779,-344.6905 1112.3184,-347.7597 1112.019,-340.7661"/>
</g>
<!-- Node65 -->
<g id="node47" class="node">
<title>Node65</title>
<g id="a_node47"><a xlink:href="time_8h.html" target="_top" xlink:title="ODP time. ">
<polygon fill="#ffffff" stroke="#ff0000" points="830,-280.5 830,-299.5 874,-299.5 874,-280.5 830,-280.5"/>
<text text-anchor="middle" x="852" y="-287.5" font-family="Helvetica,sans-Serif" font-size="10.00" fill="#000000">time.h</text>
</a>
</g>
</g>
<!-- Node9&#45;&gt;Node65 -->
<g id="edge59" class="edge">
<title>Node9&#45;&gt;Node65</title>
<path fill="none" stroke="#191970" d="M1023.5969,-335.8591C985.98,-327.0534 930.7099,-313.6095 883,-300 880.1722,-299.1934 877.2141,-298.3018 874.2954,-297.3931"/>
<polygon fill="#191970" stroke="#191970" points="1023.1844,-339.3566 1033.7177,-338.216 1024.7722,-332.5391 1023.1844,-339.3566"/>
</g>
<!-- Node67 -->
<g id="node48" class="node">
<title>Node67</title>
<g id="a_node48"><a xlink:href="timer_8h.html" target="_top" xlink:title="ODP timer service. ">
<polygon fill="#ffffff" stroke="#000000" points="1737.5,-280.5 1737.5,-299.5 1784.5,-299.5 1784.5,-280.5 1737.5,-280.5"/>
<text text-anchor="middle" x="1761" y="-287.5" font-family="Helvetica,sans-Serif" font-size="10.00" fill="#000000">timer.h</text>
</a>
</g>
</g>
<!-- Node9&#45;&gt;Node67 -->
<g id="edge61" class="edge">
<title>Node9&#45;&gt;Node67</title>
<path fill="none" stroke="#191970" d="M1112.61,-344.1987C1240.9219,-338.8101 1609.3326,-321.828 1728,-300 1731.0616,-299.4368 1734.241,-298.6899 1737.364,-297.857"/>
<polygon fill="#191970" stroke="#191970" points="1112.2142,-340.712 1102.3686,-344.6255 1112.5057,-347.706 1112.2142,-340.712"/>
</g>
<!-- Node68 -->
<g id="node49" class="node">
<title>Node68</title>
<g id="a_node49"><a xlink:href="strong__types_8h.html" target="_top" xlink:title="ODP Strong Types. ">
<polygon fill="#ffffff" stroke="#000000" points="1802.5,-280.5 1802.5,-299.5 1883.5,-299.5 1883.5,-280.5 1802.5,-280.5"/>
<text text-anchor="middle" x="1843" y="-287.5" font-family="Helvetica,sans-Serif" font-size="10.00" fill="#000000">strong_types.h</text>
</a>
</g>
</g>
<!-- Node9&#45;&gt;Node68 -->
<g id="edge62" class="edge">
<title>Node9&#45;&gt;Node68</title>
<path fill="none" stroke="#191970" d="M1112.2418,-345.3199C1225.9016,-343.1135 1537.2372,-334.1684 1794,-300 1796.7541,-299.6335 1799.5852,-299.2024 1802.4312,-298.7285"/>
<polygon fill="#191970" stroke="#191970" points="1112.1156,-341.8216 1102.1826,-345.5074 1112.2461,-348.8203 1112.1156,-341.8216"/>
</g>
<!-- Node22 -->
<g id="node18" class="node">
<title>Node22</title>
<g id="a_node18"><a xlink:href="spec_2ipsec_8h.html" target="_top" xlink:title="ODP IPSEC API. ">
<polygon fill="#ffffff" stroke="#ff0000" points="803,-.5 803,-19.5 851,-19.5 851,-.5 803,-.5"/>
<text text-anchor="middle" x="827" y="-7.5" font-family="Helvetica,sans-Serif" font-size="10.00" fill="#000000">ipsec.h</text>
</a>
</g>
</g>
<!-- Node21&#45;&gt;Node22 -->
<g id="edge19" class="edge">
<title>Node21&#45;&gt;Node22</title>
<path fill="none" stroke="#191970" d="M777.803,-49.928C789.8636,-40.1397 804.8714,-27.9595 815.1188,-19.6427"/>
<polygon fill="#191970" stroke="#191970" points="775.5779,-47.2262 770.0189,-56.2455 779.9891,-52.6614 775.5779,-47.2262"/>
</g>
<!-- Node24&#45;&gt;Node22 -->
<g id="edge21" class="edge">
<title>Node24&#45;&gt;Node22</title>
<path fill="none" stroke="#191970" d="M887.3859,-159.1887C872.9309,-123.4762 841.9757,-46.9988 830.978,-19.8279"/>
<polygon fill="#191970" stroke="#191970" points="884.1529,-160.53 891.1492,-168.4862 890.6415,-157.9036 884.1529,-160.53"/>
</g>
<!-- Node26 -->
<g id="node21" class="node">
<title>Node26</title>
<g id="a_node21"><a xlink:href="spec_2comp_8h.html" target="_top" xlink:title="ODP Compression. ">
<polygon fill="#ffffff" stroke="#ff0000" points="577.5,-224.5 577.5,-243.5 626.5,-243.5 626.5,-224.5 577.5,-224.5"/>
<text text-anchor="middle" x="602" y="-231.5" font-family="Helvetica,sans-Serif" font-size="10.00" fill="#000000">comp.h</text>
</a>
</g>
</g>
<!-- Node25&#45;&gt;Node26 -->
<g id="edge23" class="edge">
<title>Node25&#45;&gt;Node26</title>
<path fill="none" stroke="#191970" d="M704.5009,-276.5189C679.9146,-266.3201 646.7634,-252.5685 624.9045,-243.5011"/>
<polygon fill="#191970" stroke="#191970" points="703.2148,-279.7745 713.7927,-280.3733 705.8969,-273.3087 703.2148,-279.7745"/>
</g>
<!-- Node28 -->
<g id="node22" class="node">
<title>Node28</title>
<g id="a_node22"><a xlink:href="spec_2crypto_8h.html" target="_top" xlink:title="ODP crypto. ">
<polygon fill="#ffffff" stroke="#000000" points="712,-224.5 712,-243.5 764,-243.5 764,-224.5 712,-224.5"/>
<text text-anchor="middle" x="738" y="-231.5" font-family="Helvetica,sans-Serif" font-size="10.00" fill="#000000">crypto.h</text>
</a>
</g>
</g>
<!-- Node25&#45;&gt;Node28 -->
<g id="edge24" class="edge">
<title>Node25&#45;&gt;Node28</title>
<path fill="none" stroke="#191970" d="M737.3543,-270.1575C737.5151,-261.155 737.6979,-250.9199 737.8278,-243.6427"/>
<polygon fill="#191970" stroke="#191970" points="733.8534,-270.1846 737.1742,-280.2455 740.8523,-270.3097 733.8534,-270.1846"/>
</g>
<!-- Node29 -->
<g id="node23" class="node">
<title>Node29</title>
<g id="a_node23"><a xlink:href="spec_2event_8h.html" target="_top" xlink:title="ODP event. ">
<polygon fill="#ffffff" stroke="#ff0000" points="644.5,-224.5 644.5,-243.5 693.5,-243.5 693.5,-224.5 644.5,-224.5"/>
<text text-anchor="middle" x="669" y="-231.5" font-family="Helvetica,sans-Serif" font-size="10.00" fill="#000000">event.h</text>
</a>
</g>
</g>
<!-- Node25&#45;&gt;Node29 -->
<g id="edge26" class="edge">
<title>Node25&#45;&gt;Node29</title>
<path fill="none" stroke="#191970" d="M717.1404,-273.645C705.3142,-263.9058 690.7108,-251.8795 680.709,-243.6427"/>
<polygon fill="#191970" stroke="#191970" points="715.211,-276.5902 725.1553,-280.2455 719.661,-271.1867 715.211,-276.5902"/>
</g>
<!-- Node25&#45;&gt;Node40 -->
<g id="edge27" class="edge">
<title>Node25&#45;&gt;Node40</title>
<path fill="none" stroke="#191970" d="M699.9118,-280.4728C659.7641,-270.1596 596.1132,-253.8089 556,-243.5046"/>
<polygon fill="#191970" stroke="#191970" points="699.2745,-283.9226 709.8309,-283.0208 701.0162,-277.1427 699.2745,-283.9226"/>
</g>
<!-- Node33 -->
<g id="node26" class="node">
<title>Node33</title>
<g id="a_node26"><a xlink:href="spec_2packet__io_8h.html" target="_top" xlink:title="ODP Packet IO. ">
<polygon fill="#ffffff" stroke="#000000" points="820.5,-224.5 820.5,-243.5 887.5,-243.5 887.5,-224.5 820.5,-224.5"/>
<text text-anchor="middle" x="854" y="-231.5" font-family="Helvetica,sans-Serif" font-size="10.00" fill="#000000">packet_io.h</text>
</a>
</g>
</g>
<!-- Node25&#45;&gt;Node33 -->
<g id="edge29" class="edge">
<title>Node25&#45;&gt;Node33</title>
<path fill="none" stroke="#191970" d="M766.3042,-275.9741C787.488,-265.8348 815.5403,-252.408 834.1494,-243.5011"/>
<polygon fill="#191970" stroke="#191970" points="764.622,-272.8989 757.113,-280.3733 767.6441,-279.2129 764.622,-272.8989"/>
</g>
<!-- Node28&#45;&gt;Node24 -->
<g id="edge25" class="edge">
<title>Node28&#45;&gt;Node24</title>
<path fill="none" stroke="#191970" d="M774.0181,-221.1528C802.9714,-210.8255 842.9583,-196.5627 868.8977,-187.3104"/>
<polygon fill="#191970" stroke="#191970" points="772.5212,-217.9707 764.2783,-224.6269 774.8729,-224.5638 772.5212,-217.9707"/>
</g>
<!-- Node41 -->
<g id="node25" class="node">
<title>Node41</title>
<g id="a_node25"><a xlink:href="packet__flags_8h.html" target="_top" xlink:title="ODP packet flags. ">
<polygon fill="#ffffff" stroke="#000000" points="479,-168.5 479,-187.5 559,-187.5 559,-168.5 479,-168.5"/>
<text text-anchor="middle" x="519" y="-175.5" font-family="Helvetica,sans-Serif" font-size="10.00" fill="#000000">packet_flags.h</text>
</a>
</g>
</g>
<!-- Node40&#45;&gt;Node41 -->
<g id="edge28" class="edge">
<title>Node40&#45;&gt;Node41</title>
<path fill="none" stroke="#191970" d="M519,-214.1575C519,-205.155 519,-194.9199 519,-187.6427"/>
<polygon fill="#191970" stroke="#191970" points="515.5001,-214.2455 519,-224.2455 522.5001,-214.2456 515.5001,-214.2455"/>
</g>
<!-- Node33&#45;&gt;Node34 -->
<g id="edge30" class="edge">
<title>Node33&#45;&gt;Node34</title>
<path fill="none" stroke="#191970" d="M835.5779,-217.3607C824.8519,-207.6727 811.7066,-195.7995 802.6758,-187.6427"/>
<polygon fill="#191970" stroke="#191970" points="833.4334,-220.14 843.2004,-224.2455 838.1254,-214.9453 833.4334,-220.14"/>
</g>
<!-- Node34&#45;&gt;Node22 -->
<g id="edge33" class="edge">
<title>Node34&#45;&gt;Node22</title>
<path fill="none" stroke="#191970" d="M799.504,-158.9159C802.4952,-150.7307 805.7539,-140.9984 808,-132 818.279,-90.8205 824.0236,-40.3595 826.099,-19.6081"/>
<polygon fill="#191970" stroke="#191970" points="796.2244,-157.6934 795.9545,-168.2849 802.7704,-160.1734 796.2244,-157.6934"/>
</g>
<!-- Node35 -->
<g id="node28" class="node">
<title>Node35</title>
<g id="a_node28"><a xlink:href="spec_2classification_8h.html" target="_top" xlink:title="ODP classification descriptor. ">
<polygon fill="#ffffff" stroke="#000000" points="717,-112.5 717,-131.5 799,-131.5 799,-112.5 717,-112.5"/>
<text text-anchor="middle" x="758" y="-119.5" font-family="Helvetica,sans-Serif" font-size="10.00" fill="#000000">classification.h</text>
</a>
</g>
</g>
<!-- Node34&#45;&gt;Node35 -->
<g id="edge31" class="edge">
<title>Node34&#45;&gt;Node35</title>
<path fill="none" stroke="#191970" d="M780.8465,-159.6296C775.1753,-150.2887 768.5155,-139.3197 763.8545,-131.6427"/>
<polygon fill="#191970" stroke="#191970" points="777.8961,-161.5141 786.0777,-168.2455 783.8796,-157.8812 777.8961,-161.5141"/>
</g>
<!-- Node34&#45;&gt;Node36 -->
<g id="edge34" class="edge">
<title>Node34&#45;&gt;Node36</title>
<path fill="none" stroke="#191970" d="M748.5738,-167.0457C707.5923,-156.708 646.7726,-141.3661 607.7575,-131.5244"/>
<polygon fill="#191970" stroke="#191970" points="747.7306,-170.4425 758.283,-169.4948 749.4428,-163.6551 747.7306,-170.4425"/>
</g>
<!-- Node35&#45;&gt;Node21 -->
<g id="edge32" class="edge">
<title>Node35&#45;&gt;Node21</title>
<path fill="none" stroke="#191970" d="M758,-102.1575C758,-93.155 758,-82.9199 758,-75.6427"/>
<polygon fill="#191970" stroke="#191970" points="754.5001,-102.2455 758,-112.2455 761.5001,-102.2456 754.5001,-102.2455"/>
</g>
<!-- Node32&#45;&gt;Node24 -->
<g id="edge37" class="edge">
<title>Node32&#45;&gt;Node24</title>
<path fill="none" stroke="#191970" d="M914.0158,-270.5987C909.0388,-246.363 900.7202,-205.8551 896.956,-187.5249"/>
<polygon fill="#191970" stroke="#191970" points="910.5989,-271.3594 916.039,-280.4509 917.4558,-269.9513 910.5989,-271.3594"/>
</g>
<!-- Node32&#45;&gt;Node33 -->
<g id="edge38" class="edge">
<title>Node32&#45;&gt;Node33</title>
<path fill="none" stroke="#191970" d="M899.3086,-273.645C888.1781,-263.9058 874.4337,-251.8795 865.0202,-243.6427"/>
<polygon fill="#191970" stroke="#191970" points="897.0215,-276.2945 906.8521,-280.2455 901.631,-271.0264 897.0215,-276.2945"/>
</g>
<!-- Node32&#45;&gt;Node38 -->
<g id="edge39" class="edge">
<title>Node32&#45;&gt;Node38</title>
<path fill="none" stroke="#191970" d="M935.5293,-273.0751C945.5083,-263.4402 957.6476,-251.7196 966.0129,-243.6427"/>
<polygon fill="#191970" stroke="#191970" points="932.8658,-270.7817 928.1028,-280.2455 937.728,-275.8175 932.8658,-270.7817"/>
</g>
<!-- Node43 -->
<g id="node33" class="node">
<title>Node43</title>
<g id="a_node33"><a xlink:href="chksum_8h.html" target="_top" xlink:title="ODP checksum functions. ">
<polygon fill="#ffffff" stroke="#000000" points="1064.5,-224.5 1064.5,-243.5 1123.5,-243.5 1123.5,-224.5 1064.5,-224.5"/>
<text text-anchor="middle" x="1094" y="-231.5" font-family="Helvetica,sans-Serif" font-size="10.00" fill="#000000">chksum.h</text>
</a>
</g>
</g>
<!-- Node42&#45;&gt;Node43 -->
<g id="edge41" class="edge">
<title>Node42&#45;&gt;Node43</title>
<path fill="none" stroke="#191970" d="M1076.8011,-271.0437C1081.0775,-261.8331 1086.033,-251.1598 1089.523,-243.6427"/>
<polygon fill="#191970" stroke="#191970" points="1073.5655,-269.7015 1072.5289,-280.2455 1079.9146,-272.6494 1073.5655,-269.7015"/>
</g>
<!-- Node45 -->
<g id="node35" class="node">
<title>Node45</title>
<g id="a_node35"><a xlink:href="cpu_8h.html" target="_top" xlink:title="ODP CPU. ">
<polygon fill="#ffffff" stroke="#ff0000" points="1141.5,-224.5 1141.5,-243.5 1182.5,-243.5 1182.5,-224.5 1141.5,-224.5"/>
<text text-anchor="middle" x="1162" y="-231.5" font-family="Helvetica,sans-Serif" font-size="10.00" fill="#000000">cpu.h</text>
</a>
</g>
</g>
<!-- Node44&#45;&gt;Node45 -->
<g id="edge43" class="edge">
<title>Node44&#45;&gt;Node45</title>
<path fill="none" stroke="#191970" d="M1144.8011,-271.0437C1149.0775,-261.8331 1154.033,-251.1598 1157.523,-243.6427"/>
<polygon fill="#191970" stroke="#191970" points="1141.5655,-269.7015 1140.5289,-280.2455 1147.9146,-272.6494 1141.5655,-269.7015"/>
</g>
<!-- Node48 -->
<g id="node37" class="node">
<title>Node48</title>
<g id="a_node37"><a xlink:href="feature_8h.html" target="_top" xlink:title="ODP features. ">
<polygon fill="#ffffff" stroke="#000000" points="1239.5,-224.5 1239.5,-243.5 1294.5,-243.5 1294.5,-224.5 1239.5,-224.5"/>
<text text-anchor="middle" x="1267" y="-231.5" font-family="Helvetica,sans-Serif" font-size="10.00" fill="#000000">feature.h</text>
</a>
</g>
</g>
<!-- Node47&#45;&gt;Node48 -->
<g id="edge45" class="edge">
<title>Node47&#45;&gt;Node48</title>
<path fill="none" stroke="#191970" d="M1249.8011,-271.0437C1254.0775,-261.8331 1259.033,-251.1598 1262.523,-243.6427"/>
<polygon fill="#191970" stroke="#191970" points="1246.5655,-269.7015 1245.5289,-280.2455 1252.9146,-272.6494 1246.5655,-269.7015"/>
</g>
<!-- Node48&#45;&gt;Node49 -->
<g id="edge46" class="edge">
<title>Node48&#45;&gt;Node49</title>
<path fill="none" stroke="#191970" d="M1257.5219,-215.0437C1252.9165,-205.8331 1247.5799,-195.1598 1243.8213,-187.6427"/>
<polygon fill="#191970" stroke="#191970" points="1254.5201,-216.8665 1262.1228,-224.2455 1260.7811,-213.736 1254.5201,-216.8665"/>
</g>
<!-- Node50 -->
<g id="node39" class="node">
<title>Node50</title>
<g id="a_node39"><a xlink:href="init_8h.html" target="_top" xlink:title="ODP initialization. ">
<polygon fill="#ffffff" stroke="#ff0000" points="1220,-112.5 1220,-131.5 1258,-131.5 1258,-112.5 1220,-112.5"/>
<text text-anchor="middle" x="1239" y="-119.5" font-family="Helvetica,sans-Serif" font-size="10.00" fill="#000000">init.h</text>
</a>
</g>
</g>
<!-- Node49&#45;&gt;Node50 -->
<g id="edge47" class="edge">
<title>Node49&#45;&gt;Node50</title>
<path fill="none" stroke="#191970" d="M1239,-158.1575C1239,-149.155 1239,-138.9199 1239,-131.6427"/>
<polygon fill="#191970" stroke="#191970" points="1235.5001,-158.2455 1239,-168.2455 1242.5001,-158.2456 1235.5001,-158.2455"/>
</g>
<!-- Node54 -->
<g id="node41" class="node">
<title>Node54</title>
<g id="a_node41"><a xlink:href="hash_8h.html" target="_top" xlink:title="ODP Hash function. ">
<polygon fill="#ffffff" stroke="#000000" points="1313,-224.5 1313,-243.5 1359,-243.5 1359,-224.5 1313,-224.5"/>
<text text-anchor="middle" x="1336" y="-231.5" font-family="Helvetica,sans-Serif" font-size="10.00" fill="#000000">hash.h</text>
</a>
</g>
</g>
<!-- Node53&#45;&gt;Node54 -->
<g id="edge49" class="edge">
<title>Node53&#45;&gt;Node54</title>
<path fill="none" stroke="#191970" d="M1318.8011,-271.0437C1323.0775,-261.8331 1328.033,-251.1598 1331.523,-243.6427"/>
<polygon fill="#191970" stroke="#191970" points="1315.5655,-269.7015 1314.5289,-280.2455 1321.9146,-272.6494 1315.5655,-269.7015"/>
</g>
<!-- Node65&#45;&gt;Node33 -->
<g id="edge60" class="edge">
<title>Node65&#45;&gt;Node33</title>
<path fill="none" stroke="#191970" d="M852.7087,-270.1575C853.0302,-261.155 853.3957,-250.9199 853.6556,-243.6427"/>
<polygon fill="#191970" stroke="#191970" points="849.2076,-270.127 852.3484,-280.2455 856.2032,-270.3769 849.2076,-270.127"/>
</g>
</g>
</svg>
