<?xml version="1.0" encoding="UTF-8" standalone="no"?>
<!DOCTYPE svg PUBLIC "-//W3C//DTD SVG 1.1//EN"
 "http://www.w3.org/Graphics/SVG/1.1/DTD/svg11.dtd">
<!-- Generated by graphviz version 2.40.1 (20161225.0304)
 -->
<!-- Title: align.h Pages: 1 -->
<svg width="285pt" height="140pt"
 viewBox="0.00 0.00 284.50 140.00" xmlns="http://www.w3.org/2000/svg" xmlns:xlink="http://www.w3.org/1999/xlink">
<g id="graph0" class="graph" transform="scale(1 1) rotate(0) translate(4 136)">
<title>align.h</title>
<polygon fill="#ffffff" stroke="transparent" points="-4,4 -4,-136 280.5,-136 280.5,4 -4,4"/>
<!-- Node0 -->
<g id="node1" class="node">
<title>Node0</title>
<polygon fill="#bfbfbf" stroke="#000000" points="84,-112.5 84,-131.5 129,-131.5 129,-112.5 84,-112.5"/>
<text text-anchor="middle" x="106.5" y="-119.5" font-family="Helvetica,sans-Serif" font-size="10.00" fill="#000000">align.h</text>
</g>
<!-- Node1 -->
<g id="node2" class="node">
<title>Node1</title>
<polygon fill="#ffffff" stroke="#bfbfbf" points="0,-56.5 0,-75.5 95,-75.5 95,-56.5 0,-56.5"/>
<text text-anchor="middle" x="47.5" y="-63.5" font-family="Helvetica,sans-Serif" font-size="10.00" fill="#000000">odp/api/abi/align.h</text>
</g>
<!-- Node0&#45;&gt;Node1 -->
<g id="edge1" class="edge">
<title>Node0&#45;&gt;Node1</title>
<path fill="none" stroke="#191970" d="M96.223,-112.2455C87.6782,-104.1352 75.3222,-92.4075 65.1915,-82.7919"/>
<polygon fill="#191970" stroke="#191970" points="67.3218,-79.9884 57.6592,-75.6427 62.5028,-85.0655 67.3218,-79.9884"/>
</g>
<!-- Node2 -->
<g id="node3" class="node">
<title>Node2</title>
<g id="a_node3"><a xlink:href="spec_2align_8h.html" target="_top" xlink:title="ODP alignments. ">
<polygon fill="#ffffff" stroke="#000000" points="113.5,-56.5 113.5,-75.5 217.5,-75.5 217.5,-56.5 113.5,-56.5"/>
<text text-anchor="middle" x="165.5" y="-63.5" font-family="Helvetica,sans-Serif" font-size="10.00" fill="#000000">odp/api/spec/align.h</text>
</a>
</g>
</g>
<!-- Node0&#45;&gt;Node2 -->
<g id="edge2" class="edge">
<title>Node0&#45;&gt;Node2</title>
<path fill="none" stroke="#191970" d="M116.777,-112.2455C125.3218,-104.1352 137.6778,-92.4075 147.8085,-82.7919"/>
<polygon fill="#191970" stroke="#191970" points="150.4972,-85.0655 155.3408,-75.6427 145.6782,-79.9884 150.4972,-85.0655"/>
</g>
<!-- Node3 -->
<g id="node4" class="node">
<title>Node3</title>
<polygon fill="#ffffff" stroke="#bfbfbf" points="51,-.5 51,-19.5 158,-19.5 158,-.5 51,-.5"/>
<text text-anchor="middle" x="104.5" y="-7.5" font-family="Helvetica,sans-Serif" font-size="10.00" fill="#000000">odp/visibility_begin.h</text>
</g>
<!-- Node2&#45;&gt;Node3 -->
<g id="edge3" class="edge">
<title>Node2&#45;&gt;Node3</title>
<path fill="none" stroke="#191970" d="M154.8746,-56.2455C145.9527,-48.0549 133.012,-36.1749 122.4808,-26.5069"/>
<polygon fill="#191970" stroke="#191970" points="124.7371,-23.8271 115.0036,-19.6427 120.0032,-28.9837 124.7371,-23.8271"/>
</g>
<!-- Node4 -->
<g id="node5" class="node">
<title>Node4</title>
<polygon fill="#ffffff" stroke="#bfbfbf" points="176.5,-.5 176.5,-19.5 276.5,-19.5 276.5,-.5 176.5,-.5"/>
<text text-anchor="middle" x="226.5" y="-7.5" font-family="Helvetica,sans-Serif" font-size="10.00" fill="#000000">odp/visibility_end.h</text>
</g>
<!-- Node2&#45;&gt;Node4 -->
<g id="edge4" class="edge">
<title>Node2&#45;&gt;Node4</title>
<path fill="none" stroke="#191970" d="M176.1254,-56.2455C185.0473,-48.0549 197.988,-36.1749 208.5192,-26.5069"/>
<polygon fill="#191970" stroke="#191970" points="210.9968,-28.9837 215.9964,-19.6427 206.2629,-23.8271 210.9968,-28.9837"/>
</g>
</g>
</svg>
