<?xml version="1.0" encoding="UTF-8" standalone="no"?>
<!DOCTYPE svg PUBLIC "-//W3C//DTD SVG 1.1//EN"
 "http://www.w3.org/Graphics/SVG/1.1/DTD/svg11.dtd">
<!-- Generated by graphviz version 2.40.1 (20161225.0304)
 -->
<!-- Title: byteorder.h Pages: 1 -->
<svg width="315pt" height="140pt"
 viewBox="0.00 0.00 315.00 140.00" xmlns="http://www.w3.org/2000/svg" xmlns:xlink="http://www.w3.org/1999/xlink">
<g id="graph0" class="graph" transform="scale(1 1) rotate(0) translate(4 136)">
<title>byteorder.h</title>
<polygon fill="#ffffff" stroke="transparent" points="-4,4 -4,-136 311,-136 311,4 -4,4"/>
<!-- Node0 -->
<g id="node1" class="node">
<title>Node0</title>
<polygon fill="#bfbfbf" stroke="#000000" points="94.5,-112.5 94.5,-131.5 159.5,-131.5 159.5,-112.5 94.5,-112.5"/>
<text text-anchor="middle" x="127" y="-119.5" font-family="Helvetica,sans-Serif" font-size="10.00" fill="#000000">byteorder.h</text>
</g>
<!-- Node1 -->
<g id="node2" class="node">
<title>Node1</title>
<polygon fill="#ffffff" stroke="#bfbfbf" points="0,-56.5 0,-75.5 116,-75.5 116,-56.5 0,-56.5"/>
<text text-anchor="middle" x="58" y="-63.5" font-family="Helvetica,sans-Serif" font-size="10.00" fill="#000000">odp/api/abi/byteorder.h</text>
</g>
<!-- Node0&#45;&gt;Node1 -->
<g id="edge1" class="edge">
<title>Node0&#45;&gt;Node1</title>
<path fill="none" stroke="#191970" d="M114.9811,-112.2455C104.7902,-103.9746 89.9638,-91.9416 77.9893,-82.2232"/>
<polygon fill="#191970" stroke="#191970" points="79.8514,-79.2268 69.8812,-75.6427 75.4402,-84.662 79.8514,-79.2268"/>
</g>
<!-- Node2 -->
<g id="node3" class="node">
<title>Node2</title>
<g id="a_node3"><a xlink:href="spec_2byteorder_8h.html" target="_top" xlink:title="ODP byteorder. ">
<polygon fill="#ffffff" stroke="#000000" points="134,-56.5 134,-75.5 258,-75.5 258,-56.5 134,-56.5"/>
<text text-anchor="middle" x="196" y="-63.5" font-family="Helvetica,sans-Serif" font-size="10.00" fill="#000000">odp/api/spec/byteorder.h</text>
</a>
</g>
</g>
<!-- Node0&#45;&gt;Node2 -->
<g id="edge2" class="edge">
<title>Node0&#45;&gt;Node2</title>
<path fill="none" stroke="#191970" d="M139.0189,-112.2455C149.2098,-103.9746 164.0362,-91.9416 176.0107,-82.2232"/>
<polygon fill="#191970" stroke="#191970" points="178.5598,-84.662 184.1188,-75.6427 174.1486,-79.2268 178.5598,-84.662"/>
</g>
<!-- Node3 -->
<g id="node4" class="node">
<title>Node3</title>
<polygon fill="#ffffff" stroke="#bfbfbf" points="81.5,-.5 81.5,-19.5 188.5,-19.5 188.5,-.5 81.5,-.5"/>
<text text-anchor="middle" x="135" y="-7.5" font-family="Helvetica,sans-Serif" font-size="10.00" fill="#000000">odp/visibility_begin.h</text>
</g>
<!-- Node2&#45;&gt;Node3 -->
<g id="edge3" class="edge">
<title>Node2&#45;&gt;Node3</title>
<path fill="none" stroke="#191970" d="M185.3746,-56.2455C176.4527,-48.0549 163.512,-36.1749 152.9808,-26.5069"/>
<polygon fill="#191970" stroke="#191970" points="155.2371,-23.8271 145.5036,-19.6427 150.5032,-28.9837 155.2371,-23.8271"/>
</g>
<!-- Node4 -->
<g id="node5" class="node">
<title>Node4</title>
<polygon fill="#ffffff" stroke="#bfbfbf" points="207,-.5 207,-19.5 307,-19.5 307,-.5 207,-.5"/>
<text text-anchor="middle" x="257" y="-7.5" font-family="Helvetica,sans-Serif" font-size="10.00" fill="#000000">odp/visibility_end.h</text>
</g>
<!-- Node2&#45;&gt;Node4 -->
<g id="edge4" class="edge">
<title>Node2&#45;&gt;Node4</title>
<path fill="none" stroke="#191970" d="M206.6254,-56.2455C215.5473,-48.0549 228.488,-36.1749 239.0192,-26.5069"/>
<polygon fill="#191970" stroke="#191970" points="241.4968,-28.9837 246.4964,-19.6427 236.7629,-23.8271 241.4968,-28.9837"/>
</g>
</g>
</svg>
