<?xml version="1.0" encoding="UTF-8" standalone="no"?>
<!DOCTYPE svg PUBLIC "-//W3C//DTD SVG 1.1//EN"
 "http://www.w3.org/Graphics/SVG/1.1/DTD/svg11.dtd">
<!-- Generated by graphviz version 2.40.1 (20161225.0304)
 -->
<!-- Title: event.h Pages: 1 -->
<svg width="934pt" height="532pt"
 viewBox="0.00 0.00 933.50 532.00" xmlns="http://www.w3.org/2000/svg" xmlns:xlink="http://www.w3.org/1999/xlink">
<g id="graph0" class="graph" transform="scale(1 1) rotate(0) translate(4 528)">
<title>event.h</title>
<polygon fill="#ffffff" stroke="transparent" points="-4,4 -4,-528 929.5,-528 929.5,4 -4,4"/>
<!-- Node0 -->
<g id="node1" class="node">
<title>Node0</title>
<polygon fill="#bfbfbf" stroke="#000000" points="86,-504.5 86,-523.5 135,-523.5 135,-504.5 86,-504.5"/>
<text text-anchor="middle" x="110.5" y="-511.5" font-family="Helvetica,sans-Serif" font-size="10.00" fill="#000000">event.h</text>
</g>
<!-- Node1 -->
<g id="node2" class="node">
<title>Node1</title>
<polygon fill="#ffffff" stroke="#bfbfbf" points="0,-336.5 0,-355.5 99,-355.5 99,-336.5 0,-336.5"/>
<text text-anchor="middle" x="49.5" y="-343.5" font-family="Helvetica,sans-Serif" font-size="10.00" fill="#000000">odp/api/abi/event.h</text>
</g>
<!-- Node0&#45;&gt;Node1 -->
<g id="edge1" class="edge">
<title>Node0&#45;&gt;Node1</title>
<path fill="none" stroke="#191970" d="M107.0456,-504.4862C97.3194,-477.6994 69.5634,-401.2565 56.4819,-365.2289"/>
<polygon fill="#191970" stroke="#191970" points="59.7713,-364.0329 53.0685,-355.8279 53.1916,-366.422 59.7713,-364.0329"/>
</g>
<!-- Node2 -->
<g id="node3" class="node">
<title>Node2</title>
<g id="a_node3"><a xlink:href="spec_2event_8h.html" target="_top" xlink:title="ODP event. ">
<polygon fill="#ffffff" stroke="#000000" points="184,-448.5 184,-467.5 291,-467.5 291,-448.5 184,-448.5"/>
<text text-anchor="middle" x="237.5" y="-455.5" font-family="Helvetica,sans-Serif" font-size="10.00" fill="#000000">odp/api/spec/event.h</text>
</a>
</g>
</g>
<!-- Node0&#45;&gt;Node2 -->
<g id="edge2" class="edge">
<title>Node0&#45;&gt;Node2</title>
<path fill="none" stroke="#191970" d="M132.3321,-504.3733C152.8103,-495.3435 183.6399,-481.7494 206.6319,-471.6111"/>
<polygon fill="#191970" stroke="#191970" points="208.215,-474.7383 215.9528,-467.5011 205.3907,-468.3333 208.215,-474.7383"/>
</g>
<!-- Node3 -->
<g id="node4" class="node">
<title>Node3</title>
<polygon fill="#ffffff" stroke="#bfbfbf" points="755,-.5 755,-19.5 862,-19.5 862,-.5 755,-.5"/>
<text text-anchor="middle" x="808.5" y="-7.5" font-family="Helvetica,sans-Serif" font-size="10.00" fill="#000000">odp/visibility_begin.h</text>
</g>
<!-- Node2&#45;&gt;Node3 -->
<g id="edge3" class="edge">
<title>Node2&#45;&gt;Node3</title>
<path fill="none" stroke="#191970" d="M291.1996,-454.9135C453.1192,-444.8973 925.5,-410.1767 925.5,-346 925.5,-346 925.5,-346 925.5,-122 925.5,-74.9642 875.5472,-41.5778 840.9211,-24.0853"/>
<polygon fill="#191970" stroke="#191970" points="842.1407,-20.787 831.6154,-19.5748 839.0875,-27.0861 842.1407,-20.787"/>
</g>
<!-- Node4 -->
<g id="node5" class="node">
<title>Node4</title>
<g id="a_node5"><a xlink:href="packet_8h.html" target="_top" xlink:title="ODP packet descriptor. ">
<polygon fill="#ffffff" stroke="#000000" points="339,-392.5 339,-411.5 428,-411.5 428,-392.5 339,-392.5"/>
<text text-anchor="middle" x="383.5" y="-399.5" font-family="Helvetica,sans-Serif" font-size="10.00" fill="#000000">odp/api/packet.h</text>
</a>
</g>
</g>
<!-- Node2&#45;&gt;Node4 -->
<g id="edge4" class="edge">
<title>Node2&#45;&gt;Node4</title>
<path fill="none" stroke="#191970" d="M262.5983,-448.3733C286.4555,-439.2226 322.5335,-425.3844 349.071,-415.2057"/>
<polygon fill="#191970" stroke="#191970" points="350.6459,-418.3503 358.7292,-411.5011 348.139,-411.8145 350.6459,-418.3503"/>
</g>
<!-- Node12 -->
<g id="node13" class="node">
<title>Node12</title>
<polygon fill="#ffffff" stroke="#bfbfbf" points="405.5,-.5 405.5,-19.5 505.5,-19.5 505.5,-.5 405.5,-.5"/>
<text text-anchor="middle" x="455.5" y="-7.5" font-family="Helvetica,sans-Serif" font-size="10.00" fill="#000000">odp/visibility_end.h</text>
</g>
<!-- Node2&#45;&gt;Node12 -->
<g id="edge30" class="edge">
<title>Node2&#45;&gt;Node12</title>
<path fill="none" stroke="#191970" d="M216.5509,-448.4375C184.6354,-432.2626 127.5,-396.284 127.5,-346 127.5,-346 127.5,-346 127.5,-122 127.5,-66.0473 300.5998,-32.2821 395.2995,-17.9964"/>
<polygon fill="#191970" stroke="#191970" points="395.9471,-21.4388 405.3268,-16.5123 394.9221,-14.5142 395.9471,-21.4388"/>
</g>
<!-- Node4&#45;&gt;Node1 -->
<g id="edge16" class="edge">
<title>Node4&#45;&gt;Node1</title>
<path fill="none" stroke="#191970" d="M338.8018,-394.5057C279.6616,-384.59 175.2234,-367.0794 109.329,-356.0312"/>
<polygon fill="#191970" stroke="#191970" points="109.5383,-352.5175 99.0972,-354.3157 108.3807,-359.4212 109.5383,-352.5175"/>
</g>
<!-- Node5 -->
<g id="node6" class="node">
<title>Node5</title>
<g id="a_node6"><a xlink:href="std__types_8h.html" target="_top" xlink:title="Standard C language types and definitions for ODP. ">
<polygon fill="#ffffff" stroke="#000000" points="542.5,-224.5 542.5,-243.5 644.5,-243.5 644.5,-224.5 542.5,-224.5"/>
<text text-anchor="middle" x="593.5" y="-231.5" font-family="Helvetica,sans-Serif" font-size="10.00" fill="#000000">odp/api/std_types.h</text>
</a>
</g>
</g>
<!-- Node4&#45;&gt;Node5 -->
<g id="edge5" class="edge">
<title>Node4&#45;&gt;Node5</title>
<path fill="none" stroke="#191970" d="M390.8545,-392.3633C401.4176,-378.8721 421.8915,-353.9919 442.5,-336 482.8871,-300.7407 535.975,-267.4646 567.2495,-248.9976"/>
<polygon fill="#191970" stroke="#191970" points="569.3496,-251.8242 576.2168,-243.7562 565.8172,-245.7808 569.3496,-251.8242"/>
</g>
<!-- Node13 -->
<g id="node14" class="node">
<title>Node13</title>
<polygon fill="#ffffff" stroke="#bfbfbf" points="156,-336.5 156,-355.5 273,-355.5 273,-336.5 156,-336.5"/>
<text text-anchor="middle" x="214.5" y="-343.5" font-family="Helvetica,sans-Serif" font-size="10.00" fill="#000000">odp/api/abi/packet_io.h</text>
</g>
<!-- Node4&#45;&gt;Node13 -->
<g id="edge17" class="edge">
<title>Node4&#45;&gt;Node13</title>
<path fill="none" stroke="#191970" d="M354.4479,-392.3733C326.3457,-383.0613 283.5946,-368.8953 252.7393,-358.671"/>
<polygon fill="#191970" stroke="#191970" points="253.7664,-355.3243 243.173,-355.5011 251.5645,-361.969 253.7664,-355.3243"/>
</g>
<!-- Node14 -->
<g id="node15" class="node">
<title>Node14</title>
<polygon fill="#ffffff" stroke="#bfbfbf" points="291.5,-336.5 291.5,-355.5 395.5,-355.5 395.5,-336.5 291.5,-336.5"/>
<text text-anchor="middle" x="343.5" y="-343.5" font-family="Helvetica,sans-Serif" font-size="10.00" fill="#000000">odp/api/abi/packet.h</text>
</g>
<!-- Node4&#45;&gt;Node14 -->
<g id="edge18" class="edge">
<title>Node4&#45;&gt;Node14</title>
<path fill="none" stroke="#191970" d="M376.5325,-392.2455C370.9689,-384.4564 363.022,-373.3308 356.3171,-363.9439"/>
<polygon fill="#191970" stroke="#191970" points="359.0481,-361.7457 350.3876,-355.6427 353.352,-365.8144 359.0481,-361.7457"/>
</g>
<!-- Node15 -->
<g id="node16" class="node">
<title>Node15</title>
<polygon fill="#ffffff" stroke="#bfbfbf" points="451.5,-336.5 451.5,-355.5 551.5,-355.5 551.5,-336.5 451.5,-336.5"/>
<text text-anchor="middle" x="501.5" y="-343.5" font-family="Helvetica,sans-Serif" font-size="10.00" fill="#000000">odp/api/abi/buffer.h</text>
</g>
<!-- Node4&#45;&gt;Node15 -->
<g id="edge19" class="edge">
<title>Node4&#45;&gt;Node15</title>
<path fill="none" stroke="#191970" d="M403.7849,-392.3733C422.6421,-383.4241 450.946,-369.9917 472.2455,-359.8835"/>
<polygon fill="#191970" stroke="#191970" points="473.9461,-362.9506 481.4798,-355.5011 470.9449,-356.6266 473.9461,-362.9506"/>
</g>
<!-- Node16 -->
<g id="node17" class="node">
<title>Node16</title>
<polygon fill="#ffffff" stroke="#bfbfbf" points="570,-336.5 570,-355.5 663,-355.5 663,-336.5 570,-336.5"/>
<text text-anchor="middle" x="616.5" y="-343.5" font-family="Helvetica,sans-Serif" font-size="10.00" fill="#000000">odp/api/abi/pool.h</text>
</g>
<!-- Node4&#45;&gt;Node16 -->
<g id="edge20" class="edge">
<title>Node4&#45;&gt;Node16</title>
<path fill="none" stroke="#191970" d="M423.2894,-392.4369C462.998,-382.8932 524.1104,-368.2052 566.9455,-357.9101"/>
<polygon fill="#191970" stroke="#191970" points="567.9695,-361.2637 576.8747,-355.5237 566.3337,-354.4575 567.9695,-361.2637"/>
</g>
<!-- Node17 -->
<g id="node18" class="node">
<title>Node17</title>
<g id="a_node18"><a xlink:href="spec_2packet_8h.html" target="_top" xlink:title="ODP packet descriptor. ">
<polygon fill="#ffffff" stroke="#000000" points="681,-336.5 681,-355.5 794,-355.5 794,-336.5 681,-336.5"/>
<text text-anchor="middle" x="737.5" y="-343.5" font-family="Helvetica,sans-Serif" font-size="10.00" fill="#000000">odp/api/spec/packet.h</text>
</a>
</g>
</g>
<!-- Node4&#45;&gt;Node17 -->
<g id="edge21" class="edge">
<title>Node4&#45;&gt;Node17</title>
<path fill="none" stroke="#191970" d="M428.3343,-394.9076C489.5121,-385.2297 599.6311,-367.8098 670.5928,-356.5842"/>
<polygon fill="#191970" stroke="#191970" points="671.4377,-359.9941 680.768,-354.9746 670.3439,-353.0801 671.4377,-359.9941"/>
</g>
<!-- Node6 -->
<g id="node7" class="node">
<title>Node6</title>
<polygon fill="#ffffff" stroke="#bfbfbf" points="447.5,-168.5 447.5,-187.5 565.5,-187.5 565.5,-168.5 447.5,-168.5"/>
<text text-anchor="middle" x="506.5" y="-175.5" font-family="Helvetica,sans-Serif" font-size="10.00" fill="#000000">odp/api/abi/std_types.h</text>
</g>
<!-- Node5&#45;&gt;Node6 -->
<g id="edge6" class="edge">
<title>Node5&#45;&gt;Node6</title>
<path fill="none" stroke="#191970" d="M578.3458,-224.2455C564.9973,-215.6534 545.3414,-203.0014 529.9617,-193.1018"/>
<polygon fill="#191970" stroke="#191970" points="531.7836,-190.1121 521.4806,-187.6427 527.9949,-195.9982 531.7836,-190.1121"/>
</g>
<!-- Node7 -->
<g id="node8" class="node">
<title>Node7</title>
<g id="a_node8"><a xlink:href="spec_2std__types_8h.html" target="_top" xlink:title="Standard C language types and definitions for ODP. ">
<polygon fill="#ffffff" stroke="#000000" points="583.5,-168.5 583.5,-187.5 709.5,-187.5 709.5,-168.5 583.5,-168.5"/>
<text text-anchor="middle" x="646.5" y="-175.5" font-family="Helvetica,sans-Serif" font-size="10.00" fill="#000000">odp/api/spec/std_types.h</text>
</a>
</g>
</g>
<!-- Node5&#45;&gt;Node7 -->
<g id="edge7" class="edge">
<title>Node5&#45;&gt;Node7</title>
<path fill="none" stroke="#191970" d="M602.7319,-224.2455C610.3317,-216.2155 621.2877,-204.6394 630.3368,-195.0781"/>
<polygon fill="#191970" stroke="#191970" points="633.0421,-197.3115 637.3739,-187.6427 627.958,-192.4998 633.0421,-197.3115"/>
</g>
<!-- Node7&#45;&gt;Node3 -->
<g id="edge8" class="edge">
<title>Node7&#45;&gt;Node3</title>
<path fill="none" stroke="#191970" d="M658.3253,-168.4521C668.9319,-159.5902 684.6108,-145.7334 696.5,-132 723.2878,-101.0569 720.3522,-85.7113 748.5,-56 759.3623,-44.5344 773.2691,-33.6844 784.9586,-25.4044"/>
<polygon fill="#191970" stroke="#191970" points="787.1275,-28.1605 793.3783,-19.606 783.1572,-22.3953 787.1275,-28.1605"/>
</g>
<!-- Node8 -->
<g id="node9" class="node">
<title>Node8</title>
<polygon fill="#ffffff" stroke="#bfbfbf" points="540,-112.5 540,-131.5 589,-131.5 589,-112.5 540,-112.5"/>
<text text-anchor="middle" x="564.5" y="-119.5" font-family="Helvetica,sans-Serif" font-size="10.00" fill="#000000">stdint.h</text>
</g>
<!-- Node7&#45;&gt;Node8 -->
<g id="edge9" class="edge">
<title>Node7&#45;&gt;Node8</title>
<path fill="none" stroke="#191970" d="M632.2167,-168.2455C619.753,-159.7337 601.4549,-147.2375 587.0208,-137.3801"/>
<polygon fill="#191970" stroke="#191970" points="588.8515,-134.392 578.6196,-131.6427 584.9038,-140.1726 588.8515,-134.392"/>
</g>
<!-- Node9 -->
<g id="node10" class="node">
<title>Node9</title>
<g id="a_node10"><a xlink:href="align_8h.html" target="_top" xlink:title="ODP alignments. ">
<polygon fill="#ffffff" stroke="#000000" points="607.5,-112.5 607.5,-131.5 687.5,-131.5 687.5,-112.5 607.5,-112.5"/>
<text text-anchor="middle" x="647.5" y="-119.5" font-family="Helvetica,sans-Serif" font-size="10.00" fill="#000000">odp/api/align.h</text>
</a>
</g>
</g>
<!-- Node7&#45;&gt;Node9 -->
<g id="edge10" class="edge">
<title>Node7&#45;&gt;Node9</title>
<path fill="none" stroke="#191970" d="M646.6742,-168.2455C646.8047,-160.9382 646.9876,-150.6944 647.1481,-141.7046"/>
<polygon fill="#191970" stroke="#191970" points="650.6486,-141.7036 647.3278,-131.6427 643.6497,-141.5786 650.6486,-141.7036"/>
</g>
<!-- Node7&#45;&gt;Node12 -->
<g id="edge15" class="edge">
<title>Node7&#45;&gt;Node12</title>
<path fill="none" stroke="#191970" d="M612.2446,-168.4862C588.1621,-160.8545 555.8459,-148.6589 530.5,-132 501.0863,-112.6675 492.3803,-106.3184 474.5,-76 466.0768,-61.7174 461.1983,-43.4765 458.4989,-29.7922"/>
<polygon fill="#191970" stroke="#191970" points="461.8799,-28.8061 456.714,-19.556 454.9839,-30.0086 461.8799,-28.8061"/>
</g>
<!-- Node10 -->
<g id="node11" class="node">
<title>Node10</title>
<polygon fill="#ffffff" stroke="#bfbfbf" points="484,-56.5 484,-75.5 579,-75.5 579,-56.5 484,-56.5"/>
<text text-anchor="middle" x="531.5" y="-63.5" font-family="Helvetica,sans-Serif" font-size="10.00" fill="#000000">odp/api/abi/align.h</text>
</g>
<!-- Node9&#45;&gt;Node10 -->
<g id="edge11" class="edge">
<title>Node9&#45;&gt;Node10</title>
<path fill="none" stroke="#191970" d="M627.5589,-112.3733C609.0214,-103.4241 581.1972,-89.9917 560.2587,-79.8835"/>
<polygon fill="#191970" stroke="#191970" points="561.7081,-76.6967 551.1809,-75.5011 558.6648,-83.0006 561.7081,-76.6967"/>
</g>
<!-- Node11 -->
<g id="node12" class="node">
<title>Node11</title>
<g id="a_node12"><a xlink:href="spec_2align_8h.html" target="_top" xlink:title="ODP alignments. ">
<polygon fill="#ffffff" stroke="#000000" points="597.5,-56.5 597.5,-75.5 701.5,-75.5 701.5,-56.5 597.5,-56.5"/>
<text text-anchor="middle" x="649.5" y="-63.5" font-family="Helvetica,sans-Serif" font-size="10.00" fill="#000000">odp/api/spec/align.h</text>
</a>
</g>
</g>
<!-- Node9&#45;&gt;Node11 -->
<g id="edge12" class="edge">
<title>Node9&#45;&gt;Node11</title>
<path fill="none" stroke="#191970" d="M647.8484,-112.2455C648.1093,-104.9382 648.4752,-94.6944 648.7963,-85.7046"/>
<polygon fill="#191970" stroke="#191970" points="652.2964,-85.7613 649.1556,-75.6427 645.3008,-85.5113 652.2964,-85.7613"/>
</g>
<!-- Node11&#45;&gt;Node3 -->
<g id="edge13" class="edge">
<title>Node11&#45;&gt;Node3</title>
<path fill="none" stroke="#191970" d="M676.8331,-56.3733C703.0434,-47.1419 742.7984,-33.1402 771.7668,-22.9375"/>
<polygon fill="#191970" stroke="#191970" points="773.2542,-26.1244 781.5236,-19.5011 770.9288,-19.5219 773.2542,-26.1244"/>
</g>
<!-- Node11&#45;&gt;Node12 -->
<g id="edge14" class="edge">
<title>Node11&#45;&gt;Node12</title>
<path fill="none" stroke="#191970" d="M616.1502,-56.3733C583.472,-46.9404 533.5382,-32.5265 498.023,-22.2747"/>
<polygon fill="#191970" stroke="#191970" points="498.993,-18.9119 488.4146,-19.5011 497.0516,-25.6373 498.993,-18.9119"/>
</g>
<!-- Node17&#45;&gt;Node3 -->
<g id="edge22" class="edge">
<title>Node17&#45;&gt;Node3</title>
<path fill="none" stroke="#191970" d="M773.4287,-336.4171C817.8049,-322.149 887.5,-290.7126 887.5,-234 887.5,-234 887.5,-234 887.5,-122 887.5,-91.4754 885.6979,-81.2188 868.5,-56 859.9551,-43.4699 846.9005,-32.8796 835.1479,-25.0308"/>
<polygon fill="#191970" stroke="#191970" points="836.8347,-21.9566 826.5107,-19.5764 833.0971,-27.8752 836.8347,-21.9566"/>
</g>
<!-- Node17&#45;&gt;Node12 -->
<g id="edge29" class="edge">
<title>Node17&#45;&gt;Node12</title>
<path fill="none" stroke="#191970" d="M686.7712,-336.4825C616.0455,-320.1402 490.6348,-279.2506 438.5,-188 409.192,-136.7026 432.8547,-63.3023 446.9277,-29.0118"/>
<polygon fill="#191970" stroke="#191970" points="450.199,-30.2638 450.9181,-19.6934 443.7641,-27.5082 450.199,-30.2638"/>
</g>
<!-- Node18 -->
<g id="node19" class="node">
<title>Node18</title>
<g id="a_node19"><a xlink:href="time_8h.html" target="_top" xlink:title="ODP time. ">
<polygon fill="#ffffff" stroke="#000000" points="698.5,-280.5 698.5,-299.5 776.5,-299.5 776.5,-280.5 698.5,-280.5"/>
<text text-anchor="middle" x="737.5" y="-287.5" font-family="Helvetica,sans-Serif" font-size="10.00" fill="#000000">odp/api/time.h</text>
</a>
</g>
</g>
<!-- Node17&#45;&gt;Node18 -->
<g id="edge23" class="edge">
<title>Node17&#45;&gt;Node18</title>
<path fill="none" stroke="#191970" d="M737.5,-336.2455C737.5,-328.9382 737.5,-318.6944 737.5,-309.7046"/>
<polygon fill="#191970" stroke="#191970" points="741.0001,-309.6426 737.5,-299.6427 734.0001,-309.6427 741.0001,-309.6426"/>
</g>
<!-- Node18&#45;&gt;Node5 -->
<g id="edge24" class="edge">
<title>Node18&#45;&gt;Node5</title>
<path fill="none" stroke="#191970" d="M712.7455,-280.3733C689.2151,-271.2226 653.6313,-257.3844 627.4574,-247.2057"/>
<polygon fill="#191970" stroke="#191970" points="628.5201,-243.8636 617.9315,-243.5011 625.9829,-250.3877 628.5201,-243.8636"/>
</g>
<!-- Node19 -->
<g id="node20" class="node">
<title>Node19</title>
<polygon fill="#ffffff" stroke="#bfbfbf" points="765.5,-224.5 765.5,-243.5 859.5,-243.5 859.5,-224.5 765.5,-224.5"/>
<text text-anchor="middle" x="812.5" y="-231.5" font-family="Helvetica,sans-Serif" font-size="10.00" fill="#000000">odp/api/abi/time.h</text>
</g>
<!-- Node18&#45;&gt;Node19 -->
<g id="edge25" class="edge">
<title>Node18&#45;&gt;Node19</title>
<path fill="none" stroke="#191970" d="M750.564,-280.2455C761.8562,-271.814 778.3845,-259.4729 791.5271,-249.6598"/>
<polygon fill="#191970" stroke="#191970" points="793.6669,-252.4301 799.5857,-243.6427 789.4789,-246.8211 793.6669,-252.4301"/>
</g>
<!-- Node20 -->
<g id="node21" class="node">
<title>Node20</title>
<g id="a_node21"><a xlink:href="spec_2time_8h.html" target="_top" xlink:title="ODP time. ">
<polygon fill="#ffffff" stroke="#000000" points="757.5,-56.5 757.5,-75.5 859.5,-75.5 859.5,-56.5 757.5,-56.5"/>
<text text-anchor="middle" x="808.5" y="-63.5" font-family="Helvetica,sans-Serif" font-size="10.00" fill="#000000">odp/api/spec/time.h</text>
</a>
</g>
</g>
<!-- Node18&#45;&gt;Node20 -->
<g id="edge26" class="edge">
<title>Node18&#45;&gt;Node20</title>
<path fill="none" stroke="#191970" d="M740.2175,-280.1257C743.8058,-267.1913 750.3861,-243.8259 756.5,-224 772.0371,-173.6164 791.8619,-114.7331 801.9556,-85.1016"/>
<polygon fill="#191970" stroke="#191970" points="805.2882,-86.1726 805.208,-75.5781 798.6639,-83.9102 805.2882,-86.1726"/>
</g>
<!-- Node20&#45;&gt;Node3 -->
<g id="edge27" class="edge">
<title>Node20&#45;&gt;Node3</title>
<path fill="none" stroke="#191970" d="M808.5,-56.2455C808.5,-48.9382 808.5,-38.6944 808.5,-29.7046"/>
<polygon fill="#191970" stroke="#191970" points="812.0001,-29.6426 808.5,-19.6427 805.0001,-29.6427 812.0001,-29.6426"/>
</g>
<!-- Node20&#45;&gt;Node12 -->
<g id="edge28" class="edge">
<title>Node20&#45;&gt;Node12</title>
<path fill="none" stroke="#191970" d="M757.1708,-57.8571C693.1485,-47.7006 583.8564,-30.3625 515.8787,-19.5785"/>
<polygon fill="#191970" stroke="#191970" points="516.1731,-16.0815 505.7482,-17.9714 515.0763,-22.9951 516.1731,-16.0815"/>
</g>
</g>
</svg>
