<?xml version="1.0" encoding="UTF-8" standalone="no"?>
<!DOCTYPE svg PUBLIC "-//W3C//DTD SVG 1.1//EN"
 "http://www.w3.org/Graphics/SVG/1.1/DTD/svg11.dtd">
<!-- Generated by graphviz version 2.40.1 (20161225.0304)
 -->
<!-- Title: packet_flags.h Pages: 1 -->
<svg width="872pt" height="543pt"
 viewBox="0.00 0.00 872.00 543.00" xmlns="http://www.w3.org/2000/svg" xmlns:xlink="http://www.w3.org/1999/xlink">
<g id="graph0" class="graph" transform="scale(1 1) rotate(0) translate(4 539)">
<title>packet_flags.h</title>
<polygon fill="#ffffff" stroke="transparent" points="-4,4 -4,-539 868,-539 868,4 -4,4"/>
<!-- Node0 -->
<g id="node1" class="node">
<title>Node0</title>
<polygon fill="#bfbfbf" stroke="#000000" points="67,-515.5 67,-534.5 147,-534.5 147,-515.5 67,-515.5"/>
<text text-anchor="middle" x="107" y="-522.5" font-family="Helvetica,sans-Serif" font-size="10.00" fill="#000000">packet_flags.h</text>
</g>
<!-- Node1 -->
<g id="node2" class="node">
<title>Node1</title>
<polygon fill="#ffffff" stroke="#bfbfbf" points="0,-448.5 0,-478.5 96,-478.5 96,-448.5 0,-448.5"/>
<text text-anchor="start" x="8" y="-466.5" font-family="Helvetica,sans-Serif" font-size="10.00" fill="#000000">odp/api/abi/packet</text>
<text text-anchor="middle" x="48" y="-455.5" font-family="Helvetica,sans-Serif" font-size="10.00" fill="#000000">_flags.h</text>
</g>
<!-- Node0&#45;&gt;Node1 -->
<g id="edge1" class="edge">
<title>Node0&#45;&gt;Node1</title>
<path fill="none" stroke="#191970" d="M97.7813,-515.3906C90.2399,-507.5298 79.2713,-496.0964 69.5482,-485.9612"/>
<polygon fill="#191970" stroke="#191970" points="71.8816,-483.3378 62.433,-478.5446 66.8302,-488.1839 71.8816,-483.3378"/>
</g>
<!-- Node2 -->
<g id="node3" class="node">
<title>Node2</title>
<g id="a_node3"><a xlink:href="spec_2packet__flags_8h.html" target="_top" xlink:title="ODP packet flags. ">
<polygon fill="#ffffff" stroke="#000000" points="114,-448.5 114,-478.5 218,-478.5 218,-448.5 114,-448.5"/>
<text text-anchor="start" x="122" y="-466.5" font-family="Helvetica,sans-Serif" font-size="10.00" fill="#000000">odp/api/spec/packet</text>
<text text-anchor="middle" x="166" y="-455.5" font-family="Helvetica,sans-Serif" font-size="10.00" fill="#000000">_flags.h</text>
</a>
</g>
</g>
<!-- Node0&#45;&gt;Node2 -->
<g id="edge2" class="edge">
<title>Node0&#45;&gt;Node2</title>
<path fill="none" stroke="#191970" d="M116.2188,-515.3906C123.7601,-507.5298 134.7287,-496.0964 144.4518,-485.9612"/>
<polygon fill="#191970" stroke="#191970" points="147.1698,-488.1839 151.567,-478.5446 142.1184,-483.3378 147.1698,-488.1839"/>
</g>
<!-- Node3 -->
<g id="node4" class="node">
<title>Node3</title>
<polygon fill="#ffffff" stroke="#bfbfbf" points="466.5,-.5 466.5,-19.5 573.5,-19.5 573.5,-.5 466.5,-.5"/>
<text text-anchor="middle" x="520" y="-7.5" font-family="Helvetica,sans-Serif" font-size="10.00" fill="#000000">odp/visibility_begin.h</text>
</g>
<!-- Node2&#45;&gt;Node3 -->
<g id="edge3" class="edge">
<title>Node2&#45;&gt;Node3</title>
<path fill="none" stroke="#191970" d="M218.178,-460.2261C380.224,-449.3695 864,-411.475 864,-346 864,-346 864,-346 864,-122 864,-63.7064 683.1363,-31.0641 583.6966,-17.5225"/>
<polygon fill="#191970" stroke="#191970" points="584.1252,-14.0487 573.75,-16.1946 583.1989,-20.9872 584.1252,-14.0487"/>
</g>
<!-- Node4 -->
<g id="node5" class="node">
<title>Node4</title>
<g id="a_node5"><a xlink:href="std__types_8h.html" target="_top" xlink:title="Standard C language types and definitions for ODP. ">
<polygon fill="#ffffff" stroke="#000000" points="169,-224.5 169,-243.5 271,-243.5 271,-224.5 169,-224.5"/>
<text text-anchor="middle" x="220" y="-231.5" font-family="Helvetica,sans-Serif" font-size="10.00" fill="#000000">odp/api/std_types.h</text>
</a>
</g>
</g>
<!-- Node2&#45;&gt;Node4 -->
<g id="edge4" class="edge">
<title>Node2&#45;&gt;Node4</title>
<path fill="none" stroke="#191970" d="M149.7298,-448.256C127.4658,-425.5221 91.0065,-380.6114 98,-336 102.0489,-310.1724 98.5139,-299.4343 116,-280 129.9439,-264.5025 150.079,-253.9634 168.9254,-246.9289"/>
<polygon fill="#191970" stroke="#191970" points="170.3246,-250.1482 178.6237,-243.5622 168.0289,-243.5353 170.3246,-250.1482"/>
</g>
<!-- Node11 -->
<g id="node12" class="node">
<title>Node11</title>
<polygon fill="#ffffff" stroke="#bfbfbf" points="117,-.5 117,-19.5 217,-19.5 217,-.5 117,-.5"/>
<text text-anchor="middle" x="167" y="-7.5" font-family="Helvetica,sans-Serif" font-size="10.00" fill="#000000">odp/visibility_end.h</text>
</g>
<!-- Node2&#45;&gt;Node11 -->
<g id="edge31" class="edge">
<title>Node2&#45;&gt;Node11</title>
<path fill="none" stroke="#191970" d="M117.3915,-448.4235C73.2494,-431.3505 15,-398.8151 15,-346 15,-346 15,-346 15,-122 15,-68.8635 75.9479,-38.1127 120.6564,-22.7035"/>
<polygon fill="#191970" stroke="#191970" points="121.8031,-26.0108 130.205,-19.5566 119.612,-19.3626 121.8031,-26.0108"/>
</g>
<!-- Node12 -->
<g id="node13" class="node">
<title>Node12</title>
<g id="a_node13"><a xlink:href="packet_8h.html" target="_top" xlink:title="ODP packet descriptor. ">
<polygon fill="#ffffff" stroke="#000000" points="298.5,-392.5 298.5,-411.5 387.5,-411.5 387.5,-392.5 298.5,-392.5"/>
<text text-anchor="middle" x="343" y="-399.5" font-family="Helvetica,sans-Serif" font-size="10.00" fill="#000000">odp/api/packet.h</text>
</a>
</g>
</g>
<!-- Node2&#45;&gt;Node12 -->
<g id="edge15" class="edge">
<title>Node2&#45;&gt;Node12</title>
<path fill="none" stroke="#191970" d="M209.2991,-448.4554C238.9615,-438.149 277.8845,-424.6249 306.0788,-414.8286"/>
<polygon fill="#191970" stroke="#191970" points="307.274,-418.1186 315.5713,-411.5303 304.9765,-411.5064 307.274,-418.1186"/>
</g>
<!-- Node5 -->
<g id="node6" class="node">
<title>Node5</title>
<polygon fill="#ffffff" stroke="#bfbfbf" points="301,-168.5 301,-187.5 419,-187.5 419,-168.5 301,-168.5"/>
<text text-anchor="middle" x="360" y="-175.5" font-family="Helvetica,sans-Serif" font-size="10.00" fill="#000000">odp/api/abi/std_types.h</text>
</g>
<!-- Node4&#45;&gt;Node5 -->
<g id="edge5" class="edge">
<title>Node4&#45;&gt;Node5</title>
<path fill="none" stroke="#191970" d="M244.0669,-224.3733C266.8428,-215.2629 301.2344,-201.5062 326.649,-191.3404"/>
<polygon fill="#191970" stroke="#191970" points="328.2623,-194.4648 336.2472,-187.5011 325.6625,-187.9654 328.2623,-194.4648"/>
</g>
<!-- Node6 -->
<g id="node7" class="node">
<title>Node6</title>
<g id="a_node7"><a xlink:href="spec_2std__types_8h.html" target="_top" xlink:title="Standard C language types and definitions for ODP. ">
<polygon fill="#ffffff" stroke="#000000" points="157,-168.5 157,-187.5 283,-187.5 283,-168.5 157,-168.5"/>
<text text-anchor="middle" x="220" y="-175.5" font-family="Helvetica,sans-Serif" font-size="10.00" fill="#000000">odp/api/spec/std_types.h</text>
</a>
</g>
</g>
<!-- Node4&#45;&gt;Node6 -->
<g id="edge6" class="edge">
<title>Node4&#45;&gt;Node6</title>
<path fill="none" stroke="#191970" d="M220,-224.2455C220,-216.9382 220,-206.6944 220,-197.7046"/>
<polygon fill="#191970" stroke="#191970" points="223.5001,-197.6426 220,-187.6427 216.5001,-197.6427 223.5001,-197.6426"/>
</g>
<!-- Node6&#45;&gt;Node3 -->
<g id="edge7" class="edge">
<title>Node6&#45;&gt;Node3</title>
<path fill="none" stroke="#191970" d="M256.4749,-168.4223C283.6619,-160.5471 321.2454,-148.0779 352,-132 367.657,-123.8148 457.866,-56.6126 499.2544,-25.5891"/>
<polygon fill="#191970" stroke="#191970" points="501.4022,-28.3533 507.3009,-19.5524 497.2013,-22.754 501.4022,-28.3533"/>
</g>
<!-- Node7 -->
<g id="node8" class="node">
<title>Node7</title>
<polygon fill="#ffffff" stroke="#bfbfbf" points="195.5,-112.5 195.5,-131.5 244.5,-131.5 244.5,-112.5 195.5,-112.5"/>
<text text-anchor="middle" x="220" y="-119.5" font-family="Helvetica,sans-Serif" font-size="10.00" fill="#000000">stdint.h</text>
</g>
<!-- Node6&#45;&gt;Node7 -->
<g id="edge8" class="edge">
<title>Node6&#45;&gt;Node7</title>
<path fill="none" stroke="#191970" d="M220,-168.2455C220,-160.9382 220,-150.6944 220,-141.7046"/>
<polygon fill="#191970" stroke="#191970" points="223.5001,-141.6426 220,-131.6427 216.5001,-141.6427 223.5001,-141.6426"/>
</g>
<!-- Node8 -->
<g id="node9" class="node">
<title>Node8</title>
<g id="a_node9"><a xlink:href="align_8h.html" target="_top" xlink:title="ODP alignments. ">
<polygon fill="#ffffff" stroke="#000000" points="263,-112.5 263,-131.5 343,-131.5 343,-112.5 263,-112.5"/>
<text text-anchor="middle" x="303" y="-119.5" font-family="Helvetica,sans-Serif" font-size="10.00" fill="#000000">odp/api/align.h</text>
</a>
</g>
</g>
<!-- Node6&#45;&gt;Node8 -->
<g id="edge9" class="edge">
<title>Node6&#45;&gt;Node8</title>
<path fill="none" stroke="#191970" d="M234.4575,-168.2455C247.0732,-159.7337 265.5944,-147.2375 280.2045,-137.3801"/>
<polygon fill="#191970" stroke="#191970" points="282.3761,-140.1371 288.7082,-131.6427 278.4609,-134.3343 282.3761,-140.1371"/>
</g>
<!-- Node6&#45;&gt;Node11 -->
<g id="edge14" class="edge">
<title>Node6&#45;&gt;Node11</title>
<path fill="none" stroke="#191970" d="M210.6046,-168.2897C202.7115,-159.5345 191.8156,-145.9295 186,-132 171.8122,-98.0175 168.1101,-54.7037 167.2096,-29.8859"/>
<polygon fill="#191970" stroke="#191970" points="170.7017,-29.5097 166.9621,-19.5968 163.7037,-29.6781 170.7017,-29.5097"/>
</g>
<!-- Node9 -->
<g id="node10" class="node">
<title>Node9</title>
<polygon fill="#ffffff" stroke="#bfbfbf" points="195.5,-56.5 195.5,-75.5 290.5,-75.5 290.5,-56.5 195.5,-56.5"/>
<text text-anchor="middle" x="243" y="-63.5" font-family="Helvetica,sans-Serif" font-size="10.00" fill="#000000">odp/api/abi/align.h</text>
</g>
<!-- Node8&#45;&gt;Node9 -->
<g id="edge10" class="edge">
<title>Node8&#45;&gt;Node9</title>
<path fill="none" stroke="#191970" d="M292.5488,-112.2455C283.7731,-104.0549 271.0446,-92.1749 260.686,-82.5069"/>
<polygon fill="#191970" stroke="#191970" points="263.0301,-79.9072 253.3314,-75.6427 258.2539,-85.0246 263.0301,-79.9072"/>
</g>
<!-- Node10 -->
<g id="node11" class="node">
<title>Node10</title>
<g id="a_node11"><a xlink:href="spec_2align_8h.html" target="_top" xlink:title="ODP alignments. ">
<polygon fill="#ffffff" stroke="#000000" points="309,-56.5 309,-75.5 413,-75.5 413,-56.5 309,-56.5"/>
<text text-anchor="middle" x="361" y="-63.5" font-family="Helvetica,sans-Serif" font-size="10.00" fill="#000000">odp/api/spec/align.h</text>
</a>
</g>
</g>
<!-- Node8&#45;&gt;Node10 -->
<g id="edge11" class="edge">
<title>Node8&#45;&gt;Node10</title>
<path fill="none" stroke="#191970" d="M313.1028,-112.2455C321.5028,-104.1352 333.6494,-92.4075 343.6084,-82.7919"/>
<polygon fill="#191970" stroke="#191970" points="346.25,-85.1066 351.0129,-75.6427 341.3878,-80.0707 346.25,-85.1066"/>
</g>
<!-- Node10&#45;&gt;Node3 -->
<g id="edge12" class="edge">
<title>Node10&#45;&gt;Node3</title>
<path fill="none" stroke="#191970" d="M388.3331,-56.3733C414.5434,-47.1419 454.2984,-33.1402 483.2668,-22.9375"/>
<polygon fill="#191970" stroke="#191970" points="484.7542,-26.1244 493.0236,-19.5011 482.4288,-19.5219 484.7542,-26.1244"/>
</g>
<!-- Node10&#45;&gt;Node11 -->
<g id="edge13" class="edge">
<title>Node10&#45;&gt;Node11</title>
<path fill="none" stroke="#191970" d="M327.6502,-56.3733C294.972,-46.9404 245.0382,-32.5265 209.523,-22.2747"/>
<polygon fill="#191970" stroke="#191970" points="210.493,-18.9119 199.9146,-19.5011 208.5516,-25.6373 210.493,-18.9119"/>
</g>
<!-- Node12&#45;&gt;Node4 -->
<g id="edge16" class="edge">
<title>Node12&#45;&gt;Node4</title>
<path fill="none" stroke="#191970" d="M298.2915,-399.7217C237.4271,-395.5776 133.3658,-384.4299 110,-356 76.766,-315.5633 147.7229,-270.4009 190.558,-248.0725"/>
<polygon fill="#191970" stroke="#191970" points="192.152,-251.1885 199.4806,-243.5372 188.9801,-244.9484 192.152,-251.1885"/>
</g>
<!-- Node13 -->
<g id="node14" class="node">
<title>Node13</title>
<polygon fill="#ffffff" stroke="#bfbfbf" points="230.5,-336.5 230.5,-355.5 329.5,-355.5 329.5,-336.5 230.5,-336.5"/>
<text text-anchor="middle" x="280" y="-343.5" font-family="Helvetica,sans-Serif" font-size="10.00" fill="#000000">odp/api/abi/event.h</text>
</g>
<!-- Node12&#45;&gt;Node13 -->
<g id="edge17" class="edge">
<title>Node12&#45;&gt;Node13</title>
<path fill="none" stroke="#191970" d="M332.0262,-392.2455C322.8118,-384.0549 309.4468,-372.1749 298.5703,-362.5069"/>
<polygon fill="#191970" stroke="#191970" points="300.6474,-359.6704 290.848,-355.6427 295.9968,-364.9023 300.6474,-359.6704"/>
</g>
<!-- Node14 -->
<g id="node15" class="node">
<title>Node14</title>
<polygon fill="#ffffff" stroke="#bfbfbf" points="347.5,-336.5 347.5,-355.5 464.5,-355.5 464.5,-336.5 347.5,-336.5"/>
<text text-anchor="middle" x="406" y="-343.5" font-family="Helvetica,sans-Serif" font-size="10.00" fill="#000000">odp/api/abi/packet_io.h</text>
</g>
<!-- Node12&#45;&gt;Node14 -->
<g id="edge18" class="edge">
<title>Node12&#45;&gt;Node14</title>
<path fill="none" stroke="#191970" d="M353.9738,-392.2455C363.1882,-384.0549 376.5532,-372.1749 387.4297,-362.5069"/>
<polygon fill="#191970" stroke="#191970" points="390.0032,-364.9023 395.152,-355.6427 385.3526,-359.6704 390.0032,-364.9023"/>
</g>
<!-- Node15 -->
<g id="node16" class="node">
<title>Node15</title>
<polygon fill="#ffffff" stroke="#bfbfbf" points="614,-336.5 614,-355.5 718,-355.5 718,-336.5 614,-336.5"/>
<text text-anchor="middle" x="666" y="-343.5" font-family="Helvetica,sans-Serif" font-size="10.00" fill="#000000">odp/api/abi/packet.h</text>
</g>
<!-- Node12&#45;&gt;Node15 -->
<g id="edge19" class="edge">
<title>Node12&#45;&gt;Node15</title>
<path fill="none" stroke="#191970" d="M387.5726,-394.2722C443.754,-384.5318 540.6246,-367.7369 604.0007,-356.7491"/>
<polygon fill="#191970" stroke="#191970" points="604.6181,-360.1944 613.8732,-355.0375 603.4223,-353.2973 604.6181,-360.1944"/>
</g>
<!-- Node16 -->
<g id="node17" class="node">
<title>Node16</title>
<polygon fill="#ffffff" stroke="#bfbfbf" points="736,-336.5 736,-355.5 836,-355.5 836,-336.5 736,-336.5"/>
<text text-anchor="middle" x="786" y="-343.5" font-family="Helvetica,sans-Serif" font-size="10.00" fill="#000000">odp/api/abi/buffer.h</text>
</g>
<!-- Node12&#45;&gt;Node16 -->
<g id="edge20" class="edge">
<title>Node12&#45;&gt;Node16</title>
<path fill="none" stroke="#191970" d="M387.7308,-397.3561C457.6318,-389.9426 597.2396,-374.5087 725.7909,-356.12"/>
<polygon fill="#191970" stroke="#191970" points="726.415,-359.5664 735.8141,-354.6769 725.4174,-352.6378 726.415,-359.5664"/>
</g>
<!-- Node17 -->
<g id="node18" class="node">
<title>Node17</title>
<polygon fill="#ffffff" stroke="#bfbfbf" points="119.5,-336.5 119.5,-355.5 212.5,-355.5 212.5,-336.5 119.5,-336.5"/>
<text text-anchor="middle" x="166" y="-343.5" font-family="Helvetica,sans-Serif" font-size="10.00" fill="#000000">odp/api/abi/pool.h</text>
</g>
<!-- Node12&#45;&gt;Node17 -->
<g id="edge21" class="edge">
<title>Node12&#45;&gt;Node17</title>
<path fill="none" stroke="#191970" d="M312.5726,-392.3733C283.0128,-383.021 237.9774,-368.7725 205.6305,-358.5385"/>
<polygon fill="#191970" stroke="#191970" points="206.6203,-355.1807 196.0303,-355.5011 204.5087,-361.8546 206.6203,-355.1807"/>
</g>
<!-- Node18 -->
<g id="node19" class="node">
<title>Node18</title>
<g id="a_node19"><a xlink:href="spec_2packet_8h.html" target="_top" xlink:title="ODP packet descriptor. ">
<polygon fill="#ffffff" stroke="#000000" points="482.5,-336.5 482.5,-355.5 595.5,-355.5 595.5,-336.5 482.5,-336.5"/>
<text text-anchor="middle" x="539" y="-343.5" font-family="Helvetica,sans-Serif" font-size="10.00" fill="#000000">odp/api/spec/packet.h</text>
</a>
</g>
</g>
<!-- Node12&#45;&gt;Node18 -->
<g id="edge22" class="edge">
<title>Node12&#45;&gt;Node18</title>
<path fill="none" stroke="#191970" d="M376.6936,-392.3733C409.7087,-382.9404 460.1573,-368.5265 496.0386,-358.2747"/>
<polygon fill="#191970" stroke="#191970" points="497.0924,-361.6137 505.7461,-355.5011 495.1693,-354.8831 497.0924,-361.6137"/>
</g>
<!-- Node18&#45;&gt;Node3 -->
<g id="edge23" class="edge">
<title>Node18&#45;&gt;Node3</title>
<path fill="none" stroke="#191970" d="M548.375,-336.4412C565.25,-318.1765 599,-276.353 599,-234 599,-234 599,-234 599,-122 599,-91.4754 597.1979,-81.2188 580,-56 571.4551,-43.4699 558.4005,-32.8796 546.6479,-25.0308"/>
<polygon fill="#191970" stroke="#191970" points="548.3347,-21.9566 538.0107,-19.5764 544.5971,-27.8752 548.3347,-21.9566"/>
</g>
<!-- Node18&#45;&gt;Node11 -->
<g id="edge30" class="edge">
<title>Node18&#45;&gt;Node11</title>
<path fill="none" stroke="#191970" d="M482.4217,-336.4608C369.948,-316.7192 129,-270.2025 129,-234 129,-234 129,-234 129,-122 129,-87.6118 145.2634,-50.2832 156.511,-28.5791"/>
<polygon fill="#191970" stroke="#191970" points="159.7317,-29.9804 161.393,-19.5166 153.569,-26.6605 159.7317,-29.9804"/>
</g>
<!-- Node19 -->
<g id="node20" class="node">
<title>Node19</title>
<g id="a_node20"><a xlink:href="time_8h.html" target="_top" xlink:title="ODP time. ">
<polygon fill="#ffffff" stroke="#000000" points="443,-280.5 443,-299.5 521,-299.5 521,-280.5 443,-280.5"/>
<text text-anchor="middle" x="482" y="-287.5" font-family="Helvetica,sans-Serif" font-size="10.00" fill="#000000">odp/api/time.h</text>
</a>
</g>
</g>
<!-- Node18&#45;&gt;Node19 -->
<g id="edge24" class="edge">
<title>Node18&#45;&gt;Node19</title>
<path fill="none" stroke="#191970" d="M529.0714,-336.2455C520.8162,-328.1352 508.8791,-316.4075 499.0918,-306.7919"/>
<polygon fill="#191970" stroke="#191970" points="501.4011,-304.1542 491.8149,-299.6427 496.4954,-309.1476 501.4011,-304.1542"/>
</g>
<!-- Node19&#45;&gt;Node4 -->
<g id="edge25" class="edge">
<title>Node19&#45;&gt;Node4</title>
<path fill="none" stroke="#191970" d="M442.776,-281.6162C398.1697,-272.0821 325.0337,-256.45 274.8055,-245.7141"/>
<polygon fill="#191970" stroke="#191970" points="275.278,-242.2362 264.7673,-243.5686 273.8148,-249.0815 275.278,-242.2362"/>
</g>
<!-- Node20 -->
<g id="node21" class="node">
<title>Node20</title>
<polygon fill="#ffffff" stroke="#bfbfbf" points="398,-224.5 398,-243.5 492,-243.5 492,-224.5 398,-224.5"/>
<text text-anchor="middle" x="445" y="-231.5" font-family="Helvetica,sans-Serif" font-size="10.00" fill="#000000">odp/api/abi/time.h</text>
</g>
<!-- Node19&#45;&gt;Node20 -->
<g id="edge26" class="edge">
<title>Node19&#45;&gt;Node20</title>
<path fill="none" stroke="#191970" d="M475.5551,-280.2455C470.4618,-272.5367 463.2092,-261.5598 457.048,-252.2348"/>
<polygon fill="#191970" stroke="#191970" points="459.8038,-250.0566 451.3711,-243.6427 453.9635,-253.9155 459.8038,-250.0566"/>
</g>
<!-- Node21 -->
<g id="node22" class="node">
<title>Node21</title>
<g id="a_node22"><a xlink:href="spec_2time_8h.html" target="_top" xlink:title="ODP time. ">
<polygon fill="#ffffff" stroke="#000000" points="469,-56.5 469,-75.5 571,-75.5 571,-56.5 469,-56.5"/>
<text text-anchor="middle" x="520" y="-63.5" font-family="Helvetica,sans-Serif" font-size="10.00" fill="#000000">odp/api/spec/time.h</text>
</a>
</g>
</g>
<!-- Node19&#45;&gt;Node21 -->
<g id="edge27" class="edge">
<title>Node19&#45;&gt;Node21</title>
<path fill="none" stroke="#191970" d="M486.9118,-280.4065C491.3493,-271.2874 497.678,-257.0635 501,-244 515.2512,-187.9585 518.8234,-119.3516 519.7115,-86.0483"/>
<polygon fill="#191970" stroke="#191970" points="523.2155,-85.8907 519.9269,-75.8192 516.2171,-85.7433 523.2155,-85.8907"/>
</g>
<!-- Node21&#45;&gt;Node3 -->
<g id="edge28" class="edge">
<title>Node21&#45;&gt;Node3</title>
<path fill="none" stroke="#191970" d="M520,-56.2455C520,-48.9382 520,-38.6944 520,-29.7046"/>
<polygon fill="#191970" stroke="#191970" points="523.5001,-29.6426 520,-19.6427 516.5001,-29.6427 523.5001,-29.6426"/>
</g>
<!-- Node21&#45;&gt;Node11 -->
<g id="edge29" class="edge">
<title>Node21&#45;&gt;Node11</title>
<path fill="none" stroke="#191970" d="M468.6708,-57.8571C404.6485,-47.7006 295.3564,-30.3625 227.3787,-19.5785"/>
<polygon fill="#191970" stroke="#191970" points="227.6731,-16.0815 217.2482,-17.9714 226.5763,-22.9951 227.6731,-16.0815"/>
</g>
</g>
</svg>
