<?xml version="1.0" encoding="UTF-8" standalone="no"?>
<!DOCTYPE svg PUBLIC "-//W3C//DTD SVG 1.1//EN"
 "http://www.w3.org/Graphics/SVG/1.1/DTD/svg11.dtd">
<!-- Generated by graphviz version 2.40.1 (20161225.0304)
 -->
<!-- Title: packet_inline_types.h Pages: 1 -->
<svg width="222pt" height="84pt"
 viewBox="0.00 0.00 221.50 84.00" xmlns="http://www.w3.org/2000/svg" xmlns:xlink="http://www.w3.org/1999/xlink">
<g id="graph0" class="graph" transform="scale(1 1) rotate(0) translate(4 80)">
<title>packet_inline_types.h</title>
<polygon fill="#ffffff" stroke="transparent" points="-4,4 -4,-80 217.5,-80 217.5,4 -4,4"/>
<!-- Node2 -->
<g id="node1" class="node">
<title>Node2</title>
<polygon fill="#bfbfbf" stroke="#000000" points="56.5,-56.5 56.5,-75.5 167.5,-75.5 167.5,-56.5 56.5,-56.5"/>
<text text-anchor="middle" x="112" y="-63.5" font-family="Helvetica,sans-Serif" font-size="10.00" fill="#000000">packet_inline_types.h</text>
</g>
<!-- Node3 -->
<g id="node2" class="node">
<title>Node3</title>
<g id="a_node2"><a xlink:href="packet__flag__inlines_8h.html" target="_top" xlink:title="Packet inline functions. ">
<polygon fill="#ffffff" stroke="#000000" points="0,-.5 0,-19.5 108,-19.5 108,-.5 0,-.5"/>
<text text-anchor="middle" x="54" y="-7.5" font-family="Helvetica,sans-Serif" font-size="10.00" fill="#000000">packet_flag_inlines.h</text>
</a>
</g>
</g>
<!-- Node2&#45;&gt;Node3 -->
<g id="edge1" class="edge">
<title>Node2&#45;&gt;Node3</title>
<path fill="none" stroke="#191970" d="M94.4707,-49.0751C84.4917,-39.4402 72.3524,-27.7196 63.9871,-19.6427"/>
<polygon fill="#191970" stroke="#191970" points="92.272,-51.8175 101.8972,-56.2455 97.1342,-46.7817 92.272,-51.8175"/>
</g>
<!-- Node4 -->
<g id="node3" class="node">
<title>Node4</title>
<g id="a_node3"><a xlink:href="packet__inlines_8h.html" target="_top" xlink:title="Packet inline functions. ">
<polygon fill="#ffffff" stroke="#000000" points="126.5,-.5 126.5,-19.5 213.5,-19.5 213.5,-.5 126.5,-.5"/>
<text text-anchor="middle" x="170" y="-7.5" font-family="Helvetica,sans-Serif" font-size="10.00" fill="#000000">packet_inlines.h</text>
</a>
</g>
</g>
<!-- Node2&#45;&gt;Node4 -->
<g id="edge2" class="edge">
<title>Node2&#45;&gt;Node4</title>
<path fill="none" stroke="#191970" d="M129.5293,-49.0751C139.5083,-39.4402 151.6476,-27.7196 160.0129,-19.6427"/>
<polygon fill="#191970" stroke="#191970" points="126.8658,-46.7817 122.1028,-56.2455 131.728,-51.8175 126.8658,-46.7817"/>
</g>
</g>
</svg>
