<?xml version="1.0" encoding="UTF-8" standalone="no"?>
<!DOCTYPE svg PUBLIC "-//W3C//DTD SVG 1.1//EN"
 "http://www.w3.org/Graphics/SVG/1.1/DTD/svg11.dtd">
<!-- Generated by graphviz version 2.40.1 (20161225.0304)
 -->
<!-- Title: packet_io.h Pages: 1 -->
<svg width="1476pt" height="789pt"
 viewBox="0.00 0.00 1476.00 789.00" xmlns="http://www.w3.org/2000/svg" xmlns:xlink="http://www.w3.org/1999/xlink">
<g id="graph0" class="graph" transform="scale(1 1) rotate(0) translate(4 785)">
<title>packet_io.h</title>
<polygon fill="#ffffff" stroke="transparent" points="-4,4 -4,-785 1472,-785 1472,4 -4,4"/>
<!-- Node0 -->
<g id="node1" class="node">
<title>Node0</title>
<polygon fill="#bfbfbf" stroke="#000000" points="194.5,-761.5 194.5,-780.5 261.5,-780.5 261.5,-761.5 194.5,-761.5"/>
<text text-anchor="middle" x="228" y="-768.5" font-family="Helvetica,sans-Serif" font-size="10.00" fill="#000000">packet_io.h</text>
</g>
<!-- Node1 -->
<g id="node2" class="node">
<title>Node1</title>
<g id="a_node2"><a xlink:href="std__types_8h.html" target="_top" xlink:title="Standard C language types and definitions for ODP. ">
<polygon fill="#ffffff" stroke="#000000" points="289,-246.5 289,-265.5 391,-265.5 391,-246.5 289,-246.5"/>
<text text-anchor="middle" x="340" y="-253.5" font-family="Helvetica,sans-Serif" font-size="10.00" fill="#000000">odp/api/std_types.h</text>
</a>
</g>
</g>
<!-- Node0&#45;&gt;Node1 -->
<g id="edge1" class="edge">
<title>Node0&#45;&gt;Node1</title>
<path fill="none" stroke="#191970" d="M194.2252,-765.5596C148.0016,-757.6141 68.0221,-741.9288 44,-725 15.1826,-704.6918 0,-694.2543 0,-659 0,-659 0,-659 0,-435 0,-310.4921 180.7302,-272.3878 278.6566,-260.88"/>
<polygon fill="#191970" stroke="#191970" points="279.1805,-264.3433 288.7304,-259.7555 278.4039,-257.3865 279.1805,-264.3433"/>
</g>
<!-- Node10 -->
<g id="node11" class="node">
<title>Node10</title>
<polygon fill="#ffffff" stroke="#bfbfbf" points="399.5,-369.5 399.5,-388.5 492.5,-388.5 492.5,-369.5 399.5,-369.5"/>
<text text-anchor="middle" x="446" y="-376.5" font-family="Helvetica,sans-Serif" font-size="10.00" fill="#000000">odp/api/abi/pool.h</text>
</g>
<!-- Node0&#45;&gt;Node10 -->
<g id="edge12" class="edge">
<title>Node0&#45;&gt;Node10</title>
<path fill="none" stroke="#191970" d="M240.5499,-761.4082C262.136,-743.7155 304,-703.6472 304,-659 304,-659 304,-659 304,-491 304,-439.4414 362.4255,-407.9443 404.3234,-391.9859"/>
<polygon fill="#191970" stroke="#191970" points="405.5828,-395.2522 413.778,-388.5374 403.1841,-388.676 405.5828,-395.2522"/>
</g>
<!-- Node11 -->
<g id="node12" class="node">
<title>Node11</title>
<polygon fill="#ffffff" stroke="#bfbfbf" points="68,-705.5 68,-724.5 200,-724.5 200,-705.5 68,-705.5"/>
<text text-anchor="middle" x="134" y="-712.5" font-family="Helvetica,sans-Serif" font-size="10.00" fill="#000000">odp/api/abi/classification.h</text>
</g>
<!-- Node0&#45;&gt;Node11 -->
<g id="edge13" class="edge">
<title>Node0&#45;&gt;Node11</title>
<path fill="none" stroke="#191970" d="M211.6264,-761.2455C197.0692,-752.5731 175.569,-739.7645 158.8848,-729.825"/>
<polygon fill="#191970" stroke="#191970" points="160.5683,-726.7539 150.1859,-724.6427 156.9856,-732.7676 160.5683,-726.7539"/>
</g>
<!-- Node12 -->
<g id="node13" class="node">
<title>Node12</title>
<polygon fill="#ffffff" stroke="#bfbfbf" points="142,-369.5 142,-388.5 246,-388.5 246,-369.5 142,-369.5"/>
<text text-anchor="middle" x="194" y="-376.5" font-family="Helvetica,sans-Serif" font-size="10.00" fill="#000000">odp/api/abi/packet.h</text>
</g>
<!-- Node0&#45;&gt;Node12 -->
<g id="edge14" class="edge">
<title>Node0&#45;&gt;Node12</title>
<path fill="none" stroke="#191970" d="M194.3195,-766.6706C149.8741,-760.1867 75.3401,-746.3821 59,-725 -24.2314,-616.0858 123.866,-449.4608 176.4889,-396.0797"/>
<polygon fill="#191970" stroke="#191970" points="179.1962,-398.3223 183.7941,-388.7772 174.2473,-393.3716 179.1962,-398.3223"/>
</g>
<!-- Node13 -->
<g id="node14" class="node">
<title>Node13</title>
<polygon fill="#ffffff" stroke="#bfbfbf" points="264.5,-369.5 264.5,-388.5 381.5,-388.5 381.5,-369.5 264.5,-369.5"/>
<text text-anchor="middle" x="323" y="-376.5" font-family="Helvetica,sans-Serif" font-size="10.00" fill="#000000">odp/api/abi/packet_io.h</text>
</g>
<!-- Node0&#45;&gt;Node13 -->
<g id="edge15" class="edge">
<title>Node0&#45;&gt;Node13</title>
<path fill="none" stroke="#191970" d="M225.1438,-761.0683C216.3065,-730.001 190,-634.8472 190,-603 190,-603 190,-603 190,-491 190,-441.0478 245.5705,-408.8768 284.8708,-392.371"/>
<polygon fill="#191970" stroke="#191970" points="286.4966,-395.4897 294.4682,-388.5108 283.8844,-388.9953 286.4966,-395.4897"/>
</g>
<!-- Node14 -->
<g id="node15" class="node">
<title>Node14</title>
<polygon fill="#ffffff" stroke="#bfbfbf" points="332.5,-593.5 332.5,-612.5 433.5,-612.5 433.5,-593.5 332.5,-593.5"/>
<text text-anchor="middle" x="383" y="-600.5" font-family="Helvetica,sans-Serif" font-size="10.00" fill="#000000">odp/api/abi/queue.h</text>
</g>
<!-- Node0&#45;&gt;Node14 -->
<g id="edge16" class="edge">
<title>Node0&#45;&gt;Node14</title>
<path fill="none" stroke="#191970" d="M236.7776,-761.4862C261.9159,-734.2396 334.4544,-655.6172 366.9376,-620.4096"/>
<polygon fill="#191970" stroke="#191970" points="369.724,-622.551 373.9326,-612.8279 364.5792,-617.8043 369.724,-622.551"/>
</g>
<!-- Node15 -->
<g id="node16" class="node">
<title>Node15</title>
<g id="a_node16"><a xlink:href="spec_2packet__io_8h.html" target="_top" xlink:title="ODP Packet IO. ">
<polygon fill="#ffffff" stroke="#000000" points="437.5,-705.5 437.5,-724.5 562.5,-724.5 562.5,-705.5 437.5,-705.5"/>
<text text-anchor="middle" x="500" y="-712.5" font-family="Helvetica,sans-Serif" font-size="10.00" fill="#000000">odp/api/spec/packet_io.h</text>
</a>
</g>
</g>
<!-- Node0&#45;&gt;Node15 -->
<g id="edge17" class="edge">
<title>Node0&#45;&gt;Node15</title>
<path fill="none" stroke="#191970" d="M261.6253,-764.0771C307.1201,-754.7106 388.8931,-737.875 443.8054,-726.5695"/>
<polygon fill="#191970" stroke="#191970" points="444.6426,-729.9706 453.7313,-724.5259 443.2309,-723.1144 444.6426,-729.9706"/>
</g>
<!-- Node2 -->
<g id="node3" class="node">
<title>Node2</title>
<polygon fill="#ffffff" stroke="#bfbfbf" points="384,-185 384,-204 502,-204 502,-185 384,-185"/>
<text text-anchor="middle" x="443" y="-192" font-family="Helvetica,sans-Serif" font-size="10.00" fill="#000000">odp/api/abi/std_types.h</text>
</g>
<!-- Node1&#45;&gt;Node2 -->
<g id="edge2" class="edge">
<title>Node1&#45;&gt;Node2</title>
<path fill="none" stroke="#191970" d="M356.0938,-246.3906C372.7228,-236.4616 398.8976,-220.833 418.1794,-209.3201"/>
<polygon fill="#191970" stroke="#191970" points="420.2276,-212.1736 427.0193,-204.0419 416.639,-206.1634 420.2276,-212.1736"/>
</g>
<!-- Node3 -->
<g id="node4" class="node">
<title>Node3</title>
<g id="a_node4"><a xlink:href="spec_2std__types_8h.html" target="_top" xlink:title="Standard C language types and definitions for ODP. ">
<polygon fill="#ffffff" stroke="#000000" points="240,-185 240,-204 366,-204 366,-185 240,-185"/>
<text text-anchor="middle" x="303" y="-192" font-family="Helvetica,sans-Serif" font-size="10.00" fill="#000000">odp/api/spec/std_types.h</text>
</a>
</g>
</g>
<!-- Node1&#45;&gt;Node3 -->
<g id="edge3" class="edge">
<title>Node1&#45;&gt;Node3</title>
<path fill="none" stroke="#191970" d="M334.2188,-246.3906C328.874,-237.5068 320.7841,-224.0601 314.1789,-213.0811"/>
<polygon fill="#191970" stroke="#191970" points="317.0171,-211.0093 308.8628,-204.2449 311.0189,-214.618 317.0171,-211.0093"/>
</g>
<!-- Node4 -->
<g id="node5" class="node">
<title>Node4</title>
<polygon fill="#ffffff" stroke="#bfbfbf" points="1114.5,-.5 1114.5,-19.5 1221.5,-19.5 1221.5,-.5 1114.5,-.5"/>
<text text-anchor="middle" x="1168" y="-7.5" font-family="Helvetica,sans-Serif" font-size="10.00" fill="#000000">odp/visibility_begin.h</text>
</g>
<!-- Node3&#45;&gt;Node4 -->
<g id="edge4" class="edge">
<title>Node3&#45;&gt;Node4</title>
<path fill="none" stroke="#191970" d="M345.5651,-184.9452C355.2233,-182.8863 365.449,-180.7922 375,-179 501.9677,-155.1756 830.1736,-137.6821 949,-87 970.0131,-78.0374 969.4311,-65.9396 990,-56 1025.9652,-38.6205 1069.305,-27.2401 1104.2143,-20.1467"/>
<polygon fill="#191970" stroke="#191970" points="1105.1516,-23.5296 1114.2907,-18.1698 1103.8039,-16.6606 1105.1516,-23.5296"/>
</g>
<!-- Node5 -->
<g id="node6" class="node">
<title>Node5</title>
<polygon fill="#ffffff" stroke="#bfbfbf" points="278.5,-123.5 278.5,-142.5 327.5,-142.5 327.5,-123.5 278.5,-123.5"/>
<text text-anchor="middle" x="303" y="-130.5" font-family="Helvetica,sans-Serif" font-size="10.00" fill="#000000">stdint.h</text>
</g>
<!-- Node3&#45;&gt;Node5 -->
<g id="edge5" class="edge">
<title>Node3&#45;&gt;Node5</title>
<path fill="none" stroke="#191970" d="M303,-184.8906C303,-176.3657 303,-163.6392 303,-152.9235"/>
<polygon fill="#191970" stroke="#191970" points="306.5001,-152.7448 303,-142.7449 299.5001,-152.7449 306.5001,-152.7448"/>
</g>
<!-- Node6 -->
<g id="node7" class="node">
<title>Node6</title>
<g id="a_node7"><a xlink:href="align_8h.html" target="_top" xlink:title="ODP alignments. ">
<polygon fill="#ffffff" stroke="#000000" points="384,-123.5 384,-142.5 464,-142.5 464,-123.5 384,-123.5"/>
<text text-anchor="middle" x="424" y="-130.5" font-family="Helvetica,sans-Serif" font-size="10.00" fill="#000000">odp/api/align.h</text>
</a>
</g>
</g>
<!-- Node3&#45;&gt;Node6 -->
<g id="edge6" class="edge">
<title>Node3&#45;&gt;Node6</title>
<path fill="none" stroke="#191970" d="M321.9063,-184.8906C341.7966,-174.7811 373.3123,-158.7628 396.0692,-147.1962"/>
<polygon fill="#191970" stroke="#191970" points="397.8978,-150.193 405.2265,-142.5419 394.726,-143.9528 397.8978,-150.193"/>
</g>
<!-- Node9 -->
<g id="node10" class="node">
<title>Node9</title>
<polygon fill="#ffffff" stroke="#bfbfbf" points="569,-.5 569,-19.5 669,-19.5 669,-.5 569,-.5"/>
<text text-anchor="middle" x="619" y="-7.5" font-family="Helvetica,sans-Serif" font-size="10.00" fill="#000000">odp/visibility_end.h</text>
</g>
<!-- Node3&#45;&gt;Node9 -->
<g id="edge11" class="edge">
<title>Node3&#45;&gt;Node9</title>
<path fill="none" stroke="#191970" d="M294.0077,-184.7645C285.6791,-175.03 273.869,-159.2123 269,-143 262.2549,-120.5408 258.6694,-72.2476 274,-56 293.186,-35.6663 464.9247,-20.6922 558.629,-13.9548"/>
<polygon fill="#191970" stroke="#191970" points="559.0985,-17.4304 568.826,-13.232 558.6035,-10.4479 559.0985,-17.4304"/>
</g>
<!-- Node7 -->
<g id="node8" class="node">
<title>Node7</title>
<polygon fill="#ffffff" stroke="#bfbfbf" points="316.5,-62 316.5,-81 411.5,-81 411.5,-62 316.5,-62"/>
<text text-anchor="middle" x="364" y="-69" font-family="Helvetica,sans-Serif" font-size="10.00" fill="#000000">odp/api/abi/align.h</text>
</g>
<!-- Node6&#45;&gt;Node7 -->
<g id="edge7" class="edge">
<title>Node6&#45;&gt;Node7</title>
<path fill="none" stroke="#191970" d="M414.625,-123.3906C405.5201,-114.0581 391.5026,-99.6902 380.5243,-88.4374"/>
<polygon fill="#191970" stroke="#191970" points="382.9957,-85.9586 373.5072,-81.2449 377.9852,-90.8468 382.9957,-85.9586"/>
</g>
<!-- Node8 -->
<g id="node9" class="node">
<title>Node8</title>
<g id="a_node9"><a xlink:href="spec_2align_8h.html" target="_top" xlink:title="ODP alignments. ">
<polygon fill="#ffffff" stroke="#000000" points="430,-62 430,-81 534,-81 534,-62 430,-62"/>
<text text-anchor="middle" x="482" y="-69" font-family="Helvetica,sans-Serif" font-size="10.00" fill="#000000">odp/api/spec/align.h</text>
</a>
</g>
</g>
<!-- Node6&#45;&gt;Node8 -->
<g id="edge8" class="edge">
<title>Node6&#45;&gt;Node8</title>
<path fill="none" stroke="#191970" d="M433.0625,-123.3906C441.7793,-114.1478 455.154,-99.966 465.7196,-88.7628"/>
<polygon fill="#191970" stroke="#191970" points="468.495,-90.9213 472.8097,-81.2449 463.4024,-86.1186 468.495,-90.9213"/>
</g>
<!-- Node8&#45;&gt;Node4 -->
<g id="edge9" class="edge">
<title>Node8&#45;&gt;Node4</title>
<path fill="none" stroke="#191970" d="M534.1245,-66.827C657.8463,-55.7354 968.9322,-27.8465 1103.8834,-15.7481"/>
<polygon fill="#191970" stroke="#191970" points="1104.4181,-19.2143 1114.0657,-14.8352 1103.793,-12.2422 1104.4181,-19.2143"/>
</g>
<!-- Node8&#45;&gt;Node9 -->
<g id="edge10" class="edge">
<title>Node8&#45;&gt;Node9</title>
<path fill="none" stroke="#191970" d="M503.4063,-61.8906C526.2283,-51.6457 562.5679,-35.3326 588.4057,-23.7339"/>
<polygon fill="#191970" stroke="#191970" points="590.0545,-26.8303 597.7441,-19.5419 587.1877,-20.4443 590.0545,-26.8303"/>
</g>
<!-- Node15&#45;&gt;Node4 -->
<g id="edge18" class="edge">
<title>Node15&#45;&gt;Node4</title>
<path fill="none" stroke="#191970" d="M562.6032,-713.485C764.8488,-708.383 1389.7939,-690.9125 1427,-669 1456.7555,-651.4756 1468,-637.5325 1468,-603 1468,-603 1468,-603 1468,-133 1468,-87.3432 1439.5864,-78.7478 1400,-56 1371.9139,-39.8606 1290.3235,-26.1423 1231.8483,-17.9912"/>
<polygon fill="#191970" stroke="#191970" points="1231.9648,-14.4745 1221.5821,-16.5839 1231.014,-21.4096 1231.9648,-14.4745"/>
</g>
<!-- Node15&#45;&gt;Node9 -->
<g id="edge72" class="edge">
<title>Node15&#45;&gt;Node9</title>
<path fill="none" stroke="#191970" d="M465.0032,-705.4338C438.212,-697.4488 400.758,-684.834 370,-669 150.8856,-556.2015 0,-502.4439 0,-256 0,-256 0,-256 0,-133 0,-76.435 402.7842,-31.0912 558.5322,-15.6722"/>
<polygon fill="#191970" stroke="#191970" points="559.259,-19.1177 568.869,-14.657 558.5747,-12.1513 559.259,-19.1177"/>
</g>
<!-- Node16 -->
<g id="node17" class="node">
<title>Node16</title>
<g id="a_node17"><a xlink:href="deprecated_8h.html" target="_top" xlink:title="Control deprecated API definitions. ">
<polygon fill="#ffffff" stroke="#000000" points="1180.5,-246.5 1180.5,-265.5 1287.5,-265.5 1287.5,-246.5 1180.5,-246.5"/>
<text text-anchor="middle" x="1234" y="-253.5" font-family="Helvetica,sans-Serif" font-size="10.00" fill="#000000">odp/api/deprecated.h</text>
</a>
</g>
</g>
<!-- Node15&#45;&gt;Node16 -->
<g id="edge19" class="edge">
<title>Node15&#45;&gt;Node16</title>
<path fill="none" stroke="#191970" d="M562.7728,-712.0749C741.4517,-702.919 1240,-671.2567 1240,-603 1240,-603 1240,-603 1240,-379 1240,-342.456 1237.3251,-299.8771 1235.5473,-275.6142"/>
<polygon fill="#191970" stroke="#191970" points="1239.0312,-275.2678 1234.7844,-265.5614 1232.0513,-275.7976 1239.0312,-275.2678"/>
</g>
<!-- Node18 -->
<g id="node19" class="node">
<title>Node18</title>
<g id="a_node19"><a xlink:href="packet__io__stats_8h.html" target="_top" xlink:title="ODP packet IO stats. ">
<polygon fill="#ffffff" stroke="#000000" points="1290,-649.5 1290,-668.5 1418,-668.5 1418,-649.5 1290,-649.5"/>
<text text-anchor="middle" x="1354" y="-656.5" font-family="Helvetica,sans-Serif" font-size="10.00" fill="#000000">odp/api/packet_io_stats.h</text>
</a>
</g>
</g>
<!-- Node15&#45;&gt;Node18 -->
<g id="edge23" class="edge">
<title>Node15&#45;&gt;Node18</title>
<path fill="none" stroke="#191970" d="M562.617,-712.0018C691.9168,-705.6294 997.7818,-689.6188 1254,-669 1262.3126,-668.3311 1271.0071,-667.5633 1279.6511,-666.757"/>
<polygon fill="#191970" stroke="#191970" points="1280.1258,-670.2277 1289.7493,-665.7963 1279.4628,-663.2592 1280.1258,-670.2277"/>
</g>
<!-- Node20 -->
<g id="node21" class="node">
<title>Node20</title>
<g id="a_node21"><a xlink:href="queue_8h.html" target="_top" xlink:title="ODP queue. ">
<polygon fill="#ffffff" stroke="#000000" points="495,-649.5 495,-668.5 581,-668.5 581,-649.5 495,-649.5"/>
<text text-anchor="middle" x="538" y="-656.5" font-family="Helvetica,sans-Serif" font-size="10.00" fill="#000000">odp/api/queue.h</text>
</a>
</g>
</g>
<!-- Node15&#45;&gt;Node20 -->
<g id="edge27" class="edge">
<title>Node15&#45;&gt;Node20</title>
<path fill="none" stroke="#191970" d="M506.6191,-705.2455C511.9046,-697.4564 519.4541,-686.3308 525.8238,-676.9439"/>
<polygon fill="#191970" stroke="#191970" points="528.7379,-678.8827 531.4568,-668.6427 522.9455,-674.9522 528.7379,-678.8827"/>
</g>
<!-- Node26 -->
<g id="node27" class="node">
<title>Node26</title>
<g id="a_node27"><a xlink:href="packet_8h.html" target="_top" xlink:title="ODP packet descriptor. ">
<polygon fill="#ffffff" stroke="#000000" points="476.5,-425.5 476.5,-444.5 565.5,-444.5 565.5,-425.5 476.5,-425.5"/>
<text text-anchor="middle" x="521" y="-432.5" font-family="Helvetica,sans-Serif" font-size="10.00" fill="#000000">odp/api/packet.h</text>
</a>
</g>
</g>
<!-- Node15&#45;&gt;Node26 -->
<g id="edge71" class="edge">
<title>Node15&#45;&gt;Node26</title>
<path fill="none" stroke="#191970" d="M496.1376,-705.3228C492.6962,-696.1446 487.9167,-681.8807 486,-669 484.6917,-660.2079 485.2803,-657.8597 486,-649 491.8564,-576.9093 508.6356,-492.4933 516.6442,-454.8558"/>
<polygon fill="#191970" stroke="#191970" points="520.1384,-455.2557 518.8263,-444.7424 513.2959,-453.7793 520.1384,-455.2557"/>
</g>
<!-- Node28 -->
<g id="node29" class="node">
<title>Node28</title>
<g id="a_node29"><a xlink:href="time_8h.html" target="_top" xlink:title="ODP time. ">
<polygon fill="#ffffff" stroke="#000000" points="500,-308 500,-327 578,-327 578,-308 500,-308"/>
<text text-anchor="middle" x="539" y="-315" font-family="Helvetica,sans-Serif" font-size="10.00" fill="#000000">odp/api/time.h</text>
</a>
</g>
</g>
<!-- Node15&#45;&gt;Node28 -->
<g id="edge70" class="edge">
<title>Node15&#45;&gt;Node28</title>
<path fill="none" stroke="#191970" d="M478.0518,-705.3816C443.0084,-689.3892 373.2553,-654.9072 323,-613 217.4407,-524.9756 42.1324,-472.122 133,-369 156.2745,-342.5867 386.8571,-326.2036 489.8048,-320.1515"/>
<polygon fill="#191970" stroke="#191970" points="490.1654,-323.6366 499.9464,-319.5645 489.7608,-316.6483 490.1654,-323.6366"/>
</g>
<!-- Node17 -->
<g id="node18" class="node">
<title>Node17</title>
<g id="a_node18"><a xlink:href="spec_2deprecated_8h.html" target="_top" xlink:title="Macro for deprecated API definitions. ">
<polygon fill="#ffffff" stroke="#000000" points="1034.5,-62 1034.5,-81 1165.5,-81 1165.5,-62 1034.5,-62"/>
<text text-anchor="middle" x="1100" y="-69" font-family="Helvetica,sans-Serif" font-size="10.00" fill="#000000">odp/api/spec/deprecated.h</text>
</a>
</g>
</g>
<!-- Node16&#45;&gt;Node17 -->
<g id="edge20" class="edge">
<title>Node16&#45;&gt;Node17</title>
<path fill="none" stroke="#191970" d="M1226.9842,-246.3402C1205.5471,-216.8242 1140.6801,-127.5111 1112.877,-89.2299"/>
<polygon fill="#191970" stroke="#191970" points="1115.6548,-87.0985 1106.9463,-81.0641 1109.9909,-91.2121 1115.6548,-87.0985"/>
</g>
<!-- Node17&#45;&gt;Node4 -->
<g id="edge21" class="edge">
<title>Node17&#45;&gt;Node4</title>
<path fill="none" stroke="#191970" d="M1110.625,-61.8906C1121.0431,-52.4683 1137.1364,-37.9134 1149.6304,-26.6137"/>
<polygon fill="#191970" stroke="#191970" points="1152.1562,-29.0484 1157.2252,-19.7449 1147.4608,-23.8568 1152.1562,-29.0484"/>
</g>
<!-- Node17&#45;&gt;Node9 -->
<g id="edge22" class="edge">
<title>Node17&#45;&gt;Node9</title>
<path fill="none" stroke="#191970" d="M1034.3788,-63.1098C940.6853,-51.1302 769.9085,-29.295 679.2619,-17.705"/>
<polygon fill="#191970" stroke="#191970" points="679.5107,-14.2084 669.1475,-16.4118 678.6228,-21.1519 679.5107,-14.2084"/>
</g>
<!-- Node19 -->
<g id="node20" class="node">
<title>Node19</title>
<g id="a_node20"><a xlink:href="spec_2packet__io__stats_8h.html" target="_top" xlink:title="ODP Packet IO. ">
<polygon fill="#ffffff" stroke="#000000" points="1184,-56.5 1184,-86.5 1288,-86.5 1288,-56.5 1184,-56.5"/>
<text text-anchor="start" x="1192" y="-74.5" font-family="Helvetica,sans-Serif" font-size="10.00" fill="#000000">odp/api/spec/packet</text>
<text text-anchor="middle" x="1236" y="-63.5" font-family="Helvetica,sans-Serif" font-size="10.00" fill="#000000">_io_stats.h</text>
</a>
</g>
</g>
<!-- Node18&#45;&gt;Node19 -->
<g id="edge24" class="edge">
<title>Node18&#45;&gt;Node19</title>
<path fill="none" stroke="#191970" d="M1359.607,-649.4834C1370.1774,-630.6141 1392,-586.8343 1392,-547 1392,-547 1392,-547 1392,-317.5 1392,-221.6081 1306.4163,-132.8086 1262.0299,-93.2026"/>
<polygon fill="#191970" stroke="#191970" points="1264.3351,-90.5689 1254.5079,-86.6097 1259.7212,-95.8332 1264.3351,-90.5689"/>
</g>
<!-- Node19&#45;&gt;Node4 -->
<g id="edge25" class="edge">
<title>Node19&#45;&gt;Node4</title>
<path fill="none" stroke="#191970" d="M1219.191,-56.2977C1209.2603,-47.3163 1196.6743,-35.9334 1186.4673,-26.702"/>
<polygon fill="#191970" stroke="#191970" points="1188.652,-23.9588 1178.8877,-19.8469 1183.9566,-29.1505 1188.652,-23.9588"/>
</g>
<!-- Node19&#45;&gt;Node9 -->
<g id="edge26" class="edge">
<title>Node19&#45;&gt;Node9</title>
<path fill="none" stroke="#191970" d="M1183.8777,-57.649C1180.8844,-57.043 1177.9098,-56.4866 1175,-56 996.285,-26.1149 781.8548,-15.343 679.3443,-11.7089"/>
<polygon fill="#191970" stroke="#191970" points="679.2991,-8.2054 669.1846,-11.3593 679.0582,-15.2012 679.2991,-8.2054"/>
</g>
<!-- Node20&#45;&gt;Node1 -->
<g id="edge28" class="edge">
<title>Node20&#45;&gt;Node1</title>
<path fill="none" stroke="#191970" d="M524.6178,-649.3828C506.3588,-636.3348 472.5304,-612.4232 443,-593 299.571,-498.6616 198.3864,-539.061 115,-389 75.7914,-318.4408 199.72,-281.7214 278.994,-265.883"/>
<polygon fill="#191970" stroke="#191970" points="279.7518,-269.3013 288.9043,-263.9643 278.4213,-262.4289 279.7518,-269.3013"/>
</g>
<!-- Node20&#45;&gt;Node10 -->
<g id="edge32" class="edge">
<title>Node20&#45;&gt;Node10</title>
<path fill="none" stroke="#191970" d="M536.9886,-649.2795C534.6134,-628.3098 527.8073,-577.4497 514,-537 499.232,-493.7359 485.4944,-487.2353 468,-445 461.6446,-429.6567 455.7696,-411.7554 451.6924,-398.4702"/>
<polygon fill="#191970" stroke="#191970" points="454.9438,-397.1274 448.7193,-388.5539 448.2387,-399.1378 454.9438,-397.1274"/>
</g>
<!-- Node20&#45;&gt;Node14 -->
<g id="edge30" class="edge">
<title>Node20&#45;&gt;Node14</title>
<path fill="none" stroke="#191970" d="M511.3546,-649.3733C485.8036,-640.1419 447.0488,-626.1402 418.8091,-615.9375"/>
<polygon fill="#191970" stroke="#191970" points="419.8921,-612.6074 409.2978,-612.5011 417.5135,-619.1909 419.8921,-612.6074"/>
</g>
<!-- Node21 -->
<g id="node22" class="node">
<title>Node21</title>
<polygon fill="#ffffff" stroke="#bfbfbf" points="799.5,-369.5 799.5,-388.5 898.5,-388.5 898.5,-369.5 799.5,-369.5"/>
<text text-anchor="middle" x="849" y="-376.5" font-family="Helvetica,sans-Serif" font-size="10.00" fill="#000000">odp/api/abi/event.h</text>
</g>
<!-- Node20&#45;&gt;Node21 -->
<g id="edge29" class="edge">
<title>Node20&#45;&gt;Node21</title>
<path fill="none" stroke="#191970" d="M581.1315,-651.9575C634.9513,-640.4239 720,-611.9264 720,-547 720,-547 720,-547 720,-491 720,-441.6478 774.5015,-409.1337 812.6532,-392.4194"/>
<polygon fill="#191970" stroke="#191970" points="814.0941,-395.6104 821.9574,-388.5097 811.3823,-389.157 814.0941,-395.6104"/>
</g>
<!-- Node22 -->
<g id="node23" class="node">
<title>Node22</title>
<polygon fill="#ffffff" stroke="#bfbfbf" points="681,-369.5 681,-388.5 781,-388.5 781,-369.5 681,-369.5"/>
<text text-anchor="middle" x="731" y="-376.5" font-family="Helvetica,sans-Serif" font-size="10.00" fill="#000000">odp/api/abi/buffer.h</text>
</g>
<!-- Node20&#45;&gt;Node22 -->
<g id="edge31" class="edge">
<title>Node20&#45;&gt;Node22</title>
<path fill="none" stroke="#191970" d="M556.3415,-649.3328C585.2107,-632.6392 638,-595.4848 638,-547 638,-547 638,-547 638,-491 638,-448.3531 678.4045,-413.267 705.9496,-394.3028"/>
<polygon fill="#191970" stroke="#191970" points="707.9693,-397.1632 714.3735,-388.7229 704.1037,-391.3273 707.9693,-397.1632"/>
</g>
<!-- Node23 -->
<g id="node24" class="node">
<title>Node23</title>
<g id="a_node24"><a xlink:href="spec_2queue_8h.html" target="_top" xlink:title="ODP queue. ">
<polygon fill="#ffffff" stroke="#000000" points="954,-593.5 954,-612.5 1064,-612.5 1064,-593.5 954,-593.5"/>
<text text-anchor="middle" x="1009" y="-600.5" font-family="Helvetica,sans-Serif" font-size="10.00" fill="#000000">odp/api/spec/queue.h</text>
</a>
</g>
</g>
<!-- Node20&#45;&gt;Node23 -->
<g id="edge33" class="edge">
<title>Node20&#45;&gt;Node23</title>
<path fill="none" stroke="#191970" d="M581.0467,-653.8819C663.8443,-644.0376 845.7326,-622.4118 943.5998,-610.7758"/>
<polygon fill="#191970" stroke="#191970" points="944.1496,-614.2352 953.6664,-609.5789 943.3231,-607.2842 944.1496,-614.2352"/>
</g>
<!-- Node23&#45;&gt;Node4 -->
<g id="edge34" class="edge">
<title>Node23&#45;&gt;Node4</title>
<path fill="none" stroke="#191970" d="M1033.7637,-593.4712C1124.0076,-556.9597 1430,-416.7708 1430,-194.5 1430,-194.5 1430,-194.5 1430,-133 1430,-87.3432 1401.1579,-79.4777 1362,-56 1322.4005,-32.2575 1271.3981,-20.7684 1231.6266,-15.2093"/>
<polygon fill="#191970" stroke="#191970" points="1231.8797,-11.7127 1221.5107,-13.8882 1230.9732,-18.6538 1231.8797,-11.7127"/>
</g>
<!-- Node23&#45;&gt;Node9 -->
<g id="edge69" class="edge">
<title>Node23&#45;&gt;Node9</title>
<path fill="none" stroke="#191970" d="M1008.6553,-593.2265C1007.6605,-572.1538 1003.8915,-521.1053 990,-481 971.3072,-427.0333 962.2689,-413.9214 927,-369 863.1145,-287.6301 832.147,-281.101 757,-210 725.7178,-180.402 717.5082,-173.3951 687,-143 662.5062,-118.597 648.7676,-117.7708 633,-87 623.8257,-69.0961 620.5805,-46.145 619.4749,-29.974"/>
<polygon fill="#191970" stroke="#191970" points="622.9519,-29.3942 618.9938,-19.5665 615.9594,-29.7175 622.9519,-29.3942"/>
</g>
<!-- Node24 -->
<g id="node25" class="node">
<title>Node24</title>
<g id="a_node25"><a xlink:href="event_8h.html" target="_top" xlink:title="ODP event. ">
<polygon fill="#ffffff" stroke="#000000" points="885.5,-537.5 885.5,-556.5 968.5,-556.5 968.5,-537.5 885.5,-537.5"/>
<text text-anchor="middle" x="927" y="-544.5" font-family="Helvetica,sans-Serif" font-size="10.00" fill="#000000">odp/api/event.h</text>
</a>
</g>
</g>
<!-- Node23&#45;&gt;Node24 -->
<g id="edge35" class="edge">
<title>Node23&#45;&gt;Node24</title>
<path fill="none" stroke="#191970" d="M994.7167,-593.2455C982.253,-584.7337 963.9549,-572.2375 949.5208,-562.3801"/>
<polygon fill="#191970" stroke="#191970" points="951.3515,-559.392 941.1196,-556.6427 947.4038,-565.1726 951.3515,-559.392"/>
</g>
<!-- Node31 -->
<g id="node32" class="node">
<title>Node31</title>
<g id="a_node32"><a xlink:href="queue__types_8h.html" target="_top" xlink:title="ODP queue types. ">
<polygon fill="#ffffff" stroke="#000000" points="996.5,-302.5 996.5,-332.5 1097.5,-332.5 1097.5,-302.5 996.5,-302.5"/>
<text text-anchor="start" x="1004.5" y="-320.5" font-family="Helvetica,sans-Serif" font-size="10.00" fill="#000000">odp/api/spec/queue</text>
<text text-anchor="middle" x="1047" y="-309.5" font-family="Helvetica,sans-Serif" font-size="10.00" fill="#000000">_types.h</text>
</a>
</g>
</g>
<!-- Node23&#45;&gt;Node31 -->
<g id="edge56" class="edge">
<title>Node23&#45;&gt;Node31</title>
<path fill="none" stroke="#191970" d="M1014.607,-593.4834C1025.1774,-574.6141 1047,-530.8343 1047,-491 1047,-491 1047,-491 1047,-435 1047,-403.3014 1047,-366.7926 1047,-342.9922"/>
<polygon fill="#191970" stroke="#191970" points="1050.5001,-342.7101 1047,-332.7101 1043.5001,-342.7102 1050.5001,-342.7101"/>
</g>
<!-- Node24&#45;&gt;Node21 -->
<g id="edge36" class="edge">
<title>Node24&#45;&gt;Node21</title>
<path fill="none" stroke="#191970" d="M906.5043,-537.3547C892.4128,-529.5916 874.5771,-517.2917 865,-501 846.2242,-469.0604 845.5453,-424.4012 847.0604,-398.9172"/>
<polygon fill="#191970" stroke="#191970" points="850.5711,-398.9127 847.8538,-388.6723 843.592,-398.3722 850.5711,-398.9127"/>
</g>
<!-- Node25 -->
<g id="node26" class="node">
<title>Node25</title>
<g id="a_node26"><a xlink:href="spec_2event_8h.html" target="_top" xlink:title="ODP event. ">
<polygon fill="#ffffff" stroke="#000000" points="873.5,-481.5 873.5,-500.5 980.5,-500.5 980.5,-481.5 873.5,-481.5"/>
<text text-anchor="middle" x="927" y="-488.5" font-family="Helvetica,sans-Serif" font-size="10.00" fill="#000000">odp/api/spec/event.h</text>
</a>
</g>
</g>
<!-- Node24&#45;&gt;Node25 -->
<g id="edge37" class="edge">
<title>Node24&#45;&gt;Node25</title>
<path fill="none" stroke="#191970" d="M927,-537.2455C927,-529.9382 927,-519.6944 927,-510.7046"/>
<polygon fill="#191970" stroke="#191970" points="930.5001,-510.6426 927,-500.6427 923.5001,-510.6427 930.5001,-510.6426"/>
</g>
<!-- Node25&#45;&gt;Node4 -->
<g id="edge38" class="edge">
<title>Node25&#45;&gt;Node4</title>
<path fill="none" stroke="#191970" d="M967.1285,-481.4473C1061.1985,-456.4359 1292.4821,-378.9422 1352,-210 1374.8651,-145.097 1386.4881,-102.7564 1336,-56 1320.5758,-41.7158 1272.351,-29.3789 1231.5039,-21.0874"/>
<polygon fill="#191970" stroke="#191970" points="1232.0626,-17.6301 1221.5731,-19.1201 1230.7023,-24.4967 1232.0626,-17.6301"/>
</g>
<!-- Node25&#45;&gt;Node9 -->
<g id="edge55" class="edge">
<title>Node25&#45;&gt;Node9</title>
<path fill="none" stroke="#191970" d="M928.347,-481.2828C930.8875,-458.9702 934.0063,-403.3524 908,-369 841.6173,-281.3134 763.34,-341.1072 683,-266 616.9006,-204.2058 608.2376,-174.7106 586,-87 582.614,-73.6448 581.7819,-69.1162 586,-56 589.3946,-45.4445 596.2058,-35.2592 602.7631,-27.1676"/>
<polygon fill="#191970" stroke="#191970" points="605.447,-29.4149 609.3508,-19.5654 600.1569,-24.8307 605.447,-29.4149"/>
</g>
<!-- Node25&#45;&gt;Node26 -->
<g id="edge39" class="edge">
<title>Node25&#45;&gt;Node26</title>
<path fill="none" stroke="#191970" d="M873.0863,-483.5636C795.6734,-472.886 653.7945,-453.3165 575.8601,-442.5669"/>
<polygon fill="#191970" stroke="#191970" points="576.1456,-439.0732 565.7611,-441.1739 575.189,-446.0076 576.1456,-439.0732"/>
</g>
<!-- Node26&#45;&gt;Node1 -->
<g id="edge40" class="edge">
<title>Node26&#45;&gt;Node1</title>
<path fill="none" stroke="#191970" d="M520.2227,-425.1598C518.7112,-411.427 514.3495,-386.2614 502,-369 468.2987,-321.8944 408.5466,-287.7569 371.7909,-269.9812"/>
<polygon fill="#191970" stroke="#191970" points="373.0606,-266.7104 362.5231,-265.6102 370.0746,-273.0416 373.0606,-266.7104"/>
</g>
<!-- Node26&#45;&gt;Node10 -->
<g id="edge45" class="edge">
<title>Node26&#45;&gt;Node10</title>
<path fill="none" stroke="#191970" d="M507.936,-425.2455C496.6438,-416.814 480.1155,-404.4729 466.9729,-394.6598"/>
<polygon fill="#191970" stroke="#191970" points="469.0211,-391.8211 458.9143,-388.6427 464.8331,-397.4301 469.0211,-391.8211"/>
</g>
<!-- Node26&#45;&gt;Node12 -->
<g id="edge43" class="edge">
<title>Node26&#45;&gt;Node12</title>
<path fill="none" stroke="#191970" d="M476.2177,-427.3309C419.1851,-417.5638 320.3387,-400.636 256.0647,-389.6288"/>
<polygon fill="#191970" stroke="#191970" points="256.505,-386.1533 246.0577,-387.9151 255.3234,-393.0529 256.505,-386.1533"/>
</g>
<!-- Node26&#45;&gt;Node13 -->
<g id="edge42" class="edge">
<title>Node26&#45;&gt;Node13</title>
<path fill="none" stroke="#191970" d="M486.9626,-425.3733C453.6106,-415.9404 402.6473,-401.5265 366.3998,-391.2747"/>
<polygon fill="#191970" stroke="#191970" points="367.1684,-387.8548 356.5933,-388.5011 365.2632,-394.5906 367.1684,-387.8548"/>
</g>
<!-- Node26&#45;&gt;Node21 -->
<g id="edge41" class="edge">
<title>Node26&#45;&gt;Node21</title>
<path fill="none" stroke="#191970" d="M565.5769,-427.3893C623.5199,-417.4966 724.9023,-400.1874 789.4039,-389.1749"/>
<polygon fill="#191970" stroke="#191970" points="790.1587,-392.5968 799.427,-387.4637 788.9806,-385.6966 790.1587,-392.5968"/>
</g>
<!-- Node26&#45;&gt;Node22 -->
<g id="edge44" class="edge">
<title>Node26&#45;&gt;Node22</title>
<path fill="none" stroke="#191970" d="M557.1003,-425.3733C592.6248,-415.9001 646.988,-401.4032 685.4619,-391.1435"/>
<polygon fill="#191970" stroke="#191970" points="686.6103,-394.4596 695.3708,-388.5011 684.8066,-387.696 686.6103,-394.4596"/>
</g>
<!-- Node27 -->
<g id="node28" class="node">
<title>Node27</title>
<g id="a_node28"><a xlink:href="spec_2packet_8h.html" target="_top" xlink:title="ODP packet descriptor. ">
<polygon fill="#ffffff" stroke="#000000" points="549.5,-369.5 549.5,-388.5 662.5,-388.5 662.5,-369.5 549.5,-369.5"/>
<text text-anchor="middle" x="606" y="-376.5" font-family="Helvetica,sans-Serif" font-size="10.00" fill="#000000">odp/api/spec/packet.h</text>
</a>
</g>
</g>
<!-- Node26&#45;&gt;Node27 -->
<g id="edge46" class="edge">
<title>Node26&#45;&gt;Node27</title>
<path fill="none" stroke="#191970" d="M535.8059,-425.2455C548.7256,-416.7337 567.6931,-404.2375 582.6552,-394.3801"/>
<polygon fill="#191970" stroke="#191970" points="584.9387,-397.067 591.3638,-388.6427 581.0876,-391.2216 584.9387,-397.067"/>
</g>
<!-- Node27&#45;&gt;Node4 -->
<g id="edge47" class="edge">
<title>Node27&#45;&gt;Node4</title>
<path fill="none" stroke="#191970" d="M662.8488,-370.1364C665.9416,-369.7323 669.0072,-369.3502 672,-369 811.8086,-352.6423 1210.6447,-377.1611 1297,-266 1354.4244,-192.0803 1368.2822,-131.5352 1313,-56 1302.6367,-41.84 1263.9636,-29.9861 1229.1627,-21.8594"/>
<polygon fill="#191970" stroke="#191970" points="1229.5266,-18.3534 1219.001,-19.5631 1227.9836,-25.1812 1229.5266,-18.3534"/>
</g>
<!-- Node27&#45;&gt;Node9 -->
<g id="edge54" class="edge">
<title>Node27&#45;&gt;Node9</title>
<path fill="none" stroke="#191970" d="M604.6517,-369.4997C599.4741,-336.8377 577.6954,-228.4557 511,-179 460.7752,-141.7575 430.637,-171.5316 375,-143 331.3309,-120.6058 274.9283,-93.147 307,-56 323.2031,-37.2328 472.6791,-21.9938 558.7173,-14.6859"/>
<polygon fill="#191970" stroke="#191970" points="559.2093,-18.1571 568.8821,-13.8343 558.6248,-11.1815 559.2093,-18.1571"/>
</g>
<!-- Node27&#45;&gt;Node28 -->
<g id="edge48" class="edge">
<title>Node27&#45;&gt;Node28</title>
<path fill="none" stroke="#191970" d="M595.5313,-369.3906C585.2663,-359.9683 569.4097,-345.4134 557.0994,-334.1137"/>
<polygon fill="#191970" stroke="#191970" points="559.3501,-331.4287 549.6163,-327.2449 554.6166,-336.5856 559.3501,-331.4287"/>
</g>
<!-- Node28&#45;&gt;Node1 -->
<g id="edge49" class="edge">
<title>Node28&#45;&gt;Node1</title>
<path fill="none" stroke="#191970" d="M507.9063,-307.8906C473.5876,-297.2846 418.2257,-280.1753 380.5302,-268.5257"/>
<polygon fill="#191970" stroke="#191970" points="381.463,-265.1507 370.8754,-265.5419 379.3961,-271.8386 381.463,-265.1507"/>
</g>
<!-- Node29 -->
<g id="node30" class="node">
<title>Node29</title>
<polygon fill="#ffffff" stroke="#bfbfbf" points="446,-246.5 446,-265.5 540,-265.5 540,-246.5 446,-246.5"/>
<text text-anchor="middle" x="493" y="-253.5" font-family="Helvetica,sans-Serif" font-size="10.00" fill="#000000">odp/api/abi/time.h</text>
</g>
<!-- Node28&#45;&gt;Node29 -->
<g id="edge50" class="edge">
<title>Node28&#45;&gt;Node29</title>
<path fill="none" stroke="#191970" d="M531.8125,-307.8906C525.0334,-298.8273 514.7022,-285.0149 506.4027,-273.9188"/>
<polygon fill="#191970" stroke="#191970" points="509.0812,-271.6563 500.2888,-265.7449 503.4757,-275.849 509.0812,-271.6563"/>
</g>
<!-- Node30 -->
<g id="node31" class="node">
<title>Node30</title>
<g id="a_node31"><a xlink:href="spec_2time_8h.html" target="_top" xlink:title="ODP time. ">
<polygon fill="#ffffff" stroke="#000000" points="666,-62 666,-81 768,-81 768,-62 666,-62"/>
<text text-anchor="middle" x="717" y="-69" font-family="Helvetica,sans-Serif" font-size="10.00" fill="#000000">odp/api/spec/time.h</text>
</a>
</g>
</g>
<!-- Node28&#45;&gt;Node30 -->
<g id="edge51" class="edge">
<title>Node28&#45;&gt;Node30</title>
<path fill="none" stroke="#191970" d="M545.9778,-307.8565C572.7283,-270.8867 668.9885,-137.8529 704.0823,-89.3525"/>
<polygon fill="#191970" stroke="#191970" points="707.0438,-91.2302 710.0704,-81.0768 701.3727,-87.1267 707.0438,-91.2302"/>
</g>
<!-- Node30&#45;&gt;Node4 -->
<g id="edge52" class="edge">
<title>Node30&#45;&gt;Node4</title>
<path fill="none" stroke="#191970" d="M768.0769,-63.1513C783.1733,-60.7569 799.7411,-58.2005 815,-56 916.0095,-41.4334 1033.5824,-26.5195 1104.3237,-17.7671"/>
<polygon fill="#191970" stroke="#191970" points="1104.9179,-21.2204 1114.4136,-16.5212 1104.06,-14.2732 1104.9179,-21.2204"/>
</g>
<!-- Node30&#45;&gt;Node9 -->
<g id="edge53" class="edge">
<title>Node30&#45;&gt;Node9</title>
<path fill="none" stroke="#191970" d="M701.6875,-61.8906C685.9376,-52.0067 661.1877,-36.4749 642.8663,-24.9773"/>
<polygon fill="#191970" stroke="#191970" points="644.5357,-21.8929 634.205,-19.5419 640.8148,-27.8221 644.5357,-21.8929"/>
</g>
<!-- Node31&#45;&gt;Node4 -->
<g id="edge57" class="edge">
<title>Node31&#45;&gt;Node4</title>
<path fill="none" stroke="#191970" d="M1075.668,-302.3186C1131.365,-270.9364 1252.6183,-192.9001 1297,-87 1302.3254,-74.293 1304.9394,-67.2602 1297,-56 1287.6965,-42.8051 1251.9619,-30.6647 1220.4567,-22.1731"/>
<polygon fill="#191970" stroke="#191970" points="1220.9753,-18.6911 1210.4151,-19.5476 1219.2045,-25.4635 1220.9753,-18.6911"/>
</g>
<!-- Node31&#45;&gt;Node9 -->
<g id="edge68" class="edge">
<title>Node31&#45;&gt;Node9</title>
<path fill="none" stroke="#191970" d="M1002.8674,-302.4678C923.1221,-273.1904 754.2883,-201.2033 657,-87 642.4087,-69.8718 631.8136,-46.1738 625.5747,-29.6074"/>
<polygon fill="#191970" stroke="#191970" points="628.7645,-28.1322 622.1057,-19.8914 622.1721,-30.486 628.7645,-28.1322"/>
</g>
<!-- Node31&#45;&gt;Node16 -->
<g id="edge67" class="edge">
<title>Node31&#45;&gt;Node16</title>
<path fill="none" stroke="#191970" d="M1092.7453,-302.4554C1124.2205,-292.104 1165.5649,-278.5067 1195.3824,-268.7004"/>
<polygon fill="#191970" stroke="#191970" points="1196.6157,-271.9793 1205.0216,-265.5303 1194.4287,-265.3297 1196.6157,-271.9793"/>
</g>
<!-- Node32 -->
<g id="node33" class="node">
<title>Node32</title>
<g id="a_node33"><a xlink:href="schedule__types_8h.html" target="_top" xlink:title="ODP schedule. ">
<polygon fill="#ffffff" stroke="#000000" points="978,-246.5 978,-265.5 1106,-265.5 1106,-246.5 978,-246.5"/>
<text text-anchor="middle" x="1042" y="-253.5" font-family="Helvetica,sans-Serif" font-size="10.00" fill="#000000">odp/api/schedule_types.h</text>
</a>
</g>
</g>
<!-- Node31&#45;&gt;Node32 -->
<g id="edge58" class="edge">
<title>Node31&#45;&gt;Node32</title>
<path fill="none" stroke="#191970" d="M1045.764,-302.2977C1045.1206,-294.3834 1044.3256,-284.6043 1043.6322,-276.0759"/>
<polygon fill="#191970" stroke="#191970" points="1047.0995,-275.5304 1042.8006,-265.8469 1040.1225,-276.0977 1047.0995,-275.5304"/>
</g>
<!-- Node33 -->
<g id="node34" class="node">
<title>Node33</title>
<polygon fill="#ffffff" stroke="#bfbfbf" points="989,-179.5 989,-209.5 1095,-209.5 1095,-179.5 989,-179.5"/>
<text text-anchor="start" x="997" y="-197.5" font-family="Helvetica,sans-Serif" font-size="10.00" fill="#000000">odp/api/abi/schedule</text>
<text text-anchor="middle" x="1042" y="-186.5" font-family="Helvetica,sans-Serif" font-size="10.00" fill="#000000">_types.h</text>
</g>
<!-- Node32&#45;&gt;Node33 -->
<g id="edge59" class="edge">
<title>Node32&#45;&gt;Node33</title>
<path fill="none" stroke="#191970" d="M1042,-246.3906C1042,-239.2234 1042,-229.0862 1042,-219.671"/>
<polygon fill="#191970" stroke="#191970" points="1045.5001,-219.5446 1042,-209.5446 1038.5001,-219.5446 1045.5001,-219.5446"/>
</g>
<!-- Node34 -->
<g id="node35" class="node">
<title>Node34</title>
<g id="a_node35"><a xlink:href="spec_2schedule__types_8h.html" target="_top" xlink:title="ODP schedule types. ">
<polygon fill="#ffffff" stroke="#000000" points="839,-179.5 839,-209.5 953,-209.5 953,-179.5 839,-179.5"/>
<text text-anchor="start" x="847" y="-197.5" font-family="Helvetica,sans-Serif" font-size="10.00" fill="#000000">odp/api/spec/schedule</text>
<text text-anchor="middle" x="896" y="-186.5" font-family="Helvetica,sans-Serif" font-size="10.00" fill="#000000">_types.h</text>
</a>
</g>
</g>
<!-- Node32&#45;&gt;Node34 -->
<g id="edge60" class="edge">
<title>Node32&#45;&gt;Node34</title>
<path fill="none" stroke="#191970" d="M1019.1875,-246.3906C998.3304,-237.6049 966.8793,-224.3567 940.9775,-213.446"/>
<polygon fill="#191970" stroke="#191970" points="942.2901,-210.2011 931.7156,-209.5446 939.5727,-216.6522 942.2901,-210.2011"/>
</g>
<!-- Node34&#45;&gt;Node4 -->
<g id="edge61" class="edge">
<title>Node34&#45;&gt;Node4</title>
<path fill="none" stroke="#191970" d="M909.4853,-179.2973C939.8455,-145.1946 1012.0054,-64.8749 1026,-56 1051.0329,-40.1251 1082.0457,-29.2528 1108.6966,-22.082"/>
<polygon fill="#191970" stroke="#191970" points="1109.8645,-25.3955 1118.6757,-19.5122 1108.1188,-18.6166 1109.8645,-25.3955"/>
</g>
<!-- Node34&#45;&gt;Node9 -->
<g id="edge66" class="edge">
<title>Node34&#45;&gt;Node9</title>
<path fill="none" stroke="#191970" d="M873.7201,-179.4077C860.6539,-169.8989 844.3429,-156.8346 832,-143 801.5458,-108.8652 813.5502,-83.5086 777,-56 748.6783,-34.6844 710.6962,-23.2253 679.0702,-17.0755"/>
<polygon fill="#191970" stroke="#191970" points="679.5094,-13.5981 669.0457,-15.2596 678.2617,-20.486 679.5094,-13.5981"/>
</g>
<!-- Node35 -->
<g id="node36" class="node">
<title>Node35</title>
<g id="a_node36"><a xlink:href="support_8h.html" target="_top" xlink:title="ODP support API &#45; platform specific header. ">
<polygon fill="#ffffff" stroke="#000000" points="841,-123.5 841,-142.5 933,-142.5 933,-123.5 841,-123.5"/>
<text text-anchor="middle" x="887" y="-130.5" font-family="Helvetica,sans-Serif" font-size="10.00" fill="#000000">odp/api/support.h</text>
</a>
</g>
</g>
<!-- Node34&#45;&gt;Node35 -->
<g id="edge62" class="edge">
<title>Node34&#45;&gt;Node35</title>
<path fill="none" stroke="#191970" d="M893.7753,-179.2977C892.6041,-171.2945 891.1538,-161.3843 889.8959,-152.7889"/>
<polygon fill="#191970" stroke="#191970" points="893.3522,-152.2347 888.441,-142.8469 886.426,-153.2484 893.3522,-152.2347"/>
</g>
<!-- Node36 -->
<g id="node37" class="node">
<title>Node36</title>
<g id="a_node37"><a xlink:href="spec_2support_8h.html" target="_top" xlink:title="ODP support API. ">
<polygon fill="#ffffff" stroke="#000000" points="824,-62 824,-81 940,-81 940,-62 824,-62"/>
<text text-anchor="middle" x="882" y="-69" font-family="Helvetica,sans-Serif" font-size="10.00" fill="#000000">odp/api/spec/support.h</text>
</a>
</g>
</g>
<!-- Node35&#45;&gt;Node36 -->
<g id="edge63" class="edge">
<title>Node35&#45;&gt;Node36</title>
<path fill="none" stroke="#191970" d="M886.2188,-123.3906C885.5257,-114.8657 884.491,-102.1392 883.6198,-91.4235"/>
<polygon fill="#191970" stroke="#191970" points="887.0912,-90.9283 882.7923,-81.2449 880.1142,-91.4956 887.0912,-90.9283"/>
</g>
<!-- Node36&#45;&gt;Node4 -->
<g id="edge64" class="edge">
<title>Node36&#45;&gt;Node4</title>
<path fill="none" stroke="#191970" d="M926.169,-61.9891C935.3668,-60.0092 944.9997,-57.9361 954,-56 1008.3428,-44.31 1070.4506,-30.961 1113.7082,-21.6653"/>
<polygon fill="#191970" stroke="#191970" points="1114.6933,-25.0336 1123.7348,-19.5108 1113.2226,-18.1899 1114.6933,-25.0336"/>
</g>
<!-- Node36&#45;&gt;Node9 -->
<g id="edge65" class="edge">
<title>Node36&#45;&gt;Node9</title>
<path fill="none" stroke="#191970" d="M841.1948,-61.9581C795.0311,-51.1632 719.7928,-33.5694 669.846,-21.8899"/>
<polygon fill="#191970" stroke="#191970" points="670.4352,-18.4333 659.9009,-19.5643 668.8413,-25.2494 670.4352,-18.4333"/>
</g>
</g>
</svg>
