<?xml version="1.0" encoding="UTF-8" standalone="no"?>
<!DOCTYPE svg PUBLIC "-//W3C//DTD SVG 1.1//EN"
 "http://www.w3.org/Graphics/SVG/1.1/DTD/svg11.dtd">
<!-- Generated by graphviz version 2.40.1 (20161225.0304)
 -->
<!-- Title: packet_vector_inlines.h Pages: 1 -->
<svg width="646pt" height="151pt"
 viewBox="0.00 0.00 645.50 151.00" xmlns="http://www.w3.org/2000/svg" xmlns:xlink="http://www.w3.org/1999/xlink">
<g id="graph0" class="graph" transform="scale(1 1) rotate(0) translate(4 147)">
<title>packet_vector_inlines.h</title>
<polygon fill="#ffffff" stroke="transparent" points="-4,4 -4,-147 641.5,-147 641.5,4 -4,4"/>
<!-- Node0 -->
<g id="node1" class="node">
<title>Node0</title>
<polygon fill="#bfbfbf" stroke="#000000" points="288,-123.5 288,-142.5 407,-142.5 407,-123.5 288,-123.5"/>
<text text-anchor="middle" x="347.5" y="-130.5" font-family="Helvetica,sans-Serif" font-size="10.00" fill="#000000">packet_vector_inlines.h</text>
</g>
<!-- Node1 -->
<g id="node2" class="node">
<title>Node1</title>
<polygon fill="#ffffff" stroke="#bfbfbf" points="0,-62 0,-81 99,-81 99,-62 0,-62"/>
<text text-anchor="middle" x="49.5" y="-69" font-family="Helvetica,sans-Serif" font-size="10.00" fill="#000000">odp/api/abi/event.h</text>
</g>
<!-- Node0&#45;&gt;Node1 -->
<g id="edge1" class="edge">
<title>Node0&#45;&gt;Node1</title>
<path fill="none" stroke="#191970" d="M292.2243,-123.442C243.643,-114.7844 171.1292,-101.2371 108.5,-87 103.8399,-85.9406 98.9894,-84.7731 94.1606,-83.5686"/>
<polygon fill="#191970" stroke="#191970" points="94.9016,-80.1456 84.3469,-81.0666 93.1723,-86.9286 94.9016,-80.1456"/>
</g>
<!-- Node2 -->
<g id="node3" class="node">
<title>Node2</title>
<polygon fill="#ffffff" stroke="#bfbfbf" points="117.5,-62 117.5,-81 221.5,-81 221.5,-62 117.5,-62"/>
<text text-anchor="middle" x="169.5" y="-69" font-family="Helvetica,sans-Serif" font-size="10.00" fill="#000000">odp/api/abi/packet.h</text>
</g>
<!-- Node0&#45;&gt;Node2 -->
<g id="edge2" class="edge">
<title>Node0&#45;&gt;Node2</title>
<path fill="none" stroke="#191970" d="M319.6875,-123.3906C289.2517,-112.8749 240.3123,-95.966 206.6174,-84.3243"/>
<polygon fill="#191970" stroke="#191970" points="207.712,-80.9995 197.1172,-81.0419 205.426,-87.6157 207.712,-80.9995"/>
</g>
<!-- Node3 -->
<g id="node4" class="node">
<title>Node3</title>
<polygon fill="#ffffff" stroke="#bfbfbf" points="240,-62 240,-81 333,-81 333,-62 240,-62"/>
<text text-anchor="middle" x="286.5" y="-69" font-family="Helvetica,sans-Serif" font-size="10.00" fill="#000000">odp/api/abi/pool.h</text>
</g>
<!-- Node0&#45;&gt;Node3 -->
<g id="edge3" class="edge">
<title>Node0&#45;&gt;Node3</title>
<path fill="none" stroke="#191970" d="M337.9688,-123.3906C328.7121,-114.0581 314.461,-99.6902 303.2997,-88.4374"/>
<polygon fill="#191970" stroke="#191970" points="305.6928,-85.88 296.1656,-81.2449 300.7228,-90.8095 305.6928,-85.88"/>
</g>
<!-- Node4 -->
<g id="node5" class="node">
<title>Node4</title>
<g id="a_node5"><a xlink:href="event__vector__inline__types_8h_source.html" target="_top" xlink:title="odp/api/plat/event\l_vector_inline_types.h">
<polygon fill="#ffffff" stroke="#000000" points="351.5,-56.5 351.5,-86.5 465.5,-86.5 465.5,-56.5 351.5,-56.5"/>
<text text-anchor="start" x="359.5" y="-74.5" font-family="Helvetica,sans-Serif" font-size="10.00" fill="#000000">odp/api/plat/event</text>
<text text-anchor="middle" x="408.5" y="-63.5" font-family="Helvetica,sans-Serif" font-size="10.00" fill="#000000">_vector_inline_types.h</text>
</a>
</g>
</g>
<!-- Node0&#45;&gt;Node4 -->
<g id="edge4" class="edge">
<title>Node0&#45;&gt;Node4</title>
<path fill="none" stroke="#191970" d="M357.0313,-123.3906C364.9047,-115.4527 376.3913,-103.8718 386.5167,-93.6635"/>
<polygon fill="#191970" stroke="#191970" points="389.0205,-96.1093 393.5777,-86.5446 384.0506,-91.1797 389.0205,-96.1093"/>
</g>
<!-- Node5 -->
<g id="node6" class="node">
<title>Node5</title>
<polygon fill="#ffffff" stroke="#bfbfbf" points="426,-.5 426,-19.5 475,-19.5 475,-.5 426,-.5"/>
<text text-anchor="middle" x="450.5" y="-7.5" font-family="Helvetica,sans-Serif" font-size="10.00" fill="#000000">stdint.h</text>
</g>
<!-- Node0&#45;&gt;Node5 -->
<g id="edge7" class="edge">
<title>Node0&#45;&gt;Node5</title>
<path fill="none" stroke="#191970" d="M388.9381,-123.448C421.975,-114.8947 464.3335,-101.4952 474.5,-87 486.9827,-69.2025 475.4986,-44.6726 464.526,-28.1216"/>
<polygon fill="#191970" stroke="#191970" points="467.2855,-25.9625 458.6382,-19.8408 461.5805,-30.0189 467.2855,-25.9625"/>
</g>
<!-- Node6 -->
<g id="node7" class="node">
<title>Node6</title>
<g id="a_node7"><a xlink:href="pool__inline__types_8h.html" target="_top" xlink:title="ODP packet descriptor. ">
<polygon fill="#ffffff" stroke="#000000" points="521.5,-56.5 521.5,-86.5 637.5,-86.5 637.5,-56.5 521.5,-56.5"/>
<text text-anchor="start" x="529.5" y="-74.5" font-family="Helvetica,sans-Serif" font-size="10.00" fill="#000000">odp/api/plat/pool_inline</text>
<text text-anchor="middle" x="579.5" y="-63.5" font-family="Helvetica,sans-Serif" font-size="10.00" fill="#000000">_types.h</text>
</a>
</g>
</g>
<!-- Node0&#45;&gt;Node6 -->
<g id="edge6" class="edge">
<title>Node0&#45;&gt;Node6</title>
<path fill="none" stroke="#191970" d="M383.4954,-123.4581C417.9013,-114.3376 470.6154,-100.3638 512.7135,-89.2042"/>
<polygon fill="#191970" stroke="#191970" points="513.8495,-92.524 522.6188,-86.5784 512.0558,-85.7577 513.8495,-92.524"/>
</g>
<!-- Node4&#45;&gt;Node5 -->
<g id="edge5" class="edge">
<title>Node4&#45;&gt;Node5</title>
<path fill="none" stroke="#191970" d="M418.882,-56.2977C424.6513,-47.8498 431.8716,-37.2773 437.9553,-28.369"/>
<polygon fill="#191970" stroke="#191970" points="441.0259,-30.0788 443.7753,-19.8469 435.2453,-26.1311 441.0259,-30.0788"/>
</g>
</g>
</svg>
