<?xml version="1.0" encoding="UTF-8" standalone="no"?>
<!DOCTYPE svg PUBLIC "-//W3C//DTD SVG 1.1//EN"
 "http://www.w3.org/Graphics/SVG/1.1/DTD/svg11.dtd">
<!-- Generated by graphviz version 2.40.1 (20161225.0304)
 -->
<!-- Title: packet_io_stats.h Pages: 1 -->
<svg width="224pt" height="364pt"
 viewBox="0.00 0.00 223.50 364.00" xmlns="http://www.w3.org/2000/svg" xmlns:xlink="http://www.w3.org/1999/xlink">
<g id="graph0" class="graph" transform="scale(1 1) rotate(0) translate(4 360)">
<title>packet_io_stats.h</title>
<polygon fill="#ffffff" stroke="transparent" points="-4,4 -4,-360 219.5,-360 219.5,4 -4,4"/>
<!-- Node4 -->
<g id="node1" class="node">
<title>Node4</title>
<polygon fill="#bfbfbf" stroke="#000000" points="63,-336.5 63,-355.5 157,-355.5 157,-336.5 63,-336.5"/>
<text text-anchor="middle" x="110" y="-343.5" font-family="Helvetica,sans-Serif" font-size="10.00" fill="#000000">packet_io_stats.h</text>
</g>
<!-- Node5 -->
<g id="node2" class="node">
<title>Node5</title>
<g id="a_node2"><a xlink:href="spec_2packet__io_8h.html" target="_top" xlink:title="ODP Packet IO. ">
<polygon fill="#ffffff" stroke="#000000" points="76.5,-280.5 76.5,-299.5 143.5,-299.5 143.5,-280.5 76.5,-280.5"/>
<text text-anchor="middle" x="110" y="-287.5" font-family="Helvetica,sans-Serif" font-size="10.00" fill="#000000">packet_io.h</text>
</a>
</g>
</g>
<!-- Node4&#45;&gt;Node5 -->
<g id="edge1" class="edge">
<title>Node4&#45;&gt;Node5</title>
<path fill="none" stroke="#191970" d="M110,-326.1575C110,-317.155 110,-306.9199 110,-299.6427"/>
<polygon fill="#191970" stroke="#191970" points="106.5001,-326.2455 110,-336.2455 113.5001,-326.2456 106.5001,-326.2455"/>
</g>
<!-- Node6 -->
<g id="node3" class="node">
<title>Node6</title>
<g id="a_node3"><a xlink:href="packet__io_8h.html" target="_top" xlink:title="ODP Packet IO. ">
<polygon fill="#ffffff" stroke="#000000" points="76.5,-224.5 76.5,-243.5 143.5,-243.5 143.5,-224.5 76.5,-224.5"/>
<text text-anchor="middle" x="110" y="-231.5" font-family="Helvetica,sans-Serif" font-size="10.00" fill="#000000">packet_io.h</text>
</a>
</g>
</g>
<!-- Node5&#45;&gt;Node6 -->
<g id="edge2" class="edge">
<title>Node5&#45;&gt;Node6</title>
<path fill="none" stroke="#191970" d="M110,-270.1575C110,-261.155 110,-250.9199 110,-243.6427"/>
<polygon fill="#191970" stroke="#191970" points="106.5001,-270.2455 110,-280.2455 113.5001,-270.2456 106.5001,-270.2455"/>
</g>
<!-- Node7 -->
<g id="node4" class="node">
<title>Node7</title>
<g id="a_node4"><a xlink:href="spec_2classification_8h.html" target="_top" xlink:title="ODP classification descriptor. ">
<polygon fill="#ffffff" stroke="#000000" points="0,-168.5 0,-187.5 82,-187.5 82,-168.5 0,-168.5"/>
<text text-anchor="middle" x="41" y="-175.5" font-family="Helvetica,sans-Serif" font-size="10.00" fill="#000000">classification.h</text>
</a>
</g>
</g>
<!-- Node6&#45;&gt;Node7 -->
<g id="edge3" class="edge">
<title>Node6&#45;&gt;Node7</title>
<path fill="none" stroke="#191970" d="M90.197,-217.928C78.1364,-208.1397 63.1286,-195.9595 52.8812,-187.6427"/>
<polygon fill="#191970" stroke="#191970" points="88.0109,-220.6614 97.9811,-224.2455 92.4221,-215.2262 88.0109,-220.6614"/>
</g>
<!-- Node9 -->
<g id="node6" class="node">
<title>Node9</title>
<g id="a_node6"><a xlink:href="spec_2ipsec_8h.html" target="_top" xlink:title="ODP IPSEC API. ">
<polygon fill="#ffffff" stroke="#000000" points="86,-56.5 86,-75.5 134,-75.5 134,-56.5 86,-56.5"/>
<text text-anchor="middle" x="110" y="-63.5" font-family="Helvetica,sans-Serif" font-size="10.00" fill="#000000">ipsec.h</text>
</a>
</g>
</g>
<!-- Node6&#45;&gt;Node9 -->
<g id="edge7" class="edge">
<title>Node6&#45;&gt;Node9</title>
<path fill="none" stroke="#191970" d="M110,-214.2601C110,-178.1669 110,-102.7656 110,-75.8279"/>
<polygon fill="#191970" stroke="#191970" points="106.5001,-214.4862 110,-224.4862 113.5001,-214.4863 106.5001,-214.4862"/>
</g>
<!-- Node11 -->
<g id="node8" class="node">
<title>Node11</title>
<g id="a_node8"><a xlink:href="spec_2traffic__mngr_8h.html" target="_top" xlink:title="Copyright (c) 2015&#45;2018, Linaro Limited All rights reserved. ">
<polygon fill="#ffffff" stroke="#000000" points="138.5,-168.5 138.5,-187.5 215.5,-187.5 215.5,-168.5 138.5,-168.5"/>
<text text-anchor="middle" x="177" y="-175.5" font-family="Helvetica,sans-Serif" font-size="10.00" fill="#000000">traffic_mngr.h</text>
</a>
</g>
</g>
<!-- Node6&#45;&gt;Node11 -->
<g id="edge8" class="edge">
<title>Node6&#45;&gt;Node11</title>
<path fill="none" stroke="#191970" d="M129.5676,-217.645C141.2198,-207.9058 155.6084,-195.8795 165.4632,-187.6427"/>
<polygon fill="#191970" stroke="#191970" points="127.0988,-215.1469 121.6705,-224.2455 131.5879,-220.5179 127.0988,-215.1469"/>
</g>
<!-- Node8 -->
<g id="node5" class="node">
<title>Node8</title>
<g id="a_node5"><a xlink:href="classification_8h.html" target="_top" xlink:title="ODP classification descriptor. ">
<polygon fill="#ffffff" stroke="#000000" points="0,-112.5 0,-131.5 82,-131.5 82,-112.5 0,-112.5"/>
<text text-anchor="middle" x="41" y="-119.5" font-family="Helvetica,sans-Serif" font-size="10.00" fill="#000000">classification.h</text>
</a>
</g>
</g>
<!-- Node7&#45;&gt;Node8 -->
<g id="edge4" class="edge">
<title>Node7&#45;&gt;Node8</title>
<path fill="none" stroke="#191970" d="M41,-158.1575C41,-149.155 41,-138.9199 41,-131.6427"/>
<polygon fill="#191970" stroke="#191970" points="37.5001,-158.2455 41,-168.2455 44.5001,-158.2456 37.5001,-158.2455"/>
</g>
<!-- Node8&#45;&gt;Node9 -->
<g id="edge5" class="edge">
<title>Node8&#45;&gt;Node9</title>
<path fill="none" stroke="#191970" d="M60.803,-105.928C72.8636,-96.1397 87.8714,-83.9595 98.1188,-75.6427"/>
<polygon fill="#191970" stroke="#191970" points="58.5779,-103.2262 53.0189,-112.2455 62.9891,-108.6614 58.5779,-103.2262"/>
</g>
<!-- Node10 -->
<g id="node7" class="node">
<title>Node10</title>
<g id="a_node7"><a xlink:href="ipsec_8h.html" target="_top" xlink:title="ODP IPSEC API &#45; platform specific header. ">
<polygon fill="#ffffff" stroke="#000000" points="86,-.5 86,-19.5 134,-19.5 134,-.5 86,-.5"/>
<text text-anchor="middle" x="110" y="-7.5" font-family="Helvetica,sans-Serif" font-size="10.00" fill="#000000">ipsec.h</text>
</a>
</g>
</g>
<!-- Node9&#45;&gt;Node10 -->
<g id="edge6" class="edge">
<title>Node9&#45;&gt;Node10</title>
<path fill="none" stroke="#191970" d="M110,-46.1575C110,-37.155 110,-26.9199 110,-19.6427"/>
<polygon fill="#191970" stroke="#191970" points="106.5001,-46.2455 110,-56.2455 113.5001,-46.2456 106.5001,-46.2455"/>
</g>
<!-- Node12 -->
<g id="node9" class="node">
<title>Node12</title>
<g id="a_node9"><a xlink:href="traffic__mngr_8h.html" target="_top" xlink:title="ODP Traffic manager. ">
<polygon fill="#ffffff" stroke="#000000" points="138.5,-112.5 138.5,-131.5 215.5,-131.5 215.5,-112.5 138.5,-112.5"/>
<text text-anchor="middle" x="177" y="-119.5" font-family="Helvetica,sans-Serif" font-size="10.00" fill="#000000">traffic_mngr.h</text>
</a>
</g>
</g>
<!-- Node11&#45;&gt;Node12 -->
<g id="edge9" class="edge">
<title>Node11&#45;&gt;Node12</title>
<path fill="none" stroke="#191970" d="M177,-158.1575C177,-149.155 177,-138.9199 177,-131.6427"/>
<polygon fill="#191970" stroke="#191970" points="173.5001,-158.2455 177,-168.2455 180.5001,-158.2456 173.5001,-158.2455"/>
</g>
<!-- Node12&#45;&gt;Node9 -->
<g id="edge10" class="edge">
<title>Node12&#45;&gt;Node9</title>
<path fill="none" stroke="#191970" d="M157.4324,-105.645C145.7802,-95.9058 131.3916,-83.8795 121.5368,-75.6427"/>
<polygon fill="#191970" stroke="#191970" points="155.4121,-108.5179 165.3295,-112.2455 159.9012,-103.1469 155.4121,-108.5179"/>
</g>
</g>
</svg>
