<?xml version="1.0" encoding="UTF-8" standalone="no"?>
<!DOCTYPE svg PUBLIC "-//W3C//DTD SVG 1.1//EN"
 "http://www.w3.org/Graphics/SVG/1.1/DTD/svg11.dtd">
<!-- Generated by graphviz version 2.40.1 (20161225.0304)
 -->
<!-- Title: packet_inlines.h Pages: 1 -->
<svg width="1347pt" height="453pt"
 viewBox="0.00 0.00 1346.50 453.00" xmlns="http://www.w3.org/2000/svg" xmlns:xlink="http://www.w3.org/1999/xlink">
<g id="graph0" class="graph" transform="scale(1 1) rotate(0) translate(4 449)">
<title>packet_inlines.h</title>
<polygon fill="#ffffff" stroke="transparent" points="-4,4 -4,-449 1342.5,-449 1342.5,4 -4,4"/>
<!-- Node0 -->
<g id="node1" class="node">
<title>Node0</title>
<polygon fill="#bfbfbf" stroke="#000000" points="720.5,-425.5 720.5,-444.5 807.5,-444.5 807.5,-425.5 720.5,-425.5"/>
<text text-anchor="middle" x="764" y="-432.5" font-family="Helvetica,sans-Serif" font-size="10.00" fill="#000000">packet_inlines.h</text>
</g>
<!-- Node1 -->
<g id="node2" class="node">
<title>Node1</title>
<polygon fill="#ffffff" stroke="#bfbfbf" points="357,-364 357,-383 461,-383 461,-364 357,-364"/>
<text text-anchor="middle" x="409" y="-371" font-family="Helvetica,sans-Serif" font-size="10.00" fill="#000000">odp/api/abi/packet.h</text>
</g>
<!-- Node0&#45;&gt;Node1 -->
<g id="edge1" class="edge">
<title>Node0&#45;&gt;Node1</title>
<path fill="none" stroke="#191970" d="M720.2497,-429.0486C663.4895,-421.096 561.4891,-406.0157 475,-389 469.3032,-387.8792 463.3514,-386.6149 457.4543,-385.3039"/>
<polygon fill="#191970" stroke="#191970" points="458.1634,-381.8759 447.6362,-383.0707 456.6108,-388.7015 458.1634,-381.8759"/>
</g>
<!-- Node2 -->
<g id="node3" class="node">
<title>Node2</title>
<g id="a_node3"><a xlink:href="pool_8h.html" target="_top" xlink:title="ODP pool. ">
<polygon fill="#ffffff" stroke="#000000" points="517.5,-364 517.5,-383 594.5,-383 594.5,-364 517.5,-364"/>
<text text-anchor="middle" x="556" y="-371" font-family="Helvetica,sans-Serif" font-size="10.00" fill="#000000">odp/api/pool.h</text>
</a>
</g>
</g>
<!-- Node0&#45;&gt;Node2 -->
<g id="edge2" class="edge">
<title>Node0&#45;&gt;Node2</title>
<path fill="none" stroke="#191970" d="M731.5,-425.3906C695.553,-414.7621 637.5173,-397.6025 598.112,-385.9514"/>
<polygon fill="#191970" stroke="#191970" points="598.8538,-382.521 588.2718,-383.0419 596.869,-389.2337 598.8538,-382.521"/>
</g>
<!-- Node5 -->
<g id="node6" class="node">
<title>Node5</title>
<polygon fill="#ffffff" stroke="#bfbfbf" points="598.5,-297 598.5,-316 697.5,-316 697.5,-297 598.5,-297"/>
<text text-anchor="middle" x="648" y="-304" font-family="Helvetica,sans-Serif" font-size="10.00" fill="#000000">odp/api/abi/event.h</text>
</g>
<!-- Node0&#45;&gt;Node5 -->
<g id="edge32" class="edge">
<title>Node0&#45;&gt;Node5</title>
<path fill="none" stroke="#191970" d="M751.8592,-425.3606C740.9343,-416.4372 724.6954,-402.5414 712,-389 692.5425,-368.2459 672.8892,-341.9332 660.5926,-324.6768"/>
<polygon fill="#191970" stroke="#191970" points="663.1839,-322.2774 654.566,-316.1145 657.4596,-326.3065 663.1839,-322.2774"/>
</g>
<!-- Node16 -->
<g id="node17" class="node">
<title>Node16</title>
<polygon fill="#ffffff" stroke="#bfbfbf" points="792.5,-364 792.5,-383 909.5,-383 909.5,-364 792.5,-364"/>
<text text-anchor="middle" x="851" y="-371" font-family="Helvetica,sans-Serif" font-size="10.00" fill="#000000">odp/api/abi/packet_io.h</text>
</g>
<!-- Node0&#45;&gt;Node16 -->
<g id="edge20" class="edge">
<title>Node0&#45;&gt;Node16</title>
<path fill="none" stroke="#191970" d="M777.5938,-425.3906C791.3843,-415.6421 812.9472,-400.3994 829.141,-388.9521"/>
<polygon fill="#191970" stroke="#191970" points="831.3563,-391.6723 837.5017,-383.0419 827.3156,-385.9563 831.3563,-391.6723"/>
</g>
<!-- Node17 -->
<g id="node18" class="node">
<title>Node17</title>
<g id="a_node18"><a xlink:href="hints_8h.html" target="_top" xlink:title="ODP compiler hints. ">
<polygon fill="#ffffff" stroke="#000000" points="686,-168.5 686,-187.5 766,-187.5 766,-168.5 686,-168.5"/>
<text text-anchor="middle" x="726" y="-175.5" font-family="Helvetica,sans-Serif" font-size="10.00" fill="#000000">odp/api/hints.h</text>
</a>
</g>
</g>
<!-- Node0&#45;&gt;Node17 -->
<g id="edge21" class="edge">
<title>Node0&#45;&gt;Node17</title>
<path fill="none" stroke="#191970" d="M762.5568,-425.2391C756.9489,-387.3126 736.5412,-249.2919 728.9078,-197.6658"/>
<polygon fill="#191970" stroke="#191970" points="732.3698,-197.1511 727.4447,-187.7706 725.4451,-198.175 732.3698,-197.1511"/>
</g>
<!-- Node19 -->
<g id="node20" class="node">
<title>Node19</title>
<g id="a_node20"><a xlink:href="time_8h.html" target="_top" xlink:title="ODP time. ">
<polygon fill="#ffffff" stroke="#000000" points="133,-297 133,-316 211,-316 211,-297 133,-297"/>
<text text-anchor="middle" x="172" y="-304" font-family="Helvetica,sans-Serif" font-size="10.00" fill="#000000">odp/api/time.h</text>
</a>
</g>
</g>
<!-- Node0&#45;&gt;Node19 -->
<g id="edge25" class="edge">
<title>Node0&#45;&gt;Node19</title>
<path fill="none" stroke="#191970" d="M720.4547,-429.7585C657.8952,-421.7874 546.0381,-405.7646 509,-389 488.8281,-379.8696 490.2614,-366.9301 470,-358 377.3298,-317.1561 344.5636,-340.5229 245,-322 237.2977,-320.5671 229.1612,-318.9463 221.2253,-317.3063"/>
<polygon fill="#191970" stroke="#191970" points="221.8336,-313.8578 211.3282,-315.2315 220.3973,-320.7089 221.8336,-313.8578"/>
</g>
<!-- Node22 -->
<g id="node23" class="node">
<title>Node22</title>
<polygon fill="#ffffff" stroke="#bfbfbf" points="928,-364 928,-383 1028,-383 1028,-364 928,-364"/>
<text text-anchor="middle" x="978" y="-371" font-family="Helvetica,sans-Serif" font-size="10.00" fill="#000000">odp/api/abi/buffer.h</text>
</g>
<!-- Node0&#45;&gt;Node22 -->
<g id="edge31" class="edge">
<title>Node0&#45;&gt;Node22</title>
<path fill="none" stroke="#191970" d="M797.4375,-425.3906C834.5,-414.7395 894.3849,-397.5296 934.9312,-385.8772"/>
<polygon fill="#191970" stroke="#191970" points="936.153,-389.1679 944.7973,-383.0419 934.2196,-382.4402 936.153,-389.1679"/>
</g>
<!-- Node23 -->
<g id="node24" class="node">
<title>Node23</title>
<g id="a_node24"><a xlink:href="packet__inline__types_8h.html" target="_top" xlink:title="ODP packet descriptor. ">
<polygon fill="#ffffff" stroke="#000000" points="598.5,-224.5 598.5,-254.5 697.5,-254.5 697.5,-224.5 598.5,-224.5"/>
<text text-anchor="start" x="606.5" y="-242.5" font-family="Helvetica,sans-Serif" font-size="10.00" fill="#000000">odp/api/plat/packet</text>
<text text-anchor="middle" x="648" y="-231.5" font-family="Helvetica,sans-Serif" font-size="10.00" fill="#000000">_inline_types.h</text>
</a>
</g>
</g>
<!-- Node0&#45;&gt;Node23 -->
<g id="edge33" class="edge">
<title>Node0&#45;&gt;Node23</title>
<path fill="none" stroke="#191970" d="M761.9013,-425.4919C756.2228,-401.2771 738.8031,-336.0185 707,-291 699.0766,-279.7841 688.2216,-269.402 677.9816,-260.9416"/>
<polygon fill="#191970" stroke="#191970" points="679.9794,-258.0591 669.9688,-254.5893 675.6307,-263.5444 679.9794,-258.0591"/>
</g>
<!-- Node24 -->
<g id="node25" class="node">
<title>Node24</title>
<g id="a_node25"><a xlink:href="pool__inline__types_8h.html" target="_top" xlink:title="ODP packet descriptor. ">
<polygon fill="#ffffff" stroke="#000000" points="1046,-358.5 1046,-388.5 1162,-388.5 1162,-358.5 1046,-358.5"/>
<text text-anchor="start" x="1054" y="-376.5" font-family="Helvetica,sans-Serif" font-size="10.00" fill="#000000">odp/api/plat/pool_inline</text>
<text text-anchor="middle" x="1104" y="-365.5" font-family="Helvetica,sans-Serif" font-size="10.00" fill="#000000">_types.h</text>
</a>
</g>
</g>
<!-- Node0&#45;&gt;Node24 -->
<g id="edge35" class="edge">
<title>Node0&#45;&gt;Node24</title>
<path fill="none" stroke="#191970" d="M807.6479,-428.478C859.6658,-420.521 949.4277,-406.2103 1035.9544,-389.1428"/>
<polygon fill="#191970" stroke="#191970" points="1036.8161,-392.5401 1045.9417,-387.1574 1035.4512,-385.6744 1036.8161,-392.5401"/>
</g>
<!-- Node25 -->
<g id="node26" class="node">
<title>Node25</title>
<g id="a_node26"><a xlink:href="pktio__inlines_8h_source.html" target="_top" xlink:title="odp/api/plat/pktio\l_inlines.h">
<polygon fill="#ffffff" stroke="#000000" points="1180.5,-358.5 1180.5,-388.5 1271.5,-388.5 1271.5,-358.5 1180.5,-358.5"/>
<text text-anchor="start" x="1188.5" y="-376.5" font-family="Helvetica,sans-Serif" font-size="10.00" fill="#000000">odp/api/plat/pktio</text>
<text text-anchor="middle" x="1226" y="-365.5" font-family="Helvetica,sans-Serif" font-size="10.00" fill="#000000">_inlines.h</text>
</a>
</g>
</g>
<!-- Node0&#45;&gt;Node25 -->
<g id="edge36" class="edge">
<title>Node0&#45;&gt;Node25</title>
<path fill="none" stroke="#191970" d="M807.7231,-432.3924C880.8927,-427.5223 1032.8229,-415.2478 1170.3427,-388.9217"/>
<polygon fill="#191970" stroke="#191970" points="1171.0697,-392.346 1180.218,-387.0019 1169.7338,-385.4747 1171.0697,-392.346"/>
</g>
<!-- Node26 -->
<g id="node27" class="node">
<title>Node26</title>
<polygon fill="#ffffff" stroke="#bfbfbf" points="1289.5,-364 1289.5,-383 1338.5,-383 1338.5,-364 1289.5,-364"/>
<text text-anchor="middle" x="1314" y="-371" font-family="Helvetica,sans-Serif" font-size="10.00" fill="#000000">string.h</text>
</g>
<!-- Node0&#45;&gt;Node26 -->
<g id="edge37" class="edge">
<title>Node0&#45;&gt;Node26</title>
<path fill="none" stroke="#191970" d="M807.5516,-433.0824C915.3008,-428.0248 1192.0515,-413.0366 1281,-389 1282.9706,-388.4675 1284.9685,-387.8231 1286.9554,-387.1036"/>
<polygon fill="#191970" stroke="#191970" points="1288.7545,-390.1444 1296.6224,-383.0489 1286.047,-383.6893 1288.7545,-390.1444"/>
</g>
<!-- Node3 -->
<g id="node4" class="node">
<title>Node3</title>
<polygon fill="#ffffff" stroke="#bfbfbf" points="368.5,-297 368.5,-316 461.5,-316 461.5,-297 368.5,-297"/>
<text text-anchor="middle" x="415" y="-304" font-family="Helvetica,sans-Serif" font-size="10.00" fill="#000000">odp/api/abi/pool.h</text>
</g>
<!-- Node2&#45;&gt;Node3 -->
<g id="edge3" class="edge">
<title>Node2&#45;&gt;Node3</title>
<path fill="none" stroke="#191970" d="M535.7981,-363.9005C511.821,-352.5072 471.6479,-333.4178 444.2679,-320.4075"/>
<polygon fill="#191970" stroke="#191970" points="445.6987,-317.2123 435.1644,-316.0817 442.6944,-323.5348 445.6987,-317.2123"/>
</g>
<!-- Node4 -->
<g id="node5" class="node">
<title>Node4</title>
<polygon fill="#ffffff" stroke="#bfbfbf" points="254,-291.5 254,-321.5 350,-321.5 350,-291.5 254,-291.5"/>
<text text-anchor="start" x="262" y="-309.5" font-family="Helvetica,sans-Serif" font-size="10.00" fill="#000000">odp/api/abi/shared</text>
<text text-anchor="middle" x="302" y="-298.5" font-family="Helvetica,sans-Serif" font-size="10.00" fill="#000000">_memory.h</text>
</g>
<!-- Node2&#45;&gt;Node4 -->
<g id="edge4" class="edge">
<title>Node2&#45;&gt;Node4</title>
<path fill="none" stroke="#191970" d="M524.1052,-363.9599C517.162,-361.9426 509.8455,-359.862 503,-358 439.759,-340.7987 423.4378,-338.4608 360,-322 359.8991,-321.9738 359.7981,-321.9476 359.6971,-321.9214"/>
<polygon fill="#191970" stroke="#191970" points="360.6528,-318.5537 350.0926,-319.4099 358.8818,-325.326 360.6528,-318.5537"/>
</g>
<!-- Node2&#45;&gt;Node5 -->
<g id="edge5" class="edge">
<title>Node2&#45;&gt;Node5</title>
<path fill="none" stroke="#191970" d="M569.1814,-363.9005C584.2111,-352.9549 608.9942,-334.9064 626.7593,-321.9688"/>
<polygon fill="#191970" stroke="#191970" points="628.82,-324.7979 634.8431,-316.0817 624.6991,-319.1394 628.82,-324.7979"/>
</g>
<!-- Node6 -->
<g id="node7" class="node">
<title>Node6</title>
<g id="a_node7"><a xlink:href="spec_2pool_8h.html" target="_top" xlink:title="ODP pool. ">
<polygon fill="#ffffff" stroke="#000000" points="479.5,-297 479.5,-316 580.5,-316 580.5,-297 479.5,-297"/>
<text text-anchor="middle" x="530" y="-304" font-family="Helvetica,sans-Serif" font-size="10.00" fill="#000000">odp/api/spec/pool.h</text>
</a>
</g>
</g>
<!-- Node2&#45;&gt;Node6 -->
<g id="edge6" class="edge">
<title>Node2&#45;&gt;Node6</title>
<path fill="none" stroke="#191970" d="M552.2748,-363.9005C548.4134,-353.95 542.274,-338.1292 537.4177,-325.6147"/>
<polygon fill="#191970" stroke="#191970" points="540.599,-324.1381 533.7183,-316.0817 534.0731,-326.6706 540.599,-324.1381"/>
</g>
<!-- Node7 -->
<g id="node8" class="node">
<title>Node7</title>
<polygon fill="#ffffff" stroke="#bfbfbf" points="513.5,-.5 513.5,-19.5 620.5,-19.5 620.5,-.5 513.5,-.5"/>
<text text-anchor="middle" x="567" y="-7.5" font-family="Helvetica,sans-Serif" font-size="10.00" fill="#000000">odp/visibility_begin.h</text>
</g>
<!-- Node6&#45;&gt;Node7 -->
<g id="edge7" class="edge">
<title>Node6&#45;&gt;Node7</title>
<path fill="none" stroke="#191970" d="M536.8829,-296.7449C547.897,-281.2015 570.2544,-249.9232 590,-224 640.9749,-157.0769 680.2193,-155.4064 708,-76 720.9589,-38.9591 673.8646,-22.7042 630.6671,-15.5723"/>
<polygon fill="#191970" stroke="#191970" points="631.0836,-12.0956 620.6736,-14.0662 630.0404,-19.0174 631.0836,-12.0956"/>
</g>
<!-- Node8 -->
<g id="node9" class="node">
<title>Node8</title>
<g id="a_node9"><a xlink:href="std__types_8h.html" target="_top" xlink:title="Standard C language types and definitions for ODP. ">
<polygon fill="#ffffff" stroke="#000000" points="378,-230 378,-249 480,-249 480,-230 378,-230"/>
<text text-anchor="middle" x="429" y="-237" font-family="Helvetica,sans-Serif" font-size="10.00" fill="#000000">odp/api/std_types.h</text>
</a>
</g>
</g>
<!-- Node6&#45;&gt;Node8 -->
<g id="edge8" class="edge">
<title>Node6&#45;&gt;Node8</title>
<path fill="none" stroke="#191970" d="M515.5292,-296.9005C498.8791,-285.8554 471.326,-267.5776 451.7886,-254.6172"/>
<polygon fill="#191970" stroke="#191970" points="453.712,-251.693 443.444,-249.0817 449.8424,-257.5263 453.712,-251.693"/>
</g>
<!-- Node15 -->
<g id="node16" class="node">
<title>Node15</title>
<polygon fill="#ffffff" stroke="#bfbfbf" points="243,-.5 243,-19.5 343,-19.5 343,-.5 243,-.5"/>
<text text-anchor="middle" x="293" y="-7.5" font-family="Helvetica,sans-Serif" font-size="10.00" fill="#000000">odp/visibility_end.h</text>
</g>
<!-- Node6&#45;&gt;Node15 -->
<g id="edge19" class="edge">
<title>Node6&#45;&gt;Node15</title>
<path fill="none" stroke="#191970" d="M494.7455,-296.9327C454.3149,-285.6635 390.8034,-266.9661 369,-255 259.9987,-195.1781 206.7644,-188.5872 154,-76 136.9789,-39.6809 187.7375,-23.2613 232.6249,-15.8922"/>
<polygon fill="#191970" stroke="#191970" points="233.3132,-19.3279 242.6768,-14.3708 232.2657,-12.4067 233.3132,-19.3279"/>
</g>
<!-- Node9 -->
<g id="node10" class="node">
<title>Node9</title>
<polygon fill="#ffffff" stroke="#bfbfbf" points="309,-168.5 309,-187.5 427,-187.5 427,-168.5 309,-168.5"/>
<text text-anchor="middle" x="368" y="-175.5" font-family="Helvetica,sans-Serif" font-size="10.00" fill="#000000">odp/api/abi/std_types.h</text>
</g>
<!-- Node8&#45;&gt;Node9 -->
<g id="edge9" class="edge">
<title>Node8&#45;&gt;Node9</title>
<path fill="none" stroke="#191970" d="M419.4688,-229.8906C410.2121,-220.5581 395.961,-206.1902 384.7997,-194.9374"/>
<polygon fill="#191970" stroke="#191970" points="387.1928,-192.38 377.6656,-187.7449 382.2228,-197.3095 387.1928,-192.38"/>
</g>
<!-- Node10 -->
<g id="node11" class="node">
<title>Node10</title>
<g id="a_node11"><a xlink:href="spec_2std__types_8h.html" target="_top" xlink:title="Standard C language types and definitions for ODP. ">
<polygon fill="#ffffff" stroke="#000000" points="445,-168.5 445,-187.5 571,-187.5 571,-168.5 445,-168.5"/>
<text text-anchor="middle" x="508" y="-175.5" font-family="Helvetica,sans-Serif" font-size="10.00" fill="#000000">odp/api/spec/std_types.h</text>
</a>
</g>
</g>
<!-- Node8&#45;&gt;Node10 -->
<g id="edge10" class="edge">
<title>Node8&#45;&gt;Node10</title>
<path fill="none" stroke="#191970" d="M441.3438,-229.8906C453.7503,-220.2324 473.0843,-205.1812 487.7413,-193.771"/>
<polygon fill="#191970" stroke="#191970" points="490.0021,-196.4466 495.7429,-187.5419 485.7021,-190.923 490.0021,-196.4466"/>
</g>
<!-- Node10&#45;&gt;Node7 -->
<g id="edge11" class="edge">
<title>Node10&#45;&gt;Node7</title>
<path fill="none" stroke="#191970" d="M515.1366,-168.233C521.4227,-159.2237 530.4223,-145.2735 536,-132 550.5366,-97.4068 559.519,-54.3352 563.8583,-29.7204"/>
<polygon fill="#191970" stroke="#191970" points="567.3185,-30.249 565.5286,-19.8064 560.4158,-29.086 567.3185,-30.249"/>
</g>
<!-- Node11 -->
<g id="node12" class="node">
<title>Node11</title>
<polygon fill="#ffffff" stroke="#bfbfbf" points="595.5,-112.5 595.5,-131.5 644.5,-131.5 644.5,-112.5 595.5,-112.5"/>
<text text-anchor="middle" x="620" y="-119.5" font-family="Helvetica,sans-Serif" font-size="10.00" fill="#000000">stdint.h</text>
</g>
<!-- Node10&#45;&gt;Node11 -->
<g id="edge12" class="edge">
<title>Node10&#45;&gt;Node11</title>
<path fill="none" stroke="#191970" d="M527.2535,-168.3733C545.0712,-159.4644 571.7747,-146.1127 591.9594,-136.0203"/>
<polygon fill="#191970" stroke="#191970" points="593.6187,-139.1038 600.9978,-131.5011 590.4882,-132.8428 593.6187,-139.1038"/>
</g>
<!-- Node12 -->
<g id="node13" class="node">
<title>Node12</title>
<g id="a_node13"><a xlink:href="align_8h.html" target="_top" xlink:title="ODP alignments. ">
<polygon fill="#ffffff" stroke="#000000" points="447,-112.5 447,-131.5 527,-131.5 527,-112.5 447,-112.5"/>
<text text-anchor="middle" x="487" y="-119.5" font-family="Helvetica,sans-Serif" font-size="10.00" fill="#000000">odp/api/align.h</text>
</a>
</g>
</g>
<!-- Node10&#45;&gt;Node12 -->
<g id="edge13" class="edge">
<title>Node10&#45;&gt;Node12</title>
<path fill="none" stroke="#191970" d="M504.3421,-168.2455C501.5416,-160.7776 497.591,-150.2427 494.1676,-141.1137"/>
<polygon fill="#191970" stroke="#191970" points="497.4045,-139.777 490.616,-131.6427 490.8501,-142.2349 497.4045,-139.777"/>
</g>
<!-- Node10&#45;&gt;Node15 -->
<g id="edge18" class="edge">
<title>Node10&#45;&gt;Node15</title>
<path fill="none" stroke="#191970" d="M470.8725,-168.4075C426.6022,-155.0599 353.4108,-126.6237 312,-76 301.2772,-62.8917 296.6042,-44.0129 294.5686,-29.8016"/>
<polygon fill="#191970" stroke="#191970" points="298.0186,-29.1571 293.4364,-19.6045 291.0614,-29.9297 298.0186,-29.1571"/>
</g>
<!-- Node13 -->
<g id="node14" class="node">
<title>Node13</title>
<polygon fill="#ffffff" stroke="#bfbfbf" points="321.5,-56.5 321.5,-75.5 416.5,-75.5 416.5,-56.5 321.5,-56.5"/>
<text text-anchor="middle" x="369" y="-63.5" font-family="Helvetica,sans-Serif" font-size="10.00" fill="#000000">odp/api/abi/align.h</text>
</g>
<!-- Node12&#45;&gt;Node13 -->
<g id="edge14" class="edge">
<title>Node12&#45;&gt;Node13</title>
<path fill="none" stroke="#191970" d="M466.7151,-112.3733C447.8579,-103.4241 419.554,-89.9917 398.2545,-79.8835"/>
<polygon fill="#191970" stroke="#191970" points="399.5551,-76.6266 389.0202,-75.5011 396.5539,-82.9506 399.5551,-76.6266"/>
</g>
<!-- Node14 -->
<g id="node15" class="node">
<title>Node14</title>
<g id="a_node15"><a xlink:href="spec_2align_8h.html" target="_top" xlink:title="ODP alignments. ">
<polygon fill="#ffffff" stroke="#000000" points="435,-56.5 435,-75.5 539,-75.5 539,-56.5 435,-56.5"/>
<text text-anchor="middle" x="487" y="-63.5" font-family="Helvetica,sans-Serif" font-size="10.00" fill="#000000">odp/api/spec/align.h</text>
</a>
</g>
</g>
<!-- Node12&#45;&gt;Node14 -->
<g id="edge15" class="edge">
<title>Node12&#45;&gt;Node14</title>
<path fill="none" stroke="#191970" d="M487,-112.2455C487,-104.9382 487,-94.6944 487,-85.7046"/>
<polygon fill="#191970" stroke="#191970" points="490.5001,-85.6426 487,-75.6427 483.5001,-85.6427 490.5001,-85.6426"/>
</g>
<!-- Node14&#45;&gt;Node7 -->
<g id="edge16" class="edge">
<title>Node14&#45;&gt;Node7</title>
<path fill="none" stroke="#191970" d="M500.9349,-56.2455C513.0947,-47.7337 530.9464,-35.2375 545.0285,-25.3801"/>
<polygon fill="#191970" stroke="#191970" points="547.0395,-28.2447 553.2248,-19.6427 543.0253,-22.51 547.0395,-28.2447"/>
</g>
<!-- Node14&#45;&gt;Node15 -->
<g id="edge17" class="edge">
<title>Node14&#45;&gt;Node15</title>
<path fill="none" stroke="#191970" d="M453.6502,-56.3733C420.972,-46.9404 371.0382,-32.5265 335.523,-22.2747"/>
<polygon fill="#191970" stroke="#191970" points="336.493,-18.9119 325.9146,-19.5011 334.5516,-25.6373 336.493,-18.9119"/>
</g>
<!-- Node18 -->
<g id="node19" class="node">
<title>Node18</title>
<g id="a_node19"><a xlink:href="spec_2hints_8h.html" target="_top" xlink:title="ODP compiler hints. ">
<polygon fill="#ffffff" stroke="#000000" points="595,-56.5 595,-75.5 699,-75.5 699,-56.5 595,-56.5"/>
<text text-anchor="middle" x="647" y="-63.5" font-family="Helvetica,sans-Serif" font-size="10.00" fill="#000000">odp/api/spec/hints.h</text>
</a>
</g>
</g>
<!-- Node17&#45;&gt;Node18 -->
<g id="edge22" class="edge">
<title>Node17&#45;&gt;Node18</title>
<path fill="none" stroke="#191970" d="M719.2645,-168.4509C706.0299,-149.688 676.452,-107.7548 659.5257,-83.758"/>
<polygon fill="#191970" stroke="#191970" points="662.3426,-81.6792 653.7184,-75.5249 656.6224,-85.714 662.3426,-81.6792"/>
</g>
<!-- Node18&#45;&gt;Node7 -->
<g id="edge23" class="edge">
<title>Node18&#45;&gt;Node7</title>
<path fill="none" stroke="#191970" d="M633.0651,-56.2455C620.9053,-47.7337 603.0536,-35.2375 588.9715,-25.3801"/>
<polygon fill="#191970" stroke="#191970" points="590.9747,-22.51 580.7752,-19.6427 586.9605,-28.2447 590.9747,-22.51"/>
</g>
<!-- Node18&#45;&gt;Node15 -->
<g id="edge24" class="edge">
<title>Node18&#45;&gt;Node15</title>
<path fill="none" stroke="#191970" d="M594.7661,-57.737C530.3729,-47.5505 421.1542,-30.273 353.2718,-19.5345"/>
<polygon fill="#191970" stroke="#191970" points="353.5801,-16.0399 343.156,-17.9343 352.4863,-22.9539 353.5801,-16.0399"/>
</g>
<!-- Node19&#45;&gt;Node8 -->
<g id="edge26" class="edge">
<title>Node19&#45;&gt;Node8</title>
<path fill="none" stroke="#191970" d="M208.5489,-296.9717C254.1851,-285.0743 332.3147,-264.7059 382.2596,-251.6852"/>
<polygon fill="#191970" stroke="#191970" points="383.3675,-255.0135 392.1611,-249.1039 381.6015,-248.2399 383.3675,-255.0135"/>
</g>
<!-- Node20 -->
<g id="node21" class="node">
<title>Node20</title>
<polygon fill="#ffffff" stroke="#bfbfbf" points="0,-230 0,-249 94,-249 94,-230 0,-230"/>
<text text-anchor="middle" x="47" y="-237" font-family="Helvetica,sans-Serif" font-size="10.00" fill="#000000">odp/api/abi/time.h</text>
</g>
<!-- Node19&#45;&gt;Node20 -->
<g id="edge27" class="edge">
<title>Node19&#45;&gt;Node20</title>
<path fill="none" stroke="#191970" d="M154.0905,-296.9005C133.1127,-285.6564 98.1504,-266.9166 73.9065,-253.9219"/>
<polygon fill="#191970" stroke="#191970" points="75.3435,-250.7211 64.8762,-249.0817 72.0365,-256.8907 75.3435,-250.7211"/>
</g>
<!-- Node21 -->
<g id="node22" class="node">
<title>Node21</title>
<g id="a_node22"><a xlink:href="spec_2time_8h.html" target="_top" xlink:title="ODP time. ">
<polygon fill="#ffffff" stroke="#000000" points="163,-56.5 163,-75.5 265,-75.5 265,-56.5 163,-56.5"/>
<text text-anchor="middle" x="214" y="-63.5" font-family="Helvetica,sans-Serif" font-size="10.00" fill="#000000">odp/api/spec/time.h</text>
</a>
</g>
</g>
<!-- Node19&#45;&gt;Node21 -->
<g id="edge28" class="edge">
<title>Node19&#45;&gt;Node21</title>
<path fill="none" stroke="#191970" d="M165.3395,-296.7819C158.9403,-286.8093 149.7121,-270.5894 146,-255 142.8085,-241.597 143.2195,-237.4943 146,-224 156.9979,-170.6258 186.8691,-113.0611 203.1184,-84.4009"/>
<polygon fill="#191970" stroke="#191970" points="206.2751,-85.9334 208.2446,-75.5232 200.2131,-82.433 206.2751,-85.9334"/>
</g>
<!-- Node21&#45;&gt;Node7 -->
<g id="edge29" class="edge">
<title>Node21&#45;&gt;Node7</title>
<path fill="none" stroke="#191970" d="M265.3292,-57.8571C328.2602,-47.8737 434.9308,-30.9515 503.1096,-20.1356"/>
<polygon fill="#191970" stroke="#191970" points="503.9658,-23.5436 513.2939,-18.5199 502.869,-16.6301 503.9658,-23.5436"/>
</g>
<!-- Node21&#45;&gt;Node15 -->
<g id="edge30" class="edge">
<title>Node21&#45;&gt;Node15</title>
<path fill="none" stroke="#191970" d="M227.7607,-56.2455C239.6552,-47.814 257.065,-35.4729 270.9085,-25.6598"/>
<polygon fill="#191970" stroke="#191970" points="273.2628,-28.2811 279.3969,-19.6427 269.2146,-22.5704 273.2628,-28.2811"/>
</g>
<!-- Node23&#45;&gt;Node11 -->
<g id="edge34" class="edge">
<title>Node23&#45;&gt;Node11</title>
<path fill="none" stroke="#191970" d="M644.3395,-224.1389C639.2719,-202.873 630.1206,-164.4702 624.5981,-141.2956"/>
<polygon fill="#191970" stroke="#191970" points="628.0008,-140.4757 622.278,-131.5595 621.1915,-142.0985 628.0008,-140.4757"/>
</g>
</g>
</svg>
