<?xml version="1.0" encoding="UTF-8" standalone="no"?>
<!DOCTYPE svg PUBLIC "-//W3C//DTD SVG 1.1//EN"
 "http://www.w3.org/Graphics/SVG/1.1/DTD/svg11.dtd">
<!-- Generated by graphviz version 2.40.1 (20161225.0304)
 -->
<!-- Title: packet_flag_inlines.h Pages: 1 -->
<svg width="399pt" height="207pt"
 viewBox="0.00 0.00 399.00 207.00" xmlns="http://www.w3.org/2000/svg" xmlns:xlink="http://www.w3.org/1999/xlink">
<g id="graph0" class="graph" transform="scale(1 1) rotate(0) translate(4 203)">
<title>packet_flag_inlines.h</title>
<polygon fill="#ffffff" stroke="transparent" points="-4,4 -4,-203 395,-203 395,4 -4,4"/>
<!-- Node0 -->
<g id="node1" class="node">
<title>Node0</title>
<polygon fill="#bfbfbf" stroke="#000000" points="118,-179.5 118,-198.5 226,-198.5 226,-179.5 118,-179.5"/>
<text text-anchor="middle" x="172" y="-186.5" font-family="Helvetica,sans-Serif" font-size="10.00" fill="#000000">packet_flag_inlines.h</text>
</g>
<!-- Node1 -->
<g id="node2" class="node">
<title>Node1</title>
<polygon fill="#ffffff" stroke="#bfbfbf" points="0,-118 0,-137 104,-137 104,-118 0,-118"/>
<text text-anchor="middle" x="52" y="-125" font-family="Helvetica,sans-Serif" font-size="10.00" fill="#000000">odp/api/abi/packet.h</text>
</g>
<!-- Node0&#45;&gt;Node1 -->
<g id="edge1" class="edge">
<title>Node0&#45;&gt;Node1</title>
<path fill="none" stroke="#191970" d="M153.25,-179.3906C133.524,-169.2811 102.2688,-153.2628 79.7,-141.6962"/>
<polygon fill="#191970" stroke="#191970" points="81.114,-138.4881 70.6183,-137.0419 77.9213,-144.7176 81.114,-138.4881"/>
</g>
<!-- Node2 -->
<g id="node3" class="node">
<title>Node2</title>
<g id="a_node3"><a xlink:href="packet__inline__types_8h.html" target="_top" xlink:title="ODP packet descriptor. ">
<polygon fill="#ffffff" stroke="#000000" points="122.5,-112.5 122.5,-142.5 221.5,-142.5 221.5,-112.5 122.5,-112.5"/>
<text text-anchor="start" x="130.5" y="-130.5" font-family="Helvetica,sans-Serif" font-size="10.00" fill="#000000">odp/api/plat/packet</text>
<text text-anchor="middle" x="172" y="-119.5" font-family="Helvetica,sans-Serif" font-size="10.00" fill="#000000">_inline_types.h</text>
</a>
</g>
</g>
<!-- Node0&#45;&gt;Node2 -->
<g id="edge2" class="edge">
<title>Node0&#45;&gt;Node2</title>
<path fill="none" stroke="#191970" d="M172,-179.3906C172,-172.2234 172,-162.0862 172,-152.671"/>
<polygon fill="#191970" stroke="#191970" points="175.5001,-152.5446 172,-142.5446 168.5001,-152.5446 175.5001,-152.5446"/>
</g>
<!-- Node4 -->
<g id="node5" class="node">
<title>Node4</title>
<g id="a_node5"><a xlink:href="hints_8h.html" target="_top" xlink:title="ODP compiler hints. ">
<polygon fill="#ffffff" stroke="#000000" points="240,-118 240,-137 320,-137 320,-118 240,-118"/>
<text text-anchor="middle" x="280" y="-125" font-family="Helvetica,sans-Serif" font-size="10.00" fill="#000000">odp/api/hints.h</text>
</a>
</g>
</g>
<!-- Node0&#45;&gt;Node4 -->
<g id="edge4" class="edge">
<title>Node0&#45;&gt;Node4</title>
<path fill="none" stroke="#191970" d="M188.875,-179.3906C206.4698,-169.3713 234.2566,-153.5483 254.5241,-142.0071"/>
<polygon fill="#191970" stroke="#191970" points="256.2856,-145.0318 263.2435,-137.0419 252.8217,-138.9489 256.2856,-145.0318"/>
</g>
<!-- Node3 -->
<g id="node4" class="node">
<title>Node3</title>
<polygon fill="#ffffff" stroke="#bfbfbf" points="147.5,-56.5 147.5,-75.5 196.5,-75.5 196.5,-56.5 147.5,-56.5"/>
<text text-anchor="middle" x="172" y="-63.5" font-family="Helvetica,sans-Serif" font-size="10.00" fill="#000000">stdint.h</text>
</g>
<!-- Node2&#45;&gt;Node3 -->
<g id="edge3" class="edge">
<title>Node2&#45;&gt;Node3</title>
<path fill="none" stroke="#191970" d="M172,-112.2977C172,-104.3834 172,-94.6043 172,-86.0759"/>
<polygon fill="#191970" stroke="#191970" points="175.5001,-85.8469 172,-75.8469 168.5001,-85.847 175.5001,-85.8469"/>
</g>
<!-- Node5 -->
<g id="node6" class="node">
<title>Node5</title>
<g id="a_node6"><a xlink:href="spec_2hints_8h.html" target="_top" xlink:title="ODP compiler hints. ">
<polygon fill="#ffffff" stroke="#000000" points="228,-56.5 228,-75.5 332,-75.5 332,-56.5 228,-56.5"/>
<text text-anchor="middle" x="280" y="-63.5" font-family="Helvetica,sans-Serif" font-size="10.00" fill="#000000">odp/api/spec/hints.h</text>
</a>
</g>
</g>
<!-- Node4&#45;&gt;Node5 -->
<g id="edge5" class="edge">
<title>Node4&#45;&gt;Node5</title>
<path fill="none" stroke="#191970" d="M280,-117.8906C280,-109.3657 280,-96.6392 280,-85.9235"/>
<polygon fill="#191970" stroke="#191970" points="283.5001,-85.7448 280,-75.7449 276.5001,-85.7449 283.5001,-85.7448"/>
</g>
<!-- Node6 -->
<g id="node7" class="node">
<title>Node6</title>
<polygon fill="#ffffff" stroke="#bfbfbf" points="165.5,-.5 165.5,-19.5 272.5,-19.5 272.5,-.5 165.5,-.5"/>
<text text-anchor="middle" x="219" y="-7.5" font-family="Helvetica,sans-Serif" font-size="10.00" fill="#000000">odp/visibility_begin.h</text>
</g>
<!-- Node5&#45;&gt;Node6 -->
<g id="edge6" class="edge">
<title>Node5&#45;&gt;Node6</title>
<path fill="none" stroke="#191970" d="M269.3746,-56.2455C260.4527,-48.0549 247.512,-36.1749 236.9808,-26.5069"/>
<polygon fill="#191970" stroke="#191970" points="239.2371,-23.8271 229.5036,-19.6427 234.5032,-28.9837 239.2371,-23.8271"/>
</g>
<!-- Node7 -->
<g id="node8" class="node">
<title>Node7</title>
<polygon fill="#ffffff" stroke="#bfbfbf" points="291,-.5 291,-19.5 391,-19.5 391,-.5 291,-.5"/>
<text text-anchor="middle" x="341" y="-7.5" font-family="Helvetica,sans-Serif" font-size="10.00" fill="#000000">odp/visibility_end.h</text>
</g>
<!-- Node5&#45;&gt;Node7 -->
<g id="edge7" class="edge">
<title>Node5&#45;&gt;Node7</title>
<path fill="none" stroke="#191970" d="M290.6254,-56.2455C299.5473,-48.0549 312.488,-36.1749 323.0192,-26.5069"/>
<polygon fill="#191970" stroke="#191970" points="325.4968,-28.9837 330.4964,-19.6427 320.7629,-23.8271 325.4968,-28.9837"/>
</g>
</g>
</svg>
