<?xml version="1.0" encoding="UTF-8" standalone="no"?>
<!DOCTYPE svg PUBLIC "-//W3C//DTD SVG 1.1//EN"
 "http://www.w3.org/Graphics/SVG/1.1/DTD/svg11.dtd">
<!-- Generated by graphviz version 2.40.1 (20161225.0304)
 -->
<!-- Title: packet.h Pages: 1 -->
<svg width="1131pt" height="420pt"
 viewBox="0.00 0.00 1130.82 420.00" xmlns="http://www.w3.org/2000/svg" xmlns:xlink="http://www.w3.org/1999/xlink">
<g id="graph0" class="graph" transform="scale(1 1) rotate(0) translate(4 416)">
<title>packet.h</title>
<polygon fill="#ffffff" stroke="transparent" points="-4,4 -4,-416 1126.8155,-416 1126.8155,4 -4,4"/>
<!-- Node0 -->
<g id="node1" class="node">
<title>Node0</title>
<polygon fill="#bfbfbf" stroke="#000000" points="685.3155,-392.5 685.3155,-411.5 739.3155,-411.5 739.3155,-392.5 685.3155,-392.5"/>
<text text-anchor="middle" x="712.3155" y="-399.5" font-family="Helvetica,sans-Serif" font-size="10.00" fill="#000000">packet.h</text>
</g>
<!-- Node1 -->
<g id="node2" class="node">
<title>Node1</title>
<g id="a_node2"><a xlink:href="std__types_8h.html" target="_top" xlink:title="Standard C language types and definitions for ODP. ">
<polygon fill="#ffffff" stroke="#000000" points="328.3155,-224.5 328.3155,-243.5 430.3155,-243.5 430.3155,-224.5 328.3155,-224.5"/>
<text text-anchor="middle" x="379.3155" y="-231.5" font-family="Helvetica,sans-Serif" font-size="10.00" fill="#000000">odp/api/std_types.h</text>
</a>
</g>
</g>
<!-- Node0&#45;&gt;Node1 -->
<g id="edge1" class="edge">
<title>Node0&#45;&gt;Node1</title>
<path fill="none" stroke="#191970" d="M685.1272,-398.9947C648.034,-394.0696 580.2479,-382.0889 528.3155,-356 473.3545,-328.3896 420.439,-277.4584 395.0124,-250.9831"/>
<polygon fill="#191970" stroke="#191970" points="397.447,-248.4637 388.0321,-243.6047 392.362,-253.2744 397.447,-248.4637"/>
</g>
<!-- Node10 -->
<g id="node11" class="node">
<title>Node10</title>
<polygon fill="#ffffff" stroke="#bfbfbf" points="536.8155,-336.5 536.8155,-355.5 635.8155,-355.5 635.8155,-336.5 536.8155,-336.5"/>
<text text-anchor="middle" x="586.3155" y="-343.5" font-family="Helvetica,sans-Serif" font-size="10.00" fill="#000000">odp/api/abi/event.h</text>
</g>
<!-- Node0&#45;&gt;Node10 -->
<g id="edge12" class="edge">
<title>Node0&#45;&gt;Node10</title>
<path fill="none" stroke="#191970" d="M690.6553,-392.3733C670.3383,-383.3435 639.7515,-369.7494 616.9405,-359.6111"/>
<polygon fill="#191970" stroke="#191970" points="618.2527,-356.3642 607.693,-355.5011 615.4096,-362.7609 618.2527,-356.3642"/>
</g>
<!-- Node11 -->
<g id="node12" class="node">
<title>Node11</title>
<polygon fill="#ffffff" stroke="#bfbfbf" points="653.8155,-336.5 653.8155,-355.5 770.8155,-355.5 770.8155,-336.5 653.8155,-336.5"/>
<text text-anchor="middle" x="712.3155" y="-343.5" font-family="Helvetica,sans-Serif" font-size="10.00" fill="#000000">odp/api/abi/packet_io.h</text>
</g>
<!-- Node0&#45;&gt;Node11 -->
<g id="edge13" class="edge">
<title>Node0&#45;&gt;Node11</title>
<path fill="none" stroke="#191970" d="M712.3155,-392.2455C712.3155,-384.9382 712.3155,-374.6944 712.3155,-365.7046"/>
<polygon fill="#191970" stroke="#191970" points="715.8156,-365.6426 712.3155,-355.6427 708.8156,-365.6427 715.8156,-365.6426"/>
</g>
<!-- Node12 -->
<g id="node13" class="node">
<title>Node12</title>
<polygon fill="#ffffff" stroke="#bfbfbf" points="789.3155,-336.5 789.3155,-355.5 893.3155,-355.5 893.3155,-336.5 789.3155,-336.5"/>
<text text-anchor="middle" x="841.3155" y="-343.5" font-family="Helvetica,sans-Serif" font-size="10.00" fill="#000000">odp/api/abi/packet.h</text>
</g>
<!-- Node0&#45;&gt;Node12 -->
<g id="edge14" class="edge">
<title>Node0&#45;&gt;Node12</title>
<path fill="none" stroke="#191970" d="M734.4914,-392.3733C755.2921,-383.3435 786.6072,-369.7494 809.9613,-359.6111"/>
<polygon fill="#191970" stroke="#191970" points="811.6498,-362.6938 819.429,-355.5011 808.8623,-356.2727 811.6498,-362.6938"/>
</g>
<!-- Node13 -->
<g id="node14" class="node">
<title>Node13</title>
<polygon fill="#ffffff" stroke="#bfbfbf" points="911.3155,-336.5 911.3155,-355.5 1011.3155,-355.5 1011.3155,-336.5 911.3155,-336.5"/>
<text text-anchor="middle" x="961.3155" y="-343.5" font-family="Helvetica,sans-Serif" font-size="10.00" fill="#000000">odp/api/abi/buffer.h</text>
</g>
<!-- Node0&#45;&gt;Node13 -->
<g id="edge15" class="edge">
<title>Node0&#45;&gt;Node13</title>
<path fill="none" stroke="#191970" d="M739.4369,-395.9004C779.9684,-386.7849 857.1079,-369.4362 908.8844,-357.7917"/>
<polygon fill="#191970" stroke="#191970" points="909.8949,-361.152 918.8832,-355.543 908.3589,-354.3226 909.8949,-361.152"/>
</g>
<!-- Node14 -->
<g id="node15" class="node">
<title>Node14</title>
<polygon fill="#ffffff" stroke="#bfbfbf" points="1029.8155,-336.5 1029.8155,-355.5 1122.8155,-355.5 1122.8155,-336.5 1029.8155,-336.5"/>
<text text-anchor="middle" x="1076.3155" y="-343.5" font-family="Helvetica,sans-Serif" font-size="10.00" fill="#000000">odp/api/abi/pool.h</text>
</g>
<!-- Node0&#45;&gt;Node14 -->
<g id="edge16" class="edge">
<title>Node0&#45;&gt;Node14</title>
<path fill="none" stroke="#191970" d="M739.5487,-398.1982C791.7272,-390.857 909.6334,-373.9939 1019.6445,-356.0731"/>
<polygon fill="#191970" stroke="#191970" points="1020.2777,-359.5161 1029.5816,-354.4479 1019.1478,-352.6079 1020.2777,-359.5161"/>
</g>
<!-- Node15 -->
<g id="node16" class="node">
<title>Node15</title>
<g id="a_node16"><a xlink:href="spec_2packet_8h.html" target="_top" xlink:title="ODP packet descriptor. ">
<polygon fill="#ffffff" stroke="#000000" points="286.8155,-336.5 286.8155,-355.5 399.8155,-355.5 399.8155,-336.5 286.8155,-336.5"/>
<text text-anchor="middle" x="343.3155" y="-343.5" font-family="Helvetica,sans-Serif" font-size="10.00" fill="#000000">odp/api/spec/packet.h</text>
</a>
</g>
</g>
<!-- Node0&#45;&gt;Node15 -->
<g id="edge17" class="edge">
<title>Node0&#45;&gt;Node15</title>
<path fill="none" stroke="#191970" d="M685.182,-397.8822C627.6636,-389.1531 492.0416,-368.5709 409.9563,-356.1135"/>
<polygon fill="#191970" stroke="#191970" points="410.3861,-352.6387 399.9742,-354.5986 409.3358,-359.5595 410.3861,-352.6387"/>
</g>
<!-- Node2 -->
<g id="node3" class="node">
<title>Node2</title>
<polygon fill="#ffffff" stroke="#bfbfbf" points="180.3155,-168.5 180.3155,-187.5 298.3155,-187.5 298.3155,-168.5 180.3155,-168.5"/>
<text text-anchor="middle" x="239.3155" y="-175.5" font-family="Helvetica,sans-Serif" font-size="10.00" fill="#000000">odp/api/abi/std_types.h</text>
</g>
<!-- Node1&#45;&gt;Node2 -->
<g id="edge2" class="edge">
<title>Node1&#45;&gt;Node2</title>
<path fill="none" stroke="#191970" d="M355.2486,-224.3733C332.4727,-215.2629 298.0811,-201.5062 272.6665,-191.3404"/>
<polygon fill="#191970" stroke="#191970" points="273.653,-187.9654 263.0683,-187.5011 271.0532,-194.4648 273.653,-187.9654"/>
</g>
<!-- Node3 -->
<g id="node4" class="node">
<title>Node3</title>
<g id="a_node4"><a xlink:href="spec_2std__types_8h.html" target="_top" xlink:title="Standard C language types and definitions for ODP. ">
<polygon fill="#ffffff" stroke="#000000" points="316.3155,-168.5 316.3155,-187.5 442.3155,-187.5 442.3155,-168.5 316.3155,-168.5"/>
<text text-anchor="middle" x="379.3155" y="-175.5" font-family="Helvetica,sans-Serif" font-size="10.00" fill="#000000">odp/api/spec/std_types.h</text>
</a>
</g>
</g>
<!-- Node1&#45;&gt;Node3 -->
<g id="edge3" class="edge">
<title>Node1&#45;&gt;Node3</title>
<path fill="none" stroke="#191970" d="M379.3155,-224.2455C379.3155,-216.9382 379.3155,-206.6944 379.3155,-197.7046"/>
<polygon fill="#191970" stroke="#191970" points="382.8156,-197.6426 379.3155,-187.6427 375.8156,-197.6427 382.8156,-197.6426"/>
</g>
<!-- Node4 -->
<g id="node5" class="node">
<title>Node4</title>
<polygon fill="#ffffff" stroke="#bfbfbf" points="74.8155,-.5 74.8155,-19.5 181.8155,-19.5 181.8155,-.5 74.8155,-.5"/>
<text text-anchor="middle" x="128.3155" y="-7.5" font-family="Helvetica,sans-Serif" font-size="10.00" fill="#000000">odp/visibility_begin.h</text>
</g>
<!-- Node3&#45;&gt;Node4 -->
<g id="edge4" class="edge">
<title>Node3&#45;&gt;Node4</title>
<path fill="none" stroke="#191970" d="M341.1752,-168.4328C314.0017,-160.7421 277.1558,-148.4974 247.3155,-132 212.4477,-112.7232 204.9746,-104.6763 177.3155,-76 162.987,-61.1446 149.2093,-42.0096 139.933,-28.1717"/>
<polygon fill="#191970" stroke="#191970" points="142.6915,-25.9957 134.2788,-19.5555 136.8391,-29.8363 142.6915,-25.9957"/>
</g>
<!-- Node5 -->
<g id="node6" class="node">
<title>Node5</title>
<polygon fill="#ffffff" stroke="#bfbfbf" points="354.8155,-112.5 354.8155,-131.5 403.8155,-131.5 403.8155,-112.5 354.8155,-112.5"/>
<text text-anchor="middle" x="379.3155" y="-119.5" font-family="Helvetica,sans-Serif" font-size="10.00" fill="#000000">stdint.h</text>
</g>
<!-- Node3&#45;&gt;Node5 -->
<g id="edge5" class="edge">
<title>Node3&#45;&gt;Node5</title>
<path fill="none" stroke="#191970" d="M379.3155,-168.2455C379.3155,-160.9382 379.3155,-150.6944 379.3155,-141.7046"/>
<polygon fill="#191970" stroke="#191970" points="382.8156,-141.6426 379.3155,-131.6427 375.8156,-141.6427 382.8156,-141.6426"/>
</g>
<!-- Node6 -->
<g id="node7" class="node">
<title>Node6</title>
<g id="a_node7"><a xlink:href="align_8h.html" target="_top" xlink:title="ODP alignments. ">
<polygon fill="#ffffff" stroke="#000000" points="256.3155,-112.5 256.3155,-131.5 336.3155,-131.5 336.3155,-112.5 256.3155,-112.5"/>
<text text-anchor="middle" x="296.3155" y="-119.5" font-family="Helvetica,sans-Serif" font-size="10.00" fill="#000000">odp/api/align.h</text>
</a>
</g>
</g>
<!-- Node3&#45;&gt;Node6 -->
<g id="edge6" class="edge">
<title>Node3&#45;&gt;Node6</title>
<path fill="none" stroke="#191970" d="M364.858,-168.2455C352.2423,-159.7337 333.7211,-147.2375 319.111,-137.3801"/>
<polygon fill="#191970" stroke="#191970" points="320.8545,-134.3343 310.6073,-131.6427 316.9394,-140.1371 320.8545,-134.3343"/>
</g>
<!-- Node9 -->
<g id="node10" class="node">
<title>Node9</title>
<polygon fill="#ffffff" stroke="#bfbfbf" points="218.3155,-.5 218.3155,-19.5 318.3155,-19.5 318.3155,-.5 218.3155,-.5"/>
<text text-anchor="middle" x="268.3155" y="-7.5" font-family="Helvetica,sans-Serif" font-size="10.00" fill="#000000">odp/visibility_end.h</text>
</g>
<!-- Node3&#45;&gt;Node9 -->
<g id="edge11" class="edge">
<title>Node3&#45;&gt;Node9</title>
<path fill="none" stroke="#191970" d="M389.2517,-168.4913C397.4915,-159.8654 408.5922,-146.3368 413.3155,-132 423.8849,-99.9184 433.2646,-83.2575 413.3155,-56 402.8364,-41.6818 363.4116,-29.7215 328.3135,-21.5884"/>
<polygon fill="#191970" stroke="#191970" points="329.0803,-18.1735 318.5564,-19.3972 327.5464,-25.0034 329.0803,-18.1735"/>
</g>
<!-- Node7 -->
<g id="node8" class="node">
<title>Node7</title>
<polygon fill="#ffffff" stroke="#bfbfbf" points="308.8155,-56.5 308.8155,-75.5 403.8155,-75.5 403.8155,-56.5 308.8155,-56.5"/>
<text text-anchor="middle" x="356.3155" y="-63.5" font-family="Helvetica,sans-Serif" font-size="10.00" fill="#000000">odp/api/abi/align.h</text>
</g>
<!-- Node6&#45;&gt;Node7 -->
<g id="edge7" class="edge">
<title>Node6&#45;&gt;Node7</title>
<path fill="none" stroke="#191970" d="M306.7667,-112.2455C315.5424,-104.0549 328.2709,-92.1749 338.6295,-82.5069"/>
<polygon fill="#191970" stroke="#191970" points="341.0616,-85.0246 345.9841,-75.6427 336.2854,-79.9072 341.0616,-85.0246"/>
</g>
<!-- Node8 -->
<g id="node9" class="node">
<title>Node8</title>
<g id="a_node9"><a xlink:href="spec_2align_8h.html" target="_top" xlink:title="ODP alignments. ">
<polygon fill="#ffffff" stroke="#000000" points="186.3155,-56.5 186.3155,-75.5 290.3155,-75.5 290.3155,-56.5 186.3155,-56.5"/>
<text text-anchor="middle" x="238.3155" y="-63.5" font-family="Helvetica,sans-Serif" font-size="10.00" fill="#000000">odp/api/spec/align.h</text>
</a>
</g>
</g>
<!-- Node6&#45;&gt;Node8 -->
<g id="edge8" class="edge">
<title>Node6&#45;&gt;Node8</title>
<path fill="none" stroke="#191970" d="M286.2127,-112.2455C277.8127,-104.1352 265.6661,-92.4075 255.7071,-82.7919"/>
<polygon fill="#191970" stroke="#191970" points="257.9277,-80.0707 248.3026,-75.6427 253.0655,-85.1066 257.9277,-80.0707"/>
</g>
<!-- Node8&#45;&gt;Node4 -->
<g id="edge9" class="edge">
<title>Node8&#45;&gt;Node4</title>
<path fill="none" stroke="#191970" d="M219.155,-56.2455C201.8044,-47.4125 176.0254,-34.2887 156.3572,-24.2758"/>
<polygon fill="#191970" stroke="#191970" points="157.756,-21.0605 147.2565,-19.6427 154.5802,-27.2986 157.756,-21.0605"/>
</g>
<!-- Node8&#45;&gt;Node9 -->
<g id="edge10" class="edge">
<title>Node8&#45;&gt;Node9</title>
<path fill="none" stroke="#191970" d="M243.5411,-56.2455C247.6278,-48.617 253.429,-37.7881 258.3905,-28.5267"/>
<polygon fill="#191970" stroke="#191970" points="261.5127,-30.1103 263.1498,-19.6427 255.3423,-26.8047 261.5127,-30.1103"/>
</g>
<!-- Node15&#45;&gt;Node4 -->
<g id="edge18" class="edge">
<title>Node15&#45;&gt;Node4</title>
<path fill="none" stroke="#191970" d="M286.676,-339.372C189.2544,-326.3795 .3155,-293.5107 .3155,-234 .3155,-234 .3155,-234 .3155,-122 .3155,-91.4754 -.9465,-78.8299 19.3155,-56 33.3118,-40.2299 53.6104,-29.7106 72.9062,-22.7667"/>
<polygon fill="#191970" stroke="#191970" points="74.1863,-26.0294 82.5652,-19.5454 71.9716,-19.389 74.1863,-26.0294"/>
</g>
<!-- Node15&#45;&gt;Node9 -->
<g id="edge25" class="edge">
<title>Node15&#45;&gt;Node9</title>
<path fill="none" stroke="#191970" d="M369.63,-336.4947C406.8291,-321.1657 470.3155,-287.2099 470.3155,-234 470.3155,-234 470.3155,-234 470.3155,-122 470.3155,-88.1521 459.0358,-76.7775 432.3155,-56 415.7987,-43.1567 367.4316,-30.4568 327.4725,-21.666"/>
<polygon fill="#191970" stroke="#191970" points="328.0324,-18.2063 317.519,-19.5176 326.5554,-25.0487 328.0324,-18.2063"/>
</g>
<!-- Node16 -->
<g id="node17" class="node">
<title>Node16</title>
<g id="a_node17"><a xlink:href="time_8h.html" target="_top" xlink:title="ODP time. ">
<polygon fill="#ffffff" stroke="#000000" points="264.3155,-280.5 264.3155,-299.5 342.3155,-299.5 342.3155,-280.5 264.3155,-280.5"/>
<text text-anchor="middle" x="303.3155" y="-287.5" font-family="Helvetica,sans-Serif" font-size="10.00" fill="#000000">odp/api/time.h</text>
</a>
</g>
</g>
<!-- Node15&#45;&gt;Node16 -->
<g id="edge19" class="edge">
<title>Node15&#45;&gt;Node16</title>
<path fill="none" stroke="#191970" d="M336.348,-336.2455C330.7844,-328.4564 322.8375,-317.3308 316.1326,-307.9439"/>
<polygon fill="#191970" stroke="#191970" points="318.8636,-305.7457 310.2031,-299.6427 313.1675,-309.8144 318.8636,-305.7457"/>
</g>
<!-- Node16&#45;&gt;Node1 -->
<g id="edge20" class="edge">
<title>Node16&#45;&gt;Node1</title>
<path fill="none" stroke="#191970" d="M316.5537,-280.2455C327.9965,-271.814 344.7451,-259.4729 358.063,-249.6598"/>
<polygon fill="#191970" stroke="#191970" points="360.2546,-252.3924 366.229,-243.6427 356.1022,-246.757 360.2546,-252.3924"/>
</g>
<!-- Node17 -->
<g id="node18" class="node">
<title>Node17</title>
<polygon fill="#ffffff" stroke="#bfbfbf" points="216.3155,-224.5 216.3155,-243.5 310.3155,-243.5 310.3155,-224.5 216.3155,-224.5"/>
<text text-anchor="middle" x="263.3155" y="-231.5" font-family="Helvetica,sans-Serif" font-size="10.00" fill="#000000">odp/api/abi/time.h</text>
</g>
<!-- Node16&#45;&gt;Node17 -->
<g id="edge21" class="edge">
<title>Node16&#45;&gt;Node17</title>
<path fill="none" stroke="#191970" d="M296.348,-280.2455C290.7844,-272.4564 282.8375,-261.3308 276.1326,-251.9439"/>
<polygon fill="#191970" stroke="#191970" points="278.8636,-249.7457 270.2031,-243.6427 273.1675,-253.8144 278.8636,-249.7457"/>
</g>
<!-- Node18 -->
<g id="node19" class="node">
<title>Node18</title>
<g id="a_node19"><a xlink:href="spec_2time_8h.html" target="_top" xlink:title="ODP time. ">
<polygon fill="#ffffff" stroke="#000000" points="28.3155,-56.5 28.3155,-75.5 130.3155,-75.5 130.3155,-56.5 28.3155,-56.5"/>
<text text-anchor="middle" x="79.3155" y="-63.5" font-family="Helvetica,sans-Serif" font-size="10.00" fill="#000000">odp/api/spec/time.h</text>
</a>
</g>
</g>
<!-- Node16&#45;&gt;Node18 -->
<g id="edge22" class="edge">
<title>Node16&#45;&gt;Node18</title>
<path fill="none" stroke="#191970" d="M274.265,-280.4567C254.0042,-272.811 227.153,-260.6109 207.3155,-244 151.2711,-197.0713 107.2799,-120.3816 88.7971,-84.9916"/>
<polygon fill="#191970" stroke="#191970" points="91.7564,-83.0916 84.0823,-75.7869 85.5262,-86.2829 91.7564,-83.0916"/>
</g>
<!-- Node18&#45;&gt;Node4 -->
<g id="edge23" class="edge">
<title>Node18&#45;&gt;Node4</title>
<path fill="none" stroke="#191970" d="M87.8506,-56.2455C94.8067,-48.2958 104.8038,-36.8706 113.1206,-27.3656"/>
<polygon fill="#191970" stroke="#191970" points="115.9271,-29.4732 119.8782,-19.6427 110.6591,-24.8637 115.9271,-29.4732"/>
</g>
<!-- Node18&#45;&gt;Node9 -->
<g id="edge24" class="edge">
<title>Node18&#45;&gt;Node9</title>
<path fill="none" stroke="#191970" d="M111.8058,-56.3733C143.5057,-46.9807 191.8731,-32.6496 226.4441,-22.4064"/>
<polygon fill="#191970" stroke="#191970" points="227.6556,-25.6979 236.2492,-19.5011 225.6669,-18.9863 227.6556,-25.6979"/>
</g>
</g>
</svg>
