<?xml version="1.0" encoding="UTF-8" standalone="no"?>
<!DOCTYPE svg PUBLIC "-//W3C//DTD SVG 1.1//EN"
 "http://www.w3.org/Graphics/SVG/1.1/DTD/svg11.dtd">
<!-- Generated by graphviz version 2.40.1 (20161225.0304)
 -->
<!-- Title: pool_inline_types.h Pages: 1 -->
<svg width="232pt" height="84pt"
 viewBox="0.00 0.00 232.00 84.00" xmlns="http://www.w3.org/2000/svg" xmlns:xlink="http://www.w3.org/1999/xlink">
<g id="graph0" class="graph" transform="scale(1 1) rotate(0) translate(4 80)">
<title>pool_inline_types.h</title>
<polygon fill="#ffffff" stroke="transparent" points="-4,4 -4,-80 228,-80 228,4 -4,4"/>
<!-- Node1 -->
<g id="node1" class="node">
<title>Node1</title>
<polygon fill="#bfbfbf" stroke="#000000" points="53.5,-56.5 53.5,-75.5 153.5,-75.5 153.5,-56.5 53.5,-56.5"/>
<text text-anchor="middle" x="103.5" y="-63.5" font-family="Helvetica,sans-Serif" font-size="10.00" fill="#000000">pool_inline_types.h</text>
</g>
<!-- Node2 -->
<g id="node2" class="node">
<title>Node2</title>
<g id="a_node2"><a xlink:href="packet__inlines_8h.html" target="_top" xlink:title="Packet inline functions. ">
<polygon fill="#ffffff" stroke="#000000" points="0,-.5 0,-19.5 87,-19.5 87,-.5 0,-.5"/>
<text text-anchor="middle" x="43.5" y="-7.5" font-family="Helvetica,sans-Serif" font-size="10.00" fill="#000000">packet_inlines.h</text>
</a>
</g>
</g>
<!-- Node1&#45;&gt;Node2 -->
<g id="edge1" class="edge">
<title>Node1&#45;&gt;Node2</title>
<path fill="none" stroke="#191970" d="M85.6722,-49.3607C75.2922,-39.6727 62.5709,-27.7995 53.8314,-19.6427"/>
<polygon fill="#191970" stroke="#191970" points="83.3501,-51.981 93.0488,-56.2455 88.1263,-46.8636 83.3501,-51.981"/>
</g>
<!-- Node3 -->
<g id="node3" class="node">
<title>Node3</title>
<g id="a_node3"><a xlink:href="packet__vector__inlines_8h.html" target="_top" xlink:title="Packet vector inline functions. ">
<polygon fill="#ffffff" stroke="#000000" points="105,-.5 105,-19.5 224,-19.5 224,-.5 105,-.5"/>
<text text-anchor="middle" x="164.5" y="-7.5" font-family="Helvetica,sans-Serif" font-size="10.00" fill="#000000">packet_vector_inlines.h</text>
</a>
</g>
</g>
<!-- Node1&#45;&gt;Node3 -->
<g id="edge2" class="edge">
<title>Node1&#45;&gt;Node3</title>
<path fill="none" stroke="#191970" d="M121.6249,-49.3607C132.178,-39.6727 145.1112,-27.7995 153.9964,-19.6427"/>
<polygon fill="#191970" stroke="#191970" points="119.125,-46.9045 114.1254,-56.2455 123.8589,-52.0611 119.125,-46.9045"/>
</g>
</g>
</svg>
