<?xml version="1.0" encoding="UTF-8" standalone="no"?>
<!DOCTYPE svg PUBLIC "-//W3C//DTD SVG 1.1//EN"
 "http://www.w3.org/Graphics/SVG/1.1/DTD/svg11.dtd">
<!-- Generated by graphviz version 2.40.1 (20161225.0304)
 -->
<!-- Title: queue.h Pages: 1 -->
<svg width="1262pt" height="666pt"
 viewBox="0.00 0.00 1262.00 666.00" xmlns="http://www.w3.org/2000/svg" xmlns:xlink="http://www.w3.org/1999/xlink">
<g id="graph0" class="graph" transform="scale(1 1) rotate(0) translate(4 662)">
<title>queue.h</title>
<polygon fill="#ffffff" stroke="transparent" points="-4,4 -4,-662 1258,-662 1258,4 -4,4"/>
<!-- Node0 -->
<g id="node1" class="node">
<title>Node0</title>
<polygon fill="#bfbfbf" stroke="#000000" points="130.5,-638.5 130.5,-657.5 181.5,-657.5 181.5,-638.5 130.5,-638.5"/>
<text text-anchor="middle" x="156" y="-645.5" font-family="Helvetica,sans-Serif" font-size="10.00" fill="#000000">queue.h</text>
</g>
<!-- Node1 -->
<g id="node2" class="node">
<title>Node1</title>
<g id="a_node2"><a xlink:href="std__types_8h.html" target="_top" xlink:title="Standard C language types and definitions for ODP. ">
<polygon fill="#ffffff" stroke="#000000" points="375,-235.5 375,-254.5 477,-254.5 477,-235.5 375,-235.5"/>
<text text-anchor="middle" x="426" y="-242.5" font-family="Helvetica,sans-Serif" font-size="10.00" fill="#000000">odp/api/std_types.h</text>
</a>
</g>
</g>
<!-- Node0&#45;&gt;Node1 -->
<g id="edge1" class="edge">
<title>Node0&#45;&gt;Node1</title>
<path fill="none" stroke="#191970" d="M130.2398,-642.137C85.9314,-630.3577 0,-599.3471 0,-536 0,-536 0,-536 0,-368 0,-293.0136 246.7202,-260.9238 364.6413,-249.8688"/>
<polygon fill="#191970" stroke="#191970" points="364.9754,-253.3529 374.6144,-248.9552 364.3368,-246.3821 364.9754,-253.3529"/>
</g>
<!-- Node10 -->
<g id="node11" class="node">
<title>Node10</title>
<polygon fill="#ffffff" stroke="#bfbfbf" points="845.5,-358.5 845.5,-377.5 944.5,-377.5 944.5,-358.5 845.5,-358.5"/>
<text text-anchor="middle" x="895" y="-365.5" font-family="Helvetica,sans-Serif" font-size="10.00" fill="#000000">odp/api/abi/event.h</text>
</g>
<!-- Node0&#45;&gt;Node10 -->
<g id="edge12" class="edge">
<title>Node0&#45;&gt;Node10</title>
<path fill="none" stroke="#191970" d="M181.5394,-645.4325C288.2584,-634.3676 693,-588.9151 693,-536 693,-536 693,-536 693,-480 693,-443.1361 797.1985,-401.4512 855.9214,-380.8861"/>
<polygon fill="#191970" stroke="#191970" points="857.3179,-384.1067 865.6275,-377.534 855.0327,-377.4902 857.3179,-384.1067"/>
</g>
<!-- Node11 -->
<g id="node12" class="node">
<title>Node11</title>
<polygon fill="#ffffff" stroke="#bfbfbf" points="66.5,-582.5 66.5,-601.5 167.5,-601.5 167.5,-582.5 66.5,-582.5"/>
<text text-anchor="middle" x="117" y="-589.5" font-family="Helvetica,sans-Serif" font-size="10.00" fill="#000000">odp/api/abi/queue.h</text>
</g>
<!-- Node0&#45;&gt;Node11 -->
<g id="edge13" class="edge">
<title>Node0&#45;&gt;Node11</title>
<path fill="none" stroke="#191970" d="M149.2067,-638.2455C143.7822,-630.4564 136.0339,-619.3308 129.4967,-609.9439"/>
<polygon fill="#191970" stroke="#191970" points="132.3025,-607.8485 123.7154,-601.6427 126.5583,-611.849 132.3025,-607.8485"/>
</g>
<!-- Node12 -->
<g id="node13" class="node">
<title>Node12</title>
<polygon fill="#ffffff" stroke="#bfbfbf" points="29,-358.5 29,-377.5 129,-377.5 129,-358.5 29,-358.5"/>
<text text-anchor="middle" x="79" y="-365.5" font-family="Helvetica,sans-Serif" font-size="10.00" fill="#000000">odp/api/abi/buffer.h</text>
</g>
<!-- Node0&#45;&gt;Node12 -->
<g id="edge14" class="edge">
<title>Node0&#45;&gt;Node12</title>
<path fill="none" stroke="#191970" d="M130.4149,-642.4704C107.952,-636.3136 75.9819,-624.1707 57,-602 37.1479,-578.8128 38,-566.5246 38,-536 38,-536 38,-536 38,-480 38,-445.3444 55.5245,-408.1312 67.6592,-386.5174"/>
<polygon fill="#191970" stroke="#191970" points="70.7581,-388.1511 72.773,-377.7496 64.7114,-384.6243 70.7581,-388.1511"/>
</g>
<!-- Node13 -->
<g id="node14" class="node">
<title>Node13</title>
<polygon fill="#ffffff" stroke="#bfbfbf" points="274.5,-358.5 274.5,-377.5 367.5,-377.5 367.5,-358.5 274.5,-358.5"/>
<text text-anchor="middle" x="321" y="-365.5" font-family="Helvetica,sans-Serif" font-size="10.00" fill="#000000">odp/api/abi/pool.h</text>
</g>
<!-- Node0&#45;&gt;Node13 -->
<g id="edge15" class="edge">
<title>Node0&#45;&gt;Node13</title>
<path fill="none" stroke="#191970" d="M161.6797,-638.3618C185.5791,-597.8052 278.2091,-440.6149 310.1222,-386.4593"/>
<polygon fill="#191970" stroke="#191970" points="313.2826,-387.99 315.3442,-377.5977 307.2519,-384.4362 313.2826,-387.99"/>
</g>
<!-- Node14 -->
<g id="node15" class="node">
<title>Node14</title>
<g id="a_node15"><a xlink:href="spec_2queue_8h.html" target="_top" xlink:title="ODP queue. ">
<polygon fill="#ffffff" stroke="#000000" points="736,-582.5 736,-601.5 846,-601.5 846,-582.5 736,-582.5"/>
<text text-anchor="middle" x="791" y="-589.5" font-family="Helvetica,sans-Serif" font-size="10.00" fill="#000000">odp/api/spec/queue.h</text>
</a>
</g>
</g>
<!-- Node0&#45;&gt;Node14 -->
<g id="edge16" class="edge">
<title>Node0&#45;&gt;Node14</title>
<path fill="none" stroke="#191970" d="M181.5701,-646.187C260.1081,-640.5495 504.7695,-622.4727 707,-602 713.1369,-601.3787 719.5211,-600.6922 725.9063,-599.9784"/>
<polygon fill="#191970" stroke="#191970" points="726.3657,-603.4488 735.9056,-598.84 725.5738,-596.4938 726.3657,-603.4488"/>
</g>
<!-- Node2 -->
<g id="node3" class="node">
<title>Node2</title>
<polygon fill="#ffffff" stroke="#bfbfbf" points="367,-174 367,-193 485,-193 485,-174 367,-174"/>
<text text-anchor="middle" x="426" y="-181" font-family="Helvetica,sans-Serif" font-size="10.00" fill="#000000">odp/api/abi/std_types.h</text>
</g>
<!-- Node1&#45;&gt;Node2 -->
<g id="edge2" class="edge">
<title>Node1&#45;&gt;Node2</title>
<path fill="none" stroke="#191970" d="M426,-235.3906C426,-226.8657 426,-214.1392 426,-203.4235"/>
<polygon fill="#191970" stroke="#191970" points="429.5001,-203.2448 426,-193.2449 422.5001,-203.2449 429.5001,-203.2448"/>
</g>
<!-- Node3 -->
<g id="node4" class="node">
<title>Node3</title>
<g id="a_node4"><a xlink:href="spec_2std__types_8h.html" target="_top" xlink:title="Standard C language types and definitions for ODP. ">
<polygon fill="#ffffff" stroke="#000000" points="223,-174 223,-193 349,-193 349,-174 223,-174"/>
<text text-anchor="middle" x="286" y="-181" font-family="Helvetica,sans-Serif" font-size="10.00" fill="#000000">odp/api/spec/std_types.h</text>
</a>
</g>
</g>
<!-- Node1&#45;&gt;Node3 -->
<g id="edge3" class="edge">
<title>Node1&#45;&gt;Node3</title>
<path fill="none" stroke="#191970" d="M404.125,-235.3906C380.7004,-225.1005 343.3404,-208.6888 316.9159,-197.0809"/>
<polygon fill="#191970" stroke="#191970" points="318.2846,-193.8594 307.7214,-193.0419 315.4693,-200.2683 318.2846,-193.8594"/>
</g>
<!-- Node4 -->
<g id="node5" class="node">
<title>Node4</title>
<polygon fill="#ffffff" stroke="#bfbfbf" points="1005.5,-.5 1005.5,-19.5 1112.5,-19.5 1112.5,-.5 1005.5,-.5"/>
<text text-anchor="middle" x="1059" y="-7.5" font-family="Helvetica,sans-Serif" font-size="10.00" fill="#000000">odp/visibility_begin.h</text>
</g>
<!-- Node3&#45;&gt;Node4 -->
<g id="edge4" class="edge">
<title>Node3&#45;&gt;Node4</title>
<path fill="none" stroke="#191970" d="M328.5731,-173.9872C338.2308,-171.9261 348.4544,-169.8205 358,-168 602.7448,-121.3244 674.8608,-155.4789 911,-76 929.0882,-69.9119 931.7349,-64.134 949,-56 974.0076,-44.2184 1002.859,-32.2106 1024.7383,-23.4189"/>
<polygon fill="#191970" stroke="#191970" points="1026.2712,-26.5756 1034.2615,-19.6181 1023.6764,-20.0743 1026.2712,-26.5756"/>
</g>
<!-- Node5 -->
<g id="node6" class="node">
<title>Node5</title>
<polygon fill="#ffffff" stroke="#bfbfbf" points="223.5,-112.5 223.5,-131.5 272.5,-131.5 272.5,-112.5 223.5,-112.5"/>
<text text-anchor="middle" x="248" y="-119.5" font-family="Helvetica,sans-Serif" font-size="10.00" fill="#000000">stdint.h</text>
</g>
<!-- Node3&#45;&gt;Node5 -->
<g id="edge5" class="edge">
<title>Node3&#45;&gt;Node5</title>
<path fill="none" stroke="#191970" d="M280.0625,-173.8906C274.5733,-165.0068 266.2647,-151.5601 259.481,-140.5811"/>
<polygon fill="#191970" stroke="#191970" points="262.2551,-138.4122 254.0212,-131.7449 256.3002,-142.0917 262.2551,-138.4122"/>
</g>
<!-- Node6 -->
<g id="node7" class="node">
<title>Node6</title>
<g id="a_node7"><a xlink:href="align_8h.html" target="_top" xlink:title="ODP alignments. ">
<polygon fill="#ffffff" stroke="#000000" points="329,-112.5 329,-131.5 409,-131.5 409,-112.5 329,-112.5"/>
<text text-anchor="middle" x="369" y="-119.5" font-family="Helvetica,sans-Serif" font-size="10.00" fill="#000000">odp/api/align.h</text>
</a>
</g>
</g>
<!-- Node3&#45;&gt;Node6 -->
<g id="edge6" class="edge">
<title>Node3&#45;&gt;Node6</title>
<path fill="none" stroke="#191970" d="M298.9688,-173.8906C312.0034,-164.2324 332.3164,-149.1812 347.7155,-137.771"/>
<polygon fill="#191970" stroke="#191970" points="350.1713,-140.3075 356.1223,-131.5419 346.0039,-134.6832 350.1713,-140.3075"/>
</g>
<!-- Node9 -->
<g id="node10" class="node">
<title>Node9</title>
<polygon fill="#ffffff" stroke="#bfbfbf" points="494,-.5 494,-19.5 594,-19.5 594,-.5 494,-.5"/>
<text text-anchor="middle" x="544" y="-7.5" font-family="Helvetica,sans-Serif" font-size="10.00" fill="#000000">odp/visibility_end.h</text>
</g>
<!-- Node3&#45;&gt;Node9 -->
<g id="edge11" class="edge">
<title>Node3&#45;&gt;Node9</title>
<path fill="none" stroke="#191970" d="M284.9089,-173.9527C282.0941,-147.3992 275.8217,-73.4788 291,-56 315.6404,-27.6249 417.2936,-16.6764 484.0083,-12.5057"/>
<polygon fill="#191970" stroke="#191970" points="484.2153,-15.9996 493.9913,-11.9155 483.8021,-9.0118 484.2153,-15.9996"/>
</g>
<!-- Node7 -->
<g id="node8" class="node">
<title>Node7</title>
<polygon fill="#ffffff" stroke="#bfbfbf" points="300.5,-56.5 300.5,-75.5 395.5,-75.5 395.5,-56.5 300.5,-56.5"/>
<text text-anchor="middle" x="348" y="-63.5" font-family="Helvetica,sans-Serif" font-size="10.00" fill="#000000">odp/api/abi/align.h</text>
</g>
<!-- Node6&#45;&gt;Node7 -->
<g id="edge7" class="edge">
<title>Node6&#45;&gt;Node7</title>
<path fill="none" stroke="#191970" d="M365.3421,-112.2455C362.5416,-104.7776 358.591,-94.2427 355.1676,-85.1137"/>
<polygon fill="#191970" stroke="#191970" points="358.4045,-83.777 351.616,-75.6427 351.8501,-86.2349 358.4045,-83.777"/>
</g>
<!-- Node8 -->
<g id="node9" class="node">
<title>Node8</title>
<g id="a_node9"><a xlink:href="spec_2align_8h.html" target="_top" xlink:title="ODP alignments. ">
<polygon fill="#ffffff" stroke="#000000" points="452,-56.5 452,-75.5 556,-75.5 556,-56.5 452,-56.5"/>
<text text-anchor="middle" x="504" y="-63.5" font-family="Helvetica,sans-Serif" font-size="10.00" fill="#000000">odp/api/spec/align.h</text>
</a>
</g>
</g>
<!-- Node6&#45;&gt;Node8 -->
<g id="edge8" class="edge">
<title>Node6&#45;&gt;Node8</title>
<path fill="none" stroke="#191970" d="M392.2073,-112.3733C414.1699,-103.2629 447.3332,-89.5062 471.8401,-79.3404"/>
<polygon fill="#191970" stroke="#191970" points="473.1997,-82.5657 481.0955,-75.5011 470.5176,-76.0999 473.1997,-82.5657"/>
</g>
<!-- Node8&#45;&gt;Node4 -->
<g id="edge9" class="edge">
<title>Node8&#45;&gt;Node4</title>
<path fill="none" stroke="#191970" d="M556.15,-60.731C571.2634,-59.2044 587.789,-57.5355 603,-56 742.9275,-41.8752 907.0092,-25.3266 995.1875,-16.4346"/>
<polygon fill="#191970" stroke="#191970" points="995.6999,-19.9007 1005.2983,-15.415 994.9975,-12.936 995.6999,-19.9007"/>
</g>
<!-- Node8&#45;&gt;Node9 -->
<g id="edge10" class="edge">
<title>Node8&#45;&gt;Node9</title>
<path fill="none" stroke="#191970" d="M510.9675,-56.2455C516.5311,-48.4564 524.478,-37.3308 531.1829,-27.9439"/>
<polygon fill="#191970" stroke="#191970" points="534.148,-29.8144 537.1124,-19.6427 528.4519,-25.7457 534.148,-29.8144"/>
</g>
<!-- Node14&#45;&gt;Node4 -->
<g id="edge17" class="edge">
<title>Node14&#45;&gt;Node4</title>
<path fill="none" stroke="#191970" d="M846.3887,-590.2009C969.2838,-584.7037 1254,-563.0104 1254,-480 1254,-480 1254,-480 1254,-122 1254,-60.2184 1179.4867,-32.021 1122.5821,-19.4951"/>
<polygon fill="#191970" stroke="#191970" points="1123.0461,-16.0167 1112.5425,-17.4045 1121.619,-22.8697 1123.0461,-16.0167"/>
</g>
<!-- Node14&#45;&gt;Node9 -->
<g id="edge55" class="edge">
<title>Node14&#45;&gt;Node9</title>
<path fill="none" stroke="#191970" d="M735.8457,-589.191C581.5975,-579.8427 157,-543.277 157,-424 157,-424 157,-424 157,-122 157,-75.5625 195.5316,-74.7851 238,-56 280.8173,-37.0605 407.184,-22.5869 483.479,-15.2778"/>
<polygon fill="#191970" stroke="#191970" points="484.2715,-18.7186 493.8983,-14.2943 483.6137,-11.7496 484.2715,-18.7186"/>
</g>
<!-- Node15 -->
<g id="node16" class="node">
<title>Node15</title>
<g id="a_node16"><a xlink:href="event_8h.html" target="_top" xlink:title="ODP event. ">
<polygon fill="#ffffff" stroke="#000000" points="749.5,-526.5 749.5,-545.5 832.5,-545.5 832.5,-526.5 749.5,-526.5"/>
<text text-anchor="middle" x="791" y="-533.5" font-family="Helvetica,sans-Serif" font-size="10.00" fill="#000000">odp/api/event.h</text>
</a>
</g>
</g>
<!-- Node14&#45;&gt;Node15 -->
<g id="edge18" class="edge">
<title>Node14&#45;&gt;Node15</title>
<path fill="none" stroke="#191970" d="M791,-582.2455C791,-574.9382 791,-564.6944 791,-555.7046"/>
<polygon fill="#191970" stroke="#191970" points="794.5001,-555.6426 791,-545.6427 787.5001,-555.6427 794.5001,-555.6426"/>
</g>
<!-- Node24 -->
<g id="node25" class="node">
<title>Node24</title>
<g id="a_node25"><a xlink:href="queue__types_8h.html" target="_top" xlink:title="ODP queue types. ">
<polygon fill="#ffffff" stroke="#000000" points="922.5,-291.5 922.5,-321.5 1023.5,-321.5 1023.5,-291.5 922.5,-291.5"/>
<text text-anchor="start" x="930.5" y="-309.5" font-family="Helvetica,sans-Serif" font-size="10.00" fill="#000000">odp/api/spec/queue</text>
<text text-anchor="middle" x="973" y="-298.5" font-family="Helvetica,sans-Serif" font-size="10.00" fill="#000000">_types.h</text>
</a>
</g>
</g>
<!-- Node14&#45;&gt;Node24 -->
<g id="edge39" class="edge">
<title>Node14&#45;&gt;Node24</title>
<path fill="none" stroke="#191970" d="M845.1132,-582.4584C898.7619,-569.5212 973,-540.6598 973,-480 973,-480 973,-480 973,-424 973,-392.3014 973,-355.7926 973,-331.9922"/>
<polygon fill="#191970" stroke="#191970" points="976.5001,-331.7101 973,-321.7101 969.5001,-331.7102 976.5001,-331.7101"/>
</g>
<!-- Node15&#45;&gt;Node10 -->
<g id="edge19" class="edge">
<title>Node15&#45;&gt;Node10</title>
<path fill="none" stroke="#191970" d="M796.8895,-526.4862C813.543,-499.5845 861.2004,-422.5994 883.3822,-386.7673"/>
<polygon fill="#191970" stroke="#191970" points="886.6284,-388.1728 888.9161,-377.8279 880.6765,-384.4883 886.6284,-388.1728"/>
</g>
<!-- Node16 -->
<g id="node17" class="node">
<title>Node16</title>
<g id="a_node17"><a xlink:href="spec_2event_8h.html" target="_top" xlink:title="ODP event. ">
<polygon fill="#ffffff" stroke="#000000" points="501.5,-470.5 501.5,-489.5 608.5,-489.5 608.5,-470.5 501.5,-470.5"/>
<text text-anchor="middle" x="555" y="-477.5" font-family="Helvetica,sans-Serif" font-size="10.00" fill="#000000">odp/api/spec/event.h</text>
</a>
</g>
</g>
<!-- Node15&#45;&gt;Node16 -->
<g id="edge20" class="edge">
<title>Node15&#45;&gt;Node16</title>
<path fill="none" stroke="#191970" d="M750.6983,-526.4369C710.3936,-516.8731 648.3179,-502.1432 604.9182,-491.845"/>
<polygon fill="#191970" stroke="#191970" points="605.6734,-488.4271 595.1355,-489.5237 604.0572,-495.238 605.6734,-488.4271"/>
</g>
<!-- Node16&#45;&gt;Node4 -->
<g id="edge21" class="edge">
<title>Node16&#45;&gt;Node4</title>
<path fill="none" stroke="#191970" d="M608.6258,-473.2924C723.1643,-456.4128 994.7697,-402.4573 1161,-255 1190.9922,-228.395 1216,-223.5919 1216,-183.5 1216,-183.5 1216,-183.5 1216,-122 1216,-68.0793 1153.8682,-37.6764 1107.7766,-22.5408"/>
<polygon fill="#191970" stroke="#191970" points="1108.8019,-19.1943 1098.2127,-19.5398 1106.7061,-25.8732 1108.8019,-19.1943"/>
</g>
<!-- Node16&#45;&gt;Node9 -->
<g id="edge38" class="edge">
<title>Node16&#45;&gt;Node9</title>
<path fill="none" stroke="#191970" d="M501.2429,-475.6036C436.444,-467.4244 328.49,-444.1291 266,-378 183.265,-290.447 163.3908,-221.313 214,-112 230.1623,-77.0904 245.163,-72.3182 280,-56 315.2424,-39.4919 417.1715,-24.9146 483.5744,-16.7948"/>
<polygon fill="#191970" stroke="#191970" points="484.4022,-20.2204 493.911,-15.5478 483.5638,-13.2708 484.4022,-20.2204"/>
</g>
<!-- Node17 -->
<g id="node18" class="node">
<title>Node17</title>
<g id="a_node18"><a xlink:href="packet_8h.html" target="_top" xlink:title="ODP packet descriptor. ">
<polygon fill="#ffffff" stroke="#000000" points="496.5,-414.5 496.5,-433.5 585.5,-433.5 585.5,-414.5 496.5,-414.5"/>
<text text-anchor="middle" x="541" y="-421.5" font-family="Helvetica,sans-Serif" font-size="10.00" fill="#000000">odp/api/packet.h</text>
</a>
</g>
</g>
<!-- Node16&#45;&gt;Node17 -->
<g id="edge22" class="edge">
<title>Node16&#45;&gt;Node17</title>
<path fill="none" stroke="#191970" d="M552.5614,-470.2455C550.7145,-462.8579 548.1172,-452.4689 545.8522,-443.4087"/>
<polygon fill="#191970" stroke="#191970" points="549.2316,-442.4952 543.4107,-433.6427 542.4406,-444.193 549.2316,-442.4952"/>
</g>
<!-- Node17&#45;&gt;Node1 -->
<g id="edge23" class="edge">
<title>Node17&#45;&gt;Node1</title>
<path fill="none" stroke="#191970" d="M503.396,-414.4033C483.892,-407.4823 461.4049,-396.0911 448,-378 423.1402,-344.4495 422.2461,-293.0623 423.9874,-264.9973"/>
<polygon fill="#191970" stroke="#191970" points="427.4918,-265.0805 424.8014,-254.833 420.5142,-264.5216 427.4918,-265.0805"/>
</g>
<!-- Node17&#45;&gt;Node10 -->
<g id="edge24" class="edge">
<title>Node17&#45;&gt;Node10</title>
<path fill="none" stroke="#191970" d="M585.509,-417.2469C641.3127,-408.7386 740.1831,-393.5275 835.3462,-378.0895"/>
<polygon fill="#191970" stroke="#191970" points="836.1245,-381.509 845.4334,-376.4499 835.0014,-374.5997 836.1245,-381.509"/>
</g>
<!-- Node17&#45;&gt;Node12 -->
<g id="edge27" class="edge">
<title>Node17&#45;&gt;Node12</title>
<path fill="none" stroke="#191970" d="M496.2817,-418.5796C412.8176,-408.4627 233.282,-386.7009 139.2432,-375.3022"/>
<polygon fill="#191970" stroke="#191970" points="139.6615,-371.8274 129.313,-374.0985 138.8191,-378.7765 139.6615,-371.8274"/>
</g>
<!-- Node17&#45;&gt;Node13 -->
<g id="edge28" class="edge">
<title>Node17&#45;&gt;Node13</title>
<path fill="none" stroke="#191970" d="M503.1807,-414.3733C465.8062,-404.8598 408.5276,-390.2797 368.1929,-380.0127"/>
<polygon fill="#191970" stroke="#191970" points="368.8802,-376.5761 358.3258,-377.5011 367.1534,-383.3598 368.8802,-376.5761"/>
</g>
<!-- Node18 -->
<g id="node19" class="node">
<title>Node18</title>
<polygon fill="#ffffff" stroke="#bfbfbf" points="587.5,-358.5 587.5,-377.5 704.5,-377.5 704.5,-358.5 587.5,-358.5"/>
<text text-anchor="middle" x="646" y="-365.5" font-family="Helvetica,sans-Serif" font-size="10.00" fill="#000000">odp/api/abi/packet_io.h</text>
</g>
<!-- Node17&#45;&gt;Node18 -->
<g id="edge25" class="edge">
<title>Node17&#45;&gt;Node18</title>
<path fill="none" stroke="#191970" d="M559.2896,-414.2455C575.7762,-405.4527 600.2352,-392.4079 618.9765,-382.4125"/>
<polygon fill="#191970" stroke="#191970" points="620.7435,-385.4368 627.92,-377.6427 617.4494,-379.2604 620.7435,-385.4368"/>
</g>
<!-- Node19 -->
<g id="node20" class="node">
<title>Node19</title>
<polygon fill="#ffffff" stroke="#bfbfbf" points="723,-358.5 723,-377.5 827,-377.5 827,-358.5 723,-358.5"/>
<text text-anchor="middle" x="775" y="-365.5" font-family="Helvetica,sans-Serif" font-size="10.00" fill="#000000">odp/api/abi/packet.h</text>
</g>
<!-- Node17&#45;&gt;Node19 -->
<g id="edge26" class="edge">
<title>Node17&#45;&gt;Node19</title>
<path fill="none" stroke="#191970" d="M580.9602,-414.4369C620.8392,-404.8932 682.2139,-390.2052 725.2328,-379.9101"/>
<polygon fill="#191970" stroke="#191970" points="726.2939,-383.2551 735.2047,-377.5237 724.6646,-376.4473 726.2939,-383.2551"/>
</g>
<!-- Node20 -->
<g id="node21" class="node">
<title>Node20</title>
<g id="a_node21"><a xlink:href="spec_2packet_8h.html" target="_top" xlink:title="ODP packet descriptor. ">
<polygon fill="#ffffff" stroke="#000000" points="456.5,-358.5 456.5,-377.5 569.5,-377.5 569.5,-358.5 456.5,-358.5"/>
<text text-anchor="middle" x="513" y="-365.5" font-family="Helvetica,sans-Serif" font-size="10.00" fill="#000000">odp/api/spec/packet.h</text>
</a>
</g>
</g>
<!-- Node17&#45;&gt;Node20 -->
<g id="edge29" class="edge">
<title>Node17&#45;&gt;Node20</title>
<path fill="none" stroke="#191970" d="M536.1228,-414.2455C532.3487,-406.6973 527.0079,-396.0158 522.4099,-386.8197"/>
<polygon fill="#191970" stroke="#191970" points="525.424,-385.0217 517.8213,-377.6427 519.163,-388.1522 525.424,-385.0217"/>
</g>
<!-- Node20&#45;&gt;Node4 -->
<g id="edge30" class="edge">
<title>Node20&#45;&gt;Node4</title>
<path fill="none" stroke="#191970" d="M542.5346,-358.3771C567.0378,-349.9727 602.5125,-336.8213 632,-322 788.3346,-243.4214 805.9112,-184.8415 965,-112 1014.8536,-89.1737 1050.3724,-120.0665 1083,-76 1093.6946,-61.556 1084.116,-41.8634 1074.0651,-27.7555"/>
<polygon fill="#191970" stroke="#191970" points="1076.8011,-25.5719 1067.923,-19.7899 1071.2576,-29.8463 1076.8011,-25.5719"/>
</g>
<!-- Node20&#45;&gt;Node9 -->
<g id="edge37" class="edge">
<title>Node20&#45;&gt;Node9</title>
<path fill="none" stroke="#191970" d="M513.4641,-358.1495C514.5643,-328.5811 515.7798,-238.2971 494,-168 477.8131,-115.7545 413.4057,-101.9977 443,-56 453.1157,-40.2774 470.0731,-29.8649 487.2324,-22.996"/>
<polygon fill="#191970" stroke="#191970" points="488.5447,-26.243 496.744,-19.5332 486.15,-19.6653 488.5447,-26.243"/>
</g>
<!-- Node21 -->
<g id="node22" class="node">
<title>Node21</title>
<g id="a_node22"><a xlink:href="time_8h.html" target="_top" xlink:title="ODP time. ">
<polygon fill="#ffffff" stroke="#000000" points="545,-297 545,-316 623,-316 623,-297 545,-297"/>
<text text-anchor="middle" x="584" y="-304" font-family="Helvetica,sans-Serif" font-size="10.00" fill="#000000">odp/api/time.h</text>
</a>
</g>
</g>
<!-- Node20&#45;&gt;Node21 -->
<g id="edge31" class="edge">
<title>Node20&#45;&gt;Node21</title>
<path fill="none" stroke="#191970" d="M524.0938,-358.3906C534.9715,-348.9683 551.7748,-334.4134 564.82,-323.1137"/>
<polygon fill="#191970" stroke="#191970" points="567.4827,-325.4377 572.7498,-316.2449 562.8996,-320.1466 567.4827,-325.4377"/>
</g>
<!-- Node21&#45;&gt;Node1 -->
<g id="edge32" class="edge">
<title>Node21&#45;&gt;Node1</title>
<path fill="none" stroke="#191970" d="M559.3125,-296.8906C532.6443,-286.5103 489.9718,-269.9004 460.1089,-258.2766"/>
<polygon fill="#191970" stroke="#191970" points="461.1027,-254.9076 450.5141,-254.5419 458.5635,-261.4309 461.1027,-254.9076"/>
</g>
<!-- Node22 -->
<g id="node23" class="node">
<title>Node22</title>
<polygon fill="#ffffff" stroke="#bfbfbf" points="541,-235.5 541,-254.5 635,-254.5 635,-235.5 541,-235.5"/>
<text text-anchor="middle" x="588" y="-242.5" font-family="Helvetica,sans-Serif" font-size="10.00" fill="#000000">odp/api/abi/time.h</text>
</g>
<!-- Node21&#45;&gt;Node22 -->
<g id="edge33" class="edge">
<title>Node21&#45;&gt;Node22</title>
<path fill="none" stroke="#191970" d="M584.625,-296.8906C585.1795,-288.3657 586.0072,-275.6392 586.7042,-264.9235"/>
<polygon fill="#191970" stroke="#191970" points="590.2097,-264.951 587.3662,-254.7449 583.2244,-264.4966 590.2097,-264.951"/>
</g>
<!-- Node23 -->
<g id="node24" class="node">
<title>Node23</title>
<g id="a_node24"><a xlink:href="spec_2time_8h.html" target="_top" xlink:title="ODP time. ">
<polygon fill="#ffffff" stroke="#000000" points="612,-56.5 612,-75.5 714,-75.5 714,-56.5 612,-56.5"/>
<text text-anchor="middle" x="663" y="-63.5" font-family="Helvetica,sans-Serif" font-size="10.00" fill="#000000">odp/api/spec/time.h</text>
</a>
</g>
</g>
<!-- Node21&#45;&gt;Node23 -->
<g id="edge34" class="edge">
<title>Node21&#45;&gt;Node23</title>
<path fill="none" stroke="#191970" d="M601.1624,-296.8909C615.2603,-287.9936 634.4125,-273.3782 644,-255 673.0409,-199.3316 669.3942,-121.9256 665.6179,-85.9077"/>
<polygon fill="#191970" stroke="#191970" points="669.0676,-85.2731 664.4285,-75.7479 662.1151,-86.087 669.0676,-85.2731"/>
</g>
<!-- Node23&#45;&gt;Node4 -->
<g id="edge35" class="edge">
<title>Node23&#45;&gt;Node4</title>
<path fill="none" stroke="#191970" d="M714.3641,-58.7364C786.265,-48.5686 916.8579,-30.1009 994.9962,-19.051"/>
<polygon fill="#191970" stroke="#191970" points="995.7823,-22.4748 1005.1936,-17.609 994.8021,-15.5438 995.7823,-22.4748"/>
</g>
<!-- Node23&#45;&gt;Node9 -->
<g id="edge36" class="edge">
<title>Node23&#45;&gt;Node9</title>
<path fill="none" stroke="#191970" d="M642.5432,-56.3733C623.5262,-47.4241 594.9825,-33.9917 573.5024,-23.8835"/>
<polygon fill="#191970" stroke="#191970" points="574.7284,-20.5923 564.1899,-19.5011 571.7478,-26.926 574.7284,-20.5923"/>
</g>
<!-- Node24&#45;&gt;Node4 -->
<g id="edge40" class="edge">
<title>Node24&#45;&gt;Node4</title>
<path fill="none" stroke="#191970" d="M1023.6742,-298.739C1084.3805,-286.2319 1178,-255.3037 1178,-183.5 1178,-183.5 1178,-183.5 1178,-122 1178,-74.6726 1127.4706,-41.4677 1092.2643,-24.0761"/>
<polygon fill="#191970" stroke="#191970" points="1093.3312,-20.7087 1082.7954,-19.5915 1090.3349,-27.035 1093.3312,-20.7087"/>
</g>
<!-- Node24&#45;&gt;Node9 -->
<g id="edge54" class="edge">
<title>Node24&#45;&gt;Node9</title>
<path fill="none" stroke="#191970" d="M922.4979,-301.1121C880.6476,-294.8948 820.8182,-281.8395 775,-255 671.6314,-194.4484 585.7337,-73.8483 555.5725,-28.1352"/>
<polygon fill="#191970" stroke="#191970" points="558.384,-26.0385 549.9962,-19.5658 552.5168,-29.8565 558.384,-26.0385"/>
</g>
<!-- Node25 -->
<g id="node26" class="node">
<title>Node25</title>
<g id="a_node26"><a xlink:href="schedule__types_8h.html" target="_top" xlink:title="ODP schedule. ">
<polygon fill="#ffffff" stroke="#000000" points="909,-235.5 909,-254.5 1037,-254.5 1037,-235.5 909,-235.5"/>
<text text-anchor="middle" x="973" y="-242.5" font-family="Helvetica,sans-Serif" font-size="10.00" fill="#000000">odp/api/schedule_types.h</text>
</a>
</g>
</g>
<!-- Node24&#45;&gt;Node25 -->
<g id="edge41" class="edge">
<title>Node24&#45;&gt;Node25</title>
<path fill="none" stroke="#191970" d="M973,-291.2977C973,-283.3834 973,-273.6043 973,-265.0759"/>
<polygon fill="#191970" stroke="#191970" points="976.5001,-264.8469 973,-254.8469 969.5001,-264.847 976.5001,-264.8469"/>
</g>
<!-- Node30 -->
<g id="node31" class="node">
<title>Node30</title>
<g id="a_node31"><a xlink:href="deprecated_8h.html" target="_top" xlink:title="Control deprecated API definitions. ">
<polygon fill="#ffffff" stroke="#000000" points="783.5,-235.5 783.5,-254.5 890.5,-254.5 890.5,-235.5 783.5,-235.5"/>
<text text-anchor="middle" x="837" y="-242.5" font-family="Helvetica,sans-Serif" font-size="10.00" fill="#000000">odp/api/deprecated.h</text>
</a>
</g>
</g>
<!-- Node24&#45;&gt;Node30 -->
<g id="edge50" class="edge">
<title>Node24&#45;&gt;Node30</title>
<path fill="none" stroke="#191970" d="M939.7307,-291.4554C917.6359,-281.464 888.854,-268.4487 867.3781,-258.7372"/>
<polygon fill="#191970" stroke="#191970" points="868.629,-255.4616 858.0752,-254.5303 865.7447,-261.8398 868.629,-255.4616"/>
</g>
<!-- Node26 -->
<g id="node27" class="node">
<title>Node26</title>
<polygon fill="#ffffff" stroke="#bfbfbf" points="1044,-168.5 1044,-198.5 1150,-198.5 1150,-168.5 1044,-168.5"/>
<text text-anchor="start" x="1052" y="-186.5" font-family="Helvetica,sans-Serif" font-size="10.00" fill="#000000">odp/api/abi/schedule</text>
<text text-anchor="middle" x="1097" y="-175.5" font-family="Helvetica,sans-Serif" font-size="10.00" fill="#000000">_types.h</text>
</g>
<!-- Node25&#45;&gt;Node26 -->
<g id="edge42" class="edge">
<title>Node25&#45;&gt;Node26</title>
<path fill="none" stroke="#191970" d="M992.375,-235.3906C1009.7784,-226.7591 1035.8666,-213.8202 1057.6379,-203.0224"/>
<polygon fill="#191970" stroke="#191970" points="1059.2626,-206.1234 1066.6662,-198.5446 1056.1524,-199.8523 1059.2626,-206.1234"/>
</g>
<!-- Node27 -->
<g id="node28" class="node">
<title>Node27</title>
<g id="a_node28"><a xlink:href="spec_2schedule__types_8h.html" target="_top" xlink:title="ODP schedule types. ">
<polygon fill="#ffffff" stroke="#000000" points="912,-168.5 912,-198.5 1026,-198.5 1026,-168.5 912,-168.5"/>
<text text-anchor="start" x="920" y="-186.5" font-family="Helvetica,sans-Serif" font-size="10.00" fill="#000000">odp/api/spec/schedule</text>
<text text-anchor="middle" x="969" y="-175.5" font-family="Helvetica,sans-Serif" font-size="10.00" fill="#000000">_types.h</text>
</a>
</g>
</g>
<!-- Node25&#45;&gt;Node27 -->
<g id="edge43" class="edge">
<title>Node25&#45;&gt;Node27</title>
<path fill="none" stroke="#191970" d="M972.375,-235.3906C971.9088,-228.2234 971.2495,-218.0862 970.6371,-208.671"/>
<polygon fill="#191970" stroke="#191970" points="974.1203,-208.2963 969.9785,-198.5446 967.135,-208.7507 974.1203,-208.2963"/>
</g>
<!-- Node27&#45;&gt;Node4 -->
<g id="edge44" class="edge">
<title>Node27&#45;&gt;Node4</title>
<path fill="none" stroke="#191970" d="M1011.5214,-168.4433C1032.0898,-159.8268 1056.3085,-147.6017 1075,-132 1098.681,-112.2335 1106.4143,-105.3193 1116,-76 1118.7623,-67.5512 1119.8335,-64.0198 1116,-56 1109.8552,-43.1449 1098.1701,-32.7306 1086.9715,-25.0832"/>
<polygon fill="#191970" stroke="#191970" points="1088.5339,-21.9304 1078.21,-19.5495 1084.7959,-27.8488 1088.5339,-21.9304"/>
</g>
<!-- Node27&#45;&gt;Node9 -->
<g id="edge49" class="edge">
<title>Node27&#45;&gt;Node9</title>
<path fill="none" stroke="#191970" d="M939.7237,-168.2722C875.119,-134.6757 725.8156,-57.0754 723,-56 684.2609,-41.2033 639.0141,-29.6226 603.704,-21.782"/>
<polygon fill="#191970" stroke="#191970" points="604.0697,-18.2796 593.5537,-19.5699 602.5791,-25.1191 604.0697,-18.2796"/>
</g>
<!-- Node28 -->
<g id="node29" class="node">
<title>Node28</title>
<g id="a_node29"><a xlink:href="support_8h.html" target="_top" xlink:title="ODP support API &#45; platform specific header. ">
<polygon fill="#ffffff" stroke="#000000" points="974,-112.5 974,-131.5 1066,-131.5 1066,-112.5 974,-112.5"/>
<text text-anchor="middle" x="1020" y="-119.5" font-family="Helvetica,sans-Serif" font-size="10.00" fill="#000000">odp/api/support.h</text>
</a>
</g>
</g>
<!-- Node27&#45;&gt;Node28 -->
<g id="edge45" class="edge">
<title>Node27&#45;&gt;Node28</title>
<path fill="none" stroke="#191970" d="M981.6067,-168.2977C988.7598,-159.672 997.7497,-148.8312 1005.2318,-139.8087"/>
<polygon fill="#191970" stroke="#191970" points="1008.145,-141.7787 1011.8343,-131.8469 1002.7567,-137.3103 1008.145,-141.7787"/>
</g>
<!-- Node29 -->
<g id="node30" class="node">
<title>Node29</title>
<g id="a_node30"><a xlink:href="spec_2support_8h.html" target="_top" xlink:title="ODP support API. ">
<polygon fill="#ffffff" stroke="#000000" points="958,-56.5 958,-75.5 1074,-75.5 1074,-56.5 958,-56.5"/>
<text text-anchor="middle" x="1016" y="-63.5" font-family="Helvetica,sans-Serif" font-size="10.00" fill="#000000">odp/api/spec/support.h</text>
</a>
</g>
</g>
<!-- Node28&#45;&gt;Node29 -->
<g id="edge46" class="edge">
<title>Node28&#45;&gt;Node29</title>
<path fill="none" stroke="#191970" d="M1019.3033,-112.2455C1018.7813,-104.9382 1018.0496,-94.6944 1017.4075,-85.7046"/>
<polygon fill="#191970" stroke="#191970" points="1020.8924,-85.3679 1016.6888,-75.6427 1013.9102,-85.8667 1020.8924,-85.3679"/>
</g>
<!-- Node29&#45;&gt;Node4 -->
<g id="edge47" class="edge">
<title>Node29&#45;&gt;Node4</title>
<path fill="none" stroke="#191970" d="M1023.49,-56.2455C1029.5326,-48.3761 1038.1903,-37.101 1045.4441,-27.6542"/>
<polygon fill="#191970" stroke="#191970" points="1048.2815,-29.7058 1051.5958,-19.6427 1042.7295,-25.4426 1048.2815,-29.7058"/>
</g>
<!-- Node29&#45;&gt;Node9 -->
<g id="edge48" class="edge">
<title>Node29&#45;&gt;Node9</title>
<path fill="none" stroke="#191970" d="M957.6501,-59.0771C867.6394,-48.3979 695.7935,-28.0094 604.4993,-17.1779"/>
<polygon fill="#191970" stroke="#191970" points="604.655,-13.6719 594.3122,-15.9692 603.8302,-20.6231 604.655,-13.6719"/>
</g>
<!-- Node31 -->
<g id="node32" class="node">
<title>Node31</title>
<g id="a_node32"><a xlink:href="spec_2deprecated_8h.html" target="_top" xlink:title="Macro for deprecated API definitions. ">
<polygon fill="#ffffff" stroke="#000000" points="770.5,-56.5 770.5,-75.5 901.5,-75.5 901.5,-56.5 770.5,-56.5"/>
<text text-anchor="middle" x="836" y="-63.5" font-family="Helvetica,sans-Serif" font-size="10.00" fill="#000000">odp/api/spec/deprecated.h</text>
</a>
</g>
</g>
<!-- Node30&#45;&gt;Node31 -->
<g id="edge51" class="edge">
<title>Node30&#45;&gt;Node31</title>
<path fill="none" stroke="#191970" d="M836.9462,-235.3762C836.7889,-207.2097 836.3269,-124.5126 836.1121,-86.0713"/>
<polygon fill="#191970" stroke="#191970" points="839.6099,-85.6517 836.054,-75.6714 832.61,-85.6908 839.6099,-85.6517"/>
</g>
<!-- Node31&#45;&gt;Node4 -->
<g id="edge52" class="edge">
<title>Node31&#45;&gt;Node4</title>
<path fill="none" stroke="#191970" d="M874.0817,-56.4369C912.0059,-46.9133 970.3289,-32.2672 1011.3126,-21.9753"/>
<polygon fill="#191970" stroke="#191970" points="1012.229,-25.3539 1021.0754,-19.5237 1010.524,-18.5647 1012.229,-25.3539"/>
</g>
<!-- Node31&#45;&gt;Node9 -->
<g id="edge53" class="edge">
<title>Node31&#45;&gt;Node9</title>
<path fill="none" stroke="#191970" d="M786.1352,-56.4369C735.6367,-46.7522 657.5165,-31.7703 603.7395,-21.4569"/>
<polygon fill="#191970" stroke="#191970" points="604.1394,-17.9699 593.6591,-19.5237 602.8209,-24.8446 604.1394,-17.9699"/>
</g>
</g>
</svg>
