<?xml version="1.0" encoding="UTF-8" standalone="no"?>
<!DOCTYPE svg PUBLIC "-//W3C//DTD SVG 1.1//EN"
 "http://www.w3.org/Graphics/SVG/1.1/DTD/svg11.dtd">
<!-- Generated by graphviz version 2.40.1 (20161225.0304)
 -->
<!-- Title: queue_types.h Pages: 1 -->
<svg width="271pt" height="476pt"
 viewBox="0.00 0.00 271.00 476.00" xmlns="http://www.w3.org/2000/svg" xmlns:xlink="http://www.w3.org/1999/xlink">
<g id="graph0" class="graph" transform="scale(1 1) rotate(0) translate(4 472)">
<title>queue_types.h</title>
<polygon fill="#ffffff" stroke="transparent" points="-4,4 -4,-472 267,-472 267,4 -4,4"/>
<!-- Node10 -->
<g id="node1" class="node">
<title>Node10</title>
<polygon fill="#bfbfbf" stroke="#000000" points="120,-448.5 120,-467.5 200,-467.5 200,-448.5 120,-448.5"/>
<text text-anchor="middle" x="160" y="-455.5" font-family="Helvetica,sans-Serif" font-size="10.00" fill="#000000">queue_types.h</text>
</g>
<!-- Node11 -->
<g id="node2" class="node">
<title>Node11</title>
<g id="a_node2"><a xlink:href="spec_2queue_8h.html" target="_top" xlink:title="ODP queue. ">
<polygon fill="#ffffff" stroke="#000000" points="85.5,-392.5 85.5,-411.5 136.5,-411.5 136.5,-392.5 85.5,-392.5"/>
<text text-anchor="middle" x="111" y="-399.5" font-family="Helvetica,sans-Serif" font-size="10.00" fill="#000000">queue.h</text>
</a>
</g>
</g>
<!-- Node10&#45;&gt;Node11 -->
<g id="edge1" class="edge">
<title>Node10&#45;&gt;Node11</title>
<path fill="none" stroke="#191970" d="M144.6878,-440.5004C136.3553,-430.9775 126.3647,-419.5596 119.4373,-411.6427"/>
<polygon fill="#191970" stroke="#191970" points="142.2457,-443.0245 151.4649,-448.2455 147.5138,-438.415 142.2457,-443.0245"/>
</g>
<!-- Node24 -->
<g id="node15" class="node">
<title>Node24</title>
<g id="a_node15"><a xlink:href="queue__inline__types_8h_source.html" target="_top" xlink:title="queue_inline_types.h">
<polygon fill="#ffffff" stroke="#000000" points="155,-392.5 155,-411.5 263,-411.5 263,-392.5 155,-392.5"/>
<text text-anchor="middle" x="209" y="-399.5" font-family="Helvetica,sans-Serif" font-size="10.00" fill="#000000">queue_inline_types.h</text>
</a>
</g>
</g>
<!-- Node10&#45;&gt;Node24 -->
<g id="edge17" class="edge">
<title>Node10&#45;&gt;Node24</title>
<path fill="none" stroke="#191970" d="M175.3122,-440.5004C183.6447,-430.9775 193.6353,-419.5596 200.5627,-411.6427"/>
<polygon fill="#191970" stroke="#191970" points="172.4862,-438.415 168.5351,-448.2455 177.7543,-443.0245 172.4862,-438.415"/>
</g>
<!-- Node12 -->
<g id="node3" class="node">
<title>Node12</title>
<g id="a_node3"><a xlink:href="queue_8h.html" target="_top" xlink:title="ODP queue. ">
<polygon fill="#ffffff" stroke="#000000" points="85.5,-336.5 85.5,-355.5 136.5,-355.5 136.5,-336.5 85.5,-336.5"/>
<text text-anchor="middle" x="111" y="-343.5" font-family="Helvetica,sans-Serif" font-size="10.00" fill="#000000">queue.h</text>
</a>
</g>
</g>
<!-- Node11&#45;&gt;Node12 -->
<g id="edge2" class="edge">
<title>Node11&#45;&gt;Node12</title>
<path fill="none" stroke="#191970" d="M111,-382.1575C111,-373.155 111,-362.9199 111,-355.6427"/>
<polygon fill="#191970" stroke="#191970" points="107.5001,-382.2455 111,-392.2455 114.5001,-382.2456 107.5001,-382.2455"/>
</g>
<!-- Node13 -->
<g id="node4" class="node">
<title>Node13</title>
<g id="a_node4"><a xlink:href="crypto_8h.html" target="_top" xlink:title="ODP crypto. ">
<polygon fill="#ffffff" stroke="#000000" points="0,-224.5 0,-243.5 52,-243.5 52,-224.5 0,-224.5"/>
<text text-anchor="middle" x="26" y="-231.5" font-family="Helvetica,sans-Serif" font-size="10.00" fill="#000000">crypto.h</text>
</a>
</g>
</g>
<!-- Node12&#45;&gt;Node13 -->
<g id="edge3" class="edge">
<title>Node12&#45;&gt;Node13</title>
<path fill="none" stroke="#191970" d="M93.6019,-328.9207C85.4401,-320.5346 75.8142,-310.0848 68,-300 53.359,-281.1047 38.9978,-256.9952 31.4519,-243.7719"/>
<polygon fill="#191970" stroke="#191970" points="91.3443,-331.6146 100.8716,-336.2494 96.314,-326.6849 91.3443,-331.6146"/>
</g>
<!-- Node16 -->
<g id="node7" class="node">
<title>Node16</title>
<g id="a_node7"><a xlink:href="spec_2packet__io_8h.html" target="_top" xlink:title="ODP Packet IO. ">
<polygon fill="#ffffff" stroke="#000000" points="77.5,-280.5 77.5,-299.5 144.5,-299.5 144.5,-280.5 77.5,-280.5"/>
<text text-anchor="middle" x="111" y="-287.5" font-family="Helvetica,sans-Serif" font-size="10.00" fill="#000000">packet_io.h</text>
</a>
</g>
</g>
<!-- Node12&#45;&gt;Node16 -->
<g id="edge6" class="edge">
<title>Node12&#45;&gt;Node16</title>
<path fill="none" stroke="#191970" d="M111,-326.1575C111,-317.155 111,-306.9199 111,-299.6427"/>
<polygon fill="#191970" stroke="#191970" points="107.5001,-326.2455 111,-336.2455 114.5001,-326.2456 107.5001,-326.2455"/>
</g>
<!-- Node22 -->
<g id="node13" class="node">
<title>Node22</title>
<g id="a_node13"><a xlink:href="spec_2schedule_8h.html" target="_top" xlink:title="ODP schedule. ">
<polygon fill="#ffffff" stroke="#000000" points="163,-280.5 163,-299.5 227,-299.5 227,-280.5 163,-280.5"/>
<text text-anchor="middle" x="195" y="-287.5" font-family="Helvetica,sans-Serif" font-size="10.00" fill="#000000">schedule.h</text>
</a>
</g>
</g>
<!-- Node12&#45;&gt;Node22 -->
<g id="edge15" class="edge">
<title>Node12&#45;&gt;Node22</title>
<path fill="none" stroke="#191970" d="M134.2649,-330.49C149.0856,-320.6096 167.8209,-308.1194 180.536,-299.6427"/>
<polygon fill="#191970" stroke="#191970" points="132.0107,-327.7863 125.6317,-336.2455 135.8937,-333.6107 132.0107,-327.7863"/>
</g>
<!-- Node14 -->
<g id="node5" class="node">
<title>Node14</title>
<g id="a_node5"><a xlink:href="spec_2ipsec_8h.html" target="_top" xlink:title="ODP IPSEC API. ">
<polygon fill="#ffffff" stroke="#000000" points="60,-56.5 60,-75.5 108,-75.5 108,-56.5 60,-56.5"/>
<text text-anchor="middle" x="84" y="-63.5" font-family="Helvetica,sans-Serif" font-size="10.00" fill="#000000">ipsec.h</text>
</a>
</g>
</g>
<!-- Node13&#45;&gt;Node14 -->
<g id="edge4" class="edge">
<title>Node13&#45;&gt;Node14</title>
<path fill="none" stroke="#191970" d="M30.4179,-214.4944C36.2095,-190.0997 47.265,-147.2535 61,-112 66.0565,-99.0214 73.4912,-84.7789 78.528,-75.6324"/>
<polygon fill="#191970" stroke="#191970" points="26.9912,-213.7781 28.1366,-224.3108 33.8095,-215.3627 26.9912,-213.7781"/>
</g>
<!-- Node15 -->
<g id="node6" class="node">
<title>Node15</title>
<g id="a_node6"><a xlink:href="ipsec_8h.html" target="_top" xlink:title="ODP IPSEC API &#45; platform specific header. ">
<polygon fill="#ffffff" stroke="#000000" points="60,-.5 60,-19.5 108,-19.5 108,-.5 60,-.5"/>
<text text-anchor="middle" x="84" y="-7.5" font-family="Helvetica,sans-Serif" font-size="10.00" fill="#000000">ipsec.h</text>
</a>
</g>
</g>
<!-- Node14&#45;&gt;Node15 -->
<g id="edge5" class="edge">
<title>Node14&#45;&gt;Node15</title>
<path fill="none" stroke="#191970" d="M84,-46.1575C84,-37.155 84,-26.9199 84,-19.6427"/>
<polygon fill="#191970" stroke="#191970" points="80.5001,-46.2455 84,-56.2455 87.5001,-46.2456 80.5001,-46.2455"/>
</g>
<!-- Node17 -->
<g id="node8" class="node">
<title>Node17</title>
<g id="a_node8"><a xlink:href="packet__io_8h.html" target="_top" xlink:title="ODP Packet IO. ">
<polygon fill="#ffffff" stroke="#000000" points="77.5,-224.5 77.5,-243.5 144.5,-243.5 144.5,-224.5 77.5,-224.5"/>
<text text-anchor="middle" x="111" y="-231.5" font-family="Helvetica,sans-Serif" font-size="10.00" fill="#000000">packet_io.h</text>
</a>
</g>
</g>
<!-- Node16&#45;&gt;Node17 -->
<g id="edge7" class="edge">
<title>Node16&#45;&gt;Node17</title>
<path fill="none" stroke="#191970" d="M111,-270.1575C111,-261.155 111,-250.9199 111,-243.6427"/>
<polygon fill="#191970" stroke="#191970" points="107.5001,-270.2455 111,-280.2455 114.5001,-270.2456 107.5001,-270.2455"/>
</g>
<!-- Node17&#45;&gt;Node14 -->
<g id="edge11" class="edge">
<title>Node17&#45;&gt;Node14</title>
<path fill="none" stroke="#191970" d="M90.2749,-217.4619C81.9902,-209.537 73.3858,-199.308 69,-188 53.6439,-148.4069 71.2257,-96.6486 79.8164,-75.5628"/>
<polygon fill="#191970" stroke="#191970" points="88.1756,-220.279 97.972,-224.3141 92.8301,-215.0506 88.1756,-220.279"/>
</g>
<!-- Node18 -->
<g id="node9" class="node">
<title>Node18</title>
<g id="a_node9"><a xlink:href="spec_2classification_8h.html" target="_top" xlink:title="ODP classification descriptor. ">
<polygon fill="#ffffff" stroke="#000000" points="78,-168.5 78,-187.5 160,-187.5 160,-168.5 78,-168.5"/>
<text text-anchor="middle" x="119" y="-175.5" font-family="Helvetica,sans-Serif" font-size="10.00" fill="#000000">classification.h</text>
</a>
</g>
</g>
<!-- Node17&#45;&gt;Node18 -->
<g id="edge8" class="edge">
<title>Node17&#45;&gt;Node18</title>
<path fill="none" stroke="#191970" d="M113.8346,-214.1575C115.1207,-205.155 116.5829,-194.9199 117.6225,-187.6427"/>
<polygon fill="#191970" stroke="#191970" points="110.343,-213.851 112.3935,-224.2455 117.2726,-214.8411 110.343,-213.851"/>
</g>
<!-- Node20 -->
<g id="node11" class="node">
<title>Node20</title>
<g id="a_node11"><a xlink:href="spec_2traffic__mngr_8h.html" target="_top" xlink:title="Copyright (c) 2015&#45;2018, Linaro Limited All rights reserved. ">
<polygon fill="#ffffff" stroke="#000000" points="178.5,-168.5 178.5,-187.5 255.5,-187.5 255.5,-168.5 178.5,-168.5"/>
<text text-anchor="middle" x="217" y="-175.5" font-family="Helvetica,sans-Serif" font-size="10.00" fill="#000000">traffic_mngr.h</text>
</a>
</g>
</g>
<!-- Node17&#45;&gt;Node20 -->
<g id="edge12" class="edge">
<title>Node17&#45;&gt;Node20</title>
<path fill="none" stroke="#191970" d="M138.5222,-219.46C157.4908,-209.4388 182.1727,-196.3993 198.7478,-187.6427"/>
<polygon fill="#191970" stroke="#191970" points="136.6708,-216.4796 129.4638,-224.2455 139.9407,-222.669 136.6708,-216.4796"/>
</g>
<!-- Node19 -->
<g id="node10" class="node">
<title>Node19</title>
<g id="a_node10"><a xlink:href="classification_8h.html" target="_top" xlink:title="ODP classification descriptor. ">
<polygon fill="#ffffff" stroke="#000000" points="78,-112.5 78,-131.5 160,-131.5 160,-112.5 78,-112.5"/>
<text text-anchor="middle" x="119" y="-119.5" font-family="Helvetica,sans-Serif" font-size="10.00" fill="#000000">classification.h</text>
</a>
</g>
</g>
<!-- Node18&#45;&gt;Node19 -->
<g id="edge9" class="edge">
<title>Node18&#45;&gt;Node19</title>
<path fill="none" stroke="#191970" d="M119,-158.1575C119,-149.155 119,-138.9199 119,-131.6427"/>
<polygon fill="#191970" stroke="#191970" points="115.5001,-158.2455 119,-168.2455 122.5001,-158.2456 115.5001,-158.2455"/>
</g>
<!-- Node19&#45;&gt;Node14 -->
<g id="edge10" class="edge">
<title>Node19&#45;&gt;Node14</title>
<path fill="none" stroke="#191970" d="M107.5185,-103.6296C101.6804,-94.2887 94.8248,-83.3197 90.0267,-75.6427"/>
<polygon fill="#191970" stroke="#191970" points="104.6354,-105.6206 112.9035,-112.2455 110.5714,-101.9105 104.6354,-105.6206"/>
</g>
<!-- Node21 -->
<g id="node12" class="node">
<title>Node21</title>
<g id="a_node12"><a xlink:href="traffic__mngr_8h.html" target="_top" xlink:title="ODP Traffic manager. ">
<polygon fill="#ffffff" stroke="#000000" points="178.5,-112.5 178.5,-131.5 255.5,-131.5 255.5,-112.5 178.5,-112.5"/>
<text text-anchor="middle" x="217" y="-119.5" font-family="Helvetica,sans-Serif" font-size="10.00" fill="#000000">traffic_mngr.h</text>
</a>
</g>
</g>
<!-- Node20&#45;&gt;Node21 -->
<g id="edge13" class="edge">
<title>Node20&#45;&gt;Node21</title>
<path fill="none" stroke="#191970" d="M217,-158.1575C217,-149.155 217,-138.9199 217,-131.6427"/>
<polygon fill="#191970" stroke="#191970" points="213.5001,-158.2455 217,-168.2455 220.5001,-158.2456 213.5001,-158.2455"/>
</g>
<!-- Node21&#45;&gt;Node14 -->
<g id="edge14" class="edge">
<title>Node21&#45;&gt;Node14</title>
<path fill="none" stroke="#191970" d="M184.6603,-108.3833C160.4715,-98.1985 128.005,-84.5284 106.5652,-75.5011"/>
<polygon fill="#191970" stroke="#191970" points="183.5619,-111.7184 194.1365,-112.3733 186.2783,-105.2669 183.5619,-111.7184"/>
</g>
<!-- Node23 -->
<g id="node14" class="node">
<title>Node23</title>
<g id="a_node14"><a xlink:href="schedule_8h.html" target="_top" xlink:title="ODP schedule. ">
<polygon fill="#ffffff" stroke="#000000" points="163,-224.5 163,-243.5 227,-243.5 227,-224.5 163,-224.5"/>
<text text-anchor="middle" x="195" y="-231.5" font-family="Helvetica,sans-Serif" font-size="10.00" fill="#000000">schedule.h</text>
</a>
</g>
</g>
<!-- Node22&#45;&gt;Node23 -->
<g id="edge16" class="edge">
<title>Node22&#45;&gt;Node23</title>
<path fill="none" stroke="#191970" d="M195,-270.1575C195,-261.155 195,-250.9199 195,-243.6427"/>
<polygon fill="#191970" stroke="#191970" points="191.5001,-270.2455 195,-280.2455 198.5001,-270.2456 191.5001,-270.2455"/>
</g>
<!-- Node25 -->
<g id="node16" class="node">
<title>Node25</title>
<g id="a_node16"><a xlink:href="queue__inlines_8h_source.html" target="_top" xlink:title="queue_inlines.h">
<polygon fill="#ffffff" stroke="#000000" points="167,-336.5 167,-355.5 251,-355.5 251,-336.5 167,-336.5"/>
<text text-anchor="middle" x="209" y="-343.5" font-family="Helvetica,sans-Serif" font-size="10.00" fill="#000000">queue_inlines.h</text>
</a>
</g>
</g>
<!-- Node24&#45;&gt;Node25 -->
<g id="edge18" class="edge">
<title>Node24&#45;&gt;Node25</title>
<path fill="none" stroke="#191970" d="M209,-382.1575C209,-373.155 209,-362.9199 209,-355.6427"/>
<polygon fill="#191970" stroke="#191970" points="205.5001,-382.2455 209,-392.2455 212.5001,-382.2456 205.5001,-382.2455"/>
</g>
</g>
</svg>
