<?xml version="1.0" encoding="UTF-8" standalone="no"?>
<!DOCTYPE svg PUBLIC "-//W3C//DTD SVG 1.1//EN"
 "http://www.w3.org/Graphics/SVG/1.1/DTD/svg11.dtd">
<!-- Generated by graphviz version 2.40.1 (20161225.0304)
 -->
<!-- Title: random.h Pages: 1 -->
<svg width="234pt" height="140pt"
 viewBox="0.00 0.00 233.50 140.00" xmlns="http://www.w3.org/2000/svg" xmlns:xlink="http://www.w3.org/1999/xlink">
<g id="graph0" class="graph" transform="scale(1 1) rotate(0) translate(4 136)">
<title>random.h</title>
<polygon fill="#ffffff" stroke="transparent" points="-4,4 -4,-136 229.5,-136 229.5,4 -4,4"/>
<!-- Node0 -->
<g id="node1" class="node">
<title>Node0</title>
<polygon fill="#bfbfbf" stroke="#000000" points="86,-112.5 86,-131.5 143,-131.5 143,-112.5 86,-112.5"/>
<text text-anchor="middle" x="114.5" y="-119.5" font-family="Helvetica,sans-Serif" font-size="10.00" fill="#000000">random.h</text>
</g>
<!-- Node1 -->
<g id="node2" class="node">
<title>Node1</title>
<g id="a_node2"><a xlink:href="spec_2random_8h.html" target="_top" xlink:title="ODP random number API. ">
<polygon fill="#ffffff" stroke="#000000" points="56.5,-56.5 56.5,-75.5 172.5,-75.5 172.5,-56.5 56.5,-56.5"/>
<text text-anchor="middle" x="114.5" y="-63.5" font-family="Helvetica,sans-Serif" font-size="10.00" fill="#000000">odp/api/spec/random.h</text>
</a>
</g>
</g>
<!-- Node0&#45;&gt;Node1 -->
<g id="edge1" class="edge">
<title>Node0&#45;&gt;Node1</title>
<path fill="none" stroke="#191970" d="M114.5,-112.2455C114.5,-104.9382 114.5,-94.6944 114.5,-85.7046"/>
<polygon fill="#191970" stroke="#191970" points="118.0001,-85.6426 114.5,-75.6427 111.0001,-85.6427 118.0001,-85.6426"/>
</g>
<!-- Node2 -->
<g id="node3" class="node">
<title>Node2</title>
<polygon fill="#ffffff" stroke="#bfbfbf" points="0,-.5 0,-19.5 107,-19.5 107,-.5 0,-.5"/>
<text text-anchor="middle" x="53.5" y="-7.5" font-family="Helvetica,sans-Serif" font-size="10.00" fill="#000000">odp/visibility_begin.h</text>
</g>
<!-- Node1&#45;&gt;Node2 -->
<g id="edge2" class="edge">
<title>Node1&#45;&gt;Node2</title>
<path fill="none" stroke="#191970" d="M103.8746,-56.2455C94.9527,-48.0549 82.012,-36.1749 71.4808,-26.5069"/>
<polygon fill="#191970" stroke="#191970" points="73.7371,-23.8271 64.0036,-19.6427 69.0032,-28.9837 73.7371,-23.8271"/>
</g>
<!-- Node3 -->
<g id="node4" class="node">
<title>Node3</title>
<polygon fill="#ffffff" stroke="#bfbfbf" points="125.5,-.5 125.5,-19.5 225.5,-19.5 225.5,-.5 125.5,-.5"/>
<text text-anchor="middle" x="175.5" y="-7.5" font-family="Helvetica,sans-Serif" font-size="10.00" fill="#000000">odp/visibility_end.h</text>
</g>
<!-- Node1&#45;&gt;Node3 -->
<g id="edge3" class="edge">
<title>Node1&#45;&gt;Node3</title>
<path fill="none" stroke="#191970" d="M125.1254,-56.2455C134.0473,-48.0549 146.988,-36.1749 157.5192,-26.5069"/>
<polygon fill="#191970" stroke="#191970" points="159.9968,-28.9837 164.9964,-19.6427 155.2629,-23.8271 159.9968,-28.9837"/>
</g>
</g>
</svg>
