<?xml version="1.0" encoding="UTF-8" standalone="no"?>
<!DOCTYPE svg PUBLIC "-//W3C//DTD SVG 1.1//EN"
 "http://www.w3.org/Graphics/SVG/1.1/DTD/svg11.dtd">
<!-- Generated by graphviz version 2.40.1 (20161225.0304)
 -->
<!-- Title: rwlock_recursive.h Pages: 1 -->
<svg width="285pt" height="151pt"
 viewBox="0.00 0.00 284.50 151.00" xmlns="http://www.w3.org/2000/svg" xmlns:xlink="http://www.w3.org/1999/xlink">
<g id="graph0" class="graph" transform="scale(1 1) rotate(0) translate(4 147)">
<title>rwlock_recursive.h</title>
<polygon fill="#ffffff" stroke="transparent" points="-4,4 -4,-147 280.5,-147 280.5,4 -4,4"/>
<!-- Node0 -->
<g id="node1" class="node">
<title>Node0</title>
<polygon fill="#bfbfbf" stroke="#000000" points="57.5,-123.5 57.5,-142.5 155.5,-142.5 155.5,-123.5 57.5,-123.5"/>
<text text-anchor="middle" x="106.5" y="-130.5" font-family="Helvetica,sans-Serif" font-size="10.00" fill="#000000">rwlock_recursive.h</text>
</g>
<!-- Node1 -->
<g id="node2" class="node">
<title>Node1</title>
<polygon fill="#ffffff" stroke="#bfbfbf" points="0,-56.5 0,-86.5 95,-86.5 95,-56.5 0,-56.5"/>
<text text-anchor="start" x="8" y="-74.5" font-family="Helvetica,sans-Serif" font-size="10.00" fill="#000000">odp/api/abi/rwlock</text>
<text text-anchor="middle" x="47.5" y="-63.5" font-family="Helvetica,sans-Serif" font-size="10.00" fill="#000000">_recursive.h</text>
</g>
<!-- Node0&#45;&gt;Node1 -->
<g id="edge1" class="edge">
<title>Node0&#45;&gt;Node1</title>
<path fill="none" stroke="#191970" d="M97.2813,-123.3906C89.7399,-115.5298 78.7713,-104.0964 69.0482,-93.9612"/>
<polygon fill="#191970" stroke="#191970" points="71.3816,-91.3378 61.933,-86.5446 66.3302,-96.1839 71.3816,-91.3378"/>
</g>
<!-- Node2 -->
<g id="node3" class="node">
<title>Node2</title>
<g id="a_node3"><a xlink:href="spec_2rwlock__recursive_8h.html" target="_top" xlink:title="ODP recursive read/write lock. ">
<polygon fill="#ffffff" stroke="#000000" points="113.5,-56.5 113.5,-86.5 217.5,-86.5 217.5,-56.5 113.5,-56.5"/>
<text text-anchor="start" x="121.5" y="-74.5" font-family="Helvetica,sans-Serif" font-size="10.00" fill="#000000">odp/api/spec/rwlock</text>
<text text-anchor="middle" x="165.5" y="-63.5" font-family="Helvetica,sans-Serif" font-size="10.00" fill="#000000">_recursive.h</text>
</a>
</g>
</g>
<!-- Node0&#45;&gt;Node2 -->
<g id="edge2" class="edge">
<title>Node0&#45;&gt;Node2</title>
<path fill="none" stroke="#191970" d="M115.7188,-123.3906C123.2601,-115.5298 134.2287,-104.0964 143.9518,-93.9612"/>
<polygon fill="#191970" stroke="#191970" points="146.6698,-96.1839 151.067,-86.5446 141.6184,-91.3378 146.6698,-96.1839"/>
</g>
<!-- Node3 -->
<g id="node4" class="node">
<title>Node3</title>
<polygon fill="#ffffff" stroke="#bfbfbf" points="51,-.5 51,-19.5 158,-19.5 158,-.5 51,-.5"/>
<text text-anchor="middle" x="104.5" y="-7.5" font-family="Helvetica,sans-Serif" font-size="10.00" fill="#000000">odp/visibility_begin.h</text>
</g>
<!-- Node2&#45;&gt;Node3 -->
<g id="edge3" class="edge">
<title>Node2&#45;&gt;Node3</title>
<path fill="none" stroke="#191970" d="M150.4213,-56.2977C141.6011,-47.4052 130.4459,-36.1586 121.3388,-26.9769"/>
<polygon fill="#191970" stroke="#191970" points="123.794,-24.4821 114.2669,-19.8469 118.8241,-29.4116 123.794,-24.4821"/>
</g>
<!-- Node4 -->
<g id="node5" class="node">
<title>Node4</title>
<polygon fill="#ffffff" stroke="#bfbfbf" points="176.5,-.5 176.5,-19.5 276.5,-19.5 276.5,-.5 176.5,-.5"/>
<text text-anchor="middle" x="226.5" y="-7.5" font-family="Helvetica,sans-Serif" font-size="10.00" fill="#000000">odp/visibility_end.h</text>
</g>
<!-- Node2&#45;&gt;Node4 -->
<g id="edge4" class="edge">
<title>Node2&#45;&gt;Node4</title>
<path fill="none" stroke="#191970" d="M180.5787,-56.2977C189.3989,-47.4052 200.5541,-36.1586 209.6612,-26.9769"/>
<polygon fill="#191970" stroke="#191970" points="212.1759,-29.4116 216.7331,-19.8469 207.206,-24.4821 212.1759,-29.4116"/>
</g>
</g>
</svg>
