<?xml version="1.0" encoding="UTF-8" standalone="no"?>
<!DOCTYPE svg PUBLIC "-//W3C//DTD SVG 1.1//EN"
 "http://www.w3.org/Graphics/SVG/1.1/DTD/svg11.dtd">
<!-- Generated by graphviz version 2.40.1 (20161225.0304)
 -->
<!-- Title: atomic.h Pages: 1 -->
<svg width="405pt" height="140pt"
 viewBox="0.00 0.00 405.00 140.00" xmlns="http://www.w3.org/2000/svg" xmlns:xlink="http://www.w3.org/1999/xlink">
<g id="graph0" class="graph" transform="scale(1 1) rotate(0) translate(4 136)">
<title>atomic.h</title>
<polygon fill="#ffffff" stroke="transparent" points="-4,4 -4,-136 401,-136 401,4 -4,4"/>
<!-- Node3 -->
<g id="node1" class="node">
<title>Node3</title>
<polygon fill="#bfbfbf" stroke="#000000" points="148,-112.5 148,-131.5 202,-131.5 202,-112.5 148,-112.5"/>
<text text-anchor="middle" x="175" y="-119.5" font-family="Helvetica,sans-Serif" font-size="10.00" fill="#000000">atomic.h</text>
</g>
<!-- Node4 -->
<g id="node2" class="node">
<title>Node4</title>
<g id="a_node2"><a xlink:href="atomic_8h.html" target="_top" xlink:title="ODP atomic operations. ">
<polygon fill="#ffffff" stroke="#000000" points="148,-56.5 148,-75.5 202,-75.5 202,-56.5 148,-56.5"/>
<text text-anchor="middle" x="175" y="-63.5" font-family="Helvetica,sans-Serif" font-size="10.00" fill="#000000">atomic.h</text>
</a>
</g>
</g>
<!-- Node3&#45;&gt;Node4 -->
<g id="edge1" class="edge">
<title>Node3&#45;&gt;Node4</title>
<path fill="none" stroke="#191970" d="M175,-102.1575C175,-93.155 175,-82.9199 175,-75.6427"/>
<polygon fill="#191970" stroke="#191970" points="171.5001,-102.2455 175,-112.2455 178.5001,-102.2456 171.5001,-102.2455"/>
</g>
<!-- Node5 -->
<g id="node3" class="node">
<title>Node5</title>
<g id="a_node3"><a xlink:href="abi-default_2barrier_8h.html" target="_top" xlink:title="ODP barrier. ">
<polygon fill="#ffffff" stroke="#000000" points="0,-.5 0,-19.5 52,-19.5 52,-.5 0,-.5"/>
<text text-anchor="middle" x="26" y="-7.5" font-family="Helvetica,sans-Serif" font-size="10.00" fill="#000000">barrier.h</text>
</a>
</g>
</g>
<!-- Node4&#45;&gt;Node5 -->
<g id="edge2" class="edge">
<title>Node4&#45;&gt;Node5</title>
<path fill="none" stroke="#191970" d="M139.8488,-52.7888C112.6432,-42.5639 75.6191,-28.6488 51.2798,-19.5011"/>
<polygon fill="#191970" stroke="#191970" points="138.7939,-56.1313 149.386,-56.3733 141.2566,-49.5788 138.7939,-56.1313"/>
</g>
<!-- Node6 -->
<g id="node4" class="node">
<title>Node6</title>
<g id="a_node4"><a xlink:href="abi-default_2rwlock_8h.html" target="_top" xlink:title="ODP rwlock. ">
<polygon fill="#ffffff" stroke="#000000" points="70.5,-.5 70.5,-19.5 123.5,-19.5 123.5,-.5 70.5,-.5"/>
<text text-anchor="middle" x="97" y="-7.5" font-family="Helvetica,sans-Serif" font-size="10.00" fill="#000000">rwlock.h</text>
</a>
</g>
</g>
<!-- Node4&#45;&gt;Node6 -->
<g id="edge3" class="edge">
<title>Node4&#45;&gt;Node6</title>
<path fill="none" stroke="#191970" d="M153.0064,-50.2097C139.3071,-40.3743 122.1264,-28.0394 110.4309,-19.6427"/>
<polygon fill="#191970" stroke="#191970" points="151.2489,-53.2566 161.4134,-56.2455 155.3314,-47.5703 151.2489,-53.2566"/>
</g>
<!-- Node7 -->
<g id="node5" class="node">
<title>Node7</title>
<g id="a_node5"><a xlink:href="abi-default_2ticketlock_8h.html" target="_top" xlink:title="ODP ticketlock. ">
<polygon fill="#ffffff" stroke="#000000" points="141.5,-.5 141.5,-19.5 208.5,-19.5 208.5,-.5 141.5,-.5"/>
<text text-anchor="middle" x="175" y="-7.5" font-family="Helvetica,sans-Serif" font-size="10.00" fill="#000000">ticketlock.h</text>
</a>
</g>
</g>
<!-- Node4&#45;&gt;Node7 -->
<g id="edge4" class="edge">
<title>Node4&#45;&gt;Node7</title>
<path fill="none" stroke="#191970" d="M175,-46.1575C175,-37.155 175,-26.9199 175,-19.6427"/>
<polygon fill="#191970" stroke="#191970" points="171.5001,-46.2455 175,-56.2455 178.5001,-46.2456 171.5001,-46.2455"/>
</g>
<!-- Node8 -->
<g id="node6" class="node">
<title>Node8</title>
<g id="a_node6"><a xlink:href="barrier_8h.html" target="_top" xlink:title="ODP execution barriers. ">
<polygon fill="#ffffff" stroke="#000000" points="227,-.5 227,-19.5 279,-19.5 279,-.5 227,-.5"/>
<text text-anchor="middle" x="253" y="-7.5" font-family="Helvetica,sans-Serif" font-size="10.00" fill="#000000">barrier.h</text>
</a>
</g>
</g>
<!-- Node4&#45;&gt;Node8 -->
<g id="edge5" class="edge">
<title>Node4&#45;&gt;Node8</title>
<path fill="none" stroke="#191970" d="M196.9936,-50.2097C210.6929,-40.3743 227.8736,-28.0394 239.5691,-19.6427"/>
<polygon fill="#191970" stroke="#191970" points="194.6686,-47.5703 188.5866,-56.2455 198.7511,-53.2566 194.6686,-47.5703"/>
</g>
<!-- Node9 -->
<g id="node7" class="node">
<title>Node9</title>
<g id="a_node7"><a xlink:href="ticketlock__inlines_8h_source.html" target="_top" xlink:title="ticketlock_inlines.h">
<polygon fill="#ffffff" stroke="#000000" points="297,-.5 297,-19.5 397,-19.5 397,-.5 297,-.5"/>
<text text-anchor="middle" x="347" y="-7.5" font-family="Helvetica,sans-Serif" font-size="10.00" fill="#000000">ticketlock_inlines.h</text>
</a>
</g>
</g>
<!-- Node4&#45;&gt;Node9 -->
<g id="edge6" class="edge">
<title>Node4&#45;&gt;Node9</title>
<path fill="none" stroke="#191970" d="M212.0053,-53.9518C243.5833,-43.6706 288.3863,-29.0835 317.5696,-19.582"/>
<polygon fill="#191970" stroke="#191970" points="210.6791,-50.7027 202.2539,-57.1266 212.8462,-57.3588 210.6791,-50.7027"/>
</g>
</g>
</svg>
