<?xml version="1.0" encoding="UTF-8" standalone="no"?>
<!DOCTYPE svg PUBLIC "-//W3C//DTD SVG 1.1//EN"
 "http://www.w3.org/Graphics/SVG/1.1/DTD/svg11.dtd">
<!-- Generated by graphviz version 2.40.1 (20161225.0304)
 -->
<!-- Title: schedule_types.h Pages: 1 -->
<svg width="264pt" height="588pt"
 viewBox="0.00 0.00 263.50 588.00" xmlns="http://www.w3.org/2000/svg" xmlns:xlink="http://www.w3.org/1999/xlink">
<g id="graph0" class="graph" transform="scale(1 1) rotate(0) translate(4 584)">
<title>schedule_types.h</title>
<polygon fill="#ffffff" stroke="transparent" points="-4,4 -4,-584 259.5,-584 259.5,4 -4,4"/>
<!-- Node5 -->
<g id="node1" class="node">
<title>Node5</title>
<polygon fill="#bfbfbf" stroke="#000000" points="154.5,-560.5 154.5,-579.5 247.5,-579.5 247.5,-560.5 154.5,-560.5"/>
<text text-anchor="middle" x="201" y="-567.5" font-family="Helvetica,sans-Serif" font-size="10.00" fill="#000000">schedule_types.h</text>
</g>
<!-- Node6 -->
<g id="node2" class="node">
<title>Node6</title>
<g id="a_node2"><a xlink:href="schedule__types_8h.html" target="_top" xlink:title="ODP schedule. ">
<polygon fill="#ffffff" stroke="#000000" points="154.5,-504.5 154.5,-523.5 247.5,-523.5 247.5,-504.5 154.5,-504.5"/>
<text text-anchor="middle" x="201" y="-511.5" font-family="Helvetica,sans-Serif" font-size="10.00" fill="#000000">schedule_types.h</text>
</a>
</g>
</g>
<!-- Node5&#45;&gt;Node6 -->
<g id="edge1" class="edge">
<title>Node5&#45;&gt;Node6</title>
<path fill="none" stroke="#191970" d="M201,-550.1575C201,-541.155 201,-530.9199 201,-523.6427"/>
<polygon fill="#191970" stroke="#191970" points="197.5001,-550.2455 201,-560.2455 204.5001,-550.2456 197.5001,-550.2455"/>
</g>
<!-- Node7 -->
<g id="node3" class="node">
<title>Node7</title>
<g id="a_node3"><a xlink:href="queue__types_8h.html" target="_top" xlink:title="ODP queue types. ">
<polygon fill="#ffffff" stroke="#000000" points="120,-448.5 120,-467.5 200,-467.5 200,-448.5 120,-448.5"/>
<text text-anchor="middle" x="160" y="-455.5" font-family="Helvetica,sans-Serif" font-size="10.00" fill="#000000">queue_types.h</text>
</a>
</g>
</g>
<!-- Node6&#45;&gt;Node7 -->
<g id="edge2" class="edge">
<title>Node6&#45;&gt;Node7</title>
<path fill="none" stroke="#191970" d="M187.7636,-495.9209C180.8789,-486.5176 172.7391,-475.3997 167.0598,-467.6427"/>
<polygon fill="#191970" stroke="#191970" points="185.1269,-498.2445 193.8583,-504.2455 190.7749,-494.1093 185.1269,-498.2445"/>
</g>
<!-- Node19 -->
<g id="node15" class="node">
<title>Node19</title>
<g id="a_node15"><a xlink:href="spec_2schedule_8h.html" target="_top" xlink:title="ODP schedule. ">
<polygon fill="#ffffff" stroke="#000000" points="186,-280.5 186,-299.5 250,-299.5 250,-280.5 186,-280.5"/>
<text text-anchor="middle" x="218" y="-287.5" font-family="Helvetica,sans-Serif" font-size="10.00" fill="#000000">schedule.h</text>
</a>
</g>
</g>
<!-- Node6&#45;&gt;Node19 -->
<g id="edge21" class="edge">
<title>Node6&#45;&gt;Node19</title>
<path fill="none" stroke="#191970" d="M206.4717,-494.609C211.9148,-474.2366 219.8906,-441.1642 223,-412 227.4498,-370.2638 222.0253,-320.1072 219.3389,-299.5223"/>
<polygon fill="#191970" stroke="#191970" points="203.0927,-493.6967 203.8252,-504.2662 209.8438,-495.5468 203.0927,-493.6967"/>
</g>
<!-- Node8 -->
<g id="node4" class="node">
<title>Node8</title>
<g id="a_node4"><a xlink:href="spec_2queue_8h.html" target="_top" xlink:title="ODP queue. ">
<polygon fill="#ffffff" stroke="#000000" points="36.5,-392.5 36.5,-411.5 87.5,-411.5 87.5,-392.5 36.5,-392.5"/>
<text text-anchor="middle" x="62" y="-399.5" font-family="Helvetica,sans-Serif" font-size="10.00" fill="#000000">queue.h</text>
</a>
</g>
</g>
<!-- Node7&#45;&gt;Node8 -->
<g id="edge3" class="edge">
<title>Node7&#45;&gt;Node8</title>
<path fill="none" stroke="#191970" d="M133.8314,-443.0465C116.3942,-433.0824 93.9889,-420.2794 78.8747,-411.6427"/>
<polygon fill="#191970" stroke="#191970" points="132.5108,-446.323 142.9297,-448.2455 135.9838,-440.2453 132.5108,-446.323"/>
</g>
<!-- Node21 -->
<g id="node17" class="node">
<title>Node21</title>
<g id="a_node17"><a xlink:href="queue__inline__types_8h_source.html" target="_top" xlink:title="queue_inline_types.h">
<polygon fill="#ffffff" stroke="#000000" points="106,-392.5 106,-411.5 214,-411.5 214,-392.5 106,-392.5"/>
<text text-anchor="middle" x="160" y="-399.5" font-family="Helvetica,sans-Serif" font-size="10.00" fill="#000000">queue_inline_types.h</text>
</a>
</g>
</g>
<!-- Node7&#45;&gt;Node21 -->
<g id="edge19" class="edge">
<title>Node7&#45;&gt;Node21</title>
<path fill="none" stroke="#191970" d="M160,-438.1575C160,-429.155 160,-418.9199 160,-411.6427"/>
<polygon fill="#191970" stroke="#191970" points="156.5001,-438.2455 160,-448.2455 163.5001,-438.2456 156.5001,-438.2455"/>
</g>
<!-- Node9 -->
<g id="node5" class="node">
<title>Node9</title>
<g id="a_node5"><a xlink:href="queue_8h.html" target="_top" xlink:title="ODP queue. ">
<polygon fill="#ffffff" stroke="#000000" points="42.5,-336.5 42.5,-355.5 93.5,-355.5 93.5,-336.5 42.5,-336.5"/>
<text text-anchor="middle" x="68" y="-343.5" font-family="Helvetica,sans-Serif" font-size="10.00" fill="#000000">queue.h</text>
</a>
</g>
</g>
<!-- Node8&#45;&gt;Node9 -->
<g id="edge4" class="edge">
<title>Node8&#45;&gt;Node9</title>
<path fill="none" stroke="#191970" d="M64.126,-382.1575C65.0905,-373.155 66.1872,-362.9199 66.9669,-355.6427"/>
<polygon fill="#191970" stroke="#191970" points="60.6305,-381.9296 63.0451,-392.2455 67.5906,-382.6753 60.6305,-381.9296"/>
</g>
<!-- Node10 -->
<g id="node6" class="node">
<title>Node10</title>
<g id="a_node6"><a xlink:href="crypto_8h.html" target="_top" xlink:title="ODP crypto. ">
<polygon fill="#ffffff" stroke="#000000" points="0,-224.5 0,-243.5 52,-243.5 52,-224.5 0,-224.5"/>
<text text-anchor="middle" x="26" y="-231.5" font-family="Helvetica,sans-Serif" font-size="10.00" fill="#000000">crypto.h</text>
</a>
</g>
</g>
<!-- Node9&#45;&gt;Node10 -->
<g id="edge5" class="edge">
<title>Node9&#45;&gt;Node10</title>
<path fill="none" stroke="#191970" d="M60.847,-326.9253C51.7731,-302.7284 36.4766,-261.9376 29.5718,-243.5249"/>
<polygon fill="#191970" stroke="#191970" points="57.6307,-328.3166 64.4191,-336.4509 64.185,-325.8587 57.6307,-328.3166"/>
</g>
<!-- Node13 -->
<g id="node9" class="node">
<title>Node13</title>
<g id="a_node9"><a xlink:href="spec_2packet__io_8h.html" target="_top" xlink:title="ODP Packet IO. ">
<polygon fill="#ffffff" stroke="#000000" points="69.5,-280.5 69.5,-299.5 136.5,-299.5 136.5,-280.5 69.5,-280.5"/>
<text text-anchor="middle" x="103" y="-287.5" font-family="Helvetica,sans-Serif" font-size="10.00" fill="#000000">packet_io.h</text>
</a>
</g>
</g>
<!-- Node9&#45;&gt;Node13 -->
<g id="edge8" class="edge">
<title>Node9&#45;&gt;Node13</title>
<path fill="none" stroke="#191970" d="M79.4815,-327.6296C85.3196,-318.2887 92.1752,-307.3197 96.9733,-299.6427"/>
<polygon fill="#191970" stroke="#191970" points="76.4286,-325.9105 74.0965,-336.2455 82.3646,-329.6206 76.4286,-325.9105"/>
</g>
<!-- Node9&#45;&gt;Node19 -->
<g id="edge17" class="edge">
<title>Node9&#45;&gt;Node19</title>
<path fill="none" stroke="#191970" d="M103.3871,-332.7888C130.7753,-322.5639 168.0479,-308.6488 192.5506,-299.5011"/>
<polygon fill="#191970" stroke="#191970" points="101.9302,-329.5967 93.7859,-336.3733 104.3785,-336.1546 101.9302,-329.5967"/>
</g>
<!-- Node11 -->
<g id="node7" class="node">
<title>Node11</title>
<g id="a_node7"><a xlink:href="spec_2ipsec_8h.html" target="_top" xlink:title="ODP IPSEC API. ">
<polygon fill="#ffffff" stroke="#000000" points="60,-56.5 60,-75.5 108,-75.5 108,-56.5 60,-56.5"/>
<text text-anchor="middle" x="84" y="-63.5" font-family="Helvetica,sans-Serif" font-size="10.00" fill="#000000">ipsec.h</text>
</a>
</g>
</g>
<!-- Node10&#45;&gt;Node11 -->
<g id="edge6" class="edge">
<title>Node10&#45;&gt;Node11</title>
<path fill="none" stroke="#191970" d="M30.4179,-214.4944C36.2095,-190.0997 47.265,-147.2535 61,-112 66.0565,-99.0214 73.4912,-84.7789 78.528,-75.6324"/>
<polygon fill="#191970" stroke="#191970" points="26.9912,-213.7781 28.1366,-224.3108 33.8095,-215.3627 26.9912,-213.7781"/>
</g>
<!-- Node12 -->
<g id="node8" class="node">
<title>Node12</title>
<g id="a_node8"><a xlink:href="ipsec_8h.html" target="_top" xlink:title="ODP IPSEC API &#45; platform specific header. ">
<polygon fill="#ffffff" stroke="#000000" points="60,-.5 60,-19.5 108,-19.5 108,-.5 60,-.5"/>
<text text-anchor="middle" x="84" y="-7.5" font-family="Helvetica,sans-Serif" font-size="10.00" fill="#000000">ipsec.h</text>
</a>
</g>
</g>
<!-- Node11&#45;&gt;Node12 -->
<g id="edge7" class="edge">
<title>Node11&#45;&gt;Node12</title>
<path fill="none" stroke="#191970" d="M84,-46.1575C84,-37.155 84,-26.9199 84,-19.6427"/>
<polygon fill="#191970" stroke="#191970" points="80.5001,-46.2455 84,-56.2455 87.5001,-46.2456 80.5001,-46.2455"/>
</g>
<!-- Node14 -->
<g id="node10" class="node">
<title>Node14</title>
<g id="a_node10"><a xlink:href="packet__io_8h.html" target="_top" xlink:title="ODP Packet IO. ">
<polygon fill="#ffffff" stroke="#000000" points="77.5,-224.5 77.5,-243.5 144.5,-243.5 144.5,-224.5 77.5,-224.5"/>
<text text-anchor="middle" x="111" y="-231.5" font-family="Helvetica,sans-Serif" font-size="10.00" fill="#000000">packet_io.h</text>
</a>
</g>
</g>
<!-- Node13&#45;&gt;Node14 -->
<g id="edge9" class="edge">
<title>Node13&#45;&gt;Node14</title>
<path fill="none" stroke="#191970" d="M105.8346,-270.1575C107.1207,-261.155 108.5829,-250.9199 109.6225,-243.6427"/>
<polygon fill="#191970" stroke="#191970" points="102.343,-269.851 104.3935,-280.2455 109.2726,-270.8411 102.343,-269.851"/>
</g>
<!-- Node14&#45;&gt;Node11 -->
<g id="edge13" class="edge">
<title>Node14&#45;&gt;Node11</title>
<path fill="none" stroke="#191970" d="M90.2749,-217.4619C81.9902,-209.537 73.3858,-199.308 69,-188 53.6439,-148.4069 71.2257,-96.6486 79.8164,-75.5628"/>
<polygon fill="#191970" stroke="#191970" points="88.1756,-220.279 97.972,-224.3141 92.8301,-215.0506 88.1756,-220.279"/>
</g>
<!-- Node15 -->
<g id="node11" class="node">
<title>Node15</title>
<g id="a_node11"><a xlink:href="spec_2classification_8h.html" target="_top" xlink:title="ODP classification descriptor. ">
<polygon fill="#ffffff" stroke="#000000" points="78,-168.5 78,-187.5 160,-187.5 160,-168.5 78,-168.5"/>
<text text-anchor="middle" x="119" y="-175.5" font-family="Helvetica,sans-Serif" font-size="10.00" fill="#000000">classification.h</text>
</a>
</g>
</g>
<!-- Node14&#45;&gt;Node15 -->
<g id="edge10" class="edge">
<title>Node14&#45;&gt;Node15</title>
<path fill="none" stroke="#191970" d="M113.8346,-214.1575C115.1207,-205.155 116.5829,-194.9199 117.6225,-187.6427"/>
<polygon fill="#191970" stroke="#191970" points="110.343,-213.851 112.3935,-224.2455 117.2726,-214.8411 110.343,-213.851"/>
</g>
<!-- Node17 -->
<g id="node13" class="node">
<title>Node17</title>
<g id="a_node13"><a xlink:href="spec_2traffic__mngr_8h.html" target="_top" xlink:title="Copyright (c) 2015&#45;2018, Linaro Limited All rights reserved. ">
<polygon fill="#ffffff" stroke="#000000" points="178.5,-168.5 178.5,-187.5 255.5,-187.5 255.5,-168.5 178.5,-168.5"/>
<text text-anchor="middle" x="217" y="-175.5" font-family="Helvetica,sans-Serif" font-size="10.00" fill="#000000">traffic_mngr.h</text>
</a>
</g>
</g>
<!-- Node14&#45;&gt;Node17 -->
<g id="edge14" class="edge">
<title>Node14&#45;&gt;Node17</title>
<path fill="none" stroke="#191970" d="M138.5222,-219.46C157.4908,-209.4388 182.1727,-196.3993 198.7478,-187.6427"/>
<polygon fill="#191970" stroke="#191970" points="136.6708,-216.4796 129.4638,-224.2455 139.9407,-222.669 136.6708,-216.4796"/>
</g>
<!-- Node16 -->
<g id="node12" class="node">
<title>Node16</title>
<g id="a_node12"><a xlink:href="classification_8h.html" target="_top" xlink:title="ODP classification descriptor. ">
<polygon fill="#ffffff" stroke="#000000" points="78,-112.5 78,-131.5 160,-131.5 160,-112.5 78,-112.5"/>
<text text-anchor="middle" x="119" y="-119.5" font-family="Helvetica,sans-Serif" font-size="10.00" fill="#000000">classification.h</text>
</a>
</g>
</g>
<!-- Node15&#45;&gt;Node16 -->
<g id="edge11" class="edge">
<title>Node15&#45;&gt;Node16</title>
<path fill="none" stroke="#191970" d="M119,-158.1575C119,-149.155 119,-138.9199 119,-131.6427"/>
<polygon fill="#191970" stroke="#191970" points="115.5001,-158.2455 119,-168.2455 122.5001,-158.2456 115.5001,-158.2455"/>
</g>
<!-- Node16&#45;&gt;Node11 -->
<g id="edge12" class="edge">
<title>Node16&#45;&gt;Node11</title>
<path fill="none" stroke="#191970" d="M107.5185,-103.6296C101.6804,-94.2887 94.8248,-83.3197 90.0267,-75.6427"/>
<polygon fill="#191970" stroke="#191970" points="104.6354,-105.6206 112.9035,-112.2455 110.5714,-101.9105 104.6354,-105.6206"/>
</g>
<!-- Node18 -->
<g id="node14" class="node">
<title>Node18</title>
<g id="a_node14"><a xlink:href="traffic__mngr_8h.html" target="_top" xlink:title="ODP Traffic manager. ">
<polygon fill="#ffffff" stroke="#000000" points="178.5,-112.5 178.5,-131.5 255.5,-131.5 255.5,-112.5 178.5,-112.5"/>
<text text-anchor="middle" x="217" y="-119.5" font-family="Helvetica,sans-Serif" font-size="10.00" fill="#000000">traffic_mngr.h</text>
</a>
</g>
</g>
<!-- Node17&#45;&gt;Node18 -->
<g id="edge15" class="edge">
<title>Node17&#45;&gt;Node18</title>
<path fill="none" stroke="#191970" d="M217,-158.1575C217,-149.155 217,-138.9199 217,-131.6427"/>
<polygon fill="#191970" stroke="#191970" points="213.5001,-158.2455 217,-168.2455 220.5001,-158.2456 213.5001,-158.2455"/>
</g>
<!-- Node18&#45;&gt;Node11 -->
<g id="edge16" class="edge">
<title>Node18&#45;&gt;Node11</title>
<path fill="none" stroke="#191970" d="M184.6603,-108.3833C160.4715,-98.1985 128.005,-84.5284 106.5652,-75.5011"/>
<polygon fill="#191970" stroke="#191970" points="183.5619,-111.7184 194.1365,-112.3733 186.2783,-105.2669 183.5619,-111.7184"/>
</g>
<!-- Node20 -->
<g id="node16" class="node">
<title>Node20</title>
<g id="a_node16"><a xlink:href="schedule_8h.html" target="_top" xlink:title="ODP schedule. ">
<polygon fill="#ffffff" stroke="#000000" points="186,-224.5 186,-243.5 250,-243.5 250,-224.5 186,-224.5"/>
<text text-anchor="middle" x="218" y="-231.5" font-family="Helvetica,sans-Serif" font-size="10.00" fill="#000000">schedule.h</text>
</a>
</g>
</g>
<!-- Node19&#45;&gt;Node20 -->
<g id="edge18" class="edge">
<title>Node19&#45;&gt;Node20</title>
<path fill="none" stroke="#191970" d="M218,-270.1575C218,-261.155 218,-250.9199 218,-243.6427"/>
<polygon fill="#191970" stroke="#191970" points="214.5001,-270.2455 218,-280.2455 221.5001,-270.2456 214.5001,-270.2455"/>
</g>
<!-- Node22 -->
<g id="node18" class="node">
<title>Node22</title>
<g id="a_node18"><a xlink:href="queue__inlines_8h_source.html" target="_top" xlink:title="queue_inlines.h">
<polygon fill="#ffffff" stroke="#000000" points="118,-336.5 118,-355.5 202,-355.5 202,-336.5 118,-336.5"/>
<text text-anchor="middle" x="160" y="-343.5" font-family="Helvetica,sans-Serif" font-size="10.00" fill="#000000">queue_inlines.h</text>
</a>
</g>
</g>
<!-- Node21&#45;&gt;Node22 -->
<g id="edge20" class="edge">
<title>Node21&#45;&gt;Node22</title>
<path fill="none" stroke="#191970" d="M160,-382.1575C160,-373.155 160,-362.9199 160,-355.6427"/>
<polygon fill="#191970" stroke="#191970" points="156.5001,-382.2455 160,-392.2455 163.5001,-382.2456 156.5001,-382.2455"/>
</g>
</g>
</svg>
