<?xml version="1.0" encoding="UTF-8" standalone="no"?>
<!DOCTYPE svg PUBLIC "-//W3C//DTD SVG 1.1//EN"
 "http://www.w3.org/Graphics/SVG/1.1/DTD/svg11.dtd">
<!-- Generated by graphviz version 2.40.1 (20161225.0304)
 -->
<!-- Title: std_types.h Pages: 1 -->
<svg width="2369pt" height="420pt"
 viewBox="0.00 0.00 2368.50 420.00" xmlns="http://www.w3.org/2000/svg" xmlns:xlink="http://www.w3.org/1999/xlink">
<g id="graph0" class="graph" transform="scale(1 1) rotate(0) translate(4 416)">
<title>std_types.h</title>
<polygon fill="#ffffff" stroke="transparent" points="-4,4 -4,-416 2364.5,-416 2364.5,4 -4,4"/>
<!-- Node7 -->
<g id="node1" class="node">
<title>Node7</title>
<polygon fill="#bfbfbf" stroke="#000000" points="1222,-392.5 1222,-411.5 1290,-411.5 1290,-392.5 1222,-392.5"/>
<text text-anchor="middle" x="1256" y="-399.5" font-family="Helvetica,sans-Serif" font-size="10.00" fill="#000000">std_types.h</text>
</g>
<!-- Node8 -->
<g id="node2" class="node">
<title>Node8</title>
<g id="a_node2"><a xlink:href="std__types_8h.html" target="_top" xlink:title="Standard C language types and definitions for ODP. ">
<polygon fill="#ffffff" stroke="#000000" points="1222,-336.5 1222,-355.5 1290,-355.5 1290,-336.5 1222,-336.5"/>
<text text-anchor="middle" x="1256" y="-343.5" font-family="Helvetica,sans-Serif" font-size="10.00" fill="#000000">std_types.h</text>
</a>
</g>
</g>
<!-- Node7&#45;&gt;Node8 -->
<g id="edge1" class="edge">
<title>Node7&#45;&gt;Node8</title>
<path fill="none" stroke="#191970" d="M1256,-382.1575C1256,-373.155 1256,-362.9199 1256,-355.6427"/>
<polygon fill="#191970" stroke="#191970" points="1252.5001,-382.2455 1256,-392.2455 1259.5001,-382.2456 1252.5001,-382.2455"/>
</g>
<!-- Node9 -->
<g id="node3" class="node">
<title>Node9</title>
<g id="a_node3"><a xlink:href="abi-default_2atomic_8h.html" target="_top" xlink:title="ODP atomic operations. ">
<polygon fill="#ffffff" stroke="#000000" points="0,-280.5 0,-299.5 54,-299.5 54,-280.5 0,-280.5"/>
<text text-anchor="middle" x="27" y="-287.5" font-family="Helvetica,sans-Serif" font-size="10.00" fill="#000000">atomic.h</text>
</a>
</g>
</g>
<!-- Node8&#45;&gt;Node9 -->
<g id="edge2" class="edge">
<title>Node8&#45;&gt;Node9</title>
<path fill="none" stroke="#191970" d="M1211.8719,-345.6697C1024.1088,-344.0534 290.8785,-335.5468 63,-300 60.18,-299.5601 57.2659,-298.976 54.3733,-298.3103"/>
<polygon fill="#191970" stroke="#191970" points="1211.9001,-349.17 1221.9292,-345.7542 1211.959,-342.1702 1211.9001,-349.17"/>
</g>
<!-- Node10 -->
<g id="node4" class="node">
<title>Node10</title>
<g id="a_node4"><a xlink:href="abi-default_2barrier_8h.html" target="_top" xlink:title="ODP barrier. ">
<polygon fill="#ffffff" stroke="#000000" points="72,-280.5 72,-299.5 124,-299.5 124,-280.5 72,-280.5"/>
<text text-anchor="middle" x="98" y="-287.5" font-family="Helvetica,sans-Serif" font-size="10.00" fill="#000000">barrier.h</text>
</a>
</g>
</g>
<!-- Node8&#45;&gt;Node10 -->
<g id="edge3" class="edge">
<title>Node8&#45;&gt;Node10</title>
<path fill="none" stroke="#191970" d="M1211.5447,-345.5862C1030.2346,-343.6815 346.2046,-334.3236 133,-300 130.13,-299.538 127.1613,-298.9191 124.2221,-298.2147"/>
<polygon fill="#191970" stroke="#191970" points="1211.7384,-349.0883 1221.7738,-345.6913 1211.8104,-342.0887 1211.7384,-349.0883"/>
</g>
<!-- Node11 -->
<g id="node5" class="node">
<title>Node11</title>
<g id="a_node5"><a xlink:href="abi-default_2byteorder_8h.html" target="_top" xlink:title="ODP byteorder. ">
<polygon fill="#ffffff" stroke="#000000" points="142.5,-280.5 142.5,-299.5 207.5,-299.5 207.5,-280.5 142.5,-280.5"/>
<text text-anchor="middle" x="175" y="-287.5" font-family="Helvetica,sans-Serif" font-size="10.00" fill="#000000">byteorder.h</text>
</a>
</g>
</g>
<!-- Node8&#45;&gt;Node11 -->
<g id="edge4" class="edge">
<title>Node8&#45;&gt;Node11</title>
<path fill="none" stroke="#191970" d="M1211.5165,-345.188C1038.8275,-341.8566 412.7192,-328.0666 216,-300 213.2438,-299.6068 210.4024,-299.1099 207.5619,-298.5489"/>
<polygon fill="#191970" stroke="#191970" points="1211.6939,-348.6919 1221.7589,-345.3835 1211.8276,-341.6932 1211.6939,-348.6919"/>
</g>
<!-- Node12 -->
<g id="node6" class="node">
<title>Node12</title>
<g id="a_node6"><a xlink:href="abi-default_2cpumask_8h.html" target="_top" xlink:title="ODP CPU masks and enumeration. ">
<polygon fill="#ffffff" stroke="#000000" points="225.5,-280.5 225.5,-299.5 290.5,-299.5 290.5,-280.5 225.5,-280.5"/>
<text text-anchor="middle" x="258" y="-287.5" font-family="Helvetica,sans-Serif" font-size="10.00" fill="#000000">cpumask.h</text>
</a>
</g>
</g>
<!-- Node8&#45;&gt;Node12 -->
<g id="edge5" class="edge">
<title>Node8&#45;&gt;Node12</title>
<path fill="none" stroke="#191970" d="M1211.3861,-344.9533C1047.5762,-340.9387 479.4958,-325.4618 300,-300 297.0315,-299.5789 293.9653,-299.0453 290.9044,-298.4445"/>
<polygon fill="#191970" stroke="#191970" points="1211.5008,-348.457 1221.5829,-345.2011 1211.6709,-341.459 1211.5008,-348.457"/>
</g>
<!-- Node13 -->
<g id="node7" class="node">
<title>Node13</title>
<g id="a_node7"><a xlink:href="abi-default_2init_8h.html" target="_top" xlink:title="ODP initialization. ">
<polygon fill="#ffffff" stroke="#000000" points="309,-280.5 309,-299.5 347,-299.5 347,-280.5 309,-280.5"/>
<text text-anchor="middle" x="328" y="-287.5" font-family="Helvetica,sans-Serif" font-size="10.00" fill="#000000">init.h</text>
</a>
</g>
</g>
<!-- Node8&#45;&gt;Node13 -->
<g id="edge6" class="edge">
<title>Node8&#45;&gt;Node13</title>
<path fill="none" stroke="#191970" d="M1211.3213,-345.4368C1053.4565,-343.1789 522.4782,-333.235 356,-300 353.0641,-299.4139 350.0212,-298.58 347.0706,-297.6408"/>
<polygon fill="#191970" stroke="#191970" points="1211.5552,-348.9403 1221.6032,-345.5804 1211.6531,-341.941 1211.5552,-348.9403"/>
</g>
<!-- Node14 -->
<g id="node8" class="node">
<title>Node14</title>
<g id="a_node8"><a xlink:href="abi-default_2ipsec_8h.html" target="_top" xlink:title="ODP IPSEC API &#45; platform specific types. ">
<polygon fill="#ffffff" stroke="#000000" points="365,-280.5 365,-299.5 413,-299.5 413,-280.5 365,-280.5"/>
<text text-anchor="middle" x="389" y="-287.5" font-family="Helvetica,sans-Serif" font-size="10.00" fill="#000000">ipsec.h</text>
</a>
</g>
</g>
<!-- Node8&#45;&gt;Node14 -->
<g id="edge7" class="edge">
<title>Node8&#45;&gt;Node14</title>
<path fill="none" stroke="#191970" d="M1211.6962,-344.9532C1062.0205,-341.198 575.9271,-327.1628 422,-300 419.1702,-299.5006 416.2415,-298.837 413.3503,-298.0882"/>
<polygon fill="#191970" stroke="#191970" points="1211.7985,-348.4567 1221.8822,-345.2058 1211.9721,-341.4588 1211.7985,-348.4567"/>
</g>
<!-- Node15 -->
<g id="node9" class="node">
<title>Node15</title>
<g id="a_node9"><a xlink:href="abi-default_2packet__io_8h.html" target="_top" xlink:title="ODP Packet IO. ">
<polygon fill="#ffffff" stroke="#000000" points="431.5,-280.5 431.5,-299.5 498.5,-299.5 498.5,-280.5 431.5,-280.5"/>
<text text-anchor="middle" x="465" y="-287.5" font-family="Helvetica,sans-Serif" font-size="10.00" fill="#000000">packet_io.h</text>
</a>
</g>
</g>
<!-- Node8&#45;&gt;Node15 -->
<g id="edge8" class="edge">
<title>Node8&#45;&gt;Node15</title>
<path fill="none" stroke="#191970" d="M1211.2894,-344.2328C1071.6911,-338.5604 645.0793,-320.0111 508,-300 504.9664,-299.5571 501.8309,-299.0085 498.6996,-298.398"/>
<polygon fill="#191970" stroke="#191970" points="1211.4721,-347.743 1221.6053,-344.6498 1211.7549,-340.7487 1211.4721,-347.743"/>
</g>
<!-- Node16 -->
<g id="node10" class="node">
<title>Node16</title>
<g id="a_node10"><a xlink:href="abi-default_2rwlock__recursive_8h.html" target="_top" xlink:title="ODP recursive read/write lock. ">
<polygon fill="#ffffff" stroke="#000000" points="517,-280.5 517,-299.5 615,-299.5 615,-280.5 517,-280.5"/>
<text text-anchor="middle" x="566" y="-287.5" font-family="Helvetica,sans-Serif" font-size="10.00" fill="#000000">rwlock_recursive.h</text>
</a>
</g>
</g>
<!-- Node8&#45;&gt;Node16 -->
<g id="edge9" class="edge">
<title>Node8&#45;&gt;Node16</title>
<path fill="none" stroke="#191970" d="M1211.9298,-344.2815C1108.804,-339.9355 843.856,-326.8885 624,-300 621.1601,-299.6527 618.2476,-299.2617 615.3123,-298.8408"/>
<polygon fill="#191970" stroke="#191970" points="1211.8372,-347.7806 1221.9739,-344.6987 1212.1278,-340.7866 1211.8372,-347.7806"/>
</g>
<!-- Node17 -->
<g id="node11" class="node">
<title>Node17</title>
<g id="a_node11"><a xlink:href="abi-default_2schedule_8h.html" target="_top" xlink:title="ODP schedule. ">
<polygon fill="#ffffff" stroke="#000000" points="633,-280.5 633,-299.5 697,-299.5 697,-280.5 633,-280.5"/>
<text text-anchor="middle" x="665" y="-287.5" font-family="Helvetica,sans-Serif" font-size="10.00" fill="#000000">schedule.h</text>
</a>
</g>
</g>
<!-- Node8&#45;&gt;Node17 -->
<g id="edge10" class="edge">
<title>Node8&#45;&gt;Node17</title>
<path fill="none" stroke="#191970" d="M1211.7301,-344.636C1117.924,-341.2339 892.4566,-330.3461 706,-300 703.1074,-299.5292 700.1177,-298.9614 697.132,-298.3384"/>
<polygon fill="#191970" stroke="#191970" points="1211.8624,-348.1427 1221.9794,-344.9966 1212.1087,-341.147 1211.8624,-348.1427"/>
</g>
<!-- Node18 -->
<g id="node12" class="node">
<title>Node18</title>
<g id="a_node12"><a xlink:href="abi-default_2spinlock__recursive_8h.html" target="_top" xlink:title="ODP recursive spinlock. ">
<polygon fill="#ffffff" stroke="#000000" points="715,-280.5 715,-299.5 821,-299.5 821,-280.5 715,-280.5"/>
<text text-anchor="middle" x="768" y="-287.5" font-family="Helvetica,sans-Serif" font-size="10.00" fill="#000000">spinlock_recursive.h</text>
</a>
</g>
</g>
<!-- Node8&#45;&gt;Node18 -->
<g id="edge11" class="edge">
<title>Node8&#45;&gt;Node18</title>
<path fill="none" stroke="#191970" d="M1211.6159,-341.9793C1134.0587,-334.7812 968.888,-318.6863 830,-300 827.0825,-299.6075 824.0907,-299.1865 821.0728,-298.7475"/>
<polygon fill="#191970" stroke="#191970" points="1211.6867,-345.5006 1221.9662,-342.9353 1212.3305,-338.5303 1211.6867,-345.5006"/>
</g>
<!-- Node19 -->
<g id="node13" class="node">
<title>Node19</title>
<g id="a_node13"><a xlink:href="abi-default_2traffic__mngr_8h.html" target="_top" xlink:title="ODP traffic mngr. ">
<polygon fill="#ffffff" stroke="#000000" points="839.5,-280.5 839.5,-299.5 916.5,-299.5 916.5,-280.5 839.5,-280.5"/>
<text text-anchor="middle" x="878" y="-287.5" font-family="Helvetica,sans-Serif" font-size="10.00" fill="#000000">traffic_mngr.h</text>
</a>
</g>
</g>
<!-- Node8&#45;&gt;Node19 -->
<g id="edge12" class="edge">
<title>Node8&#45;&gt;Node19</title>
<path fill="none" stroke="#191970" d="M1211.6142,-340.7703C1148.1149,-333.0714 1027.7657,-317.673 926,-300 922.9808,-299.4757 919.8615,-298.9011 916.73,-298.3007"/>
<polygon fill="#191970" stroke="#191970" points="1211.3306,-344.2613 1221.6777,-341.9835 1212.1686,-337.3117 1211.3306,-344.2613"/>
</g>
<!-- Node20 -->
<g id="node14" class="node">
<title>Node20</title>
<g id="a_node14"><a xlink:href="barrier_8h.html" target="_top" xlink:title="ODP execution barriers. ">
<polygon fill="#ffffff" stroke="#000000" points="935,-280.5 935,-299.5 987,-299.5 987,-280.5 935,-280.5"/>
<text text-anchor="middle" x="961" y="-287.5" font-family="Helvetica,sans-Serif" font-size="10.00" fill="#000000">barrier.h</text>
</a>
</g>
</g>
<!-- Node8&#45;&gt;Node20 -->
<g id="edge13" class="edge">
<title>Node8&#45;&gt;Node20</title>
<path fill="none" stroke="#191970" d="M1211.4907,-339.5567C1159.4899,-331.699 1071.0095,-317.3025 996,-300 993.1674,-299.3466 990.2227,-298.6051 987.2976,-297.8284"/>
<polygon fill="#191970" stroke="#191970" points="1211.2943,-343.0663 1221.7025,-341.0864 1212.3314,-336.1435 1211.2943,-343.0663"/>
</g>
<!-- Node21 -->
<g id="node15" class="node">
<title>Node21</title>
<g id="a_node15"><a xlink:href="buffer_8h.html" target="_top" xlink:title="ODP buffer descriptor. ">
<polygon fill="#ffffff" stroke="#000000" points="1005,-280.5 1005,-299.5 1055,-299.5 1055,-280.5 1005,-280.5"/>
<text text-anchor="middle" x="1030" y="-287.5" font-family="Helvetica,sans-Serif" font-size="10.00" fill="#000000">buffer.h</text>
</a>
</g>
</g>
<!-- Node8&#45;&gt;Node21 -->
<g id="edge14" class="edge">
<title>Node8&#45;&gt;Node21</title>
<path fill="none" stroke="#191970" d="M1211.6601,-335.2225C1173.7507,-325.977 1117.7564,-312.2473 1069,-300 1064.5257,-298.8761 1059.7662,-297.667 1055.166,-296.4914"/>
<polygon fill="#191970" stroke="#191970" points="1211.3075,-338.7389 1221.8519,-337.7063 1212.965,-331.938 1211.3075,-338.7389"/>
</g>
<!-- Node22 -->
<g id="node16" class="node">
<title>Node22</title>
<g id="a_node16"><a xlink:href="classification_8h.html" target="_top" xlink:title="ODP classification descriptor. ">
<polygon fill="#ffffff" stroke="#000000" points="1125,-56.5 1125,-75.5 1207,-75.5 1207,-56.5 1125,-56.5"/>
<text text-anchor="middle" x="1166" y="-63.5" font-family="Helvetica,sans-Serif" font-size="10.00" fill="#000000">classification.h</text>
</a>
</g>
</g>
<!-- Node8&#45;&gt;Node22 -->
<g id="edge15" class="edge">
<title>Node8&#45;&gt;Node22</title>
<path fill="none" stroke="#191970" d="M1211.8049,-336.5265C1179.2792,-328.7683 1134.4019,-316.4004 1097,-300 1081.2936,-293.1129 1079.8706,-286.4998 1064,-280 999.7547,-253.6885 955.0637,-298.4543 912,-244 845.0303,-159.3164 1038.7678,-98.0953 1125.9188,-75.5303"/>
<polygon fill="#191970" stroke="#191970" points="1211.3724,-340.0195 1221.906,-338.8827 1212.9625,-333.2025 1211.3724,-340.0195"/>
</g>
<!-- Node25 -->
<g id="node18" class="node">
<title>Node25</title>
<g id="a_node18"><a xlink:href="crypto_8h.html" target="_top" xlink:title="ODP crypto. ">
<polygon fill="#ffffff" stroke="#000000" points="1005,-168.5 1005,-187.5 1057,-187.5 1057,-168.5 1005,-168.5"/>
<text text-anchor="middle" x="1031" y="-175.5" font-family="Helvetica,sans-Serif" font-size="10.00" fill="#000000">crypto.h</text>
</a>
</g>
</g>
<!-- Node8&#45;&gt;Node25 -->
<g id="edge17" class="edge">
<title>Node8&#45;&gt;Node25</title>
<path fill="none" stroke="#191970" d="M1221.0784,-332.7578C1197.9391,-323.8351 1166.9889,-311.6162 1140,-300 1120.6399,-291.6673 1117.0167,-286.6013 1097,-280 1021.1752,-254.9938 971.4839,-305.8554 921,-244 894.8076,-211.9078 964.7443,-191.6086 1004.9492,-182.907"/>
<polygon fill="#191970" stroke="#191970" points="1219.8925,-336.0516 1230.4826,-336.3687 1222.4017,-329.5167 1219.8925,-336.0516"/>
</g>
<!-- Node26 -->
<g id="node19" class="node">
<title>Node26</title>
<g id="a_node19"><a xlink:href="packet_8h.html" target="_top" xlink:title="ODP packet descriptor. ">
<polygon fill="#ffffff" stroke="#000000" points="1149,-280.5 1149,-299.5 1203,-299.5 1203,-280.5 1149,-280.5"/>
<text text-anchor="middle" x="1176" y="-287.5" font-family="Helvetica,sans-Serif" font-size="10.00" fill="#000000">packet.h</text>
</a>
</g>
</g>
<!-- Node8&#45;&gt;Node26 -->
<g id="edge19" class="edge">
<title>Node8&#45;&gt;Node26</title>
<path fill="none" stroke="#191970" d="M1233.8429,-330.49C1219.728,-320.6096 1201.8849,-308.1194 1189.7752,-299.6427"/>
<polygon fill="#191970" stroke="#191970" points="1231.8656,-333.3782 1242.0651,-336.2455 1235.8799,-327.6436 1231.8656,-333.3782"/>
</g>
<!-- Node41 -->
<g id="node23" class="node">
<title>Node41</title>
<g id="a_node23"><a xlink:href="spec_2packet__flags_8h.html" target="_top" xlink:title="ODP packet flags. ">
<polygon fill="#ffffff" stroke="#000000" points="1136,-224.5 1136,-243.5 1216,-243.5 1216,-224.5 1136,-224.5"/>
<text text-anchor="middle" x="1176" y="-231.5" font-family="Helvetica,sans-Serif" font-size="10.00" fill="#000000">packet_flags.h</text>
</a>
</g>
</g>
<!-- Node8&#45;&gt;Node41 -->
<g id="edge49" class="edge">
<title>Node8&#45;&gt;Node41</title>
<path fill="none" stroke="#191970" d="M1244.3426,-327.7136C1235.6776,-314.3222 1223.4276,-295.8049 1212,-280 1202.7306,-267.18 1191.3901,-252.9029 1183.9448,-243.705"/>
<polygon fill="#191970" stroke="#191970" points="1241.6044,-329.9266 1249.9555,-336.4466 1247.493,-326.1419 1241.6044,-329.9266"/>
</g>
<!-- Node35 -->
<g id="node26" class="node">
<title>Node35</title>
<g id="a_node26"><a xlink:href="packet__io_8h.html" target="_top" xlink:title="ODP Packet IO. ">
<polygon fill="#ffffff" stroke="#000000" points="1234.5,-168.5 1234.5,-187.5 1301.5,-187.5 1301.5,-168.5 1234.5,-168.5"/>
<text text-anchor="middle" x="1268" y="-175.5" font-family="Helvetica,sans-Serif" font-size="10.00" fill="#000000">packet_io.h</text>
</a>
</g>
</g>
<!-- Node8&#45;&gt;Node35 -->
<g id="edge32" class="edge">
<title>Node8&#45;&gt;Node35</title>
<path fill="none" stroke="#191970" d="M1300.3065,-340.6013C1331.1035,-334.9066 1371.5657,-323.3347 1400,-300 1421.9908,-281.9532 1423.885,-271.5438 1431,-244 1433.2232,-235.3936 1436.3644,-231.0877 1431,-224 1415.4288,-203.4263 1344.6013,-189.4422 1301.5972,-182.6819"/>
<polygon fill="#191970" stroke="#191970" points="1299.5326,-337.1827 1290.2642,-342.3158 1300.7106,-344.0829 1299.5326,-337.1827"/>
</g>
<!-- Node37 -->
<g id="node28" class="node">
<title>Node37</title>
<g id="a_node28"><a xlink:href="spec_2traffic__mngr_8h.html" target="_top" xlink:title="Copyright (c) 2015&#45;2018, Linaro Limited All rights reserved. ">
<polygon fill="#ffffff" stroke="#ff0000" points="1360.5,-112.5 1360.5,-131.5 1437.5,-131.5 1437.5,-112.5 1360.5,-112.5"/>
<text text-anchor="middle" x="1399" y="-119.5" font-family="Helvetica,sans-Serif" font-size="10.00" fill="#000000">traffic_mngr.h</text>
</a>
</g>
</g>
<!-- Node8&#45;&gt;Node37 -->
<g id="edge56" class="edge">
<title>Node8&#45;&gt;Node37</title>
<path fill="none" stroke="#191970" d="M1300.2598,-338.444C1343.5973,-330.2597 1405.7035,-316.1829 1424,-300 1468.0059,-261.0778 1456.1856,-221.0768 1431,-168 1424.5774,-154.4648 1414.3019,-140.5677 1407.1332,-131.6423"/>
<polygon fill="#191970" stroke="#191970" points="1299.4287,-335.0383 1290.231,-340.2969 1300.7005,-341.9218 1299.4287,-335.0383"/>
</g>
<!-- Node33 -->
<g id="node29" class="node">
<title>Node33</title>
<g id="a_node29"><a xlink:href="queue_8h.html" target="_top" xlink:title="ODP queue. ">
<polygon fill="#ffffff" stroke="#000000" points="1321.5,-280.5 1321.5,-299.5 1372.5,-299.5 1372.5,-280.5 1321.5,-280.5"/>
<text text-anchor="middle" x="1347" y="-287.5" font-family="Helvetica,sans-Serif" font-size="10.00" fill="#000000">queue.h</text>
</a>
</g>
</g>
<!-- Node8&#45;&gt;Node33 -->
<g id="edge33" class="edge">
<title>Node8&#45;&gt;Node33</title>
<path fill="none" stroke="#191970" d="M1280.7504,-330.769C1296.8758,-320.8456 1317.426,-308.1994 1331.3307,-299.6427"/>
<polygon fill="#191970" stroke="#191970" points="1278.5332,-328.0237 1271.851,-336.2455 1282.2019,-333.9853 1278.5332,-328.0237"/>
</g>
<!-- Node39 -->
<g id="node30" class="node">
<title>Node39</title>
<g id="a_node30"><a xlink:href="spec_2schedule_8h.html" target="_top" xlink:title="ODP schedule. ">
<polygon fill="#ffffff" stroke="#000000" points="1358,-224.5 1358,-243.5 1422,-243.5 1422,-224.5 1358,-224.5"/>
<text text-anchor="middle" x="1390" y="-231.5" font-family="Helvetica,sans-Serif" font-size="10.00" fill="#000000">schedule.h</text>
</a>
</g>
</g>
<!-- Node8&#45;&gt;Node39 -->
<g id="edge52" class="edge">
<title>Node8&#45;&gt;Node39</title>
<path fill="none" stroke="#191970" d="M1300.0184,-334.9769C1331.6438,-326.1408 1370.4793,-313.0942 1381,-300 1394.0379,-283.773 1393.1907,-257.7358 1391.5386,-243.7064"/>
<polygon fill="#191970" stroke="#191970" points="1298.7773,-331.6873 1290.0487,-337.6925 1300.6171,-338.4413 1298.7773,-331.6873"/>
</g>
<!-- Node43 -->
<g id="node32" class="node">
<title>Node43</title>
<g id="a_node32"><a xlink:href="spec_2chksum_8h.html" target="_top" xlink:title="ODP checksum functions. ">
<polygon fill="#ffffff" stroke="#000000" points="1516.5,-280.5 1516.5,-299.5 1575.5,-299.5 1575.5,-280.5 1516.5,-280.5"/>
<text text-anchor="middle" x="1546" y="-287.5" font-family="Helvetica,sans-Serif" font-size="10.00" fill="#000000">chksum.h</text>
</a>
</g>
</g>
<!-- Node8&#45;&gt;Node43 -->
<g id="edge38" class="edge">
<title>Node8&#45;&gt;Node43</title>
<path fill="none" stroke="#191970" d="M1300.3213,-338.244C1349.6536,-329.4875 1431.6941,-314.557 1502,-300 1506.6026,-299.047 1511.4647,-297.9914 1516.2119,-296.9337"/>
<polygon fill="#191970" stroke="#191970" points="1299.5438,-334.8271 1290.3068,-340.0165 1300.7638,-341.72 1299.5438,-334.8271"/>
</g>
<!-- Node45 -->
<g id="node34" class="node">
<title>Node45</title>
<g id="a_node34"><a xlink:href="spec_2cpu_8h.html" target="_top" xlink:title="ODP CPU API. ">
<polygon fill="#ffffff" stroke="#000000" points="1593.5,-280.5 1593.5,-299.5 1634.5,-299.5 1634.5,-280.5 1593.5,-280.5"/>
<text text-anchor="middle" x="1614" y="-287.5" font-family="Helvetica,sans-Serif" font-size="10.00" fill="#000000">cpu.h</text>
</a>
</g>
</g>
<!-- Node8&#45;&gt;Node45 -->
<g id="edge40" class="edge">
<title>Node8&#45;&gt;Node45</title>
<path fill="none" stroke="#191970" d="M1300.4436,-342.3594C1363.9516,-336.5737 1484.0417,-323.4618 1584,-300 1587.1,-299.2724 1590.3352,-298.3612 1593.4853,-297.3869"/>
<polygon fill="#191970" stroke="#191970" points="1300.0256,-338.8827 1290.3764,-343.2581 1300.6481,-345.855 1300.0256,-338.8827"/>
</g>
<!-- Node48 -->
<g id="node36" class="node">
<title>Node48</title>
<g id="a_node36"><a xlink:href="spec_2feature_8h.html" target="_top" xlink:title="ODP features. ">
<polygon fill="#ffffff" stroke="#000000" points="1652.5,-280.5 1652.5,-299.5 1707.5,-299.5 1707.5,-280.5 1652.5,-280.5"/>
<text text-anchor="middle" x="1680" y="-287.5" font-family="Helvetica,sans-Serif" font-size="10.00" fill="#000000">feature.h</text>
</a>
</g>
</g>
<!-- Node8&#45;&gt;Node48 -->
<g id="edge42" class="edge">
<title>Node8&#45;&gt;Node48</title>
<path fill="none" stroke="#191970" d="M1300.264,-342.8482C1372.499,-337.2338 1520.0116,-323.798 1643,-300 1646.0051,-299.4185 1649.1249,-298.7231 1652.2212,-297.9735"/>
<polygon fill="#191970" stroke="#191970" points="1299.8686,-339.3681 1290.1644,-343.6201 1300.4021,-346.3478 1299.8686,-339.3681"/>
</g>
<!-- Node50 -->
<g id="node38" class="node">
<title>Node50</title>
<g id="a_node38"><a xlink:href="spec_2init_8h.html" target="_top" xlink:title="init.h">
<polygon fill="#ffffff" stroke="#000000" points="1689,-168.5 1689,-187.5 1727,-187.5 1727,-168.5 1689,-168.5"/>
<text text-anchor="middle" x="1708" y="-175.5" font-family="Helvetica,sans-Serif" font-size="10.00" fill="#000000">init.h</text>
</a>
</g>
</g>
<!-- Node8&#45;&gt;Node50 -->
<g id="edge48" class="edge">
<title>Node8&#45;&gt;Node50</title>
<path fill="none" stroke="#191970" d="M1300.3852,-344.8765C1410.3246,-341.6372 1688.4143,-330.4819 1716,-300 1744.7704,-268.209 1723.1566,-210.6286 1712.7581,-187.7514"/>
<polygon fill="#191970" stroke="#191970" points="1300.1806,-341.3808 1290.2849,-345.1657 1300.381,-348.378 1300.1806,-341.3808"/>
</g>
<!-- Node54 -->
<g id="node40" class="node">
<title>Node54</title>
<g id="a_node40"><a xlink:href="spec_2hash_8h.html" target="_top" xlink:title="ODP Hash functions. ">
<polygon fill="#ffffff" stroke="#000000" points="1764,-280.5 1764,-299.5 1810,-299.5 1810,-280.5 1764,-280.5"/>
<text text-anchor="middle" x="1787" y="-287.5" font-family="Helvetica,sans-Serif" font-size="10.00" fill="#000000">hash.h</text>
</a>
</g>
</g>
<!-- Node8&#45;&gt;Node54 -->
<g id="edge46" class="edge">
<title>Node8&#45;&gt;Node54</title>
<path fill="none" stroke="#191970" d="M1300.1298,-344.4232C1386.9189,-340.7656 1585.6615,-329.6342 1750,-300 1754.453,-299.197 1759.1509,-298.1151 1763.6494,-296.959"/>
<polygon fill="#191970" stroke="#191970" points="1299.9591,-340.9272 1290.1105,-344.833 1300.2452,-347.9213 1299.9591,-340.9272"/>
</g>
<!-- Node56 -->
<g id="node42" class="node">
<title>Node56</title>
<g id="a_node42"><a xlink:href="spec_2pool_8h.html" target="_top" xlink:title="ODP pool. ">
<polygon fill="#ffffff" stroke="#000000" points="1828.5,-280.5 1828.5,-299.5 1871.5,-299.5 1871.5,-280.5 1828.5,-280.5"/>
<text text-anchor="middle" x="1850" y="-287.5" font-family="Helvetica,sans-Serif" font-size="10.00" fill="#000000">pool.h</text>
</a>
</g>
</g>
<!-- Node8&#45;&gt;Node56 -->
<g id="edge50" class="edge">
<title>Node8&#45;&gt;Node56</title>
<path fill="none" stroke="#191970" d="M1300.1872,-343.7091C1414.8353,-337.5538 1719.7899,-319.7788 1819,-300 1822.1057,-299.3808 1825.3361,-298.554 1828.4879,-297.6401"/>
<polygon fill="#191970" stroke="#191970" points="1299.8177,-340.2237 1290.0183,-344.2513 1300.1905,-347.2138 1299.8177,-340.2237"/>
</g>
<!-- Node59 -->
<g id="node44" class="node">
<title>Node59</title>
<g id="a_node44"><a xlink:href="spec_2stash_8h.html" target="_top" xlink:title="ODP stash. ">
<polygon fill="#ffffff" stroke="#ff0000" points="1889.5,-280.5 1889.5,-299.5 1938.5,-299.5 1938.5,-280.5 1889.5,-280.5"/>
<text text-anchor="middle" x="1914" y="-287.5" font-family="Helvetica,sans-Serif" font-size="10.00" fill="#000000">stash.h</text>
</a>
</g>
</g>
<!-- Node8&#45;&gt;Node59 -->
<g id="edge53" class="edge">
<title>Node8&#45;&gt;Node59</title>
<path fill="none" stroke="#191970" d="M1300.3187,-344.0123C1423.6752,-338.2772 1769.2672,-320.7768 1881,-300 1883.7074,-299.4966 1886.5072,-298.8512 1889.279,-298.1311"/>
<polygon fill="#191970" stroke="#191970" points="1299.9383,-340.5261 1290.1103,-344.4836 1300.2611,-347.5186 1299.9383,-340.5261"/>
</g>
<!-- Node61 -->
<g id="node45" class="node">
<title>Node61</title>
<g id="a_node45"><a xlink:href="spec_2threshold_8h.html" target="_top" xlink:title="ODP threshold descriptor. ">
<polygon fill="#ffffff" stroke="#ff0000" points="1956.5,-280.5 1956.5,-299.5 2021.5,-299.5 2021.5,-280.5 1956.5,-280.5"/>
<text text-anchor="middle" x="1989" y="-287.5" font-family="Helvetica,sans-Serif" font-size="10.00" fill="#000000">threshold.h</text>
</a>
</g>
</g>
<!-- Node8&#45;&gt;Node61 -->
<g id="edge54" class="edge">
<title>Node8&#45;&gt;Node61</title>
<path fill="none" stroke="#191970" d="M1300.4674,-344.0515C1432.7359,-338.0962 1822.2882,-319.3602 1948,-300 1950.7517,-299.5762 1953.5899,-299.0579 1956.4282,-298.4825"/>
<polygon fill="#191970" stroke="#191970" points="1300.1312,-340.563 1290.2979,-344.507 1300.4445,-347.5559 1300.1312,-340.563"/>
</g>
<!-- Node63 -->
<g id="node46" class="node">
<title>Node63</title>
<g id="a_node46"><a xlink:href="spec_2thrmask_8h.html" target="_top" xlink:title="ODP thread masks. ">
<polygon fill="#ffffff" stroke="#ff0000" points="2040,-280.5 2040,-299.5 2100,-299.5 2100,-280.5 2040,-280.5"/>
<text text-anchor="middle" x="2070" y="-287.5" font-family="Helvetica,sans-Serif" font-size="10.00" fill="#000000">thrmask.h</text>
</a>
</g>
</g>
<!-- Node8&#45;&gt;Node63 -->
<g id="edge55" class="edge">
<title>Node8&#45;&gt;Node63</title>
<path fill="none" stroke="#191970" d="M1300.4357,-344.4841C1443.1108,-339.4403 1888.5802,-322.2746 2031,-300 2033.9005,-299.5464 2036.899,-298.9724 2039.8853,-298.3298"/>
<polygon fill="#191970" stroke="#191970" points="1300.1737,-340.991 1290.3027,-344.8398 1300.4194,-347.9867 1300.1737,-340.991"/>
</g>
<!-- Node65 -->
<g id="node47" class="node">
<title>Node65</title>
<g id="a_node47"><a xlink:href="system__info_8h.html" target="_top" xlink:title="ODP system information. ">
<polygon fill="#ffffff" stroke="#000000" points="2118,-280.5 2118,-299.5 2196,-299.5 2196,-280.5 2118,-280.5"/>
<text text-anchor="middle" x="2157" y="-287.5" font-family="Helvetica,sans-Serif" font-size="10.00" fill="#000000">system_info.h</text>
</a>
</g>
</g>
<!-- Node8&#45;&gt;Node65 -->
<g id="edge57" class="edge">
<title>Node8&#45;&gt;Node65</title>
<path fill="none" stroke="#191970" d="M1300.7144,-344.4851C1452.9326,-339.1877 1950.3062,-320.6883 2109,-300 2111.8699,-299.6259 2114.8241,-299.1747 2117.7897,-298.6736"/>
<polygon fill="#191970" stroke="#191970" points="1300.2335,-340.9996 1290.3606,-344.8436 1300.4758,-347.9954 1300.2335,-340.9996"/>
</g>
<!-- Node66 -->
<g id="node48" class="node">
<title>Node66</title>
<g id="a_node48"><a xlink:href="time_8h.html" target="_top" xlink:title="ODP time. ">
<polygon fill="#ffffff" stroke="#ff0000" points="1259,-280.5 1259,-299.5 1303,-299.5 1303,-280.5 1259,-280.5"/>
<text text-anchor="middle" x="1281" y="-287.5" font-family="Helvetica,sans-Serif" font-size="10.00" fill="#000000">time.h</text>
</a>
</g>
</g>
<!-- Node8&#45;&gt;Node66 -->
<g id="edge58" class="edge">
<title>Node8&#45;&gt;Node66</title>
<path fill="none" stroke="#191970" d="M1264.4626,-327.0437C1268.5745,-317.8331 1273.3394,-307.1598 1276.6952,-299.6427"/>
<polygon fill="#191970" stroke="#191970" points="1261.2352,-325.6874 1260.3547,-336.2455 1267.6272,-328.541 1261.2352,-325.6874"/>
</g>
<!-- Node68 -->
<g id="node49" class="node">
<title>Node68</title>
<g id="a_node49"><a xlink:href="timer_8h.html" target="_top" xlink:title="ODP timer service. ">
<polygon fill="#ffffff" stroke="#000000" points="2214.5,-280.5 2214.5,-299.5 2261.5,-299.5 2261.5,-280.5 2214.5,-280.5"/>
<text text-anchor="middle" x="2238" y="-287.5" font-family="Helvetica,sans-Serif" font-size="10.00" fill="#000000">timer.h</text>
</a>
</g>
</g>
<!-- Node8&#45;&gt;Node68 -->
<g id="edge60" class="edge">
<title>Node8&#45;&gt;Node68</title>
<path fill="none" stroke="#191970" d="M1300.3427,-345.2947C1463.1481,-342.4805 2027.6668,-330.6841 2205,-300 2208.0674,-299.4693 2211.2502,-298.7415 2214.375,-297.9187"/>
<polygon fill="#191970" stroke="#191970" points="1300.1473,-341.7974 1290.2083,-345.4671 1300.2665,-348.7964 1300.1473,-341.7974"/>
</g>
<!-- Node69 -->
<g id="node50" class="node">
<title>Node69</title>
<g id="a_node50"><a xlink:href="strong__types_8h.html" target="_top" xlink:title="ODP Strong Types. ">
<polygon fill="#ffffff" stroke="#000000" points="2279.5,-280.5 2279.5,-299.5 2360.5,-299.5 2360.5,-280.5 2279.5,-280.5"/>
<text text-anchor="middle" x="2320" y="-287.5" font-family="Helvetica,sans-Serif" font-size="10.00" fill="#000000">strong_types.h</text>
</a>
</g>
</g>
<!-- Node8&#45;&gt;Node69 -->
<g id="edge61" class="edge">
<title>Node8&#45;&gt;Node69</title>
<path fill="none" stroke="#191970" d="M1300.2332,-344.9151C1469.8554,-340.612 2078.8499,-323.8135 2271,-300 2273.7572,-299.6583 2276.5908,-299.2458 2279.4385,-298.7854"/>
<polygon fill="#191970" stroke="#191970" points="1300.0733,-341.4179 1290.1647,-345.1689 1300.2497,-348.4157 1300.0733,-341.4179"/>
</g>
<!-- Node23 -->
<g id="node17" class="node">
<title>Node23</title>
<g id="a_node17"><a xlink:href="spec_2ipsec_8h.html" target="_top" xlink:title="ODP IPSEC API. ">
<polygon fill="#ffffff" stroke="#ff0000" points="1142,-.5 1142,-19.5 1190,-19.5 1190,-.5 1142,-.5"/>
<text text-anchor="middle" x="1166" y="-7.5" font-family="Helvetica,sans-Serif" font-size="10.00" fill="#000000">ipsec.h</text>
</a>
</g>
</g>
<!-- Node22&#45;&gt;Node23 -->
<g id="edge16" class="edge">
<title>Node22&#45;&gt;Node23</title>
<path fill="none" stroke="#191970" d="M1166,-46.1575C1166,-37.155 1166,-26.9199 1166,-19.6427"/>
<polygon fill="#191970" stroke="#191970" points="1162.5001,-46.2455 1166,-56.2455 1169.5001,-46.2456 1162.5001,-46.2455"/>
</g>
<!-- Node25&#45;&gt;Node23 -->
<g id="edge18" class="edge">
<title>Node25&#45;&gt;Node23</title>
<path fill="none" stroke="#191970" d="M1042.0429,-159.5956C1057.2533,-134.8906 1086.1722,-90.1611 1116,-56 1127.9473,-42.317 1143.6144,-28.45 1154.2024,-19.572"/>
<polygon fill="#191970" stroke="#191970" points="1038.9518,-157.9423 1036.7402,-168.3037 1044.9306,-161.583 1038.9518,-157.9423"/>
</g>
<!-- Node27 -->
<g id="node20" class="node">
<title>Node27</title>
<g id="a_node20"><a xlink:href="spec_2comp_8h.html" target="_top" xlink:title="ODP Compression. ">
<polygon fill="#ffffff" stroke="#ff0000" points="1068.5,-224.5 1068.5,-243.5 1117.5,-243.5 1117.5,-224.5 1068.5,-224.5"/>
<text text-anchor="middle" x="1093" y="-231.5" font-family="Helvetica,sans-Serif" font-size="10.00" fill="#000000">comp.h</text>
</a>
</g>
</g>
<!-- Node26&#45;&gt;Node27 -->
<g id="edge20" class="edge">
<title>Node26&#45;&gt;Node27</title>
<path fill="none" stroke="#191970" d="M1153.012,-274.49C1138.3678,-264.6096 1119.8556,-252.1194 1107.2918,-243.6427"/>
<polygon fill="#191970" stroke="#191970" points="1151.2953,-277.5539 1161.5425,-280.2455 1155.2104,-271.7511 1151.2953,-277.5539"/>
</g>
<!-- Node29 -->
<g id="node21" class="node">
<title>Node29</title>
<g id="a_node21"><a xlink:href="spec_2crypto_8h.html" target="_top" xlink:title="ODP crypto. ">
<polygon fill="#ffffff" stroke="#000000" points="998,-224.5 998,-243.5 1050,-243.5 1050,-224.5 998,-224.5"/>
<text text-anchor="middle" x="1024" y="-231.5" font-family="Helvetica,sans-Serif" font-size="10.00" fill="#000000">crypto.h</text>
</a>
</g>
</g>
<!-- Node26&#45;&gt;Node29 -->
<g id="edge21" class="edge">
<title>Node26&#45;&gt;Node29</title>
<path fill="none" stroke="#191970" d="M1140.141,-276.7888C1112.3877,-266.5639 1074.6181,-252.6488 1049.7888,-243.5011"/>
<polygon fill="#191970" stroke="#191970" points="1139.2768,-280.2003 1149.8703,-280.3733 1141.6968,-273.6319 1139.2768,-280.2003"/>
</g>
<!-- Node30 -->
<g id="node22" class="node">
<title>Node30</title>
<g id="a_node22"><a xlink:href="spec_2event_8h.html" target="_top" xlink:title="ODP event. ">
<polygon fill="#ffffff" stroke="#ff0000" points="930.5,-224.5 930.5,-243.5 979.5,-243.5 979.5,-224.5 930.5,-224.5"/>
<text text-anchor="middle" x="955" y="-231.5" font-family="Helvetica,sans-Serif" font-size="10.00" fill="#000000">event.h</text>
</a>
</g>
</g>
<!-- Node26&#45;&gt;Node30 -->
<g id="edge23" class="edge">
<title>Node26&#45;&gt;Node30</title>
<path fill="none" stroke="#191970" d="M1138.6718,-280.8631C1086.2288,-268.02 996.2815,-245.9653 989,-244 986.0299,-243.1983 982.923,-242.3284 979.846,-241.4473"/>
<polygon fill="#191970" stroke="#191970" points="1138.0792,-284.3214 1148.6247,-283.3003 1139.7441,-277.5222 1138.0792,-284.3214"/>
</g>
<!-- Node26&#45;&gt;Node41 -->
<g id="edge24" class="edge">
<title>Node26&#45;&gt;Node41</title>
<path fill="none" stroke="#191970" d="M1176,-270.1575C1176,-261.155 1176,-250.9199 1176,-243.6427"/>
<polygon fill="#191970" stroke="#191970" points="1172.5001,-270.2455 1176,-280.2455 1179.5001,-270.2456 1172.5001,-270.2455"/>
</g>
<!-- Node34 -->
<g id="node25" class="node">
<title>Node34</title>
<g id="a_node25"><a xlink:href="spec_2packet__io_8h.html" target="_top" xlink:title="ODP Packet IO. ">
<polygon fill="#ffffff" stroke="#000000" points="1234.5,-224.5 1234.5,-243.5 1301.5,-243.5 1301.5,-224.5 1234.5,-224.5"/>
<text text-anchor="middle" x="1268" y="-231.5" font-family="Helvetica,sans-Serif" font-size="10.00" fill="#000000">packet_io.h</text>
</a>
</g>
</g>
<!-- Node26&#45;&gt;Node34 -->
<g id="edge26" class="edge">
<title>Node26&#45;&gt;Node34</title>
<path fill="none" stroke="#191970" d="M1201.0224,-274.769C1217.325,-264.8456 1238.101,-252.1994 1252.1585,-243.6427"/>
<polygon fill="#191970" stroke="#191970" points="1198.7473,-272.0563 1192.0252,-280.2455 1202.387,-278.0357 1198.7473,-272.0563"/>
</g>
<!-- Node29&#45;&gt;Node25 -->
<g id="edge22" class="edge">
<title>Node29&#45;&gt;Node25</title>
<path fill="none" stroke="#191970" d="M1026.4803,-214.1575C1027.6056,-205.155 1028.885,-194.9199 1029.7947,-187.6427"/>
<polygon fill="#191970" stroke="#191970" points="1022.9868,-213.8886 1025.2193,-224.2455 1029.9327,-214.7569 1022.9868,-213.8886"/>
</g>
<!-- Node42 -->
<g id="node24" class="node">
<title>Node42</title>
<g id="a_node24"><a xlink:href="packet__flags_8h.html" target="_top" xlink:title="ODP packet flags. ">
<polygon fill="#ffffff" stroke="#000000" points="1136,-168.5 1136,-187.5 1216,-187.5 1216,-168.5 1136,-168.5"/>
<text text-anchor="middle" x="1176" y="-175.5" font-family="Helvetica,sans-Serif" font-size="10.00" fill="#000000">packet_flags.h</text>
</a>
</g>
</g>
<!-- Node41&#45;&gt;Node42 -->
<g id="edge25" class="edge">
<title>Node41&#45;&gt;Node42</title>
<path fill="none" stroke="#191970" d="M1176,-214.1575C1176,-205.155 1176,-194.9199 1176,-187.6427"/>
<polygon fill="#191970" stroke="#191970" points="1172.5001,-214.2455 1176,-224.2455 1179.5001,-214.2456 1172.5001,-214.2455"/>
</g>
<!-- Node34&#45;&gt;Node35 -->
<g id="edge27" class="edge">
<title>Node34&#45;&gt;Node35</title>
<path fill="none" stroke="#191970" d="M1268,-214.1575C1268,-205.155 1268,-194.9199 1268,-187.6427"/>
<polygon fill="#191970" stroke="#191970" points="1264.5001,-214.2455 1268,-224.2455 1271.5001,-214.2456 1264.5001,-214.2455"/>
</g>
<!-- Node35&#45;&gt;Node23 -->
<g id="edge30" class="edge">
<title>Node35&#45;&gt;Node23</title>
<path fill="none" stroke="#191970" d="M1262.5556,-158.6341C1254.8693,-133.4359 1239.1425,-88.7634 1216,-56 1205.7922,-41.5486 1190.3805,-28.2396 1179.3678,-19.6957"/>
<polygon fill="#191970" stroke="#191970" points="1259.2597,-159.8326 1265.4376,-168.4398 1265.9756,-157.8586 1259.2597,-159.8326"/>
</g>
<!-- Node36 -->
<g id="node27" class="node">
<title>Node36</title>
<g id="a_node27"><a xlink:href="spec_2classification_8h.html" target="_top" xlink:title="ODP classification descriptor. ">
<polygon fill="#ffffff" stroke="#000000" points="1128,-112.5 1128,-131.5 1210,-131.5 1210,-112.5 1128,-112.5"/>
<text text-anchor="middle" x="1169" y="-119.5" font-family="Helvetica,sans-Serif" font-size="10.00" fill="#000000">classification.h</text>
</a>
</g>
</g>
<!-- Node35&#45;&gt;Node36 -->
<g id="edge28" class="edge">
<title>Node35&#45;&gt;Node36</title>
<path fill="none" stroke="#191970" d="M1241.5643,-163.0465C1223.9492,-153.0824 1201.3153,-140.2794 1186.0469,-131.6427"/>
<polygon fill="#191970" stroke="#191970" points="1240.3283,-166.3684 1250.7555,-168.2455 1243.7747,-160.2756 1240.3283,-166.3684"/>
</g>
<!-- Node35&#45;&gt;Node37 -->
<g id="edge31" class="edge">
<title>Node35&#45;&gt;Node37</title>
<path fill="none" stroke="#191970" d="M1299.8534,-164.3833C1323.6785,-154.1985 1355.6568,-140.5284 1376.7742,-131.5011"/>
<polygon fill="#191970" stroke="#191970" points="1298.339,-161.2242 1290.5197,-168.3733 1301.0906,-167.6608 1298.339,-161.2242"/>
</g>
<!-- Node36&#45;&gt;Node22 -->
<g id="edge29" class="edge">
<title>Node36&#45;&gt;Node22</title>
<path fill="none" stroke="#191970" d="M1167.937,-102.1575C1167.4547,-93.155 1166.9064,-82.9199 1166.5166,-75.6427"/>
<polygon fill="#191970" stroke="#191970" points="1164.4474,-102.4471 1168.4774,-112.2455 1171.4374,-102.0726 1164.4474,-102.4471"/>
</g>
<!-- Node33&#45;&gt;Node25 -->
<g id="edge34" class="edge">
<title>Node33&#45;&gt;Node25</title>
<path fill="none" stroke="#191970" d="M1341.1253,-270.155C1335.5892,-255.0544 1325.7506,-235.0465 1310,-224 1289.4016,-209.5535 1122.8839,-188.7465 1057.3545,-181.0295"/>
<polygon fill="#191970" stroke="#191970" points="1337.9487,-271.6955 1344.419,-280.0851 1344.5927,-269.4917 1337.9487,-271.6955"/>
</g>
<!-- Node33&#45;&gt;Node34 -->
<g id="edge35" class="edge">
<title>Node33&#45;&gt;Node34</title>
<path fill="none" stroke="#191970" d="M1324.7244,-274.2097C1310.8495,-264.3743 1293.4485,-252.0394 1281.6031,-243.6427"/>
<polygon fill="#191970" stroke="#191970" points="1323.0569,-277.3178 1333.2393,-280.2455 1327.1051,-271.6071 1323.0569,-277.3178"/>
</g>
<!-- Node33&#45;&gt;Node39 -->
<g id="edge36" class="edge">
<title>Node33&#45;&gt;Node39</title>
<path fill="none" stroke="#191970" d="M1360.6592,-272.2112C1367.9263,-262.7472 1376.5781,-251.4797 1382.5958,-243.6427"/>
<polygon fill="#191970" stroke="#191970" points="1357.8043,-270.1824 1354.49,-280.2455 1363.3564,-274.4456 1357.8043,-270.1824"/>
</g>
<!-- Node40 -->
<g id="node31" class="node">
<title>Node40</title>
<g id="a_node31"><a xlink:href="schedule_8h.html" target="_top" xlink:title="ODP schedule. ">
<polygon fill="#ffffff" stroke="#000000" points="1358,-168.5 1358,-187.5 1422,-187.5 1422,-168.5 1358,-168.5"/>
<text text-anchor="middle" x="1390" y="-175.5" font-family="Helvetica,sans-Serif" font-size="10.00" fill="#000000">schedule.h</text>
</a>
</g>
</g>
<!-- Node39&#45;&gt;Node40 -->
<g id="edge37" class="edge">
<title>Node39&#45;&gt;Node40</title>
<path fill="none" stroke="#191970" d="M1390,-214.1575C1390,-205.155 1390,-194.9199 1390,-187.6427"/>
<polygon fill="#191970" stroke="#191970" points="1386.5001,-214.2455 1390,-224.2455 1393.5001,-214.2456 1386.5001,-214.2455"/>
</g>
<!-- Node44 -->
<g id="node33" class="node">
<title>Node44</title>
<g id="a_node33"><a xlink:href="chksum_8h.html" target="_top" xlink:title="ODP checksum functions. ">
<polygon fill="#ffffff" stroke="#000000" points="1516.5,-224.5 1516.5,-243.5 1575.5,-243.5 1575.5,-224.5 1516.5,-224.5"/>
<text text-anchor="middle" x="1546" y="-231.5" font-family="Helvetica,sans-Serif" font-size="10.00" fill="#000000">chksum.h</text>
</a>
</g>
</g>
<!-- Node43&#45;&gt;Node44 -->
<g id="edge39" class="edge">
<title>Node43&#45;&gt;Node44</title>
<path fill="none" stroke="#191970" d="M1546,-270.1575C1546,-261.155 1546,-250.9199 1546,-243.6427"/>
<polygon fill="#191970" stroke="#191970" points="1542.5001,-270.2455 1546,-280.2455 1549.5001,-270.2456 1542.5001,-270.2455"/>
</g>
<!-- Node46 -->
<g id="node35" class="node">
<title>Node46</title>
<g id="a_node35"><a xlink:href="cpu_8h.html" target="_top" xlink:title="ODP CPU. ">
<polygon fill="#ffffff" stroke="#ff0000" points="1593.5,-224.5 1593.5,-243.5 1634.5,-243.5 1634.5,-224.5 1593.5,-224.5"/>
<text text-anchor="middle" x="1614" y="-231.5" font-family="Helvetica,sans-Serif" font-size="10.00" fill="#000000">cpu.h</text>
</a>
</g>
</g>
<!-- Node45&#45;&gt;Node46 -->
<g id="edge41" class="edge">
<title>Node45&#45;&gt;Node46</title>
<path fill="none" stroke="#191970" d="M1614,-270.1575C1614,-261.155 1614,-250.9199 1614,-243.6427"/>
<polygon fill="#191970" stroke="#191970" points="1610.5001,-270.2455 1614,-280.2455 1617.5001,-270.2456 1610.5001,-270.2455"/>
</g>
<!-- Node49 -->
<g id="node37" class="node">
<title>Node49</title>
<g id="a_node37"><a xlink:href="feature_8h.html" target="_top" xlink:title="ODP features. ">
<polygon fill="#ffffff" stroke="#000000" points="1652.5,-224.5 1652.5,-243.5 1707.5,-243.5 1707.5,-224.5 1652.5,-224.5"/>
<text text-anchor="middle" x="1680" y="-231.5" font-family="Helvetica,sans-Serif" font-size="10.00" fill="#000000">feature.h</text>
</a>
</g>
</g>
<!-- Node48&#45;&gt;Node49 -->
<g id="edge43" class="edge">
<title>Node48&#45;&gt;Node49</title>
<path fill="none" stroke="#191970" d="M1680,-270.1575C1680,-261.155 1680,-250.9199 1680,-243.6427"/>
<polygon fill="#191970" stroke="#191970" points="1676.5001,-270.2455 1680,-280.2455 1683.5001,-270.2456 1676.5001,-270.2455"/>
</g>
<!-- Node49&#45;&gt;Node50 -->
<g id="edge44" class="edge">
<title>Node49&#45;&gt;Node50</title>
<path fill="none" stroke="#191970" d="M1689.4781,-215.0437C1694.0835,-205.8331 1699.4201,-195.1598 1703.1787,-187.6427"/>
<polygon fill="#191970" stroke="#191970" points="1686.2189,-213.736 1684.8772,-224.2455 1692.4799,-216.8665 1686.2189,-213.736"/>
</g>
<!-- Node51 -->
<g id="node39" class="node">
<title>Node51</title>
<g id="a_node39"><a xlink:href="init_8h.html" target="_top" xlink:title="ODP initialization. ">
<polygon fill="#ffffff" stroke="#ff0000" points="1689,-112.5 1689,-131.5 1727,-131.5 1727,-112.5 1689,-112.5"/>
<text text-anchor="middle" x="1708" y="-119.5" font-family="Helvetica,sans-Serif" font-size="10.00" fill="#000000">init.h</text>
</a>
</g>
</g>
<!-- Node50&#45;&gt;Node51 -->
<g id="edge45" class="edge">
<title>Node50&#45;&gt;Node51</title>
<path fill="none" stroke="#191970" d="M1708,-158.1575C1708,-149.155 1708,-138.9199 1708,-131.6427"/>
<polygon fill="#191970" stroke="#191970" points="1704.5001,-158.2455 1708,-168.2455 1711.5001,-158.2456 1704.5001,-158.2455"/>
</g>
<!-- Node55 -->
<g id="node41" class="node">
<title>Node55</title>
<g id="a_node41"><a xlink:href="hash_8h.html" target="_top" xlink:title="ODP Hash function. ">
<polygon fill="#ffffff" stroke="#000000" points="1764,-224.5 1764,-243.5 1810,-243.5 1810,-224.5 1764,-224.5"/>
<text text-anchor="middle" x="1787" y="-231.5" font-family="Helvetica,sans-Serif" font-size="10.00" fill="#000000">hash.h</text>
</a>
</g>
</g>
<!-- Node54&#45;&gt;Node55 -->
<g id="edge47" class="edge">
<title>Node54&#45;&gt;Node55</title>
<path fill="none" stroke="#191970" d="M1787,-270.1575C1787,-261.155 1787,-250.9199 1787,-243.6427"/>
<polygon fill="#191970" stroke="#191970" points="1783.5001,-270.2455 1787,-280.2455 1790.5001,-270.2456 1783.5001,-270.2455"/>
</g>
<!-- Node57 -->
<g id="node43" class="node">
<title>Node57</title>
<g id="a_node43"><a xlink:href="pool_8h.html" target="_top" xlink:title="ODP pool. ">
<polygon fill="#ffffff" stroke="#ff0000" points="1828.5,-224.5 1828.5,-243.5 1871.5,-243.5 1871.5,-224.5 1828.5,-224.5"/>
<text text-anchor="middle" x="1850" y="-231.5" font-family="Helvetica,sans-Serif" font-size="10.00" fill="#000000">pool.h</text>
</a>
</g>
</g>
<!-- Node56&#45;&gt;Node57 -->
<g id="edge51" class="edge">
<title>Node56&#45;&gt;Node57</title>
<path fill="none" stroke="#191970" d="M1850,-270.1575C1850,-261.155 1850,-250.9199 1850,-243.6427"/>
<polygon fill="#191970" stroke="#191970" points="1846.5001,-270.2455 1850,-280.2455 1853.5001,-270.2456 1846.5001,-270.2455"/>
</g>
<!-- Node66&#45;&gt;Node34 -->
<g id="edge59" class="edge">
<title>Node66&#45;&gt;Node34</title>
<path fill="none" stroke="#191970" d="M1276.4625,-270.4538C1274.3561,-261.3803 1271.9464,-250.9998 1270.2385,-243.6427"/>
<polygon fill="#191970" stroke="#191970" points="1273.0649,-271.2961 1278.7356,-280.2455 1279.8835,-269.7131 1273.0649,-271.2961"/>
</g>
</g>
</svg>
