<?xml version="1.0" encoding="UTF-8" standalone="no"?>
<!DOCTYPE svg PUBLIC "-//W3C//DTD SVG 1.1//EN"
 "http://www.w3.org/Graphics/SVG/1.1/DTD/svg11.dtd">
<!-- Generated by graphviz version 2.40.1 (20161225.0304)
 -->
<!-- Title: time.h Pages: 1 -->
<svg width="442pt" height="756pt"
 viewBox="0.00 0.00 442.00 756.00" xmlns="http://www.w3.org/2000/svg" xmlns:xlink="http://www.w3.org/1999/xlink">
<g id="graph0" class="graph" transform="scale(1 1) rotate(0) translate(4 752)">
<title>time.h</title>
<polygon fill="#ffffff" stroke="transparent" points="-4,4 -4,-752 438,-752 438,4 -4,4"/>
<!-- Node3 -->
<g id="node1" class="node">
<title>Node3</title>
<polygon fill="#bfbfbf" stroke="#000000" points="296.5,-728.5 296.5,-747.5 340.5,-747.5 340.5,-728.5 296.5,-728.5"/>
<text text-anchor="middle" x="318.5" y="-735.5" font-family="Helvetica,sans-Serif" font-size="10.00" fill="#000000">time.h</text>
</g>
<!-- Node4 -->
<g id="node2" class="node">
<title>Node4</title>
<g id="a_node2"><a xlink:href="time_8h.html" target="_top" xlink:title="ODP time. ">
<polygon fill="#ffffff" stroke="#000000" points="296.5,-672.5 296.5,-691.5 340.5,-691.5 340.5,-672.5 296.5,-672.5"/>
<text text-anchor="middle" x="318.5" y="-679.5" font-family="Helvetica,sans-Serif" font-size="10.00" fill="#000000">time.h</text>
</a>
</g>
</g>
<!-- Node3&#45;&gt;Node4 -->
<g id="edge1" class="edge">
<title>Node3&#45;&gt;Node4</title>
<path fill="none" stroke="#191970" d="M318.5,-718.1575C318.5,-709.155 318.5,-698.9199 318.5,-691.6427"/>
<polygon fill="#191970" stroke="#191970" points="315.0001,-718.2455 318.5,-728.2455 322.0001,-718.2456 315.0001,-718.2455"/>
</g>
<!-- Node5 -->
<g id="node3" class="node">
<title>Node5</title>
<g id="a_node3"><a xlink:href="spec_2packet_8h.html" target="_top" xlink:title="ODP packet descriptor. ">
<polygon fill="#ffffff" stroke="#000000" points="226.5,-616.5 226.5,-635.5 280.5,-635.5 280.5,-616.5 226.5,-616.5"/>
<text text-anchor="middle" x="253.5" y="-623.5" font-family="Helvetica,sans-Serif" font-size="10.00" fill="#000000">packet.h</text>
</a>
</g>
</g>
<!-- Node4&#45;&gt;Node5 -->
<g id="edge2" class="edge">
<title>Node4&#45;&gt;Node5</title>
<path fill="none" stroke="#191970" d="M299.5165,-665.645C288.2121,-655.9058 274.253,-643.8795 264.6924,-635.6427"/>
<polygon fill="#191970" stroke="#191970" points="297.3173,-668.3701 307.1779,-672.2455 301.8862,-663.0668 297.3173,-668.3701"/>
</g>
<!-- Node17 -->
<g id="node15" class="node">
<title>Node17</title>
<g id="a_node15"><a xlink:href="spec_2packet__io_8h.html" target="_top" xlink:title="ODP Packet IO. ">
<polygon fill="#ffffff" stroke="#000000" points="247,-280.5 247,-299.5 314,-299.5 314,-280.5 247,-280.5"/>
<text text-anchor="middle" x="280.5" y="-287.5" font-family="Helvetica,sans-Serif" font-size="10.00" fill="#000000">packet_io.h</text>
</a>
</g>
</g>
<!-- Node4&#45;&gt;Node17 -->
<g id="edge30" class="edge">
<title>Node4&#45;&gt;Node17</title>
<path fill="none" stroke="#191970" d="M318.5,-662.1952C318.5,-639.8128 318.5,-602.2884 318.5,-570 318.5,-570 318.5,-570 318.5,-402 318.5,-362.1657 296.6774,-318.3859 286.107,-299.5166"/>
<polygon fill="#191970" stroke="#191970" points="315.0001,-662.4116 318.5,-672.4116 322.0001,-662.4117 315.0001,-662.4116"/>
</g>
<!-- Node27 -->
<g id="node25" class="node">
<title>Node27</title>
<g id="a_node25"><a xlink:href="packet__inlines_8h.html" target="_top" xlink:title="Packet inline functions. ">
<polygon fill="#ffffff" stroke="#000000" points="347,-616.5 347,-635.5 434,-635.5 434,-616.5 347,-616.5"/>
<text text-anchor="middle" x="390.5" y="-623.5" font-family="Helvetica,sans-Serif" font-size="10.00" fill="#000000">packet_inlines.h</text>
</a>
</g>
</g>
<!-- Node4&#45;&gt;Node27 -->
<g id="edge31" class="edge">
<title>Node4&#45;&gt;Node27</title>
<path fill="none" stroke="#191970" d="M339.164,-665.928C351.7489,-656.1397 367.4092,-643.9595 378.1023,-635.6427"/>
<polygon fill="#191970" stroke="#191970" points="336.7862,-663.3434 331.0414,-672.2455 341.0838,-668.8688 336.7862,-663.3434"/>
</g>
<!-- Node6 -->
<g id="node4" class="node">
<title>Node6</title>
<g id="a_node4"><a xlink:href="packet_8h.html" target="_top" xlink:title="ODP packet descriptor. ">
<polygon fill="#ffffff" stroke="#000000" points="181.5,-560.5 181.5,-579.5 235.5,-579.5 235.5,-560.5 181.5,-560.5"/>
<text text-anchor="middle" x="208.5" y="-567.5" font-family="Helvetica,sans-Serif" font-size="10.00" fill="#000000">packet.h</text>
</a>
</g>
</g>
<!-- Node5&#45;&gt;Node6 -->
<g id="edge3" class="edge">
<title>Node5&#45;&gt;Node6</title>
<path fill="none" stroke="#191970" d="M239.2054,-608.2112C231.6004,-598.7472 222.5462,-587.4797 216.2486,-579.6427"/>
<polygon fill="#191970" stroke="#191970" points="236.6694,-610.6428 245.6616,-616.2455 242.1259,-606.2581 236.6694,-610.6428"/>
</g>
<!-- Node7 -->
<g id="node5" class="node">
<title>Node7</title>
<g id="a_node5"><a xlink:href="spec_2comp_8h.html" target="_top" xlink:title="ODP Compression. ">
<polygon fill="#ffffff" stroke="#000000" points="67,-504.5 67,-523.5 116,-523.5 116,-504.5 67,-504.5"/>
<text text-anchor="middle" x="91.5" y="-511.5" font-family="Helvetica,sans-Serif" font-size="10.00" fill="#000000">comp.h</text>
</a>
</g>
</g>
<!-- Node6&#45;&gt;Node7 -->
<g id="edge4" class="edge">
<title>Node6&#45;&gt;Node7</title>
<path fill="none" stroke="#191970" d="M179.1958,-555.9741C158.012,-545.8348 129.9597,-532.408 111.3506,-523.5011"/>
<polygon fill="#191970" stroke="#191970" points="177.8559,-559.2129 188.387,-560.3733 180.878,-552.8989 177.8559,-559.2129"/>
</g>
<!-- Node9 -->
<g id="node7" class="node">
<title>Node9</title>
<g id="a_node7"><a xlink:href="spec_2crypto_8h.html" target="_top" xlink:title="ODP crypto. ">
<polygon fill="#ffffff" stroke="#000000" points="183.5,-392.5 183.5,-411.5 235.5,-411.5 235.5,-392.5 183.5,-392.5"/>
<text text-anchor="middle" x="209.5" y="-399.5" font-family="Helvetica,sans-Serif" font-size="10.00" fill="#000000">crypto.h</text>
</a>
</g>
</g>
<!-- Node6&#45;&gt;Node9 -->
<g id="edge6" class="edge">
<title>Node6&#45;&gt;Node9</title>
<path fill="none" stroke="#191970" d="M216.2784,-550.7421C219.1588,-542.6297 222.0699,-532.9984 223.5,-524 228.8016,-490.6409 228.4715,-481.4099 223.5,-448 221.5833,-435.1193 216.8038,-420.8554 213.3624,-411.6772"/>
<polygon fill="#191970" stroke="#191970" points="212.908,-549.7593 212.6368,-560.3507 219.4537,-552.2401 212.908,-549.7593"/>
</g>
<!-- Node13 -->
<g id="node11" class="node">
<title>Node13</title>
<g id="a_node11"><a xlink:href="spec_2event_8h.html" target="_top" xlink:title="ODP event. ">
<polygon fill="#ffffff" stroke="#000000" points="0,-504.5 0,-523.5 49,-523.5 49,-504.5 0,-504.5"/>
<text text-anchor="middle" x="24.5" y="-511.5" font-family="Helvetica,sans-Serif" font-size="10.00" fill="#000000">event.h</text>
</a>
</g>
</g>
<!-- Node6&#45;&gt;Node13 -->
<g id="edge10" class="edge">
<title>Node6&#45;&gt;Node13</title>
<path fill="none" stroke="#191970" d="M171.5969,-558.7686C135.1808,-547.6855 80.5308,-531.0528 49.1092,-521.4898"/>
<polygon fill="#191970" stroke="#191970" points="170.7643,-562.1737 181.3502,-561.737 172.8025,-555.477 170.7643,-562.1737"/>
</g>
<!-- Node6&#45;&gt;Node17 -->
<g id="edge29" class="edge">
<title>Node6&#45;&gt;Node17</title>
<path fill="none" stroke="#191970" d="M227.9931,-553.3338C249.316,-533.1378 280.5,-496.9446 280.5,-458 280.5,-458 280.5,-458 280.5,-402 280.5,-364.0833 280.5,-318.9462 280.5,-299.5884"/>
<polygon fill="#191970" stroke="#191970" points="225.4231,-550.9405 220.3893,-560.2632 230.1381,-556.1144 225.4231,-550.9405"/>
</g>
<!-- Node25 -->
<g id="node23" class="node">
<title>Node25</title>
<g id="a_node23"><a xlink:href="spec_2packet__flags_8h.html" target="_top" xlink:title="ODP packet flags. ">
<polygon fill="#ffffff" stroke="#000000" points="134.5,-504.5 134.5,-523.5 214.5,-523.5 214.5,-504.5 134.5,-504.5"/>
<text text-anchor="middle" x="174.5" y="-511.5" font-family="Helvetica,sans-Serif" font-size="10.00" fill="#000000">packet_flags.h</text>
</a>
</g>
</g>
<!-- Node6&#45;&gt;Node25 -->
<g id="edge27" class="edge">
<title>Node6&#45;&gt;Node25</title>
<path fill="none" stroke="#191970" d="M197.3465,-551.6296C191.6753,-542.2887 185.0155,-531.3197 180.3545,-523.6427"/>
<polygon fill="#191970" stroke="#191970" points="194.3961,-553.5141 202.5777,-560.2455 200.3796,-549.8812 194.3961,-553.5141"/>
</g>
<!-- Node8 -->
<g id="node6" class="node">
<title>Node8</title>
<g id="a_node6"><a xlink:href="comp_8h.html" target="_top" xlink:title="ODP crypto. ">
<polygon fill="#ffffff" stroke="#000000" points="67,-448.5 67,-467.5 116,-467.5 116,-448.5 67,-448.5"/>
<text text-anchor="middle" x="91.5" y="-455.5" font-family="Helvetica,sans-Serif" font-size="10.00" fill="#000000">comp.h</text>
</a>
</g>
</g>
<!-- Node7&#45;&gt;Node8 -->
<g id="edge5" class="edge">
<title>Node7&#45;&gt;Node8</title>
<path fill="none" stroke="#191970" d="M91.5,-494.1575C91.5,-485.155 91.5,-474.9199 91.5,-467.6427"/>
<polygon fill="#191970" stroke="#191970" points="88.0001,-494.2455 91.5,-504.2455 95.0001,-494.2456 88.0001,-494.2455"/>
</g>
<!-- Node10 -->
<g id="node8" class="node">
<title>Node10</title>
<g id="a_node8"><a xlink:href="crypto_8h.html" target="_top" xlink:title="ODP crypto. ">
<polygon fill="#ffffff" stroke="#000000" points="120.5,-280.5 120.5,-299.5 172.5,-299.5 172.5,-280.5 120.5,-280.5"/>
<text text-anchor="middle" x="146.5" y="-287.5" font-family="Helvetica,sans-Serif" font-size="10.00" fill="#000000">crypto.h</text>
</a>
</g>
</g>
<!-- Node9&#45;&gt;Node10 -->
<g id="edge7" class="edge">
<title>Node9&#45;&gt;Node10</title>
<path fill="none" stroke="#191970" d="M199.1344,-383.5723C185.5723,-359.4618 162.3078,-318.1028 151.8577,-299.5249"/>
<polygon fill="#191970" stroke="#191970" points="196.1755,-385.4511 204.1287,-392.4509 202.2765,-382.0192 196.1755,-385.4511"/>
</g>
<!-- Node11 -->
<g id="node9" class="node">
<title>Node11</title>
<g id="a_node9"><a xlink:href="spec_2ipsec_8h.html" target="_top" xlink:title="ODP IPSEC API. ">
<polygon fill="#ffffff" stroke="#000000" points="222.5,-56.5 222.5,-75.5 270.5,-75.5 270.5,-56.5 222.5,-56.5"/>
<text text-anchor="middle" x="246.5" y="-63.5" font-family="Helvetica,sans-Serif" font-size="10.00" fill="#000000">ipsec.h</text>
</a>
</g>
</g>
<!-- Node10&#45;&gt;Node11 -->
<g id="edge8" class="edge">
<title>Node10&#45;&gt;Node11</title>
<path fill="none" stroke="#191970" d="M143.3052,-270.1781C138.7517,-235.1301 134.1857,-161.2763 166.5,-112 179.415,-92.3058 203.8761,-80.0617 222.3649,-73.2055"/>
<polygon fill="#191970" stroke="#191970" points="139.8463,-270.7147 144.7364,-280.1134 146.7747,-269.7165 139.8463,-270.7147"/>
</g>
<!-- Node12 -->
<g id="node10" class="node">
<title>Node12</title>
<g id="a_node10"><a xlink:href="ipsec_8h.html" target="_top" xlink:title="ODP IPSEC API &#45; platform specific header. ">
<polygon fill="#ffffff" stroke="#000000" points="222.5,-.5 222.5,-19.5 270.5,-19.5 270.5,-.5 222.5,-.5"/>
<text text-anchor="middle" x="246.5" y="-7.5" font-family="Helvetica,sans-Serif" font-size="10.00" fill="#000000">ipsec.h</text>
</a>
</g>
</g>
<!-- Node11&#45;&gt;Node12 -->
<g id="edge9" class="edge">
<title>Node11&#45;&gt;Node12</title>
<path fill="none" stroke="#191970" d="M246.5,-46.1575C246.5,-37.155 246.5,-26.9199 246.5,-19.6427"/>
<polygon fill="#191970" stroke="#191970" points="243.0001,-46.2455 246.5,-56.2455 250.0001,-46.2456 243.0001,-46.2455"/>
</g>
<!-- Node14 -->
<g id="node12" class="node">
<title>Node14</title>
<g id="a_node12"><a xlink:href="event_8h.html" target="_top" xlink:title="ODP event. ">
<polygon fill="#ffffff" stroke="#000000" points="0,-448.5 0,-467.5 49,-467.5 49,-448.5 0,-448.5"/>
<text text-anchor="middle" x="24.5" y="-455.5" font-family="Helvetica,sans-Serif" font-size="10.00" fill="#000000">event.h</text>
</a>
</g>
</g>
<!-- Node13&#45;&gt;Node14 -->
<g id="edge11" class="edge">
<title>Node13&#45;&gt;Node14</title>
<path fill="none" stroke="#191970" d="M24.5,-494.1575C24.5,-485.155 24.5,-474.9199 24.5,-467.6427"/>
<polygon fill="#191970" stroke="#191970" points="21.0001,-494.2455 24.5,-504.2455 28.0001,-494.2456 21.0001,-494.2455"/>
</g>
<!-- Node15 -->
<g id="node13" class="node">
<title>Node15</title>
<g id="a_node13"><a xlink:href="spec_2queue_8h.html" target="_top" xlink:title="ODP queue. ">
<polygon fill="#ffffff" stroke="#000000" points="88,-392.5 88,-411.5 139,-411.5 139,-392.5 88,-392.5"/>
<text text-anchor="middle" x="113.5" y="-399.5" font-family="Helvetica,sans-Serif" font-size="10.00" fill="#000000">queue.h</text>
</a>
</g>
</g>
<!-- Node14&#45;&gt;Node15 -->
<g id="edge12" class="edge">
<title>Node14&#45;&gt;Node15</title>
<path fill="none" stroke="#191970" d="M48.7064,-442.769C64.4775,-432.8456 84.576,-420.1994 98.175,-411.6427"/>
<polygon fill="#191970" stroke="#191970" points="46.6026,-439.9575 40.0026,-448.2455 50.3305,-445.8823 46.6026,-439.9575"/>
</g>
<!-- Node23 -->
<g id="node21" class="node">
<title>Node23</title>
<g id="a_node21"><a xlink:href="spec_2schedule_8h.html" target="_top" xlink:title="ODP schedule. ">
<polygon fill="#ffffff" stroke="#000000" points="15.5,-280.5 15.5,-299.5 79.5,-299.5 79.5,-280.5 15.5,-280.5"/>
<text text-anchor="middle" x="47.5" y="-287.5" font-family="Helvetica,sans-Serif" font-size="10.00" fill="#000000">schedule.h</text>
</a>
</g>
</g>
<!-- Node14&#45;&gt;Node23 -->
<g id="edge26" class="edge">
<title>Node14&#45;&gt;Node23</title>
<path fill="none" stroke="#191970" d="M27.2025,-438.2601C32.1438,-402.1669 42.4666,-326.7656 46.1545,-299.8279"/>
<polygon fill="#191970" stroke="#191970" points="23.6913,-438.1039 25.8025,-448.4862 30.6266,-439.0534 23.6913,-438.1039"/>
</g>
<!-- Node16 -->
<g id="node14" class="node">
<title>Node16</title>
<g id="a_node14"><a xlink:href="queue_8h.html" target="_top" xlink:title="ODP queue. ">
<polygon fill="#ffffff" stroke="#000000" points="99,-336.5 99,-355.5 150,-355.5 150,-336.5 99,-336.5"/>
<text text-anchor="middle" x="124.5" y="-343.5" font-family="Helvetica,sans-Serif" font-size="10.00" fill="#000000">queue.h</text>
</a>
</g>
</g>
<!-- Node15&#45;&gt;Node16 -->
<g id="edge13" class="edge">
<title>Node15&#45;&gt;Node16</title>
<path fill="none" stroke="#191970" d="M117.3976,-382.1575C119.166,-373.155 121.1765,-362.9199 122.6059,-355.6427"/>
<polygon fill="#191970" stroke="#191970" points="113.9092,-381.7584 115.4161,-392.2455 120.778,-383.1077 113.9092,-381.7584"/>
</g>
<!-- Node16&#45;&gt;Node10 -->
<g id="edge14" class="edge">
<title>Node16&#45;&gt;Node10</title>
<path fill="none" stroke="#191970" d="M132.0628,-326.7493C135.6546,-317.6064 139.7901,-307.0798 142.7118,-299.6427"/>
<polygon fill="#191970" stroke="#191970" points="128.7311,-325.6582 128.3321,-336.2455 135.2463,-328.2178 128.7311,-325.6582"/>
</g>
<!-- Node16&#45;&gt;Node17 -->
<g id="edge15" class="edge">
<title>Node16&#45;&gt;Node17</title>
<path fill="none" stroke="#191970" d="M159.8637,-333.3053C188.4267,-323.0519 228.0013,-308.8457 253.918,-299.5423"/>
<polygon fill="#191970" stroke="#191970" points="158.4896,-330.0798 150.2602,-336.7527 160.8547,-336.6682 158.4896,-330.0798"/>
</g>
<!-- Node16&#45;&gt;Node23 -->
<g id="edge24" class="edge">
<title>Node16&#45;&gt;Node23</title>
<path fill="none" stroke="#191970" d="M102.7884,-330.2097C89.2647,-320.3743 72.3042,-308.0394 60.7587,-299.6427"/>
<polygon fill="#191970" stroke="#191970" points="100.9416,-333.1944 111.0876,-336.2455 105.0589,-327.5332 100.9416,-333.1944"/>
</g>
<!-- Node18 -->
<g id="node16" class="node">
<title>Node18</title>
<g id="a_node16"><a xlink:href="packet__io_8h.html" target="_top" xlink:title="ODP Packet IO. ">
<polygon fill="#ffffff" stroke="#000000" points="247,-224.5 247,-243.5 314,-243.5 314,-224.5 247,-224.5"/>
<text text-anchor="middle" x="280.5" y="-231.5" font-family="Helvetica,sans-Serif" font-size="10.00" fill="#000000">packet_io.h</text>
</a>
</g>
</g>
<!-- Node17&#45;&gt;Node18 -->
<g id="edge16" class="edge">
<title>Node17&#45;&gt;Node18</title>
<path fill="none" stroke="#191970" d="M280.5,-270.1575C280.5,-261.155 280.5,-250.9199 280.5,-243.6427"/>
<polygon fill="#191970" stroke="#191970" points="277.0001,-270.2455 280.5,-280.2455 284.0001,-270.2456 277.0001,-270.2455"/>
</g>
<!-- Node18&#45;&gt;Node11 -->
<g id="edge20" class="edge">
<title>Node18&#45;&gt;Node11</title>
<path fill="none" stroke="#191970" d="M278.4247,-214.3424C275.6372,-190.0725 270.0263,-147.6344 261.5,-112 258.4507,-99.2558 253.5476,-84.962 250.1824,-75.7397"/>
<polygon fill="#191970" stroke="#191970" points="274.9596,-214.8521 279.537,-224.4071 281.9173,-214.0831 274.9596,-214.8521"/>
</g>
<!-- Node19 -->
<g id="node17" class="node">
<title>Node19</title>
<g id="a_node17"><a xlink:href="spec_2classification_8h.html" target="_top" xlink:title="ODP classification descriptor. ">
<polygon fill="#ffffff" stroke="#000000" points="308.5,-168.5 308.5,-187.5 390.5,-187.5 390.5,-168.5 308.5,-168.5"/>
<text text-anchor="middle" x="349.5" y="-175.5" font-family="Helvetica,sans-Serif" font-size="10.00" fill="#000000">classification.h</text>
</a>
</g>
</g>
<!-- Node18&#45;&gt;Node19 -->
<g id="edge17" class="edge">
<title>Node18&#45;&gt;Node19</title>
<path fill="none" stroke="#191970" d="M300.303,-217.928C312.3636,-208.1397 327.3714,-195.9595 337.6188,-187.6427"/>
<polygon fill="#191970" stroke="#191970" points="298.0779,-215.2262 292.5189,-224.2455 302.4891,-220.6614 298.0779,-215.2262"/>
</g>
<!-- Node21 -->
<g id="node19" class="node">
<title>Node21</title>
<g id="a_node19"><a xlink:href="spec_2traffic__mngr_8h.html" target="_top" xlink:title="Copyright (c) 2015&#45;2018, Linaro Limited All rights reserved. ">
<polygon fill="#ffffff" stroke="#000000" points="175,-168.5 175,-187.5 252,-187.5 252,-168.5 175,-168.5"/>
<text text-anchor="middle" x="213.5" y="-175.5" font-family="Helvetica,sans-Serif" font-size="10.00" fill="#000000">traffic_mngr.h</text>
</a>
</g>
</g>
<!-- Node18&#45;&gt;Node21 -->
<g id="edge21" class="edge">
<title>Node18&#45;&gt;Node21</title>
<path fill="none" stroke="#191970" d="M260.9324,-217.645C249.2802,-207.9058 234.8916,-195.8795 225.0368,-187.6427"/>
<polygon fill="#191970" stroke="#191970" points="258.9121,-220.5179 268.8295,-224.2455 263.4012,-215.1469 258.9121,-220.5179"/>
</g>
<!-- Node20 -->
<g id="node18" class="node">
<title>Node20</title>
<g id="a_node18"><a xlink:href="classification_8h.html" target="_top" xlink:title="ODP classification descriptor. ">
<polygon fill="#ffffff" stroke="#000000" points="308.5,-112.5 308.5,-131.5 390.5,-131.5 390.5,-112.5 308.5,-112.5"/>
<text text-anchor="middle" x="349.5" y="-119.5" font-family="Helvetica,sans-Serif" font-size="10.00" fill="#000000">classification.h</text>
</a>
</g>
</g>
<!-- Node19&#45;&gt;Node20 -->
<g id="edge18" class="edge">
<title>Node19&#45;&gt;Node20</title>
<path fill="none" stroke="#191970" d="M349.5,-158.1575C349.5,-149.155 349.5,-138.9199 349.5,-131.6427"/>
<polygon fill="#191970" stroke="#191970" points="346.0001,-158.2455 349.5,-168.2455 353.0001,-158.2456 346.0001,-158.2455"/>
</g>
<!-- Node20&#45;&gt;Node11 -->
<g id="edge19" class="edge">
<title>Node20&#45;&gt;Node11</title>
<path fill="none" stroke="#191970" d="M322.7568,-107.46C304.325,-97.4388 280.3416,-84.3993 264.2356,-75.6427"/>
<polygon fill="#191970" stroke="#191970" points="321.1015,-110.5438 331.5588,-112.2455 324.4451,-104.394 321.1015,-110.5438"/>
</g>
<!-- Node22 -->
<g id="node20" class="node">
<title>Node22</title>
<g id="a_node20"><a xlink:href="traffic__mngr_8h.html" target="_top" xlink:title="ODP Traffic manager. ">
<polygon fill="#ffffff" stroke="#000000" points="175,-112.5 175,-131.5 252,-131.5 252,-112.5 175,-112.5"/>
<text text-anchor="middle" x="213.5" y="-119.5" font-family="Helvetica,sans-Serif" font-size="10.00" fill="#000000">traffic_mngr.h</text>
</a>
</g>
</g>
<!-- Node21&#45;&gt;Node22 -->
<g id="edge22" class="edge">
<title>Node21&#45;&gt;Node22</title>
<path fill="none" stroke="#191970" d="M213.5,-158.1575C213.5,-149.155 213.5,-138.9199 213.5,-131.6427"/>
<polygon fill="#191970" stroke="#191970" points="210.0001,-158.2455 213.5,-168.2455 217.0001,-158.2456 210.0001,-158.2455"/>
</g>
<!-- Node22&#45;&gt;Node11 -->
<g id="edge23" class="edge">
<title>Node22&#45;&gt;Node11</title>
<path fill="none" stroke="#191970" d="M224.3254,-103.6296C229.8299,-94.2887 236.2937,-83.3197 240.8177,-75.6427"/>
<polygon fill="#191970" stroke="#191970" points="221.3097,-101.8532 219.2482,-112.2455 227.3405,-105.4071 221.3097,-101.8532"/>
</g>
<!-- Node24 -->
<g id="node22" class="node">
<title>Node24</title>
<g id="a_node22"><a xlink:href="schedule_8h.html" target="_top" xlink:title="ODP schedule. ">
<polygon fill="#ffffff" stroke="#000000" points="15.5,-224.5 15.5,-243.5 79.5,-243.5 79.5,-224.5 15.5,-224.5"/>
<text text-anchor="middle" x="47.5" y="-231.5" font-family="Helvetica,sans-Serif" font-size="10.00" fill="#000000">schedule.h</text>
</a>
</g>
</g>
<!-- Node23&#45;&gt;Node24 -->
<g id="edge25" class="edge">
<title>Node23&#45;&gt;Node24</title>
<path fill="none" stroke="#191970" d="M47.5,-270.1575C47.5,-261.155 47.5,-250.9199 47.5,-243.6427"/>
<polygon fill="#191970" stroke="#191970" points="44.0001,-270.2455 47.5,-280.2455 51.0001,-270.2456 44.0001,-270.2455"/>
</g>
<!-- Node26 -->
<g id="node24" class="node">
<title>Node26</title>
<g id="a_node24"><a xlink:href="packet__flags_8h.html" target="_top" xlink:title="ODP packet flags. ">
<polygon fill="#ffffff" stroke="#000000" points="134.5,-448.5 134.5,-467.5 214.5,-467.5 214.5,-448.5 134.5,-448.5"/>
<text text-anchor="middle" x="174.5" y="-455.5" font-family="Helvetica,sans-Serif" font-size="10.00" fill="#000000">packet_flags.h</text>
</a>
</g>
</g>
<!-- Node25&#45;&gt;Node26 -->
<g id="edge28" class="edge">
<title>Node25&#45;&gt;Node26</title>
<path fill="none" stroke="#191970" d="M174.5,-494.1575C174.5,-485.155 174.5,-474.9199 174.5,-467.6427"/>
<polygon fill="#191970" stroke="#191970" points="171.0001,-494.2455 174.5,-504.2455 178.0001,-494.2456 171.0001,-494.2455"/>
</g>
</g>
</svg>
