<?xml version="1.0" encoding="UTF-8" standalone="no"?>
<!DOCTYPE svg PUBLIC "-//W3C//DTD SVG 1.1//EN"
 "http://www.w3.org/Graphics/SVG/1.1/DTD/svg11.dtd">
<!-- Generated by graphviz version 2.40.1 (20161225.0304)
 -->
<!-- Title: cpumask.h Pages: 1 -->
<svg width="153pt" height="308pt"
 viewBox="0.00 0.00 152.50 308.00" xmlns="http://www.w3.org/2000/svg" xmlns:xlink="http://www.w3.org/1999/xlink">
<g id="graph0" class="graph" transform="scale(1 1) rotate(0) translate(4 304)">
<title>cpumask.h</title>
<polygon fill="#ffffff" stroke="transparent" points="-4,4 -4,-304 148.5,-304 148.5,4 -4,4"/>
<!-- Node3 -->
<g id="node1" class="node">
<title>Node3</title>
<polygon fill="#bfbfbf" stroke="#000000" points="30.5,-280.5 30.5,-299.5 95.5,-299.5 95.5,-280.5 30.5,-280.5"/>
<text text-anchor="middle" x="63" y="-287.5" font-family="Helvetica,sans-Serif" font-size="10.00" fill="#000000">cpumask.h</text>
</g>
<!-- Node4 -->
<g id="node2" class="node">
<title>Node4</title>
<g id="a_node2"><a xlink:href="cpumask_8h.html" target="_top" xlink:title="ODP CPU masks and enumeration. ">
<polygon fill="#ffffff" stroke="#000000" points="30.5,-224.5 30.5,-243.5 95.5,-243.5 95.5,-224.5 30.5,-224.5"/>
<text text-anchor="middle" x="63" y="-231.5" font-family="Helvetica,sans-Serif" font-size="10.00" fill="#000000">cpumask.h</text>
</a>
</g>
</g>
<!-- Node3&#45;&gt;Node4 -->
<g id="edge1" class="edge">
<title>Node3&#45;&gt;Node4</title>
<path fill="none" stroke="#191970" d="M63,-270.1575C63,-261.155 63,-250.9199 63,-243.6427"/>
<polygon fill="#191970" stroke="#191970" points="59.5001,-270.2455 63,-280.2455 66.5001,-270.2456 59.5001,-270.2455"/>
</g>
<!-- Node5 -->
<g id="node3" class="node">
<title>Node5</title>
<g id="a_node3"><a xlink:href="abi-default_2thrmask_8h.html" target="_top" xlink:title="ODP thread masks. ">
<polygon fill="#ffffff" stroke="#000000" points="0,-168.5 0,-187.5 60,-187.5 60,-168.5 0,-168.5"/>
<text text-anchor="middle" x="30" y="-175.5" font-family="Helvetica,sans-Serif" font-size="10.00" fill="#000000">thrmask.h</text>
</a>
</g>
</g>
<!-- Node4&#45;&gt;Node5 -->
<g id="edge2" class="edge">
<title>Node4&#45;&gt;Node5</title>
<path fill="none" stroke="#191970" d="M52.1746,-215.6296C46.6701,-206.2887 40.2063,-195.3197 35.6823,-187.6427"/>
<polygon fill="#191970" stroke="#191970" points="49.1595,-217.4071 57.2518,-224.2455 55.1903,-213.8532 49.1595,-217.4071"/>
</g>
<!-- Node6 -->
<g id="node4" class="node">
<title>Node6</title>
<g id="a_node4"><a xlink:href="spec_2init_8h.html" target="_top" xlink:title="init.h">
<polygon fill="#ffffff" stroke="#000000" points="78,-168.5 78,-187.5 116,-187.5 116,-168.5 78,-168.5"/>
<text text-anchor="middle" x="97" y="-175.5" font-family="Helvetica,sans-Serif" font-size="10.00" fill="#000000">init.h</text>
</a>
</g>
</g>
<!-- Node4&#45;&gt;Node6 -->
<g id="edge3" class="edge">
<title>Node4&#45;&gt;Node6</title>
<path fill="none" stroke="#191970" d="M74.1535,-215.6296C79.8247,-206.2887 86.4845,-195.3197 91.1455,-187.6427"/>
<polygon fill="#191970" stroke="#191970" points="71.1204,-213.8812 68.9223,-224.2455 77.1039,-217.5141 71.1204,-213.8812"/>
</g>
<!-- Node7 -->
<g id="node5" class="node">
<title>Node7</title>
<g id="a_node5"><a xlink:href="init_8h.html" target="_top" xlink:title="ODP initialization. ">
<polygon fill="#ffffff" stroke="#000000" points="78,-112.5 78,-131.5 116,-131.5 116,-112.5 78,-112.5"/>
<text text-anchor="middle" x="97" y="-119.5" font-family="Helvetica,sans-Serif" font-size="10.00" fill="#000000">init.h</text>
</a>
</g>
</g>
<!-- Node6&#45;&gt;Node7 -->
<g id="edge4" class="edge">
<title>Node6&#45;&gt;Node7</title>
<path fill="none" stroke="#191970" d="M97,-158.1575C97,-149.155 97,-138.9199 97,-131.6427"/>
<polygon fill="#191970" stroke="#191970" points="93.5001,-158.2455 97,-168.2455 100.5001,-158.2456 93.5001,-158.2455"/>
</g>
<!-- Node8 -->
<g id="node6" class="node">
<title>Node8</title>
<g id="a_node6"><a xlink:href="spec_2shared__memory_8h.html" target="_top" xlink:title="ODP shared memory. ">
<polygon fill="#ffffff" stroke="#000000" points="49.5,-56.5 49.5,-75.5 144.5,-75.5 144.5,-56.5 49.5,-56.5"/>
<text text-anchor="middle" x="97" y="-63.5" font-family="Helvetica,sans-Serif" font-size="10.00" fill="#000000">shared_memory.h</text>
</a>
</g>
</g>
<!-- Node7&#45;&gt;Node8 -->
<g id="edge5" class="edge">
<title>Node7&#45;&gt;Node8</title>
<path fill="none" stroke="#191970" d="M97,-102.1575C97,-93.155 97,-82.9199 97,-75.6427"/>
<polygon fill="#191970" stroke="#191970" points="93.5001,-102.2455 97,-112.2455 100.5001,-102.2456 93.5001,-102.2455"/>
</g>
<!-- Node9 -->
<g id="node7" class="node">
<title>Node9</title>
<g id="a_node7"><a xlink:href="shared__memory_8h.html" target="_top" xlink:title="ODP shared memory. ">
<polygon fill="#ffffff" stroke="#000000" points="49.5,-.5 49.5,-19.5 144.5,-19.5 144.5,-.5 49.5,-.5"/>
<text text-anchor="middle" x="97" y="-7.5" font-family="Helvetica,sans-Serif" font-size="10.00" fill="#000000">shared_memory.h</text>
</a>
</g>
</g>
<!-- Node8&#45;&gt;Node9 -->
<g id="edge6" class="edge">
<title>Node8&#45;&gt;Node9</title>
<path fill="none" stroke="#191970" d="M97,-46.1575C97,-37.155 97,-26.9199 97,-19.6427"/>
<polygon fill="#191970" stroke="#191970" points="93.5001,-46.2455 97,-56.2455 100.5001,-46.2456 93.5001,-46.2455"/>
</g>
</g>
</svg>
