<?xml version="1.0" encoding="UTF-8" standalone="no"?>
<!DOCTYPE svg PUBLIC "-//W3C//DTD SVG 1.1//EN"
 "http://www.w3.org/Graphics/SVG/1.1/DTD/svg11.dtd">
<!-- Generated by graphviz version 2.40.1 (20161225.0304)
 -->
<!-- Title: deprecated.h Pages: 1 -->
<svg width="356pt" height="588pt"
 viewBox="0.00 0.00 356.04 588.00" xmlns="http://www.w3.org/2000/svg" xmlns:xlink="http://www.w3.org/1999/xlink">
<g id="graph0" class="graph" transform="scale(1 1) rotate(0) translate(4 584)">
<title>deprecated.h</title>
<polygon fill="#ffffff" stroke="transparent" points="-4,4 -4,-584 352.0426,-584 352.0426,4 -4,4"/>
<!-- Node3 -->
<g id="node1" class="node">
<title>Node3</title>
<polygon fill="#bfbfbf" stroke="#000000" points="107.5,-560.5 107.5,-579.5 180.5,-579.5 180.5,-560.5 107.5,-560.5"/>
<text text-anchor="middle" x="144" y="-567.5" font-family="Helvetica,sans-Serif" font-size="10.00" fill="#000000">deprecated.h</text>
</g>
<!-- Node4 -->
<g id="node2" class="node">
<title>Node4</title>
<g id="a_node2"><a xlink:href="deprecated_8h.html" target="_top" xlink:title="Control deprecated API definitions. ">
<polygon fill="#ffffff" stroke="#000000" points="107.5,-504.5 107.5,-523.5 180.5,-523.5 180.5,-504.5 107.5,-504.5"/>
<text text-anchor="middle" x="144" y="-511.5" font-family="Helvetica,sans-Serif" font-size="10.00" fill="#000000">deprecated.h</text>
</a>
</g>
</g>
<!-- Node3&#45;&gt;Node4 -->
<g id="edge1" class="edge">
<title>Node3&#45;&gt;Node4</title>
<path fill="none" stroke="#191970" d="M144,-550.1575C144,-541.155 144,-530.9199 144,-523.6427"/>
<polygon fill="#191970" stroke="#191970" points="140.5001,-550.2455 144,-560.2455 147.5001,-550.2456 140.5001,-550.2455"/>
</g>
<!-- Node5 -->
<g id="node3" class="node">
<title>Node5</title>
<g id="a_node3"><a xlink:href="abi-default_2classification_8h_source.html" target="_top" xlink:title="classification.h">
<polygon fill="#ffffff" stroke="#000000" points="0,-448.5 0,-467.5 82,-467.5 82,-448.5 0,-448.5"/>
<text text-anchor="middle" x="41" y="-455.5" font-family="Helvetica,sans-Serif" font-size="10.00" fill="#000000">classification.h</text>
</a>
</g>
</g>
<!-- Node4&#45;&gt;Node5 -->
<g id="edge2" class="edge">
<title>Node4&#45;&gt;Node5</title>
<path fill="none" stroke="#191970" d="M117.2568,-499.46C98.825,-489.4388 74.8416,-476.3993 58.7356,-467.6427"/>
<polygon fill="#191970" stroke="#191970" points="115.6015,-502.5438 126.0588,-504.2455 118.9451,-496.394 115.6015,-502.5438"/>
</g>
<!-- Node6 -->
<g id="node4" class="node">
<title>Node6</title>
<g id="a_node4"><a xlink:href="spec_2crypto_8h.html" target="_top" xlink:title="ODP crypto. ">
<polygon fill="#ffffff" stroke="#000000" points="12,-392.5 12,-411.5 64,-411.5 64,-392.5 12,-392.5"/>
<text text-anchor="middle" x="38" y="-399.5" font-family="Helvetica,sans-Serif" font-size="10.00" fill="#000000">crypto.h</text>
</a>
</g>
</g>
<!-- Node4&#45;&gt;Node6 -->
<g id="edge3" class="edge">
<title>Node4&#45;&gt;Node6</title>
<path fill="none" stroke="#191970" d="M130.9495,-496.017C120.6878,-482.3226 105.713,-463.2864 91,-448 77.9885,-434.4815 61.452,-420.5811 50.34,-411.6503"/>
<polygon fill="#191970" stroke="#191970" points="128.2036,-498.1904 136.9622,-504.1518 133.8328,-494.0297 128.2036,-498.1904"/>
</g>
<!-- Node10 -->
<g id="node8" class="node">
<title>Node10</title>
<g id="a_node8"><a xlink:href="spec_2packet__io_8h.html" target="_top" xlink:title="ODP Packet IO. ">
<polygon fill="#ffffff" stroke="#000000" points="254.5,-280.5 254.5,-299.5 321.5,-299.5 321.5,-280.5 254.5,-280.5"/>
<text text-anchor="middle" x="288" y="-287.5" font-family="Helvetica,sans-Serif" font-size="10.00" fill="#000000">packet_io.h</text>
</a>
</g>
</g>
<!-- Node4&#45;&gt;Node10 -->
<g id="edge7" class="edge">
<title>Node4&#45;&gt;Node10</title>
<path fill="none" stroke="#191970" d="M176.2766,-500.0813C192.5376,-492.1258 211.9435,-481.1176 227,-468 250.4574,-447.5635 256.9135,-440.6673 269,-412 285.5722,-372.6933 287.8608,-320.7761 288.0584,-299.6054"/>
<polygon fill="#191970" stroke="#191970" points="174.6693,-496.9696 167.1223,-504.4056 177.6592,-503.299 174.6693,-496.9696"/>
</g>
<!-- Node16 -->
<g id="node14" class="node">
<title>Node16</title>
<g id="a_node14"><a xlink:href="queue__types_8h.html" target="_top" xlink:title="ODP queue types. ">
<polygon fill="#ffffff" stroke="#000000" points="138,-448.5 138,-467.5 218,-467.5 218,-448.5 138,-448.5"/>
<text text-anchor="middle" x="178" y="-455.5" font-family="Helvetica,sans-Serif" font-size="10.00" fill="#000000">queue_types.h</text>
</a>
</g>
</g>
<!-- Node4&#45;&gt;Node16 -->
<g id="edge16" class="edge">
<title>Node4&#45;&gt;Node16</title>
<path fill="none" stroke="#191970" d="M155.1535,-495.6296C160.8247,-486.2887 167.4845,-475.3197 172.1455,-467.6427"/>
<polygon fill="#191970" stroke="#191970" points="152.1204,-493.8812 149.9223,-504.2455 158.1039,-497.5141 152.1204,-493.8812"/>
</g>
<!-- Node7 -->
<g id="node5" class="node">
<title>Node7</title>
<g id="a_node5"><a xlink:href="crypto_8h.html" target="_top" xlink:title="ODP crypto. ">
<polygon fill="#ffffff" stroke="#000000" points="95,-280.5 95,-299.5 147,-299.5 147,-280.5 95,-280.5"/>
<text text-anchor="middle" x="121" y="-287.5" font-family="Helvetica,sans-Serif" font-size="10.00" fill="#000000">crypto.h</text>
</a>
</g>
</g>
<!-- Node6&#45;&gt;Node7 -->
<g id="edge4" class="edge">
<title>Node6&#45;&gt;Node7</title>
<path fill="none" stroke="#191970" d="M50.6733,-383.7372C60.0103,-370.3976 73.1008,-351.9342 85,-336 94.4658,-323.3244 105.7633,-309.0156 113.1451,-299.7711"/>
<polygon fill="#191970" stroke="#191970" points="47.7188,-381.8551 44.8696,-392.0596 53.4606,-385.8591 47.7188,-381.8551"/>
</g>
<!-- Node8 -->
<g id="node6" class="node">
<title>Node8</title>
<g id="a_node6"><a xlink:href="spec_2ipsec_8h.html" target="_top" xlink:title="ODP IPSEC API. ">
<polygon fill="#ffffff" stroke="#000000" points="215,-56.5 215,-75.5 263,-75.5 263,-56.5 215,-56.5"/>
<text text-anchor="middle" x="239" y="-63.5" font-family="Helvetica,sans-Serif" font-size="10.00" fill="#000000">ipsec.h</text>
</a>
</g>
</g>
<!-- Node7&#45;&gt;Node8 -->
<g id="edge5" class="edge">
<title>Node7&#45;&gt;Node8</title>
<path fill="none" stroke="#191970" d="M117.3198,-270.4023C111.8422,-235.1216 105.5671,-160.1211 140,-112 157.5355,-87.4935 191.4786,-75.6838 214.6836,-70.2527"/>
<polygon fill="#191970" stroke="#191970" points="113.8891,-271.1061 119.0176,-280.377 120.7899,-269.9314 113.8891,-271.1061"/>
</g>
<!-- Node9 -->
<g id="node7" class="node">
<title>Node9</title>
<g id="a_node7"><a xlink:href="ipsec_8h.html" target="_top" xlink:title="ODP IPSEC API &#45; platform specific header. ">
<polygon fill="#ffffff" stroke="#000000" points="215,-.5 215,-19.5 263,-19.5 263,-.5 215,-.5"/>
<text text-anchor="middle" x="239" y="-7.5" font-family="Helvetica,sans-Serif" font-size="10.00" fill="#000000">ipsec.h</text>
</a>
</g>
</g>
<!-- Node8&#45;&gt;Node9 -->
<g id="edge6" class="edge">
<title>Node8&#45;&gt;Node9</title>
<path fill="none" stroke="#191970" d="M239,-46.1575C239,-37.155 239,-26.9199 239,-19.6427"/>
<polygon fill="#191970" stroke="#191970" points="235.5001,-46.2455 239,-56.2455 242.5001,-46.2456 235.5001,-46.2455"/>
</g>
<!-- Node11 -->
<g id="node9" class="node">
<title>Node11</title>
<g id="a_node9"><a xlink:href="packet__io_8h.html" target="_top" xlink:title="ODP Packet IO. ">
<polygon fill="#ffffff" stroke="#000000" points="254.5,-224.5 254.5,-243.5 321.5,-243.5 321.5,-224.5 254.5,-224.5"/>
<text text-anchor="middle" x="288" y="-231.5" font-family="Helvetica,sans-Serif" font-size="10.00" fill="#000000">packet_io.h</text>
</a>
</g>
</g>
<!-- Node10&#45;&gt;Node11 -->
<g id="edge8" class="edge">
<title>Node10&#45;&gt;Node11</title>
<path fill="none" stroke="#191970" d="M288,-270.1575C288,-261.155 288,-250.9199 288,-243.6427"/>
<polygon fill="#191970" stroke="#191970" points="284.5001,-270.2455 288,-280.2455 291.5001,-270.2456 284.5001,-270.2455"/>
</g>
<!-- Node11&#45;&gt;Node8 -->
<g id="edge12" class="edge">
<title>Node11&#45;&gt;Node8</title>
<path fill="none" stroke="#191970" d="M311.4273,-218.1886C320.9425,-210.3502 330.8844,-199.9878 336,-188 349.2574,-156.9327 354.0563,-140.5466 336,-112 320.1586,-86.9552 286.5767,-75.2759 263.4023,-70.0208"/>
<polygon fill="#191970" stroke="#191970" points="309.1203,-215.5468 303.3074,-224.4046 313.3754,-221.1051 309.1203,-215.5468"/>
</g>
<!-- Node12 -->
<g id="node10" class="node">
<title>Node12</title>
<g id="a_node10"><a xlink:href="spec_2classification_8h.html" target="_top" xlink:title="ODP classification descriptor. ">
<polygon fill="#ffffff" stroke="#000000" points="149,-168.5 149,-187.5 231,-187.5 231,-168.5 149,-168.5"/>
<text text-anchor="middle" x="190" y="-175.5" font-family="Helvetica,sans-Serif" font-size="10.00" fill="#000000">classification.h</text>
</a>
</g>
</g>
<!-- Node11&#45;&gt;Node12 -->
<g id="edge9" class="edge">
<title>Node11&#45;&gt;Node12</title>
<path fill="none" stroke="#191970" d="M261.8314,-219.0465C244.3942,-209.0824 221.9889,-196.2794 206.8747,-187.6427"/>
<polygon fill="#191970" stroke="#191970" points="260.5108,-222.323 270.9297,-224.2455 263.9838,-216.2453 260.5108,-222.323"/>
</g>
<!-- Node14 -->
<g id="node12" class="node">
<title>Node14</title>
<g id="a_node12"><a xlink:href="spec_2traffic__mngr_8h.html" target="_top" xlink:title="Copyright (c) 2015&#45;2018, Linaro Limited All rights reserved. ">
<polygon fill="#ffffff" stroke="#000000" points="249.5,-168.5 249.5,-187.5 326.5,-187.5 326.5,-168.5 249.5,-168.5"/>
<text text-anchor="middle" x="288" y="-175.5" font-family="Helvetica,sans-Serif" font-size="10.00" fill="#000000">traffic_mngr.h</text>
</a>
</g>
</g>
<!-- Node11&#45;&gt;Node14 -->
<g id="edge13" class="edge">
<title>Node11&#45;&gt;Node14</title>
<path fill="none" stroke="#191970" d="M288,-214.1575C288,-205.155 288,-194.9199 288,-187.6427"/>
<polygon fill="#191970" stroke="#191970" points="284.5001,-214.2455 288,-224.2455 291.5001,-214.2456 284.5001,-214.2455"/>
</g>
<!-- Node13 -->
<g id="node11" class="node">
<title>Node13</title>
<g id="a_node11"><a xlink:href="classification_8h.html" target="_top" xlink:title="ODP classification descriptor. ">
<polygon fill="#ffffff" stroke="#000000" points="149,-112.5 149,-131.5 231,-131.5 231,-112.5 149,-112.5"/>
<text text-anchor="middle" x="190" y="-119.5" font-family="Helvetica,sans-Serif" font-size="10.00" fill="#000000">classification.h</text>
</a>
</g>
</g>
<!-- Node12&#45;&gt;Node13 -->
<g id="edge10" class="edge">
<title>Node12&#45;&gt;Node13</title>
<path fill="none" stroke="#191970" d="M190,-158.1575C190,-149.155 190,-138.9199 190,-131.6427"/>
<polygon fill="#191970" stroke="#191970" points="186.5001,-158.2455 190,-168.2455 193.5001,-158.2456 186.5001,-158.2455"/>
</g>
<!-- Node13&#45;&gt;Node8 -->
<g id="edge11" class="edge">
<title>Node13&#45;&gt;Node8</title>
<path fill="none" stroke="#191970" d="M205.3122,-104.5004C213.6447,-94.9775 223.6353,-83.5596 230.5627,-75.6427"/>
<polygon fill="#191970" stroke="#191970" points="202.4862,-102.415 198.5351,-112.2455 207.7543,-107.0245 202.4862,-102.415"/>
</g>
<!-- Node15 -->
<g id="node13" class="node">
<title>Node15</title>
<g id="a_node13"><a xlink:href="traffic__mngr_8h.html" target="_top" xlink:title="ODP Traffic manager. ">
<polygon fill="#ffffff" stroke="#000000" points="249.5,-112.5 249.5,-131.5 326.5,-131.5 326.5,-112.5 249.5,-112.5"/>
<text text-anchor="middle" x="288" y="-119.5" font-family="Helvetica,sans-Serif" font-size="10.00" fill="#000000">traffic_mngr.h</text>
</a>
</g>
</g>
<!-- Node14&#45;&gt;Node15 -->
<g id="edge14" class="edge">
<title>Node14&#45;&gt;Node15</title>
<path fill="none" stroke="#191970" d="M288,-158.1575C288,-149.155 288,-138.9199 288,-131.6427"/>
<polygon fill="#191970" stroke="#191970" points="284.5001,-158.2455 288,-168.2455 291.5001,-158.2456 284.5001,-158.2455"/>
</g>
<!-- Node15&#45;&gt;Node8 -->
<g id="edge15" class="edge">
<title>Node15&#45;&gt;Node8</title>
<path fill="none" stroke="#191970" d="M272.6878,-104.5004C264.3553,-94.9775 254.3647,-83.5596 247.4373,-75.6427"/>
<polygon fill="#191970" stroke="#191970" points="270.2457,-107.0245 279.4649,-112.2455 275.5138,-102.415 270.2457,-107.0245"/>
</g>
<!-- Node17 -->
<g id="node15" class="node">
<title>Node17</title>
<g id="a_node15"><a xlink:href="spec_2queue_8h.html" target="_top" xlink:title="ODP queue. ">
<polygon fill="#ffffff" stroke="#000000" points="208.5,-392.5 208.5,-411.5 259.5,-411.5 259.5,-392.5 208.5,-392.5"/>
<text text-anchor="middle" x="234" y="-399.5" font-family="Helvetica,sans-Serif" font-size="10.00" fill="#000000">queue.h</text>
</a>
</g>
</g>
<!-- Node16&#45;&gt;Node17 -->
<g id="edge17" class="edge">
<title>Node16&#45;&gt;Node17</title>
<path fill="none" stroke="#191970" d="M194.9249,-441.0751C204.5598,-431.4402 216.2804,-419.7196 224.3573,-411.6427"/>
<polygon fill="#191970" stroke="#191970" points="192.3507,-438.6996 187.7545,-448.2455 197.3004,-443.6493 192.3507,-438.6996"/>
</g>
<!-- Node21 -->
<g id="node19" class="node">
<title>Node21</title>
<g id="a_node19"><a xlink:href="queue__inline__types_8h_source.html" target="_top" xlink:title="queue_inline_types.h">
<polygon fill="#ffffff" stroke="#000000" points="82,-392.5 82,-411.5 190,-411.5 190,-392.5 82,-392.5"/>
<text text-anchor="middle" x="136" y="-399.5" font-family="Helvetica,sans-Serif" font-size="10.00" fill="#000000">queue_inline_types.h</text>
</a>
</g>
</g>
<!-- Node16&#45;&gt;Node21 -->
<g id="edge23" class="edge">
<title>Node16&#45;&gt;Node21</title>
<path fill="none" stroke="#191970" d="M164.6584,-440.2112C157.5604,-430.7472 149.1097,-419.4797 143.232,-411.6427"/>
<polygon fill="#191970" stroke="#191970" points="161.8841,-442.3455 170.6842,-448.2455 167.4841,-438.1455 161.8841,-442.3455"/>
</g>
<!-- Node18 -->
<g id="node16" class="node">
<title>Node18</title>
<g id="a_node16"><a xlink:href="queue_8h.html" target="_top" xlink:title="ODP queue. ">
<polygon fill="#ffffff" stroke="#000000" points="202.5,-336.5 202.5,-355.5 253.5,-355.5 253.5,-336.5 202.5,-336.5"/>
<text text-anchor="middle" x="228" y="-343.5" font-family="Helvetica,sans-Serif" font-size="10.00" fill="#000000">queue.h</text>
</a>
</g>
</g>
<!-- Node17&#45;&gt;Node18 -->
<g id="edge18" class="edge">
<title>Node17&#45;&gt;Node18</title>
<path fill="none" stroke="#191970" d="M231.874,-382.1575C230.9095,-373.155 229.8128,-362.9199 229.0331,-355.6427"/>
<polygon fill="#191970" stroke="#191970" points="228.4094,-382.6753 232.9549,-392.2455 235.3695,-381.9296 228.4094,-382.6753"/>
</g>
<!-- Node18&#45;&gt;Node7 -->
<g id="edge19" class="edge">
<title>Node18&#45;&gt;Node7</title>
<path fill="none" stroke="#191970" d="M200.4801,-331.5971C181.2983,-321.558 156.2322,-308.4393 139.4244,-299.6427"/>
<polygon fill="#191970" stroke="#191970" points="198.8791,-334.7095 209.362,-336.2455 202.125,-328.5075 198.8791,-334.7095"/>
</g>
<!-- Node18&#45;&gt;Node10 -->
<g id="edge20" class="edge">
<title>Node18&#45;&gt;Node10</title>
<path fill="none" stroke="#191970" d="M245.8278,-329.3607C256.2078,-319.6727 268.9291,-307.7995 277.6686,-299.6427"/>
<polygon fill="#191970" stroke="#191970" points="243.3737,-326.8636 238.4512,-336.2455 248.1499,-331.981 243.3737,-326.8636"/>
</g>
<!-- Node19 -->
<g id="node17" class="node">
<title>Node19</title>
<g id="a_node17"><a xlink:href="spec_2schedule_8h.html" target="_top" xlink:title="ODP schedule. ">
<polygon fill="#ffffff" stroke="#000000" points="172,-280.5 172,-299.5 236,-299.5 236,-280.5 172,-280.5"/>
<text text-anchor="middle" x="204" y="-287.5" font-family="Helvetica,sans-Serif" font-size="10.00" fill="#000000">schedule.h</text>
</a>
</g>
</g>
<!-- Node18&#45;&gt;Node19 -->
<g id="edge21" class="edge">
<title>Node18&#45;&gt;Node19</title>
<path fill="none" stroke="#191970" d="M219.8759,-327.0437C215.9285,-317.8331 211.3542,-307.1598 208.1326,-299.6427"/>
<polygon fill="#191970" stroke="#191970" points="216.6633,-328.4328 223.8195,-336.2455 223.0973,-325.6753 216.6633,-328.4328"/>
</g>
<!-- Node20 -->
<g id="node18" class="node">
<title>Node20</title>
<g id="a_node18"><a xlink:href="schedule_8h.html" target="_top" xlink:title="ODP schedule. ">
<polygon fill="#ffffff" stroke="#000000" points="172,-224.5 172,-243.5 236,-243.5 236,-224.5 172,-224.5"/>
<text text-anchor="middle" x="204" y="-231.5" font-family="Helvetica,sans-Serif" font-size="10.00" fill="#000000">schedule.h</text>
</a>
</g>
</g>
<!-- Node19&#45;&gt;Node20 -->
<g id="edge22" class="edge">
<title>Node19&#45;&gt;Node20</title>
<path fill="none" stroke="#191970" d="M204,-270.1575C204,-261.155 204,-250.9199 204,-243.6427"/>
<polygon fill="#191970" stroke="#191970" points="200.5001,-270.2455 204,-280.2455 207.5001,-270.2456 200.5001,-270.2455"/>
</g>
<!-- Node22 -->
<g id="node20" class="node">
<title>Node22</title>
<g id="a_node20"><a xlink:href="queue__inlines_8h_source.html" target="_top" xlink:title="queue_inlines.h">
<polygon fill="#ffffff" stroke="#000000" points="94,-336.5 94,-355.5 178,-355.5 178,-336.5 94,-336.5"/>
<text text-anchor="middle" x="136" y="-343.5" font-family="Helvetica,sans-Serif" font-size="10.00" fill="#000000">queue_inlines.h</text>
</a>
</g>
</g>
<!-- Node21&#45;&gt;Node22 -->
<g id="edge24" class="edge">
<title>Node21&#45;&gt;Node22</title>
<path fill="none" stroke="#191970" d="M136,-382.1575C136,-373.155 136,-362.9199 136,-355.6427"/>
<polygon fill="#191970" stroke="#191970" points="132.5001,-382.2455 136,-392.2455 139.5001,-382.2456 132.5001,-382.2455"/>
</g>
</g>
</svg>
