<?xml version="1.0" encoding="UTF-8" standalone="no"?>
<!DOCTYPE svg PUBLIC "-//W3C//DTD SVG 1.1//EN"
 "http://www.w3.org/Graphics/SVG/1.1/DTD/svg11.dtd">
<!-- Generated by graphviz version 2.40.1 (20161225.0304)
 -->
<!-- Title: ipsec.h Pages: 1 -->
<svg width="1942pt" height="968pt"
 viewBox="0.00 0.00 1942.00 968.00" xmlns="http://www.w3.org/2000/svg" xmlns:xlink="http://www.w3.org/1999/xlink">
<g id="graph0" class="graph" transform="scale(1 1) rotate(0) translate(4 964)">
<title>ipsec.h</title>
<polygon fill="#ffffff" stroke="transparent" points="-4,4 -4,-964 1938,-964 1938,4 -4,4"/>
<!-- Node0 -->
<g id="node1" class="node">
<title>Node0</title>
<polygon fill="#bfbfbf" stroke="#000000" points="1174,-940.5 1174,-959.5 1222,-959.5 1222,-940.5 1174,-940.5"/>
<text text-anchor="middle" x="1198" y="-947.5" font-family="Helvetica,sans-Serif" font-size="10.00" fill="#000000">ipsec.h</text>
</g>
<!-- Node1 -->
<g id="node2" class="node">
<title>Node1</title>
<polygon fill="#ffffff" stroke="#bfbfbf" points="1361.5,-.5 1361.5,-19.5 1468.5,-19.5 1468.5,-.5 1361.5,-.5"/>
<text text-anchor="middle" x="1415" y="-7.5" font-family="Helvetica,sans-Serif" font-size="10.00" fill="#000000">odp/visibility_begin.h</text>
</g>
<!-- Node0&#45;&gt;Node1 -->
<g id="edge1" class="edge">
<title>Node0&#45;&gt;Node1</title>
<path fill="none" stroke="#191970" d="M1222.2557,-949.8717C1323.4526,-949.0856 1712.0617,-943.503 1827,-904 1881.0903,-885.4098 1934,-889.6958 1934,-832.5 1934,-832.5 1934,-832.5 1934,-133 1934,-40.4023 1617.243,-17.4154 1478.6497,-11.7895"/>
<polygon fill="#191970" stroke="#191970" points="1478.7156,-8.2895 1468.5873,-11.3989 1478.444,-15.2842 1478.7156,-8.2895"/>
</g>
<!-- Node2 -->
<g id="node3" class="node">
<title>Node2</title>
<g id="a_node3"><a xlink:href="crypto_8h.html" target="_top" xlink:title="ODP crypto. ">
<polygon fill="#ffffff" stroke="#000000" points="438,-705.5 438,-724.5 524,-724.5 524,-705.5 438,-705.5"/>
<text text-anchor="middle" x="481" y="-712.5" font-family="Helvetica,sans-Serif" font-size="10.00" fill="#000000">odp/api/crypto.h</text>
</a>
</g>
</g>
<!-- Node0&#45;&gt;Node2 -->
<g id="edge2" class="edge">
<title>Node0&#45;&gt;Node2</title>
<path fill="none" stroke="#191970" d="M1173.7333,-942.0465C1068.3559,-907.5086 649.9206,-770.3645 519.813,-727.7212"/>
<polygon fill="#191970" stroke="#191970" points="520.8348,-724.3729 510.242,-724.5842 518.6545,-731.0247 520.8348,-724.3729"/>
</g>
<!-- Node10 -->
<g id="node11" class="node">
<title>Node10</title>
<polygon fill="#ffffff" stroke="#bfbfbf" points="311,-.5 311,-19.5 411,-19.5 411,-.5 311,-.5"/>
<text text-anchor="middle" x="361" y="-7.5" font-family="Helvetica,sans-Serif" font-size="10.00" fill="#000000">odp/visibility_end.h</text>
</g>
<!-- Node0&#45;&gt;Node10 -->
<g id="edge117" class="edge">
<title>Node0&#45;&gt;Node10</title>
<path fill="none" stroke="#191970" d="M1173.6696,-949.5531C1044.6707,-947.0712 439.6413,-933.9976 255,-904 138.8191,-885.1248 0,-950.2042 0,-832.5 0,-832.5 0,-832.5 0,-133 0,-95.0319 6.3642,-78.4283 37,-56 77.8297,-26.1088 218.7108,-15.5437 300.638,-11.8821"/>
<polygon fill="#191970" stroke="#191970" points="300.972,-15.3712 310.8141,-11.4492 300.6744,-8.3775 300.972,-15.3712"/>
</g>
<!-- Node31 -->
<g id="node32" class="node">
<title>Node31</title>
<g id="a_node32"><a xlink:href="support_8h.html" target="_top" xlink:title="ODP support API &#45; platform specific header. ">
<polygon fill="#ffffff" stroke="#000000" points="1174,-123.5 1174,-142.5 1266,-142.5 1266,-123.5 1174,-123.5"/>
<text text-anchor="middle" x="1220" y="-130.5" font-family="Helvetica,sans-Serif" font-size="10.00" fill="#000000">odp/api/support.h</text>
</a>
</g>
</g>
<!-- Node0&#45;&gt;Node31 -->
<g id="edge70" class="edge">
<title>Node0&#45;&gt;Node31</title>
<path fill="none" stroke="#191970" d="M1222.0463,-949.2434C1317.0193,-945.7086 1664.0961,-927.4545 1731,-848 1785.1663,-783.6726 1740,-743.0952 1740,-659 1740,-659 1740,-659 1740,-435 1740,-222.3473 1410.7869,-156.9035 1276.2554,-139.038"/>
<polygon fill="#191970" stroke="#191970" points="1276.5116,-135.5422 1266.1465,-137.7368 1275.6178,-142.4849 1276.5116,-135.5422"/>
</g>
<!-- Node36 -->
<g id="node37" class="node">
<title>Node36</title>
<g id="a_node37"><a xlink:href="packet__io_8h.html" target="_top" xlink:title="ODP Packet IO. ">
<polygon fill="#ffffff" stroke="#000000" points="1117.5,-761.5 1117.5,-780.5 1218.5,-780.5 1218.5,-761.5 1117.5,-761.5"/>
<text text-anchor="middle" x="1168" y="-768.5" font-family="Helvetica,sans-Serif" font-size="10.00" fill="#000000">odp/api/packet_io.h</text>
</a>
</g>
</g>
<!-- Node0&#45;&gt;Node36 -->
<g id="edge71" class="edge">
<title>Node0&#45;&gt;Node36</title>
<path fill="none" stroke="#191970" d="M1196.3871,-940.3762C1191.6461,-912.0883 1177.6869,-828.7987 1171.281,-790.5767"/>
<polygon fill="#191970" stroke="#191970" points="1174.7258,-789.9553 1169.6209,-780.6714 1167.8221,-791.1124 1174.7258,-789.9553"/>
</g>
<!-- Node41 -->
<g id="node42" class="node">
<title>Node41</title>
<g id="a_node42"><a xlink:href="protocols_8h.html" target="_top" xlink:title="ODP protocols. ">
<polygon fill="#ffffff" stroke="#000000" points="1806.5,-425.5 1806.5,-444.5 1905.5,-444.5 1905.5,-425.5 1806.5,-425.5"/>
<text text-anchor="middle" x="1856" y="-432.5" font-family="Helvetica,sans-Serif" font-size="10.00" fill="#000000">odp/api/protocols.h</text>
</a>
</g>
</g>
<!-- Node0&#45;&gt;Node41 -->
<g id="edge89" class="edge">
<title>Node0&#45;&gt;Node41</title>
<path fill="none" stroke="#191970" d="M1222.2576,-949.4886C1328.6174,-947.0676 1750.6447,-935.5308 1800,-904 1830.6853,-884.3966 1840,-868.9126 1840,-832.5 1840,-832.5 1840,-832.5 1840,-547 1840,-514.2342 1846.7939,-476.6134 1851.5275,-454.3778"/>
<polygon fill="#191970" stroke="#191970" points="1854.9649,-455.0428 1853.7076,-444.5228 1848.1302,-453.5307 1854.9649,-455.0428"/>
</g>
<!-- Node43 -->
<g id="node44" class="node">
<title>Node43</title>
<g id="a_node44"><a xlink:href="classification_8h.html" target="_top" xlink:title="ODP classification descriptor. ">
<polygon fill="#ffffff" stroke="#000000" points="1354,-884.5 1354,-903.5 1470,-903.5 1470,-884.5 1354,-884.5"/>
<text text-anchor="middle" x="1412" y="-891.5" font-family="Helvetica,sans-Serif" font-size="10.00" fill="#000000">odp/api/classification.h</text>
</a>
</g>
</g>
<!-- Node0&#45;&gt;Node43 -->
<g id="edge93" class="edge">
<title>Node0&#45;&gt;Node43</title>
<path fill="none" stroke="#191970" d="M1222.1325,-943.6849C1256.8148,-934.6092 1321.4259,-917.7016 1365.5533,-906.1543"/>
<polygon fill="#191970" stroke="#191970" points="1366.6803,-909.4773 1375.4685,-903.5596 1364.9082,-902.7053 1366.6803,-909.4773"/>
</g>
<!-- Node47 -->
<g id="node48" class="node">
<title>Node47</title>
<g id="a_node48"><a xlink:href="traffic__mngr_8h.html" target="_top" xlink:title="ODP Traffic manager. ">
<polygon fill="#ffffff" stroke="#000000" points="264.5,-884.5 264.5,-903.5 375.5,-903.5 375.5,-884.5 264.5,-884.5"/>
<text text-anchor="middle" x="320" y="-891.5" font-family="Helvetica,sans-Serif" font-size="10.00" fill="#000000">odp/api/traffic_mngr.h</text>
</a>
</g>
</g>
<!-- Node0&#45;&gt;Node47 -->
<g id="edge110" class="edge">
<title>Node0&#45;&gt;Node47</title>
<path fill="none" stroke="#191970" d="M1173.815,-949.3742C1075.799,-946.6792 698.6341,-934.7744 390,-904 388.6945,-903.8698 387.3759,-903.7331 386.0478,-903.5906"/>
<polygon fill="#191970" stroke="#191970" points="386.0684,-900.0697 375.7324,-902.3975 385.264,-907.0233 386.0684,-900.0697"/>
</g>
<!-- Node3 -->
<g id="node4" class="node">
<title>Node3</title>
<g id="a_node4"><a xlink:href="std__types_8h.html" target="_top" xlink:title="Standard C language types and definitions for ODP. ">
<polygon fill="#ffffff" stroke="#000000" points="414,-246.5 414,-265.5 516,-265.5 516,-246.5 414,-246.5"/>
<text text-anchor="middle" x="465" y="-253.5" font-family="Helvetica,sans-Serif" font-size="10.00" fill="#000000">odp/api/std_types.h</text>
</a>
</g>
</g>
<!-- Node2&#45;&gt;Node3 -->
<g id="edge3" class="edge">
<title>Node2&#45;&gt;Node3</title>
<path fill="none" stroke="#191970" d="M466.9891,-705.1589C455.3554,-696.5263 438.8533,-683.1688 427,-669 338.1042,-562.739 313.1031,-525.6021 290,-389 279.0442,-324.2216 361.9719,-286.4195 417.4625,-268.6074"/>
<polygon fill="#191970" stroke="#191970" points="418.6168,-271.914 427.1348,-265.6137 416.547,-265.227 418.6168,-271.914"/>
</g>
<!-- Node11 -->
<g id="node12" class="node">
<title>Node11</title>
<polygon fill="#ffffff" stroke="#bfbfbf" points="1282,-369.5 1282,-388.5 1386,-388.5 1386,-369.5 1282,-369.5"/>
<text text-anchor="middle" x="1334" y="-376.5" font-family="Helvetica,sans-Serif" font-size="10.00" fill="#000000">odp/api/abi/packet.h</text>
</g>
<!-- Node2&#45;&gt;Node11 -->
<g id="edge14" class="edge">
<title>Node2&#45;&gt;Node11</title>
<path fill="none" stroke="#191970" d="M524.0175,-711.8471C584.1779,-706.7035 696.4618,-694.4193 789,-669 875.1116,-645.3461 891.3949,-624.3832 975,-593 1021.1866,-575.6628 1036.0333,-579.3765 1080,-557 1174.5342,-508.8876 1273.9784,-429.4236 1314.8018,-395.3449"/>
<polygon fill="#191970" stroke="#191970" points="1317.1978,-397.9032 1322.6005,-388.7894 1312.6935,-392.5448 1317.1978,-397.9032"/>
</g>
<!-- Node12 -->
<g id="node13" class="node">
<title>Node12</title>
<polygon fill="#ffffff" stroke="#bfbfbf" points="256,-649.5 256,-668.5 358,-668.5 358,-649.5 256,-649.5"/>
<text text-anchor="middle" x="307" y="-656.5" font-family="Helvetica,sans-Serif" font-size="10.00" fill="#000000">odp/api/abi/crypto.h</text>
</g>
<!-- Node2&#45;&gt;Node12 -->
<g id="edge15" class="edge">
<title>Node2&#45;&gt;Node12</title>
<path fill="none" stroke="#191970" d="M451.0883,-705.3733C422.1548,-696.0613 378.1389,-681.8953 346.3707,-671.671"/>
<polygon fill="#191970" stroke="#191970" points="347.1128,-668.2331 336.5213,-668.5011 344.9682,-674.8965 347.1128,-668.2331"/>
</g>
<!-- Node13 -->
<g id="node14" class="node">
<title>Node13</title>
<polygon fill="#ffffff" stroke="#bfbfbf" points="332,-369.5 332,-388.5 432,-388.5 432,-369.5 332,-369.5"/>
<text text-anchor="middle" x="382" y="-376.5" font-family="Helvetica,sans-Serif" font-size="10.00" fill="#000000">odp/api/abi/buffer.h</text>
</g>
<!-- Node2&#45;&gt;Node13 -->
<g id="edge16" class="edge">
<title>Node2&#45;&gt;Node13</title>
<path fill="none" stroke="#191970" d="M471.6895,-705.3149C449.2458,-680.9024 394,-614.0049 394,-547 394,-547 394,-547 394,-491 394,-458.3778 388.9046,-420.7135 385.3544,-398.4301"/>
<polygon fill="#191970" stroke="#191970" points="388.8053,-397.8456 383.7193,-388.5514 381.8993,-398.9887 388.8053,-397.8456"/>
</g>
<!-- Node14 -->
<g id="node15" class="node">
<title>Node14</title>
<polygon fill="#ffffff" stroke="#bfbfbf" points="1094.5,-369.5 1094.5,-388.5 1187.5,-388.5 1187.5,-369.5 1094.5,-369.5"/>
<text text-anchor="middle" x="1141" y="-376.5" font-family="Helvetica,sans-Serif" font-size="10.00" fill="#000000">odp/api/abi/pool.h</text>
</g>
<!-- Node2&#45;&gt;Node14 -->
<g id="edge17" class="edge">
<title>Node2&#45;&gt;Node14</title>
<path fill="none" stroke="#191970" d="M524.1391,-712.9973C579.3044,-709.2702 677.0199,-698.7066 755,-669 839.7078,-636.7305 1056.8147,-451.9806 1122.132,-395.44"/>
<polygon fill="#191970" stroke="#191970" points="1124.7269,-397.8224 1129.9862,-388.6251 1120.1393,-392.5352 1124.7269,-397.8224"/>
</g>
<!-- Node15 -->
<g id="node16" class="node">
<title>Node15</title>
<g id="a_node16"><a xlink:href="queue_8h.html" target="_top" xlink:title="ODP queue. ">
<polygon fill="#ffffff" stroke="#000000" points="660,-649.5 660,-668.5 746,-668.5 746,-649.5 660,-649.5"/>
<text text-anchor="middle" x="703" y="-656.5" font-family="Helvetica,sans-Serif" font-size="10.00" fill="#000000">odp/api/queue.h</text>
</a>
</g>
</g>
<!-- Node2&#45;&gt;Node15 -->
<g id="edge18" class="edge">
<title>Node2&#45;&gt;Node15</title>
<path fill="none" stroke="#191970" d="M518.9109,-705.4369C556.665,-695.9133 614.7265,-681.2672 655.5264,-670.9753"/>
<polygon fill="#191970" stroke="#191970" points="656.4053,-674.3633 665.2454,-668.5237 654.6931,-667.576 656.4053,-674.3633"/>
</g>
<!-- Node35 -->
<g id="node36" class="node">
<title>Node35</title>
<g id="a_node36"><a xlink:href="spec_2crypto_8h.html" target="_top" xlink:title="ODP crypto. ">
<polygon fill="#ffffff" stroke="#000000" points="650,-481.5 650,-500.5 760,-500.5 760,-481.5 650,-481.5"/>
<text text-anchor="middle" x="705" y="-488.5" font-family="Helvetica,sans-Serif" font-size="10.00" fill="#000000">odp/api/spec/crypto.h</text>
</a>
</g>
</g>
<!-- Node2&#45;&gt;Node35 -->
<g id="edge64" class="edge">
<title>Node2&#45;&gt;Node35</title>
<path fill="none" stroke="#191970" d="M490.625,-705.375C525.3047,-670.6953 644.1373,-551.8627 688.2983,-507.7017"/>
<polygon fill="#191970" stroke="#191970" points="690.8146,-510.1351 695.4109,-500.5891 685.8649,-505.1854 690.8146,-510.1351"/>
</g>
<!-- Node4 -->
<g id="node5" class="node">
<title>Node4</title>
<polygon fill="#ffffff" stroke="#bfbfbf" points="552,-185 552,-204 670,-204 670,-185 552,-185"/>
<text text-anchor="middle" x="611" y="-192" font-family="Helvetica,sans-Serif" font-size="10.00" fill="#000000">odp/api/abi/std_types.h</text>
</g>
<!-- Node3&#45;&gt;Node4 -->
<g id="edge4" class="edge">
<title>Node3&#45;&gt;Node4</title>
<path fill="none" stroke="#191970" d="M487.8125,-246.3906C512.3481,-236.0554 551.5442,-219.5447 579.1211,-207.9284"/>
<polygon fill="#191970" stroke="#191970" points="580.4906,-211.1495 588.3477,-204.0419 577.7732,-204.6984 580.4906,-211.1495"/>
</g>
<!-- Node5 -->
<g id="node6" class="node">
<title>Node5</title>
<g id="a_node6"><a xlink:href="spec_2std__types_8h.html" target="_top" xlink:title="Standard C language types and definitions for ODP. ">
<polygon fill="#ffffff" stroke="#000000" points="408,-185 408,-204 534,-204 534,-185 408,-185"/>
<text text-anchor="middle" x="471" y="-192" font-family="Helvetica,sans-Serif" font-size="10.00" fill="#000000">odp/api/spec/std_types.h</text>
</a>
</g>
</g>
<!-- Node3&#45;&gt;Node5 -->
<g id="edge5" class="edge">
<title>Node3&#45;&gt;Node5</title>
<path fill="none" stroke="#191970" d="M465.9375,-246.3906C466.7692,-237.8657 468.0108,-225.1392 469.0562,-214.4235"/>
<polygon fill="#191970" stroke="#191970" points="472.5617,-214.5375 470.0493,-204.2449 465.5947,-213.8577 472.5617,-214.5375"/>
</g>
<!-- Node5&#45;&gt;Node1 -->
<g id="edge6" class="edge">
<title>Node5&#45;&gt;Node1</title>
<path fill="none" stroke="#191970" d="M515.162,-184.9564C524.3603,-182.9788 533.9952,-180.915 543,-179 737.5637,-137.624 801.5146,-172.7438 981,-87 1000.667,-77.6047 998.9244,-64.4871 1019,-56 1077.3561,-31.3296 1254.7767,-18.419 1351.1174,-13.0656"/>
<polygon fill="#191970" stroke="#191970" points="1351.5211,-16.5489 1361.316,-12.5103 1351.1404,-9.5593 1351.5211,-16.5489"/>
</g>
<!-- Node6 -->
<g id="node7" class="node">
<title>Node6</title>
<polygon fill="#ffffff" stroke="#bfbfbf" points="446.5,-123.5 446.5,-142.5 495.5,-142.5 495.5,-123.5 446.5,-123.5"/>
<text text-anchor="middle" x="471" y="-130.5" font-family="Helvetica,sans-Serif" font-size="10.00" fill="#000000">stdint.h</text>
</g>
<!-- Node5&#45;&gt;Node6 -->
<g id="edge7" class="edge">
<title>Node5&#45;&gt;Node6</title>
<path fill="none" stroke="#191970" d="M471,-184.8906C471,-176.3657 471,-163.6392 471,-152.9235"/>
<polygon fill="#191970" stroke="#191970" points="474.5001,-152.7448 471,-142.7449 467.5001,-152.7449 474.5001,-152.7448"/>
</g>
<!-- Node7 -->
<g id="node8" class="node">
<title>Node7</title>
<g id="a_node8"><a xlink:href="align_8h.html" target="_top" xlink:title="ODP alignments. ">
<polygon fill="#ffffff" stroke="#000000" points="552,-123.5 552,-142.5 632,-142.5 632,-123.5 552,-123.5"/>
<text text-anchor="middle" x="592" y="-130.5" font-family="Helvetica,sans-Serif" font-size="10.00" fill="#000000">odp/api/align.h</text>
</a>
</g>
</g>
<!-- Node5&#45;&gt;Node7 -->
<g id="edge8" class="edge">
<title>Node5&#45;&gt;Node7</title>
<path fill="none" stroke="#191970" d="M489.9063,-184.8906C509.7966,-174.7811 541.3123,-158.7628 564.0692,-147.1962"/>
<polygon fill="#191970" stroke="#191970" points="565.8978,-150.193 573.2265,-142.5419 562.726,-143.9528 565.8978,-150.193"/>
</g>
<!-- Node5&#45;&gt;Node10 -->
<g id="edge13" class="edge">
<title>Node5&#45;&gt;Node10</title>
<path fill="none" stroke="#191970" d="M464.1101,-184.8563C456.9627,-174.6764 445.6431,-158.0511 437,-143 415.521,-105.5968 416.2004,-92.9796 394,-56 388.2044,-46.3462 380.9872,-36.1205 374.7815,-27.7682"/>
<polygon fill="#191970" stroke="#191970" points="377.3883,-25.4131 368.5597,-19.5559 371.8088,-29.6403 377.3883,-25.4131"/>
</g>
<!-- Node8 -->
<g id="node9" class="node">
<title>Node8</title>
<polygon fill="#ffffff" stroke="#bfbfbf" points="484.5,-62 484.5,-81 579.5,-81 579.5,-62 484.5,-62"/>
<text text-anchor="middle" x="532" y="-69" font-family="Helvetica,sans-Serif" font-size="10.00" fill="#000000">odp/api/abi/align.h</text>
</g>
<!-- Node7&#45;&gt;Node8 -->
<g id="edge9" class="edge">
<title>Node7&#45;&gt;Node8</title>
<path fill="none" stroke="#191970" d="M582.625,-123.3906C573.5201,-114.0581 559.5026,-99.6902 548.5243,-88.4374"/>
<polygon fill="#191970" stroke="#191970" points="550.9957,-85.9586 541.5072,-81.2449 545.9852,-90.8468 550.9957,-85.9586"/>
</g>
<!-- Node9 -->
<g id="node10" class="node">
<title>Node9</title>
<g id="a_node10"><a xlink:href="spec_2align_8h.html" target="_top" xlink:title="ODP alignments. ">
<polygon fill="#ffffff" stroke="#000000" points="598,-62 598,-81 702,-81 702,-62 598,-62"/>
<text text-anchor="middle" x="650" y="-69" font-family="Helvetica,sans-Serif" font-size="10.00" fill="#000000">odp/api/spec/align.h</text>
</a>
</g>
</g>
<!-- Node7&#45;&gt;Node9 -->
<g id="edge10" class="edge">
<title>Node7&#45;&gt;Node9</title>
<path fill="none" stroke="#191970" d="M601.0625,-123.3906C609.7793,-114.1478 623.154,-99.966 633.7196,-88.7628"/>
<polygon fill="#191970" stroke="#191970" points="636.495,-90.9213 640.8097,-81.2449 631.4024,-86.1186 636.495,-90.9213"/>
</g>
<!-- Node9&#45;&gt;Node1 -->
<g id="edge11" class="edge">
<title>Node9&#45;&gt;Node1</title>
<path fill="none" stroke="#191970" d="M683.0118,-61.936C692.0198,-59.6493 701.8265,-57.4526 711,-56 833.2752,-36.6385 1201.4117,-19.1717 1350.8817,-12.6799"/>
<polygon fill="#191970" stroke="#191970" points="1351.4196,-16.16 1361.2592,-12.2316 1351.1174,-9.1666 1351.4196,-16.16"/>
</g>
<!-- Node9&#45;&gt;Node10 -->
<g id="edge12" class="edge">
<title>Node9&#45;&gt;Node10</title>
<path fill="none" stroke="#191970" d="M613.0183,-61.9649C604.7985,-59.9265 596.1163,-57.8359 588,-56 531.6658,-43.2572 467.0854,-30.3325 421.2471,-21.4417"/>
<polygon fill="#191970" stroke="#191970" points="421.6626,-17.9573 411.1801,-19.4955 420.3339,-24.83 421.6626,-17.9573"/>
</g>
<!-- Node15&#45;&gt;Node3 -->
<g id="edge19" class="edge">
<title>Node15&#45;&gt;Node3</title>
<path fill="none" stroke="#191970" d="M693.0278,-649.3257C675.1086,-631.7237 636.6615,-592.9521 608,-557 533.7459,-463.858 486.4331,-325.8373 470.7566,-275.3756"/>
<polygon fill="#191970" stroke="#191970" points="474.0816,-274.2797 467.8186,-265.7342 467.3856,-276.3202 474.0816,-274.2797"/>
</g>
<!-- Node15&#45;&gt;Node13 -->
<g id="edge22" class="edge">
<title>Node15&#45;&gt;Node13</title>
<path fill="none" stroke="#191970" d="M659.9521,-652.9877C628.5728,-646.9455 586.2559,-635.2082 555,-613 512.1423,-582.5484 424.6259,-446.9481 393.3916,-397.2954"/>
<polygon fill="#191970" stroke="#191970" points="396.1994,-395.1846 387.925,-388.5675 390.2669,-398.9002 396.1994,-395.1846"/>
</g>
<!-- Node15&#45;&gt;Node14 -->
<g id="edge23" class="edge">
<title>Node15&#45;&gt;Node14</title>
<path fill="none" stroke="#191970" d="M732.3213,-649.358C755.3239,-641.2092 787.7336,-628.4152 814,-613 930.2557,-544.7719 938.7177,-498.0588 1052,-425 1070.7463,-412.91 1093.0467,-401.3886 1110.6352,-392.9005"/>
<polygon fill="#191970" stroke="#191970" points="1112.3394,-395.9658 1119.8694,-388.5126 1109.3351,-389.6433 1112.3394,-395.9658"/>
</g>
<!-- Node16 -->
<g id="node17" class="node">
<title>Node16</title>
<polygon fill="#ffffff" stroke="#bfbfbf" points="526.5,-369.5 526.5,-388.5 625.5,-388.5 625.5,-369.5 526.5,-369.5"/>
<text text-anchor="middle" x="576" y="-376.5" font-family="Helvetica,sans-Serif" font-size="10.00" fill="#000000">odp/api/abi/event.h</text>
</g>
<!-- Node15&#45;&gt;Node16 -->
<g id="edge20" class="edge">
<title>Node15&#45;&gt;Node16</title>
<path fill="none" stroke="#191970" d="M659.975,-649.7985C625.3455,-641.4173 580.737,-628.0746 570,-613 522.8368,-546.7835 553.0472,-441.1653 568.5062,-398.1593"/>
<polygon fill="#191970" stroke="#191970" points="571.8427,-399.2292 572.0626,-388.6367 565.2851,-396.7801 571.8427,-399.2292"/>
</g>
<!-- Node17 -->
<g id="node18" class="node">
<title>Node17</title>
<polygon fill="#ffffff" stroke="#bfbfbf" points="984.5,-593.5 984.5,-612.5 1085.5,-612.5 1085.5,-593.5 984.5,-593.5"/>
<text text-anchor="middle" x="1035" y="-600.5" font-family="Helvetica,sans-Serif" font-size="10.00" fill="#000000">odp/api/abi/queue.h</text>
</g>
<!-- Node15&#45;&gt;Node17 -->
<g id="edge21" class="edge">
<title>Node15&#45;&gt;Node17</title>
<path fill="none" stroke="#191970" d="M746.0628,-651.7364C804.3055,-641.9123 908.4838,-624.3401 974.549,-613.1966"/>
<polygon fill="#191970" stroke="#191970" points="975.132,-616.6477 984.4106,-611.5332 973.9677,-609.7452 975.132,-616.6477"/>
</g>
<!-- Node18 -->
<g id="node19" class="node">
<title>Node18</title>
<g id="a_node19"><a xlink:href="spec_2queue_8h.html" target="_top" xlink:title="ODP queue. ">
<polygon fill="#ffffff" stroke="#000000" points="695,-593.5 695,-612.5 805,-612.5 805,-593.5 695,-593.5"/>
<text text-anchor="middle" x="750" y="-600.5" font-family="Helvetica,sans-Serif" font-size="10.00" fill="#000000">odp/api/spec/queue.h</text>
</a>
</g>
</g>
<!-- Node15&#45;&gt;Node18 -->
<g id="edge24" class="edge">
<title>Node15&#45;&gt;Node18</title>
<path fill="none" stroke="#191970" d="M711.1868,-649.2455C717.8589,-641.2958 727.4479,-629.8706 735.4253,-620.3656"/>
<polygon fill="#191970" stroke="#191970" points="738.1592,-622.5525 741.907,-612.6427 732.7974,-618.0524 738.1592,-622.5525"/>
</g>
<!-- Node18&#45;&gt;Node1 -->
<g id="edge25" class="edge">
<title>Node18&#45;&gt;Node1</title>
<path fill="none" stroke="#191970" d="M771.9274,-593.3418C792.9852,-584.0571 825.6862,-569.6136 854,-557 1040.444,-473.9404 1085.4504,-449.5319 1273,-369 1328.4002,-345.2117 1472.3746,-297.1429 1524,-266 1557.2311,-245.9534 1565.8086,-239.5223 1591,-210 1636.4975,-156.6805 1671.3357,-108.5927 1625,-56 1605.8958,-34.316 1533.0582,-22.0334 1478.4877,-15.7128"/>
<polygon fill="#191970" stroke="#191970" points="1478.8544,-12.2321 1468.5278,-14.6011 1478.0778,-19.1889 1478.8544,-12.2321"/>
</g>
<!-- Node18&#45;&gt;Node10 -->
<g id="edge63" class="edge">
<title>Node18&#45;&gt;Node10</title>
<path fill="none" stroke="#191970" d="M737.5283,-593.2919C683.7882,-551.4962 473.2623,-388.1457 441,-369 335.7916,-306.5651 190,-378.3393 190,-256 190,-256 190,-256 190,-133 190,-94.2287 201.6177,-81.2961 231,-56 250.7732,-38.9767 277.2716,-28.1107 301.1854,-21.2448"/>
<polygon fill="#191970" stroke="#191970" points="302.1525,-24.6092 310.8983,-18.6291 300.3321,-17.85 302.1525,-24.6092"/>
</g>
<!-- Node19 -->
<g id="node20" class="node">
<title>Node19</title>
<g id="a_node20"><a xlink:href="event_8h.html" target="_top" xlink:title="ODP event. ">
<polygon fill="#ffffff" stroke="#000000" points="708.5,-537.5 708.5,-556.5 791.5,-556.5 791.5,-537.5 708.5,-537.5"/>
<text text-anchor="middle" x="750" y="-544.5" font-family="Helvetica,sans-Serif" font-size="10.00" fill="#000000">odp/api/event.h</text>
</a>
</g>
</g>
<!-- Node18&#45;&gt;Node19 -->
<g id="edge26" class="edge">
<title>Node18&#45;&gt;Node19</title>
<path fill="none" stroke="#191970" d="M750,-593.2455C750,-585.9382 750,-575.6944 750,-566.7046"/>
<polygon fill="#191970" stroke="#191970" points="753.5001,-566.6426 750,-556.6427 746.5001,-566.6427 753.5001,-566.6426"/>
</g>
<!-- Node27 -->
<g id="node28" class="node">
<title>Node27</title>
<g id="a_node28"><a xlink:href="queue__types_8h.html" target="_top" xlink:title="ODP queue types. ">
<polygon fill="#ffffff" stroke="#000000" points="952.5,-302.5 952.5,-332.5 1053.5,-332.5 1053.5,-302.5 952.5,-302.5"/>
<text text-anchor="start" x="960.5" y="-320.5" font-family="Helvetica,sans-Serif" font-size="10.00" fill="#000000">odp/api/spec/queue</text>
<text text-anchor="middle" x="1003" y="-309.5" font-family="Helvetica,sans-Serif" font-size="10.00" fill="#000000">_types.h</text>
</a>
</g>
</g>
<!-- Node18&#45;&gt;Node27 -->
<g id="edge47" class="edge">
<title>Node18&#45;&gt;Node27</title>
<path fill="none" stroke="#191970" d="M767.4651,-593.42C796.1704,-577.1009 854.1135,-541.6963 894,-501 941.2969,-452.7429 976.5197,-380.1259 992.8709,-342.3395"/>
<polygon fill="#191970" stroke="#191970" points="996.2959,-343.2275 996.9767,-332.6546 989.8512,-340.4953 996.2959,-343.2275"/>
</g>
<!-- Node19&#45;&gt;Node16 -->
<g id="edge27" class="edge">
<title>Node19&#45;&gt;Node16</title>
<path fill="none" stroke="#191970" d="M710.5812,-537.4649C688.0859,-530.4128 660.5612,-518.8721 641,-501 609.5441,-472.2604 590.456,-424.7064 581.7102,-398.2565"/>
<polygon fill="#191970" stroke="#191970" points="585.0209,-397.1172 578.679,-388.6301 578.3441,-399.2197 585.0209,-397.1172"/>
</g>
<!-- Node20 -->
<g id="node21" class="node">
<title>Node20</title>
<g id="a_node21"><a xlink:href="spec_2event_8h.html" target="_top" xlink:title="ODP event. ">
<polygon fill="#ffffff" stroke="#000000" points="778.5,-481.5 778.5,-500.5 885.5,-500.5 885.5,-481.5 778.5,-481.5"/>
<text text-anchor="middle" x="832" y="-488.5" font-family="Helvetica,sans-Serif" font-size="10.00" fill="#000000">odp/api/spec/event.h</text>
</a>
</g>
</g>
<!-- Node19&#45;&gt;Node20 -->
<g id="edge28" class="edge">
<title>Node19&#45;&gt;Node20</title>
<path fill="none" stroke="#191970" d="M764.2833,-537.2455C776.747,-528.7337 795.0451,-516.2375 809.4792,-506.3801"/>
<polygon fill="#191970" stroke="#191970" points="811.5962,-509.1726 817.8804,-500.6427 807.6485,-503.392 811.5962,-509.1726"/>
</g>
<!-- Node20&#45;&gt;Node1 -->
<g id="edge29" class="edge">
<title>Node20&#45;&gt;Node1</title>
<path fill="none" stroke="#191970" d="M853.155,-481.4901C873.4544,-472.3127 904.9335,-457.9441 932,-445 949.1243,-436.8106 1066.9142,-374.7631 1085,-369 1183.1645,-337.7197 1217.7477,-369.7453 1314,-333 1337.7255,-323.9425 1338.8302,-312.397 1362,-302 1416.6977,-277.4555 1438.4295,-292.916 1492,-266 1528.2243,-247.7995 1537.4878,-240.6685 1564,-210 1610.1042,-156.6682 1645.4898,-111.4843 1602,-56 1586.7402,-36.5315 1526.6422,-24.2004 1478.6398,-17.2601"/>
<polygon fill="#191970" stroke="#191970" points="1478.9883,-13.7749 1468.6007,-15.8604 1478.0215,-20.7079 1478.9883,-13.7749"/>
</g>
<!-- Node20&#45;&gt;Node10 -->
<g id="edge46" class="edge">
<title>Node20&#45;&gt;Node10</title>
<path fill="none" stroke="#191970" d="M823.6119,-481.4768C790.2106,-444.2382 661.8297,-307.5091 525,-246 439.4296,-207.5335 380.5628,-279.0054 317,-210 270.566,-159.59 296.1167,-118.1534 325,-56 329.8213,-45.6252 337.3843,-35.4613 344.3364,-27.3371"/>
<polygon fill="#191970" stroke="#191970" points="347.1334,-29.4612 351.2195,-19.686 341.9293,-24.7795 347.1334,-29.4612"/>
</g>
<!-- Node21 -->
<g id="node22" class="node">
<title>Node21</title>
<g id="a_node22"><a xlink:href="packet_8h.html" target="_top" xlink:title="ODP packet descriptor. ">
<polygon fill="#ffffff" stroke="#000000" points="834.5,-425.5 834.5,-444.5 923.5,-444.5 923.5,-425.5 834.5,-425.5"/>
<text text-anchor="middle" x="879" y="-432.5" font-family="Helvetica,sans-Serif" font-size="10.00" fill="#000000">odp/api/packet.h</text>
</a>
</g>
</g>
<!-- Node20&#45;&gt;Node21 -->
<g id="edge30" class="edge">
<title>Node20&#45;&gt;Node21</title>
<path fill="none" stroke="#191970" d="M840.1868,-481.2455C846.8589,-473.2958 856.4479,-461.8706 864.4253,-452.3656"/>
<polygon fill="#191970" stroke="#191970" points="867.1592,-454.5525 870.907,-444.6427 861.7974,-450.0524 867.1592,-454.5525"/>
</g>
<!-- Node21&#45;&gt;Node3 -->
<g id="edge31" class="edge">
<title>Node21&#45;&gt;Node3</title>
<path fill="none" stroke="#191970" d="M856.7416,-425.3762C787.8059,-395.5707 577.6444,-304.7038 496.9859,-269.8296"/>
<polygon fill="#191970" stroke="#191970" points="497.9363,-266.4275 487.3685,-265.6714 495.1583,-272.8526 497.9363,-266.4275"/>
</g>
<!-- Node21&#45;&gt;Node11 -->
<g id="edge34" class="edge">
<title>Node21&#45;&gt;Node11</title>
<path fill="none" stroke="#191970" d="M923.8724,-429.4772C1005.5572,-419.4237 1178.6685,-398.1177 1271.7235,-386.6648"/>
<polygon fill="#191970" stroke="#191970" points="1272.3446,-390.1149 1281.8421,-385.4194 1271.4894,-383.1673 1272.3446,-390.1149"/>
</g>
<!-- Node21&#45;&gt;Node13 -->
<g id="edge35" class="edge">
<title>Node21&#45;&gt;Node13</title>
<path fill="none" stroke="#191970" d="M834.4572,-429.9811C744.9665,-419.8976 543.2806,-397.1725 442.1716,-385.7799"/>
<polygon fill="#191970" stroke="#191970" points="442.4479,-382.289 432.1188,-384.6472 441.664,-389.2449 442.4479,-382.289"/>
</g>
<!-- Node21&#45;&gt;Node14 -->
<g id="edge36" class="edge">
<title>Node21&#45;&gt;Node14</title>
<path fill="none" stroke="#191970" d="M923.7417,-425.4369C968.7694,-415.8127 1038.2728,-400.957 1086.4927,-390.6504"/>
<polygon fill="#191970" stroke="#191970" points="1087.3953,-394.0366 1096.4428,-388.5237 1085.9321,-387.1912 1087.3953,-394.0366"/>
</g>
<!-- Node21&#45;&gt;Node16 -->
<g id="edge32" class="edge">
<title>Node21&#45;&gt;Node16</title>
<path fill="none" stroke="#191970" d="M834.2913,-426.737C781.7242,-417.0216 694.2567,-400.856 635.8702,-390.0651"/>
<polygon fill="#191970" stroke="#191970" points="636.1513,-386.5579 625.6818,-388.1821 634.8791,-393.4413 636.1513,-386.5579"/>
</g>
<!-- Node22 -->
<g id="node23" class="node">
<title>Node22</title>
<polygon fill="#ffffff" stroke="#bfbfbf" points="1480.5,-369.5 1480.5,-388.5 1597.5,-388.5 1597.5,-369.5 1480.5,-369.5"/>
<text text-anchor="middle" x="1539" y="-376.5" font-family="Helvetica,sans-Serif" font-size="10.00" fill="#000000">odp/api/abi/packet_io.h</text>
</g>
<!-- Node21&#45;&gt;Node22 -->
<g id="edge33" class="edge">
<title>Node21&#45;&gt;Node22</title>
<path fill="none" stroke="#191970" d="M923.5871,-431.2169C1036.4779,-421.6382 1334.2416,-396.3734 1469.9001,-384.863"/>
<polygon fill="#191970" stroke="#191970" points="1470.4982,-388.3249 1480.1665,-383.9919 1469.9064,-381.35 1470.4982,-388.3249"/>
</g>
<!-- Node23 -->
<g id="node24" class="node">
<title>Node23</title>
<g id="a_node24"><a xlink:href="spec_2packet_8h.html" target="_top" xlink:title="ODP packet descriptor. ">
<polygon fill="#ffffff" stroke="#000000" points="796.5,-369.5 796.5,-388.5 909.5,-388.5 909.5,-369.5 796.5,-369.5"/>
<text text-anchor="middle" x="853" y="-376.5" font-family="Helvetica,sans-Serif" font-size="10.00" fill="#000000">odp/api/spec/packet.h</text>
</a>
</g>
</g>
<!-- Node21&#45;&gt;Node23 -->
<g id="edge37" class="edge">
<title>Node21&#45;&gt;Node23</title>
<path fill="none" stroke="#191970" d="M874.4711,-425.2455C870.9666,-417.6973 866.0073,-407.0158 861.7377,-397.8197"/>
<polygon fill="#191970" stroke="#191970" points="864.8627,-396.2389 857.477,-388.6427 858.5136,-399.1867 864.8627,-396.2389"/>
</g>
<!-- Node23&#45;&gt;Node1 -->
<g id="edge38" class="edge">
<title>Node23&#45;&gt;Node1</title>
<path fill="none" stroke="#191970" d="M909.7167,-374.2767C998.4084,-366.4984 1165.7142,-350.1397 1223,-333 1223.2522,-332.9246 1358.7878,-266.1557 1359,-266 1447.7069,-200.9141 1489.0602,-189.1226 1530,-87 1535.1267,-74.2116 1537.7242,-67.4089 1530,-56 1518.0859,-38.4025 1498.2319,-27.5365 1478.3439,-20.8271"/>
<polygon fill="#191970" stroke="#191970" points="1479.1988,-17.4287 1468.6126,-17.8561 1477.1548,-24.1236 1479.1988,-17.4287"/>
</g>
<!-- Node23&#45;&gt;Node10 -->
<g id="edge45" class="edge">
<title>Node23&#45;&gt;Node10</title>
<path fill="none" stroke="#191970" d="M841.6303,-369.3602C830.9508,-360.2084 814.6208,-345.9624 801,-333 761.8405,-295.7333 764.7556,-269.3488 716,-246 640.8942,-210.0322 402.9719,-267.7749 343,-210 293.6706,-162.4777 319.2045,-122.1443 337,-56 339.5903,-46.3719 344.4274,-36.4702 349.0841,-28.3313"/>
<polygon fill="#191970" stroke="#191970" points="352.1215,-30.0726 354.3224,-19.7088 346.139,-26.4381 352.1215,-30.0726"/>
</g>
<!-- Node24 -->
<g id="node25" class="node">
<title>Node24</title>
<g id="a_node25"><a xlink:href="time_8h.html" target="_top" xlink:title="ODP time. ">
<polygon fill="#ffffff" stroke="#000000" points="810,-308 810,-327 888,-327 888,-308 810,-308"/>
<text text-anchor="middle" x="849" y="-315" font-family="Helvetica,sans-Serif" font-size="10.00" fill="#000000">odp/api/time.h</text>
</a>
</g>
</g>
<!-- Node23&#45;&gt;Node24 -->
<g id="edge39" class="edge">
<title>Node23&#45;&gt;Node24</title>
<path fill="none" stroke="#191970" d="M852.375,-369.3906C851.8205,-360.8657 850.9928,-348.1392 850.2958,-337.4235"/>
<polygon fill="#191970" stroke="#191970" points="853.7756,-336.9966 849.6338,-327.2449 846.7903,-337.451 853.7756,-336.9966"/>
</g>
<!-- Node24&#45;&gt;Node3 -->
<g id="edge40" class="edge">
<title>Node24&#45;&gt;Node3</title>
<path fill="none" stroke="#191970" d="M809.7099,-311.2074C742.6185,-300.4623 605.5186,-278.5049 525.9243,-265.7574"/>
<polygon fill="#191970" stroke="#191970" points="526.4649,-262.2995 516.0372,-264.1739 525.3578,-269.2114 526.4649,-262.2995"/>
</g>
<!-- Node25 -->
<g id="node26" class="node">
<title>Node25</title>
<polygon fill="#ffffff" stroke="#bfbfbf" points="802,-246.5 802,-265.5 896,-265.5 896,-246.5 802,-246.5"/>
<text text-anchor="middle" x="849" y="-253.5" font-family="Helvetica,sans-Serif" font-size="10.00" fill="#000000">odp/api/abi/time.h</text>
</g>
<!-- Node24&#45;&gt;Node25 -->
<g id="edge41" class="edge">
<title>Node24&#45;&gt;Node25</title>
<path fill="none" stroke="#191970" d="M849,-307.8906C849,-299.3657 849,-286.6392 849,-275.9235"/>
<polygon fill="#191970" stroke="#191970" points="852.5001,-275.7448 849,-265.7449 845.5001,-275.7449 852.5001,-275.7448"/>
</g>
<!-- Node26 -->
<g id="node27" class="node">
<title>Node26</title>
<g id="a_node27"><a xlink:href="spec_2time_8h.html" target="_top" xlink:title="ODP time. ">
<polygon fill="#ffffff" stroke="#000000" points="870,-62 870,-81 972,-81 972,-62 870,-62"/>
<text text-anchor="middle" x="921" y="-69" font-family="Helvetica,sans-Serif" font-size="10.00" fill="#000000">odp/api/spec/time.h</text>
</a>
</g>
</g>
<!-- Node24&#45;&gt;Node26 -->
<g id="edge42" class="edge">
<title>Node24&#45;&gt;Node26</title>
<path fill="none" stroke="#191970" d="M832.5113,-307.8327C819.0591,-298.8989 801.0163,-284.2628 793,-266 789.4273,-257.8607 790.2339,-254.4476 793,-246 814.8012,-179.4192 872.754,-117.2502 902.6264,-88.3909"/>
<polygon fill="#191970" stroke="#191970" points="905.4057,-90.5789 910.254,-81.1584 900.5892,-85.4993 905.4057,-90.5789"/>
</g>
<!-- Node26&#45;&gt;Node1 -->
<g id="edge43" class="edge">
<title>Node26&#45;&gt;Node1</title>
<path fill="none" stroke="#191970" d="M957.2722,-61.9886C966.5868,-59.7839 976.6249,-57.6137 986,-56 1114.6197,-33.8614 1266.8812,-20.55 1351.0251,-14.3051"/>
<polygon fill="#191970" stroke="#191970" points="1351.4741,-17.7817 1361.1917,-13.5604 1350.9627,-10.8004 1351.4741,-17.7817"/>
</g>
<!-- Node26&#45;&gt;Node10 -->
<g id="edge44" class="edge">
<title>Node26&#45;&gt;Node10</title>
<path fill="none" stroke="#191970" d="M887.324,-61.9382C878.4924,-59.7077 868.9379,-57.5377 860,-56 703.1876,-29.021 515.7439,-17.1124 421.4751,-12.511"/>
<polygon fill="#191970" stroke="#191970" points="421.4283,-9.0049 411.2728,-12.0239 421.0945,-15.9969 421.4283,-9.0049"/>
</g>
<!-- Node27&#45;&gt;Node1 -->
<g id="edge48" class="edge">
<title>Node27&#45;&gt;Node1</title>
<path fill="none" stroke="#191970" d="M1053.6718,-306.0795C1103.5974,-294.5355 1176.1729,-276.8892 1203,-266 1249.482,-247.1328 1266.5257,-246.4427 1301,-210 1353.5879,-154.4094 1336.6723,-120.4036 1378,-56 1384.3931,-46.0373 1392.549,-35.7008 1399.5757,-27.3557"/>
<polygon fill="#191970" stroke="#191970" points="1402.2426,-29.6225 1406.1189,-19.7621 1396.9397,-25.0531 1402.2426,-29.6225"/>
</g>
<!-- Node27&#45;&gt;Node10 -->
<g id="edge62" class="edge">
<title>Node27&#45;&gt;Node10</title>
<path fill="none" stroke="#191970" d="M988.0098,-302.2455C970.0681,-285.0993 938.2553,-258.0827 905,-246 848.5859,-225.503 407.5482,-253.3177 366,-210 318.6496,-160.6329 341.1943,-68.8554 354.1158,-29.1384"/>
<polygon fill="#191970" stroke="#191970" points="357.4536,-30.1942 357.366,-19.5997 350.8277,-27.9365 357.4536,-30.1942"/>
</g>
<!-- Node28 -->
<g id="node29" class="node">
<title>Node28</title>
<g id="a_node29"><a xlink:href="schedule__types_8h.html" target="_top" xlink:title="ODP schedule. ">
<polygon fill="#ffffff" stroke="#000000" points="1066,-246.5 1066,-265.5 1194,-265.5 1194,-246.5 1066,-246.5"/>
<text text-anchor="middle" x="1130" y="-253.5" font-family="Helvetica,sans-Serif" font-size="10.00" fill="#000000">odp/api/schedule_types.h</text>
</a>
</g>
</g>
<!-- Node27&#45;&gt;Node28 -->
<g id="edge49" class="edge">
<title>Node27&#45;&gt;Node28</title>
<path fill="none" stroke="#191970" d="M1034.0677,-302.4554C1054.5145,-292.554 1081.0937,-279.683 1101.0885,-270.0004"/>
<polygon fill="#191970" stroke="#191970" points="1102.8447,-273.0388 1110.3195,-265.5303 1099.7938,-266.7387 1102.8447,-273.0388"/>
</g>
<!-- Node33 -->
<g id="node34" class="node">
<title>Node33</title>
<g id="a_node34"><a xlink:href="deprecated_8h.html" target="_top" xlink:title="Control deprecated API definitions. ">
<polygon fill="#ffffff" stroke="#000000" points="600.5,-246.5 600.5,-265.5 707.5,-265.5 707.5,-246.5 600.5,-246.5"/>
<text text-anchor="middle" x="654" y="-253.5" font-family="Helvetica,sans-Serif" font-size="10.00" fill="#000000">odp/api/deprecated.h</text>
</a>
</g>
</g>
<!-- Node27&#45;&gt;Node33 -->
<g id="edge58" class="edge">
<title>Node27&#45;&gt;Node33</title>
<path fill="none" stroke="#191970" d="M952.2524,-308.5574C890.2144,-297.6252 785.1819,-279.1166 717.7519,-267.2342"/>
<polygon fill="#191970" stroke="#191970" points="718.1312,-263.7472 707.6756,-265.4586 716.9164,-270.641 718.1312,-263.7472"/>
</g>
<!-- Node29 -->
<g id="node30" class="node">
<title>Node29</title>
<polygon fill="#ffffff" stroke="#bfbfbf" points="1054,-179.5 1054,-209.5 1160,-209.5 1160,-179.5 1054,-179.5"/>
<text text-anchor="start" x="1062" y="-197.5" font-family="Helvetica,sans-Serif" font-size="10.00" fill="#000000">odp/api/abi/schedule</text>
<text text-anchor="middle" x="1107" y="-186.5" font-family="Helvetica,sans-Serif" font-size="10.00" fill="#000000">_types.h</text>
</g>
<!-- Node28&#45;&gt;Node29 -->
<g id="edge50" class="edge">
<title>Node28&#45;&gt;Node29</title>
<path fill="none" stroke="#191970" d="M1126.4063,-246.3906C1123.6682,-239.0692 1119.7711,-228.6488 1116.1868,-219.0647"/>
<polygon fill="#191970" stroke="#191970" points="1119.4076,-217.685 1112.6264,-209.5446 1112.8511,-220.137 1119.4076,-217.685"/>
</g>
<!-- Node30 -->
<g id="node31" class="node">
<title>Node30</title>
<g id="a_node31"><a xlink:href="spec_2schedule__types_8h.html" target="_top" xlink:title="ODP schedule types. ">
<polygon fill="#ffffff" stroke="#000000" points="1178,-179.5 1178,-209.5 1292,-209.5 1292,-179.5 1178,-179.5"/>
<text text-anchor="start" x="1186" y="-197.5" font-family="Helvetica,sans-Serif" font-size="10.00" fill="#000000">odp/api/spec/schedule</text>
<text text-anchor="middle" x="1235" y="-186.5" font-family="Helvetica,sans-Serif" font-size="10.00" fill="#000000">_types.h</text>
</a>
</g>
</g>
<!-- Node28&#45;&gt;Node30 -->
<g id="edge51" class="edge">
<title>Node28&#45;&gt;Node30</title>
<path fill="none" stroke="#191970" d="M1146.4063,-246.3906C1160.8799,-237.9132 1182.4472,-225.2809 1200.6781,-214.6028"/>
<polygon fill="#191970" stroke="#191970" points="1202.4542,-217.6188 1209.3141,-209.5446 1198.9163,-211.5786 1202.4542,-217.6188"/>
</g>
<!-- Node30&#45;&gt;Node1 -->
<g id="edge52" class="edge">
<title>Node30&#45;&gt;Node1</title>
<path fill="none" stroke="#191970" d="M1248.107,-179.3181C1256.3637,-169.3631 1266.9456,-155.8554 1275,-143 1297.9002,-106.4497 1287.2549,-86.2504 1318,-56 1333.0468,-41.1953 1353.7656,-30.4866 1372.1925,-23.1474"/>
<polygon fill="#191970" stroke="#191970" points="1373.4528,-26.4128 1381.5775,-19.6128 1370.9856,-19.862 1373.4528,-26.4128"/>
</g>
<!-- Node30&#45;&gt;Node10 -->
<g id="edge57" class="edge">
<title>Node30&#45;&gt;Node10</title>
<path fill="none" stroke="#191970" d="M1177.8785,-180.4464C1174.8847,-179.9102 1171.912,-179.4224 1169,-179 1031.1024,-158.9964 674.1651,-190.0279 543,-143 524.6526,-136.4217 424.6432,-59.5381 381.1813,-25.7558"/>
<polygon fill="#191970" stroke="#191970" points="383.3247,-22.9889 373.2838,-19.6076 379.0246,-28.5124 383.3247,-22.9889"/>
</g>
<!-- Node30&#45;&gt;Node31 -->
<g id="edge53" class="edge">
<title>Node30&#45;&gt;Node31</title>
<path fill="none" stroke="#191970" d="M1231.2921,-179.2977C1229.3401,-171.2945 1226.923,-161.3843 1224.8266,-152.7889"/>
<polygon fill="#191970" stroke="#191970" points="1228.1716,-151.7328 1222.4017,-142.8469 1221.371,-153.3915 1228.1716,-151.7328"/>
</g>
<!-- Node32 -->
<g id="node33" class="node">
<title>Node32</title>
<g id="a_node33"><a xlink:href="spec_2support_8h.html" target="_top" xlink:title="ODP support API. ">
<polygon fill="#ffffff" stroke="#000000" points="1150,-62 1150,-81 1266,-81 1266,-62 1150,-62"/>
<text text-anchor="middle" x="1208" y="-69" font-family="Helvetica,sans-Serif" font-size="10.00" fill="#000000">odp/api/spec/support.h</text>
</a>
</g>
</g>
<!-- Node31&#45;&gt;Node32 -->
<g id="edge54" class="edge">
<title>Node31&#45;&gt;Node32</title>
<path fill="none" stroke="#191970" d="M1218.125,-123.3906C1216.4441,-114.776 1213.926,-101.8708 1211.8216,-91.0858"/>
<polygon fill="#191970" stroke="#191970" points="1215.2518,-90.3895 1209.9014,-81.2449 1208.3814,-91.7301 1215.2518,-90.3895"/>
</g>
<!-- Node32&#45;&gt;Node1 -->
<g id="edge55" class="edge">
<title>Node32&#45;&gt;Node1</title>
<path fill="none" stroke="#191970" d="M1240.3438,-61.8906C1276.118,-51.2621 1333.8747,-34.1025 1373.0905,-22.4514"/>
<polygon fill="#191970" stroke="#191970" points="1374.2943,-25.745 1382.8834,-19.5419 1372.3007,-19.0349 1374.2943,-25.745"/>
</g>
<!-- Node32&#45;&gt;Node10 -->
<g id="edge56" class="edge">
<title>Node32&#45;&gt;Node10</title>
<path fill="none" stroke="#191970" d="M1171.6992,-61.9292C1161.8052,-59.6426 1151.0445,-57.4475 1141,-56 1002.2295,-36.0017 579.0024,-18.3072 421.1757,-12.235"/>
<polygon fill="#191970" stroke="#191970" points="421.2962,-8.7371 411.1696,-11.8519 421.0283,-15.732 421.2962,-8.7371"/>
</g>
<!-- Node34 -->
<g id="node35" class="node">
<title>Node34</title>
<g id="a_node35"><a xlink:href="spec_2deprecated_8h.html" target="_top" xlink:title="Macro for deprecated API definitions. ">
<polygon fill="#ffffff" stroke="#000000" points="720.5,-62 720.5,-81 851.5,-81 851.5,-62 720.5,-62"/>
<text text-anchor="middle" x="786" y="-69" font-family="Helvetica,sans-Serif" font-size="10.00" fill="#000000">odp/api/spec/deprecated.h</text>
</a>
</g>
</g>
<!-- Node33&#45;&gt;Node34 -->
<g id="edge59" class="edge">
<title>Node33&#45;&gt;Node34</title>
<path fill="none" stroke="#191970" d="M660.911,-246.3402C682.0282,-216.8242 745.927,-127.5111 773.3152,-89.2299"/>
<polygon fill="#191970" stroke="#191970" points="776.1852,-91.2335 779.1574,-81.0641 770.4922,-87.1605 776.1852,-91.2335"/>
</g>
<!-- Node34&#45;&gt;Node1 -->
<g id="edge60" class="edge">
<title>Node34&#45;&gt;Node1</title>
<path fill="none" stroke="#191970" d="M827.4964,-61.991C838.3537,-59.7597 850.0775,-57.5762 861,-56 1037.3893,-30.5454 1247.5604,-17.8787 1351.0022,-12.7956"/>
<polygon fill="#191970" stroke="#191970" points="1351.4574,-16.2778 1361.2765,-12.2986 1351.119,-9.286 1351.4574,-16.2778"/>
</g>
<!-- Node34&#45;&gt;Node10 -->
<g id="edge61" class="edge">
<title>Node34&#45;&gt;Node10</title>
<path fill="none" stroke="#191970" d="M742.4768,-61.9438C732.1834,-59.8396 721.2262,-57.7263 711,-56 609.6263,-38.8866 490.8235,-24.4495 420.9613,-16.5295"/>
<polygon fill="#191970" stroke="#191970" points="421.3459,-13.0507 411.0168,-15.4087 420.5619,-20.0067 421.3459,-13.0507"/>
</g>
<!-- Node35&#45;&gt;Node1 -->
<g id="edge65" class="edge">
<title>Node35&#45;&gt;Node1</title>
<path fill="none" stroke="#191970" d="M722.9748,-481.4277C740.2242,-472.2051 766.978,-457.805 790,-445 805.6572,-436.2914 808.4011,-431.7427 825,-425 871.1406,-406.2571 993.2434,-379.1507 1042,-369 1141.5757,-348.2692 1173.3754,-370.2996 1268,-333 1290.936,-323.9589 1292.6738,-314.3691 1314,-302 1345.2927,-283.8505 1355.7122,-284.158 1387,-266 1425.488,-243.6634 1437.5056,-240.4033 1470,-210 1525.8781,-157.7177 1591.3216,-118.3811 1547,-56 1537.4782,-42.5983 1501.063,-30.4978 1468.8872,-22.0748"/>
<polygon fill="#191970" stroke="#191970" points="1469.6262,-18.6515 1459.0722,-19.5815 1467.9026,-25.436 1469.6262,-18.6515"/>
</g>
<!-- Node35&#45;&gt;Node10 -->
<g id="edge69" class="edge">
<title>Node35&#45;&gt;Node10</title>
<path fill="none" stroke="#191970" d="M701.8272,-481.3576C693.9193,-458.7157 671.2463,-401.607 634,-369 495.6334,-247.868 354.0364,-362.993 252,-210 214.0233,-153.0578 214.1635,-113.0355 252,-56 263.3161,-38.9419 282.3413,-28.1937 301.3581,-21.4277"/>
<polygon fill="#191970" stroke="#191970" points="302.5177,-24.7313 310.9588,-18.3282 300.3671,-18.0698 302.5177,-24.7313"/>
</g>
<!-- Node35&#45;&gt;Node21 -->
<g id="edge68" class="edge">
<title>Node35&#45;&gt;Node21</title>
<path fill="none" stroke="#191970" d="M734.9117,-481.3733C763.8452,-472.0613 807.8611,-457.8953 839.6293,-447.671"/>
<polygon fill="#191970" stroke="#191970" points="841.0318,-450.8965 849.4787,-444.5011 838.8872,-444.2331 841.0318,-450.8965"/>
</g>
<!-- Node35&#45;&gt;Node31 -->
<g id="edge67" class="edge">
<title>Node35&#45;&gt;Node31</title>
<path fill="none" stroke="#191970" d="M715.1234,-481.2763C730.5255,-466.9849 761.3076,-440.3462 792,-425 844.0922,-398.9539 876.7862,-430.1513 918,-389 946.4695,-360.5737 924.2055,-337.5715 943,-302 976.1768,-239.2078 985.1239,-217.1891 1045,-179 1080.83,-156.1476 1127.6608,-144.602 1163.8602,-138.7948"/>
<polygon fill="#191970" stroke="#191970" points="1164.4022,-142.2527 1173.7704,-137.3044 1163.3611,-135.3305 1164.4022,-142.2527"/>
</g>
<!-- Node35&#45;&gt;Node33 -->
<g id="edge66" class="edge">
<title>Node35&#45;&gt;Node33</title>
<path fill="none" stroke="#191970" d="M702.9376,-481.4967C695.3133,-446.3651 668.6255,-323.3922 658.2093,-275.3958"/>
<polygon fill="#191970" stroke="#191970" points="661.6294,-274.6518 656.0881,-265.6216 654.7886,-276.1364 661.6294,-274.6518"/>
</g>
<!-- Node36&#45;&gt;Node3 -->
<g id="edge72" class="edge">
<title>Node36&#45;&gt;Node3</title>
<path fill="none" stroke="#191970" d="M1117.2697,-766.5734C1095.3584,-764.731 1069.4254,-762.6432 1046,-761 771.9847,-741.7786 699.3295,-773.7422 429,-725 336.4661,-708.3155 228,-753.026 228,-659 228,-659 228,-659 228,-435 228,-367.1381 249.6823,-343.9816 303,-302 319.2527,-289.2028 367.0365,-276.498 406.5269,-267.6937"/>
<polygon fill="#191970" stroke="#191970" points="407.3429,-271.098 416.3638,-265.5416 405.8468,-264.2597 407.3429,-271.098"/>
</g>
<!-- Node36&#45;&gt;Node11 -->
<g id="edge75" class="edge">
<title>Node36&#45;&gt;Node11</title>
<path fill="none" stroke="#191970" d="M1183.6553,-761.4433C1225.0919,-735.1006 1337.2358,-656.7416 1378,-557 1387.7928,-533.0391 1370.1895,-525.5552 1362,-501 1350.248,-465.7629 1341.7066,-423.1916 1337.3277,-398.7892"/>
<polygon fill="#191970" stroke="#191970" points="1340.7282,-397.9149 1335.5642,-388.6638 1333.832,-399.1161 1340.7282,-397.9149"/>
</g>
<!-- Node36&#45;&gt;Node14 -->
<g id="edge73" class="edge">
<title>Node36&#45;&gt;Node14</title>
<path fill="none" stroke="#191970" d="M1175.3819,-761.4183C1181.7273,-752.5336 1190.4061,-738.6624 1194,-725 1196.2613,-716.4036 1194.7155,-713.86 1194,-705 1184.5166,-587.5704 1156.1163,-448.6457 1145.2725,-398.3698"/>
<polygon fill="#191970" stroke="#191970" points="1148.6776,-397.5573 1143.1291,-388.5316 1141.8381,-399.0474 1148.6776,-397.5573"/>
</g>
<!-- Node36&#45;&gt;Node17 -->
<g id="edge77" class="edge">
<title>Node36&#45;&gt;Node17</title>
<path fill="none" stroke="#191970" d="M1117.3787,-763.2413C1093.62,-756.9399 1067.0593,-745.5518 1051,-725 1027.9704,-695.5281 1028.9583,-649.3013 1031.8832,-623.0248"/>
<polygon fill="#191970" stroke="#191970" points="1035.3955,-623.1618 1033.2373,-612.7891 1028.4559,-622.2436 1035.3955,-623.1618"/>
</g>
<!-- Node36&#45;&gt;Node22 -->
<g id="edge76" class="edge">
<title>Node36&#45;&gt;Node22</title>
<path fill="none" stroke="#191970" d="M1191.7241,-761.4672C1211.3142,-753.1163 1239.4597,-739.9931 1262,-725 1356.4099,-662.2014 1385.493,-647.3531 1454,-557 1493.2068,-505.2907 1520.9432,-432.6057 1532.7086,-398.3293"/>
<polygon fill="#191970" stroke="#191970" points="1536.1016,-399.2193 1535.9616,-388.6254 1529.4646,-396.9943 1536.1016,-399.2193"/>
</g>
<!-- Node37 -->
<g id="node38" class="node">
<title>Node37</title>
<polygon fill="#ffffff" stroke="#bfbfbf" points="1318,-705.5 1318,-724.5 1450,-724.5 1450,-705.5 1318,-705.5"/>
<text text-anchor="middle" x="1384" y="-712.5" font-family="Helvetica,sans-Serif" font-size="10.00" fill="#000000">odp/api/abi/classification.h</text>
</g>
<!-- Node36&#45;&gt;Node37 -->
<g id="edge74" class="edge">
<title>Node36&#45;&gt;Node37</title>
<path fill="none" stroke="#191970" d="M1205.1317,-761.3733C1241.8267,-751.8598 1298.0639,-737.2797 1337.6651,-727.0127"/>
<polygon fill="#191970" stroke="#191970" points="1338.5512,-730.3988 1347.3528,-724.5011 1336.7944,-723.6228 1338.5512,-730.3988"/>
</g>
<!-- Node38 -->
<g id="node39" class="node">
<title>Node38</title>
<g id="a_node39"><a xlink:href="spec_2packet__io_8h.html" target="_top" xlink:title="ODP Packet IO. ">
<polygon fill="#ffffff" stroke="#000000" points="1060.5,-705.5 1060.5,-724.5 1185.5,-724.5 1185.5,-705.5 1060.5,-705.5"/>
<text text-anchor="middle" x="1123" y="-712.5" font-family="Helvetica,sans-Serif" font-size="10.00" fill="#000000">odp/api/spec/packet_io.h</text>
</a>
</g>
</g>
<!-- Node36&#45;&gt;Node38 -->
<g id="edge78" class="edge">
<title>Node36&#45;&gt;Node38</title>
<path fill="none" stroke="#191970" d="M1160.1616,-761.2455C1153.838,-753.3761 1144.7776,-742.101 1137.1864,-732.6542"/>
<polygon fill="#191970" stroke="#191970" points="1139.7408,-730.2454 1130.7486,-724.6427 1134.2842,-734.6302 1139.7408,-730.2454"/>
</g>
<!-- Node38&#45;&gt;Node1 -->
<g id="edge79" class="edge">
<title>Node38&#45;&gt;Node1</title>
<path fill="none" stroke="#191970" d="M1138.1773,-705.4612C1175.0445,-682.0264 1271.6727,-619.0101 1345,-557 1371.8763,-534.2717 1380.0788,-529.3058 1401,-501 1440.4702,-447.5979 1432.5839,-423.1653 1471,-369 1526.6759,-290.4989 1561.2177,-287.7045 1618,-210 1638.1981,-182.3597 1647.2666,-176.101 1656,-143 1662.304,-119.1067 1659.9765,-68.0117 1649,-56 1626.5451,-31.4273 1539.9782,-19.5752 1478.6983,-14.1584"/>
<polygon fill="#191970" stroke="#191970" points="1478.9743,-10.6693 1468.7145,-13.3125 1478.3833,-17.6443 1478.9743,-10.6693"/>
</g>
<!-- Node38&#45;&gt;Node10 -->
<g id="edge88" class="edge">
<title>Node38&#45;&gt;Node10</title>
<path fill="none" stroke="#191970" d="M1060.2645,-711.3979C937.8519,-704.0855 671.2394,-686.688 581,-669 491.6794,-651.4921 190,-638.0203 190,-547 190,-547 190,-547 190,-491 190,-406.8153 114,-401.6847 114,-317.5 114,-317.5 114,-317.5 114,-133 114,-49.8444 227.5648,-22.9066 300.685,-14.1806"/>
<polygon fill="#191970" stroke="#191970" points="301.1657,-17.6489 310.7181,-13.0663 300.3929,-10.6916 301.1657,-17.6489"/>
</g>
<!-- Node38&#45;&gt;Node15 -->
<g id="edge85" class="edge">
<title>Node38&#45;&gt;Node15</title>
<path fill="none" stroke="#191970" d="M1060.1218,-706.6162C977.4467,-695.5929 833.634,-676.4179 756.1283,-666.0838"/>
<polygon fill="#191970" stroke="#191970" points="756.4761,-662.5993 746.1012,-664.7468 755.5509,-669.5379 756.4761,-662.5993"/>
</g>
<!-- Node38&#45;&gt;Node21 -->
<g id="edge87" class="edge">
<title>Node38&#45;&gt;Node21</title>
<path fill="none" stroke="#191970" d="M1122.8967,-705.2509C1122.2225,-683.3424 1118.0511,-629.2961 1094,-593 1047.2019,-522.3759 957.5291,-472.0172 910.1329,-449.016"/>
<polygon fill="#191970" stroke="#191970" points="911.5006,-445.7907 900.9669,-444.6539 908.4925,-452.1115 911.5006,-445.7907"/>
</g>
<!-- Node38&#45;&gt;Node24 -->
<g id="edge86" class="edge">
<title>Node38&#45;&gt;Node24</title>
<path fill="none" stroke="#191970" d="M1127.0751,-705.385C1148.1295,-655.0146 1241.87,-421.859 1196,-369 1158.7802,-326.1092 999.1305,-341.6202 943,-333 928.5293,-330.7777 912.8276,-328.2391 898.4761,-325.8686"/>
<polygon fill="#191970" stroke="#191970" points="898.7398,-322.3646 888.3015,-324.1792 897.5931,-329.27 898.7398,-322.3646"/>
</g>
<!-- Node38&#45;&gt;Node33 -->
<g id="edge80" class="edge">
<title>Node38&#45;&gt;Node33</title>
<path fill="none" stroke="#191970" d="M1060.1096,-711.4934C949.9167,-704.9134 726.4795,-689.5084 651,-669 466.0355,-618.7436 392.8446,-567.4918 323,-389 319.7609,-380.7223 317.8287,-376.2298 323,-369 355.1543,-324.0464 508.9543,-285.8857 595.1355,-267.5885"/>
<polygon fill="#191970" stroke="#191970" points="595.9746,-270.9888 605.0425,-265.5094 594.5368,-264.138 595.9746,-270.9888"/>
</g>
<!-- Node39 -->
<g id="node40" class="node">
<title>Node39</title>
<g id="a_node40"><a xlink:href="packet__io__stats_8h.html" target="_top" xlink:title="ODP packet IO stats. ">
<polygon fill="#ffffff" stroke="#000000" points="1208,-537.5 1208,-556.5 1336,-556.5 1336,-537.5 1208,-537.5"/>
<text text-anchor="middle" x="1272" y="-544.5" font-family="Helvetica,sans-Serif" font-size="10.00" fill="#000000">odp/api/packet_io_stats.h</text>
</a>
</g>
</g>
<!-- Node38&#45;&gt;Node39 -->
<g id="edge81" class="edge">
<title>Node38&#45;&gt;Node39</title>
<path fill="none" stroke="#191970" d="M1133.1392,-705.2577C1142.2404,-696.265 1155.7112,-682.3254 1166,-669 1190.4157,-637.3784 1187.3048,-622.7223 1214,-593 1224.3335,-581.4948 1237.7667,-570.6425 1249.1028,-562.3711"/>
<polygon fill="#191970" stroke="#191970" points="1251.1398,-565.2174 1257.2768,-556.5809 1247.0935,-559.5053 1251.1398,-565.2174"/>
</g>
<!-- Node40 -->
<g id="node41" class="node">
<title>Node40</title>
<g id="a_node41"><a xlink:href="spec_2packet__io__stats_8h.html" target="_top" xlink:title="ODP Packet IO. ">
<polygon fill="#ffffff" stroke="#000000" points="1028,-56.5 1028,-86.5 1132,-86.5 1132,-56.5 1028,-56.5"/>
<text text-anchor="start" x="1036" y="-74.5" font-family="Helvetica,sans-Serif" font-size="10.00" fill="#000000">odp/api/spec/packet</text>
<text text-anchor="middle" x="1080" y="-63.5" font-family="Helvetica,sans-Serif" font-size="10.00" fill="#000000">_io_stats.h</text>
</a>
</g>
</g>
<!-- Node39&#45;&gt;Node40 -->
<g id="edge82" class="edge">
<title>Node39&#45;&gt;Node40</title>
<path fill="none" stroke="#191970" d="M1304.222,-537.4626C1346.118,-522.8408 1414,-490.5748 1414,-435 1414,-435 1414,-435 1414,-379 1414,-369.4574 1403.682,-372.9604 1395,-369 1320.3595,-334.952 1301.5547,-325.6563 1223,-302 1150.7138,-280.2314 1110.3156,-319.4473 1057,-266 1011.7588,-220.6471 1045.5622,-136.7087 1066.5705,-95.5392"/>
<polygon fill="#191970" stroke="#191970" points="1069.7657,-96.9831 1071.3291,-86.5042 1063.5722,-93.721 1069.7657,-96.9831"/>
</g>
<!-- Node40&#45;&gt;Node1 -->
<g id="edge83" class="edge">
<title>Node40&#45;&gt;Node1</title>
<path fill="none" stroke="#191970" d="M1132.1773,-57.9405C1135.1566,-57.2602 1138.1131,-56.608 1141,-56 1212.6499,-40.9094 1295.6704,-27.541 1351.383,-19.1585"/>
<polygon fill="#191970" stroke="#191970" points="1352.0866,-22.5923 1361.4591,-17.652 1351.0514,-15.6692 1352.0866,-22.5923"/>
</g>
<!-- Node40&#45;&gt;Node10 -->
<g id="edge84" class="edge">
<title>Node40&#45;&gt;Node10</title>
<path fill="none" stroke="#191970" d="M1027.958,-62.5392C1012.8466,-60.1579 996.2951,-57.7618 981,-56 776.42,-32.4351 532.4005,-18.4446 421.3638,-12.8463"/>
<polygon fill="#191970" stroke="#191970" points="421.5209,-9.3499 411.3587,-12.3465 421.1716,-16.3412 421.5209,-9.3499"/>
</g>
<!-- Node42 -->
<g id="node43" class="node">
<title>Node42</title>
<g id="a_node43"><a xlink:href="spec_2protocols_8h.html" target="_top" xlink:title="ODP protocols. ">
<polygon fill="#ffffff" stroke="#000000" points="1398.5,-62 1398.5,-81 1521.5,-81 1521.5,-62 1398.5,-62"/>
<text text-anchor="middle" x="1460" y="-69" font-family="Helvetica,sans-Serif" font-size="10.00" fill="#000000">odp/api/spec/protocols.h</text>
</a>
</g>
</g>
<!-- Node41&#45;&gt;Node42 -->
<g id="edge90" class="edge">
<title>Node41&#45;&gt;Node42</title>
<path fill="none" stroke="#191970" d="M1847.089,-425.3961C1834.9066,-412.3632 1812.2506,-388.4687 1792,-369 1676.5218,-257.9806 1530.7508,-132.0105 1479.1569,-87.8366"/>
<polygon fill="#191970" stroke="#191970" points="1481.3123,-85.0746 1471.4372,-81.2363 1476.7634,-90.395 1481.3123,-85.0746"/>
</g>
<!-- Node42&#45;&gt;Node1 -->
<g id="edge91" class="edge">
<title>Node42&#45;&gt;Node1</title>
<path fill="none" stroke="#191970" d="M1452.9688,-61.8906C1446.337,-52.8273 1436.2304,-39.0149 1428.1113,-27.9188"/>
<polygon fill="#191970" stroke="#191970" points="1430.8601,-25.7484 1422.1304,-19.7449 1425.2109,-29.882 1430.8601,-25.7484"/>
</g>
<!-- Node42&#45;&gt;Node10 -->
<g id="edge92" class="edge">
<title>Node42&#45;&gt;Node10</title>
<path fill="none" stroke="#191970" d="M1398.3721,-65.8196C1362.4128,-62.6344 1316.1628,-58.7594 1275,-56 953.3819,-34.4396 567.4824,-18.1617 421.1839,-12.3348"/>
<polygon fill="#191970" stroke="#191970" points="421.1996,-8.8328 411.0686,-11.9334 420.9219,-15.8273 421.1996,-8.8328"/>
</g>
<!-- Node43&#45;&gt;Node3 -->
<g id="edge94" class="edge">
<title>Node43&#45;&gt;Node3</title>
<path fill="none" stroke="#191970" d="M1353.9655,-887.5393C1279.7016,-879.1338 1147.1243,-863.6632 1034,-848 835.4447,-820.5081 152,-859.4495 152,-659 152,-659 152,-659 152,-491 152,-393.3587 185.1268,-359.5573 264,-302 286.0267,-285.9261 353.0188,-272.6929 403.6586,-264.6118"/>
<polygon fill="#191970" stroke="#191970" points="404.2112,-268.068 413.5504,-263.0649 403.1297,-261.152 404.2112,-268.068"/>
</g>
<!-- Node43&#45;&gt;Node11 -->
<g id="edge97" class="edge">
<title>Node43&#45;&gt;Node11</title>
<path fill="none" stroke="#191970" d="M1423.0594,-884.4212C1432.4593,-875.7503 1445.7119,-862.1951 1454,-848 1498.5751,-771.6563 1516,-747.4042 1516,-659 1516,-659 1516,-659 1516,-603 1516,-504.8839 1409.519,-425.8108 1359.45,-394.0528"/>
<polygon fill="#191970" stroke="#191970" points="1361.1378,-390.981 1350.7959,-388.6796 1357.4454,-396.928 1361.1378,-390.981"/>
</g>
<!-- Node43&#45;&gt;Node14 -->
<g id="edge95" class="edge">
<title>Node43&#45;&gt;Node14</title>
<path fill="none" stroke="#191970" d="M1418.0272,-884.4604C1434.8677,-856.5725 1479.8544,-772.8733 1459,-705 1411.2055,-549.4468 1234.7118,-433.2954 1167.3563,-393.7367"/>
<polygon fill="#191970" stroke="#191970" points="1169.009,-390.6493 1158.6012,-388.667 1165.5012,-396.707 1169.009,-390.6493"/>
</g>
<!-- Node43&#45;&gt;Node17 -->
<g id="edge99" class="edge">
<title>Node43&#45;&gt;Node17</title>
<path fill="none" stroke="#191970" d="M1353.8789,-889.1141C1239.0239,-877.8502 994,-845.1331 994,-771 994,-771 994,-771 994,-715 994,-680.3444 1011.5245,-643.1312 1023.6592,-621.5174"/>
<polygon fill="#191970" stroke="#191970" points="1026.7581,-623.1511 1028.773,-612.7496 1020.7114,-619.6243 1026.7581,-623.1511"/>
</g>
<!-- Node43&#45;&gt;Node22 -->
<g id="edge98" class="edge">
<title>Node43&#45;&gt;Node22</title>
<path fill="none" stroke="#191970" d="M1439.7161,-884.3928C1481.0407,-868.096 1554,-830.8491 1554,-771 1554,-771 1554,-771 1554,-491 1554,-458.2739 1547.6307,-420.641 1543.193,-398.3923"/>
<polygon fill="#191970" stroke="#191970" points="1546.6058,-397.6123 1541.1491,-388.5307 1539.7515,-399.0329 1546.6058,-397.6123"/>
</g>
<!-- Node43&#45;&gt;Node37 -->
<g id="edge96" class="edge">
<title>Node43&#45;&gt;Node37</title>
<path fill="none" stroke="#191970" d="M1410.4946,-884.3762C1406.0697,-856.0883 1393.0411,-772.7987 1387.0623,-734.5767"/>
<polygon fill="#191970" stroke="#191970" points="1390.5163,-734.0103 1385.5128,-724.6714 1383.6004,-735.0922 1390.5163,-734.0103"/>
</g>
<!-- Node44 -->
<g id="node45" class="node">
<title>Node44</title>
<g id="a_node45"><a xlink:href="spec_2classification_8h.html" target="_top" xlink:title="ODP classification descriptor. ">
<polygon fill="#ffffff" stroke="#000000" points="1582,-823 1582,-842 1722,-842 1722,-823 1582,-823"/>
<text text-anchor="middle" x="1652" y="-830" font-family="Helvetica,sans-Serif" font-size="10.00" fill="#000000">odp/api/spec/classification.h</text>
</a>
</g>
</g>
<!-- Node43&#45;&gt;Node44 -->
<g id="edge100" class="edge">
<title>Node43&#45;&gt;Node44</title>
<path fill="none" stroke="#191970" d="M1449.2367,-884.4581C1491.0994,-873.7308 1559.1628,-856.2895 1604.7415,-844.61"/>
<polygon fill="#191970" stroke="#191970" points="1605.8578,-847.9371 1614.676,-842.0643 1604.1201,-841.1562 1605.8578,-847.9371"/>
</g>
<!-- Node44&#45;&gt;Node1 -->
<g id="edge101" class="edge">
<title>Node44&#45;&gt;Node1</title>
<path fill="none" stroke="#191970" d="M1665.9656,-822.9868C1698.7713,-799.3874 1778,-734.5701 1778,-659 1778,-659 1778,-659 1778,-133 1778,-97.154 1781.3759,-79.1409 1754,-56 1733.3968,-38.5841 1571.2824,-22.7186 1478.9021,-14.9753"/>
<polygon fill="#191970" stroke="#191970" points="1479.073,-11.4776 1468.8179,-14.1391 1478.4944,-18.4536 1479.073,-11.4776"/>
</g>
<!-- Node44&#45;&gt;Node10 -->
<g id="edge109" class="edge">
<title>Node44&#45;&gt;Node10</title>
<path fill="none" stroke="#191970" d="M1581.5883,-830.1274C1313.2149,-820.6777 363.414,-783.3775 242,-725 144.5091,-678.1251 76,-655.1745 76,-547 76,-547 76,-547 76,-133 76,-91.952 92.8904,-78.8358 127,-56 154.8882,-37.3293 241.2998,-23.858 300.9263,-16.4886"/>
<polygon fill="#191970" stroke="#191970" points="301.482,-19.947 310.9892,-15.2711 300.6412,-12.9977 301.482,-19.947"/>
</g>
<!-- Node44&#45;&gt;Node31 -->
<g id="edge103" class="edge">
<title>Node44&#45;&gt;Node31</title>
<path fill="none" stroke="#191970" d="M1661.6741,-822.8417C1670.7037,-813.1643 1683.7028,-797.3878 1690,-781 1709.543,-730.1417 1702,-713.4839 1702,-659 1702,-659 1702,-659 1702,-435 1702,-381.1296 1351.7968,-199.6741 1248.4073,-147.2773"/>
<polygon fill="#191970" stroke="#191970" points="1249.6958,-144.0069 1239.1924,-142.6182 1246.5373,-150.2538 1249.6958,-144.0069"/>
</g>
<!-- Node44&#45;&gt;Node36 -->
<g id="edge102" class="edge">
<title>Node44&#45;&gt;Node36</title>
<path fill="none" stroke="#191970" d="M1581.8809,-823.5902C1486.7782,-811.5059 1318.4797,-790.1209 1228.5843,-778.6982"/>
<polygon fill="#191970" stroke="#191970" points="1228.9102,-775.2116 1218.5488,-777.423 1228.0278,-782.1557 1228.9102,-775.2116"/>
</g>
<!-- Node45 -->
<g id="node46" class="node">
<title>Node45</title>
<g id="a_node46"><a xlink:href="threshold_8h.html" target="_top" xlink:title="ODP threshold API &#45; platform specific header. ">
<polygon fill="#ffffff" stroke="#000000" points="1582.5,-761.5 1582.5,-780.5 1681.5,-780.5 1681.5,-761.5 1582.5,-761.5"/>
<text text-anchor="middle" x="1632" y="-768.5" font-family="Helvetica,sans-Serif" font-size="10.00" fill="#000000">odp/api/threshold.h</text>
</a>
</g>
</g>
<!-- Node44&#45;&gt;Node45 -->
<g id="edge104" class="edge">
<title>Node44&#45;&gt;Node45</title>
<path fill="none" stroke="#191970" d="M1648.875,-822.8906C1646.0735,-814.276 1641.8767,-801.3708 1638.3694,-790.5858"/>
<polygon fill="#191970" stroke="#191970" points="1641.5902,-789.1722 1635.1691,-780.7449 1634.9333,-791.3371 1641.5902,-789.1722"/>
</g>
<!-- Node46 -->
<g id="node47" class="node">
<title>Node46</title>
<g id="a_node47"><a xlink:href="spec_2threshold_8h.html" target="_top" xlink:title="ODP threshold descriptor. ">
<polygon fill="#ffffff" stroke="#000000" points="1091.5,-308 1091.5,-327 1214.5,-327 1214.5,-308 1091.5,-308"/>
<text text-anchor="middle" x="1153" y="-315" font-family="Helvetica,sans-Serif" font-size="10.00" fill="#000000">odp/api/spec/threshold.h</text>
</a>
</g>
</g>
<!-- Node45&#45;&gt;Node46 -->
<g id="edge105" class="edge">
<title>Node45&#45;&gt;Node46</title>
<path fill="none" stroke="#191970" d="M1631.7134,-761.4127C1631.1604,-742.0567 1630,-696.9227 1630,-659 1630,-659 1630,-659 1630,-491 1630,-435.7386 1646.6266,-406.4607 1606,-369 1578.5769,-343.7138 1345.9174,-327.7427 1225.1428,-321.0788"/>
<polygon fill="#191970" stroke="#191970" points="1225.0511,-317.5687 1214.8756,-320.5199 1224.6705,-324.5584 1225.0511,-317.5687"/>
</g>
<!-- Node46&#45;&gt;Node1 -->
<g id="edge106" class="edge">
<title>Node46&#45;&gt;Node1</title>
<path fill="none" stroke="#191970" d="M1200.0426,-307.9461C1246.18,-297.9064 1312.6193,-281.4551 1334,-266 1412.1919,-209.4786 1359.3657,-147.8175 1389,-56 1392.1188,-46.3369 1397.4012,-36.4304 1402.3933,-28.2975"/>
<polygon fill="#191970" stroke="#191970" points="1405.4727,-29.9812 1407.973,-19.6856 1399.598,-26.1749 1405.4727,-29.9812"/>
</g>
<!-- Node46&#45;&gt;Node3 -->
<g id="edge107" class="edge">
<title>Node46&#45;&gt;Node3</title>
<path fill="none" stroke="#191970" d="M1102.1051,-307.9776C1089.0669,-305.7731 1075.043,-303.6058 1062,-302 853.6293,-276.3466 800.3098,-282.305 591,-266 569.945,-264.3598 546.9133,-262.5396 526.3667,-260.9064"/>
<polygon fill="#191970" stroke="#191970" points="526.4332,-257.4008 516.187,-260.0965 525.8779,-264.3787 526.4332,-257.4008"/>
</g>
<!-- Node46&#45;&gt;Node10 -->
<g id="edge108" class="edge">
<title>Node46&#45;&gt;Node10</title>
<path fill="none" stroke="#191970" d="M1130.6027,-307.934C1092.0663,-291.96 1010.3738,-260.2097 938,-246 879.1022,-234.4361 443.9321,-249.7968 399,-210 372.2922,-186.3446 364.0759,-75.6111 361.7958,-29.8575"/>
<polygon fill="#191970" stroke="#191970" points="365.2855,-29.5491 361.3364,-19.7178 358.2927,-29.8661 365.2855,-29.5491"/>
</g>
<!-- Node48 -->
<g id="node49" class="node">
<title>Node48</title>
<polygon fill="#ffffff" stroke="#bfbfbf" points="279,-817.5 279,-847.5 371,-847.5 371,-817.5 279,-817.5"/>
<text text-anchor="start" x="287" y="-835.5" font-family="Helvetica,sans-Serif" font-size="10.00" fill="#000000">odp/api/abi/traffic</text>
<text text-anchor="middle" x="325" y="-824.5" font-family="Helvetica,sans-Serif" font-size="10.00" fill="#000000">_mngr.h</text>
</g>
<!-- Node47&#45;&gt;Node48 -->
<g id="edge111" class="edge">
<title>Node47&#45;&gt;Node48</title>
<path fill="none" stroke="#191970" d="M320.7813,-884.3906C321.364,-877.2234 322.1881,-867.0862 322.9536,-857.671"/>
<polygon fill="#191970" stroke="#191970" points="326.4549,-857.7954 323.7769,-847.5446 319.4779,-857.2281 326.4549,-857.7954"/>
</g>
<!-- Node49 -->
<g id="node50" class="node">
<title>Node49</title>
<g id="a_node50"><a xlink:href="spec_2traffic__mngr_8h.html" target="_top" xlink:title="Copyright (c) 2015&#45;2018, Linaro Limited All rights reserved. ">
<polygon fill="#ffffff" stroke="#000000" points="161,-817.5 161,-847.5 261,-847.5 261,-817.5 161,-817.5"/>
<text text-anchor="start" x="169" y="-835.5" font-family="Helvetica,sans-Serif" font-size="10.00" fill="#000000">odp/api/spec/traffic</text>
<text text-anchor="middle" x="211" y="-824.5" font-family="Helvetica,sans-Serif" font-size="10.00" fill="#000000">_mngr.h</text>
</a>
</g>
</g>
<!-- Node47&#45;&gt;Node49 -->
<g id="edge112" class="edge">
<title>Node47&#45;&gt;Node49</title>
<path fill="none" stroke="#191970" d="M302.9688,-884.3906C287.9437,-875.9132 265.5548,-863.2809 246.6294,-852.6028"/>
<polygon fill="#191970" stroke="#191970" points="248.0937,-849.4104 237.6644,-847.5446 244.6538,-855.5069 248.0937,-849.4104"/>
</g>
<!-- Node49&#45;&gt;Node1 -->
<g id="edge113" class="edge">
<title>Node49&#45;&gt;Node1</title>
<path fill="none" stroke="#191970" d="M261.0568,-818.5511C264.0693,-817.9604 267.0667,-817.4351 270,-817 691.0279,-754.5503 805.367,-839.2242 1227,-781 1396.4362,-757.6022 1592,-830.0441 1592,-659 1592,-659 1592,-659 1592,-491 1592,-294.7381 1798.1903,-202.8646 1668,-56 1643.5287,-28.3945 1545.2126,-17.2606 1478.5945,-12.836"/>
<polygon fill="#191970" stroke="#191970" points="1478.8003,-9.3421 1468.5999,-12.2063 1478.3601,-16.3283 1478.8003,-9.3421"/>
</g>
<!-- Node49&#45;&gt;Node3 -->
<g id="edge114" class="edge">
<title>Node49&#45;&gt;Node3</title>
<path fill="none" stroke="#191970" d="M186.2718,-817.3738C157.5331,-797.6819 114,-760.3658 114,-715 114,-715 114,-715 114,-491 114,-395.9668 135.5278,-355.6043 214,-302 244.1666,-281.3932 339.6418,-268.2457 403.7555,-261.4991"/>
<polygon fill="#191970" stroke="#191970" points="404.1713,-264.9749 413.7612,-260.4711 403.4559,-258.0116 404.1713,-264.9749"/>
</g>
<!-- Node49&#45;&gt;Node10 -->
<g id="edge116" class="edge">
<title>Node49&#45;&gt;Node10</title>
<path fill="none" stroke="#191970" d="M160.9612,-821.2233C109.8678,-806.402 38,-774.907 38,-715 38,-715 38,-715 38,-133 38,-97.154 34.8309,-79.3833 62,-56 96.8585,-25.9987 223.9629,-15.5174 300.7824,-11.8893"/>
<polygon fill="#191970" stroke="#191970" points="300.9788,-15.3841 310.8125,-11.4409 300.6661,-8.3911 300.9788,-15.3841"/>
</g>
<!-- Node49&#45;&gt;Node36 -->
<g id="edge115" class="edge">
<title>Node49&#45;&gt;Node36</title>
<path fill="none" stroke="#191970" d="M261.064,-818.5984C264.0747,-817.9959 267.0697,-817.455 270,-817 432.0221,-791.8423 932.796,-776.9985 1107.2892,-772.4816"/>
<polygon fill="#191970" stroke="#191970" points="1107.4166,-775.9796 1117.3234,-772.224 1107.2368,-768.9819 1107.4166,-775.9796"/>
</g>
</g>
</svg>
