<?xml version="1.0" encoding="UTF-8" standalone="no"?>
<!DOCTYPE svg PUBLIC "-//W3C//DTD SVG 1.1//EN"
 "http://www.w3.org/Graphics/SVG/1.1/DTD/svg11.dtd">
<!-- Generated by graphviz version 2.40.1 (20161225.0304)
 -->
<!-- Title: align.h Pages: 1 -->
<svg width="2534pt" height="532pt"
 viewBox="0.00 0.00 2534.00 532.00" xmlns="http://www.w3.org/2000/svg" xmlns:xlink="http://www.w3.org/1999/xlink">
<g id="graph0" class="graph" transform="scale(1 1) rotate(0) translate(4 528)">
<title>align.h</title>
<polygon fill="#ffffff" stroke="transparent" points="-4,4 -4,-528 2530,-528 2530,4 -4,4"/>
<!-- Node3 -->
<g id="node1" class="node">
<title>Node3</title>
<polygon fill="#bfbfbf" stroke="#000000" points="113.5,-504.5 113.5,-523.5 158.5,-523.5 158.5,-504.5 113.5,-504.5"/>
<text text-anchor="middle" x="136" y="-511.5" font-family="Helvetica,sans-Serif" font-size="10.00" fill="#000000">align.h</text>
</g>
<!-- Node4 -->
<g id="node2" class="node">
<title>Node4</title>
<g id="a_node2"><a xlink:href="align_8h.html" target="_top" xlink:title="ODP alignments. ">
<polygon fill="#ffffff" stroke="#000000" points="113.5,-448.5 113.5,-467.5 158.5,-467.5 158.5,-448.5 113.5,-448.5"/>
<text text-anchor="middle" x="136" y="-455.5" font-family="Helvetica,sans-Serif" font-size="10.00" fill="#000000">align.h</text>
</a>
</g>
</g>
<!-- Node3&#45;&gt;Node4 -->
<g id="edge1" class="edge">
<title>Node3&#45;&gt;Node4</title>
<path fill="none" stroke="#191970" d="M136,-494.1575C136,-485.155 136,-474.9199 136,-467.6427"/>
<polygon fill="#191970" stroke="#191970" points="132.5001,-494.2455 136,-504.2455 139.5001,-494.2456 132.5001,-494.2455"/>
</g>
<!-- Node5 -->
<g id="node3" class="node">
<title>Node5</title>
<g id="a_node3"><a xlink:href="abi-default_2atomic_8h.html" target="_top" xlink:title="ODP atomic operations. ">
<polygon fill="#ffffff" stroke="#000000" points="0,-280.5 0,-299.5 54,-299.5 54,-280.5 0,-280.5"/>
<text text-anchor="middle" x="27" y="-287.5" font-family="Helvetica,sans-Serif" font-size="10.00" fill="#000000">atomic.h</text>
</a>
</g>
</g>
<!-- Node4&#45;&gt;Node5 -->
<g id="edge2" class="edge">
<title>Node4&#45;&gt;Node5</title>
<path fill="none" stroke="#191970" d="M124.0919,-439.6463C101.051,-404.1336 51.0808,-327.1154 33.3764,-299.8279"/>
<polygon fill="#191970" stroke="#191970" points="121.4483,-442.0022 129.8274,-448.4862 127.3206,-438.1922 121.4483,-442.0022"/>
</g>
<!-- Node6 -->
<g id="node4" class="node">
<title>Node6</title>
<g id="a_node4"><a xlink:href="abi-default_2cpumask_8h.html" target="_top" xlink:title="ODP CPU masks and enumeration. ">
<polygon fill="#ffffff" stroke="#000000" points="72.5,-280.5 72.5,-299.5 137.5,-299.5 137.5,-280.5 72.5,-280.5"/>
<text text-anchor="middle" x="105" y="-287.5" font-family="Helvetica,sans-Serif" font-size="10.00" fill="#000000">cpumask.h</text>
</a>
</g>
</g>
<!-- Node4&#45;&gt;Node6 -->
<g id="edge3" class="edge">
<title>Node4&#45;&gt;Node6</title>
<path fill="none" stroke="#191970" d="M130.4517,-438.5097C128.2532,-430.3609 125.821,-420.7652 124,-412 115.3667,-370.4443 108.7221,-320.189 106.1545,-299.5501"/>
<polygon fill="#191970" stroke="#191970" points="127.0928,-439.495 133.1362,-448.1971 133.8385,-437.6256 127.0928,-439.495"/>
</g>
<!-- Node7 -->
<g id="node5" class="node">
<title>Node7</title>
<g id="a_node5"><a xlink:href="spec_2std__types_8h.html" target="_top" xlink:title="Standard C language types and definitions for ODP. ">
<polygon fill="#ffffff" stroke="#000000" points="133,-392.5 133,-411.5 201,-411.5 201,-392.5 133,-392.5"/>
<text text-anchor="middle" x="167" y="-399.5" font-family="Helvetica,sans-Serif" font-size="10.00" fill="#000000">std_types.h</text>
</a>
</g>
</g>
<!-- Node4&#45;&gt;Node7 -->
<g id="edge4" class="edge">
<title>Node4&#45;&gt;Node7</title>
<path fill="none" stroke="#191970" d="M146.3312,-439.3372C151.4665,-430.0605 157.4566,-419.2398 161.6621,-411.6427"/>
<polygon fill="#191970" stroke="#191970" points="143.1809,-437.8015 141.3998,-448.2455 149.3051,-441.1917 143.1809,-437.8015"/>
</g>
<!-- Node68 -->
<g id="node50" class="node">
<title>Node68</title>
<g id="a_node50"><a xlink:href="time__inlines_8h_source.html" target="_top" xlink:title="time_inlines.h">
<polygon fill="#ffffff" stroke="#000000" points="219.5,-392.5 219.5,-411.5 296.5,-411.5 296.5,-392.5 219.5,-392.5"/>
<text text-anchor="middle" x="258" y="-399.5" font-family="Helvetica,sans-Serif" font-size="10.00" fill="#000000">time_inlines.h</text>
</a>
</g>
</g>
<!-- Node4&#45;&gt;Node68 -->
<g id="edge63" class="edge">
<title>Node4&#45;&gt;Node68</title>
<path fill="none" stroke="#191970" d="M166.2584,-444.1109C188.3819,-433.9559 217.8094,-420.4482 237.3011,-411.5011"/>
<polygon fill="#191970" stroke="#191970" points="164.6007,-441.0206 156.9725,-448.3733 167.521,-447.3824 164.6007,-441.0206"/>
</g>
<!-- Node8 -->
<g id="node6" class="node">
<title>Node8</title>
<g id="a_node6"><a xlink:href="std__types_8h.html" target="_top" xlink:title="Standard C language types and definitions for ODP. ">
<polygon fill="#ffffff" stroke="#000000" points="1109,-336.5 1109,-355.5 1177,-355.5 1177,-336.5 1109,-336.5"/>
<text text-anchor="middle" x="1143" y="-343.5" font-family="Helvetica,sans-Serif" font-size="10.00" fill="#000000">std_types.h</text>
</a>
</g>
</g>
<!-- Node7&#45;&gt;Node8 -->
<g id="edge5" class="edge">
<title>Node7&#45;&gt;Node8</title>
<path fill="none" stroke="#191970" d="M211.1225,-392.1242C408.3772,-366.4415 965.3424,-350.6127 1108.9238,-346.861"/>
<polygon fill="#191970" stroke="#191970" points="210.6037,-388.6624 201.1638,-393.4727 211.5431,-395.5991 210.6037,-388.6624"/>
</g>
<!-- Node8&#45;&gt;Node5 -->
<g id="edge6" class="edge">
<title>Node8&#45;&gt;Node5</title>
<path fill="none" stroke="#191970" d="M1098.5296,-345.4589C921.6178,-343.0969 267.4787,-332.3186 63,-300 60.1809,-299.5544 57.2673,-298.9666 54.3751,-298.2986"/>
<polygon fill="#191970" stroke="#191970" points="1098.7213,-348.9616 1108.7664,-345.5932 1098.8132,-341.9622 1098.7213,-348.9616"/>
</g>
<!-- Node8&#45;&gt;Node6 -->
<g id="edge9" class="edge">
<title>Node8&#45;&gt;Node6</title>
<path fill="none" stroke="#191970" d="M1098.7116,-345.0943C930.8697,-341.4853 333.9574,-326.9991 146,-300 143.2441,-299.6041 140.403,-299.1055 137.5627,-298.5432"/>
<polygon fill="#191970" stroke="#191970" points="1098.8378,-348.5977 1108.9101,-345.3115 1098.9869,-341.5993 1098.8378,-348.5977"/>
</g>
<!-- Node9 -->
<g id="node7" class="node">
<title>Node9</title>
<g id="a_node7"><a xlink:href="abi-default_2barrier_8h.html" target="_top" xlink:title="ODP barrier. ">
<polygon fill="#ffffff" stroke="#000000" points="1860,-280.5 1860,-299.5 1912,-299.5 1912,-280.5 1860,-280.5"/>
<text text-anchor="middle" x="1886" y="-287.5" font-family="Helvetica,sans-Serif" font-size="10.00" fill="#000000">barrier.h</text>
</a>
</g>
</g>
<!-- Node8&#45;&gt;Node9 -->
<g id="edge7" class="edge">
<title>Node8&#45;&gt;Node9</title>
<path fill="none" stroke="#191970" d="M1187.6009,-344.349C1322.1253,-339.1725 1722.4936,-322.2694 1851,-300 1853.8643,-299.5036 1856.8293,-298.8628 1859.7663,-298.1454"/>
<polygon fill="#191970" stroke="#191970" points="1187.1264,-340.8645 1177.2672,-344.7437 1187.3936,-347.8594 1187.1264,-340.8645"/>
</g>
<!-- Node10 -->
<g id="node8" class="node">
<title>Node10</title>
<g id="a_node8"><a xlink:href="abi-default_2byteorder_8h.html" target="_top" xlink:title="ODP byteorder. ">
<polygon fill="#ffffff" stroke="#000000" points="1930.5,-280.5 1930.5,-299.5 1995.5,-299.5 1995.5,-280.5 1930.5,-280.5"/>
<text text-anchor="middle" x="1963" y="-287.5" font-family="Helvetica,sans-Serif" font-size="10.00" fill="#000000">byteorder.h</text>
</a>
</g>
</g>
<!-- Node8&#45;&gt;Node10 -->
<g id="edge8" class="edge">
<title>Node8&#45;&gt;Node10</title>
<path fill="none" stroke="#191970" d="M1187.5924,-344.3895C1330.7733,-339.0571 1777.8408,-321.1096 1921,-300 1923.9661,-299.5626 1927.0307,-299.0178 1930.0906,-298.4098"/>
<polygon fill="#191970" stroke="#191970" points="1187.2872,-340.8983 1177.4236,-344.766 1187.5463,-347.8935 1187.2872,-340.8983"/>
</g>
<!-- Node11 -->
<g id="node9" class="node">
<title>Node11</title>
<g id="a_node9"><a xlink:href="abi-default_2init_8h.html" target="_top" xlink:title="ODP initialization. ">
<polygon fill="#ffffff" stroke="#000000" points="2014,-280.5 2014,-299.5 2052,-299.5 2052,-280.5 2014,-280.5"/>
<text text-anchor="middle" x="2033" y="-287.5" font-family="Helvetica,sans-Serif" font-size="10.00" fill="#000000">init.h</text>
</a>
</g>
</g>
<!-- Node8&#45;&gt;Node11 -->
<g id="edge10" class="edge">
<title>Node8&#45;&gt;Node11</title>
<path fill="none" stroke="#191970" d="M1187.798,-345.318C1341.4392,-342.7124 1846.2654,-331.8746 2005,-300 2007.9353,-299.4106 2010.9777,-298.5749 2013.9282,-297.6349"/>
<polygon fill="#191970" stroke="#191970" points="1187.2928,-341.8258 1177.3524,-345.4916 1187.4092,-348.8249 1187.2928,-341.8258"/>
</g>
<!-- Node12 -->
<g id="node10" class="node">
<title>Node12</title>
<g id="a_node10"><a xlink:href="abi-default_2ipsec_8h.html" target="_top" xlink:title="ODP IPSEC API &#45; platform specific types. ">
<polygon fill="#ffffff" stroke="#000000" points="2070,-280.5 2070,-299.5 2118,-299.5 2118,-280.5 2070,-280.5"/>
<text text-anchor="middle" x="2094" y="-287.5" font-family="Helvetica,sans-Serif" font-size="10.00" fill="#000000">ipsec.h</text>
</a>
</g>
</g>
<!-- Node8&#45;&gt;Node12 -->
<g id="edge11" class="edge">
<title>Node8&#45;&gt;Node12</title>
<path fill="none" stroke="#191970" d="M1187.4369,-345.2089C1346.9169,-342.1462 1890.0254,-329.7277 2061,-300 2063.831,-299.5078 2066.7606,-298.8486 2069.6521,-298.1023"/>
<polygon fill="#191970" stroke="#191970" points="1186.9925,-341.7166 1177.0606,-345.4053 1187.125,-348.7153 1186.9925,-341.7166"/>
</g>
<!-- Node13 -->
<g id="node11" class="node">
<title>Node13</title>
<g id="a_node11"><a xlink:href="abi-default_2packet__io_8h.html" target="_top" xlink:title="ODP Packet IO. ">
<polygon fill="#ffffff" stroke="#000000" points="2136.5,-280.5 2136.5,-299.5 2203.5,-299.5 2203.5,-280.5 2136.5,-280.5"/>
<text text-anchor="middle" x="2170" y="-287.5" font-family="Helvetica,sans-Serif" font-size="10.00" fill="#000000">packet_io.h</text>
</a>
</g>
</g>
<!-- Node8&#45;&gt;Node13 -->
<g id="edge12" class="edge">
<title>Node8&#45;&gt;Node13</title>
<path fill="none" stroke="#191970" d="M1187.5081,-344.9952C1354.226,-341.0641 1941.6554,-325.6666 2127,-300 2130.0368,-299.5795 2133.1744,-299.0462 2136.3072,-298.4457"/>
<polygon fill="#191970" stroke="#191970" points="1187.0592,-341.5046 1177.1438,-345.2375 1187.2229,-348.5027 1187.0592,-341.5046"/>
</g>
<!-- Node14 -->
<g id="node12" class="node">
<title>Node14</title>
<g id="a_node12"><a xlink:href="abi-default_2rwlock__recursive_8h.html" target="_top" xlink:title="ODP recursive read/write lock. ">
<polygon fill="#ffffff" stroke="#000000" points="2222,-280.5 2222,-299.5 2320,-299.5 2320,-280.5 2222,-280.5"/>
<text text-anchor="middle" x="2271" y="-287.5" font-family="Helvetica,sans-Serif" font-size="10.00" fill="#000000">rwlock_recursive.h</text>
</a>
</g>
</g>
<!-- Node8&#45;&gt;Node14 -->
<g id="edge13" class="edge">
<title>Node8&#45;&gt;Node14</title>
<path fill="none" stroke="#191970" d="M1187.2732,-344.8525C1362.6781,-340.1893 2009.1793,-321.8614 2213,-300 2215.8447,-299.6949 2218.761,-299.3369 2221.6992,-298.9412"/>
<polygon fill="#191970" stroke="#191970" points="1187.0249,-341.3578 1177.121,-345.1211 1187.2101,-348.3553 1187.0249,-341.3578"/>
</g>
<!-- Node15 -->
<g id="node13" class="node">
<title>Node15</title>
<g id="a_node13"><a xlink:href="abi-default_2schedule_8h.html" target="_top" xlink:title="ODP schedule. ">
<polygon fill="#ffffff" stroke="#000000" points="2338,-280.5 2338,-299.5 2402,-299.5 2402,-280.5 2338,-280.5"/>
<text text-anchor="middle" x="2370" y="-287.5" font-family="Helvetica,sans-Serif" font-size="10.00" fill="#000000">schedule.h</text>
</a>
</g>
</g>
<!-- Node8&#45;&gt;Node15 -->
<g id="edge14" class="edge">
<title>Node8&#45;&gt;Node15</title>
<path fill="none" stroke="#191970" d="M1187.151,-345.4721C1374.195,-343.0531 2102.0535,-331.7501 2329,-300 2331.9024,-299.5939 2334.8988,-299.0706 2337.8889,-298.4766"/>
<polygon fill="#191970" stroke="#191970" points="1187.084,-341.9726 1177.1295,-345.5998 1187.1733,-348.972 1187.084,-341.9726"/>
</g>
<!-- Node16 -->
<g id="node14" class="node">
<title>Node16</title>
<g id="a_node14"><a xlink:href="abi-default_2spinlock__recursive_8h.html" target="_top" xlink:title="ODP recursive spinlock. ">
<polygon fill="#ffffff" stroke="#000000" points="2420,-280.5 2420,-299.5 2526,-299.5 2526,-280.5 2420,-280.5"/>
<text text-anchor="middle" x="2473" y="-287.5" font-family="Helvetica,sans-Serif" font-size="10.00" fill="#000000">spinlock_recursive.h</text>
</a>
</g>
</g>
<!-- Node8&#45;&gt;Node16 -->
<g id="edge15" class="edge">
<title>Node8&#45;&gt;Node16</title>
<path fill="none" stroke="#191970" d="M1187.2421,-345.1304C1382.2251,-341.1846 2166.0024,-324.1086 2411,-300 2413.9297,-299.7117 2416.931,-299.373 2419.9563,-298.9977"/>
<polygon fill="#191970" stroke="#191970" points="1187.0123,-341.6342 1177.0847,-345.3348 1187.1532,-348.6328 1187.0123,-341.6342"/>
</g>
<!-- Node17 -->
<g id="node15" class="node">
<title>Node17</title>
<g id="a_node15"><a xlink:href="abi-default_2traffic__mngr_8h.html" target="_top" xlink:title="ODP traffic mngr. ">
<polygon fill="#ffffff" stroke="#000000" points="155.5,-280.5 155.5,-299.5 232.5,-299.5 232.5,-280.5 155.5,-280.5"/>
<text text-anchor="middle" x="194" y="-287.5" font-family="Helvetica,sans-Serif" font-size="10.00" fill="#000000">traffic_mngr.h</text>
</a>
</g>
</g>
<!-- Node8&#45;&gt;Node17 -->
<g id="edge16" class="edge">
<title>Node8&#45;&gt;Node17</title>
<path fill="none" stroke="#191970" d="M1098.4034,-344.6362C940.8082,-339.6742 410.5566,-321.7286 242,-300 238.9607,-299.6082 235.827,-299.1289 232.6856,-298.5943"/>
<polygon fill="#191970" stroke="#191970" points="1098.5628,-348.1428 1108.6674,-344.9576 1098.7819,-341.1462 1098.5628,-348.1428"/>
</g>
<!-- Node18 -->
<g id="node16" class="node">
<title>Node18</title>
<g id="a_node16"><a xlink:href="barrier_8h.html" target="_top" xlink:title="ODP execution barriers. ">
<polygon fill="#ffffff" stroke="#000000" points="251,-280.5 251,-299.5 303,-299.5 303,-280.5 251,-280.5"/>
<text text-anchor="middle" x="277" y="-287.5" font-family="Helvetica,sans-Serif" font-size="10.00" fill="#000000">barrier.h</text>
</a>
</g>
</g>
<!-- Node8&#45;&gt;Node18 -->
<g id="edge17" class="edge">
<title>Node8&#45;&gt;Node18</title>
<path fill="none" stroke="#191970" d="M1098.3634,-344.8417C948.6882,-340.752 465.4094,-325.8285 312,-300 309.1334,-299.5174 306.1668,-298.8853 303.2289,-298.1731"/>
<polygon fill="#191970" stroke="#191970" points="1098.4633,-348.3456 1108.5544,-345.1174 1098.6527,-341.3481 1098.4633,-348.3456"/>
</g>
<!-- Node19 -->
<g id="node17" class="node">
<title>Node19</title>
<g id="a_node17"><a xlink:href="buffer_8h.html" target="_top" xlink:title="ODP buffer descriptor. ">
<polygon fill="#ffffff" stroke="#000000" points="321,-280.5 321,-299.5 371,-299.5 371,-280.5 321,-280.5"/>
<text text-anchor="middle" x="346" y="-287.5" font-family="Helvetica,sans-Serif" font-size="10.00" fill="#000000">buffer.h</text>
</a>
</g>
</g>
<!-- Node8&#45;&gt;Node19 -->
<g id="edge18" class="edge">
<title>Node8&#45;&gt;Node19</title>
<path fill="none" stroke="#191970" d="M1098.1564,-344.4011C957.1381,-339.1961 523.8356,-321.8083 385,-300 380.4426,-299.2841 375.6428,-298.2727 371.0287,-297.1657"/>
<polygon fill="#191970" stroke="#191970" points="1098.4508,-347.9141 1108.5724,-344.7829 1098.7073,-340.9188 1098.4508,-347.9141"/>
</g>
<!-- Node20 -->
<g id="node18" class="node">
<title>Node20</title>
<g id="a_node18"><a xlink:href="classification_8h.html" target="_top" xlink:title="ODP classification descriptor. ">
<polygon fill="#ffffff" stroke="#000000" points="523,-56.5 523,-75.5 605,-75.5 605,-56.5 523,-56.5"/>
<text text-anchor="middle" x="564" y="-63.5" font-family="Helvetica,sans-Serif" font-size="10.00" fill="#000000">classification.h</text>
</a>
</g>
</g>
<!-- Node8&#45;&gt;Node20 -->
<g id="edge19" class="edge">
<title>Node8&#45;&gt;Node20</title>
<path fill="none" stroke="#191970" d="M1098.5451,-344.7018C957.5716,-340.3453 526.4105,-325.0938 469,-300 429.82,-282.8747 399,-276.7592 399,-234 399,-234 399,-234 399,-178 399,-147.4754 396.6865,-133.8515 418,-112 432.7057,-96.9231 485.1686,-82.8822 522.9973,-74.374"/>
<polygon fill="#191970" stroke="#191970" points="1098.8581,-348.2129 1108.9604,-345.0201 1099.072,-341.2162 1098.8581,-348.2129"/>
</g>
<!-- Node23 -->
<g id="node20" class="node">
<title>Node23</title>
<g id="a_node20"><a xlink:href="crypto_8h.html" target="_top" xlink:title="ODP crypto. ">
<polygon fill="#ffffff" stroke="#000000" points="693,-168.5 693,-187.5 745,-187.5 745,-168.5 693,-168.5"/>
<text text-anchor="middle" x="719" y="-175.5" font-family="Helvetica,sans-Serif" font-size="10.00" fill="#000000">crypto.h</text>
</a>
</g>
</g>
<!-- Node8&#45;&gt;Node23 -->
<g id="edge21" class="edge">
<title>Node8&#45;&gt;Node23</title>
<path fill="none" stroke="#191970" d="M1098.5898,-338.9388C1057.3816,-331.3728 1000.4442,-317.9808 987,-300 966.3299,-272.3549 1025.3718,-250.287 1003,-224 986.3283,-204.4107 812.5914,-186.5619 745.3614,-180.337"/>
<polygon fill="#191970" stroke="#191970" points="1098.2331,-342.4302 1108.6916,-340.7361 1099.4593,-335.5384 1098.2331,-342.4302"/>
</g>
<!-- Node24 -->
<g id="node21" class="node">
<title>Node24</title>
<g id="a_node21"><a xlink:href="packet_8h.html" target="_top" xlink:title="ODP packet descriptor. ">
<polygon fill="#ffffff" stroke="#000000" points="801,-280.5 801,-299.5 855,-299.5 855,-280.5 801,-280.5"/>
<text text-anchor="middle" x="828" y="-287.5" font-family="Helvetica,sans-Serif" font-size="10.00" fill="#000000">packet.h</text>
</a>
</g>
</g>
<!-- Node8&#45;&gt;Node24 -->
<g id="edge23" class="edge">
<title>Node8&#45;&gt;Node24</title>
<path fill="none" stroke="#191970" d="M1098.8656,-338.1539C1032.6163,-326.3762 909.4435,-304.4788 855.0334,-294.8059"/>
<polygon fill="#191970" stroke="#191970" points="1098.5319,-341.6494 1108.9902,-339.9538 1099.7572,-334.7574 1098.5319,-341.6494"/>
</g>
<!-- Node39 -->
<g id="node25" class="node">
<title>Node39</title>
<g id="a_node25"><a xlink:href="spec_2packet__flags_8h.html" target="_top" xlink:title="ODP packet flags. ">
<polygon fill="#ffffff" stroke="#ff0000" points="914,-224.5 914,-243.5 994,-243.5 994,-224.5 914,-224.5"/>
<text text-anchor="middle" x="954" y="-231.5" font-family="Helvetica,sans-Serif" font-size="10.00" fill="#000000">packet_flags.h</text>
</a>
</g>
</g>
<!-- Node8&#45;&gt;Node39 -->
<g id="edge51" class="edge">
<title>Node8&#45;&gt;Node39</title>
<path fill="none" stroke="#191970" d="M1098.7572,-341.4833C1048.6547,-335.3483 971.6663,-322.4817 954,-300 941.2565,-283.7829 946.4336,-257.7417 950.6306,-243.709"/>
<polygon fill="#191970" stroke="#191970" points="1098.3602,-344.9607 1108.7014,-342.6564 1099.1803,-338.0089 1098.3602,-344.9607"/>
</g>
<!-- Node33 -->
<g id="node27" class="node">
<title>Node33</title>
<g id="a_node27"><a xlink:href="packet__io_8h.html" target="_top" xlink:title="ODP Packet IO. ">
<polygon fill="#ffffff" stroke="#000000" points="503.5,-168.5 503.5,-187.5 570.5,-187.5 570.5,-168.5 503.5,-168.5"/>
<text text-anchor="middle" x="537" y="-175.5" font-family="Helvetica,sans-Serif" font-size="10.00" fill="#000000">packet_io.h</text>
</a>
</g>
</g>
<!-- Node8&#45;&gt;Node33 -->
<g id="edge35" class="edge">
<title>Node8&#45;&gt;Node33</title>
<path fill="none" stroke="#191970" d="M1098.7929,-344.2554C958.0601,-338.5133 528.3678,-319.4563 506,-300 480.1987,-277.5572 481.4478,-255.8092 494,-224 499.9389,-208.9501 513.3827,-195.9271 523.669,-187.6175"/>
<polygon fill="#191970" stroke="#191970" points="1098.671,-347.7532 1108.8046,-344.6612 1098.9547,-340.7589 1098.671,-347.7532"/>
</g>
<!-- Node35 -->
<g id="node29" class="node">
<title>Node35</title>
<g id="a_node29"><a xlink:href="spec_2traffic__mngr_8h.html" target="_top" xlink:title="Copyright (c) 2015&#45;2018, Linaro Limited All rights reserved. ">
<polygon fill="#ffffff" stroke="#ff0000" points="427.5,-112.5 427.5,-131.5 504.5,-131.5 504.5,-112.5 427.5,-112.5"/>
<text text-anchor="middle" x="466" y="-119.5" font-family="Helvetica,sans-Serif" font-size="10.00" fill="#000000">traffic_mngr.h</text>
</a>
</g>
</g>
<!-- Node8&#45;&gt;Node35 -->
<g id="edge57" class="edge">
<title>Node8&#45;&gt;Node35</title>
<path fill="none" stroke="#191970" d="M1098.3862,-344.4224C954.2565,-339.125 509.1408,-321.1149 487,-300 439.0353,-254.2578 456.3491,-161.4084 463.5187,-131.5073"/>
<polygon fill="#191970" stroke="#191970" points="1098.5089,-347.9291 1108.6299,-344.7961 1098.7642,-340.9338 1098.5089,-347.9291"/>
</g>
<!-- Node31 -->
<g id="node30" class="node">
<title>Node31</title>
<g id="a_node30"><a xlink:href="queue_8h.html" target="_top" xlink:title="ODP queue. ">
<polygon fill="#ffffff" stroke="#000000" points="605.5,-280.5 605.5,-299.5 656.5,-299.5 656.5,-280.5 605.5,-280.5"/>
<text text-anchor="middle" x="631" y="-287.5" font-family="Helvetica,sans-Serif" font-size="10.00" fill="#000000">queue.h</text>
</a>
</g>
</g>
<!-- Node8&#45;&gt;Node31 -->
<g id="edge36" class="edge">
<title>Node8&#45;&gt;Node31</title>
<path fill="none" stroke="#191970" d="M1098.6139,-343.7694C1014.7681,-339.0912 827.548,-326.4277 672,-300 667.0882,-299.1655 661.893,-298.0687 656.9115,-296.908"/>
<polygon fill="#191970" stroke="#191970" points="1098.618,-347.2748 1108.7943,-344.3263 1099.0004,-340.2852 1098.618,-347.2748"/>
</g>
<!-- Node37 -->
<g id="node31" class="node">
<title>Node37</title>
<g id="a_node31"><a xlink:href="spec_2schedule_8h.html" target="_top" xlink:title="ODP schedule. ">
<polygon fill="#ffffff" stroke="#ff0000" points="627,-224.5 627,-243.5 691,-243.5 691,-224.5 627,-224.5"/>
<text text-anchor="middle" x="659" y="-231.5" font-family="Helvetica,sans-Serif" font-size="10.00" fill="#000000">schedule.h</text>
</a>
</g>
</g>
<!-- Node8&#45;&gt;Node37 -->
<g id="edge53" class="edge">
<title>Node8&#45;&gt;Node37</title>
<path fill="none" stroke="#191970" d="M1098.5433,-344.8456C1030.9439,-342.0566 898.8753,-332.5311 792,-300 746.8723,-286.2639 698.2999,-258.44 674.268,-243.6887"/>
<polygon fill="#191970" stroke="#191970" points="1098.6991,-348.354 1108.8253,-345.2379 1098.966,-341.3591 1098.6991,-348.354"/>
</g>
<!-- Node41 -->
<g id="node32" class="node">
<title>Node41</title>
<g id="a_node32"><a xlink:href="spec_2chksum_8h.html" target="_top" xlink:title="ODP checksum functions. ">
<polygon fill="#ffffff" stroke="#000000" points="996.5,-280.5 996.5,-299.5 1055.5,-299.5 1055.5,-280.5 996.5,-280.5"/>
<text text-anchor="middle" x="1026" y="-287.5" font-family="Helvetica,sans-Serif" font-size="10.00" fill="#000000">chksum.h</text>
</a>
</g>
</g>
<!-- Node8&#45;&gt;Node41 -->
<g id="edge40" class="edge">
<title>Node8&#45;&gt;Node41</title>
<path fill="none" stroke="#191970" d="M1113.6958,-331.9741C1092.512,-321.8348 1064.4597,-308.408 1045.8506,-299.5011"/>
<polygon fill="#191970" stroke="#191970" points="1112.3559,-335.2129 1122.887,-336.3733 1115.378,-328.8989 1112.3559,-335.2129"/>
</g>
<!-- Node43 -->
<g id="node34" class="node">
<title>Node43</title>
<g id="a_node34"><a xlink:href="spec_2cpu_8h.html" target="_top" xlink:title="ODP CPU API. ">
<polygon fill="#ffffff" stroke="#000000" points="1073.5,-280.5 1073.5,-299.5 1114.5,-299.5 1114.5,-280.5 1073.5,-280.5"/>
<text text-anchor="middle" x="1094" y="-287.5" font-family="Helvetica,sans-Serif" font-size="10.00" fill="#000000">cpu.h</text>
</a>
</g>
</g>
<!-- Node8&#45;&gt;Node43 -->
<g id="edge42" class="edge">
<title>Node8&#45;&gt;Node43</title>
<path fill="none" stroke="#191970" d="M1127.6878,-328.5004C1119.3553,-318.9775 1109.3647,-307.5596 1102.4373,-299.6427"/>
<polygon fill="#191970" stroke="#191970" points="1125.2457,-331.0245 1134.4649,-336.2455 1130.5138,-326.415 1125.2457,-331.0245"/>
</g>
<!-- Node46 -->
<g id="node36" class="node">
<title>Node46</title>
<g id="a_node36"><a xlink:href="spec_2feature_8h.html" target="_top" xlink:title="ODP features. ">
<polygon fill="#ffffff" stroke="#000000" points="1171.5,-280.5 1171.5,-299.5 1226.5,-299.5 1226.5,-280.5 1171.5,-280.5"/>
<text text-anchor="middle" x="1199" y="-287.5" font-family="Helvetica,sans-Serif" font-size="10.00" fill="#000000">feature.h</text>
</a>
</g>
</g>
<!-- Node8&#45;&gt;Node46 -->
<g id="edge44" class="edge">
<title>Node8&#45;&gt;Node46</title>
<path fill="none" stroke="#191970" d="M1159.9249,-329.0751C1169.5598,-319.4402 1181.2804,-307.7196 1189.3573,-299.6427"/>
<polygon fill="#191970" stroke="#191970" points="1157.3507,-326.6996 1152.7545,-336.2455 1162.3004,-331.6493 1157.3507,-326.6996"/>
</g>
<!-- Node48 -->
<g id="node38" class="node">
<title>Node48</title>
<g id="a_node38"><a xlink:href="spec_2init_8h.html" target="_top" xlink:title="init.h">
<polygon fill="#ffffff" stroke="#000000" points="1206,-168.5 1206,-187.5 1244,-187.5 1244,-168.5 1206,-168.5"/>
<text text-anchor="middle" x="1225" y="-175.5" font-family="Helvetica,sans-Serif" font-size="10.00" fill="#000000">init.h</text>
</a>
</g>
</g>
<!-- Node8&#45;&gt;Node48 -->
<g id="edge50" class="edge">
<title>Node8&#45;&gt;Node48</title>
<path fill="none" stroke="#191970" d="M1147.5718,-326.3288C1151.0129,-312.9551 1156.2841,-295.0306 1163,-280 1179.0623,-244.0514 1205.4344,-205.2781 1217.9648,-187.675"/>
<polygon fill="#191970" stroke="#191970" points="1144.102,-325.7831 1145.1202,-336.3288 1150.9007,-327.4498 1144.102,-325.7831"/>
</g>
<!-- Node52 -->
<g id="node40" class="node">
<title>Node52</title>
<g id="a_node40"><a xlink:href="spec_2hash_8h.html" target="_top" xlink:title="ODP Hash functions. ">
<polygon fill="#ffffff" stroke="#000000" points="1245,-280.5 1245,-299.5 1291,-299.5 1291,-280.5 1245,-280.5"/>
<text text-anchor="middle" x="1268" y="-287.5" font-family="Helvetica,sans-Serif" font-size="10.00" fill="#000000">hash.h</text>
</a>
</g>
</g>
<!-- Node8&#45;&gt;Node52 -->
<g id="edge48" class="edge">
<title>Node8&#45;&gt;Node52</title>
<path fill="none" stroke="#191970" d="M1173.698,-332.2473C1196.3993,-322.0771 1226.7315,-308.4883 1246.7921,-299.5011"/>
<polygon fill="#191970" stroke="#191970" points="1172.1833,-329.0906 1164.4883,-336.3733 1175.0453,-335.4789 1172.1833,-329.0906"/>
</g>
<!-- Node54 -->
<g id="node42" class="node">
<title>Node54</title>
<g id="a_node42"><a xlink:href="spec_2pool_8h.html" target="_top" xlink:title="ODP pool. ">
<polygon fill="#ffffff" stroke="#ff0000" points="1309.5,-280.5 1309.5,-299.5 1352.5,-299.5 1352.5,-280.5 1309.5,-280.5"/>
<text text-anchor="middle" x="1331" y="-287.5" font-family="Helvetica,sans-Serif" font-size="10.00" fill="#000000">pool.h</text>
</a>
</g>
</g>
<!-- Node8&#45;&gt;Node54 -->
<g id="edge52" class="edge">
<title>Node8&#45;&gt;Node54</title>
<path fill="none" stroke="#191970" d="M1186.2642,-333.6645C1217.8488,-324.5762 1261.6645,-311.7968 1300,-300 1303.0268,-299.0686 1306.2127,-298.0662 1309.3434,-297.0683"/>
<polygon fill="#191970" stroke="#191970" points="1185.1071,-330.3552 1176.4617,-336.4796 1187.0393,-337.0833 1185.1071,-330.3552"/>
</g>
<!-- Node57 -->
<g id="node43" class="node">
<title>Node57</title>
<g id="a_node43"><a xlink:href="spec_2stash_8h.html" target="_top" xlink:title="ODP stash. ">
<polygon fill="#ffffff" stroke="#ff0000" points="1370.5,-280.5 1370.5,-299.5 1419.5,-299.5 1419.5,-280.5 1370.5,-280.5"/>
<text text-anchor="middle" x="1395" y="-287.5" font-family="Helvetica,sans-Serif" font-size="10.00" fill="#000000">stash.h</text>
</a>
</g>
</g>
<!-- Node8&#45;&gt;Node57 -->
<g id="edge54" class="edge">
<title>Node8&#45;&gt;Node57</title>
<path fill="none" stroke="#191970" d="M1187.2465,-337.8815C1231.6677,-329.4557 1301.9431,-315.3757 1362,-300 1364.6677,-299.317 1367.4422,-298.5566 1370.199,-297.7686"/>
<polygon fill="#191970" stroke="#191970" points="1186.5327,-334.4543 1177.3537,-339.7454 1187.8288,-341.3332 1186.5327,-334.4543"/>
</g>
<!-- Node59 -->
<g id="node44" class="node">
<title>Node59</title>
<g id="a_node44"><a xlink:href="spec_2threshold_8h.html" target="_top" xlink:title="ODP threshold descriptor. ">
<polygon fill="#ffffff" stroke="#ff0000" points="1437.5,-280.5 1437.5,-299.5 1502.5,-299.5 1502.5,-280.5 1437.5,-280.5"/>
<text text-anchor="middle" x="1470" y="-287.5" font-family="Helvetica,sans-Serif" font-size="10.00" fill="#000000">threshold.h</text>
</a>
</g>
</g>
<!-- Node8&#45;&gt;Node59 -->
<g id="edge55" class="edge">
<title>Node8&#45;&gt;Node59</title>
<path fill="none" stroke="#191970" d="M1187.0495,-340.0282C1243.3836,-332.1361 1343.844,-317.2046 1429,-300 1431.729,-299.4486 1434.5512,-298.8406 1437.3789,-298.2049"/>
<polygon fill="#191970" stroke="#191970" points="1186.4798,-336.5736 1177.0578,-341.4188 1187.4448,-343.5068 1186.4798,-336.5736"/>
</g>
<!-- Node61 -->
<g id="node45" class="node">
<title>Node61</title>
<g id="a_node45"><a xlink:href="spec_2thrmask_8h.html" target="_top" xlink:title="ODP thread masks. ">
<polygon fill="#ffffff" stroke="#ff0000" points="1521,-280.5 1521,-299.5 1581,-299.5 1581,-280.5 1521,-280.5"/>
<text text-anchor="middle" x="1551" y="-287.5" font-family="Helvetica,sans-Serif" font-size="10.00" fill="#000000">thrmask.h</text>
</a>
</g>
</g>
<!-- Node8&#45;&gt;Node61 -->
<g id="edge56" class="edge">
<title>Node8&#45;&gt;Node61</title>
<path fill="none" stroke="#191970" d="M1187.2022,-342.3187C1256.7308,-336.1182 1395.7145,-322.0641 1512,-300 1514.8843,-299.4527 1517.8719,-298.8159 1520.8513,-298.1335"/>
<polygon fill="#191970" stroke="#191970" points="1186.7108,-338.8484 1177.0561,-343.2116 1187.3245,-345.8214 1186.7108,-338.8484"/>
</g>
<!-- Node63 -->
<g id="node46" class="node">
<title>Node63</title>
<g id="a_node46"><a xlink:href="system__info_8h.html" target="_top" xlink:title="ODP system information. ">
<polygon fill="#ffffff" stroke="#000000" points="1599,-280.5 1599,-299.5 1677,-299.5 1677,-280.5 1599,-280.5"/>
<text text-anchor="middle" x="1638" y="-287.5" font-family="Helvetica,sans-Serif" font-size="10.00" fill="#000000">system_info.h</text>
</a>
</g>
</g>
<!-- Node8&#45;&gt;Node63 -->
<g id="edge58" class="edge">
<title>Node8&#45;&gt;Node63</title>
<path fill="none" stroke="#191970" d="M1187.339,-342.9564C1267.8609,-337.0919 1443.3651,-322.7577 1590,-300 1592.8599,-299.5561 1595.8069,-299.0538 1598.7673,-298.5163"/>
<polygon fill="#191970" stroke="#191970" points="1186.8016,-339.4859 1177.0788,-343.6951 1187.3043,-346.4679 1186.8016,-339.4859"/>
</g>
<!-- Node64 -->
<g id="node47" class="node">
<title>Node64</title>
<g id="a_node47"><a xlink:href="time_8h.html" target="_top" xlink:title="ODP time. ">
<polygon fill="#ffffff" stroke="#ff0000" points="515,-280.5 515,-299.5 559,-299.5 559,-280.5 515,-280.5"/>
<text text-anchor="middle" x="537" y="-287.5" font-family="Helvetica,sans-Serif" font-size="10.00" fill="#000000">time.h</text>
</a>
</g>
</g>
<!-- Node8&#45;&gt;Node64 -->
<g id="edge59" class="edge">
<title>Node8&#45;&gt;Node64</title>
<path fill="none" stroke="#191970" d="M1098.7825,-343.5453C1005.5723,-338.0931 782.172,-323.5631 596,-300 583.7348,-298.4476 570.1237,-296.1777 559.0682,-294.1927"/>
<polygon fill="#191970" stroke="#191970" points="1098.784,-347.0511 1108.9696,-344.1352 1099.1887,-340.0628 1098.784,-347.0511"/>
</g>
<!-- Node66 -->
<g id="node48" class="node">
<title>Node66</title>
<g id="a_node48"><a xlink:href="timer_8h.html" target="_top" xlink:title="ODP timer service. ">
<polygon fill="#ffffff" stroke="#000000" points="1695.5,-280.5 1695.5,-299.5 1742.5,-299.5 1742.5,-280.5 1695.5,-280.5"/>
<text text-anchor="middle" x="1719" y="-287.5" font-family="Helvetica,sans-Serif" font-size="10.00" fill="#000000">timer.h</text>
</a>
</g>
</g>
<!-- Node8&#45;&gt;Node66 -->
<g id="edge61" class="edge">
<title>Node8&#45;&gt;Node66</title>
<path fill="none" stroke="#191970" d="M1187.1893,-345.3842C1280.2751,-343.4045 1503.0358,-335.0688 1686,-300 1689.0573,-299.414 1692.2341,-298.6535 1695.3558,-297.8135"/>
<polygon fill="#191970" stroke="#191970" points="1186.943,-341.8883 1177.0144,-345.5859 1187.0818,-348.8869 1186.943,-341.8883"/>
</g>
<!-- Node67 -->
<g id="node49" class="node">
<title>Node67</title>
<g id="a_node49"><a xlink:href="strong__types_8h.html" target="_top" xlink:title="ODP Strong Types. ">
<polygon fill="#ffffff" stroke="#000000" points="1760.5,-280.5 1760.5,-299.5 1841.5,-299.5 1841.5,-280.5 1760.5,-280.5"/>
<text text-anchor="middle" x="1801" y="-287.5" font-family="Helvetica,sans-Serif" font-size="10.00" fill="#000000">strong_types.h</text>
</a>
</g>
</g>
<!-- Node8&#45;&gt;Node67 -->
<g id="edge62" class="edge">
<title>Node8&#45;&gt;Node67</title>
<path fill="none" stroke="#191970" d="M1187.2727,-344.5671C1287.9843,-340.8906 1541.7911,-329.2702 1752,-300 1754.7518,-299.6168 1757.5812,-299.1732 1760.426,-298.6902"/>
<polygon fill="#191970" stroke="#191970" points="1187.033,-341.0733 1177.1643,-344.928 1187.2828,-348.0688 1187.033,-341.0733"/>
</g>
<!-- Node21 -->
<g id="node19" class="node">
<title>Node21</title>
<g id="a_node19"><a xlink:href="spec_2ipsec_8h.html" target="_top" xlink:title="ODP IPSEC API. ">
<polygon fill="#ffffff" stroke="#ff0000" points="609,-.5 609,-19.5 657,-19.5 657,-.5 609,-.5"/>
<text text-anchor="middle" x="633" y="-7.5" font-family="Helvetica,sans-Serif" font-size="10.00" fill="#000000">ipsec.h</text>
</a>
</g>
</g>
<!-- Node20&#45;&gt;Node21 -->
<g id="edge20" class="edge">
<title>Node20&#45;&gt;Node21</title>
<path fill="none" stroke="#191970" d="M583.803,-49.928C595.8636,-40.1397 610.8714,-27.9595 621.1188,-19.6427"/>
<polygon fill="#191970" stroke="#191970" points="581.5779,-47.2262 576.0189,-56.2455 585.9891,-52.6614 581.5779,-47.2262"/>
</g>
<!-- Node23&#45;&gt;Node21 -->
<g id="edge22" class="edge">
<title>Node23&#45;&gt;Node21</title>
<path fill="none" stroke="#191970" d="M709.3704,-159.1887C691.089,-123.4762 651.9399,-46.9988 638.0309,-19.8279"/>
<polygon fill="#191970" stroke="#191970" points="706.4576,-161.1796 714.1299,-168.4862 712.6886,-157.9899 706.4576,-161.1796"/>
</g>
<!-- Node25 -->
<g id="node22" class="node">
<title>Node25</title>
<g id="a_node22"><a xlink:href="spec_2comp_8h.html" target="_top" xlink:title="ODP Compression. ">
<polygon fill="#ffffff" stroke="#ff0000" points="846.5,-224.5 846.5,-243.5 895.5,-243.5 895.5,-224.5 846.5,-224.5"/>
<text text-anchor="middle" x="871" y="-231.5" font-family="Helvetica,sans-Serif" font-size="10.00" fill="#000000">comp.h</text>
</a>
</g>
</g>
<!-- Node24&#45;&gt;Node25 -->
<g id="edge24" class="edge">
<title>Node24&#45;&gt;Node25</title>
<path fill="none" stroke="#191970" d="M841.6592,-272.2112C848.9263,-262.7472 857.5781,-251.4797 863.5958,-243.6427"/>
<polygon fill="#191970" stroke="#191970" points="838.8043,-270.1824 835.49,-280.2455 844.3564,-274.4456 838.8043,-270.1824"/>
</g>
<!-- Node27 -->
<g id="node23" class="node">
<title>Node27</title>
<g id="a_node23"><a xlink:href="spec_2crypto_8h.html" target="_top" xlink:title="ODP crypto. ">
<polygon fill="#ffffff" stroke="#000000" points="709,-224.5 709,-243.5 761,-243.5 761,-224.5 709,-224.5"/>
<text text-anchor="middle" x="735" y="-231.5" font-family="Helvetica,sans-Serif" font-size="10.00" fill="#000000">crypto.h</text>
</a>
</g>
</g>
<!-- Node24&#45;&gt;Node27 -->
<g id="edge25" class="edge">
<title>Node24&#45;&gt;Node27</title>
<path fill="none" stroke="#191970" d="M803.1665,-275.0465C786.6189,-265.0824 765.3568,-252.2794 751.0137,-243.6427"/>
<polygon fill="#191970" stroke="#191970" points="801.4283,-278.0854 811.8006,-280.2455 805.0393,-272.0886 801.4283,-278.0854"/>
</g>
<!-- Node28 -->
<g id="node24" class="node">
<title>Node28</title>
<g id="a_node24"><a xlink:href="spec_2event_8h.html" target="_top" xlink:title="ODP event. ">
<polygon fill="#ffffff" stroke="#ff0000" points="779.5,-224.5 779.5,-243.5 828.5,-243.5 828.5,-224.5 779.5,-224.5"/>
<text text-anchor="middle" x="804" y="-231.5" font-family="Helvetica,sans-Serif" font-size="10.00" fill="#000000">event.h</text>
</a>
</g>
</g>
<!-- Node24&#45;&gt;Node28 -->
<g id="edge27" class="edge">
<title>Node24&#45;&gt;Node28</title>
<path fill="none" stroke="#191970" d="M819.8759,-271.0437C815.9285,-261.8331 811.3542,-251.1598 808.1326,-243.6427"/>
<polygon fill="#191970" stroke="#191970" points="816.6633,-272.4328 823.8195,-280.2455 823.0973,-269.6753 816.6633,-272.4328"/>
</g>
<!-- Node24&#45;&gt;Node39 -->
<g id="edge28" class="edge">
<title>Node24&#45;&gt;Node39</title>
<path fill="none" stroke="#191970" d="M858.9436,-276.2473C881.8265,-266.0771 912.4014,-252.4883 932.6225,-243.5011"/>
<polygon fill="#191970" stroke="#191970" points="857.3768,-273.1135 849.6602,-280.3733 860.2198,-279.5102 857.3768,-273.1135"/>
</g>
<!-- Node32 -->
<g id="node26" class="node">
<title>Node32</title>
<g id="a_node26"><a xlink:href="spec_2packet__io_8h.html" target="_top" xlink:title="ODP Packet IO. ">
<polygon fill="#ffffff" stroke="#000000" points="503.5,-224.5 503.5,-243.5 570.5,-243.5 570.5,-224.5 503.5,-224.5"/>
<text text-anchor="middle" x="537" y="-231.5" font-family="Helvetica,sans-Serif" font-size="10.00" fill="#000000">packet_io.h</text>
</a>
</g>
</g>
<!-- Node24&#45;&gt;Node32 -->
<g id="edge29" class="edge">
<title>Node24&#45;&gt;Node32</title>
<path fill="none" stroke="#191970" d="M790.8645,-282.8536C733.8802,-271.8876 625.7171,-251.0727 570.8048,-240.5054"/>
<polygon fill="#191970" stroke="#191970" points="790.4035,-286.3291 800.8847,-284.7819 791.7263,-279.4552 790.4035,-286.3291"/>
</g>
<!-- Node27&#45;&gt;Node23 -->
<g id="edge26" class="edge">
<title>Node27&#45;&gt;Node23</title>
<path fill="none" stroke="#191970" d="M729.4154,-214.4538C726.823,-205.3803 723.8571,-194.9998 721.755,-187.6427"/>
<polygon fill="#191970" stroke="#191970" points="726.1004,-215.5919 732.213,-224.2455 732.8311,-213.6688 726.1004,-215.5919"/>
</g>
<!-- Node32&#45;&gt;Node33 -->
<g id="edge30" class="edge">
<title>Node32&#45;&gt;Node33</title>
<path fill="none" stroke="#191970" d="M537,-214.1575C537,-205.155 537,-194.9199 537,-187.6427"/>
<polygon fill="#191970" stroke="#191970" points="533.5001,-214.2455 537,-224.2455 540.5001,-214.2456 533.5001,-214.2455"/>
</g>
<!-- Node33&#45;&gt;Node21 -->
<g id="edge33" class="edge">
<title>Node33&#45;&gt;Node21</title>
<path fill="none" stroke="#191970" d="M574.2527,-164.0215C588.8804,-156.6759 604.4286,-146.1907 614,-132 638.0928,-96.2795 636.0653,-41.442 634.082,-19.5277"/>
<polygon fill="#191970" stroke="#191970" points="572.4328,-161.008 564.8452,-168.4025 575.388,-167.3536 572.4328,-161.008"/>
</g>
<!-- Node34 -->
<g id="node28" class="node">
<title>Node34</title>
<g id="a_node28"><a xlink:href="spec_2classification_8h.html" target="_top" xlink:title="ODP classification descriptor. ">
<polygon fill="#ffffff" stroke="#000000" points="523,-112.5 523,-131.5 605,-131.5 605,-112.5 523,-112.5"/>
<text text-anchor="middle" x="564" y="-119.5" font-family="Helvetica,sans-Serif" font-size="10.00" fill="#000000">classification.h</text>
</a>
</g>
</g>
<!-- Node33&#45;&gt;Node34 -->
<g id="edge31" class="edge">
<title>Node33&#45;&gt;Node34</title>
<path fill="none" stroke="#191970" d="M546.1396,-159.0437C550.5805,-149.8331 555.7265,-139.1598 559.3509,-131.6427"/>
<polygon fill="#191970" stroke="#191970" points="542.8934,-157.7178 541.703,-168.2455 549.1988,-160.7579 542.8934,-157.7178"/>
</g>
<!-- Node33&#45;&gt;Node35 -->
<g id="edge34" class="edge">
<title>Node33&#45;&gt;Node35</title>
<path fill="none" stroke="#191970" d="M516.623,-161.928C504.2129,-152.1397 488.77,-139.9595 478.2255,-131.6427"/>
<polygon fill="#191970" stroke="#191970" points="514.6136,-164.8007 524.6327,-168.2455 518.9486,-159.3046 514.6136,-164.8007"/>
</g>
<!-- Node34&#45;&gt;Node20 -->
<g id="edge32" class="edge">
<title>Node34&#45;&gt;Node20</title>
<path fill="none" stroke="#191970" d="M564,-102.1575C564,-93.155 564,-82.9199 564,-75.6427"/>
<polygon fill="#191970" stroke="#191970" points="560.5001,-102.2455 564,-112.2455 567.5001,-102.2456 560.5001,-102.2455"/>
</g>
<!-- Node31&#45;&gt;Node23 -->
<g id="edge37" class="edge">
<title>Node31&#45;&gt;Node23</title>
<path fill="none" stroke="#191970" d="M620.3865,-271.0523C614.096,-257.0546 608.9492,-238.0675 618,-224 634.3676,-198.5602 668.6468,-187.0227 692.7119,-181.9037"/>
<polygon fill="#191970" stroke="#191970" points="617.3724,-272.8498 624.9824,-280.2213 623.6302,-269.713 617.3724,-272.8498"/>
</g>
<!-- Node31&#45;&gt;Node32 -->
<g id="edge38" class="edge">
<title>Node31&#45;&gt;Node32</title>
<path fill="none" stroke="#191970" d="M605.8995,-275.0465C589.174,-265.0824 567.6832,-252.2794 553.1859,-243.6427"/>
<polygon fill="#191970" stroke="#191970" points="604.2441,-278.1343 614.6264,-280.2455 607.8268,-272.1206 604.2441,-278.1343"/>
</g>
<!-- Node31&#45;&gt;Node37 -->
<g id="edge39" class="edge">
<title>Node31&#45;&gt;Node37</title>
<path fill="none" stroke="#191970" d="M640.4781,-271.0437C645.0835,-261.8331 650.4201,-251.1598 654.1787,-243.6427"/>
<polygon fill="#191970" stroke="#191970" points="637.2189,-269.736 635.8772,-280.2455 643.4799,-272.8665 637.2189,-269.736"/>
</g>
<!-- Node42 -->
<g id="node33" class="node">
<title>Node42</title>
<g id="a_node33"><a xlink:href="chksum_8h.html" target="_top" xlink:title="ODP checksum functions. ">
<polygon fill="#ffffff" stroke="#000000" points="1050.5,-224.5 1050.5,-243.5 1109.5,-243.5 1109.5,-224.5 1050.5,-224.5"/>
<text text-anchor="middle" x="1080" y="-231.5" font-family="Helvetica,sans-Serif" font-size="10.00" fill="#000000">chksum.h</text>
</a>
</g>
</g>
<!-- Node41&#45;&gt;Node42 -->
<g id="edge41" class="edge">
<title>Node41&#45;&gt;Node42</title>
<path fill="none" stroke="#191970" d="M1042.5969,-272.7884C1051.8347,-263.2085 1062.9904,-251.6396 1070.7017,-243.6427"/>
<polygon fill="#191970" stroke="#191970" points="1039.828,-270.6176 1035.4061,-280.2455 1044.8669,-275.4766 1039.828,-270.6176"/>
</g>
<!-- Node44 -->
<g id="node35" class="node">
<title>Node44</title>
<g id="a_node35"><a xlink:href="cpu_8h.html" target="_top" xlink:title="ODP CPU. ">
<polygon fill="#ffffff" stroke="#ff0000" points="1127.5,-224.5 1127.5,-243.5 1168.5,-243.5 1168.5,-224.5 1127.5,-224.5"/>
<text text-anchor="middle" x="1148" y="-231.5" font-family="Helvetica,sans-Serif" font-size="10.00" fill="#000000">cpu.h</text>
</a>
</g>
</g>
<!-- Node43&#45;&gt;Node44 -->
<g id="edge43" class="edge">
<title>Node43&#45;&gt;Node44</title>
<path fill="none" stroke="#191970" d="M1110.5969,-272.7884C1119.8347,-263.2085 1130.9904,-251.6396 1138.7017,-243.6427"/>
<polygon fill="#191970" stroke="#191970" points="1107.828,-270.6176 1103.4061,-280.2455 1112.8669,-275.4766 1107.828,-270.6176"/>
</g>
<!-- Node47 -->
<g id="node37" class="node">
<title>Node47</title>
<g id="a_node37"><a xlink:href="feature_8h.html" target="_top" xlink:title="ODP features. ">
<polygon fill="#ffffff" stroke="#000000" points="1225.5,-224.5 1225.5,-243.5 1280.5,-243.5 1280.5,-224.5 1225.5,-224.5"/>
<text text-anchor="middle" x="1253" y="-231.5" font-family="Helvetica,sans-Serif" font-size="10.00" fill="#000000">feature.h</text>
</a>
</g>
</g>
<!-- Node46&#45;&gt;Node47 -->
<g id="edge45" class="edge">
<title>Node46&#45;&gt;Node47</title>
<path fill="none" stroke="#191970" d="M1215.5969,-272.7884C1224.8347,-263.2085 1235.9904,-251.6396 1243.7017,-243.6427"/>
<polygon fill="#191970" stroke="#191970" points="1212.828,-270.6176 1208.4061,-280.2455 1217.8669,-275.4766 1212.828,-270.6176"/>
</g>
<!-- Node47&#45;&gt;Node48 -->
<g id="edge46" class="edge">
<title>Node47&#45;&gt;Node48</title>
<path fill="none" stroke="#191970" d="M1243.5219,-215.0437C1238.9165,-205.8331 1233.5799,-195.1598 1229.8213,-187.6427"/>
<polygon fill="#191970" stroke="#191970" points="1240.5201,-216.8665 1248.1228,-224.2455 1246.7811,-213.736 1240.5201,-216.8665"/>
</g>
<!-- Node49 -->
<g id="node39" class="node">
<title>Node49</title>
<g id="a_node39"><a xlink:href="init_8h.html" target="_top" xlink:title="ODP initialization. ">
<polygon fill="#ffffff" stroke="#ff0000" points="1206,-112.5 1206,-131.5 1244,-131.5 1244,-112.5 1206,-112.5"/>
<text text-anchor="middle" x="1225" y="-119.5" font-family="Helvetica,sans-Serif" font-size="10.00" fill="#000000">init.h</text>
</a>
</g>
</g>
<!-- Node48&#45;&gt;Node49 -->
<g id="edge47" class="edge">
<title>Node48&#45;&gt;Node49</title>
<path fill="none" stroke="#191970" d="M1225,-158.1575C1225,-149.155 1225,-138.9199 1225,-131.6427"/>
<polygon fill="#191970" stroke="#191970" points="1221.5001,-158.2455 1225,-168.2455 1228.5001,-158.2456 1221.5001,-158.2455"/>
</g>
<!-- Node53 -->
<g id="node41" class="node">
<title>Node53</title>
<g id="a_node41"><a xlink:href="hash_8h.html" target="_top" xlink:title="ODP Hash function. ">
<polygon fill="#ffffff" stroke="#000000" points="1299,-224.5 1299,-243.5 1345,-243.5 1345,-224.5 1299,-224.5"/>
<text text-anchor="middle" x="1322" y="-231.5" font-family="Helvetica,sans-Serif" font-size="10.00" fill="#000000">hash.h</text>
</a>
</g>
</g>
<!-- Node52&#45;&gt;Node53 -->
<g id="edge49" class="edge">
<title>Node52&#45;&gt;Node53</title>
<path fill="none" stroke="#191970" d="M1284.5969,-272.7884C1293.8347,-263.2085 1304.9904,-251.6396 1312.7017,-243.6427"/>
<polygon fill="#191970" stroke="#191970" points="1281.828,-270.6176 1277.4061,-280.2455 1286.8669,-275.4766 1281.828,-270.6176"/>
</g>
<!-- Node64&#45;&gt;Node32 -->
<g id="edge60" class="edge">
<title>Node64&#45;&gt;Node32</title>
<path fill="none" stroke="#191970" d="M537,-270.1575C537,-261.155 537,-250.9199 537,-243.6427"/>
<polygon fill="#191970" stroke="#191970" points="533.5001,-270.2455 537,-280.2455 540.5001,-270.2456 533.5001,-270.2455"/>
</g>
</g>
</svg>
