<?xml version="1.0" encoding="UTF-8" standalone="no"?>
<!DOCTYPE svg PUBLIC "-//W3C//DTD SVG 1.1//EN"
 "http://www.w3.org/Graphics/SVG/1.1/DTD/svg11.dtd">
<!-- Generated by graphviz version 2.40.1 (20161225.0304)
 -->
<!-- Title: packet_io.h Pages: 1 -->
<svg width="1445pt" height="733pt"
 viewBox="0.00 0.00 1445.00 733.00" xmlns="http://www.w3.org/2000/svg" xmlns:xlink="http://www.w3.org/1999/xlink">
<g id="graph0" class="graph" transform="scale(1 1) rotate(0) translate(4 729)">
<title>packet_io.h</title>
<polygon fill="#ffffff" stroke="transparent" points="-4,4 -4,-729 1441,-729 1441,4 -4,4"/>
<!-- Node0 -->
<g id="node1" class="node">
<title>Node0</title>
<polygon fill="#bfbfbf" stroke="#000000" points="712.5,-705.5 712.5,-724.5 779.5,-724.5 779.5,-705.5 712.5,-705.5"/>
<text text-anchor="middle" x="746" y="-712.5" font-family="Helvetica,sans-Serif" font-size="10.00" fill="#000000">packet_io.h</text>
</g>
<!-- Node1 -->
<g id="node2" class="node">
<title>Node1</title>
<polygon fill="#ffffff" stroke="#bfbfbf" points="239.5,-.5 239.5,-19.5 346.5,-19.5 346.5,-.5 239.5,-.5"/>
<text text-anchor="middle" x="293" y="-7.5" font-family="Helvetica,sans-Serif" font-size="10.00" fill="#000000">odp/visibility_begin.h</text>
</g>
<!-- Node0&#45;&gt;Node1 -->
<g id="edge1" class="edge">
<title>Node0&#45;&gt;Node1</title>
<path fill="none" stroke="#191970" d="M712.3669,-713.9554C602.4298,-710.3014 254.5484,-696.7793 146,-669 77.0122,-651.3449 0,-674.211 0,-603 0,-603 0,-603 0,-133 0,-91.201 18.9151,-78.7202 54,-56 82.3309,-37.6535 168.3787,-24.291 229.0733,-16.8369"/>
<polygon fill="#191970" stroke="#191970" points="229.8258,-20.2717 239.3364,-15.6027 228.99,-13.3218 229.8258,-20.2717"/>
</g>
<!-- Node2 -->
<g id="node3" class="node">
<title>Node2</title>
<g id="a_node3"><a xlink:href="deprecated_8h.html" target="_top" xlink:title="Control deprecated API definitions. ">
<polygon fill="#ffffff" stroke="#000000" points="429.5,-246.5 429.5,-265.5 536.5,-265.5 536.5,-246.5 429.5,-246.5"/>
<text text-anchor="middle" x="483" y="-253.5" font-family="Helvetica,sans-Serif" font-size="10.00" fill="#000000">odp/api/deprecated.h</text>
</a>
</g>
</g>
<!-- Node0&#45;&gt;Node2 -->
<g id="edge2" class="edge">
<title>Node0&#45;&gt;Node2</title>
<path fill="none" stroke="#191970" d="M712.3592,-710.5327C630.2004,-698.685 426,-663.1844 426,-603 426,-603 426,-603 426,-379 426,-338.2759 452.0402,-296.411 468.9193,-273.552"/>
<polygon fill="#191970" stroke="#191970" points="471.7815,-275.5708 475.0744,-265.5006 466.2204,-271.3194 471.7815,-275.5708"/>
</g>
<!-- Node4 -->
<g id="node5" class="node">
<title>Node4</title>
<polygon fill="#ffffff" stroke="#bfbfbf" points="778,-.5 778,-19.5 878,-19.5 878,-.5 778,-.5"/>
<text text-anchor="middle" x="828" y="-7.5" font-family="Helvetica,sans-Serif" font-size="10.00" fill="#000000">odp/visibility_end.h</text>
</g>
<!-- Node0&#45;&gt;Node4 -->
<g id="edge65" class="edge">
<title>Node0&#45;&gt;Node4</title>
<path fill="none" stroke="#191970" d="M779.7961,-713.1401C918.5279,-705.0637 1437,-670.3737 1437,-603 1437,-603 1437,-603 1437,-133 1437,-39.4078 1331.8509,-78.486 1241,-56 1117.9307,-25.5398 969.2086,-15.2226 888.0468,-11.7473"/>
<polygon fill="#191970" stroke="#191970" points="888.1453,-8.2485 878.011,-11.3379 887.86,-15.2427 888.1453,-8.2485"/>
</g>
<!-- Node5 -->
<g id="node6" class="node">
<title>Node5</title>
<g id="a_node6"><a xlink:href="packet__io__stats_8h.html" target="_top" xlink:title="ODP packet IO stats. ">
<polygon fill="#ffffff" stroke="#000000" points="155,-649.5 155,-668.5 283,-668.5 283,-649.5 155,-649.5"/>
<text text-anchor="middle" x="219" y="-656.5" font-family="Helvetica,sans-Serif" font-size="10.00" fill="#000000">odp/api/packet_io_stats.h</text>
</a>
</g>
</g>
<!-- Node0&#45;&gt;Node5 -->
<g id="edge6" class="edge">
<title>Node0&#45;&gt;Node5</title>
<path fill="none" stroke="#191970" d="M712.2321,-711.4118C628.4341,-702.5072 409.3728,-679.2294 293.4419,-666.9103"/>
<polygon fill="#191970" stroke="#191970" points="293.5473,-663.4019 283.2335,-665.8256 292.8076,-670.3627 293.5473,-663.4019"/>
</g>
<!-- Node7 -->
<g id="node8" class="node">
<title>Node7</title>
<g id="a_node8"><a xlink:href="queue_8h.html" target="_top" xlink:title="ODP queue. ">
<polygon fill="#ffffff" stroke="#000000" points="703,-649.5 703,-668.5 789,-668.5 789,-649.5 703,-649.5"/>
<text text-anchor="middle" x="746" y="-656.5" font-family="Helvetica,sans-Serif" font-size="10.00" fill="#000000">odp/api/queue.h</text>
</a>
</g>
</g>
<!-- Node0&#45;&gt;Node7 -->
<g id="edge10" class="edge">
<title>Node0&#45;&gt;Node7</title>
<path fill="none" stroke="#191970" d="M746,-705.2455C746,-697.9382 746,-687.6944 746,-678.7046"/>
<polygon fill="#191970" stroke="#191970" points="749.5001,-678.6426 746,-668.6427 742.5001,-678.6427 749.5001,-678.6426"/>
</g>
<!-- Node22 -->
<g id="node23" class="node">
<title>Node22</title>
<g id="a_node23"><a xlink:href="packet_8h.html" target="_top" xlink:title="ODP packet descriptor. ">
<polygon fill="#ffffff" stroke="#000000" points="936.5,-425.5 936.5,-444.5 1025.5,-444.5 1025.5,-425.5 936.5,-425.5"/>
<text text-anchor="middle" x="981" y="-432.5" font-family="Helvetica,sans-Serif" font-size="10.00" fill="#000000">odp/api/packet.h</text>
</a>
</g>
</g>
<!-- Node0&#45;&gt;Node22 -->
<g id="edge64" class="edge">
<title>Node0&#45;&gt;Node22</title>
<path fill="none" stroke="#191970" d="M779.65,-711.0828C891.9804,-697.5584 1247,-651.0167 1247,-603 1247,-603 1247,-603 1247,-547 1247,-501.5634 1113.5027,-464.2945 1035.6545,-446.4241"/>
<polygon fill="#191970" stroke="#191970" points="1036.0479,-442.9248 1025.5224,-444.1354 1034.5055,-449.7528 1036.0479,-442.9248"/>
</g>
<!-- Node26 -->
<g id="node27" class="node">
<title>Node26</title>
<g id="a_node27"><a xlink:href="time_8h.html" target="_top" xlink:title="ODP time. ">
<polygon fill="#ffffff" stroke="#000000" points="1120,-308 1120,-327 1198,-327 1198,-308 1120,-308"/>
<text text-anchor="middle" x="1159" y="-315" font-family="Helvetica,sans-Serif" font-size="10.00" fill="#000000">odp/api/time.h</text>
</a>
</g>
</g>
<!-- Node0&#45;&gt;Node26 -->
<g id="edge63" class="edge">
<title>Node0&#45;&gt;Node26</title>
<path fill="none" stroke="#191970" d="M779.516,-712.0825C902.6619,-700.9212 1323,-658.7412 1323,-603 1323,-603 1323,-603 1323,-435 1323,-404.4754 1324.9162,-391.2321 1304,-369 1279.0584,-342.4892 1239.5909,-329.6098 1208.1256,-323.3613"/>
<polygon fill="#191970" stroke="#191970" points="1208.6847,-319.9056 1198.2194,-321.5567 1207.4302,-326.7923 1208.6847,-319.9056"/>
</g>
<!-- Node3 -->
<g id="node4" class="node">
<title>Node3</title>
<g id="a_node4"><a xlink:href="spec_2deprecated_8h.html" target="_top" xlink:title="Macro for deprecated API definitions. ">
<polygon fill="#ffffff" stroke="#000000" points="340.5,-62 340.5,-81 471.5,-81 471.5,-62 340.5,-62"/>
<text text-anchor="middle" x="406" y="-69" font-family="Helvetica,sans-Serif" font-size="10.00" fill="#000000">odp/api/spec/deprecated.h</text>
</a>
</g>
</g>
<!-- Node2&#45;&gt;Node3 -->
<g id="edge3" class="edge">
<title>Node2&#45;&gt;Node3</title>
<path fill="none" stroke="#191970" d="M478.3677,-246.1854C474.0261,-236.9101 467.4119,-222.5805 462,-210 443.8133,-167.7231 423.9334,-117.5119 413.4454,-90.6775"/>
<polygon fill="#191970" stroke="#191970" points="416.6833,-89.347 409.7912,-81.3003 410.1611,-91.8887 416.6833,-89.347"/>
</g>
<!-- Node3&#45;&gt;Node1 -->
<g id="edge4" class="edge">
<title>Node3&#45;&gt;Node1</title>
<path fill="none" stroke="#191970" d="M388.3438,-61.8906C369.8514,-51.8262 340.599,-35.9057 319.3692,-24.3514"/>
<polygon fill="#191970" stroke="#191970" points="320.9888,-21.2481 310.5323,-19.5419 317.6425,-27.3965 320.9888,-21.2481"/>
</g>
<!-- Node3&#45;&gt;Node4 -->
<g id="edge5" class="edge">
<title>Node3&#45;&gt;Node4</title>
<path fill="none" stroke="#191970" d="M471.4745,-61.9581C552.4547,-50.1565 689.194,-30.2288 767.7062,-18.7869"/>
<polygon fill="#191970" stroke="#191970" points="768.5281,-22.2042 777.9188,-17.2986 767.5186,-15.2773 768.5281,-22.2042"/>
</g>
<!-- Node6 -->
<g id="node7" class="node">
<title>Node6</title>
<g id="a_node7"><a xlink:href="spec_2packet__io__stats_8h.html" target="_top" xlink:title="ODP Packet IO. ">
<polygon fill="#ffffff" stroke="#000000" points="142,-56.5 142,-86.5 246,-86.5 246,-56.5 142,-56.5"/>
<text text-anchor="start" x="150" y="-74.5" font-family="Helvetica,sans-Serif" font-size="10.00" fill="#000000">odp/api/spec/packet</text>
<text text-anchor="middle" x="194" y="-63.5" font-family="Helvetica,sans-Serif" font-size="10.00" fill="#000000">_io_stats.h</text>
</a>
</g>
</g>
<!-- Node5&#45;&gt;Node6 -->
<g id="edge7" class="edge">
<title>Node5&#45;&gt;Node6</title>
<path fill="none" stroke="#191970" d="M186.1929,-649.408C143.9744,-634.808 76,-602.6587 76,-547 76,-547 76,-547 76,-317.5 76,-227.7631 140.6224,-136.1212 174.2219,-94.5381"/>
<polygon fill="#191970" stroke="#191970" points="177.042,-96.6193 180.6933,-86.6735 171.6367,-92.1715 177.042,-96.6193"/>
</g>
<!-- Node6&#45;&gt;Node1 -->
<g id="edge8" class="edge">
<title>Node6&#45;&gt;Node1</title>
<path fill="none" stroke="#191970" d="M218.2181,-56.4554C233.5773,-46.9141 253.3757,-34.6151 268.7425,-25.0691"/>
<polygon fill="#191970" stroke="#191970" points="271.011,-27.7802 277.6585,-19.5303 267.3172,-21.8341 271.011,-27.7802"/>
</g>
<!-- Node6&#45;&gt;Node4 -->
<g id="edge9" class="edge">
<title>Node6&#45;&gt;Node4</title>
<path fill="none" stroke="#191970" d="M246.0172,-65.3625C271.6006,-62.4083 302.9031,-58.8894 331,-56 488.4448,-39.809 674.2249,-23.3052 767.7569,-15.1772"/>
<polygon fill="#191970" stroke="#191970" points="768.2204,-18.6502 777.8804,-14.2989 767.6153,-11.6764 768.2204,-18.6502"/>
</g>
<!-- Node8 -->
<g id="node9" class="node">
<title>Node8</title>
<g id="a_node9"><a xlink:href="std__types_8h.html" target="_top" xlink:title="Standard C language types and definitions for ODP. ">
<polygon fill="#ffffff" stroke="#000000" points="1242,-246.5 1242,-265.5 1344,-265.5 1344,-246.5 1242,-246.5"/>
<text text-anchor="middle" x="1293" y="-253.5" font-family="Helvetica,sans-Serif" font-size="10.00" fill="#000000">odp/api/std_types.h</text>
</a>
</g>
</g>
<!-- Node7&#45;&gt;Node8 -->
<g id="edge11" class="edge">
<title>Node7&#45;&gt;Node8</title>
<path fill="none" stroke="#191970" d="M789.2818,-653.3591C899.757,-636.4342 1192.6318,-575.1727 1323,-389 1345.232,-357.2516 1341.6336,-338.6417 1329,-302 1325.2813,-291.2144 1317.8787,-281.0249 1310.7481,-272.9904"/>
<polygon fill="#191970" stroke="#191970" points="1313.2791,-270.5729 1303.8548,-265.7321 1308.2033,-275.3934 1313.2791,-270.5729"/>
</g>
<!-- Node15 -->
<g id="node16" class="node">
<title>Node15</title>
<polygon fill="#ffffff" stroke="#bfbfbf" points="577.5,-369.5 577.5,-388.5 676.5,-388.5 676.5,-369.5 577.5,-369.5"/>
<text text-anchor="middle" x="627" y="-376.5" font-family="Helvetica,sans-Serif" font-size="10.00" fill="#000000">odp/api/abi/event.h</text>
</g>
<!-- Node7&#45;&gt;Node15 -->
<g id="edge22" class="edge">
<title>Node7&#45;&gt;Node15</title>
<path fill="none" stroke="#191970" d="M740.0767,-649.2094C729.1666,-630.2164 707,-586.7379 707,-547 707,-547 707,-547 707,-491 707,-450.601 672.1081,-414.7136 648.4106,-394.9987"/>
<polygon fill="#191970" stroke="#191970" points="650.5639,-392.2391 640.5709,-388.7189 646.1875,-397.7024 650.5639,-392.2391"/>
</g>
<!-- Node16 -->
<g id="node17" class="node">
<title>Node16</title>
<polygon fill="#ffffff" stroke="#bfbfbf" points="735.5,-593.5 735.5,-612.5 836.5,-612.5 836.5,-593.5 735.5,-593.5"/>
<text text-anchor="middle" x="786" y="-600.5" font-family="Helvetica,sans-Serif" font-size="10.00" fill="#000000">odp/api/abi/queue.h</text>
</g>
<!-- Node7&#45;&gt;Node16 -->
<g id="edge23" class="edge">
<title>Node7&#45;&gt;Node16</title>
<path fill="none" stroke="#191970" d="M752.9675,-649.2455C758.5311,-641.4564 766.478,-630.3308 773.1829,-620.9439"/>
<polygon fill="#191970" stroke="#191970" points="776.148,-622.8144 779.1124,-612.6427 770.4519,-618.7457 776.148,-622.8144"/>
</g>
<!-- Node17 -->
<g id="node18" class="node">
<title>Node17</title>
<polygon fill="#ffffff" stroke="#bfbfbf" points="695,-369.5 695,-388.5 795,-388.5 795,-369.5 695,-369.5"/>
<text text-anchor="middle" x="745" y="-376.5" font-family="Helvetica,sans-Serif" font-size="10.00" fill="#000000">odp/api/abi/buffer.h</text>
</g>
<!-- Node7&#45;&gt;Node17 -->
<g id="edge24" class="edge">
<title>Node7&#45;&gt;Node17</title>
<path fill="none" stroke="#191970" d="M740.7682,-649.4788C736.1047,-640.4109 729.6231,-626.2215 727,-613 725.2702,-604.281 726.6272,-601.8811 727,-593 730.0046,-521.4312 738.6376,-436.7537 742.7585,-398.9532"/>
<polygon fill="#191970" stroke="#191970" points="746.2616,-399.1174 743.8814,-388.7934 739.304,-398.3484 746.2616,-399.1174"/>
</g>
<!-- Node18 -->
<g id="node19" class="node">
<title>Node18</title>
<polygon fill="#ffffff" stroke="#bfbfbf" points="813.5,-369.5 813.5,-388.5 906.5,-388.5 906.5,-369.5 813.5,-369.5"/>
<text text-anchor="middle" x="860" y="-376.5" font-family="Helvetica,sans-Serif" font-size="10.00" fill="#000000">odp/api/abi/pool.h</text>
</g>
<!-- Node7&#45;&gt;Node18 -->
<g id="edge25" class="edge">
<title>Node7&#45;&gt;Node18</title>
<path fill="none" stroke="#191970" d="M785.5261,-649.4226C806.2231,-642.5074 830.4298,-631.1156 846,-613 865.8965,-589.8509 865,-577.5246 865,-547 865,-547 865,-547 865,-491 865,-458.6794 862.8963,-421.1646 861.418,-398.7929"/>
<polygon fill="#191970" stroke="#191970" points="864.8937,-398.3185 860.7164,-388.5819 857.9102,-398.7984 864.8937,-398.3185"/>
</g>
<!-- Node19 -->
<g id="node20" class="node">
<title>Node19</title>
<g id="a_node20"><a xlink:href="spec_2queue_8h.html" target="_top" xlink:title="ODP queue. ">
<polygon fill="#ffffff" stroke="#000000" points="454,-593.5 454,-612.5 564,-612.5 564,-593.5 454,-593.5"/>
<text text-anchor="middle" x="509" y="-600.5" font-family="Helvetica,sans-Serif" font-size="10.00" fill="#000000">odp/api/spec/queue.h</text>
</a>
</g>
</g>
<!-- Node7&#45;&gt;Node19 -->
<g id="edge26" class="edge">
<title>Node7&#45;&gt;Node19</title>
<path fill="none" stroke="#191970" d="M705.5275,-649.4369C665.052,-639.8731 602.7133,-625.1432 559.1297,-614.845"/>
<polygon fill="#191970" stroke="#191970" points="559.8424,-611.4171 549.3055,-612.5237 558.2327,-618.2295 559.8424,-611.4171"/>
</g>
<!-- Node9 -->
<g id="node10" class="node">
<title>Node9</title>
<polygon fill="#ffffff" stroke="#bfbfbf" points="1094,-185 1094,-204 1212,-204 1212,-185 1094,-185"/>
<text text-anchor="middle" x="1153" y="-192" font-family="Helvetica,sans-Serif" font-size="10.00" fill="#000000">odp/api/abi/std_types.h</text>
</g>
<!-- Node8&#45;&gt;Node9 -->
<g id="edge12" class="edge">
<title>Node8&#45;&gt;Node9</title>
<path fill="none" stroke="#191970" d="M1271.125,-246.3906C1247.7004,-236.1005 1210.3404,-219.6888 1183.9159,-208.0809"/>
<polygon fill="#191970" stroke="#191970" points="1185.2846,-204.8594 1174.7214,-204.0419 1182.4693,-211.2683 1185.2846,-204.8594"/>
</g>
<!-- Node10 -->
<g id="node11" class="node">
<title>Node10</title>
<g id="a_node11"><a xlink:href="spec_2std__types_8h.html" target="_top" xlink:title="Standard C language types and definitions for ODP. ">
<polygon fill="#ffffff" stroke="#000000" points="1230,-185 1230,-204 1356,-204 1356,-185 1230,-185"/>
<text text-anchor="middle" x="1293" y="-192" font-family="Helvetica,sans-Serif" font-size="10.00" fill="#000000">odp/api/spec/std_types.h</text>
</a>
</g>
</g>
<!-- Node8&#45;&gt;Node10 -->
<g id="edge13" class="edge">
<title>Node8&#45;&gt;Node10</title>
<path fill="none" stroke="#191970" d="M1293,-246.3906C1293,-237.8657 1293,-225.1392 1293,-214.4235"/>
<polygon fill="#191970" stroke="#191970" points="1296.5001,-214.2448 1293,-204.2449 1289.5001,-214.2449 1296.5001,-214.2448"/>
</g>
<!-- Node10&#45;&gt;Node1 -->
<g id="edge14" class="edge">
<title>Node10&#45;&gt;Node1</title>
<path fill="none" stroke="#191970" d="M1251.6127,-184.9848C1241.6205,-182.8554 1230.9536,-180.7207 1221,-179 910.9309,-125.3989 807.9257,-211.6508 519,-87 498.9872,-78.3659 500.5096,-65.7178 481,-56 442.0984,-36.6229 394.5165,-25.0837 356.9555,-18.4087"/>
<polygon fill="#191970" stroke="#191970" points="357.0884,-14.881 346.6427,-16.6525 355.9132,-21.7817 357.0884,-14.881"/>
</g>
<!-- Node10&#45;&gt;Node4 -->
<g id="edge21" class="edge">
<title>Node10&#45;&gt;Node4</title>
<path fill="none" stroke="#191970" d="M1292.0411,-184.6224C1290.2885,-170.2181 1285.613,-142.9909 1274,-123 1252.6882,-86.3134 1244.2122,-74.4371 1206,-56 1151.2648,-29.5906 980.1772,-17.3884 888.0969,-12.6084"/>
<polygon fill="#191970" stroke="#191970" points="888.2489,-9.1117 878.0848,-12.1018 887.8951,-16.1028 888.2489,-9.1117"/>
</g>
<!-- Node11 -->
<g id="node12" class="node">
<title>Node11</title>
<polygon fill="#ffffff" stroke="#bfbfbf" points="1215.5,-123.5 1215.5,-142.5 1264.5,-142.5 1264.5,-123.5 1215.5,-123.5"/>
<text text-anchor="middle" x="1240" y="-130.5" font-family="Helvetica,sans-Serif" font-size="10.00" fill="#000000">stdint.h</text>
</g>
<!-- Node10&#45;&gt;Node11 -->
<g id="edge15" class="edge">
<title>Node10&#45;&gt;Node11</title>
<path fill="none" stroke="#191970" d="M1284.7188,-184.8906C1276.8307,-175.7376 1264.7686,-161.7409 1255.1588,-150.59"/>
<polygon fill="#191970" stroke="#191970" points="1257.5775,-148.0352 1248.398,-142.7449 1252.2749,-152.6049 1257.5775,-148.0352"/>
</g>
<!-- Node12 -->
<g id="node13" class="node">
<title>Node12</title>
<g id="a_node13"><a xlink:href="align_8h.html" target="_top" xlink:title="ODP alignments. ">
<polygon fill="#ffffff" stroke="#000000" points="1109,-123.5 1109,-142.5 1189,-142.5 1189,-123.5 1109,-123.5"/>
<text text-anchor="middle" x="1149" y="-130.5" font-family="Helvetica,sans-Serif" font-size="10.00" fill="#000000">odp/api/align.h</text>
</a>
</g>
</g>
<!-- Node10&#45;&gt;Node12 -->
<g id="edge16" class="edge">
<title>Node10&#45;&gt;Node12</title>
<path fill="none" stroke="#191970" d="M1270.5,-184.8906C1246.4062,-174.6005 1207.9787,-158.1888 1180.7992,-146.5809"/>
<polygon fill="#191970" stroke="#191970" points="1181.9131,-143.2508 1171.342,-142.5419 1179.1637,-149.6883 1181.9131,-143.2508"/>
</g>
<!-- Node13 -->
<g id="node14" class="node">
<title>Node13</title>
<polygon fill="#ffffff" stroke="#bfbfbf" points="1101.5,-62 1101.5,-81 1196.5,-81 1196.5,-62 1101.5,-62"/>
<text text-anchor="middle" x="1149" y="-69" font-family="Helvetica,sans-Serif" font-size="10.00" fill="#000000">odp/api/abi/align.h</text>
</g>
<!-- Node12&#45;&gt;Node13 -->
<g id="edge17" class="edge">
<title>Node12&#45;&gt;Node13</title>
<path fill="none" stroke="#191970" d="M1149,-123.3906C1149,-114.8657 1149,-102.1392 1149,-91.4235"/>
<polygon fill="#191970" stroke="#191970" points="1152.5001,-91.2448 1149,-81.2449 1145.5001,-91.2449 1152.5001,-91.2448"/>
</g>
<!-- Node14 -->
<g id="node15" class="node">
<title>Node14</title>
<g id="a_node15"><a xlink:href="spec_2align_8h.html" target="_top" xlink:title="ODP alignments. ">
<polygon fill="#ffffff" stroke="#000000" points="896,-62 896,-81 1000,-81 1000,-62 896,-62"/>
<text text-anchor="middle" x="948" y="-69" font-family="Helvetica,sans-Serif" font-size="10.00" fill="#000000">odp/api/spec/align.h</text>
</a>
</g>
</g>
<!-- Node12&#45;&gt;Node14 -->
<g id="edge18" class="edge">
<title>Node12&#45;&gt;Node14</title>
<path fill="none" stroke="#191970" d="M1117.5938,-123.3906C1082.9302,-112.7846 1027.0119,-95.6753 988.9375,-84.0257"/>
<polygon fill="#191970" stroke="#191970" points="989.7722,-80.6209 979.1857,-81.0419 987.7241,-87.3146 989.7722,-80.6209"/>
</g>
<!-- Node14&#45;&gt;Node1 -->
<g id="edge19" class="edge">
<title>Node14&#45;&gt;Node1</title>
<path fill="none" stroke="#191970" d="M895.9482,-62.6225C880.8367,-60.2428 864.2875,-57.8267 849,-56 671.4078,-34.7797 460.7285,-20.2387 357.0969,-13.7822"/>
<polygon fill="#191970" stroke="#191970" points="357.0012,-10.2697 346.8042,-13.1456 356.569,-17.2563 357.0012,-10.2697"/>
</g>
<!-- Node14&#45;&gt;Node4 -->
<g id="edge20" class="edge">
<title>Node14&#45;&gt;Node4</title>
<path fill="none" stroke="#191970" d="M929.25,-61.8906C909.524,-51.7811 878.2688,-35.7628 855.7,-24.1962"/>
<polygon fill="#191970" stroke="#191970" points="857.114,-20.9881 846.6183,-19.5419 853.9213,-27.2176 857.114,-20.9881"/>
</g>
<!-- Node19&#45;&gt;Node1 -->
<g id="edge27" class="edge">
<title>Node19&#45;&gt;Node1</title>
<path fill="none" stroke="#191970" d="M453.661,-598.9019C344.9515,-589.3236 114,-560.7651 114,-491 114,-491 114,-491 114,-379 114,-290.3155 38,-283.1845 38,-194.5 38,-194.5 38,-194.5 38,-133 38,-87.0478 67.617,-79.6766 107,-56 144.004,-33.7536 191.2992,-22.2408 228.9375,-16.2961"/>
<polygon fill="#191970" stroke="#191970" points="229.9021,-19.6914 239.2807,-14.7628 228.8755,-12.7671 229.9021,-19.6914"/>
</g>
<!-- Node19&#45;&gt;Node4 -->
<g id="edge62" class="edge">
<title>Node19&#45;&gt;Node4</title>
<path fill="none" stroke="#191970" d="M508.7731,-593.272C508.4226,-559.5896 510.9022,-445.8053 557,-369 649.8459,-214.3056 778.5078,-253.077 849,-87 857.1597,-67.776 848.4324,-44.4983 839.8741,-28.6035"/>
<polygon fill="#191970" stroke="#191970" points="842.7802,-26.6389 834.7196,-19.763 836.733,-30.1648 842.7802,-26.6389"/>
</g>
<!-- Node20 -->
<g id="node21" class="node">
<title>Node20</title>
<g id="a_node21"><a xlink:href="event_8h.html" target="_top" xlink:title="ODP event. ">
<polygon fill="#ffffff" stroke="#000000" points="545.5,-537.5 545.5,-556.5 628.5,-556.5 628.5,-537.5 545.5,-537.5"/>
<text text-anchor="middle" x="587" y="-544.5" font-family="Helvetica,sans-Serif" font-size="10.00" fill="#000000">odp/api/event.h</text>
</a>
</g>
</g>
<!-- Node19&#45;&gt;Node20 -->
<g id="edge28" class="edge">
<title>Node19&#45;&gt;Node20</title>
<path fill="none" stroke="#191970" d="M522.5866,-593.2455C534.3305,-584.814 551.5199,-572.4729 565.1882,-562.6598"/>
<polygon fill="#191970" stroke="#191970" points="567.4871,-565.3179 573.5691,-556.6427 563.4046,-559.6316 567.4871,-565.3179"/>
</g>
<!-- Node29 -->
<g id="node30" class="node">
<title>Node29</title>
<g id="a_node30"><a xlink:href="queue__types_8h.html" target="_top" xlink:title="ODP queue types. ">
<polygon fill="#ffffff" stroke="#000000" points="296.5,-302.5 296.5,-332.5 397.5,-332.5 397.5,-302.5 296.5,-302.5"/>
<text text-anchor="start" x="304.5" y="-320.5" font-family="Helvetica,sans-Serif" font-size="10.00" fill="#000000">odp/api/spec/queue</text>
<text text-anchor="middle" x="347" y="-309.5" font-family="Helvetica,sans-Serif" font-size="10.00" fill="#000000">_types.h</text>
</a>
</g>
</g>
<!-- Node19&#45;&gt;Node29 -->
<g id="edge49" class="edge">
<title>Node19&#45;&gt;Node29</title>
<path fill="none" stroke="#191970" d="M467.5385,-593.4141C419.8353,-579.6372 348,-549.2246 348,-491 348,-491 348,-491 348,-435 348,-403.3002 347.6316,-366.7917 347.342,-342.9916"/>
<polygon fill="#191970" stroke="#191970" points="350.8382,-342.6647 347.2121,-332.7098 343.8388,-342.7532 350.8382,-342.6647"/>
</g>
<!-- Node20&#45;&gt;Node15 -->
<g id="edge29" class="edge">
<title>Node20&#45;&gt;Node15</title>
<path fill="none" stroke="#191970" d="M609.1066,-537.4742C623.6331,-529.902 641.4737,-517.7828 650,-501 667.0748,-467.3908 650.0822,-422.759 637.6027,-397.8542"/>
<polygon fill="#191970" stroke="#191970" points="640.567,-395.9724 632.8023,-388.7641 634.3771,-399.2412 640.567,-395.9724"/>
</g>
<!-- Node21 -->
<g id="node22" class="node">
<title>Node21</title>
<g id="a_node22"><a xlink:href="spec_2event_8h.html" target="_top" xlink:title="ODP event. ">
<polygon fill="#ffffff" stroke="#000000" points="533.5,-481.5 533.5,-500.5 640.5,-500.5 640.5,-481.5 533.5,-481.5"/>
<text text-anchor="middle" x="587" y="-488.5" font-family="Helvetica,sans-Serif" font-size="10.00" fill="#000000">odp/api/spec/event.h</text>
</a>
</g>
</g>
<!-- Node20&#45;&gt;Node21 -->
<g id="edge30" class="edge">
<title>Node20&#45;&gt;Node21</title>
<path fill="none" stroke="#191970" d="M587,-537.2455C587,-529.9382 587,-519.6944 587,-510.7046"/>
<polygon fill="#191970" stroke="#191970" points="590.5001,-510.6426 587,-500.6427 583.5001,-510.6427 590.5001,-510.6426"/>
</g>
<!-- Node21&#45;&gt;Node1 -->
<g id="edge31" class="edge">
<title>Node21&#45;&gt;Node1</title>
<path fill="none" stroke="#191970" d="M553.3308,-481.4933C489.7816,-462.2088 350.3525,-413.3685 259,-333 210.0385,-289.9255 211.9123,-266.2976 179,-210 142.3943,-147.3848 81.0036,-113.6625 125,-56 137.9064,-39.0846 187.3853,-26.8665 229.3305,-19.2926"/>
<polygon fill="#191970" stroke="#191970" points="230.0017,-22.7285 239.2506,-17.5606 228.7976,-15.8328 230.0017,-22.7285"/>
</g>
<!-- Node21&#45;&gt;Node4 -->
<g id="edge48" class="edge">
<title>Node21&#45;&gt;Node4</title>
<path fill="none" stroke="#191970" d="M581.7642,-481.3895C570.7563,-459.7649 547.9028,-406.2617 569,-369 584.3221,-341.9382 602.3545,-349.0353 629,-333 801.3815,-229.2607 913.991,-264.343 1009,-87 1015.5064,-74.8553 1017.4578,-66.8762 1009,-56 994.1194,-36.8645 934.8709,-24.3892 888.1615,-17.3222"/>
<polygon fill="#191970" stroke="#191970" points="888.5054,-13.8353 878.1045,-15.8534 887.4937,-20.7619 888.5054,-13.8353"/>
</g>
<!-- Node21&#45;&gt;Node22 -->
<g id="edge32" class="edge">
<title>Node21&#45;&gt;Node22</title>
<path fill="none" stroke="#191970" d="M640.5466,-483.3893C715.4014,-472.7501 850.6091,-453.5327 926.1547,-442.7953"/>
<polygon fill="#191970" stroke="#191970" points="926.9981,-446.2107 936.4061,-441.3382 926.0131,-439.2803 926.9981,-446.2107"/>
</g>
<!-- Node22&#45;&gt;Node8 -->
<g id="edge33" class="edge">
<title>Node22&#45;&gt;Node8</title>
<path fill="none" stroke="#191970" d="M1025.8181,-431.8389C1110.2409,-425.4269 1286.0193,-409.7228 1304,-389 1331.5879,-357.2049 1314.4759,-303.549 1302.2166,-275.0774"/>
<polygon fill="#191970" stroke="#191970" points="1305.3322,-273.4732 1298.0114,-265.8144 1298.9583,-276.3669 1305.3322,-273.4732"/>
</g>
<!-- Node22&#45;&gt;Node15 -->
<g id="edge34" class="edge">
<title>Node22&#45;&gt;Node15</title>
<path fill="none" stroke="#191970" d="M936.491,-428.2469C880.6873,-419.7386 781.8169,-404.5275 686.6538,-389.0895"/>
<polygon fill="#191970" stroke="#191970" points="686.9986,-385.5997 676.5666,-387.4499 685.8755,-392.509 686.9986,-385.5997"/>
</g>
<!-- Node22&#45;&gt;Node17 -->
<g id="edge37" class="edge">
<title>Node22&#45;&gt;Node17</title>
<path fill="none" stroke="#191970" d="M940.6983,-425.4369C900.3936,-415.8731 838.3179,-401.1432 794.9182,-390.845"/>
<polygon fill="#191970" stroke="#191970" points="795.6734,-387.4271 785.1355,-388.5237 794.0572,-394.238 795.6734,-387.4271"/>
</g>
<!-- Node22&#45;&gt;Node18 -->
<g id="edge38" class="edge">
<title>Node22&#45;&gt;Node18</title>
<path fill="none" stroke="#191970" d="M960.1994,-425.3733C940.7757,-416.3838 911.5776,-402.8706 889.7036,-392.7471"/>
<polygon fill="#191970" stroke="#191970" points="891.0745,-389.5249 880.5292,-388.5011 888.1344,-395.8776 891.0745,-389.5249"/>
</g>
<!-- Node23 -->
<g id="node24" class="node">
<title>Node23</title>
<polygon fill="#ffffff" stroke="#bfbfbf" points="1055.5,-369.5 1055.5,-388.5 1172.5,-388.5 1172.5,-369.5 1055.5,-369.5"/>
<text text-anchor="middle" x="1114" y="-376.5" font-family="Helvetica,sans-Serif" font-size="10.00" fill="#000000">odp/api/abi/packet_io.h</text>
</g>
<!-- Node22&#45;&gt;Node23 -->
<g id="edge35" class="edge">
<title>Node22&#45;&gt;Node23</title>
<path fill="none" stroke="#191970" d="M1003.8635,-425.3733C1025.405,-416.3032 1057.8838,-402.6279 1081.9956,-392.4755"/>
<polygon fill="#191970" stroke="#191970" points="1083.5767,-395.6075 1091.4348,-388.5011 1080.8603,-389.156 1083.5767,-395.6075"/>
</g>
<!-- Node24 -->
<g id="node25" class="node">
<title>Node24</title>
<polygon fill="#ffffff" stroke="#bfbfbf" points="1191,-369.5 1191,-388.5 1295,-388.5 1295,-369.5 1191,-369.5"/>
<text text-anchor="middle" x="1243" y="-376.5" font-family="Helvetica,sans-Serif" font-size="10.00" fill="#000000">odp/api/abi/packet.h</text>
</g>
<!-- Node22&#45;&gt;Node24 -->
<g id="edge36" class="edge">
<title>Node22&#45;&gt;Node24</title>
<path fill="none" stroke="#191970" d="M1025.7417,-425.4369C1070.7694,-415.8127 1140.2728,-400.957 1188.4927,-390.6504"/>
<polygon fill="#191970" stroke="#191970" points="1189.3953,-394.0366 1198.4428,-388.5237 1187.9321,-387.1912 1189.3953,-394.0366"/>
</g>
<!-- Node25 -->
<g id="node26" class="node">
<title>Node25</title>
<g id="a_node26"><a xlink:href="spec_2packet_8h.html" target="_top" xlink:title="ODP packet descriptor. ">
<polygon fill="#ffffff" stroke="#000000" points="924.5,-369.5 924.5,-388.5 1037.5,-388.5 1037.5,-369.5 924.5,-369.5"/>
<text text-anchor="middle" x="981" y="-376.5" font-family="Helvetica,sans-Serif" font-size="10.00" fill="#000000">odp/api/spec/packet.h</text>
</a>
</g>
</g>
<!-- Node22&#45;&gt;Node25 -->
<g id="edge39" class="edge">
<title>Node22&#45;&gt;Node25</title>
<path fill="none" stroke="#191970" d="M981,-425.2455C981,-417.9382 981,-407.6944 981,-398.7046"/>
<polygon fill="#191970" stroke="#191970" points="984.5001,-398.6426 981,-388.6427 977.5001,-398.6427 984.5001,-398.6426"/>
</g>
<!-- Node25&#45;&gt;Node1 -->
<g id="edge40" class="edge">
<title>Node25&#45;&gt;Node1</title>
<path fill="none" stroke="#191970" d="M924.3211,-369.9542C921.5106,-369.608 918.7251,-369.2869 916,-369 846.3816,-361.6694 339.7137,-379.0621 287,-333 197.7406,-255.0037 259.9502,-85.6448 284.3686,-28.935"/>
<polygon fill="#191970" stroke="#191970" points="287.6067,-30.2662 288.4432,-19.7045 281.2029,-27.4394 287.6067,-30.2662"/>
</g>
<!-- Node25&#45;&gt;Node4 -->
<g id="edge47" class="edge">
<title>Node25&#45;&gt;Node4</title>
<path fill="none" stroke="#191970" d="M993.9097,-369.4209C1017.6882,-350.5672 1066,-306.0971 1066,-256 1066,-256 1066,-256 1066,-133 1066,-97.154 1068.4665,-80.1756 1042,-56 1019.8123,-35.7329 943.3614,-22.9507 888.1631,-16.1406"/>
<polygon fill="#191970" stroke="#191970" points="888.4668,-12.652 878.1215,-14.938 887.6344,-19.6023 888.4668,-12.652"/>
</g>
<!-- Node25&#45;&gt;Node26 -->
<g id="edge41" class="edge">
<title>Node25&#45;&gt;Node26</title>
<path fill="none" stroke="#191970" d="M1008.8125,-369.3906C1039.2483,-358.8749 1088.1877,-341.966 1121.8826,-330.3243"/>
<polygon fill="#191970" stroke="#191970" points="1123.074,-333.6157 1131.3828,-327.0419 1120.788,-326.9995 1123.074,-333.6157"/>
</g>
<!-- Node26&#45;&gt;Node8 -->
<g id="edge42" class="edge">
<title>Node26&#45;&gt;Node8</title>
<path fill="none" stroke="#191970" d="M1179.9375,-307.8906C1202.2598,-297.6457 1237.8037,-281.3326 1263.0757,-269.7339"/>
<polygon fill="#191970" stroke="#191970" points="1264.581,-272.8942 1272.2095,-265.5419 1261.6611,-266.5322 1264.581,-272.8942"/>
</g>
<!-- Node27 -->
<g id="node28" class="node">
<title>Node27</title>
<polygon fill="#ffffff" stroke="#bfbfbf" points="1112,-246.5 1112,-265.5 1206,-265.5 1206,-246.5 1112,-246.5"/>
<text text-anchor="middle" x="1159" y="-253.5" font-family="Helvetica,sans-Serif" font-size="10.00" fill="#000000">odp/api/abi/time.h</text>
</g>
<!-- Node26&#45;&gt;Node27 -->
<g id="edge43" class="edge">
<title>Node26&#45;&gt;Node27</title>
<path fill="none" stroke="#191970" d="M1159,-307.8906C1159,-299.3657 1159,-286.6392 1159,-275.9235"/>
<polygon fill="#191970" stroke="#191970" points="1162.5001,-275.7448 1159,-265.7449 1155.5001,-275.7449 1162.5001,-275.7448"/>
</g>
<!-- Node28 -->
<g id="node29" class="node">
<title>Node28</title>
<g id="a_node29"><a xlink:href="spec_2time_8h.html" target="_top" xlink:title="ODP time. ">
<polygon fill="#ffffff" stroke="#000000" points="738,-62 738,-81 840,-81 840,-62 738,-62"/>
<text text-anchor="middle" x="789" y="-69" font-family="Helvetica,sans-Serif" font-size="10.00" fill="#000000">odp/api/spec/time.h</text>
</a>
</g>
</g>
<!-- Node26&#45;&gt;Node28 -->
<g id="edge44" class="edge">
<title>Node26&#45;&gt;Node28</title>
<path fill="none" stroke="#191970" d="M1144.4956,-307.8565C1087.8502,-270.195 881.2607,-132.8409 811.8919,-86.72"/>
<polygon fill="#191970" stroke="#191970" points="813.6694,-83.6989 803.4042,-81.0768 809.7938,-89.5281 813.6694,-83.6989"/>
</g>
<!-- Node28&#45;&gt;Node1 -->
<g id="edge45" class="edge">
<title>Node28&#45;&gt;Node1</title>
<path fill="none" stroke="#191970" d="M737.7875,-65.1501C646.5883,-53.8421 456.2987,-30.2477 356.771,-17.9071"/>
<polygon fill="#191970" stroke="#191970" points="356.9085,-14.3974 346.5538,-16.6402 356.0471,-21.3442 356.9085,-14.3974"/>
</g>
<!-- Node28&#45;&gt;Node4 -->
<g id="edge46" class="edge">
<title>Node28&#45;&gt;Node4</title>
<path fill="none" stroke="#191970" d="M795.0938,-61.8906C800.7843,-52.917 809.4272,-39.2879 816.4274,-28.2491"/>
<polygon fill="#191970" stroke="#191970" points="819.4207,-30.0644 821.8203,-19.7449 813.5091,-26.3155 819.4207,-30.0644"/>
</g>
<!-- Node29&#45;&gt;Node1 -->
<g id="edge50" class="edge">
<title>Node29&#45;&gt;Node1</title>
<path fill="none" stroke="#191970" d="M321.9869,-302.4378C307.2251,-292.9397 288.6289,-279.8761 274,-266 200.5236,-196.3048 166.1615,-182.6897 133,-87 128.4885,-73.9818 124.7122,-67.0063 133,-56 144.9408,-40.1425 190.1312,-28.0588 229.4526,-20.2644"/>
<polygon fill="#191970" stroke="#191970" points="230.1378,-23.6969 239.2993,-18.3755 228.819,-16.8222 230.1378,-23.6969"/>
</g>
<!-- Node29&#45;&gt;Node2 -->
<g id="edge60" class="edge">
<title>Node29&#45;&gt;Node2</title>
<path fill="none" stroke="#191970" d="M380.2693,-302.4554C402.3641,-292.464 431.146,-279.4487 452.6219,-269.7372"/>
<polygon fill="#191970" stroke="#191970" points="454.2553,-272.8398 461.9248,-265.5303 451.371,-266.4616 454.2553,-272.8398"/>
</g>
<!-- Node29&#45;&gt;Node4 -->
<g id="edge61" class="edge">
<title>Node29&#45;&gt;Node4</title>
<path fill="none" stroke="#191970" d="M397.68,-312.7992C439.9706,-306.9882 500.4656,-294.1444 546,-266 651.3072,-200.9106 630.0334,-130.3764 729,-56 747.4045,-42.1684 770.634,-31.1058 789.9654,-23.2988"/>
<polygon fill="#191970" stroke="#191970" points="791.3435,-26.5181 799.3876,-19.6229 788.7993,-19.9968 791.3435,-26.5181"/>
</g>
<!-- Node30 -->
<g id="node31" class="node">
<title>Node30</title>
<g id="a_node31"><a xlink:href="schedule__types_8h.html" target="_top" xlink:title="ODP schedule. ">
<polygon fill="#ffffff" stroke="#000000" points="283,-246.5 283,-265.5 411,-265.5 411,-246.5 283,-246.5"/>
<text text-anchor="middle" x="347" y="-253.5" font-family="Helvetica,sans-Serif" font-size="10.00" fill="#000000">odp/api/schedule_types.h</text>
</a>
</g>
</g>
<!-- Node29&#45;&gt;Node30 -->
<g id="edge51" class="edge">
<title>Node29&#45;&gt;Node30</title>
<path fill="none" stroke="#191970" d="M347,-302.2977C347,-294.3834 347,-284.6043 347,-276.0759"/>
<polygon fill="#191970" stroke="#191970" points="350.5001,-275.8469 347,-265.8469 343.5001,-275.847 350.5001,-275.8469"/>
</g>
<!-- Node31 -->
<g id="node32" class="node">
<title>Node31</title>
<polygon fill="#ffffff" stroke="#bfbfbf" points="283,-179.5 283,-209.5 389,-209.5 389,-179.5 283,-179.5"/>
<text text-anchor="start" x="291" y="-197.5" font-family="Helvetica,sans-Serif" font-size="10.00" fill="#000000">odp/api/abi/schedule</text>
<text text-anchor="middle" x="336" y="-186.5" font-family="Helvetica,sans-Serif" font-size="10.00" fill="#000000">_types.h</text>
</g>
<!-- Node30&#45;&gt;Node31 -->
<g id="edge52" class="edge">
<title>Node30&#45;&gt;Node31</title>
<path fill="none" stroke="#191970" d="M345.2813,-246.3906C343.9993,-239.2234 342.1862,-229.0862 340.5021,-219.671"/>
<polygon fill="#191970" stroke="#191970" points="343.897,-218.7721 338.6909,-209.5446 337.0063,-220.0046 343.897,-218.7721"/>
</g>
<!-- Node32 -->
<g id="node33" class="node">
<title>Node32</title>
<g id="a_node33"><a xlink:href="spec_2schedule__types_8h.html" target="_top" xlink:title="ODP schedule types. ">
<polygon fill="#ffffff" stroke="#000000" points="471,-179.5 471,-209.5 585,-209.5 585,-179.5 471,-179.5"/>
<text text-anchor="start" x="479" y="-197.5" font-family="Helvetica,sans-Serif" font-size="10.00" fill="#000000">odp/api/spec/schedule</text>
<text text-anchor="middle" x="528" y="-186.5" font-family="Helvetica,sans-Serif" font-size="10.00" fill="#000000">_types.h</text>
</a>
</g>
</g>
<!-- Node30&#45;&gt;Node32 -->
<g id="edge53" class="edge">
<title>Node30&#45;&gt;Node32</title>
<path fill="none" stroke="#191970" d="M375.2813,-246.3906C401.5919,-237.4508 441.5012,-223.8905 473.9239,-212.8739"/>
<polygon fill="#191970" stroke="#191970" points="475.3801,-216.0757 483.7224,-209.5446 473.128,-209.4479 475.3801,-216.0757"/>
</g>
<!-- Node32&#45;&gt;Node1 -->
<g id="edge54" class="edge">
<title>Node32&#45;&gt;Node1</title>
<path fill="none" stroke="#191970" d="M483.8786,-179.4609C440.3275,-162.7248 374.1659,-131.9768 331,-87 315.2504,-70.5897 304.776,-46.3883 298.8833,-29.5124"/>
<polygon fill="#191970" stroke="#191970" points="302.0907,-28.0583 295.6633,-19.6358 295.4354,-30.2282 302.0907,-28.0583"/>
</g>
<!-- Node32&#45;&gt;Node4 -->
<g id="edge59" class="edge">
<title>Node32&#45;&gt;Node4</title>
<path fill="none" stroke="#191970" d="M554.8948,-179.4228C571.1577,-169.8218 591.9689,-156.6563 609,-143 651.6618,-108.7919 649.6801,-85.0636 696,-56 720.4088,-40.6846 750.5721,-29.6805 775.9008,-22.283"/>
<polygon fill="#191970" stroke="#191970" points="777.0276,-25.602 785.7071,-19.5262 775.133,-18.8633 777.0276,-25.602"/>
</g>
<!-- Node33 -->
<g id="node34" class="node">
<title>Node33</title>
<g id="a_node34"><a xlink:href="support_8h.html" target="_top" xlink:title="ODP support API &#45; platform specific header. ">
<polygon fill="#ffffff" stroke="#000000" points="508,-123.5 508,-142.5 600,-142.5 600,-123.5 508,-123.5"/>
<text text-anchor="middle" x="554" y="-130.5" font-family="Helvetica,sans-Serif" font-size="10.00" fill="#000000">odp/api/support.h</text>
</a>
</g>
</g>
<!-- Node32&#45;&gt;Node33 -->
<g id="edge55" class="edge">
<title>Node32&#45;&gt;Node33</title>
<path fill="none" stroke="#191970" d="M534.427,-179.2977C537.8857,-171.1166 542.1867,-160.943 545.8754,-152.2179"/>
<polygon fill="#191970" stroke="#191970" points="549.1668,-153.4205 549.8371,-142.8469 542.7193,-150.6947 549.1668,-153.4205"/>
</g>
<!-- Node34 -->
<g id="node35" class="node">
<title>Node34</title>
<g id="a_node35"><a xlink:href="spec_2support_8h.html" target="_top" xlink:title="ODP support API. ">
<polygon fill="#ffffff" stroke="#000000" points="528,-62 528,-81 644,-81 644,-62 528,-62"/>
<text text-anchor="middle" x="586" y="-69" font-family="Helvetica,sans-Serif" font-size="10.00" fill="#000000">odp/api/spec/support.h</text>
</a>
</g>
</g>
<!-- Node33&#45;&gt;Node34 -->
<g id="edge56" class="edge">
<title>Node33&#45;&gt;Node34</title>
<path fill="none" stroke="#191970" d="M559,-123.3906C563.5758,-114.5965 570.4781,-101.3312 576.1583,-90.4145"/>
<polygon fill="#191970" stroke="#191970" points="579.4185,-91.7314 580.9295,-81.2449 573.2088,-88.5003 579.4185,-91.7314"/>
</g>
<!-- Node34&#45;&gt;Node1 -->
<g id="edge57" class="edge">
<title>Node34&#45;&gt;Node1</title>
<path fill="none" stroke="#191970" d="M541.8407,-61.9437C532.6422,-59.9671 523.0066,-57.9068 514,-56 457.9775,-44.1395 393.9093,-30.8323 349.2312,-21.5939"/>
<polygon fill="#191970" stroke="#191970" points="349.658,-18.1082 339.1565,-19.5117 348.2411,-24.9633 349.658,-18.1082"/>
</g>
<!-- Node34&#45;&gt;Node4 -->
<g id="edge58" class="edge">
<title>Node34&#45;&gt;Node4</title>
<path fill="none" stroke="#191970" d="M623.547,-61.9581C665.8472,-51.2082 734.6777,-33.7162 780.637,-22.0365"/>
<polygon fill="#191970" stroke="#191970" points="781.5351,-25.4196 790.3649,-19.5643 779.8109,-18.6352 781.5351,-25.4196"/>
</g>
</g>
</svg>
