<?xml version="1.0" encoding="UTF-8" standalone="no"?>
<!DOCTYPE svg PUBLIC "-//W3C//DTD SVG 1.1//EN"
 "http://www.w3.org/Graphics/SVG/1.1/DTD/svg11.dtd">
<!-- Generated by graphviz version 2.40.1 (20161225.0304)
 -->
<!-- Title: event.h Pages: 1 -->
<svg width="819pt" height="476pt"
 viewBox="0.00 0.00 819.00 476.00" xmlns="http://www.w3.org/2000/svg" xmlns:xlink="http://www.w3.org/1999/xlink">
<g id="graph0" class="graph" transform="scale(1 1) rotate(0) translate(4 472)">
<title>event.h</title>
<polygon fill="#ffffff" stroke="transparent" points="-4,4 -4,-472 815,-472 815,4 -4,4"/>
<!-- Node0 -->
<g id="node1" class="node">
<title>Node0</title>
<polygon fill="#bfbfbf" stroke="#000000" points="327.5,-448.5 327.5,-467.5 376.5,-467.5 376.5,-448.5 327.5,-448.5"/>
<text text-anchor="middle" x="352" y="-455.5" font-family="Helvetica,sans-Serif" font-size="10.00" fill="#000000">event.h</text>
</g>
<!-- Node1 -->
<g id="node2" class="node">
<title>Node1</title>
<polygon fill="#ffffff" stroke="#bfbfbf" points="60.5,-.5 60.5,-19.5 167.5,-19.5 167.5,-.5 60.5,-.5"/>
<text text-anchor="middle" x="114" y="-7.5" font-family="Helvetica,sans-Serif" font-size="10.00" fill="#000000">odp/visibility_begin.h</text>
</g>
<!-- Node0&#45;&gt;Node1 -->
<g id="edge1" class="edge">
<title>Node0&#45;&gt;Node1</title>
<path fill="none" stroke="#191970" d="M327.248,-455.5468C247.1254,-446.9304 0,-414.7794 0,-346 0,-346 0,-346 0,-122 0,-75.4628 48.9383,-41.828 82.6864,-24.1659"/>
<polygon fill="#191970" stroke="#191970" points="84.3862,-27.2289 91.749,-19.6105 81.2424,-20.9746 84.3862,-27.2289"/>
</g>
<!-- Node2 -->
<g id="node3" class="node">
<title>Node2</title>
<g id="a_node3"><a xlink:href="packet_8h.html" target="_top" xlink:title="ODP packet descriptor. ">
<polygon fill="#ffffff" stroke="#000000" points="307.5,-392.5 307.5,-411.5 396.5,-411.5 396.5,-392.5 307.5,-392.5"/>
<text text-anchor="middle" x="352" y="-399.5" font-family="Helvetica,sans-Serif" font-size="10.00" fill="#000000">odp/api/packet.h</text>
</a>
</g>
</g>
<!-- Node0&#45;&gt;Node2 -->
<g id="edge2" class="edge">
<title>Node0&#45;&gt;Node2</title>
<path fill="none" stroke="#191970" d="M352,-448.2455C352,-440.9382 352,-430.6944 352,-421.7046"/>
<polygon fill="#191970" stroke="#191970" points="355.5001,-421.6426 352,-411.6427 348.5001,-421.6427 355.5001,-421.6426"/>
</g>
<!-- Node10 -->
<g id="node11" class="node">
<title>Node10</title>
<polygon fill="#ffffff" stroke="#bfbfbf" points="417,-.5 417,-19.5 517,-19.5 517,-.5 417,-.5"/>
<text text-anchor="middle" x="467" y="-7.5" font-family="Helvetica,sans-Serif" font-size="10.00" fill="#000000">odp/visibility_end.h</text>
</g>
<!-- Node0&#45;&gt;Node10 -->
<g id="edge28" class="edge">
<title>Node0&#45;&gt;Node10</title>
<path fill="none" stroke="#191970" d="M376.6778,-457.3313C472.0168,-454.0915 811,-436.2281 811,-346 811,-346 811,-346 811,-122 811,-63.0071 625.7704,-30.2845 527.1531,-17.0433"/>
<polygon fill="#191970" stroke="#191970" points="527.3916,-13.5446 517.0206,-15.7104 526.4786,-20.4848 527.3916,-13.5446"/>
</g>
<!-- Node3 -->
<g id="node4" class="node">
<title>Node3</title>
<g id="a_node4"><a xlink:href="std__types_8h.html" target="_top" xlink:title="Standard C language types and definitions for ODP. ">
<polygon fill="#ffffff" stroke="#000000" points="184,-224.5 184,-243.5 286,-243.5 286,-224.5 184,-224.5"/>
<text text-anchor="middle" x="235" y="-231.5" font-family="Helvetica,sans-Serif" font-size="10.00" fill="#000000">odp/api/std_types.h</text>
</a>
</g>
</g>
<!-- Node2&#45;&gt;Node3 -->
<g id="edge3" class="edge">
<title>Node2&#45;&gt;Node3</title>
<path fill="none" stroke="#191970" d="M307.4084,-398.2177C228.9788,-391.111 73.0758,-374.7768 57,-356 13.0821,-304.7032 119.2507,-265.1609 185.929,-246.2507"/>
<polygon fill="#191970" stroke="#191970" points="187.1555,-249.5429 195.8599,-243.5027 185.2886,-242.7964 187.1555,-249.5429"/>
</g>
<!-- Node11 -->
<g id="node12" class="node">
<title>Node11</title>
<polygon fill="#ffffff" stroke="#bfbfbf" points="426.5,-336.5 426.5,-355.5 525.5,-355.5 525.5,-336.5 426.5,-336.5"/>
<text text-anchor="middle" x="476" y="-343.5" font-family="Helvetica,sans-Serif" font-size="10.00" fill="#000000">odp/api/abi/event.h</text>
</g>
<!-- Node2&#45;&gt;Node11 -->
<g id="edge14" class="edge">
<title>Node2&#45;&gt;Node11</title>
<path fill="none" stroke="#191970" d="M373.3164,-392.3733C393.2216,-383.3838 423.1436,-369.8706 445.56,-359.7471"/>
<polygon fill="#191970" stroke="#191970" points="447.2887,-362.8068 454.9618,-355.5011 444.4075,-356.4272 447.2887,-362.8068"/>
</g>
<!-- Node12 -->
<g id="node13" class="node">
<title>Node12</title>
<polygon fill="#ffffff" stroke="#bfbfbf" points="543.5,-336.5 543.5,-355.5 660.5,-355.5 660.5,-336.5 543.5,-336.5"/>
<text text-anchor="middle" x="602" y="-343.5" font-family="Helvetica,sans-Serif" font-size="10.00" fill="#000000">odp/api/abi/packet_io.h</text>
</g>
<!-- Node2&#45;&gt;Node12 -->
<g id="edge15" class="edge">
<title>Node2&#45;&gt;Node12</title>
<path fill="none" stroke="#191970" d="M394.6925,-392.4369C437.5679,-382.8328 503.7005,-368.0191 549.7002,-357.7152"/>
<polygon fill="#191970" stroke="#191970" points="550.4905,-361.1249 559.4836,-355.5237 548.9604,-354.2942 550.4905,-361.1249"/>
</g>
<!-- Node13 -->
<g id="node14" class="node">
<title>Node13</title>
<polygon fill="#ffffff" stroke="#bfbfbf" points="679,-336.5 679,-355.5 783,-355.5 783,-336.5 679,-336.5"/>
<text text-anchor="middle" x="731" y="-343.5" font-family="Helvetica,sans-Serif" font-size="10.00" fill="#000000">odp/api/abi/packet.h</text>
</g>
<!-- Node2&#45;&gt;Node13 -->
<g id="edge16" class="edge">
<title>Node2&#45;&gt;Node13</title>
<path fill="none" stroke="#191970" d="M396.5419,-395.8265C456.1573,-387.5043 565.4534,-372.0388 668.7873,-356.1663"/>
<polygon fill="#191970" stroke="#191970" points="669.4163,-359.6108 678.7669,-354.6292 668.3506,-352.6923 669.4163,-359.6108"/>
</g>
<!-- Node14 -->
<g id="node15" class="node">
<title>Node14</title>
<polygon fill="#ffffff" stroke="#bfbfbf" points="66,-336.5 66,-355.5 166,-355.5 166,-336.5 66,-336.5"/>
<text text-anchor="middle" x="116" y="-343.5" font-family="Helvetica,sans-Serif" font-size="10.00" fill="#000000">odp/api/abi/buffer.h</text>
</g>
<!-- Node2&#45;&gt;Node14 -->
<g id="edge17" class="edge">
<title>Node2&#45;&gt;Node14</title>
<path fill="none" stroke="#191970" d="M311.6983,-392.4369C271.3936,-382.8731 209.3179,-368.1432 165.9182,-357.845"/>
<polygon fill="#191970" stroke="#191970" points="166.6734,-354.4271 156.1355,-355.5237 165.0572,-361.238 166.6734,-354.4271"/>
</g>
<!-- Node15 -->
<g id="node16" class="node">
<title>Node15</title>
<polygon fill="#ffffff" stroke="#bfbfbf" points="184.5,-336.5 184.5,-355.5 277.5,-355.5 277.5,-336.5 184.5,-336.5"/>
<text text-anchor="middle" x="231" y="-343.5" font-family="Helvetica,sans-Serif" font-size="10.00" fill="#000000">odp/api/abi/pool.h</text>
</g>
<!-- Node2&#45;&gt;Node15 -->
<g id="edge18" class="edge">
<title>Node2&#45;&gt;Node15</title>
<path fill="none" stroke="#191970" d="M331.1994,-392.3733C311.7757,-383.3838 282.5776,-369.8706 260.7036,-359.7471"/>
<polygon fill="#191970" stroke="#191970" points="262.0745,-356.5249 251.5292,-355.5011 259.1344,-362.8776 262.0745,-356.5249"/>
</g>
<!-- Node16 -->
<g id="node17" class="node">
<title>Node16</title>
<g id="a_node17"><a xlink:href="spec_2packet_8h.html" target="_top" xlink:title="ODP packet descriptor. ">
<polygon fill="#ffffff" stroke="#000000" points="295.5,-336.5 295.5,-355.5 408.5,-355.5 408.5,-336.5 295.5,-336.5"/>
<text text-anchor="middle" x="352" y="-343.5" font-family="Helvetica,sans-Serif" font-size="10.00" fill="#000000">odp/api/spec/packet.h</text>
</a>
</g>
</g>
<!-- Node2&#45;&gt;Node16 -->
<g id="edge19" class="edge">
<title>Node2&#45;&gt;Node16</title>
<path fill="none" stroke="#191970" d="M352,-392.2455C352,-384.9382 352,-374.6944 352,-365.7046"/>
<polygon fill="#191970" stroke="#191970" points="355.5001,-365.6426 352,-355.6427 348.5001,-365.6427 355.5001,-365.6426"/>
</g>
<!-- Node4 -->
<g id="node5" class="node">
<title>Node4</title>
<polygon fill="#ffffff" stroke="#bfbfbf" points="106,-168.5 106,-187.5 224,-187.5 224,-168.5 106,-168.5"/>
<text text-anchor="middle" x="165" y="-175.5" font-family="Helvetica,sans-Serif" font-size="10.00" fill="#000000">odp/api/abi/std_types.h</text>
</g>
<!-- Node3&#45;&gt;Node4 -->
<g id="edge4" class="edge">
<title>Node3&#45;&gt;Node4</title>
<path fill="none" stroke="#191970" d="M222.8069,-224.2455C212.3679,-215.8943 197.1345,-203.7076 184.926,-193.9408"/>
<polygon fill="#191970" stroke="#191970" points="187.0485,-191.1566 177.0533,-187.6427 182.6756,-196.6227 187.0485,-191.1566"/>
</g>
<!-- Node5 -->
<g id="node6" class="node">
<title>Node5</title>
<g id="a_node6"><a xlink:href="spec_2std__types_8h.html" target="_top" xlink:title="Standard C language types and definitions for ODP. ">
<polygon fill="#ffffff" stroke="#000000" points="242,-168.5 242,-187.5 368,-187.5 368,-168.5 242,-168.5"/>
<text text-anchor="middle" x="305" y="-175.5" font-family="Helvetica,sans-Serif" font-size="10.00" fill="#000000">odp/api/spec/std_types.h</text>
</a>
</g>
</g>
<!-- Node3&#45;&gt;Node5 -->
<g id="edge5" class="edge">
<title>Node3&#45;&gt;Node5</title>
<path fill="none" stroke="#191970" d="M247.1931,-224.2455C257.6321,-215.8943 272.8655,-203.7076 285.074,-193.9408"/>
<polygon fill="#191970" stroke="#191970" points="287.3244,-196.6227 292.9467,-187.6427 282.9515,-191.1566 287.3244,-196.6227"/>
</g>
<!-- Node5&#45;&gt;Node1 -->
<g id="edge6" class="edge">
<title>Node5&#45;&gt;Node1</title>
<path fill="none" stroke="#191970" d="M270.7446,-168.4862C246.6621,-160.8545 214.3459,-148.6589 189,-132 159.5863,-112.6675 150.8803,-106.3184 133,-76 124.5768,-61.7174 119.6983,-43.4765 116.9989,-29.7922"/>
<polygon fill="#191970" stroke="#191970" points="120.3799,-28.8061 115.214,-19.556 113.4839,-30.0086 120.3799,-28.8061"/>
</g>
<!-- Node6 -->
<g id="node7" class="node">
<title>Node6</title>
<polygon fill="#ffffff" stroke="#bfbfbf" points="198.5,-112.5 198.5,-131.5 247.5,-131.5 247.5,-112.5 198.5,-112.5"/>
<text text-anchor="middle" x="223" y="-119.5" font-family="Helvetica,sans-Serif" font-size="10.00" fill="#000000">stdint.h</text>
</g>
<!-- Node5&#45;&gt;Node6 -->
<g id="edge7" class="edge">
<title>Node5&#45;&gt;Node6</title>
<path fill="none" stroke="#191970" d="M290.7167,-168.2455C278.253,-159.7337 259.9549,-147.2375 245.5208,-137.3801"/>
<polygon fill="#191970" stroke="#191970" points="247.3515,-134.392 237.1196,-131.6427 243.4038,-140.1726 247.3515,-134.392"/>
</g>
<!-- Node7 -->
<g id="node8" class="node">
<title>Node7</title>
<g id="a_node8"><a xlink:href="align_8h.html" target="_top" xlink:title="ODP alignments. ">
<polygon fill="#ffffff" stroke="#000000" points="266,-112.5 266,-131.5 346,-131.5 346,-112.5 266,-112.5"/>
<text text-anchor="middle" x="306" y="-119.5" font-family="Helvetica,sans-Serif" font-size="10.00" fill="#000000">odp/api/align.h</text>
</a>
</g>
</g>
<!-- Node5&#45;&gt;Node7 -->
<g id="edge8" class="edge">
<title>Node5&#45;&gt;Node7</title>
<path fill="none" stroke="#191970" d="M305.1742,-168.2455C305.3047,-160.9382 305.4876,-150.6944 305.6481,-141.7046"/>
<polygon fill="#191970" stroke="#191970" points="309.1486,-141.7036 305.8278,-131.6427 302.1497,-141.5786 309.1486,-141.7036"/>
</g>
<!-- Node5&#45;&gt;Node10 -->
<g id="edge13" class="edge">
<title>Node5&#45;&gt;Node10</title>
<path fill="none" stroke="#191970" d="M316.8253,-168.4521C327.4319,-159.5902 343.1108,-145.7334 355,-132 381.7878,-101.0569 378.8522,-85.7113 407,-56 417.8623,-44.5344 431.7691,-33.6844 443.4586,-25.4044"/>
<polygon fill="#191970" stroke="#191970" points="445.6275,-28.1605 451.8783,-19.606 441.6572,-22.3953 445.6275,-28.1605"/>
</g>
<!-- Node8 -->
<g id="node9" class="node">
<title>Node8</title>
<polygon fill="#ffffff" stroke="#bfbfbf" points="142.5,-56.5 142.5,-75.5 237.5,-75.5 237.5,-56.5 142.5,-56.5"/>
<text text-anchor="middle" x="190" y="-63.5" font-family="Helvetica,sans-Serif" font-size="10.00" fill="#000000">odp/api/abi/align.h</text>
</g>
<!-- Node7&#45;&gt;Node8 -->
<g id="edge9" class="edge">
<title>Node7&#45;&gt;Node8</title>
<path fill="none" stroke="#191970" d="M286.0589,-112.3733C267.5214,-103.4241 239.6972,-89.9917 218.7587,-79.8835"/>
<polygon fill="#191970" stroke="#191970" points="220.2081,-76.6967 209.6809,-75.5011 217.1648,-83.0006 220.2081,-76.6967"/>
</g>
<!-- Node9 -->
<g id="node10" class="node">
<title>Node9</title>
<g id="a_node10"><a xlink:href="spec_2align_8h.html" target="_top" xlink:title="ODP alignments. ">
<polygon fill="#ffffff" stroke="#000000" points="256,-56.5 256,-75.5 360,-75.5 360,-56.5 256,-56.5"/>
<text text-anchor="middle" x="308" y="-63.5" font-family="Helvetica,sans-Serif" font-size="10.00" fill="#000000">odp/api/spec/align.h</text>
</a>
</g>
</g>
<!-- Node7&#45;&gt;Node9 -->
<g id="edge10" class="edge">
<title>Node7&#45;&gt;Node9</title>
<path fill="none" stroke="#191970" d="M306.3484,-112.2455C306.6093,-104.9382 306.9752,-94.6944 307.2963,-85.7046"/>
<polygon fill="#191970" stroke="#191970" points="310.7964,-85.7613 307.6556,-75.6427 303.8008,-85.5113 310.7964,-85.7613"/>
</g>
<!-- Node9&#45;&gt;Node1 -->
<g id="edge11" class="edge">
<title>Node9&#45;&gt;Node1</title>
<path fill="none" stroke="#191970" d="M274.6502,-56.3733C241.972,-46.9404 192.0382,-32.5265 156.523,-22.2747"/>
<polygon fill="#191970" stroke="#191970" points="157.493,-18.9119 146.9146,-19.5011 155.5516,-25.6373 157.493,-18.9119"/>
</g>
<!-- Node9&#45;&gt;Node10 -->
<g id="edge12" class="edge">
<title>Node9&#45;&gt;Node10</title>
<path fill="none" stroke="#191970" d="M335.3331,-56.3733C361.5434,-47.1419 401.2984,-33.1402 430.2668,-22.9375"/>
<polygon fill="#191970" stroke="#191970" points="431.7542,-26.1244 440.0236,-19.5011 429.4288,-19.5219 431.7542,-26.1244"/>
</g>
<!-- Node16&#45;&gt;Node1 -->
<g id="edge20" class="edge">
<title>Node16&#45;&gt;Node1</title>
<path fill="none" stroke="#191970" d="M302.338,-336.4471C222.8758,-319.7251 76,-282.2857 76,-234 76,-234 76,-234 76,-122 76,-87.6118 92.2634,-50.2832 103.511,-28.5791"/>
<polygon fill="#191970" stroke="#191970" points="106.7317,-29.9804 108.393,-19.5166 100.569,-26.6605 106.7317,-29.9804"/>
</g>
<!-- Node16&#45;&gt;Node10 -->
<g id="edge27" class="edge">
<title>Node16&#45;&gt;Node10</title>
<path fill="none" stroke="#191970" d="M381.0817,-336.4149C436.5512,-317.2462 552,-272.7016 552,-234 552,-234 552,-234 552,-122 552,-90.6328 545.7173,-81.1707 527,-56 517.8876,-43.7458 504.6653,-33.1289 492.9509,-25.1922"/>
<polygon fill="#191970" stroke="#191970" points="494.6802,-22.1428 484.3797,-19.6627 490.8854,-28.0249 494.6802,-22.1428"/>
</g>
<!-- Node17 -->
<g id="node18" class="node">
<title>Node17</title>
<g id="a_node18"><a xlink:href="time_8h.html" target="_top" xlink:title="ODP time. ">
<polygon fill="#ffffff" stroke="#000000" points="341,-280.5 341,-299.5 419,-299.5 419,-280.5 341,-280.5"/>
<text text-anchor="middle" x="380" y="-287.5" font-family="Helvetica,sans-Serif" font-size="10.00" fill="#000000">odp/api/time.h</text>
</a>
</g>
</g>
<!-- Node16&#45;&gt;Node17 -->
<g id="edge21" class="edge">
<title>Node16&#45;&gt;Node17</title>
<path fill="none" stroke="#191970" d="M356.8772,-336.2455C360.6513,-328.6973 365.9921,-318.0158 370.5901,-308.8197"/>
<polygon fill="#191970" stroke="#191970" points="373.837,-310.1522 375.1787,-299.6427 367.576,-307.0217 373.837,-310.1522"/>
</g>
<!-- Node17&#45;&gt;Node3 -->
<g id="edge22" class="edge">
<title>Node17&#45;&gt;Node3</title>
<path fill="none" stroke="#191970" d="M355.0736,-280.3733C331.3798,-271.2226 295.5489,-257.3844 269.1932,-247.2057"/>
<polygon fill="#191970" stroke="#191970" points="270.1906,-243.8389 259.6011,-243.5011 267.6686,-250.3689 270.1906,-243.8389"/>
</g>
<!-- Node18 -->
<g id="node19" class="node">
<title>Node18</title>
<polygon fill="#ffffff" stroke="#bfbfbf" points="430,-224.5 430,-243.5 524,-243.5 524,-224.5 430,-224.5"/>
<text text-anchor="middle" x="477" y="-231.5" font-family="Helvetica,sans-Serif" font-size="10.00" fill="#000000">odp/api/abi/time.h</text>
</g>
<!-- Node17&#45;&gt;Node18 -->
<g id="edge23" class="edge">
<title>Node17&#45;&gt;Node18</title>
<path fill="none" stroke="#191970" d="M396.8961,-280.2455C411.918,-271.5731 434.1043,-258.7645 451.321,-248.825"/>
<polygon fill="#191970" stroke="#191970" points="453.3871,-251.6737 460.2975,-243.6427 449.8872,-245.6114 453.3871,-251.6737"/>
</g>
<!-- Node19 -->
<g id="node20" class="node">
<title>Node19</title>
<g id="a_node20"><a xlink:href="spec_2time_8h.html" target="_top" xlink:title="ODP time. ">
<polygon fill="#ffffff" stroke="#000000" points="416,-56.5 416,-75.5 518,-75.5 518,-56.5 416,-56.5"/>
<text text-anchor="middle" x="467" y="-63.5" font-family="Helvetica,sans-Serif" font-size="10.00" fill="#000000">odp/api/spec/time.h</text>
</a>
</g>
</g>
<!-- Node17&#45;&gt;Node19 -->
<g id="edge24" class="edge">
<title>Node17&#45;&gt;Node19</title>
<path fill="none" stroke="#191970" d="M383.7383,-280.375C396.9846,-246.2697 441.8414,-130.7761 459.6373,-84.9567"/>
<polygon fill="#191970" stroke="#191970" points="462.9177,-86.1779 463.2756,-75.5891 456.3926,-83.6436 462.9177,-86.1779"/>
</g>
<!-- Node19&#45;&gt;Node1 -->
<g id="edge25" class="edge">
<title>Node19&#45;&gt;Node1</title>
<path fill="none" stroke="#191970" d="M415.6708,-57.8571C352.7398,-47.8737 246.0692,-30.9515 177.8904,-20.1356"/>
<polygon fill="#191970" stroke="#191970" points="178.131,-16.6301 167.7061,-18.5199 177.0342,-23.5436 178.131,-16.6301"/>
</g>
<!-- Node19&#45;&gt;Node10 -->
<g id="edge26" class="edge">
<title>Node19&#45;&gt;Node10</title>
<path fill="none" stroke="#191970" d="M467,-56.2455C467,-48.9382 467,-38.6944 467,-29.7046"/>
<polygon fill="#191970" stroke="#191970" points="470.5001,-29.6426 467,-19.6427 463.5001,-29.6427 470.5001,-29.6426"/>
</g>
</g>
</svg>
