<?xml version="1.0" encoding="UTF-8" standalone="no"?>
<!DOCTYPE svg PUBLIC "-//W3C//DTD SVG 1.1//EN"
 "http://www.w3.org/Graphics/SVG/1.1/DTD/svg11.dtd">
<!-- Generated by graphviz version 2.40.1 (20161225.0304)
 -->
<!-- Title: comp.h Pages: 1 -->
<svg width="860pt" height="476pt"
 viewBox="0.00 0.00 859.70 476.00" xmlns="http://www.w3.org/2000/svg" xmlns:xlink="http://www.w3.org/1999/xlink">
<g id="graph0" class="graph" transform="scale(1 1) rotate(0) translate(4 472)">
<title>comp.h</title>
<polygon fill="#ffffff" stroke="transparent" points="-4,4 -4,-472 855.697,-472 855.697,4 -4,4"/>
<!-- Node0 -->
<g id="node1" class="node">
<title>Node0</title>
<polygon fill="#bfbfbf" stroke="#000000" points="600.5,-448.5 600.5,-467.5 649.5,-467.5 649.5,-448.5 600.5,-448.5"/>
<text text-anchor="middle" x="625" y="-455.5" font-family="Helvetica,sans-Serif" font-size="10.00" fill="#000000">comp.h</text>
</g>
<!-- Node1 -->
<g id="node2" class="node">
<title>Node1</title>
<polygon fill="#ffffff" stroke="#bfbfbf" points="233.5,-.5 233.5,-19.5 340.5,-19.5 340.5,-.5 233.5,-.5"/>
<text text-anchor="middle" x="287" y="-7.5" font-family="Helvetica,sans-Serif" font-size="10.00" fill="#000000">odp/visibility_begin.h</text>
</g>
<!-- Node0&#45;&gt;Node1 -->
<g id="edge1" class="edge">
<title>Node0&#45;&gt;Node1</title>
<path fill="none" stroke="#191970" d="M600.4993,-456.2558C484.9458,-447.7103 0,-408.1452 0,-346 0,-346 0,-346 0,-122 0,-74.3295 139.149,-38.7433 223.6669,-21.5253"/>
<polygon fill="#191970" stroke="#191970" points="224.5726,-24.9134 233.6901,-19.517 223.1974,-18.0499 224.5726,-24.9134"/>
</g>
<!-- Node2 -->
<g id="node3" class="node">
<title>Node2</title>
<g id="a_node3"><a xlink:href="support_8h.html" target="_top" xlink:title="ODP support API &#45; platform specific header. ">
<polygon fill="#ffffff" stroke="#000000" points="630,-392.5 630,-411.5 722,-411.5 722,-392.5 630,-392.5"/>
<text text-anchor="middle" x="676" y="-399.5" font-family="Helvetica,sans-Serif" font-size="10.00" fill="#000000">odp/api/support.h</text>
</a>
</g>
</g>
<!-- Node0&#45;&gt;Node2 -->
<g id="edge2" class="edge">
<title>Node0&#45;&gt;Node2</title>
<path fill="none" stroke="#191970" d="M633.8835,-448.2455C641.1966,-440.2155 651.7391,-428.6394 660.4467,-419.0781"/>
<polygon fill="#191970" stroke="#191970" points="663.0727,-421.3928 667.2183,-411.6427 657.8972,-416.6795 663.0727,-421.3928"/>
</g>
<!-- Node4 -->
<g id="node5" class="node">
<title>Node4</title>
<polygon fill="#ffffff" stroke="#bfbfbf" points="610,-.5 610,-19.5 710,-19.5 710,-.5 610,-.5"/>
<text text-anchor="middle" x="660" y="-7.5" font-family="Helvetica,sans-Serif" font-size="10.00" fill="#000000">odp/visibility_end.h</text>
</g>
<!-- Node0&#45;&gt;Node4 -->
<g id="edge32" class="edge">
<title>Node0&#45;&gt;Node4</title>
<path fill="none" stroke="#191970" d="M649.6162,-451.4225C708.1904,-435.0479 851,-390.5563 851,-346 851,-346 851,-346 851,-122 851,-91.4754 853.788,-77.3784 832,-56 816.0678,-40.3672 763.3706,-27.7328 720.4608,-19.6889"/>
<polygon fill="#191970" stroke="#191970" points="720.8195,-16.1967 710.3535,-17.8437 719.5623,-23.0828 720.8195,-16.1967"/>
</g>
<!-- Node5 -->
<g id="node6" class="node">
<title>Node5</title>
<g id="a_node6"><a xlink:href="packet_8h.html" target="_top" xlink:title="ODP packet descriptor. ">
<polygon fill="#ffffff" stroke="#000000" points="377.5,-392.5 377.5,-411.5 466.5,-411.5 466.5,-392.5 377.5,-392.5"/>
<text text-anchor="middle" x="422" y="-399.5" font-family="Helvetica,sans-Serif" font-size="10.00" fill="#000000">odp/api/packet.h</text>
</a>
</g>
</g>
<!-- Node0&#45;&gt;Node5 -->
<g id="edge6" class="edge">
<title>Node0&#45;&gt;Node5</title>
<path fill="none" stroke="#191970" d="M600.1082,-451.1333C566.8534,-441.9596 507.3686,-425.55 466.3526,-414.2352"/>
<polygon fill="#191970" stroke="#191970" points="467.1794,-410.8326 456.6087,-411.5472 465.3179,-417.5806 467.1794,-410.8326"/>
</g>
<!-- Node3 -->
<g id="node4" class="node">
<title>Node3</title>
<g id="a_node4"><a xlink:href="spec_2support_8h.html" target="_top" xlink:title="ODP support API. ">
<polygon fill="#ffffff" stroke="#000000" points="707,-56.5 707,-75.5 823,-75.5 823,-56.5 707,-56.5"/>
<text text-anchor="middle" x="765" y="-63.5" font-family="Helvetica,sans-Serif" font-size="10.00" fill="#000000">odp/api/spec/support.h</text>
</a>
</g>
</g>
<!-- Node2&#45;&gt;Node3 -->
<g id="edge3" class="edge">
<title>Node2&#45;&gt;Node3</title>
<path fill="none" stroke="#191970" d="M722.0224,-393.943C746.1703,-387.4883 774.4989,-376.0511 793,-356 813.7851,-333.4736 813,-320.6506 813,-290 813,-290 813,-290 813,-178 813,-142.4341 792.2983,-105.2782 778.0855,-83.9597"/>
<polygon fill="#191970" stroke="#191970" points="780.8613,-81.8202 772.2902,-75.5923 775.1067,-85.8059 780.8613,-81.8202"/>
</g>
<!-- Node3&#45;&gt;Node1 -->
<g id="edge4" class="edge">
<title>Node3&#45;&gt;Node1</title>
<path fill="none" stroke="#191970" d="M706.8657,-59.1893C616.8154,-48.6395 444.2687,-28.4248 350.8574,-17.4812"/>
<polygon fill="#191970" stroke="#191970" points="351.0337,-13.978 340.6943,-16.2905 350.2191,-20.9305 351.0337,-13.978"/>
</g>
<!-- Node3&#45;&gt;Node4 -->
<g id="edge5" class="edge">
<title>Node3&#45;&gt;Node4</title>
<path fill="none" stroke="#191970" d="M746.7104,-56.2455C730.2238,-47.4527 705.7648,-34.4079 687.0235,-24.4125"/>
<polygon fill="#191970" stroke="#191970" points="688.5506,-21.2604 678.08,-19.6427 685.2565,-27.4368 688.5506,-21.2604"/>
</g>
<!-- Node6 -->
<g id="node7" class="node">
<title>Node6</title>
<g id="a_node7"><a xlink:href="std__types_8h.html" target="_top" xlink:title="Standard C language types and definitions for ODP. ">
<polygon fill="#ffffff" stroke="#000000" points="302,-224.5 302,-243.5 404,-243.5 404,-224.5 302,-224.5"/>
<text text-anchor="middle" x="353" y="-231.5" font-family="Helvetica,sans-Serif" font-size="10.00" fill="#000000">odp/api/std_types.h</text>
</a>
</g>
</g>
<!-- Node5&#45;&gt;Node6 -->
<g id="edge7" class="edge">
<title>Node5&#45;&gt;Node6</title>
<path fill="none" stroke="#191970" d="M377.1511,-399.6173C284.2982,-394.2251 77.8847,-379.6819 57,-356 -13.1794,-276.4209 185.8896,-247.6863 291.6845,-238.2177"/>
<polygon fill="#191970" stroke="#191970" points="292.2672,-241.6805 301.9297,-237.3347 291.666,-234.7064 292.2672,-241.6805"/>
</g>
<!-- Node13 -->
<g id="node14" class="node">
<title>Node13</title>
<polygon fill="#ffffff" stroke="#bfbfbf" points="66.5,-336.5 66.5,-355.5 165.5,-355.5 165.5,-336.5 66.5,-336.5"/>
<text text-anchor="middle" x="116" y="-343.5" font-family="Helvetica,sans-Serif" font-size="10.00" fill="#000000">odp/api/abi/event.h</text>
</g>
<!-- Node5&#45;&gt;Node13 -->
<g id="edge18" class="edge">
<title>Node5&#45;&gt;Node13</title>
<path fill="none" stroke="#191970" d="M377.1773,-393.7971C323.8223,-384.0328 234.5331,-367.6923 175.4502,-356.8798"/>
<polygon fill="#191970" stroke="#191970" points="175.979,-353.4185 165.5123,-355.0611 174.7188,-360.3041 175.979,-353.4185"/>
</g>
<!-- Node14 -->
<g id="node15" class="node">
<title>Node14</title>
<polygon fill="#ffffff" stroke="#bfbfbf" points="183.5,-336.5 183.5,-355.5 300.5,-355.5 300.5,-336.5 183.5,-336.5"/>
<text text-anchor="middle" x="242" y="-343.5" font-family="Helvetica,sans-Serif" font-size="10.00" fill="#000000">odp/api/abi/packet_io.h</text>
</g>
<!-- Node5&#45;&gt;Node14 -->
<g id="edge19" class="edge">
<title>Node5&#45;&gt;Node14</title>
<path fill="none" stroke="#191970" d="M391.0569,-392.3733C360.9961,-383.021 315.1974,-368.7725 282.3022,-358.5385"/>
<polygon fill="#191970" stroke="#191970" points="283.1277,-355.1299 272.5393,-355.5011 281.0481,-361.8139 283.1277,-355.1299"/>
</g>
<!-- Node15 -->
<g id="node16" class="node">
<title>Node15</title>
<polygon fill="#ffffff" stroke="#bfbfbf" points="319,-336.5 319,-355.5 423,-355.5 423,-336.5 319,-336.5"/>
<text text-anchor="middle" x="371" y="-343.5" font-family="Helvetica,sans-Serif" font-size="10.00" fill="#000000">odp/api/abi/packet.h</text>
</g>
<!-- Node5&#45;&gt;Node15 -->
<g id="edge20" class="edge">
<title>Node5&#45;&gt;Node15</title>
<path fill="none" stroke="#191970" d="M413.1165,-392.2455C405.8034,-384.2155 395.2609,-372.6394 386.5533,-363.0781"/>
<polygon fill="#191970" stroke="#191970" points="389.1028,-360.6795 379.7817,-355.6427 383.9273,-365.3928 389.1028,-360.6795"/>
</g>
<!-- Node16 -->
<g id="node17" class="node">
<title>Node16</title>
<polygon fill="#ffffff" stroke="#bfbfbf" points="573,-336.5 573,-355.5 673,-355.5 673,-336.5 573,-336.5"/>
<text text-anchor="middle" x="623" y="-343.5" font-family="Helvetica,sans-Serif" font-size="10.00" fill="#000000">odp/api/abi/buffer.h</text>
</g>
<!-- Node5&#45;&gt;Node16 -->
<g id="edge21" class="edge">
<title>Node5&#45;&gt;Node16</title>
<path fill="none" stroke="#191970" d="M456.5531,-392.3733C490.4104,-382.9404 542.146,-368.5265 578.9426,-358.2747"/>
<polygon fill="#191970" stroke="#191970" points="580.204,-361.5566 588.8978,-355.5011 578.3253,-354.8135 580.204,-361.5566"/>
</g>
<!-- Node17 -->
<g id="node18" class="node">
<title>Node17</title>
<polygon fill="#ffffff" stroke="#bfbfbf" points="691.5,-336.5 691.5,-355.5 784.5,-355.5 784.5,-336.5 691.5,-336.5"/>
<text text-anchor="middle" x="738" y="-343.5" font-family="Helvetica,sans-Serif" font-size="10.00" fill="#000000">odp/api/abi/pool.h</text>
</g>
<!-- Node5&#45;&gt;Node17 -->
<g id="edge22" class="edge">
<title>Node5&#45;&gt;Node17</title>
<path fill="none" stroke="#191970" d="M466.6305,-394.1262C516.4015,-385.3405 599.585,-370.6419 681.2951,-356.1232"/>
<polygon fill="#191970" stroke="#191970" points="682.0169,-359.5499 691.2501,-354.354 680.7919,-352.6579 682.0169,-359.5499"/>
</g>
<!-- Node18 -->
<g id="node19" class="node">
<title>Node18</title>
<g id="a_node19"><a xlink:href="spec_2packet_8h.html" target="_top" xlink:title="ODP packet descriptor. ">
<polygon fill="#ffffff" stroke="#000000" points="441.5,-336.5 441.5,-355.5 554.5,-355.5 554.5,-336.5 441.5,-336.5"/>
<text text-anchor="middle" x="498" y="-343.5" font-family="Helvetica,sans-Serif" font-size="10.00" fill="#000000">odp/api/spec/packet.h</text>
</a>
</g>
</g>
<!-- Node5&#45;&gt;Node18 -->
<g id="edge23" class="edge">
<title>Node5&#45;&gt;Node18</title>
<path fill="none" stroke="#191970" d="M435.2382,-392.2455C446.681,-383.814 463.4296,-371.4729 476.7475,-361.6598"/>
<polygon fill="#191970" stroke="#191970" points="478.9391,-364.3924 484.9135,-355.6427 474.7867,-358.757 478.9391,-364.3924"/>
</g>
<!-- Node7 -->
<g id="node8" class="node">
<title>Node7</title>
<polygon fill="#ffffff" stroke="#bfbfbf" points="407,-168.5 407,-187.5 525,-187.5 525,-168.5 407,-168.5"/>
<text text-anchor="middle" x="466" y="-175.5" font-family="Helvetica,sans-Serif" font-size="10.00" fill="#000000">odp/api/abi/std_types.h</text>
</g>
<!-- Node6&#45;&gt;Node7 -->
<g id="edge8" class="edge">
<title>Node6&#45;&gt;Node7</title>
<path fill="none" stroke="#191970" d="M372.4254,-224.3733C390.4021,-215.4644 417.3441,-202.1127 437.709,-192.0203"/>
<polygon fill="#191970" stroke="#191970" points="439.4222,-195.0776 446.8281,-187.5011 436.3139,-188.8055 439.4222,-195.0776"/>
</g>
<!-- Node8 -->
<g id="node9" class="node">
<title>Node8</title>
<g id="a_node9"><a xlink:href="spec_2std__types_8h.html" target="_top" xlink:title="Standard C language types and definitions for ODP. ">
<polygon fill="#ffffff" stroke="#000000" points="263,-168.5 263,-187.5 389,-187.5 389,-168.5 263,-168.5"/>
<text text-anchor="middle" x="326" y="-175.5" font-family="Helvetica,sans-Serif" font-size="10.00" fill="#000000">odp/api/spec/std_types.h</text>
</a>
</g>
</g>
<!-- Node6&#45;&gt;Node8 -->
<g id="edge9" class="edge">
<title>Node6&#45;&gt;Node8</title>
<path fill="none" stroke="#191970" d="M348.297,-224.2455C344.6576,-216.6973 339.5076,-206.0158 335.0738,-196.8197"/>
<polygon fill="#191970" stroke="#191970" points="338.1449,-195.1303 330.6491,-187.6427 331.8395,-198.1704 338.1449,-195.1303"/>
</g>
<!-- Node8&#45;&gt;Node1 -->
<g id="edge10" class="edge">
<title>Node8&#45;&gt;Node1</title>
<path fill="none" stroke="#191970" d="M314.2027,-168.1771C304.5482,-159.5557 291.1936,-146.2042 283,-132 270.0034,-109.4693 269.8192,-101.7285 266,-76 264.6948,-67.2075 264.1111,-64.6859 266,-56 268.0425,-46.6079 272.1789,-36.8357 276.2447,-28.7264"/>
<polygon fill="#191970" stroke="#191970" points="279.3909,-30.2651 281.0235,-19.7968 273.2191,-26.9622 279.3909,-30.2651"/>
</g>
<!-- Node8&#45;&gt;Node4 -->
<g id="edge17" class="edge">
<title>Node8&#45;&gt;Node4</title>
<path fill="none" stroke="#191970" d="M389.2516,-169.4634C453.909,-157.9335 554.2002,-131.9715 622,-76 636.9327,-63.6724 647.2165,-43.8492 653.2834,-29.1412"/>
<polygon fill="#191970" stroke="#191970" points="656.6613,-30.1064 656.9619,-19.5159 650.1226,-27.6075 656.6613,-30.1064"/>
</g>
<!-- Node9 -->
<g id="node10" class="node">
<title>Node9</title>
<polygon fill="#ffffff" stroke="#bfbfbf" points="292.5,-112.5 292.5,-131.5 341.5,-131.5 341.5,-112.5 292.5,-112.5"/>
<text text-anchor="middle" x="317" y="-119.5" font-family="Helvetica,sans-Serif" font-size="10.00" fill="#000000">stdint.h</text>
</g>
<!-- Node8&#45;&gt;Node9 -->
<g id="edge11" class="edge">
<title>Node8&#45;&gt;Node9</title>
<path fill="none" stroke="#191970" d="M324.4323,-168.2455C323.2579,-160.9382 321.6116,-150.6944 320.1668,-141.7046"/>
<polygon fill="#191970" stroke="#191970" points="323.5922,-140.9606 318.5497,-131.6427 316.6809,-142.0714 323.5922,-140.9606"/>
</g>
<!-- Node10 -->
<g id="node11" class="node">
<title>Node10</title>
<g id="a_node11"><a xlink:href="align_8h.html" target="_top" xlink:title="ODP alignments. ">
<polygon fill="#ffffff" stroke="#000000" points="360,-112.5 360,-131.5 440,-131.5 440,-112.5 360,-112.5"/>
<text text-anchor="middle" x="400" y="-119.5" font-family="Helvetica,sans-Serif" font-size="10.00" fill="#000000">odp/api/align.h</text>
</a>
</g>
</g>
<!-- Node8&#45;&gt;Node10 -->
<g id="edge12" class="edge">
<title>Node8&#45;&gt;Node10</title>
<path fill="none" stroke="#191970" d="M338.8898,-168.2455C349.9254,-159.8943 366.0292,-147.7076 378.9353,-137.9408"/>
<polygon fill="#191970" stroke="#191970" points="381.3959,-140.4681 387.2579,-131.6427 377.1717,-134.8862 381.3959,-140.4681"/>
</g>
<!-- Node11 -->
<g id="node12" class="node">
<title>Node11</title>
<polygon fill="#ffffff" stroke="#bfbfbf" points="397.5,-56.5 397.5,-75.5 492.5,-75.5 492.5,-56.5 397.5,-56.5"/>
<text text-anchor="middle" x="445" y="-63.5" font-family="Helvetica,sans-Serif" font-size="10.00" fill="#000000">odp/api/abi/align.h</text>
</g>
<!-- Node10&#45;&gt;Node11 -->
<g id="edge13" class="edge">
<title>Node10&#45;&gt;Node11</title>
<path fill="none" stroke="#191970" d="M407.8384,-112.2455C414.162,-104.3761 423.2224,-93.101 430.8136,-83.6542"/>
<polygon fill="#191970" stroke="#191970" points="433.7158,-85.6302 437.2514,-75.6427 428.2592,-81.2454 433.7158,-85.6302"/>
</g>
<!-- Node12 -->
<g id="node13" class="node">
<title>Node12</title>
<g id="a_node13"><a xlink:href="spec_2align_8h.html" target="_top" xlink:title="ODP alignments. ">
<polygon fill="#ffffff" stroke="#000000" points="275,-56.5 275,-75.5 379,-75.5 379,-56.5 275,-56.5"/>
<text text-anchor="middle" x="327" y="-63.5" font-family="Helvetica,sans-Serif" font-size="10.00" fill="#000000">odp/api/spec/align.h</text>
</a>
</g>
</g>
<!-- Node10&#45;&gt;Node12 -->
<g id="edge14" class="edge">
<title>Node10&#45;&gt;Node12</title>
<path fill="none" stroke="#191970" d="M387.2844,-112.2455C376.398,-103.8943 360.5117,-91.7076 347.78,-81.9408"/>
<polygon fill="#191970" stroke="#191970" points="349.6346,-78.9523 339.5699,-75.6427 345.3739,-84.5063 349.6346,-78.9523"/>
</g>
<!-- Node12&#45;&gt;Node1 -->
<g id="edge15" class="edge">
<title>Node12&#45;&gt;Node1</title>
<path fill="none" stroke="#191970" d="M320.0325,-56.2455C314.4689,-48.4564 306.522,-37.3308 299.8171,-27.9439"/>
<polygon fill="#191970" stroke="#191970" points="302.5481,-25.7457 293.8876,-19.6427 296.852,-29.8144 302.5481,-25.7457"/>
</g>
<!-- Node12&#45;&gt;Node4 -->
<g id="edge16" class="edge">
<title>Node12&#45;&gt;Node4</title>
<path fill="none" stroke="#191970" d="M379.0313,-57.25C438.8115,-47.1969 536.7491,-30.7269 599.7772,-20.1276"/>
<polygon fill="#191970" stroke="#191970" points="600.6853,-23.5241 609.9664,-18.4141 599.5244,-16.621 600.6853,-23.5241"/>
</g>
<!-- Node18&#45;&gt;Node1 -->
<g id="edge24" class="edge">
<title>Node18&#45;&gt;Node1</title>
<path fill="none" stroke="#191970" d="M443.9803,-336.4855C360.3332,-320.1971 209,-283.8412 209,-234 209,-234 209,-234 209,-122 209,-81.9033 243.0809,-45.8785 266.1871,-26.0622"/>
<polygon fill="#191970" stroke="#191970" points="268.6337,-28.5811 274.1199,-19.5173 264.1789,-23.1816 268.6337,-28.5811"/>
</g>
<!-- Node18&#45;&gt;Node4 -->
<g id="edge31" class="edge">
<title>Node18&#45;&gt;Node4</title>
<path fill="none" stroke="#191970" d="M551.327,-336.4828C604.7175,-323.5233 679,-294.603 679,-234 679,-234 679,-234 679,-122 679,-89.2688 671.0148,-51.9052 665.3978,-29.6716"/>
<polygon fill="#191970" stroke="#191970" points="668.7289,-28.5763 662.8035,-19.7934 661.9585,-30.3545 668.7289,-28.5763"/>
</g>
<!-- Node19 -->
<g id="node20" class="node">
<title>Node19</title>
<g id="a_node20"><a xlink:href="time_8h.html" target="_top" xlink:title="ODP time. ">
<polygon fill="#ffffff" stroke="#000000" points="453,-280.5 453,-299.5 531,-299.5 531,-280.5 453,-280.5"/>
<text text-anchor="middle" x="492" y="-287.5" font-family="Helvetica,sans-Serif" font-size="10.00" fill="#000000">odp/api/time.h</text>
</a>
</g>
</g>
<!-- Node18&#45;&gt;Node19 -->
<g id="edge25" class="edge">
<title>Node18&#45;&gt;Node19</title>
<path fill="none" stroke="#191970" d="M496.9549,-336.2455C496.172,-328.9382 495.0744,-318.6944 494.1112,-309.7046"/>
<polygon fill="#191970" stroke="#191970" points="497.5786,-309.2129 493.0331,-299.6427 490.6185,-309.9587 497.5786,-309.2129"/>
</g>
<!-- Node19&#45;&gt;Node6 -->
<g id="edge26" class="edge">
<title>Node19&#45;&gt;Node6</title>
<path fill="none" stroke="#191970" d="M468.105,-280.3733C445.4918,-271.2629 411.3458,-257.5062 386.1127,-247.3404"/>
<polygon fill="#191970" stroke="#191970" points="387.1666,-243.9917 376.5831,-243.5011 384.5507,-250.4845 387.1666,-243.9917"/>
</g>
<!-- Node20 -->
<g id="node21" class="node">
<title>Node20</title>
<polygon fill="#ffffff" stroke="#bfbfbf" points="440,-224.5 440,-243.5 534,-243.5 534,-224.5 440,-224.5"/>
<text text-anchor="middle" x="487" y="-231.5" font-family="Helvetica,sans-Serif" font-size="10.00" fill="#000000">odp/api/abi/time.h</text>
</g>
<!-- Node19&#45;&gt;Node20 -->
<g id="edge27" class="edge">
<title>Node19&#45;&gt;Node20</title>
<path fill="none" stroke="#191970" d="M491.1291,-280.2455C490.4766,-272.9382 489.562,-262.6944 488.7593,-253.7046"/>
<polygon fill="#191970" stroke="#191970" points="492.2365,-253.2918 487.861,-243.6427 485.2642,-253.9143 492.2365,-253.2918"/>
</g>
<!-- Node21 -->
<g id="node22" class="node">
<title>Node21</title>
<g id="a_node22"><a xlink:href="spec_2time_8h.html" target="_top" xlink:title="ODP time. ">
<polygon fill="#ffffff" stroke="#000000" points="511,-56.5 511,-75.5 613,-75.5 613,-56.5 511,-56.5"/>
<text text-anchor="middle" x="562" y="-63.5" font-family="Helvetica,sans-Serif" font-size="10.00" fill="#000000">odp/api/spec/time.h</text>
</a>
</g>
</g>
<!-- Node19&#45;&gt;Node21 -->
<g id="edge28" class="edge">
<title>Node19&#45;&gt;Node21</title>
<path fill="none" stroke="#191970" d="M507.7757,-280.4095C519.6149,-272.2891 535.0908,-259.5082 543,-244 569.6401,-191.765 567.3329,-119.8404 564.2767,-85.621"/>
<polygon fill="#191970" stroke="#191970" points="567.7458,-85.1393 563.2522,-75.5446 560.7817,-85.8474 567.7458,-85.1393"/>
</g>
<!-- Node21&#45;&gt;Node1 -->
<g id="edge29" class="edge">
<title>Node21&#45;&gt;Node1</title>
<path fill="none" stroke="#191970" d="M515.0383,-56.4369C467.5787,-46.7724 394.2134,-31.8326 343.5777,-21.5213"/>
<polygon fill="#191970" stroke="#191970" points="344.2653,-18.0895 333.768,-19.5237 342.8685,-24.9488 344.2653,-18.0895"/>
</g>
<!-- Node21&#45;&gt;Node4 -->
<g id="edge30" class="edge">
<title>Node21&#45;&gt;Node4</title>
<path fill="none" stroke="#191970" d="M579.0703,-56.2455C594.247,-47.5731 616.6621,-34.7645 634.0563,-24.825"/>
<polygon fill="#191970" stroke="#191970" points="636.1794,-27.643 643.1253,-19.6427 632.7064,-21.5653 636.1794,-27.643"/>
</g>
</g>
</svg>
