<?xml version="1.0" encoding="UTF-8" standalone="no"?>
<!DOCTYPE svg PUBLIC "-//W3C//DTD SVG 1.1//EN"
 "http://www.w3.org/Graphics/SVG/1.1/DTD/svg11.dtd">
<!-- Generated by graphviz version 2.40.1 (20161225.0304)
 -->
<!-- Title: queue.h Pages: 1 -->
<svg width="1066pt" height="610pt"
 viewBox="0.00 0.00 1066.00 610.00" xmlns="http://www.w3.org/2000/svg" xmlns:xlink="http://www.w3.org/1999/xlink">
<g id="graph0" class="graph" transform="scale(1 1) rotate(0) translate(4 606)">
<title>queue.h</title>
<polygon fill="#ffffff" stroke="transparent" points="-4,4 -4,-606 1062,-606 1062,4 -4,4"/>
<!-- Node0 -->
<g id="node1" class="node">
<title>Node0</title>
<polygon fill="#bfbfbf" stroke="#000000" points="335.5,-582.5 335.5,-601.5 386.5,-601.5 386.5,-582.5 335.5,-582.5"/>
<text text-anchor="middle" x="361" y="-589.5" font-family="Helvetica,sans-Serif" font-size="10.00" fill="#000000">queue.h</text>
</g>
<!-- Node1 -->
<g id="node2" class="node">
<title>Node1</title>
<polygon fill="#ffffff" stroke="#bfbfbf" points="145.5,-.5 145.5,-19.5 252.5,-19.5 252.5,-.5 145.5,-.5"/>
<text text-anchor="middle" x="199" y="-7.5" font-family="Helvetica,sans-Serif" font-size="10.00" fill="#000000">odp/visibility_begin.h</text>
</g>
<!-- Node0&#45;&gt;Node1 -->
<g id="edge1" class="edge">
<title>Node0&#45;&gt;Node1</title>
<path fill="none" stroke="#191970" d="M335.3272,-589.644C252.8535,-581.3762 0,-550.2961 0,-480 0,-480 0,-480 0,-122 0,-58.7584 77.2701,-30.8437 135.5116,-18.7855"/>
<polygon fill="#191970" stroke="#191970" points="136.2684,-22.2039 145.4099,-16.8482 134.9238,-15.3342 136.2684,-22.2039"/>
</g>
<!-- Node2 -->
<g id="node3" class="node">
<title>Node2</title>
<g id="a_node3"><a xlink:href="event_8h.html" target="_top" xlink:title="ODP event. ">
<polygon fill="#ffffff" stroke="#000000" points="604.5,-526.5 604.5,-545.5 687.5,-545.5 687.5,-526.5 604.5,-526.5"/>
<text text-anchor="middle" x="646" y="-533.5" font-family="Helvetica,sans-Serif" font-size="10.00" fill="#000000">odp/api/event.h</text>
</a>
</g>
</g>
<!-- Node0&#45;&gt;Node2 -->
<g id="edge2" class="edge">
<title>Node0&#45;&gt;Node2</title>
<path fill="none" stroke="#191970" d="M386.5427,-586.9811C433.2644,-577.8007 533.3157,-558.1415 594.6175,-546.0962"/>
<polygon fill="#191970" stroke="#191970" points="595.3418,-549.5209 604.4793,-544.1584 593.9921,-542.6522 595.3418,-549.5209"/>
</g>
<!-- Node13 -->
<g id="node14" class="node">
<title>Node13</title>
<polygon fill="#ffffff" stroke="#bfbfbf" points="759,-.5 759,-19.5 859,-19.5 859,-.5 759,-.5"/>
<text text-anchor="middle" x="809" y="-7.5" font-family="Helvetica,sans-Serif" font-size="10.00" fill="#000000">odp/visibility_end.h</text>
</g>
<!-- Node0&#45;&gt;Node13 -->
<g id="edge49" class="edge">
<title>Node0&#45;&gt;Node13</title>
<path fill="none" stroke="#191970" d="M386.6332,-590.6457C512.3813,-583.6691 1058,-549.3992 1058,-480 1058,-480 1058,-480 1058,-122 1058,-84.9295 1038.1979,-76.0229 1007,-56 984.4242,-41.5108 918.8349,-28.0081 869.281,-19.43"/>
<polygon fill="#191970" stroke="#191970" points="869.7325,-15.9566 859.2869,-17.7285 868.5576,-22.8573 869.7325,-15.9566"/>
</g>
<!-- Node22 -->
<g id="node23" class="node">
<title>Node22</title>
<g id="a_node23"><a xlink:href="queue__types_8h.html" target="_top" xlink:title="ODP queue types. ">
<polygon fill="#ffffff" stroke="#000000" points="145.5,-291.5 145.5,-321.5 246.5,-321.5 246.5,-291.5 145.5,-291.5"/>
<text text-anchor="start" x="153.5" y="-309.5" font-family="Helvetica,sans-Serif" font-size="10.00" fill="#000000">odp/api/spec/queue</text>
<text text-anchor="middle" x="196" y="-298.5" font-family="Helvetica,sans-Serif" font-size="10.00" fill="#000000">_types.h</text>
</a>
</g>
</g>
<!-- Node0&#45;&gt;Node22 -->
<g id="edge33" class="edge">
<title>Node0&#45;&gt;Node22</title>
<path fill="none" stroke="#191970" d="M335.4573,-587.633C265.5038,-574.9548 76,-535.4886 76,-480 76,-480 76,-480 76,-424 76,-379.3013 119.0319,-346.0012 153.5579,-326.4769"/>
<polygon fill="#191970" stroke="#191970" points="155.4602,-329.4266 162.5733,-321.5745 152.1161,-323.277 155.4602,-329.4266"/>
</g>
<!-- Node3 -->
<g id="node4" class="node">
<title>Node3</title>
<polygon fill="#ffffff" stroke="#bfbfbf" points="892.5,-358.5 892.5,-377.5 991.5,-377.5 991.5,-358.5 892.5,-358.5"/>
<text text-anchor="middle" x="942" y="-365.5" font-family="Helvetica,sans-Serif" font-size="10.00" fill="#000000">odp/api/abi/event.h</text>
</g>
<!-- Node2&#45;&gt;Node3 -->
<g id="edge3" class="edge">
<title>Node2&#45;&gt;Node3</title>
<path fill="none" stroke="#191970" d="M662.7623,-526.4862C712.0998,-498.4839 857.047,-416.2166 916.3072,-382.5824"/>
<polygon fill="#191970" stroke="#191970" points="918.0854,-385.5977 925.0546,-377.6177 914.6301,-379.5099 918.0854,-385.5977"/>
</g>
<!-- Node4 -->
<g id="node5" class="node">
<title>Node4</title>
<g id="a_node5"><a xlink:href="spec_2event_8h.html" target="_top" xlink:title="ODP event. ">
<polygon fill="#ffffff" stroke="#000000" points="592.5,-470.5 592.5,-489.5 699.5,-489.5 699.5,-470.5 592.5,-470.5"/>
<text text-anchor="middle" x="646" y="-477.5" font-family="Helvetica,sans-Serif" font-size="10.00" fill="#000000">odp/api/spec/event.h</text>
</a>
</g>
</g>
<!-- Node2&#45;&gt;Node4 -->
<g id="edge4" class="edge">
<title>Node2&#45;&gt;Node4</title>
<path fill="none" stroke="#191970" d="M646,-526.2455C646,-518.9382 646,-508.6944 646,-499.7046"/>
<polygon fill="#191970" stroke="#191970" points="649.5001,-499.6426 646,-489.6427 642.5001,-499.6427 649.5001,-499.6426"/>
</g>
<!-- Node4&#45;&gt;Node1 -->
<g id="edge5" class="edge">
<title>Node4&#45;&gt;Node1</title>
<path fill="none" stroke="#191970" d="M592.3108,-476.2238C443.7285,-464.3122 38,-421.2774 38,-306.5 38,-306.5 38,-306.5 38,-122 38,-67.6419 100.6115,-37.5246 147.744,-22.5539"/>
<polygon fill="#191970" stroke="#191970" points="148.9833,-25.8356 157.5385,-19.5859 146.9532,-19.1364 148.9833,-25.8356"/>
</g>
<!-- Node5 -->
<g id="node6" class="node">
<title>Node5</title>
<g id="a_node6"><a xlink:href="packet_8h.html" target="_top" xlink:title="ODP packet descriptor. ">
<polygon fill="#ffffff" stroke="#000000" points="601.5,-414.5 601.5,-433.5 690.5,-433.5 690.5,-414.5 601.5,-414.5"/>
<text text-anchor="middle" x="646" y="-421.5" font-family="Helvetica,sans-Serif" font-size="10.00" fill="#000000">odp/api/packet.h</text>
</a>
</g>
</g>
<!-- Node4&#45;&gt;Node5 -->
<g id="edge6" class="edge">
<title>Node4&#45;&gt;Node5</title>
<path fill="none" stroke="#191970" d="M646,-470.2455C646,-462.9382 646,-452.6944 646,-443.7046"/>
<polygon fill="#191970" stroke="#191970" points="649.5001,-443.6426 646,-433.6427 642.5001,-443.6427 649.5001,-443.6426"/>
</g>
<!-- Node4&#45;&gt;Node13 -->
<g id="edge32" class="edge">
<title>Node4&#45;&gt;Node13</title>
<path fill="none" stroke="#191970" d="M699.6109,-471.2212C788.0431,-455.6933 958.9188,-420.9337 1001,-378 1024.0158,-354.5179 1020,-339.3806 1020,-306.5 1020,-306.5 1020,-306.5 1020,-122 1020,-53.2501 931.5247,-26.5743 869.1575,-16.3106"/>
<polygon fill="#191970" stroke="#191970" points="869.4207,-12.8099 859.0041,-14.7447 868.3537,-19.7281 869.4207,-12.8099"/>
</g>
<!-- Node5&#45;&gt;Node3 -->
<g id="edge18" class="edge">
<title>Node5&#45;&gt;Node3</title>
<path fill="none" stroke="#191970" d="M690.6347,-415.5556C741.7504,-405.8851 825.7225,-389.9984 882.3978,-379.2761"/>
<polygon fill="#191970" stroke="#191970" points="883.1232,-382.701 892.2982,-377.403 881.8219,-375.823 883.1232,-382.701"/>
</g>
<!-- Node6 -->
<g id="node7" class="node">
<title>Node6</title>
<g id="a_node7"><a xlink:href="std__types_8h.html" target="_top" xlink:title="Standard C language types and definitions for ODP. ">
<polygon fill="#ffffff" stroke="#000000" points="813,-235.5 813,-254.5 915,-254.5 915,-235.5 813,-235.5"/>
<text text-anchor="middle" x="864" y="-242.5" font-family="Helvetica,sans-Serif" font-size="10.00" fill="#000000">odp/api/std_types.h</text>
</a>
</g>
</g>
<!-- Node5&#45;&gt;Node6 -->
<g id="edge7" class="edge">
<title>Node5&#45;&gt;Node6</title>
<path fill="none" stroke="#191970" d="M690.9238,-419.4855C743.0717,-413.2782 824.5551,-400.267 845,-378 873.5493,-346.9064 871.2288,-293.3068 867.4168,-264.5615"/>
<polygon fill="#191970" stroke="#191970" points="870.8561,-263.897 865.8886,-254.5388 863.936,-264.9522 870.8561,-263.897"/>
</g>
<!-- Node14 -->
<g id="node15" class="node">
<title>Node14</title>
<polygon fill="#ffffff" stroke="#bfbfbf" points="587.5,-358.5 587.5,-377.5 704.5,-377.5 704.5,-358.5 587.5,-358.5"/>
<text text-anchor="middle" x="646" y="-365.5" font-family="Helvetica,sans-Serif" font-size="10.00" fill="#000000">odp/api/abi/packet_io.h</text>
</g>
<!-- Node5&#45;&gt;Node14 -->
<g id="edge19" class="edge">
<title>Node5&#45;&gt;Node14</title>
<path fill="none" stroke="#191970" d="M646,-414.2455C646,-406.9382 646,-396.6944 646,-387.7046"/>
<polygon fill="#191970" stroke="#191970" points="649.5001,-387.6426 646,-377.6427 642.5001,-387.6427 649.5001,-387.6426"/>
</g>
<!-- Node15 -->
<g id="node16" class="node">
<title>Node15</title>
<polygon fill="#ffffff" stroke="#bfbfbf" points="236,-358.5 236,-377.5 340,-377.5 340,-358.5 236,-358.5"/>
<text text-anchor="middle" x="288" y="-365.5" font-family="Helvetica,sans-Serif" font-size="10.00" fill="#000000">odp/api/abi/packet.h</text>
</g>
<!-- Node5&#45;&gt;Node15 -->
<g id="edge20" class="edge">
<title>Node5&#45;&gt;Node15</title>
<path fill="none" stroke="#191970" d="M601.4504,-417.2255C545.3273,-408.6632 445.6381,-393.3626 350.3377,-378.2034"/>
<polygon fill="#191970" stroke="#191970" points="350.6646,-374.7114 340.2385,-376.5948 349.5635,-381.6243 350.6646,-374.7114"/>
</g>
<!-- Node16 -->
<g id="node17" class="node">
<title>Node16</title>
<polygon fill="#ffffff" stroke="#bfbfbf" points="358,-358.5 358,-377.5 458,-377.5 458,-358.5 358,-358.5"/>
<text text-anchor="middle" x="408" y="-365.5" font-family="Helvetica,sans-Serif" font-size="10.00" fill="#000000">odp/api/abi/buffer.h</text>
</g>
<!-- Node5&#45;&gt;Node16 -->
<g id="edge21" class="edge">
<title>Node5&#45;&gt;Node16</title>
<path fill="none" stroke="#191970" d="M605.3568,-414.4369C564.7105,-404.8731 502.1087,-390.1432 458.3413,-379.845"/>
<polygon fill="#191970" stroke="#191970" points="459.0114,-376.4072 448.4756,-377.5237 457.4081,-383.2211 459.0114,-376.4072"/>
</g>
<!-- Node17 -->
<g id="node18" class="node">
<title>Node17</title>
<polygon fill="#ffffff" stroke="#bfbfbf" points="476.5,-358.5 476.5,-377.5 569.5,-377.5 569.5,-358.5 476.5,-358.5"/>
<text text-anchor="middle" x="523" y="-365.5" font-family="Helvetica,sans-Serif" font-size="10.00" fill="#000000">odp/api/abi/pool.h</text>
</g>
<!-- Node5&#45;&gt;Node17 -->
<g id="edge22" class="edge">
<title>Node5&#45;&gt;Node17</title>
<path fill="none" stroke="#191970" d="M624.8555,-414.3733C605.1108,-405.3838 575.4302,-391.8706 553.1945,-381.7471"/>
<polygon fill="#191970" stroke="#191970" points="554.42,-378.4594 543.8685,-377.5011 551.5194,-384.8302 554.42,-378.4594"/>
</g>
<!-- Node18 -->
<g id="node19" class="node">
<title>Node18</title>
<g id="a_node19"><a xlink:href="spec_2packet_8h.html" target="_top" xlink:title="ODP packet descriptor. ">
<polygon fill="#ffffff" stroke="#000000" points="722.5,-358.5 722.5,-377.5 835.5,-377.5 835.5,-358.5 722.5,-358.5"/>
<text text-anchor="middle" x="779" y="-365.5" font-family="Helvetica,sans-Serif" font-size="10.00" fill="#000000">odp/api/spec/packet.h</text>
</a>
</g>
</g>
<!-- Node5&#45;&gt;Node18 -->
<g id="edge23" class="edge">
<title>Node5&#45;&gt;Node18</title>
<path fill="none" stroke="#191970" d="M668.8635,-414.3733C690.405,-405.3032 722.8838,-391.6279 746.9956,-381.4755"/>
<polygon fill="#191970" stroke="#191970" points="748.5767,-384.6075 756.4348,-377.5011 745.8603,-378.156 748.5767,-384.6075"/>
</g>
<!-- Node7 -->
<g id="node8" class="node">
<title>Node7</title>
<polygon fill="#ffffff" stroke="#bfbfbf" points="836,-174 836,-193 954,-193 954,-174 836,-174"/>
<text text-anchor="middle" x="895" y="-181" font-family="Helvetica,sans-Serif" font-size="10.00" fill="#000000">odp/api/abi/std_types.h</text>
</g>
<!-- Node6&#45;&gt;Node7 -->
<g id="edge8" class="edge">
<title>Node6&#45;&gt;Node7</title>
<path fill="none" stroke="#191970" d="M868.8438,-235.3906C873.2766,-226.5965 879.9631,-213.3312 885.4659,-202.4145"/>
<polygon fill="#191970" stroke="#191970" points="888.7122,-203.75 890.088,-193.2449 882.4614,-200.5992 888.7122,-203.75"/>
</g>
<!-- Node8 -->
<g id="node9" class="node">
<title>Node8</title>
<g id="a_node9"><a xlink:href="spec_2std__types_8h.html" target="_top" xlink:title="Standard C language types and definitions for ODP. ">
<polygon fill="#ffffff" stroke="#000000" points="654,-174 654,-193 780,-193 780,-174 654,-174"/>
<text text-anchor="middle" x="717" y="-181" font-family="Helvetica,sans-Serif" font-size="10.00" fill="#000000">odp/api/spec/std_types.h</text>
</a>
</g>
</g>
<!-- Node6&#45;&gt;Node8 -->
<g id="edge9" class="edge">
<title>Node6&#45;&gt;Node8</title>
<path fill="none" stroke="#191970" d="M841.0313,-235.3906C816.3276,-225.0554 776.863,-208.5447 749.0973,-196.9284"/>
<polygon fill="#191970" stroke="#191970" points="750.3835,-193.6727 739.8075,-193.0419 747.6818,-200.1303 750.3835,-193.6727"/>
</g>
<!-- Node8&#45;&gt;Node1 -->
<g id="edge10" class="edge">
<title>Node8&#45;&gt;Node1</title>
<path fill="none" stroke="#191970" d="M653.993,-180.2422C567.2981,-174.7394 416.7461,-161.2138 371,-132 336.9236,-110.2385 352.5726,-81.2574 321,-56 301.3682,-40.295 275.8077,-29.5589 253.1579,-22.4362"/>
<polygon fill="#191970" stroke="#191970" points="253.9054,-19.007 243.3224,-19.5071 251.9075,-25.7158 253.9054,-19.007"/>
</g>
<!-- Node9 -->
<g id="node10" class="node">
<title>Node9</title>
<polygon fill="#ffffff" stroke="#bfbfbf" points="773.5,-112.5 773.5,-131.5 822.5,-131.5 822.5,-112.5 773.5,-112.5"/>
<text text-anchor="middle" x="798" y="-119.5" font-family="Helvetica,sans-Serif" font-size="10.00" fill="#000000">stdint.h</text>
</g>
<!-- Node8&#45;&gt;Node9 -->
<g id="edge11" class="edge">
<title>Node8&#45;&gt;Node9</title>
<path fill="none" stroke="#191970" d="M729.6563,-173.8906C742.3768,-164.2324 762.2004,-149.1812 777.2284,-137.771"/>
<polygon fill="#191970" stroke="#191970" points="779.5846,-140.3766 785.4326,-131.5419 775.3516,-134.8015 779.5846,-140.3766"/>
</g>
<!-- Node10 -->
<g id="node11" class="node">
<title>Node10</title>
<g id="a_node11"><a xlink:href="align_8h.html" target="_top" xlink:title="ODP alignments. ">
<polygon fill="#ffffff" stroke="#000000" points="675,-112.5 675,-131.5 755,-131.5 755,-112.5 675,-112.5"/>
<text text-anchor="middle" x="715" y="-119.5" font-family="Helvetica,sans-Serif" font-size="10.00" fill="#000000">odp/api/align.h</text>
</a>
</g>
</g>
<!-- Node8&#45;&gt;Node10 -->
<g id="edge12" class="edge">
<title>Node8&#45;&gt;Node10</title>
<path fill="none" stroke="#191970" d="M716.6875,-173.8906C716.4103,-165.3657 715.9964,-152.6392 715.6479,-141.9235"/>
<polygon fill="#191970" stroke="#191970" points="719.1402,-141.6258 715.3169,-131.7449 712.1439,-141.8534 719.1402,-141.6258"/>
</g>
<!-- Node8&#45;&gt;Node13 -->
<g id="edge17" class="edge">
<title>Node8&#45;&gt;Node13</title>
<path fill="none" stroke="#191970" d="M753.6803,-173.9775C796.5384,-160.495 864.4638,-131.1081 887,-76 890.3646,-67.7725 891.4088,-63.7185 887,-56 878.6846,-41.4424 863.762,-31.0309 849.1797,-23.8375"/>
<polygon fill="#191970" stroke="#191970" points="850.2733,-20.491 839.7191,-19.5638 847.3915,-26.8703 850.2733,-20.491"/>
</g>
<!-- Node11 -->
<g id="node12" class="node">
<title>Node11</title>
<polygon fill="#ffffff" stroke="#bfbfbf" points="782.5,-56.5 782.5,-75.5 877.5,-75.5 877.5,-56.5 782.5,-56.5"/>
<text text-anchor="middle" x="830" y="-63.5" font-family="Helvetica,sans-Serif" font-size="10.00" fill="#000000">odp/api/abi/align.h</text>
</g>
<!-- Node10&#45;&gt;Node11 -->
<g id="edge13" class="edge">
<title>Node10&#45;&gt;Node11</title>
<path fill="none" stroke="#191970" d="M734.7692,-112.3733C753.1469,-103.4241 780.7312,-89.9917 801.4893,-79.8835"/>
<polygon fill="#191970" stroke="#191970" points="803.0304,-83.026 810.4888,-75.5011 799.9657,-76.7325 803.0304,-83.026"/>
</g>
<!-- Node12 -->
<g id="node13" class="node">
<title>Node12</title>
<g id="a_node13"><a xlink:href="spec_2align_8h.html" target="_top" xlink:title="ODP alignments. ">
<polygon fill="#ffffff" stroke="#000000" points="660,-56.5 660,-75.5 764,-75.5 764,-56.5 660,-56.5"/>
<text text-anchor="middle" x="712" y="-63.5" font-family="Helvetica,sans-Serif" font-size="10.00" fill="#000000">odp/api/spec/align.h</text>
</a>
</g>
</g>
<!-- Node10&#45;&gt;Node12 -->
<g id="edge14" class="edge">
<title>Node10&#45;&gt;Node12</title>
<path fill="none" stroke="#191970" d="M714.4774,-112.2455C714.086,-104.9382 713.5372,-94.6944 713.0556,-85.7046"/>
<polygon fill="#191970" stroke="#191970" points="716.5466,-85.4411 712.5166,-75.6427 709.5566,-85.8156 716.5466,-85.4411"/>
</g>
<!-- Node12&#45;&gt;Node1 -->
<g id="edge15" class="edge">
<title>Node12&#45;&gt;Node1</title>
<path fill="none" stroke="#191970" d="M659.7878,-57.2254C656.8174,-56.7933 653.8724,-56.3812 651,-56 512.9826,-37.6815 350.4068,-22.7554 262.7528,-15.2524"/>
<polygon fill="#191970" stroke="#191970" points="262.9606,-11.7575 252.6997,-14.3963 262.3666,-18.7322 262.9606,-11.7575"/>
</g>
<!-- Node12&#45;&gt;Node13 -->
<g id="edge16" class="edge">
<title>Node12&#45;&gt;Node13</title>
<path fill="none" stroke="#191970" d="M728.8961,-56.2455C743.918,-47.5731 766.1043,-34.7645 783.321,-24.825"/>
<polygon fill="#191970" stroke="#191970" points="785.3871,-27.6737 792.2975,-19.6427 781.8872,-21.6114 785.3871,-27.6737"/>
</g>
<!-- Node18&#45;&gt;Node1 -->
<g id="edge24" class="edge">
<title>Node18&#45;&gt;Node1</title>
<path fill="none" stroke="#191970" d="M722.3193,-358.9714C719.5092,-358.6207 716.7244,-358.294 714,-358 586.2698,-344.2184 250.8605,-381.5041 137,-322 98.3057,-301.7781 76,-288.6597 76,-245 76,-245 76,-245 76,-122 76,-73.8817 128.0996,-40.9564 164.4833,-23.8297"/>
<polygon fill="#191970" stroke="#191970" points="166.1388,-26.9225 173.8123,-19.6172 163.258,-20.5428 166.1388,-26.9225"/>
</g>
<!-- Node18&#45;&gt;Node13 -->
<g id="edge31" class="edge">
<title>Node18&#45;&gt;Node13</title>
<path fill="none" stroke="#191970" d="M799.4146,-358.362C841.7599,-336.9406 937.3443,-280.7314 963,-199 982.9951,-135.3016 963.9019,-103.5131 917,-56 901.6202,-40.4198 880.1312,-29.8154 860.3681,-22.7543"/>
<polygon fill="#191970" stroke="#191970" points="861.433,-19.42 850.8392,-19.5663 859.212,-26.0583 861.433,-19.42"/>
</g>
<!-- Node19 -->
<g id="node20" class="node">
<title>Node19</title>
<g id="a_node20"><a xlink:href="time_8h.html" target="_top" xlink:title="ODP time. ">
<polygon fill="#ffffff" stroke="#000000" points="714,-297 714,-316 792,-316 792,-297 714,-297"/>
<text text-anchor="middle" x="753" y="-304" font-family="Helvetica,sans-Serif" font-size="10.00" fill="#000000">odp/api/time.h</text>
</a>
</g>
</g>
<!-- Node18&#45;&gt;Node19 -->
<g id="edge25" class="edge">
<title>Node18&#45;&gt;Node19</title>
<path fill="none" stroke="#191970" d="M774.9375,-358.3906C771.2576,-349.6862 765.7258,-336.6015 761.138,-325.7494"/>
<polygon fill="#191970" stroke="#191970" points="764.2375,-324.0927 757.1198,-316.2449 757.79,-326.8185 764.2375,-324.0927"/>
</g>
<!-- Node19&#45;&gt;Node6 -->
<g id="edge26" class="edge">
<title>Node19&#45;&gt;Node6</title>
<path fill="none" stroke="#191970" d="M770.3438,-296.8906C788.4273,-286.8713 816.9859,-271.0483 837.8165,-259.5071"/>
<polygon fill="#191970" stroke="#191970" points="839.7271,-262.4498 846.778,-254.5419 836.3346,-256.3268 839.7271,-262.4498"/>
</g>
<!-- Node20 -->
<g id="node21" class="node">
<title>Node20</title>
<polygon fill="#ffffff" stroke="#bfbfbf" points="701,-235.5 701,-254.5 795,-254.5 795,-235.5 701,-235.5"/>
<text text-anchor="middle" x="748" y="-242.5" font-family="Helvetica,sans-Serif" font-size="10.00" fill="#000000">odp/api/abi/time.h</text>
</g>
<!-- Node19&#45;&gt;Node20 -->
<g id="edge27" class="edge">
<title>Node19&#45;&gt;Node20</title>
<path fill="none" stroke="#191970" d="M752.2188,-296.8906C751.5257,-288.3657 750.491,-275.6392 749.6198,-264.9235"/>
<polygon fill="#191970" stroke="#191970" points="753.0912,-264.4283 748.7923,-254.7449 746.1142,-264.9956 753.0912,-264.4283"/>
</g>
<!-- Node21 -->
<g id="node22" class="node">
<title>Node21</title>
<g id="a_node22"><a xlink:href="spec_2time_8h.html" target="_top" xlink:title="ODP time. ">
<polygon fill="#ffffff" stroke="#000000" points="540,-56.5 540,-75.5 642,-75.5 642,-56.5 540,-56.5"/>
<text text-anchor="middle" x="591" y="-63.5" font-family="Helvetica,sans-Serif" font-size="10.00" fill="#000000">odp/api/spec/time.h</text>
</a>
</g>
</g>
<!-- Node19&#45;&gt;Node21 -->
<g id="edge28" class="edge">
<title>Node19&#45;&gt;Node21</title>
<path fill="none" stroke="#191970" d="M740.3048,-296.83C727.5714,-286.8948 707.6578,-270.7034 692,-255 669.0574,-231.9905 661.7605,-226.8368 645,-199 622.178,-161.0959 605.0389,-111.7982 596.6768,-85.1404"/>
<polygon fill="#191970" stroke="#191970" points="600.0001,-84.0392 593.7284,-75.5001 593.3062,-86.0865 600.0001,-84.0392"/>
</g>
<!-- Node21&#45;&gt;Node1 -->
<g id="edge29" class="edge">
<title>Node21&#45;&gt;Node1</title>
<path fill="none" stroke="#191970" d="M539.7528,-58.679C468.6489,-48.5213 340.1197,-30.16 262.8602,-19.1229"/>
<polygon fill="#191970" stroke="#191970" points="263.1682,-15.6314 252.7737,-17.682 262.1781,-22.5611 263.1682,-15.6314"/>
</g>
<!-- Node21&#45;&gt;Node13 -->
<g id="edge30" class="edge">
<title>Node21&#45;&gt;Node13</title>
<path fill="none" stroke="#191970" d="M628.4755,-56.3733C665.5103,-46.8598 722.2682,-32.2797 762.2361,-22.0127"/>
<polygon fill="#191970" stroke="#191970" points="763.1988,-25.3792 772.0135,-19.5011 761.4571,-18.5993 763.1988,-25.3792"/>
</g>
<!-- Node22&#45;&gt;Node1 -->
<g id="edge34" class="edge">
<title>Node22&#45;&gt;Node1</title>
<path fill="none" stroke="#191970" d="M171.3852,-291.3743C158.5202,-282.2991 143.5152,-269.6766 134,-255 116.0493,-227.3122 114,-216.4976 114,-183.5 114,-183.5 114,-183.5 114,-122 114,-80.7307 151.0727,-45.1225 176.2512,-25.6976"/>
<polygon fill="#191970" stroke="#191970" points="178.6344,-28.2877 184.5809,-19.519 174.4641,-22.6655 178.6344,-28.2877"/>
</g>
<!-- Node22&#45;&gt;Node13 -->
<g id="edge48" class="edge">
<title>Node22&#45;&gt;Node13</title>
<path fill="none" stroke="#191970" d="M246.6501,-300.8595C371.8497,-286.3577 692.7107,-245.6246 789,-199 799.1321,-194.0939 857.6105,-140.4925 865,-132 884.5815,-109.4957 893.4145,-104.5686 902,-76 904.5583,-67.4872 906.6895,-63.5513 902,-56 892.4673,-40.6499 876.1258,-30.2666 859.7752,-23.3145"/>
<polygon fill="#191970" stroke="#191970" points="860.7877,-19.9534 850.1985,-19.6061 858.2599,-26.481 860.7877,-19.9534"/>
</g>
<!-- Node23 -->
<g id="node24" class="node">
<title>Node23</title>
<g id="a_node24"><a xlink:href="schedule__types_8h.html" target="_top" xlink:title="ODP schedule. ">
<polygon fill="#ffffff" stroke="#000000" points="268,-235.5 268,-254.5 396,-254.5 396,-235.5 268,-235.5"/>
<text text-anchor="middle" x="332" y="-242.5" font-family="Helvetica,sans-Serif" font-size="10.00" fill="#000000">odp/api/schedule_types.h</text>
</a>
</g>
</g>
<!-- Node22&#45;&gt;Node23 -->
<g id="edge35" class="edge">
<title>Node22&#45;&gt;Node23</title>
<path fill="none" stroke="#191970" d="M229.2693,-291.4554C251.3641,-281.464 280.146,-268.4487 301.6219,-258.7372"/>
<polygon fill="#191970" stroke="#191970" points="303.2553,-261.8398 310.9248,-254.5303 300.371,-255.4616 303.2553,-261.8398"/>
</g>
<!-- Node28 -->
<g id="node29" class="node">
<title>Node28</title>
<g id="a_node29"><a xlink:href="deprecated_8h.html" target="_top" xlink:title="Control deprecated API definitions. ">
<polygon fill="#ffffff" stroke="#000000" points="142.5,-235.5 142.5,-254.5 249.5,-254.5 249.5,-235.5 142.5,-235.5"/>
<text text-anchor="middle" x="196" y="-242.5" font-family="Helvetica,sans-Serif" font-size="10.00" fill="#000000">odp/api/deprecated.h</text>
</a>
</g>
</g>
<!-- Node22&#45;&gt;Node28 -->
<g id="edge44" class="edge">
<title>Node22&#45;&gt;Node28</title>
<path fill="none" stroke="#191970" d="M196,-291.2977C196,-283.3834 196,-273.6043 196,-265.0759"/>
<polygon fill="#191970" stroke="#191970" points="199.5001,-264.8469 196,-254.8469 192.5001,-264.847 199.5001,-264.8469"/>
</g>
<!-- Node24 -->
<g id="node25" class="node">
<title>Node24</title>
<polygon fill="#ffffff" stroke="#bfbfbf" points="245,-168.5 245,-198.5 351,-198.5 351,-168.5 245,-168.5"/>
<text text-anchor="start" x="253" y="-186.5" font-family="Helvetica,sans-Serif" font-size="10.00" fill="#000000">odp/api/abi/schedule</text>
<text text-anchor="middle" x="298" y="-175.5" font-family="Helvetica,sans-Serif" font-size="10.00" fill="#000000">_types.h</text>
</g>
<!-- Node23&#45;&gt;Node24 -->
<g id="edge36" class="edge">
<title>Node23&#45;&gt;Node24</title>
<path fill="none" stroke="#191970" d="M326.6875,-235.3906C322.5547,-227.9151 316.6357,-217.2087 311.2464,-207.4605"/>
<polygon fill="#191970" stroke="#191970" points="314.2188,-205.6028 306.3173,-198.5446 308.0926,-208.9896 314.2188,-205.6028"/>
</g>
<!-- Node25 -->
<g id="node26" class="node">
<title>Node25</title>
<g id="a_node26"><a xlink:href="spec_2schedule__types_8h.html" target="_top" xlink:title="ODP schedule types. ">
<polygon fill="#ffffff" stroke="#000000" points="369,-168.5 369,-198.5 483,-198.5 483,-168.5 369,-168.5"/>
<text text-anchor="start" x="377" y="-186.5" font-family="Helvetica,sans-Serif" font-size="10.00" fill="#000000">odp/api/spec/schedule</text>
<text text-anchor="middle" x="426" y="-175.5" font-family="Helvetica,sans-Serif" font-size="10.00" fill="#000000">_types.h</text>
</a>
</g>
</g>
<!-- Node23&#45;&gt;Node25 -->
<g id="edge37" class="edge">
<title>Node23&#45;&gt;Node25</title>
<path fill="none" stroke="#191970" d="M346.6875,-235.3906C359.4093,-227.0673 378.2527,-214.7389 394.3806,-204.1872"/>
<polygon fill="#191970" stroke="#191970" points="396.5531,-206.9484 403.005,-198.5446 392.7206,-201.0907 396.5531,-206.9484"/>
</g>
<!-- Node25&#45;&gt;Node1 -->
<g id="edge38" class="edge">
<title>Node25&#45;&gt;Node1</title>
<path fill="none" stroke="#191970" d="M372.4673,-168.4272C305.0253,-148.2298 195.1107,-110.8765 172,-76 161.9197,-60.7877 172.3999,-41.2117 183.105,-27.3408"/>
<polygon fill="#191970" stroke="#191970" points="185.9009,-29.4531 189.6177,-19.5316 180.525,-24.9697 185.9009,-29.4531"/>
</g>
<!-- Node25&#45;&gt;Node13 -->
<g id="edge43" class="edge">
<title>Node25&#45;&gt;Node13</title>
<path fill="none" stroke="#191970" d="M444.1266,-168.473C455.3836,-158.6866 469.7909,-145.3058 481,-132 507.0496,-101.0777 497.1012,-78.0372 531,-56 566.0367,-33.2231 678.126,-20.3598 748.8173,-14.3225"/>
<polygon fill="#191970" stroke="#191970" points="749.2573,-17.798 758.9326,-13.4809 748.6768,-10.8221 749.2573,-17.798"/>
</g>
<!-- Node26 -->
<g id="node27" class="node">
<title>Node26</title>
<g id="a_node27"><a xlink:href="support_8h.html" target="_top" xlink:title="ODP support API &#45; platform specific header. ">
<polygon fill="#ffffff" stroke="#000000" points="380,-112.5 380,-131.5 472,-131.5 472,-112.5 380,-112.5"/>
<text text-anchor="middle" x="426" y="-119.5" font-family="Helvetica,sans-Serif" font-size="10.00" fill="#000000">odp/api/support.h</text>
</a>
</g>
</g>
<!-- Node25&#45;&gt;Node26 -->
<g id="edge39" class="edge">
<title>Node25&#45;&gt;Node26</title>
<path fill="none" stroke="#191970" d="M426,-168.2977C426,-160.3834 426,-150.6043 426,-142.0759"/>
<polygon fill="#191970" stroke="#191970" points="429.5001,-141.8469 426,-131.8469 422.5001,-141.847 429.5001,-141.8469"/>
</g>
<!-- Node27 -->
<g id="node28" class="node">
<title>Node27</title>
<g id="a_node28"><a xlink:href="spec_2support_8h.html" target="_top" xlink:title="ODP support API. ">
<polygon fill="#ffffff" stroke="#000000" points="368,-56.5 368,-75.5 484,-75.5 484,-56.5 368,-56.5"/>
<text text-anchor="middle" x="426" y="-63.5" font-family="Helvetica,sans-Serif" font-size="10.00" fill="#000000">odp/api/spec/support.h</text>
</a>
</g>
</g>
<!-- Node26&#45;&gt;Node27 -->
<g id="edge40" class="edge">
<title>Node26&#45;&gt;Node27</title>
<path fill="none" stroke="#191970" d="M426,-112.2455C426,-104.9382 426,-94.6944 426,-85.7046"/>
<polygon fill="#191970" stroke="#191970" points="429.5001,-85.6426 426,-75.6427 422.5001,-85.6427 429.5001,-85.6426"/>
</g>
<!-- Node27&#45;&gt;Node1 -->
<g id="edge41" class="edge">
<title>Node27&#45;&gt;Node1</title>
<path fill="none" stroke="#191970" d="M387.2352,-56.4369C348.6308,-46.9133 289.2616,-32.2672 247.5428,-21.9753"/>
<polygon fill="#191970" stroke="#191970" points="248.1521,-18.5208 237.6049,-19.5237 246.4755,-25.317 248.1521,-18.5208"/>
</g>
<!-- Node27&#45;&gt;Node13 -->
<g id="edge42" class="edge">
<title>Node27&#45;&gt;Node13</title>
<path fill="none" stroke="#191970" d="M484.1695,-57.4948C555.5742,-47.0544 676.0768,-29.4352 748.5213,-18.8428"/>
<polygon fill="#191970" stroke="#191970" points="749.4611,-22.2427 758.8495,-17.3327 748.4483,-15.3164 749.4611,-22.2427"/>
</g>
<!-- Node29 -->
<g id="node30" class="node">
<title>Node29</title>
<g id="a_node30"><a xlink:href="spec_2deprecated_8h.html" target="_top" xlink:title="Macro for deprecated API definitions. ">
<polygon fill="#ffffff" stroke="#000000" points="180.5,-56.5 180.5,-75.5 311.5,-75.5 311.5,-56.5 180.5,-56.5"/>
<text text-anchor="middle" x="246" y="-63.5" font-family="Helvetica,sans-Serif" font-size="10.00" fill="#000000">odp/api/spec/deprecated.h</text>
</a>
</g>
</g>
<!-- Node28&#45;&gt;Node29 -->
<g id="edge45" class="edge">
<title>Node28&#45;&gt;Node29</title>
<path fill="none" stroke="#191970" d="M198.6882,-235.3762C206.5899,-207.0883 229.8551,-123.7987 240.5317,-85.5767"/>
<polygon fill="#191970" stroke="#191970" points="243.9791,-86.2444 243.2985,-75.6714 237.2371,-84.3611 243.9791,-86.2444"/>
</g>
<!-- Node29&#45;&gt;Node1 -->
<g id="edge46" class="edge">
<title>Node29&#45;&gt;Node1</title>
<path fill="none" stroke="#191970" d="M237.8132,-56.2455C231.1411,-48.2958 221.5521,-36.8706 213.5747,-27.3656"/>
<polygon fill="#191970" stroke="#191970" points="216.2026,-25.0524 207.093,-19.6427 210.8408,-29.5525 216.2026,-25.0524"/>
</g>
<!-- Node29&#45;&gt;Node13 -->
<g id="edge47" class="edge">
<title>Node29&#45;&gt;Node13</title>
<path fill="none" stroke="#191970" d="M311.6851,-59.4665C421.8666,-48.5071 642.2889,-26.5823 748.7324,-15.9946"/>
<polygon fill="#191970" stroke="#191970" points="749.3741,-19.4482 758.9786,-14.9755 748.6812,-12.4825 749.3741,-19.4482"/>
</g>
</g>
</svg>
