<?xml version="1.0" encoding="UTF-8" standalone="no"?>
<!DOCTYPE svg PUBLIC "-//W3C//DTD SVG 1.1//EN"
 "http://www.w3.org/Graphics/SVG/1.1/DTD/svg11.dtd">
<!-- Generated by graphviz version 2.40.1 (20161225.0304)
 -->
<!-- Title: classification.h Pages: 1 -->
<svg width="1471pt" height="845pt"
 viewBox="0.00 0.00 1471.00 845.00" xmlns="http://www.w3.org/2000/svg" xmlns:xlink="http://www.w3.org/1999/xlink">
<g id="graph0" class="graph" transform="scale(1 1) rotate(0) translate(4 841)">
<title>classification.h</title>
<polygon fill="#ffffff" stroke="transparent" points="-4,4 -4,-841 1467,-841 1467,4 -4,4"/>
<!-- Node0 -->
<g id="node1" class="node">
<title>Node0</title>
<polygon fill="#bfbfbf" stroke="#000000" points="1020,-817.5 1020,-836.5 1102,-836.5 1102,-817.5 1020,-817.5"/>
<text text-anchor="middle" x="1061" y="-824.5" font-family="Helvetica,sans-Serif" font-size="10.00" fill="#000000">classification.h</text>
</g>
<!-- Node1 -->
<g id="node2" class="node">
<title>Node1</title>
<polygon fill="#ffffff" stroke="#bfbfbf" points="277.5,-.5 277.5,-19.5 384.5,-19.5 384.5,-.5 277.5,-.5"/>
<text text-anchor="middle" x="331" y="-7.5" font-family="Helvetica,sans-Serif" font-size="10.00" fill="#000000">odp/visibility_begin.h</text>
</g>
<!-- Node0&#45;&gt;Node1 -->
<g id="edge1" class="edge">
<title>Node0&#45;&gt;Node1</title>
<path fill="none" stroke="#191970" d="M1019.8336,-825.8868C875.0054,-821.7861 389.4631,-806.4271 236,-781 128.5515,-763.197 0,-823.9134 0,-715 0,-715 0,-715 0,-133 0,-93.3621 12.301,-78.4039 45,-56 80.1658,-31.9059 194.1754,-19.5505 267.185,-13.9526"/>
<polygon fill="#191970" stroke="#191970" points="267.4897,-17.4397 277.2024,-13.207 266.9701,-10.459 267.4897,-17.4397"/>
</g>
<!-- Node2 -->
<g id="node3" class="node">
<title>Node2</title>
<g id="a_node3"><a xlink:href="packet__io_8h.html" target="_top" xlink:title="ODP Packet IO. ">
<polygon fill="#ffffff" stroke="#000000" points="1010.5,-761.5 1010.5,-780.5 1111.5,-780.5 1111.5,-761.5 1010.5,-761.5"/>
<text text-anchor="middle" x="1061" y="-768.5" font-family="Helvetica,sans-Serif" font-size="10.00" fill="#000000">odp/api/packet_io.h</text>
</a>
</g>
</g>
<!-- Node0&#45;&gt;Node2 -->
<g id="edge2" class="edge">
<title>Node0&#45;&gt;Node2</title>
<path fill="none" stroke="#191970" d="M1061,-817.2455C1061,-809.9382 1061,-799.6944 1061,-790.7046"/>
<polygon fill="#191970" stroke="#191970" points="1064.5001,-790.6426 1061,-780.6427 1057.5001,-790.6427 1064.5001,-790.6426"/>
</g>
<!-- Node10 -->
<g id="node11" class="node">
<title>Node10</title>
<polygon fill="#ffffff" stroke="#bfbfbf" points="997,-.5 997,-19.5 1097,-19.5 1097,-.5 997,-.5"/>
<text text-anchor="middle" x="1047" y="-7.5" font-family="Helvetica,sans-Serif" font-size="10.00" fill="#000000">odp/visibility_end.h</text>
</g>
<!-- Node0&#45;&gt;Node10 -->
<g id="edge81" class="edge">
<title>Node0&#45;&gt;Node10</title>
<path fill="none" stroke="#191970" d="M1102.1319,-824.3064C1204.5881,-816.4746 1463,-789.3515 1463,-715 1463,-715 1463,-715 1463,-133 1463,-80.6951 1421.6195,-77.6376 1374,-56 1327.638,-34.9337 1188.1486,-20.9532 1107.1104,-14.369"/>
<polygon fill="#191970" stroke="#191970" points="1107.292,-10.8724 1097.045,-13.5648 1106.7345,-17.8502 1107.292,-10.8724"/>
</g>
<!-- Node36 -->
<g id="node37" class="node">
<title>Node36</title>
<g id="a_node37"><a xlink:href="support_8h.html" target="_top" xlink:title="ODP support API &#45; platform specific header. ">
<polygon fill="#ffffff" stroke="#000000" points="428,-123.5 428,-142.5 520,-142.5 520,-123.5 428,-123.5"/>
<text text-anchor="middle" x="474" y="-130.5" font-family="Helvetica,sans-Serif" font-size="10.00" fill="#000000">odp/api/support.h</text>
</a>
</g>
</g>
<!-- Node0&#45;&gt;Node36 -->
<g id="edge75" class="edge">
<title>Node0&#45;&gt;Node36</title>
<path fill="none" stroke="#191970" d="M1019.9537,-824.6642C830.0633,-813.5931 46,-764.8614 46,-715 46,-715 46,-715 46,-659 46,-401.8632 171.6196,-343.8038 369,-179 386.7234,-164.2017 409.9475,-153.3688 430.0466,-145.9464"/>
<polygon fill="#191970" stroke="#191970" points="431.3544,-149.1966 439.6246,-142.5742 429.0297,-142.5939 431.3544,-149.1966"/>
</g>
<!-- Node38 -->
<g id="node39" class="node">
<title>Node38</title>
<g id="a_node39"><a xlink:href="threshold_8h.html" target="_top" xlink:title="ODP threshold API &#45; platform specific header. ">
<polygon fill="#ffffff" stroke="#000000" points="1225.5,-761.5 1225.5,-780.5 1324.5,-780.5 1324.5,-761.5 1225.5,-761.5"/>
<text text-anchor="middle" x="1275" y="-768.5" font-family="Helvetica,sans-Serif" font-size="10.00" fill="#000000">odp/api/threshold.h</text>
</a>
</g>
</g>
<!-- Node0&#45;&gt;Node38 -->
<g id="edge76" class="edge">
<title>Node0&#45;&gt;Node38</title>
<path fill="none" stroke="#191970" d="M1097.7879,-817.3733C1134.0661,-807.8799 1189.6236,-793.3415 1228.8446,-783.0781"/>
<polygon fill="#191970" stroke="#191970" points="1229.904,-786.4188 1238.6921,-780.5011 1228.1318,-779.6468 1229.904,-786.4188"/>
</g>
<!-- Node3 -->
<g id="node4" class="node">
<title>Node3</title>
<g id="a_node4"><a xlink:href="std__types_8h.html" target="_top" xlink:title="Standard C language types and definitions for ODP. ">
<polygon fill="#ffffff" stroke="#000000" points="1013,-246.5 1013,-265.5 1115,-265.5 1115,-246.5 1013,-246.5"/>
<text text-anchor="middle" x="1064" y="-253.5" font-family="Helvetica,sans-Serif" font-size="10.00" fill="#000000">odp/api/std_types.h</text>
</a>
</g>
</g>
<!-- Node2&#45;&gt;Node3 -->
<g id="edge3" class="edge">
<title>Node2&#45;&gt;Node3</title>
<path fill="none" stroke="#191970" d="M1111.8257,-762.0375C1194.5048,-745.9971 1349,-709.2948 1349,-659 1349,-659 1349,-659 1349,-435 1349,-404.4754 1350.2349,-391.8539 1330,-369 1313.7923,-350.6946 1168.0638,-294.7575 1099.4401,-269.1047"/>
<polygon fill="#191970" stroke="#191970" points="1100.492,-265.7616 1089.8994,-265.5476 1098.0466,-272.3205 1100.492,-265.7616"/>
</g>
<!-- Node11 -->
<g id="node12" class="node">
<title>Node11</title>
<polygon fill="#ffffff" stroke="#bfbfbf" points="762.5,-369.5 762.5,-388.5 855.5,-388.5 855.5,-369.5 762.5,-369.5"/>
<text text-anchor="middle" x="809" y="-376.5" font-family="Helvetica,sans-Serif" font-size="10.00" fill="#000000">odp/api/abi/pool.h</text>
</g>
<!-- Node2&#45;&gt;Node11 -->
<g id="edge14" class="edge">
<title>Node2&#45;&gt;Node11</title>
<path fill="none" stroke="#191970" d="M1054.7708,-761.3101C1021.5446,-709.625 865.0412,-466.1752 820.7217,-397.2338"/>
<polygon fill="#191970" stroke="#191970" points="823.5888,-395.2213 815.2371,-388.7021 817.7006,-399.0066 823.5888,-395.2213"/>
</g>
<!-- Node12 -->
<g id="node13" class="node">
<title>Node12</title>
<polygon fill="#ffffff" stroke="#bfbfbf" points="1089,-705.5 1089,-724.5 1221,-724.5 1221,-705.5 1089,-705.5"/>
<text text-anchor="middle" x="1155" y="-712.5" font-family="Helvetica,sans-Serif" font-size="10.00" fill="#000000">odp/api/abi/classification.h</text>
</g>
<!-- Node2&#45;&gt;Node12 -->
<g id="edge15" class="edge">
<title>Node2&#45;&gt;Node12</title>
<path fill="none" stroke="#191970" d="M1077.3736,-761.2455C1091.9308,-752.5731 1113.431,-739.7645 1130.1152,-729.825"/>
<polygon fill="#191970" stroke="#191970" points="1132.0144,-732.7676 1138.8141,-724.6427 1128.4317,-726.7539 1132.0144,-732.7676"/>
</g>
<!-- Node13 -->
<g id="node14" class="node">
<title>Node13</title>
<polygon fill="#ffffff" stroke="#bfbfbf" points="1217,-369.5 1217,-388.5 1321,-388.5 1321,-369.5 1217,-369.5"/>
<text text-anchor="middle" x="1269" y="-376.5" font-family="Helvetica,sans-Serif" font-size="10.00" fill="#000000">odp/api/abi/packet.h</text>
</g>
<!-- Node2&#45;&gt;Node13 -->
<g id="edge16" class="edge">
<title>Node2&#45;&gt;Node13</title>
<path fill="none" stroke="#191970" d="M1111.5842,-762.6514C1154.9102,-754.5519 1212.9316,-741.1384 1230,-725 1252.4673,-703.7569 1252,-689.92 1252,-659 1252,-659 1252,-659 1252,-491 1252,-458.192 1259.2185,-420.584 1264.248,-398.3624"/>
<polygon fill="#191970" stroke="#191970" points="1267.6816,-399.0502 1266.5643,-388.5144 1260.8676,-397.4474 1267.6816,-399.0502"/>
</g>
<!-- Node14 -->
<g id="node15" class="node">
<title>Node14</title>
<polygon fill="#ffffff" stroke="#bfbfbf" points="1081.5,-369.5 1081.5,-388.5 1198.5,-388.5 1198.5,-369.5 1081.5,-369.5"/>
<text text-anchor="middle" x="1140" y="-376.5" font-family="Helvetica,sans-Serif" font-size="10.00" fill="#000000">odp/api/abi/packet_io.h</text>
</g>
<!-- Node2&#45;&gt;Node14 -->
<g id="edge17" class="edge">
<title>Node2&#45;&gt;Node14</title>
<path fill="none" stroke="#191970" d="M1061,-761.4116C1061,-742.0538 1061,-696.9167 1061,-659 1061,-659 1061,-659 1061,-491 1061,-450.9466 1095.1555,-415.143 1118.5498,-395.3174"/>
<polygon fill="#191970" stroke="#191970" points="1121.058,-397.7885 1126.5987,-388.7579 1116.6358,-392.3622 1121.058,-397.7885"/>
</g>
<!-- Node15 -->
<g id="node16" class="node">
<title>Node15</title>
<polygon fill="#ffffff" stroke="#bfbfbf" points="176.5,-593.5 176.5,-612.5 277.5,-612.5 277.5,-593.5 176.5,-593.5"/>
<text text-anchor="middle" x="227" y="-600.5" font-family="Helvetica,sans-Serif" font-size="10.00" fill="#000000">odp/api/abi/queue.h</text>
</g>
<!-- Node2&#45;&gt;Node15 -->
<g id="edge18" class="edge">
<title>Node2&#45;&gt;Node15</title>
<path fill="none" stroke="#191970" d="M1010.3642,-768.6114C860.0534,-760.8515 419.0129,-733.0569 292,-669 269.9134,-657.861 250.9026,-636.2815 239.2447,-620.8286"/>
<polygon fill="#191970" stroke="#191970" points="241.9612,-618.6122 233.2628,-612.5633 236.2905,-622.7163 241.9612,-618.6122"/>
</g>
<!-- Node16 -->
<g id="node17" class="node">
<title>Node16</title>
<g id="a_node17"><a xlink:href="spec_2packet__io_8h.html" target="_top" xlink:title="ODP Packet IO. ">
<polygon fill="#ffffff" stroke="#000000" points="694.5,-705.5 694.5,-724.5 819.5,-724.5 819.5,-705.5 694.5,-705.5"/>
<text text-anchor="middle" x="757" y="-712.5" font-family="Helvetica,sans-Serif" font-size="10.00" fill="#000000">odp/api/spec/packet_io.h</text>
</a>
</g>
</g>
<!-- Node2&#45;&gt;Node16 -->
<g id="edge19" class="edge">
<title>Node2&#45;&gt;Node16</title>
<path fill="none" stroke="#191970" d="M1010.4593,-761.6899C957.7402,-751.9785 875.0533,-736.7467 818.5595,-726.3399"/>
<polygon fill="#191970" stroke="#191970" points="819.1477,-722.8894 808.6791,-724.5198 817.8795,-729.7736 819.1477,-722.8894"/>
</g>
<!-- Node4 -->
<g id="node5" class="node">
<title>Node4</title>
<polygon fill="#ffffff" stroke="#bfbfbf" points="1005,-185 1005,-204 1123,-204 1123,-185 1005,-185"/>
<text text-anchor="middle" x="1064" y="-192" font-family="Helvetica,sans-Serif" font-size="10.00" fill="#000000">odp/api/abi/std_types.h</text>
</g>
<!-- Node3&#45;&gt;Node4 -->
<g id="edge4" class="edge">
<title>Node3&#45;&gt;Node4</title>
<path fill="none" stroke="#191970" d="M1064,-246.3906C1064,-237.8657 1064,-225.1392 1064,-214.4235"/>
<polygon fill="#191970" stroke="#191970" points="1067.5001,-214.2448 1064,-204.2449 1060.5001,-214.2449 1067.5001,-214.2448"/>
</g>
<!-- Node5 -->
<g id="node6" class="node">
<title>Node5</title>
<g id="a_node6"><a xlink:href="spec_2std__types_8h.html" target="_top" xlink:title="Standard C language types and definitions for ODP. ">
<polygon fill="#ffffff" stroke="#000000" points="1179,-185 1179,-204 1305,-204 1305,-185 1179,-185"/>
<text text-anchor="middle" x="1242" y="-192" font-family="Helvetica,sans-Serif" font-size="10.00" fill="#000000">odp/api/spec/std_types.h</text>
</a>
</g>
</g>
<!-- Node3&#45;&gt;Node5 -->
<g id="edge5" class="edge">
<title>Node3&#45;&gt;Node5</title>
<path fill="none" stroke="#191970" d="M1091.8125,-246.3906C1122.2483,-235.8749 1171.1877,-218.966 1204.8826,-207.3243"/>
<polygon fill="#191970" stroke="#191970" points="1206.074,-210.6157 1214.3828,-204.0419 1203.788,-203.9995 1206.074,-210.6157"/>
</g>
<!-- Node5&#45;&gt;Node1 -->
<g id="edge6" class="edge">
<title>Node5&#45;&gt;Node1</title>
<path fill="none" stroke="#191970" d="M1210.1605,-184.9411C1175.8128,-174.6221 1119.5177,-157.6891 1071,-143 989.1861,-118.2302 967.5489,-115.6171 887,-87 852.6253,-74.7875 846.4217,-64.7215 811,-56 733.75,-36.9795 506.6189,-20.846 394.7465,-13.7972"/>
<polygon fill="#191970" stroke="#191970" points="394.813,-10.2946 384.6141,-13.1638 394.3762,-17.281 394.813,-10.2946"/>
</g>
<!-- Node6 -->
<g id="node7" class="node">
<title>Node6</title>
<polygon fill="#ffffff" stroke="#bfbfbf" points="1216.5,-123.5 1216.5,-142.5 1265.5,-142.5 1265.5,-123.5 1216.5,-123.5"/>
<text text-anchor="middle" x="1241" y="-130.5" font-family="Helvetica,sans-Serif" font-size="10.00" fill="#000000">stdint.h</text>
</g>
<!-- Node5&#45;&gt;Node6 -->
<g id="edge7" class="edge">
<title>Node5&#45;&gt;Node6</title>
<path fill="none" stroke="#191970" d="M1241.8438,-184.8906C1241.7051,-176.3657 1241.4982,-163.6392 1241.324,-152.9235"/>
<polygon fill="#191970" stroke="#191970" points="1244.8207,-152.6866 1241.1585,-142.7449 1237.8216,-152.8005 1244.8207,-152.6866"/>
</g>
<!-- Node7 -->
<g id="node8" class="node">
<title>Node7</title>
<g id="a_node8"><a xlink:href="align_8h.html" target="_top" xlink:title="ODP alignments. ">
<polygon fill="#ffffff" stroke="#000000" points="1080,-123.5 1080,-142.5 1160,-142.5 1160,-123.5 1080,-123.5"/>
<text text-anchor="middle" x="1120" y="-130.5" font-family="Helvetica,sans-Serif" font-size="10.00" fill="#000000">odp/api/align.h</text>
</a>
</g>
</g>
<!-- Node5&#45;&gt;Node7 -->
<g id="edge8" class="edge">
<title>Node5&#45;&gt;Node7</title>
<path fill="none" stroke="#191970" d="M1222.9375,-184.8906C1202.8828,-174.7811 1171.1066,-158.7628 1148.1616,-147.1962"/>
<polygon fill="#191970" stroke="#191970" points="1149.4337,-143.918 1138.9286,-142.5419 1146.2827,-150.1687 1149.4337,-143.918"/>
</g>
<!-- Node5&#45;&gt;Node10 -->
<g id="edge13" class="edge">
<title>Node5&#45;&gt;Node10</title>
<path fill="none" stroke="#191970" d="M1250.732,-184.7158C1258.8188,-174.9452 1270.2838,-159.1016 1275,-143 1281.5416,-120.6662 1284.6472,-72.6689 1270,-56 1248.9538,-32.0489 1165.885,-20.0174 1107.3155,-14.3939"/>
<polygon fill="#191970" stroke="#191970" points="1107.3281,-10.8804 1097.0494,-13.4491 1106.6865,-17.8509 1107.3281,-10.8804"/>
</g>
<!-- Node8 -->
<g id="node9" class="node">
<title>Node8</title>
<polygon fill="#ffffff" stroke="#bfbfbf" points="1132.5,-62 1132.5,-81 1227.5,-81 1227.5,-62 1132.5,-62"/>
<text text-anchor="middle" x="1180" y="-69" font-family="Helvetica,sans-Serif" font-size="10.00" fill="#000000">odp/api/abi/align.h</text>
</g>
<!-- Node7&#45;&gt;Node8 -->
<g id="edge9" class="edge">
<title>Node7&#45;&gt;Node8</title>
<path fill="none" stroke="#191970" d="M1129.375,-123.3906C1138.4799,-114.0581 1152.4974,-99.6902 1163.4757,-88.4374"/>
<polygon fill="#191970" stroke="#191970" points="1166.0148,-90.8468 1170.4928,-81.2449 1161.0043,-85.9586 1166.0148,-90.8468"/>
</g>
<!-- Node9 -->
<g id="node10" class="node">
<title>Node9</title>
<g id="a_node10"><a xlink:href="spec_2align_8h.html" target="_top" xlink:title="ODP alignments. ">
<polygon fill="#ffffff" stroke="#000000" points="896,-62 896,-81 1000,-81 1000,-62 896,-62"/>
<text text-anchor="middle" x="948" y="-69" font-family="Helvetica,sans-Serif" font-size="10.00" fill="#000000">odp/api/spec/align.h</text>
</a>
</g>
</g>
<!-- Node7&#45;&gt;Node9 -->
<g id="edge10" class="edge">
<title>Node7&#45;&gt;Node9</title>
<path fill="none" stroke="#191970" d="M1093.125,-123.3906C1063.8414,-112.92 1016.831,-96.1111 984.2863,-84.4745"/>
<polygon fill="#191970" stroke="#191970" points="985.2809,-81.1131 974.6863,-81.0419 982.9241,-87.7045 985.2809,-81.1131"/>
</g>
<!-- Node9&#45;&gt;Node1 -->
<g id="edge11" class="edge">
<title>Node9&#45;&gt;Node1</title>
<path fill="none" stroke="#191970" d="M911.5342,-61.9239C901.9791,-59.6935 891.649,-57.5273 882,-56 706.9215,-28.2882 497.7311,-16.6206 394.7341,-12.2698"/>
<polygon fill="#191970" stroke="#191970" points="394.6397,-8.763 384.5037,-11.847 394.3506,-15.757 394.6397,-8.763"/>
</g>
<!-- Node9&#45;&gt;Node10 -->
<g id="edge12" class="edge">
<title>Node9&#45;&gt;Node10</title>
<path fill="none" stroke="#191970" d="M963.4688,-61.8906C979.4521,-51.9616 1004.6103,-36.333 1023.1433,-24.8201"/>
<polygon fill="#191970" stroke="#191970" points="1024.9924,-27.7918 1031.6399,-19.5419 1021.2985,-21.8457 1024.9924,-27.7918"/>
</g>
<!-- Node16&#45;&gt;Node1 -->
<g id="edge20" class="edge">
<title>Node16&#45;&gt;Node1</title>
<path fill="none" stroke="#191970" d="M694.4025,-712.6557C535.0178,-706.4131 124.8584,-688.5253 103,-669 -15.4839,-563.1628 38,-476.3709 38,-317.5 38,-317.5 38,-317.5 38,-133 38,-94.2287 47.6954,-78.8742 79,-56 108.3129,-34.5811 202.7336,-21.7726 267.2937,-15.3035"/>
<polygon fill="#191970" stroke="#191970" points="267.7713,-18.7736 277.3843,-14.3194 267.0917,-11.8067 267.7713,-18.7736"/>
</g>
<!-- Node16&#45;&gt;Node10 -->
<g id="edge74" class="edge">
<title>Node16&#45;&gt;Node10</title>
<path fill="none" stroke="#191970" d="M806.3909,-705.4552C960.9299,-674.1959 1425,-569.1576 1425,-435 1425,-435 1425,-435 1425,-133 1425,-74.771 1372.6803,-78.5619 1319,-56 1281.7813,-40.357 1175.6131,-25.367 1107.4547,-16.9546"/>
<polygon fill="#191970" stroke="#191970" points="1107.6235,-13.4493 1097.273,-15.7119 1106.7753,-20.3977 1107.6235,-13.4493"/>
</g>
<!-- Node17 -->
<g id="node18" class="node">
<title>Node17</title>
<g id="a_node18"><a xlink:href="deprecated_8h.html" target="_top" xlink:title="Control deprecated API definitions. ">
<polygon fill="#ffffff" stroke="#000000" points="500.5,-246.5 500.5,-265.5 607.5,-265.5 607.5,-246.5 500.5,-246.5"/>
<text text-anchor="middle" x="554" y="-253.5" font-family="Helvetica,sans-Serif" font-size="10.00" fill="#000000">odp/api/deprecated.h</text>
</a>
</g>
</g>
<!-- Node16&#45;&gt;Node17 -->
<g id="edge21" class="edge">
<title>Node16&#45;&gt;Node17</title>
<path fill="none" stroke="#191970" d="M698.3307,-705.4834C598.0101,-688.4297 398.5588,-650.8912 339,-613 312.0608,-595.8613 304.6014,-587.1175 294,-557 246.6171,-422.3904 445.1739,-308.9562 523.4696,-270.232"/>
<polygon fill="#191970" stroke="#191970" points="525.3673,-273.2009 532.8271,-265.6774 522.3038,-266.9069 525.3673,-273.2009"/>
</g>
<!-- Node19 -->
<g id="node20" class="node">
<title>Node19</title>
<g id="a_node20"><a xlink:href="packet__io__stats_8h.html" target="_top" xlink:title="ODP packet IO stats. ">
<polygon fill="#ffffff" stroke="#000000" points="112,-649.5 112,-668.5 240,-668.5 240,-649.5 112,-649.5"/>
<text text-anchor="middle" x="176" y="-656.5" font-family="Helvetica,sans-Serif" font-size="10.00" fill="#000000">odp/api/packet_io_stats.h</text>
</a>
</g>
</g>
<!-- Node16&#45;&gt;Node19 -->
<g id="edge25" class="edge">
<title>Node16&#45;&gt;Node19</title>
<path fill="none" stroke="#191970" d="M694.2708,-708.9538C586.3206,-698.549 365.9163,-677.3052 250.401,-666.1712"/>
<polygon fill="#191970" stroke="#191970" points="250.5242,-662.6669 240.2345,-665.1913 249.8525,-669.6346 250.5242,-662.6669"/>
</g>
<!-- Node21 -->
<g id="node22" class="node">
<title>Node21</title>
<g id="a_node22"><a xlink:href="queue_8h.html" target="_top" xlink:title="ODP queue. ">
<polygon fill="#ffffff" stroke="#000000" points="638,-649.5 638,-668.5 724,-668.5 724,-649.5 638,-649.5"/>
<text text-anchor="middle" x="681" y="-656.5" font-family="Helvetica,sans-Serif" font-size="10.00" fill="#000000">odp/api/queue.h</text>
</a>
</g>
</g>
<!-- Node16&#45;&gt;Node21 -->
<g id="edge29" class="edge">
<title>Node16&#45;&gt;Node21</title>
<path fill="none" stroke="#191970" d="M743.7618,-705.2455C732.319,-696.814 715.5704,-684.4729 702.2525,-674.6598"/>
<polygon fill="#191970" stroke="#191970" points="704.2133,-671.757 694.0865,-668.6427 700.0609,-677.3924 704.2133,-671.757"/>
</g>
<!-- Node27 -->
<g id="node28" class="node">
<title>Node27</title>
<g id="a_node28"><a xlink:href="packet_8h.html" target="_top" xlink:title="ODP packet descriptor. ">
<polygon fill="#ffffff" stroke="#000000" points="887.5,-425.5 887.5,-444.5 976.5,-444.5 976.5,-425.5 887.5,-425.5"/>
<text text-anchor="middle" x="932" y="-432.5" font-family="Helvetica,sans-Serif" font-size="10.00" fill="#000000">odp/api/packet.h</text>
</a>
</g>
</g>
<!-- Node16&#45;&gt;Node27 -->
<g id="edge73" class="edge">
<title>Node16&#45;&gt;Node27</title>
<path fill="none" stroke="#191970" d="M808.485,-705.4417C861.0551,-692.3565 935,-663.2435 935,-603 935,-603 935,-603 935,-547 935,-514.7 933.7378,-477.1791 932.8508,-454.8005"/>
<polygon fill="#191970" stroke="#191970" points="936.3387,-454.4334 932.4298,-444.5861 929.3447,-454.7217 936.3387,-454.4334"/>
</g>
<!-- Node29 -->
<g id="node30" class="node">
<title>Node29</title>
<g id="a_node30"><a xlink:href="time_8h.html" target="_top" xlink:title="ODP time. ">
<polygon fill="#ffffff" stroke="#000000" points="863,-308 863,-327 941,-327 941,-308 863,-308"/>
<text text-anchor="middle" x="902" y="-315" font-family="Helvetica,sans-Serif" font-size="10.00" fill="#000000">odp/api/time.h</text>
</a>
</g>
</g>
<!-- Node16&#45;&gt;Node29 -->
<g id="edge72" class="edge">
<title>Node16&#45;&gt;Node29</title>
<path fill="none" stroke="#191970" d="M753.4576,-705.1469C748.8065,-692.2355 740.3664,-668.8948 733,-649 687.2192,-525.3569 551.062,-470.6755 635,-369 648.7782,-352.3103 779.8147,-333.106 853.0536,-323.553"/>
<polygon fill="#191970" stroke="#191970" points="853.5168,-327.0224 862.9862,-322.2704 852.6202,-320.08 853.5168,-327.0224"/>
</g>
<!-- Node18 -->
<g id="node19" class="node">
<title>Node18</title>
<g id="a_node19"><a xlink:href="spec_2deprecated_8h.html" target="_top" xlink:title="Macro for deprecated API definitions. ">
<polygon fill="#ffffff" stroke="#000000" points="550.5,-62 550.5,-81 681.5,-81 681.5,-62 550.5,-62"/>
<text text-anchor="middle" x="616" y="-69" font-family="Helvetica,sans-Serif" font-size="10.00" fill="#000000">odp/api/spec/deprecated.h</text>
</a>
</g>
</g>
<!-- Node17&#45;&gt;Node18 -->
<g id="edge22" class="edge">
<title>Node17&#45;&gt;Node18</title>
<path fill="none" stroke="#191970" d="M580.601,-246.397C596.5873,-239.0839 615.5998,-227.291 625,-210 645.7164,-171.8937 632.8501,-118.9003 623.3854,-90.7952"/>
<polygon fill="#191970" stroke="#191970" points="626.6625,-89.5644 620.0017,-81.3252 620.0706,-91.9198 626.6625,-89.5644"/>
</g>
<!-- Node18&#45;&gt;Node1 -->
<g id="edge23" class="edge">
<title>Node18&#45;&gt;Node1</title>
<path fill="none" stroke="#191970" d="M571.7815,-61.9581C521.5473,-51.1181 439.5427,-33.4224 385.4228,-21.7439"/>
<polygon fill="#191970" stroke="#191970" points="385.8356,-18.2524 375.3223,-19.5643 384.359,-25.095 385.8356,-18.2524"/>
</g>
<!-- Node18&#45;&gt;Node10 -->
<g id="edge24" class="edge">
<title>Node18&#45;&gt;Node10</title>
<path fill="none" stroke="#191970" d="M659.5205,-61.9276C669.814,-59.8241 680.7719,-57.7152 691,-56 794.394,-38.6613 915.6306,-24.2463 986.6115,-16.3998"/>
<polygon fill="#191970" stroke="#191970" points="987.1534,-19.8614 996.7113,-15.2902 986.3889,-12.9033 987.1534,-19.8614"/>
</g>
<!-- Node20 -->
<g id="node21" class="node">
<title>Node20</title>
<g id="a_node21"><a xlink:href="spec_2packet__io__stats_8h.html" target="_top" xlink:title="ODP Packet IO. ">
<polygon fill="#ffffff" stroke="#000000" points="142,-56.5 142,-86.5 246,-86.5 246,-56.5 142,-56.5"/>
<text text-anchor="start" x="150" y="-74.5" font-family="Helvetica,sans-Serif" font-size="10.00" fill="#000000">odp/api/spec/packet</text>
<text text-anchor="middle" x="194" y="-63.5" font-family="Helvetica,sans-Serif" font-size="10.00" fill="#000000">_io_stats.h</text>
</a>
</g>
</g>
<!-- Node19&#45;&gt;Node20 -->
<g id="edge26" class="edge">
<title>Node19&#45;&gt;Node20</title>
<path fill="none" stroke="#191970" d="M167.5625,-649.2711C152.375,-630.723 122,-588.4461 122,-547 122,-547 122,-547 122,-435 122,-305.3927 166.5897,-154.6602 185.5887,-96.3176"/>
<polygon fill="#191970" stroke="#191970" points="189.0102,-97.1181 188.8219,-86.5249 182.3631,-94.9234 189.0102,-97.1181"/>
</g>
<!-- Node20&#45;&gt;Node1 -->
<g id="edge27" class="edge">
<title>Node20&#45;&gt;Node1</title>
<path fill="none" stroke="#191970" d="M227.514,-56.4554C249.7712,-46.464 278.7647,-33.4487 300.3985,-23.7372"/>
<polygon fill="#191970" stroke="#191970" points="302.0803,-26.8187 309.7699,-19.5303 299.2135,-20.4327 302.0803,-26.8187"/>
</g>
<!-- Node20&#45;&gt;Node10 -->
<g id="edge28" class="edge">
<title>Node20&#45;&gt;Node10</title>
<path fill="none" stroke="#191970" d="M246.0831,-67.6969C289.2068,-64.5512 352.0842,-59.9716 407,-56 620.0636,-40.5907 873.039,-22.4556 986.5791,-14.3247"/>
<polygon fill="#191970" stroke="#191970" points="987.0752,-17.7983 996.7997,-13.5929 986.5752,-10.8161 987.0752,-17.7983"/>
</g>
<!-- Node21&#45;&gt;Node3 -->
<g id="edge30" class="edge">
<title>Node21&#45;&gt;Node3</title>
<path fill="none" stroke="#191970" d="M700.8987,-649.3353C753.4079,-623.0109 897.724,-545.2478 986,-445 1031.0706,-393.8171 1052.4234,-313.0075 1060.2731,-275.8681"/>
<polygon fill="#191970" stroke="#191970" points="1063.7524,-276.3183 1062.287,-265.8253 1056.889,-274.9419 1063.7524,-276.3183"/>
</g>
<!-- Node21&#45;&gt;Node11 -->
<g id="edge34" class="edge">
<title>Node21&#45;&gt;Node11</title>
<path fill="none" stroke="#191970" d="M693.5499,-649.4082C715.136,-631.7155 757,-591.6472 757,-547 757,-547 757,-547 757,-491 757,-454.9842 779.3945,-418.0048 794.7908,-396.8372"/>
<polygon fill="#191970" stroke="#191970" points="797.6405,-398.8714 800.875,-388.7823 792.0549,-394.6522 797.6405,-398.8714"/>
</g>
<!-- Node21&#45;&gt;Node15 -->
<g id="edge32" class="edge">
<title>Node21&#45;&gt;Node15</title>
<path fill="none" stroke="#191970" d="M637.8795,-653.6812C556.7028,-643.6682 380.9985,-621.9954 287.841,-610.5046"/>
<polygon fill="#191970" stroke="#191970" points="288.075,-607.007 277.7217,-609.2564 287.218,-613.9544 288.075,-607.007"/>
</g>
<!-- Node22 -->
<g id="node23" class="node">
<title>Node22</title>
<polygon fill="#ffffff" stroke="#bfbfbf" points="488.5,-369.5 488.5,-388.5 587.5,-388.5 587.5,-369.5 488.5,-369.5"/>
<text text-anchor="middle" x="538" y="-376.5" font-family="Helvetica,sans-Serif" font-size="10.00" fill="#000000">odp/api/abi/event.h</text>
</g>
<!-- Node21&#45;&gt;Node22 -->
<g id="edge31" class="edge">
<title>Node21&#45;&gt;Node22</title>
<path fill="none" stroke="#191970" d="M668.4501,-649.4082C646.864,-631.7155 605,-591.6472 605,-547 605,-547 605,-547 605,-491 605,-452.7946 575.9331,-416.3286 556.0898,-395.8854"/>
<polygon fill="#191970" stroke="#191970" points="558.3309,-393.1788 548.7647,-388.6248 553.403,-398.1503 558.3309,-393.1788"/>
</g>
<!-- Node23 -->
<g id="node24" class="node">
<title>Node23</title>
<polygon fill="#ffffff" stroke="#bfbfbf" points="644,-369.5 644,-388.5 744,-388.5 744,-369.5 644,-369.5"/>
<text text-anchor="middle" x="694" y="-376.5" font-family="Helvetica,sans-Serif" font-size="10.00" fill="#000000">odp/api/abi/buffer.h</text>
</g>
<!-- Node21&#45;&gt;Node23 -->
<g id="edge33" class="edge">
<title>Node21&#45;&gt;Node23</title>
<path fill="none" stroke="#191970" d="M681,-649.4116C681,-630.0538 681,-584.9167 681,-547 681,-547 681,-547 681,-491 681,-458.3457 686.52,-420.6911 690.3661,-398.4184"/>
<polygon fill="#191970" stroke="#191970" points="693.8165,-399.0059 692.1374,-388.545 686.9265,-397.7698 693.8165,-399.0059"/>
</g>
<!-- Node24 -->
<g id="node25" class="node">
<title>Node24</title>
<g id="a_node25"><a xlink:href="spec_2queue_8h.html" target="_top" xlink:title="ODP queue. ">
<polygon fill="#ffffff" stroke="#000000" points="348,-593.5 348,-612.5 458,-612.5 458,-593.5 348,-593.5"/>
<text text-anchor="middle" x="403" y="-600.5" font-family="Helvetica,sans-Serif" font-size="10.00" fill="#000000">odp/api/spec/queue.h</text>
</a>
</g>
</g>
<!-- Node21&#45;&gt;Node24 -->
<g id="edge35" class="edge">
<title>Node21&#45;&gt;Node24</title>
<path fill="none" stroke="#191970" d="M637.8675,-650.3114C590.1567,-640.7006 513.0653,-625.1714 460.3092,-614.5443"/>
<polygon fill="#191970" stroke="#191970" points="460.9209,-611.0973 450.4266,-612.5536 459.5385,-617.9594 460.9209,-611.0973"/>
</g>
<!-- Node24&#45;&gt;Node1 -->
<g id="edge36" class="edge">
<title>Node24&#45;&gt;Node1</title>
<path fill="none" stroke="#191970" d="M386.3345,-593.4389C319.6982,-553.8331 76,-395.2648 76,-194.5 76,-194.5 76,-194.5 76,-133 76,-95.59 80.9134,-79.526 110,-56 133.8224,-36.7318 210.9907,-23.8403 267.4516,-16.7241"/>
<polygon fill="#191970" stroke="#191970" points="267.8828,-20.1976 277.3816,-15.5047 267.0295,-13.2498 267.8828,-20.1976"/>
</g>
<!-- Node24&#45;&gt;Node10 -->
<g id="edge71" class="edge">
<title>Node24&#45;&gt;Node10</title>
<path fill="none" stroke="#191970" d="M402.6233,-593.0754C401.8311,-557.7589 403.8863,-436.6921 465,-369 559.435,-264.3998 948.2876,-199.6187 1033,-87 1045.3434,-70.5904 1047.9923,-46.7212 1048.091,-29.9182"/>
<polygon fill="#191970" stroke="#191970" points="1051.5821,-29.5047 1047.8398,-19.5929 1044.5842,-29.6751 1051.5821,-29.5047"/>
</g>
<!-- Node25 -->
<g id="node26" class="node">
<title>Node25</title>
<g id="a_node26"><a xlink:href="event_8h.html" target="_top" xlink:title="ODP event. ">
<polygon fill="#ffffff" stroke="#000000" points="443.5,-537.5 443.5,-556.5 526.5,-556.5 526.5,-537.5 443.5,-537.5"/>
<text text-anchor="middle" x="485" y="-544.5" font-family="Helvetica,sans-Serif" font-size="10.00" fill="#000000">odp/api/event.h</text>
</a>
</g>
</g>
<!-- Node24&#45;&gt;Node25 -->
<g id="edge37" class="edge">
<title>Node24&#45;&gt;Node25</title>
<path fill="none" stroke="#191970" d="M417.2833,-593.2455C429.747,-584.7337 448.0451,-572.2375 462.4792,-562.3801"/>
<polygon fill="#191970" stroke="#191970" points="464.5962,-565.1726 470.8804,-556.6427 460.6485,-559.392 464.5962,-565.1726"/>
</g>
<!-- Node32 -->
<g id="node33" class="node">
<title>Node32</title>
<g id="a_node33"><a xlink:href="queue__types_8h.html" target="_top" xlink:title="ODP queue types. ">
<polygon fill="#ffffff" stroke="#000000" points="302.5,-302.5 302.5,-332.5 403.5,-332.5 403.5,-302.5 302.5,-302.5"/>
<text text-anchor="start" x="310.5" y="-320.5" font-family="Helvetica,sans-Serif" font-size="10.00" fill="#000000">odp/api/spec/queue</text>
<text text-anchor="middle" x="353" y="-309.5" font-family="Helvetica,sans-Serif" font-size="10.00" fill="#000000">_types.h</text>
</a>
</g>
</g>
<!-- Node24&#45;&gt;Node32 -->
<g id="edge58" class="edge">
<title>Node24&#45;&gt;Node32</title>
<path fill="none" stroke="#191970" d="M394.0938,-593.3544C378.0625,-574.945 346,-532.8901 346,-491 346,-491 346,-491 346,-435 346,-403.2452 348.5791,-366.7484 350.6063,-342.9661"/>
<polygon fill="#191970" stroke="#191970" points="354.1202,-342.9626 351.5155,-332.6929 347.1475,-342.3454 354.1202,-342.9626"/>
</g>
<!-- Node25&#45;&gt;Node22 -->
<g id="edge38" class="edge">
<title>Node25&#45;&gt;Node22</title>
<path fill="none" stroke="#191970" d="M507.1066,-537.4742C521.6331,-529.902 539.4737,-517.7828 548,-501 564.8449,-467.8433 553.9866,-423.0074 545.429,-397.9541"/>
<polygon fill="#191970" stroke="#191970" points="548.7032,-396.7162 541.9898,-388.5198 542.1265,-399.1138 548.7032,-396.7162"/>
</g>
<!-- Node26 -->
<g id="node27" class="node">
<title>Node26</title>
<g id="a_node27"><a xlink:href="spec_2event_8h.html" target="_top" xlink:title="ODP event. ">
<polygon fill="#ffffff" stroke="#000000" points="431.5,-481.5 431.5,-500.5 538.5,-500.5 538.5,-481.5 431.5,-481.5"/>
<text text-anchor="middle" x="485" y="-488.5" font-family="Helvetica,sans-Serif" font-size="10.00" fill="#000000">odp/api/spec/event.h</text>
</a>
</g>
</g>
<!-- Node25&#45;&gt;Node26 -->
<g id="edge39" class="edge">
<title>Node25&#45;&gt;Node26</title>
<path fill="none" stroke="#191970" d="M485,-537.2455C485,-529.9382 485,-519.6944 485,-510.7046"/>
<polygon fill="#191970" stroke="#191970" points="488.5001,-510.6426 485,-500.6427 481.5001,-510.6427 488.5001,-510.6426"/>
</g>
<!-- Node26&#45;&gt;Node1 -->
<g id="edge40" class="edge">
<title>Node26&#45;&gt;Node1</title>
<path fill="none" stroke="#191970" d="M466.8548,-481.4075C392.3692,-441.432 114,-285.9188 114,-194.5 114,-194.5 114,-194.5 114,-133 114,-97.7513 107.9059,-80.7539 133,-56 151.8624,-37.3933 216.7162,-24.7883 267.1202,-17.5459"/>
<polygon fill="#191970" stroke="#191970" points="267.8912,-20.9723 277.3122,-16.1252 266.9248,-14.0394 267.8912,-20.9723"/>
</g>
<!-- Node26&#45;&gt;Node10 -->
<g id="edge57" class="edge">
<title>Node26&#45;&gt;Node10</title>
<path fill="none" stroke="#191970" d="M480.8441,-481.459C471.7912,-459.0364 453.1628,-402.3672 480,-369 526.7697,-310.8503 572.8748,-355.5831 644,-333 717.0887,-309.7935 735.2042,-301.836 803,-266 867.7945,-231.7505 1044.9567,-151.3687 1080,-87 1090.679,-67.3844 1076.6722,-43.5953 1063.7527,-27.6979"/>
<polygon fill="#191970" stroke="#191970" points="1066.0516,-25.0074 1056.8507,-19.7545 1060.7676,-29.5987 1066.0516,-25.0074"/>
</g>
<!-- Node26&#45;&gt;Node27 -->
<g id="edge41" class="edge">
<title>Node26&#45;&gt;Node27</title>
<path fill="none" stroke="#191970" d="M538.9186,-484.2451C624.6019,-473.5107 790.9523,-452.6704 877.1908,-441.8665"/>
<polygon fill="#191970" stroke="#191970" points="877.8124,-445.3161 887.2997,-440.6 876.9422,-438.3703 877.8124,-445.3161"/>
</g>
<!-- Node27&#45;&gt;Node3 -->
<g id="edge42" class="edge">
<title>Node27&#45;&gt;Node3</title>
<path fill="none" stroke="#191970" d="M949.8521,-425.4272C963.8194,-417.2316 982.9909,-404.3414 996,-389 1023.8955,-356.1034 1019.1427,-340.2888 1039,-302 1043.692,-292.9529 1049.0698,-283.0065 1053.6325,-274.6841"/>
<polygon fill="#191970" stroke="#191970" points="1056.7611,-276.2586 1058.5244,-265.8115 1050.6311,-272.8787 1056.7611,-276.2586"/>
</g>
<!-- Node27&#45;&gt;Node11 -->
<g id="edge47" class="edge">
<title>Node27&#45;&gt;Node11</title>
<path fill="none" stroke="#191970" d="M910.8555,-425.3733C891.1108,-416.3838 861.4302,-402.8706 839.1945,-392.7471"/>
<polygon fill="#191970" stroke="#191970" points="840.42,-389.4594 829.8685,-388.5011 837.5194,-395.8302 840.42,-389.4594"/>
</g>
<!-- Node27&#45;&gt;Node13 -->
<g id="edge45" class="edge">
<title>Node27&#45;&gt;Node13</title>
<path fill="none" stroke="#191970" d="M976.751,-427.5636C1035.8457,-417.7437 1140.1985,-400.4032 1206.9013,-389.3191"/>
<polygon fill="#191970" stroke="#191970" points="1207.5739,-392.7554 1216.8649,-387.6634 1206.4264,-385.8501 1207.5739,-392.7554"/>
</g>
<!-- Node27&#45;&gt;Node14 -->
<g id="edge44" class="edge">
<title>Node27&#45;&gt;Node14</title>
<path fill="none" stroke="#191970" d="M967.7565,-425.3733C1002.9426,-415.9001 1056.7881,-401.4032 1094.8956,-391.1435"/>
<polygon fill="#191970" stroke="#191970" points="1095.9639,-394.4806 1104.7101,-388.5011 1094.144,-387.7213 1095.9639,-394.4806"/>
</g>
<!-- Node27&#45;&gt;Node22 -->
<g id="edge43" class="edge">
<title>Node27&#45;&gt;Node22</title>
<path fill="none" stroke="#191970" d="M887.1868,-428.6306C816.1529,-418.5344 677.6214,-398.8447 598.0614,-387.5366"/>
<polygon fill="#191970" stroke="#191970" points="598.1062,-384.0079 587.7132,-386.0658 597.1212,-390.9383 598.1062,-384.0079"/>
</g>
<!-- Node27&#45;&gt;Node23 -->
<g id="edge46" class="edge">
<title>Node27&#45;&gt;Node23</title>
<path fill="none" stroke="#191970" d="M891.3568,-425.4369C850.7105,-415.8731 788.1087,-401.1432 744.3413,-390.845"/>
<polygon fill="#191970" stroke="#191970" points="745.0114,-387.4072 734.4756,-388.5237 743.4081,-394.2211 745.0114,-387.4072"/>
</g>
<!-- Node28 -->
<g id="node29" class="node">
<title>Node28</title>
<g id="a_node29"><a xlink:href="spec_2packet_8h.html" target="_top" xlink:title="ODP packet descriptor. ">
<polygon fill="#ffffff" stroke="#000000" points="873.5,-369.5 873.5,-388.5 986.5,-388.5 986.5,-369.5 873.5,-369.5"/>
<text text-anchor="middle" x="930" y="-376.5" font-family="Helvetica,sans-Serif" font-size="10.00" fill="#000000">odp/api/spec/packet.h</text>
</a>
</g>
</g>
<!-- Node27&#45;&gt;Node28 -->
<g id="edge48" class="edge">
<title>Node27&#45;&gt;Node28</title>
<path fill="none" stroke="#191970" d="M931.6516,-425.2455C931.3907,-417.9382 931.0248,-407.6944 930.7037,-398.7046"/>
<polygon fill="#191970" stroke="#191970" points="934.1992,-398.5113 930.3444,-388.6427 927.2036,-398.7613 934.1992,-398.5113"/>
</g>
<!-- Node28&#45;&gt;Node1 -->
<g id="edge49" class="edge">
<title>Node28&#45;&gt;Node1</title>
<path fill="none" stroke="#191970" d="M873.319,-369.9736C870.5091,-369.6223 867.7243,-369.2948 865,-369 801.7986,-362.16 343.0358,-373.456 294,-333 266.7263,-310.4984 274,-291.3578 274,-256 274,-256 274,-256 274,-133 274,-92.2759 300.0402,-50.411 316.9193,-27.552"/>
<polygon fill="#191970" stroke="#191970" points="319.7815,-29.5708 323.0744,-19.5006 314.2204,-25.3194 319.7815,-29.5708"/>
</g>
<!-- Node28&#45;&gt;Node10 -->
<g id="edge56" class="edge">
<title>Node28&#45;&gt;Node10</title>
<path fill="none" stroke="#191970" d="M934.6376,-369.2677C938.932,-360.0506 945.3393,-345.7604 950,-333 974.5072,-265.903 943.3867,-227.3162 996,-179 1053.8453,-125.8792 1098.1818,-176.9513 1169,-143 1186.652,-134.5374 1228.6453,-104.7034 1237,-87 1242.8802,-74.54 1245.5194,-66.8281 1237,-56 1220.9988,-35.6626 1156.6422,-23.232 1107.2166,-16.5047"/>
<polygon fill="#191970" stroke="#191970" points="1107.605,-13.0257 1097.2346,-15.1948 1106.6942,-19.9662 1107.605,-13.0257"/>
</g>
<!-- Node28&#45;&gt;Node29 -->
<g id="edge50" class="edge">
<title>Node28&#45;&gt;Node29</title>
<path fill="none" stroke="#191970" d="M925.625,-369.3906C921.6212,-360.5965 915.5817,-347.3312 910.6115,-336.4145"/>
<polygon fill="#191970" stroke="#191970" points="913.7657,-334.8957 906.4367,-327.2449 907.3949,-337.7963 913.7657,-334.8957"/>
</g>
<!-- Node29&#45;&gt;Node3 -->
<g id="edge51" class="edge">
<title>Node29&#45;&gt;Node3</title>
<path fill="none" stroke="#191970" d="M927.3125,-307.8906C954.7747,-297.4652 998.7895,-280.7559 1029.4263,-269.1252"/>
<polygon fill="#191970" stroke="#191970" points="1030.7585,-272.3633 1038.8652,-265.5419 1028.274,-265.819 1030.7585,-272.3633"/>
</g>
<!-- Node30 -->
<g id="node31" class="node">
<title>Node30</title>
<polygon fill="#ffffff" stroke="#bfbfbf" points="855,-246.5 855,-265.5 949,-265.5 949,-246.5 855,-246.5"/>
<text text-anchor="middle" x="902" y="-253.5" font-family="Helvetica,sans-Serif" font-size="10.00" fill="#000000">odp/api/abi/time.h</text>
</g>
<!-- Node29&#45;&gt;Node30 -->
<g id="edge52" class="edge">
<title>Node29&#45;&gt;Node30</title>
<path fill="none" stroke="#191970" d="M902,-307.8906C902,-299.3657 902,-286.6392 902,-275.9235"/>
<polygon fill="#191970" stroke="#191970" points="905.5001,-275.7448 902,-265.7449 898.5001,-275.7449 905.5001,-275.7448"/>
</g>
<!-- Node31 -->
<g id="node32" class="node">
<title>Node31</title>
<g id="a_node32"><a xlink:href="spec_2time_8h.html" target="_top" xlink:title="ODP time. ">
<polygon fill="#ffffff" stroke="#000000" points="700,-62 700,-81 802,-81 802,-62 700,-62"/>
<text text-anchor="middle" x="751" y="-69" font-family="Helvetica,sans-Serif" font-size="10.00" fill="#000000">odp/api/spec/time.h</text>
</a>
</g>
</g>
<!-- Node29&#45;&gt;Node31 -->
<g id="edge53" class="edge">
<title>Node29&#45;&gt;Node31</title>
<path fill="none" stroke="#191970" d="M889.1485,-307.9918C876.8837,-298.4258 858.4763,-282.7293 846,-266 802.8363,-208.1224 770.9532,-127.569 757.73,-90.9742"/>
<polygon fill="#191970" stroke="#191970" points="760.8713,-89.3599 754.2335,-81.1022 754.273,-91.6969 760.8713,-89.3599"/>
</g>
<!-- Node31&#45;&gt;Node1 -->
<g id="edge54" class="edge">
<title>Node31&#45;&gt;Node1</title>
<path fill="none" stroke="#191970" d="M717.2163,-61.9799C708.7068,-59.8013 699.5578,-57.6454 691,-56 588.2369,-36.2422 467.2913,-22.7597 395.0069,-15.7259"/>
<polygon fill="#191970" stroke="#191970" points="394.9922,-12.2085 384.703,-14.735 394.322,-19.1763 394.9922,-12.2085"/>
</g>
<!-- Node31&#45;&gt;Node10 -->
<g id="edge55" class="edge">
<title>Node31&#45;&gt;Node10</title>
<path fill="none" stroke="#191970" d="M789.7848,-61.9996C798.4016,-59.9592 807.5001,-57.8591 816,-56 873.8717,-43.3425 940.2201,-30.2796 986.9184,-21.3236"/>
<polygon fill="#191970" stroke="#191970" points="987.705,-24.7367 996.8694,-19.4203 986.3899,-17.8613 987.705,-24.7367"/>
</g>
<!-- Node32&#45;&gt;Node1 -->
<g id="edge59" class="edge">
<title>Node32&#45;&gt;Node1</title>
<path fill="none" stroke="#191970" d="M344.305,-302.1276C332.2698,-279.3661 312,-235.0167 312,-194.5 312,-194.5 312,-194.5 312,-133 312,-96.253 320.3851,-54.0469 326.0146,-29.8522"/>
<polygon fill="#191970" stroke="#191970" points="329.4954,-30.3473 328.4376,-19.8054 322.6905,-28.7061 329.4954,-30.3473"/>
</g>
<!-- Node32&#45;&gt;Node10 -->
<g id="edge70" class="edge">
<title>Node32&#45;&gt;Node10</title>
<path fill="none" stroke="#191970" d="M403.5784,-311.4549C457.4313,-304.141 544.6865,-289.759 617,-266 652.2722,-254.4111 884.9701,-137.8459 919,-123 958.4872,-105.7733 977.3733,-116.2532 1009,-87 1025.7875,-71.4724 1036.1005,-46.9061 1041.6706,-29.7087"/>
<polygon fill="#191970" stroke="#191970" points="1045.169,-30.2236 1044.6665,-19.6407 1038.4598,-28.2271 1045.169,-30.2236"/>
</g>
<!-- Node32&#45;&gt;Node17 -->
<g id="edge69" class="edge">
<title>Node32&#45;&gt;Node17</title>
<path fill="none" stroke="#191970" d="M402.1701,-302.4554C436.1488,-292.059 480.8281,-278.3884 512.9086,-268.5727"/>
<polygon fill="#191970" stroke="#191970" points="514.3138,-271.803 522.8521,-265.5303 512.2657,-265.1094 514.3138,-271.803"/>
</g>
<!-- Node33 -->
<g id="node34" class="node">
<title>Node33</title>
<g id="a_node34"><a xlink:href="schedule__types_8h.html" target="_top" xlink:title="ODP schedule. ">
<polygon fill="#ffffff" stroke="#000000" points="354,-246.5 354,-265.5 482,-265.5 482,-246.5 354,-246.5"/>
<text text-anchor="middle" x="418" y="-253.5" font-family="Helvetica,sans-Serif" font-size="10.00" fill="#000000">odp/api/schedule_types.h</text>
</a>
</g>
</g>
<!-- Node32&#45;&gt;Node33 -->
<g id="edge60" class="edge">
<title>Node32&#45;&gt;Node33</title>
<path fill="none" stroke="#191970" d="M369.0674,-302.2977C378.466,-293.4052 390.3527,-282.1586 400.057,-272.9769"/>
<polygon fill="#191970" stroke="#191970" points="402.7342,-275.2621 407.5927,-265.8469 397.9232,-270.1774 402.7342,-275.2621"/>
</g>
<!-- Node34 -->
<g id="node35" class="node">
<title>Node34</title>
<polygon fill="#ffffff" stroke="#bfbfbf" points="378,-179.5 378,-209.5 484,-209.5 484,-179.5 378,-179.5"/>
<text text-anchor="start" x="386" y="-197.5" font-family="Helvetica,sans-Serif" font-size="10.00" fill="#000000">odp/api/abi/schedule</text>
<text text-anchor="middle" x="431" y="-186.5" font-family="Helvetica,sans-Serif" font-size="10.00" fill="#000000">_types.h</text>
</g>
<!-- Node33&#45;&gt;Node34 -->
<g id="edge61" class="edge">
<title>Node33&#45;&gt;Node34</title>
<path fill="none" stroke="#191970" d="M420.0313,-246.3906C421.5626,-239.1463 423.7352,-228.8679 425.7434,-219.3676"/>
<polygon fill="#191970" stroke="#191970" points="429.176,-220.0523 427.8198,-209.5446 422.3273,-218.6045 429.176,-220.0523"/>
</g>
<!-- Node35 -->
<g id="node36" class="node">
<title>Node35</title>
<g id="a_node36"><a xlink:href="spec_2schedule__types_8h.html" target="_top" xlink:title="ODP schedule types. ">
<polygon fill="#ffffff" stroke="#000000" points="502,-179.5 502,-209.5 616,-209.5 616,-179.5 502,-179.5"/>
<text text-anchor="start" x="510" y="-197.5" font-family="Helvetica,sans-Serif" font-size="10.00" fill="#000000">odp/api/spec/schedule</text>
<text text-anchor="middle" x="559" y="-186.5" font-family="Helvetica,sans-Serif" font-size="10.00" fill="#000000">_types.h</text>
</a>
</g>
</g>
<!-- Node33&#45;&gt;Node35 -->
<g id="edge62" class="edge">
<title>Node33&#45;&gt;Node35</title>
<path fill="none" stroke="#191970" d="M440.0313,-246.3906C460.0857,-237.6435 490.2818,-224.4728 515.2334,-213.5897"/>
<polygon fill="#191970" stroke="#191970" points="516.7408,-216.7507 524.5075,-209.5446 513.9422,-210.3345 516.7408,-216.7507"/>
</g>
<!-- Node35&#45;&gt;Node1 -->
<g id="edge63" class="edge">
<title>Node35&#45;&gt;Node1</title>
<path fill="none" stroke="#191970" d="M501.7603,-181.0795C474.962,-172.9611 443.6047,-160.6842 419,-143 377.9519,-113.4974 350.6934,-58.4269 338.4342,-29.2647"/>
<polygon fill="#191970" stroke="#191970" points="341.5948,-27.7446 334.5985,-19.7883 335.1062,-30.371 341.5948,-27.7446"/>
</g>
<!-- Node35&#45;&gt;Node10 -->
<g id="edge68" class="edge">
<title>Node35&#45;&gt;Node10</title>
<path fill="none" stroke="#191970" d="M594.3579,-179.4359C676.0879,-144.6332 872.2662,-61.2077 887,-56 924.1304,-42.8762 967.0611,-30.6915 999.0994,-22.164"/>
<polygon fill="#191970" stroke="#191970" points="1000.3207,-25.4617 1009.0976,-19.5273 998.5357,-18.6931 1000.3207,-25.4617"/>
</g>
<!-- Node35&#45;&gt;Node36 -->
<g id="edge64" class="edge">
<title>Node35&#45;&gt;Node36</title>
<path fill="none" stroke="#191970" d="M537.9888,-179.2977C525.2066,-170.0495 508.9054,-158.2551 495.9552,-148.8853"/>
<polygon fill="#191970" stroke="#191970" points="497.763,-145.8732 487.6096,-142.8469 493.6597,-151.5445 497.763,-145.8732"/>
</g>
<!-- Node37 -->
<g id="node38" class="node">
<title>Node37</title>
<g id="a_node38"><a xlink:href="spec_2support_8h.html" target="_top" xlink:title="ODP support API. ">
<polygon fill="#ffffff" stroke="#000000" points="416,-62 416,-81 532,-81 532,-62 416,-62"/>
<text text-anchor="middle" x="474" y="-69" font-family="Helvetica,sans-Serif" font-size="10.00" fill="#000000">odp/api/spec/support.h</text>
</a>
</g>
</g>
<!-- Node36&#45;&gt;Node37 -->
<g id="edge65" class="edge">
<title>Node36&#45;&gt;Node37</title>
<path fill="none" stroke="#191970" d="M474,-123.3906C474,-114.8657 474,-102.1392 474,-91.4235"/>
<polygon fill="#191970" stroke="#191970" points="477.5001,-91.2448 474,-81.2449 470.5001,-91.2449 477.5001,-91.2448"/>
</g>
<!-- Node37&#45;&gt;Node1 -->
<g id="edge66" class="edge">
<title>Node37&#45;&gt;Node1</title>
<path fill="none" stroke="#191970" d="M451.6563,-61.8906C427.7297,-51.6005 389.5691,-35.1888 362.5784,-23.5809"/>
<polygon fill="#191970" stroke="#191970" points="363.7561,-20.2775 353.1869,-19.5419 360.9905,-26.708 363.7561,-20.2775"/>
</g>
<!-- Node37&#45;&gt;Node10 -->
<g id="edge67" class="edge">
<title>Node37&#45;&gt;Node10</title>
<path fill="none" stroke="#191970" d="M511.5925,-61.9908C521.4369,-59.7595 532.0744,-57.5761 542,-56 701.6017,-30.6568 891.9646,-18.0071 986.9168,-12.8775"/>
<polygon fill="#191970" stroke="#191970" points="987.1099,-16.3723 996.9101,-12.3465 986.7384,-9.3821 987.1099,-16.3723"/>
</g>
<!-- Node39 -->
<g id="node40" class="node">
<title>Node39</title>
<g id="a_node40"><a xlink:href="spec_2threshold_8h.html" target="_top" xlink:title="ODP threshold descriptor. ">
<polygon fill="#ffffff" stroke="#000000" points="1273.5,-308 1273.5,-327 1396.5,-327 1396.5,-308 1273.5,-308"/>
<text text-anchor="middle" x="1335" y="-315" font-family="Helvetica,sans-Serif" font-size="10.00" fill="#000000">odp/api/spec/threshold.h</text>
</a>
</g>
</g>
<!-- Node38&#45;&gt;Node39 -->
<g id="edge77" class="edge">
<title>Node38&#45;&gt;Node39</title>
<path fill="none" stroke="#191970" d="M1305.5428,-761.4597C1324.3884,-754.1716 1347.7861,-742.383 1363,-725 1383.5565,-701.5127 1387,-690.2125 1387,-659 1387,-659 1387,-659 1387,-435 1387,-396.9637 1363.9319,-357.4702 1348.5245,-335.3342"/>
<polygon fill="#191970" stroke="#191970" points="1351.3618,-333.2847 1342.6728,-327.2223 1345.6847,-337.38 1351.3618,-333.2847"/>
</g>
<!-- Node39&#45;&gt;Node1 -->
<g id="edge78" class="edge">
<title>Node39&#45;&gt;Node1</title>
<path fill="none" stroke="#191970" d="M1319.1577,-307.963C1289.3165,-289.8284 1223.0079,-248.7193 1170,-210 1152.3994,-197.1438 1152.0305,-187.5932 1132,-179 982.7515,-114.9716 552.5881,-158.9643 407,-87 399.6466,-83.3652 366.942,-48.8387 346.9072,-27.2713"/>
<polygon fill="#191970" stroke="#191970" points="349.2896,-24.6928 339.9283,-19.7314 344.1524,-29.4477 349.2896,-24.6928"/>
</g>
<!-- Node39&#45;&gt;Node3 -->
<g id="edge79" class="edge">
<title>Node39&#45;&gt;Node3</title>
<path fill="none" stroke="#191970" d="M1292.9536,-307.9581C1245.2864,-297.1406 1167.5349,-279.4959 1116.0707,-267.8168"/>
<polygon fill="#191970" stroke="#191970" points="1116.6717,-264.3642 1106.145,-265.5643 1115.1225,-271.1907 1116.6717,-264.3642"/>
</g>
<!-- Node39&#45;&gt;Node10 -->
<g id="edge80" class="edge">
<title>Node39&#45;&gt;Node10</title>
<path fill="none" stroke="#191970" d="M1334.8693,-307.9311C1334.5982,-287.2386 1334,-236.7826 1334,-194.5 1334,-194.5 1334,-194.5 1334,-133 1334,-93.136 1320.6642,-78.8513 1288,-56 1259.4014,-35.9929 1168.6591,-22.7506 1107.0543,-15.8108"/>
<polygon fill="#191970" stroke="#191970" points="1107.3751,-12.325 1097.0523,-14.7102 1106.6095,-19.283 1107.3751,-12.325"/>
</g>
</g>
</svg>
