<?xml version="1.0" encoding="UTF-8" standalone="no"?>
<!DOCTYPE svg PUBLIC "-//W3C//DTD SVG 1.1//EN"
 "http://www.w3.org/Graphics/SVG/1.1/DTD/svg11.dtd">
<!-- Generated by graphviz version 2.40.1 (20161225.0304)
 -->
<!-- Title: schedule.h Pages: 1 -->
<svg width="1352pt" height="722pt"
 viewBox="0.00 0.00 1352.00 722.00" xmlns="http://www.w3.org/2000/svg" xmlns:xlink="http://www.w3.org/1999/xlink">
<g id="graph0" class="graph" transform="scale(1 1) rotate(0) translate(4 718)">
<title>schedule.h</title>
<polygon fill="#ffffff" stroke="transparent" points="-4,4 -4,-718 1348,-718 1348,4 -4,4"/>
<!-- Node0 -->
<g id="node1" class="node">
<title>Node0</title>
<polygon fill="#bfbfbf" stroke="#000000" points="755,-694.5 755,-713.5 819,-713.5 819,-694.5 755,-694.5"/>
<text text-anchor="middle" x="787" y="-701.5" font-family="Helvetica,sans-Serif" font-size="10.00" fill="#000000">schedule.h</text>
</g>
<!-- Node1 -->
<g id="node2" class="node">
<title>Node1</title>
<polygon fill="#ffffff" stroke="#bfbfbf" points="485.5,-.5 485.5,-19.5 592.5,-19.5 592.5,-.5 485.5,-.5"/>
<text text-anchor="middle" x="539" y="-7.5" font-family="Helvetica,sans-Serif" font-size="10.00" fill="#000000">odp/visibility_begin.h</text>
</g>
<!-- Node0&#45;&gt;Node1 -->
<g id="edge1" class="edge">
<title>Node0&#45;&gt;Node1</title>
<path fill="none" stroke="#191970" d="M754.8659,-703.4886C639.577,-701.3861 247.2375,-691.8506 127,-658 65.7688,-640.7615 0,-655.6115 0,-592 0,-592 0,-592 0,-122 0,-45.4871 84.9992,-75.445 159,-56 267.651,-27.45 398.5094,-16.5472 474.8678,-12.4344"/>
<polygon fill="#191970" stroke="#191970" points="475.4661,-15.9083 485.2726,-11.898 475.1057,-8.9176 475.4661,-15.9083"/>
</g>
<!-- Node2 -->
<g id="node3" class="node">
<title>Node2</title>
<g id="a_node3"><a xlink:href="std__types_8h.html" target="_top" xlink:title="Standard C language types and definitions for ODP. ">
<polygon fill="#ffffff" stroke="#000000" points="329,-235.5 329,-254.5 431,-254.5 431,-235.5 329,-235.5"/>
<text text-anchor="middle" x="380" y="-242.5" font-family="Helvetica,sans-Serif" font-size="10.00" fill="#000000">odp/api/std_types.h</text>
</a>
</g>
</g>
<!-- Node0&#45;&gt;Node2 -->
<g id="edge2" class="edge">
<title>Node0&#45;&gt;Node2</title>
<path fill="none" stroke="#191970" d="M754.8164,-702.6389C611.4531,-696.1573 38,-665.6291 38,-592 38,-592 38,-592 38,-368 38,-332.7513 30.8555,-314.6417 57,-291 76.0696,-273.7559 230.5584,-257.8337 318.7894,-250.0322"/>
<polygon fill="#191970" stroke="#191970" points="319.2885,-253.502 328.9456,-249.1441 318.6786,-246.5286 319.2885,-253.502"/>
</g>
<!-- Node9 -->
<g id="node10" class="node">
<title>Node9</title>
<polygon fill="#ffffff" stroke="#bfbfbf" points="1061,-.5 1061,-19.5 1161,-19.5 1161,-.5 1061,-.5"/>
<text text-anchor="middle" x="1111" y="-7.5" font-family="Helvetica,sans-Serif" font-size="10.00" fill="#000000">odp/visibility_end.h</text>
</g>
<!-- Node0&#45;&gt;Node9 -->
<g id="edge67" class="edge">
<title>Node0&#45;&gt;Node9</title>
<path fill="none" stroke="#191970" d="M819.0214,-703.1965C886.9554,-700.8584 1050.0999,-691.877 1182,-658 1257.302,-638.6595 1344,-669.746 1344,-592 1344,-592 1344,-592 1344,-122 1344,-84.3794 1322.628,-76.3711 1291,-56 1255.184,-32.9315 1208.4103,-21.422 1171.5202,-15.6847"/>
<polygon fill="#191970" stroke="#191970" points="1171.7938,-12.1878 1161.3947,-14.2147 1170.7881,-19.1152 1171.7938,-12.1878"/>
</g>
<!-- Node10 -->
<g id="node11" class="node">
<title>Node10</title>
<g id="a_node11"><a xlink:href="event_8h.html" target="_top" xlink:title="ODP event. ">
<polygon fill="#ffffff" stroke="#000000" points="866.5,-526.5 866.5,-545.5 949.5,-545.5 949.5,-526.5 866.5,-526.5"/>
<text text-anchor="middle" x="908" y="-533.5" font-family="Helvetica,sans-Serif" font-size="10.00" fill="#000000">odp/api/event.h</text>
</a>
</g>
</g>
<!-- Node0&#45;&gt;Node10 -->
<g id="edge13" class="edge">
<title>Node0&#45;&gt;Node10</title>
<path fill="none" stroke="#191970" d="M800.065,-694.4426C811.3006,-685.7855 827.471,-672.2385 839,-658 865.7972,-624.9052 888.2013,-580.0465 899.6962,-554.9726"/>
<polygon fill="#191970" stroke="#191970" points="903.0327,-556.0863 903.9357,-545.53 896.6468,-553.2192 903.0327,-556.0863"/>
</g>
<!-- Node22 -->
<g id="node23" class="node">
<title>Node22</title>
<g id="a_node23"><a xlink:href="queue_8h.html" target="_top" xlink:title="ODP queue. ">
<polygon fill="#ffffff" stroke="#000000" points="744,-638.5 744,-657.5 830,-657.5 830,-638.5 744,-638.5"/>
<text text-anchor="middle" x="787" y="-645.5" font-family="Helvetica,sans-Serif" font-size="10.00" fill="#000000">odp/api/queue.h</text>
</a>
</g>
</g>
<!-- Node0&#45;&gt;Node22 -->
<g id="edge34" class="edge">
<title>Node0&#45;&gt;Node22</title>
<path fill="none" stroke="#191970" d="M787,-694.2455C787,-686.9382 787,-676.6944 787,-667.7046"/>
<polygon fill="#191970" stroke="#191970" points="790.5001,-667.6426 787,-657.6427 783.5001,-667.6427 790.5001,-667.6426"/>
</g>
<!-- Node26 -->
<g id="node27" class="node">
<title>Node26</title>
<g id="a_node27"><a xlink:href="schedule__types_8h.html" target="_top" xlink:title="ODP schedule. ">
<polygon fill="#ffffff" stroke="#000000" points="1112,-235.5 1112,-254.5 1240,-254.5 1240,-235.5 1112,-235.5"/>
<text text-anchor="middle" x="1176" y="-242.5" font-family="Helvetica,sans-Serif" font-size="10.00" fill="#000000">odp/api/schedule_types.h</text>
</a>
</g>
</g>
<!-- Node0&#45;&gt;Node26 -->
<g id="edge60" class="edge">
<title>Node0&#45;&gt;Node26</title>
<path fill="none" stroke="#191970" d="M819.2163,-702.783C921.1582,-698.0671 1230,-676.7836 1230,-592 1230,-592 1230,-592 1230,-368 1230,-332.7513 1226.2103,-322.798 1211,-291 1206.115,-280.7875 1198.7386,-270.6429 1192.0152,-262.4895"/>
<polygon fill="#191970" stroke="#191970" points="1194.5591,-260.0801 1185.377,-254.7943 1189.2587,-264.6524 1194.5591,-260.0801"/>
</g>
<!-- Node33 -->
<g id="node34" class="node">
<title>Node33</title>
<g id="a_node34"><a xlink:href="thrmask_8h.html" target="_top" xlink:title="ODP thread masks. ">
<polygon fill="#ffffff" stroke="#000000" points="100.5,-358.5 100.5,-377.5 195.5,-377.5 195.5,-358.5 100.5,-358.5"/>
<text text-anchor="middle" x="148" y="-365.5" font-family="Helvetica,sans-Serif" font-size="10.00" fill="#000000">odp/api/thrmask.h</text>
</a>
</g>
</g>
<!-- Node0&#45;&gt;Node33 -->
<g id="edge61" class="edge">
<title>Node0&#45;&gt;Node33</title>
<path fill="none" stroke="#191970" d="M754.9717,-701.6478C628.013,-691.9036 167,-652.3647 167,-592 167,-592 167,-592 167,-480 167,-447.2688 159.0148,-409.9052 153.3978,-387.6716"/>
<polygon fill="#191970" stroke="#191970" points="156.7289,-386.5763 150.8035,-377.7934 149.9585,-388.3545 156.7289,-386.5763"/>
</g>
<!-- Node3 -->
<g id="node4" class="node">
<title>Node3</title>
<polygon fill="#ffffff" stroke="#bfbfbf" points="329,-174 329,-193 447,-193 447,-174 329,-174"/>
<text text-anchor="middle" x="388" y="-181" font-family="Helvetica,sans-Serif" font-size="10.00" fill="#000000">odp/api/abi/std_types.h</text>
</g>
<!-- Node2&#45;&gt;Node3 -->
<g id="edge3" class="edge">
<title>Node2&#45;&gt;Node3</title>
<path fill="none" stroke="#191970" d="M381.25,-235.3906C382.3589,-226.8657 384.0144,-214.1392 385.4083,-203.4235"/>
<polygon fill="#191970" stroke="#191970" points="388.9131,-203.6128 386.7324,-193.2449 381.9716,-202.7098 388.9131,-203.6128"/>
</g>
<!-- Node4 -->
<g id="node5" class="node">
<title>Node4</title>
<g id="a_node5"><a xlink:href="spec_2std__types_8h.html" target="_top" xlink:title="Standard C language types and definitions for ODP. ">
<polygon fill="#ffffff" stroke="#000000" points="147,-174 147,-193 273,-193 273,-174 147,-174"/>
<text text-anchor="middle" x="210" y="-181" font-family="Helvetica,sans-Serif" font-size="10.00" fill="#000000">odp/api/spec/std_types.h</text>
</a>
</g>
</g>
<!-- Node2&#45;&gt;Node4 -->
<g id="edge4" class="edge">
<title>Node2&#45;&gt;Node4</title>
<path fill="none" stroke="#191970" d="M353.4375,-235.3906C324.4944,-224.92 278.0306,-208.1111 245.8644,-196.4745"/>
<polygon fill="#191970" stroke="#191970" points="246.9702,-193.1526 236.376,-193.0419 244.5889,-199.7351 246.9702,-193.1526"/>
</g>
<!-- Node4&#45;&gt;Node1 -->
<g id="edge5" class="edge">
<title>Node4&#45;&gt;Node1</title>
<path fill="none" stroke="#191970" d="M208.2608,-173.6675C206.5277,-163.3336 203.9866,-146.5842 203,-132 200.5378,-95.6035 204.0464,-76.8218 234,-56 271.9781,-29.6001 397.5781,-17.8833 475.2561,-13.0546"/>
<polygon fill="#191970" stroke="#191970" points="475.6443,-16.5377 485.4168,-12.4451 475.2252,-9.5502 475.6443,-16.5377"/>
</g>
<!-- Node5 -->
<g id="node6" class="node">
<title>Node5</title>
<polygon fill="#ffffff" stroke="#bfbfbf" points="211.5,-112.5 211.5,-131.5 260.5,-131.5 260.5,-112.5 211.5,-112.5"/>
<text text-anchor="middle" x="236" y="-119.5" font-family="Helvetica,sans-Serif" font-size="10.00" fill="#000000">stdint.h</text>
</g>
<!-- Node4&#45;&gt;Node5 -->
<g id="edge6" class="edge">
<title>Node4&#45;&gt;Node5</title>
<path fill="none" stroke="#191970" d="M214.0625,-173.8906C217.7424,-165.1862 223.2742,-152.1015 227.862,-141.2494"/>
<polygon fill="#191970" stroke="#191970" points="231.21,-142.3185 231.8802,-131.7449 224.7625,-139.5927 231.21,-142.3185"/>
</g>
<!-- Node6 -->
<g id="node7" class="node">
<title>Node6</title>
<g id="a_node7"><a xlink:href="align_8h.html" target="_top" xlink:title="ODP alignments. ">
<polygon fill="#ffffff" stroke="#000000" points="355,-112.5 355,-131.5 435,-131.5 435,-112.5 355,-112.5"/>
<text text-anchor="middle" x="395" y="-119.5" font-family="Helvetica,sans-Serif" font-size="10.00" fill="#000000">odp/api/align.h</text>
</a>
</g>
</g>
<!-- Node4&#45;&gt;Node6 -->
<g id="edge7" class="edge">
<title>Node4&#45;&gt;Node6</title>
<path fill="none" stroke="#191970" d="M238.9063,-173.8906C270.539,-163.3749 321.403,-146.466 356.4229,-134.8243"/>
<polygon fill="#191970" stroke="#191970" points="357.9115,-138.0178 366.2967,-131.5419 355.7032,-131.3753 357.9115,-138.0178"/>
</g>
<!-- Node4&#45;&gt;Node9 -->
<g id="edge12" class="edge">
<title>Node4&#45;&gt;Node9</title>
<path fill="none" stroke="#191970" d="M255.3743,-173.9634C312.9225,-161.7898 408.8932,-141.2053 444,-132 555.9231,-102.6528 579.6674,-79.3188 693,-56 818.838,-30.1082 969.1858,-18.0766 1050.8872,-13.0846"/>
<polygon fill="#191970" stroke="#191970" points="1051.2124,-16.5715 1060.9862,-12.4821 1050.7955,-9.5839 1051.2124,-16.5715"/>
</g>
<!-- Node7 -->
<g id="node8" class="node">
<title>Node7</title>
<polygon fill="#ffffff" stroke="#bfbfbf" points="314.5,-56.5 314.5,-75.5 409.5,-75.5 409.5,-56.5 314.5,-56.5"/>
<text text-anchor="middle" x="362" y="-63.5" font-family="Helvetica,sans-Serif" font-size="10.00" fill="#000000">odp/api/abi/align.h</text>
</g>
<!-- Node6&#45;&gt;Node7 -->
<g id="edge8" class="edge">
<title>Node6&#45;&gt;Node7</title>
<path fill="none" stroke="#191970" d="M389.2518,-112.2455C384.7565,-104.617 378.3752,-93.7881 372.9175,-84.5267"/>
<polygon fill="#191970" stroke="#191970" points="375.7747,-82.4811 367.6823,-75.6427 369.7439,-86.035 375.7747,-82.4811"/>
</g>
<!-- Node8 -->
<g id="node9" class="node">
<title>Node8</title>
<g id="a_node9"><a xlink:href="spec_2align_8h.html" target="_top" xlink:title="ODP alignments. ">
<polygon fill="#ffffff" stroke="#000000" points="428,-56.5 428,-75.5 532,-75.5 532,-56.5 428,-56.5"/>
<text text-anchor="middle" x="480" y="-63.5" font-family="Helvetica,sans-Serif" font-size="10.00" fill="#000000">odp/api/spec/align.h</text>
</a>
</g>
</g>
<!-- Node6&#45;&gt;Node8 -->
<g id="edge9" class="edge">
<title>Node6&#45;&gt;Node8</title>
<path fill="none" stroke="#191970" d="M409.8059,-112.2455C422.7256,-103.7337 441.6931,-91.2375 456.6552,-81.3801"/>
<polygon fill="#191970" stroke="#191970" points="458.9387,-84.067 465.3638,-75.6427 455.0876,-78.2216 458.9387,-84.067"/>
</g>
<!-- Node8&#45;&gt;Node1 -->
<g id="edge10" class="edge">
<title>Node8&#45;&gt;Node1</title>
<path fill="none" stroke="#191970" d="M490.277,-56.2455C498.8218,-48.1352 511.1778,-36.4075 521.3085,-26.7919"/>
<polygon fill="#191970" stroke="#191970" points="523.9972,-29.0655 528.8408,-19.6427 519.1782,-23.9884 523.9972,-29.0655"/>
</g>
<!-- Node8&#45;&gt;Node9 -->
<g id="edge11" class="edge">
<title>Node8&#45;&gt;Node9</title>
<path fill="none" stroke="#191970" d="M532.194,-57.7513C536.8572,-57.1174 541.5105,-56.5222 546,-56 729.1129,-34.6995 946.7539,-19.9423 1050.3565,-13.557"/>
<polygon fill="#191970" stroke="#191970" points="1050.8536,-17.0332 1060.6211,-12.9288 1050.426,-10.0463 1050.8536,-17.0332"/>
</g>
<!-- Node11 -->
<g id="node12" class="node">
<title>Node11</title>
<polygon fill="#ffffff" stroke="#bfbfbf" points="252.5,-358.5 252.5,-377.5 351.5,-377.5 351.5,-358.5 252.5,-358.5"/>
<text text-anchor="middle" x="302" y="-365.5" font-family="Helvetica,sans-Serif" font-size="10.00" fill="#000000">odp/api/abi/event.h</text>
</g>
<!-- Node10&#45;&gt;Node11 -->
<g id="edge14" class="edge">
<title>Node10&#45;&gt;Node11</title>
<path fill="none" stroke="#191970" d="M873.6825,-526.4862C770.2663,-497.8164 461.6656,-412.2637 346.229,-380.2615"/>
<polygon fill="#191970" stroke="#191970" points="346.8874,-376.8121 336.3158,-377.5133 345.0173,-383.5577 346.8874,-376.8121"/>
</g>
<!-- Node12 -->
<g id="node13" class="node">
<title>Node12</title>
<g id="a_node13"><a xlink:href="spec_2event_8h.html" target="_top" xlink:title="ODP event. ">
<polygon fill="#ffffff" stroke="#000000" points="860.5,-470.5 860.5,-489.5 967.5,-489.5 967.5,-470.5 860.5,-470.5"/>
<text text-anchor="middle" x="914" y="-477.5" font-family="Helvetica,sans-Serif" font-size="10.00" fill="#000000">odp/api/spec/event.h</text>
</a>
</g>
</g>
<!-- Node10&#45;&gt;Node12 -->
<g id="edge15" class="edge">
<title>Node10&#45;&gt;Node12</title>
<path fill="none" stroke="#191970" d="M909.0451,-526.2455C909.828,-518.9382 910.9256,-508.6944 911.8888,-499.7046"/>
<polygon fill="#191970" stroke="#191970" points="915.3815,-499.9587 912.9669,-489.6427 908.4214,-499.2129 915.3815,-499.9587"/>
</g>
<!-- Node12&#45;&gt;Node1 -->
<g id="edge16" class="edge">
<title>Node12&#45;&gt;Node1</title>
<path fill="none" stroke="#191970" d="M906.4466,-470.4258C887.2975,-446.8991 834.1537,-386.1303 775,-358 688.2954,-316.7679 643.1781,-373.2629 562,-322 491.7446,-277.6347 523.865,-215.9421 456,-168 404.2292,-131.4274 364.7453,-174.8095 318,-132 292.2417,-108.4105 275.7376,-82.9135 298,-56 320.0853,-29.3005 411.4355,-17.9584 475.0924,-13.2374"/>
<polygon fill="#191970" stroke="#191970" points="475.7197,-16.702 485.4495,-12.509 475.2286,-9.7192 475.7197,-16.702"/>
</g>
<!-- Node12&#45;&gt;Node9 -->
<g id="edge33" class="edge">
<title>Node12&#45;&gt;Node9</title>
<path fill="none" stroke="#191970" d="M950.5509,-470.4388C1040.9973,-445.709 1268,-376.654 1268,-306.5 1268,-306.5 1268,-306.5 1268,-122 1268,-68.0793 1205.8682,-37.6764 1159.7766,-22.5408"/>
<polygon fill="#191970" stroke="#191970" points="1160.8019,-19.1943 1150.2127,-19.5398 1158.7061,-25.8732 1160.8019,-19.1943"/>
</g>
<!-- Node13 -->
<g id="node14" class="node">
<title>Node13</title>
<g id="a_node14"><a xlink:href="packet_8h.html" target="_top" xlink:title="ODP packet descriptor. ">
<polygon fill="#ffffff" stroke="#000000" points="618.5,-414.5 618.5,-433.5 707.5,-433.5 707.5,-414.5 618.5,-414.5"/>
<text text-anchor="middle" x="663" y="-421.5" font-family="Helvetica,sans-Serif" font-size="10.00" fill="#000000">odp/api/packet.h</text>
</a>
</g>
</g>
<!-- Node12&#45;&gt;Node13 -->
<g id="edge17" class="edge">
<title>Node12&#45;&gt;Node13</title>
<path fill="none" stroke="#191970" d="M871.1368,-470.4369C828.0898,-460.8328 761.6927,-446.0191 715.509,-435.7152"/>
<polygon fill="#191970" stroke="#191970" points="716.2087,-432.2853 705.6865,-433.5237 714.6843,-439.1173 716.2087,-432.2853"/>
</g>
<!-- Node13&#45;&gt;Node2 -->
<g id="edge18" class="edge">
<title>Node13&#45;&gt;Node2</title>
<path fill="none" stroke="#191970" d="M618.2852,-416.3471C543.4734,-403.5203 400.955,-378.9781 400,-378 370.4783,-347.7643 372.7015,-293.8097 376.5399,-264.7825"/>
<polygon fill="#191970" stroke="#191970" points="380.0368,-265.0677 378.0835,-254.6545 373.1167,-264.013 380.0368,-265.0677"/>
</g>
<!-- Node13&#45;&gt;Node11 -->
<g id="edge19" class="edge">
<title>Node13&#45;&gt;Node11</title>
<path fill="none" stroke="#191970" d="M618.2359,-416.327C613.4325,-415.5293 608.6161,-414.7403 604,-414 498.3686,-397.0606 471.7385,-394.2577 366,-378 364.5411,-377.7757 363.0636,-377.5481 361.5732,-377.3181"/>
<polygon fill="#191970" stroke="#191970" points="362.0282,-373.847 351.6105,-375.7761 360.9574,-380.7646 362.0282,-373.847"/>
</g>
<!-- Node14 -->
<g id="node15" class="node">
<title>Node14</title>
<polygon fill="#ffffff" stroke="#bfbfbf" points="408.5,-358.5 408.5,-377.5 525.5,-377.5 525.5,-358.5 408.5,-358.5"/>
<text text-anchor="middle" x="467" y="-365.5" font-family="Helvetica,sans-Serif" font-size="10.00" fill="#000000">odp/api/abi/packet_io.h</text>
</g>
<!-- Node13&#45;&gt;Node14 -->
<g id="edge20" class="edge">
<title>Node13&#45;&gt;Node14</title>
<path fill="none" stroke="#191970" d="M629.3064,-414.3733C596.2913,-404.9404 545.8427,-390.5265 509.9614,-380.2747"/>
<polygon fill="#191970" stroke="#191970" points="510.8307,-376.8831 500.2539,-377.5011 508.9076,-383.6137 510.8307,-376.8831"/>
</g>
<!-- Node15 -->
<g id="node16" class="node">
<title>Node15</title>
<polygon fill="#ffffff" stroke="#bfbfbf" points="544,-358.5 544,-377.5 648,-377.5 648,-358.5 544,-358.5"/>
<text text-anchor="middle" x="596" y="-365.5" font-family="Helvetica,sans-Serif" font-size="10.00" fill="#000000">odp/api/abi/packet.h</text>
</g>
<!-- Node13&#45;&gt;Node15 -->
<g id="edge21" class="edge">
<title>Node13&#45;&gt;Node15</title>
<path fill="none" stroke="#191970" d="M651.3295,-414.2455C641.4339,-405.9746 627.0373,-393.9416 615.4099,-384.2232"/>
<polygon fill="#191970" stroke="#191970" points="617.4542,-381.3703 607.5368,-377.6427 612.965,-386.7413 617.4542,-381.3703"/>
</g>
<!-- Node16 -->
<g id="node17" class="node">
<title>Node16</title>
<polygon fill="#ffffff" stroke="#bfbfbf" points="666,-358.5 666,-377.5 766,-377.5 766,-358.5 666,-358.5"/>
<text text-anchor="middle" x="716" y="-365.5" font-family="Helvetica,sans-Serif" font-size="10.00" fill="#000000">odp/api/abi/buffer.h</text>
</g>
<!-- Node13&#45;&gt;Node16 -->
<g id="edge22" class="edge">
<title>Node13&#45;&gt;Node16</title>
<path fill="none" stroke="#191970" d="M672.2319,-414.2455C679.8317,-406.2155 690.7877,-394.6394 699.8368,-385.0781"/>
<polygon fill="#191970" stroke="#191970" points="702.5421,-387.3115 706.8739,-377.6427 697.458,-382.4998 702.5421,-387.3115"/>
</g>
<!-- Node17 -->
<g id="node18" class="node">
<title>Node17</title>
<polygon fill="#ffffff" stroke="#bfbfbf" points="953.5,-358.5 953.5,-377.5 1046.5,-377.5 1046.5,-358.5 953.5,-358.5"/>
<text text-anchor="middle" x="1000" y="-365.5" font-family="Helvetica,sans-Serif" font-size="10.00" fill="#000000">odp/api/abi/pool.h</text>
</g>
<!-- Node13&#45;&gt;Node17 -->
<g id="edge23" class="edge">
<title>Node13&#45;&gt;Node17</title>
<path fill="none" stroke="#191970" d="M707.9755,-416.9216C761.6545,-408.4162 854.4002,-393.54 943.4974,-378.2382"/>
<polygon fill="#191970" stroke="#191970" points="944.2388,-381.6621 953.4998,-376.5158 943.0508,-374.7637 944.2388,-381.6621"/>
</g>
<!-- Node18 -->
<g id="node19" class="node">
<title>Node18</title>
<g id="a_node19"><a xlink:href="spec_2packet_8h.html" target="_top" xlink:title="ODP packet descriptor. ">
<polygon fill="#ffffff" stroke="#000000" points="822.5,-358.5 822.5,-377.5 935.5,-377.5 935.5,-358.5 822.5,-358.5"/>
<text text-anchor="middle" x="879" y="-365.5" font-family="Helvetica,sans-Serif" font-size="10.00" fill="#000000">odp/api/spec/packet.h</text>
</a>
</g>
</g>
<!-- Node13&#45;&gt;Node18 -->
<g id="edge24" class="edge">
<title>Node13&#45;&gt;Node18</title>
<path fill="none" stroke="#191970" d="M700.1317,-414.3733C736.8267,-404.8598 793.0639,-390.2797 832.6651,-380.0127"/>
<polygon fill="#191970" stroke="#191970" points="833.5512,-383.3988 842.3528,-377.5011 831.7944,-376.6228 833.5512,-383.3988"/>
</g>
<!-- Node18&#45;&gt;Node1 -->
<g id="edge25" class="edge">
<title>Node18&#45;&gt;Node1</title>
<path fill="none" stroke="#191970" d="M822.357,-359.2756C752.3195,-348.2687 640.0947,-329.8328 622,-322 576.2367,-302.1901 563.9322,-293.3021 532,-255 504.3807,-221.8711 522.56,-195.0938 489,-168 438.0056,-126.8311 400.1436,-168.9293 346,-132 320.7318,-114.7656 315.3342,-105.127 306,-76 303.2873,-67.5352 300.356,-62.8672 306,-56 327.0797,-30.3518 413.8364,-18.7693 475.3016,-13.7054"/>
<polygon fill="#191970" stroke="#191970" points="475.6208,-17.1912 485.3161,-12.919 475.0727,-10.2127 475.6208,-17.1912"/>
</g>
<!-- Node18&#45;&gt;Node9 -->
<g id="edge32" class="edge">
<title>Node18&#45;&gt;Node9</title>
<path fill="none" stroke="#191970" d="M890.1834,-358.4272C925.5971,-327.7862 1037.4439,-228.4736 1114,-132 1137.233,-102.7226 1162.8727,-91.0889 1150,-56 1145.9432,-44.9418 1137.9203,-34.7193 1130.2006,-26.7335"/>
<polygon fill="#191970" stroke="#191970" points="1132.3698,-23.9632 1122.74,-19.5451 1127.5128,-29.0041 1132.3698,-23.9632"/>
</g>
<!-- Node19 -->
<g id="node20" class="node">
<title>Node19</title>
<g id="a_node20"><a xlink:href="time_8h.html" target="_top" xlink:title="ODP time. ">
<polygon fill="#ffffff" stroke="#000000" points="631,-297 631,-316 709,-316 709,-297 631,-297"/>
<text text-anchor="middle" x="670" y="-304" font-family="Helvetica,sans-Serif" font-size="10.00" fill="#000000">odp/api/time.h</text>
</a>
</g>
</g>
<!-- Node18&#45;&gt;Node19 -->
<g id="edge26" class="edge">
<title>Node18&#45;&gt;Node19</title>
<path fill="none" stroke="#191970" d="M846.3438,-358.3906C810.1472,-347.7395 751.6614,-330.5296 712.0625,-318.8772"/>
<polygon fill="#191970" stroke="#191970" points="713.0083,-315.5072 702.4269,-316.0419 711.0322,-322.2225 713.0083,-315.5072"/>
</g>
<!-- Node19&#45;&gt;Node2 -->
<g id="edge27" class="edge">
<title>Node19&#45;&gt;Node2</title>
<path fill="none" stroke="#191970" d="M630.8893,-298.2058C580.426,-287.5041 492.3394,-268.8237 435.1085,-256.6868"/>
<polygon fill="#191970" stroke="#191970" points="435.6569,-253.2253 425.1483,-254.5746 434.2047,-260.073 435.6569,-253.2253"/>
</g>
<!-- Node20 -->
<g id="node21" class="node">
<title>Node20</title>
<polygon fill="#ffffff" stroke="#bfbfbf" points="541,-235.5 541,-254.5 635,-254.5 635,-235.5 541,-235.5"/>
<text text-anchor="middle" x="588" y="-242.5" font-family="Helvetica,sans-Serif" font-size="10.00" fill="#000000">odp/api/abi/time.h</text>
</g>
<!-- Node19&#45;&gt;Node20 -->
<g id="edge28" class="edge">
<title>Node19&#45;&gt;Node20</title>
<path fill="none" stroke="#191970" d="M657.1875,-296.8906C644.3099,-287.2324 624.2416,-272.1812 609.028,-260.771"/>
<polygon fill="#191970" stroke="#191970" points="610.8226,-257.7419 600.7225,-254.5419 606.6225,-263.3419 610.8226,-257.7419"/>
</g>
<!-- Node21 -->
<g id="node22" class="node">
<title>Node21</title>
<g id="a_node22"><a xlink:href="spec_2time_8h.html" target="_top" xlink:title="ODP time. ">
<polygon fill="#ffffff" stroke="#000000" points="702,-56.5 702,-75.5 804,-75.5 804,-56.5 702,-56.5"/>
<text text-anchor="middle" x="753" y="-63.5" font-family="Helvetica,sans-Serif" font-size="10.00" fill="#000000">odp/api/spec/time.h</text>
</a>
</g>
</g>
<!-- Node19&#45;&gt;Node21 -->
<g id="edge29" class="edge">
<title>Node19&#45;&gt;Node21</title>
<path fill="none" stroke="#191970" d="M673.3565,-296.7742C685.819,-260.6631 729.5785,-133.8659 746.3707,-85.2091"/>
<polygon fill="#191970" stroke="#191970" points="749.7388,-86.178 749.6927,-75.5833 743.1218,-83.8943 749.7388,-86.178"/>
</g>
<!-- Node21&#45;&gt;Node1 -->
<g id="edge30" class="edge">
<title>Node21&#45;&gt;Node1</title>
<path fill="none" stroke="#191970" d="M716.2121,-56.3733C679.9339,-46.8799 624.3764,-32.3415 585.1554,-22.0781"/>
<polygon fill="#191970" stroke="#191970" points="585.8682,-18.6468 575.3079,-19.5011 584.096,-25.4188 585.8682,-18.6468"/>
</g>
<!-- Node21&#45;&gt;Node9 -->
<g id="edge31" class="edge">
<title>Node21&#45;&gt;Node9</title>
<path fill="none" stroke="#191970" d="M804.2927,-57.9766C869.3932,-47.7932 981.518,-30.2542 1050.6605,-19.4386"/>
<polygon fill="#191970" stroke="#191970" points="1051.6178,-22.8315 1060.9567,-17.828 1050.5359,-15.9156 1051.6178,-22.8315"/>
</g>
<!-- Node22&#45;&gt;Node2 -->
<g id="edge35" class="edge">
<title>Node22&#45;&gt;Node2</title>
<path fill="none" stroke="#191970" d="M743.7572,-643.9835C611.9237,-631.1638 224,-588.9435 224,-536 224,-536 224,-536 224,-424 224,-393.3494 223.8189,-381.069 244,-358 269.4052,-328.9593 293.0113,-346.279 323,-322 343.2073,-305.6401 359.9896,-280.5492 369.9952,-263.4901"/>
<polygon fill="#191970" stroke="#191970" points="373.2027,-264.9284 375.0779,-254.5008 367.1092,-261.483 373.2027,-264.9284"/>
</g>
<!-- Node22&#45;&gt;Node11 -->
<g id="edge36" class="edge">
<title>Node22&#45;&gt;Node11</title>
<path fill="none" stroke="#191970" d="M743.7321,-643.3833C650.0893,-632.1903 437,-599.7194 437,-536 437,-536 437,-536 437,-480 437,-429.6408 380.6697,-397.6082 340.7831,-381.2387"/>
<polygon fill="#191970" stroke="#191970" points="341.8802,-377.9093 331.293,-377.5075 339.3189,-384.4239 341.8802,-377.9093"/>
</g>
<!-- Node22&#45;&gt;Node16 -->
<g id="edge38" class="edge">
<title>Node22&#45;&gt;Node16</title>
<path fill="none" stroke="#191970" d="M779.2542,-638.4815C764.9871,-619.9535 736,-577.2353 736,-536 736,-536 736,-536 736,-480 736,-447.2193 727.5945,-409.8705 721.6819,-387.6533"/>
<polygon fill="#191970" stroke="#191970" points="724.991,-386.4878 718.9511,-377.7832 718.2445,-388.3545 724.991,-386.4878"/>
</g>
<!-- Node22&#45;&gt;Node17 -->
<g id="edge39" class="edge">
<title>Node22&#45;&gt;Node17</title>
<path fill="none" stroke="#191970" d="M793.8345,-638.3377C806.4231,-619.5638 832,-576.4436 832,-536 832,-536 832,-536 832,-480 832,-424.741 895.7031,-395.0681 944.655,-380.4238"/>
<polygon fill="#191970" stroke="#191970" points="945.879,-383.7144 954.5368,-377.6077 943.9604,-376.9825 945.879,-383.7144"/>
</g>
<!-- Node23 -->
<g id="node24" class="node">
<title>Node23</title>
<polygon fill="#ffffff" stroke="#bfbfbf" points="1087.5,-582.5 1087.5,-601.5 1188.5,-601.5 1188.5,-582.5 1087.5,-582.5"/>
<text text-anchor="middle" x="1138" y="-589.5" font-family="Helvetica,sans-Serif" font-size="10.00" fill="#000000">odp/api/abi/queue.h</text>
</g>
<!-- Node22&#45;&gt;Node23 -->
<g id="edge37" class="edge">
<title>Node22&#45;&gt;Node23</title>
<path fill="none" stroke="#191970" d="M830.4036,-641.255C885.3438,-632.6915 983.1746,-617.3574 1077.2899,-602.105"/>
<polygon fill="#191970" stroke="#191970" points="1077.9556,-605.5429 1087.2659,-600.4863 1076.8344,-598.6332 1077.9556,-605.5429"/>
</g>
<!-- Node24 -->
<g id="node25" class="node">
<title>Node24</title>
<g id="a_node25"><a xlink:href="spec_2queue_8h.html" target="_top" xlink:title="ODP queue. ">
<polygon fill="#ffffff" stroke="#000000" points="959,-582.5 959,-601.5 1069,-601.5 1069,-582.5 959,-582.5"/>
<text text-anchor="middle" x="1014" y="-589.5" font-family="Helvetica,sans-Serif" font-size="10.00" fill="#000000">odp/api/spec/queue.h</text>
</a>
</g>
</g>
<!-- Node22&#45;&gt;Node24 -->
<g id="edge40" class="edge">
<title>Node22&#45;&gt;Node24</title>
<path fill="none" stroke="#191970" d="M825.7648,-638.4369C864.3692,-628.9133 923.7384,-614.2672 965.4572,-603.9753"/>
<polygon fill="#191970" stroke="#191970" points="966.5245,-607.317 975.3951,-601.5237 964.8479,-600.5208 966.5245,-607.317"/>
</g>
<!-- Node24&#45;&gt;Node1 -->
<g id="edge41" class="edge">
<title>Node24&#45;&gt;Node1</title>
<path fill="none" stroke="#191970" d="M1023.5313,-582.4709C1040.6875,-564.2557 1075,-522.5114 1075,-480 1075,-480 1075,-480 1075,-424 1075,-393.4754 1076.1226,-380.9529 1056,-358 980.5561,-271.9448 921.1612,-308.5136 820,-255 778.6896,-233.1471 767.6438,-228.0058 731,-199 659.6623,-142.5318 585.8845,-62.7591 554.5606,-27.6978"/>
<polygon fill="#191970" stroke="#191970" points="556.7954,-24.9431 547.539,-19.7886 551.5607,-29.5905 556.7954,-24.9431"/>
</g>
<!-- Node24&#45;&gt;Node9 -->
<g id="edge59" class="edge">
<title>Node24&#45;&gt;Node9</title>
<path fill="none" stroke="#191970" d="M1059.2233,-582.4806C1084.5614,-575.4935 1115.6589,-564.0128 1139,-546 1241.7324,-466.7194 1306,-436.2666 1306,-306.5 1306,-306.5 1306,-306.5 1306,-122 1306,-59.0214 1228.5714,-30.941 1171.2951,-18.7846"/>
<polygon fill="#191970" stroke="#191970" points="1171.7104,-15.2982 1161.2173,-16.763 1170.3336,-22.1615 1171.7104,-15.2982"/>
</g>
<!-- Node24&#45;&gt;Node10 -->
<g id="edge42" class="edge">
<title>Node24&#45;&gt;Node10</title>
<path fill="none" stroke="#191970" d="M995.5362,-582.2455C978.8926,-573.4527 954.2007,-560.4079 935.2808,-550.4125"/>
<polygon fill="#191970" stroke="#191970" points="936.7291,-547.2193 926.2522,-545.6427 933.4592,-553.4086 936.7291,-547.2193"/>
</g>
<!-- Node25 -->
<g id="node26" class="node">
<title>Node25</title>
<g id="a_node26"><a xlink:href="queue__types_8h.html" target="_top" xlink:title="ODP queue types. ">
<polygon fill="#ffffff" stroke="#000000" points="1100.5,-291.5 1100.5,-321.5 1201.5,-321.5 1201.5,-291.5 1100.5,-291.5"/>
<text text-anchor="start" x="1108.5" y="-309.5" font-family="Helvetica,sans-Serif" font-size="10.00" fill="#000000">odp/api/spec/queue</text>
<text text-anchor="middle" x="1151" y="-298.5" font-family="Helvetica,sans-Serif" font-size="10.00" fill="#000000">_types.h</text>
</a>
</g>
</g>
<!-- Node24&#45;&gt;Node25 -->
<g id="edge43" class="edge">
<title>Node24&#45;&gt;Node25</title>
<path fill="none" stroke="#191970" d="M1045.4187,-582.45C1086.6954,-567.727 1154,-535.2492 1154,-480 1154,-480 1154,-480 1154,-424 1154,-392.2911 1152.8947,-355.7844 1152.0259,-331.9874"/>
<polygon fill="#191970" stroke="#191970" points="1155.5126,-331.5672 1151.6362,-321.707 1148.5176,-331.8324 1155.5126,-331.5672"/>
</g>
<!-- Node25&#45;&gt;Node1 -->
<g id="edge44" class="edge">
<title>Node25&#45;&gt;Node1</title>
<path fill="none" stroke="#191970" d="M1100.3376,-294.036C1095.502,-292.9619 1090.6644,-291.9313 1086,-291 987.5489,-271.3429 954.8642,-295.4967 863,-255 732.7335,-197.5744 728.1694,-138.2905 612,-56 596.4576,-44.9903 578.3462,-33.5696 564.0518,-24.862"/>
<polygon fill="#191970" stroke="#191970" points="565.6447,-21.7353 555.2749,-19.5633 562.0269,-27.728 565.6447,-21.7353"/>
</g>
<!-- Node25&#45;&gt;Node9 -->
<g id="edge58" class="edge">
<title>Node25&#45;&gt;Node9</title>
<path fill="none" stroke="#191970" d="M1130.8026,-291.232C1120.3584,-282.029 1108.6423,-269.3293 1103,-255 1099.7433,-246.7292 1101.5958,-243.7773 1103,-235 1107.9511,-204.0515 1103.9843,-191.2522 1125,-168 1151.4157,-138.7731 1184.5329,-165.0328 1206,-132 1224.406,-103.6776 1223.9403,-84.6197 1206,-56 1196.3181,-40.5548 1179.8162,-30.1672 1163.2563,-23.2389"/>
<polygon fill="#191970" stroke="#191970" points="1164.1415,-19.831 1153.5505,-19.5472 1161.6529,-26.3737 1164.1415,-19.831"/>
</g>
<!-- Node25&#45;&gt;Node26 -->
<g id="edge45" class="edge">
<title>Node25&#45;&gt;Node26</title>
<path fill="none" stroke="#191970" d="M1157.1798,-291.2977C1160.5054,-283.1166 1164.6411,-272.943 1168.1879,-264.2179"/>
<polygon fill="#191970" stroke="#191970" points="1171.4737,-265.4288 1171.9972,-254.8469 1164.989,-262.7927 1171.4737,-265.4288"/>
</g>
<!-- Node31 -->
<g id="node32" class="node">
<title>Node31</title>
<g id="a_node32"><a xlink:href="deprecated_8h.html" target="_top" xlink:title="Control deprecated API definitions. ">
<polygon fill="#ffffff" stroke="#000000" points="871.5,-235.5 871.5,-254.5 978.5,-254.5 978.5,-235.5 871.5,-235.5"/>
<text text-anchor="middle" x="925" y="-242.5" font-family="Helvetica,sans-Serif" font-size="10.00" fill="#000000">odp/api/deprecated.h</text>
</a>
</g>
</g>
<!-- Node25&#45;&gt;Node31 -->
<g id="edge54" class="edge">
<title>Node25&#45;&gt;Node31</title>
<path fill="none" stroke="#191970" d="M1100.2812,-292.6982C1061.0965,-282.0351 1007.3811,-267.4179 969.7766,-257.1848"/>
<polygon fill="#191970" stroke="#191970" points="970.6714,-253.8011 960.1032,-254.5524 968.8333,-260.5554 970.6714,-253.8011"/>
</g>
<!-- Node27 -->
<g id="node28" class="node">
<title>Node27</title>
<polygon fill="#ffffff" stroke="#bfbfbf" points="1134,-168.5 1134,-198.5 1240,-198.5 1240,-168.5 1134,-168.5"/>
<text text-anchor="start" x="1142" y="-186.5" font-family="Helvetica,sans-Serif" font-size="10.00" fill="#000000">odp/api/abi/schedule</text>
<text text-anchor="middle" x="1187" y="-175.5" font-family="Helvetica,sans-Serif" font-size="10.00" fill="#000000">_types.h</text>
</g>
<!-- Node26&#45;&gt;Node27 -->
<g id="edge46" class="edge">
<title>Node26&#45;&gt;Node27</title>
<path fill="none" stroke="#191970" d="M1177.7188,-235.3906C1179.0007,-228.2234 1180.8138,-218.0862 1182.4979,-208.671"/>
<polygon fill="#191970" stroke="#191970" points="1185.9937,-209.0046 1184.3091,-198.5446 1179.103,-207.7721 1185.9937,-209.0046"/>
</g>
<!-- Node28 -->
<g id="node29" class="node">
<title>Node28</title>
<g id="a_node29"><a xlink:href="spec_2schedule__types_8h.html" target="_top" xlink:title="ODP schedule types. ">
<polygon fill="#ffffff" stroke="#000000" points="926,-168.5 926,-198.5 1040,-198.5 1040,-168.5 926,-168.5"/>
<text text-anchor="start" x="934" y="-186.5" font-family="Helvetica,sans-Serif" font-size="10.00" fill="#000000">odp/api/spec/schedule</text>
<text text-anchor="middle" x="983" y="-175.5" font-family="Helvetica,sans-Serif" font-size="10.00" fill="#000000">_types.h</text>
</a>
</g>
</g>
<!-- Node26&#45;&gt;Node28 -->
<g id="edge47" class="edge">
<title>Node26&#45;&gt;Node28</title>
<path fill="none" stroke="#191970" d="M1145.8438,-235.3906C1117.5469,-226.3737 1074.4988,-212.6563 1039.769,-201.5896"/>
<polygon fill="#191970" stroke="#191970" points="1040.8037,-198.246 1030.2131,-198.5446 1038.6784,-204.9156 1040.8037,-198.246"/>
</g>
<!-- Node28&#45;&gt;Node1 -->
<g id="edge48" class="edge">
<title>Node28&#45;&gt;Node1</title>
<path fill="none" stroke="#191970" d="M938.8468,-168.3764C881.6214,-148.4926 778.9811,-111.8637 693,-76 673.5472,-67.886 669.2956,-64.481 650,-56 624.0492,-44.5939 594.3721,-32.3354 572.237,-23.3435"/>
<polygon fill="#191970" stroke="#191970" points="573.5248,-20.089 562.9423,-19.5795 570.8974,-26.5772 573.5248,-20.089"/>
</g>
<!-- Node28&#45;&gt;Node9 -->
<g id="edge53" class="edge">
<title>Node28&#45;&gt;Node9</title>
<path fill="none" stroke="#191970" d="M1025.7236,-168.4693C1063.6461,-152.3798 1115.9145,-122.6701 1135,-76 1141.5245,-60.0455 1133.5233,-41.5843 1125.0502,-28.2506"/>
<polygon fill="#191970" stroke="#191970" points="1127.8564,-26.1553 1119.2814,-19.9327 1122.1043,-30.1446 1127.8564,-26.1553"/>
</g>
<!-- Node29 -->
<g id="node30" class="node">
<title>Node29</title>
<g id="a_node30"><a xlink:href="support_8h.html" target="_top" xlink:title="ODP support API &#45; platform specific header. ">
<polygon fill="#ffffff" stroke="#000000" points="979,-112.5 979,-131.5 1071,-131.5 1071,-112.5 979,-112.5"/>
<text text-anchor="middle" x="1025" y="-119.5" font-family="Helvetica,sans-Serif" font-size="10.00" fill="#000000">odp/api/support.h</text>
</a>
</g>
</g>
<!-- Node28&#45;&gt;Node29 -->
<g id="edge49" class="edge">
<title>Node28&#45;&gt;Node29</title>
<path fill="none" stroke="#191970" d="M993.382,-168.2977C999.1513,-159.8498 1006.3716,-149.2773 1012.4553,-140.369"/>
<polygon fill="#191970" stroke="#191970" points="1015.5259,-142.0788 1018.2753,-131.8469 1009.7453,-138.1311 1015.5259,-142.0788"/>
</g>
<!-- Node30 -->
<g id="node31" class="node">
<title>Node30</title>
<g id="a_node31"><a xlink:href="spec_2support_8h.html" target="_top" xlink:title="ODP support API. ">
<polygon fill="#ffffff" stroke="#000000" points="1010,-56.5 1010,-75.5 1126,-75.5 1126,-56.5 1010,-56.5"/>
<text text-anchor="middle" x="1068" y="-63.5" font-family="Helvetica,sans-Serif" font-size="10.00" fill="#000000">odp/api/spec/support.h</text>
</a>
</g>
</g>
<!-- Node29&#45;&gt;Node30 -->
<g id="edge50" class="edge">
<title>Node29&#45;&gt;Node30</title>
<path fill="none" stroke="#191970" d="M1032.49,-112.2455C1038.5326,-104.3761 1047.1903,-93.101 1054.4441,-83.6542"/>
<polygon fill="#191970" stroke="#191970" points="1057.2815,-85.7058 1060.5958,-75.6427 1051.7295,-81.4426 1057.2815,-85.7058"/>
</g>
<!-- Node30&#45;&gt;Node1 -->
<g id="edge51" class="edge">
<title>Node30&#45;&gt;Node1</title>
<path fill="none" stroke="#191970" d="M1009.9192,-57.1536C1006.9046,-56.7501 1003.9177,-56.3628 1001,-56 859.2333,-38.3735 692.3244,-23.1054 603.0347,-15.3785"/>
<polygon fill="#191970" stroke="#191970" points="603.0638,-11.8681 592.8001,-14.4965 602.4627,-18.8423 603.0638,-11.8681"/>
</g>
<!-- Node30&#45;&gt;Node9 -->
<g id="edge52" class="edge">
<title>Node30&#45;&gt;Node9</title>
<path fill="none" stroke="#191970" d="M1075.49,-56.2455C1081.5326,-48.3761 1090.1903,-37.101 1097.4441,-27.6542"/>
<polygon fill="#191970" stroke="#191970" points="1100.2815,-29.7058 1103.5958,-19.6427 1094.7295,-25.4426 1100.2815,-29.7058"/>
</g>
<!-- Node32 -->
<g id="node33" class="node">
<title>Node32</title>
<g id="a_node33"><a xlink:href="spec_2deprecated_8h.html" target="_top" xlink:title="Macro for deprecated API definitions. ">
<polygon fill="#ffffff" stroke="#000000" points="860.5,-56.5 860.5,-75.5 991.5,-75.5 991.5,-56.5 860.5,-56.5"/>
<text text-anchor="middle" x="926" y="-63.5" font-family="Helvetica,sans-Serif" font-size="10.00" fill="#000000">odp/api/spec/deprecated.h</text>
</a>
</g>
</g>
<!-- Node31&#45;&gt;Node32 -->
<g id="edge55" class="edge">
<title>Node31&#45;&gt;Node32</title>
<path fill="none" stroke="#191970" d="M922.7893,-235.1936C920.8202,-225.9241 918.0874,-211.5985 917,-199 913.533,-158.8297 918.9531,-111.7373 922.7699,-85.7487"/>
<polygon fill="#191970" stroke="#191970" points="926.2562,-86.1058 924.3251,-75.6884 919.3384,-85.0363 926.2562,-86.1058"/>
</g>
<!-- Node32&#45;&gt;Node1 -->
<g id="edge56" class="edge">
<title>Node32&#45;&gt;Node1</title>
<path fill="none" stroke="#191970" d="M860.3507,-56.5004C788.514,-46.1054 674.1244,-29.5529 602.9623,-19.2555"/>
<polygon fill="#191970" stroke="#191970" points="603.185,-15.7514 592.7869,-17.7831 602.1825,-22.6792 603.185,-15.7514"/>
</g>
<!-- Node32&#45;&gt;Node9 -->
<g id="edge57" class="edge">
<title>Node32&#45;&gt;Node9</title>
<path fill="none" stroke="#191970" d="M957.8026,-56.3733C988.8317,-46.9807 1036.1754,-32.6496 1070.0147,-22.4064"/>
<polygon fill="#191970" stroke="#191970" points="1071.0553,-25.7483 1079.6124,-19.5011 1069.0272,-19.0485 1071.0553,-25.7483"/>
</g>
<!-- Node34 -->
<g id="node35" class="node">
<title>Node34</title>
<polygon fill="#ffffff" stroke="#bfbfbf" points="66,-297 66,-316 176,-316 176,-297 66,-297"/>
<text text-anchor="middle" x="121" y="-304" font-family="Helvetica,sans-Serif" font-size="10.00" fill="#000000">odp/api/abi/thrmask.h</text>
</g>
<!-- Node33&#45;&gt;Node34 -->
<g id="edge62" class="edge">
<title>Node33&#45;&gt;Node34</title>
<path fill="none" stroke="#191970" d="M143.7813,-358.3906C139.9204,-349.5965 134.0966,-336.3312 129.3039,-325.4145"/>
<polygon fill="#191970" stroke="#191970" points="132.5029,-323.9943 125.2782,-316.2449 126.0934,-326.8083 132.5029,-323.9943"/>
</g>
<!-- Node35 -->
<g id="node36" class="node">
<title>Node35</title>
<g id="a_node36"><a xlink:href="spec_2thrmask_8h.html" target="_top" xlink:title="ODP thread masks. ">
<polygon fill="#ffffff" stroke="#000000" points="194.5,-297 194.5,-316 313.5,-316 313.5,-297 194.5,-297"/>
<text text-anchor="middle" x="254" y="-304" font-family="Helvetica,sans-Serif" font-size="10.00" fill="#000000">odp/api/spec/thrmask.h</text>
</a>
</g>
</g>
<!-- Node33&#45;&gt;Node35 -->
<g id="edge63" class="edge">
<title>Node33&#45;&gt;Node35</title>
<path fill="none" stroke="#191970" d="M164.5625,-358.3906C181.7537,-348.4165 208.8582,-332.6908 228.7266,-321.1633"/>
<polygon fill="#191970" stroke="#191970" points="230.6606,-324.0877 237.5538,-316.0419 227.1477,-318.033 230.6606,-324.0877"/>
</g>
<!-- Node35&#45;&gt;Node1 -->
<g id="edge64" class="edge">
<title>Node35&#45;&gt;Node1</title>
<path fill="none" stroke="#191970" d="M228.6075,-296.9004C189.5013,-280.2711 119,-242.1575 119,-183.5 119,-183.5 119,-183.5 119,-122 119,-49.204 357.5374,-22.5194 475.0781,-13.7892"/>
<polygon fill="#191970" stroke="#191970" points="475.6575,-17.2566 485.3801,-13.0471 475.1544,-10.2747 475.6575,-17.2566"/>
</g>
<!-- Node35&#45;&gt;Node2 -->
<g id="edge65" class="edge">
<title>Node35&#45;&gt;Node2</title>
<path fill="none" stroke="#191970" d="M273.6875,-296.8906C294.4922,-286.7359 327.511,-270.6196 351.2319,-259.0416"/>
<polygon fill="#191970" stroke="#191970" points="352.9993,-262.0736 360.4507,-254.5419 349.9288,-255.783 352.9993,-262.0736"/>
</g>
<!-- Node35&#45;&gt;Node9 -->
<g id="edge66" class="edge">
<title>Node35&#45;&gt;Node9</title>
<path fill="none" stroke="#191970" d="M255.5236,-296.9129C260.1128,-271.4169 276.2844,-201.5994 320,-168 331.0453,-159.5106 799.8171,-80.5033 813,-76 831.4338,-69.703 833.5389,-62.2166 852,-56 918.0732,-33.7506 997.4468,-21.6791 1050.7615,-15.5588"/>
<polygon fill="#191970" stroke="#191970" points="1051.1832,-19.0336 1060.7345,-14.4485 1050.4086,-12.0766 1051.1832,-19.0336"/>
</g>
</g>
</svg>
