<?xml version="1.0" encoding="UTF-8" standalone="no"?>
<!DOCTYPE svg PUBLIC "-//W3C//DTD SVG 1.1//EN"
 "http://www.w3.org/Graphics/SVG/1.1/DTD/svg11.dtd">
<!-- Generated by graphviz version 2.40.1 (20161225.0304)
 -->
<!-- Title: packet.h Pages: 1 -->
<svg width="306pt" height="644pt"
 viewBox="0.00 0.00 305.50 644.00" xmlns="http://www.w3.org/2000/svg" xmlns:xlink="http://www.w3.org/1999/xlink">
<g id="graph0" class="graph" transform="scale(1 1) rotate(0) translate(4 640)">
<title>packet.h</title>
<polygon fill="#ffffff" stroke="transparent" points="-4,4 -4,-640 301.5,-640 301.5,4 -4,4"/>
<!-- Node13 -->
<g id="node1" class="node">
<title>Node13</title>
<polygon fill="#bfbfbf" stroke="#000000" points="107,-616.5 107,-635.5 161,-635.5 161,-616.5 107,-616.5"/>
<text text-anchor="middle" x="134" y="-623.5" font-family="Helvetica,sans-Serif" font-size="10.00" fill="#000000">packet.h</text>
</g>
<!-- Node14 -->
<g id="node2" class="node">
<title>Node14</title>
<g id="a_node2"><a xlink:href="packet_8h.html" target="_top" xlink:title="ODP packet descriptor. ">
<polygon fill="#ffffff" stroke="#000000" points="107,-560.5 107,-579.5 161,-579.5 161,-560.5 107,-560.5"/>
<text text-anchor="middle" x="134" y="-567.5" font-family="Helvetica,sans-Serif" font-size="10.00" fill="#000000">packet.h</text>
</a>
</g>
</g>
<!-- Node13&#45;&gt;Node14 -->
<g id="edge1" class="edge">
<title>Node13&#45;&gt;Node14</title>
<path fill="none" stroke="#191970" d="M134,-606.1575C134,-597.155 134,-586.9199 134,-579.6427"/>
<polygon fill="#191970" stroke="#191970" points="130.5001,-606.2455 134,-616.2455 137.5001,-606.2456 130.5001,-606.2455"/>
</g>
<!-- Node15 -->
<g id="node3" class="node">
<title>Node15</title>
<g id="a_node3"><a xlink:href="spec_2comp_8h.html" target="_top" xlink:title="ODP Compression. ">
<polygon fill="#ffffff" stroke="#000000" points="3.5,-504.5 3.5,-523.5 52.5,-523.5 52.5,-504.5 3.5,-504.5"/>
<text text-anchor="middle" x="28" y="-511.5" font-family="Helvetica,sans-Serif" font-size="10.00" fill="#000000">comp.h</text>
</a>
</g>
</g>
<!-- Node14&#45;&gt;Node15 -->
<g id="edge2" class="edge">
<title>Node14&#45;&gt;Node15</title>
<path fill="none" stroke="#191970" d="M106.4778,-555.46C87.5092,-545.4388 62.8273,-532.3993 46.2522,-523.6427"/>
<polygon fill="#191970" stroke="#191970" points="105.0593,-558.669 115.5362,-560.2455 108.3292,-552.4796 105.0593,-558.669"/>
</g>
<!-- Node17 -->
<g id="node5" class="node">
<title>Node17</title>
<g id="a_node5"><a xlink:href="spec_2crypto_8h.html" target="_top" xlink:title="ODP crypto. ">
<polygon fill="#ffffff" stroke="#000000" points="0,-392.5 0,-411.5 52,-411.5 52,-392.5 0,-392.5"/>
<text text-anchor="middle" x="26" y="-399.5" font-family="Helvetica,sans-Serif" font-size="10.00" fill="#000000">crypto.h</text>
</a>
</g>
</g>
<!-- Node14&#45;&gt;Node17 -->
<g id="edge4" class="edge">
<title>Node14&#45;&gt;Node17</title>
<path fill="none" stroke="#191970" d="M120.029,-552.5101C113.5952,-544.1122 106.0619,-533.7703 100,-524 79.9842,-491.7393 81.2397,-480.1206 61,-448 52.6544,-434.7555 41.4832,-420.5712 34.0291,-411.5107"/>
<polygon fill="#191970" stroke="#191970" points="117.3161,-554.7228 126.228,-560.4526 122.8343,-550.4159 117.3161,-554.7228"/>
</g>
<!-- Node21 -->
<g id="node9" class="node">
<title>Node21</title>
<g id="a_node9"><a xlink:href="spec_2event_8h.html" target="_top" xlink:title="ODP event. ">
<polygon fill="#ffffff" stroke="#000000" points="109.5,-504.5 109.5,-523.5 158.5,-523.5 158.5,-504.5 109.5,-504.5"/>
<text text-anchor="middle" x="134" y="-511.5" font-family="Helvetica,sans-Serif" font-size="10.00" fill="#000000">event.h</text>
</a>
</g>
</g>
<!-- Node14&#45;&gt;Node21 -->
<g id="edge8" class="edge">
<title>Node14&#45;&gt;Node21</title>
<path fill="none" stroke="#191970" d="M134,-550.1575C134,-541.155 134,-530.9199 134,-523.6427"/>
<polygon fill="#191970" stroke="#191970" points="130.5001,-550.2455 134,-560.2455 137.5001,-550.2456 130.5001,-550.2455"/>
</g>
<!-- Node25 -->
<g id="node13" class="node">
<title>Node25</title>
<g id="a_node13"><a xlink:href="spec_2packet__io_8h.html" target="_top" xlink:title="ODP Packet IO. ">
<polygon fill="#ffffff" stroke="#000000" points="154.5,-280.5 154.5,-299.5 221.5,-299.5 221.5,-280.5 154.5,-280.5"/>
<text text-anchor="middle" x="188" y="-287.5" font-family="Helvetica,sans-Serif" font-size="10.00" fill="#000000">packet_io.h</text>
</a>
</g>
</g>
<!-- Node14&#45;&gt;Node25 -->
<g id="edge27" class="edge">
<title>Node14&#45;&gt;Node25</title>
<path fill="none" stroke="#191970" d="M149.0375,-552.6444C155.5836,-544.399 162.9064,-534.1435 168,-524 181.7546,-496.609 188,-488.6506 188,-458 188,-458 188,-458 188,-402 188,-364.0833 188,-318.9462 188,-299.5884"/>
<polygon fill="#191970" stroke="#191970" points="146.2865,-550.4792 142.623,-560.4205 151.6864,-554.9336 146.2865,-550.4792"/>
</g>
<!-- Node33 -->
<g id="node21" class="node">
<title>Node33</title>
<g id="a_node21"><a xlink:href="spec_2packet__flags_8h.html" target="_top" xlink:title="ODP packet flags. ">
<polygon fill="#ffffff" stroke="#000000" points="216,-504.5 216,-523.5 296,-523.5 296,-504.5 216,-504.5"/>
<text text-anchor="middle" x="256" y="-511.5" font-family="Helvetica,sans-Serif" font-size="10.00" fill="#000000">packet_flags.h</text>
</a>
</g>
</g>
<!-- Node14&#45;&gt;Node33 -->
<g id="edge25" class="edge">
<title>Node14&#45;&gt;Node33</title>
<path fill="none" stroke="#191970" d="M164.2584,-556.1109C186.3819,-545.9559 215.8094,-532.4482 235.3011,-523.5011"/>
<polygon fill="#191970" stroke="#191970" points="162.6007,-553.0206 154.9725,-560.3733 165.521,-559.3824 162.6007,-553.0206"/>
</g>
<!-- Node16 -->
<g id="node4" class="node">
<title>Node16</title>
<g id="a_node4"><a xlink:href="comp_8h.html" target="_top" xlink:title="ODP crypto. ">
<polygon fill="#ffffff" stroke="#000000" points="3.5,-448.5 3.5,-467.5 52.5,-467.5 52.5,-448.5 3.5,-448.5"/>
<text text-anchor="middle" x="28" y="-455.5" font-family="Helvetica,sans-Serif" font-size="10.00" fill="#000000">comp.h</text>
</a>
</g>
</g>
<!-- Node15&#45;&gt;Node16 -->
<g id="edge3" class="edge">
<title>Node15&#45;&gt;Node16</title>
<path fill="none" stroke="#191970" d="M28,-494.1575C28,-485.155 28,-474.9199 28,-467.6427"/>
<polygon fill="#191970" stroke="#191970" points="24.5001,-494.2455 28,-504.2455 31.5001,-494.2456 24.5001,-494.2455"/>
</g>
<!-- Node18 -->
<g id="node6" class="node">
<title>Node18</title>
<g id="a_node6"><a xlink:href="crypto_8h.html" target="_top" xlink:title="ODP crypto. ">
<polygon fill="#ffffff" stroke="#000000" points="2,-280.5 2,-299.5 54,-299.5 54,-280.5 2,-280.5"/>
<text text-anchor="middle" x="28" y="-287.5" font-family="Helvetica,sans-Serif" font-size="10.00" fill="#000000">crypto.h</text>
</a>
</g>
</g>
<!-- Node17&#45;&gt;Node18 -->
<g id="edge5" class="edge">
<title>Node17&#45;&gt;Node18</title>
<path fill="none" stroke="#191970" d="M26.3523,-382.2702C26.7857,-357.9985 27.5041,-317.7725 27.8299,-299.5249"/>
<polygon fill="#191970" stroke="#191970" points="22.8497,-382.39 26.1705,-392.4509 29.8486,-382.5151 22.8497,-382.39"/>
</g>
<!-- Node19 -->
<g id="node7" class="node">
<title>Node19</title>
<g id="a_node7"><a xlink:href="spec_2ipsec_8h.html" target="_top" xlink:title="ODP IPSEC API. ">
<polygon fill="#ffffff" stroke="#000000" points="102,-56.5 102,-75.5 150,-75.5 150,-56.5 102,-56.5"/>
<text text-anchor="middle" x="126" y="-63.5" font-family="Helvetica,sans-Serif" font-size="10.00" fill="#000000">ipsec.h</text>
</a>
</g>
</g>
<!-- Node18&#45;&gt;Node19 -->
<g id="edge6" class="edge">
<title>Node18&#45;&gt;Node19</title>
<path fill="none" stroke="#191970" d="M34.9941,-270.3473C47.018,-237.1523 72.9367,-168.1093 100,-112 106.2171,-99.1104 114.5119,-84.8484 120.0435,-75.6731"/>
<polygon fill="#191970" stroke="#191970" points="31.556,-269.5655 31.4675,-280.16 38.1435,-271.933 31.556,-269.5655"/>
</g>
<!-- Node20 -->
<g id="node8" class="node">
<title>Node20</title>
<g id="a_node8"><a xlink:href="ipsec_8h.html" target="_top" xlink:title="ODP IPSEC API &#45; platform specific header. ">
<polygon fill="#ffffff" stroke="#000000" points="102,-.5 102,-19.5 150,-19.5 150,-.5 102,-.5"/>
<text text-anchor="middle" x="126" y="-7.5" font-family="Helvetica,sans-Serif" font-size="10.00" fill="#000000">ipsec.h</text>
</a>
</g>
</g>
<!-- Node19&#45;&gt;Node20 -->
<g id="edge7" class="edge">
<title>Node19&#45;&gt;Node20</title>
<path fill="none" stroke="#191970" d="M126,-46.1575C126,-37.155 126,-26.9199 126,-19.6427"/>
<polygon fill="#191970" stroke="#191970" points="122.5001,-46.2455 126,-56.2455 129.5001,-46.2456 122.5001,-46.2455"/>
</g>
<!-- Node22 -->
<g id="node10" class="node">
<title>Node22</title>
<g id="a_node10"><a xlink:href="event_8h.html" target="_top" xlink:title="ODP event. ">
<polygon fill="#ffffff" stroke="#000000" points="109.5,-448.5 109.5,-467.5 158.5,-467.5 158.5,-448.5 109.5,-448.5"/>
<text text-anchor="middle" x="134" y="-455.5" font-family="Helvetica,sans-Serif" font-size="10.00" fill="#000000">event.h</text>
</a>
</g>
</g>
<!-- Node21&#45;&gt;Node22 -->
<g id="edge9" class="edge">
<title>Node21&#45;&gt;Node22</title>
<path fill="none" stroke="#191970" d="M134,-494.1575C134,-485.155 134,-474.9199 134,-467.6427"/>
<polygon fill="#191970" stroke="#191970" points="130.5001,-494.2455 134,-504.2455 137.5001,-494.2456 130.5001,-494.2455"/>
</g>
<!-- Node23 -->
<g id="node11" class="node">
<title>Node23</title>
<g id="a_node11"><a xlink:href="spec_2queue_8h.html" target="_top" xlink:title="ODP queue. ">
<polygon fill="#ffffff" stroke="#000000" points="108.5,-392.5 108.5,-411.5 159.5,-411.5 159.5,-392.5 108.5,-392.5"/>
<text text-anchor="middle" x="134" y="-399.5" font-family="Helvetica,sans-Serif" font-size="10.00" fill="#000000">queue.h</text>
</a>
</g>
</g>
<!-- Node22&#45;&gt;Node23 -->
<g id="edge10" class="edge">
<title>Node22&#45;&gt;Node23</title>
<path fill="none" stroke="#191970" d="M134,-438.1575C134,-429.155 134,-418.9199 134,-411.6427"/>
<polygon fill="#191970" stroke="#191970" points="130.5001,-438.2455 134,-448.2455 137.5001,-438.2456 130.5001,-438.2455"/>
</g>
<!-- Node31 -->
<g id="node19" class="node">
<title>Node31</title>
<g id="a_node19"><a xlink:href="spec_2schedule_8h.html" target="_top" xlink:title="ODP schedule. ">
<polygon fill="#ffffff" stroke="#000000" points="72,-280.5 72,-299.5 136,-299.5 136,-280.5 72,-280.5"/>
<text text-anchor="middle" x="104" y="-287.5" font-family="Helvetica,sans-Serif" font-size="10.00" fill="#000000">schedule.h</text>
</a>
</g>
</g>
<!-- Node22&#45;&gt;Node31 -->
<g id="edge24" class="edge">
<title>Node22&#45;&gt;Node31</title>
<path fill="none" stroke="#191970" d="M116.5202,-440.6744C109.6535,-432.6644 102.5695,-422.5862 99,-412 85.5216,-372.0265 96.0192,-320.4792 101.3621,-299.5062"/>
<polygon fill="#191970" stroke="#191970" points="114.0981,-443.2114 123.441,-448.2076 119.253,-438.4756 114.0981,-443.2114"/>
</g>
<!-- Node24 -->
<g id="node12" class="node">
<title>Node24</title>
<g id="a_node12"><a xlink:href="queue_8h.html" target="_top" xlink:title="ODP queue. ">
<polygon fill="#ffffff" stroke="#000000" points="108.5,-336.5 108.5,-355.5 159.5,-355.5 159.5,-336.5 108.5,-336.5"/>
<text text-anchor="middle" x="134" y="-343.5" font-family="Helvetica,sans-Serif" font-size="10.00" fill="#000000">queue.h</text>
</a>
</g>
</g>
<!-- Node23&#45;&gt;Node24 -->
<g id="edge11" class="edge">
<title>Node23&#45;&gt;Node24</title>
<path fill="none" stroke="#191970" d="M134,-382.1575C134,-373.155 134,-362.9199 134,-355.6427"/>
<polygon fill="#191970" stroke="#191970" points="130.5001,-382.2455 134,-392.2455 137.5001,-382.2456 130.5001,-382.2455"/>
</g>
<!-- Node24&#45;&gt;Node18 -->
<g id="edge12" class="edge">
<title>Node24&#45;&gt;Node18</title>
<path fill="none" stroke="#191970" d="M106.4778,-331.46C87.5092,-321.4388 62.8273,-308.3993 46.2522,-299.6427"/>
<polygon fill="#191970" stroke="#191970" points="105.0593,-334.669 115.5362,-336.2455 108.3292,-328.4796 105.0593,-334.669"/>
</g>
<!-- Node24&#45;&gt;Node25 -->
<g id="edge13" class="edge">
<title>Node24&#45;&gt;Node25</title>
<path fill="none" stroke="#191970" d="M150.5969,-328.7884C159.8347,-319.2085 170.9904,-307.6396 178.7017,-299.6427"/>
<polygon fill="#191970" stroke="#191970" points="147.828,-326.6176 143.4061,-336.2455 152.8669,-331.4766 147.828,-326.6176"/>
</g>
<!-- Node24&#45;&gt;Node31 -->
<g id="edge22" class="edge">
<title>Node24&#45;&gt;Node31</title>
<path fill="none" stroke="#191970" d="M124.002,-327.3372C119.0324,-318.0605 113.2356,-307.2398 109.1657,-299.6427"/>
<polygon fill="#191970" stroke="#191970" points="120.9669,-329.0835 128.7744,-336.2455 127.1373,-325.7779 120.9669,-329.0835"/>
</g>
<!-- Node26 -->
<g id="node14" class="node">
<title>Node26</title>
<g id="a_node14"><a xlink:href="packet__io_8h.html" target="_top" xlink:title="ODP Packet IO. ">
<polygon fill="#ffffff" stroke="#000000" points="154.5,-224.5 154.5,-243.5 221.5,-243.5 221.5,-224.5 154.5,-224.5"/>
<text text-anchor="middle" x="188" y="-231.5" font-family="Helvetica,sans-Serif" font-size="10.00" fill="#000000">packet_io.h</text>
</a>
</g>
</g>
<!-- Node25&#45;&gt;Node26 -->
<g id="edge14" class="edge">
<title>Node25&#45;&gt;Node26</title>
<path fill="none" stroke="#191970" d="M188,-270.1575C188,-261.155 188,-250.9199 188,-243.6427"/>
<polygon fill="#191970" stroke="#191970" points="184.5001,-270.2455 188,-280.2455 191.5001,-270.2456 184.5001,-270.2455"/>
</g>
<!-- Node26&#45;&gt;Node19 -->
<g id="edge18" class="edge">
<title>Node26&#45;&gt;Node19</title>
<path fill="none" stroke="#191970" d="M148.6541,-220.2109C134.1516,-212.9946 119.2586,-202.5537 111,-188 89.9361,-150.8799 110.9398,-97.2971 121.1369,-75.6308"/>
<polygon fill="#191970" stroke="#191970" points="147.5034,-223.5329 158.0542,-224.4983 150.4083,-217.1641 147.5034,-223.5329"/>
</g>
<!-- Node27 -->
<g id="node15" class="node">
<title>Node27</title>
<g id="a_node15"><a xlink:href="spec_2classification_8h.html" target="_top" xlink:title="ODP classification descriptor. ">
<polygon fill="#ffffff" stroke="#000000" points="120,-168.5 120,-187.5 202,-187.5 202,-168.5 120,-168.5"/>
<text text-anchor="middle" x="161" y="-175.5" font-family="Helvetica,sans-Serif" font-size="10.00" fill="#000000">classification.h</text>
</a>
</g>
</g>
<!-- Node26&#45;&gt;Node27 -->
<g id="edge15" class="edge">
<title>Node26&#45;&gt;Node27</title>
<path fill="none" stroke="#191970" d="M178.8604,-215.0437C174.4195,-205.8331 169.2735,-195.1598 165.6491,-187.6427"/>
<polygon fill="#191970" stroke="#191970" points="175.8012,-216.7579 183.297,-224.2455 182.1066,-213.7178 175.8012,-216.7579"/>
</g>
<!-- Node29 -->
<g id="node17" class="node">
<title>Node29</title>
<g id="a_node17"><a xlink:href="spec_2traffic__mngr_8h.html" target="_top" xlink:title="Copyright (c) 2015&#45;2018, Linaro Limited All rights reserved. ">
<polygon fill="#ffffff" stroke="#000000" points="220.5,-168.5 220.5,-187.5 297.5,-187.5 297.5,-168.5 220.5,-168.5"/>
<text text-anchor="middle" x="259" y="-175.5" font-family="Helvetica,sans-Serif" font-size="10.00" fill="#000000">traffic_mngr.h</text>
</a>
</g>
</g>
<!-- Node26&#45;&gt;Node29 -->
<g id="edge19" class="edge">
<title>Node26&#45;&gt;Node29</title>
<path fill="none" stroke="#191970" d="M208.377,-217.928C220.7871,-208.1397 236.23,-195.9595 246.7745,-187.6427"/>
<polygon fill="#191970" stroke="#191970" points="206.0514,-215.3046 200.3673,-224.2455 210.3864,-220.8007 206.0514,-215.3046"/>
</g>
<!-- Node28 -->
<g id="node16" class="node">
<title>Node28</title>
<g id="a_node16"><a xlink:href="classification_8h.html" target="_top" xlink:title="ODP classification descriptor. ">
<polygon fill="#ffffff" stroke="#000000" points="120,-112.5 120,-131.5 202,-131.5 202,-112.5 120,-112.5"/>
<text text-anchor="middle" x="161" y="-119.5" font-family="Helvetica,sans-Serif" font-size="10.00" fill="#000000">classification.h</text>
</a>
</g>
</g>
<!-- Node27&#45;&gt;Node28 -->
<g id="edge16" class="edge">
<title>Node27&#45;&gt;Node28</title>
<path fill="none" stroke="#191970" d="M161,-158.1575C161,-149.155 161,-138.9199 161,-131.6427"/>
<polygon fill="#191970" stroke="#191970" points="157.5001,-158.2455 161,-168.2455 164.5001,-158.2456 157.5001,-158.2455"/>
</g>
<!-- Node28&#45;&gt;Node19 -->
<g id="edge17" class="edge">
<title>Node28&#45;&gt;Node19</title>
<path fill="none" stroke="#191970" d="M149.5185,-103.6296C143.6804,-94.2887 136.8248,-83.3197 132.0267,-75.6427"/>
<polygon fill="#191970" stroke="#191970" points="146.6354,-105.6206 154.9035,-112.2455 152.5714,-101.9105 146.6354,-105.6206"/>
</g>
<!-- Node30 -->
<g id="node18" class="node">
<title>Node30</title>
<g id="a_node18"><a xlink:href="traffic__mngr_8h.html" target="_top" xlink:title="ODP Traffic manager. ">
<polygon fill="#ffffff" stroke="#000000" points="220.5,-112.5 220.5,-131.5 297.5,-131.5 297.5,-112.5 220.5,-112.5"/>
<text text-anchor="middle" x="259" y="-119.5" font-family="Helvetica,sans-Serif" font-size="10.00" fill="#000000">traffic_mngr.h</text>
</a>
</g>
</g>
<!-- Node29&#45;&gt;Node30 -->
<g id="edge20" class="edge">
<title>Node29&#45;&gt;Node30</title>
<path fill="none" stroke="#191970" d="M259,-158.1575C259,-149.155 259,-138.9199 259,-131.6427"/>
<polygon fill="#191970" stroke="#191970" points="255.5001,-158.2455 259,-168.2455 262.5001,-158.2456 255.5001,-158.2455"/>
</g>
<!-- Node30&#45;&gt;Node19 -->
<g id="edge21" class="edge">
<title>Node30&#45;&gt;Node19</title>
<path fill="none" stroke="#191970" d="M226.6603,-108.3833C202.4715,-98.1985 170.005,-84.5284 148.5652,-75.5011"/>
<polygon fill="#191970" stroke="#191970" points="225.5619,-111.7184 236.1365,-112.3733 228.2783,-105.2669 225.5619,-111.7184"/>
</g>
<!-- Node32 -->
<g id="node20" class="node">
<title>Node32</title>
<g id="a_node20"><a xlink:href="schedule_8h.html" target="_top" xlink:title="ODP schedule. ">
<polygon fill="#ffffff" stroke="#000000" points="72,-224.5 72,-243.5 136,-243.5 136,-224.5 72,-224.5"/>
<text text-anchor="middle" x="104" y="-231.5" font-family="Helvetica,sans-Serif" font-size="10.00" fill="#000000">schedule.h</text>
</a>
</g>
</g>
<!-- Node31&#45;&gt;Node32 -->
<g id="edge23" class="edge">
<title>Node31&#45;&gt;Node32</title>
<path fill="none" stroke="#191970" d="M104,-270.1575C104,-261.155 104,-250.9199 104,-243.6427"/>
<polygon fill="#191970" stroke="#191970" points="100.5001,-270.2455 104,-280.2455 107.5001,-270.2456 100.5001,-270.2455"/>
</g>
<!-- Node34 -->
<g id="node22" class="node">
<title>Node34</title>
<g id="a_node22"><a xlink:href="packet__flags_8h.html" target="_top" xlink:title="ODP packet flags. ">
<polygon fill="#ffffff" stroke="#000000" points="216,-448.5 216,-467.5 296,-467.5 296,-448.5 216,-448.5"/>
<text text-anchor="middle" x="256" y="-455.5" font-family="Helvetica,sans-Serif" font-size="10.00" fill="#000000">packet_flags.h</text>
</a>
</g>
</g>
<!-- Node33&#45;&gt;Node34 -->
<g id="edge26" class="edge">
<title>Node33&#45;&gt;Node34</title>
<path fill="none" stroke="#191970" d="M256,-494.1575C256,-485.155 256,-474.9199 256,-467.6427"/>
<polygon fill="#191970" stroke="#191970" points="252.5001,-494.2455 256,-504.2455 259.5001,-494.2456 252.5001,-494.2455"/>
</g>
</g>
</svg>
