<?xml version="1.0" encoding="UTF-8" standalone="no"?>
<!DOCTYPE svg PUBLIC "-//W3C//DTD SVG 1.1//EN"
 "http://www.w3.org/Graphics/SVG/1.1/DTD/svg11.dtd">
<!-- Generated by graphviz version 2.40.1 (20161225.0304)
 -->
<!-- Title: spinlock_recursive.h Pages: 1 -->
<svg width="296pt" height="151pt"
 viewBox="0.00 0.00 295.50 151.00" xmlns="http://www.w3.org/2000/svg" xmlns:xlink="http://www.w3.org/1999/xlink">
<g id="graph0" class="graph" transform="scale(1 1) rotate(0) translate(4 147)">
<title>spinlock_recursive.h</title>
<polygon fill="#ffffff" stroke="transparent" points="-4,4 -4,-147 291.5,-147 291.5,4 -4,4"/>
<!-- Node0 -->
<g id="node1" class="node">
<title>Node0</title>
<polygon fill="#bfbfbf" stroke="#000000" points="60.5,-123.5 60.5,-142.5 166.5,-142.5 166.5,-123.5 60.5,-123.5"/>
<text text-anchor="middle" x="113.5" y="-130.5" font-family="Helvetica,sans-Serif" font-size="10.00" fill="#000000">spinlock_recursive.h</text>
</g>
<!-- Node1 -->
<g id="node2" class="node">
<title>Node1</title>
<polygon fill="#ffffff" stroke="#bfbfbf" points="0,-56.5 0,-86.5 103,-86.5 103,-56.5 0,-56.5"/>
<text text-anchor="start" x="8" y="-74.5" font-family="Helvetica,sans-Serif" font-size="10.00" fill="#000000">odp/api/abi/spinlock</text>
<text text-anchor="middle" x="51.5" y="-63.5" font-family="Helvetica,sans-Serif" font-size="10.00" fill="#000000">_recursive.h</text>
</g>
<!-- Node0&#45;&gt;Node1 -->
<g id="edge1" class="edge">
<title>Node0&#45;&gt;Node1</title>
<path fill="none" stroke="#191970" d="M103.8125,-123.3906C95.81,-115.4527 84.135,-103.8718 73.8437,-93.6635"/>
<polygon fill="#191970" stroke="#191970" points="76.2314,-91.1021 66.6669,-86.5446 71.3017,-96.0719 76.2314,-91.1021"/>
</g>
<!-- Node2 -->
<g id="node3" class="node">
<title>Node2</title>
<g id="a_node3"><a xlink:href="spec_2spinlock__recursive_8h.html" target="_top" xlink:title="ODP recursive spinlock. ">
<polygon fill="#ffffff" stroke="#000000" points="121,-56.5 121,-86.5 232,-86.5 232,-56.5 121,-56.5"/>
<text text-anchor="start" x="129" y="-74.5" font-family="Helvetica,sans-Serif" font-size="10.00" fill="#000000">odp/api/spec/spinlock</text>
<text text-anchor="middle" x="176.5" y="-63.5" font-family="Helvetica,sans-Serif" font-size="10.00" fill="#000000">_recursive.h</text>
</a>
</g>
</g>
<!-- Node0&#45;&gt;Node2 -->
<g id="edge2" class="edge">
<title>Node0&#45;&gt;Node2</title>
<path fill="none" stroke="#191970" d="M123.3438,-123.3906C131.4753,-115.4527 143.3386,-103.8718 153.7959,-93.6635"/>
<polygon fill="#191970" stroke="#191970" points="156.3776,-96.0345 161.0885,-86.5446 151.4878,-91.0255 156.3776,-96.0345"/>
</g>
<!-- Node3 -->
<g id="node4" class="node">
<title>Node3</title>
<polygon fill="#ffffff" stroke="#bfbfbf" points="62,-.5 62,-19.5 169,-19.5 169,-.5 62,-.5"/>
<text text-anchor="middle" x="115.5" y="-7.5" font-family="Helvetica,sans-Serif" font-size="10.00" fill="#000000">odp/visibility_begin.h</text>
</g>
<!-- Node2&#45;&gt;Node3 -->
<g id="edge3" class="edge">
<title>Node2&#45;&gt;Node3</title>
<path fill="none" stroke="#191970" d="M161.4213,-56.2977C152.6011,-47.4052 141.4459,-36.1586 132.3388,-26.9769"/>
<polygon fill="#191970" stroke="#191970" points="134.794,-24.4821 125.2669,-19.8469 129.8241,-29.4116 134.794,-24.4821"/>
</g>
<!-- Node4 -->
<g id="node5" class="node">
<title>Node4</title>
<polygon fill="#ffffff" stroke="#bfbfbf" points="187.5,-.5 187.5,-19.5 287.5,-19.5 287.5,-.5 187.5,-.5"/>
<text text-anchor="middle" x="237.5" y="-7.5" font-family="Helvetica,sans-Serif" font-size="10.00" fill="#000000">odp/visibility_end.h</text>
</g>
<!-- Node2&#45;&gt;Node4 -->
<g id="edge4" class="edge">
<title>Node2&#45;&gt;Node4</title>
<path fill="none" stroke="#191970" d="M191.5787,-56.2977C200.3989,-47.4052 211.5541,-36.1586 220.6612,-26.9769"/>
<polygon fill="#191970" stroke="#191970" points="223.1759,-29.4116 227.7331,-19.8469 218.206,-24.4821 223.1759,-29.4116"/>
</g>
</g>
</svg>
