<?xml version="1.0" encoding="UTF-8" standalone="no"?>
<!DOCTYPE svg PUBLIC "-//W3C//DTD SVG 1.1//EN"
 "http://www.w3.org/Graphics/SVG/1.1/DTD/svg11.dtd">
<!-- Generated by graphviz version 2.40.1 (20161225.0304)
 -->
<!-- Title: std_types.h Pages: 1 -->
<svg width="2359pt" height="364pt"
 viewBox="0.00 0.00 2358.50 364.00" xmlns="http://www.w3.org/2000/svg" xmlns:xlink="http://www.w3.org/1999/xlink">
<g id="graph0" class="graph" transform="scale(1 1) rotate(0) translate(4 360)">
<title>std_types.h</title>
<polygon fill="#ffffff" stroke="transparent" points="-4,4 -4,-360 2354.5,-360 2354.5,4 -4,4"/>
<!-- Node9 -->
<g id="node1" class="node">
<title>Node9</title>
<polygon fill="#bfbfbf" stroke="#000000" points="1213,-336.5 1213,-355.5 1281,-355.5 1281,-336.5 1213,-336.5"/>
<text text-anchor="middle" x="1247" y="-343.5" font-family="Helvetica,sans-Serif" font-size="10.00" fill="#000000">std_types.h</text>
</g>
<!-- Node10 -->
<g id="node2" class="node">
<title>Node10</title>
<g id="a_node2"><a xlink:href="abi-default_2atomic_8h.html" target="_top" xlink:title="ODP atomic operations. ">
<polygon fill="#ffffff" stroke="#000000" points="0,-280.5 0,-299.5 54,-299.5 54,-280.5 0,-280.5"/>
<text text-anchor="middle" x="27" y="-287.5" font-family="Helvetica,sans-Serif" font-size="10.00" fill="#000000">atomic.h</text>
</a>
</g>
</g>
<!-- Node9&#45;&gt;Node10 -->
<g id="edge1" class="edge">
<title>Node9&#45;&gt;Node10</title>
<path fill="none" stroke="#191970" d="M1202.896,-345.6549C1016.0554,-343.9825 289.0321,-335.2927 63,-300 60.18,-299.5597 57.266,-298.9753 54.3734,-298.3094"/>
<polygon fill="#191970" stroke="#191970" points="1202.8765,-349.1548 1212.9067,-345.7424 1202.9377,-342.1551 1202.8765,-349.1548"/>
</g>
<!-- Node11 -->
<g id="node3" class="node">
<title>Node11</title>
<g id="a_node3"><a xlink:href="abi-default_2barrier_8h.html" target="_top" xlink:title="ODP barrier. ">
<polygon fill="#ffffff" stroke="#000000" points="72,-280.5 72,-299.5 124,-299.5 124,-280.5 72,-280.5"/>
<text text-anchor="middle" x="98" y="-287.5" font-family="Helvetica,sans-Serif" font-size="10.00" fill="#000000">barrier.h</text>
</a>
</g>
</g>
<!-- Node9&#45;&gt;Node11 -->
<g id="edge2" class="edge">
<title>Node9&#45;&gt;Node11</title>
<path fill="none" stroke="#191970" d="M1202.6016,-345.5698C1022.2919,-343.606 344.3761,-334.065 133,-300 130.13,-299.5375 127.1614,-298.9183 124.2222,-298.2137"/>
<polygon fill="#191970" stroke="#191970" points="1202.7403,-349.0714 1212.7771,-345.6783 1202.815,-342.0718 1202.7403,-349.0714"/>
</g>
<!-- Node12 -->
<g id="node4" class="node">
<title>Node12</title>
<g id="a_node4"><a xlink:href="abi-default_2byteorder_8h.html" target="_top" xlink:title="ODP byteorder. ">
<polygon fill="#ffffff" stroke="#000000" points="142.5,-280.5 142.5,-299.5 207.5,-299.5 207.5,-280.5 142.5,-280.5"/>
<text text-anchor="middle" x="175" y="-287.5" font-family="Helvetica,sans-Serif" font-size="10.00" fill="#000000">byteorder.h</text>
</a>
</g>
</g>
<!-- Node9&#45;&gt;Node12 -->
<g id="edge3" class="edge">
<title>Node9&#45;&gt;Node12</title>
<path fill="none" stroke="#191970" d="M1202.6149,-345.1701C1031.0152,-341.7833 410.9062,-327.8462 216,-300 213.2438,-299.6062 210.4025,-299.109 207.5621,-298.5478"/>
<polygon fill="#191970" stroke="#191970" points="1202.729,-348.6729 1212.7955,-345.369 1202.8658,-341.6743 1202.729,-348.6729"/>
</g>
<!-- Node13 -->
<g id="node5" class="node">
<title>Node13</title>
<g id="a_node5"><a xlink:href="abi-default_2cpumask_8h.html" target="_top" xlink:title="ODP CPU masks and enumeration. ">
<polygon fill="#ffffff" stroke="#000000" points="225.5,-280.5 225.5,-299.5 290.5,-299.5 290.5,-280.5 225.5,-280.5"/>
<text text-anchor="middle" x="258" y="-287.5" font-family="Helvetica,sans-Serif" font-size="10.00" fill="#000000">cpumask.h</text>
</a>
</g>
</g>
<!-- Node9&#45;&gt;Node13 -->
<g id="edge4" class="edge">
<title>Node9&#45;&gt;Node13</title>
<path fill="none" stroke="#191970" d="M1202.806,-344.9403C1040.5379,-340.8801 477.8041,-325.2632 300,-300 297.0316,-299.5782 293.9655,-299.0441 290.9046,-298.4431"/>
<polygon fill="#191970" stroke="#191970" points="1202.823,-348.4417 1212.9068,-345.191 1202.9968,-341.4438 1202.823,-348.4417"/>
</g>
<!-- Node14 -->
<g id="node6" class="node">
<title>Node14</title>
<g id="a_node6"><a xlink:href="abi-default_2init_8h.html" target="_top" xlink:title="ODP initialization. ">
<polygon fill="#ffffff" stroke="#000000" points="309,-280.5 309,-299.5 347,-299.5 347,-280.5 309,-280.5"/>
<text text-anchor="middle" x="328" y="-287.5" font-family="Helvetica,sans-Serif" font-size="10.00" fill="#000000">init.h</text>
</a>
</g>
</g>
<!-- Node9&#45;&gt;Node14 -->
<g id="edge5" class="edge">
<title>Node9&#45;&gt;Node14</title>
<path fill="none" stroke="#191970" d="M1202.7678,-345.4167C1046.4807,-343.0908 520.8093,-332.946 356,-300 353.0642,-299.4131 350.0215,-298.5789 347.0709,-297.6395"/>
<polygon fill="#191970" stroke="#191970" points="1202.897,-348.9188 1212.9469,-345.5648 1202.9989,-341.9196 1202.897,-348.9188"/>
</g>
<!-- Node15 -->
<g id="node7" class="node">
<title>Node15</title>
<g id="a_node7"><a xlink:href="abi-default_2ipsec_8h.html" target="_top" xlink:title="ODP IPSEC API &#45; platform specific types. ">
<polygon fill="#ffffff" stroke="#000000" points="365,-280.5 365,-299.5 413,-299.5 413,-280.5 365,-280.5"/>
<text text-anchor="middle" x="389" y="-287.5" font-family="Helvetica,sans-Serif" font-size="10.00" fill="#000000">ipsec.h</text>
</a>
</g>
</g>
<!-- Node9&#45;&gt;Node15 -->
<g id="edge6" class="edge">
<title>Node9&#45;&gt;Node15</title>
<path fill="none" stroke="#191970" d="M1202.6697,-344.9217C1054.0241,-341.0879 574.0906,-326.8858 422,-300 419.1704,-299.4998 416.2417,-298.8356 413.3506,-298.0865"/>
<polygon fill="#191970" stroke="#191970" points="1202.7046,-348.4236 1212.7906,-345.1799 1202.8831,-341.4259 1202.7046,-348.4236"/>
</g>
<!-- Node16 -->
<g id="node8" class="node">
<title>Node16</title>
<g id="a_node8"><a xlink:href="abi-default_2packet__io_8h.html" target="_top" xlink:title="ODP Packet IO. ">
<polygon fill="#ffffff" stroke="#000000" points="431.5,-280.5 431.5,-299.5 498.5,-299.5 498.5,-280.5 431.5,-280.5"/>
<text text-anchor="middle" x="465" y="-287.5" font-family="Helvetica,sans-Serif" font-size="10.00" fill="#000000">packet_io.h</text>
</a>
</g>
</g>
<!-- Node9&#45;&gt;Node16 -->
<g id="edge7" class="edge">
<title>Node9&#45;&gt;Node16</title>
<path fill="none" stroke="#191970" d="M1202.3528,-344.1971C1063.9443,-338.454 643.2739,-319.7991 508,-300 504.9665,-299.556 501.8312,-299.0066 498.6999,-298.3956"/>
<polygon fill="#191970" stroke="#191970" points="1202.4497,-347.704 1212.5855,-344.6195 1202.7384,-340.7099 1202.4497,-347.704"/>
</g>
<!-- Node17 -->
<g id="node9" class="node">
<title>Node17</title>
<g id="a_node9"><a xlink:href="abi-default_2rwlock__recursive_8h.html" target="_top" xlink:title="ODP recursive read/write lock. ">
<polygon fill="#ffffff" stroke="#000000" points="517,-280.5 517,-299.5 615,-299.5 615,-280.5 517,-280.5"/>
<text text-anchor="middle" x="566" y="-287.5" font-family="Helvetica,sans-Serif" font-size="10.00" fill="#000000">rwlock_recursive.h</text>
</a>
</g>
</g>
<!-- Node9&#45;&gt;Node17 -->
<g id="edge8" class="edge">
<title>Node9&#45;&gt;Node17</title>
<path fill="none" stroke="#191970" d="M1202.5127,-344.1993C1100.1213,-339.7311 839.9891,-326.5302 624,-300 621.1603,-299.6512 618.2479,-299.2591 615.3128,-298.8373"/>
<polygon fill="#191970" stroke="#191970" points="1202.6405,-347.708 1212.7817,-344.6411 1202.9414,-340.7145 1202.6405,-347.708"/>
</g>
<!-- Node18 -->
<g id="node10" class="node">
<title>Node18</title>
<g id="a_node10"><a xlink:href="abi-default_2schedule_8h.html" target="_top" xlink:title="ODP schedule. ">
<polygon fill="#ffffff" stroke="#000000" points="633,-280.5 633,-299.5 697,-299.5 697,-280.5 633,-280.5"/>
<text text-anchor="middle" x="665" y="-287.5" font-family="Helvetica,sans-Serif" font-size="10.00" fill="#000000">schedule.h</text>
</a>
</g>
</g>
<!-- Node9&#45;&gt;Node18 -->
<g id="edge9" class="edge">
<title>Node9&#45;&gt;Node18</title>
<path fill="none" stroke="#191970" d="M1202.7763,-344.552C1110.1009,-341.0112 888.9583,-329.9065 706,-300 703.1077,-299.5272 700.1183,-298.958 697.1327,-298.3341"/>
<polygon fill="#191970" stroke="#191970" points="1202.7863,-348.0547 1212.9093,-344.9283 1203.0462,-341.0595 1202.7863,-348.0547"/>
</g>
<!-- Node19 -->
<g id="node11" class="node">
<title>Node19</title>
<g id="a_node11"><a xlink:href="abi-default_2spinlock__recursive_8h.html" target="_top" xlink:title="ODP recursive spinlock. ">
<polygon fill="#ffffff" stroke="#000000" points="715,-280.5 715,-299.5 821,-299.5 821,-280.5 715,-280.5"/>
<text text-anchor="middle" x="768" y="-287.5" font-family="Helvetica,sans-Serif" font-size="10.00" fill="#000000">spinlock_recursive.h</text>
</a>
</g>
</g>
<!-- Node9&#45;&gt;Node19 -->
<g id="edge10" class="edge">
<title>Node9&#45;&gt;Node19</title>
<path fill="none" stroke="#191970" d="M1202.6867,-341.8471C1126.4128,-334.5345 965.4498,-318.3825 830,-300 827.0829,-299.6041 824.0915,-299.1805 821.0739,-298.7394"/>
<polygon fill="#191970" stroke="#191970" points="1202.5884,-345.3535 1212.8757,-342.8195 1203.2535,-338.3852 1202.5884,-345.3535"/>
</g>
<!-- Node20 -->
<g id="node12" class="node">
<title>Node20</title>
<g id="a_node12"><a xlink:href="abi-default_2traffic__mngr_8h.html" target="_top" xlink:title="ODP traffic mngr. ">
<polygon fill="#ffffff" stroke="#000000" points="839.5,-280.5 839.5,-299.5 916.5,-299.5 916.5,-280.5 839.5,-280.5"/>
<text text-anchor="middle" x="878" y="-287.5" font-family="Helvetica,sans-Serif" font-size="10.00" fill="#000000">traffic_mngr.h</text>
</a>
</g>
</g>
<!-- Node9&#45;&gt;Node20 -->
<g id="edge11" class="edge">
<title>Node9&#45;&gt;Node20</title>
<path fill="none" stroke="#191970" d="M1202.4585,-340.5194C1140.3484,-332.6719 1024.2824,-317.2621 926,-300 922.9818,-299.4699 919.8632,-298.8911 916.7322,-298.2879"/>
<polygon fill="#191970" stroke="#191970" points="1202.3239,-344.0299 1212.6823,-341.8043 1203.1968,-337.0846 1202.3239,-344.0299"/>
</g>
<!-- Node21 -->
<g id="node13" class="node">
<title>Node21</title>
<g id="a_node13"><a xlink:href="barrier_8h.html" target="_top" xlink:title="ODP execution barriers. ">
<polygon fill="#ffffff" stroke="#000000" points="935,-280.5 935,-299.5 987,-299.5 987,-280.5 935,-280.5"/>
<text text-anchor="middle" x="961" y="-287.5" font-family="Helvetica,sans-Serif" font-size="10.00" fill="#000000">barrier.h</text>
</a>
</g>
</g>
<!-- Node9&#45;&gt;Node21 -->
<g id="edge12" class="edge">
<title>Node9&#45;&gt;Node21</title>
<path fill="none" stroke="#191970" d="M1202.7759,-339.2283C1152.4237,-331.2102 1067.8362,-316.8031 996,-300 993.1694,-299.3379 990.226,-298.5909 987.3017,-297.8108"/>
<polygon fill="#191970" stroke="#191970" points="1202.2562,-342.6895 1212.6799,-340.7932 1203.3487,-335.7753 1202.2562,-342.6895"/>
</g>
<!-- Node22 -->
<g id="node14" class="node">
<title>Node22</title>
<g id="a_node14"><a xlink:href="buffer_8h.html" target="_top" xlink:title="ODP buffer descriptor. ">
<polygon fill="#ffffff" stroke="#000000" points="1005,-280.5 1005,-299.5 1055,-299.5 1055,-280.5 1005,-280.5"/>
<text text-anchor="middle" x="1030" y="-287.5" font-family="Helvetica,sans-Serif" font-size="10.00" fill="#000000">buffer.h</text>
</a>
</g>
</g>
<!-- Node9&#45;&gt;Node22 -->
<g id="edge13" class="edge">
<title>Node9&#45;&gt;Node22</title>
<path fill="none" stroke="#191970" d="M1202.9283,-334.6267C1158.4138,-323.139 1091.2139,-305.7971 1055.0905,-296.475"/>
<polygon fill="#191970" stroke="#191970" points="1202.0583,-338.0168 1212.6157,-337.1266 1203.8075,-331.2388 1202.0583,-338.0168"/>
</g>
<!-- Node23 -->
<g id="node15" class="node">
<title>Node23</title>
<g id="a_node15"><a xlink:href="classification_8h.html" target="_top" xlink:title="ODP classification descriptor. ">
<polygon fill="#ffffff" stroke="#000000" points="1157,-56.5 1157,-75.5 1239,-75.5 1239,-56.5 1157,-56.5"/>
<text text-anchor="middle" x="1198" y="-63.5" font-family="Helvetica,sans-Serif" font-size="10.00" fill="#000000">classification.h</text>
</a>
</g>
</g>
<!-- Node9&#45;&gt;Node23 -->
<g id="edge14" class="edge">
<title>Node9&#45;&gt;Node23</title>
<path fill="none" stroke="#191970" d="M1202.8736,-335.548C1172.4252,-327.5988 1131.3932,-315.4091 1097,-300 1081.349,-292.9879 1079.7653,-286.7512 1064,-280 1007.7062,-255.8933 968.2177,-292.6309 931,-244 862.9447,-155.0748 1066.3551,-96.0582 1156.8993,-74.8041"/>
<polygon fill="#191970" stroke="#191970" points="1202.2134,-338.9917 1212.7689,-338.0797 1203.9486,-332.2102 1202.2134,-338.9917"/>
</g>
<!-- Node26 -->
<g id="node17" class="node">
<title>Node26</title>
<g id="a_node17"><a xlink:href="crypto_8h.html" target="_top" xlink:title="ODP crypto. ">
<polygon fill="#ffffff" stroke="#000000" points="1375,-168.5 1375,-187.5 1427,-187.5 1427,-168.5 1375,-168.5"/>
<text text-anchor="middle" x="1401" y="-175.5" font-family="Helvetica,sans-Serif" font-size="10.00" fill="#000000">crypto.h</text>
</a>
</g>
</g>
<!-- Node9&#45;&gt;Node26 -->
<g id="edge16" class="edge">
<title>Node9&#45;&gt;Node26</title>
<path fill="none" stroke="#191970" d="M1291.2329,-340.3069C1336.8686,-333.4184 1403.513,-320.1732 1419,-300 1445.2054,-265.8652 1419.1637,-210.1233 1406.7643,-187.7473"/>
<polygon fill="#191970" stroke="#191970" points="1290.66,-336.8534 1281.2703,-341.7611 1291.671,-343.78 1290.66,-336.8534"/>
</g>
<!-- Node27 -->
<g id="node18" class="node">
<title>Node27</title>
<g id="a_node18"><a xlink:href="packet_8h.html" target="_top" xlink:title="ODP packet descriptor. ">
<polygon fill="#ffffff" stroke="#000000" points="1187,-280.5 1187,-299.5 1241,-299.5 1241,-280.5 1187,-280.5"/>
<text text-anchor="middle" x="1214" y="-287.5" font-family="Helvetica,sans-Serif" font-size="10.00" fill="#000000">packet.h</text>
</a>
</g>
</g>
<!-- Node9&#45;&gt;Node27 -->
<g id="edge18" class="edge">
<title>Node9&#45;&gt;Node27</title>
<path fill="none" stroke="#191970" d="M1236.1746,-327.6296C1230.6701,-318.2887 1224.2063,-307.3197 1219.6823,-299.6427"/>
<polygon fill="#191970" stroke="#191970" points="1233.1595,-329.4071 1241.2518,-336.2455 1239.1903,-325.8532 1233.1595,-329.4071"/>
</g>
<!-- Node42 -->
<g id="node22" class="node">
<title>Node42</title>
<g id="a_node22"><a xlink:href="spec_2packet__flags_8h.html" target="_top" xlink:title="ODP packet flags. ">
<polygon fill="#ffffff" stroke="#000000" points="948,-224.5 948,-243.5 1028,-243.5 1028,-224.5 948,-224.5"/>
<text text-anchor="middle" x="988" y="-231.5" font-family="Helvetica,sans-Serif" font-size="10.00" fill="#000000">packet_flags.h</text>
</a>
</g>
</g>
<!-- Node9&#45;&gt;Node42 -->
<g id="edge48" class="edge">
<title>Node9&#45;&gt;Node42</title>
<path fill="none" stroke="#191970" d="M1224.7402,-330.8075C1202.7057,-316.2767 1167.633,-294.4904 1135,-280 1099.5619,-264.264 1057.1086,-251.5964 1026.9561,-243.5696"/>
<polygon fill="#191970" stroke="#191970" points="1222.8039,-333.7231 1233.0648,-336.3623 1226.6893,-327.9004 1222.8039,-333.7231"/>
</g>
<!-- Node36 -->
<g id="node25" class="node">
<title>Node36</title>
<g id="a_node25"><a xlink:href="packet__io_8h.html" target="_top" xlink:title="ODP Packet IO. ">
<polygon fill="#ffffff" stroke="#000000" points="1233.5,-168.5 1233.5,-187.5 1300.5,-187.5 1300.5,-168.5 1233.5,-168.5"/>
<text text-anchor="middle" x="1267" y="-175.5" font-family="Helvetica,sans-Serif" font-size="10.00" fill="#000000">packet_io.h</text>
</a>
</g>
</g>
<!-- Node9&#45;&gt;Node36 -->
<g id="edge31" class="edge">
<title>Node9&#45;&gt;Node36</title>
<path fill="none" stroke="#191970" d="M1212.396,-332.7691C1190.0751,-323.9947 1160.5477,-311.9368 1135,-300 1117.709,-291.9211 1114.9002,-286.6204 1097,-280 1029.4501,-255.0165 983.9155,-300.3006 939,-244 933.4566,-237.0514 933.1674,-230.7077 939,-224 958.172,-201.9516 1153.6555,-185.9176 1233.402,-180.246"/>
<polygon fill="#191970" stroke="#191970" points="1211.2075,-336.0623 1221.7956,-336.4377 1213.7526,-329.5413 1211.2075,-336.0623"/>
</g>
<!-- Node38 -->
<g id="node27" class="node">
<title>Node38</title>
<g id="a_node27"><a xlink:href="spec_2traffic__mngr_8h.html" target="_top" xlink:title="Copyright (c) 2015&#45;2018, Linaro Limited All rights reserved. ">
<polygon fill="#ffffff" stroke="#ff0000" points="1295.5,-112.5 1295.5,-131.5 1372.5,-131.5 1372.5,-112.5 1295.5,-112.5"/>
<text text-anchor="middle" x="1334" y="-119.5" font-family="Helvetica,sans-Serif" font-size="10.00" fill="#000000">traffic_mngr.h</text>
</a>
</g>
</g>
<!-- Node9&#45;&gt;Node38 -->
<g id="edge56" class="edge">
<title>Node9&#45;&gt;Node38</title>
<path fill="none" stroke="#191970" d="M1276.409,-331.233C1289.0537,-323.5185 1302.9722,-312.9631 1312,-300 1349.5474,-246.0851 1340.1457,-160.1237 1335.6802,-131.5687"/>
<polygon fill="#191970" stroke="#191970" points="1274.4428,-328.3261 1267.515,-336.3421 1277.9295,-334.3959 1274.4428,-328.3261"/>
</g>
<!-- Node34 -->
<g id="node28" class="node">
<title>Node34</title>
<g id="a_node28"><a xlink:href="queue_8h.html" target="_top" xlink:title="ODP queue. ">
<polygon fill="#ffffff" stroke="#000000" points="1359.5,-280.5 1359.5,-299.5 1410.5,-299.5 1410.5,-280.5 1359.5,-280.5"/>
<text text-anchor="middle" x="1385" y="-287.5" font-family="Helvetica,sans-Serif" font-size="10.00" fill="#000000">queue.h</text>
</a>
</g>
</g>
<!-- Node9&#45;&gt;Node34 -->
<g id="edge32" class="edge">
<title>Node9&#45;&gt;Node34</title>
<path fill="none" stroke="#191970" d="M1280.2213,-332.5189C1305.354,-322.3201 1339.2418,-308.5685 1361.5865,-299.5011"/>
<polygon fill="#191970" stroke="#191970" points="1278.6731,-329.3699 1270.723,-336.3733 1281.3053,-335.8562 1278.6731,-329.3699"/>
</g>
<!-- Node40 -->
<g id="node29" class="node">
<title>Node40</title>
<g id="a_node29"><a xlink:href="spec_2schedule_8h.html" target="_top" xlink:title="ODP schedule. ">
<polygon fill="#ffffff" stroke="#000000" points="1451,-224.5 1451,-243.5 1515,-243.5 1515,-224.5 1451,-224.5"/>
<text text-anchor="middle" x="1483" y="-231.5" font-family="Helvetica,sans-Serif" font-size="10.00" fill="#000000">schedule.h</text>
</a>
</g>
</g>
<!-- Node9&#45;&gt;Node40 -->
<g id="edge51" class="edge">
<title>Node9&#45;&gt;Node40</title>
<path fill="none" stroke="#191970" d="M1291.484,-340.7545C1344.3821,-333.7295 1428.5958,-319.8129 1453,-300 1470.7843,-285.5616 1478.4445,-258.2943 1481.3871,-243.7368"/>
<polygon fill="#191970" stroke="#191970" points="1290.8164,-337.3116 1281.3489,-342.0673 1291.7157,-344.2536 1290.8164,-337.3116"/>
</g>
<!-- Node44 -->
<g id="node31" class="node">
<title>Node44</title>
<g id="a_node31"><a xlink:href="spec_2chksum_8h.html" target="_top" xlink:title="ODP checksum functions. ">
<polygon fill="#ffffff" stroke="#000000" points="1505.5,-280.5 1505.5,-299.5 1564.5,-299.5 1564.5,-280.5 1505.5,-280.5"/>
<text text-anchor="middle" x="1535" y="-287.5" font-family="Helvetica,sans-Serif" font-size="10.00" fill="#000000">chksum.h</text>
</a>
</g>
</g>
<!-- Node9&#45;&gt;Node44 -->
<g id="edge37" class="edge">
<title>Node9&#45;&gt;Node44</title>
<path fill="none" stroke="#191970" d="M1290.9577,-338.2204C1339.886,-329.443 1421.257,-314.4943 1491,-300 1495.6019,-299.0436 1500.4636,-297.9862 1505.2106,-296.9277"/>
<polygon fill="#191970" stroke="#191970" points="1290.2526,-334.7909 1281.0252,-339.9973 1291.4853,-341.6815 1290.2526,-334.7909"/>
</g>
<!-- Node46 -->
<g id="node33" class="node">
<title>Node46</title>
<g id="a_node33"><a xlink:href="spec_2cpu_8h.html" target="_top" xlink:title="ODP CPU API. ">
<polygon fill="#ffffff" stroke="#000000" points="1582.5,-280.5 1582.5,-299.5 1623.5,-299.5 1623.5,-280.5 1582.5,-280.5"/>
<text text-anchor="middle" x="1603" y="-287.5" font-family="Helvetica,sans-Serif" font-size="10.00" fill="#000000">cpu.h</text>
</a>
</g>
</g>
<!-- Node9&#45;&gt;Node46 -->
<g id="edge39" class="edge">
<title>Node9&#45;&gt;Node46</title>
<path fill="none" stroke="#191970" d="M1291.1721,-342.3324C1354.2922,-336.5141 1473.6493,-323.3634 1573,-300 1576.0997,-299.2711 1579.3347,-298.3591 1582.4847,-297.3845"/>
<polygon fill="#191970" stroke="#191970" points="1290.8108,-338.8507 1281.1664,-343.2365 1291.4408,-345.8223 1290.8108,-338.8507"/>
</g>
<!-- Node49 -->
<g id="node35" class="node">
<title>Node49</title>
<g id="a_node35"><a xlink:href="spec_2feature_8h.html" target="_top" xlink:title="ODP features. ">
<polygon fill="#ffffff" stroke="#000000" points="1680.5,-280.5 1680.5,-299.5 1735.5,-299.5 1735.5,-280.5 1680.5,-280.5"/>
<text text-anchor="middle" x="1708" y="-287.5" font-family="Helvetica,sans-Serif" font-size="10.00" fill="#000000">feature.h</text>
</a>
</g>
</g>
<!-- Node9&#45;&gt;Node49 -->
<g id="edge41" class="edge">
<title>Node9&#45;&gt;Node49</title>
<path fill="none" stroke="#191970" d="M1291.3987,-342.9506C1368.1674,-337.2717 1530.5045,-323.4743 1666,-300 1670.579,-299.2067 1675.4035,-298.2111 1680.0861,-297.1577"/>
<polygon fill="#191970" stroke="#191970" points="1290.8648,-339.4801 1281.1459,-343.6981 1291.374,-346.4616 1290.8648,-339.4801"/>
</g>
<!-- Node51 -->
<g id="node37" class="node">
<title>Node51</title>
<g id="a_node37"><a xlink:href="spec_2init_8h.html" target="_top" xlink:title="init.h">
<polygon fill="#ffffff" stroke="#000000" points="1689,-168.5 1689,-187.5 1727,-187.5 1727,-168.5 1689,-168.5"/>
<text text-anchor="middle" x="1708" y="-175.5" font-family="Helvetica,sans-Serif" font-size="10.00" fill="#000000">init.h</text>
</a>
</g>
</g>
<!-- Node9&#45;&gt;Node51 -->
<g id="edge47" class="edge">
<title>Node9&#45;&gt;Node51</title>
<path fill="none" stroke="#191970" d="M1291.1567,-342.876C1386.1634,-335.8473 1603.6986,-317.9927 1632,-300 1674.9597,-272.6883 1697.7131,-211.4334 1705.1842,-187.6755"/>
<polygon fill="#191970" stroke="#191970" points="1290.7223,-339.3983 1281.005,-343.6202 1291.2342,-346.3796 1290.7223,-339.3983"/>
</g>
<!-- Node55 -->
<g id="node39" class="node">
<title>Node55</title>
<g id="a_node39"><a xlink:href="spec_2hash_8h.html" target="_top" xlink:title="ODP Hash functions. ">
<polygon fill="#ffffff" stroke="#000000" points="1754,-280.5 1754,-299.5 1800,-299.5 1800,-280.5 1754,-280.5"/>
<text text-anchor="middle" x="1777" y="-287.5" font-family="Helvetica,sans-Serif" font-size="10.00" fill="#000000">hash.h</text>
</a>
</g>
</g>
<!-- Node9&#45;&gt;Node55 -->
<g id="edge45" class="edge">
<title>Node9&#45;&gt;Node55</title>
<path fill="none" stroke="#191970" d="M1291.1561,-344.8987C1378.4458,-342.067 1578.9289,-332.3054 1744,-300 1747.1725,-299.3791 1750.4749,-298.5752 1753.7113,-297.6932"/>
<polygon fill="#191970" stroke="#191970" points="1290.969,-341.4028 1281.0822,-345.2108 1291.1858,-348.3994 1290.969,-341.4028"/>
</g>
<!-- Node57 -->
<g id="node41" class="node">
<title>Node57</title>
<g id="a_node41"><a xlink:href="spec_2pool_8h.html" target="_top" xlink:title="ODP pool. ">
<polygon fill="#ffffff" stroke="#000000" points="1818.5,-280.5 1818.5,-299.5 1861.5,-299.5 1861.5,-280.5 1818.5,-280.5"/>
<text text-anchor="middle" x="1840" y="-287.5" font-family="Helvetica,sans-Serif" font-size="10.00" fill="#000000">pool.h</text>
</a>
</g>
</g>
<!-- Node9&#45;&gt;Node57 -->
<g id="edge49" class="edge">
<title>Node9&#45;&gt;Node57</title>
<path fill="none" stroke="#191970" d="M1291.513,-343.6841C1406.2684,-337.5013 1710.0827,-319.7279 1809,-300 1812.1057,-299.3806 1815.336,-298.5537 1818.4878,-297.6397"/>
<polygon fill="#191970" stroke="#191970" points="1291.129,-340.1996 1281.3303,-344.229 1291.5031,-347.1896 1291.129,-340.1996"/>
</g>
<!-- Node60 -->
<g id="node43" class="node">
<title>Node60</title>
<g id="a_node43"><a xlink:href="spec_2stash_8h.html" target="_top" xlink:title="ODP stash. ">
<polygon fill="#ffffff" stroke="#000000" points="1879.5,-280.5 1879.5,-299.5 1928.5,-299.5 1928.5,-280.5 1879.5,-280.5"/>
<text text-anchor="middle" x="1904" y="-287.5" font-family="Helvetica,sans-Serif" font-size="10.00" fill="#000000">stash.h</text>
</a>
</g>
</g>
<!-- Node9&#45;&gt;Node60 -->
<g id="edge52" class="edge">
<title>Node9&#45;&gt;Node60</title>
<path fill="none" stroke="#191970" d="M1291.2478,-344.0096C1414.4071,-338.2675 1759.4462,-320.7503 1871,-300 1873.7073,-299.4964 1876.5072,-298.8509 1879.2789,-298.1308"/>
<polygon fill="#191970" stroke="#191970" points="1290.8832,-340.5227 1281.0558,-344.4815 1291.207,-347.5152 1290.8832,-340.5227"/>
</g>
<!-- Node62 -->
<g id="node45" class="node">
<title>Node62</title>
<g id="a_node45"><a xlink:href="spec_2threshold_8h.html" target="_top" xlink:title="ODP threshold descriptor. ">
<polygon fill="#ffffff" stroke="#ff0000" points="1946.5,-280.5 1946.5,-299.5 2011.5,-299.5 2011.5,-280.5 1946.5,-280.5"/>
<text text-anchor="middle" x="1979" y="-287.5" font-family="Helvetica,sans-Serif" font-size="10.00" fill="#000000">threshold.h</text>
</a>
</g>
</g>
<!-- Node9&#45;&gt;Node62 -->
<g id="edge54" class="edge">
<title>Node9&#45;&gt;Node62</title>
<path fill="none" stroke="#191970" d="M1291.4032,-344.0495C1423.4806,-338.0886 1812.47,-319.3383 1938,-300 1940.7517,-299.5761 1943.5899,-299.0577 1946.4282,-298.4822"/>
<polygon fill="#191970" stroke="#191970" points="1291.0812,-340.5603 1281.2483,-344.5054 1291.3953,-347.5533 1291.0812,-340.5603"/>
</g>
<!-- Node64 -->
<g id="node46" class="node">
<title>Node64</title>
<g id="a_node46"><a xlink:href="spec_2thrmask_8h.html" target="_top" xlink:title="ODP thread masks. ">
<polygon fill="#ffffff" stroke="#ff0000" points="2030,-280.5 2030,-299.5 2090,-299.5 2090,-280.5 2030,-280.5"/>
<text text-anchor="middle" x="2060" y="-287.5" font-family="Helvetica,sans-Serif" font-size="10.00" fill="#000000">thrmask.h</text>
</a>
</g>
</g>
<!-- Node9&#45;&gt;Node64 -->
<g id="edge55" class="edge">
<title>Node9&#45;&gt;Node64</title>
<path fill="none" stroke="#191970" d="M1291.3784,-344.4822C1433.8695,-339.4326 1878.7642,-322.2514 2021,-300 2023.9005,-299.5463 2026.899,-298.9722 2029.8852,-298.3296"/>
<polygon fill="#191970" stroke="#191970" points="1291.1291,-340.9887 1281.2585,-344.8384 1291.3754,-347.9843 1291.1291,-340.9887"/>
</g>
<!-- Node66 -->
<g id="node47" class="node">
<title>Node66</title>
<g id="a_node47"><a xlink:href="system__info_8h.html" target="_top" xlink:title="ODP system information. ">
<polygon fill="#ffffff" stroke="#000000" points="2108,-280.5 2108,-299.5 2186,-299.5 2186,-280.5 2108,-280.5"/>
<text text-anchor="middle" x="2147" y="-287.5" font-family="Helvetica,sans-Serif" font-size="10.00" fill="#000000">system_info.h</text>
</a>
</g>
</g>
<!-- Node9&#45;&gt;Node66 -->
<g id="edge57" class="edge">
<title>Node9&#45;&gt;Node66</title>
<path fill="none" stroke="#191970" d="M1291.662,-344.4837C1443.7018,-339.1817 1940.4924,-320.6692 2099,-300 2101.8699,-299.6258 2104.8241,-299.1746 2107.7897,-298.6734"/>
<polygon fill="#191970" stroke="#191970" points="1291.1929,-340.9978 1281.3203,-344.8425 1291.4357,-347.9936 1291.1929,-340.9978"/>
</g>
<!-- Node67 -->
<g id="node48" class="node">
<title>Node67</title>
<g id="a_node48"><a xlink:href="time_8h.html" target="_top" xlink:title="ODP time. ">
<polygon fill="#ffffff" stroke="#ff0000" points="1259,-280.5 1259,-299.5 1303,-299.5 1303,-280.5 1259,-280.5"/>
<text text-anchor="middle" x="1281" y="-287.5" font-family="Helvetica,sans-Serif" font-size="10.00" fill="#000000">time.h</text>
</a>
</g>
</g>
<!-- Node9&#45;&gt;Node67 -->
<g id="edge58" class="edge">
<title>Node9&#45;&gt;Node67</title>
<path fill="none" stroke="#191970" d="M1258.1535,-327.6296C1263.8247,-318.2887 1270.4845,-307.3197 1275.1455,-299.6427"/>
<polygon fill="#191970" stroke="#191970" points="1255.1204,-325.8812 1252.9223,-336.2455 1261.1039,-329.5141 1255.1204,-325.8812"/>
</g>
<!-- Node69 -->
<g id="node49" class="node">
<title>Node69</title>
<g id="a_node49"><a xlink:href="timer_8h.html" target="_top" xlink:title="ODP timer service. ">
<polygon fill="#ffffff" stroke="#000000" points="2204.5,-280.5 2204.5,-299.5 2251.5,-299.5 2251.5,-280.5 2204.5,-280.5"/>
<text text-anchor="middle" x="2228" y="-287.5" font-family="Helvetica,sans-Serif" font-size="10.00" fill="#000000">timer.h</text>
</a>
</g>
</g>
<!-- Node9&#45;&gt;Node69 -->
<g id="edge60" class="edge">
<title>Node9&#45;&gt;Node69</title>
<path fill="none" stroke="#191970" d="M1291.296,-345.2929C1453.9299,-342.4723 2017.854,-330.6564 2195,-300 2198.0674,-299.4692 2201.2502,-298.7414 2204.375,-297.9186"/>
<polygon fill="#191970" stroke="#191970" points="1291.111,-341.7954 1281.1723,-345.4657 1291.2306,-348.7944 1291.111,-341.7954"/>
</g>
<!-- Node70 -->
<g id="node50" class="node">
<title>Node70</title>
<g id="a_node50"><a xlink:href="strong__types_8h.html" target="_top" xlink:title="ODP Strong Types. ">
<polygon fill="#ffffff" stroke="#000000" points="2269.5,-280.5 2269.5,-299.5 2350.5,-299.5 2350.5,-280.5 2269.5,-280.5"/>
<text text-anchor="middle" x="2310" y="-287.5" font-family="Helvetica,sans-Serif" font-size="10.00" fill="#000000">strong_types.h</text>
</a>
</g>
</g>
<!-- Node9&#45;&gt;Node70 -->
<g id="edge61" class="edge">
<title>Node9&#45;&gt;Node70</title>
<path fill="none" stroke="#191970" d="M1291.1897,-344.9139C1460.6447,-340.6065 2069.0394,-323.7944 2261,-300 2263.7572,-299.6582 2266.5908,-299.2457 2269.4385,-298.7853"/>
<polygon fill="#191970" stroke="#191970" points="1291.0394,-341.4165 1281.131,-345.168 1291.2162,-348.4143 1291.0394,-341.4165"/>
</g>
<!-- Node24 -->
<g id="node16" class="node">
<title>Node24</title>
<g id="a_node16"><a xlink:href="spec_2ipsec_8h.html" target="_top" xlink:title="ODP IPSEC API. ">
<polygon fill="#ffffff" stroke="#ff0000" points="1243,-.5 1243,-19.5 1291,-19.5 1291,-.5 1243,-.5"/>
<text text-anchor="middle" x="1267" y="-7.5" font-family="Helvetica,sans-Serif" font-size="10.00" fill="#000000">ipsec.h</text>
</a>
</g>
</g>
<!-- Node23&#45;&gt;Node24 -->
<g id="edge15" class="edge">
<title>Node23&#45;&gt;Node24</title>
<path fill="none" stroke="#191970" d="M1217.803,-49.928C1229.8636,-40.1397 1244.8714,-27.9595 1255.1188,-19.6427"/>
<polygon fill="#191970" stroke="#191970" points="1215.5779,-47.2262 1210.0189,-56.2455 1219.9891,-52.6614 1215.5779,-47.2262"/>
</g>
<!-- Node26&#45;&gt;Node24 -->
<g id="edge17" class="edge">
<title>Node26&#45;&gt;Node24</title>
<path fill="none" stroke="#191970" d="M1397.9797,-158.4668C1395.1808,-144.6669 1390.0401,-126.1797 1381,-112 1354.588,-70.572 1306.8151,-35.7527 1282.3477,-19.6255"/>
<polygon fill="#191970" stroke="#191970" points="1394.543,-159.1314 1399.7521,-168.3573 1401.4332,-157.8967 1394.543,-159.1314"/>
</g>
<!-- Node28 -->
<g id="node19" class="node">
<title>Node28</title>
<g id="a_node19"><a xlink:href="spec_2comp_8h.html" target="_top" xlink:title="ODP Compression. ">
<polygon fill="#ffffff" stroke="#ff0000" points="1113.5,-224.5 1113.5,-243.5 1162.5,-243.5 1162.5,-224.5 1113.5,-224.5"/>
<text text-anchor="middle" x="1138" y="-231.5" font-family="Helvetica,sans-Serif" font-size="10.00" fill="#000000">comp.h</text>
</a>
</g>
</g>
<!-- Node27&#45;&gt;Node28 -->
<g id="edge19" class="edge">
<title>Node27&#45;&gt;Node28</title>
<path fill="none" stroke="#191970" d="M1192.5703,-274.2097C1179.2223,-264.3743 1162.4821,-252.0394 1151.0865,-243.6427"/>
<polygon fill="#191970" stroke="#191970" points="1190.635,-277.1312 1200.7618,-280.2455 1194.7874,-271.4958 1190.635,-277.1312"/>
</g>
<!-- Node30 -->
<g id="node20" class="node">
<title>Node30</title>
<g id="a_node20"><a xlink:href="spec_2crypto_8h.html" target="_top" xlink:title="ODP crypto. ">
<polygon fill="#ffffff" stroke="#000000" points="1181,-224.5 1181,-243.5 1233,-243.5 1233,-224.5 1181,-224.5"/>
<text text-anchor="middle" x="1207" y="-231.5" font-family="Helvetica,sans-Serif" font-size="10.00" fill="#000000">crypto.h</text>
</a>
</g>
</g>
<!-- Node27&#45;&gt;Node30 -->
<g id="edge20" class="edge">
<title>Node27&#45;&gt;Node30</title>
<path fill="none" stroke="#191970" d="M1211.5197,-270.1575C1210.3944,-261.155 1209.115,-250.9199 1208.2053,-243.6427"/>
<polygon fill="#191970" stroke="#191970" points="1208.0673,-270.7569 1212.7807,-280.2455 1215.0132,-269.8886 1208.0673,-270.7569"/>
</g>
<!-- Node31 -->
<g id="node21" class="node">
<title>Node31</title>
<g id="a_node21"><a xlink:href="spec_2event_8h.html" target="_top" xlink:title="ODP event. ">
<polygon fill="#ffffff" stroke="#ff0000" points="1046.5,-224.5 1046.5,-243.5 1095.5,-243.5 1095.5,-224.5 1046.5,-224.5"/>
<text text-anchor="middle" x="1071" y="-231.5" font-family="Helvetica,sans-Serif" font-size="10.00" fill="#000000">event.h</text>
</a>
</g>
</g>
<!-- Node27&#45;&gt;Node31 -->
<g id="edge22" class="edge">
<title>Node27&#45;&gt;Node31</title>
<path fill="none" stroke="#191970" d="M1179.9202,-276.6541C1153.8427,-266.4419 1118.5185,-252.6086 1095.2618,-243.5011"/>
<polygon fill="#191970" stroke="#191970" points="1178.8297,-279.9858 1189.4174,-280.3733 1181.3822,-273.4677 1178.8297,-279.9858"/>
</g>
<!-- Node27&#45;&gt;Node42 -->
<g id="edge23" class="edge">
<title>Node27&#45;&gt;Node42</title>
<path fill="none" stroke="#191970" d="M1176.7801,-280.7774C1135.3525,-270.5121 1068.7198,-254.0014 1026.7023,-243.5899"/>
<polygon fill="#191970" stroke="#191970" points="1176.1908,-284.2371 1186.7391,-283.2451 1177.8745,-277.4426 1176.1908,-284.2371"/>
</g>
<!-- Node35 -->
<g id="node24" class="node">
<title>Node35</title>
<g id="a_node24"><a xlink:href="spec_2packet__io_8h.html" target="_top" xlink:title="ODP Packet IO. ">
<polygon fill="#ffffff" stroke="#000000" points="1251.5,-224.5 1251.5,-243.5 1318.5,-243.5 1318.5,-224.5 1251.5,-224.5"/>
<text text-anchor="middle" x="1285" y="-231.5" font-family="Helvetica,sans-Serif" font-size="10.00" fill="#000000">packet_io.h</text>
</a>
</g>
</g>
<!-- Node27&#45;&gt;Node35 -->
<g id="edge25" class="edge">
<title>Node27&#45;&gt;Node35</title>
<path fill="none" stroke="#191970" d="M1234.377,-273.928C1246.7871,-264.1397 1262.23,-251.9595 1272.7745,-243.6427"/>
<polygon fill="#191970" stroke="#191970" points="1232.0514,-271.3046 1226.3673,-280.2455 1236.3864,-276.8007 1232.0514,-271.3046"/>
</g>
<!-- Node30&#45;&gt;Node26 -->
<g id="edge21" class="edge">
<title>Node30&#45;&gt;Node26</title>
<path fill="none" stroke="#191970" d="M1242.8821,-223.6423C1281.1748,-212.5887 1340.9109,-195.3453 1374.9417,-185.522"/>
<polygon fill="#191970" stroke="#191970" points="1241.8007,-220.3114 1233.1637,-226.4476 1243.7421,-227.0369 1241.8007,-220.3114"/>
</g>
<!-- Node43 -->
<g id="node23" class="node">
<title>Node43</title>
<g id="a_node23"><a xlink:href="packet__flags_8h.html" target="_top" xlink:title="ODP packet flags. ">
<polygon fill="#ffffff" stroke="#000000" points="948,-168.5 948,-187.5 1028,-187.5 1028,-168.5 948,-168.5"/>
<text text-anchor="middle" x="988" y="-175.5" font-family="Helvetica,sans-Serif" font-size="10.00" fill="#000000">packet_flags.h</text>
</a>
</g>
</g>
<!-- Node42&#45;&gt;Node43 -->
<g id="edge24" class="edge">
<title>Node42&#45;&gt;Node43</title>
<path fill="none" stroke="#191970" d="M988,-214.1575C988,-205.155 988,-194.9199 988,-187.6427"/>
<polygon fill="#191970" stroke="#191970" points="984.5001,-214.2455 988,-224.2455 991.5001,-214.2456 984.5001,-214.2455"/>
</g>
<!-- Node35&#45;&gt;Node36 -->
<g id="edge26" class="edge">
<title>Node35&#45;&gt;Node36</title>
<path fill="none" stroke="#191970" d="M1278.7173,-214.4538C1275.8008,-205.3803 1272.4642,-194.9998 1270.0994,-187.6427"/>
<polygon fill="#191970" stroke="#191970" points="1275.4724,-215.7963 1281.8646,-224.2455 1282.1366,-213.6542 1275.4724,-215.7963"/>
</g>
<!-- Node36&#45;&gt;Node24 -->
<g id="edge29" class="edge">
<title>Node36&#45;&gt;Node24</title>
<path fill="none" stroke="#191970" d="M1267,-158.2601C1267,-122.1669 1267,-46.7656 1267,-19.8279"/>
<polygon fill="#191970" stroke="#191970" points="1263.5001,-158.4862 1267,-168.4862 1270.5001,-158.4863 1263.5001,-158.4862"/>
</g>
<!-- Node37 -->
<g id="node26" class="node">
<title>Node37</title>
<g id="a_node26"><a xlink:href="spec_2classification_8h.html" target="_top" xlink:title="ODP classification descriptor. ">
<polygon fill="#ffffff" stroke="#000000" points="1157,-112.5 1157,-131.5 1239,-131.5 1239,-112.5 1157,-112.5"/>
<text text-anchor="middle" x="1198" y="-119.5" font-family="Helvetica,sans-Serif" font-size="10.00" fill="#000000">classification.h</text>
</a>
</g>
</g>
<!-- Node36&#45;&gt;Node37 -->
<g id="edge27" class="edge">
<title>Node36&#45;&gt;Node37</title>
<path fill="none" stroke="#191970" d="M1247.197,-161.928C1235.1364,-152.1397 1220.1286,-139.9595 1209.8812,-131.6427"/>
<polygon fill="#191970" stroke="#191970" points="1245.0109,-164.6614 1254.9811,-168.2455 1249.4221,-159.2262 1245.0109,-164.6614"/>
</g>
<!-- Node36&#45;&gt;Node38 -->
<g id="edge30" class="edge">
<title>Node36&#45;&gt;Node38</title>
<path fill="none" stroke="#191970" d="M1286.5676,-161.645C1298.2198,-151.9058 1312.6084,-139.8795 1322.4632,-131.6427"/>
<polygon fill="#191970" stroke="#191970" points="1284.0988,-159.1469 1278.6705,-168.2455 1288.5879,-164.5179 1284.0988,-159.1469"/>
</g>
<!-- Node37&#45;&gt;Node23 -->
<g id="edge28" class="edge">
<title>Node37&#45;&gt;Node23</title>
<path fill="none" stroke="#191970" d="M1198,-102.1575C1198,-93.155 1198,-82.9199 1198,-75.6427"/>
<polygon fill="#191970" stroke="#191970" points="1194.5001,-102.2455 1198,-112.2455 1201.5001,-102.2456 1194.5001,-102.2455"/>
</g>
<!-- Node34&#45;&gt;Node26 -->
<g id="edge33" class="edge">
<title>Node34&#45;&gt;Node26</title>
<path fill="none" stroke="#191970" d="M1387.8185,-270.2702C1391.2859,-245.9985 1397.0325,-205.7725 1399.6393,-187.5249"/>
<polygon fill="#191970" stroke="#191970" points="1384.3136,-270.0564 1386.3642,-280.4509 1391.2433,-271.0465 1384.3136,-270.0564"/>
</g>
<!-- Node34&#45;&gt;Node35 -->
<g id="edge34" class="edge">
<title>Node34&#45;&gt;Node35</title>
<path fill="none" stroke="#191970" d="M1358.7902,-275.3225C1340.9283,-265.3198 1317.7845,-252.3593 1302.2191,-243.6427"/>
<polygon fill="#191970" stroke="#191970" points="1357.1461,-278.4132 1367.5813,-280.2455 1360.5664,-272.3057 1357.1461,-278.4132"/>
</g>
<!-- Node34&#45;&gt;Node40 -->
<g id="edge35" class="edge">
<title>Node34&#45;&gt;Node40</title>
<path fill="none" stroke="#191970" d="M1411.1686,-275.0465C1428.6058,-265.0824 1451.0111,-252.2794 1466.1253,-243.6427"/>
<polygon fill="#191970" stroke="#191970" points="1409.0162,-272.2453 1402.0703,-280.2455 1412.4892,-278.323 1409.0162,-272.2453"/>
</g>
<!-- Node41 -->
<g id="node30" class="node">
<title>Node41</title>
<g id="a_node30"><a xlink:href="schedule_8h.html" target="_top" xlink:title="ODP schedule. ">
<polygon fill="#ffffff" stroke="#000000" points="1451,-168.5 1451,-187.5 1515,-187.5 1515,-168.5 1451,-168.5"/>
<text text-anchor="middle" x="1483" y="-175.5" font-family="Helvetica,sans-Serif" font-size="10.00" fill="#000000">schedule.h</text>
</a>
</g>
</g>
<!-- Node40&#45;&gt;Node41 -->
<g id="edge36" class="edge">
<title>Node40&#45;&gt;Node41</title>
<path fill="none" stroke="#191970" d="M1483,-214.1575C1483,-205.155 1483,-194.9199 1483,-187.6427"/>
<polygon fill="#191970" stroke="#191970" points="1479.5001,-214.2455 1483,-224.2455 1486.5001,-214.2456 1479.5001,-214.2455"/>
</g>
<!-- Node45 -->
<g id="node32" class="node">
<title>Node45</title>
<g id="a_node32"><a xlink:href="chksum_8h.html" target="_top" xlink:title="ODP checksum functions. ">
<polygon fill="#ffffff" stroke="#000000" points="1533.5,-224.5 1533.5,-243.5 1592.5,-243.5 1592.5,-224.5 1533.5,-224.5"/>
<text text-anchor="middle" x="1563" y="-231.5" font-family="Helvetica,sans-Serif" font-size="10.00" fill="#000000">chksum.h</text>
</a>
</g>
</g>
<!-- Node44&#45;&gt;Node45 -->
<g id="edge38" class="edge">
<title>Node44&#45;&gt;Node45</title>
<path fill="none" stroke="#191970" d="M1544.4781,-271.0437C1549.0835,-261.8331 1554.4201,-251.1598 1558.1787,-243.6427"/>
<polygon fill="#191970" stroke="#191970" points="1541.2189,-269.736 1539.8772,-280.2455 1547.4799,-272.8665 1541.2189,-269.736"/>
</g>
<!-- Node47 -->
<g id="node34" class="node">
<title>Node47</title>
<g id="a_node34"><a xlink:href="cpu_8h.html" target="_top" xlink:title="ODP CPU. ">
<polygon fill="#ffffff" stroke="#ff0000" points="1610.5,-224.5 1610.5,-243.5 1651.5,-243.5 1651.5,-224.5 1610.5,-224.5"/>
<text text-anchor="middle" x="1631" y="-231.5" font-family="Helvetica,sans-Serif" font-size="10.00" fill="#000000">cpu.h</text>
</a>
</g>
</g>
<!-- Node46&#45;&gt;Node47 -->
<g id="edge40" class="edge">
<title>Node46&#45;&gt;Node47</title>
<path fill="none" stroke="#191970" d="M1612.4781,-271.0437C1617.0835,-261.8331 1622.4201,-251.1598 1626.1787,-243.6427"/>
<polygon fill="#191970" stroke="#191970" points="1609.2189,-269.736 1607.8772,-280.2455 1615.4799,-272.8665 1609.2189,-269.736"/>
</g>
<!-- Node50 -->
<g id="node36" class="node">
<title>Node50</title>
<g id="a_node36"><a xlink:href="feature_8h.html" target="_top" xlink:title="ODP features. ">
<polygon fill="#ffffff" stroke="#000000" points="1708.5,-224.5 1708.5,-243.5 1763.5,-243.5 1763.5,-224.5 1708.5,-224.5"/>
<text text-anchor="middle" x="1736" y="-231.5" font-family="Helvetica,sans-Serif" font-size="10.00" fill="#000000">feature.h</text>
</a>
</g>
</g>
<!-- Node49&#45;&gt;Node50 -->
<g id="edge42" class="edge">
<title>Node49&#45;&gt;Node50</title>
<path fill="none" stroke="#191970" d="M1717.4781,-271.0437C1722.0835,-261.8331 1727.4201,-251.1598 1731.1787,-243.6427"/>
<polygon fill="#191970" stroke="#191970" points="1714.2189,-269.736 1712.8772,-280.2455 1720.4799,-272.8665 1714.2189,-269.736"/>
</g>
<!-- Node50&#45;&gt;Node51 -->
<g id="edge43" class="edge">
<title>Node50&#45;&gt;Node51</title>
<path fill="none" stroke="#191970" d="M1726.5219,-215.0437C1721.9165,-205.8331 1716.5799,-195.1598 1712.8213,-187.6427"/>
<polygon fill="#191970" stroke="#191970" points="1723.5201,-216.8665 1731.1228,-224.2455 1729.7811,-213.736 1723.5201,-216.8665"/>
</g>
<!-- Node52 -->
<g id="node38" class="node">
<title>Node52</title>
<g id="a_node38"><a xlink:href="init_8h.html" target="_top" xlink:title="ODP initialization. ">
<polygon fill="#ffffff" stroke="#ff0000" points="1689,-112.5 1689,-131.5 1727,-131.5 1727,-112.5 1689,-112.5"/>
<text text-anchor="middle" x="1708" y="-119.5" font-family="Helvetica,sans-Serif" font-size="10.00" fill="#000000">init.h</text>
</a>
</g>
</g>
<!-- Node51&#45;&gt;Node52 -->
<g id="edge44" class="edge">
<title>Node51&#45;&gt;Node52</title>
<path fill="none" stroke="#191970" d="M1708,-158.1575C1708,-149.155 1708,-138.9199 1708,-131.6427"/>
<polygon fill="#191970" stroke="#191970" points="1704.5001,-158.2455 1708,-168.2455 1711.5001,-158.2456 1704.5001,-158.2455"/>
</g>
<!-- Node56 -->
<g id="node40" class="node">
<title>Node56</title>
<g id="a_node40"><a xlink:href="hash_8h.html" target="_top" xlink:title="ODP Hash function. ">
<polygon fill="#ffffff" stroke="#000000" points="1782,-224.5 1782,-243.5 1828,-243.5 1828,-224.5 1782,-224.5"/>
<text text-anchor="middle" x="1805" y="-231.5" font-family="Helvetica,sans-Serif" font-size="10.00" fill="#000000">hash.h</text>
</a>
</g>
</g>
<!-- Node55&#45;&gt;Node56 -->
<g id="edge46" class="edge">
<title>Node55&#45;&gt;Node56</title>
<path fill="none" stroke="#191970" d="M1786.4781,-271.0437C1791.0835,-261.8331 1796.4201,-251.1598 1800.1787,-243.6427"/>
<polygon fill="#191970" stroke="#191970" points="1783.2189,-269.736 1781.8772,-280.2455 1789.4799,-272.8665 1783.2189,-269.736"/>
</g>
<!-- Node58 -->
<g id="node42" class="node">
<title>Node58</title>
<g id="a_node42"><a xlink:href="pool_8h.html" target="_top" xlink:title="ODP pool. ">
<polygon fill="#ffffff" stroke="#ff0000" points="1846.5,-224.5 1846.5,-243.5 1889.5,-243.5 1889.5,-224.5 1846.5,-224.5"/>
<text text-anchor="middle" x="1868" y="-231.5" font-family="Helvetica,sans-Serif" font-size="10.00" fill="#000000">pool.h</text>
</a>
</g>
</g>
<!-- Node57&#45;&gt;Node58 -->
<g id="edge50" class="edge">
<title>Node57&#45;&gt;Node58</title>
<path fill="none" stroke="#191970" d="M1849.4781,-271.0437C1854.0835,-261.8331 1859.4201,-251.1598 1863.1787,-243.6427"/>
<polygon fill="#191970" stroke="#191970" points="1846.2189,-269.736 1844.8772,-280.2455 1852.4799,-272.8665 1846.2189,-269.736"/>
</g>
<!-- Node61 -->
<g id="node44" class="node">
<title>Node61</title>
<g id="a_node44"><a xlink:href="stash_8h.html" target="_top" xlink:title="ODP stash. ">
<polygon fill="#ffffff" stroke="#000000" points="1907.5,-224.5 1907.5,-243.5 1956.5,-243.5 1956.5,-224.5 1907.5,-224.5"/>
<text text-anchor="middle" x="1932" y="-231.5" font-family="Helvetica,sans-Serif" font-size="10.00" fill="#000000">stash.h</text>
</a>
</g>
</g>
<!-- Node60&#45;&gt;Node61 -->
<g id="edge53" class="edge">
<title>Node60&#45;&gt;Node61</title>
<path fill="none" stroke="#191970" d="M1913.4781,-271.0437C1918.0835,-261.8331 1923.4201,-251.1598 1927.1787,-243.6427"/>
<polygon fill="#191970" stroke="#191970" points="1910.2189,-269.736 1908.8772,-280.2455 1916.4799,-272.8665 1910.2189,-269.736"/>
</g>
<!-- Node67&#45;&gt;Node35 -->
<g id="edge59" class="edge">
<title>Node67&#45;&gt;Node35</title>
<path fill="none" stroke="#191970" d="M1282.4173,-270.1575C1283.0604,-261.155 1283.7914,-250.9199 1284.3112,-243.6427"/>
<polygon fill="#191970" stroke="#191970" points="1278.9182,-270.0216 1281.6967,-280.2455 1285.9004,-270.5204 1278.9182,-270.0216"/>
</g>
</g>
</svg>
