<?xml version="1.0" encoding="UTF-8" standalone="no"?>
<!DOCTYPE svg PUBLIC "-//W3C//DTD SVG 1.1//EN"
 "http://www.w3.org/Graphics/SVG/1.1/DTD/svg11.dtd">
<!-- Generated by graphviz version 2.40.1 (20161225.0304)
 -->
<!-- Title: odp_ipsec_crypto_param_t Pages: 1 -->
<svg width="153pt" height="128pt"
 viewBox="0.00 0.00 153.00 128.00" xmlns="http://www.w3.org/2000/svg" xmlns:xlink="http://www.w3.org/1999/xlink">
<g id="graph0" class="graph" transform="scale(1 1) rotate(0) translate(4 124)">
<title>odp_ipsec_crypto_param_t</title>
<polygon fill="#ffffff" stroke="transparent" points="-4,4 -4,-124 149,-124 149,4 -4,4"/>
<!-- Node1 -->
<g id="node1" class="node">
<title>Node1</title>
<polygon fill="#bfbfbf" stroke="#000000" points="0,-.5 0,-19.5 134,-19.5 134,-.5 0,-.5"/>
<text text-anchor="middle" x="67" y="-7.5" font-family="Helvetica,sans-Serif" font-size="10.00" fill="#000000">odp_ipsec_crypto_param_t</text>
</g>
<!-- Node2 -->
<g id="node2" class="node">
<title>Node2</title>
<g id="a_node2"><a xlink:href="structodp__crypto__key.html" target="_top" xlink:title="Crypto API key structure. ">
<polygon fill="#ffffff" stroke="#000000" points="24,-100.5 24,-119.5 110,-119.5 110,-100.5 24,-100.5"/>
<text text-anchor="middle" x="67" y="-107.5" font-family="Helvetica,sans-Serif" font-size="10.00" fill="#000000">odp_crypto_key</text>
</a>
</g>
</g>
<!-- Node2&#45;&gt;Node1 -->
<g id="edge1" class="edge">
<title>Node2&#45;&gt;Node1</title>
<path fill="none" stroke="#9a32cd" stroke-dasharray="5,2" d="M67,-90.2332C67,-68.9448 67,-35.9485 67,-19.7063"/>
<polygon fill="#9a32cd" stroke="#9a32cd" points="63.5001,-90.4115 67,-100.4116 70.5001,-90.4116 63.5001,-90.4115"/>
<text text-anchor="middle" x="106" y="-74" font-family="Helvetica,sans-Serif" font-size="10.00" fill="#000000"> cipher_key_extra</text>
<text text-anchor="middle" x="106" y="-63" font-family="Helvetica,sans-Serif" font-size="10.00" fill="#000000">auth_key</text>
<text text-anchor="middle" x="106" y="-52" font-family="Helvetica,sans-Serif" font-size="10.00" fill="#000000">cipher_key</text>
<text text-anchor="middle" x="106" y="-41" font-family="Helvetica,sans-Serif" font-size="10.00" fill="#000000">auth_key_extra</text>
</g>
</g>
</svg>
