<?xml version="1.0" encoding="UTF-8" standalone="no"?>
<!DOCTYPE svg PUBLIC "-//W3C//DTD SVG 1.1//EN"
 "http://www.w3.org/Graphics/SVG/1.1/DTD/svg11.dtd">
<!-- Generated by graphviz version 2.40.1 (20161225.0304)
 -->
<!-- Title: odp_comp_session_param_t Pages: 1 -->
<svg width="246pt" height="162pt"
 viewBox="0.00 0.00 245.50 162.00" xmlns="http://www.w3.org/2000/svg" xmlns:xlink="http://www.w3.org/1999/xlink">
<g id="graph0" class="graph" transform="scale(1 1) rotate(0) translate(4 158)">
<title>odp_comp_session_param_t</title>
<polygon fill="#ffffff" stroke="transparent" points="-4,4 -4,-158 241.5,-158 241.5,4 -4,4"/>
<!-- Node1 -->
<g id="node1" class="node">
<title>Node1</title>
<polygon fill="#bfbfbf" stroke="#000000" points="56.5,-.5 56.5,-19.5 197.5,-19.5 197.5,-.5 56.5,-.5"/>
<text text-anchor="middle" x="127" y="-7.5" font-family="Helvetica,sans-Serif" font-size="10.00" fill="#000000">odp_comp_session_param_t</text>
</g>
<!-- Node2 -->
<g id="node2" class="node">
<title>Node2</title>
<g id="a_node2"><a xlink:href="unionodp__comp__alg__param__t.html" target="_top" xlink:title="Compression algorithm specific parameters. ">
<polygon fill="#ffffff" stroke="#000000" points="4,-67.5 4,-86.5 124,-86.5 124,-67.5 4,-67.5"/>
<text text-anchor="middle" x="64" y="-74.5" font-family="Helvetica,sans-Serif" font-size="10.00" fill="#000000">odp_comp_alg_param_t</text>
</a>
</g>
</g>
<!-- Node2&#45;&gt;Node1 -->
<g id="edge1" class="edge">
<title>Node2&#45;&gt;Node1</title>
<path fill="none" stroke="#9a32cd" stroke-dasharray="5,2" d="M79.9112,-60.0785C91.9608,-47.2639 108.0795,-30.1218 117.9904,-19.5817"/>
<polygon fill="#9a32cd" stroke="#9a32cd" points="77.3268,-57.7177 73.0264,-67.4005 82.4265,-62.5129 77.3268,-57.7177"/>
<text text-anchor="middle" x="124.5" y="-41" font-family="Helvetica,sans-Serif" font-size="10.00" fill="#000000"> alg_param</text>
</g>
<!-- Node3 -->
<g id="node3" class="node">
<title>Node3</title>
<g id="a_node3"><a xlink:href="structodp__comp__deflate__param.html" target="_top" xlink:title="Compression DEFLATEe algorithm parameters. ">
<polygon fill="#ffffff" stroke="#000000" points="0,-134.5 0,-153.5 128,-153.5 128,-134.5 0,-134.5"/>
<text text-anchor="middle" x="64" y="-141.5" font-family="Helvetica,sans-Serif" font-size="10.00" fill="#000000">odp_comp_deflate_param</text>
</a>
</g>
</g>
<!-- Node3&#45;&gt;Node2 -->
<g id="edge2" class="edge">
<title>Node3&#45;&gt;Node2</title>
<path fill="none" stroke="#9a32cd" stroke-dasharray="5,2" d="M64,-124.1079C64,-111.714 64,-96.3263 64,-86.5817"/>
<polygon fill="#9a32cd" stroke="#9a32cd" points="60.5001,-124.4005 64,-134.4005 67.5001,-124.4006 60.5001,-124.4005"/>
<text text-anchor="middle" x="80.5" y="-108" font-family="Helvetica,sans-Serif" font-size="10.00" fill="#000000"> deflate</text>
</g>
<!-- Node4 -->
<g id="node4" class="node">
<title>Node4</title>
<g id="a_node4"><a xlink:href="struct__odp__abi__queue__t.html" target="_top" xlink:title="_odp_abi_queue_t">
<polygon fill="#ffffff" stroke="#000000" points="142.5,-67.5 142.5,-86.5 237.5,-86.5 237.5,-67.5 142.5,-67.5"/>
<text text-anchor="middle" x="190" y="-74.5" font-family="Helvetica,sans-Serif" font-size="10.00" fill="#000000">_odp_abi_queue_t</text>
</a>
</g>
</g>
<!-- Node4&#45;&gt;Node1 -->
<g id="edge3" class="edge">
<title>Node4&#45;&gt;Node1</title>
<path fill="none" stroke="#9a32cd" stroke-dasharray="5,2" d="M174.0888,-60.0785C162.0392,-47.2639 145.9205,-30.1218 136.0096,-19.5817"/>
<polygon fill="#9a32cd" stroke="#9a32cd" points="171.5735,-62.5129 180.9736,-67.4005 176.6732,-57.7177 171.5735,-62.5129"/>
<text text-anchor="middle" x="192.5" y="-41" font-family="Helvetica,sans-Serif" font-size="10.00" fill="#000000"> compl_queue</text>
</g>
</g>
</svg>
