<?xml version="1.0" encoding="UTF-8" standalone="no"?>
<!DOCTYPE svg PUBLIC "-//W3C//DTD SVG 1.1//EN"
 "http://www.w3.org/Graphics/SVG/1.1/DTD/svg11.dtd">
<!-- Generated by graphviz version 2.40.1 (20161225.0304)
 -->
<!-- Title: odp_ipsec_inbound_config_t Pages: 1 -->
<svg width="234pt" height="95pt"
 viewBox="0.00 0.00 234.00 95.00" xmlns="http://www.w3.org/2000/svg" xmlns:xlink="http://www.w3.org/1999/xlink">
<g id="graph0" class="graph" transform="scale(1 1) rotate(0) translate(4 91)">
<title>odp_ipsec_inbound_config_t</title>
<polygon fill="#ffffff" stroke="transparent" points="-4,4 -4,-91 230,-91 230,4 -4,4"/>
<!-- Node1 -->
<g id="node1" class="node">
<title>Node1</title>
<polygon fill="#bfbfbf" stroke="#000000" points="47.5,-.5 47.5,-19.5 187.5,-19.5 187.5,-.5 47.5,-.5"/>
<text text-anchor="middle" x="117.5" y="-7.5" font-family="Helvetica,sans-Serif" font-size="10.00" fill="#000000">odp_ipsec_inbound_config_t</text>
</g>
<!-- Node2 -->
<g id="node2" class="node">
<title>Node2</title>
<g id="a_node2"><a xlink:href="unionodp__proto__chksums__t.html" target="_top" xlink:title="Flags to control packet data checksum checking. ">
<polygon fill="#ffffff" stroke="#000000" points="0,-67.5 0,-86.5 113,-86.5 113,-67.5 0,-67.5"/>
<text text-anchor="middle" x="56.5" y="-74.5" font-family="Helvetica,sans-Serif" font-size="10.00" fill="#000000">odp_proto_chksums_t</text>
</a>
</g>
</g>
<!-- Node2&#45;&gt;Node1 -->
<g id="edge1" class="edge">
<title>Node2&#45;&gt;Node1</title>
<path fill="none" stroke="#9a32cd" stroke-dasharray="5,2" d="M72.2374,-59.7147C83.8671,-46.941 99.2707,-30.0224 108.7764,-19.5817"/>
<polygon fill="#9a32cd" stroke="#9a32cd" points="69.384,-57.6498 65.2398,-67.4005 74.5601,-62.3624 69.384,-57.6498"/>
<text text-anchor="middle" x="113" y="-41" font-family="Helvetica,sans-Serif" font-size="10.00" fill="#000000"> chksums</text>
</g>
<!-- Node3 -->
<g id="node3" class="node">
<title>Node3</title>
<g id="a_node3"><a xlink:href="struct__odp__abi__queue__t.html" target="_top" xlink:title="_odp_abi_queue_t">
<polygon fill="#ffffff" stroke="#000000" points="131,-67.5 131,-86.5 226,-86.5 226,-67.5 131,-67.5"/>
<text text-anchor="middle" x="178.5" y="-74.5" font-family="Helvetica,sans-Serif" font-size="10.00" fill="#000000">_odp_abi_queue_t</text>
</a>
</g>
</g>
<!-- Node3&#45;&gt;Node1 -->
<g id="edge2" class="edge">
<title>Node3&#45;&gt;Node1</title>
<path fill="none" stroke="#9a32cd" stroke-dasharray="5,2" d="M162.7626,-59.7147C151.1329,-46.941 135.7293,-30.0224 126.2236,-19.5817"/>
<polygon fill="#9a32cd" stroke="#9a32cd" points="160.4399,-62.3624 169.7602,-67.4005 165.616,-57.6498 160.4399,-62.3624"/>
<text text-anchor="middle" x="183.5" y="-41" font-family="Helvetica,sans-Serif" font-size="10.00" fill="#000000"> default_queue</text>
</g>
</g>
</svg>
