<?xml version="1.0" encoding="UTF-8" standalone="no"?>
<!DOCTYPE svg PUBLIC "-//W3C//DTD SVG 1.1//EN"
 "http://www.w3.org/Graphics/SVG/1.1/DTD/svg11.dtd">
<!-- Generated by graphviz version 2.40.1 (20161225.0304)
 -->
<!-- Title: odp_rwlock_recursive_s Pages: 1 -->
<svg width="130pt" height="162pt"
 viewBox="0.00 0.00 130.00 162.00" xmlns="http://www.w3.org/2000/svg" xmlns:xlink="http://www.w3.org/1999/xlink">
<g id="graph0" class="graph" transform="scale(1 1) rotate(0) translate(4 158)">
<title>odp_rwlock_recursive_s</title>
<polygon fill="#ffffff" stroke="transparent" points="-4,4 -4,-158 126,-158 126,4 -4,4"/>
<!-- Node1 -->
<g id="node1" class="node">
<title>Node1</title>
<polygon fill="#bfbfbf" stroke="#000000" points="0,-.5 0,-19.5 122,-19.5 122,-.5 0,-.5"/>
<text text-anchor="middle" x="61" y="-7.5" font-family="Helvetica,sans-Serif" font-size="10.00" fill="#000000">odp_rwlock_recursive_s</text>
</g>
<!-- Node2 -->
<g id="node2" class="node">
<title>Node2</title>
<g id="a_node2"><a xlink:href="structodp__rwlock__s.html" target="_top" xlink:title="odp_rwlock_s">
<polygon fill="#ffffff" stroke="#000000" points="22.5,-67.5 22.5,-86.5 99.5,-86.5 99.5,-67.5 22.5,-67.5"/>
<text text-anchor="middle" x="61" y="-74.5" font-family="Helvetica,sans-Serif" font-size="10.00" fill="#000000">odp_rwlock_s</text>
</a>
</g>
</g>
<!-- Node2&#45;&gt;Node1 -->
<g id="edge1" class="edge">
<title>Node2&#45;&gt;Node1</title>
<path fill="none" stroke="#9a32cd" stroke-dasharray="5,2" d="M61,-57.1079C61,-44.714 61,-29.3263 61,-19.5817"/>
<polygon fill="#9a32cd" stroke="#9a32cd" points="57.5001,-57.4005 61,-67.4005 64.5001,-57.4006 57.5001,-57.4005"/>
<text text-anchor="middle" x="72" y="-41" font-family="Helvetica,sans-Serif" font-size="10.00" fill="#000000"> lock</text>
</g>
<!-- Node3 -->
<g id="node3" class="node">
<title>Node3</title>
<g id="a_node3"><a xlink:href="structodp__atomic__u32__s.html" target="_top" xlink:title="odp_atomic_u32_s">
<polygon fill="#ffffff" stroke="#000000" points="12,-134.5 12,-153.5 110,-153.5 110,-134.5 12,-134.5"/>
<text text-anchor="middle" x="61" y="-141.5" font-family="Helvetica,sans-Serif" font-size="10.00" fill="#000000">odp_atomic_u32_s</text>
</a>
</g>
</g>
<!-- Node3&#45;&gt;Node2 -->
<g id="edge2" class="edge">
<title>Node3&#45;&gt;Node2</title>
<path fill="none" stroke="#9a32cd" stroke-dasharray="5,2" d="M61,-124.1079C61,-111.714 61,-96.3263 61,-86.5817"/>
<polygon fill="#9a32cd" stroke="#9a32cd" points="57.5001,-124.4005 61,-134.4005 64.5001,-124.4006 57.5001,-124.4005"/>
<text text-anchor="middle" x="69.5" y="-108" font-family="Helvetica,sans-Serif" font-size="10.00" fill="#000000"> cnt</text>
</g>
</g>
</svg>
