<?xml version="1.0" encoding="UTF-8" standalone="no"?>
<!DOCTYPE svg PUBLIC "-//W3C//DTD SVG 1.1//EN"
 "http://www.w3.org/Graphics/SVG/1.1/DTD/svg11.dtd">
<!-- Generated by graphviz version 2.40.1 (20161225.0304)
 -->
<!-- Title: odp_crypto_op_result Pages: 1 -->
<svg width="238pt" height="106pt"
 viewBox="0.00 0.00 237.50 106.00" xmlns="http://www.w3.org/2000/svg" xmlns:xlink="http://www.w3.org/1999/xlink">
<g id="graph0" class="graph" transform="scale(1 1) rotate(0) translate(4 102)">
<title>odp_crypto_op_result</title>
<polygon fill="#ffffff" stroke="transparent" points="-4,4 -4,-102 233.5,-102 233.5,4 -4,4"/>
<!-- Node1 -->
<g id="node1" class="node">
<title>Node1</title>
<polygon fill="#bfbfbf" stroke="#000000" points="56,-.5 56,-19.5 166,-19.5 166,-.5 56,-.5"/>
<text text-anchor="middle" x="111" y="-7.5" font-family="Helvetica,sans-Serif" font-size="10.00" fill="#000000">odp_crypto_op_result</text>
</g>
<!-- Node2 -->
<g id="node2" class="node">
<title>Node2</title>
<g id="a_node2"><a xlink:href="struct__odp__abi__packet__t.html" target="_top" xlink:title="_odp_abi_packet_t">
<polygon fill="#ffffff" stroke="#000000" points="0,-78.5 0,-97.5 98,-97.5 98,-78.5 0,-78.5"/>
<text text-anchor="middle" x="49" y="-85.5" font-family="Helvetica,sans-Serif" font-size="10.00" fill="#000000">_odp_abi_packet_t</text>
</a>
</g>
</g>
<!-- Node2&#45;&gt;Node1 -->
<g id="edge1" class="edge">
<title>Node2&#45;&gt;Node1</title>
<path fill="none" stroke="#9a32cd" stroke-dasharray="5,2" d="M62.9019,-70.5105C75.3893,-54.8005 93.263,-32.3143 103.3354,-19.6426"/>
<polygon fill="#9a32cd" stroke="#9a32cd" points="60.085,-68.4295 56.6024,-78.4357 65.5648,-72.7853 60.085,-68.4295"/>
<text text-anchor="middle" x="96.5" y="-46.5" font-family="Helvetica,sans-Serif" font-size="10.00" fill="#000000"> pkt</text>
</g>
<!-- Node3 -->
<g id="node3" class="node">
<title>Node3</title>
<g id="a_node3"><a xlink:href="structodp__crypto__op__status.html" target="_top" xlink:title="Cryto API per packet operation completion status. ">
<polygon fill="#ffffff" stroke="#000000" points="116.5,-78.5 116.5,-97.5 229.5,-97.5 229.5,-78.5 116.5,-78.5"/>
<text text-anchor="middle" x="173" y="-85.5" font-family="Helvetica,sans-Serif" font-size="10.00" fill="#000000">odp_crypto_op_status</text>
</a>
</g>
</g>
<!-- Node3&#45;&gt;Node1 -->
<g id="edge2" class="edge">
<title>Node3&#45;&gt;Node1</title>
<path fill="none" stroke="#9a32cd" stroke-dasharray="5,2" d="M159.0981,-70.5105C146.6107,-54.8005 128.737,-32.3143 118.6646,-19.6426"/>
<polygon fill="#9a32cd" stroke="#9a32cd" points="156.4352,-72.7853 165.3976,-78.4357 161.915,-68.4295 156.4352,-72.7853"/>
<text text-anchor="middle" x="180" y="-52" font-family="Helvetica,sans-Serif" font-size="10.00" fill="#000000"> cipher_status</text>
<text text-anchor="middle" x="180" y="-41" font-family="Helvetica,sans-Serif" font-size="10.00" fill="#000000">auth_status</text>
</g>
</g>
</svg>
