<?xml version="1.0" encoding="UTF-8" standalone="no"?>
<!DOCTYPE svg PUBLIC "-//W3C//DTD SVG 1.1//EN"
 "http://www.w3.org/Graphics/SVG/1.1/DTD/svg11.dtd">
<!-- Generated by graphviz version 2.40.1 (20161225.0304)
 -->
<!-- Title: odp_cls_cos_param Pages: 1 -->
<svg width="537pt" height="265pt"
 viewBox="0.00 0.00 537.00 265.00" xmlns="http://www.w3.org/2000/svg" xmlns:xlink="http://www.w3.org/1999/xlink">
<g id="graph0" class="graph" transform="scale(1 1) rotate(0) translate(4 261)">
<title>odp_cls_cos_param</title>
<polygon fill="#ffffff" stroke="transparent" points="-4,4 -4,-261 533,-261 533,4 -4,4"/>
<!-- Node1 -->
<g id="node1" class="node">
<title>Node1</title>
<polygon fill="#bfbfbf" stroke="#000000" points="425,-122.5 425,-141.5 529,-141.5 529,-122.5 425,-122.5"/>
<text text-anchor="middle" x="477" y="-129.5" font-family="Helvetica,sans-Serif" font-size="10.00" fill="#000000">odp_cls_cos_param</text>
</g>
<!-- Node2 -->
<g id="node2" class="node">
<title>Node2</title>
<g id="a_node2"><a xlink:href="structodp__red__param__t.html" target="_top" xlink:title="Random Early Detection (RED) Random Early Detection is enabled to initiate a drop probability for the...">
<polygon fill="#ffffff" stroke="#000000" points="215.5,-237.5 215.5,-256.5 307.5,-256.5 307.5,-237.5 215.5,-237.5"/>
<text text-anchor="middle" x="261.5" y="-244.5" font-family="Helvetica,sans-Serif" font-size="10.00" fill="#000000">odp_red_param_t</text>
</a>
</g>
</g>
<!-- Node2&#45;&gt;Node1 -->
<g id="edge1" class="edge">
<title>Node2&#45;&gt;Node1</title>
<path fill="none" stroke="#9a32cd" stroke-dasharray="5,2" d="M317.7229,-237.9588C345.9601,-231.6855 379.8464,-221.4134 407,-205 434.9499,-188.1052 459.2376,-157.2245 470.4302,-141.5998"/>
<polygon fill="#9a32cd" stroke="#9a32cd" points="316.6612,-234.6056 307.5982,-240.0931 318.1051,-241.4551 316.6612,-234.6056"/>
<text text-anchor="middle" x="376" y="-233" font-family="Helvetica,sans-Serif" font-size="10.00" fill="#000000"> red</text>
</g>
<!-- Node3 -->
<g id="node3" class="node">
<title>Node3</title>
<g id="a_node3"><a xlink:href="structodp__threshold__t.html" target="_top" xlink:title="ODP Threshold. ">
<polygon fill="#ffffff" stroke="#000000" points="15.5,-216.5 15.5,-235.5 101.5,-235.5 101.5,-216.5 15.5,-216.5"/>
<text text-anchor="middle" x="58.5" y="-223.5" font-family="Helvetica,sans-Serif" font-size="10.00" fill="#000000">odp_threshold_t</text>
</a>
</g>
</g>
<!-- Node3&#45;&gt;Node2 -->
<g id="edge2" class="edge">
<title>Node3&#45;&gt;Node2</title>
<path fill="none" stroke="#9a32cd" stroke-dasharray="5,2" d="M111.6803,-231.5014C143.8645,-234.8308 184.5032,-239.0348 215.333,-242.2241"/>
<polygon fill="#9a32cd" stroke="#9a32cd" points="111.8582,-228.0012 101.5511,-230.4536 111.1378,-234.9641 111.8582,-228.0012"/>
<text text-anchor="middle" x="156.5" y="-240" font-family="Helvetica,sans-Serif" font-size="10.00" fill="#000000"> threshold</text>
</g>
<!-- Node10 -->
<g id="node10" class="node">
<title>Node10</title>
<g id="a_node10"><a xlink:href="structodp__bp__param__t.html" target="_top" xlink:title="Back pressure (BP) When back pressure is enabled for a particular flow, the HW can send back pressure...">
<polygon fill="#ffffff" stroke="#000000" points="217,-199.5 217,-218.5 306,-218.5 306,-199.5 217,-199.5"/>
<text text-anchor="middle" x="261.5" y="-206.5" font-family="Helvetica,sans-Serif" font-size="10.00" fill="#000000">odp_bp_param_t</text>
</a>
</g>
</g>
<!-- Node3&#45;&gt;Node10 -->
<g id="edge11" class="edge">
<title>Node3&#45;&gt;Node10</title>
<path fill="none" stroke="#9a32cd" stroke-dasharray="5,2" d="M111.7421,-215.9929C119.5203,-214.8105 127.4506,-213.7572 135,-213 162.1102,-210.2808 192.6367,-209.2573 216.9094,-208.9248"/>
<polygon fill="#9a32cd" stroke="#9a32cd" points="110.9708,-212.5717 101.6493,-217.6075 112.0767,-219.4838 110.9708,-212.5717"/>
<text text-anchor="middle" x="156.5" y="-216" font-family="Helvetica,sans-Serif" font-size="10.00" fill="#000000"> threshold</text>
</g>
<!-- Node4 -->
<g id="node4" class="node">
<title>Node4</title>
<g id="a_node4"><a xlink:href="structodp__queue__param__t.html" target="_top" xlink:title="ODP Queue parameters. ">
<polygon fill="#ffffff" stroke="#000000" points="209.5,-161.5 209.5,-180.5 313.5,-180.5 313.5,-161.5 209.5,-161.5"/>
<text text-anchor="middle" x="261.5" y="-168.5" font-family="Helvetica,sans-Serif" font-size="10.00" fill="#000000">odp_queue_param_t</text>
</a>
</g>
</g>
<!-- Node4&#45;&gt;Node1 -->
<g id="edge3" class="edge">
<title>Node4&#45;&gt;Node1</title>
<path fill="none" stroke="#9a32cd" stroke-dasharray="5,2" d="M323.7706,-160.6838C349.5562,-156.3125 379.7487,-151.0653 407,-146 414.5545,-144.5958 422.5557,-143.0506 430.344,-141.515"/>
<polygon fill="#9a32cd" stroke="#9a32cd" points="323.0296,-157.2593 313.7522,-162.3759 324.1955,-164.1616 323.0296,-157.2593"/>
<text text-anchor="middle" x="376" y="-159" font-family="Helvetica,sans-Serif" font-size="10.00" fill="#000000"> queue_param</text>
</g>
<!-- Node5 -->
<g id="node5" class="node">
<title>Node5</title>
<g id="a_node5"><a xlink:href="structodp__schedule__param__t.html" target="_top" xlink:title="Scheduler parameters. ">
<polygon fill="#ffffff" stroke="#000000" points="0,-161.5 0,-180.5 117,-180.5 117,-161.5 0,-161.5"/>
<text text-anchor="middle" x="58.5" y="-168.5" font-family="Helvetica,sans-Serif" font-size="10.00" fill="#000000">odp_schedule_param_t</text>
</a>
</g>
</g>
<!-- Node5&#45;&gt;Node4 -->
<g id="edge4" class="edge">
<title>Node5&#45;&gt;Node4</title>
<path fill="none" stroke="#9a32cd" stroke-dasharray="5,2" d="M127.3287,-171C154.1988,-171 184.4885,-171 209.4799,-171"/>
<polygon fill="#9a32cd" stroke="#9a32cd" points="127.216,-167.5001 117.216,-171 127.216,-174.5001 127.216,-167.5001"/>
<text text-anchor="middle" x="156.5" y="-174" font-family="Helvetica,sans-Serif" font-size="10.00" fill="#000000"> sched</text>
</g>
<!-- Node6 -->
<g id="node6" class="node">
<title>Node6</title>
<g id="a_node6"><a xlink:href="struct__odp__abi__pool__t.html" target="_top" xlink:title="_odp_abi_pool_t">
<polygon fill="#ffffff" stroke="#000000" points="15,-104.5 15,-123.5 102,-123.5 102,-104.5 15,-104.5"/>
<text text-anchor="middle" x="58.5" y="-111.5" font-family="Helvetica,sans-Serif" font-size="10.00" fill="#000000">_odp_abi_pool_t</text>
</a>
</g>
</g>
<!-- Node6&#45;&gt;Node1 -->
<g id="edge5" class="edge">
<title>Node6&#45;&gt;Node1</title>
<path fill="none" stroke="#9a32cd" stroke-dasharray="5,2" d="M112.4109,-116.8956C119.9951,-117.2806 127.6933,-117.6594 135,-118 237.6933,-122.7865 357.7748,-127.4973 424.8453,-130.0488"/>
<polygon fill="#9a32cd" stroke="#9a32cd" points="112.3535,-113.3881 102.1869,-116.3698 111.994,-120.3789 112.3535,-113.3881"/>
<text text-anchor="middle" x="261.5" y="-129" font-family="Helvetica,sans-Serif" font-size="10.00" fill="#000000"> pool</text>
</g>
<!-- Node9 -->
<g id="node9" class="node">
<title>Node9</title>
<g id="a_node9"><a xlink:href="structodp__pktin__vector__config__t.html" target="_top" xlink:title="Packet input vector configuration. ">
<polygon fill="#ffffff" stroke="#000000" points="196,-76.5 196,-95.5 327,-95.5 327,-76.5 196,-76.5"/>
<text text-anchor="middle" x="261.5" y="-83.5" font-family="Helvetica,sans-Serif" font-size="10.00" fill="#000000">odp_pktin_vector_config_t</text>
</a>
</g>
</g>
<!-- Node6&#45;&gt;Node9 -->
<g id="edge9" class="edge">
<title>Node6&#45;&gt;Node9</title>
<path fill="none" stroke="#9a32cd" stroke-dasharray="5,2" d="M111.9566,-106.6267C137.5965,-103.0901 168.5529,-98.8203 195.6333,-95.0851"/>
<polygon fill="#9a32cd" stroke="#9a32cd" points="111.4765,-103.1597 102.0486,-107.9933 112.4331,-110.094 111.4765,-103.1597"/>
<text text-anchor="middle" x="156.5" y="-106" font-family="Helvetica,sans-Serif" font-size="10.00" fill="#000000"> pool</text>
</g>
<!-- Node7 -->
<g id="node7" class="node">
<title>Node7</title>
<g id="a_node7"><a xlink:href="struct__odp__abi__queue__t.html" target="_top" xlink:title="_odp_abi_queue_t">
<polygon fill="#ffffff" stroke="#000000" points="214,-38.5 214,-57.5 309,-57.5 309,-38.5 214,-38.5"/>
<text text-anchor="middle" x="261.5" y="-45.5" font-family="Helvetica,sans-Serif" font-size="10.00" fill="#000000">_odp_abi_queue_t</text>
</a>
</g>
</g>
<!-- Node7&#45;&gt;Node1 -->
<g id="edge6" class="edge">
<title>Node7&#45;&gt;Node1</title>
<path fill="none" stroke="#9a32cd" stroke-dasharray="5,2" d="M319.5308,-55.0044C346.9288,-59.7383 379.5581,-67.4909 407,-80 430.6936,-90.8005 454.1481,-110.5615 466.989,-122.3667"/>
<polygon fill="#9a32cd" stroke="#9a32cd" points="319.7416,-51.4925 309.3081,-53.3342 318.6129,-58.4009 319.7416,-51.4925"/>
<text text-anchor="middle" x="376" y="-83" font-family="Helvetica,sans-Serif" font-size="10.00" fill="#000000"> queue</text>
</g>
<!-- Node8 -->
<g id="node8" class="node">
<title>Node8</title>
<g id="a_node8"><a xlink:href="unionodp__pktin__hash__proto__t.html" target="_top" xlink:title="Packet input hash protocols. ">
<polygon fill="#ffffff" stroke="#000000" points="201.5,-.5 201.5,-19.5 321.5,-19.5 321.5,-.5 201.5,-.5"/>
<text text-anchor="middle" x="261.5" y="-7.5" font-family="Helvetica,sans-Serif" font-size="10.00" fill="#000000">odp_pktin_hash_proto_t</text>
</a>
</g>
</g>
<!-- Node8&#45;&gt;Node1 -->
<g id="edge7" class="edge">
<title>Node8&#45;&gt;Node1</title>
<path fill="none" stroke="#9a32cd" stroke-dasharray="5,2" d="M331.4747,-17.9167C356.7114,-23.1164 384.4943,-31.7303 407,-46 438.2165,-65.7927 461.9833,-104.2714 471.9156,-122.2736"/>
<polygon fill="#9a32cd" stroke="#9a32cd" points="332.0574,-14.4648 321.5776,-16.0213 330.7407,-21.3399 332.0574,-14.4648"/>
<text text-anchor="middle" x="376" y="-49" font-family="Helvetica,sans-Serif" font-size="10.00" fill="#000000"> hash_proto</text>
</g>
<!-- Node9&#45;&gt;Node1 -->
<g id="edge8" class="edge">
<title>Node9&#45;&gt;Node1</title>
<path fill="none" stroke="#9a32cd" stroke-dasharray="5,2" d="M337.4319,-94.0418C360.0016,-97.2138 384.6595,-101.4575 407,-107 423.0318,-110.9774 440.5318,-117.2274 454.0239,-122.483"/>
<polygon fill="#9a32cd" stroke="#9a32cd" points="337.6041,-90.5332 327.2248,-92.6589 336.6643,-97.4698 337.6041,-90.5332"/>
<text text-anchor="middle" x="376" y="-110" font-family="Helvetica,sans-Serif" font-size="10.00" fill="#000000"> vector</text>
</g>
<!-- Node10&#45;&gt;Node1 -->
<g id="edge10" class="edge">
<title>Node10&#45;&gt;Node1</title>
<path fill="none" stroke="#9a32cd" stroke-dasharray="5,2" d="M315.9764,-198.2142C343.7575,-191.8576 377.7629,-182.7416 407,-171 427.1388,-162.9122 448.7271,-150.1992 462.52,-141.5013"/>
<polygon fill="#9a32cd" stroke="#9a32cd" points="315.0408,-194.8368 306.0433,-200.4309 316.5656,-201.6687 315.0408,-194.8368"/>
<text text-anchor="middle" x="376" y="-193" font-family="Helvetica,sans-Serif" font-size="10.00" fill="#000000"> bp</text>
</g>
</g>
</svg>
