<?xml version="1.0" encoding="UTF-8" standalone="no"?>
<!DOCTYPE svg PUBLIC "-//W3C//DTD SVG 1.1//EN"
 "http://www.w3.org/Graphics/SVG/1.1/DTD/svg11.dtd">
<!-- Generated by graphviz version 2.40.1 (20161225.0304)
 -->
<!-- Title: odp_ipsec_op_status_t Pages: 1 -->
<svg width="216pt" height="95pt"
 viewBox="0.00 0.00 215.50 95.00" xmlns="http://www.w3.org/2000/svg" xmlns:xlink="http://www.w3.org/1999/xlink">
<g id="graph0" class="graph" transform="scale(1 1) rotate(0) translate(4 91)">
<title>odp_ipsec_op_status_t</title>
<polygon fill="#ffffff" stroke="transparent" points="-4,4 -4,-91 211.5,-91 211.5,4 -4,4"/>
<!-- Node1 -->
<g id="node1" class="node">
<title>Node1</title>
<polygon fill="#bfbfbf" stroke="#000000" points="45,-.5 45,-19.5 162,-19.5 162,-.5 45,-.5"/>
<text text-anchor="middle" x="103.5" y="-7.5" font-family="Helvetica,sans-Serif" font-size="10.00" fill="#000000">odp_ipsec_op_status_t</text>
</g>
<!-- Node2 -->
<g id="node2" class="node">
<title>Node2</title>
<g id="a_node2"><a xlink:href="structodp__ipsec__warn__t.html" target="_top" xlink:title="IPSEC warnings. ">
<polygon fill="#ffffff" stroke="#000000" points="0,-67.5 0,-86.5 95,-86.5 95,-67.5 0,-67.5"/>
<text text-anchor="middle" x="47.5" y="-74.5" font-family="Helvetica,sans-Serif" font-size="10.00" fill="#000000">odp_ipsec_warn_t</text>
</a>
</g>
</g>
<!-- Node2&#45;&gt;Node1 -->
<g id="edge1" class="edge">
<title>Node2&#45;&gt;Node1</title>
<path fill="none" stroke="#9a32cd" stroke-dasharray="5,2" d="M61.9474,-59.7147C72.6239,-46.941 86.7649,-30.0224 95.4914,-19.5817"/>
<polygon fill="#9a32cd" stroke="#9a32cd" points="59.2511,-57.4831 55.5234,-67.4005 64.6221,-61.9723 59.2511,-57.4831"/>
<text text-anchor="middle" x="92" y="-41" font-family="Helvetica,sans-Serif" font-size="10.00" fill="#000000"> warn</text>
</g>
<!-- Node3 -->
<g id="node3" class="node">
<title>Node3</title>
<g id="a_node3"><a xlink:href="structodp__ipsec__error__t.html" target="_top" xlink:title="IPSEC errors. ">
<polygon fill="#ffffff" stroke="#000000" points="113.5,-67.5 113.5,-86.5 207.5,-86.5 207.5,-67.5 113.5,-67.5"/>
<text text-anchor="middle" x="160.5" y="-74.5" font-family="Helvetica,sans-Serif" font-size="10.00" fill="#000000">odp_ipsec_error_t</text>
</a>
</g>
</g>
<!-- Node3&#45;&gt;Node1 -->
<g id="edge2" class="edge">
<title>Node3&#45;&gt;Node1</title>
<path fill="none" stroke="#9a32cd" stroke-dasharray="5,2" d="M145.7946,-59.7147C134.9274,-46.941 120.534,-30.0224 111.6516,-19.5817"/>
<polygon fill="#9a32cd" stroke="#9a32cd" points="143.1877,-62.0519 152.3333,-67.4005 148.5193,-57.516 143.1877,-62.0519"/>
<text text-anchor="middle" x="146" y="-41" font-family="Helvetica,sans-Serif" font-size="10.00" fill="#000000"> error</text>
</g>
</g>
</svg>
