<?xml version="1.0" encoding="UTF-8" standalone="no"?>
<!DOCTYPE svg PUBLIC "-//W3C//DTD SVG 1.1//EN"
 "http://www.w3.org/Graphics/SVG/1.1/DTD/svg11.dtd">
<!-- Generated by graphviz version 2.40.1 (20161225.0304)
 -->
<!-- Title: odp_pool_info_t Pages: 1 -->
<svg width="268pt" height="162pt"
 viewBox="0.00 0.00 267.50 162.00" xmlns="http://www.w3.org/2000/svg" xmlns:xlink="http://www.w3.org/1999/xlink">
<g id="graph0" class="graph" transform="scale(1 1) rotate(0) translate(4 158)">
<title>odp_pool_info_t</title>
<polygon fill="#ffffff" stroke="transparent" points="-4,4 -4,-158 263.5,-158 263.5,4 -4,4"/>
<!-- Node1 -->
<g id="node1" class="node">
<title>Node1</title>
<polygon fill="#bfbfbf" stroke="#000000" points="92,-.5 92,-19.5 177,-19.5 177,-.5 92,-.5"/>
<text text-anchor="middle" x="134.5" y="-7.5" font-family="Helvetica,sans-Serif" font-size="10.00" fill="#000000">odp_pool_info_t</text>
</g>
<!-- Node2 -->
<g id="node2" class="node">
<title>Node2</title>
<g id="a_node2"><a xlink:href="structodp__pool__param__t.html" target="_top" xlink:title="Pool parameters. ">
<polygon fill="#ffffff" stroke="#000000" points="86.5,-67.5 86.5,-86.5 182.5,-86.5 182.5,-67.5 86.5,-67.5"/>
<text text-anchor="middle" x="134.5" y="-74.5" font-family="Helvetica,sans-Serif" font-size="10.00" fill="#000000">odp_pool_param_t</text>
</a>
</g>
</g>
<!-- Node2&#45;&gt;Node1 -->
<g id="edge1" class="edge">
<title>Node2&#45;&gt;Node1</title>
<path fill="none" stroke="#9a32cd" stroke-dasharray="5,2" d="M134.5,-57.1079C134.5,-44.714 134.5,-29.3263 134.5,-19.5817"/>
<polygon fill="#9a32cd" stroke="#9a32cd" points="131.0001,-57.4005 134.5,-67.4005 138.0001,-57.4006 131.0001,-57.4005"/>
<text text-anchor="middle" x="152.5" y="-41" font-family="Helvetica,sans-Serif" font-size="10.00" fill="#000000"> params</text>
</g>
<!-- Node3 -->
<g id="node3" class="node">
<title>Node3</title>
<g id="a_node3"><a xlink:href="structodp__pool__pkt__subparam__t.html" target="_top" xlink:title="Packet pool subparameters. ">
<polygon fill="#ffffff" stroke="#000000" points="0,-134.5 0,-153.5 131,-153.5 131,-134.5 0,-134.5"/>
<text text-anchor="middle" x="65.5" y="-141.5" font-family="Helvetica,sans-Serif" font-size="10.00" fill="#000000">odp_pool_pkt_subparam_t</text>
</a>
</g>
</g>
<!-- Node3&#45;&gt;Node2 -->
<g id="edge2" class="edge">
<title>Node3&#45;&gt;Node2</title>
<path fill="none" stroke="#9a32cd" stroke-dasharray="5,2" d="M82.9266,-127.0785C96.1238,-114.2639 113.7775,-97.1218 124.6323,-86.5817"/>
<polygon fill="#9a32cd" stroke="#9a32cd" points="80.1221,-124.9232 75.386,-134.4005 84.9985,-129.9452 80.1221,-124.9232"/>
<text text-anchor="middle" x="114" y="-108" font-family="Helvetica,sans-Serif" font-size="10.00" fill="#000000"> sub</text>
</g>
<!-- Node4 -->
<g id="node4" class="node">
<title>Node4</title>
<g id="a_node4"><a xlink:href="unionodp__pool__stats__opt__t.html" target="_top" xlink:title="Pool statistics counters options. ">
<polygon fill="#ffffff" stroke="#000000" points="149.5,-134.5 149.5,-153.5 259.5,-153.5 259.5,-134.5 149.5,-134.5"/>
<text text-anchor="middle" x="204.5" y="-141.5" font-family="Helvetica,sans-Serif" font-size="10.00" fill="#000000">odp_pool_stats_opt_t</text>
</a>
</g>
</g>
<!-- Node4&#45;&gt;Node2 -->
<g id="edge3" class="edge">
<title>Node4&#45;&gt;Node2</title>
<path fill="none" stroke="#9a32cd" stroke-dasharray="5,2" d="M187.1986,-127.44C173.7709,-114.5879 155.6267,-97.2212 144.5107,-86.5817"/>
<polygon fill="#9a32cd" stroke="#9a32cd" points="184.8264,-130.0144 194.4707,-134.4005 189.6666,-124.9575 184.8264,-130.0144"/>
<text text-anchor="middle" x="186" y="-108" font-family="Helvetica,sans-Serif" font-size="10.00" fill="#000000"> stats</text>
</g>
</g>
</svg>
