<?xml version="1.0" encoding="UTF-8" standalone="no"?>
<!DOCTYPE svg PUBLIC "-//W3C//DTD SVG 1.1//EN"
 "http://www.w3.org/Graphics/SVG/1.1/DTD/svg11.dtd">
<!-- Generated by graphviz version 2.40.1 (20161225.0304)
 -->
<!-- Title: odp_ipsec_out_param_t Pages: 1 -->
<svg width="323pt" height="162pt"
 viewBox="0.00 0.00 322.50 162.00" xmlns="http://www.w3.org/2000/svg" xmlns:xlink="http://www.w3.org/1999/xlink">
<g id="graph0" class="graph" transform="scale(1 1) rotate(0) translate(4 158)">
<title>odp_ipsec_out_param_t</title>
<polygon fill="#ffffff" stroke="transparent" points="-4,4 -4,-158 318.5,-158 318.5,4 -4,4"/>
<!-- Node1 -->
<g id="node1" class="node">
<title>Node1</title>
<polygon fill="#bfbfbf" stroke="#000000" points="12,-.5 12,-19.5 132,-19.5 132,-.5 12,-.5"/>
<text text-anchor="middle" x="72" y="-7.5" font-family="Helvetica,sans-Serif" font-size="10.00" fill="#000000">odp_ipsec_out_param_t</text>
</g>
<!-- Node2 -->
<g id="node2" class="node">
<title>Node2</title>
<g id="a_node2"><a xlink:href="struct__odp__abi__ipsec__sa__t.html" target="_top" xlink:title="_odp_abi_ipsec_sa_t">
<polygon fill="#ffffff" stroke="#000000" points="0,-67.5 0,-86.5 108,-86.5 108,-67.5 0,-67.5"/>
<text text-anchor="middle" x="54" y="-74.5" font-family="Helvetica,sans-Serif" font-size="10.00" fill="#000000">_odp_abi_ipsec_sa_t</text>
</a>
</g>
</g>
<!-- Node2&#45;&gt;Node1 -->
<g id="edge1" class="edge">
<title>Node2&#45;&gt;Node1</title>
<path fill="none" stroke="#9a32cd" stroke-dasharray="5,2" d="M59.2425,-57.4863C62.5893,-45.0286 66.7811,-29.4258 69.4258,-19.5817"/>
<polygon fill="#9a32cd" stroke="#9a32cd" points="55.7935,-56.8349 56.579,-67.4005 62.5537,-58.6511 55.7935,-56.8349"/>
<text text-anchor="middle" x="72" y="-41" font-family="Helvetica,sans-Serif" font-size="10.00" fill="#000000"> sa</text>
</g>
<!-- Node3 -->
<g id="node3" class="node">
<title>Node3</title>
<g id="a_node3"><a xlink:href="structodp__ipsec__out__opt__t.html" target="_top" xlink:title="IPSEC outbound operation options. ">
<polygon fill="#ffffff" stroke="#000000" points="126.5,-67.5 126.5,-86.5 233.5,-86.5 233.5,-67.5 126.5,-67.5"/>
<text text-anchor="middle" x="180" y="-74.5" font-family="Helvetica,sans-Serif" font-size="10.00" fill="#000000">odp_ipsec_out_opt_t</text>
</a>
</g>
</g>
<!-- Node3&#45;&gt;Node1 -->
<g id="edge2" class="edge">
<title>Node3&#45;&gt;Node1</title>
<path fill="none" stroke="#9a32cd" stroke-dasharray="5,2" d="M155.8802,-62.0368C134.9633,-49.0605 105.3167,-30.6687 87.4451,-19.5817"/>
<polygon fill="#9a32cd" stroke="#9a32cd" points="154.1835,-65.103 164.5262,-67.4005 157.8737,-59.1546 154.1835,-65.103"/>
<text text-anchor="middle" x="141.5" y="-41" font-family="Helvetica,sans-Serif" font-size="10.00" fill="#000000"> opt</text>
</g>
<!-- Node4 -->
<g id="node4" class="node">
<title>Node4</title>
<g id="a_node4"><a xlink:href="structodp__ipsec__ipv4__param__t.html" target="_top" xlink:title="IPv4 header parameters. ">
<polygon fill="#ffffff" stroke="#000000" points="46.5,-134.5 46.5,-153.5 171.5,-153.5 171.5,-134.5 46.5,-134.5"/>
<text text-anchor="middle" x="109" y="-141.5" font-family="Helvetica,sans-Serif" font-size="10.00" fill="#000000">odp_ipsec_ipv4_param_t</text>
</a>
</g>
</g>
<!-- Node4&#45;&gt;Node3 -->
<g id="edge3" class="edge">
<title>Node4&#45;&gt;Node3</title>
<path fill="none" stroke="#9a32cd" stroke-dasharray="5,2" d="M126.5486,-127.44C140.168,-114.5879 158.5715,-97.2212 169.8463,-86.5817"/>
<polygon fill="#9a32cd" stroke="#9a32cd" points="124.0434,-124.9917 119.1726,-134.4005 128.8477,-130.0828 124.0434,-124.9917"/>
<text text-anchor="middle" x="160" y="-108" font-family="Helvetica,sans-Serif" font-size="10.00" fill="#000000"> ipv4</text>
</g>
<!-- Node5 -->
<g id="node5" class="node">
<title>Node5</title>
<g id="a_node5"><a xlink:href="structodp__ipsec__ipv6__param__t.html" target="_top" xlink:title="IPv6 header parameters. ">
<polygon fill="#ffffff" stroke="#000000" points="189.5,-134.5 189.5,-153.5 314.5,-153.5 314.5,-134.5 189.5,-134.5"/>
<text text-anchor="middle" x="252" y="-141.5" font-family="Helvetica,sans-Serif" font-size="10.00" fill="#000000">odp_ipsec_ipv6_param_t</text>
</a>
</g>
</g>
<!-- Node5&#45;&gt;Node3 -->
<g id="edge4" class="edge">
<title>Node5&#45;&gt;Node3</title>
<path fill="none" stroke="#9a32cd" stroke-dasharray="5,2" d="M234.2042,-127.44C220.393,-114.5879 201.7303,-97.2212 190.2967,-86.5817"/>
<polygon fill="#9a32cd" stroke="#9a32cd" points="231.9791,-130.1504 241.6842,-134.4005 236.7478,-125.0259 231.9791,-130.1504"/>
<text text-anchor="middle" x="231" y="-108" font-family="Helvetica,sans-Serif" font-size="10.00" fill="#000000"> ipv6</text>
</g>
</g>
</svg>
