<?xml version="1.0" encoding="UTF-8" standalone="no"?>
<!DOCTYPE svg PUBLIC "-//W3C//DTD SVG 1.1//EN"
 "http://www.w3.org/Graphics/SVG/1.1/DTD/svg11.dtd">
<!-- Generated by graphviz version 2.40.1 (20161225.0304)
 -->
<!-- Title: odp_crypto_session_param_t Pages: 1 -->
<svg width="408pt" height="128pt"
 viewBox="0.00 0.00 407.50 128.00" xmlns="http://www.w3.org/2000/svg" xmlns:xlink="http://www.w3.org/1999/xlink">
<g id="graph0" class="graph" transform="scale(1 1) rotate(0) translate(4 124)">
<title>odp_crypto_session_param_t</title>
<polygon fill="#ffffff" stroke="transparent" points="-4,4 -4,-124 403.5,-124 403.5,4 -4,4"/>
<!-- Node1 -->
<g id="node1" class="node">
<title>Node1</title>
<polygon fill="#bfbfbf" stroke="#000000" points="152.5,-.5 152.5,-30.5 256.5,-30.5 256.5,-.5 152.5,-.5"/>
<text text-anchor="start" x="160.5" y="-18.5" font-family="Helvetica,sans-Serif" font-size="10.00" fill="#000000">odp_crypto_session</text>
<text text-anchor="middle" x="204.5" y="-7.5" font-family="Helvetica,sans-Serif" font-size="10.00" fill="#000000">_param_t</text>
</g>
<!-- Node2 -->
<g id="node2" class="node">
<title>Node2</title>
<g id="a_node2"><a xlink:href="struct__odp__abi__pool__t.html" target="_top" xlink:title="_odp_abi_pool_t">
<polygon fill="#ffffff" stroke="#000000" points="0,-100.5 0,-119.5 87,-119.5 87,-100.5 0,-100.5"/>
<text text-anchor="middle" x="43.5" y="-107.5" font-family="Helvetica,sans-Serif" font-size="10.00" fill="#000000">_odp_abi_pool_t</text>
</a>
</g>
</g>
<!-- Node2&#45;&gt;Node1 -->
<g id="edge1" class="edge">
<title>Node2&#45;&gt;Node1</title>
<path fill="none" stroke="#9a32cd" stroke-dasharray="5,2" d="M56.4231,-92.1981C67.1218,-78.6231 83.4503,-60.3799 101.5,-49 116.8497,-39.3224 135.2629,-32.1806 152.2488,-27.0381"/>
<polygon fill="#9a32cd" stroke="#9a32cd" points="53.51,-90.2468 50.244,-100.3257 59.0825,-94.4833 53.51,-90.2468"/>
<text text-anchor="middle" x="128.5" y="-63" font-family="Helvetica,sans-Serif" font-size="10.00" fill="#000000"> output_pool</text>
</g>
<!-- Node3 -->
<g id="node3" class="node">
<title>Node3</title>
<g id="a_node3"><a xlink:href="struct__odp__abi__queue__t.html" target="_top" xlink:title="_odp_abi_queue_t">
<polygon fill="#ffffff" stroke="#000000" points="105,-100.5 105,-119.5 200,-119.5 200,-100.5 105,-100.5"/>
<text text-anchor="middle" x="152.5" y="-107.5" font-family="Helvetica,sans-Serif" font-size="10.00" fill="#000000">_odp_abi_queue_t</text>
</a>
</g>
</g>
<!-- Node3&#45;&gt;Node1 -->
<g id="edge2" class="edge">
<title>Node3&#45;&gt;Node1</title>
<path fill="none" stroke="#9a32cd" stroke-dasharray="5,2" d="M156.9689,-90.579C160.3561,-78.1282 165.7619,-61.9353 173.5,-49 177.4053,-42.4718 182.7409,-36.1288 187.8851,-30.7502"/>
<polygon fill="#9a32cd" stroke="#9a32cd" points="153.5484,-89.8297 154.504,-100.3814 160.3371,-91.5368 153.5484,-89.8297"/>
<text text-anchor="middle" x="204" y="-63" font-family="Helvetica,sans-Serif" font-size="10.00" fill="#000000"> compl_queue</text>
</g>
<!-- Node4 -->
<g id="node4" class="node">
<title>Node4</title>
<g id="a_node4"><a xlink:href="structodp__crypto__iv.html" target="_top" xlink:title="Crypto API IV structure. ">
<polygon fill="#ffffff" stroke="#000000" points="218,-100.5 218,-119.5 295,-119.5 295,-100.5 218,-100.5"/>
<text text-anchor="middle" x="256.5" y="-107.5" font-family="Helvetica,sans-Serif" font-size="10.00" fill="#000000">odp_crypto_iv</text>
</a>
</g>
</g>
<!-- Node4&#45;&gt;Node1 -->
<g id="edge3" class="edge">
<title>Node4&#45;&gt;Node1</title>
<path fill="none" stroke="#9a32cd" stroke-dasharray="5,2" d="M251.5889,-90.6286C247.9473,-78.1979 242.2666,-62.0087 234.5,-49 230.5779,-42.4307 225.2623,-35.9817 220.1949,-30.5237"/>
<polygon fill="#9a32cd" stroke="#9a32cd" points="248.2502,-91.6888 254.2653,-100.4106 255.0021,-89.8414 248.2502,-91.6888"/>
<text text-anchor="middle" x="270" y="-74" font-family="Helvetica,sans-Serif" font-size="10.00" fill="#000000"> cipher_iv</text>
<text text-anchor="middle" x="270" y="-63" font-family="Helvetica,sans-Serif" font-size="10.00" fill="#000000">iv</text>
<text text-anchor="middle" x="270" y="-52" font-family="Helvetica,sans-Serif" font-size="10.00" fill="#000000">auth_iv</text>
</g>
<!-- Node5 -->
<g id="node5" class="node">
<title>Node5</title>
<g id="a_node5"><a xlink:href="structodp__crypto__key.html" target="_top" xlink:title="Crypto API key structure. ">
<polygon fill="#ffffff" stroke="#000000" points="313.5,-100.5 313.5,-119.5 399.5,-119.5 399.5,-100.5 313.5,-100.5"/>
<text text-anchor="middle" x="356.5" y="-107.5" font-family="Helvetica,sans-Serif" font-size="10.00" fill="#000000">odp_crypto_key</text>
</a>
</g>
</g>
<!-- Node5&#45;&gt;Node1 -->
<g id="edge4" class="edge">
<title>Node5&#45;&gt;Node1</title>
<path fill="none" stroke="#9a32cd" stroke-dasharray="5,2" d="M342.5977,-92.4218C331.1742,-78.9702 313.9222,-60.7838 295.5,-49 283.729,-41.4706 270.025,-35.3021 256.8788,-30.4035"/>
<polygon fill="#9a32cd" stroke="#9a32cd" points="340.159,-94.9664 349.2166,-100.4628 345.5636,-90.5177 340.159,-94.9664"/>
<text text-anchor="middle" x="355.5" y="-68.5" font-family="Helvetica,sans-Serif" font-size="10.00" fill="#000000"> auth_key</text>
<text text-anchor="middle" x="355.5" y="-57.5" font-family="Helvetica,sans-Serif" font-size="10.00" fill="#000000">cipher_key</text>
</g>
</g>
</svg>
