<?xml version="1.0" encoding="UTF-8" standalone="no"?>
<!DOCTYPE svg PUBLIC "-//W3C//DTD SVG 1.1//EN"
 "http://www.w3.org/Graphics/SVG/1.1/DTD/svg11.dtd">
<!-- Generated by graphviz version 2.40.1 (20161225.0304)
 -->
<!-- Title: odp_comp_packet_result_t Pages: 1 -->
<svg width="244pt" height="95pt"
 viewBox="0.00 0.00 244.00 95.00" xmlns="http://www.w3.org/2000/svg" xmlns:xlink="http://www.w3.org/1999/xlink">
<g id="graph0" class="graph" transform="scale(1 1) rotate(0) translate(4 91)">
<title>odp_comp_packet_result_t</title>
<polygon fill="#ffffff" stroke="transparent" points="-4,4 -4,-91 240,-91 240,4 -4,4"/>
<!-- Node1 -->
<g id="node1" class="node">
<title>Node1</title>
<polygon fill="#bfbfbf" stroke="#000000" points="45,-.5 45,-19.5 179,-19.5 179,-.5 45,-.5"/>
<text text-anchor="middle" x="112" y="-7.5" font-family="Helvetica,sans-Serif" font-size="10.00" fill="#000000">odp_comp_packet_result_t</text>
</g>
<!-- Node2 -->
<g id="node2" class="node">
<title>Node2</title>
<g id="a_node2"><a xlink:href="struct__odp__abi__packet__t.html" target="_top" xlink:title="_odp_abi_packet_t">
<polygon fill="#ffffff" stroke="#000000" points="0,-67.5 0,-86.5 98,-86.5 98,-67.5 0,-67.5"/>
<text text-anchor="middle" x="49" y="-74.5" font-family="Helvetica,sans-Serif" font-size="10.00" fill="#000000">_odp_abi_packet_t</text>
</a>
</g>
</g>
<!-- Node2&#45;&gt;Node1 -->
<g id="edge1" class="edge">
<title>Node2&#45;&gt;Node1</title>
<path fill="none" stroke="#9a32cd" stroke-dasharray="5,2" d="M64.9112,-60.0785C76.9608,-47.2639 93.0795,-30.1218 102.9904,-19.5817"/>
<polygon fill="#9a32cd" stroke="#9a32cd" points="62.3268,-57.7177 58.0264,-67.4005 67.4265,-62.5129 62.3268,-57.7177"/>
<text text-anchor="middle" x="100" y="-41" font-family="Helvetica,sans-Serif" font-size="10.00" fill="#000000"> pkt_in</text>
</g>
<!-- Node3 -->
<g id="node3" class="node">
<title>Node3</title>
<g id="a_node3"><a xlink:href="structodp__packet__data__range.html" target="_top" xlink:title="Packet API data range specifier. ">
<polygon fill="#ffffff" stroke="#000000" points="116,-67.5 116,-86.5 236,-86.5 236,-67.5 116,-67.5"/>
<text text-anchor="middle" x="176" y="-74.5" font-family="Helvetica,sans-Serif" font-size="10.00" fill="#000000">odp_packet_data_range</text>
</a>
</g>
</g>
<!-- Node3&#45;&gt;Node1 -->
<g id="edge2" class="edge">
<title>Node3&#45;&gt;Node1</title>
<path fill="none" stroke="#9a32cd" stroke-dasharray="5,2" d="M159.8362,-60.0785C147.5953,-47.2639 131.2208,-30.1218 121.1526,-19.5817"/>
<polygon fill="#9a32cd" stroke="#9a32cd" points="157.3921,-62.587 166.8304,-67.4005 162.4539,-57.7518 157.3921,-62.587"/>
<text text-anchor="middle" x="189" y="-41" font-family="Helvetica,sans-Serif" font-size="10.00" fill="#000000"> output_data_range</text>
</g>
</g>
</svg>
