<?xml version="1.0" encoding="UTF-8" standalone="no"?>
<!DOCTYPE svg PUBLIC "-//W3C//DTD SVG 1.1//EN"
 "http://www.w3.org/Graphics/SVG/1.1/DTD/svg11.dtd">
<!-- Generated by graphviz version 2.40.1 (20161225.0304)
 -->
<!-- Title: odp_ipsec_sa_info_t Pages: 1 -->
<svg width="761pt" height="237pt"
 viewBox="0.00 0.00 761.00 237.00" xmlns="http://www.w3.org/2000/svg" xmlns:xlink="http://www.w3.org/1999/xlink">
<g id="graph0" class="graph" transform="scale(1 1) rotate(0) translate(4 233)">
<title>odp_ipsec_sa_info_t</title>
<polygon fill="#ffffff" stroke="transparent" points="-4,4 -4,-233 757,-233 757,4 -4,4"/>
<!-- Node1 -->
<g id="node1" class="node">
<title>Node1</title>
<polygon fill="#bfbfbf" stroke="#000000" points="647,-116.5 647,-135.5 753,-135.5 753,-116.5 647,-116.5"/>
<text text-anchor="middle" x="700" y="-123.5" font-family="Helvetica,sans-Serif" font-size="10.00" fill="#000000">odp_ipsec_sa_info_t</text>
</g>
<!-- Node2 -->
<g id="node2" class="node">
<title>Node2</title>
<g id="a_node2"><a xlink:href="structodp__ipsec__sa__param__t.html" target="_top" xlink:title="IPSEC Security Association (SA) parameters. ">
<polygon fill="#ffffff" stroke="#000000" points="463,-116.5 463,-135.5 580,-135.5 580,-116.5 463,-116.5"/>
<text text-anchor="middle" x="521.5" y="-123.5" font-family="Helvetica,sans-Serif" font-size="10.00" fill="#000000">odp_ipsec_sa_param_t</text>
</a>
</g>
</g>
<!-- Node2&#45;&gt;Node1 -->
<g id="edge1" class="edge">
<title>Node2&#45;&gt;Node1</title>
<path fill="none" stroke="#9a32cd" stroke-dasharray="5,2" d="M590.6576,-126C609.3139,-126 629.2057,-126 646.8378,-126"/>
<polygon fill="#9a32cd" stroke="#9a32cd" points="590.4423,-122.5001 580.4423,-126 590.4422,-129.5001 590.4423,-122.5001"/>
<text text-anchor="middle" x="613.5" y="-129" font-family="Helvetica,sans-Serif" font-size="10.00" fill="#000000"> param</text>
</g>
<!-- Node3 -->
<g id="node3" class="node">
<title>Node3</title>
<g id="a_node3"><a xlink:href="struct__odp__abi__cos__t.html" target="_top" xlink:title="_odp_abi_cos_t">
<polygon fill="#ffffff" stroke="#000000" points="263.5,-209.5 263.5,-228.5 348.5,-228.5 348.5,-209.5 263.5,-209.5"/>
<text text-anchor="middle" x="306" y="-216.5" font-family="Helvetica,sans-Serif" font-size="10.00" fill="#000000">_odp_abi_cos_t</text>
</a>
</g>
</g>
<!-- Node3&#45;&gt;Node2 -->
<g id="edge2" class="edge">
<title>Node3&#45;&gt;Node2</title>
<path fill="none" stroke="#9a32cd" stroke-dasharray="5,2" d="M349.7582,-206.7286C357.5087,-204.5159 365.4975,-202.2097 373,-200 405.0972,-190.5462 414.8238,-192.4568 445,-178 469.6207,-166.2047 495.2769,-147.1441 509.7362,-135.669"/>
<polygon fill="#9a32cd" stroke="#9a32cd" points="348.7851,-203.3665 340.1231,-209.4672 350.699,-210.0998 348.7851,-203.3665"/>
<text text-anchor="middle" x="418" y="-198" font-family="Helvetica,sans-Serif" font-size="10.00" fill="#000000"> dest_cos</text>
</g>
<!-- Node4 -->
<g id="node4" class="node">
<title>Node4</title>
<g id="a_node4"><a xlink:href="structodp__ipsec__lifetime__t.html" target="_top" xlink:title="IPSEC SA lifetime limits. ">
<polygon fill="#ffffff" stroke="#000000" points="253,-171.5 253,-190.5 359,-190.5 359,-171.5 253,-171.5"/>
<text text-anchor="middle" x="306" y="-178.5" font-family="Helvetica,sans-Serif" font-size="10.00" fill="#000000">odp_ipsec_lifetime_t</text>
</a>
</g>
</g>
<!-- Node4&#45;&gt;Node2 -->
<g id="edge3" class="edge">
<title>Node4&#45;&gt;Node2</title>
<path fill="none" stroke="#9a32cd" stroke-dasharray="5,2" d="M366.0788,-169.4472C390.68,-164.3504 419.3422,-157.9414 445,-151 461.5897,-146.5119 479.8978,-140.5653 494.4433,-135.5978"/>
<polygon fill="#9a32cd" stroke="#9a32cd" points="365.2553,-166.0431 356.1601,-171.4771 366.6588,-172.901 365.2553,-166.0431"/>
<text text-anchor="middle" x="418" y="-166" font-family="Helvetica,sans-Serif" font-size="10.00" fill="#000000"> lifetime</text>
</g>
<!-- Node5 -->
<g id="node5" class="node">
<title>Node5</title>
<g id="a_node5"><a xlink:href="struct__odp__abi__queue__t.html" target="_top" xlink:title="_odp_abi_queue_t">
<polygon fill="#ffffff" stroke="#000000" points="258.5,-133.5 258.5,-152.5 353.5,-152.5 353.5,-133.5 258.5,-133.5"/>
<text text-anchor="middle" x="306" y="-140.5" font-family="Helvetica,sans-Serif" font-size="10.00" fill="#000000">_odp_abi_queue_t</text>
</a>
</g>
</g>
<!-- Node5&#45;&gt;Node2 -->
<g id="edge4" class="edge">
<title>Node5&#45;&gt;Node2</title>
<path fill="none" stroke="#9a32cd" stroke-dasharray="5,2" d="M363.6857,-138.4494C394.3933,-136.027 432.0766,-133.0543 462.9183,-130.6213"/>
<polygon fill="#9a32cd" stroke="#9a32cd" points="363.2529,-134.9726 353.5592,-139.2482 363.8035,-141.9509 363.2529,-134.9726"/>
<text text-anchor="middle" x="418" y="-139" font-family="Helvetica,sans-Serif" font-size="10.00" fill="#000000"> dest_queue</text>
</g>
<!-- Node6 -->
<g id="node6" class="node">
<title>Node6</title>
<g id="a_node6"><a xlink:href="structodp__ipsec__crypto__param__t.html" target="_top" xlink:title="IPSEC crypto parameters. ">
<polygon fill="#ffffff" stroke="#000000" points="239,-95.5 239,-114.5 373,-114.5 373,-95.5 239,-95.5"/>
<text text-anchor="middle" x="306" y="-102.5" font-family="Helvetica,sans-Serif" font-size="10.00" fill="#000000">odp_ipsec_crypto_param_t</text>
</a>
</g>
</g>
<!-- Node6&#45;&gt;Node2 -->
<g id="edge5" class="edge">
<title>Node6&#45;&gt;Node2</title>
<path fill="none" stroke="#9a32cd" stroke-dasharray="5,2" d="M383.2534,-111.241C403.3671,-112.9833 425.0044,-114.9612 445,-117 450.7207,-117.5833 456.6779,-118.2246 462.6308,-118.8879"/>
<polygon fill="#9a32cd" stroke="#9a32cd" points="383.4671,-107.7466 373.2045,-110.3789 382.8687,-114.7209 383.4671,-107.7466"/>
<text text-anchor="middle" x="418" y="-120" font-family="Helvetica,sans-Serif" font-size="10.00" fill="#000000"> crypto</text>
</g>
<!-- Node7 -->
<g id="node7" class="node">
<title>Node7</title>
<g id="a_node7"><a xlink:href="structodp__crypto__key.html" target="_top" xlink:title="Crypto API key structure. ">
<polygon fill="#ffffff" stroke="#000000" points="19.5,-95.5 19.5,-114.5 105.5,-114.5 105.5,-95.5 19.5,-95.5"/>
<text text-anchor="middle" x="62.5" y="-102.5" font-family="Helvetica,sans-Serif" font-size="10.00" fill="#000000">odp_crypto_key</text>
</a>
</g>
</g>
<!-- Node7&#45;&gt;Node6 -->
<g id="edge6" class="edge">
<title>Node7&#45;&gt;Node6</title>
<path fill="none" stroke="#9a32cd" stroke-dasharray="5,2" d="M116.0837,-105C152.2052,-105 200.1385,-105 238.8117,-105"/>
<polygon fill="#9a32cd" stroke="#9a32cd" points="115.7524,-101.5001 105.7523,-105 115.7523,-108.5001 115.7524,-101.5001"/>
<text text-anchor="middle" x="182" y="-141" font-family="Helvetica,sans-Serif" font-size="10.00" fill="#000000"> cipher_key_extra</text>
<text text-anchor="middle" x="182" y="-130" font-family="Helvetica,sans-Serif" font-size="10.00" fill="#000000">auth_key</text>
<text text-anchor="middle" x="182" y="-119" font-family="Helvetica,sans-Serif" font-size="10.00" fill="#000000">cipher_key</text>
<text text-anchor="middle" x="182" y="-108" font-family="Helvetica,sans-Serif" font-size="10.00" fill="#000000">auth_key_extra</text>
</g>
<!-- Node8 -->
<g id="node8" class="node">
<title>Node8</title>
<g id="a_node8"><a xlink:href="structodp__ipsec__sa__opt__t.html" target="_top" xlink:title="IPSEC SA option flags. ">
<polygon fill="#ffffff" stroke="#000000" points="254,-57.5 254,-76.5 358,-76.5 358,-57.5 254,-57.5"/>
<text text-anchor="middle" x="306" y="-64.5" font-family="Helvetica,sans-Serif" font-size="10.00" fill="#000000">odp_ipsec_sa_opt_t</text>
</a>
</g>
</g>
<!-- Node8&#45;&gt;Node2 -->
<g id="edge7" class="edge">
<title>Node8&#45;&gt;Node2</title>
<path fill="none" stroke="#9a32cd" stroke-dasharray="5,2" d="M368.1402,-77.6484C392.3536,-82.3984 420.1945,-88.6057 445,-96 464.0034,-101.6647 484.9236,-110.0224 500.0767,-116.4785"/>
<polygon fill="#9a32cd" stroke="#9a32cd" points="368.4851,-74.1507 358.0045,-75.7026 367.1653,-81.0252 368.4851,-74.1507"/>
<text text-anchor="middle" x="418" y="-99" font-family="Helvetica,sans-Serif" font-size="10.00" fill="#000000"> opt</text>
</g>
<!-- Node9 -->
<g id="node9" class="node">
<title>Node9</title>
<g id="a_node9"><a xlink:href="structodp__ipsec__tunnel__param__t.html" target="_top" xlink:title="IPSEC tunnel parameters. ">
<polygon fill="#ffffff" stroke="#000000" points="239.5,-19.5 239.5,-38.5 372.5,-38.5 372.5,-19.5 239.5,-19.5"/>
<text text-anchor="middle" x="306" y="-26.5" font-family="Helvetica,sans-Serif" font-size="10.00" fill="#000000">odp_ipsec_tunnel_param_t</text>
</a>
</g>
</g>
<!-- Node9&#45;&gt;Node2 -->
<g id="edge8" class="edge">
<title>Node9&#45;&gt;Node2</title>
<path fill="none" stroke="#9a32cd" stroke-dasharray="5,2" d="M369.4662,-40.8422C393.8599,-46.7923 421.4779,-55.29 445,-67 471.4258,-80.1555 497.6743,-103.1089 511.499,-116.1701"/>
<polygon fill="#9a32cd" stroke="#9a32cd" points="370.1211,-37.4009 359.5862,-38.5261 368.5234,-44.2161 370.1211,-37.4009"/>
<text text-anchor="middle" x="418" y="-70" font-family="Helvetica,sans-Serif" font-size="10.00" fill="#000000"> tunnel</text>
</g>
<!-- Node10 -->
<g id="node10" class="node">
<title>Node10</title>
<g id="a_node10"><a xlink:href="structodp__ipsec__ipv4__param__t.html" target="_top" xlink:title="IPv4 header parameters. ">
<polygon fill="#ffffff" stroke="#000000" points="0,-38.5 0,-57.5 125,-57.5 125,-38.5 0,-38.5"/>
<text text-anchor="middle" x="62.5" y="-45.5" font-family="Helvetica,sans-Serif" font-size="10.00" fill="#000000">odp_ipsec_ipv4_param_t</text>
</a>
</g>
</g>
<!-- Node10&#45;&gt;Node9 -->
<g id="edge9" class="edge">
<title>Node10&#45;&gt;Node9</title>
<path fill="none" stroke="#9a32cd" stroke-dasharray="5,2" d="M135.2482,-42.3236C168.242,-39.7491 206.9986,-36.725 239.2412,-34.2091"/>
<polygon fill="#9a32cd" stroke="#9a32cd" points="134.9047,-38.8396 125.2073,-43.107 135.4493,-45.8184 134.9047,-38.8396"/>
<text text-anchor="middle" x="182" y="-44" font-family="Helvetica,sans-Serif" font-size="10.00" fill="#000000"> ipv4</text>
</g>
<!-- Node11 -->
<g id="node11" class="node">
<title>Node11</title>
<g id="a_node11"><a xlink:href="structodp__ipsec__ipv6__param__t.html" target="_top" xlink:title="IPv6 header parameters. ">
<polygon fill="#ffffff" stroke="#000000" points="0,-.5 0,-19.5 125,-19.5 125,-.5 0,-.5"/>
<text text-anchor="middle" x="62.5" y="-7.5" font-family="Helvetica,sans-Serif" font-size="10.00" fill="#000000">odp_ipsec_ipv6_param_t</text>
</a>
</g>
</g>
<!-- Node11&#45;&gt;Node9 -->
<g id="edge10" class="edge">
<title>Node11&#45;&gt;Node9</title>
<path fill="none" stroke="#9a32cd" stroke-dasharray="5,2" d="M135.1626,-13.9346C162.1382,-15.5663 192.9837,-17.6341 221,-20 226.9147,-20.4995 233.0563,-21.0626 239.2094,-21.6573"/>
<polygon fill="#9a32cd" stroke="#9a32cd" points="135.2178,-10.4318 125.0274,-13.3308 134.8015,-17.4194 135.2178,-10.4318"/>
<text text-anchor="middle" x="182" y="-23" font-family="Helvetica,sans-Serif" font-size="10.00" fill="#000000"> ipv6</text>
</g>
</g>
</svg>
