<?xml version="1.0" encoding="UTF-8" standalone="no"?>
<!DOCTYPE svg PUBLIC "-//W3C//DTD SVG 1.1//EN"
 "http://www.w3.org/Graphics/SVG/1.1/DTD/svg11.dtd">
<!-- Generated by graphviz version 2.40.1 (20161225.0304)
 -->
<!-- Title: odp_init_t Pages: 1 -->
<svg width="188pt" height="106pt"
 viewBox="0.00 0.00 188.00 106.00" xmlns="http://www.w3.org/2000/svg" xmlns:xlink="http://www.w3.org/1999/xlink">
<g id="graph0" class="graph" transform="scale(1 1) rotate(0) translate(4 102)">
<title>odp_init_t</title>
<polygon fill="#ffffff" stroke="transparent" points="-4,4 -4,-102 184,-102 184,4 -4,4"/>
<!-- Node1 -->
<g id="node1" class="node">
<title>Node1</title>
<polygon fill="#bfbfbf" stroke="#000000" points="62.5,-.5 62.5,-19.5 121.5,-19.5 121.5,-.5 62.5,-.5"/>
<text text-anchor="middle" x="92" y="-7.5" font-family="Helvetica,sans-Serif" font-size="10.00" fill="#000000">odp_init_t</text>
</g>
<!-- Node2 -->
<g id="node2" class="node">
<title>Node2</title>
<g id="a_node2"><a xlink:href="structodp__cpumask__t.html" target="_top" xlink:title="CPU mask. ">
<polygon fill="#ffffff" stroke="#000000" points="0,-78.5 0,-97.5 86,-97.5 86,-78.5 0,-78.5"/>
<text text-anchor="middle" x="43" y="-85.5" font-family="Helvetica,sans-Serif" font-size="10.00" fill="#000000">odp_cpumask_t</text>
</a>
</g>
</g>
<!-- Node2&#45;&gt;Node1 -->
<g id="edge1" class="edge">
<title>Node2&#45;&gt;Node1</title>
<path fill="none" stroke="#9a32cd" stroke-dasharray="5,2" d="M47.6814,-68.239C50.553,-58.5925 54.8758,-47.1294 61,-38 65.6866,-31.0137 72.491,-24.6097 78.5316,-19.6948"/>
<polygon fill="#9a32cd" stroke="#9a32cd" points="44.2368,-67.5726 45.0374,-78.1372 50.9997,-69.3792 44.2368,-67.5726"/>
<text text-anchor="middle" x="90.5" y="-52" font-family="Helvetica,sans-Serif" font-size="10.00" fill="#000000"> control_cpus</text>
<text text-anchor="middle" x="90.5" y="-41" font-family="Helvetica,sans-Serif" font-size="10.00" fill="#000000">worker_cpus</text>
</g>
<!-- Node3 -->
<g id="node3" class="node">
<title>Node3</title>
<g id="a_node3"><a xlink:href="unionodp__feature__t.html" target="_top" xlink:title="Definition of ODP features. ">
<polygon fill="#ffffff" stroke="#000000" points="104,-78.5 104,-97.5 180,-97.5 180,-78.5 104,-78.5"/>
<text text-anchor="middle" x="142" y="-85.5" font-family="Helvetica,sans-Serif" font-size="10.00" fill="#000000">odp_feature_t</text>
</a>
</g>
</g>
<!-- Node3&#45;&gt;Node1 -->
<g id="edge2" class="edge">
<title>Node3&#45;&gt;Node1</title>
<path fill="none" stroke="#9a32cd" stroke-dasharray="5,2" d="M135.4513,-68.7176C131.6992,-59.0508 126.4488,-47.4272 120,-38 115.3423,-31.1911 108.8988,-24.6132 103.3672,-19.5458"/>
<polygon fill="#9a32cd" stroke="#9a32cd" points="132.2095,-70.0442 138.9206,-78.2425 138.7868,-67.6485 132.2095,-70.0442"/>
<text text-anchor="middle" x="152.5" y="-46.5" font-family="Helvetica,sans-Serif" font-size="10.00" fill="#000000"> not_used</text>
</g>
</g>
</svg>
