<?xml version="1.0" encoding="UTF-8" standalone="no"?>
<!DOCTYPE svg PUBLIC "-//W3C//DTD SVG 1.1//EN"
 "http://www.w3.org/Graphics/SVG/1.1/DTD/svg11.dtd">
<!-- Generated by graphviz version 2.40.1 (20161225.0304)
 -->
<!-- Title: odp_comp_capability_t Pages: 1 -->
<svg width="250pt" height="95pt"
 viewBox="0.00 0.00 249.50 95.00" xmlns="http://www.w3.org/2000/svg" xmlns:xlink="http://www.w3.org/1999/xlink">
<g id="graph0" class="graph" transform="scale(1 1) rotate(0) translate(4 91)">
<title>odp_comp_capability_t</title>
<polygon fill="#ffffff" stroke="transparent" points="-4,4 -4,-91 245.5,-91 245.5,4 -4,4"/>
<!-- Node1 -->
<g id="node1" class="node">
<title>Node1</title>
<polygon fill="#bfbfbf" stroke="#000000" points="56,-.5 56,-19.5 172,-19.5 172,-.5 56,-.5"/>
<text text-anchor="middle" x="114" y="-7.5" font-family="Helvetica,sans-Serif" font-size="10.00" fill="#000000">odp_comp_capability_t</text>
</g>
<!-- Node2 -->
<g id="node2" class="node">
<title>Node2</title>
<g id="a_node2"><a xlink:href="unionodp__comp__algos__t.html" target="_top" xlink:title="Compression algorithms in a bit field structure. ">
<polygon fill="#ffffff" stroke="#000000" points="0,-67.5 0,-86.5 98,-86.5 98,-67.5 0,-67.5"/>
<text text-anchor="middle" x="49" y="-74.5" font-family="Helvetica,sans-Serif" font-size="10.00" fill="#000000">odp_comp_algos_t</text>
</a>
</g>
</g>
<!-- Node2&#45;&gt;Node1 -->
<g id="edge1" class="edge">
<title>Node2&#45;&gt;Node1</title>
<path fill="none" stroke="#9a32cd" stroke-dasharray="5,2" d="M65.4163,-60.0785C77.8485,-47.2639 94.4788,-30.1218 104.7044,-19.5817"/>
<polygon fill="#9a32cd" stroke="#9a32cd" points="62.764,-57.786 58.3129,-67.4005 67.7882,-62.6602 62.764,-57.786"/>
<text text-anchor="middle" x="114" y="-41" font-family="Helvetica,sans-Serif" font-size="10.00" fill="#000000"> comp_algos</text>
</g>
<!-- Node3 -->
<g id="node3" class="node">
<title>Node3</title>
<g id="a_node3"><a xlink:href="unionodp__comp__hash__algos__t.html" target="_top" xlink:title="Hash algorithms in a bit field structure. ">
<polygon fill="#ffffff" stroke="#000000" points="116.5,-67.5 116.5,-86.5 241.5,-86.5 241.5,-67.5 116.5,-67.5"/>
<text text-anchor="middle" x="179" y="-74.5" font-family="Helvetica,sans-Serif" font-size="10.00" fill="#000000">odp_comp_hash_algos_t</text>
</a>
</g>
</g>
<!-- Node3&#45;&gt;Node1 -->
<g id="edge2" class="edge">
<title>Node3&#45;&gt;Node1</title>
<path fill="none" stroke="#9a32cd" stroke-dasharray="5,2" d="M164.9925,-59.3223C159.3155,-52.4628 152.5596,-44.6692 146,-38 139.6847,-31.5792 132.1211,-24.9191 125.9333,-19.706"/>
<polygon fill="#9a32cd" stroke="#9a32cd" points="162.4922,-61.7957 171.5104,-67.3565 167.9282,-57.3856 162.4922,-61.7957"/>
<text text-anchor="middle" x="181.5" y="-41" font-family="Helvetica,sans-Serif" font-size="10.00" fill="#000000"> hash_algos</text>
</g>
</g>
</svg>
