<?xml version="1.0" encoding="UTF-8" standalone="no"?>
<!DOCTYPE svg PUBLIC "-//W3C//DTD SVG 1.1//EN"
 "http://www.w3.org/Graphics/SVG/1.1/DTD/svg11.dtd">
<!-- Generated by graphviz version 2.40.1 (20161225.0304)
 -->
<!-- Title: odp_pktin_queue_param_t Pages: 1 -->
<svg width="570pt" height="155pt"
 viewBox="0.00 0.00 570.00 155.00" xmlns="http://www.w3.org/2000/svg" xmlns:xlink="http://www.w3.org/1999/xlink">
<g id="graph0" class="graph" transform="scale(1 1) rotate(0) translate(4 151)">
<title>odp_pktin_queue_param_t</title>
<polygon fill="#ffffff" stroke="transparent" points="-4,4 -4,-151 566,-151 566,4 -4,4"/>
<!-- Node1 -->
<g id="node1" class="node">
<title>Node1</title>
<polygon fill="#bfbfbf" stroke="#000000" points="431,-60.5 431,-79.5 562,-79.5 562,-60.5 431,-60.5"/>
<text text-anchor="middle" x="496.5" y="-67.5" font-family="Helvetica,sans-Serif" font-size="10.00" fill="#000000">odp_pktin_queue_param_t</text>
</g>
<!-- Node2 -->
<g id="node2" class="node">
<title>Node2</title>
<g id="a_node2"><a xlink:href="structodp__queue__param__t.html" target="_top" xlink:title="ODP Queue parameters. ">
<polygon fill="#ffffff" stroke="#000000" points="196.5,-126.5 196.5,-145.5 300.5,-145.5 300.5,-126.5 196.5,-126.5"/>
<text text-anchor="middle" x="248.5" y="-133.5" font-family="Helvetica,sans-Serif" font-size="10.00" fill="#000000">odp_queue_param_t</text>
</a>
</g>
</g>
<!-- Node2&#45;&gt;Node1 -->
<g id="edge1" class="edge">
<title>Node2&#45;&gt;Node1</title>
<path fill="none" stroke="#9a32cd" stroke-dasharray="5,2" d="M307.7458,-124.3654C339.2272,-117.7589 378.4539,-108.85 413,-99 432.923,-93.3194 455.0541,-85.5654 471.524,-79.5045"/>
<polygon fill="#9a32cd" stroke="#9a32cd" points="306.8922,-120.9679 297.8125,-126.4278 308.3153,-127.8218 306.8922,-120.9679"/>
<text text-anchor="middle" x="372.5" y="-122" font-family="Helvetica,sans-Serif" font-size="10.00" fill="#000000"> queue_param</text>
</g>
<!-- Node3 -->
<g id="node3" class="node">
<title>Node3</title>
<g id="a_node3"><a xlink:href="structodp__schedule__param__t.html" target="_top" xlink:title="Scheduler parameters. ">
<polygon fill="#ffffff" stroke="#000000" points="0,-126.5 0,-145.5 117,-145.5 117,-126.5 0,-126.5"/>
<text text-anchor="middle" x="58.5" y="-133.5" font-family="Helvetica,sans-Serif" font-size="10.00" fill="#000000">odp_schedule_param_t</text>
</a>
</g>
</g>
<!-- Node3&#45;&gt;Node2 -->
<g id="edge2" class="edge">
<title>Node3&#45;&gt;Node2</title>
<path fill="none" stroke="#9a32cd" stroke-dasharray="5,2" d="M127.3299,-136C150.0668,-136 174.9729,-136 196.2596,-136"/>
<polygon fill="#9a32cd" stroke="#9a32cd" points="127.0566,-132.5001 117.0566,-136 127.0566,-139.5001 127.0566,-132.5001"/>
<text text-anchor="middle" x="150" y="-139" font-family="Helvetica,sans-Serif" font-size="10.00" fill="#000000"> sched</text>
</g>
<!-- Node4 -->
<g id="node4" class="node">
<title>Node4</title>
<g id="a_node4"><a xlink:href="structodp__pktin__queue__param__ovr__t.html" target="_top" xlink:title="Packet input queue parameters override. ">
<polygon fill="#ffffff" stroke="#000000" points="187.5,-77 187.5,-107 309.5,-107 309.5,-77 187.5,-77"/>
<text text-anchor="start" x="195.5" y="-95" font-family="Helvetica,sans-Serif" font-size="10.00" fill="#000000">odp_pktin_queue_param</text>
<text text-anchor="middle" x="248.5" y="-84" font-family="Helvetica,sans-Serif" font-size="10.00" fill="#000000">_ovr_t</text>
</a>
</g>
</g>
<!-- Node4&#45;&gt;Node1 -->
<g id="edge3" class="edge">
<title>Node4&#45;&gt;Node1</title>
<path fill="none" stroke="#9a32cd" stroke-dasharray="5,2" d="M319.9277,-85.6637C354.836,-82.567 396.5661,-78.8651 430.6917,-75.8378"/>
<polygon fill="#9a32cd" stroke="#9a32cd" points="319.455,-82.1918 309.8034,-86.5618 320.0736,-89.1644 319.455,-82.1918"/>
<text text-anchor="middle" x="372.5" y="-87" font-family="Helvetica,sans-Serif" font-size="10.00" fill="#000000"> queue_param_ovr</text>
</g>
<!-- Node5 -->
<g id="node5" class="node">
<title>Node5</title>
<g id="a_node5"><a xlink:href="unionodp__pktin__hash__proto__t.html" target="_top" xlink:title="Packet input hash protocols. ">
<polygon fill="#ffffff" stroke="#000000" points="188.5,-38.5 188.5,-57.5 308.5,-57.5 308.5,-38.5 188.5,-38.5"/>
<text text-anchor="middle" x="248.5" y="-45.5" font-family="Helvetica,sans-Serif" font-size="10.00" fill="#000000">odp_pktin_hash_proto_t</text>
</a>
</g>
</g>
<!-- Node5&#45;&gt;Node1 -->
<g id="edge4" class="edge">
<title>Node5&#45;&gt;Node1</title>
<path fill="none" stroke="#9a32cd" stroke-dasharray="5,2" d="M318.7656,-53.8149C347.9256,-56.271 382.1026,-59.2052 413,-62 418.8015,-62.5248 424.8286,-63.0809 430.8691,-63.6457"/>
<polygon fill="#9a32cd" stroke="#9a32cd" points="318.9322,-50.3166 308.6742,-52.9671 318.3461,-57.2921 318.9322,-50.3166"/>
<text text-anchor="middle" x="372.5" y="-65" font-family="Helvetica,sans-Serif" font-size="10.00" fill="#000000"> hash_proto</text>
</g>
<!-- Node6 -->
<g id="node6" class="node">
<title>Node6</title>
<g id="a_node6"><a xlink:href="structodp__pktin__vector__config__t.html" target="_top" xlink:title="Packet input vector configuration. ">
<polygon fill="#ffffff" stroke="#000000" points="183,-.5 183,-19.5 314,-19.5 314,-.5 183,-.5"/>
<text text-anchor="middle" x="248.5" y="-7.5" font-family="Helvetica,sans-Serif" font-size="10.00" fill="#000000">odp_pktin_vector_config_t</text>
</a>
</g>
</g>
<!-- Node6&#45;&gt;Node1 -->
<g id="edge5" class="edge">
<title>Node6&#45;&gt;Node1</title>
<path fill="none" stroke="#9a32cd" stroke-dasharray="5,2" d="M324.4938,-20.4501C352.5544,-25.0785 384.4596,-31.2549 413,-39 434.1915,-44.7508 457.5648,-53.6598 474.1793,-60.454"/>
<polygon fill="#9a32cd" stroke="#9a32cd" points="324.7723,-16.9499 314.3429,-18.8149 323.659,-23.8609 324.7723,-16.9499"/>
<text text-anchor="middle" x="372.5" y="-42" font-family="Helvetica,sans-Serif" font-size="10.00" fill="#000000"> vector</text>
</g>
<!-- Node7 -->
<g id="node7" class="node">
<title>Node7</title>
<g id="a_node7"><a xlink:href="struct__odp__abi__pool__t.html" target="_top" xlink:title="_odp_abi_pool_t">
<polygon fill="#ffffff" stroke="#000000" points="15,-.5 15,-19.5 102,-19.5 102,-.5 15,-.5"/>
<text text-anchor="middle" x="58.5" y="-7.5" font-family="Helvetica,sans-Serif" font-size="10.00" fill="#000000">_odp_abi_pool_t</text>
</a>
</g>
</g>
<!-- Node7&#45;&gt;Node6 -->
<g id="edge6" class="edge">
<title>Node7&#45;&gt;Node6</title>
<path fill="none" stroke="#9a32cd" stroke-dasharray="5,2" d="M112.2093,-10C134.1373,-10 159.7093,-10 182.7407,-10"/>
<polygon fill="#9a32cd" stroke="#9a32cd" points="112.0899,-6.5001 102.0898,-10 112.0898,-13.5001 112.0899,-6.5001"/>
<text text-anchor="middle" x="150" y="-13" font-family="Helvetica,sans-Serif" font-size="10.00" fill="#000000"> pool</text>
</g>
</g>
</svg>
