<?xml version="1.0" encoding="UTF-8" standalone="no"?>
<!DOCTYPE svg PUBLIC "-//W3C//DTD SVG 1.1//EN"
 "http://www.w3.org/Graphics/SVG/1.1/DTD/svg11.dtd">
<!-- Generated by graphviz version 2.40.1 (20161225.0304)
 -->
<!-- Title: odp_queue_info_t Pages: 1 -->
<svg width="125pt" height="162pt"
 viewBox="0.00 0.00 125.00 162.00" xmlns="http://www.w3.org/2000/svg" xmlns:xlink="http://www.w3.org/1999/xlink">
<g id="graph0" class="graph" transform="scale(1 1) rotate(0) translate(4 158)">
<title>odp_queue_info_t</title>
<polygon fill="#ffffff" stroke="transparent" points="-4,4 -4,-158 121,-158 121,4 -4,4"/>
<!-- Node1 -->
<g id="node1" class="node">
<title>Node1</title>
<polygon fill="#bfbfbf" stroke="#000000" points="12,-.5 12,-19.5 105,-19.5 105,-.5 12,-.5"/>
<text text-anchor="middle" x="58.5" y="-7.5" font-family="Helvetica,sans-Serif" font-size="10.00" fill="#000000">odp_queue_info_t</text>
</g>
<!-- Node2 -->
<g id="node2" class="node">
<title>Node2</title>
<g id="a_node2"><a xlink:href="structodp__queue__param__t.html" target="_top" xlink:title="ODP Queue parameters. ">
<polygon fill="#ffffff" stroke="#000000" points="6.5,-67.5 6.5,-86.5 110.5,-86.5 110.5,-67.5 6.5,-67.5"/>
<text text-anchor="middle" x="58.5" y="-74.5" font-family="Helvetica,sans-Serif" font-size="10.00" fill="#000000">odp_queue_param_t</text>
</a>
</g>
</g>
<!-- Node2&#45;&gt;Node1 -->
<g id="edge1" class="edge">
<title>Node2&#45;&gt;Node1</title>
<path fill="none" stroke="#9a32cd" stroke-dasharray="5,2" d="M58.5,-57.1079C58.5,-44.714 58.5,-29.3263 58.5,-19.5817"/>
<polygon fill="#9a32cd" stroke="#9a32cd" points="55.0001,-57.4005 58.5,-67.4005 62.0001,-57.4006 55.0001,-57.4005"/>
<text text-anchor="middle" x="74" y="-41" font-family="Helvetica,sans-Serif" font-size="10.00" fill="#000000"> param</text>
</g>
<!-- Node3 -->
<g id="node3" class="node">
<title>Node3</title>
<g id="a_node3"><a xlink:href="structodp__schedule__param__t.html" target="_top" xlink:title="Scheduler parameters. ">
<polygon fill="#ffffff" stroke="#000000" points="0,-134.5 0,-153.5 117,-153.5 117,-134.5 0,-134.5"/>
<text text-anchor="middle" x="58.5" y="-141.5" font-family="Helvetica,sans-Serif" font-size="10.00" fill="#000000">odp_schedule_param_t</text>
</a>
</g>
</g>
<!-- Node3&#45;&gt;Node2 -->
<g id="edge2" class="edge">
<title>Node3&#45;&gt;Node2</title>
<path fill="none" stroke="#9a32cd" stroke-dasharray="5,2" d="M58.5,-124.1079C58.5,-111.714 58.5,-96.3263 58.5,-86.5817"/>
<polygon fill="#9a32cd" stroke="#9a32cd" points="55.0001,-124.4005 58.5,-134.4005 62.0001,-124.4006 55.0001,-124.4005"/>
<text text-anchor="middle" x="73.5" y="-108" font-family="Helvetica,sans-Serif" font-size="10.00" fill="#000000"> sched</text>
</g>
</g>
</svg>
