<?xml version="1.0" encoding="UTF-8" standalone="no"?>
<!DOCTYPE svg PUBLIC "-//W3C//DTD SVG 1.1//EN"
 "http://www.w3.org/Graphics/SVG/1.1/DTD/svg11.dtd">
<!-- Generated by graphviz version 2.40.1 (20161225.0304)
 -->
<!-- Title: odp_pktio_config_t Pages: 1 -->
<svg width="415pt" height="95pt"
 viewBox="0.00 0.00 415.00 95.00" xmlns="http://www.w3.org/2000/svg" xmlns:xlink="http://www.w3.org/1999/xlink">
<g id="graph0" class="graph" transform="scale(1 1) rotate(0) translate(4 91)">
<title>odp_pktio_config_t</title>
<polygon fill="#ffffff" stroke="transparent" points="-4,4 -4,-91 411,-91 411,4 -4,4"/>
<!-- Node1 -->
<g id="node1" class="node">
<title>Node1</title>
<polygon fill="#bfbfbf" stroke="#000000" points="158.5,-.5 158.5,-19.5 256.5,-19.5 256.5,-.5 158.5,-.5"/>
<text text-anchor="middle" x="207.5" y="-7.5" font-family="Helvetica,sans-Serif" font-size="10.00" fill="#000000">odp_pktio_config_t</text>
</g>
<!-- Node2 -->
<g id="node2" class="node">
<title>Node2</title>
<g id="a_node2"><a xlink:href="structodp__pktio__parser__config__t.html" target="_top" xlink:title="Parser configuration. ">
<polygon fill="#ffffff" stroke="#000000" points="0,-67.5 0,-86.5 131,-86.5 131,-67.5 0,-67.5"/>
<text text-anchor="middle" x="65.5" y="-74.5" font-family="Helvetica,sans-Serif" font-size="10.00" fill="#000000">odp_pktio_parser_config_t</text>
</a>
</g>
</g>
<!-- Node2&#45;&gt;Node1 -->
<g id="edge1" class="edge">
<title>Node2&#45;&gt;Node1</title>
<path fill="none" stroke="#9a32cd" stroke-dasharray="5,2" d="M95.0186,-63.0722C122.6062,-50.0555 163.0625,-30.967 187.1926,-19.5817"/>
<polygon fill="#9a32cd" stroke="#9a32cd" points="93.3955,-59.968 85.8451,-67.4005 96.3825,-66.2987 93.3955,-59.968"/>
<text text-anchor="middle" x="161" y="-41" font-family="Helvetica,sans-Serif" font-size="10.00" fill="#000000"> parser</text>
</g>
<!-- Node3 -->
<g id="node3" class="node">
<title>Node3</title>
<g id="a_node3"><a xlink:href="unionodp__pktin__config__opt__t.html" target="_top" xlink:title="Packet input configuration options bit field. ">
<polygon fill="#ffffff" stroke="#000000" points="149,-67.5 149,-86.5 266,-86.5 266,-67.5 149,-67.5"/>
<text text-anchor="middle" x="207.5" y="-74.5" font-family="Helvetica,sans-Serif" font-size="10.00" fill="#000000">odp_pktin_config_opt_t</text>
</a>
</g>
</g>
<!-- Node3&#45;&gt;Node1 -->
<g id="edge2" class="edge">
<title>Node3&#45;&gt;Node1</title>
<path fill="none" stroke="#9a32cd" stroke-dasharray="5,2" d="M207.5,-57.1079C207.5,-44.714 207.5,-29.3263 207.5,-19.5817"/>
<polygon fill="#9a32cd" stroke="#9a32cd" points="204.0001,-57.4005 207.5,-67.4005 211.0001,-57.4006 204.0001,-57.4005"/>
<text text-anchor="middle" x="220" y="-41" font-family="Helvetica,sans-Serif" font-size="10.00" fill="#000000"> pktin</text>
</g>
<!-- Node4 -->
<g id="node4" class="node">
<title>Node4</title>
<g id="a_node4"><a xlink:href="unionodp__pktout__config__opt__t.html" target="_top" xlink:title="Packet output configuration options bit field. ">
<polygon fill="#ffffff" stroke="#000000" points="284,-67.5 284,-86.5 407,-86.5 407,-67.5 284,-67.5"/>
<text text-anchor="middle" x="345.5" y="-74.5" font-family="Helvetica,sans-Serif" font-size="10.00" fill="#000000">odp_pktout_config_opt_t</text>
</a>
</g>
</g>
<!-- Node4&#45;&gt;Node1 -->
<g id="edge3" class="edge">
<title>Node4&#45;&gt;Node1</title>
<path fill="none" stroke="#9a32cd" stroke-dasharray="5,2" d="M316.4609,-62.9013C289.6594,-49.889 250.5834,-30.9173 227.2354,-19.5817"/>
<polygon fill="#9a32cd" stroke="#9a32cd" points="315.2035,-66.1815 325.728,-67.4005 318.2608,-59.8844 315.2035,-66.1815"/>
<text text-anchor="middle" x="300" y="-41" font-family="Helvetica,sans-Serif" font-size="10.00" fill="#000000"> pktout</text>
</g>
</g>
</svg>
