<?xml version="1.0" encoding="UTF-8" standalone="no"?>
<!DOCTYPE svg PUBLIC "-//W3C//DTD SVG 1.1//EN"
 "http://www.w3.org/Graphics/SVG/1.1/DTD/svg11.dtd">
<!-- Generated by graphviz version 2.40.1 (20161225.0304)
 -->
<!-- Title: support.h Pages: 1 -->
<svg width="315pt" height="644pt"
 viewBox="0.00 0.00 314.59 644.00" xmlns="http://www.w3.org/2000/svg" xmlns:xlink="http://www.w3.org/1999/xlink">
<g id="graph0" class="graph" transform="scale(1 1) rotate(0) translate(4 640)">
<title>support.h</title>
<polygon fill="#ffffff" stroke="transparent" points="-4,4 -4,-640 310.589,-640 310.589,4 -4,4"/>
<!-- Node4 -->
<g id="node1" class="node">
<title>Node4</title>
<polygon fill="#bfbfbf" stroke="#000000" points="85.089,-616.5 85.089,-635.5 142.089,-635.5 142.089,-616.5 85.089,-616.5"/>
<text text-anchor="middle" x="113.589" y="-623.5" font-family="Helvetica,sans-Serif" font-size="10.00" fill="#000000">support.h</text>
</g>
<!-- Node5 -->
<g id="node2" class="node">
<title>Node5</title>
<g id="a_node2"><a xlink:href="spec_2classification_8h.html" target="_top" xlink:title="ODP classification descriptor. ">
<polygon fill="#ffffff" stroke="#000000" points="28.589,-168.5 28.589,-187.5 110.589,-187.5 110.589,-168.5 28.589,-168.5"/>
<text text-anchor="middle" x="69.589" y="-175.5" font-family="Helvetica,sans-Serif" font-size="10.00" fill="#000000">classification.h</text>
</a>
</g>
</g>
<!-- Node4&#45;&gt;Node5 -->
<g id="edge1" class="edge">
<title>Node4&#45;&gt;Node5</title>
<path fill="none" stroke="#191970" d="M89.3769,-610.58C78.5914,-602.6171 66.5531,-592.0437 58.589,-580 41.6828,-554.4336 38.589,-544.6506 38.589,-514 38.589,-514 38.589,-514 38.589,-290 38.589,-250.8595 56.3916,-206.722 65.0148,-187.6387"/>
<polygon fill="#191970" stroke="#191970" points="87.459,-613.5099 97.6564,-616.3847 91.4775,-607.7782 87.459,-613.5099"/>
</g>
<!-- Node7 -->
<g id="node4" class="node">
<title>Node7</title>
<g id="a_node4"><a xlink:href="spec_2ipsec_8h.html" target="_top" xlink:title="ODP IPSEC API. ">
<polygon fill="#ffffff" stroke="#000000" points="143.589,-56.5 143.589,-75.5 191.589,-75.5 191.589,-56.5 143.589,-56.5"/>
<text text-anchor="middle" x="167.589" y="-63.5" font-family="Helvetica,sans-Serif" font-size="10.00" fill="#000000">ipsec.h</text>
</a>
</g>
</g>
<!-- Node4&#45;&gt;Node7 -->
<g id="edge10" class="edge">
<title>Node4&#45;&gt;Node7</title>
<path fill="none" stroke="#191970" d="M82.8232,-611.9047C49.3627,-594.2126 .589,-560.4561 .589,-514 .589,-514 .589,-514 .589,-178 .589,-147.4754 -1.7669,-133.8101 19.589,-112 36.9549,-94.2647 106.1626,-78.2002 143.4669,-70.6101"/>
<polygon fill="#191970" stroke="#191970" points="81.3007,-615.057 91.8014,-616.466 84.4713,-608.8162 81.3007,-615.057"/>
</g>
<!-- Node9 -->
<g id="node6" class="node">
<title>Node9</title>
<g id="a_node6"><a xlink:href="spec_2comp_8h.html" target="_top" xlink:title="ODP Compression. ">
<polygon fill="#ffffff" stroke="#000000" points="217.089,-560.5 217.089,-579.5 266.089,-579.5 266.089,-560.5 217.089,-560.5"/>
<text text-anchor="middle" x="241.589" y="-567.5" font-family="Helvetica,sans-Serif" font-size="10.00" fill="#000000">comp.h</text>
</a>
</g>
</g>
<!-- Node4&#45;&gt;Node9 -->
<g id="edge5" class="edge">
<title>Node4&#45;&gt;Node9</title>
<path fill="none" stroke="#191970" d="M145.0237,-612.2473C168.2699,-602.0771 199.33,-588.4883 219.8721,-579.5011"/>
<polygon fill="#191970" stroke="#191970" points="143.3516,-609.1585 135.5929,-616.3733 146.1574,-615.5716 143.3516,-609.1585"/>
</g>
<!-- Node11 -->
<g id="node8" class="node">
<title>Node11</title>
<g id="a_node8"><a xlink:href="spec_2crypto_8h.html" target="_top" xlink:title="ODP crypto. ">
<polygon fill="#ffffff" stroke="#000000" points="254.589,-448.5 254.589,-467.5 306.589,-467.5 306.589,-448.5 254.589,-448.5"/>
<text text-anchor="middle" x="280.589" y="-455.5" font-family="Helvetica,sans-Serif" font-size="10.00" fill="#000000">crypto.h</text>
</a>
</g>
</g>
<!-- Node4&#45;&gt;Node11 -->
<g id="edge7" class="edge">
<title>Node4&#45;&gt;Node11</title>
<path fill="none" stroke="#191970" d="M136.1619,-610.3468C146.8779,-602.1583 159.3318,-591.4621 168.589,-580 192.5718,-550.3047 182.7561,-532.1007 208.589,-504 223.1453,-488.1658 244.3108,-475.5112 259.9286,-467.5143"/>
<polygon fill="#191970" stroke="#191970" points="134.0038,-607.5894 128.0348,-616.3428 138.1597,-613.2223 134.0038,-607.5894"/>
</g>
<!-- Node13 -->
<g id="node10" class="node">
<title>Node13</title>
<g id="a_node10"><a xlink:href="spec_2schedule__types_8h.html" target="_top" xlink:title="ODP schedule types. ">
<polygon fill="#ffffff" stroke="#000000" points="67.089,-560.5 67.089,-579.5 160.089,-579.5 160.089,-560.5 67.089,-560.5"/>
<text text-anchor="middle" x="113.589" y="-567.5" font-family="Helvetica,sans-Serif" font-size="10.00" fill="#000000">schedule_types.h</text>
</a>
</g>
</g>
<!-- Node4&#45;&gt;Node13 -->
<g id="edge11" class="edge">
<title>Node4&#45;&gt;Node13</title>
<path fill="none" stroke="#191970" d="M113.589,-606.1575C113.589,-597.155 113.589,-586.9199 113.589,-579.6427"/>
<polygon fill="#191970" stroke="#191970" points="110.0891,-606.2455 113.589,-616.2455 117.0891,-606.2456 110.0891,-606.2455"/>
</g>
<!-- Node6 -->
<g id="node3" class="node">
<title>Node6</title>
<g id="a_node3"><a xlink:href="classification_8h.html" target="_top" xlink:title="ODP classification descriptor. ">
<polygon fill="#ffffff" stroke="#000000" points="28.589,-112.5 28.589,-131.5 110.589,-131.5 110.589,-112.5 28.589,-112.5"/>
<text text-anchor="middle" x="69.589" y="-119.5" font-family="Helvetica,sans-Serif" font-size="10.00" fill="#000000">classification.h</text>
</a>
</g>
</g>
<!-- Node5&#45;&gt;Node6 -->
<g id="edge2" class="edge">
<title>Node5&#45;&gt;Node6</title>
<path fill="none" stroke="#191970" d="M69.589,-158.1575C69.589,-149.155 69.589,-138.9199 69.589,-131.6427"/>
<polygon fill="#191970" stroke="#191970" points="66.0891,-158.2455 69.589,-168.2455 73.0891,-158.2456 66.0891,-158.2455"/>
</g>
<!-- Node6&#45;&gt;Node7 -->
<g id="edge3" class="edge">
<title>Node6&#45;&gt;Node7</title>
<path fill="none" stroke="#191970" d="M95.7576,-107.0465C113.1948,-97.0824 135.6001,-84.2794 150.7143,-75.6427"/>
<polygon fill="#191970" stroke="#191970" points="93.6052,-104.2453 86.6593,-112.2455 97.0782,-110.323 93.6052,-104.2453"/>
</g>
<!-- Node8 -->
<g id="node5" class="node">
<title>Node8</title>
<g id="a_node5"><a xlink:href="ipsec_8h.html" target="_top" xlink:title="ODP IPSEC API &#45; platform specific header. ">
<polygon fill="#ffffff" stroke="#000000" points="143.589,-.5 143.589,-19.5 191.589,-19.5 191.589,-.5 143.589,-.5"/>
<text text-anchor="middle" x="167.589" y="-7.5" font-family="Helvetica,sans-Serif" font-size="10.00" fill="#000000">ipsec.h</text>
</a>
</g>
</g>
<!-- Node7&#45;&gt;Node8 -->
<g id="edge4" class="edge">
<title>Node7&#45;&gt;Node8</title>
<path fill="none" stroke="#191970" d="M167.589,-46.1575C167.589,-37.155 167.589,-26.9199 167.589,-19.6427"/>
<polygon fill="#191970" stroke="#191970" points="164.0891,-46.2455 167.589,-56.2455 171.0891,-46.2456 164.0891,-46.2455"/>
</g>
<!-- Node10 -->
<g id="node7" class="node">
<title>Node10</title>
<g id="a_node7"><a xlink:href="comp_8h.html" target="_top" xlink:title="ODP crypto. ">
<polygon fill="#ffffff" stroke="#000000" points="217.089,-504.5 217.089,-523.5 266.089,-523.5 266.089,-504.5 217.089,-504.5"/>
<text text-anchor="middle" x="241.589" y="-511.5" font-family="Helvetica,sans-Serif" font-size="10.00" fill="#000000">comp.h</text>
</a>
</g>
</g>
<!-- Node9&#45;&gt;Node10 -->
<g id="edge6" class="edge">
<title>Node9&#45;&gt;Node10</title>
<path fill="none" stroke="#191970" d="M241.589,-550.1575C241.589,-541.155 241.589,-530.9199 241.589,-523.6427"/>
<polygon fill="#191970" stroke="#191970" points="238.0891,-550.2455 241.589,-560.2455 245.0891,-550.2456 238.0891,-550.2455"/>
</g>
<!-- Node12 -->
<g id="node9" class="node">
<title>Node12</title>
<g id="a_node9"><a xlink:href="crypto_8h.html" target="_top" xlink:title="ODP crypto. ">
<polygon fill="#ffffff" stroke="#000000" points="246.589,-280.5 246.589,-299.5 298.589,-299.5 298.589,-280.5 246.589,-280.5"/>
<text text-anchor="middle" x="272.589" y="-287.5" font-family="Helvetica,sans-Serif" font-size="10.00" fill="#000000">crypto.h</text>
</a>
</g>
</g>
<!-- Node11&#45;&gt;Node12 -->
<g id="edge8" class="edge">
<title>Node11&#45;&gt;Node12</title>
<path fill="none" stroke="#191970" d="M291.8523,-439.3325C296.111,-431.2328 300.445,-421.452 302.589,-412 312.094,-370.0958 289.2048,-320.439 278.1495,-299.7761"/>
<polygon fill="#191970" stroke="#191970" points="288.6929,-437.8105 286.8473,-448.2433 294.7961,-441.2385 288.6929,-437.8105"/>
</g>
<!-- Node12&#45;&gt;Node7 -->
<g id="edge9" class="edge">
<title>Node12&#45;&gt;Node7</title>
<path fill="none" stroke="#191970" d="M272.6223,-269.8577C271.7513,-234.8383 265.7364,-161.7229 232.589,-112 221.6998,-95.6658 202.8918,-83.2991 188.3002,-75.5242"/>
<polygon fill="#191970" stroke="#191970" points="269.1266,-270.2294 272.7523,-280.1846 276.1261,-270.1413 269.1266,-270.2294"/>
</g>
<!-- Node14 -->
<g id="node11" class="node">
<title>Node14</title>
<g id="a_node11"><a xlink:href="schedule__types_8h.html" target="_top" xlink:title="ODP schedule. ">
<polygon fill="#ffffff" stroke="#000000" points="67.089,-504.5 67.089,-523.5 160.089,-523.5 160.089,-504.5 67.089,-504.5"/>
<text text-anchor="middle" x="113.589" y="-511.5" font-family="Helvetica,sans-Serif" font-size="10.00" fill="#000000">schedule_types.h</text>
</a>
</g>
</g>
<!-- Node13&#45;&gt;Node14 -->
<g id="edge12" class="edge">
<title>Node13&#45;&gt;Node14</title>
<path fill="none" stroke="#191970" d="M113.589,-550.1575C113.589,-541.155 113.589,-530.9199 113.589,-523.6427"/>
<polygon fill="#191970" stroke="#191970" points="110.0891,-550.2455 113.589,-560.2455 117.0891,-550.2456 110.0891,-550.2455"/>
</g>
<!-- Node15 -->
<g id="node12" class="node">
<title>Node15</title>
<g id="a_node12"><a xlink:href="queue__types_8h.html" target="_top" xlink:title="ODP queue types. ">
<polygon fill="#ffffff" stroke="#000000" points="115.589,-448.5 115.589,-467.5 195.589,-467.5 195.589,-448.5 115.589,-448.5"/>
<text text-anchor="middle" x="155.589" y="-455.5" font-family="Helvetica,sans-Serif" font-size="10.00" fill="#000000">queue_types.h</text>
</a>
</g>
</g>
<!-- Node14&#45;&gt;Node15 -->
<g id="edge13" class="edge">
<title>Node14&#45;&gt;Node15</title>
<path fill="none" stroke="#191970" d="M126.9305,-496.2112C134.0286,-486.7472 142.4792,-475.4797 148.357,-467.6427"/>
<polygon fill="#191970" stroke="#191970" points="124.1048,-494.1455 120.9048,-504.2455 129.7049,-498.3455 124.1048,-494.1455"/>
</g>
<!-- Node22 -->
<g id="node19" class="node">
<title>Node22</title>
<g id="a_node19"><a xlink:href="spec_2schedule_8h.html" target="_top" xlink:title="ODP schedule. ">
<polygon fill="#ffffff" stroke="#000000" points="66.589,-280.5 66.589,-299.5 130.589,-299.5 130.589,-280.5 66.589,-280.5"/>
<text text-anchor="middle" x="98.589" y="-287.5" font-family="Helvetica,sans-Serif" font-size="10.00" fill="#000000">schedule.h</text>
</a>
</g>
</g>
<!-- Node14&#45;&gt;Node22 -->
<g id="edge28" class="edge">
<title>Node14&#45;&gt;Node22</title>
<path fill="none" stroke="#191970" d="M110.1036,-494.1894C108.8023,-486.0936 107.4363,-476.6222 106.589,-468 100.2957,-403.9658 98.9478,-326.4794 98.6635,-299.6732"/>
<polygon fill="#191970" stroke="#191970" points="106.6718,-494.8872 111.7833,-504.1675 113.5747,-493.7252 106.6718,-494.8872"/>
</g>
<!-- Node16 -->
<g id="node13" class="node">
<title>Node16</title>
<g id="a_node13"><a xlink:href="spec_2queue_8h.html" target="_top" xlink:title="ODP queue. ">
<polygon fill="#ffffff" stroke="#000000" points="116.089,-392.5 116.089,-411.5 167.089,-411.5 167.089,-392.5 116.089,-392.5"/>
<text text-anchor="middle" x="141.589" y="-399.5" font-family="Helvetica,sans-Serif" font-size="10.00" fill="#000000">queue.h</text>
</a>
</g>
</g>
<!-- Node15&#45;&gt;Node16 -->
<g id="edge14" class="edge">
<title>Node15&#45;&gt;Node16</title>
<path fill="none" stroke="#191970" d="M150.7024,-438.4538C148.434,-429.3803 145.8389,-418.9998 143.9996,-411.6427"/>
<polygon fill="#191970" stroke="#191970" points="147.3294,-439.393 153.1504,-448.2455 154.1204,-437.6952 147.3294,-439.393"/>
</g>
<!-- Node24 -->
<g id="node21" class="node">
<title>Node24</title>
<g id="a_node21"><a xlink:href="queue__inline__types_8h_source.html" target="_top" xlink:title="queue_inline_types.h">
<polygon fill="#ffffff" stroke="#000000" points="185.589,-392.5 185.589,-411.5 293.589,-411.5 293.589,-392.5 185.589,-392.5"/>
<text text-anchor="middle" x="239.589" y="-399.5" font-family="Helvetica,sans-Serif" font-size="10.00" fill="#000000">queue_inline_types.h</text>
</a>
</g>
</g>
<!-- Node15&#45;&gt;Node24 -->
<g id="edge26" class="edge">
<title>Node15&#45;&gt;Node24</title>
<path fill="none" stroke="#191970" d="M178.8539,-442.49C193.6745,-432.6096 212.4098,-420.1194 225.125,-411.6427"/>
<polygon fill="#191970" stroke="#191970" points="176.5997,-439.7863 170.2206,-448.2455 180.4826,-445.6107 176.5997,-439.7863"/>
</g>
<!-- Node17 -->
<g id="node14" class="node">
<title>Node17</title>
<g id="a_node14"><a xlink:href="queue_8h.html" target="_top" xlink:title="ODP queue. ">
<polygon fill="#ffffff" stroke="#000000" points="122.089,-336.5 122.089,-355.5 173.089,-355.5 173.089,-336.5 122.089,-336.5"/>
<text text-anchor="middle" x="147.589" y="-343.5" font-family="Helvetica,sans-Serif" font-size="10.00" fill="#000000">queue.h</text>
</a>
</g>
</g>
<!-- Node16&#45;&gt;Node17 -->
<g id="edge15" class="edge">
<title>Node16&#45;&gt;Node17</title>
<path fill="none" stroke="#191970" d="M143.7149,-382.1575C144.6795,-373.155 145.7761,-362.9199 146.5558,-355.6427"/>
<polygon fill="#191970" stroke="#191970" points="140.2194,-381.9296 142.6341,-392.2455 147.1796,-382.6753 140.2194,-381.9296"/>
</g>
<!-- Node17&#45;&gt;Node12 -->
<g id="edge16" class="edge">
<title>Node17&#45;&gt;Node12</title>
<path fill="none" stroke="#191970" d="M178.287,-332.2473C200.9883,-322.0771 231.3205,-308.4883 251.3811,-299.5011"/>
<polygon fill="#191970" stroke="#191970" points="176.7723,-329.0906 169.0772,-336.3733 179.6343,-335.4789 176.7723,-329.0906"/>
</g>
<!-- Node18 -->
<g id="node15" class="node">
<title>Node18</title>
<g id="a_node15"><a xlink:href="spec_2packet__io_8h.html" target="_top" xlink:title="ODP Packet IO. ">
<polygon fill="#ffffff" stroke="#000000" points="149.089,-280.5 149.089,-299.5 216.089,-299.5 216.089,-280.5 149.089,-280.5"/>
<text text-anchor="middle" x="182.589" y="-287.5" font-family="Helvetica,sans-Serif" font-size="10.00" fill="#000000">packet_io.h</text>
</a>
</g>
</g>
<!-- Node17&#45;&gt;Node18 -->
<g id="edge17" class="edge">
<title>Node17&#45;&gt;Node18</title>
<path fill="none" stroke="#191970" d="M159.0705,-327.6296C164.9085,-318.2887 171.7641,-307.3197 176.5623,-299.6427"/>
<polygon fill="#191970" stroke="#191970" points="156.0175,-325.9105 153.6855,-336.2455 161.9535,-329.6206 156.0175,-325.9105"/>
</g>
<!-- Node17&#45;&gt;Node22 -->
<g id="edge24" class="edge">
<title>Node17&#45;&gt;Node22</title>
<path fill="none" stroke="#191970" d="M132.2768,-328.5004C123.9443,-318.9775 113.9536,-307.5596 107.0263,-299.6427"/>
<polygon fill="#191970" stroke="#191970" points="129.8347,-331.0245 139.0538,-336.2455 135.1028,-326.415 129.8347,-331.0245"/>
</g>
<!-- Node19 -->
<g id="node16" class="node">
<title>Node19</title>
<g id="a_node16"><a xlink:href="packet__io_8h.html" target="_top" xlink:title="ODP Packet IO. ">
<polygon fill="#ffffff" stroke="#000000" points="149.089,-224.5 149.089,-243.5 216.089,-243.5 216.089,-224.5 149.089,-224.5"/>
<text text-anchor="middle" x="182.589" y="-231.5" font-family="Helvetica,sans-Serif" font-size="10.00" fill="#000000">packet_io.h</text>
</a>
</g>
</g>
<!-- Node18&#45;&gt;Node19 -->
<g id="edge18" class="edge">
<title>Node18&#45;&gt;Node19</title>
<path fill="none" stroke="#191970" d="M182.589,-270.1575C182.589,-261.155 182.589,-250.9199 182.589,-243.6427"/>
<polygon fill="#191970" stroke="#191970" points="179.0891,-270.2455 182.589,-280.2455 186.0891,-270.2456 179.0891,-270.2455"/>
</g>
<!-- Node19&#45;&gt;Node5 -->
<g id="edge19" class="edge">
<title>Node19&#45;&gt;Node5</title>
<path fill="none" stroke="#191970" d="M154.0097,-219.8368C133.5832,-209.7139 106.6528,-196.3679 88.7609,-187.5011"/>
<polygon fill="#191970" stroke="#191970" points="152.6493,-223.0688 163.1636,-224.3733 155.7576,-216.7968 152.6493,-223.0688"/>
</g>
<!-- Node19&#45;&gt;Node7 -->
<g id="edge20" class="edge">
<title>Node19&#45;&gt;Node7</title>
<path fill="none" stroke="#191970" d="M198.8259,-216.8324C205.3832,-208.7408 212.1944,-198.5555 215.589,-188 225.9302,-155.8442 228.8464,-143.0673 215.589,-112 208.9749,-96.5006 194.2927,-83.7184 182.8963,-75.5954"/>
<polygon fill="#191970" stroke="#191970" points="196.142,-214.5851 192.2382,-224.4346 201.4321,-219.1693 196.142,-214.5851"/>
</g>
<!-- Node20 -->
<g id="node17" class="node">
<title>Node20</title>
<g id="a_node17"><a xlink:href="spec_2traffic__mngr_8h.html" target="_top" xlink:title="Copyright (c) 2015&#45;2018, Linaro Limited All rights reserved. ">
<polygon fill="#ffffff" stroke="#000000" points="129.089,-168.5 129.089,-187.5 206.089,-187.5 206.089,-168.5 129.089,-168.5"/>
<text text-anchor="middle" x="167.589" y="-175.5" font-family="Helvetica,sans-Serif" font-size="10.00" fill="#000000">traffic_mngr.h</text>
</a>
</g>
</g>
<!-- Node19&#45;&gt;Node20 -->
<g id="edge21" class="edge">
<title>Node19&#45;&gt;Node20</title>
<path fill="none" stroke="#191970" d="M177.3534,-214.4538C174.923,-205.3803 172.1425,-194.9998 170.1718,-187.6427"/>
<polygon fill="#191970" stroke="#191970" points="174.0079,-215.4917 179.9762,-224.2455 180.7695,-213.6805 174.0079,-215.4917"/>
</g>
<!-- Node21 -->
<g id="node18" class="node">
<title>Node21</title>
<g id="a_node18"><a xlink:href="traffic__mngr_8h.html" target="_top" xlink:title="ODP Traffic manager. ">
<polygon fill="#ffffff" stroke="#000000" points="129.089,-112.5 129.089,-131.5 206.089,-131.5 206.089,-112.5 129.089,-112.5"/>
<text text-anchor="middle" x="167.589" y="-119.5" font-family="Helvetica,sans-Serif" font-size="10.00" fill="#000000">traffic_mngr.h</text>
</a>
</g>
</g>
<!-- Node20&#45;&gt;Node21 -->
<g id="edge22" class="edge">
<title>Node20&#45;&gt;Node21</title>
<path fill="none" stroke="#191970" d="M167.589,-158.1575C167.589,-149.155 167.589,-138.9199 167.589,-131.6427"/>
<polygon fill="#191970" stroke="#191970" points="164.0891,-158.2455 167.589,-168.2455 171.0891,-158.2456 164.0891,-158.2455"/>
</g>
<!-- Node21&#45;&gt;Node7 -->
<g id="edge23" class="edge">
<title>Node21&#45;&gt;Node7</title>
<path fill="none" stroke="#191970" d="M167.589,-102.1575C167.589,-93.155 167.589,-82.9199 167.589,-75.6427"/>
<polygon fill="#191970" stroke="#191970" points="164.0891,-102.2455 167.589,-112.2455 171.0891,-102.2456 164.0891,-102.2455"/>
</g>
<!-- Node23 -->
<g id="node20" class="node">
<title>Node23</title>
<g id="a_node20"><a xlink:href="schedule_8h.html" target="_top" xlink:title="ODP schedule. ">
<polygon fill="#ffffff" stroke="#000000" points="66.589,-224.5 66.589,-243.5 130.589,-243.5 130.589,-224.5 66.589,-224.5"/>
<text text-anchor="middle" x="98.589" y="-231.5" font-family="Helvetica,sans-Serif" font-size="10.00" fill="#000000">schedule.h</text>
</a>
</g>
</g>
<!-- Node22&#45;&gt;Node23 -->
<g id="edge25" class="edge">
<title>Node22&#45;&gt;Node23</title>
<path fill="none" stroke="#191970" d="M98.589,-270.1575C98.589,-261.155 98.589,-250.9199 98.589,-243.6427"/>
<polygon fill="#191970" stroke="#191970" points="95.0891,-270.2455 98.589,-280.2455 102.0891,-270.2456 95.0891,-270.2455"/>
</g>
<!-- Node25 -->
<g id="node22" class="node">
<title>Node25</title>
<g id="a_node22"><a xlink:href="queue__inlines_8h_source.html" target="_top" xlink:title="queue_inlines.h">
<polygon fill="#ffffff" stroke="#000000" points="197.589,-336.5 197.589,-355.5 281.589,-355.5 281.589,-336.5 197.589,-336.5"/>
<text text-anchor="middle" x="239.589" y="-343.5" font-family="Helvetica,sans-Serif" font-size="10.00" fill="#000000">queue_inlines.h</text>
</a>
</g>
</g>
<!-- Node24&#45;&gt;Node25 -->
<g id="edge27" class="edge">
<title>Node24&#45;&gt;Node25</title>
<path fill="none" stroke="#191970" d="M239.589,-382.1575C239.589,-373.155 239.589,-362.9199 239.589,-355.6427"/>
<polygon fill="#191970" stroke="#191970" points="236.0891,-382.2455 239.589,-392.2455 243.0891,-382.2456 236.0891,-382.2455"/>
</g>
</g>
</svg>
