<?xml version="1.0" encoding="UTF-8" standalone="no"?>
<!DOCTYPE svg PUBLIC "-//W3C//DTD SVG 1.1//EN"
 "http://www.w3.org/Graphics/SVG/1.1/DTD/svg11.dtd">
<!-- Generated by graphviz version 2.40.1 (20161225.0304)
 -->
<!-- Title: thread_types.h Pages: 1 -->
<svg width="273pt" height="308pt"
 viewBox="0.00 0.00 272.50 308.00" xmlns="http://www.w3.org/2000/svg" xmlns:xlink="http://www.w3.org/1999/xlink">
<g id="graph0" class="graph" transform="scale(1 1) rotate(0) translate(4 304)">
<title>thread_types.h</title>
<polygon fill="#ffffff" stroke="transparent" points="-4,4 -4,-304 268.5,-304 268.5,4 -4,4"/>
<!-- Node1 -->
<g id="node1" class="node">
<title>Node1</title>
<polygon fill="#bfbfbf" stroke="#000000" points="96.5,-280.5 96.5,-299.5 177.5,-299.5 177.5,-280.5 96.5,-280.5"/>
<text text-anchor="middle" x="137" y="-287.5" font-family="Helvetica,sans-Serif" font-size="10.00" fill="#000000">thread_types.h</text>
</g>
<!-- Node2 -->
<g id="node2" class="node">
<title>Node2</title>
<g id="a_node2"><a xlink:href="thread_8h.html" target="_top" xlink:title="ODP thread API. ">
<polygon fill="#ffffff" stroke="#000000" points="111,-224.5 111,-243.5 163,-243.5 163,-224.5 111,-224.5"/>
<text text-anchor="middle" x="137" y="-231.5" font-family="Helvetica,sans-Serif" font-size="10.00" fill="#000000">thread.h</text>
</a>
</g>
</g>
<!-- Node1&#45;&gt;Node2 -->
<g id="edge1" class="edge">
<title>Node1&#45;&gt;Node2</title>
<path fill="none" stroke="#191970" d="M137,-270.1575C137,-261.155 137,-250.9199 137,-243.6427"/>
<polygon fill="#191970" stroke="#191970" points="133.5001,-270.2455 137,-280.2455 140.5001,-270.2456 133.5001,-270.2455"/>
</g>
<!-- Node3 -->
<g id="node3" class="node">
<title>Node3</title>
<g id="a_node3"><a xlink:href="abi-default_2rwlock__recursive_8h.html" target="_top" xlink:title="ODP recursive read/write lock. ">
<polygon fill="#ffffff" stroke="#000000" points="0,-168.5 0,-187.5 98,-187.5 98,-168.5 0,-168.5"/>
<text text-anchor="middle" x="49" y="-175.5" font-family="Helvetica,sans-Serif" font-size="10.00" fill="#000000">rwlock_recursive.h</text>
</a>
</g>
</g>
<!-- Node2&#45;&gt;Node3 -->
<g id="edge2" class="edge">
<title>Node2&#45;&gt;Node3</title>
<path fill="none" stroke="#191970" d="M113.0655,-218.769C97.4717,-208.8456 77.599,-196.1994 64.1528,-187.6427"/>
<polygon fill="#191970" stroke="#191970" points="111.3559,-221.8296 121.6716,-224.2455 115.114,-215.9239 111.3559,-221.8296"/>
</g>
<!-- Node4 -->
<g id="node4" class="node">
<title>Node4</title>
<g id="a_node4"><a xlink:href="cpu_8h.html" target="_top" xlink:title="ODP CPU. ">
<polygon fill="#ffffff" stroke="#000000" points="116.5,-168.5 116.5,-187.5 157.5,-187.5 157.5,-168.5 116.5,-168.5"/>
<text text-anchor="middle" x="137" y="-175.5" font-family="Helvetica,sans-Serif" font-size="10.00" fill="#000000">cpu.h</text>
</a>
</g>
</g>
<!-- Node2&#45;&gt;Node4 -->
<g id="edge3" class="edge">
<title>Node2&#45;&gt;Node4</title>
<path fill="none" stroke="#191970" d="M137,-214.1575C137,-205.155 137,-194.9199 137,-187.6427"/>
<polygon fill="#191970" stroke="#191970" points="133.5001,-214.2455 137,-224.2455 140.5001,-214.2456 133.5001,-214.2455"/>
</g>
<!-- Node6 -->
<g id="node6" class="node">
<title>Node6</title>
<g id="a_node6"><a xlink:href="spec_2init_8h.html" target="_top" xlink:title="init.h">
<polygon fill="#ffffff" stroke="#000000" points="190,-168.5 190,-187.5 228,-187.5 228,-168.5 190,-168.5"/>
<text text-anchor="middle" x="209" y="-175.5" font-family="Helvetica,sans-Serif" font-size="10.00" fill="#000000">init.h</text>
</a>
</g>
</g>
<!-- Node2&#45;&gt;Node6 -->
<g id="edge5" class="edge">
<title>Node2&#45;&gt;Node6</title>
<path fill="none" stroke="#191970" d="M157.664,-217.928C170.2489,-208.1397 185.9092,-195.9595 196.6023,-187.6427"/>
<polygon fill="#191970" stroke="#191970" points="155.2862,-215.3434 149.5414,-224.2455 159.5838,-220.8688 155.2862,-215.3434"/>
</g>
<!-- Node5 -->
<g id="node5" class="node">
<title>Node5</title>
<g id="a_node5"><a xlink:href="ticketlock__inlines_8h_source.html" target="_top" xlink:title="ticketlock_inlines.h">
<polygon fill="#ffffff" stroke="#000000" points="80,-112.5 80,-131.5 180,-131.5 180,-112.5 80,-112.5"/>
<text text-anchor="middle" x="130" y="-119.5" font-family="Helvetica,sans-Serif" font-size="10.00" fill="#000000">ticketlock_inlines.h</text>
</a>
</g>
</g>
<!-- Node4&#45;&gt;Node5 -->
<g id="edge4" class="edge">
<title>Node4&#45;&gt;Node5</title>
<path fill="none" stroke="#191970" d="M134.5197,-158.1575C133.3944,-149.155 132.115,-138.9199 131.2053,-131.6427"/>
<polygon fill="#191970" stroke="#191970" points="131.0673,-158.7569 135.7807,-168.2455 138.0132,-157.8886 131.0673,-158.7569"/>
</g>
<!-- Node7 -->
<g id="node7" class="node">
<title>Node7</title>
<g id="a_node7"><a xlink:href="init_8h.html" target="_top" xlink:title="ODP initialization. ">
<polygon fill="#ffffff" stroke="#000000" points="198,-112.5 198,-131.5 236,-131.5 236,-112.5 198,-112.5"/>
<text text-anchor="middle" x="217" y="-119.5" font-family="Helvetica,sans-Serif" font-size="10.00" fill="#000000">init.h</text>
</a>
</g>
</g>
<!-- Node6&#45;&gt;Node7 -->
<g id="edge6" class="edge">
<title>Node6&#45;&gt;Node7</title>
<path fill="none" stroke="#191970" d="M211.8346,-158.1575C213.1207,-149.155 214.5829,-138.9199 215.6225,-131.6427"/>
<polygon fill="#191970" stroke="#191970" points="208.343,-157.851 210.3935,-168.2455 215.2726,-158.8411 208.343,-157.851"/>
</g>
<!-- Node8 -->
<g id="node8" class="node">
<title>Node8</title>
<g id="a_node8"><a xlink:href="spec_2shared__memory_8h.html" target="_top" xlink:title="ODP shared memory. ">
<polygon fill="#ffffff" stroke="#000000" points="169.5,-56.5 169.5,-75.5 264.5,-75.5 264.5,-56.5 169.5,-56.5"/>
<text text-anchor="middle" x="217" y="-63.5" font-family="Helvetica,sans-Serif" font-size="10.00" fill="#000000">shared_memory.h</text>
</a>
</g>
</g>
<!-- Node7&#45;&gt;Node8 -->
<g id="edge7" class="edge">
<title>Node7&#45;&gt;Node8</title>
<path fill="none" stroke="#191970" d="M217,-102.1575C217,-93.155 217,-82.9199 217,-75.6427"/>
<polygon fill="#191970" stroke="#191970" points="213.5001,-102.2455 217,-112.2455 220.5001,-102.2456 213.5001,-102.2455"/>
</g>
<!-- Node9 -->
<g id="node9" class="node">
<title>Node9</title>
<g id="a_node9"><a xlink:href="shared__memory_8h.html" target="_top" xlink:title="ODP shared memory. ">
<polygon fill="#ffffff" stroke="#000000" points="169.5,-.5 169.5,-19.5 264.5,-19.5 264.5,-.5 169.5,-.5"/>
<text text-anchor="middle" x="217" y="-7.5" font-family="Helvetica,sans-Serif" font-size="10.00" fill="#000000">shared_memory.h</text>
</a>
</g>
</g>
<!-- Node8&#45;&gt;Node9 -->
<g id="edge8" class="edge">
<title>Node8&#45;&gt;Node9</title>
<path fill="none" stroke="#191970" d="M217,-46.1575C217,-37.155 217,-26.9199 217,-19.6427"/>
<polygon fill="#191970" stroke="#191970" points="213.5001,-46.2455 217,-56.2455 220.5001,-46.2456 213.5001,-46.2455"/>
</g>
</g>
</svg>
