<?xml version="1.0" encoding="UTF-8" standalone="no"?>
<!DOCTYPE svg PUBLIC "-//W3C//DTD SVG 1.1//EN"
 "http://www.w3.org/Graphics/SVG/1.1/DTD/svg11.dtd">
<!-- Generated by graphviz version 2.40.1 (20161225.0304)
 -->
<!-- Title: ticketlock.h Pages: 1 -->
<svg width="317pt" height="140pt"
 viewBox="0.00 0.00 316.50 140.00" xmlns="http://www.w3.org/2000/svg" xmlns:xlink="http://www.w3.org/1999/xlink">
<g id="graph0" class="graph" transform="scale(1 1) rotate(0) translate(4 136)">
<title>ticketlock.h</title>
<polygon fill="#ffffff" stroke="transparent" points="-4,4 -4,-136 312.5,-136 312.5,4 -4,4"/>
<!-- Node0 -->
<g id="node1" class="node">
<title>Node0</title>
<polygon fill="#bfbfbf" stroke="#000000" points="94,-112.5 94,-131.5 161,-131.5 161,-112.5 94,-112.5"/>
<text text-anchor="middle" x="127.5" y="-119.5" font-family="Helvetica,sans-Serif" font-size="10.00" fill="#000000">ticketlock.h</text>
</g>
<!-- Node1 -->
<g id="node2" class="node">
<title>Node1</title>
<polygon fill="#ffffff" stroke="#bfbfbf" points="0,-56.5 0,-75.5 117,-75.5 117,-56.5 0,-56.5"/>
<text text-anchor="middle" x="58.5" y="-63.5" font-family="Helvetica,sans-Serif" font-size="10.00" fill="#000000">odp/api/abi/ticketlock.h</text>
</g>
<!-- Node0&#45;&gt;Node1 -->
<g id="edge1" class="edge">
<title>Node0&#45;&gt;Node1</title>
<path fill="none" stroke="#191970" d="M115.4811,-112.2455C105.2902,-103.9746 90.4638,-91.9416 78.4893,-82.2232"/>
<polygon fill="#191970" stroke="#191970" points="80.3514,-79.2268 70.3812,-75.6427 75.9402,-84.662 80.3514,-79.2268"/>
</g>
<!-- Node2 -->
<g id="node3" class="node">
<title>Node2</title>
<g id="a_node3"><a xlink:href="spec_2ticketlock_8h.html" target="_top" xlink:title="ODP ticketlock. ">
<polygon fill="#ffffff" stroke="#000000" points="135,-56.5 135,-75.5 260,-75.5 260,-56.5 135,-56.5"/>
<text text-anchor="middle" x="197.5" y="-63.5" font-family="Helvetica,sans-Serif" font-size="10.00" fill="#000000">odp/api/spec/ticketlock.h</text>
</a>
</g>
</g>
<!-- Node0&#45;&gt;Node2 -->
<g id="edge2" class="edge">
<title>Node0&#45;&gt;Node2</title>
<path fill="none" stroke="#191970" d="M139.6931,-112.2455C150.1321,-103.8943 165.3655,-91.7076 177.574,-81.9408"/>
<polygon fill="#191970" stroke="#191970" points="179.8244,-84.6227 185.4467,-75.6427 175.4515,-79.1566 179.8244,-84.6227"/>
</g>
<!-- Node3 -->
<g id="node4" class="node">
<title>Node3</title>
<polygon fill="#ffffff" stroke="#bfbfbf" points="83,-.5 83,-19.5 190,-19.5 190,-.5 83,-.5"/>
<text text-anchor="middle" x="136.5" y="-7.5" font-family="Helvetica,sans-Serif" font-size="10.00" fill="#000000">odp/visibility_begin.h</text>
</g>
<!-- Node2&#45;&gt;Node3 -->
<g id="edge3" class="edge">
<title>Node2&#45;&gt;Node3</title>
<path fill="none" stroke="#191970" d="M186.8746,-56.2455C177.9527,-48.0549 165.012,-36.1749 154.4808,-26.5069"/>
<polygon fill="#191970" stroke="#191970" points="156.7371,-23.8271 147.0036,-19.6427 152.0032,-28.9837 156.7371,-23.8271"/>
</g>
<!-- Node4 -->
<g id="node5" class="node">
<title>Node4</title>
<polygon fill="#ffffff" stroke="#bfbfbf" points="208.5,-.5 208.5,-19.5 308.5,-19.5 308.5,-.5 208.5,-.5"/>
<text text-anchor="middle" x="258.5" y="-7.5" font-family="Helvetica,sans-Serif" font-size="10.00" fill="#000000">odp/visibility_end.h</text>
</g>
<!-- Node2&#45;&gt;Node4 -->
<g id="edge4" class="edge">
<title>Node2&#45;&gt;Node4</title>
<path fill="none" stroke="#191970" d="M208.1254,-56.2455C217.0473,-48.0549 229.988,-36.1749 240.5192,-26.5069"/>
<polygon fill="#191970" stroke="#191970" points="242.9968,-28.9837 247.9964,-19.6427 238.2629,-23.8271 242.9968,-28.9837"/>
</g>
</g>
</svg>
