<?xml version="1.0" encoding="UTF-8" standalone="no"?>
<!DOCTYPE svg PUBLIC "-//W3C//DTD SVG 1.1//EN"
 "http://www.w3.org/Graphics/SVG/1.1/DTD/svg11.dtd">
<!-- Generated by graphviz version 2.40.1 (20161225.0304)
 -->
<!-- Title: time.h Pages: 1 -->
<svg width="467pt" height="308pt"
 viewBox="0.00 0.00 467.00 308.00" xmlns="http://www.w3.org/2000/svg" xmlns:xlink="http://www.w3.org/1999/xlink">
<g id="graph0" class="graph" transform="scale(1 1) rotate(0) translate(4 304)">
<title>time.h</title>
<polygon fill="#ffffff" stroke="transparent" points="-4,4 -4,-304 463,-304 463,4 -4,4"/>
<!-- Node0 -->
<g id="node1" class="node">
<title>Node0</title>
<polygon fill="#bfbfbf" stroke="#000000" points="315,-280.5 315,-299.5 359,-299.5 359,-280.5 315,-280.5"/>
<text text-anchor="middle" x="337" y="-287.5" font-family="Helvetica,sans-Serif" font-size="10.00" fill="#000000">time.h</text>
</g>
<!-- Node1 -->
<g id="node2" class="node">
<title>Node1</title>
<g id="a_node2"><a xlink:href="std__types_8h.html" target="_top" xlink:title="Standard C language types and definitions for ODP. ">
<polygon fill="#ffffff" stroke="#000000" points="148,-224.5 148,-243.5 250,-243.5 250,-224.5 148,-224.5"/>
<text text-anchor="middle" x="199" y="-231.5" font-family="Helvetica,sans-Serif" font-size="10.00" fill="#000000">odp/api/std_types.h</text>
</a>
</g>
</g>
<!-- Node0&#45;&gt;Node1 -->
<g id="edge1" class="edge">
<title>Node0&#45;&gt;Node1</title>
<path fill="none" stroke="#191970" d="M314.8279,-281.0026C292.3982,-271.9007 257.4687,-257.7264 231.829,-247.3219"/>
<polygon fill="#191970" stroke="#191970" points="233.0849,-244.0544 222.5027,-243.5373 230.4527,-250.5407 233.0849,-244.0544"/>
</g>
<!-- Node10 -->
<g id="node11" class="node">
<title>Node10</title>
<polygon fill="#ffffff" stroke="#bfbfbf" points="365,-224.5 365,-243.5 459,-243.5 459,-224.5 365,-224.5"/>
<text text-anchor="middle" x="412" y="-231.5" font-family="Helvetica,sans-Serif" font-size="10.00" fill="#000000">odp/api/abi/time.h</text>
</g>
<!-- Node0&#45;&gt;Node10 -->
<g id="edge12" class="edge">
<title>Node0&#45;&gt;Node10</title>
<path fill="none" stroke="#191970" d="M350.064,-280.2455C361.3562,-271.814 377.8845,-259.4729 391.0271,-249.6598"/>
<polygon fill="#191970" stroke="#191970" points="393.1669,-252.4301 399.0857,-243.6427 388.9789,-246.8211 393.1669,-252.4301"/>
</g>
<!-- Node11 -->
<g id="node12" class="node">
<title>Node11</title>
<g id="a_node12"><a xlink:href="spec_2time_8h.html" target="_top" xlink:title="ODP time. ">
<polygon fill="#ffffff" stroke="#000000" points="307,-56.5 307,-75.5 409,-75.5 409,-56.5 307,-56.5"/>
<text text-anchor="middle" x="358" y="-63.5" font-family="Helvetica,sans-Serif" font-size="10.00" fill="#000000">odp/api/spec/time.h</text>
</a>
</g>
</g>
<!-- Node0&#45;&gt;Node11 -->
<g id="edge13" class="edge">
<title>Node0&#45;&gt;Node11</title>
<path fill="none" stroke="#191970" d="M337.9023,-280.375C341.0795,-246.4851 351.7908,-132.2317 356.1406,-85.8332"/>
<polygon fill="#191970" stroke="#191970" points="359.6522,-85.8722 357.101,-75.5891 352.6828,-85.2188 359.6522,-85.8722"/>
</g>
<!-- Node2 -->
<g id="node3" class="node">
<title>Node2</title>
<polygon fill="#ffffff" stroke="#bfbfbf" points="0,-168.5 0,-187.5 118,-187.5 118,-168.5 0,-168.5"/>
<text text-anchor="middle" x="59" y="-175.5" font-family="Helvetica,sans-Serif" font-size="10.00" fill="#000000">odp/api/abi/std_types.h</text>
</g>
<!-- Node1&#45;&gt;Node2 -->
<g id="edge2" class="edge">
<title>Node1&#45;&gt;Node2</title>
<path fill="none" stroke="#191970" d="M174.9331,-224.3733C152.1572,-215.2629 117.7656,-201.5062 92.351,-191.3404"/>
<polygon fill="#191970" stroke="#191970" points="93.3375,-187.9654 82.7528,-187.5011 90.7377,-194.4648 93.3375,-187.9654"/>
</g>
<!-- Node3 -->
<g id="node4" class="node">
<title>Node3</title>
<g id="a_node4"><a xlink:href="spec_2std__types_8h.html" target="_top" xlink:title="Standard C language types and definitions for ODP. ">
<polygon fill="#ffffff" stroke="#000000" points="136,-168.5 136,-187.5 262,-187.5 262,-168.5 136,-168.5"/>
<text text-anchor="middle" x="199" y="-175.5" font-family="Helvetica,sans-Serif" font-size="10.00" fill="#000000">odp/api/spec/std_types.h</text>
</a>
</g>
</g>
<!-- Node1&#45;&gt;Node3 -->
<g id="edge3" class="edge">
<title>Node1&#45;&gt;Node3</title>
<path fill="none" stroke="#191970" d="M199,-224.2455C199,-216.9382 199,-206.6944 199,-197.7046"/>
<polygon fill="#191970" stroke="#191970" points="202.5001,-197.6426 199,-187.6427 195.5001,-197.6427 202.5001,-197.6426"/>
</g>
<!-- Node4 -->
<g id="node5" class="node">
<title>Node4</title>
<polygon fill="#ffffff" stroke="#bfbfbf" points="124.5,-.5 124.5,-19.5 231.5,-19.5 231.5,-.5 124.5,-.5"/>
<text text-anchor="middle" x="178" y="-7.5" font-family="Helvetica,sans-Serif" font-size="10.00" fill="#000000">odp/visibility_begin.h</text>
</g>
<!-- Node3&#45;&gt;Node4 -->
<g id="edge4" class="edge">
<title>Node3&#45;&gt;Node4</title>
<path fill="none" stroke="#191970" d="M155.7682,-168.402C111.6194,-155.8524 46.468,-128.9247 24,-76 20.5265,-67.8179 18.6897,-63.1283 24,-56 35.2089,-40.9536 77.1396,-29.0213 114.4211,-21.0836"/>
<polygon fill="#191970" stroke="#191970" points="115.1915,-24.4984 124.2791,-19.0519 113.7785,-17.6425 115.1915,-24.4984"/>
</g>
<!-- Node5 -->
<g id="node6" class="node">
<title>Node5</title>
<polygon fill="#ffffff" stroke="#bfbfbf" points="91.5,-112.5 91.5,-131.5 140.5,-131.5 140.5,-112.5 91.5,-112.5"/>
<text text-anchor="middle" x="116" y="-119.5" font-family="Helvetica,sans-Serif" font-size="10.00" fill="#000000">stdint.h</text>
</g>
<!-- Node3&#45;&gt;Node5 -->
<g id="edge5" class="edge">
<title>Node3&#45;&gt;Node5</title>
<path fill="none" stroke="#191970" d="M184.5425,-168.2455C171.9268,-159.7337 153.4056,-147.2375 138.7955,-137.3801"/>
<polygon fill="#191970" stroke="#191970" points="140.5391,-134.3343 130.2918,-131.6427 136.6239,-140.1371 140.5391,-134.3343"/>
</g>
<!-- Node6 -->
<g id="node7" class="node">
<title>Node6</title>
<g id="a_node7"><a xlink:href="align_8h.html" target="_top" xlink:title="ODP alignments. ">
<polygon fill="#ffffff" stroke="#000000" points="159,-112.5 159,-131.5 239,-131.5 239,-112.5 159,-112.5"/>
<text text-anchor="middle" x="199" y="-119.5" font-family="Helvetica,sans-Serif" font-size="10.00" fill="#000000">odp/api/align.h</text>
</a>
</g>
</g>
<!-- Node3&#45;&gt;Node6 -->
<g id="edge6" class="edge">
<title>Node3&#45;&gt;Node6</title>
<path fill="none" stroke="#191970" d="M199,-168.2455C199,-160.9382 199,-150.6944 199,-141.7046"/>
<polygon fill="#191970" stroke="#191970" points="202.5001,-141.6426 199,-131.6427 195.5001,-141.6427 202.5001,-141.6426"/>
</g>
<!-- Node9 -->
<g id="node10" class="node">
<title>Node9</title>
<polygon fill="#ffffff" stroke="#bfbfbf" points="250,-.5 250,-19.5 350,-19.5 350,-.5 250,-.5"/>
<text text-anchor="middle" x="300" y="-7.5" font-family="Helvetica,sans-Serif" font-size="10.00" fill="#000000">odp/visibility_end.h</text>
</g>
<!-- Node3&#45;&gt;Node9 -->
<g id="edge11" class="edge">
<title>Node3&#45;&gt;Node9</title>
<path fill="none" stroke="#191970" d="M212.0892,-168.2502C222.8747,-159.6734 237.9744,-146.3463 248,-132 270.9772,-99.1204 286.7636,-54.4899 294.505,-29.3303"/>
<polygon fill="#191970" stroke="#191970" points="297.9203,-30.1237 297.4104,-19.5411 291.2097,-28.1319 297.9203,-30.1237"/>
</g>
<!-- Node7 -->
<g id="node8" class="node">
<title>Node7</title>
<polygon fill="#ffffff" stroke="#bfbfbf" points="33.5,-56.5 33.5,-75.5 128.5,-75.5 128.5,-56.5 33.5,-56.5"/>
<text text-anchor="middle" x="81" y="-63.5" font-family="Helvetica,sans-Serif" font-size="10.00" fill="#000000">odp/api/abi/align.h</text>
</g>
<!-- Node6&#45;&gt;Node7 -->
<g id="edge7" class="edge">
<title>Node6&#45;&gt;Node7</title>
<path fill="none" stroke="#191970" d="M178.7151,-112.3733C159.8579,-103.4241 131.554,-89.9917 110.2545,-79.8835"/>
<polygon fill="#191970" stroke="#191970" points="111.5551,-76.6266 101.0202,-75.5011 108.5539,-82.9506 111.5551,-76.6266"/>
</g>
<!-- Node8 -->
<g id="node9" class="node">
<title>Node8</title>
<g id="a_node9"><a xlink:href="spec_2align_8h.html" target="_top" xlink:title="ODP alignments. ">
<polygon fill="#ffffff" stroke="#000000" points="147,-56.5 147,-75.5 251,-75.5 251,-56.5 147,-56.5"/>
<text text-anchor="middle" x="199" y="-63.5" font-family="Helvetica,sans-Serif" font-size="10.00" fill="#000000">odp/api/spec/align.h</text>
</a>
</g>
</g>
<!-- Node6&#45;&gt;Node8 -->
<g id="edge8" class="edge">
<title>Node6&#45;&gt;Node8</title>
<path fill="none" stroke="#191970" d="M199,-112.2455C199,-104.9382 199,-94.6944 199,-85.7046"/>
<polygon fill="#191970" stroke="#191970" points="202.5001,-85.6426 199,-75.6427 195.5001,-85.6427 202.5001,-85.6426"/>
</g>
<!-- Node8&#45;&gt;Node4 -->
<g id="edge9" class="edge">
<title>Node8&#45;&gt;Node4</title>
<path fill="none" stroke="#191970" d="M195.3421,-56.2455C192.5416,-48.7776 188.591,-38.2427 185.1676,-29.1137"/>
<polygon fill="#191970" stroke="#191970" points="188.4045,-27.777 181.616,-19.6427 181.8501,-30.2349 188.4045,-27.777"/>
</g>
<!-- Node8&#45;&gt;Node9 -->
<g id="edge10" class="edge">
<title>Node8&#45;&gt;Node9</title>
<path fill="none" stroke="#191970" d="M216.5929,-56.2455C232.379,-47.4928 255.7639,-34.527 273.7587,-24.5496"/>
<polygon fill="#191970" stroke="#191970" points="275.5603,-27.5528 282.6087,-19.6427 272.1659,-21.4308 275.5603,-27.5528"/>
</g>
<!-- Node11&#45;&gt;Node4 -->
<g id="edge14" class="edge">
<title>Node11&#45;&gt;Node4</title>
<path fill="none" stroke="#191970" d="M327.0569,-56.3733C296.9961,-47.021 251.1974,-32.7725 218.3022,-22.5385"/>
<polygon fill="#191970" stroke="#191970" points="219.1277,-19.1299 208.5393,-19.5011 217.0481,-25.8139 219.1277,-19.1299"/>
</g>
<!-- Node11&#45;&gt;Node9 -->
<g id="edge15" class="edge">
<title>Node11&#45;&gt;Node9</title>
<path fill="none" stroke="#191970" d="M347.8972,-56.2455C339.4972,-48.1352 327.3506,-36.4075 317.3916,-26.7919"/>
<polygon fill="#191970" stroke="#191970" points="319.6122,-24.0707 309.9871,-19.6427 314.75,-29.1066 319.6122,-24.0707"/>
</g>
</g>
</svg>
