<?xml version="1.0" encoding="UTF-8" standalone="no"?>
<!DOCTYPE svg PUBLIC "-//W3C//DTD SVG 1.1//EN"
 "http://www.w3.org/Graphics/SVG/1.1/DTD/svg11.dtd">
<!-- Generated by graphviz version 2.40.1 (20161225.0304)
 -->
<!-- Title: version.h Pages: 1 -->
<svg width="302pt" height="140pt"
 viewBox="0.00 0.00 301.50 140.00" xmlns="http://www.w3.org/2000/svg" xmlns:xlink="http://www.w3.org/1999/xlink">
<g id="graph0" class="graph" transform="scale(1 1) rotate(0) translate(4 136)">
<title>version.h</title>
<polygon fill="#ffffff" stroke="transparent" points="-4,4 -4,-136 297.5,-136 297.5,4 -4,4"/>
<!-- Node0 -->
<g id="node1" class="node">
<title>Node0</title>
<polygon fill="#bfbfbf" stroke="#000000" points="89.5,-112.5 89.5,-131.5 145.5,-131.5 145.5,-112.5 89.5,-112.5"/>
<text text-anchor="middle" x="117.5" y="-119.5" font-family="Helvetica,sans-Serif" font-size="10.00" fill="#000000">version.h</text>
</g>
<!-- Node1 -->
<g id="node2" class="node">
<title>Node1</title>
<polygon fill="#ffffff" stroke="#bfbfbf" points="0,-56.5 0,-75.5 107,-75.5 107,-56.5 0,-56.5"/>
<text text-anchor="middle" x="53.5" y="-63.5" font-family="Helvetica,sans-Serif" font-size="10.00" fill="#000000">odp/api/abi/version.h</text>
</g>
<!-- Node0&#45;&gt;Node1 -->
<g id="edge1" class="edge">
<title>Node0&#45;&gt;Node1</title>
<path fill="none" stroke="#191970" d="M106.3521,-112.2455C96.9913,-104.0549 83.4142,-92.1749 72.3651,-82.5069"/>
<polygon fill="#191970" stroke="#191970" points="74.3508,-79.5937 64.5202,-75.6427 69.7412,-84.8618 74.3508,-79.5937"/>
</g>
<!-- Node2 -->
<g id="node3" class="node">
<title>Node2</title>
<g id="a_node3"><a xlink:href="spec_2version_8h.html" target="_top" xlink:title="ODP version. ">
<polygon fill="#ffffff" stroke="#000000" points="125,-56.5 125,-75.5 240,-75.5 240,-56.5 125,-56.5"/>
<text text-anchor="middle" x="182.5" y="-63.5" font-family="Helvetica,sans-Serif" font-size="10.00" fill="#000000">odp/api/spec/version.h</text>
</a>
</g>
</g>
<!-- Node0&#45;&gt;Node2 -->
<g id="edge2" class="edge">
<title>Node0&#45;&gt;Node2</title>
<path fill="none" stroke="#191970" d="M128.8221,-112.2455C138.4223,-103.9746 152.3892,-91.9416 163.6695,-82.2232"/>
<polygon fill="#191970" stroke="#191970" points="166.016,-84.8214 171.3076,-75.6427 161.447,-79.5182 166.016,-84.8214"/>
</g>
<!-- Node3 -->
<g id="node4" class="node">
<title>Node3</title>
<polygon fill="#ffffff" stroke="#bfbfbf" points="68,-.5 68,-19.5 175,-19.5 175,-.5 68,-.5"/>
<text text-anchor="middle" x="121.5" y="-7.5" font-family="Helvetica,sans-Serif" font-size="10.00" fill="#000000">odp/visibility_begin.h</text>
</g>
<!-- Node2&#45;&gt;Node3 -->
<g id="edge3" class="edge">
<title>Node2&#45;&gt;Node3</title>
<path fill="none" stroke="#191970" d="M171.8746,-56.2455C162.9527,-48.0549 150.012,-36.1749 139.4808,-26.5069"/>
<polygon fill="#191970" stroke="#191970" points="141.7371,-23.8271 132.0036,-19.6427 137.0032,-28.9837 141.7371,-23.8271"/>
</g>
<!-- Node4 -->
<g id="node5" class="node">
<title>Node4</title>
<polygon fill="#ffffff" stroke="#bfbfbf" points="193.5,-.5 193.5,-19.5 293.5,-19.5 293.5,-.5 193.5,-.5"/>
<text text-anchor="middle" x="243.5" y="-7.5" font-family="Helvetica,sans-Serif" font-size="10.00" fill="#000000">odp/visibility_end.h</text>
</g>
<!-- Node2&#45;&gt;Node4 -->
<g id="edge4" class="edge">
<title>Node2&#45;&gt;Node4</title>
<path fill="none" stroke="#191970" d="M193.1254,-56.2455C202.0473,-48.0549 214.988,-36.1749 225.5192,-26.5069"/>
<polygon fill="#191970" stroke="#191970" points="227.9968,-28.9837 232.9964,-19.6427 223.2629,-23.8271 227.9968,-28.9837"/>
</g>
</g>
</svg>
