<?xml version="1.0" encoding="UTF-8" standalone="no"?>
<!DOCTYPE svg PUBLIC "-//W3C//DTD SVG 1.1//EN"
 "http://www.w3.org/Graphics/SVG/1.1/DTD/svg11.dtd">
<!-- Generated by graphviz version 2.40.1 (20161225.0304)
 -->
<!-- Title: chksum.h Pages: 1 -->
<svg width="138pt" height="140pt"
 viewBox="0.00 0.00 137.50 140.00" xmlns="http://www.w3.org/2000/svg" xmlns:xlink="http://www.w3.org/1999/xlink">
<g id="graph0" class="graph" transform="scale(1 1) rotate(0) translate(4 136)">
<title>chksum.h</title>
<polygon fill="#ffffff" stroke="transparent" points="-4,4 -4,-136 133.5,-136 133.5,4 -4,4"/>
<!-- Node2 -->
<g id="node1" class="node">
<title>Node2</title>
<polygon fill="#bfbfbf" stroke="#000000" points="30.5,-112.5 30.5,-131.5 89.5,-131.5 89.5,-112.5 30.5,-112.5"/>
<text text-anchor="middle" x="60" y="-119.5" font-family="Helvetica,sans-Serif" font-size="10.00" fill="#000000">chksum.h</text>
</g>
<!-- Node3 -->
<g id="node2" class="node">
<title>Node3</title>
<g id="a_node2"><a xlink:href="ip_8h.html" target="_top" xlink:title="ODP IP header. ">
<polygon fill="#ffffff" stroke="#000000" points="0,-56.5 0,-75.5 32,-75.5 32,-56.5 0,-56.5"/>
<text text-anchor="middle" x="16" y="-63.5" font-family="Helvetica,sans-Serif" font-size="10.00" fill="#000000">ip.h</text>
</a>
</g>
</g>
<!-- Node2&#45;&gt;Node3 -->
<g id="edge1" class="edge">
<title>Node2&#45;&gt;Node3</title>
<path fill="none" stroke="#191970" d="M46.0231,-104.2112C38.5871,-94.7472 29.734,-83.4797 23.5764,-75.6427"/>
<polygon fill="#191970" stroke="#191970" points="43.4054,-106.5447 52.3358,-112.2455 48.9097,-102.22 43.4054,-106.5447"/>
</g>
<!-- Node4 -->
<g id="node3" class="node">
<title>Node4</title>
<g id="a_node3"><a xlink:href="odph__api_8h.html" target="_top" xlink:title="The OpenDataPlane helper API. ">
<polygon fill="#ffffff" stroke="#000000" points="28,-.5 28,-19.5 92,-19.5 92,-.5 28,-.5"/>
<text text-anchor="middle" x="60" y="-7.5" font-family="Helvetica,sans-Serif" font-size="10.00" fill="#000000">odph_api.h</text>
</a>
</g>
</g>
<!-- Node2&#45;&gt;Node4 -->
<g id="edge3" class="edge">
<title>Node2&#45;&gt;Node4</title>
<path fill="none" stroke="#191970" d="M60,-102.2702C60,-77.9985 60,-37.7725 60,-19.5249"/>
<polygon fill="#191970" stroke="#191970" points="56.5001,-102.4509 60,-112.4509 63.5001,-102.451 56.5001,-102.4509"/>
</g>
<!-- Node5 -->
<g id="node4" class="node">
<title>Node5</title>
<g id="a_node4"><a xlink:href="udp_8h.html" target="_top" xlink:title="ODP UDP header. ">
<polygon fill="#ffffff" stroke="#000000" points="88.5,-56.5 88.5,-75.5 129.5,-75.5 129.5,-56.5 88.5,-56.5"/>
<text text-anchor="middle" x="109" y="-63.5" font-family="Helvetica,sans-Serif" font-size="10.00" fill="#000000">udp.h</text>
</a>
</g>
</g>
<!-- Node2&#45;&gt;Node5 -->
<g id="edge4" class="edge">
<title>Node2&#45;&gt;Node5</title>
<path fill="none" stroke="#191970" d="M75.3122,-104.5004C83.6447,-94.9775 93.6353,-83.5596 100.5627,-75.6427"/>
<polygon fill="#191970" stroke="#191970" points="72.4862,-102.415 68.5351,-112.2455 77.7543,-107.0245 72.4862,-102.415"/>
</g>
<!-- Node3&#45;&gt;Node4 -->
<g id="edge2" class="edge">
<title>Node3&#45;&gt;Node4</title>
<path fill="none" stroke="#191970" d="M29.9769,-48.2112C37.4129,-38.7472 46.266,-27.4797 52.4236,-19.6427"/>
<polygon fill="#191970" stroke="#191970" points="27.0903,-46.22 23.6642,-56.2455 32.5946,-50.5447 27.0903,-46.22"/>
</g>
<!-- Node5&#45;&gt;Node4 -->
<g id="edge5" class="edge">
<title>Node5&#45;&gt;Node4</title>
<path fill="none" stroke="#191970" d="M93.6878,-48.5004C85.3553,-38.9775 75.3647,-27.5596 68.4373,-19.6427"/>
<polygon fill="#191970" stroke="#191970" points="91.2457,-51.0245 100.4649,-56.2455 96.5138,-46.415 91.2457,-51.0245"/>
</g>
</g>
</svg>
