<?xml version="1.0" encoding="UTF-8" standalone="no"?>
<!DOCTYPE svg PUBLIC "-//W3C//DTD SVG 1.1//EN"
 "http://www.w3.org/Graphics/SVG/1.1/DTD/svg11.dtd">
<!-- Generated by graphviz version 2.40.1 (20161225.0304)
 -->
<!-- Title: odph_ipv4_udp_chksum Pages: 1 -->
<svg width="291pt" height="66pt"
 viewBox="0.00 0.00 291.00 66.00" xmlns="http://www.w3.org/2000/svg" xmlns:xlink="http://www.w3.org/1999/xlink">
<g id="graph0" class="graph" transform="scale(1 1) rotate(0) translate(4 62)">
<title>odph_ipv4_udp_chksum</title>
<polygon fill="#ffffff" stroke="transparent" points="-4,4 -4,-62 287,-62 287,4 -4,4"/>
<!-- Node17 -->
<g id="node1" class="node">
<title>Node17</title>
<polygon fill="#bfbfbf" stroke="#000000" points="0,-19.5 0,-38.5 122,-38.5 122,-19.5 0,-19.5"/>
<text text-anchor="middle" x="61" y="-26.5" font-family="Helvetica,sans-Serif" font-size="10.00" fill="#000000">odph_ipv4_udp_chksum</text>
</g>
<!-- Node18 -->
<g id="node2" class="node">
<title>Node18</title>
<g id="a_node2"><a xlink:href="group__odph__header.html#ga4823ba6bb3e3ceed03846da7a064de2c" target="_top" xlink:title="ODP_STATIC_ASSERT">
<polygon fill="#ffffff" stroke="#000000" points="158,-38.5 158,-57.5 283,-57.5 283,-38.5 158,-38.5"/>
<text text-anchor="middle" x="220.5" y="-45.5" font-family="Helvetica,sans-Serif" font-size="10.00" fill="#000000">ODP_STATIC_ASSERT</text>
</a>
</g>
</g>
<!-- Node17&#45;&gt;Node18 -->
<g id="edge1" class="edge">
<title>Node17&#45;&gt;Node18</title>
<path fill="none" stroke="#191970" d="M122.2107,-36.2916C130.6087,-37.2919 139.2971,-38.3269 147.8747,-39.3487"/>
<polygon fill="#191970" stroke="#191970" points="147.5253,-42.8317 157.8691,-40.5393 148.3534,-35.8809 147.5253,-42.8317"/>
</g>
<!-- Node19 -->
<g id="node3" class="node">
<title>Node19</title>
<g id="a_node3"><a xlink:href="group__odph__chksum.html#gac208183f2a33d5c60ecc2d12bb02351a" target="_top" xlink:title="General Purpose TCP/UDP checksum function. ">
<polygon fill="#ffffff" stroke="#000000" points="162,-.5 162,-19.5 279,-19.5 279,-.5 162,-.5"/>
<text text-anchor="middle" x="220.5" y="-7.5" font-family="Helvetica,sans-Serif" font-size="10.00" fill="#000000">odph_udp_tcp_chksum</text>
</a>
</g>
</g>
<!-- Node17&#45;&gt;Node19 -->
<g id="edge2" class="edge">
<title>Node17&#45;&gt;Node19</title>
<path fill="none" stroke="#191970" d="M122.2107,-21.7084C131.8606,-20.5589 141.8939,-19.3637 151.7019,-18.1954"/>
<polygon fill="#191970" stroke="#191970" points="152.3001,-21.649 161.8159,-16.9906 151.472,-14.6981 152.3001,-21.649"/>
</g>
</g>
</svg>
