<?xml version="1.0" encoding="UTF-8" standalone="no"?>
<!DOCTYPE svg PUBLIC "-//W3C//DTD SVG 1.1//EN"
 "http://www.w3.org/Graphics/SVG/1.1/DTD/svg11.dtd">
<!-- Generated by graphviz version 2.40.1 (20161225.0304)
 -->
<!-- Title: odph_udp_chksum_verify Pages: 1 -->
<svg width="303pt" height="104pt"
 viewBox="0.00 0.00 303.00 104.00" xmlns="http://www.w3.org/2000/svg" xmlns:xlink="http://www.w3.org/1999/xlink">
<g id="graph0" class="graph" transform="scale(1 1) rotate(0) translate(4 100)">
<title>odph_udp_chksum_verify</title>
<polygon fill="#ffffff" stroke="transparent" points="-4,4 -4,-100 299,-100 299,4 -4,4"/>
<!-- Node7 -->
<g id="node1" class="node">
<title>Node7</title>
<polygon fill="#bfbfbf" stroke="#000000" points="0,-38.5 0,-57.5 128,-57.5 128,-38.5 0,-38.5"/>
<text text-anchor="middle" x="64" y="-45.5" font-family="Helvetica,sans-Serif" font-size="10.00" fill="#000000">odph_udp_chksum_verify</text>
</g>
<!-- Node8 -->
<g id="node2" class="node">
<title>Node8</title>
<g id="a_node2"><a xlink:href="group__odph__chksum.html#ga7025c175c6cdb18013aa4499877d0af8" target="_top" xlink:title="Generate SCTP checksum. ">
<polygon fill="#ffffff" stroke="#000000" points="169.5,-76.5 169.5,-95.5 289.5,-95.5 289.5,-76.5 169.5,-76.5"/>
<text text-anchor="middle" x="229.5" y="-83.5" font-family="Helvetica,sans-Serif" font-size="10.00" fill="#000000">odph_sctp_chksum_set</text>
</a>
</g>
</g>
<!-- Node7&#45;&gt;Node8 -->
<g id="edge1" class="edge">
<title>Node7&#45;&gt;Node8</title>
<path fill="none" stroke="#191970" d="M105.7626,-57.589C127.7005,-62.6261 154.7803,-68.8438 178.008,-74.1771"/>
<polygon fill="#191970" stroke="#191970" points="177.508,-77.6533 188.0377,-76.4799 179.0746,-70.8308 177.508,-77.6533"/>
</g>
<!-- Node9 -->
<g id="node3" class="node">
<title>Node9</title>
<g id="a_node3"><a xlink:href="group__odph__chksum.html#gac8538fd751fa9df8ac73539fd6a6638d" target="_top" xlink:title="Verify SCTP checksum. ">
<polygon fill="#ffffff" stroke="#000000" points="164,-38.5 164,-57.5 295,-57.5 295,-38.5 164,-38.5"/>
<text text-anchor="middle" x="229.5" y="-45.5" font-family="Helvetica,sans-Serif" font-size="10.00" fill="#000000">odph_sctp_chksum_verify</text>
</a>
</g>
</g>
<!-- Node7&#45;&gt;Node9 -->
<g id="edge2" class="edge">
<title>Node7&#45;&gt;Node9</title>
<path fill="none" stroke="#191970" d="M128.4605,-48C136.7198,-48 145.2349,-48 153.6541,-48"/>
<polygon fill="#191970" stroke="#191970" points="153.8523,-51.5001 163.8523,-48 153.8523,-44.5001 153.8523,-51.5001"/>
</g>
<!-- Node10 -->
<g id="node4" class="node">
<title>Node10</title>
<g id="a_node4"><a xlink:href="group__odph__chksum.html#gac208183f2a33d5c60ecc2d12bb02351a" target="_top" xlink:title="General Purpose TCP/UDP checksum function. ">
<polygon fill="#ffffff" stroke="#000000" points="171,-.5 171,-19.5 288,-19.5 288,-.5 171,-.5"/>
<text text-anchor="middle" x="229.5" y="-7.5" font-family="Helvetica,sans-Serif" font-size="10.00" fill="#000000">odph_udp_tcp_chksum</text>
</a>
</g>
</g>
<!-- Node7&#45;&gt;Node10 -->
<g id="edge3" class="edge">
<title>Node7&#45;&gt;Node10</title>
<path fill="none" stroke="#191970" d="M105.7626,-38.411C127.7005,-33.3739 154.7803,-27.1562 178.008,-21.8229"/>
<polygon fill="#191970" stroke="#191970" points="179.0746,-25.1692 188.0377,-19.5201 177.508,-18.3467 179.0746,-25.1692"/>
</g>
</g>
</svg>
