<?xml version="1.0" encoding="UTF-8" standalone="no"?>
<!DOCTYPE svg PUBLIC "-//W3C//DTD SVG 1.1//EN"
 "http://www.w3.org/Graphics/SVG/1.1/DTD/svg11.dtd">
<!-- Generated by graphviz version 2.40.1 (20161225.0304)
 -->
<!-- Title: ip.h Pages: 1 -->
<svg width="199pt" height="140pt"
 viewBox="0.00 0.00 199.00 140.00" xmlns="http://www.w3.org/2000/svg" xmlns:xlink="http://www.w3.org/1999/xlink">
<g id="graph0" class="graph" transform="scale(1 1) rotate(0) translate(4 136)">
<title>ip.h</title>
<polygon fill="#ffffff" stroke="transparent" points="-4,4 -4,-136 195,-136 195,4 -4,4"/>
<!-- Node0 -->
<g id="node1" class="node">
<title>Node0</title>
<polygon fill="#bfbfbf" stroke="#000000" points="54.5,-112.5 54.5,-131.5 86.5,-131.5 86.5,-112.5 54.5,-112.5"/>
<text text-anchor="middle" x="70.5" y="-119.5" font-family="Helvetica,sans-Serif" font-size="10.00" fill="#000000">ip.h</text>
</g>
<!-- Node1 -->
<g id="node2" class="node">
<title>Node1</title>
<polygon fill="#ffffff" stroke="#bfbfbf" points="0,-.5 0,-19.5 59,-19.5 59,-.5 0,-.5"/>
<text text-anchor="middle" x="29.5" y="-7.5" font-family="Helvetica,sans-Serif" font-size="10.00" fill="#000000">odp_api.h</text>
</g>
<!-- Node0&#45;&gt;Node1 -->
<g id="edge1" class="edge">
<title>Node0&#45;&gt;Node1</title>
<path fill="none" stroke="#191970" d="M54.384,-115.2542C39.4055,-108.0052 18.0195,-94.9164 8.5,-76 .7704,-60.6404 8.2288,-41.8466 16.3192,-28.2478"/>
<polygon fill="#191970" stroke="#191970" points="19.3166,-30.0587 21.8423,-19.7693 13.4513,-26.2379 19.3166,-30.0587"/>
</g>
<!-- Node2 -->
<g id="node3" class="node">
<title>Node2</title>
<g id="a_node3"><a xlink:href="chksum_8h.html" target="_top" xlink:title="ODP checksum helper. ">
<polygon fill="#ffffff" stroke="#000000" points="17,-56.5 17,-75.5 124,-75.5 124,-56.5 17,-56.5"/>
<text text-anchor="middle" x="70.5" y="-63.5" font-family="Helvetica,sans-Serif" font-size="10.00" fill="#000000">odp/helper/chksum.h</text>
</a>
</g>
</g>
<!-- Node0&#45;&gt;Node2 -->
<g id="edge2" class="edge">
<title>Node0&#45;&gt;Node2</title>
<path fill="none" stroke="#191970" d="M70.5,-112.2455C70.5,-104.9382 70.5,-94.6944 70.5,-85.7046"/>
<polygon fill="#191970" stroke="#191970" points="74.0001,-85.6426 70.5,-75.6427 67.0001,-85.6427 74.0001,-85.6426"/>
</g>
<!-- Node3 -->
<g id="node4" class="node">
<title>Node3</title>
<polygon fill="#ffffff" stroke="#bfbfbf" points="142,-56.5 142,-75.5 191,-75.5 191,-56.5 142,-56.5"/>
<text text-anchor="middle" x="166.5" y="-63.5" font-family="Helvetica,sans-Serif" font-size="10.00" fill="#000000">string.h</text>
</g>
<!-- Node0&#45;&gt;Node3 -->
<g id="edge4" class="edge">
<title>Node0&#45;&gt;Node3</title>
<path fill="none" stroke="#191970" d="M86.7851,-112.5004C101.68,-103.8117 123.9497,-90.821 141.1679,-80.777"/>
<polygon fill="#191970" stroke="#191970" points="143.2608,-83.6082 150.135,-75.5462 139.7337,-77.5618 143.2608,-83.6082"/>
</g>
<!-- Node2&#45;&gt;Node1 -->
<g id="edge3" class="edge">
<title>Node2&#45;&gt;Node1</title>
<path fill="none" stroke="#191970" d="M63.3583,-56.2455C57.6556,-48.4564 49.51,-37.3308 42.6375,-27.9439"/>
<polygon fill="#191970" stroke="#191970" points="45.2913,-25.6437 36.5598,-19.6427 39.6432,-29.7789 45.2913,-25.6437"/>
</g>
</g>
</svg>
