<?xml version="1.0" encoding="UTF-8" standalone="no"?>
<!DOCTYPE svg PUBLIC "-//W3C//DTD SVG 1.1//EN"
 "http://www.w3.org/Graphics/SVG/1.1/DTD/svg11.dtd">
<!-- Generated by graphviz version 2.40.1 (20161225.0304)
 -->
<!-- Title: linux.h Pages: 1 -->
<svg width="222pt" height="196pt"
 viewBox="0.00 0.00 221.50 196.00" xmlns="http://www.w3.org/2000/svg" xmlns:xlink="http://www.w3.org/1999/xlink">
<g id="graph0" class="graph" transform="scale(1 1) rotate(0) translate(4 192)">
<title>linux.h</title>
<polygon fill="#ffffff" stroke="transparent" points="-4,4 -4,-192 217.5,-192 217.5,4 -4,4"/>
<!-- Node0 -->
<g id="node1" class="node">
<title>Node0</title>
<polygon fill="#bfbfbf" stroke="#000000" points="39,-168.5 39,-187.5 84,-187.5 84,-168.5 39,-168.5"/>
<text text-anchor="middle" x="61.5" y="-175.5" font-family="Helvetica,sans-Serif" font-size="10.00" fill="#000000">linux.h</text>
</g>
<!-- Node1 -->
<g id="node2" class="node">
<title>Node1</title>
<g id="a_node2"><a xlink:href="process_8h.html" target="_top" xlink:title="ODP Linux helper for processes. ">
<polygon fill="#ffffff" stroke="#000000" points="43,-112.5 43,-131.5 174,-131.5 174,-112.5 43,-112.5"/>
<text text-anchor="middle" x="108.5" y="-119.5" font-family="Helvetica,sans-Serif" font-size="10.00" fill="#000000">odp/helper/linux/process.h</text>
</a>
</g>
</g>
<!-- Node0&#45;&gt;Node1 -->
<g id="edge1" class="edge">
<title>Node0&#45;&gt;Node1</title>
<path fill="none" stroke="#191970" d="M69.6868,-168.2455C76.3589,-160.2958 85.9479,-148.8706 93.9253,-139.3656"/>
<polygon fill="#191970" stroke="#191970" points="96.6592,-141.5525 100.407,-131.6427 91.2974,-137.0524 96.6592,-141.5525"/>
</g>
<!-- Node3 -->
<g id="node4" class="node">
<title>Node3</title>
<g id="a_node4"><a xlink:href="pthread_8h.html" target="_top" xlink:title="ODP Linux helper for pthreads. ">
<polygon fill="#ffffff" stroke="#000000" points="0,-.5 0,-19.5 57,-19.5 57,-.5 0,-.5"/>
<text text-anchor="middle" x="28.5" y="-7.5" font-family="Helvetica,sans-Serif" font-size="10.00" fill="#000000">pthread.h</text>
</a>
</g>
</g>
<!-- Node0&#45;&gt;Node3 -->
<g id="edge7" class="edge">
<title>Node0&#45;&gt;Node3</title>
<path fill="none" stroke="#191970" d="M53.6932,-168.4745C46.956,-159.6278 37.6705,-145.7806 33.5,-132 23.0043,-97.3192 24.2953,-54.5612 26.3124,-29.9735"/>
<polygon fill="#191970" stroke="#191970" points="29.8209,-30.049 27.2814,-19.763 22.8522,-29.3876 29.8209,-30.049"/>
</g>
<!-- Node2 -->
<g id="node3" class="node">
<title>Node2</title>
<g id="a_node3"><a xlink:href="threads_8h.html" target="_top" xlink:title="ODP Linux helper API. ">
<polygon fill="#ffffff" stroke="#000000" points="49,-56.5 49,-75.5 154,-75.5 154,-56.5 49,-56.5"/>
<text text-anchor="middle" x="101.5" y="-63.5" font-family="Helvetica,sans-Serif" font-size="10.00" fill="#000000">odp/helper/threads.h</text>
</a>
</g>
</g>
<!-- Node1&#45;&gt;Node2 -->
<g id="edge2" class="edge">
<title>Node1&#45;&gt;Node2</title>
<path fill="none" stroke="#191970" d="M107.2807,-112.2455C106.3673,-104.9382 105.0868,-94.6944 103.9631,-85.7046"/>
<polygon fill="#191970" stroke="#191970" points="107.4187,-85.1313 102.7053,-75.6427 100.4728,-85.9996 107.4187,-85.1313"/>
</g>
<!-- Node2&#45;&gt;Node3 -->
<g id="edge3" class="edge">
<title>Node2&#45;&gt;Node3</title>
<path fill="none" stroke="#191970" d="M83.5175,-56.2455C71.1387,-47.9746 55.1456,-35.9416 43.4595,-26.2232"/>
<polygon fill="#191970" stroke="#191970" points="45.6845,-23.5203 35.8248,-19.6427 41.1144,-28.8226 45.6845,-23.5203"/>
</g>
<!-- Node4 -->
<g id="node5" class="node">
<title>Node4</title>
<polygon fill="#ffffff" stroke="#bfbfbf" points="75.5,-.5 75.5,-19.5 127.5,-19.5 127.5,-.5 75.5,-.5"/>
<text text-anchor="middle" x="101.5" y="-7.5" font-family="Helvetica,sans-Serif" font-size="10.00" fill="#000000">getopt.h</text>
</g>
<!-- Node2&#45;&gt;Node4 -->
<g id="edge5" class="edge">
<title>Node2&#45;&gt;Node4</title>
<path fill="none" stroke="#191970" d="M101.5,-56.2455C101.5,-48.9382 101.5,-38.6944 101.5,-29.7046"/>
<polygon fill="#191970" stroke="#191970" points="105.0001,-29.6426 101.5,-19.6427 98.0001,-29.6427 105.0001,-29.6426"/>
</g>
<!-- Node5 -->
<g id="node6" class="node">
<title>Node5</title>
<polygon fill="#ffffff" stroke="#bfbfbf" points="145.5,-.5 145.5,-19.5 213.5,-19.5 213.5,-.5 145.5,-.5"/>
<text text-anchor="middle" x="179.5" y="-7.5" font-family="Helvetica,sans-Serif" font-size="10.00" fill="#000000">sys/types.h</text>
</g>
<!-- Node2&#45;&gt;Node5 -->
<g id="edge6" class="edge">
<title>Node2&#45;&gt;Node5</title>
<path fill="none" stroke="#191970" d="M115.0866,-56.2455C126.8305,-47.814 144.0199,-35.4729 157.6882,-25.6598"/>
<polygon fill="#191970" stroke="#191970" points="159.9871,-28.3179 166.0691,-19.6427 155.9046,-22.6316 159.9871,-28.3179"/>
</g>
<!-- Node3&#45;&gt;Node2 -->
<g id="edge4" class="edge">
<title>Node3&#45;&gt;Node2</title>
<path fill="none" stroke="#191970" d="M46.3151,-19.6427C58.6611,-27.8795 74.6572,-39.9058 86.3819,-49.645"/>
<polygon fill="#191970" stroke="#191970" points="84.1886,-52.3751 94.0512,-56.2455 88.7549,-47.0695 84.1886,-52.3751"/>
</g>
</g>
</svg>
