<?xml version="1.0" encoding="UTF-8" standalone="no"?>
<!DOCTYPE svg PUBLIC "-//W3C//DTD SVG 1.1//EN"
 "http://www.w3.org/Graphics/SVG/1.1/DTD/svg11.dtd">
<!-- Generated by graphviz version 2.40.1 (20161225.0304)
 -->
<!-- Title: odph_api.h Pages: 1 -->
<svg width="1981pt" height="196pt"
 viewBox="0.00 0.00 1981.00 196.00" xmlns="http://www.w3.org/2000/svg" xmlns:xlink="http://www.w3.org/1999/xlink">
<g id="graph0" class="graph" transform="scale(1 1) rotate(0) translate(4 192)">
<title>odph_api.h</title>
<polygon fill="#ffffff" stroke="transparent" points="-4,4 -4,-192 1977,-192 1977,4 -4,4"/>
<!-- Node0 -->
<g id="node1" class="node">
<title>Node0</title>
<polygon fill="#bfbfbf" stroke="#000000" points="1075,-168.5 1075,-187.5 1139,-187.5 1139,-168.5 1075,-168.5"/>
<text text-anchor="middle" x="1107" y="-175.5" font-family="Helvetica,sans-Serif" font-size="10.00" fill="#000000">odph_api.h</text>
</g>
<!-- Node1 -->
<g id="node2" class="node">
<title>Node1</title>
<g id="a_node2"><a xlink:href="odph__debug_8h.html" target="_top" xlink:title="Helper debug. ">
<polygon fill="#ffffff" stroke="#000000" points="103.5,-112.5 103.5,-131.5 228.5,-131.5 228.5,-112.5 103.5,-112.5"/>
<text text-anchor="middle" x="166" y="-119.5" font-family="Helvetica,sans-Serif" font-size="10.00" fill="#000000">odp/helper/odph_debug.h</text>
</a>
</g>
</g>
<!-- Node0&#45;&gt;Node1 -->
<g id="edge1" class="edge">
<title>Node0&#45;&gt;Node1</title>
<path fill="none" stroke="#191970" d="M1074.8896,-176.6319C963.9989,-171.8199 586.9111,-154.7304 276,-132 263.9722,-131.1207 251.2153,-130.0698 238.8135,-128.9849"/>
<polygon fill="#191970" stroke="#191970" points="238.7739,-125.4677 228.5033,-128.0685 238.1541,-132.4402 238.7739,-125.4677"/>
</g>
<!-- Node5 -->
<g id="node6" class="node">
<title>Node5</title>
<g id="a_node6"><a xlink:href="chksum_8h.html" target="_top" xlink:title="ODP checksum helper. ">
<polygon fill="#ffffff" stroke="#000000" points="1306.5,-56.5 1306.5,-75.5 1413.5,-75.5 1413.5,-56.5 1306.5,-56.5"/>
<text text-anchor="middle" x="1360" y="-63.5" font-family="Helvetica,sans-Serif" font-size="10.00" fill="#000000">odp/helper/chksum.h</text>
</a>
</g>
</g>
<!-- Node0&#45;&gt;Node5 -->
<g id="edge5" class="edge">
<title>Node0&#45;&gt;Node5</title>
<path fill="none" stroke="#191970" d="M1139.0605,-169.7176C1177.7016,-159.5214 1240.1654,-142.2952 1262,-132 1291.1219,-118.2688 1321.3737,-96.5644 1340.4221,-81.8259"/>
<polygon fill="#191970" stroke="#191970" points="1342.6445,-84.5309 1348.3414,-75.5981 1338.3173,-79.0285 1342.6445,-84.5309"/>
</g>
<!-- Node7 -->
<g id="node8" class="node">
<title>Node7</title>
<g id="a_node8"><a xlink:href="odph__cuckootable_8h.html" target="_top" xlink:title="ODP Cuckoo Hash Table. ">
<polygon fill="#ffffff" stroke="#000000" points="492,-112.5 492,-131.5 644,-131.5 644,-112.5 492,-112.5"/>
<text text-anchor="middle" x="568" y="-119.5" font-family="Helvetica,sans-Serif" font-size="10.00" fill="#000000">odp/helper/odph_cuckootable.h</text>
</a>
</g>
</g>
<!-- Node0&#45;&gt;Node7 -->
<g id="edge7" class="edge">
<title>Node0&#45;&gt;Node7</title>
<path fill="none" stroke="#191970" d="M1074.8679,-174.8034C1001.1569,-167.4496 814.2225,-148.6812 658,-132 656.725,-131.8639 655.4399,-131.7262 654.1466,-131.5874"/>
<polygon fill="#191970" stroke="#191970" points="654.4216,-128.0968 644.1035,-130.5023 653.6696,-135.0563 654.4216,-128.0968"/>
</g>
<!-- Node8 -->
<g id="node9" class="node">
<title>Node8</title>
<g id="a_node9"><a xlink:href="table_8h.html" target="_top" xlink:title="ODP table. ">
<polygon fill="#ffffff" stroke="#000000" points="618,-56.5 618,-75.5 712,-75.5 712,-56.5 618,-56.5"/>
<text text-anchor="middle" x="665" y="-63.5" font-family="Helvetica,sans-Serif" font-size="10.00" fill="#000000">odp/helper/table.h</text>
</a>
</g>
</g>
<!-- Node0&#45;&gt;Node8 -->
<g id="edge37" class="edge">
<title>Node0&#45;&gt;Node8</title>
<path fill="none" stroke="#191970" d="M1074.7975,-176.3406C982.4425,-171.3199 721.3395,-155.1999 691,-132 676.6725,-121.0441 670.2288,-101.0232 667.3376,-85.8948"/>
<polygon fill="#191970" stroke="#191970" points="670.7859,-85.2906 665.7983,-75.9432 663.8681,-86.3607 670.7859,-85.2906"/>
</g>
<!-- Node10 -->
<g id="node11" class="node">
<title>Node10</title>
<g id="a_node11"><a xlink:href="strong__types_8h.html" target="_top" xlink:title="ODP Strong Types. ">
<polygon fill="#ffffff" stroke="#000000" points="399.5,-.5 399.5,-19.5 528.5,-19.5 528.5,-.5 399.5,-.5"/>
<text text-anchor="middle" x="464" y="-7.5" font-family="Helvetica,sans-Serif" font-size="10.00" fill="#000000">odp/helper/strong_types.h</text>
</a>
</g>
</g>
<!-- Node0&#45;&gt;Node10 -->
<g id="edge34" class="edge">
<title>Node0&#45;&gt;Node10</title>
<path fill="none" stroke="#191970" d="M1074.9411,-177.3682C929.2781,-174.345 335.7326,-160.318 309,-132 265.7993,-86.2373 364.4946,-43.3085 423.6276,-22.7268"/>
<polygon fill="#191970" stroke="#191970" points="424.7658,-26.0367 433.1042,-19.5006 422.5098,-19.4102 424.7658,-26.0367"/>
</g>
<!-- Node11 -->
<g id="node12" class="node">
<title>Node11</title>
<g id="a_node12"><a xlink:href="eth_8h.html" target="_top" xlink:title="ODP ethernet header. ">
<polygon fill="#ffffff" stroke="#000000" points="768,-56.5 768,-75.5 854,-75.5 854,-56.5 768,-56.5"/>
<text text-anchor="middle" x="811" y="-63.5" font-family="Helvetica,sans-Serif" font-size="10.00" fill="#000000">odp/helper/eth.h</text>
</a>
</g>
</g>
<!-- Node0&#45;&gt;Node11 -->
<g id="edge11" class="edge">
<title>Node0&#45;&gt;Node11</title>
<path fill="none" stroke="#191970" d="M1094.3104,-168.3846C1072.4843,-152.0001 1028.497,-119.6918 1011,-112 997.5665,-106.0945 918.5944,-88.7393 864.0004,-77.1167"/>
<polygon fill="#191970" stroke="#191970" points="864.6204,-73.6704 854.1115,-75.0173 863.1666,-80.5178 864.6204,-73.6704"/>
</g>
<!-- Node12 -->
<g id="node13" class="node">
<title>Node12</title>
<g id="a_node13"><a xlink:href="gtp_8h.html" target="_top" xlink:title="ODP GTP header. ">
<polygon fill="#ffffff" stroke="#000000" points="872,-56.5 872,-75.5 958,-75.5 958,-56.5 872,-56.5"/>
<text text-anchor="middle" x="915" y="-63.5" font-family="Helvetica,sans-Serif" font-size="10.00" fill="#000000">odp/helper/gtp.h</text>
</a>
</g>
</g>
<!-- Node0&#45;&gt;Node12 -->
<g id="edge13" class="edge">
<title>Node0&#45;&gt;Node12</title>
<path fill="none" stroke="#191970" d="M1100.1166,-168.0933C1089.7211,-153.8143 1068.6956,-127.4694 1045,-112 1021.3736,-96.5758 991.9485,-85.604 967.0713,-78.2541"/>
<polygon fill="#191970" stroke="#191970" points="968.0048,-74.8809 957.429,-75.5167 966.093,-81.6147 968.0048,-74.8809"/>
</g>
<!-- Node13 -->
<g id="node14" class="node">
<title>Node13</title>
<g id="a_node14"><a xlink:href="odph__hashtable_8h.html" target="_top" xlink:title="ODP Hash Table. ">
<polygon fill="#ffffff" stroke="#000000" points="700.5,-112.5 700.5,-131.5 841.5,-131.5 841.5,-112.5 700.5,-112.5"/>
<text text-anchor="middle" x="771" y="-119.5" font-family="Helvetica,sans-Serif" font-size="10.00" fill="#000000">odp/helper/odph_hashtable.h</text>
</a>
</g>
</g>
<!-- Node0&#45;&gt;Node13 -->
<g id="edge15" class="edge">
<title>Node0&#45;&gt;Node13</title>
<path fill="none" stroke="#191970" d="M1074.7829,-172.6305C1020.615,-163.6025 910.1962,-145.1994 838.462,-133.2437"/>
<polygon fill="#191970" stroke="#191970" points="838.6097,-129.7201 828.1703,-131.5284 837.4588,-136.6248 838.6097,-129.7201"/>
</g>
<!-- Node14 -->
<g id="node15" class="node">
<title>Node14</title>
<g id="a_node15"><a xlink:href="icmp_8h.html" target="_top" xlink:title="ODP ICMP header. ">
<polygon fill="#ffffff" stroke="#000000" points="976,-56.5 976,-75.5 1070,-75.5 1070,-56.5 976,-56.5"/>
<text text-anchor="middle" x="1023" y="-63.5" font-family="Helvetica,sans-Serif" font-size="10.00" fill="#000000">odp/helper/icmp.h</text>
</a>
</g>
</g>
<!-- Node0&#45;&gt;Node14 -->
<g id="edge17" class="edge">
<title>Node0&#45;&gt;Node14</title>
<path fill="none" stroke="#191970" d="M1105.2479,-168.2266C1102.4237,-154.573 1095.8339,-129.5011 1083,-112 1073.9694,-99.6854 1060.7546,-89.063 1049.0239,-81.1383"/>
<polygon fill="#191970" stroke="#191970" points="1050.7416,-78.0818 1040.4366,-75.6207 1046.9576,-83.971 1050.7416,-78.0818"/>
</g>
<!-- Node15 -->
<g id="node16" class="node">
<title>Node15</title>
<g id="a_node16"><a xlink:href="igmp_8h.html" target="_top" xlink:title="ODP IGMP header. ">
<polygon fill="#ffffff" stroke="#000000" points="1088,-56.5 1088,-75.5 1182,-75.5 1182,-56.5 1088,-56.5"/>
<text text-anchor="middle" x="1135" y="-63.5" font-family="Helvetica,sans-Serif" font-size="10.00" fill="#000000">odp/helper/igmp.h</text>
</a>
</g>
</g>
<!-- Node0&#45;&gt;Node15 -->
<g id="edge19" class="edge">
<title>Node0&#45;&gt;Node15</title>
<path fill="none" stroke="#191970" d="M1110.252,-168.1991C1113.2622,-158.9335 1117.75,-144.6105 1121,-132 1124.9738,-116.5811 1128.6749,-98.9274 1131.2724,-85.7599"/>
<polygon fill="#191970" stroke="#191970" points="1134.7165,-86.3843 1133.1766,-75.9019 1127.8435,-85.0567 1134.7165,-86.3843"/>
</g>
<!-- Node16 -->
<g id="node17" class="node">
<title>Node16</title>
<g id="a_node17"><a xlink:href="ip_8h.html" target="_top" xlink:title="ODP IP header. ">
<polygon fill="#ffffff" stroke="#000000" points="1173,-112.5 1173,-131.5 1253,-131.5 1253,-112.5 1173,-112.5"/>
<text text-anchor="middle" x="1213" y="-119.5" font-family="Helvetica,sans-Serif" font-size="10.00" fill="#000000">odp/helper/ip.h</text>
</a>
</g>
</g>
<!-- Node0&#45;&gt;Node16 -->
<g id="edge21" class="edge">
<title>Node0&#45;&gt;Node16</title>
<path fill="none" stroke="#191970" d="M1125.4638,-168.2455C1142.1074,-159.4527 1166.7993,-146.4079 1185.7192,-136.4125"/>
<polygon fill="#191970" stroke="#191970" points="1187.5408,-139.4086 1194.7478,-131.6427 1184.2709,-133.2193 1187.5408,-139.4086"/>
</g>
<!-- Node18 -->
<g id="node19" class="node">
<title>Node18</title>
<g id="a_node19"><a xlink:href="ipsec_8h.html" target="_top" xlink:title="ODP IPSec headers. ">
<polygon fill="#ffffff" stroke="#000000" points="1417,-112.5 1417,-131.5 1513,-131.5 1513,-112.5 1417,-112.5"/>
<text text-anchor="middle" x="1465" y="-119.5" font-family="Helvetica,sans-Serif" font-size="10.00" fill="#000000">odp/helper/ipsec.h</text>
</a>
</g>
</g>
<!-- Node0&#45;&gt;Node18 -->
<g id="edge25" class="edge">
<title>Node0&#45;&gt;Node18</title>
<path fill="none" stroke="#191970" d="M1139.4386,-173.228C1194.4993,-165.0828 1309.7472,-147.8385 1407,-132 1407.1009,-131.9836 1407.2018,-131.9671 1407.3028,-131.9507"/>
<polygon fill="#191970" stroke="#191970" points="1407.6097,-135.4475 1416.9048,-130.3631 1406.4678,-128.5413 1407.6097,-135.4475"/>
</g>
<!-- Node19 -->
<g id="node20" class="node">
<title>Node19</title>
<g id="a_node20"><a xlink:href="odph__lineartable_8h.html" target="_top" xlink:title="ODP Linear Table. ">
<polygon fill="#ffffff" stroke="#000000" points="859.5,-112.5 859.5,-131.5 1002.5,-131.5 1002.5,-112.5 859.5,-112.5"/>
<text text-anchor="middle" x="931" y="-119.5" font-family="Helvetica,sans-Serif" font-size="10.00" fill="#000000">odp/helper/odph_lineartable.h</text>
</a>
</g>
</g>
<!-- Node0&#45;&gt;Node19 -->
<g id="edge27" class="edge">
<title>Node0&#45;&gt;Node19</title>
<path fill="none" stroke="#191970" d="M1076.7445,-168.3733C1047.3517,-159.021 1002.5708,-144.7725 970.4066,-134.5385"/>
<polygon fill="#191970" stroke="#191970" points="971.4512,-131.198 960.8607,-131.5011 969.3287,-137.8685 971.4512,-131.198"/>
</g>
<!-- Node20 -->
<g id="node21" class="node">
<title>Node20</title>
<g id="a_node21"><a xlink:href="odph__iplookuptable_8h.html" target="_top" xlink:title="ODP IP Lookup Table. ">
<polygon fill="#ffffff" stroke="#000000" points="318,-112.5 318,-131.5 474,-131.5 474,-112.5 318,-112.5"/>
<text text-anchor="middle" x="396" y="-119.5" font-family="Helvetica,sans-Serif" font-size="10.00" fill="#000000">odp/helper/odph_iplookuptable.h</text>
</a>
</g>
</g>
<!-- Node0&#45;&gt;Node20 -->
<g id="edge30" class="edge">
<title>Node0&#45;&gt;Node20</title>
<path fill="none" stroke="#191970" d="M1074.8116,-176.0929C983.862,-170.6054 717.0013,-153.8223 484.2466,-132.0854"/>
<polygon fill="#191970" stroke="#191970" points="484.5222,-128.596 474.2388,-131.1457 483.8678,-135.5653 484.5222,-128.596"/>
</g>
<!-- Node21 -->
<g id="node22" class="node">
<title>Node21</title>
<g id="a_node22"><a xlink:href="sctp_8h.html" target="_top" xlink:title="ODP SCTP header. ">
<polygon fill="#ffffff" stroke="#000000" points="1531,-112.5 1531,-131.5 1623,-131.5 1623,-112.5 1531,-112.5"/>
<text text-anchor="middle" x="1577" y="-119.5" font-family="Helvetica,sans-Serif" font-size="10.00" fill="#000000">odp/helper/sctp.h</text>
</a>
</g>
</g>
<!-- Node0&#45;&gt;Node21 -->
<g id="edge32" class="edge">
<title>Node0&#45;&gt;Node21</title>
<path fill="none" stroke="#191970" d="M1139.1192,-175.2063C1207.3918,-169.1038 1372.1761,-153.5045 1520.6196,-132.119"/>
<polygon fill="#191970" stroke="#191970" points="1521.4322,-135.5378 1530.8248,-130.6358 1520.4253,-128.6105 1521.4322,-135.5378"/>
</g>
<!-- Node22 -->
<g id="node23" class="node">
<title>Node22</title>
<g id="a_node23"><a xlink:href="tcp_8h.html" target="_top" xlink:title="ODP TCP header. ">
<polygon fill="#ffffff" stroke="#000000" points="1641,-112.5 1641,-131.5 1727,-131.5 1727,-112.5 1641,-112.5"/>
<text text-anchor="middle" x="1684" y="-119.5" font-family="Helvetica,sans-Serif" font-size="10.00" fill="#000000">odp/helper/tcp.h</text>
</a>
</g>
</g>
<!-- Node0&#45;&gt;Node22 -->
<g id="edge35" class="edge">
<title>Node0&#45;&gt;Node22</title>
<path fill="none" stroke="#191970" d="M1139.089,-176.3378C1219.9227,-171.9062 1438.5906,-158.4027 1630.9192,-132.0238"/>
<polygon fill="#191970" stroke="#191970" points="1631.502,-135.4766 1640.9265,-130.6362 1630.5405,-128.5429 1631.502,-135.4766"/>
</g>
<!-- Node23 -->
<g id="node24" class="node">
<title>Node23</title>
<g id="a_node24"><a xlink:href="threads_8h.html" target="_top" xlink:title="ODP Linux helper API. ">
<polygon fill="#ffffff" stroke="#000000" points="1745.5,-112.5 1745.5,-131.5 1850.5,-131.5 1850.5,-112.5 1745.5,-112.5"/>
<text text-anchor="middle" x="1798" y="-119.5" font-family="Helvetica,sans-Serif" font-size="10.00" fill="#000000">odp/helper/threads.h</text>
</a>
</g>
</g>
<!-- Node0&#45;&gt;Node23 -->
<g id="edge38" class="edge">
<title>Node0&#45;&gt;Node23</title>
<path fill="none" stroke="#191970" d="M1139.1683,-176.6364C1230.669,-172.5482 1500.3811,-159.0435 1735.1828,-131.997"/>
<polygon fill="#191970" stroke="#191970" points="1735.7495,-135.4548 1745.2783,-130.8232 1734.941,-128.5016 1735.7495,-135.4548"/>
</g>
<!-- Node27 -->
<g id="node28" class="node">
<title>Node27</title>
<g id="a_node28"><a xlink:href="udp_8h.html" target="_top" xlink:title="ODP UDP header. ">
<polygon fill="#ffffff" stroke="#000000" points="1309.5,-112.5 1309.5,-131.5 1398.5,-131.5 1398.5,-112.5 1309.5,-112.5"/>
<text text-anchor="middle" x="1354" y="-119.5" font-family="Helvetica,sans-Serif" font-size="10.00" fill="#000000">odp/helper/udp.h</text>
</a>
</g>
</g>
<!-- Node0&#45;&gt;Node27 -->
<g id="edge43" class="edge">
<title>Node0&#45;&gt;Node27</title>
<path fill="none" stroke="#191970" d="M1139.0377,-170.7364C1180.3137,-161.3783 1252.5999,-144.9895 1301.8478,-133.824"/>
<polygon fill="#191970" stroke="#191970" points="1302.7021,-137.2192 1311.6807,-131.5947 1301.1543,-130.3925 1302.7021,-137.2192"/>
</g>
<!-- Node28 -->
<g id="node29" class="node">
<title>Node28</title>
<g id="a_node29"><a xlink:href="version_8h.html" target="_top" xlink:title="ODP helper version. ">
<polygon fill="#ffffff" stroke="#000000" points="1869,-112.5 1869,-131.5 1973,-131.5 1973,-112.5 1869,-112.5"/>
<text text-anchor="middle" x="1921" y="-119.5" font-family="Helvetica,sans-Serif" font-size="10.00" fill="#000000">odp/helper/version.h</text>
</a>
</g>
</g>
<!-- Node0&#45;&gt;Node28 -->
<g id="edge46" class="edge">
<title>Node0&#45;&gt;Node28</title>
<path fill="none" stroke="#191970" d="M1139.3472,-177.1638C1243.8049,-174.2197 1581.4462,-162.7962 1859,-132 1859.1016,-131.9887 1859.2033,-131.9774 1859.305,-131.966"/>
<polygon fill="#191970" stroke="#191970" points="1859.4589,-135.4736 1868.9557,-130.7768 1858.6027,-128.5262 1859.4589,-135.4736"/>
</g>
<!-- Node2 -->
<g id="node3" class="node">
<title>Node2</title>
<polygon fill="#ffffff" stroke="#bfbfbf" points="66.5,-56.5 66.5,-75.5 197.5,-75.5 197.5,-56.5 66.5,-56.5"/>
<text text-anchor="middle" x="132" y="-63.5" font-family="Helvetica,sans-Serif" font-size="10.00" fill="#000000">odp/autoheader_external.h</text>
</g>
<!-- Node1&#45;&gt;Node2 -->
<g id="edge2" class="edge">
<title>Node1&#45;&gt;Node2</title>
<path fill="none" stroke="#191970" d="M160.0777,-112.2455C155.3973,-104.5367 148.7327,-93.5598 143.0711,-84.2348"/>
<polygon fill="#191970" stroke="#191970" points="146.0361,-82.3741 137.8545,-75.6427 140.0525,-86.007 146.0361,-82.3741"/>
</g>
<!-- Node3 -->
<g id="node4" class="node">
<title>Node3</title>
<polygon fill="#ffffff" stroke="#bfbfbf" points="216,-56.5 216,-75.5 262,-75.5 262,-56.5 216,-56.5"/>
<text text-anchor="middle" x="239" y="-63.5" font-family="Helvetica,sans-Serif" font-size="10.00" fill="#000000">stdio.h</text>
</g>
<!-- Node1&#45;&gt;Node3 -->
<g id="edge3" class="edge">
<title>Node1&#45;&gt;Node3</title>
<path fill="none" stroke="#191970" d="M178.7156,-112.2455C189.602,-103.8943 205.4883,-91.7076 218.22,-81.9408"/>
<polygon fill="#191970" stroke="#191970" points="220.6261,-84.5063 226.4301,-75.6427 216.3654,-78.9523 220.6261,-84.5063"/>
</g>
<!-- Node4 -->
<g id="node5" class="node">
<title>Node4</title>
<polygon fill="#ffffff" stroke="#bfbfbf" points="0,-56.5 0,-75.5 48,-75.5 48,-56.5 0,-56.5"/>
<text text-anchor="middle" x="24" y="-63.5" font-family="Helvetica,sans-Serif" font-size="10.00" fill="#000000">stdlib.h</text>
</g>
<!-- Node1&#45;&gt;Node4 -->
<g id="edge4" class="edge">
<title>Node1&#45;&gt;Node4</title>
<path fill="none" stroke="#191970" d="M141.5893,-112.3733C118.3858,-103.2226 83.2962,-89.3844 57.4858,-79.2057"/>
<polygon fill="#191970" stroke="#191970" points="58.6789,-75.9139 48.0921,-75.5011 56.1108,-82.4258 58.6789,-75.9139"/>
</g>
<!-- Node6 -->
<g id="node7" class="node">
<title>Node6</title>
<polygon fill="#ffffff" stroke="#bfbfbf" points="1289.5,-.5 1289.5,-19.5 1348.5,-19.5 1348.5,-.5 1289.5,-.5"/>
<text text-anchor="middle" x="1319" y="-7.5" font-family="Helvetica,sans-Serif" font-size="10.00" fill="#000000">odp_api.h</text>
</g>
<!-- Node5&#45;&gt;Node6 -->
<g id="edge6" class="edge">
<title>Node5&#45;&gt;Node6</title>
<path fill="none" stroke="#191970" d="M1352.8583,-56.2455C1347.1556,-48.4564 1339.01,-37.3308 1332.1375,-27.9439"/>
<polygon fill="#191970" stroke="#191970" points="1334.7913,-25.6437 1326.0598,-19.6427 1329.1432,-29.7789 1334.7913,-25.6437"/>
</g>
<!-- Node7&#45;&gt;Node8 -->
<g id="edge8" class="edge">
<title>Node7&#45;&gt;Node8</title>
<path fill="none" stroke="#191970" d="M584.8961,-112.2455C599.918,-103.5731 622.1043,-90.7645 639.321,-80.825"/>
<polygon fill="#191970" stroke="#191970" points="641.3871,-83.6737 648.2975,-75.6427 637.8872,-77.6114 641.3871,-83.6737"/>
</g>
<!-- Node9 -->
<g id="node10" class="node">
<title>Node9</title>
<polygon fill="#ffffff" stroke="#bfbfbf" points="677.5,-.5 677.5,-19.5 726.5,-19.5 726.5,-.5 677.5,-.5"/>
<text text-anchor="middle" x="702" y="-7.5" font-family="Helvetica,sans-Serif" font-size="10.00" fill="#000000">stdint.h</text>
</g>
<!-- Node8&#45;&gt;Node9 -->
<g id="edge9" class="edge">
<title>Node8&#45;&gt;Node9</title>
<path fill="none" stroke="#191970" d="M671.4449,-56.2455C676.5382,-48.5367 683.7908,-37.5598 689.952,-28.2348"/>
<polygon fill="#191970" stroke="#191970" points="693.0365,-29.9155 695.6289,-19.6427 687.1962,-26.0566 693.0365,-29.9155"/>
</g>
<!-- Node8&#45;&gt;Node10 -->
<g id="edge10" class="edge">
<title>Node8&#45;&gt;Node10</title>
<path fill="none" stroke="#191970" d="M630.4469,-56.3733C596.5896,-46.9404 544.854,-32.5265 508.0574,-22.2747"/>
<polygon fill="#191970" stroke="#191970" points="508.6747,-18.8135 498.1022,-19.5011 506.796,-25.5566 508.6747,-18.8135"/>
</g>
<!-- Node11&#45;&gt;Node6 -->
<g id="edge12" class="edge">
<title>Node11&#45;&gt;Node6</title>
<path fill="none" stroke="#191970" d="M854.0798,-57.4078C857.0935,-56.9015 860.0892,-56.4258 863,-56 1016.1438,-33.5961 1199.829,-18.6808 1279.2267,-12.8087"/>
<polygon fill="#191970" stroke="#191970" points="1279.5606,-16.2937 1289.2782,-12.0726 1279.0492,-9.3124 1279.5606,-16.2937"/>
</g>
<!-- Node12&#45;&gt;Node6 -->
<g id="edge14" class="edge">
<title>Node12&#45;&gt;Node6</title>
<path fill="none" stroke="#191970" d="M958.0949,-57.506C961.105,-56.9763 964.0957,-56.4686 967,-56 1079.677,-37.8201 1213.5372,-21.8707 1278.968,-14.4384"/>
<polygon fill="#191970" stroke="#191970" points="1279.7001,-17.8781 1289.2439,-13.2774 1278.9142,-10.9223 1279.7001,-17.8781"/>
</g>
<!-- Node13&#45;&gt;Node8 -->
<g id="edge16" class="edge">
<title>Node13&#45;&gt;Node8</title>
<path fill="none" stroke="#191970" d="M752.5362,-112.2455C735.8926,-103.4527 711.2007,-90.4079 692.2808,-80.4125"/>
<polygon fill="#191970" stroke="#191970" points="693.7291,-77.2193 683.2522,-75.6427 690.4592,-83.4086 693.7291,-77.2193"/>
</g>
<!-- Node14&#45;&gt;Node6 -->
<g id="edge18" class="edge">
<title>Node14&#45;&gt;Node6</title>
<path fill="none" stroke="#191970" d="M1070.2294,-57.0647C1128.1911,-46.099 1225.4227,-27.7038 1279.5678,-17.4601"/>
<polygon fill="#191970" stroke="#191970" points="1280.3026,-20.8833 1289.4776,-15.5853 1279.0013,-14.0053 1280.3026,-20.8833"/>
</g>
<!-- Node15&#45;&gt;Node6 -->
<g id="edge20" class="edge">
<title>Node15&#45;&gt;Node6</title>
<path fill="none" stroke="#191970" d="M1166.6307,-56.3733C1197.8252,-46.8793 1245.5984,-32.3396 1279.3215,-22.0761"/>
<polygon fill="#191970" stroke="#191970" points="1280.7546,-25.2985 1289.3023,-19.0384 1278.7164,-18.6018 1280.7546,-25.2985"/>
</g>
<!-- Node16&#45;&gt;Node5 -->
<g id="edge23" class="edge">
<title>Node16&#45;&gt;Node5</title>
<path fill="none" stroke="#191970" d="M1238.2702,-112.3733C1262.3966,-103.1822 1298.9362,-89.2624 1325.6877,-79.0713"/>
<polygon fill="#191970" stroke="#191970" points="1326.9607,-82.3318 1335.0596,-75.5011 1324.4687,-75.7904 1326.9607,-82.3318"/>
</g>
<!-- Node16&#45;&gt;Node6 -->
<g id="edge22" class="edge">
<title>Node16&#45;&gt;Node6</title>
<path fill="none" stroke="#191970" d="M1222.7374,-112.208C1231.9073,-102.9487 1245.9904,-88.6299 1258,-76 1273.4925,-59.7073 1290.8705,-40.8458 1303.1032,-27.4691"/>
<polygon fill="#191970" stroke="#191970" points="1305.836,-29.6668 1309.9919,-19.921 1300.6656,-24.948 1305.836,-29.6668"/>
</g>
<!-- Node17 -->
<g id="node18" class="node">
<title>Node17</title>
<polygon fill="#ffffff" stroke="#bfbfbf" points="1200.5,-56.5 1200.5,-75.5 1249.5,-75.5 1249.5,-56.5 1200.5,-56.5"/>
<text text-anchor="middle" x="1225" y="-63.5" font-family="Helvetica,sans-Serif" font-size="10.00" fill="#000000">string.h</text>
</g>
<!-- Node16&#45;&gt;Node17 -->
<g id="edge24" class="edge">
<title>Node16&#45;&gt;Node17</title>
<path fill="none" stroke="#191970" d="M1215.0902,-112.2455C1216.6561,-104.9382 1218.8512,-94.6944 1220.7776,-85.7046"/>
<polygon fill="#191970" stroke="#191970" points="1224.2607,-86.1541 1222.9337,-75.6427 1217.416,-84.6873 1224.2607,-86.1541"/>
</g>
<!-- Node18&#45;&gt;Node6 -->
<g id="edge26" class="edge">
<title>Node18&#45;&gt;Node6</title>
<path fill="none" stroke="#191970" d="M1463.4806,-112.1287C1460.7948,-97.8938 1453.9098,-71.6032 1438,-56 1416.3612,-34.7781 1383.8558,-23.1006 1358.2829,-16.8274"/>
<polygon fill="#191970" stroke="#191970" points="1359.0342,-13.409 1348.5072,-14.6053 1357.4826,-20.2349 1359.0342,-13.409"/>
</g>
<!-- Node19&#45;&gt;Node8 -->
<g id="edge29" class="edge">
<title>Node19&#45;&gt;Node8</title>
<path fill="none" stroke="#191970" d="M885.5752,-112.4369C839.7645,-102.7925 769.0002,-87.8948 720.0325,-77.5858"/>
<polygon fill="#191970" stroke="#191970" points="720.744,-74.1589 710.2374,-75.5237 719.3019,-81.0088 720.744,-74.1589"/>
</g>
<!-- Node19&#45;&gt;Node9 -->
<g id="edge28" class="edge">
<title>Node19&#45;&gt;Node9</title>
<path fill="none" stroke="#191970" d="M859.3549,-112.6892C826.8879,-106.0787 789.1197,-94.8786 759,-76 739.6652,-63.8812 723.3395,-43.1552 713.1816,-28.1575"/>
<polygon fill="#191970" stroke="#191970" points="716.0635,-26.1688 707.6822,-19.6878 710.1925,-29.9809 716.0635,-26.1688"/>
</g>
<!-- Node20&#45;&gt;Node8 -->
<g id="edge31" class="edge">
<title>Node20&#45;&gt;Node8</title>
<path fill="none" stroke="#191970" d="M441.9371,-112.4369C488.2645,-102.7925 559.8268,-87.8948 609.3469,-77.5858"/>
<polygon fill="#191970" stroke="#191970" points="610.1756,-80.9884 619.2524,-75.5237 608.7489,-74.1353 610.1756,-80.9884"/>
</g>
<!-- Node21&#45;&gt;Node6 -->
<g id="edge33" class="edge">
<title>Node21&#45;&gt;Node6</title>
<path fill="none" stroke="#191970" d="M1562.2041,-112.4941C1540.3075,-98.7146 1497.6865,-72.9855 1459,-56 1426.0359,-41.5269 1387.0103,-29.0661 1358.547,-20.7784"/>
<polygon fill="#191970" stroke="#191970" points="1359.1466,-17.3093 1348.5693,-17.9178 1357.2174,-24.0383 1359.1466,-17.3093"/>
</g>
<!-- Node22&#45;&gt;Node6 -->
<g id="edge36" class="edge">
<title>Node22&#45;&gt;Node6</title>
<path fill="none" stroke="#191970" d="M1658.3925,-112.3968C1622.0904,-98.9455 1553.4594,-74.1122 1494,-56 1447.9138,-41.9614 1394.2407,-28.2344 1358.6104,-19.4838"/>
<polygon fill="#191970" stroke="#191970" points="1359.1559,-16.0143 1348.611,-17.0424 1357.4955,-22.8145 1359.1559,-16.0143"/>
</g>
<!-- Node24 -->
<g id="node25" class="node">
<title>Node24</title>
<g id="a_node25"><a xlink:href="pthread_8h.html" target="_top" xlink:title="ODP Linux helper for pthreads. ">
<polygon fill="#ffffff" stroke="#000000" points="1769.5,-56.5 1769.5,-75.5 1826.5,-75.5 1826.5,-56.5 1769.5,-56.5"/>
<text text-anchor="middle" x="1798" y="-63.5" font-family="Helvetica,sans-Serif" font-size="10.00" fill="#000000">pthread.h</text>
</a>
</g>
</g>
<!-- Node23&#45;&gt;Node24 -->
<g id="edge39" class="edge">
<title>Node23&#45;&gt;Node24</title>
<path fill="none" stroke="#191970" d="M1792.7332,-112.2455C1791.3221,-104.9382 1790.9179,-94.6944 1791.5205,-85.7046"/>
<polygon fill="#191970" stroke="#191970" points="1795.0111,-85.9945 1792.7549,-75.6427 1788.0632,-85.1421 1795.0111,-85.9945"/>
</g>
<!-- Node25 -->
<g id="node26" class="node">
<title>Node25</title>
<polygon fill="#ffffff" stroke="#bfbfbf" points="1845,-56.5 1845,-75.5 1897,-75.5 1897,-56.5 1845,-56.5"/>
<text text-anchor="middle" x="1871" y="-63.5" font-family="Helvetica,sans-Serif" font-size="10.00" fill="#000000">getopt.h</text>
</g>
<!-- Node23&#45;&gt;Node25 -->
<g id="edge41" class="edge">
<title>Node23&#45;&gt;Node25</title>
<path fill="none" stroke="#191970" d="M1810.7156,-112.2455C1821.602,-103.8943 1837.4883,-91.7076 1850.22,-81.9408"/>
<polygon fill="#191970" stroke="#191970" points="1852.6261,-84.5063 1858.4301,-75.6427 1848.3654,-78.9523 1852.6261,-84.5063"/>
</g>
<!-- Node26 -->
<g id="node27" class="node">
<title>Node26</title>
<polygon fill="#ffffff" stroke="#bfbfbf" points="1683,-56.5 1683,-75.5 1751,-75.5 1751,-56.5 1683,-56.5"/>
<text text-anchor="middle" x="1717" y="-63.5" font-family="Helvetica,sans-Serif" font-size="10.00" fill="#000000">sys/types.h</text>
</g>
<!-- Node23&#45;&gt;Node26 -->
<g id="edge42" class="edge">
<title>Node23&#45;&gt;Node26</title>
<path fill="none" stroke="#191970" d="M1783.8909,-112.2455C1771.5791,-103.7337 1753.5042,-91.2375 1739.2462,-81.3801"/>
<polygon fill="#191970" stroke="#191970" points="1741.1634,-78.4506 1730.9474,-75.6427 1737.1826,-84.2085 1741.1634,-78.4506"/>
</g>
<!-- Node24&#45;&gt;Node23 -->
<g id="edge40" class="edge">
<title>Node24&#45;&gt;Node23</title>
<path fill="none" stroke="#191970" d="M1803.2451,-75.6427C1804.6665,-82.9199 1805.081,-93.155 1804.4887,-102.1575"/>
<polygon fill="#191970" stroke="#191970" points="1800.9947,-101.8972 1803.2668,-112.2455 1807.9439,-102.739 1800.9947,-101.8972"/>
</g>
<!-- Node27&#45;&gt;Node5 -->
<g id="edge45" class="edge">
<title>Node27&#45;&gt;Node5</title>
<path fill="none" stroke="#191970" d="M1355.0451,-112.2455C1355.828,-104.9382 1356.9256,-94.6944 1357.8888,-85.7046"/>
<polygon fill="#191970" stroke="#191970" points="1361.3815,-85.9587 1358.9669,-75.6427 1354.4214,-85.2129 1361.3815,-85.9587"/>
</g>
<!-- Node27&#45;&gt;Node6 -->
<g id="edge44" class="edge">
<title>Node27&#45;&gt;Node6</title>
<path fill="none" stroke="#191970" d="M1377.4649,-112.3955C1402.6486,-100.6182 1437.1296,-79.3268 1422,-56 1407.9824,-34.3877 1381.1776,-22.8406 1358.4265,-16.7212"/>
<polygon fill="#191970" stroke="#191970" points="1359.1907,-13.3051 1348.6472,-14.346 1357.5386,-20.1073 1359.1907,-13.3051"/>
</g>
</g>
</svg>
