<?xml version="1.0" encoding="UTF-8" standalone="no"?>
<!DOCTYPE svg PUBLIC "-//W3C//DTD SVG 1.1//EN"
 "http://www.w3.org/Graphics/SVG/1.1/DTD/svg11.dtd">
<!-- Generated by graphviz version 2.40.1 (20161225.0304)
 -->
<!-- Title: odph_cuckootable.h Pages: 1 -->
<svg width="204pt" height="140pt"
 viewBox="0.00 0.00 204.00 140.00" xmlns="http://www.w3.org/2000/svg" xmlns:xlink="http://www.w3.org/1999/xlink">
<g id="graph0" class="graph" transform="scale(1 1) rotate(0) translate(4 136)">
<title>odph_cuckootable.h</title>
<polygon fill="#ffffff" stroke="transparent" points="-4,4 -4,-136 200,-136 200,4 -4,4"/>
<!-- Node0 -->
<g id="node1" class="node">
<title>Node0</title>
<polygon fill="#bfbfbf" stroke="#000000" points="25.5,-112.5 25.5,-131.5 129.5,-131.5 129.5,-112.5 25.5,-112.5"/>
<text text-anchor="middle" x="77.5" y="-119.5" font-family="Helvetica,sans-Serif" font-size="10.00" fill="#000000">odph_cuckootable.h</text>
</g>
<!-- Node1 -->
<g id="node2" class="node">
<title>Node1</title>
<g id="a_node2"><a xlink:href="table_8h.html" target="_top" xlink:title="ODP table. ">
<polygon fill="#ffffff" stroke="#000000" points="30.5,-56.5 30.5,-75.5 124.5,-75.5 124.5,-56.5 30.5,-56.5"/>
<text text-anchor="middle" x="77.5" y="-63.5" font-family="Helvetica,sans-Serif" font-size="10.00" fill="#000000">odp/helper/table.h</text>
</a>
</g>
</g>
<!-- Node0&#45;&gt;Node1 -->
<g id="edge1" class="edge">
<title>Node0&#45;&gt;Node1</title>
<path fill="none" stroke="#191970" d="M77.5,-112.2455C77.5,-104.9382 77.5,-94.6944 77.5,-85.7046"/>
<polygon fill="#191970" stroke="#191970" points="81.0001,-85.6426 77.5,-75.6427 74.0001,-85.6427 81.0001,-85.6426"/>
</g>
<!-- Node2 -->
<g id="node3" class="node">
<title>Node2</title>
<polygon fill="#ffffff" stroke="#bfbfbf" points="0,-.5 0,-19.5 49,-19.5 49,-.5 0,-.5"/>
<text text-anchor="middle" x="24.5" y="-7.5" font-family="Helvetica,sans-Serif" font-size="10.00" fill="#000000">stdint.h</text>
</g>
<!-- Node1&#45;&gt;Node2 -->
<g id="edge2" class="edge">
<title>Node1&#45;&gt;Node2</title>
<path fill="none" stroke="#191970" d="M68.2681,-56.2455C60.6683,-48.2155 49.7123,-36.6394 40.6632,-27.0781"/>
<polygon fill="#191970" stroke="#191970" points="43.042,-24.4998 33.6261,-19.6427 37.9579,-29.3115 43.042,-24.4998"/>
</g>
<!-- Node3 -->
<g id="node4" class="node">
<title>Node3</title>
<g id="a_node4"><a xlink:href="strong__types_8h.html" target="_top" xlink:title="ODP Strong Types. ">
<polygon fill="#ffffff" stroke="#000000" points="67,-.5 67,-19.5 196,-19.5 196,-.5 67,-.5"/>
<text text-anchor="middle" x="131.5" y="-7.5" font-family="Helvetica,sans-Serif" font-size="10.00" fill="#000000">odp/helper/strong_types.h</text>
</a>
</g>
</g>
<!-- Node1&#45;&gt;Node3 -->
<g id="edge3" class="edge">
<title>Node1&#45;&gt;Node3</title>
<path fill="none" stroke="#191970" d="M86.9061,-56.2455C94.6493,-48.2155 105.812,-36.6394 115.0318,-27.0781"/>
<polygon fill="#191970" stroke="#191970" points="117.7798,-29.2706 122.2017,-19.6427 112.7409,-24.4117 117.7798,-29.2706"/>
</g>
</g>
</svg>
