<?xml version="1.0" encoding="UTF-8" standalone="no"?>
<!DOCTYPE svg PUBLIC "-//W3C//DTD SVG 1.1//EN"
 "http://www.w3.org/Graphics/SVG/1.1/DTD/svg11.dtd">
<!-- Generated by graphviz version 2.40.1 (20161225.0304)
 -->
<!-- Title: odph_lineartable.h Pages: 1 -->
<svg width="204pt" height="140pt"
 viewBox="0.00 0.00 204.00 140.00" xmlns="http://www.w3.org/2000/svg" xmlns:xlink="http://www.w3.org/1999/xlink">
<g id="graph0" class="graph" transform="scale(1 1) rotate(0) translate(4 136)">
<title>odph_lineartable.h</title>
<polygon fill="#ffffff" stroke="transparent" points="-4,4 -4,-136 200,-136 200,4 -4,4"/>
<!-- Node0 -->
<g id="node1" class="node">
<title>Node0</title>
<polygon fill="#bfbfbf" stroke="#000000" points="14,-112.5 14,-131.5 109,-131.5 109,-112.5 14,-112.5"/>
<text text-anchor="middle" x="61.5" y="-119.5" font-family="Helvetica,sans-Serif" font-size="10.00" fill="#000000">odph_lineartable.h</text>
</g>
<!-- Node1 -->
<g id="node2" class="node">
<title>Node1</title>
<polygon fill="#ffffff" stroke="#bfbfbf" points="0,-.5 0,-19.5 49,-19.5 49,-.5 0,-.5"/>
<text text-anchor="middle" x="24.5" y="-7.5" font-family="Helvetica,sans-Serif" font-size="10.00" fill="#000000">stdint.h</text>
</g>
<!-- Node0&#45;&gt;Node1 -->
<g id="edge1" class="edge">
<title>Node0&#45;&gt;Node1</title>
<path fill="none" stroke="#191970" d="M57.371,-112.2267C53.5377,-102.9806 47.7926,-88.6708 43.5,-76 38.2992,-60.6483 33.2643,-42.9904 29.6856,-29.8043"/>
<polygon fill="#191970" stroke="#191970" points="33.0103,-28.688 27.0503,-19.9284 26.2469,-30.4928 33.0103,-28.688"/>
</g>
<!-- Node2 -->
<g id="node3" class="node">
<title>Node2</title>
<g id="a_node3"><a xlink:href="table_8h.html" target="_top" xlink:title="ODP table. ">
<polygon fill="#ffffff" stroke="#000000" points="52.5,-56.5 52.5,-75.5 146.5,-75.5 146.5,-56.5 52.5,-56.5"/>
<text text-anchor="middle" x="99.5" y="-63.5" font-family="Helvetica,sans-Serif" font-size="10.00" fill="#000000">odp/helper/table.h</text>
</a>
</g>
</g>
<!-- Node0&#45;&gt;Node2 -->
<g id="edge2" class="edge">
<title>Node0&#45;&gt;Node2</title>
<path fill="none" stroke="#191970" d="M68.1191,-112.2455C73.4046,-104.4564 80.9541,-93.3308 87.3238,-83.9439"/>
<polygon fill="#191970" stroke="#191970" points="90.2379,-85.8827 92.9568,-75.6427 84.4455,-81.9522 90.2379,-85.8827"/>
</g>
<!-- Node2&#45;&gt;Node1 -->
<g id="edge3" class="edge">
<title>Node2&#45;&gt;Node1</title>
<path fill="none" stroke="#191970" d="M86.436,-56.2455C75.1438,-47.814 58.6155,-35.4729 45.4729,-25.6598"/>
<polygon fill="#191970" stroke="#191970" points="47.5211,-22.8211 37.4143,-19.6427 43.3331,-28.4301 47.5211,-22.8211"/>
</g>
<!-- Node3 -->
<g id="node4" class="node">
<title>Node3</title>
<g id="a_node4"><a xlink:href="strong__types_8h.html" target="_top" xlink:title="ODP Strong Types. ">
<polygon fill="#ffffff" stroke="#000000" points="67,-.5 67,-19.5 196,-19.5 196,-.5 67,-.5"/>
<text text-anchor="middle" x="131.5" y="-7.5" font-family="Helvetica,sans-Serif" font-size="10.00" fill="#000000">odp/helper/strong_types.h</text>
</a>
</g>
</g>
<!-- Node2&#45;&gt;Node3 -->
<g id="edge4" class="edge">
<title>Node2&#45;&gt;Node3</title>
<path fill="none" stroke="#191970" d="M105.074,-56.2455C109.4331,-48.617 115.6211,-37.7881 120.9133,-28.5267"/>
<polygon fill="#191970" stroke="#191970" points="124.0673,-30.0616 125.9899,-19.6427 117.9896,-26.5886 124.0673,-30.0616"/>
</g>
</g>
</svg>
