<?xml version="1.0" encoding="UTF-8" standalone="no"?>
<!DOCTYPE svg PUBLIC "-//W3C//DTD SVG 1.1//EN"
 "http://www.w3.org/Graphics/SVG/1.1/DTD/svg11.dtd">
<!-- Generated by graphviz version 2.40.1 (20161225.0304)
 -->
<!-- Title: odph_debug.h Pages: 1 -->
<svg width="270pt" height="84pt"
 viewBox="0.00 0.00 269.50 84.00" xmlns="http://www.w3.org/2000/svg" xmlns:xlink="http://www.w3.org/1999/xlink">
<g id="graph0" class="graph" transform="scale(1 1) rotate(0) translate(4 80)">
<title>odph_debug.h</title>
<polygon fill="#ffffff" stroke="transparent" points="-4,4 -4,-80 265.5,-80 265.5,4 -4,4"/>
<!-- Node0 -->
<g id="node1" class="node">
<title>Node0</title>
<polygon fill="#bfbfbf" stroke="#000000" points="134,-56.5 134,-75.5 211,-75.5 211,-56.5 134,-56.5"/>
<text text-anchor="middle" x="172.5" y="-63.5" font-family="Helvetica,sans-Serif" font-size="10.00" fill="#000000">odph_debug.h</text>
</g>
<!-- Node1 -->
<g id="node2" class="node">
<title>Node1</title>
<polygon fill="#ffffff" stroke="#bfbfbf" points="0,-.5 0,-19.5 131,-19.5 131,-.5 0,-.5"/>
<text text-anchor="middle" x="65.5" y="-7.5" font-family="Helvetica,sans-Serif" font-size="10.00" fill="#000000">odp/autoheader_external.h</text>
</g>
<!-- Node0&#45;&gt;Node1 -->
<g id="edge1" class="edge">
<title>Node0&#45;&gt;Node1</title>
<path fill="none" stroke="#191970" d="M153.862,-56.2455C137.0614,-47.4527 112.1366,-34.4079 93.0382,-24.4125"/>
<polygon fill="#191970" stroke="#191970" points="94.4073,-21.1787 83.9244,-19.6427 91.1614,-27.3807 94.4073,-21.1787"/>
</g>
<!-- Node2 -->
<g id="node3" class="node">
<title>Node2</title>
<polygon fill="#ffffff" stroke="#bfbfbf" points="149.5,-.5 149.5,-19.5 195.5,-19.5 195.5,-.5 149.5,-.5"/>
<text text-anchor="middle" x="172.5" y="-7.5" font-family="Helvetica,sans-Serif" font-size="10.00" fill="#000000">stdio.h</text>
</g>
<!-- Node0&#45;&gt;Node2 -->
<g id="edge2" class="edge">
<title>Node0&#45;&gt;Node2</title>
<path fill="none" stroke="#191970" d="M172.5,-56.2455C172.5,-48.9382 172.5,-38.6944 172.5,-29.7046"/>
<polygon fill="#191970" stroke="#191970" points="176.0001,-29.6426 172.5,-19.6427 169.0001,-29.6427 176.0001,-29.6426"/>
</g>
<!-- Node3 -->
<g id="node4" class="node">
<title>Node3</title>
<polygon fill="#ffffff" stroke="#bfbfbf" points="213.5,-.5 213.5,-19.5 261.5,-19.5 261.5,-.5 213.5,-.5"/>
<text text-anchor="middle" x="237.5" y="-7.5" font-family="Helvetica,sans-Serif" font-size="10.00" fill="#000000">stdlib.h</text>
</g>
<!-- Node0&#45;&gt;Node3 -->
<g id="edge3" class="edge">
<title>Node0&#45;&gt;Node3</title>
<path fill="none" stroke="#191970" d="M183.8221,-56.2455C193.4223,-47.9746 207.3892,-35.9416 218.6695,-26.2232"/>
<polygon fill="#191970" stroke="#191970" points="221.016,-28.8214 226.3076,-19.6427 216.447,-23.5182 221.016,-28.8214"/>
</g>
</g>
</svg>
