<?xml version="1.0" encoding="UTF-8" standalone="no"?>
<!DOCTYPE svg PUBLIC "-//W3C//DTD SVG 1.1//EN"
 "http://www.w3.org/Graphics/SVG/1.1/DTD/svg11.dtd">
<!-- Generated by graphviz version 2.40.1 (20161225.0304)
 -->
<!-- Title: pthread.h Pages: 1 -->
<svg width="146pt" height="140pt"
 viewBox="0.00 0.00 146.00 140.00" xmlns="http://www.w3.org/2000/svg" xmlns:xlink="http://www.w3.org/1999/xlink">
<g id="graph0" class="graph" transform="scale(1 1) rotate(0) translate(4 136)">
<title>pthread.h</title>
<polygon fill="#ffffff" stroke="transparent" points="-4,4 -4,-136 142,-136 142,4 -4,4"/>
<!-- Node0 -->
<g id="node1" class="node">
<title>Node0</title>
<polygon fill="#bfbfbf" stroke="#000000" points="36.5,-112.5 36.5,-131.5 93.5,-131.5 93.5,-112.5 36.5,-112.5"/>
<text text-anchor="middle" x="65" y="-119.5" font-family="Helvetica,sans-Serif" font-size="10.00" fill="#000000">pthread.h</text>
</g>
<!-- Node1 -->
<g id="node2" class="node">
<title>Node1</title>
<g id="a_node2"><a xlink:href="threads_8h.html" target="_top" xlink:title="ODP Linux helper API. ">
<polygon fill="#ffffff" stroke="#000000" points="12.5,-56.5 12.5,-75.5 117.5,-75.5 117.5,-56.5 12.5,-56.5"/>
<text text-anchor="middle" x="65" y="-63.5" font-family="Helvetica,sans-Serif" font-size="10.00" fill="#000000">odp/helper/threads.h</text>
</a>
</g>
</g>
<!-- Node0&#45;&gt;Node1 -->
<g id="edge1" class="edge">
<title>Node0&#45;&gt;Node1</title>
<path fill="none" stroke="#191970" d="M59.7332,-112.2455C58.3221,-104.9382 57.9179,-94.6944 58.5205,-85.7046"/>
<polygon fill="#191970" stroke="#191970" points="62.0111,-85.9945 59.7549,-75.6427 55.0632,-85.1421 62.0111,-85.9945"/>
</g>
<!-- Node1&#45;&gt;Node0 -->
<g id="edge2" class="edge">
<title>Node1&#45;&gt;Node0</title>
<path fill="none" stroke="#191970" d="M70.2451,-75.6427C71.6665,-82.9199 72.081,-93.155 71.4887,-102.1575"/>
<polygon fill="#191970" stroke="#191970" points="67.9947,-101.8972 70.2668,-112.2455 74.9439,-102.739 67.9947,-101.8972"/>
</g>
<!-- Node2 -->
<g id="node3" class="node">
<title>Node2</title>
<polygon fill="#ffffff" stroke="#bfbfbf" points="0,-.5 0,-19.5 52,-19.5 52,-.5 0,-.5"/>
<text text-anchor="middle" x="26" y="-7.5" font-family="Helvetica,sans-Serif" font-size="10.00" fill="#000000">getopt.h</text>
</g>
<!-- Node1&#45;&gt;Node2 -->
<g id="edge3" class="edge">
<title>Node1&#45;&gt;Node2</title>
<path fill="none" stroke="#191970" d="M58.2067,-56.2455C52.7822,-48.4564 45.0339,-37.3308 38.4967,-27.9439"/>
<polygon fill="#191970" stroke="#191970" points="41.3025,-25.8485 32.7154,-19.6427 35.5583,-29.849 41.3025,-25.8485"/>
</g>
<!-- Node3 -->
<g id="node4" class="node">
<title>Node3</title>
<polygon fill="#ffffff" stroke="#bfbfbf" points="70,-.5 70,-19.5 138,-19.5 138,-.5 70,-.5"/>
<text text-anchor="middle" x="104" y="-7.5" font-family="Helvetica,sans-Serif" font-size="10.00" fill="#000000">sys/types.h</text>
</g>
<!-- Node1&#45;&gt;Node3 -->
<g id="edge4" class="edge">
<title>Node1&#45;&gt;Node3</title>
<path fill="none" stroke="#191970" d="M71.7933,-56.2455C77.2178,-48.4564 84.9661,-37.3308 91.5033,-27.9439"/>
<polygon fill="#191970" stroke="#191970" points="94.4417,-29.849 97.2846,-19.6427 88.6975,-25.8485 94.4417,-29.849"/>
</g>
</g>
</svg>
