<?xml version="1.0" encoding="UTF-8" standalone="no"?>
<!DOCTYPE svg PUBLIC "-//W3C//DTD SVG 1.1//EN"
 "http://www.w3.org/Graphics/SVG/1.1/DTD/svg11.dtd">
<!-- Generated by graphviz version 2.40.1 (20161225.0304)
 -->
<!-- Title: pthread.h Pages: 1 -->
<svg width="172pt" height="196pt"
 viewBox="0.00 0.00 171.50 196.00" xmlns="http://www.w3.org/2000/svg" xmlns:xlink="http://www.w3.org/1999/xlink">
<g id="graph0" class="graph" transform="scale(1 1) rotate(0) translate(4 192)">
<title>pthread.h</title>
<polygon fill="#ffffff" stroke="transparent" points="-4,4 -4,-192 167.5,-192 167.5,4 -4,4"/>
<!-- Node4 -->
<g id="node1" class="node">
<title>Node4</title>
<polygon fill="#bfbfbf" stroke="#000000" points="23,-168.5 23,-187.5 80,-187.5 80,-168.5 23,-168.5"/>
<text text-anchor="middle" x="51.5" y="-175.5" font-family="Helvetica,sans-Serif" font-size="10.00" fill="#000000">pthread.h</text>
</g>
<!-- Node5 -->
<g id="node2" class="node">
<title>Node5</title>
<g id="a_node2"><a xlink:href="linux_8h.html" target="_top" xlink:title="All ODP Linux helpers. ">
<polygon fill="#ffffff" stroke="#000000" points="0,-.5 0,-19.5 45,-19.5 45,-.5 0,-.5"/>
<text text-anchor="middle" x="22.5" y="-7.5" font-family="Helvetica,sans-Serif" font-size="10.00" fill="#000000">linux.h</text>
</a>
</g>
</g>
<!-- Node4&#45;&gt;Node5 -->
<g id="edge1" class="edge">
<title>Node4&#45;&gt;Node5</title>
<path fill="none" stroke="#191970" d="M32.8752,-161.146C25.3693,-153.1373 17.5414,-142.9303 13.5,-132 -1.1568,-92.359 12.4115,-40.6272 19.1803,-19.5557"/>
<polygon fill="#191970" stroke="#191970" points="30.5677,-163.7877 40.1217,-168.3672 35.5088,-158.8292 30.5677,-163.7877"/>
</g>
<!-- Node6 -->
<g id="node3" class="node">
<title>Node6</title>
<g id="a_node3"><a xlink:href="threads_8h.html" target="_top" xlink:title="ODP Linux helper API. ">
<polygon fill="#ffffff" stroke="#000000" points="23,-112.5 23,-131.5 80,-131.5 80,-112.5 23,-112.5"/>
<text text-anchor="middle" x="51.5" y="-119.5" font-family="Helvetica,sans-Serif" font-size="10.00" fill="#000000">threads.h</text>
</a>
</g>
</g>
<!-- Node4&#45;&gt;Node6 -->
<g id="edge2" class="edge">
<title>Node4&#45;&gt;Node6</title>
<path fill="none" stroke="#191970" d="M45.0113,-158.1575C44.419,-149.155 44.8335,-138.9199 46.2549,-131.6427"/>
<polygon fill="#191970" stroke="#191970" points="41.5561,-158.739 46.2332,-168.2455 48.5053,-157.8972 41.5561,-158.739"/>
</g>
<!-- Node6&#45;&gt;Node4 -->
<g id="edge5" class="edge">
<title>Node6&#45;&gt;Node4</title>
<path fill="none" stroke="#191970" d="M57.9795,-141.7046C58.5821,-150.6944 58.1779,-160.9382 56.7668,-168.2455"/>
<polygon fill="#191970" stroke="#191970" points="61.4368,-141.1421 56.7451,-131.6427 54.4889,-141.9945 61.4368,-141.1421"/>
</g>
<!-- Node7 -->
<g id="node4" class="node">
<title>Node7</title>
<g id="a_node4"><a xlink:href="process_8h.html" target="_top" xlink:title="ODP Linux helper for processes. ">
<polygon fill="#ffffff" stroke="#000000" points="22,-56.5 22,-75.5 81,-75.5 81,-56.5 22,-56.5"/>
<text text-anchor="middle" x="51.5" y="-63.5" font-family="Helvetica,sans-Serif" font-size="10.00" fill="#000000">process.h</text>
</a>
</g>
</g>
<!-- Node6&#45;&gt;Node7 -->
<g id="edge3" class="edge">
<title>Node6&#45;&gt;Node7</title>
<path fill="none" stroke="#191970" d="M51.5,-102.1575C51.5,-93.155 51.5,-82.9199 51.5,-75.6427"/>
<polygon fill="#191970" stroke="#191970" points="48.0001,-102.2455 51.5,-112.2455 55.0001,-102.2456 48.0001,-102.2455"/>
</g>
<!-- Node8 -->
<g id="node5" class="node">
<title>Node8</title>
<g id="a_node5"><a xlink:href="odph__api_8h.html" target="_top" xlink:title="The OpenDataPlane helper API. ">
<polygon fill="#ffffff" stroke="#000000" points="99.5,-56.5 99.5,-75.5 163.5,-75.5 163.5,-56.5 99.5,-56.5"/>
<text text-anchor="middle" x="131.5" y="-63.5" font-family="Helvetica,sans-Serif" font-size="10.00" fill="#000000">odph_api.h</text>
</a>
</g>
</g>
<!-- Node6&#45;&gt;Node8 -->
<g id="edge6" class="edge">
<title>Node6&#45;&gt;Node8</title>
<path fill="none" stroke="#191970" d="M73.6571,-106.49C87.772,-96.6096 105.6151,-84.1194 117.7248,-75.6427"/>
<polygon fill="#191970" stroke="#191970" points="71.6201,-103.6436 65.4349,-112.2455 75.6344,-109.3782 71.6201,-103.6436"/>
</g>
<!-- Node7&#45;&gt;Node5 -->
<g id="edge4" class="edge">
<title>Node7&#45;&gt;Node5</title>
<path fill="none" stroke="#191970" d="M41.8353,-47.3372C37.0313,-38.0605 31.4277,-27.2398 27.4935,-19.6427"/>
<polygon fill="#191970" stroke="#191970" points="38.742,-48.9751 46.4486,-56.2455 44.958,-45.7561 38.742,-48.9751"/>
</g>
</g>
</svg>
