<?xml version="1.0" encoding="UTF-8" standalone="no"?>
<!DOCTYPE svg PUBLIC "-//W3C//DTD SVG 1.1//EN"
 "http://www.w3.org/Graphics/SVG/1.1/DTD/svg11.dtd">
<!-- Generated by graphviz version 2.40.1 (20161225.0304)
 -->
<!-- Title: strong_types.h Pages: 1 -->
<svg width="511pt" height="196pt"
 viewBox="0.00 0.00 511.00 196.00" xmlns="http://www.w3.org/2000/svg" xmlns:xlink="http://www.w3.org/1999/xlink">
<g id="graph0" class="graph" transform="scale(1 1) rotate(0) translate(4 192)">
<title>strong_types.h</title>
<polygon fill="#ffffff" stroke="transparent" points="-4,4 -4,-192 507,-192 507,4 -4,4"/>
<!-- Node1 -->
<g id="node1" class="node">
<title>Node1</title>
<polygon fill="#bfbfbf" stroke="#000000" points="0,-168.5 0,-187.5 81,-187.5 81,-168.5 0,-168.5"/>
<text text-anchor="middle" x="40.5" y="-175.5" font-family="Helvetica,sans-Serif" font-size="10.00" fill="#000000">strong_types.h</text>
</g>
<!-- Node2 -->
<g id="node2" class="node">
<title>Node2</title>
<g id="a_node2"><a xlink:href="odph__api_8h.html" target="_top" xlink:title="The OpenDataPlane helper API. ">
<polygon fill="#ffffff" stroke="#000000" points="125.5,-.5 125.5,-19.5 189.5,-19.5 189.5,-.5 125.5,-.5"/>
<text text-anchor="middle" x="157.5" y="-7.5" font-family="Helvetica,sans-Serif" font-size="10.00" fill="#000000">odph_api.h</text>
</a>
</g>
</g>
<!-- Node1&#45;&gt;Node2 -->
<g id="edge1" class="edge">
<title>Node1&#45;&gt;Node2</title>
<path fill="none" stroke="#191970" d="M32.0019,-158.9656C21.8996,-133.1494 8.9422,-86.7367 30.5,-56 41.6427,-40.1129 91.4569,-25.542 125.2845,-17.2254"/>
<polygon fill="#191970" stroke="#191970" points="28.842,-160.4823 35.9171,-168.3685 35.3042,-157.7914 28.842,-160.4823"/>
</g>
<!-- Node3 -->
<g id="node3" class="node">
<title>Node3</title>
<g id="a_node3"><a xlink:href="table_8h.html" target="_top" xlink:title="ODP table. ">
<polygon fill="#ffffff" stroke="#000000" points="134.5,-112.5 134.5,-131.5 180.5,-131.5 180.5,-112.5 134.5,-112.5"/>
<text text-anchor="middle" x="157.5" y="-119.5" font-family="Helvetica,sans-Serif" font-size="10.00" fill="#000000">table.h</text>
</a>
</g>
</g>
<!-- Node1&#45;&gt;Node3 -->
<g id="edge2" class="edge">
<title>Node1&#45;&gt;Node3</title>
<path fill="none" stroke="#191970" d="M69.8042,-163.9741C90.988,-153.8348 119.0403,-140.408 137.6494,-131.5011"/>
<polygon fill="#191970" stroke="#191970" points="68.122,-160.8989 60.613,-168.3733 71.1441,-167.2129 68.122,-160.8989"/>
</g>
<!-- Node3&#45;&gt;Node2 -->
<g id="edge3" class="edge">
<title>Node3&#45;&gt;Node2</title>
<path fill="none" stroke="#191970" d="M124.7054,-113.7841C93.0878,-105.1211 48.5863,-90.7125 38.5,-76 14.5887,-41.1214 82.2958,-22.7505 125.1891,-14.8547"/>
<polygon fill="#191970" stroke="#191970" points="123.8938,-117.19 134.4582,-116.388 125.6995,-110.4269 123.8938,-117.19"/>
</g>
<!-- Node4 -->
<g id="node4" class="node">
<title>Node4</title>
<g id="a_node4"><a xlink:href="odph__cuckootable_8h.html" target="_top" xlink:title="ODP Cuckoo Hash Table. ">
<polygon fill="#ffffff" stroke="#000000" points="47.5,-56.5 47.5,-75.5 151.5,-75.5 151.5,-56.5 47.5,-56.5"/>
<text text-anchor="middle" x="99.5" y="-63.5" font-family="Helvetica,sans-Serif" font-size="10.00" fill="#000000">odph_cuckootable.h</text>
</a>
</g>
</g>
<!-- Node3&#45;&gt;Node4 -->
<g id="edge4" class="edge">
<title>Node3&#45;&gt;Node4</title>
<path fill="none" stroke="#191970" d="M139.9707,-105.0751C129.9917,-95.4402 117.8524,-83.7196 109.4871,-75.6427"/>
<polygon fill="#191970" stroke="#191970" points="137.772,-107.8175 147.3972,-112.2455 142.6342,-102.7817 137.772,-107.8175"/>
</g>
<!-- Node5 -->
<g id="node5" class="node">
<title>Node5</title>
<g id="a_node5"><a xlink:href="odph__hashtable_8h.html" target="_top" xlink:title="ODP Hash Table. ">
<polygon fill="#ffffff" stroke="#000000" points="170,-56.5 170,-75.5 263,-75.5 263,-56.5 170,-56.5"/>
<text text-anchor="middle" x="216.5" y="-63.5" font-family="Helvetica,sans-Serif" font-size="10.00" fill="#000000">odph_hashtable.h</text>
</a>
</g>
</g>
<!-- Node3&#45;&gt;Node5 -->
<g id="edge6" class="edge">
<title>Node3&#45;&gt;Node5</title>
<path fill="none" stroke="#191970" d="M175.0307,-105.3607C185.2377,-95.6727 197.7469,-83.7995 206.3408,-75.6427"/>
<polygon fill="#191970" stroke="#191970" points="172.6206,-102.8227 167.777,-112.2455 177.4396,-107.8998 172.6206,-102.8227"/>
</g>
<!-- Node6 -->
<g id="node6" class="node">
<title>Node6</title>
<g id="a_node6"><a xlink:href="odph__iplookuptable_8h.html" target="_top" xlink:title="ODP IP Lookup Table. ">
<polygon fill="#ffffff" stroke="#000000" points="281.5,-56.5 281.5,-75.5 389.5,-75.5 389.5,-56.5 281.5,-56.5"/>
<text text-anchor="middle" x="335.5" y="-63.5" font-family="Helvetica,sans-Serif" font-size="10.00" fill="#000000">odph_iplookuptable.h</text>
</a>
</g>
</g>
<!-- Node3&#45;&gt;Node6 -->
<g id="edge8" class="edge">
<title>Node3&#45;&gt;Node6</title>
<path fill="none" stroke="#191970" d="M190.3588,-111.6624C223.1594,-101.3431 273.1537,-85.6146 305.0714,-75.573"/>
<polygon fill="#191970" stroke="#191970" points="189.2591,-108.3392 180.7704,-114.679 191.3598,-115.0165 189.2591,-108.3392"/>
</g>
<!-- Node7 -->
<g id="node7" class="node">
<title>Node7</title>
<g id="a_node7"><a xlink:href="odph__lineartable_8h.html" target="_top" xlink:title="ODP Linear Table. ">
<polygon fill="#ffffff" stroke="#000000" points="408,-56.5 408,-75.5 503,-75.5 503,-56.5 408,-56.5"/>
<text text-anchor="middle" x="455.5" y="-63.5" font-family="Helvetica,sans-Serif" font-size="10.00" fill="#000000">odph_lineartable.h</text>
</a>
</g>
</g>
<!-- Node3&#45;&gt;Node7 -->
<g id="edge10" class="edge">
<title>Node3&#45;&gt;Node7</title>
<path fill="none" stroke="#191970" d="M190.7594,-115.7499C243.6505,-105.8106 347.1452,-86.362 407.8845,-74.9479"/>
<polygon fill="#191970" stroke="#191970" points="190.0651,-112.319 180.8836,-117.6058 191.358,-119.1986 190.0651,-112.319"/>
</g>
<!-- Node4&#45;&gt;Node2 -->
<g id="edge5" class="edge">
<title>Node4&#45;&gt;Node2</title>
<path fill="none" stroke="#191970" d="M117.0293,-49.0751C127.0083,-39.4402 139.1476,-27.7196 147.5129,-19.6427"/>
<polygon fill="#191970" stroke="#191970" points="114.3658,-46.7817 109.6028,-56.2455 119.228,-51.8175 114.3658,-46.7817"/>
</g>
<!-- Node5&#45;&gt;Node2 -->
<g id="edge7" class="edge">
<title>Node5&#45;&gt;Node2</title>
<path fill="none" stroke="#191970" d="M198.9693,-49.3607C188.7623,-39.6727 176.2531,-27.7995 167.6592,-19.6427"/>
<polygon fill="#191970" stroke="#191970" points="196.5604,-51.8998 206.223,-56.2455 201.3794,-46.8227 196.5604,-51.8998"/>
</g>
<!-- Node6&#45;&gt;Node2 -->
<g id="edge9" class="edge">
<title>Node6&#45;&gt;Node2</title>
<path fill="none" stroke="#191970" d="M295.2069,-53.3235C262.5632,-43.0536 217.2866,-28.8093 187.7,-19.5011"/>
<polygon fill="#191970" stroke="#191970" points="294.3113,-56.7108 304.9007,-56.3733 296.412,-50.0335 294.3113,-56.7108"/>
</g>
<!-- Node7&#45;&gt;Node2 -->
<g id="edge11" class="edge">
<title>Node7&#45;&gt;Node2</title>
<path fill="none" stroke="#191970" d="M397.9329,-55.182C335.9448,-43.5333 239.5373,-25.4164 189.7253,-16.0558"/>
<polygon fill="#191970" stroke="#191970" points="397.4771,-58.6576 407.9515,-57.0647 398.77,-51.778 397.4771,-58.6576"/>
</g>
</g>
</svg>
