<?xml version="1.0" encoding="UTF-8" standalone="no"?>
<!DOCTYPE svg PUBLIC "-//W3C//DTD SVG 1.1//EN"
 "http://www.w3.org/Graphics/SVG/1.1/DTD/svg11.dtd">
<!-- Generated by graphviz version 2.40.1 (20161225.0304)
 -->
<!-- Title: table.h Pages: 1 -->
<svg width="477pt" height="140pt"
 viewBox="0.00 0.00 476.58 140.00" xmlns="http://www.w3.org/2000/svg" xmlns:xlink="http://www.w3.org/1999/xlink">
<g id="graph0" class="graph" transform="scale(1 1) rotate(0) translate(4 136)">
<title>table.h</title>
<polygon fill="#ffffff" stroke="transparent" points="-4,4 -4,-136 472.5819,-136 472.5819,4 -4,4"/>
<!-- Node3 -->
<g id="node1" class="node">
<title>Node3</title>
<polygon fill="#bfbfbf" stroke="#000000" points="159.0819,-112.5 159.0819,-131.5 205.0819,-131.5 205.0819,-112.5 159.0819,-112.5"/>
<text text-anchor="middle" x="182.0819" y="-119.5" font-family="Helvetica,sans-Serif" font-size="10.00" fill="#000000">table.h</text>
</g>
<!-- Node4 -->
<g id="node2" class="node">
<title>Node4</title>
<g id="a_node2"><a xlink:href="odph__api_8h.html" target="_top" xlink:title="The OpenDataPlane helper API. ">
<polygon fill="#ffffff" stroke="#000000" points="150.0819,-.5 150.0819,-19.5 214.0819,-19.5 214.0819,-.5 150.0819,-.5"/>
<text text-anchor="middle" x="182.0819" y="-7.5" font-family="Helvetica,sans-Serif" font-size="10.00" fill="#000000">odph_api.h</text>
</a>
</g>
</g>
<!-- Node3&#45;&gt;Node4 -->
<g id="edge1" class="edge">
<title>Node3&#45;&gt;Node4</title>
<path fill="none" stroke="#191970" d="M148.6082,-118.201C102.0919,-112.1543 21.6234,-98.651 4.0819,-76 -1.3606,-68.9721 -1.3606,-63.0279 4.0819,-56 21.7683,-33.1619 103.426,-19.6232 149.7543,-13.6506"/>
<polygon fill="#191970" stroke="#191970" points="148.4571,-121.7094 158.8145,-119.4791 149.3269,-114.7636 148.4571,-121.7094"/>
</g>
<!-- Node5 -->
<g id="node3" class="node">
<title>Node5</title>
<g id="a_node3"><a xlink:href="odph__cuckootable_8h.html" target="_top" xlink:title="ODP Cuckoo Hash Table. ">
<polygon fill="#ffffff" stroke="#000000" points="13.0819,-56.5 13.0819,-75.5 117.0819,-75.5 117.0819,-56.5 13.0819,-56.5"/>
<text text-anchor="middle" x="65.0819" y="-63.5" font-family="Helvetica,sans-Serif" font-size="10.00" fill="#000000">odph_cuckootable.h</text>
</a>
</g>
</g>
<!-- Node3&#45;&gt;Node5 -->
<g id="edge2" class="edge">
<title>Node3&#45;&gt;Node5</title>
<path fill="none" stroke="#191970" d="M152.7777,-107.9741C131.5939,-97.8348 103.5416,-84.408 84.9325,-75.5011"/>
<polygon fill="#191970" stroke="#191970" points="151.4378,-111.2129 161.9689,-112.3733 154.4599,-104.8989 151.4378,-111.2129"/>
</g>
<!-- Node6 -->
<g id="node4" class="node">
<title>Node6</title>
<g id="a_node4"><a xlink:href="odph__hashtable_8h.html" target="_top" xlink:title="ODP Hash Table. ">
<polygon fill="#ffffff" stroke="#000000" points="135.5819,-56.5 135.5819,-75.5 228.5819,-75.5 228.5819,-56.5 135.5819,-56.5"/>
<text text-anchor="middle" x="182.0819" y="-63.5" font-family="Helvetica,sans-Serif" font-size="10.00" fill="#000000">odph_hashtable.h</text>
</a>
</g>
</g>
<!-- Node3&#45;&gt;Node6 -->
<g id="edge4" class="edge">
<title>Node3&#45;&gt;Node6</title>
<path fill="none" stroke="#191970" d="M182.0819,-102.1575C182.0819,-93.155 182.0819,-82.9199 182.0819,-75.6427"/>
<polygon fill="#191970" stroke="#191970" points="178.582,-102.2455 182.0819,-112.2455 185.582,-102.2456 178.582,-102.2455"/>
</g>
<!-- Node7 -->
<g id="node5" class="node">
<title>Node7</title>
<g id="a_node5"><a xlink:href="odph__iplookuptable_8h.html" target="_top" xlink:title="ODP IP Lookup Table. ">
<polygon fill="#ffffff" stroke="#000000" points="247.0819,-56.5 247.0819,-75.5 355.0819,-75.5 355.0819,-56.5 247.0819,-56.5"/>
<text text-anchor="middle" x="301.0819" y="-63.5" font-family="Helvetica,sans-Serif" font-size="10.00" fill="#000000">odph_iplookuptable.h</text>
</a>
</g>
</g>
<!-- Node3&#45;&gt;Node7 -->
<g id="edge6" class="edge">
<title>Node3&#45;&gt;Node7</title>
<path fill="none" stroke="#191970" d="M211.5963,-108.1109C233.1757,-97.9559 261.8796,-84.4482 280.892,-75.5011"/>
<polygon fill="#191970" stroke="#191970" points="210.0966,-104.9484 202.5387,-112.3733 213.0773,-111.2821 210.0966,-104.9484"/>
</g>
<!-- Node8 -->
<g id="node6" class="node">
<title>Node8</title>
<g id="a_node6"><a xlink:href="odph__lineartable_8h.html" target="_top" xlink:title="ODP Linear Table. ">
<polygon fill="#ffffff" stroke="#000000" points="373.5819,-56.5 373.5819,-75.5 468.5819,-75.5 468.5819,-56.5 373.5819,-56.5"/>
<text text-anchor="middle" x="421.0819" y="-63.5" font-family="Helvetica,sans-Serif" font-size="10.00" fill="#000000">odph_lineartable.h</text>
</a>
</g>
</g>
<!-- Node3&#45;&gt;Node8 -->
<g id="edge8" class="edge">
<title>Node3&#45;&gt;Node8</title>
<path fill="none" stroke="#191970" d="M215.4134,-114.1901C258.5327,-104.0868 333.6193,-86.4933 380.1545,-75.5897"/>
<polygon fill="#191970" stroke="#191970" points="214.3712,-110.8394 205.4334,-116.5285 215.9682,-117.6548 214.3712,-110.8394"/>
</g>
<!-- Node5&#45;&gt;Node4 -->
<g id="edge3" class="edge">
<title>Node5&#45;&gt;Node4</title>
<path fill="none" stroke="#191970" d="M94.3861,-51.9741C115.5699,-41.8348 143.6223,-28.408 162.2314,-19.5011"/>
<polygon fill="#191970" stroke="#191970" points="92.7039,-48.8989 85.1949,-56.3733 95.7261,-55.2129 92.7039,-48.8989"/>
</g>
<!-- Node6&#45;&gt;Node4 -->
<g id="edge5" class="edge">
<title>Node6&#45;&gt;Node4</title>
<path fill="none" stroke="#191970" d="M182.0819,-46.1575C182.0819,-37.155 182.0819,-26.9199 182.0819,-19.6427"/>
<polygon fill="#191970" stroke="#191970" points="178.582,-46.2455 182.0819,-56.2455 185.582,-46.2456 178.582,-46.2455"/>
</g>
<!-- Node7&#45;&gt;Node4 -->
<g id="edge7" class="edge">
<title>Node7&#45;&gt;Node4</title>
<path fill="none" stroke="#191970" d="M271.5675,-52.1109C249.9881,-41.9559 221.2843,-28.4482 202.2718,-19.5011"/>
<polygon fill="#191970" stroke="#191970" points="270.0866,-55.2821 280.6251,-56.3733 273.0672,-48.9484 270.0866,-55.2821"/>
</g>
<!-- Node8&#45;&gt;Node4 -->
<g id="edge9" class="edge">
<title>Node8&#45;&gt;Node4</title>
<path fill="none" stroke="#191970" d="M370.255,-54.0908C323.0921,-43.04 254.3261,-26.9275 214.299,-17.5488"/>
<polygon fill="#191970" stroke="#191970" points="369.7331,-57.5632 380.2679,-56.4369 371.3301,-50.7478 369.7331,-57.5632"/>
</g>
</g>
</svg>
