<?xml version="1.0" encoding="UTF-8" standalone="no"?>
<!DOCTYPE svg PUBLIC "-//W3C//DTD SVG 1.1//EN"
 "http://www.w3.org/Graphics/SVG/1.1/DTD/svg11.dtd">
<!-- Generated by graphviz version 2.40.1 (20161225.0304)
 -->
<!-- Title: threads.h Pages: 1 -->
<svg width="225pt" height="140pt"
 viewBox="0.00 0.00 224.50 140.00" xmlns="http://www.w3.org/2000/svg" xmlns:xlink="http://www.w3.org/1999/xlink">
<g id="graph0" class="graph" transform="scale(1 1) rotate(0) translate(4 136)">
<title>threads.h</title>
<polygon fill="#ffffff" stroke="transparent" points="-4,4 -4,-136 220.5,-136 220.5,4 -4,4"/>
<!-- Node4 -->
<g id="node1" class="node">
<title>Node4</title>
<polygon fill="#bfbfbf" stroke="#000000" points="77,-112.5 77,-131.5 134,-131.5 134,-112.5 77,-112.5"/>
<text text-anchor="middle" x="105.5" y="-119.5" font-family="Helvetica,sans-Serif" font-size="10.00" fill="#000000">threads.h</text>
</g>
<!-- Node5 -->
<g id="node2" class="node">
<title>Node5</title>
<g id="a_node2"><a xlink:href="process_8h.html" target="_top" xlink:title="ODP Linux helper for processes. ">
<polygon fill="#ffffff" stroke="#000000" points="0,-56.5 0,-75.5 59,-75.5 59,-56.5 0,-56.5"/>
<text text-anchor="middle" x="29.5" y="-63.5" font-family="Helvetica,sans-Serif" font-size="10.00" fill="#000000">process.h</text>
</a>
</g>
</g>
<!-- Node4&#45;&gt;Node5 -->
<g id="edge1" class="edge">
<title>Node4&#45;&gt;Node5</title>
<path fill="none" stroke="#191970" d="M84.0703,-106.2097C70.7223,-96.3743 53.9821,-84.0394 42.5865,-75.6427"/>
<polygon fill="#191970" stroke="#191970" points="82.135,-109.1312 92.2618,-112.2455 86.2874,-103.4958 82.135,-109.1312"/>
</g>
<!-- Node7 -->
<g id="node4" class="node">
<title>Node7</title>
<g id="a_node4"><a xlink:href="pthread_8h.html" target="_top" xlink:title="ODP Linux helper for pthreads. ">
<polygon fill="#ffffff" stroke="#000000" points="77,-56.5 77,-75.5 134,-75.5 134,-56.5 77,-56.5"/>
<text text-anchor="middle" x="105.5" y="-63.5" font-family="Helvetica,sans-Serif" font-size="10.00" fill="#000000">pthread.h</text>
</a>
</g>
</g>
<!-- Node4&#45;&gt;Node7 -->
<g id="edge3" class="edge">
<title>Node4&#45;&gt;Node7</title>
<path fill="none" stroke="#191970" d="M99.0113,-102.1575C98.419,-93.155 98.8335,-82.9199 100.2549,-75.6427"/>
<polygon fill="#191970" stroke="#191970" points="95.5561,-102.739 100.2332,-112.2455 102.5053,-101.8972 95.5561,-102.739"/>
</g>
<!-- Node8 -->
<g id="node5" class="node">
<title>Node8</title>
<g id="a_node5"><a xlink:href="odph__api_8h.html" target="_top" xlink:title="The OpenDataPlane helper API. ">
<polygon fill="#ffffff" stroke="#000000" points="152.5,-56.5 152.5,-75.5 216.5,-75.5 216.5,-56.5 152.5,-56.5"/>
<text text-anchor="middle" x="184.5" y="-63.5" font-family="Helvetica,sans-Serif" font-size="10.00" fill="#000000">odph_api.h</text>
</a>
</g>
</g>
<!-- Node4&#45;&gt;Node8 -->
<g id="edge6" class="edge">
<title>Node4&#45;&gt;Node8</title>
<path fill="none" stroke="#191970" d="M127.7756,-106.2097C141.6505,-96.3743 159.0515,-84.0394 170.8969,-75.6427"/>
<polygon fill="#191970" stroke="#191970" points="125.3949,-103.6071 119.2607,-112.2455 129.4431,-109.3178 125.3949,-103.6071"/>
</g>
<!-- Node6 -->
<g id="node3" class="node">
<title>Node6</title>
<g id="a_node3"><a xlink:href="linux_8h.html" target="_top" xlink:title="All ODP Linux helpers. ">
<polygon fill="#ffffff" stroke="#000000" points="45,-.5 45,-19.5 90,-19.5 90,-.5 45,-.5"/>
<text text-anchor="middle" x="67.5" y="-7.5" font-family="Helvetica,sans-Serif" font-size="10.00" fill="#000000">linux.h</text>
</a>
</g>
</g>
<!-- Node5&#45;&gt;Node6 -->
<g id="edge2" class="edge">
<title>Node5&#45;&gt;Node6</title>
<path fill="none" stroke="#191970" d="M41.7679,-47.9209C48.1488,-38.5176 55.6931,-27.3997 60.9568,-19.6427"/>
<polygon fill="#191970" stroke="#191970" points="38.838,-46.0055 36.1191,-56.2455 44.6303,-49.936 38.838,-46.0055"/>
</g>
<!-- Node7&#45;&gt;Node4 -->
<g id="edge5" class="edge">
<title>Node7&#45;&gt;Node4</title>
<path fill="none" stroke="#191970" d="M111.9795,-85.7046C112.5821,-94.6944 112.1779,-104.9382 110.7668,-112.2455"/>
<polygon fill="#191970" stroke="#191970" points="115.4368,-85.1421 110.7451,-75.6427 108.4889,-85.9945 115.4368,-85.1421"/>
</g>
<!-- Node7&#45;&gt;Node6 -->
<g id="edge4" class="edge">
<title>Node7&#45;&gt;Node6</title>
<path fill="none" stroke="#191970" d="M93.2321,-47.9209C86.8512,-38.5176 79.3069,-27.3997 74.0432,-19.6427"/>
<polygon fill="#191970" stroke="#191970" points="90.3697,-49.936 98.8809,-56.2455 96.162,-46.0055 90.3697,-49.936"/>
</g>
</g>
</svg>
